<?xml version="1.0" encoding="utf-8"?>
<!-- Generator: Adobe Illustrator 15.1.0, SVG Export Plug-In . SVG Version: 6.00 Build 0)  -->
<!DOCTYPE svg PUBLIC "-//W3C//DTD SVG 1.0//EN" "http://www.w3.org/TR/2001/REC-SVG-20010904/DTD/svg10.dtd">
<svg version="1.0" id="Layer_1" xmlns="http://www.w3.org/2000/svg" xmlns:xlink="http://www.w3.org/1999/xlink" x="0px" y="0px"
	 width="612px" height="792px" viewBox="0 0 612 792" enable-background="new 0 0 612 792" xml:space="preserve">
<path fill="none" stroke="#434344" stroke-width="0.581" d="M456.343,350.777c-1.634,0-2.959,1.327-2.959,2.961
	c0,1.636,1.325,2.959,2.959,2.959s2.961-1.324,2.961-2.959C459.304,352.104,457.977,350.777,456.343,350.777"/>
<path fill="none" stroke="#434344" stroke-width="0.581" d="M463.772,350.777c-1.634,0-2.959,1.327-2.959,2.961
	c0,1.636,1.325,2.959,2.959,2.959c1.636,0,2.96-1.324,2.96-2.959C466.732,352.104,465.408,350.777,463.772,350.777"/>
<path fill="none" stroke="#434344" stroke-width="0.581" d="M470.881,350.777c-1.636,0-2.961,1.327-2.961,2.961
	c0,1.636,1.325,2.959,2.961,2.959c1.633,0,2.958-1.324,2.958-2.959C473.839,352.104,472.514,350.777,470.881,350.777"/>
<path fill="none" stroke="#434344" stroke-width="0.581" d="M508.675,341.68c-1.637,0-2.961-1.326-2.961-2.962
	c0-1.634,1.324-2.96,2.961-2.96c1.634,0,2.961,1.326,2.961,2.96C511.636,340.354,510.309,341.68,508.675,341.68"/>
<path fill="none" stroke="#434344" stroke-width="0.581" d="M516.104,341.68c-1.636,0-2.961-1.326-2.961-2.962
	c0-1.634,1.325-2.96,2.961-2.96c1.633,0,2.958,1.326,2.958,2.96C519.063,340.354,517.737,341.68,516.104,341.68"/>
<path fill="none" stroke="#434344" stroke-width="0.581" d="M523.211,341.68c-1.636,0-2.962-1.326-2.962-2.962
	c0-1.634,1.326-2.96,2.962-2.96c1.634,0,2.959,1.326,2.959,2.96C526.17,340.354,524.845,341.68,523.211,341.68"/>
<path fill="none" stroke="#434344" stroke-width="0.581" d="M456.343,341.68c-1.634,0-2.959-1.326-2.959-2.962
	c0-1.634,1.325-2.96,2.959-2.96s2.961,1.326,2.961,2.96C459.304,340.354,457.977,341.68,456.343,341.68"/>
<path fill="none" stroke="#434344" stroke-width="0.581" d="M463.772,341.68c-1.634,0-2.959-1.326-2.959-2.962
	c0-1.634,1.325-2.96,2.959-2.96c1.636,0,2.96,1.326,2.96,2.96C466.732,340.354,465.408,341.68,463.772,341.68"/>
<path fill="none" stroke="#434344" stroke-width="0.581" d="M470.881,341.68c-1.636,0-2.961-1.326-2.961-2.962
	c0-1.634,1.325-2.96,2.961-2.96c1.633,0,2.958,1.326,2.958,2.96C473.839,340.354,472.514,341.68,470.881,341.68"/>
<path fill="none" stroke="#434344" stroke-width="0.581" d="M508.675,326.661c-1.637,0-2.961-1.328-2.961-2.963
	c0-1.633,1.324-2.959,2.961-2.959c1.634,0,2.961,1.326,2.961,2.959C511.636,325.333,510.309,326.661,508.675,326.661"/>
<path fill="none" stroke="#434344" stroke-width="0.581" d="M516.104,326.661c-1.636,0-2.961-1.328-2.961-2.963
	c0-1.633,1.325-2.959,2.961-2.959c1.633,0,2.958,1.326,2.958,2.959C519.063,325.333,517.737,326.661,516.104,326.661"/>
<path fill="none" stroke="#434344" stroke-width="0.581" d="M523.211,326.661c-1.636,0-2.962-1.328-2.962-2.963
	c0-1.633,1.326-2.959,2.962-2.959c1.634,0,2.959,1.326,2.959,2.959C526.17,325.333,524.845,326.661,523.211,326.661"/>
<path fill="none" stroke="#434344" stroke-width="0.581" d="M456.343,326.661c-1.634,0-2.959-1.328-2.959-2.963
	c0-1.633,1.325-2.959,2.959-2.959s2.961,1.326,2.961,2.959C459.304,325.333,457.977,326.661,456.343,326.661"/>
<path fill="none" stroke="#434344" stroke-width="0.581" d="M463.772,326.661c-1.634,0-2.959-1.328-2.959-2.963
	c0-1.633,1.325-2.959,2.959-2.959c1.636,0,2.96,1.326,2.96,2.959C466.732,325.333,465.408,326.661,463.772,326.661"/>
<path fill="none" stroke="#434344" stroke-width="0.581" d="M470.881,326.661c-1.636,0-2.961-1.328-2.961-2.963
	c0-1.633,1.325-2.959,2.961-2.959c1.633,0,2.958,1.326,2.958,2.959C473.839,325.333,472.514,326.661,470.881,326.661"/>
<path fill="none" stroke="#434344" stroke-width="0.581" d="M508.675,305.719c-1.637,0-2.961,1.325-2.961,2.959
	c0,1.637,1.324,2.962,2.961,2.962c1.634,0,2.961-1.325,2.961-2.962C511.636,307.044,510.309,305.719,508.675,305.719"/>
<path fill="none" stroke="#434344" stroke-width="0.581" d="M516.104,305.719c-1.636,0-2.961,1.325-2.961,2.959
	c0,1.637,1.325,2.962,2.961,2.962c1.633,0,2.958-1.325,2.958-2.962C519.063,307.044,517.737,305.719,516.104,305.719"/>
<path fill="none" stroke="#434344" stroke-width="0.581" d="M523.211,305.719c-1.636,0-2.962,1.325-2.962,2.959
	c0,1.637,1.326,2.962,2.962,2.962c1.634,0,2.959-1.325,2.959-2.962C526.17,307.044,524.845,305.719,523.211,305.719"/>
<path fill="none" stroke="#434344" stroke-width="0.581" d="M456.343,305.719c-1.634,0-2.959,1.325-2.959,2.959
	c0,1.637,1.325,2.962,2.959,2.962s2.961-1.325,2.961-2.962C459.304,307.044,457.977,305.719,456.343,305.719"/>
<path fill="none" stroke="#434344" stroke-width="0.581" d="M463.772,305.719c-1.634,0-2.959,1.325-2.959,2.959
	c0,1.637,1.325,2.962,2.959,2.962c1.636,0,2.96-1.325,2.96-2.962C466.732,307.044,465.408,305.719,463.772,305.719"/>
<path fill="none" stroke="#434344" stroke-width="0.581" d="M470.881,305.719c-1.636,0-2.961,1.325-2.961,2.959
	c0,1.637,1.325,2.962,2.961,2.962c1.633,0,2.958-1.325,2.958-2.962C473.839,307.044,472.514,305.719,470.881,305.719"/>
<path fill="none" stroke="#434344" stroke-width="0.581" d="M508.675,296.621c-1.637,0-2.961-1.326-2.961-2.96
	c0-1.636,1.324-2.962,2.961-2.962c1.634,0,2.961,1.326,2.961,2.962C511.636,295.295,510.309,296.621,508.675,296.621"/>
<path fill="none" stroke="#434344" stroke-width="0.581" d="M516.104,296.621c-1.636,0-2.961-1.326-2.961-2.96
	c0-1.636,1.325-2.962,2.961-2.962c1.633,0,2.958,1.326,2.958,2.962C519.063,295.295,517.737,296.621,516.104,296.621"/>
<path fill="none" stroke="#434344" stroke-width="0.581" d="M523.211,296.621c-1.636,0-2.962-1.326-2.962-2.96
	c0-1.636,1.326-2.962,2.962-2.962c1.634,0,2.959,1.326,2.959,2.962C526.17,295.295,524.845,296.621,523.211,296.621"/>
<path fill="none" stroke="#434344" stroke-width="0.581" d="M456.343,296.621c-1.634,0-2.959-1.326-2.959-2.96
	c0-1.636,1.325-2.962,2.959-2.962s2.961,1.326,2.961,2.962C459.304,295.295,457.977,296.621,456.343,296.621"/>
<path fill="none" stroke="#434344" stroke-width="0.581" d="M463.772,296.621c-1.634,0-2.959-1.326-2.959-2.96
	c0-1.636,1.325-2.962,2.959-2.962c1.636,0,2.96,1.326,2.96,2.962C466.732,295.295,465.408,296.621,463.772,296.621"/>
<path fill="none" stroke="#434344" stroke-width="0.581" d="M470.881,296.621c-1.636,0-2.961-1.326-2.961-2.96
	c0-1.636,1.325-2.962,2.961-2.962c1.633,0,2.958,1.326,2.958,2.962C473.839,295.295,472.514,296.621,470.881,296.621"/>
<path fill="none" stroke="#434344" stroke-width="0.581" d="M463.772,365.796c-1.634,0-2.959,1.325-2.959,2.962
	c0,1.634,1.325,2.96,2.959,2.96c1.636,0,2.96-1.326,2.96-2.96C466.732,367.121,465.408,365.796,463.772,365.796"/>
<path fill="none" stroke="#434344" stroke-width="0.581" d="M456.021,365.796c-1.635,0-2.959,1.325-2.959,2.962
	c0,1.634,1.324,2.96,2.959,2.96c1.634,0,2.959-1.326,2.959-2.96C458.979,367.121,457.654,365.796,456.021,365.796"/>
<path fill="none" stroke="#434344" stroke-width="0.581" d="M471.525,365.796c-1.633,0-2.96,1.325-2.96,2.962
	c0,1.634,1.327,2.96,2.96,2.96c1.635,0,2.961-1.326,2.961-2.96C474.486,367.121,473.16,365.796,471.525,365.796"/>
<path fill="none" stroke="#434344" stroke-width="0.581" d="M478.956,365.796c-1.636,0-2.961,1.325-2.961,2.962
	c0,1.634,1.325,2.96,2.961,2.96c1.633,0,2.959-1.326,2.959-2.96C481.915,367.121,480.589,365.796,478.956,365.796"/>
<path fill="none" stroke="#434344" stroke-width="0.581" d="M486.063,365.796c-1.635,0-2.961,1.325-2.961,2.962
	c0,1.634,1.326,2.96,2.961,2.96c1.634,0,2.959-1.326,2.959-2.96C489.021,367.121,487.696,365.796,486.063,365.796"/>
<path fill="none" stroke="#434344" stroke-width="0.581" d="M493.491,365.796c-1.636,0-2.96,1.325-2.96,2.962
	c0,1.634,1.324,2.96,2.96,2.96c1.635,0,2.961-1.326,2.961-2.96C496.452,367.121,495.126,365.796,493.491,365.796"/>
<path fill="none" stroke="#434344" stroke-width="0.581" d="M500.921,365.796c-1.635,0-2.961,1.325-2.961,2.962
	c0,1.634,1.326,2.96,2.961,2.96c1.634,0,2.962-1.326,2.962-2.96C503.883,367.121,502.555,365.796,500.921,365.796"/>
<path fill="none" stroke="#434344" stroke-width="0.581" d="M508.675,365.796c-1.637,0-2.961,1.325-2.961,2.962
	c0,1.634,1.324,2.96,2.961,2.96c1.634,0,2.961-1.326,2.961-2.96C511.636,367.121,510.309,365.796,508.675,365.796"/>
<path fill="none" stroke="#434344" stroke-width="0.581" d="M516.104,365.796c-1.636,0-2.961,1.325-2.961,2.962
	c0,1.634,1.325,2.96,2.961,2.96c1.633,0,2.958-1.326,2.958-2.96C519.063,367.121,517.737,365.796,516.104,365.796"/>
<path fill="none" stroke="#434344" stroke-width="0.581" d="M523.211,365.796c-1.636,0-2.962,1.325-2.962,2.962
	c0,1.634,1.326,2.96,2.962,2.96c1.634,0,2.959-1.326,2.959-2.96C526.17,367.121,524.845,365.796,523.211,365.796"/>
<path fill="none" stroke="#434344" stroke-width="0.581" d="M463.772,358.287c-1.634,0-2.959,1.323-2.959,2.96
	c0,1.635,1.325,2.961,2.959,2.961c1.636,0,2.96-1.326,2.96-2.961C466.732,359.61,465.408,358.287,463.772,358.287"/>
<path fill="none" stroke="#434344" stroke-width="0.581" d="M456.021,358.287c-1.635,0-2.959,1.323-2.959,2.96
	c0,1.635,1.324,2.961,2.959,2.961c1.634,0,2.959-1.326,2.959-2.961C458.979,359.61,457.654,358.287,456.021,358.287"/>
<path fill="none" stroke="#434344" stroke-width="0.581" d="M471.525,358.287c-1.633,0-2.96,1.323-2.96,2.96
	c0,1.635,1.327,2.961,2.96,2.961c1.635,0,2.961-1.326,2.961-2.961C474.486,359.61,473.16,358.287,471.525,358.287"/>
<path fill="none" stroke="#434344" stroke-width="0.581" d="M478.956,358.287c-1.636,0-2.961,1.323-2.961,2.96
	c0,1.635,1.325,2.961,2.961,2.961c1.633,0,2.959-1.326,2.959-2.961C481.915,359.61,480.589,358.287,478.956,358.287"/>
<path fill="none" stroke="#434344" stroke-width="0.581" d="M486.063,358.287c-1.635,0-2.961,1.323-2.961,2.96
	c0,1.635,1.326,2.961,2.961,2.961c1.634,0,2.959-1.326,2.959-2.961C489.021,359.61,487.696,358.287,486.063,358.287"/>
<path fill="none" stroke="#434344" stroke-width="0.581" d="M493.491,358.287c-1.636,0-2.96,1.323-2.96,2.96
	c0,1.635,1.324,2.961,2.96,2.961c1.635,0,2.961-1.326,2.961-2.961C496.452,359.61,495.126,358.287,493.491,358.287"/>
<path fill="none" stroke="#434344" stroke-width="0.581" d="M500.921,358.287c-1.635,0-2.961,1.323-2.961,2.96
	c0,1.635,1.326,2.961,2.961,2.961c1.634,0,2.962-1.326,2.962-2.961C503.883,359.61,502.555,358.287,500.921,358.287"/>
<path fill="none" stroke="#434344" stroke-width="0.581" d="M508.675,358.287c-1.637,0-2.961,1.323-2.961,2.96
	c0,1.635,1.324,2.961,2.961,2.961c1.634,0,2.961-1.326,2.961-2.961C511.636,359.61,510.309,358.287,508.675,358.287"/>
<path fill="none" stroke="#434344" stroke-width="0.581" d="M516.104,358.287c-1.636,0-2.961,1.323-2.961,2.96
	c0,1.635,1.325,2.961,2.961,2.961c1.633,0,2.958-1.326,2.958-2.961C519.063,359.61,517.737,358.287,516.104,358.287"/>
<path fill="none" stroke="#434344" stroke-width="0.581" d="M523.211,358.287c-1.636,0-2.962,1.323-2.962,2.96
	c0,1.635,1.326,2.961,2.962,2.961c1.634,0,2.959-1.326,2.959-2.961C526.17,359.61,524.845,358.287,523.211,358.287"/>
<path fill="none" stroke="#434344" stroke-width="0.581" d="M471.525,373.307c-1.633,0-2.96,1.324-2.96,2.96
	c0,1.634,1.327,2.96,2.96,2.96c1.635,0,2.961-1.326,2.961-2.96C474.486,374.63,473.16,373.307,471.525,373.307"/>
<path fill="none" stroke="#434344" stroke-width="0.581" d="M478.956,373.307c-1.636,0-2.961,1.324-2.961,2.96
	c0,1.634,1.325,2.96,2.961,2.96c1.633,0,2.959-1.326,2.959-2.96C481.915,374.63,480.589,373.307,478.956,373.307"/>
<path fill="none" stroke="#434344" stroke-width="0.581" d="M486.063,373.307c-1.635,0-2.961,1.324-2.961,2.96
	c0,1.634,1.326,2.96,2.961,2.96c1.634,0,2.959-1.326,2.959-2.96C489.021,374.63,487.696,373.307,486.063,373.307"/>
<path fill="none" stroke="#434344" stroke-width="0.581" d="M493.491,373.307c-1.636,0-2.96,1.324-2.96,2.96
	c0,1.634,1.324,2.96,2.96,2.96c1.635,0,2.961-1.326,2.961-2.96C496.452,374.63,495.126,373.307,493.491,373.307"/>
<path fill="none" stroke="#434344" stroke-width="0.581" d="M500.921,373.307c-1.635,0-2.961,1.324-2.961,2.96
	c0,1.634,1.326,2.96,2.961,2.96c1.634,0,2.962-1.326,2.962-2.96C503.883,374.63,502.555,373.307,500.921,373.307"/>
<path fill="none" stroke="#434344" stroke-width="0.581" d="M508.675,350.777c-1.637,0-2.961,1.327-2.961,2.961
	c0,1.636,1.324,2.959,2.961,2.959c1.634,0,2.961-1.324,2.961-2.959C511.636,352.104,510.309,350.777,508.675,350.777"/>
<path fill="none" stroke="#434344" stroke-width="0.581" d="M516.104,350.777c-1.636,0-2.961,1.327-2.961,2.961
	c0,1.636,1.325,2.959,2.961,2.959c1.633,0,2.958-1.324,2.958-2.959C519.063,352.104,517.737,350.777,516.104,350.777"/>
<path fill="none" stroke="#434344" stroke-width="0.581" d="M523.211,350.777c-1.636,0-2.962,1.327-2.962,2.961
	c0,1.636,1.326,2.959,2.962,2.959c1.634,0,2.959-1.324,2.959-2.959C526.17,352.104,524.845,350.777,523.211,350.777"/>
</svg>
