<?xml version="1.0" encoding="utf-8"?>
<!-- Generator: Adobe Illustrator 15.1.0, SVG Export Plug-In . SVG Version: 6.00 Build 0)  -->
<!DOCTYPE svg PUBLIC "-//W3C//DTD SVG 1.0//EN" "http://www.w3.org/TR/2001/REC-SVG-20010904/DTD/svg10.dtd">
<svg version="1.0" id="Layer_1" xmlns="http://www.w3.org/2000/svg" xmlns:xlink="http://www.w3.org/1999/xlink" x="0px" y="0px"
	 width="612px" height="792px" viewBox="0 0 612 792" enable-background="new 0 0 612 792" xml:space="preserve">
<path fill="#FFFFFF" d="M481.766,333.354c0-1.315-1.066-2.378-2.38-2.378c-1.314,0-2.38,1.063-2.38,2.378
	c0,1.314,1.065,2.378,2.38,2.378C480.699,335.732,481.766,334.668,481.766,333.354"/>
<path fill="none" stroke="#434344" stroke-width="0.484" d="M481.766,333.354c0-1.315-1.066-2.378-2.38-2.378
	c-1.314,0-2.38,1.063-2.38,2.378c0,1.314,1.065,2.378,2.38,2.378C480.699,335.732,481.766,334.668,481.766,333.354"/>
<path fill="#FFFFFF" d="M481.766,307.88c0-1.314-1.066-2.381-2.38-2.381c-1.314,0-2.38,1.067-2.38,2.381
	c0,1.313,1.065,2.38,2.38,2.38C480.699,310.26,481.766,309.193,481.766,307.88"/>
<path fill="none" stroke="#434344" stroke-width="0.484" d="M481.766,307.88c0-1.314-1.066-2.379-2.38-2.379
	c-1.314,0-2.38,1.065-2.38,2.379c0,1.313,1.065,2.38,2.38,2.38C480.699,310.26,481.766,309.193,481.766,307.88"/>
<path fill="#FFFFFF" d="M492.263,344.305c0-1.313-1.064-2.378-2.38-2.378c-1.313,0-2.379,1.066-2.379,2.378
	c0,1.316,1.065,2.381,2.379,2.381C491.198,346.686,492.263,345.621,492.263,344.305"/>
<path fill="none" stroke="#434344" stroke-width="0.484" d="M492.263,344.305c0-1.313-1.065-2.379-2.38-2.379
	c-1.313,0-2.381,1.067-2.381,2.379c0,1.316,1.067,2.381,2.381,2.381C491.197,346.686,492.263,345.621,492.263,344.305"/>
<path fill="#FFFFFF" d="M488.549,333.354c0-1.315-1.064-2.378-2.38-2.378c-1.313,0-2.379,1.063-2.379,2.378
	c0,1.314,1.065,2.378,2.379,2.378C487.484,335.732,488.549,334.668,488.549,333.354"/>
<path fill="none" stroke="#434344" stroke-width="0.484" d="M488.549,333.354c0-1.315-1.065-2.378-2.38-2.378
	c-1.313,0-2.381,1.063-2.381,2.378c0,1.314,1.067,2.378,2.381,2.378C487.483,335.732,488.549,334.668,488.549,333.354"/>
<path fill="#FFFFFF" d="M488.549,307.88c0-1.314-1.064-2.381-2.38-2.381c-1.313,0-2.379,1.067-2.379,2.381
	c0,1.313,1.065,2.38,2.379,2.38C487.484,310.26,488.549,309.193,488.549,307.88"/>
<path fill="none" stroke="#434344" stroke-width="0.484" d="M488.549,307.88c0-1.314-1.065-2.379-2.38-2.379
	c-1.313,0-2.381,1.065-2.381,2.379c0,1.313,1.067,2.38,2.381,2.38C487.483,310.26,488.549,309.193,488.549,307.88"/>
<path fill="#FFFFFF" d="M495.332,333.354c0-1.315-1.064-2.378-2.379-2.378s-2.38,1.063-2.38,2.378c0,1.314,1.065,2.378,2.38,2.378
	S495.332,334.668,495.332,333.354"/>
<path fill="none" stroke="#434344" stroke-width="0.484" d="M495.332,333.354c0-1.315-1.064-2.378-2.379-2.378
	s-2.38,1.063-2.38,2.378c0,1.314,1.065,2.378,2.38,2.378S495.332,334.668,495.332,333.354"/>
<path fill="#FFFFFF" d="M495.332,307.88c0-1.314-1.064-2.381-2.379-2.381s-2.38,1.067-2.38,2.381c0,1.313,1.065,2.38,2.38,2.38
	S495.332,309.193,495.332,307.88"/>
<path fill="none" stroke="#434344" stroke-width="0.484" d="M495.332,307.88c0-1.314-1.064-2.379-2.379-2.379
	s-2.38,1.065-2.38,2.379c0,1.313,1.065,2.38,2.38,2.38S495.332,309.193,495.332,307.88"/>
<path fill="#FFFFFF" d="M502.115,333.354c0-1.315-1.064-2.378-2.379-2.378c-1.313,0-2.381,1.063-2.381,2.378
	c0,1.314,1.068,2.378,2.381,2.378C501.051,335.732,502.115,334.668,502.115,333.354"/>
<path fill="none" stroke="#434344" stroke-width="0.484" d="M502.115,333.354c0-1.315-1.064-2.378-2.38-2.378
	c-1.313,0-2.38,1.063-2.38,2.378c0,1.314,1.066,2.378,2.38,2.378C501.051,335.732,502.115,334.668,502.115,333.354"/>
<path fill="#FFFFFF" d="M502.115,307.88c0-1.314-1.064-2.381-2.379-2.381c-1.313,0-2.381,1.067-2.381,2.381
	c0,1.313,1.068,2.38,2.381,2.38C501.051,310.26,502.115,309.193,502.115,307.88"/>
<path fill="none" stroke="#434344" stroke-width="0.484" d="M502.115,307.88c0-1.314-1.064-2.379-2.38-2.379
	c-1.313,0-2.38,1.065-2.38,2.379c0,1.313,1.066,2.38,2.38,2.38C501.051,310.26,502.115,309.193,502.115,307.88"/>
</svg>
