<?xml version="1.0" encoding="utf-8"?>
<!-- Generator: Adobe Illustrator 15.1.0, SVG Export Plug-In . SVG Version: 6.00 Build 0)  -->
<!DOCTYPE svg PUBLIC "-//W3C//DTD SVG 1.0//EN" "http://www.w3.org/TR/2001/REC-SVG-20010904/DTD/svg10.dtd">
<svg version="1.0" id="Layer_1" xmlns="http://www.w3.org/2000/svg" xmlns:xlink="http://www.w3.org/1999/xlink" x="0px" y="0px"
	 width="612px" height="792px" viewBox="0 0 612 792" enable-background="new 0 0 612 792" xml:space="preserve">
<path fill="#FFFFFF" d="M492.263,344.305c0-1.313-1.064-2.378-2.38-2.378c-1.313,0-2.379,1.066-2.379,2.378
	c0,1.316,1.064,2.381,2.379,2.381S492.263,345.621,492.263,344.305"/>
<path fill="none" stroke="#434344" stroke-width="0.484" d="M492.263,344.305c0-1.313-1.065-2.379-2.38-2.379
	c-1.313,0-2.381,1.067-2.381,2.379c0,1.316,1.066,2.381,2.381,2.381C491.197,346.686,492.263,345.621,492.263,344.305"/>
<path fill="#FFFFFF" d="M492.263,325.305c0-1.313-1.064-2.378-2.38-2.378c-1.313,0-2.379,1.066-2.379,2.378
	c0,1.316,1.064,2.381,2.379,2.381S492.263,326.621,492.263,325.305"/>
<path fill="none" stroke="#434344" stroke-width="0.484" d="M492.263,325.305c0-1.313-1.065-2.379-2.38-2.379
	c-1.313,0-2.381,1.067-2.381,2.379c0,1.316,1.066,2.381,2.381,2.381C491.197,327.686,492.263,326.621,492.263,325.305"/>
<path fill="#FFFFFF" d="M492.263,308.305c0-1.313-1.064-2.378-2.38-2.378c-1.313,0-2.379,1.066-2.379,2.378
	c0,1.316,1.064,2.381,2.379,2.381S492.263,309.621,492.263,308.305"/>
<path fill="none" stroke="#434344" stroke-width="0.484" d="M492.263,308.305c0-1.313-1.065-2.379-2.38-2.379
	c-1.313,0-2.381,1.067-2.381,2.379c0,1.316,1.066,2.381,2.381,2.381C491.197,310.686,492.263,309.621,492.263,308.305"/>
</svg>
