<?xml version="1.0" encoding="utf-8"?>
<!-- Generator: Adobe Illustrator 15.1.0, SVG Export Plug-In . SVG Version: 6.00 Build 0)  -->
<!DOCTYPE svg PUBLIC "-//W3C//DTD SVG 1.0//EN" "http://www.w3.org/TR/2001/REC-SVG-20010904/DTD/svg10.dtd">
<svg version="1.0" id="Layer_1" xmlns="http://www.w3.org/2000/svg" xmlns:xlink="http://www.w3.org/1999/xlink" x="0px" y="0px"
	 width="612px" height="792px" viewBox="0 0 612 792" enable-background="new 0 0 612 792" xml:space="preserve">
<polyline fill="#CCCECF" points="573.917,683.952 581.003,691.038 581.003,744.896 573.917,751.983 412.341,751.983 
	405.254,742.063 405.254,683.951 410.925,675.447 494.547,675.447 500.215,683.951 "/>
<polyline fill="#221F1F" points="530.355,34.818 447.869,34.818 442.483,26.738 447.855,18.66 530.355,18.66 536.025,26.738 "/>
<polygon fill="none" stroke="#FFFFFF" stroke-width="1" stroke-linejoin="round" points="530.355,34.818 447.869,34.818 
	442.483,26.74 447.855,18.66 530.355,18.66 536.025,26.74 "/>
<path fill="#FFFFFF" d="M453.133,27.444l-1.15-3.472l-1.131,3.472H453.133 M453.425,28.377h-2.87l-0.414,1.279h-1.336l2.213-6.665
	h1.896l2.246,6.665h-1.311L453.425,28.377"/>
<path fill="#FFFFFF" d="M457.008,26.346h1.813c0.432,0,0.719-0.076,0.86-0.232c0.142-0.154,0.212-0.464,0.212-0.93
	c0-0.474-0.061-0.781-0.183-0.92c-0.122-0.137-0.387-0.208-0.802-0.208h-1.9V26.346 M455.746,29.656v-6.665h3.279
	c0.814,0,1.377,0.142,1.686,0.425c0.308,0.283,0.464,0.796,0.464,1.538c0,0.674-0.076,1.133-0.231,1.382
	c-0.153,0.247-0.471,0.417-0.948,0.513v0.044c0.736,0.044,1.106,0.476,1.106,1.294v1.47h-1.262V28.44c0-0.686-0.337-1.03-1.014-1.03
	h-1.818v2.246H455.746"/>
<path fill="#FFFFFF" d="M469.97,22.991v6.665h-1.262v-3.633c0-0.288,0.007-0.618,0.023-0.986l0.025-0.498l0.023-0.493h-0.039
	l-0.15,0.464l-0.146,0.464c-0.136,0.415-0.241,0.723-0.316,0.923l-1.462,3.76h-1.15l-1.477-3.73
	c-0.08-0.205-0.188-0.513-0.321-0.923l-0.151-0.464l-0.151-0.459h-0.039l0.024,0.483l0.025,0.488
	c0.019,0.376,0.028,0.701,0.028,0.972v3.633h-1.262v-6.665h2.057l1.188,3.086c0.08,0.215,0.188,0.522,0.322,0.923l0.146,0.464
	l0.151,0.459h0.044l0.141-0.459l0.146-0.459c0.12-0.386,0.225-0.693,0.313-0.918l1.169-3.096H469.97"/>
<path fill="#FFFFFF" d="M473.809,24.017c-0.848,0-1.343,0.107-1.486,0.327c-0.141,0.217-0.215,0.972-0.215,2.266
	c0,0.957,0.083,1.533,0.252,1.729c0.165,0.195,0.659,0.293,1.479,0.293c0.782,0,1.252-0.11,1.408-0.33s0.234-0.886,0.234-2
	c0-1.116-0.073-1.775-0.223-1.98C475.112,24.119,474.627,24.017,473.809,24.017 M473.906,22.933c1.209,0,1.985,0.2,2.334,0.603
	c0.346,0.4,0.521,1.301,0.521,2.698c0,1.526-0.173,2.488-0.523,2.886c-0.349,0.396-1.194,0.596-2.537,0.596
	c-1.208,0-1.988-0.195-2.344-0.588c-0.354-0.391-0.531-1.255-0.531-2.59c0-1.587,0.173-2.585,0.521-2.993
	C471.694,23.138,472.547,22.933,473.906,22.933"/>
<path fill="#FFFFFF" d="M478.882,26.346h1.813c0.432,0,0.719-0.076,0.86-0.232c0.141-0.154,0.211-0.464,0.211-0.93
	c0-0.474-0.061-0.781-0.182-0.92c-0.122-0.137-0.388-0.208-0.803-0.208h-1.899V26.346 M477.619,29.656v-6.665h3.279
	c0.814,0,1.377,0.142,1.687,0.425c0.307,0.283,0.463,0.796,0.463,1.538c0,0.674-0.075,1.133-0.231,1.382
	c-0.153,0.247-0.471,0.417-0.948,0.513v0.044c0.736,0.044,1.106,0.476,1.106,1.294v1.47h-1.262V28.44c0-0.686-0.336-1.03-1.014-1.03
	h-1.817v2.246H477.619"/>
<path fill="#FFFFFF" d="M487.832,28.592h1.798c0.604,0,0.994-0.139,1.172-0.417c0.176-0.278,0.266-0.891,0.266-1.843
	c0-0.981-0.077-1.606-0.238-1.875c-0.158-0.266-0.531-0.4-1.121-0.4h-1.876V28.592 M486.57,29.656v-6.665h3.27
	c0.929,0,1.579,0.203,1.952,0.61c0.37,0.405,0.558,1.118,0.558,2.139c0,1.663-0.148,2.732-0.448,3.206
	c-0.298,0.474-0.973,0.71-2.022,0.71H486.57"/>
<rect x="493.276" y="22.991" fill="#FFFFFF" width="1.262" height="6.665"/>
<path fill="#FFFFFF" d="M499.463,27.444l-1.15-3.472l-1.131,3.472H499.463 M499.755,28.377h-2.87l-0.414,1.279h-1.335l2.212-6.665
	h1.896l2.247,6.665h-1.311L499.755,28.377"/>
<path fill="#FFFFFF" d="M504.693,26.111h2.929l0.02,1.323c0,0.962-0.181,1.584-0.544,1.863c-0.36,0.278-1.169,0.417-2.424,0.417
	c-1.15,0-1.91-0.186-2.285-0.557c-0.373-0.371-0.561-1.128-0.561-2.271c0-1.458,0.073-2.378,0.224-2.764
	c0.186-0.469,0.466-0.784,0.844-0.947c0.375-0.161,1.016-0.244,1.92-0.244c1.182,0,1.943,0.125,2.29,0.378
	c0.344,0.251,0.517,0.811,0.517,1.677h-1.277c-0.021-0.435-0.116-0.706-0.284-0.813c-0.166-0.105-0.588-0.159-1.26-0.159
	c-0.731,0-1.194,0.09-1.392,0.273c-0.195,0.181-0.295,0.61-0.295,1.284l-0.005,0.669l0.01,0.854c0,0.659,0.098,1.082,0.292,1.262
	c0.195,0.181,0.646,0.271,1.355,0.271c0.687,0,1.126-0.076,1.313-0.229c0.185-0.151,0.28-0.513,0.28-1.084l0.004-0.273h-1.671
	V26.111"/>
<path fill="#FFFFFF" d="M509.795,26.346h1.813c0.432,0,0.719-0.076,0.86-0.232c0.141-0.154,0.212-0.464,0.212-0.93
	c0-0.474-0.062-0.781-0.183-0.92c-0.122-0.137-0.388-0.208-0.802-0.208h-1.9V26.346 M508.532,29.656v-6.665h3.279
	c0.814,0,1.377,0.142,1.687,0.425c0.307,0.283,0.463,0.796,0.463,1.538c0,0.674-0.075,1.133-0.231,1.382
	c-0.153,0.247-0.47,0.417-0.947,0.513v0.044c0.735,0.044,1.106,0.476,1.106,1.294v1.47h-1.263V28.44c0-0.686-0.336-1.03-1.014-1.03
	h-1.817v2.246H508.532"/>
<path fill="#FFFFFF" d="M518.711,27.444l-1.15-3.472l-1.13,3.472H518.711 M519.004,28.377h-2.871l-0.414,1.279h-1.335l2.212-6.665
	h1.896l2.246,6.665h-1.311L519.004,28.377"/>
<path fill="#FFFFFF" d="M529.103,22.991v6.665h-1.263v-3.633c0-0.288,0.008-0.618,0.024-0.986l0.024-0.498l0.024-0.493h-0.039
	l-0.151,0.464l-0.146,0.464c-0.137,0.415-0.241,0.723-0.317,0.923l-1.462,3.76h-1.149l-1.477-3.73
	c-0.081-0.205-0.188-0.513-0.321-0.923l-0.151-0.464l-0.151-0.459h-0.039l0.024,0.483l0.024,0.488
	c0.02,0.376,0.029,0.701,0.029,0.972v3.633h-1.263v-6.665h2.057l1.189,3.086c0.08,0.215,0.188,0.522,0.321,0.923l0.146,0.464
	l0.151,0.459h0.043l0.142-0.459l0.146-0.459c0.119-0.386,0.225-0.693,0.312-0.918l1.17-3.096H529.103"/>
<polyline fill="#FFFFFF" points="569.665,679.701 576.751,686.788 576.751,740.646 569.665,747.732 408.089,747.732 
	401.003,737.812 401.003,679.7 406.672,671.197 490.294,671.197 495.964,679.7 "/>
<polygon fill="none" stroke="#221F1F" stroke-width="2" stroke-miterlimit="10" points="569.665,679.701 576.751,686.787 
	576.751,740.646 569.665,747.732 408.089,747.732 401.003,737.812 401.003,679.7 406.672,671.197 490.294,671.197 495.962,679.7 "/>
<polyline fill="#221F1F" points="488.89,689.622 407.805,689.622 402.421,681.542 407.794,673.464 488.876,673.464 494.262,681.542 
	"/>
<polygon fill="none" stroke="#FFFFFF" stroke-width="1" stroke-linejoin="round" points="488.889,689.622 407.806,689.622 
	402.421,681.542 407.792,673.464 488.875,673.464 494.262,681.542 "/>
<path fill="#FFFFFF" d="M411.723,684.094h2.157c0.726,0,1.193-0.167,1.407-0.501c0.21-0.334,0.318-1.069,0.318-2.212
	c0-1.178-0.094-1.928-0.286-2.25c-0.19-0.319-0.638-0.48-1.346-0.48h-2.251V684.094 M410.208,685.371v-7.998h3.924
	c1.114,0,1.896,0.243,2.343,0.732c0.444,0.486,0.669,1.342,0.669,2.566c0,1.995-0.178,3.278-0.538,3.847
	c-0.356,0.568-1.167,0.853-2.427,0.853H410.208"/>
<polyline fill="#FFFFFF" points="419.603,678.65 419.603,680.713 423.345,680.713 423.345,681.832 419.603,681.832 419.603,684.094 
	423.585,684.094 423.585,685.371 418.087,685.371 418.087,677.373 423.55,677.373 423.55,678.65 419.603,678.65 "/>
<path fill="#FFFFFF" d="M426.229,681.51h1.725c0.685,0,1.12-0.079,1.308-0.237c0.184-0.158,0.277-0.53,0.277-1.122
	c0-0.674-0.076-1.093-0.23-1.257c-0.152-0.161-0.553-0.243-1.202-0.243h-1.877V681.51 M424.715,685.371v-7.998h3.614
	c1.078,0,1.807,0.188,2.184,0.565c0.375,0.375,0.564,1.104,0.564,2.183c0,1.069-0.178,1.781-0.538,2.133
	c-0.356,0.352-1.081,0.527-2.176,0.527l-0.351,0.006h-1.783v2.584H424.715"/>
<polyline fill="#FFFFFF" points="435.228,678.732 435.228,685.371 433.713,685.371 433.713,678.732 431.408,678.732 
	431.408,677.373 437.613,677.373 437.613,678.732 435.228,678.732 "/>
<polyline fill="#FFFFFF" points="445.155,677.373 445.155,685.371 443.641,685.371 443.641,681.914 439.897,681.914 
	439.897,685.371 438.383,685.371 438.383,677.373 439.897,677.373 439.897,680.637 443.641,680.637 443.641,677.373 
	445.155,677.373 "/>
<polyline fill="#FFFFFF" points="452.74,678.732 452.74,685.371 451.226,685.371 451.226,678.732 448.921,678.732 448.921,677.373 
	455.126,677.373 455.126,678.732 452.74,678.732 "/>
<path fill="#FFFFFF" d="M457.41,681.398h2.176c0.518,0,0.862-0.091,1.032-0.278c0.169-0.185,0.254-0.557,0.254-1.116
	c0-0.568-0.073-0.938-0.219-1.104c-0.146-0.164-0.465-0.249-0.962-0.249h-2.281V681.398 M455.896,685.371v-7.998h3.936
	c0.978,0,1.652,0.17,2.023,0.51c0.369,0.34,0.556,0.955,0.556,1.846c0,0.809-0.09,1.359-0.277,1.658
	c-0.184,0.296-0.564,0.501-1.138,0.615v0.053c0.884,0.053,1.328,0.571,1.328,1.553v1.764h-1.515v-1.459
	c0-0.823-0.403-1.236-1.217-1.236h-2.182v2.695H455.896"/>
<path fill="#FFFFFF" d="M468.102,682.717l-1.38-4.166l-1.356,4.166H468.102 M468.453,683.836h-3.445l-0.497,1.535h-1.603
	l2.655-7.998h2.275l2.695,7.998h-1.572L468.453,683.836"/>
<path fill="#FFFFFF" d="M476.159,682.518h1.521v0.275c0,1.113-0.202,1.831-0.608,2.159c-0.403,0.325-1.302,0.489-2.69,0.489
	c-1.573,0-2.544-0.258-2.906-0.773s-0.544-1.893-0.544-4.137c0-1.318,0.245-2.188,0.737-2.604c0.49-0.416,1.517-0.624,3.082-0.624
	c1.137,0,1.897,0.17,2.28,0.513c0.38,0.34,0.573,1.02,0.573,2.036l0.006,0.182h-1.521v-0.205c0-0.521-0.097-0.858-0.296-1.005
	c-0.195-0.146-0.646-0.22-1.348-0.22c-0.938,0-1.503,0.114-1.693,0.346c-0.187,0.229-0.283,0.914-0.283,2.051
	c0,1.529,0.085,2.438,0.255,2.719c0.169,0.281,0.716,0.422,1.646,0.422c0.752,0,1.24-0.076,1.466-0.234
	c0.222-0.155,0.335-0.498,0.335-1.031L476.159,682.518"/>
<polyline fill="#FFFFFF" points="480.146,677.373 480.146,680.631 480.86,680.631 483.516,677.373 485.398,677.373 482.176,681.258 
	485.737,685.371 483.796,685.371 480.871,681.908 480.146,681.908 480.146,685.371 478.632,685.371 478.632,677.373 
	480.146,677.373 "/>
<polyline fill="#221F1F" points="410.523,694.528 412.002,694.528 412.002,693.544 408.101,693.544 408.101,694.528 
	409.579,694.528 409.579,699.544 410.523,699.544 410.523,694.528 "/>
<path fill="#221F1F" d="M415.207,699.544v-4.25h-0.841v2.438c0,0.732-0.211,1.063-0.871,1.063c-0.551,0-0.599-0.232-0.599-0.836
	v-2.664h-0.84v3.041c0,0.92,0.473,1.209,1.18,1.209c0.49,0,0.934-0.133,1.13-0.676v0.676H415.207"/>
<path fill="#221F1F" d="M415.937,695.294v4.25h0.841v-2.594c0-0.545,0.155-0.889,0.69-0.889c0.429,0,0.464,0.248,0.464,0.672v0.217
	h0.84v-0.336c0-0.793-0.193-1.32-0.985-1.32c-0.439,0-0.829,0.133-1.009,0.588v-0.588H415.937"/>
<path fill="#221F1F" d="M419.261,695.294v4.25h0.84v-2.314c0-0.752,0.099-1.168,0.823-1.168c0.535,0,0.646,0.209,0.646,0.816v2.666
	h0.84v-2.77c0-1.023-0.279-1.48-1.195-1.48c-0.487,0-0.903,0.063-1.088,0.674h-0.026v-0.674H419.261"/>
<path fill="none" stroke="#221F1F" stroke-width="1" stroke-miterlimit="10" d="M543.975,691.039v25.513 M557.892,691.039v25.513
	 M530.058,691.039v25.513 M516.142,691.039v25.513 M502.222,691.039v25.513 M488.305,691.039v25.513 M474.389,691.039v25.513
	 M460.473,691.039v25.513 M446.554,691.039v25.513 M432.636,691.039v25.513 M405.726,703.796h166.112 M571.836,710.38
	c0,3.408-2.875,6.172-6.424,6.172H411.676c-3.546,0-6.423-2.764-6.423-6.172v-13.168c0-3.408,2.877-6.172,6.423-6.172h153.736
	c3.549,0,6.424,2.764,6.424,6.172V710.38z"/>
<path fill="#221F1F" d="M409.474,711.315v-4.031h1.479c0.758,0,1.042,0.248,1.042,1.248v1.416c0,0.672-0.207,1.367-0.876,1.367
	H409.474 M408.529,712.3h2.589c1.525,0,1.82-1.104,1.82-2.352v-1.416c0-1.633-0.592-2.232-1.986-2.232h-2.423V712.3"/>
<path fill="#221F1F" d="M414.33,709.8c0-0.787,0.048-0.982,0.778-0.982c0.69,0,0.797,0.068,0.797,0.982H414.33 M415.905,710.968
	c0,0.582-0.328,0.582-0.797,0.582c-0.758,0-0.778-0.271-0.778-1.125h2.415c0-1.863-0.193-2.375-1.637-2.375
	c-1.418,0-1.618,0.67-1.618,2.203c0,1.557,0.274,2.047,1.618,2.047c1.002,0,1.637-0.063,1.637-1.332H415.905"/>
<path fill="#221F1F" d="M418.267,708.05h-0.841v6.125h0.841v-2.469h0.032c0.179,0.5,0.622,0.594,1.045,0.594
	c1.198,0,1.338-0.781,1.338-1.994c0-1.275,0-2.256-1.338-2.256c-0.485,0-0.867,0.127-1.077,0.674V708.05 M419.1,711.55
	c-0.721,0-0.833-0.355-0.833-1.244c0-0.99,0-1.488,0.833-1.488c0.741,0,0.741,0.547,0.741,1.488
	C419.841,711.353,419.676,711.55,419.1,711.55"/>
<path fill="#221F1F" d="M420.988,708.8h0.443v2.189c0,1.057,0.285,1.311,1.224,1.311c0.92,0,1.19-0.383,1.19-1.65h-0.734
	c0,0.445,0.053,0.9-0.456,0.9c-0.384,0-0.384-0.178-0.384-0.568V708.8h1.396v-0.75h-1.396v-0.971h-0.84v0.971h-0.443V708.8"/>
<path fill="#221F1F" d="M425.127,706.3h-0.84v6h0.84v-2.314c0-0.752,0.099-1.168,0.824-1.168c0.534,0,0.646,0.209,0.646,0.816v2.666
	h0.84v-2.77c0-1.023-0.279-1.48-1.196-1.48c-0.487,0-0.902,0.064-1.088,0.68h-0.026V706.3"/>
<polyline fill="#221F1F" points="439.682,693.549 438.901,693.549 437.51,695.348 437.867,695.756 439.157,694.067 439.157,699.549 
	439.682,699.549 439.682,693.549 "/>
<path fill="#221F1F" d="M454.738,698.949h-3.045v-0.507c0-0.87,0.264-1.005,1.342-1.108c1.242-0.119,1.703-0.324,1.703-1.902
	c0-1.51-0.408-1.883-1.718-1.883c-1.715,0-1.853,0.477-1.853,1.779v0.31h0.525v-0.31c0-1.092,0.126-1.18,1.327-1.18
	c0.963,0,1.192,0.055,1.192,1.283c0,1.236-0.232,1.18-1.292,1.307c-1.2,0.149-1.753,0.254-1.753,1.798v1.013h3.57V698.949"/>
<path fill="#221F1F" d="M493.395,694.148h2.854v-0.6h-3.378v3h0.524c0.095-0.6,0.809-0.5,1.223-0.5c1.094,0,1.298,0.131,1.298,1.378
	c0,1.286-0.103,1.497-1.298,1.497c-0.911,0-1.327,0-1.327-0.936v-0.199h-0.525v0.143c0.105,1.449,0.53,1.617,1.853,1.617
	c1.499,0,1.822-0.248,1.822-2.122c0-1.141-0.118-2.003-1.658-2.003c-0.435,0-1.129,0-1.373,0.5h-0.014V694.148"/>
<path fill="#221F1F" d="M466.317,696.799h0.625c0.75,0,1.171,0,1.171,0.975c0,1.105-0.169,1.15-1.4,1.15
	c-1.09,0-1.225-0.031-1.225-0.936v-0.387h-0.524v0.387c0,1.373,0.635,1.561,1.762,1.561c1.18,0,1.913,0.064,1.913-1.708
	c0-0.86-0.162-1.276-0.904-1.347v-0.016c0.709-0.063,0.799-0.625,0.799-1.385c0-1.545-0.693-1.545-1.815-1.545
	c-1.157,0-1.754,0.096-1.754,1.617v0.252h0.524v-0.252c0-0.924,0.142-1.018,1.152-1.018c1.242,0,1.368,0.086,1.368,1.064
	c0,0.986-0.316,0.961-1.066,0.961h-0.625V696.799"/>
<path fill="#221F1F" d="M481.49,697.549h-2.311l2.297-3.561h0.014V697.549 M482.015,693.549h-0.82l-2.54,3.792v0.833h2.836v1.375
	h0.524v-1.375h0.732v-0.625h-0.732V693.549"/>
<path fill="#221F1F" d="M506.669,697.439c0,1.855,0.448,2.109,1.833,2.109c1.411,0,1.842-0.264,1.842-1.875
	c0-1.684-0.464-1.875-1.842-1.875c-0.781,0-1.178,0.183-1.308,0.573v-1.243c0-0.98,0.392-0.98,1.335-0.98
	c0.771,0,1.185,0,1.185,0.76v0.159h0.525v-0.185c0-1.334-0.891-1.334-1.708-1.334c-1.165,0-1.862,0.17-1.862,1.551V697.439
	 M508.626,696.424c1.092,0,1.193,0.141,1.193,1.25c0,1.055-0.048,1.25-1.317,1.25c-1.206,0-1.308-0.211-1.308-1.484
	C507.194,696.494,507.506,696.424,508.626,696.424"/>
<polyline fill="#221F1F" points="524.351,693.549 520.619,693.549 520.619,694.109 523.825,694.109 521.178,699.549 
	521.851,699.549 524.351,694.406 524.351,693.549 "/>
<path fill="#221F1F" d="M534.996,697.888c0-1.013,0.188-1.089,1.31-1.089c1.168,0,1.315,0.131,1.315,1.089
	c0,0.844-0.188,1.036-1.315,1.036C535.063,698.924,534.996,698.816,534.996,697.888 M534.996,695.086
	c0-0.844,0.092-0.938,1.31-0.938c1.224,0,1.315,0.127,1.315,0.938c0,0.93-0.106,1.088-1.315,1.088
	C535.082,696.174,534.996,695.984,534.996,695.086 M535.244,696.465c-0.714,0.148-0.773,0.578-0.773,1.423
	c0,1.661,0.663,1.661,1.838,1.661c1.431,0,1.838-0.172,1.838-1.661c0-0.946-0.156-1.298-0.767-1.423v-0.008
	c0.702-0.152,0.767-0.605,0.767-1.371c0-1.537-0.574-1.537-1.841-1.537c-1.257,0-1.835,0.063-1.835,1.537
	c0,0.885,0.117,1.221,0.773,1.363V696.465"/>
<path fill="#221F1F" d="M548.372,698.161c0,1.388,0.639,1.388,1.888,1.388c1.634,0,1.893-0.393,1.893-1.938v-2.232
	c0-1.577-0.449-1.83-1.893-1.83c-1.479,0-1.888,0.246-1.888,1.83c0,1.582,0.473,1.795,1.896,1.795c0.205,0,1.112,0,1.346-0.559
	l0.015,0.018v0.979c0,1.264-0.248,1.313-1.368,1.313c-1.124,0-1.362-0.064-1.362-0.763v-0.226h-0.525V698.161 M550.26,696.549
	c-1.17,0-1.362-0.076-1.362-1.17c0-1.193,0.141-1.23,1.362-1.23c1.063,0,1.368,0,1.368,1.23
	C551.628,696.473,551.486,696.549,550.26,696.549"/>
<polyline fill="#221F1F" points="562.475,693.549 561.694,693.549 560.303,695.348 560.66,695.756 561.95,694.067 561.95,699.549 
	562.475,699.549 562.475,693.549 "/>
<path fill="#221F1F" d="M566.485,699.549c1.552,0,2.094-0.247,2.094-2.153v-1.72c0-1.883-0.542-2.127-2.106-2.127
	c-1.553,0-2.094,0.244-2.094,2.127v1.72C564.379,699.302,564.92,699.549,566.485,699.549 M566.473,694.148
	c1.252,0,1.581,0,1.581,1.527v1.72c0,1.528-0.329,1.528-1.581,1.528c-1.239,0-1.568,0-1.568-1.528v-1.72
	C564.904,694.148,565.233,694.148,566.473,694.148"/>
<polyline fill="#221F1F" points="410.523,721.461 412.002,721.461 412.002,720.477 408.101,720.477 408.101,721.461 
	409.579,721.461 409.579,726.477 410.523,726.477 410.523,721.461 "/>
<path fill="#221F1F" d="M415.207,726.477v-4.25h-0.841v2.438c0,0.732-0.211,1.063-0.871,1.063c-0.551,0-0.599-0.232-0.599-0.836
	v-2.664h-0.84v3.041c0,0.92,0.473,1.209,1.18,1.209c0.49,0,0.934-0.133,1.13-0.676v0.676H415.207"/>
<path fill="#221F1F" d="M415.937,722.227v4.25h0.841v-2.594c0-0.545,0.155-0.889,0.69-0.889c0.429,0,0.464,0.248,0.464,0.672v0.217
	h0.84v-0.336c0-0.793-0.193-1.32-0.985-1.32c-0.439,0-0.829,0.133-1.009,0.588v-0.588H415.937"/>
<path fill="#221F1F" d="M419.261,722.227v4.25h0.84v-2.314c0-0.752,0.099-1.168,0.823-1.168c0.535,0,0.646,0.209,0.646,0.816v2.666
	h0.84v-2.77c0-1.023-0.278-1.48-1.195-1.48c-0.487,0-0.903,0.063-1.088,0.674h-0.026v-0.674H419.261"/>
<path fill="none" stroke="#221F1F" stroke-width="1" stroke-miterlimit="10" d="M543.975,717.969v25.513 M557.892,717.969v25.513
	 M530.058,717.969v25.513 M516.142,717.969v25.513 M502.222,717.969v25.513 M488.305,717.969v25.513 M474.389,717.969v25.513
	 M460.473,717.969v25.513 M446.554,717.969v25.513 M432.636,717.969v25.513 M405.726,730.726h166.112 M571.836,737.31
	c0,3.408-2.875,6.172-6.424,6.172H411.676c-3.546,0-6.423-2.764-6.423-6.172v-13.168c0-3.408,2.877-6.172,6.423-6.172h153.736
	c3.549,0,6.424,2.764,6.424,6.172V737.31z"/>
<path fill="#221F1F" d="M409.474,738.245v-4.031h1.479c0.758,0,1.042,0.248,1.042,1.248v1.416c0,0.672-0.207,1.367-0.876,1.367
	H409.474 M408.529,739.229h2.589c1.525,0,1.82-1.104,1.82-2.352v-1.416c0-1.633-0.592-2.232-1.986-2.232h-2.423V739.229"/>
<path fill="#221F1F" d="M414.33,736.729c0-0.787,0.048-0.982,0.778-0.982c0.69,0,0.797,0.068,0.797,0.982H414.33 M415.905,737.896
	c0,0.583-0.328,0.583-0.797,0.583c-0.758,0-0.778-0.271-0.778-1.125h2.415c0-1.863-0.193-2.375-1.637-2.375
	c-1.418,0-1.618,0.67-1.618,2.203c0,1.557,0.274,2.047,1.618,2.047c1.002,0,1.637-0.063,1.637-1.333H415.905"/>
<path fill="#221F1F" d="M418.267,734.979h-0.841v6.125h0.841v-2.469h0.032c0.179,0.5,0.622,0.594,1.045,0.594
	c1.198,0,1.338-0.781,1.338-1.994c0-1.275,0-2.256-1.338-2.256c-0.485,0-0.867,0.127-1.077,0.674V734.979 M419.1,738.479
	c-0.721,0-0.833-0.356-0.833-1.244c0-0.99,0-1.488,0.833-1.488c0.741,0,0.741,0.547,0.741,1.488
	C419.841,738.282,419.676,738.479,419.1,738.479"/>
<path fill="#221F1F" d="M420.988,735.729h0.443v2.189c0,1.057,0.285,1.311,1.224,1.311c0.92,0,1.19-0.383,1.19-1.65h-0.734
	c0,0.445,0.053,0.9-0.456,0.9c-0.384,0-0.384-0.178-0.384-0.568v-2.182h1.396v-0.75h-1.396v-0.971h-0.84v0.971h-0.443V735.729"/>
<path fill="#221F1F" d="M425.127,733.229h-0.84v6h0.84v-2.314c0-0.753,0.099-1.168,0.824-1.168c0.534,0,0.646,0.209,0.646,0.816
	v2.666h0.84v-2.77c0-1.023-0.279-1.48-1.196-1.48c-0.487,0-0.902,0.064-1.088,0.68h-0.026V733.229"/>
<polyline fill="#221F1F" points="437.363,720.478 436.583,720.478 435.191,722.276 435.549,722.685 436.839,720.997 
	436.839,726.478 437.363,726.478 437.363,720.478 "/>
<polyline fill="#221F1F" points="442,720.478 441.22,720.478 439.828,722.276 440.186,722.685 441.476,720.997 441.476,726.478 
	442,726.478 442,720.478 "/>
<polyline fill="#221F1F" points="451.268,720.478 450.486,720.478 449.095,722.276 449.452,722.685 450.742,720.997 
	450.742,726.478 451.268,726.478 451.268,720.478 "/>
<path fill="#221F1F" d="M457.059,725.878h-3.045v-0.506c0-0.871,0.265-1.006,1.342-1.109c1.242-0.119,1.703-0.324,1.703-1.902
	c0-1.51-0.408-1.883-1.718-1.883c-1.714,0-1.852,0.477-1.852,1.779v0.311h0.524v-0.311c0-1.092,0.127-1.18,1.327-1.18
	c0.964,0,1.193,0.055,1.193,1.283c0,1.236-0.233,1.18-1.293,1.307c-1.199,0.15-1.752,0.254-1.752,1.799v1.012h3.569V725.878"/>
<polyline fill="#221F1F" points="492.965,720.478 492.184,720.478 490.793,722.276 491.15,722.685 492.439,720.997 492.439,726.478 
	492.965,726.478 492.965,720.478 "/>
<path fill="#221F1F" d="M495.712,721.077h2.853v-0.6h-3.378v3h0.525c0.095-0.6,0.809-0.5,1.222-0.5c1.095,0,1.298,0.131,1.298,1.379
	c0,1.285-0.102,1.496-1.298,1.496c-0.91,0-1.327,0-1.327-0.936v-0.199h-0.524v0.143c0.104,1.449,0.529,1.617,1.852,1.617
	c1.5,0,1.823-0.248,1.823-2.121c0-1.141-0.118-2.004-1.659-2.004c-0.435,0-1.129,0-1.373,0.5h-0.013V721.077"/>
<polyline fill="#221F1F" points="465.165,720.478 464.384,720.478 462.993,722.276 463.351,722.685 464.64,720.997 464.64,726.478 
	465.165,726.478 465.165,720.478 "/>
<path fill="#221F1F" d="M468.636,723.728h0.625c0.75,0,1.171,0,1.171,0.975c0,1.105-0.169,1.15-1.4,1.15
	c-1.09,0-1.225-0.031-1.225-0.936v-0.387h-0.524v0.387c0,1.373,0.635,1.561,1.762,1.561c1.18,0,1.913,0.064,1.913-1.707
	c0-0.861-0.162-1.277-0.904-1.348v-0.016c0.709-0.063,0.799-0.625,0.799-1.385c0-1.545-0.693-1.545-1.815-1.545
	c-1.157,0-1.754,0.096-1.754,1.617v0.252h0.524v-0.252c0-0.924,0.142-1.018,1.152-1.018c1.242,0,1.368,0.086,1.368,1.064
	c0,0.986-0.316,0.961-1.066,0.961h-0.625V723.728"/>
<polyline fill="#221F1F" points="479.068,720.478 478.288,720.478 476.896,722.276 477.254,722.685 478.544,720.997 
	478.544,726.478 479.068,726.478 479.068,720.478 "/>
<path fill="#221F1F" d="M483.811,724.478H481.5l2.297-3.561h0.014V724.478 M484.336,720.478h-0.82l-2.54,3.793v0.832h2.835v1.375
	h0.525v-1.375h0.731v-0.625h-0.731V720.478"/>
<polyline fill="#221F1F" points="506.869,720.478 506.088,720.478 504.697,722.276 505.055,722.685 506.345,720.997 
	506.345,726.478 506.869,726.478 506.869,720.478 "/>
<path fill="#221F1F" d="M508.986,724.368c0,1.855,0.447,2.109,1.832,2.109c1.411,0,1.843-0.264,1.843-1.875
	c0-1.684-0.464-1.875-1.843-1.875c-0.78,0-1.178,0.184-1.308,0.574v-1.244c0-0.98,0.393-0.98,1.336-0.98c0.771,0,1.185,0,1.185,0.76
	v0.16h0.525v-0.186c0-1.334-0.892-1.334-1.708-1.334c-1.165,0-1.862,0.17-1.862,1.551V724.368 M510.943,723.353
	c1.091,0,1.192,0.141,1.192,1.25c0,1.055-0.047,1.25-1.317,1.25c-1.205,0-1.308-0.211-1.308-1.484
	C509.511,723.423,509.823,723.353,510.943,723.353"/>
<polyline fill="#221F1F" points="520.773,720.478 519.992,720.478 518.602,722.276 518.959,722.685 520.248,720.997 
	520.248,726.478 520.773,726.478 520.773,720.478 "/>
<polyline fill="#221F1F" points="526.67,720.478 522.938,720.478 522.938,721.038 526.145,721.038 523.497,726.478 524.17,726.478 
	526.67,721.335 526.67,720.478 "/>
<polyline fill="#221F1F" points="534.677,720.478 533.896,720.478 532.505,722.276 532.862,722.685 534.152,720.997 
	534.152,726.478 534.677,726.478 534.677,720.478 "/>
<path fill="#221F1F" d="M537.318,724.817c0-1.014,0.189-1.09,1.31-1.09c1.168,0,1.315,0.131,1.315,1.09
	c0,0.844-0.188,1.035-1.315,1.035C537.386,725.853,537.318,725.745,537.318,724.817 M537.318,722.015
	c0-0.844,0.092-0.938,1.31-0.938c1.224,0,1.315,0.127,1.315,0.938c0,0.93-0.106,1.088-1.315,1.088
	C537.404,723.103,537.318,722.913,537.318,722.015 M537.566,723.394c-0.714,0.148-0.772,0.578-0.772,1.424
	c0,1.66,0.663,1.66,1.837,1.66c1.431,0,1.838-0.172,1.838-1.66c0-0.947-0.156-1.299-0.767-1.424v-0.008
	c0.702-0.152,0.767-0.605,0.767-1.371c0-1.537-0.574-1.537-1.841-1.537c-1.257,0-1.834,0.063-1.834,1.537
	c0,0.885,0.116,1.221,0.772,1.363V723.394"/>
<polyline fill="#221F1F" points="548.574,720.478 547.793,720.478 546.401,722.276 546.76,722.685 548.049,720.997 548.049,726.478 
	548.574,726.478 548.574,720.478 "/>
<path fill="#221F1F" d="M550.69,725.091c0,1.387,0.638,1.387,1.887,1.387c1.634,0,1.894-0.393,1.894-1.938v-2.232
	c0-1.576-0.45-1.83-1.894-1.83c-1.479,0-1.887,0.246-1.887,1.83c0,1.582,0.473,1.795,1.895,1.795c0.205,0,1.112,0,1.346-0.559
	l0.015,0.018v0.979c0,1.264-0.248,1.313-1.368,1.313c-1.124,0-1.362-0.064-1.362-0.762v-0.227h-0.524V725.091 M552.577,723.478
	c-1.17,0-1.362-0.076-1.362-1.17c0-1.193,0.142-1.23,1.362-1.23c1.063,0,1.368,0,1.368,1.23
	C553.945,723.401,553.805,723.478,552.577,723.478"/>
<path fill="#221F1F" d="M563.633,725.878h-3.045v-0.506c0-0.871,0.264-1.006,1.342-1.109c1.242-0.119,1.703-0.324,1.703-1.902
	c0-1.51-0.409-1.883-1.718-1.883c-1.715,0-1.853,0.477-1.853,1.779v0.311h0.525v-0.311c0-1.092,0.126-1.18,1.327-1.18
	c0.963,0,1.192,0.055,1.192,1.283c0,1.236-0.233,1.18-1.293,1.307c-1.199,0.15-1.752,0.254-1.752,1.799v1.012h3.57V725.878"/>
<path fill="#221F1F" d="M566.491,726.478c1.552,0,2.093-0.246,2.093-2.152v-1.721c0-1.883-0.541-2.127-2.106-2.127
	c-1.552,0-2.093,0.244-2.093,2.127v1.721C564.385,726.231,564.926,726.478,566.491,726.478 M566.478,721.077
	c1.252,0,1.582,0,1.582,1.527v1.721c0,1.527-0.33,1.527-1.582,1.527c-1.238,0-1.568,0-1.568-1.527v-1.721
	C564.909,721.077,565.239,721.077,566.478,721.077"/>
<path fill="#CCCECF" d="M471.111,647.098c0,0-7.461,0.54-6.394-8.374h-56.63v-3.806l27.401-44.909h9.136l-5.481-14.462h-34.711
	v-9.136l27.404-13.701c0,0-18.271-47.442-21.009-87.022V190.582c0,0-1.827-32.731,4.566-51c0,0,22.379-70.789,75.814-76.12h3.02
	c53.436,5.331,75.815,76.12,75.815,76.12c6.392,18.269,4.565,51,4.565,51v275.106c-2.74,39.58-21.01,87.022-21.01,87.022
	l27.404,13.701v9.136h-34.709l-5.482,14.462h9.135l27.401,44.909v3.806h-56.632c1.069,8.914-6.392,8.374-6.392,8.374"/>
<path fill="#FFFFFF" d="M468.277,643.965c0,0-7.463,0.541-6.394-8.374h-56.631v-3.807l27.401-44.908h9.136l-5.482-14.463h-34.711
	v-9.136l27.405-13.7c0,0-18.27-47.443-21.009-87.022V187.448c0,0-1.827-32.731,4.565-51c0,0,22.379-70.789,75.815-76.118h3.019
	c53.438,5.329,75.816,76.118,75.816,76.118c6.393,18.269,4.564,51,4.564,51v275.106c-2.738,39.579-21.008,87.022-21.008,87.022
	l27.402,13.7v9.136H543.46l-5.483,14.463h9.136l27.402,44.908v3.807h-56.633c1.07,8.915-6.392,8.374-6.392,8.374"/>
<path fill="none" stroke="#434344" stroke-width="1.522" d="M468.276,643.965c0,0-7.461,0.54-6.394-8.374h-56.63v-3.807
	l27.401-44.908h9.136l-5.482-14.463h-34.711v-9.136l27.405-13.7c0,0-18.27-47.443-21.009-87.022V187.448
	c0,0-1.828-32.731,4.565-50.999c0,0,22.379-70.791,75.815-76.12h3.019c53.438,5.329,75.816,76.12,75.816,76.12
	c6.393,18.268,4.564,50.999,4.564,50.999v275.106c-2.738,39.579-21.008,87.022-21.008,87.022l27.402,13.7v9.136H543.46
	l-5.483,14.463h9.136l27.4,44.908v3.807h-56.631c1.07,8.914-6.393,8.374-6.393,8.374H468.276z"/>
<path fill="#CCCECF" d="M519.402,286.438c4.816,0,8.721,3.51,8.721,7.847v100.038c0,4.336-3.904,7.852-8.721,7.852h-30.05v113.118
	h34.967l8.495,11.355V175.521h-43.462v110.917"/>
<path fill="#CCCECF" d="M489.314,515.292V402.174h-30.048c-4.817,0-8.723-3.516-8.723-7.852V294.285
	c0-4.337,3.905-7.847,8.723-7.847h30.048V175.521h-43.462v350.656l8.141-10.885"/>
<path fill="none" stroke="#434344" stroke-width="0.761" d="M460.029,632.165h-55.261 M461.4,635.591l-24.207-66.604h-36.079
	 M518.769,632.165h55.263 M517.399,635.591l24.205-66.604h36.08"/>
<rect x="474.702" y="286.483" fill="#CCCECF" width="29.719" height="68.805"/>
<rect x="474.702" y="286.482" fill="none" stroke="#434344" stroke-width="0.484" width="29.719" height="68.805"/>
<path fill="none" stroke="#434344" stroke-width="1.454" d="M528.163,294.285c0-4.337-3.904-7.847-8.723-7.847h-60.728
	c-4.816,0-8.724,3.51-8.724,7.847v100.038c0,4.336,3.907,7.852,8.724,7.852h60.728c4.818,0,8.723-3.516,8.723-7.852V294.285z"/>
<rect x="489.314" y="402.174" fill="#CCCECF" width="0.038" height="113.118"/>
<rect x="489.314" y="175.521" fill="#CCCECF" width="0.038" height="110.917"/>
<rect x="489.314" y="515.292" fill="#CCCECF" width="0.038" height="1.695"/>
<polyline fill="#CCCECF" points="567.729,141.118 411.371,141.118 444.404,175.521 534.697,175.521 "/>
<path fill="none" stroke="#434344" stroke-width="1" d="M519.44,286.438c4.818,0,8.723,3.51,8.723,7.847v100.038
	c0,4.336-3.904,7.852-8.723,7.852h-30.088v113.118h34.967l8.533,11.408v-351.18h-43.5v110.917H519.44z M489.353,515.292V402.174
	h-30.087c-4.817,0-8.722-3.516-8.722-7.852V294.285c0-4.337,3.904-7.847,8.722-7.847h30.087V175.521h-43.5v350.656l8.141-10.885
	H489.353z M567.729,141.118H411.371l33.032,34.403h90.293L567.729,141.118z"/>
<polyline fill="#CCCECF" points="428.266,549.692 550.049,549.692 524.319,515.292 453.993,515.292 "/>
<polygon fill="none" stroke="#434344" stroke-width="1" points="428.266,549.692 550.049,549.692 524.319,515.292 453.993,515.292 
	"/>
<path fill="#FFFFFF" d="M434.917,143.952"/>
<path fill="none" stroke="#434344" stroke-width="0.484" d="M434.916,143.952"/>
<path fill="#FFFFFF" d="M446.729,143.952"/>
<path fill="none" stroke="#434344" stroke-width="0.484" d="M446.729,143.952"/>
<path fill="#FFFFFF" d="M546.451,146.332"/>
<path fill="none" stroke="#434344" stroke-width="0.484" d="M546.451,146.332"/>
<path fill="#FFFFFF" d="M534.058,163.63"/>
<path fill="none" stroke="#434344" stroke-width="0.484" d="M534.058,163.63"/>
<path fill="#221F1F" d="M468.477,652.602v-2.02h1.553c0.799,0,0.947,0.15,0.947,0.986c0,0.866-0.195,1.033-0.996,1.033H468.477
	 M470.225,653.604c0.547,0,0.752,0.356,0.752,0.868v1.136h1.125v-1.134c0-0.856-0.203-1.303-1.035-1.375v-0.033
	c1.035-0.153,1.035-0.803,1.035-1.68c0-1.377-0.48-1.79-1.734-1.79h-3.016v6.012h1.125v-2.004H470.225"/>
<path fill="#221F1F" d="M474.003,653.103c0-0.789,0.057-0.984,0.926-0.984c0.822,0,0.949,0.068,0.949,0.984H474.003
	 M475.878,654.272c0,0.583-0.391,0.583-0.949,0.583c-0.902,0-0.926-0.271-0.926-1.127h2.875c0-1.867-0.23-2.38-1.949-2.38
	c-1.688,0-1.926,0.672-1.926,2.208c0,1.56,0.326,2.051,1.926,2.051c1.193,0,1.949-0.063,1.949-1.335H475.878"/>
<path fill="#221F1F" d="M480.438,655.607h1v-2.639c0-1.41-0.568-1.62-1.93-1.62c-0.953,0-1.82,0-1.82,1.247h1
	c0-0.519,0.365-0.558,0.82-0.558c0.871,0,0.93,0.229,0.93,0.878v0.584h-0.033c-0.248-0.523-0.771-0.523-1.303-0.523
	c-1.021,0-1.539,0.28-1.539,1.286c0,1.143,0.605,1.345,1.539,1.345c0.506,0,1.133,0,1.336-0.621V655.607 M479.475,653.729
	c0.516,0,0.963,0,0.963,0.534c0,0.55-0.406,0.593-0.963,0.593c-0.674,0-0.912-0.051-0.912-0.593
	C478.563,653.729,478.945,653.729,479.475,653.729"/>
<path fill="#221F1F" d="M482.274,651.349v4.259h1v-2.599c0-0.547,0.186-0.891,0.822-0.891c0.51,0,0.553,0.248,0.553,0.673v0.218h1
	v-0.337c0-0.795-0.23-1.323-1.174-1.323c-0.523,0-0.986,0.134-1.201,0.589v-0.589H482.274"/>
<path fill="#221F1F" d="M492.407,653.604h-2.082l1.029-3.125h0.016L492.407,653.604 M492.665,654.479l0.395,1.128h1.174
	l-2.043-6.012h-1.705l-2.002,6.012h1.199l0.377-1.128H492.665"/>
<path fill="#221F1F" d="M494.531,651.349v4.259h1v-2.599c0-0.547,0.186-0.891,0.822-0.891c0.51,0,0.553,0.248,0.553,0.673v0.218h1
	v-0.337c0-0.795-0.23-1.323-1.174-1.323c-0.523,0-0.986,0.134-1.201,0.589v-0.589H494.531"/>
<path fill="#221F1F" d="M498.424,651.349v4.259h1v-2.374c0-0.745,0.17-1.115,1.031-1.115c0.584,0,0.719,0.209,0.719,0.737v2.752h1
	v-2.374c0-0.745,0.156-1.115,0.957-1.115c0.543,0,0.668,0.209,0.668,0.737v2.752h1v-2.848c0-1.033-0.35-1.411-1.408-1.411
	c-0.551,0-1.115,0.161-1.305,0.744h-0.031c-0.111-0.609-0.713-0.744-1.236-0.744c-0.559,0-1.158,0.119-1.395,0.65v-0.65H498.424"/>
<path fill="#221F1F" d="M507.629,652.118c0.867,0,0.938,0.254,0.938,1.382c0,1.109-0.07,1.355-0.938,1.355s-0.938-0.246-0.938-1.355
	C506.691,652.372,506.762,652.118,507.629,652.118 M507.629,651.349c-1.719,0-1.938,0.519-1.938,2.144
	c0,1.602,0.219,2.115,1.938,2.115s1.938-0.514,1.938-2.115C509.566,651.867,509.348,651.349,507.629,651.349"/>
<path fill="#221F1F" d="M510.347,651.349v4.259h1v-2.599c0-0.547,0.186-0.891,0.822-0.891c0.51,0,0.553,0.248,0.553,0.673v0.218h1
	v-0.337c0-0.795-0.23-1.323-1.174-1.323c-0.523,0-0.986,0.134-1.201,0.589v-0.589H510.347"/>
<path fill="#221F1F" d="M480.051,665.46c-0.775,0-0.775-0.499-0.775-1.008v-3.302c0-0.659,0.047-1.007,0.775-1.007v-0.945
	c-1.9,0-1.9,0.888-1.9,2.579v2.096c0,1.889,0.09,2.589,1.9,2.589V665.46"/>
<path fill="#221F1F" d="M497.805,660.144c0.775,0,0.775,0.499,0.775,1.007v3.302c0,0.659-0.047,1.008-0.775,1.008v1.002
	c1.9,0,1.9-0.943,1.9-2.636v-2.096c0-1.848-0.089-2.532-1.9-2.532V660.144"/>
<polyline fill="#221F1F" points="468.203,384.752 469.743,384.752 469.743,383.889 465.68,383.889 465.68,384.752 467.219,384.752 
	467.219,389.149 468.203,389.149 468.203,384.752 "/>
<path fill="#221F1F" d="M473.516,389.149v-3.726h-0.875v2.137c0,0.642-0.221,0.932-0.907,0.932c-0.574,0-0.624-0.204-0.624-0.733
	v-2.335h-0.875v2.666c0,0.806,0.492,1.06,1.229,1.06c0.511,0,0.973-0.117,1.178-0.593v0.593H473.516"/>
<path fill="#221F1F" d="M474.275,385.423v3.726h0.875v-2.274c0-0.478,0.163-0.779,0.72-0.779c0.446,0,0.483,0.217,0.483,0.589v0.19
	h0.875v-0.295c0-0.695-0.201-1.157-1.026-1.157c-0.458,0-0.863,0.116-1.052,0.515v-0.515H474.275"/>
<path fill="#221F1F" d="M477.573,385.423v3.726h0.875v-2.274c0-0.478,0.162-0.779,0.719-0.779c0.446,0,0.484,0.217,0.484,0.589v0.19
	h0.875v-0.295c0-0.695-0.202-1.157-1.027-1.157c-0.458,0-0.863,0.116-1.051,0.515v-0.515H477.573"/>
<path fill="#221F1F" d="M481.745,386.958c0-0.69,0.049-0.861,0.81-0.861c0.72,0,0.831,0.06,0.831,0.861H481.745 M483.386,387.981
	c0,0.51-0.342,0.51-0.831,0.51c-0.789,0-0.81-0.238-0.81-0.986h2.516c0-1.633-0.202-2.082-1.706-2.082
	c-1.477,0-1.685,0.587-1.685,1.931c0,1.365,0.285,1.795,1.685,1.795c1.044,0,1.706-0.055,1.706-1.168H483.386"/>
<path fill="#221F1F" d="M484.508,386.081h0.461V388c0,0.927,0.298,1.149,1.275,1.149c0.959,0,1.24-0.336,1.24-1.447h-0.766
	c0,0.391,0.055,0.79-0.475,0.79c-0.4,0-0.4-0.156-0.4-0.499v-1.913h1.455v-0.657h-1.455v-0.851h-0.875v0.851h-0.461V386.081"/>
<path fill="#221F1F" d="M493.404,387.396h-1.822l0.901-2.735h0.014L493.404,387.396 M493.63,388.163l0.345,0.986h1.027l-1.787-5.26
	h-1.492l-1.752,5.26h1.05l0.329-0.986H493.63"/>
<path fill="#221F1F" d="M495.262,385.423v3.726h0.875v-2.274c0-0.478,0.162-0.779,0.72-0.779c0.446,0,0.483,0.217,0.483,0.589v0.19
	h0.875v-0.295c0-0.695-0.202-1.157-1.027-1.157c-0.458,0-0.863,0.116-1.051,0.515v-0.515H495.262"/>
<path fill="#221F1F" d="M498.668,385.423v3.726h0.875v-2.077c0-0.652,0.149-0.976,0.902-0.976c0.512,0,0.629,0.183,0.629,0.646
	v2.408h0.875v-2.077c0-0.652,0.137-0.976,0.838-0.976c0.475,0,0.584,0.183,0.584,0.646v2.408h0.875v-2.492
	c0-0.904-0.306-1.234-1.231-1.234c-0.482,0-0.977,0.141-1.142,0.65h-0.027c-0.098-0.532-0.624-0.65-1.082-0.65
	c-0.489,0-1.014,0.104-1.221,0.568v-0.568H498.668"/>
<path fill="#221F1F" d="M506.722,386.096c0.759,0,0.82,0.223,0.82,1.209c0,0.971-0.062,1.187-0.82,1.187s-0.82-0.216-0.82-1.187
	C505.901,386.319,505.963,386.096,506.722,386.096 M506.722,385.423c-1.504,0-1.695,0.454-1.695,1.875
	c0,1.402,0.191,1.851,1.695,1.851s1.695-0.449,1.695-1.851C508.417,385.877,508.226,385.423,506.722,385.423"/>
<path fill="#221F1F" d="M509.101,385.423v3.726h0.875v-2.274c0-0.478,0.162-0.779,0.72-0.779c0.446,0,0.483,0.217,0.483,0.589v0.19
	h0.875v-0.295c0-0.695-0.202-1.157-1.027-1.157c-0.458,0-0.863,0.116-1.051,0.515v-0.515H509.101"/>
<path fill="#221F1F" d="M479.919,397.771c-0.679,0-0.679-0.437-0.679-0.882V394c0-0.577,0.041-0.881,0.679-0.881v-0.827
	c-1.663,0-1.663,0.777-1.663,2.256v1.834c0,1.652,0.079,2.266,1.663,2.266V397.771"/>
<path fill="#221F1F" d="M495.454,393.119c0.678,0,0.678,0.437,0.678,0.881v2.889c0,0.577-0.041,0.882-0.678,0.882v0.877
	c1.662,0,1.662-0.825,1.662-2.307v-1.833c0-1.617-0.078-2.216-1.662-2.216V393.119"/>
<path fill="none" stroke="#434344" stroke-width="1" d="M494.545,399.071"/>
<path fill="none" stroke="#434344" stroke-width="1" d="M480.373,399.071"/>
<polyline fill="#221F1F" points="470.076,39.715 472.894,39.715 472.894,38.729 468.951,38.729 468.951,44.74 470.076,44.74 
	470.076,42.235 472.748,42.235 472.748,41.233 470.076,41.233 470.076,39.715 "/>
<path fill="#221F1F" d="M473.482,40.482v4.258h1v-2.599c0-0.546,0.186-0.891,0.822-0.891c0.51,0,0.553,0.249,0.553,0.673v0.217h1
	v-0.336c0-0.794-0.23-1.323-1.174-1.323c-0.523,0-0.986,0.133-1.201,0.589v-0.589H473.482"/>
<path fill="#221F1F" d="M479.188,41.251c0.867,0,0.938,0.255,0.938,1.382c0,1.109-0.07,1.356-0.938,1.356s-0.938-0.247-0.938-1.356
	C478.25,41.506,478.32,41.251,479.188,41.251 M479.188,40.482c-1.719,0-1.938,0.519-1.938,2.143c0,1.603,0.219,2.115,1.938,2.115
	s1.938-0.513,1.938-2.115C481.125,41,480.906,40.482,479.188,40.482"/>
<path fill="#221F1F" d="M482.031,40.482v4.258h1v-2.319c0-0.753,0.117-1.17,0.98-1.17c0.637,0,0.77,0.209,0.77,0.818v2.671h1v-2.774
	c0-1.025-0.332-1.484-1.424-1.484c-0.58,0-1.074,0.063-1.295,0.675h-0.031v-0.675H482.031"/>
<path fill="#221F1F" d="M486.288,41.233h0.527v2.194c0,1.059,0.34,1.313,1.457,1.313c1.096,0,1.418-0.383,1.418-1.653h-0.875
	c0,0.446,0.063,0.902-0.543,0.902c-0.457,0-0.457-0.178-0.457-0.569v-2.186h1.662v-0.751h-1.662V39.51h-1v0.972h-0.527V41.233"/>
<path fill="#221F1F" d="M496.455,42.736h-2.081l1.029-3.125h0.016L496.455,42.736 M496.713,43.613l0.396,1.127h1.173l-2.042-6.012
	h-1.706l-2.002,6.012h1.199l0.378-1.127H496.713"/>
<path fill="#221F1F" d="M498.579,40.482v4.258h1v-2.599c0-0.546,0.186-0.891,0.821-0.891c0.511,0,0.554,0.249,0.554,0.673v0.217h1
	v-0.336c0-0.794-0.231-1.323-1.174-1.323c-0.523,0-0.987,0.133-1.201,0.589v-0.589H498.579"/>
<path fill="#221F1F" d="M502.472,40.482v4.258h1v-2.374c0-0.746,0.17-1.116,1.031-1.116c0.584,0,0.719,0.209,0.719,0.738v2.751h1
	v-2.374c0-0.746,0.156-1.116,0.957-1.116c0.543,0,0.668,0.209,0.668,0.738v2.751h1v-2.847c0-1.033-0.35-1.411-1.408-1.411
	c-0.551,0-1.115,0.161-1.305,0.744h-0.031c-0.111-0.608-0.713-0.744-1.236-0.744c-0.559,0-1.158,0.12-1.395,0.65v-0.65H502.472"/>
<path fill="#221F1F" d="M511.676,41.251c0.867,0,0.938,0.255,0.938,1.382c0,1.109-0.07,1.356-0.938,1.356s-0.938-0.247-0.938-1.356
	C510.738,41.506,510.809,41.251,511.676,41.251 M511.676,40.482c-1.719,0-1.938,0.519-1.938,2.143c0,1.603,0.219,2.115,1.938,2.115
	s1.938-0.513,1.938-2.115C513.613,41,513.395,40.482,511.676,40.482"/>
<path fill="#221F1F" d="M514.395,40.482v4.258h1v-2.599c0-0.546,0.186-0.891,0.822-0.891c0.51,0,0.553,0.249,0.553,0.673v0.217h1
	v-0.336c0-0.794-0.23-1.323-1.174-1.323c-0.523,0-0.986,0.133-1.201,0.589v-0.589H514.395"/>
<path fill="#221F1F" d="M481.468,54.593c-0.775,0-0.775-0.499-0.775-1.008v-3.301c0-0.66,0.047-1.008,0.775-1.008v-0.945
	c-1.9,0-1.9,0.889-1.9,2.579v2.096c0,1.889,0.09,2.589,1.9,2.589V54.593"/>
<path fill="#221F1F" d="M499.222,49.276c0.775,0,0.775,0.499,0.775,1.008v3.301c0,0.66-0.047,1.008-0.775,1.008v1.002
	c1.9,0,1.9-0.943,1.9-2.636v-2.096c0-1.848-0.089-2.532-1.9-2.532V49.276"/>
<polyline fill="#221F1F" points="397.825,385.622 397.825,386.747 403.837,386.747 403.837,382.821 402.851,382.821 
	402.851,385.622 397.825,385.622 "/>
<path fill="#221F1F" d="M401.332,381.384c-0.789,0-0.984-0.056-0.984-0.926c0-0.822,0.068-0.949,0.984-0.949V381.384
	 M402.502,379.509c0.583,0,0.583,0.391,0.583,0.949c0,0.902-0.271,0.926-1.127,0.926v-2.875c-1.866,0-2.379,0.231-2.379,1.949
	c0,1.688,0.671,1.926,2.207,1.926c1.56,0,2.051-0.326,2.051-1.926c0-1.193-0.063-1.949-1.335-1.949V379.509"/>
<path fill="#221F1F" d="M399.579,375.458v1.023h-0.239c-0.485,0-0.746,0-0.746-0.688v-0.305h-0.769v0.654
	c0,1.1,0.413,1.338,1.396,1.338h0.358v0.592h0.751v-0.592h3.507v-1h-3.507v-1.023H399.579"/>
<path fill="#221F1F" d="M400.33,375.506v-0.527h2.193c1.06,0,1.313-0.34,1.313-1.458c0-1.096-0.384-1.417-1.653-1.417v0.875
	c0.446,0,0.901-0.063,0.901,0.542c0,0.458-0.178,0.458-0.569,0.458h-2.186v-1.662h-0.751v1.662h-0.973v1h0.973v0.527H400.33"/>
<path fill="#221F1F" d="M401.827,369.077h0.278c1.731,0,1.731-1.189,1.731-2.521c0-1.551-0.148-2.354-1.883-2.354
	c-1.517,0-1.612,0.51-1.706,2.375c-0.063,1.217-0.084,1.375-0.723,1.375c-0.644,0-0.755-0.192-0.755-1.383
	c0-0.842,0.023-1.117,0.675-1.117h0.191v-1.125h-0.197c-1.614,0-1.614,0.969-1.614,2.242c0,1.463,0,2.508,1.7,2.508
	c1.611,0,1.563-1.029,1.643-2.342c0.047-0.934-0.064-1.408,0.786-1.408c0.691,0,0.881,0.15,0.881,1.242
	c0,1.082-0.047,1.383-0.729,1.383h-0.278V369.077"/>
<path fill="#221F1F" d="M397.825,362.419v1h0.857v-1H397.825 M399.579,362.419v1h4.258v-1H399.579"/>
<path fill="#221F1F" d="M403.837,358.773v-1h-6.012v1h2.362v0.023c-0.513,0.215-0.608,0.748-0.608,1.256
	c0,1.43,0.788,1.596,2.016,1.596c1.277,0,2.242,0,2.242-1.596c0-0.578-0.123-1.029-0.659-1.279H403.837 M400.348,359.757
	c0-0.865,0.356-0.984,1.247-0.984c0.991,0,1.49,0,1.49,0.984c0,0.891-0.548,0.891-1.49,0.891
	C400.545,360.648,400.348,360.449,400.348,359.757"/>
<path fill="#221F1F" d="M401.332,355.936c-0.789,0-0.984-0.057-0.984-0.926c0-0.822,0.068-0.949,0.984-0.949V355.936
	 M402.502,354.061c0.583,0,0.583,0.391,0.583,0.949c0,0.902-0.271,0.926-1.127,0.926v-2.875c-1.866,0-2.379,0.23-2.379,1.949
	c0,1.688,0.671,1.926,2.207,1.926c1.56,0,2.051-0.326,2.051-1.926c0-1.193-0.063-1.949-1.335-1.949V354.061"/>
<path fill="#221F1F" d="M401.833,346.075v2.082l-3.125-1.029v-0.016L401.833,346.075 M402.71,345.817l1.127-0.395v-1.174
	l-6.012,2.043v1.705l6.012,2.002V348.8l-1.127-0.377V345.817"/>
<path fill="#221F1F" d="M399.579,343.928h4.258v-1h-2.599c-0.546,0-0.891-0.186-0.891-0.822c0-0.51,0.249-0.553,0.673-0.553h0.218
	v-1h-0.337c-0.794,0-1.322,0.23-1.322,1.174c0,0.523,0.133,0.986,0.589,1.201h-0.589V343.928"/>
<path fill="#221F1F" d="M399.579,340.067h4.258v-1h-2.374c-0.745,0-1.115-0.17-1.115-1.031c0-0.584,0.209-0.719,0.737-0.719h2.752
	v-1h-2.374c-0.745,0-1.115-0.156-1.115-0.957c0-0.543,0.209-0.668,0.737-0.668h2.752v-1h-2.848c-1.033,0-1.41,0.35-1.41,1.408
	c0,0.551,0.16,1.115,0.743,1.305v0.031c-0.608,0.111-0.743,0.713-0.743,1.236c0,0.559,0.119,1.158,0.649,1.395h-0.649V340.067"/>
<path fill="#221F1F" d="M400.348,330.895c0-0.867,0.255-0.938,1.382-0.938c1.109,0,1.355,0.07,1.355,0.938s-0.246,0.938-1.355,0.938
	C400.603,331.832,400.348,331.762,400.348,330.895 M399.579,330.895c0,1.719,0.518,1.938,2.143,1.938
	c1.603,0,2.115-0.219,2.115-1.938s-0.513-1.938-2.115-1.938C400.097,328.957,399.579,329.176,399.579,330.895"/>
<path fill="#221F1F" d="M399.579,328.208h4.258v-1h-2.599c-0.546,0-0.891-0.186-0.891-0.822c0-0.51,0.249-0.553,0.673-0.553h0.218
	v-1h-0.337c-0.794,0-1.322,0.23-1.322,1.174c0,0.523,0.133,0.986,0.589,1.201h-0.589V328.208"/>
<path fill="#221F1F" d="M404.087,319.663c0,0.775-0.499,0.775-1.008,0.775h-3.301c-0.659,0-1.008-0.047-1.008-0.775h-0.945
	c0,1.9,0.889,1.9,2.579,1.9h2.096c1.889,0,2.589-0.09,2.589-1.9H404.087"/>
<path fill="#221F1F" d="M398.771,302.132c0-0.775,0.499-0.775,1.008-0.775h3.301c0.66,0,1.008,0.047,1.008,0.775h1.002
	c0-1.9-0.943-1.9-2.636-1.9h-2.096c-1.848,0-2.532,0.09-2.532,1.9H398.771"/>
<path fill="#221F1F" d="M579.758,299.248h2.02v1.553c0,0.799-0.15,0.947-0.986,0.947c-0.867,0-1.033-0.195-1.033-0.996V299.248
	 M578.756,300.996c0,0.547-0.356,0.752-0.869,0.752h-1.135v1.125h1.133c0.857,0,1.303-0.203,1.376-1.035h0.033
	c0.152,1.035,0.802,1.035,1.679,1.035c1.378,0,1.791-0.48,1.791-1.734v-3.016h-6.012v1.125h2.004V300.996"/>
<path fill="#221F1F" d="M582.764,304.871v-1h-0.857v1H582.764 M581.01,304.871v-1h-4.258v1H581.01"/>
<path fill="#221F1F" d="M576.588,308.481c-0.773,0-0.963-0.174-0.963-0.984c0-0.555,0.094-0.766,0.714-0.766v-1
	c-1.286-0.064-1.466,0.719-1.466,1.766c0,1.512,0.372,1.984,1.934,1.984h4.203v-1h-0.675c0.548-0.248,0.675-0.699,0.675-1.273
	c0-1.602-0.982-1.602-2.26-1.602c-1.216,0-1.998,0.168-1.998,1.602c0,0.496,0.094,1.018,0.634,1.273H576.588 M580.241,307.497
	c0,0.852-0.358,0.984-1.247,0.984c-0.992,0-1.491,0-1.491-0.992c0-0.883,0.548-0.883,1.491-0.883
	C580.043,306.606,580.241,306.805,580.241,307.497"/>
<path fill="#221F1F" d="M582.764,311.455v-1h-6.012v1h2.318c0.754,0,1.171,0.117,1.171,0.98c0,0.637-0.21,0.77-0.818,0.77h-2.671v1
	h2.774c1.025,0,1.483-0.332,1.483-1.424c0-0.58-0.064-1.074-0.681-1.295v-0.031H582.764"/>
<path fill="#221F1F" d="M580.259,314.684v0.527h-2.194c-1.059,0-1.313,0.34-1.313,1.457c0,1.096,0.384,1.418,1.653,1.418v-0.875
	c-0.446,0-0.902,0.063-0.902-0.543c0-0.457,0.179-0.457,0.569-0.457h2.187v1.662h0.751v-1.662h0.973v-1h-0.973v-0.527H580.259"/>
<path fill="#221F1F" d="M578.762,321.116h-0.278c-1.731,0-1.731,1.189-1.731,2.521c0,1.551,0.148,2.354,1.882,2.354
	c1.517,0,1.612-0.51,1.707-2.375c0.063-1.217,0.084-1.375,0.722-1.375c0.645,0,0.756,0.191,0.756,1.383
	c0,0.842-0.023,1.117-0.676,1.117h-0.191v1.125h0.198c1.614,0,1.614-0.969,1.614-2.242c0-1.463,0-2.508-1.701-2.508
	c-1.61,0-1.562,1.029-1.642,2.342c-0.047,0.934,0.064,1.408-0.787,1.408c-0.69,0-0.88-0.15-0.88-1.242
	c0-1.082,0.047-1.383,0.729-1.383h0.278V321.116"/>
<path fill="#221F1F" d="M582.764,327.771v-1h-0.857v1H582.764 M581.01,327.771v-1h-4.258v1H581.01"/>
<path fill="#221F1F" d="M576.752,331.42v1h6.012v-1h-2.362v-0.023c0.513-0.214,0.608-0.748,0.608-1.256
	c0-1.43-0.788-1.596-2.016-1.596c-1.277,0-2.242,0-2.242,1.596c0,0.578,0.123,1.029,0.659,1.279H576.752 M580.241,330.436
	c0,0.866-0.356,0.984-1.247,0.984c-0.992,0-1.491,0-1.491-0.984c0-0.891,0.548-0.891,1.491-0.891
	C580.043,329.545,580.241,329.744,580.241,330.436"/>
<path fill="#221F1F" d="M579.257,334.261c0.788,0,0.984,0.057,0.984,0.926c0,0.822-0.068,0.949-0.984,0.949V334.261
	 M578.087,336.136c-0.584,0-0.584-0.391-0.584-0.949c0-0.902,0.272-0.926,1.128-0.926v2.875c1.866,0,2.379-0.23,2.379-1.949
	c0-1.688-0.671-1.926-2.207-1.926c-1.56,0-2.051,0.326-2.051,1.926c0,1.193,0.063,1.949,1.335,1.949V336.136"/>
<path fill="#221F1F" d="M578.756,344.125v-2.082l3.125,1.029v0.016L578.756,344.125 M577.879,344.383l-1.127,0.395v1.174
	l6.012-2.043v-1.705l-6.012-2.002v1.199l1.127,0.377V344.383"/>
<path fill="#221F1F" d="M581.01,346.269h-4.258v1h2.599c0.546,0,0.891,0.186,0.891,0.822c0,0.51-0.249,0.553-0.674,0.553h-0.217v1
	h0.337c0.794,0,1.322-0.23,1.322-1.174c0-0.523-0.133-0.986-0.589-1.201h0.589V346.269"/>
<path fill="#221F1F" d="M581.01,350.133h-4.258v1h2.373c0.746,0,1.116,0.17,1.116,1.031c0,0.584-0.21,0.719-0.738,0.719h-2.751v1
	h2.373c0.746,0,1.116,0.156,1.116,0.957c0,0.543-0.21,0.668-0.738,0.668h-2.751v1h2.848c1.033,0,1.41-0.35,1.41-1.408
	c0-0.551-0.16-1.115-0.743-1.305v-0.031c0.608-0.111,0.743-0.713,0.743-1.236c0-0.559-0.119-1.158-0.649-1.395h0.649V350.133"/>
<path fill="#221F1F" d="M580.241,359.31c0,0.867-0.255,0.938-1.382,0.938c-1.109,0-1.356-0.07-1.356-0.938s0.247-0.938,1.356-0.938
	C579.986,358.372,580.241,358.442,580.241,359.31 M581.01,359.31c0-1.719-0.519-1.938-2.143-1.938c-1.603,0-2.115,0.219-2.115,1.938
	s0.513,1.938,2.115,1.938C580.491,361.247,581.01,361.028,581.01,359.31"/>
<path fill="#221F1F" d="M581.01,362h-4.258v1h2.599c0.546,0,0.891,0.186,0.891,0.822c0,0.51-0.249,0.553-0.674,0.553h-0.217v1h0.337
	c0.794,0,1.322-0.23,1.322-1.173c0-0.523-0.133-0.987-0.589-1.202h0.589V362"/>
<path fill="#221F1F" d="M576.501,370.549c0-0.775,0.499-0.775,1.008-0.775h3.302c0.659,0,1.008,0.047,1.008,0.775h0.945
	c0-1.9-0.889-1.9-2.579-1.9h-2.097c-1.888,0-2.589,0.09-2.589,1.9H576.501"/>
<path fill="#221F1F" d="M581.818,388.079c0,0.775-0.499,0.775-1.008,0.775h-3.302c-0.659,0-1.008-0.047-1.008-0.775h-1.002
	c0,1.9,0.943,1.9,2.637,1.9h2.095c1.848,0,2.533-0.09,2.533-1.9H581.818"/>
<path fill="#231F20" d="M577.711,645.255c0-1.818-1.438-3.294-3.207-3.294h-42.572c-1.772,0-3.208,1.476-3.208,3.294v21.407
	c0,1.819,1.436,3.294,3.208,3.294h42.572c1.77,0,3.207-1.475,3.207-3.294V645.255"/>
<path fill="none" stroke="#231F20" stroke-width="2" d="M577.711,645.255c0-1.818-1.438-3.294-3.207-3.294h-42.572
	c-1.772,0-3.208,1.476-3.208,3.294v21.407c0,1.819,1.436,3.292,3.208,3.292h42.572c1.77,0,3.207-1.473,3.207-3.292V645.255z"/>
<path fill="#FFFFFF" d="M535.331,660.814c-0.165,1.794-1.001,2.589-2.487,2.589c-1.57,0-2.427-0.815-2.551-2.589
	c-0.08-1.062-0.121-2.12-0.121-3.2c0-0.471,0-0.939,0.021-1.406c0,0,0.021-3.59,0.101-4.59c0.124-1.773,0.98-2.609,2.551-2.609
	c1.486,0,2.322,0.836,2.487,2.609c0.021,0.328,0.039,1.571,0.039,2.081h-1.59c0-0.531-0.041-1.794-0.061-2.12
	c-0.081-0.796-0.348-1.144-0.876-1.144c-0.471,0-0.734,0.367-0.817,1.144c-0.1,0.998-0.1,4.629-0.1,4.629
	c-0.021,0.589-0.021,1.201-0.021,1.812c0,0.96,0.021,1.938,0.121,2.856c0.083,0.773,0.347,1.141,0.817,1.141
	c0.528,0,0.795-0.367,0.876-1.141c0.02-0.327,0.061-1.672,0.061-2.203h1.59C535.37,659,535.352,660.507,535.331,660.814"/>
<path fill="#FFFFFF" d="M539.894,663.241v-5.586h-1.773v5.586h-1.734v-8.462c0,0,0-1.956,0.081-2.854
	c0.145-1.609,1.346-2.753,2.897-2.753h2.3v14.069H539.894 M539.934,650.641h-0.569c-0.471,0-1.08,0.326-1.163,1.039
	c-0.081,0.634-0.081,1.856-0.081,2.486v2.061h1.813V650.641z"/>
<path fill="#FFFFFF" d="M551.15,663.241v-5.586h-1.772v5.586h-1.733v-8.462c0,0,0-1.956,0.082-2.854
	c0.142-1.609,1.346-2.753,2.895-2.753h2.303v14.069H551.15 M551.192,650.641h-0.571c-0.469,0-1.081,0.326-1.161,1.039
	c-0.082,0.634-0.082,1.856-0.082,2.486v2.061h1.814V650.641z"/>
<path fill="#FFFFFF" d="M545.316,650.641v10.315c0,0.713,0.447,1.019,0.895,1.019h0.45v1.409h-0.45
	c-1.587,0-2.648-0.693-2.648-2.285v-10.458h-1.978v-1.469h5.73v1.469H545.316"/>
<path fill="#FFFFFF" d="M567.294,663.403c-1.508,0-2.588-0.837-2.588-2.631v-2.1h1.608v2.182c0,0.815,0.47,1.142,0.979,1.142
	c0.47,0,0.938-0.326,0.938-1.142v-1.773c0-2.16-3.467-3.303-3.467-5.953v-1.51c0-1.793,1-2.609,2.569-2.609
	c1.488,0,2.466,0.816,2.466,2.609v1.692h-1.59v-1.731c0-0.797-0.366-1.144-0.876-1.144c-0.47,0-0.817,0.347-0.817,1.144v1.529
	c0,1.67,3.446,3.262,3.446,5.912v1.752C569.964,662.566,568.884,663.403,567.294,663.403"/>
<path fill="#FFFFFF" d="M574,650.641v10.315c0,0.713,0.448,1.019,0.895,1.019h0.45v1.409h-0.45c-1.587,0-2.648-0.693-2.648-2.285
	v-10.458h-1.978v-1.469h5.729v1.469H574"/>
<path fill="#FFFFFF" d="M551.219,666.356c0,0.439-0.089,0.752-0.309,0.949c-0.218,0.193-0.52,0.252-0.806,0.252
	c-0.267,0-0.551-0.053-0.731-0.168l0.115-0.396c0.134,0.076,0.356,0.158,0.611,0.158c0.343,0,0.601-0.182,0.601-0.631v-0.18h-0.008
	c-0.121,0.184-0.335,0.308-0.611,0.308c-0.52,0-0.888-0.429-0.888-1.022c0-0.686,0.445-1.104,0.948-1.104
	c0.319,0,0.507,0.156,0.605,0.326h0.009l0.021-0.278h0.461c-0.01,0.142-0.02,0.313-0.02,0.601V666.356 M550.692,665.407
	c0-0.047-0.005-0.1-0.019-0.141c-0.055-0.193-0.206-0.339-0.43-0.339c-0.295,0-0.516,0.256-0.516,0.682
	c0,0.356,0.182,0.646,0.513,0.646c0.197,0,0.368-0.129,0.43-0.318c0.012-0.057,0.021-0.131,0.021-0.189V665.407z"/>
<path fill="#FFFFFF" d="M553.239,666.16c0,0.188,0.008,0.373,0.029,0.502h-0.477l-0.035-0.231h-0.012
	c-0.13,0.162-0.347,0.277-0.619,0.277c-0.421,0-0.657-0.303-0.657-0.622c0-0.528,0.468-0.794,1.242-0.79v-0.033
	c0-0.139-0.056-0.366-0.427-0.366c-0.207,0-0.42,0.065-0.562,0.155l-0.104-0.345c0.156-0.094,0.427-0.184,0.756-0.184
	c0.671,0,0.865,0.425,0.865,0.88V666.16 M552.723,665.64c-0.373-0.009-0.729,0.073-0.729,0.391c0,0.207,0.132,0.301,0.299,0.301
	c0.211,0,0.366-0.137,0.413-0.289c0.013-0.037,0.017-0.081,0.017-0.115V665.64z"/>
<path fill="#FFFFFF" d="M553.625,665.192c0-0.239-0.004-0.441-0.017-0.622h0.454l0.023,0.309h0.013
	c0.103-0.163,0.292-0.356,0.644-0.356c0.277,0,0.489,0.154,0.581,0.387h0.007c0.073-0.115,0.159-0.201,0.259-0.262
	c0.117-0.082,0.249-0.125,0.422-0.125c0.347,0,0.699,0.234,0.699,0.906v1.234h-0.516v-1.158c0-0.347-0.12-0.552-0.373-0.552
	c-0.181,0-0.313,0.127-0.371,0.277c-0.012,0.053-0.025,0.117-0.025,0.177v1.256h-0.515v-1.212c0-0.293-0.115-0.498-0.361-0.498
	c-0.195,0-0.33,0.153-0.378,0.302c-0.021,0.049-0.03,0.109-0.03,0.168v1.24h-0.516V665.192"/>
<path fill="#FFFFFF" d="M557.47,665.765c0.013,0.379,0.311,0.541,0.646,0.541c0.244,0,0.42-0.035,0.58-0.096l0.076,0.365
	c-0.181,0.073-0.43,0.133-0.73,0.133c-0.678,0-1.079-0.42-1.079-1.059c0-0.58,0.354-1.126,1.022-1.126
	c0.685,0,0.902,0.558,0.902,1.018c0,0.099-0.008,0.177-0.017,0.224H557.47 M558.389,665.395c0.004-0.192-0.08-0.511-0.435-0.511
	c-0.325,0-0.462,0.296-0.484,0.511H558.389z"/>
<rect x="562.729" y="663.611" fill="#FFFFFF" width="0.529" height="3.052"/>
<path fill="#FFFFFF" d="M565.284,666.16c0,0.188,0.007,0.373,0.03,0.502h-0.479l-0.033-0.231h-0.014
	c-0.127,0.162-0.347,0.277-0.617,0.277c-0.422,0-0.658-0.303-0.658-0.622c0-0.528,0.47-0.794,1.241-0.79v-0.033
	c0-0.139-0.055-0.366-0.424-0.366c-0.209,0-0.421,0.065-0.563,0.155l-0.104-0.345c0.155-0.094,0.425-0.184,0.756-0.184
	c0.67,0,0.864,0.425,0.864,0.88V666.16 M564.769,665.64c-0.375-0.009-0.73,0.073-0.73,0.391c0,0.207,0.133,0.301,0.299,0.301
	c0.21,0,0.366-0.137,0.414-0.289c0.013-0.037,0.018-0.081,0.018-0.115V665.64z"/>
<path fill="#FFFFFF" d="M565.669,663.611h0.528v1.247h0.01c0.13-0.201,0.356-0.335,0.671-0.335c0.51,0,0.874,0.424,0.871,1.06
	c0,0.754-0.477,1.127-0.949,1.127c-0.271,0-0.512-0.104-0.662-0.359h-0.008l-0.026,0.312h-0.451c0.01-0.142,0.017-0.374,0.017-0.589
	V663.611 M566.197,665.799c0,0.044,0.005,0.087,0.015,0.124c0.055,0.211,0.241,0.371,0.468,0.371c0.331,0,0.533-0.268,0.533-0.688
	c0-0.37-0.177-0.67-0.529-0.67c-0.215,0-0.409,0.153-0.469,0.385c-0.008,0.04-0.018,0.086-0.018,0.139V665.799z"/>
<path fill="#FFFFFF" d="M567.984,666.176c0.121,0.073,0.349,0.149,0.537,0.149c0.234,0,0.335-0.092,0.335-0.229
	c0-0.144-0.086-0.216-0.345-0.306c-0.406-0.141-0.578-0.365-0.574-0.61c0-0.368,0.305-0.656,0.791-0.656
	c0.232,0,0.433,0.059,0.554,0.124l-0.104,0.374c-0.09-0.053-0.257-0.12-0.441-0.12c-0.188,0-0.291,0.089-0.291,0.217
	c0,0.135,0.098,0.198,0.364,0.295c0.378,0.137,0.555,0.33,0.56,0.639c0,0.379-0.298,0.656-0.851,0.656
	c-0.255,0-0.481-0.063-0.637-0.149L567.984,666.176"/>
<path fill="#FFFFFF" d="M563.539,652.302v-3.113h-1.101l-0.632,1.166v4.792c0,0,0,2.244-0.103,3.14
	c-0.061,0.693-0.347,1.061-0.794,1.061c-0.469,0-0.733-0.367-0.816-1.061c-0.056-0.5-0.081-1.418-0.094-2.134
	c-0.006-0.513-0.006-0.894-0.006-0.894l-0.002-1.721c0,0-0.972,1.879-1.331,2.119c-0.366,0.246-0.325,0.52-0.325,0.52
	s-0.038,1.727,0.008,2.2c0.121,1.282,0.651,2.142,1.69,2.406v0.628c-0.005,0.004-0.011,0.01-0.016,0.013v5.554l1.733-1.732v-0.006
	l0.017-0.016v-4.44c1.019-0.265,1.57-1.124,1.752-2.406c0.021-0.877,0.021-3.118,0.021-3.118v-2.957H563.539"/>
<polyline fill="#FFFFFF" points="556.101,654.679 554.369,651.769 554.369,663.241 558.751,663.241 558.751,661.813 
	556.101,661.813 556.101,654.679 "/>
<polyline fill="#FFFFFF" points="570.057,663.831 569.821,663.831 569.821,663.746 570.396,663.746 570.396,663.831 570.16,663.831 
	570.16,664.521 570.057,664.521 570.057,663.831 "/>
<path fill="#FFFFFF" d="M571.132,664.181c-0.005-0.108-0.012-0.239-0.012-0.335h-0.003c-0.027,0.089-0.059,0.187-0.097,0.294
	l-0.138,0.377h-0.075l-0.127-0.37c-0.036-0.112-0.066-0.21-0.089-0.301h-0.001c-0.003,0.097-0.009,0.226-0.016,0.343l-0.021,0.332
	h-0.096l0.054-0.775h0.128l0.132,0.374c0.033,0.096,0.058,0.183,0.078,0.262h0.004c0.02-0.078,0.048-0.163,0.082-0.262l0.138-0.374
	h0.127l0.049,0.775h-0.1L571.132,664.181"/>
<path fill="#C7C8CA" d="M563.228,644.357c0,0-0.357,0.222-0.49,0.408c-0.049,0.239,0.267,0.509,0.041,0.7l-2.214,1.372l-6.362,0.352
	c0,0-1.553,0.015-0.43,1.829l2.976,4.803c1.125,1.814,1.827,0.43,1.827,0.43l3.146-5.543l2.021-1.252l0.193-0.121
	c0.272-0.117,0.374,0.287,0.61,0.35c0.224-0.035,0.582-0.259,0.582-0.259L563.228,644.357"/>
<path fill="none" stroke="#231F20" stroke-width="1" stroke-linecap="round" stroke-linejoin="round" d="M563.228,644.357
	c0,0-0.357,0.222-0.488,0.407c-0.05,0.238,0.265,0.508,0.039,0.7l-2.214,1.373l-6.362,0.352c0,0-1.553,0.015-0.43,1.827l2.976,4.805
	c1.125,1.813,1.827,0.428,1.827,0.428l3.146-5.541l2.021-1.252l0.193-0.121c0.272-0.118,0.374,0.287,0.61,0.35
	c0.224-0.037,0.582-0.259,0.582-0.259L563.228,644.357z"/>
<line fill="none" stroke="#231F20" stroke-width="0.5" stroke-linecap="round" stroke-linejoin="round" x1="557.333" y1="648.415" x2="556.537" y2="647.131"/>
<line fill="none" stroke="#231F20" stroke-width="0.5" stroke-linecap="round" stroke-linejoin="round" x1="556.09" y1="648.433" x2="555.294" y2="647.147"/>
<line fill="none" stroke="#231F20" stroke-width="0.5" stroke-linecap="round" stroke-linejoin="round" x1="559.821" y1="648.26" x2="559.024" y2="646.976"/>
<line fill="none" stroke="#231F20" stroke-width="0.5" stroke-linecap="round" stroke-linejoin="round" x1="558.578" y1="648.26" x2="557.781" y2="646.976"/>
<line fill="none" stroke="#231F20" stroke-width="0.5" stroke-linecap="round" stroke-linejoin="round" x1="554.847" y1="648.579" x2="554.051" y2="647.294"/>
<line fill="none" x1="577.685" y1="685.441" x2="577.685" y2="642.167"/>
</svg>
