<?xml version="1.0" encoding="utf-8"?>
<!-- Generator: Adobe Illustrator 15.1.0, SVG Export Plug-In . SVG Version: 6.00 Build 0)  -->
<!DOCTYPE svg PUBLIC "-//W3C//DTD SVG 1.0//EN" "http://www.w3.org/TR/2001/REC-SVG-20010904/DTD/svg10.dtd">
<svg version="1.0" id="Layer_1" xmlns="http://www.w3.org/2000/svg" xmlns:xlink="http://www.w3.org/1999/xlink" x="0px" y="0px"
	 width="612px" height="792px" viewBox="0 0 612 792" enable-background="new 0 0 612 792" xml:space="preserve">
<path fill="none" stroke="#434344" stroke-width="0.581" d="M480.06,589.354c0,1.634-1.327,2.96-2.961,2.96
	c-1.635,0-2.961-1.326-2.961-2.96c0-1.636,1.326-2.96,2.961-2.96C478.732,586.395,480.06,587.719,480.06,589.354"/>
<path fill="none" stroke="#434344" stroke-width="0.581" d="M449.991,589.354c0,1.634,1.325,2.96,2.961,2.96
	c1.637,0,2.96-1.326,2.96-2.96c0-1.636-1.323-2.96-2.96-2.96C451.316,586.394,449.991,587.719,449.991,589.354"/>
<path fill="none" stroke="#434344" stroke-width="0.581" d="M498.182,589.354c0,1.634,1.324,2.96,2.961,2.96
	c1.636,0,2.961-1.326,2.961-2.96c0-1.636-1.325-2.96-2.961-2.96C499.507,586.395,498.182,587.719,498.182,589.354"/>
<path fill="none" stroke="#434344" stroke-width="0.581" d="M528.162,589.354c0,1.634-1.325,2.96-2.962,2.96
	c-1.634,0-2.96-1.326-2.96-2.96c0-1.636,1.326-2.96,2.96-2.96C526.837,586.395,528.162,587.719,528.162,589.354"/>
<path fill="none" stroke="#434344" stroke-width="0.581" d="M480.06,619.825c0-1.636-1.327-2.961-2.961-2.961
	c-1.635,0-2.961,1.325-2.961,2.961s1.326,2.961,2.961,2.961C478.732,622.786,480.06,621.461,480.06,619.825"/>
<path fill="none" stroke="#434344" stroke-width="0.581" d="M466.123,619.825c0-1.636,1.325-2.961,2.959-2.961
	c1.636,0,2.962,1.325,2.962,2.961s-1.326,2.961-2.962,2.961C467.448,622.786,466.123,621.461,466.123,619.825"/>
<path fill="none" stroke="#434344" stroke-width="0.581" d="M512.117,619.825c0-1.636-1.324-2.961-2.962-2.961
	c-1.635,0-2.961,1.325-2.961,2.961s1.326,2.961,2.961,2.961C510.793,622.786,512.117,621.461,512.117,619.825"/>
<path fill="none" stroke="#434344" stroke-width="0.581" d="M498.182,619.825c0-1.636,1.324-2.961,2.961-2.961
	c1.636,0,2.961,1.325,2.961,2.961s-1.325,2.961-2.961,2.961C499.507,622.786,498.182,621.461,498.182,619.825"/>
<path fill="none" stroke="#434344" stroke-width="0.581" d="M480.06,557.937c0,1.635-1.327,2.959-2.961,2.959
	c-1.635,0-2.961-1.324-2.961-2.959c0-1.636,1.326-2.959,2.961-2.959C478.732,554.978,480.06,556.301,480.06,557.937"/>
<path fill="none" stroke="#434344" stroke-width="0.581" d="M449.991,557.937c0,1.635,1.325,2.959,2.961,2.959
	c1.637,0,2.96-1.324,2.96-2.959c0-1.636-1.323-2.959-2.96-2.959C451.316,554.978,449.991,556.301,449.991,557.937"/>
<path fill="none" stroke="#434344" stroke-width="0.581" d="M498.182,557.937c0,1.635,1.324,2.959,2.961,2.959
	c1.636,0,2.961-1.324,2.961-2.959c0-1.636-1.325-2.959-2.961-2.959C499.507,554.978,498.182,556.301,498.182,557.937"/>
<path fill="none" stroke="#434344" stroke-width="0.581" d="M528.162,557.937c0,1.635-1.325,2.959-2.962,2.959
	c-1.634,0-2.96-1.324-2.96-2.959c0-1.636,1.326-2.959,2.96-2.959C526.837,554.978,528.162,556.301,528.162,557.937"/>
</svg>
