<?xml version="1.0" encoding="utf-8"?>
<!-- Generator: Adobe Illustrator 15.1.0, SVG Export Plug-In . SVG Version: 6.00 Build 0)  -->
<!DOCTYPE svg PUBLIC "-//W3C//DTD SVG 1.0//EN" "http://www.w3.org/TR/2001/REC-SVG-20010904/DTD/svg10.dtd">
<svg version="1.0" id="Layer_1" xmlns="http://www.w3.org/2000/svg" xmlns:xlink="http://www.w3.org/1999/xlink" x="0px" y="0px"
	 width="612px" height="792px" viewBox="0 0 612 792" enable-background="new 0 0 612 792" xml:space="preserve">
<circle fill="none" stroke="#000000" stroke-width="0.424" cx="568.623" cy="33.961" r="2.402"/>
<circle fill="none" stroke="#000000" stroke-width="0.424" cx="568.623" cy="40.115" r="2.402"/>
<circle fill="none" stroke="#000000" stroke-width="0.424" cx="568.623" cy="46.268" r="2.402"/>
<circle fill="none" stroke="#000000" stroke-width="0.424" cx="568.623" cy="52.422" r="2.402"/>
<circle fill="none" stroke="#000000" stroke-width="0.424" cx="573.957" cy="37.038" r="2.402"/>
<circle fill="none" stroke="#000000" stroke-width="0.424" cx="573.957" cy="43.191" r="2.402"/>
<circle fill="none" stroke="#000000" stroke-width="0.424" cx="573.957" cy="49.346" r="2.402"/>
<circle fill="none" stroke="#000000" stroke-width="0.424" cx="563.29" cy="30.884" r="2.402"/>
<circle fill="none" stroke="#000000" stroke-width="0.424" cx="568.623" cy="58.576" r="2.402"/>
<circle fill="none" stroke="#000000" stroke-width="0.424" cx="579.29" cy="33.961" r="2.402"/>
<circle fill="none" stroke="#000000" stroke-width="0.424" cx="579.29" cy="46.268" r="2.402"/>
<circle fill="none" stroke="#000000" stroke-width="0.424" cx="573.957" cy="61.653" r="2.402"/>
<circle fill="none" stroke="#000000" stroke-width="0.424" cx="573.957" cy="55.5" r="2.402"/>
<circle fill="none" stroke="#000000" stroke-width="0.424" cx="563.29" cy="43.191" r="2.402"/>
<circle fill="none" stroke="#000000" stroke-width="0.424" cx="563.29" cy="37.038" r="2.402"/>
<circle fill="none" stroke="#000000" stroke-width="0.424" cx="568.623" cy="64.73" r="2.402"/>
<circle fill="none" stroke="#000000" stroke-width="0.424" cx="579.29" cy="40.115" r="2.402"/>
<circle fill="none" stroke="#000000" stroke-width="0.424" cx="579.29" cy="52.422" r="2.402"/>
<circle fill="none" stroke="#000000" stroke-width="0.424" cx="579.29" cy="58.576" r="2.402"/>
<circle fill="none" stroke="#000000" stroke-width="0.424" cx="573.957" cy="30.884" r="2.402"/>
<circle fill="none" stroke="#000000" stroke-width="0.424" cx="563.29" cy="49.346" r="2.402"/>
<circle fill="none" stroke="#000000" stroke-width="0.424" cx="563.29" cy="55.5" r="2.402"/>
<circle fill="none" stroke="#000000" stroke-width="0.424" cx="563.29" cy="61.653" r="2.402"/>
<rect x="578.82" y="117.814" transform="matrix(0.7073 -0.7069 0.7069 0.7073 85.3279 445.6227)" fill="none" stroke="#000000" stroke-width="0.5" width="3.918" height="3.917"/>
<rect x="576.987" y="97.972" transform="matrix(0.7072 -0.707 0.707 0.7072 98.8779 438.6036)" fill="none" stroke="#000000" stroke-width="0.5" width="3.918" height="3.918"/>
<rect x="578.21" y="111.2" transform="matrix(0.7072 -0.707 0.707 0.7072 89.8828 443.3418)" fill="none" stroke="#000000" stroke-width="0.5" width="3.918" height="3.918"/>
<rect x="577.598" y="104.587" transform="matrix(0.7073 -0.7069 0.7069 0.7073 94.3211 440.8873)" fill="none" stroke="#000000" stroke-width="0.5" width="3.918" height="3.917"/>
<rect x="576.376" y="91.358" transform="matrix(0.7072 -0.707 0.707 0.7072 103.3755 436.2345)" fill="none" stroke="#000000" stroke-width="0.5" width="3.918" height="3.918"/>
</svg>
