<?xml version="1.0" encoding="utf-8"?>
<!-- Generator: Adobe Illustrator 15.1.0, SVG Export Plug-In . SVG Version: 6.00 Build 0)  -->
<!DOCTYPE svg PUBLIC "-//W3C//DTD SVG 1.0//EN" "http://www.w3.org/TR/2001/REC-SVG-20010904/DTD/svg10.dtd">
<svg version="1.0" id="Layer_1" xmlns="http://www.w3.org/2000/svg" xmlns:xlink="http://www.w3.org/1999/xlink" x="0px" y="0px"
	 width="612px" height="792px" viewBox="0 0 612 792" enable-background="new 0 0 612 792" xml:space="preserve">
<path fill="#231F20" d="M47.221,768.367c-0.017,0.296-0.269,0.491-0.54,0.491c-0.47,0-0.741-0.486-0.741-0.929
	c0-0.456,0.241-0.896,0.722-0.896c0.282,0,0.512,0.169,0.559,0.45h0.5c-0.089-0.511-0.512-0.814-1.053-0.814
	c-0.739,0-1.184,0.54-1.184,1.271c0,0.72,0.467,1.282,1.197,1.282c0.523,0,0.982-0.317,1.041-0.855H47.221 M46.587,769.679
	c-0.966,0-1.741-0.768-1.741-1.72c0-0.985,0.775-1.78,1.741-1.78c0.993,0,1.815,0.795,1.815,1.78
	C48.402,768.911,47.581,769.679,46.587,769.679 M46.587,770.135c1.252,0,2.271-0.971,2.271-2.176c0-1.22-1.019-2.201-2.271-2.201
	c-1.217,0-2.197,0.981-2.197,2.201C44.39,769.164,45.371,770.135,46.587,770.135"/>
<polyline fill="#231F20" points="71.561,766.476 72.842,766.476 72.842,765.758 69.461,765.758 69.461,766.476 70.742,766.476 
	70.742,770.135 71.561,770.135 71.561,766.476 "/>
<path fill="#231F20" d="M73.984,765.758h-0.728v4.377h0.728v-1.688c0-0.549,0.085-0.852,0.714-0.852c0.463,0,0.56,0.152,0.56,0.596
	v1.944h0.728v-2.021c0-0.746-0.242-1.08-1.036-1.08c-0.422,0-0.782,0.047-0.943,0.496h-0.023V765.758"/>
<path fill="#231F20" d="M77.382,768.312c0-0.574,0.042-0.717,0.674-0.717c0.599,0,0.691,0.05,0.691,0.717H77.382 M78.747,769.163
	c0,0.425-0.285,0.425-0.691,0.425c-0.657,0-0.674-0.198-0.674-0.821h2.093c0-1.358-0.168-1.732-1.419-1.732
	c-1.229,0-1.402,0.489-1.402,1.607c0,1.136,0.238,1.493,1.402,1.493c0.869,0,1.419-0.046,1.419-0.972H78.747"/>
<polyline fill="#231F20" points="83.855,766.476 85.136,766.476 85.136,765.758 81.755,765.758 81.755,766.476 83.036,766.476 
	83.036,770.135 83.855,770.135 83.855,766.476 "/>
<path fill="#231F20" d="M86.375,767.595c0.631,0,0.683,0.185,0.683,1.006c0,0.808-0.051,0.987-0.683,0.987s-0.683-0.18-0.683-0.987
	C85.692,767.779,85.744,767.595,86.375,767.595 M86.375,767.034c-1.251,0-1.411,0.378-1.411,1.561c0,1.167,0.159,1.54,1.411,1.54
	c1.251,0,1.41-0.373,1.41-1.54C87.785,767.412,87.626,767.034,86.375,767.034"/>
<path fill="#231F20" d="M89.179,767.034h-0.728v4.468h0.728v-1.801h0.028c0.155,0.365,0.539,0.434,0.906,0.434
	c1.038,0,1.159-0.57,1.159-1.455c0-0.93,0-1.646-1.159-1.646c-0.421,0-0.752,0.093-0.934,0.492V767.034 M89.901,769.588
	c-0.625,0-0.722-0.26-0.722-0.908c0-0.722,0-1.085,0.722-1.085c0.643,0,0.643,0.398,0.643,1.085
	C90.544,769.443,90.4,769.588,89.901,769.588"/>
<path fill="#231F20" d="M92.656,767.034h-0.728v4.468h0.728v-1.801h0.028c0.155,0.365,0.539,0.434,0.906,0.434
	c1.038,0,1.159-0.57,1.159-1.455c0-0.93,0-1.646-1.159-1.646c-0.421,0-0.752,0.093-0.934,0.492V767.034 M93.378,769.588
	c-0.624,0-0.722-0.26-0.722-0.908c0-0.722,0-1.085,0.722-1.085c0.643,0,0.643,0.398,0.643,1.085
	C94.021,769.443,93.877,769.588,93.378,769.588"/>
<path fill="#231F20" d="M97.953,767.891c0-0.856-0.714-0.856-1.288-0.856c-0.75,0-1.351,0-1.351,0.845
	c0,0.754,0.198,0.899,1.288,0.917c0.697,0.011,0.714,0.141,0.714,0.398c0,0.394-0.243,0.394-0.66,0.394
	c-0.515,0-0.614-0.05-0.614-0.478h-0.728c0,1.024,0.542,1.024,1.348,1.024c0.75,0,1.382-0.084,1.382-0.94
	c0-0.957-0.633-0.904-1.318-0.938c-0.607-0.029-0.684-0.04-0.684-0.332c0-0.388,0.256-0.388,0.627-0.388
	c0.373,0,0.556,0,0.556,0.354H97.953"/>
<path fill="#231F20" d="M104.168,767.242v-0.234c-0.06-1.25-0.705-1.25-1.792-1.25c-1.3,0-1.847,0.313-1.847,1.697v0.982
	c0,1.256,0.279,1.756,1.847,1.697c1.082-0.006,1.792,0,1.792-1.295v-0.281h-0.819v0.234c0,0.612-0.267,0.612-0.974,0.612
	c-0.919,0-1.028-0.162-1.028-1.002v-0.948c0-0.842,0.151-0.979,1.028-0.979c0.766,0,0.974,0.035,0.974,0.532v0.234H104.168"/>
<path fill="#231F20" d="M106.089,767.595c0.631,0,0.682,0.185,0.682,1.006c0,0.808-0.051,0.987-0.682,0.987
	c-0.631,0-0.683-0.18-0.683-0.987C105.407,767.779,105.458,767.595,106.089,767.595 M106.089,767.034
	c-1.251,0-1.411,0.378-1.411,1.561c0,1.167,0.159,1.54,1.411,1.54c1.251,0,1.41-0.373,1.41-1.54
	C107.5,767.412,107.34,767.034,106.089,767.034"/>
<path fill="#231F20" d="M108.165,767.034v3.101h0.728v-1.729c0-0.542,0.124-0.812,0.751-0.812c0.425,0,0.523,0.152,0.523,0.537
	v2.003h0.728v-1.729c0-0.542,0.114-0.812,0.697-0.812c0.395,0,0.486,0.152,0.486,0.537v2.003h0.728v-2.073
	c0-0.752-0.254-1.027-1.025-1.027c-0.401,0-0.812,0.117-0.95,0.542h-0.023c-0.081-0.443-0.519-0.542-0.9-0.542
	c-0.406,0-0.843,0.087-1.015,0.474v-0.474H108.165"/>
<path fill="#231F20" d="M114.286,767.034h-0.728v4.468h0.728v-1.801h0.029c0.155,0.365,0.539,0.434,0.905,0.434
	c1.038,0,1.159-0.57,1.159-1.455c0-0.93,0-1.646-1.159-1.646c-0.421,0-0.752,0.093-0.934,0.492V767.034 M115.008,769.588
	c-0.625,0-0.723-0.26-0.723-0.908c0-0.722,0-1.085,0.723-1.085c0.643,0,0.643,0.398,0.643,1.085
	C115.651,769.443,115.507,769.588,115.008,769.588"/>
<path fill="#231F20" d="M119.037,770.135h0.728v-1.921c0-1.026-0.414-1.18-1.405-1.18c-0.694,0-1.325,0-1.325,0.908h0.728
	c0-0.378,0.266-0.406,0.597-0.406c0.634,0,0.677,0.167,0.677,0.64v0.425h-0.024c-0.181-0.381-0.562-0.381-0.948-0.381
	c-0.744,0-1.121,0.204-1.121,0.937c0,0.832,0.441,0.979,1.121,0.979c0.368,0,0.825,0,0.973-0.451V770.135 M118.335,768.767
	c0.375,0,0.701,0,0.701,0.39c0,0.4-0.296,0.432-0.701,0.432c-0.491,0-0.664-0.037-0.664-0.432
	C117.671,768.767,117.95,768.767,118.335,768.767"/>
<path fill="#231F20" d="M120.471,767.034v3.101h0.728v-1.688c0-0.549,0.085-0.852,0.714-0.852c0.463,0,0.56,0.152,0.56,0.596v1.944
	h0.728v-2.021c0-0.746-0.242-1.08-1.036-1.08c-0.422,0-0.782,0.046-0.943,0.492h-0.023v-0.492H120.471"/>
<path fill="#231F20" d="M126.507,767.034h-0.754l-0.6,2.641h-0.012l-0.782-2.641h-0.765l1.018,3.101h0.358
	c-0.065,0.364-0.135,0.82-0.6,0.82c-0.053,0-0.106-0.013-0.159-0.019v0.565c0.106,0,0.212,0,0.319,0
	c0.864,0,1.005-0.548,1.175-1.249L126.507,767.034"/>
<path fill="#231F20" d="M126.564,770.864h0.148c0.639,0,0.639-0.353,0.639-0.829v-0.688h-0.728v0.788h0.298
	c0,0.305-0.137,0.364-0.357,0.364V770.864"/>
<rect x="130.552" y="765.758" fill="#231F20" width="0.819" height="4.377"/>
<path fill="#231F20" d="M132.165,767.034v3.101h0.728v-1.688c0-0.549,0.085-0.852,0.714-0.852c0.463,0,0.56,0.152,0.56,0.596v1.944
	h0.728v-2.021c0-0.746-0.242-1.08-1.036-1.08c-0.422,0-0.782,0.046-0.943,0.492h-0.023v-0.492H132.165"/>
<path fill="#231F20" d="M137.564,768.952c0,0.531-0.058,0.636-0.651,0.636c-0.623,0-0.623-0.236-0.623-0.994
	c0-0.78,0-0.999,0.623-0.999c0.507,0,0.651,0.081,0.651,0.543h0.728c0-0.964-0.479-1.104-1.379-1.104
	c-1.185,0-1.351,0.493-1.351,1.561c0,1.218,0.242,1.54,1.351,1.54c1.021,0,1.379-0.195,1.379-1.183H137.564"/>
<rect x="139.05" y="769.336" fill="#231F20" width="0.728" height="0.799"/>
<path fill="#231F20" d="M146.438,767.242v-0.234c-0.06-1.25-0.706-1.25-1.793-1.25c-1.3,0-1.847,0.313-1.847,1.697v0.982
	c0,1.256,0.279,1.756,1.847,1.697c1.082-0.006,1.793,0,1.793-1.295v-0.281h-0.819v0.234c0,0.612-0.267,0.612-0.974,0.612
	c-0.919,0-1.028-0.162-1.028-1.002v-0.948c0-0.842,0.151-0.979,1.028-0.979c0.766,0,0.974,0.035,0.974,0.532v0.234H146.438"/>
<rect x="147.04" y="765.758" fill="#231F20" width="0.728" height="4.377"/>
<path fill="#231F20" d="M150.509,770.135h0.728v-1.921c0-1.026-0.414-1.18-1.405-1.18c-0.694,0-1.325,0-1.325,0.908h0.728
	c0-0.378,0.266-0.406,0.597-0.406c0.634,0,0.677,0.167,0.677,0.64v0.425h-0.024c-0.181-0.381-0.562-0.381-0.949-0.381
	c-0.744,0-1.12,0.204-1.12,0.937c0,0.832,0.441,0.979,1.12,0.979c0.369,0,0.825,0,0.973-0.451V770.135 M149.808,768.767
	c0.375,0,0.701,0,0.701,0.39c0,0.4-0.296,0.432-0.701,0.432c-0.491,0-0.664-0.037-0.664-0.432
	C149.144,768.767,149.422,768.767,149.808,768.767"/>
<path fill="#231F20" d="M154.491,767.891c0-0.856-0.714-0.856-1.288-0.856c-0.75,0-1.351,0-1.351,0.845
	c0,0.754,0.198,0.899,1.288,0.917c0.697,0.011,0.714,0.141,0.714,0.398c0,0.394-0.244,0.394-0.66,0.394
	c-0.515,0-0.614-0.05-0.614-0.478h-0.728c0,1.024,0.542,1.024,1.348,1.024c0.751,0,1.382-0.084,1.382-0.94
	c0-0.957-0.632-0.904-1.318-0.938c-0.607-0.029-0.684-0.04-0.684-0.332c0-0.388,0.256-0.388,0.627-0.388
	c0.373,0,0.556,0,0.556,0.354H154.491"/>
<path fill="#231F20" d="M157.741,767.891c0-0.856-0.714-0.856-1.288-0.856c-0.75,0-1.351,0-1.351,0.845
	c0,0.754,0.198,0.899,1.288,0.917c0.697,0.011,0.714,0.141,0.714,0.398c0,0.394-0.243,0.394-0.66,0.394
	c-0.515,0-0.614-0.05-0.614-0.478h-0.728c0,1.024,0.542,1.024,1.348,1.024c0.75,0,1.382-0.084,1.382-0.94
	c0-0.957-0.633-0.904-1.318-0.938c-0.607-0.029-0.684-0.04-0.684-0.332c0-0.388,0.256-0.388,0.627-0.388
	c0.373,0,0.556,0,0.556,0.354H157.741"/>
<path fill="#231F20" d="M159.17,765.758h-0.728v0.624h0.728V765.758 M159.17,767.034h-0.728v3.101h0.728V767.034"/>
<path fill="#231F20" d="M161.728,768.952c0,0.531-0.059,0.636-0.651,0.636c-0.623,0-0.623-0.236-0.623-0.994
	c0-0.78,0-0.999,0.623-0.999c0.508,0,0.651,0.081,0.651,0.543h0.728c0-0.964-0.479-1.104-1.379-1.104
	c-1.185,0-1.351,0.493-1.351,1.561c0,1.218,0.242,1.54,1.351,1.54c1.021,0,1.379-0.195,1.379-1.183H161.728"/>
<path fill="#231F20" d="M165.907,766.476h1.207c0.422,0,0.613,0.035,0.613,0.498s-0.107,0.608-0.589,0.608h-1.231V766.476
	 M167.345,770.135c0.903,0,1.291-0.252,1.291-1.223c0-0.557-0.114-0.961-0.709-1.031v-0.024c0.526-0.128,0.619-0.464,0.619-0.963
	c0-0.96-0.428-1.136-1.277-1.136h-2.181v4.377H167.345 M165.907,768.22h1.313c0.494,0,0.597,0.142,0.597,0.621
	c0,0.54-0.239,0.576-0.739,0.576h-1.171V768.22"/>
<path fill="#231F20" d="M171.266,770.135h0.728v-1.921c0-1.026-0.414-1.18-1.405-1.18c-0.694,0-1.325,0-1.325,0.908h0.728
	c0-0.378,0.266-0.406,0.597-0.406c0.634,0,0.677,0.167,0.677,0.64v0.425h-0.024c-0.18-0.381-0.562-0.381-0.948-0.381
	c-0.744,0-1.12,0.204-1.12,0.937c0,0.832,0.44,0.979,1.12,0.979c0.368,0,0.825,0,0.973-0.451V770.135 M170.564,768.767
	c0.375,0,0.701,0,0.701,0.39c0,0.4-0.296,0.432-0.701,0.432c-0.491,0-0.664-0.037-0.664-0.432
	C169.9,768.767,170.179,768.767,170.564,768.767"/>
<path fill="#231F20" d="M172.315,767.582h0.384v1.597c0,0.771,0.247,0.956,1.061,0.956c0.798,0,1.032-0.279,1.032-1.204h-0.637
	c0,0.325,0.046,0.657-0.395,0.657c-0.333,0-0.333-0.13-0.333-0.415v-1.591h1.21v-0.548h-1.21v-0.708H172.7v0.708h-0.384V767.582"/>
<path fill="#231F20" d="M174.797,767.582h0.384v1.597c0,0.771,0.247,0.956,1.061,0.956c0.797,0,1.032-0.279,1.032-1.204h-0.637
	c0,0.325,0.045,0.657-0.395,0.657c-0.333,0-0.333-0.13-0.333-0.415v-1.591h1.21v-0.548h-1.21v-0.708h-0.728v0.708h-0.384V767.582"/>
<rect x="177.662" y="765.758" fill="#231F20" width="0.728" height="4.377"/>
<path fill="#231F20" d="M179.767,768.312c0-0.574,0.041-0.717,0.674-0.717c0.599,0,0.691,0.05,0.691,0.717H179.767 M181.131,769.163
	c0,0.425-0.284,0.425-0.691,0.425c-0.657,0-0.674-0.198-0.674-0.821h2.093c0-1.358-0.168-1.732-1.419-1.732
	c-1.229,0-1.402,0.489-1.402,1.607c0,1.136,0.237,1.493,1.402,1.493c0.869,0,1.419-0.046,1.419-0.972H181.131"/>
<polyline fill="#231F20" points="184.184,766.476 185.465,766.476 185.465,765.758 182.083,765.758 182.083,766.476 
	183.365,766.476 183.365,770.135 184.184,770.135 184.184,766.476 "/>
<path fill="#231F20" d="M186.021,768.312c0-0.574,0.041-0.717,0.674-0.717c0.599,0,0.691,0.05,0.691,0.717H186.021 M187.386,769.163
	c0,0.425-0.284,0.425-0.691,0.425c-0.657,0-0.674-0.198-0.674-0.821h2.093c0-1.358-0.168-1.732-1.419-1.732
	c-1.229,0-1.402,0.489-1.402,1.607c0,1.136,0.237,1.493,1.402,1.493c0.869,0,1.419-0.046,1.419-0.972H187.386"/>
<path fill="#231F20" d="M190.621,768.952c0,0.531-0.058,0.636-0.651,0.636c-0.623,0-0.623-0.236-0.623-0.994
	c0-0.78,0-0.999,0.623-0.999c0.507,0,0.651,0.081,0.651,0.543h0.728c0-0.964-0.479-1.104-1.379-1.104
	c-1.185,0-1.351,0.493-1.351,1.561c0,1.218,0.242,1.54,1.351,1.54c1.021,0,1.379-0.195,1.379-1.183H190.621"/>
<path fill="#231F20" d="M192.652,765.758h-0.728v4.377h0.728v-1.688c0-0.549,0.085-0.852,0.714-0.852c0.463,0,0.56,0.152,0.56,0.596
	v1.944h0.728v-2.021c0-0.746-0.242-1.08-1.037-1.08c-0.422,0-0.782,0.047-0.942,0.496h-0.023V765.758"/>
<path fill="#231F20" d="M195.537,770.864h0.148c0.638,0,0.638-0.353,0.638-0.829v-0.688h-0.728v0.788h0.299
	c0,0.305-0.137,0.364-0.357,0.364V770.864"/>
<path fill="#231F20" d="M200.343,766.476h1.207c0.422,0,0.613,0.035,0.613,0.498s-0.106,0.608-0.588,0.608h-1.231V766.476
	 M201.782,770.135c0.903,0,1.291-0.252,1.291-1.223c0-0.557-0.114-0.961-0.709-1.031v-0.024c0.526-0.128,0.619-0.464,0.619-0.963
	c0-0.96-0.428-1.136-1.277-1.136h-2.181v4.377H201.782 M200.343,768.22h1.314c0.493,0,0.597,0.142,0.597,0.621
	c0,0.54-0.239,0.576-0.74,0.576h-1.171V768.22"/>
<path fill="#231F20" d="M205.702,770.135h0.728v-1.921c0-1.026-0.414-1.18-1.405-1.18c-0.694,0-1.325,0-1.325,0.908h0.728
	c0-0.378,0.266-0.406,0.597-0.406c0.634,0,0.677,0.167,0.677,0.64v0.425h-0.024c-0.181-0.381-0.562-0.381-0.948-0.381
	c-0.744,0-1.121,0.204-1.121,0.937c0,0.832,0.441,0.979,1.121,0.979c0.368,0,0.825,0,0.973-0.451V770.135 M205.001,768.767
	c0.375,0,0.701,0,0.701,0.39c0,0.4-0.296,0.432-0.701,0.432c-0.491,0-0.664-0.037-0.664-0.432
	C204.337,768.767,204.616,768.767,205.001,768.767"/>
<path fill="#231F20" d="M206.752,767.582h0.384v1.597c0,0.771,0.247,0.956,1.061,0.956c0.798,0,1.032-0.279,1.032-1.204h-0.637
	c0,0.325,0.046,0.657-0.395,0.657c-0.333,0-0.333-0.13-0.333-0.415v-1.591h1.21v-0.548h-1.21v-0.708h-0.728v0.708h-0.384V767.582"/>
<path fill="#231F20" d="M209.233,767.582h0.384v1.597c0,0.771,0.247,0.956,1.061,0.956c0.798,0,1.032-0.279,1.032-1.204h-0.637
	c0,0.325,0.045,0.657-0.396,0.657c-0.333,0-0.333-0.13-0.333-0.415v-1.591h1.21v-0.548h-1.21v-0.708h-0.728v0.708h-0.384V767.582"/>
<rect x="212.098" y="765.758" fill="#231F20" width="0.728" height="4.377"/>
<path fill="#231F20" d="M214.203,768.312c0-0.574,0.042-0.717,0.674-0.717c0.599,0,0.691,0.05,0.691,0.717H214.203 M215.568,769.163
	c0,0.425-0.285,0.425-0.691,0.425c-0.657,0-0.674-0.198-0.674-0.821h2.093c0-1.358-0.168-1.732-1.419-1.732
	c-1.229,0-1.402,0.489-1.402,1.607c0,1.136,0.238,1.493,1.402,1.493c0.869,0,1.419-0.046,1.419-0.972H215.568"/>
<polyline fill="#231F20" points="218.62,766.476 219.901,766.476 219.901,765.758 216.52,765.758 216.52,766.476 217.801,766.476 
	217.801,770.135 218.62,770.135 218.62,766.476 "/>
<path fill="#231F20" d="M220.458,768.312c0-0.574,0.041-0.717,0.674-0.717c0.599,0,0.691,0.05,0.691,0.717H220.458 M221.822,769.163
	c0,0.425-0.284,0.425-0.691,0.425c-0.657,0-0.674-0.198-0.674-0.821h2.093c0-1.358-0.168-1.732-1.419-1.732
	c-1.229,0-1.402,0.489-1.402,1.607c0,1.136,0.237,1.493,1.402,1.493c0.869,0,1.419-0.046,1.419-0.972H221.822"/>
<path fill="#231F20" d="M225.057,768.952c0,0.531-0.058,0.636-0.651,0.636c-0.623,0-0.623-0.236-0.623-0.994
	c0-0.78,0-0.999,0.623-0.999c0.507,0,0.651,0.081,0.651,0.543h0.728c0-0.964-0.479-1.104-1.379-1.104
	c-1.185,0-1.351,0.493-1.351,1.561c0,1.218,0.242,1.54,1.351,1.54c1.021,0,1.379-0.195,1.379-1.183H225.057"/>
<path fill="#231F20" d="M227.089,765.758h-0.728v4.377h0.728v-1.688c0-0.549,0.085-0.852,0.714-0.852c0.463,0,0.56,0.152,0.56,0.596
	v1.944h0.728v-2.021c0-0.746-0.242-1.08-1.037-1.08c-0.422,0-0.782,0.047-0.942,0.496h-0.023V765.758"/>
<path fill="#231F20" d="M229.973,770.864h0.148c0.638,0,0.638-0.353,0.638-0.829v-0.688h-0.728v0.788h0.299
	c0,0.305-0.137,0.364-0.357,0.364V770.864"/>
<path fill="#231F20" d="M233.902,767.308h0.148c0.638,0,0.638-0.352,0.638-0.861v-0.688h-0.728v0.788h0.298
	c0,0.332-0.137,0.397-0.357,0.397V767.308"/>
<polyline fill="#231F20" points="239.589,766.446 239.589,770.135 240.408,770.135 240.408,765.758 239.047,765.758 237.869,769.01 
	237.846,769.01 236.643,765.758 235.312,765.758 235.312,770.135 236.131,770.135 236.131,766.465 237.48,770.135 238.24,770.135 
	239.589,766.446 "/>
<path fill="#231F20" d="M241.825,768.312c0-0.574,0.042-0.717,0.674-0.717c0.599,0,0.691,0.05,0.691,0.717H241.825 M243.19,769.163
	c0,0.425-0.285,0.425-0.691,0.425c-0.657,0-0.674-0.198-0.674-0.821h2.093c0-1.358-0.168-1.732-1.419-1.732
	c-1.229,0-1.402,0.489-1.402,1.607c0,1.136,0.238,1.493,1.402,1.493c0.869,0,1.419-0.046,1.419-0.972H243.19"/>
<path fill="#231F20" d="M246.425,768.952c0,0.531-0.059,0.636-0.651,0.636c-0.623,0-0.623-0.236-0.623-0.994
	c0-0.78,0-0.999,0.623-0.999c0.508,0,0.651,0.081,0.651,0.543h0.728c0-0.964-0.479-1.104-1.379-1.104
	c-1.185,0-1.351,0.493-1.351,1.561c0,1.218,0.242,1.54,1.351,1.54c1.021,0,1.379-0.195,1.379-1.183H246.425"/>
<path fill="#231F20" d="M248.457,765.758h-0.728v4.377h0.728v-1.688c0-0.549,0.085-0.852,0.714-0.852c0.463,0,0.56,0.152,0.56,0.596
	v1.944h0.728v-2.021c0-0.746-0.242-1.08-1.037-1.08c-0.422,0-0.782,0.047-0.943,0.496h-0.022V765.758"/>
<path fill="#231F20" d="M255.275,770.135h0.728v-1.921c0-1.026-0.414-1.18-1.404-1.18c-0.694,0-1.325,0-1.325,0.908h0.728
	c0-0.378,0.266-0.406,0.598-0.406c0.634,0,0.677,0.167,0.677,0.64v0.425h-0.024c-0.181-0.381-0.562-0.381-0.948-0.381
	c-0.744,0-1.121,0.204-1.121,0.937c0,0.832,0.441,0.979,1.121,0.979c0.368,0,0.825,0,0.973-0.451V770.135 M254.574,768.767
	c0.375,0,0.701,0,0.701,0.39c0,0.4-0.296,0.432-0.701,0.432c-0.491,0-0.664-0.037-0.664-0.432
	C253.91,768.767,254.189,768.767,254.574,768.767"/>
<path fill="#231F20" d="M256.709,767.034v3.101h0.728v-1.688c0-0.549,0.085-0.852,0.714-0.852c0.463,0,0.56,0.152,0.56,0.596v1.944
	h0.728v-2.021c0-0.746-0.242-1.08-1.036-1.08c-0.422,0-0.782,0.046-0.943,0.492h-0.023v-0.492H256.709"/>
<path fill="#231F20" d="M262.2,770.135h0.728v-4.377H262.2v1.72h-0.017c-0.156-0.373-0.545-0.443-0.915-0.443
	c-1.041,0-1.162,0.574-1.162,1.468c0,0.931,0,1.633,1.162,1.633c0.421,0,0.75-0.09,0.932-0.48V770.135 M261.483,767.595
	c0.63,0,0.717,0.259,0.717,0.907c0,0.723,0,1.086-0.717,1.086c-0.648,0-0.648-0.399-0.648-1.086
	C260.834,767.738,260.979,767.595,261.483,767.595"/>
<path fill="#231F20" d="M266.532,766.476h1.207c0.422,0,0.613,0.035,0.613,0.498s-0.107,0.608-0.589,0.608h-1.231V766.476
	 M267.971,770.135c0.903,0,1.291-0.252,1.291-1.223c0-0.557-0.114-0.961-0.709-1.031v-0.024c0.526-0.128,0.619-0.464,0.619-0.963
	c0-0.96-0.428-1.136-1.277-1.136h-2.181v4.377H267.971 M266.532,768.22h1.314c0.493,0,0.597,0.142,0.597,0.621
	c0,0.54-0.239,0.576-0.739,0.576h-1.172V768.22"/>
<path fill="#231F20" d="M271.891,770.135h0.728v-1.921c0-1.026-0.414-1.18-1.405-1.18c-0.694,0-1.325,0-1.325,0.908h0.728
	c0-0.378,0.266-0.406,0.597-0.406c0.634,0,0.677,0.167,0.677,0.64v0.425h-0.024c-0.181-0.381-0.562-0.381-0.948-0.381
	c-0.744,0-1.121,0.204-1.121,0.937c0,0.832,0.441,0.979,1.121,0.979c0.368,0,0.825,0,0.973-0.451V770.135 M271.189,768.767
	c0.375,0,0.701,0,0.701,0.39c0,0.4-0.296,0.432-0.701,0.432c-0.491,0-0.664-0.037-0.664-0.432
	C270.525,768.767,270.804,768.767,271.189,768.767"/>
<path fill="#231F20" d="M272.94,767.582h0.384v1.597c0,0.771,0.248,0.956,1.061,0.956c0.798,0,1.032-0.279,1.032-1.204h-0.637
	c0,0.325,0.046,0.657-0.395,0.657c-0.333,0-0.333-0.13-0.333-0.415v-1.591h1.21v-0.548h-1.21v-0.708h-0.728v0.708h-0.384V767.582"/>
<path fill="#231F20" d="M275.421,767.582h0.384v1.597c0,0.771,0.247,0.956,1.061,0.956c0.798,0,1.032-0.279,1.032-1.204h-0.637
	c0,0.325,0.045,0.657-0.396,0.657c-0.333,0-0.333-0.13-0.333-0.415v-1.591h1.21v-0.548h-1.21v-0.708h-0.728v0.708h-0.384V767.582"/>
<rect x="278.287" y="765.758" fill="#231F20" width="0.728" height="4.377"/>
<path fill="#231F20" d="M280.391,768.312c0-0.574,0.042-0.717,0.674-0.717c0.599,0,0.691,0.05,0.691,0.717H280.391 M281.756,769.163
	c0,0.425-0.285,0.425-0.691,0.425c-0.657,0-0.674-0.198-0.674-0.821h2.093c0-1.358-0.168-1.732-1.419-1.732
	c-1.229,0-1.402,0.489-1.402,1.607c0,1.136,0.238,1.493,1.402,1.493c0.869,0,1.419-0.046,1.419-0.972H281.756"/>
<polyline fill="#231F20" points="287.356,766.446 287.356,770.135 288.176,770.135 288.176,765.758 286.815,765.758 285.636,769.01 
	285.613,769.01 284.411,765.758 283.08,765.758 283.08,770.135 283.898,770.135 283.898,766.465 285.248,770.135 286.007,770.135 
	287.356,766.446 "/>
<path fill="#231F20" d="M289.593,768.312c0-0.574,0.042-0.717,0.674-0.717c0.599,0,0.691,0.05,0.691,0.717H289.593 M290.958,769.163
	c0,0.425-0.285,0.425-0.691,0.425c-0.657,0-0.674-0.198-0.674-0.821h2.093c0-1.358-0.168-1.732-1.419-1.732
	c-1.229,0-1.402,0.489-1.402,1.607c0,1.136,0.238,1.493,1.402,1.493c0.869,0,1.419-0.046,1.419-0.972H290.958"/>
<path fill="#231F20" d="M294.193,768.952c0,0.531-0.059,0.636-0.651,0.636c-0.623,0-0.623-0.236-0.623-0.994
	c0-0.78,0-0.999,0.623-0.999c0.508,0,0.651,0.081,0.651,0.543h0.728c0-0.964-0.479-1.104-1.379-1.104
	c-1.185,0-1.351,0.493-1.351,1.561c0,1.218,0.242,1.54,1.351,1.54c1.021,0,1.379-0.195,1.379-1.183H294.193"/>
<path fill="#231F20" d="M296.225,765.758h-0.728v4.377h0.728v-1.688c0-0.549,0.085-0.852,0.714-0.852c0.463,0,0.56,0.152,0.56,0.596
	v1.944h0.728v-2.021c0-0.746-0.242-1.08-1.037-1.08c-0.422,0-0.782,0.047-0.943,0.496h-0.022V765.758"/>
<path fill="#231F20" d="M303.043,770.135h0.728v-1.921c0-1.026-0.414-1.18-1.405-1.18c-0.694,0-1.325,0-1.325,0.908h0.728
	c0-0.378,0.266-0.406,0.597-0.406c0.634,0,0.677,0.167,0.677,0.64v0.425h-0.024c-0.181-0.381-0.562-0.381-0.948-0.381
	c-0.744,0-1.121,0.204-1.121,0.937c0,0.832,0.441,0.979,1.121,0.979c0.368,0,0.825,0,0.973-0.451V770.135 M302.342,768.767
	c0.375,0,0.701,0,0.701,0.39c0,0.4-0.296,0.432-0.701,0.432c-0.491,0-0.664-0.037-0.664-0.432
	C301.678,768.767,301.957,768.767,302.342,768.767"/>
<path fill="#231F20" d="M304.386,767.034v3.101h0.728v-1.892c0-0.398,0.135-0.648,0.599-0.648c0.372,0,0.402,0.181,0.402,0.49v0.158
	h0.729v-0.245c0-0.579-0.168-0.964-0.854-0.964c-0.381,0-0.718,0.098-0.875,0.429v-0.429H304.386"/>
<path fill="#231F20" d="M307.909,768.312c0-0.574,0.041-0.717,0.674-0.717c0.599,0,0.691,0.05,0.691,0.717H307.909 M309.274,769.163
	c0,0.425-0.284,0.425-0.691,0.425c-0.656,0-0.674-0.198-0.674-0.821h2.093c0-1.358-0.168-1.732-1.419-1.732
	c-1.229,0-1.401,0.489-1.401,1.607c0,1.136,0.237,1.493,1.401,1.493c0.869,0,1.419-0.046,1.419-0.972H309.274"/>
<path fill="#231F20" d="M312.27,767.582h0.384v1.597c0,0.771,0.247,0.956,1.062,0.956c0.797,0,1.031-0.279,1.031-1.204h-0.637
	c0,0.325,0.046,0.657-0.395,0.657c-0.333,0-0.333-0.13-0.333-0.415v-1.591h1.21v-0.548h-1.21v-0.708h-0.729v0.708h-0.384V767.582"/>
<path fill="#231F20" d="M315.044,767.034v3.101h0.728v-1.892c0-0.398,0.136-0.648,0.599-0.648c0.371,0,0.402,0.181,0.402,0.49v0.158
	h0.729v-0.245c0-0.579-0.168-0.964-0.854-0.964c-0.382,0-0.719,0.098-0.875,0.429v-0.429H315.044"/>
<path fill="#231F20" d="M319.886,770.135h0.728v-1.921c0-1.026-0.414-1.18-1.404-1.18c-0.694,0-1.325,0-1.325,0.908h0.728
	c0-0.378,0.266-0.406,0.598-0.406c0.634,0,0.677,0.167,0.677,0.64v0.425h-0.024c-0.181-0.381-0.562-0.381-0.948-0.381
	c-0.744,0-1.121,0.204-1.121,0.937c0,0.832,0.441,0.979,1.121,0.979c0.368,0,0.824,0,0.973-0.451V770.135 M319.185,768.767
	c0.375,0,0.701,0,0.701,0.39c0,0.4-0.296,0.432-0.701,0.432c-0.491,0-0.664-0.037-0.664-0.432
	C318.521,768.767,318.799,768.767,319.185,768.767"/>
<path fill="#231F20" d="M323.321,770.135h0.728v-4.377h-0.728v1.72h-0.017c-0.156-0.373-0.545-0.443-0.915-0.443
	c-1.04,0-1.161,0.574-1.161,1.468c0,0.931,0,1.633,1.161,1.633c0.421,0,0.75-0.09,0.932-0.48V770.135 M322.604,767.595
	c0.63,0,0.717,0.259,0.717,0.907c0,0.723,0,1.086-0.717,1.086c-0.648,0-0.648-0.399-0.648-1.086
	C321.956,767.738,322.102,767.595,322.604,767.595"/>
<path fill="#231F20" d="M325.416,768.312c0-0.574,0.041-0.717,0.674-0.717c0.599,0,0.69,0.05,0.69,0.717H325.416 M326.78,769.163
	c0,0.425-0.284,0.425-0.69,0.425c-0.657,0-0.674-0.198-0.674-0.821h2.093c0-1.358-0.168-1.732-1.419-1.732
	c-1.229,0-1.402,0.489-1.402,1.607c0,1.136,0.237,1.493,1.402,1.493c0.868,0,1.419-0.046,1.419-0.972H326.78"/>
<path fill="#231F20" d="M328.104,767.034v3.101h0.728v-1.729c0-0.542,0.124-0.812,0.751-0.812c0.426,0,0.523,0.152,0.523,0.537
	v2.003h0.728v-1.729c0-0.542,0.114-0.812,0.697-0.812c0.396,0,0.486,0.152,0.486,0.537v2.003h0.728v-2.073
	c0-0.752-0.254-1.027-1.024-1.027c-0.401,0-0.813,0.117-0.95,0.542h-0.022c-0.081-0.443-0.52-0.542-0.9-0.542
	c-0.406,0-0.843,0.087-1.016,0.474v-0.474H328.104"/>
<path fill="#231F20" d="M335.499,770.135h0.729v-1.921c0-1.026-0.414-1.18-1.405-1.18c-0.693,0-1.325,0-1.325,0.908h0.729
	c0-0.378,0.266-0.406,0.597-0.406c0.635,0,0.677,0.167,0.677,0.64v0.425h-0.023c-0.181-0.381-0.562-0.381-0.948-0.381
	c-0.744,0-1.121,0.204-1.121,0.937c0,0.832,0.441,0.979,1.121,0.979c0.368,0,0.824,0,0.972-0.451V770.135 M334.799,768.767
	c0.375,0,0.7,0,0.7,0.39c0,0.4-0.295,0.432-0.7,0.432c-0.491,0-0.664-0.037-0.664-0.432
	C334.135,768.767,334.413,768.767,334.799,768.767"/>
<path fill="#231F20" d="M336.843,767.034v3.101h0.728v-1.892c0-0.398,0.135-0.648,0.599-0.648c0.371,0,0.402,0.181,0.402,0.49v0.158
	h0.729v-0.245c0-0.579-0.168-0.964-0.854-0.964c-0.382,0-0.719,0.098-0.875,0.429v-0.429H336.843"/>
<polyline fill="#231F20" points="340.41,765.758 339.683,765.758 339.683,770.135 340.41,770.135 340.41,768.767 340.591,768.767 
	341.61,770.135 342.494,770.135 341.19,768.493 342.274,767.034 341.446,767.034 340.591,768.22 340.41,768.22 340.41,765.758 "/>
<path fill="#231F20" d="M345.375,767.891c0-0.856-0.714-0.856-1.288-0.856c-0.749,0-1.351,0-1.351,0.845
	c0,0.754,0.197,0.899,1.288,0.917c0.696,0.011,0.714,0.141,0.714,0.398c0,0.394-0.243,0.394-0.66,0.394
	c-0.515,0-0.614-0.05-0.614-0.478h-0.728c0,1.024,0.541,1.024,1.348,1.024c0.751,0,1.382-0.084,1.382-0.94
	c0-0.957-0.633-0.904-1.318-0.938c-0.606-0.029-0.684-0.04-0.684-0.332c0-0.388,0.256-0.388,0.627-0.388
	c0.373,0,0.556,0,0.556,0.354H345.375"/>
<path fill="#231F20" d="M349.452,767.595c0.632,0,0.683,0.185,0.683,1.006c0,0.808-0.051,0.987-0.683,0.987
	c-0.631,0-0.683-0.18-0.683-0.987C348.77,767.779,348.821,767.595,349.452,767.595 M349.452,767.034c-1.251,0-1.41,0.378-1.41,1.561
	c0,1.167,0.159,1.54,1.41,1.54s1.41-0.373,1.41-1.54C350.862,767.412,350.703,767.034,349.452,767.034"/>
<path fill="#231F20" d="M353.183,767.034h-0.745v-0.173c0-0.354,0-0.544,0.501-0.544h0.222v-0.56h-0.477
	c-0.801,0-0.974,0.301-0.974,1.016v0.261h-0.431v0.548h0.431v2.553h0.728v-2.553h0.745V767.034"/>
<polyline fill="#231F20" points="357.346,766.476 358.626,766.476 358.626,765.758 355.245,765.758 355.245,766.476 
	356.526,766.476 356.526,770.135 357.346,770.135 357.346,766.476 "/>
<path fill="#231F20" d="M359.769,765.758h-0.728v4.377h0.728v-1.688c0-0.549,0.086-0.852,0.714-0.852
	c0.464,0,0.561,0.152,0.561,0.596v1.944h0.728v-2.021c0-0.746-0.241-1.08-1.036-1.08c-0.422,0-0.782,0.047-0.942,0.496h-0.023
	V765.758"/>
<path fill="#231F20" d="M363.166,768.312c0-0.574,0.041-0.717,0.675-0.717c0.598,0,0.69,0.05,0.69,0.717H363.166 M364.531,769.163
	c0,0.425-0.284,0.425-0.69,0.425c-0.657,0-0.675-0.198-0.675-0.821h2.094c0-1.358-0.168-1.732-1.419-1.732
	c-1.229,0-1.402,0.489-1.402,1.607c0,1.136,0.237,1.493,1.402,1.493c0.868,0,1.419-0.046,1.419-0.972H364.531"/>
<polyline fill="#231F20" points="369.64,766.476 370.921,766.476 370.921,765.758 367.539,765.758 367.539,766.476 368.82,766.476 
	368.82,770.135 369.64,770.135 369.64,766.476 "/>
<path fill="#231F20" d="M372.159,767.595c0.632,0,0.683,0.185,0.683,1.006c0,0.808-0.051,0.987-0.683,0.987
	c-0.631,0-0.683-0.18-0.683-0.987C371.477,767.779,371.528,767.595,372.159,767.595 M372.159,767.034
	c-1.251,0-1.41,0.378-1.41,1.561c0,1.167,0.159,1.54,1.41,1.54s1.41-0.373,1.41-1.54
	C373.569,767.412,373.41,767.034,372.159,767.034"/>
<path fill="#231F20" d="M374.964,767.034h-0.729v4.468h0.729v-1.801h0.028c0.154,0.365,0.539,0.434,0.905,0.434
	c1.038,0,1.159-0.57,1.159-1.455c0-0.93,0-1.646-1.159-1.646c-0.421,0-0.752,0.093-0.934,0.492V767.034 M375.686,769.588
	c-0.624,0-0.722-0.26-0.722-0.908c0-0.722,0-1.085,0.722-1.085c0.643,0,0.643,0.398,0.643,1.085
	C376.328,769.443,376.185,769.588,375.686,769.588"/>
<path fill="#231F20" d="M378.44,767.034h-0.729v4.468h0.729v-1.801h0.028c0.154,0.365,0.539,0.434,0.905,0.434
	c1.038,0,1.159-0.57,1.159-1.455c0-0.93,0-1.646-1.159-1.646c-0.421,0-0.752,0.093-0.934,0.492V767.034 M379.162,769.588
	c-0.624,0-0.722-0.26-0.722-0.908c0-0.722,0-1.085,0.722-1.085c0.643,0,0.643,0.398,0.643,1.085
	C379.805,769.443,379.661,769.588,379.162,769.588"/>
<path fill="#231F20" d="M383.737,767.891c0-0.856-0.714-0.856-1.288-0.856c-0.75,0-1.352,0-1.352,0.845
	c0,0.754,0.198,0.899,1.288,0.917c0.697,0.011,0.714,0.141,0.714,0.398c0,0.394-0.243,0.394-0.659,0.394
	c-0.515,0-0.614-0.05-0.614-0.478h-0.729c0,1.024,0.542,1.024,1.349,1.024c0.75,0,1.382-0.084,1.382-0.94
	c0-0.957-0.633-0.904-1.318-0.938c-0.607-0.029-0.684-0.04-0.684-0.332c0-0.388,0.256-0.388,0.627-0.388
	c0.372,0,0.556,0,0.556,0.354H383.737"/>
<path fill="#231F20" d="M389.953,767.242v-0.234c-0.061-1.25-0.706-1.25-1.793-1.25c-1.3,0-1.848,0.313-1.848,1.697v0.982
	c0,1.256,0.279,1.756,1.848,1.697c1.082-0.006,1.793,0,1.793-1.295v-0.281h-0.819v0.234c0,0.612-0.268,0.612-0.974,0.612
	c-0.919,0-1.028-0.162-1.028-1.002v-0.948c0-0.842,0.15-0.979,1.028-0.979c0.766,0,0.974,0.035,0.974,0.532v0.234H389.953"/>
<path fill="#231F20" d="M391.874,767.595c0.631,0,0.682,0.185,0.682,1.006c0,0.808-0.051,0.987-0.682,0.987
	c-0.632,0-0.683-0.18-0.683-0.987C391.191,767.779,391.242,767.595,391.874,767.595 M391.874,767.034
	c-1.252,0-1.411,0.378-1.411,1.561c0,1.167,0.159,1.54,1.411,1.54c1.251,0,1.41-0.373,1.41-1.54
	C393.284,767.412,393.125,767.034,391.874,767.034"/>
<path fill="#231F20" d="M393.949,767.034v3.101h0.728v-1.729c0-0.542,0.124-0.812,0.751-0.812c0.426,0,0.523,0.152,0.523,0.537
	v2.003h0.728v-1.729c0-0.542,0.114-0.812,0.697-0.812c0.396,0,0.486,0.152,0.486,0.537v2.003h0.728v-2.073
	c0-0.752-0.254-1.027-1.024-1.027c-0.401,0-0.813,0.117-0.95,0.542h-0.022c-0.081-0.443-0.52-0.542-0.9-0.542
	c-0.406,0-0.843,0.087-1.016,0.474v-0.474H393.949"/>
<path fill="#231F20" d="M400.07,767.034h-0.729v4.468h0.729v-1.801h0.028c0.155,0.365,0.539,0.434,0.905,0.434
	c1.038,0,1.159-0.57,1.159-1.455c0-0.93,0-1.646-1.159-1.646c-0.421,0-0.752,0.093-0.934,0.492V767.034 M400.793,769.588
	c-0.625,0-0.723-0.26-0.723-0.908c0-0.722,0-1.085,0.723-1.085c0.643,0,0.643,0.398,0.643,1.085
	C401.436,769.443,401.292,769.588,400.793,769.588"/>
<path fill="#231F20" d="M404.821,770.135h0.728v-1.921c0-1.026-0.414-1.18-1.404-1.18c-0.694,0-1.325,0-1.325,0.908h0.728
	c0-0.378,0.266-0.406,0.598-0.406c0.634,0,0.677,0.167,0.677,0.64v0.425h-0.024c-0.181-0.381-0.562-0.381-0.948-0.381
	c-0.744,0-1.121,0.204-1.121,0.937c0,0.832,0.441,0.979,1.121,0.979c0.368,0,0.824,0,0.973-0.451V770.135 M404.12,768.767
	c0.375,0,0.701,0,0.701,0.39c0,0.4-0.296,0.432-0.701,0.432c-0.491,0-0.664-0.037-0.664-0.432
	C403.456,768.767,403.734,768.767,404.12,768.767"/>
<path fill="#231F20" d="M406.255,767.034v3.101h0.729v-1.688c0-0.549,0.085-0.852,0.714-0.852c0.463,0,0.56,0.152,0.56,0.596v1.944
	h0.729v-2.021c0-0.746-0.242-1.08-1.036-1.08c-0.423,0-0.782,0.046-0.943,0.492h-0.022v-0.492H406.255"/>
<path fill="#231F20" d="M412.292,767.034h-0.754l-0.6,2.641h-0.012l-0.782-2.641h-0.765l1.018,3.101h0.358
	c-0.065,0.364-0.135,0.82-0.6,0.82c-0.053,0-0.106-0.013-0.159-0.019v0.565c0.106,0,0.212,0,0.318,0
	c0.864,0,1.005-0.548,1.176-1.249L412.292,767.034"/>
<path fill="#231F20" d="M412.348,770.864h0.148c0.639,0,0.639-0.353,0.639-0.829v-0.688h-0.729v0.788h0.299
	c0,0.305-0.137,0.364-0.357,0.364V770.864"/>
<rect x="416.336" y="765.758" fill="#231F20" width="0.819" height="4.377"/>
<path fill="#231F20" d="M417.949,767.034v3.101h0.729v-1.688c0-0.549,0.085-0.852,0.714-0.852c0.463,0,0.56,0.152,0.56,0.596v1.944
	h0.729v-2.021c0-0.746-0.242-1.08-1.036-1.08c-0.423,0-0.782,0.046-0.943,0.492h-0.022v-0.492H417.949"/>
<path fill="#231F20" d="M423.349,768.952c0,0.531-0.058,0.636-0.65,0.636c-0.623,0-0.623-0.236-0.623-0.994
	c0-0.78,0-0.999,0.623-0.999c0.507,0,0.65,0.081,0.65,0.543h0.729c0-0.964-0.479-1.104-1.379-1.104
	c-1.185,0-1.352,0.493-1.352,1.561c0,1.218,0.242,1.54,1.352,1.54c1.021,0,1.379-0.195,1.379-1.183H423.349"/>
<rect x="424.835" y="769.336" fill="#231F20" width="0.728" height="0.799"/>
<path fill="#231F20" d="M431.257,768.676h-1.516l0.75-2.275h0.011L431.257,768.676 M431.445,769.314l0.287,0.82h0.854l-1.487-4.377
	h-1.241l-1.458,4.377h0.873l0.274-0.82H431.445"/>
<rect x="432.899" y="765.758" fill="#231F20" width="0.729" height="4.377"/>
<rect x="434.367" y="765.758" fill="#231F20" width="0.728" height="4.377"/>
<path fill="#231F20" d="M437.8,767.034v3.101h0.728v-1.892c0-0.398,0.135-0.648,0.599-0.648c0.371,0,0.402,0.181,0.402,0.49v0.158
	h0.728v-0.245c0-0.579-0.167-0.964-0.854-0.964c-0.381,0-0.718,0.098-0.874,0.429v-0.429H437.8"/>
<path fill="#231F20" d="M441.367,765.758h-0.728v0.624h0.728V765.758 M441.367,767.034h-0.728v3.101h0.728V767.034"/>
<path fill="#231F20" d="M444.016,770.254c0,0.563-0.126,0.701-0.717,0.701c-0.403,0-0.557-0.068-0.557-0.52h-0.729
	c-0.047,0.936,0.523,1.066,1.285,1.066c1.102,0,1.445-0.271,1.445-1.407v-3.061h-0.729v0.492c-0.181-0.399-0.509-0.492-0.927-0.492
	c-1.166,0-1.166,0.716-1.166,1.646c0,0.885,0.122,1.455,1.166,1.455c0.361,0,0.74-0.068,0.927-0.462V770.254 M443.299,767.595
	c0.62,0,0.717,0.261,0.717,0.907c0,0.723,0,1.086-0.722,1.086c-0.643,0-0.643-0.399-0.643-1.086
	C442.651,767.738,442.796,767.595,443.299,767.595"/>
<path fill="#231F20" d="M446.207,765.758h-0.729v4.377h0.729v-1.688c0-0.549,0.085-0.852,0.714-0.852c0.463,0,0.56,0.152,0.56,0.596
	v1.944h0.729v-2.021c0-0.746-0.242-1.08-1.036-1.08c-0.423,0-0.782,0.047-0.943,0.496h-0.022V765.758"/>
<path fill="#231F20" d="M448.583,767.582h0.385v1.597c0,0.771,0.247,0.956,1.061,0.956c0.798,0,1.032-0.279,1.032-1.204h-0.637
	c0,0.325,0.045,0.657-0.396,0.657c-0.333,0-0.333-0.13-0.333-0.415v-1.591h1.21v-0.548h-1.21v-0.708h-0.728v0.708h-0.385V767.582"/>
<path fill="#231F20" d="M453.996,767.891c0-0.856-0.714-0.856-1.288-0.856c-0.749,0-1.351,0-1.351,0.845
	c0,0.754,0.197,0.899,1.288,0.917c0.697,0.011,0.714,0.141,0.714,0.398c0,0.394-0.243,0.394-0.66,0.394
	c-0.514,0-0.613-0.05-0.613-0.478h-0.729c0,1.024,0.542,1.024,1.348,1.024c0.751,0,1.383-0.084,1.383-0.94
	c0-0.957-0.633-0.904-1.318-0.938c-0.607-0.029-0.684-0.04-0.684-0.332c0-0.388,0.256-0.388,0.627-0.388
	c0.372,0,0.556,0,0.556,0.354H453.996"/>
<path fill="#231F20" d="M456.663,767.034v3.101h0.729v-1.892c0-0.398,0.135-0.648,0.599-0.648c0.371,0,0.402,0.181,0.402,0.49v0.158
	h0.728v-0.245c0-0.579-0.168-0.964-0.854-0.964c-0.381,0-0.718,0.098-0.874,0.429v-0.429H456.663"/>
<path fill="#231F20" d="M460.187,768.312c0-0.574,0.041-0.717,0.674-0.717c0.599,0,0.691,0.05,0.691,0.717H460.187 M461.552,769.163
	c0,0.425-0.285,0.425-0.691,0.425c-0.657,0-0.674-0.198-0.674-0.821h2.093c0-1.358-0.168-1.732-1.419-1.732
	c-1.229,0-1.402,0.489-1.402,1.607c0,1.136,0.238,1.493,1.402,1.493c0.869,0,1.419-0.046,1.419-0.972H461.552"/>
<path fill="#231F20" d="M465.423,767.891c0-0.856-0.714-0.856-1.288-0.856c-0.749,0-1.351,0-1.351,0.845
	c0,0.754,0.197,0.899,1.288,0.917c0.697,0.011,0.714,0.141,0.714,0.398c0,0.394-0.243,0.394-0.66,0.394
	c-0.515,0-0.614-0.05-0.614-0.478h-0.728c0,1.024,0.542,1.024,1.348,1.024c0.751,0,1.382-0.084,1.382-0.94
	c0-0.957-0.632-0.904-1.317-0.938c-0.607-0.029-0.685-0.04-0.685-0.332c0-0.388,0.257-0.388,0.627-0.388
	c0.373,0,0.557,0,0.557,0.354H465.423"/>
<path fill="#231F20" d="M466.762,768.312c0-0.574,0.041-0.717,0.675-0.717c0.598,0,0.69,0.05,0.69,0.717H466.762 M468.127,769.163
	c0,0.425-0.284,0.425-0.69,0.425c-0.657,0-0.675-0.198-0.675-0.821h2.094c0-1.358-0.168-1.732-1.419-1.732
	c-1.229,0-1.402,0.489-1.402,1.607c0,1.136,0.237,1.493,1.402,1.493c0.868,0,1.419-0.046,1.419-0.972H468.127"/>
<path fill="#231F20" d="M469.359,767.034v3.101h0.728v-1.892c0-0.398,0.136-0.648,0.599-0.648c0.372,0,0.402,0.181,0.402,0.49v0.158
	h0.729v-0.245c0-0.579-0.168-0.964-0.854-0.964c-0.381,0-0.718,0.098-0.875,0.429v-0.429H469.359"/>
<polyline fill="#231F20" points="474.794,767.034 474.027,767.034 473.36,769.633 473.343,769.633 472.63,767.034 471.882,767.034 
	472.805,770.135 473.906,770.135 474.794,767.034 "/>
<path fill="#231F20" d="M475.748,768.312c0-0.574,0.041-0.717,0.674-0.717c0.599,0,0.691,0.05,0.691,0.717H475.748 M477.113,769.163
	c0,0.425-0.285,0.425-0.691,0.425c-0.657,0-0.674-0.198-0.674-0.821h2.093c0-1.358-0.168-1.732-1.419-1.732
	c-1.229,0-1.402,0.489-1.402,1.607c0,1.136,0.238,1.493,1.402,1.493c0.869,0,1.419-0.046,1.419-0.972H477.113"/>
<path fill="#231F20" d="M480.438,770.135h0.729v-4.377h-0.729v1.72h-0.017c-0.156-0.373-0.545-0.443-0.914-0.443
	c-1.041,0-1.162,0.574-1.162,1.468c0,0.931,0,1.633,1.162,1.633c0.42,0,0.749-0.09,0.931-0.48V770.135 M479.722,767.595
	c0.63,0,0.717,0.259,0.717,0.907c0,0.723,0,1.086-0.717,1.086c-0.647,0-0.647-0.399-0.647-1.086
	C479.074,767.738,479.219,767.595,479.722,767.595"/>
<rect x="482.078" y="769.336" fill="#231F20" width="0.728" height="0.799"/>
<path fill="#231F20" d="M489.465,767.242v-0.234c-0.06-1.25-0.705-1.25-1.793-1.25c-1.3,0-1.847,0.313-1.847,1.697v0.982
	c0,1.256,0.278,1.756,1.847,1.697c1.082-0.006,1.793,0,1.793-1.295v-0.281h-0.818v0.234c0,0.612-0.268,0.612-0.975,0.612
	c-0.918,0-1.027-0.162-1.027-1.002v-0.948c0-0.842,0.15-0.979,1.027-0.979c0.767,0,0.975,0.035,0.975,0.532v0.234H489.465"/>
<path fill="#231F20" d="M492.068,770.135h0.729v-1.921c0-1.026-0.414-1.18-1.405-1.18c-0.693,0-1.325,0-1.325,0.908h0.729
	c0-0.378,0.266-0.406,0.597-0.406c0.635,0,0.677,0.167,0.677,0.64v0.425h-0.024c-0.181-0.381-0.562-0.381-0.948-0.381
	c-0.743,0-1.12,0.204-1.12,0.937c0,0.832,0.44,0.979,1.12,0.979c0.368,0,0.825,0,0.973-0.451V770.135 M491.367,768.767
	c0.376,0,0.701,0,0.701,0.39c0,0.4-0.296,0.432-0.701,0.432c-0.49,0-0.664-0.037-0.664-0.432
	C490.703,768.767,490.982,768.767,491.367,768.767"/>
<path fill="#231F20" d="M493.118,767.582h0.384v1.597c0,0.771,0.248,0.956,1.062,0.956c0.797,0,1.032-0.279,1.032-1.204h-0.638
	c0,0.325,0.046,0.657-0.395,0.657c-0.333,0-0.333-0.13-0.333-0.415v-1.591h1.21v-0.548h-1.21v-0.708h-0.729v0.708h-0.384V767.582"/>
<path fill="#231F20" d="M497.985,770.135h0.728v-1.921c0-1.026-0.413-1.18-1.404-1.18c-0.693,0-1.325,0-1.325,0.908h0.728
	c0-0.378,0.267-0.406,0.598-0.406c0.635,0,0.677,0.167,0.677,0.64v0.425h-0.024c-0.181-0.381-0.562-0.381-0.948-0.381
	c-0.743,0-1.12,0.204-1.12,0.937c0,0.832,0.44,0.979,1.12,0.979c0.368,0,0.825,0,0.973-0.451V770.135 M497.284,768.767
	c0.376,0,0.701,0,0.701,0.39c0,0.4-0.296,0.432-0.701,0.432c-0.49,0-0.664-0.037-0.664-0.432
	C496.62,768.767,496.899,768.767,497.284,768.767"/>
<rect x="499.419" y="765.758" fill="#231F20" width="0.729" height="4.377"/>
<path fill="#231F20" d="M503.435,767.034h-0.753l-0.601,2.641h-0.011l-0.782-2.641h-0.765l1.018,3.101h0.358
	c-0.065,0.364-0.135,0.82-0.6,0.82c-0.053,0-0.107-0.013-0.16-0.019v0.565c0.107,0,0.212,0,0.319,0c0.864,0,1.005-0.548,1.176-1.249
	L503.435,767.034"/>
<path fill="#231F20" d="M506.265,767.891c0-0.856-0.714-0.856-1.288-0.856c-0.749,0-1.351,0-1.351,0.845
	c0,0.754,0.197,0.899,1.288,0.917c0.696,0.011,0.714,0.141,0.714,0.398c0,0.394-0.243,0.394-0.66,0.394
	c-0.515,0-0.614-0.05-0.614-0.478h-0.728c0,1.024,0.542,1.024,1.348,1.024c0.751,0,1.382-0.084,1.382-0.94
	c0-0.957-0.632-0.904-1.317-0.938c-0.607-0.029-0.685-0.04-0.685-0.332c0-0.388,0.256-0.388,0.627-0.388
	c0.373,0,0.557,0,0.557,0.354H506.265"/>
<path fill="#231F20" d="M506.583,767.582h0.384v1.597c0,0.771,0.247,0.956,1.061,0.956c0.798,0,1.032-0.279,1.032-1.204h-0.637
	c0,0.325,0.045,0.657-0.396,0.657c-0.333,0-0.333-0.13-0.333-0.415v-1.591h1.21v-0.548h-1.21v-0.708h-0.728v0.708h-0.384V767.582"/>
<path fill="#231F20" d="M513.188,767.764v0.639h1.137v0.159c0,0.844-0.253,0.844-1.076,0.844c-0.963,0-1.107-0.093-1.107-1.009
	v-0.981c0-0.797,0.097-0.939,1.107-0.939c0.752,0,1.076,0,1.076,0.602h0.819c0-1.372-0.837-1.319-1.902-1.319
	c-1.35,0-1.92,0.248-1.92,1.657v0.981c0,1.492,0.526,1.738,1.927,1.738c1.567,0,1.896-0.27,1.896-1.573v-0.798H513.188"/>
<path fill="#231F20" d="M517.745,770.135h0.729v-1.921c0-1.026-0.414-1.18-1.405-1.18c-0.693,0-1.325,0-1.325,0.908h0.729
	c0-0.378,0.266-0.406,0.597-0.406c0.635,0,0.677,0.167,0.677,0.64v0.425h-0.023c-0.181-0.381-0.563-0.381-0.949-0.381
	c-0.743,0-1.12,0.204-1.12,0.937c0,0.832,0.441,0.979,1.12,0.979c0.369,0,0.825,0,0.973-0.451V770.135 M517.045,768.767
	c0.375,0,0.7,0,0.7,0.39c0,0.4-0.296,0.432-0.7,0.432c-0.491,0-0.664-0.037-0.664-0.432
	C516.381,768.767,516.659,768.767,517.045,768.767"/>
<path fill="#231F20" d="M519.18,767.034v3.101h0.728v-1.729c0-0.542,0.124-0.812,0.751-0.812c0.425,0,0.523,0.152,0.523,0.537v2.003
	h0.728v-1.729c0-0.542,0.114-0.812,0.697-0.812c0.395,0,0.485,0.152,0.485,0.537v2.003h0.729v-2.073
	c0-0.752-0.255-1.027-1.025-1.027c-0.4,0-0.812,0.117-0.949,0.542h-0.023c-0.081-0.443-0.519-0.542-0.9-0.542
	c-0.406,0-0.843,0.087-1.015,0.474v-0.474H519.18"/>
<path fill="#231F20" d="M525.209,768.312c0-0.574,0.041-0.717,0.674-0.717c0.599,0,0.691,0.05,0.691,0.717H525.209 M526.574,769.163
	c0,0.425-0.284,0.425-0.691,0.425c-0.656,0-0.674-0.198-0.674-0.821h2.093c0-1.358-0.167-1.732-1.419-1.732
	c-1.229,0-1.401,0.489-1.401,1.607c0,1.136,0.237,1.493,1.401,1.493c0.869,0,1.419-0.046,1.419-0.972H526.574"/>
<polyline fill="#231F20" points="530.772,765.758 529.953,765.758 529.953,770.135 532.812,770.135 532.812,769.417 
	530.772,769.417 530.772,765.758 "/>
<path fill="#231F20" d="M535.252,770.135h0.728v-1.921c0-1.026-0.414-1.18-1.404-1.18c-0.694,0-1.325,0-1.325,0.908h0.728
	c0-0.378,0.266-0.406,0.598-0.406c0.634,0,0.677,0.167,0.677,0.64v0.425h-0.024c-0.181-0.381-0.562-0.381-0.948-0.381
	c-0.744,0-1.121,0.204-1.121,0.937c0,0.832,0.441,0.979,1.121,0.979c0.368,0,0.824,0,0.973-0.451V770.135 M534.551,768.767
	c0.375,0,0.701,0,0.701,0.39c0,0.4-0.296,0.432-0.701,0.432c-0.491,0-0.664-0.037-0.664-0.432
	C533.887,768.767,534.165,768.767,534.551,768.767"/>
<path fill="#231F20" d="M536.686,770.135h0.729v-0.48c0.182,0.391,0.513,0.48,0.934,0.48c1.159,0,1.159-0.702,1.159-1.633
	c0-0.894-0.121-1.468-1.159-1.468c-0.367,0-0.751,0.07-0.905,0.443h-0.028v-1.72h-0.729V770.135 M538.136,767.595
	c0.499,0,0.643,0.144,0.643,0.907c0,0.687,0,1.086-0.643,1.086c-0.722,0-0.722-0.363-0.722-1.086
	C537.414,767.854,537.512,767.595,538.136,767.595"/>
<path fill="#231F20" d="M542.699,767.891c0-0.856-0.714-0.856-1.288-0.856c-0.75,0-1.351,0-1.351,0.845
	c0,0.754,0.197,0.899,1.287,0.917c0.697,0.011,0.715,0.141,0.715,0.398c0,0.394-0.244,0.394-0.66,0.394
	c-0.515,0-0.614-0.05-0.614-0.478h-0.728c0,1.024,0.541,1.024,1.348,1.024c0.75,0,1.382-0.084,1.382-0.94
	c0-0.957-0.633-0.904-1.318-0.938c-0.606-0.029-0.684-0.04-0.684-0.332c0-0.388,0.256-0.388,0.627-0.388
	c0.373,0,0.556,0,0.556,0.354H542.699"/>
<path fill="#231F20" d="M547.458,770.135h0.729v-1.921c0-1.026-0.414-1.18-1.405-1.18c-0.693,0-1.325,0-1.325,0.908h0.729
	c0-0.378,0.266-0.406,0.597-0.406c0.635,0,0.677,0.167,0.677,0.64v0.425h-0.023c-0.181-0.381-0.563-0.381-0.949-0.381
	c-0.743,0-1.12,0.204-1.12,0.937c0,0.832,0.441,0.979,1.12,0.979c0.368,0,0.825,0,0.973-0.451V770.135 M546.758,768.767
	c0.375,0,0.7,0,0.7,0.39c0,0.4-0.296,0.432-0.7,0.432c-0.491,0-0.664-0.037-0.664-0.432
	C546.094,768.767,546.372,768.767,546.758,768.767"/>
<path fill="#231F20" d="M548.893,767.034v3.101h0.729v-1.688c0-0.549,0.085-0.852,0.714-0.852c0.463,0,0.56,0.152,0.56,0.596v1.944
	h0.729v-2.021c0-0.746-0.242-1.08-1.037-1.08c-0.422,0-0.782,0.046-0.942,0.492h-0.022v-0.492H548.893"/>
<path fill="#231F20" d="M554.383,770.135h0.729v-4.377h-0.729v1.72h-0.017c-0.156-0.373-0.545-0.443-0.915-0.443
	c-1.04,0-1.161,0.574-1.161,1.468c0,0.931,0,1.633,1.161,1.633c0.422,0,0.75-0.09,0.932-0.48V770.135 M553.666,767.595
	c0.631,0,0.717,0.259,0.717,0.907c0,0.723,0,1.086-0.717,1.086c-0.648,0-0.648-0.399-0.648-1.086
	C553.018,767.738,553.163,767.595,553.666,767.595"/>
<path fill="#231F20" d="M557.513,767.582h0.384v1.597c0,0.771,0.247,0.956,1.061,0.956c0.798,0,1.032-0.279,1.032-1.204h-0.637
	c0,0.325,0.045,0.657-0.396,0.657c-0.333,0-0.333-0.13-0.333-0.415v-1.591h1.21v-0.548h-1.21v-0.708h-0.728v0.708h-0.384V767.582"/>
<path fill="#231F20" d="M561.104,765.758h-0.728v4.377h0.728v-1.688c0-0.549,0.086-0.852,0.714-0.852
	c0.464,0,0.561,0.152,0.561,0.596v1.944h0.728v-2.021c0-0.746-0.241-1.08-1.036-1.08c-0.422,0-0.782,0.047-0.942,0.496h-0.023
	V765.758"/>
<path fill="#231F20" d="M564.503,768.312c0-0.574,0.041-0.717,0.674-0.717c0.599,0,0.691,0.05,0.691,0.717H564.503 M565.868,769.163
	c0,0.425-0.285,0.425-0.691,0.425c-0.657,0-0.674-0.198-0.674-0.821h2.093c0-1.358-0.168-1.732-1.419-1.732
	c-1.229,0-1.402,0.489-1.402,1.607c0,1.136,0.238,1.493,1.402,1.493c0.869,0,1.419-0.046,1.419-0.972H565.868"/>
<path fill="#231F20" d="M141.907,774.246v-0.235c-0.06-1.25-0.706-1.25-1.793-1.25c-1.3,0-1.847,0.313-1.847,1.697v0.983
	c0,1.255,0.279,1.755,1.847,1.696c1.082-0.006,1.793,0,1.793-1.295v-0.281h-0.819v0.234c0,0.612-0.267,0.612-0.974,0.612
	c-0.918,0-1.028-0.162-1.028-1.001v-0.949c0-0.842,0.151-0.979,1.028-0.979c0.766,0,0.974,0.034,0.974,0.531v0.235H141.907"/>
<path fill="#231F20" d="M144.504,777.138h0.728v-1.92c0-1.027-0.414-1.18-1.405-1.18c-0.694,0-1.325,0-1.325,0.907h0.728
	c0-0.378,0.266-0.406,0.597-0.406c0.634,0,0.677,0.167,0.677,0.64v0.425h-0.024c-0.181-0.381-0.562-0.381-0.949-0.381
	c-0.744,0-1.12,0.204-1.12,0.937c0,0.832,0.441,0.979,1.12,0.979c0.369,0,0.825,0,0.973-0.451V777.138 M143.804,775.771
	c0.375,0,0.701,0,0.701,0.389c0,0.4-0.296,0.432-0.701,0.432c-0.491,0-0.664-0.037-0.664-0.432
	C143.14,775.771,143.418,775.771,143.804,775.771"/>
<path fill="#231F20" d="M145.549,774.585h0.384v1.597c0,0.771,0.248,0.956,1.061,0.956c0.797,0,1.032-0.279,1.032-1.204h-0.637
	c0,0.325,0.045,0.657-0.395,0.657c-0.333,0-0.333-0.13-0.333-0.415v-1.591h1.21v-0.547h-1.21v-0.708h-0.728v0.708h-0.384V774.585"/>
<path fill="#231F20" d="M150.41,777.138h0.728v-1.92c0-1.027-0.414-1.18-1.405-1.18c-0.694,0-1.325,0-1.325,0.907h0.728
	c0-0.378,0.266-0.406,0.597-0.406c0.634,0,0.677,0.167,0.677,0.64v0.425h-0.024c-0.181-0.381-0.562-0.381-0.949-0.381
	c-0.744,0-1.12,0.204-1.12,0.937c0,0.832,0.441,0.979,1.12,0.979c0.369,0,0.825,0,0.973-0.451V777.138 M149.709,775.771
	c0.375,0,0.701,0,0.701,0.389c0,0.4-0.296,0.432-0.701,0.432c-0.491,0-0.664-0.037-0.664-0.432
	C149.045,775.771,149.323,775.771,149.709,775.771"/>
<rect x="151.838" y="772.761" fill="#231F20" width="0.728" height="4.377"/>
<path fill="#231F20" d="M155.854,774.038H155.1l-0.6,2.64h-0.011l-0.782-2.64h-0.765l1.018,3.1h0.358
	c-0.065,0.365-0.135,0.82-0.6,0.82c-0.053,0-0.107-0.013-0.16-0.018v0.565c0.107,0,0.212,0,0.319,0c0.864,0,1.005-0.549,1.176-1.25
	L155.854,774.038"/>
<path fill="#231F20" d="M158.678,774.894c0-0.855-0.714-0.855-1.288-0.855c-0.749,0-1.351,0-1.351,0.845
	c0,0.754,0.198,0.898,1.288,0.916c0.697,0.011,0.714,0.141,0.714,0.398c0,0.394-0.243,0.394-0.66,0.394
	c-0.515,0-0.614-0.05-0.614-0.478h-0.728c0,1.024,0.542,1.024,1.348,1.024c0.751,0,1.382-0.084,1.382-0.94
	c0-0.957-0.633-0.904-1.318-0.938c-0.607-0.028-0.684-0.04-0.684-0.332c0-0.388,0.256-0.388,0.627-0.388
	c0.373,0,0.556,0,0.556,0.354H158.678"/>
<path fill="#231F20" d="M158.99,774.585h0.384v1.597c0,0.771,0.248,0.956,1.061,0.956c0.797,0,1.032-0.279,1.032-1.204h-0.637
	c0,0.325,0.045,0.657-0.395,0.657c-0.333,0-0.333-0.13-0.333-0.415v-1.591h1.21v-0.547h-1.21v-0.708h-0.728v0.708h-0.384V774.585"/>
<path fill="#231F20" d="M165.583,774.768v0.638h1.138v0.16c0,0.843-0.253,0.843-1.077,0.843c-0.962,0-1.107-0.093-1.107-1.009
	v-0.981c0-0.796,0.097-0.938,1.107-0.938c0.752,0,1.077,0,1.077,0.601h0.819c0-1.372-0.837-1.319-1.902-1.319
	c-1.35,0-1.92,0.248-1.92,1.657v0.981c0,1.492,0.526,1.738,1.927,1.738c1.567,0,1.896-0.27,1.896-1.572v-0.798H165.583"/>
<path fill="#231F20" d="M170.135,777.138h0.728v-1.92c0-1.027-0.414-1.18-1.405-1.18c-0.694,0-1.325,0-1.325,0.907h0.728
	c0-0.378,0.266-0.406,0.597-0.406c0.634,0,0.677,0.167,0.677,0.64v0.425h-0.024c-0.181-0.381-0.562-0.381-0.949-0.381
	c-0.744,0-1.12,0.204-1.12,0.937c0,0.832,0.44,0.979,1.12,0.979c0.368,0,0.825,0,0.973-0.451V777.138 M169.434,775.771
	c0.375,0,0.701,0,0.701,0.389c0,0.4-0.296,0.432-0.701,0.432c-0.491,0-0.664-0.037-0.664-0.432
	C168.77,775.771,169.049,775.771,169.434,775.771"/>
<path fill="#231F20" d="M171.563,774.038v3.1h0.728v-1.728c0-0.543,0.124-0.813,0.751-0.813c0.425,0,0.523,0.152,0.523,0.537v2.003
	h0.728v-1.728c0-0.543,0.114-0.813,0.697-0.813c0.396,0,0.486,0.152,0.486,0.537v2.003h0.728v-2.073
	c0-0.752-0.255-1.026-1.025-1.026c-0.401,0-0.812,0.116-0.95,0.541h-0.022c-0.082-0.443-0.52-0.541-0.9-0.541
	c-0.407,0-0.843,0.087-1.015,0.473v-0.473H171.563"/>
<path fill="#231F20" d="M177.582,775.314c0-0.574,0.041-0.717,0.674-0.717c0.599,0,0.691,0.05,0.691,0.717H177.582 M178.947,776.166
	c0,0.425-0.284,0.425-0.691,0.425c-0.657,0-0.674-0.198-0.674-0.82h2.093c0-1.359-0.168-1.732-1.419-1.732
	c-1.229,0-1.402,0.488-1.402,1.606c0,1.136,0.237,1.493,1.402,1.493c0.869,0,1.419-0.046,1.419-0.972H178.947"/>
<polyline fill="#231F20" points="183.134,772.761 182.315,772.761 182.315,777.138 185.173,777.138 185.173,776.42 183.134,776.42 
	183.134,772.761 "/>
<path fill="#231F20" d="M187.607,777.138h0.728v-1.92c0-1.027-0.414-1.18-1.405-1.18c-0.694,0-1.325,0-1.325,0.907h0.728
	c0-0.378,0.266-0.406,0.597-0.406c0.634,0,0.677,0.167,0.677,0.64v0.425h-0.024c-0.181-0.381-0.562-0.381-0.949-0.381
	c-0.744,0-1.12,0.204-1.12,0.937c0,0.832,0.441,0.979,1.12,0.979c0.369,0,0.825,0,0.973-0.451V777.138 M186.906,775.771
	c0.375,0,0.701,0,0.701,0.389c0,0.4-0.296,0.432-0.701,0.432c-0.491,0-0.664-0.037-0.664-0.432
	C186.242,775.771,186.521,775.771,186.906,775.771"/>
<path fill="#231F20" d="M189.035,777.138h0.728v-0.479c0.182,0.39,0.513,0.479,0.934,0.479c1.159,0,1.159-0.702,1.159-1.633
	c0-0.893-0.121-1.467-1.159-1.467c-0.367,0-0.75,0.069-0.905,0.442h-0.029v-1.72h-0.728V777.138 M190.486,774.598
	c0.499,0,0.643,0.144,0.643,0.907c0,0.687,0,1.086-0.643,1.086c-0.723,0-0.723-0.363-0.723-1.086
	C189.763,774.857,189.861,774.598,190.486,774.598"/>
<path fill="#231F20" d="M195.042,774.894c0-0.855-0.714-0.855-1.288-0.855c-0.749,0-1.351,0-1.351,0.845
	c0,0.754,0.198,0.898,1.288,0.916c0.697,0.011,0.714,0.141,0.714,0.398c0,0.394-0.243,0.394-0.66,0.394
	c-0.515,0-0.614-0.05-0.614-0.478h-0.728c0,1.024,0.542,1.024,1.348,1.024c0.751,0,1.382-0.084,1.382-0.94
	c0-0.957-0.633-0.904-1.318-0.938c-0.607-0.028-0.684-0.04-0.684-0.332c0-0.388,0.256-0.388,0.627-0.388
	c0.373,0,0.556,0,0.556,0.354H195.042"/>
<rect x="197.789" y="772.761" fill="#231F20" width="0.728" height="4.377"/>
<path fill="#231F20" d="M200.576,774.598c0.631,0,0.683,0.186,0.683,1.006c0,0.808-0.051,0.987-0.683,0.987
	c-0.631,0-0.682-0.18-0.682-0.987C199.894,774.783,199.945,774.598,200.576,774.598 M200.576,774.038c-1.251,0-1.41,0.377-1.41,1.56
	c0,1.167,0.159,1.54,1.41,1.54c1.251,0,1.411-0.373,1.411-1.54C201.986,774.415,201.827,774.038,200.576,774.038"/>
<path fill="#231F20" d="M204.648,777.258c0,0.563-0.126,0.7-0.717,0.7c-0.404,0-0.557-0.068-0.557-0.52h-0.728
	c-0.047,0.936,0.523,1.067,1.285,1.067c1.101,0,1.445-0.271,1.445-1.408v-3.06h-0.728v0.491c-0.181-0.399-0.509-0.491-0.927-0.491
	c-1.166,0-1.166,0.715-1.166,1.646c0,0.885,0.123,1.454,1.166,1.454c0.361,0,0.741-0.068,0.927-0.462V777.258 M203.931,774.598
	c0.62,0,0.717,0.261,0.717,0.907c0,0.723,0,1.086-0.722,1.086c-0.643,0-0.643-0.399-0.643-1.086
	C203.283,774.741,203.428,774.598,203.931,774.598"/>
<path fill="#231F20" d="M207.425,774.598c0.631,0,0.683,0.186,0.683,1.006c0,0.808-0.051,0.987-0.683,0.987s-0.683-0.18-0.683-0.987
	C206.742,774.783,206.793,774.598,207.425,774.598 M207.425,774.038c-1.251,0-1.411,0.377-1.411,1.56c0,1.167,0.159,1.54,1.411,1.54
	c1.251,0,1.411-0.373,1.411-1.54C208.835,774.415,208.676,774.038,207.425,774.038"/>
<path fill="#231F20" d="M213.547,777.138h0.728v-1.92c0-1.027-0.414-1.18-1.405-1.18c-0.694,0-1.325,0-1.325,0.907h0.728
	c0-0.378,0.266-0.406,0.597-0.406c0.634,0,0.677,0.167,0.677,0.64v0.425h-0.024c-0.181-0.381-0.562-0.381-0.948-0.381
	c-0.744,0-1.121,0.204-1.121,0.937c0,0.832,0.441,0.979,1.121,0.979c0.368,0,0.825,0,0.973-0.451V777.138 M212.846,775.771
	c0.375,0,0.701,0,0.701,0.389c0,0.4-0.296,0.432-0.701,0.432c-0.491,0-0.664-0.037-0.664-0.432
	C212.182,775.771,212.46,775.771,212.846,775.771"/>
<path fill="#231F20" d="M214.884,774.038v3.1h0.728v-1.892c0-0.397,0.135-0.648,0.599-0.648c0.372,0,0.402,0.181,0.402,0.49v0.158
	h0.728v-0.245c0-0.578-0.168-0.963-0.854-0.963c-0.381,0-0.718,0.097-0.875,0.429v-0.429H214.884"/>
<path fill="#231F20" d="M218.402,775.314c0-0.574,0.042-0.717,0.674-0.717c0.599,0,0.691,0.05,0.691,0.717H218.402 M219.767,776.166
	c0,0.425-0.285,0.425-0.691,0.425c-0.657,0-0.674-0.198-0.674-0.82h2.093c0-1.359-0.168-1.732-1.419-1.732
	c-1.229,0-1.402,0.488-1.402,1.606c0,1.136,0.238,1.493,1.402,1.493c0.869,0,1.419-0.046,1.419-0.972H219.767"/>
<path fill="#231F20" d="M222.75,774.585h0.384v1.597c0,0.771,0.247,0.956,1.061,0.956c0.798,0,1.032-0.279,1.032-1.204h-0.637
	c0,0.325,0.046,0.657-0.395,0.657c-0.333,0-0.333-0.13-0.333-0.415v-1.591h1.21v-0.547h-1.21v-0.708h-0.728v0.708h-0.384V774.585"/>
<path fill="#231F20" d="M225.519,774.038v3.1h0.728v-1.892c0-0.397,0.135-0.648,0.599-0.648c0.371,0,0.402,0.181,0.402,0.49v0.158
	h0.728v-0.245c0-0.578-0.168-0.963-0.854-0.963c-0.381,0-0.718,0.097-0.875,0.429v-0.429H225.519"/>
<path fill="#231F20" d="M230.354,777.138h0.728v-1.92c0-1.027-0.414-1.18-1.405-1.18c-0.694,0-1.325,0-1.325,0.907h0.728
	c0-0.378,0.266-0.406,0.597-0.406c0.634,0,0.677,0.167,0.677,0.64v0.425h-0.024c-0.181-0.381-0.562-0.381-0.948-0.381
	c-0.744,0-1.121,0.204-1.121,0.937c0,0.832,0.441,0.979,1.121,0.979c0.368,0,0.824,0,0.972-0.451V777.138 M229.654,775.771
	c0.375,0,0.701,0,0.701,0.389c0,0.4-0.295,0.432-0.701,0.432c-0.491,0-0.664-0.037-0.664-0.432
	C228.99,775.771,229.269,775.771,229.654,775.771"/>
<path fill="#231F20" d="M233.785,777.138h0.728v-4.377h-0.728v1.72h-0.017c-0.156-0.373-0.545-0.442-0.915-0.442
	c-1.041,0-1.162,0.574-1.162,1.467c0,0.931,0,1.633,1.162,1.633c0.421,0,0.75-0.09,0.932-0.479V777.138 M233.068,774.598
	c0.63,0,0.717,0.26,0.717,0.907c0,0.723,0,1.086-0.717,1.086c-0.648,0-0.648-0.399-0.648-1.086
	C232.42,774.741,232.565,774.598,233.068,774.598"/>
<path fill="#231F20" d="M235.873,775.314c0-0.574,0.042-0.717,0.674-0.717c0.599,0,0.691,0.05,0.691,0.717H235.873 M237.238,776.166
	c0,0.425-0.284,0.425-0.691,0.425c-0.657,0-0.674-0.198-0.674-0.82h2.093c0-1.359-0.168-1.732-1.419-1.732
	c-1.229,0-1.402,0.488-1.402,1.606c0,1.136,0.237,1.493,1.402,1.493c0.869,0,1.419-0.046,1.419-0.972H237.238"/>
<path fill="#231F20" d="M238.556,774.038v3.1h0.728v-1.728c0-0.543,0.124-0.813,0.75-0.813c0.425,0,0.523,0.152,0.523,0.537v2.003
	h0.728v-1.728c0-0.543,0.113-0.813,0.697-0.813c0.395,0,0.486,0.152,0.486,0.537v2.003h0.728v-2.073
	c0-0.752-0.254-1.026-1.025-1.026c-0.401,0-0.812,0.116-0.95,0.541h-0.023c-0.081-0.443-0.519-0.541-0.9-0.541
	c-0.406,0-0.843,0.087-1.015,0.473v-0.473H238.556"/>
<path fill="#231F20" d="M245.939,777.138h0.728v-1.92c0-1.027-0.414-1.18-1.405-1.18c-0.694,0-1.325,0-1.325,0.907h0.728
	c0-0.378,0.266-0.406,0.597-0.406c0.634,0,0.677,0.167,0.677,0.64v0.425h-0.024c-0.181-0.381-0.562-0.381-0.948-0.381
	c-0.744,0-1.121,0.204-1.121,0.937c0,0.832,0.441,0.979,1.121,0.979c0.368,0,0.825,0,0.972-0.451V777.138 M245.238,775.771
	c0.375,0,0.701,0,0.701,0.389c0,0.4-0.295,0.432-0.701,0.432c-0.491,0-0.664-0.037-0.664-0.432
	C244.574,775.771,244.853,775.771,245.238,775.771"/>
<path fill="#231F20" d="M247.276,774.038v3.1h0.728v-1.892c0-0.397,0.135-0.648,0.599-0.648c0.371,0,0.402,0.181,0.402,0.49v0.158
	h0.728v-0.245c0-0.578-0.168-0.963-0.854-0.963c-0.381,0-0.718,0.097-0.875,0.429v-0.429H247.276"/>
<polyline fill="#231F20" points="250.839,772.761 250.111,772.761 250.111,777.138 250.839,777.138 250.839,775.771 
	251.019,775.771 252.039,777.138 252.923,777.138 251.619,775.496 252.703,774.038 251.875,774.038 251.019,775.223 
	250.839,775.223 250.839,772.761 "/>
<path fill="#231F20" d="M255.798,774.894c0-0.855-0.714-0.855-1.288-0.855c-0.75,0-1.351,0-1.351,0.845
	c0,0.754,0.198,0.898,1.288,0.916c0.697,0.011,0.714,0.141,0.714,0.398c0,0.394-0.243,0.394-0.66,0.394
	c-0.515,0-0.614-0.05-0.614-0.478h-0.728c0,1.024,0.542,1.024,1.348,1.024c0.75,0,1.382-0.084,1.382-0.94
	c0-0.957-0.632-0.904-1.318-0.938c-0.607-0.028-0.684-0.04-0.684-0.332c0-0.388,0.256-0.388,0.627-0.388
	c0.373,0,0.556,0,0.556,0.354H255.798"/>
<path fill="#231F20" d="M259.863,774.598c0.631,0,0.683,0.186,0.683,1.006c0,0.808-0.051,0.987-0.683,0.987s-0.683-0.18-0.683-0.987
	C259.181,774.783,259.232,774.598,259.863,774.598 M259.863,774.038c-1.251,0-1.41,0.377-1.41,1.56c0,1.167,0.159,1.54,1.41,1.54
	c1.251,0,1.411-0.373,1.411-1.54C261.274,774.415,261.115,774.038,259.863,774.038"/>
<path fill="#231F20" d="M263.588,774.038h-0.745v-0.174c0-0.354,0-0.543,0.5-0.543h0.222v-0.561h-0.477
	c-0.801,0-0.974,0.301-0.974,1.017v0.261h-0.431v0.547h0.431v2.553h0.728v-2.553h0.745V774.038"/>
<rect x="266.01" y="772.761" fill="#231F20" width="0.819" height="4.377"/>
<path fill="#231F20" d="M267.618,774.038v3.1h0.728v-1.688c0-0.548,0.085-0.852,0.714-0.852c0.463,0,0.56,0.152,0.56,0.596v1.944
	h0.728v-2.02c0-0.747-0.242-1.08-1.037-1.08c-0.422,0-0.782,0.045-0.943,0.491h-0.022v-0.491H267.618"/>
<polyline fill="#231F20" points="275.377,773.449 275.377,777.138 276.196,777.138 276.196,772.761 274.835,772.761 
	273.656,776.013 273.634,776.013 272.431,772.761 271.1,772.761 271.1,777.138 271.919,777.138 271.919,773.468 273.268,777.138 
	274.027,777.138 275.377,773.449 "/>
<path fill="#231F20" d="M277.602,775.314c0-0.574,0.041-0.717,0.674-0.717c0.599,0,0.691,0.05,0.691,0.717H277.602 M278.967,776.166
	c0,0.425-0.284,0.425-0.691,0.425c-0.657,0-0.674-0.198-0.674-0.82h2.093c0-1.359-0.168-1.732-1.419-1.732
	c-1.229,0-1.402,0.488-1.402,1.606c0,1.136,0.237,1.493,1.402,1.493c0.869,0,1.419-0.046,1.419-0.972H278.967"/>
<path fill="#231F20" d="M282.287,777.138h0.728v-4.377h-0.728v1.72h-0.017c-0.156-0.373-0.545-0.442-0.915-0.442
	c-1.041,0-1.162,0.574-1.162,1.467c0,0.931,0,1.633,1.162,1.633c0.421,0,0.75-0.09,0.932-0.479V777.138 M281.57,774.598
	c0.63,0,0.717,0.26,0.717,0.907c0,0.723,0,1.086-0.717,1.086c-0.648,0-0.648-0.399-0.648-1.086
	C280.921,774.741,281.066,774.598,281.57,774.598"/>
<path fill="#231F20" d="M284.466,772.761h-0.728v0.625h0.728V772.761 M284.466,774.038h-0.728v3.1h0.728V774.038"/>
<path fill="#231F20" d="M287.114,777.138h0.728v-1.92c0-1.027-0.414-1.18-1.405-1.18c-0.694,0-1.325,0-1.325,0.907h0.728
	c0-0.378,0.266-0.406,0.597-0.406c0.634,0,0.677,0.167,0.677,0.64v0.425h-0.024c-0.18-0.381-0.562-0.381-0.948-0.381
	c-0.744,0-1.12,0.204-1.12,0.937c0,0.832,0.44,0.979,1.12,0.979c0.368,0,0.825,0,0.973-0.451V777.138 M286.413,775.771
	c0.375,0,0.701,0,0.701,0.389c0,0.4-0.296,0.432-0.701,0.432c-0.491,0-0.664-0.037-0.664-0.432
	C285.749,775.771,286.028,775.771,286.413,775.771"/>
<path fill="#231F20" d="M289.361,774.949v-1.47h1.131c0.581,0,0.689,0.109,0.689,0.718c0,0.631-0.143,0.752-0.726,0.752H289.361
	 M290.634,775.679c0.398,0,0.547,0.26,0.547,0.633v0.826H292v-0.825c0-0.623-0.148-0.948-0.753-1.001v-0.024
	c0.753-0.111,0.753-0.584,0.753-1.223c0-1.003-0.35-1.304-1.263-1.304h-2.195v4.377h0.819v-1.459H290.634"/>
<path fill="#231F20" d="M293.385,775.314c0-0.574,0.041-0.717,0.674-0.717c0.599,0,0.691,0.05,0.691,0.717H293.385 M294.75,776.166
	c0,0.425-0.284,0.425-0.691,0.425c-0.657,0-0.674-0.198-0.674-0.82h2.093c0-1.359-0.168-1.732-1.419-1.732
	c-1.229,0-1.402,0.488-1.402,1.606c0,1.136,0.237,1.493,1.402,1.493c0.869,0,1.419-0.046,1.419-0.972H294.75"/>
<path fill="#231F20" d="M298.615,774.894c0-0.855-0.714-0.855-1.288-0.855c-0.749,0-1.351,0-1.351,0.845
	c0,0.754,0.198,0.898,1.288,0.916c0.697,0.011,0.714,0.141,0.714,0.398c0,0.394-0.243,0.394-0.66,0.394
	c-0.515,0-0.614-0.05-0.614-0.478h-0.728c0,1.024,0.542,1.024,1.348,1.024c0.751,0,1.382-0.084,1.382-0.94
	c0-0.957-0.633-0.904-1.318-0.938c-0.607-0.028-0.684-0.04-0.684-0.332c0-0.388,0.256-0.388,0.627-0.388
	c0.373,0,0.556,0,0.556,0.354H298.615"/>
<path fill="#231F20" d="M302.18,774.949v-1.47h1.101c0.631,0,0.719,0.169,0.719,0.767c0,0.595-0.117,0.703-0.719,0.703H302.18
	 M301.361,777.138h0.819v-1.459h1.09c1.136,0,1.548-0.212,1.548-1.433c0-1.209-0.379-1.485-1.538-1.485h-1.92V777.138"/>
<path fill="#231F20" d="M305.265,774.038v3.1h0.728v-1.892c0-0.397,0.135-0.648,0.599-0.648c0.371,0,0.402,0.181,0.402,0.49v0.158
	h0.729v-0.245c0-0.578-0.168-0.963-0.854-0.963c-0.382,0-0.719,0.097-0.875,0.429v-0.429H305.265"/>
<path fill="#231F20" d="M309.466,774.598c0.631,0,0.683,0.186,0.683,1.006c0,0.808-0.052,0.987-0.683,0.987
	c-0.632,0-0.683-0.18-0.683-0.987C308.783,774.783,308.834,774.598,309.466,774.598 M309.466,774.038c-1.251,0-1.41,0.377-1.41,1.56
	c0,1.167,0.159,1.54,1.41,1.54s1.41-0.373,1.41-1.54C310.876,774.415,310.717,774.038,309.466,774.038"/>
<path fill="#231F20" d="M313.537,777.138h0.729v-4.377h-0.729v1.72h-0.017c-0.156-0.373-0.545-0.442-0.915-0.442
	c-1.04,0-1.161,0.574-1.161,1.467c0,0.931,0,1.633,1.161,1.633c0.421,0,0.75-0.09,0.932-0.479V777.138 M312.82,774.598
	c0.63,0,0.717,0.26,0.717,0.907c0,0.723,0,1.086-0.717,1.086c-0.648,0-0.648-0.399-0.648-1.086
	C312.172,774.741,312.317,774.598,312.82,774.598"/>
<path fill="#231F20" d="M317.719,777.138v-3.1h-0.728v1.777c0,0.534-0.184,0.775-0.755,0.775c-0.479,0-0.52-0.17-0.52-0.609v-1.943
	h-0.728v2.218c0,0.671,0.409,0.882,1.022,0.882c0.425,0,0.809-0.097,0.979-0.493v0.493H317.719"/>
<path fill="#231F20" d="M320.354,775.955c0,0.531-0.058,0.636-0.65,0.636c-0.623,0-0.623-0.236-0.623-0.994
	c0-0.779,0-0.999,0.623-0.999c0.507,0,0.65,0.081,0.65,0.543h0.729c0-0.963-0.479-1.103-1.379-1.103
	c-1.185,0-1.352,0.492-1.352,1.56c0,1.218,0.242,1.54,1.352,1.54c1.021,0,1.379-0.195,1.379-1.183H320.354"/>
<path fill="#231F20" d="M321.268,774.585h0.385v1.597c0,0.771,0.247,0.956,1.061,0.956c0.798,0,1.032-0.279,1.032-1.204h-0.638
	c0,0.325,0.046,0.657-0.395,0.657c-0.333,0-0.333-0.13-0.333-0.415v-1.591h1.21v-0.547h-1.21v-0.708h-0.728v0.708h-0.385V774.585"/>
<path fill="#231F20" d="M324.854,772.761h-0.728v0.625h0.728V772.761 M324.854,774.038h-0.728v3.1h0.728V774.038"/>
<path fill="#231F20" d="M326.82,774.598c0.632,0,0.683,0.186,0.683,1.006c0,0.808-0.051,0.987-0.683,0.987
	c-0.631,0-0.682-0.18-0.682-0.987C326.139,774.783,326.189,774.598,326.82,774.598 M326.82,774.038c-1.251,0-1.41,0.377-1.41,1.56
	c0,1.167,0.159,1.54,1.41,1.54c1.252,0,1.411-0.373,1.411-1.54C328.231,774.415,328.072,774.038,326.82,774.038"/>
<path fill="#231F20" d="M328.891,774.038v3.1h0.729v-1.688c0-0.548,0.085-0.852,0.714-0.852c0.463,0,0.56,0.152,0.56,0.596v1.944
	h0.729v-2.02c0-0.747-0.242-1.08-1.037-1.08c-0.422,0-0.782,0.045-0.942,0.491h-0.022v-0.491H328.891"/>
<path fill="#231F20" d="M332.497,777.867h0.148c0.638,0,0.638-0.352,0.638-0.829v-0.688h-0.728v0.788h0.299
	c0,0.305-0.137,0.365-0.357,0.365V777.867"/>
<polyline fill="#231F20" points="337.292,772.761 336.474,772.761 336.474,777.138 339.331,777.138 339.331,776.42 337.292,776.42 
	337.292,772.761 "/>
<polyline fill="#231F20" points="340.583,772.761 339.764,772.761 339.764,777.138 342.622,777.138 342.622,776.42 340.583,776.42 
	340.583,772.761 "/>
<path fill="#231F20" d="M346.513,774.246v-0.235c-0.06-1.25-0.705-1.25-1.793-1.25c-1.3,0-1.848,0.313-1.848,1.697v0.983
	c0,1.255,0.279,1.755,1.848,1.696c1.082-0.006,1.793,0,1.793-1.295v-0.281h-0.819v0.234c0,0.612-0.268,0.612-0.974,0.612
	c-0.919,0-1.028-0.162-1.028-1.001v-0.949c0-0.842,0.151-0.979,1.028-0.979c0.766,0,0.974,0.034,0.974,0.531v0.235H346.513"/>
<rect x="347.29" y="776.339" fill="#231F20" width="0.728" height="0.799"/>
<path fill="#231F20" d="M352.027,774.949v-1.47h1.101c0.631,0,0.719,0.169,0.719,0.767c0,0.595-0.116,0.703-0.719,0.703H352.027
	 M351.208,777.138h0.819v-1.459h1.09c1.137,0,1.549-0.212,1.549-1.433c0-1.209-0.38-1.485-1.538-1.485h-1.92V777.138"/>
<path fill="#231F20" d="M355.84,775.314c0-0.574,0.041-0.717,0.675-0.717c0.598,0,0.69,0.05,0.69,0.717H355.84 M357.205,776.166
	c0,0.425-0.284,0.425-0.69,0.425c-0.657,0-0.675-0.198-0.675-0.82h2.093c0-1.359-0.167-1.732-1.418-1.732
	c-1.229,0-1.402,0.488-1.402,1.606c0,1.136,0.237,1.493,1.402,1.493c0.868,0,1.418-0.046,1.418-0.972H357.205"/>
<path fill="#231F20" d="M358.432,774.038v3.1h0.729v-1.892c0-0.397,0.135-0.648,0.599-0.648c0.371,0,0.402,0.181,0.402,0.49v0.158
	h0.728v-0.245c0-0.578-0.168-0.963-0.854-0.963c-0.381,0-0.718,0.097-0.874,0.429v-0.429H358.432"/>
<path fill="#231F20" d="M361.313,774.038v3.1h0.728v-1.728c0-0.543,0.124-0.813,0.751-0.813c0.425,0,0.523,0.152,0.523,0.537v2.003
	h0.728v-1.728c0-0.543,0.114-0.813,0.697-0.813c0.396,0,0.486,0.152,0.486,0.537v2.003h0.728v-2.073
	c0-0.752-0.255-1.026-1.025-1.026c-0.4,0-0.812,0.116-0.949,0.541h-0.022c-0.082-0.443-0.52-0.541-0.9-0.541
	c-0.407,0-0.844,0.087-1.016,0.473v-0.473H361.313"/>
<path fill="#231F20" d="M367.422,772.761h-0.729v0.625h0.729V772.761 M367.422,774.038h-0.729v3.1h0.729V774.038"/>
<path fill="#231F20" d="M370.616,774.894c0-0.855-0.714-0.855-1.288-0.855c-0.75,0-1.352,0-1.352,0.845
	c0,0.754,0.198,0.898,1.288,0.916c0.697,0.011,0.714,0.141,0.714,0.398c0,0.394-0.243,0.394-0.659,0.394
	c-0.515,0-0.614-0.05-0.614-0.478h-0.729c0,1.024,0.542,1.024,1.349,1.024c0.75,0,1.382-0.084,1.382-0.94
	c0-0.957-0.633-0.904-1.318-0.938c-0.606-0.028-0.684-0.04-0.684-0.332c0-0.388,0.256-0.388,0.627-0.388
	c0.373,0,0.556,0,0.556,0.354H370.616"/>
<path fill="#231F20" d="M373.86,774.894c0-0.855-0.714-0.855-1.288-0.855c-0.75,0-1.351,0-1.351,0.845
	c0,0.754,0.197,0.898,1.288,0.916c0.696,0.011,0.714,0.141,0.714,0.398c0,0.394-0.243,0.394-0.66,0.394
	c-0.515,0-0.614-0.05-0.614-0.478h-0.728c0,1.024,0.541,1.024,1.348,1.024c0.751,0,1.382-0.084,1.382-0.94
	c0-0.957-0.633-0.904-1.318-0.938c-0.606-0.028-0.684-0.04-0.684-0.332c0-0.388,0.256-0.388,0.627-0.388
	c0.373,0,0.556,0,0.556,0.354H373.86"/>
<path fill="#231F20" d="M375.284,772.761h-0.729v0.625h0.729V772.761 M375.284,774.038h-0.729v3.1h0.729V774.038"/>
<path fill="#231F20" d="M377.25,774.598c0.631,0,0.683,0.186,0.683,1.006c0,0.808-0.052,0.987-0.683,0.987
	c-0.632,0-0.683-0.18-0.683-0.987C376.567,774.783,376.618,774.598,377.25,774.598 M377.25,774.038c-1.251,0-1.411,0.377-1.411,1.56
	c0,1.167,0.16,1.54,1.411,1.54s1.41-0.373,1.41-1.54C378.66,774.415,378.501,774.038,377.25,774.038"/>
<path fill="#231F20" d="M379.32,774.038v3.1h0.728v-1.688c0-0.548,0.085-0.852,0.714-0.852c0.464,0,0.561,0.152,0.561,0.596v1.944
	h0.728v-2.02c0-0.747-0.242-1.08-1.036-1.08c-0.423,0-0.782,0.045-0.943,0.491h-0.022v-0.491H379.32"/>
<path fill="#231F20" d="M384.469,774.585h0.384v1.597c0,0.771,0.247,0.956,1.061,0.956c0.798,0,1.032-0.279,1.032-1.204h-0.637
	c0,0.325,0.045,0.657-0.396,0.657c-0.333,0-0.333-0.13-0.333-0.415v-1.591h1.211v-0.547h-1.211v-0.708h-0.728v0.708h-0.384V774.585"
	/>
<path fill="#231F20" d="M388.647,774.598c0.631,0,0.683,0.186,0.683,1.006c0,0.808-0.052,0.987-0.683,0.987s-0.683-0.18-0.683-0.987
	C387.965,774.783,388.017,774.598,388.647,774.598 M388.647,774.038c-1.251,0-1.41,0.377-1.41,1.56c0,1.167,0.159,1.54,1.41,1.54
	s1.41-0.373,1.41-1.54C390.058,774.415,389.898,774.038,388.647,774.038"/>
<path fill="#231F20" d="M393.495,774.038h-0.728v4.468h0.728v-1.801h0.028c0.155,0.364,0.539,0.433,0.906,0.433
	c1.038,0,1.158-0.569,1.158-1.454c0-0.931,0-1.646-1.158-1.646c-0.421,0-0.752,0.092-0.935,0.491V774.038 M394.218,776.591
	c-0.624,0-0.723-0.26-0.723-0.907c0-0.723,0-1.086,0.723-1.086c0.643,0,0.643,0.398,0.643,1.086
	C394.86,776.447,394.717,776.591,394.218,776.591"/>
<path fill="#231F20" d="M396.967,772.761h-0.729v4.377h0.729v-1.688c0-0.548,0.085-0.852,0.714-0.852c0.463,0,0.56,0.152,0.56,0.596
	v1.944h0.729v-2.02c0-0.747-0.242-1.08-1.037-1.08c-0.422,0-0.782,0.047-0.942,0.495h-0.022V772.761"/>
<path fill="#231F20" d="M401.041,774.598c0.631,0,0.683,0.186,0.683,1.006c0,0.808-0.052,0.987-0.683,0.987
	c-0.632,0-0.683-0.18-0.683-0.987C400.358,774.783,400.409,774.598,401.041,774.598 M401.041,774.038
	c-1.252,0-1.411,0.377-1.411,1.56c0,1.167,0.159,1.54,1.411,1.54c1.251,0,1.41-0.373,1.41-1.54
	C402.451,774.415,402.292,774.038,401.041,774.038"/>
<path fill="#231F20" d="M402.727,774.585h0.384v1.597c0,0.771,0.247,0.956,1.061,0.956c0.798,0,1.032-0.279,1.032-1.204h-0.637
	c0,0.325,0.045,0.657-0.396,0.657c-0.333,0-0.333-0.13-0.333-0.415v-1.591h1.211v-0.547h-1.211v-0.708h-0.728v0.708h-0.384V774.585"
	/>
<path fill="#231F20" d="M406.905,774.598c0.631,0,0.683,0.186,0.683,1.006c0,0.808-0.052,0.987-0.683,0.987s-0.683-0.18-0.683-0.987
	C406.223,774.783,406.274,774.598,406.905,774.598 M406.905,774.038c-1.251,0-1.41,0.377-1.41,1.56c0,1.167,0.159,1.54,1.41,1.54
	s1.41-0.373,1.41-1.54C408.315,774.415,408.156,774.038,406.905,774.038"/>
<path fill="#231F20" d="M410.887,775.955c0,0.531-0.059,0.636-0.651,0.636c-0.623,0-0.623-0.236-0.623-0.994
	c0-0.779,0-0.999,0.623-0.999c0.508,0,0.651,0.081,0.651,0.543h0.728c0-0.963-0.479-1.103-1.379-1.103
	c-1.185,0-1.351,0.492-1.351,1.56c0,1.218,0.241,1.54,1.351,1.54c1.021,0,1.379-0.195,1.379-1.183H410.887"/>
<path fill="#231F20" d="M413.504,774.598c0.631,0,0.683,0.186,0.683,1.006c0,0.808-0.052,0.987-0.683,0.987s-0.683-0.18-0.683-0.987
	C412.821,774.783,412.873,774.598,413.504,774.598 M413.504,774.038c-1.251,0-1.41,0.377-1.41,1.56c0,1.167,0.159,1.54,1.41,1.54
	s1.41-0.373,1.41-1.54C414.914,774.415,414.755,774.038,413.504,774.038"/>
<path fill="#231F20" d="M416.302,774.038h-0.728v4.468h0.728v-1.801h0.028c0.155,0.364,0.539,0.433,0.906,0.433
	c1.038,0,1.158-0.569,1.158-1.454c0-0.931,0-1.646-1.158-1.646c-0.421,0-0.752,0.092-0.935,0.491V774.038 M417.024,776.591
	c-0.624,0-0.723-0.26-0.723-0.907c0-0.723,0-1.086,0.723-1.086c0.643,0,0.643,0.398,0.643,1.086
	C417.667,776.447,417.523,776.591,417.024,776.591"/>
<path fill="#231F20" d="M421.593,774.038h-0.754l-0.6,2.64h-0.012l-0.782-2.64h-0.765l1.018,3.1h0.358
	c-0.065,0.365-0.135,0.82-0.6,0.82c-0.053,0-0.106-0.013-0.159-0.018v0.565c0.106,0,0.212,0,0.318,0c0.864,0,1.005-0.549,1.176-1.25
	L421.593,774.038"/>
<path fill="#231F20" d="M425.574,774.038h-0.744v-0.174c0-0.354,0-0.543,0.5-0.543h0.222v-0.561h-0.477
	c-0.8,0-0.974,0.301-0.974,1.017v0.261h-0.431v0.547h0.431v2.553h0.729v-2.553h0.744V774.038"/>
<path fill="#231F20" d="M427.266,774.598c0.631,0,0.683,0.186,0.683,1.006c0,0.808-0.052,0.987-0.683,0.987
	c-0.632,0-0.683-0.18-0.683-0.987C426.583,774.783,426.634,774.598,427.266,774.598 M427.266,774.038c-1.251,0-1.41,0.377-1.41,1.56
	c0,1.167,0.159,1.54,1.41,1.54s1.41-0.373,1.41-1.54C428.676,774.415,428.517,774.038,427.266,774.038"/>
<path fill="#231F20" d="M429.244,774.038v3.1h0.729v-1.892c0-0.397,0.135-0.648,0.599-0.648c0.371,0,0.402,0.181,0.402,0.49v0.158
	h0.728v-0.245c0-0.578-0.168-0.963-0.854-0.963c-0.381,0-0.718,0.097-0.874,0.429v-0.429H429.244"/>
<path fill="#231F20" d="M434.856,774.038h-0.728v4.468h0.728v-1.801h0.028c0.155,0.364,0.539,0.433,0.906,0.433
	c1.038,0,1.158-0.569,1.158-1.454c0-0.931,0-1.646-1.158-1.646c-0.421,0-0.753,0.092-0.935,0.491V774.038 M435.579,776.591
	c-0.625,0-0.723-0.26-0.723-0.907c0-0.723,0-1.086,0.723-1.086c0.643,0,0.643,0.398,0.643,1.086
	C436.222,776.447,436.078,776.591,435.579,776.591"/>
<path fill="#231F20" d="M438.236,775.314c0-0.574,0.041-0.717,0.674-0.717c0.599,0,0.691,0.05,0.691,0.717H438.236 M439.602,776.166
	c0,0.425-0.284,0.425-0.691,0.425c-0.656,0-0.674-0.198-0.674-0.82h2.093c0-1.359-0.167-1.732-1.419-1.732
	c-1.229,0-1.401,0.488-1.401,1.606c0,1.136,0.237,1.493,1.401,1.493c0.869,0,1.419-0.046,1.419-0.972H439.602"/>
<path fill="#231F20" d="M440.828,774.038v3.1h0.729v-1.892c0-0.397,0.135-0.648,0.599-0.648c0.371,0,0.402,0.181,0.402,0.49v0.158
	h0.728v-0.245c0-0.578-0.168-0.963-0.854-0.963c-0.381,0-0.718,0.097-0.874,0.429v-0.429H440.828"/>
<path fill="#231F20" d="M446.21,774.894c0-0.855-0.714-0.855-1.288-0.855c-0.749,0-1.351,0-1.351,0.845
	c0,0.754,0.198,0.898,1.288,0.916c0.697,0.011,0.714,0.141,0.714,0.398c0,0.394-0.243,0.394-0.659,0.394
	c-0.515,0-0.614-0.05-0.614-0.478h-0.729c0,1.024,0.542,1.024,1.348,1.024c0.751,0,1.383-0.084,1.383-0.94
	c0-0.957-0.633-0.904-1.318-0.938c-0.607-0.028-0.684-0.04-0.684-0.332c0-0.388,0.256-0.388,0.627-0.388
	c0.372,0,0.556,0,0.556,0.354H446.21"/>
<path fill="#231F20" d="M448.226,774.598c0.632,0,0.683,0.186,0.683,1.006c0,0.808-0.051,0.987-0.683,0.987
	c-0.631,0-0.683-0.18-0.683-0.987C447.543,774.783,447.595,774.598,448.226,774.598 M448.226,774.038c-1.251,0-1.41,0.377-1.41,1.56
	c0,1.167,0.159,1.54,1.41,1.54s1.411-0.373,1.411-1.54C449.637,774.415,449.477,774.038,448.226,774.038"/>
<path fill="#231F20" d="M450.296,774.038v3.1h0.728v-1.688c0-0.548,0.086-0.852,0.714-0.852c0.464,0,0.561,0.152,0.561,0.596v1.944
	h0.728v-2.02c0-0.747-0.241-1.08-1.036-1.08c-0.422,0-0.782,0.045-0.942,0.491h-0.023v-0.491H450.296"/>
<path fill="#231F20" d="M455.78,777.138h0.729v-1.92c0-1.027-0.414-1.18-1.405-1.18c-0.693,0-1.325,0-1.325,0.907h0.729
	c0-0.378,0.266-0.406,0.597-0.406c0.635,0,0.677,0.167,0.677,0.64v0.425h-0.023c-0.181-0.381-0.562-0.381-0.948-0.381
	c-0.744,0-1.121,0.204-1.121,0.937c0,0.832,0.441,0.979,1.121,0.979c0.368,0,0.824,0,0.972-0.451V777.138 M455.08,775.771
	c0.375,0,0.7,0,0.7,0.389c0,0.4-0.295,0.432-0.7,0.432c-0.491,0-0.664-0.037-0.664-0.432
	C454.416,775.771,454.694,775.771,455.08,775.771"/>
<rect x="457.209" y="772.761" fill="#231F20" width="0.729" height="4.377"/>
<path fill="#231F20" d="M463.456,777.138v-3.1h-0.728v1.777c0,0.534-0.184,0.775-0.755,0.775c-0.478,0-0.52-0.17-0.52-0.609v-1.943
	h-0.728v2.218c0,0.671,0.409,0.882,1.022,0.882c0.425,0,0.809-0.097,0.979-0.493v0.493H463.456"/>
<path fill="#231F20" d="M466.729,774.894c0-0.855-0.714-0.855-1.288-0.855c-0.75,0-1.352,0-1.352,0.845
	c0,0.754,0.198,0.898,1.288,0.916c0.697,0.011,0.714,0.141,0.714,0.398c0,0.394-0.243,0.394-0.659,0.394
	c-0.515,0-0.614-0.05-0.614-0.478h-0.729c0,1.024,0.542,1.024,1.349,1.024c0.75,0,1.382-0.084,1.382-0.94
	c0-0.957-0.633-0.904-1.318-0.938c-0.606-0.028-0.684-0.04-0.684-0.332c0-0.388,0.256-0.388,0.627-0.388
	c0.372,0,0.556,0,0.556,0.354H466.729"/>
<path fill="#231F20" d="M468.061,775.314c0-0.574,0.042-0.717,0.675-0.717c0.599,0,0.69,0.05,0.69,0.717H468.061 M469.426,776.166
	c0,0.425-0.284,0.425-0.69,0.425c-0.657,0-0.675-0.198-0.675-0.82h2.094c0-1.359-0.168-1.732-1.419-1.732
	c-1.229,0-1.402,0.488-1.402,1.606c0,1.136,0.237,1.493,1.402,1.493c0.868,0,1.419-0.046,1.419-0.972H469.426"/>
<rect x="470.926" y="776.339" fill="#231F20" width="0.728" height="0.799"/>
</svg>
