<?xml version="1.0" encoding="utf-8"?>
<!-- Generator: Adobe Illustrator 15.1.0, SVG Export Plug-In . SVG Version: 6.00 Build 0)  -->
<!DOCTYPE svg PUBLIC "-//W3C//DTD SVG 1.0//EN" "http://www.w3.org/TR/2001/REC-SVG-20010904/DTD/svg10.dtd">
<svg version="1.0" id="Layer_1" xmlns="http://www.w3.org/2000/svg" xmlns:xlink="http://www.w3.org/1999/xlink" x="0px" y="0px"
	 width="612px" height="792px" viewBox="0 0 612 792" enable-background="new 0 0 612 792" xml:space="preserve">
<path fill="none" stroke="#434344" stroke-width="0.581" d="M409.507,451.511c0,1.635,1.329,2.961,2.96,2.961
	c1.635,0,2.961-1.326,2.961-2.961c0-1.636-1.326-2.962-2.961-2.962C410.836,448.549,409.507,449.875,409.507,451.511"/>
<path fill="none" stroke="#434344" stroke-width="0.581" d="M409.507,419.812c0,1.636,1.329,2.962,2.96,2.962
	c1.635,0,2.961-1.326,2.961-2.962c0-1.633-1.326-2.959-2.961-2.959C410.836,416.853,409.507,418.179,409.507,419.812"/>
<path fill="none" stroke="#434344" stroke-width="0.581" d="M409.507,388.116c0,1.634,1.329,2.96,2.96,2.96
	c1.635,0,2.961-1.326,2.961-2.96c0-1.635-1.326-2.962-2.961-2.962C410.836,385.154,409.507,386.481,409.507,388.116"/>
<path fill="none" stroke="#434344" stroke-width="0.581" d="M409.507,324.723c0,1.635,1.329,2.961,2.96,2.961
	c1.635,0,2.961-1.326,2.961-2.961c0-1.636-1.326-2.962-2.961-2.962C410.836,321.761,409.507,323.087,409.507,324.723"/>
<path fill="none" stroke="#434344" stroke-width="0.581" d="M409.507,356.419c0,1.635,1.329,2.961,2.96,2.961
	c1.635,0,2.961-1.326,2.961-2.961c0-1.637-1.326-2.962-2.961-2.962C410.836,353.458,409.507,354.782,409.507,356.419"/>
<path fill="none" stroke="#434344" stroke-width="0.581" d="M409.507,293.024c0,1.634,1.329,2.96,2.96,2.96
	c1.635,0,2.961-1.326,2.961-2.96c0-1.632-1.326-2.96-2.961-2.96C410.836,290.064,409.507,291.393,409.507,293.024"/>
<path fill="none" stroke="#434344" stroke-width="0.581" d="M409.507,229.631c0,1.634,1.329,2.96,2.96,2.96
	c1.635,0,2.961-1.326,2.961-2.96s-1.326-2.961-2.961-2.961C410.836,226.669,409.507,227.997,409.507,229.631"/>
<path fill="none" stroke="#434344" stroke-width="0.581" d="M409.507,174.101c0,1.633,1.329,2.96,2.96,2.96
	c1.635,0,2.961-1.327,2.961-2.96c0-1.635-1.326-2.961-2.961-2.961C410.836,171.139,409.507,172.465,409.507,174.101"/>
<path fill="none" stroke="#434344" stroke-width="0.581" d="M409.507,158.25c0,1.637,1.329,2.962,2.96,2.962
	c1.635,0,2.961-1.325,2.961-2.962c0-1.633-1.326-2.959-2.961-2.959C410.836,155.291,409.507,156.617,409.507,158.25"/>
<path fill="none" stroke="#434344" stroke-width="0.581" d="M418.26,174.099c0,1.634,1.328,2.961,2.959,2.961
	c1.636,0,2.962-1.327,2.962-2.961c0-1.635-1.326-2.962-2.962-2.962C419.588,171.137,418.26,172.464,418.26,174.099"/>
<path fill="none" stroke="#434344" stroke-width="0.581" d="M427.013,174.13c0,1.634,1.327,2.96,2.961,2.96s2.96-1.326,2.96-2.96
	c0-1.636-1.326-2.962-2.96-2.962S427.013,172.494,427.013,174.13"/>
<path fill="none" stroke="#434344" stroke-width="0.581" d="M409.507,261.328c0,1.637,1.329,2.961,2.96,2.961
	c1.635,0,2.961-1.325,2.961-2.961c0-1.632-1.326-2.96-2.961-2.96C410.836,258.367,409.507,259.696,409.507,261.328"/>
<path fill="none" stroke="#434344" stroke-width="0.581" d="M409.507,197.934c0,1.634,1.329,2.96,2.96,2.96
	c1.635,0,2.961-1.326,2.961-2.96c0-1.636-1.326-2.961-2.961-2.961C410.836,194.973,409.507,196.298,409.507,197.934"/>
<path fill="none" stroke="#434344" stroke-width="0.581" d="M418.26,451.475c0,1.635,1.328,2.962,2.959,2.962
	c1.636,0,2.962-1.327,2.962-2.962c0-1.634-1.326-2.96-2.962-2.96C419.588,448.515,418.26,449.841,418.26,451.475"/>
<path fill="none" stroke="#434344" stroke-width="0.581" d="M418.26,475.247c0-1.636,1.328-2.962,2.959-2.962
	c1.636,0,2.962,1.326,2.962,2.962c0,1.634-1.326,2.96-2.962,2.96C419.588,478.207,418.26,476.881,418.26,475.247"/>
<path fill="none" stroke="#434344" stroke-width="0.581" d="M418.26,419.783c0,1.635,1.328,2.961,2.959,2.961
	c1.636,0,2.962-1.326,2.962-2.961s-1.326-2.961-2.962-2.961C419.588,416.822,418.26,418.148,418.26,419.783"/>
<path fill="none" stroke="#434344" stroke-width="0.581" d="M418.26,388.09c0,1.634,1.328,2.961,2.959,2.961
	c1.636,0,2.962-1.327,2.962-2.961c0-1.635-1.326-2.962-2.962-2.962C419.588,385.128,418.26,386.455,418.26,388.09"/>
<path fill="none" stroke="#434344" stroke-width="0.581" d="M418.26,324.703c0,1.637,1.328,2.962,2.959,2.962
	c1.636,0,2.962-1.325,2.962-2.962c0-1.636-1.326-2.961-2.962-2.961C419.588,321.742,418.26,323.067,418.26,324.703"/>
<path fill="none" stroke="#434344" stroke-width="0.581" d="M418.26,356.396c0,1.634,1.328,2.96,2.959,2.96
	c1.636,0,2.962-1.326,2.962-2.96c0-1.636-1.326-2.96-2.962-2.96C419.588,353.436,418.26,354.761,418.26,356.396"/>
<path fill="none" stroke="#434344" stroke-width="0.581" d="M418.26,293.01c0,1.635,1.328,2.961,2.959,2.961
	c1.636,0,2.962-1.326,2.962-2.961c0-1.633-1.326-2.96-2.962-2.96C419.588,290.05,418.26,291.377,418.26,293.01"/>
<path fill="none" stroke="#434344" stroke-width="0.581" d="M418.26,229.625c0,1.634,1.328,2.96,2.959,2.96
	c1.636,0,2.962-1.326,2.962-2.96c0-1.636-1.326-2.962-2.962-2.962C419.588,226.663,418.26,227.989,418.26,229.625"/>
<path fill="none" stroke="#434344" stroke-width="0.581" d="M418.26,261.317c0,1.638,1.328,2.961,2.959,2.961
	c1.636,0,2.962-1.323,2.962-2.961c0-1.632-1.326-2.96-2.962-2.96C419.588,258.356,418.26,259.685,418.26,261.317"/>
<path fill="none" stroke="#434344" stroke-width="0.581" d="M418.26,197.932c0,1.634,1.328,2.96,2.959,2.96
	c1.636,0,2.962-1.326,2.962-2.96c0-1.636-1.326-2.961-2.962-2.961C419.588,194.97,418.26,196.296,418.26,197.932"/>
<path fill="none" stroke="#434344" stroke-width="0.581" d="M435.766,452.007c0,1.634,1.327,2.96,2.96,2.96
	c1.635,0,2.961-1.326,2.961-2.96c0-1.636-1.326-2.962-2.961-2.962C437.093,449.045,435.766,450.371,435.766,452.007"/>
<path fill="none" stroke="#434344" stroke-width="0.581" d="M435.766,475.824c0-1.635,1.327-2.961,2.96-2.961
	c1.635,0,2.961,1.326,2.961,2.961c0,1.636-1.326,2.96-2.961,2.96C437.093,478.784,435.766,477.46,435.766,475.824"/>
<path fill="none" stroke="#434344" stroke-width="0.581" d="M435.766,420.252c0,1.636,1.327,2.962,2.96,2.962
	c1.635,0,2.961-1.326,2.961-2.962c0-1.635-1.326-2.96-2.961-2.96C437.093,417.292,435.766,418.617,435.766,420.252"/>
<path fill="none" stroke="#434344" stroke-width="0.581" d="M435.766,388.497c0,1.634,1.327,2.96,2.96,2.96
	c1.635,0,2.961-1.326,2.961-2.96c0-1.636-1.326-2.962-2.961-2.962C437.093,385.535,435.766,386.861,435.766,388.497"/>
<path fill="none" stroke="#434344" stroke-width="0.581" d="M435.766,324.984c0,1.637,1.327,2.962,2.96,2.962
	c1.635,0,2.961-1.325,2.961-2.962c0-1.633-1.326-2.96-2.961-2.96C437.093,322.023,435.766,323.351,435.766,324.984"/>
<path fill="none" stroke="#434344" stroke-width="0.581" d="M435.766,356.741c0,1.634,1.327,2.96,2.96,2.96
	c1.635,0,2.961-1.326,2.961-2.96c0-1.637-1.326-2.961-2.961-2.961C437.093,353.779,435.766,355.104,435.766,356.741"/>
<path fill="none" stroke="#434344" stroke-width="0.581" d="M435.766,293.229c0,1.635,1.327,2.96,2.96,2.96
	c1.635,0,2.961-1.326,2.961-2.96c0-1.633-1.326-2.961-2.961-2.961C437.093,290.268,435.766,291.597,435.766,293.229"/>
<path fill="none" stroke="#434344" stroke-width="0.581" d="M435.766,229.718c0,1.636,1.327,2.962,2.96,2.962
	c1.635,0,2.961-1.326,2.961-2.962c0-1.634-1.326-2.961-2.961-2.961C437.093,226.757,435.766,228.084,435.766,229.718"/>
<path fill="none" stroke="#434344" stroke-width="0.581" d="M435.766,261.474c0,1.637,1.327,2.96,2.96,2.96
	c1.635,0,2.961-1.324,2.961-2.96c0-1.633-1.326-2.961-2.961-2.961C437.093,258.513,435.766,259.841,435.766,261.474"/>
<path fill="none" stroke="#434344" stroke-width="0.581" d="M435.766,197.963c0,1.634,1.327,2.96,2.96,2.96
	c1.635,0,2.961-1.326,2.961-2.96s-1.326-2.962-2.961-2.962C437.093,195.001,435.766,196.329,435.766,197.963"/>
<path fill="none" stroke="#434344" stroke-width="0.581" d="M427.013,452.007c0,1.634,1.327,2.96,2.961,2.96s2.96-1.326,2.96-2.96
	c0-1.636-1.326-2.962-2.96-2.962S427.013,450.371,427.013,452.007"/>
<path fill="none" stroke="#434344" stroke-width="0.581" d="M427.013,475.824c0-1.635,1.327-2.961,2.961-2.961
	s2.96,1.326,2.96,2.961c0,1.636-1.326,2.96-2.96,2.96S427.013,477.46,427.013,475.824"/>
<path fill="none" stroke="#434344" stroke-width="0.581" d="M427.013,420.252c0,1.636,1.327,2.962,2.961,2.962
	s2.96-1.326,2.96-2.962c0-1.635-1.326-2.96-2.96-2.96S427.013,418.617,427.013,420.252"/>
<path fill="none" stroke="#434344" stroke-width="0.581" d="M427.013,388.497c0,1.634,1.327,2.96,2.961,2.96s2.96-1.326,2.96-2.96
	c0-1.636-1.326-2.962-2.96-2.962S427.013,386.861,427.013,388.497"/>
<path fill="none" stroke="#434344" stroke-width="0.581" d="M427.013,324.984c0,1.637,1.327,2.962,2.961,2.962
	s2.96-1.325,2.96-2.962c0-1.633-1.326-2.96-2.96-2.96S427.013,323.351,427.013,324.984"/>
<path fill="none" stroke="#434344" stroke-width="0.581" d="M427.013,356.741c0,1.634,1.327,2.96,2.961,2.96s2.96-1.326,2.96-2.96
	c0-1.637-1.326-2.961-2.96-2.961S427.013,355.104,427.013,356.741"/>
<path fill="none" stroke="#434344" stroke-width="0.581" d="M427.013,293.229c0,1.635,1.327,2.96,2.961,2.96s2.96-1.326,2.96-2.96
	c0-1.633-1.326-2.961-2.96-2.961S427.013,291.597,427.013,293.229"/>
<path fill="none" stroke="#434344" stroke-width="0.581" d="M427.013,229.718c0,1.636,1.327,2.962,2.961,2.962
	s2.96-1.326,2.96-2.962c0-1.634-1.326-2.961-2.96-2.961S427.013,228.084,427.013,229.718"/>
<path fill="none" stroke="#434344" stroke-width="0.581" d="M427.013,261.474c0,1.637,1.327,2.96,2.961,2.96s2.96-1.324,2.96-2.96
	c0-1.633-1.326-2.961-2.96-2.961S427.013,259.841,427.013,261.474"/>
<path fill="none" stroke="#434344" stroke-width="0.581" d="M427.013,197.963c0,1.634,1.327,2.96,2.961,2.96s2.96-1.326,2.96-2.96
	s-1.326-2.962-2.96-2.962S427.013,196.329,427.013,197.963"/>
</svg>
