<?xml version="1.0" encoding="utf-8"?>
<!-- Generator: Adobe Illustrator 15.1.0, SVG Export Plug-In . SVG Version: 6.00 Build 0)  -->
<!DOCTYPE svg PUBLIC "-//W3C//DTD SVG 1.0//EN" "http://www.w3.org/TR/2001/REC-SVG-20010904/DTD/svg10.dtd">
<svg version="1.0" id="Layer_1" xmlns="http://www.w3.org/2000/svg" xmlns:xlink="http://www.w3.org/1999/xlink" x="0px" y="0px"
	 width="612px" height="792px" viewBox="0 0 612 792" enable-background="new 0 0 612 792" xml:space="preserve">
<path fill="none" stroke="#434344" stroke-width="0.581" d="M519.793,88.914c0,1.636-1.326,2.961-2.961,2.961
	c-1.636,0-2.961-1.326-2.961-2.961c0-1.634,1.325-2.959,2.961-2.959C518.467,85.955,519.793,87.281,519.793,88.914"/>
<path fill="none" stroke="#434344" stroke-width="0.581" d="M497.934,88.914c0,1.636,1.326,2.961,2.962,2.961s2.96-1.326,2.96-2.961
	c0-1.634-1.324-2.959-2.96-2.959S497.934,87.281,497.934,88.914"/>
<path fill="none" stroke="#434344" stroke-width="0.581" d="M521.839,88.914c0,1.636,1.327,2.961,2.961,2.961
	c1.635,0,2.961-1.326,2.961-2.961c0-1.634-1.326-2.959-2.961-2.959S521.839,87.281,521.839,88.914"/>
<path fill="none" stroke="#434344" stroke-width="0.581" d="M479.942,72.888c0,1.637-1.325,2.961-2.959,2.961
	c-1.639,0-2.962-1.325-2.962-2.961c0-1.632,1.323-2.958,2.962-2.958C478.617,69.93,479.942,71.256,479.942,72.888"/>
<path fill="none" stroke="#434344" stroke-width="0.581" d="M495.921,72.888c0,1.637-1.324,2.961-2.96,2.961
	s-2.963-1.325-2.963-2.961c0-1.632,1.327-2.958,2.963-2.958S495.921,71.256,495.921,72.888"/>
<path fill="none" stroke="#434344" stroke-width="0.581" d="M482.01,72.888c0,1.637,1.327,2.961,2.96,2.961
	c1.638,0,2.963-1.325,2.963-2.961c0-1.632-1.325-2.958-2.963-2.958C483.337,69.93,482.01,71.256,482.01,72.888"/>
<path fill="none" stroke="#434344" stroke-width="0.581" d="M497.988,72.888c0,1.637,1.326,2.961,2.961,2.961
	c1.637,0,2.961-1.325,2.961-2.961c0-1.632-1.324-2.958-2.961-2.958C499.314,69.93,497.988,71.256,497.988,72.888"/>
<path fill="none" stroke="#434344" stroke-width="0.581" d="M466.068,136.99c0,1.635,1.323,2.961,2.96,2.961
	c1.633,0,2.96-1.326,2.96-2.961c0-1.634-1.327-2.959-2.96-2.959C467.392,134.03,466.068,135.355,466.068,136.99 M479.966,136.99
	c0,1.635-1.326,2.961-2.96,2.961c-1.637,0-2.959-1.326-2.959-2.961c0-1.634,1.322-2.959,2.959-2.959
	C478.639,134.03,479.966,135.355,479.966,136.99 M464.013,136.99c0,1.635-1.326,2.961-2.962,2.961c-1.632,0-2.959-1.326-2.959-2.961
	c0-1.634,1.327-2.959,2.959-2.959C462.687,134.03,464.013,135.355,464.013,136.99 M450.115,136.99c0,1.635,1.327,2.961,2.96,2.961
	c1.637,0,2.961-1.326,2.961-2.961c0-1.634-1.324-2.959-2.961-2.959C451.442,134.03,450.115,135.355,450.115,136.99 M448.061,136.99
	c0,1.635-1.324,2.961-2.961,2.961c-1.635,0-2.961-1.326-2.961-2.961c0-1.634,1.326-2.959,2.961-2.959
	C446.736,134.03,448.061,135.355,448.061,136.99 M434.162,136.99c0,1.635,1.326,2.961,2.962,2.961s2.963-1.326,2.963-2.961
	c0-1.634-1.327-2.959-2.963-2.959C435.488,134.03,434.162,135.355,434.162,136.99 M495.92,136.99c0,1.635-1.326,2.961-2.961,2.961
	c-1.636,0-2.963-1.326-2.963-2.961c0-1.634,1.327-2.959,2.963-2.959C494.594,134.031,495.92,135.355,495.92,136.99 M482.02,136.99
	c0,1.635,1.326,2.961,2.962,2.961s2.961-1.326,2.961-2.961c0-1.634-1.325-2.959-2.961-2.959S482.02,135.355,482.02,136.99
	 M511.872,136.99c0,1.635-1.325,2.961-2.962,2.961c-1.634,0-2.96-1.326-2.96-2.961c0-1.634,1.326-2.959,2.96-2.959
	C510.547,134.03,511.872,135.355,511.872,136.99 M519.846,136.99c0,1.635-1.323,2.961-2.959,2.961c-1.635,0-2.962-1.326-2.962-2.961
	c0-1.634,1.327-2.959,2.962-2.959C518.522,134.03,519.846,135.355,519.846,136.99 M497.973,136.99c0,1.635,1.326,2.961,2.963,2.961
	c1.634,0,2.96-1.326,2.96-2.961c0-1.634-1.326-2.959-2.96-2.959C499.3,134.03,497.973,135.355,497.973,136.99 M535.801,136.99
	c0,1.635-1.326,2.961-2.962,2.961c-1.634,0-2.959-1.326-2.959-2.961c0-1.634,1.325-2.959,2.959-2.959
	C534.474,134.03,535.801,135.355,535.801,136.99 M521.901,136.99c0,1.635,1.327,2.961,2.962,2.961s2.96-1.326,2.96-2.961
	c0-1.634-1.325-2.959-2.96-2.959S521.901,135.355,521.901,136.99 M537.854,136.99c0,1.635,1.326,2.961,2.962,2.961
	c1.634,0,2.959-1.326,2.959-2.961c0-1.634-1.325-2.959-2.959-2.959C539.181,134.03,537.854,135.355,537.854,136.99 M466.068,120.964
	c0,1.635,1.323,2.96,2.96,2.96c1.633,0,2.96-1.325,2.96-2.96c0-1.633-1.327-2.959-2.96-2.959
	C467.392,118.004,466.068,119.331,466.068,120.964 M479.966,120.964c0,1.635-1.326,2.96-2.96,2.96c-1.637,0-2.959-1.325-2.959-2.96
	c0-1.633,1.322-2.959,2.959-2.959C478.639,118.004,479.966,119.331,479.966,120.964 M464.013,120.964c0,1.635-1.326,2.96-2.962,2.96
	c-1.632,0-2.959-1.325-2.959-2.96c0-1.633,1.327-2.959,2.959-2.959C462.687,118.004,464.013,119.331,464.013,120.964
	 M450.115,120.964c0,1.635,1.327,2.96,2.96,2.96c1.637,0,2.961-1.325,2.961-2.96c0-1.633-1.324-2.959-2.961-2.959
	C451.442,118.004,450.115,119.331,450.115,120.964 M448.061,120.964c0,1.635-1.324,2.96-2.961,2.96c-1.635,0-2.961-1.325-2.961-2.96
	c0-1.633,1.326-2.959,2.961-2.959C446.736,118.004,448.061,119.331,448.061,120.964 M434.162,120.964c0,1.635,1.326,2.96,2.962,2.96
	s2.963-1.325,2.963-2.96c0-1.633-1.327-2.959-2.963-2.959C435.488,118.004,434.162,119.331,434.162,120.964 M495.92,120.964
	c0,1.635-1.326,2.96-2.961,2.96c-1.636,0-2.963-1.325-2.963-2.96c0-1.633,1.327-2.959,2.963-2.959
	C494.594,118.005,495.92,119.331,495.92,120.964 M482.02,120.964c0,1.635,1.326,2.96,2.962,2.96s2.961-1.325,2.961-2.96
	c0-1.633-1.325-2.959-2.961-2.959S482.02,119.331,482.02,120.964 M511.872,120.964c0,1.635-1.325,2.96-2.962,2.96
	c-1.634,0-2.96-1.325-2.96-2.96c0-1.633,1.326-2.959,2.96-2.959C510.547,118.004,511.872,119.331,511.872,120.964 M519.846,120.964
	c0,1.635-1.323,2.96-2.959,2.96c-1.635,0-2.962-1.325-2.962-2.96c0-1.633,1.327-2.959,2.962-2.959
	C518.522,118.004,519.846,119.331,519.846,120.964 M497.973,120.964c0,1.635,1.326,2.96,2.963,2.96c1.634,0,2.96-1.325,2.96-2.96
	c0-1.633-1.326-2.959-2.96-2.959C499.3,118.004,497.973,119.331,497.973,120.964 M535.801,120.964c0,1.635-1.326,2.96-2.962,2.96
	c-1.634,0-2.959-1.325-2.959-2.96c0-1.633,1.325-2.959,2.959-2.959C534.474,118.004,535.801,119.331,535.801,120.964
	 M521.901,120.964c0,1.635,1.327,2.96,2.962,2.96s2.96-1.325,2.96-2.96c0-1.633-1.325-2.959-2.96-2.959
	S521.901,119.331,521.901,120.964 M537.854,120.964c0,1.635,1.326,2.96,2.962,2.96c1.634,0,2.959-1.325,2.959-2.96
	c0-1.633-1.325-2.959-2.959-2.959C539.181,118.004,537.854,119.331,537.854,120.964 M466.068,104.938
	c0,1.638,1.323,2.962,2.96,2.962c1.633,0,2.96-1.324,2.96-2.962c0-1.632-1.327-2.958-2.96-2.958
	C467.392,101.979,466.068,103.306,466.068,104.938 M479.966,104.938c0,1.638-1.326,2.962-2.96,2.962
	c-1.637,0-2.959-1.324-2.959-2.962c0-1.632,1.322-2.958,2.959-2.958C478.639,101.979,479.966,103.306,479.966,104.938
	 M464.013,104.938c0,1.638-1.326,2.962-2.962,2.962c-1.632,0-2.959-1.324-2.959-2.962c0-1.632,1.327-2.958,2.959-2.958
	C462.687,101.979,464.013,103.306,464.013,104.938 M450.115,104.938c0,1.638,1.327,2.962,2.96,2.962
	c1.637,0,2.961-1.324,2.961-2.962c0-1.632-1.324-2.958-2.961-2.958C451.442,101.979,450.115,103.306,450.115,104.938
	 M448.061,104.938c0,1.638-1.324,2.962-2.961,2.962c-1.635,0-2.961-1.324-2.961-2.962c0-1.632,1.326-2.958,2.961-2.958
	C446.736,101.979,448.061,103.306,448.061,104.938 M495.92,104.938c0,1.638-1.326,2.962-2.961,2.962
	c-1.636,0-2.963-1.324-2.963-2.962c0-1.632,1.327-2.958,2.963-2.958C494.594,101.98,495.92,103.306,495.92,104.938 M482.02,104.938
	c0,1.638,1.326,2.962,2.962,2.962s2.961-1.324,2.961-2.962c0-1.632-1.325-2.958-2.961-2.958S482.02,103.306,482.02,104.938
	 M511.872,104.938c0,1.638-1.325,2.962-2.962,2.962c-1.634,0-2.96-1.324-2.96-2.962c0-1.632,1.326-2.958,2.96-2.958
	C510.547,101.979,511.872,103.306,511.872,104.938 M519.846,104.938c0,1.638-1.323,2.962-2.959,2.962
	c-1.635,0-2.962-1.324-2.962-2.962c0-1.632,1.327-2.958,2.962-2.958C518.522,101.979,519.846,103.306,519.846,104.938
	 M497.973,104.938c0,1.638,1.326,2.962,2.963,2.962c1.634,0,2.96-1.324,2.96-2.962c0-1.632-1.326-2.958-2.96-2.958
	C499.3,101.979,497.973,103.306,497.973,104.938 M535.801,104.938c0,1.638-1.326,2.962-2.962,2.962
	c-1.634,0-2.959-1.324-2.959-2.962c0-1.632,1.325-2.958,2.959-2.958C534.474,101.979,535.801,103.306,535.801,104.938
	 M521.901,104.938c0,1.638,1.327,2.962,2.962,2.962s2.96-1.324,2.96-2.962c0-1.632-1.325-2.958-2.96-2.958
	S521.901,103.306,521.901,104.938 M466.063,88.914c0,1.636,1.323,2.961,2.959,2.961c1.635,0,2.962-1.326,2.962-2.961
	c0-1.634-1.327-2.959-2.962-2.959S466.063,87.281,466.063,88.914 M479.952,88.914c0,1.636-1.325,2.961-2.961,2.961
	c-1.637,0-2.96-1.326-2.96-2.961c0-1.634,1.323-2.959,2.96-2.959C478.627,85.955,479.952,87.281,479.952,88.914 M464.016,88.914
	c0,1.636-1.325,2.961-2.963,2.961c-1.632,0-2.958-1.326-2.958-2.961c0-1.634,1.326-2.959,2.958-2.959
	C462.69,85.955,464.016,87.281,464.016,88.914 M450.128,88.914c0,1.636,1.325,2.961,2.961,2.961c1.634,0,2.96-1.326,2.96-2.961
	c0-1.634-1.326-2.959-2.96-2.959C451.453,85.955,450.128,87.281,450.128,88.914 M495.89,88.914c0,1.636-1.326,2.961-2.963,2.961
	c-1.634,0-2.961-1.326-2.961-2.961c0-1.634,1.327-2.959,2.961-2.959C494.563,85.955,495.89,87.281,495.89,88.914 M481.998,88.914
	c0,1.636,1.326,2.961,2.96,2.961c1.637,0,2.964-1.326,2.964-2.961c0-1.634-1.327-2.959-2.964-2.959
	C483.324,85.955,481.998,87.281,481.998,88.914 M511.825,88.914c0,1.636-1.325,2.961-2.962,2.961c-1.634,0-2.96-1.326-2.96-2.961
	c0-1.634,1.326-2.959,2.96-2.959C510.5,85.955,511.825,87.281,511.825,88.914"/>
</svg>
