<?xml version="1.0" encoding="utf-8"?>
<!-- Generator: Adobe Illustrator 15.1.0, SVG Export Plug-In . SVG Version: 6.00 Build 0)  -->
<!DOCTYPE svg PUBLIC "-//W3C//DTD SVG 1.0//EN" "http://www.w3.org/TR/2001/REC-SVG-20010904/DTD/svg10.dtd">
<svg version="1.0" id="Layer_1" xmlns="http://www.w3.org/2000/svg" xmlns:xlink="http://www.w3.org/1999/xlink" x="0px" y="0px"
	 width="612px" height="792px" viewBox="0 0 612 792" enable-background="new 0 0 612 792" xml:space="preserve">
<path fill="none" stroke="#434344" stroke-width="0.581" d="M566.035,321.761c-1.636,0-2.962,1.326-2.962,2.962
	c0,1.635,1.326,2.961,2.962,2.961c1.633,0,2.959-1.326,2.959-2.961C568.994,323.087,567.669,321.761,566.035,321.761"/>
<path fill="none" stroke="#434344" stroke-width="0.581" d="M566.035,194.973c-1.636,0-2.962,1.326-2.962,2.961
	c0,1.634,1.326,2.96,2.962,2.96c1.633,0,2.959-1.326,2.959-2.96C568.994,196.298,567.669,194.973,566.035,194.973"/>
<path fill="none" stroke="#434344" stroke-width="0.581" d="M557.282,448.515c-1.636,0-2.962,1.326-2.962,2.96
	c0,1.635,1.326,2.962,2.962,2.962c1.632,0,2.959-1.327,2.959-2.962C560.241,449.841,558.914,448.515,557.282,448.515"/>
<path fill="none" stroke="#434344" stroke-width="0.581" d="M557.282,321.742c-1.636,0-2.962,1.325-2.962,2.961
	c0,1.637,1.326,2.962,2.962,2.962c1.632,0,2.959-1.325,2.959-2.962S558.914,321.742,557.282,321.742"/>
<path fill="none" stroke="#434344" stroke-width="0.581" d="M557.282,194.97c-1.636,0-2.962,1.326-2.962,2.961
	c0,1.634,1.326,2.96,2.962,2.96c1.632,0,2.959-1.326,2.959-2.96C560.241,196.296,558.914,194.97,557.282,194.97"/>
<path fill="none" stroke="#434344" stroke-width="0.581" d="M539.775,449.045c-1.635,0-2.96,1.325-2.96,2.962
	c0,1.634,1.325,2.96,2.96,2.96c1.634,0,2.961-1.326,2.961-2.96C542.736,450.37,541.409,449.045,539.775,449.045"/>
<path fill="none" stroke="#434344" stroke-width="0.581" d="M539.775,322.023c-1.635,0-2.96,1.327-2.96,2.96
	c0,1.638,1.325,2.962,2.96,2.962c1.634,0,2.961-1.324,2.961-2.962C542.736,323.351,541.409,322.023,539.775,322.023"/>
<path fill="none" stroke="#434344" stroke-width="0.581" d="M539.775,195.001c-1.635,0-2.96,1.328-2.96,2.962s1.325,2.96,2.96,2.96
	c1.634,0,2.961-1.326,2.961-2.96S541.409,195.001,539.775,195.001"/>
<path fill="none" stroke="#434344" stroke-width="0.581" d="M548.528,449.045c-1.635,0-2.96,1.325-2.96,2.962
	c0,1.634,1.325,2.96,2.96,2.96c1.633,0,2.96-1.326,2.96-2.96C551.488,450.37,550.161,449.045,548.528,449.045"/>
<path fill="none" stroke="#434344" stroke-width="0.581" d="M548.528,322.023c-1.635,0-2.96,1.327-2.96,2.96
	c0,1.638,1.325,2.962,2.96,2.962c1.633,0,2.96-1.324,2.96-2.962C551.488,323.351,550.161,322.023,548.528,322.023"/>
<path fill="none" stroke="#434344" stroke-width="0.581" d="M548.528,195.001c-1.635,0-2.96,1.328-2.96,2.962s1.325,2.96,2.96,2.96
	c1.633,0,2.96-1.326,2.96-2.96S550.161,195.001,548.528,195.001"/>
<path fill="none" stroke="#434344" stroke-width="0.581" d="M566.035,448.549c-1.636,0-2.962,1.326-2.962,2.962
	c0,1.635,1.326,2.961,2.962,2.961c1.633,0,2.959-1.326,2.959-2.961C568.994,449.875,567.669,448.549,566.035,448.549"/>
</svg>
