<?xml version="1.0" encoding="utf-8"?>
<!-- Generator: Adobe Illustrator 15.1.0, SVG Export Plug-In . SVG Version: 6.00 Build 0)  -->
<!DOCTYPE svg PUBLIC "-//W3C//DTD SVG 1.0//EN" "http://www.w3.org/TR/2001/REC-SVG-20010904/DTD/svg10.dtd">
<svg version="1.0" id="Layer_1" xmlns="http://www.w3.org/2000/svg" xmlns:xlink="http://www.w3.org/1999/xlink" x="0px" y="0px"
	 width="612px" height="792px" viewBox="0 0 612 792" enable-background="new 0 0 612 792" xml:space="preserve">
<path fill="none" stroke="#434344" stroke-width="0.581" d="M409.508,451.511c0,1.635,1.329,2.961,2.96,2.961
	c1.635,0,2.961-1.326,2.961-2.961c0-1.636-1.326-2.962-2.961-2.962C410.837,448.549,409.508,449.875,409.508,451.511"/>
<path fill="none" stroke="#434344" stroke-width="0.581" d="M409.508,324.723c0,1.635,1.329,2.961,2.96,2.961
	c1.635,0,2.961-1.326,2.961-2.961c0-1.636-1.326-2.962-2.961-2.962C410.837,321.761,409.508,323.087,409.508,324.723"/>
<path fill="none" stroke="#434344" stroke-width="0.581" d="M409.508,197.934c0,1.634,1.329,2.96,2.96,2.96
	c1.635,0,2.961-1.326,2.961-2.96c0-1.636-1.326-2.961-2.961-2.961C410.837,194.973,409.508,196.298,409.508,197.934"/>
<path fill="none" stroke="#434344" stroke-width="0.581" d="M418.26,451.475c0,1.635,1.328,2.962,2.959,2.962
	c1.636,0,2.962-1.327,2.962-2.962c0-1.634-1.326-2.96-2.962-2.96C419.589,448.515,418.26,449.841,418.26,451.475"/>
<path fill="none" stroke="#434344" stroke-width="0.581" d="M418.26,324.703c0,1.637,1.328,2.962,2.959,2.962
	c1.636,0,2.962-1.325,2.962-2.962s-1.326-2.961-2.962-2.961C419.589,321.742,418.26,323.067,418.26,324.703"/>
<path fill="none" stroke="#434344" stroke-width="0.581" d="M418.26,197.932c0,1.634,1.328,2.96,2.959,2.96
	c1.636,0,2.962-1.326,2.962-2.96c0-1.636-1.326-2.961-2.962-2.961C419.589,194.97,418.26,196.296,418.26,197.932"/>
<path fill="none" stroke="#434344" stroke-width="0.581" d="M435.766,452.007c0,1.634,1.327,2.96,2.96,2.96
	c1.635,0,2.961-1.326,2.961-2.96c0-1.637-1.326-2.962-2.961-2.962C437.094,449.045,435.766,450.37,435.766,452.007"/>
<path fill="none" stroke="#434344" stroke-width="0.581" d="M435.766,324.984c0,1.638,1.327,2.962,2.96,2.962
	c1.635,0,2.961-1.324,2.961-2.962c0-1.633-1.326-2.96-2.961-2.96C437.094,322.023,435.766,323.351,435.766,324.984"/>
<path fill="none" stroke="#434344" stroke-width="0.581" d="M435.766,197.963c0,1.634,1.327,2.96,2.96,2.96
	c1.635,0,2.961-1.326,2.961-2.96s-1.326-2.962-2.961-2.962C437.094,195.001,435.766,196.329,435.766,197.963"/>
<path fill="none" stroke="#434344" stroke-width="0.581" d="M427.013,452.007c0,1.634,1.327,2.96,2.961,2.96s2.96-1.326,2.96-2.96
	c0-1.637-1.326-2.962-2.96-2.962S427.013,450.37,427.013,452.007"/>
<path fill="none" stroke="#434344" stroke-width="0.581" d="M427.013,324.984c0,1.638,1.327,2.962,2.961,2.962
	s2.96-1.324,2.96-2.962c0-1.633-1.326-2.96-2.96-2.96S427.013,323.351,427.013,324.984"/>
<path fill="none" stroke="#434344" stroke-width="0.581" d="M427.013,197.963c0,1.634,1.327,2.96,2.961,2.96s2.96-1.326,2.96-2.96
	s-1.326-2.962-2.96-2.962S427.013,196.329,427.013,197.963"/>
</svg>
