<?xml version="1.0" encoding="utf-8"?>
<!-- Generator: Adobe Illustrator 15.1.0, SVG Export Plug-In . SVG Version: 6.00 Build 0)  -->
<!DOCTYPE svg PUBLIC "-//W3C//DTD SVG 1.0//EN" "http://www.w3.org/TR/2001/REC-SVG-20010904/DTD/svg10.dtd">
<svg version="1.0" id="Layer_1" xmlns="http://www.w3.org/2000/svg" xmlns:xlink="http://www.w3.org/1999/xlink" x="0px" y="0px"
	 width="612px" height="792px" viewBox="0 0 612 792" enable-background="new 0 0 612 792" xml:space="preserve">
<path fill="#FFFFFF" d="M482.671,157.619c0,1.313-1.064,2.378-2.379,2.378s-2.381-1.065-2.381-2.378
	c0-1.315,1.066-2.379,2.381-2.379S482.671,156.304,482.671,157.619"/>
<path fill="none" stroke="#434344" stroke-width="0.484" d="M482.671,157.619c0,1.313-1.064,2.378-2.379,2.378
	c-1.315,0-2.381-1.065-2.381-2.378c0-1.315,1.065-2.378,2.381-2.378C481.606,155.241,482.671,156.304,482.671,157.619"/>
<path fill="#FFFFFF" d="M491.682,157.619c0,1.313-1.063,2.378-2.378,2.378c-1.314,0-2.382-1.065-2.382-2.378
	c0-1.315,1.067-2.379,2.382-2.379C490.619,155.24,491.682,156.304,491.682,157.619"/>
<path fill="none" stroke="#434344" stroke-width="0.484" d="M491.682,157.619c0,1.313-1.063,2.378-2.379,2.378
	c-1.314,0-2.381-1.065-2.381-2.378c0-1.315,1.066-2.378,2.381-2.378C490.619,155.241,491.682,156.304,491.682,157.619"/>
<path fill="#FFFFFF" d="M501.096,157.619c0,1.313-1.063,2.378-2.378,2.378c-1.314,0-2.381-1.065-2.381-2.378
	c0-1.315,1.066-2.379,2.381-2.379C500.033,155.24,501.096,156.304,501.096,157.619"/>
<path fill="none" stroke="#434344" stroke-width="0.484" d="M501.096,157.619c0,1.313-1.063,2.378-2.379,2.378
	c-1.314,0-2.38-1.065-2.38-2.378c0-1.315,1.065-2.378,2.38-2.378C500.033,155.241,501.096,156.304,501.096,157.619"/>
<path fill="#FFFFFF" d="M451.832,157.619c0,1.315-1.065,2.38-2.381,2.38c-1.313,0-2.379-1.064-2.379-2.38
	c0-1.314,1.066-2.379,2.379-2.379C450.767,155.24,451.832,156.305,451.832,157.619"/>
<path fill="none" stroke="#434344" stroke-width="0.484" d="M451.832,157.619c0,1.315-1.065,2.381-2.381,2.381
	c-1.313,0-2.379-1.065-2.379-2.381c0-1.314,1.066-2.378,2.379-2.378C450.767,155.241,451.832,156.305,451.832,157.619"/>
<path fill="#FFFFFF" d="M462.556,157.619c0,1.315-1.064,2.38-2.379,2.38c-1.313,0-2.379-1.064-2.379-2.38
	c0-1.314,1.065-2.379,2.379-2.379C461.491,155.24,462.556,156.305,462.556,157.619"/>
<path fill="none" stroke="#434344" stroke-width="0.484" d="M462.556,157.619c0,1.315-1.064,2.381-2.38,2.381
	c-1.313,0-2.38-1.065-2.38-2.381c0-1.314,1.067-2.378,2.38-2.378C461.491,155.241,462.556,156.305,462.556,157.619"/>
<path fill="#FFFFFF" d="M473.28,157.619c0,1.315-1.065,2.38-2.38,2.38c-1.313,0-2.38-1.064-2.38-2.38
	c0-1.314,1.067-2.379,2.38-2.379C472.215,155.24,473.28,156.305,473.28,157.619"/>
<path fill="none" stroke="#434344" stroke-width="0.484" d="M473.28,157.619c0,1.315-1.064,2.381-2.38,2.381
	c-1.313,0-2.38-1.065-2.38-2.381c0-1.314,1.067-2.378,2.38-2.378C472.216,155.241,473.28,156.305,473.28,157.619"/>
<path fill="#FFFFFF" d="M510.466,157.619c0,1.315-1.065,2.38-2.38,2.38s-2.38-1.064-2.38-2.38c0-1.314,1.065-2.379,2.38-2.379
	S510.466,156.305,510.466,157.619"/>
<path fill="none" stroke="#434344" stroke-width="0.484" d="M510.466,157.619c0,1.315-1.065,2.381-2.38,2.381
	s-2.38-1.065-2.38-2.381c0-1.314,1.065-2.378,2.38-2.378S510.466,156.305,510.466,157.619"/>
<path fill="#FFFFFF" d="M521.188,157.619c0,1.315-1.063,2.38-2.378,2.38c-1.313,0-2.38-1.064-2.38-2.38
	c0-1.314,1.067-2.379,2.38-2.379C520.126,155.24,521.188,156.305,521.188,157.619"/>
<path fill="none" stroke="#434344" stroke-width="0.484" d="M521.188,157.619c0,1.315-1.063,2.381-2.378,2.381
	c-1.314,0-2.38-1.065-2.38-2.381c0-1.314,1.065-2.378,2.38-2.378C520.126,155.241,521.188,156.305,521.188,157.619"/>
<path fill="#FFFFFF" d="M531.914,157.619c0,1.315-1.065,2.38-2.379,2.38s-2.38-1.064-2.38-2.38c0-1.314,1.066-2.379,2.38-2.379
	S531.914,156.305,531.914,157.619"/>
<path fill="none" stroke="#434344" stroke-width="0.484" d="M531.913,157.619c0,1.315-1.064,2.381-2.378,2.381
	s-2.38-1.065-2.38-2.381c0-1.314,1.066-2.378,2.38-2.378S531.913,156.305,531.913,157.619"/>
<path fill="#FFFFFF" d="M483.825,532.922c0-1.313-1.064-2.378-2.379-2.378c-1.315,0-2.381,1.065-2.381,2.378
	c0,1.314,1.065,2.379,2.381,2.379C482.761,535.301,483.825,534.236,483.825,532.922"/>
<path fill="none" stroke="#434344" stroke-width="0.484" d="M483.825,532.922c0-1.313-1.064-2.378-2.379-2.378
	c-1.315,0-2.381,1.065-2.381,2.378c0,1.314,1.065,2.38,2.381,2.38C482.761,535.302,483.825,534.236,483.825,532.922"/>
<path fill="#FFFFFF" d="M491.419,532.922c0-1.313-1.064-2.378-2.379-2.378s-2.381,1.065-2.381,2.378
	c0,1.314,1.066,2.379,2.381,2.379S491.419,534.236,491.419,532.922"/>
<path fill="none" stroke="#434344" stroke-width="0.484" d="M491.419,532.922c0-1.313-1.064-2.378-2.379-2.378
	s-2.381,1.065-2.381,2.378c0,1.314,1.066,2.38,2.381,2.38S491.419,534.236,491.419,532.922"/>
<path fill="#FFFFFF" d="M499.415,532.922c0-1.313-1.064-2.378-2.379-2.378c-1.315,0-2.381,1.065-2.381,2.378
	c0,1.314,1.065,2.379,2.381,2.379C498.351,535.301,499.415,534.236,499.415,532.922"/>
<path fill="none" stroke="#434344" stroke-width="0.484" d="M499.415,532.922c0-1.313-1.064-2.378-2.38-2.378
	c-1.314,0-2.38,1.065-2.38,2.378c0,1.314,1.065,2.38,2.38,2.38C498.351,535.302,499.415,534.236,499.415,532.922"/>
<path fill="#FFFFFF" d="M456.268,532.922c0-1.315-1.063-2.378-2.38-2.378c-1.312,0-2.379,1.063-2.379,2.378
	c0,1.314,1.067,2.379,2.379,2.379C455.204,535.301,456.268,534.236,456.268,532.922"/>
<path fill="none" stroke="#434344" stroke-width="0.484" d="M456.268,532.922c0-1.315-1.064-2.378-2.38-2.378
	c-1.313,0-2.379,1.063-2.379,2.378c0,1.314,1.066,2.38,2.379,2.38C455.203,535.302,456.268,534.236,456.268,532.922"/>
<path fill="#FFFFFF" d="M466.993,532.922c0-1.315-1.065-2.378-2.38-2.378c-1.313,0-2.379,1.063-2.379,2.378
	c0,1.314,1.065,2.379,2.379,2.379C465.928,535.301,466.993,534.236,466.993,532.922"/>
<path fill="none" stroke="#434344" stroke-width="0.484" d="M466.993,532.922c0-1.315-1.066-2.378-2.38-2.378
	c-1.314,0-2.379,1.063-2.379,2.378c0,1.314,1.064,2.38,2.379,2.38C465.927,535.302,466.993,534.236,466.993,532.922"/>
<path fill="#FFFFFF" d="M475.852,532.922c0-1.315-1.064-2.378-2.38-2.378c-1.313,0-2.379,1.063-2.379,2.378
	c0,1.314,1.066,2.379,2.379,2.379C474.787,535.301,475.852,534.236,475.852,532.922"/>
<path fill="none" stroke="#434344" stroke-width="0.484" d="M475.851,532.922c0-1.315-1.064-2.378-2.379-2.378
	c-1.313,0-2.379,1.063-2.379,2.378c0,1.314,1.066,2.38,2.379,2.38C474.786,535.302,475.851,534.236,475.851,532.922"/>
<path fill="#FFFFFF" d="M507.368,532.922c0-1.315-1.067-2.378-2.382-2.378c-1.313,0-2.378,1.063-2.378,2.378
	c0,1.314,1.065,2.379,2.378,2.379C506.301,535.301,507.368,534.236,507.368,532.922"/>
<path fill="none" stroke="#434344" stroke-width="0.484" d="M507.368,532.922c0-1.315-1.067-2.378-2.382-2.378
	s-2.378,1.063-2.378,2.378c0,1.314,1.063,2.38,2.378,2.38S507.368,534.236,507.368,532.922"/>
<path fill="#FFFFFF" d="M516.754,532.922c0-1.315-1.066-2.378-2.379-2.378c-1.315,0-2.38,1.063-2.38,2.378
	c0,1.314,1.064,2.379,2.38,2.379C515.688,535.301,516.754,534.236,516.754,532.922"/>
<path fill="none" stroke="#434344" stroke-width="0.484" d="M516.752,532.922c0-1.315-1.064-2.378-2.377-2.378
	c-1.315,0-2.38,1.063-2.38,2.378c0,1.314,1.064,2.38,2.38,2.38C515.688,535.302,516.752,534.236,516.752,532.922"/>
<path fill="#FFFFFF" d="M527.477,532.922c0-1.315-1.063-2.378-2.378-2.378c-1.313,0-2.381,1.063-2.381,2.378
	c0,1.314,1.067,2.379,2.381,2.379C526.413,535.301,527.477,534.236,527.477,532.922"/>
<path fill="none" stroke="#434344" stroke-width="0.484" d="M527.477,532.922c0-1.315-1.064-2.378-2.378-2.378
	s-2.381,1.063-2.381,2.378c0,1.314,1.067,2.38,2.381,2.38S527.477,534.236,527.477,532.922"/>
<path fill="#FFFFFF" d="M468.684,416.078c-1.634,0-2.96,1.326-2.96,2.961c0,1.636,1.326,2.961,2.96,2.961s2.961-1.325,2.961-2.961
	C471.645,417.404,470.317,416.078,468.684,416.078"/>
<path fill="none" stroke="#434344" stroke-width="0.581" d="M468.684,416.078c-1.635,0-2.961,1.326-2.961,2.961
	c0,1.636,1.326,2.961,2.961,2.961c1.633,0,2.96-1.325,2.96-2.961C471.644,417.404,470.316,416.078,468.684,416.078"/>
<path fill="#FFFFFF" d="M468.684,437.086c-1.634,0-2.96,1.324-2.96,2.959c0,1.636,1.326,2.962,2.96,2.962s2.961-1.326,2.961-2.962
	C471.645,438.41,470.317,437.086,468.684,437.086"/>
<path fill="none" stroke="#434344" stroke-width="0.581" d="M468.684,437.087c-1.635,0-2.961,1.323-2.961,2.958
	c0,1.636,1.326,2.962,2.961,2.962c1.633,0,2.96-1.326,2.96-2.962C471.644,438.41,470.316,437.087,468.684,437.087"/>
<path fill="#FFFFFF" d="M468.684,457.416c-1.634,0-2.96,1.328-2.96,2.963c0,1.636,1.326,2.962,2.96,2.962s2.961-1.326,2.961-2.962
	C471.645,458.744,470.317,457.416,468.684,457.416"/>
<path fill="none" stroke="#434344" stroke-width="0.581" d="M468.684,457.416c-1.635,0-2.961,1.328-2.961,2.963
	c0,1.636,1.326,2.962,2.961,2.962c1.633,0,2.96-1.326,2.96-2.962C471.644,458.744,470.316,457.416,468.684,457.416"/>
<path fill="#FFFFFF" d="M468.684,478.187c-1.634,0-2.96,1.327-2.96,2.962s1.326,2.96,2.96,2.96s2.961-1.325,2.961-2.96
	S470.317,478.187,468.684,478.187"/>
<path fill="none" stroke="#434344" stroke-width="0.581" d="M468.684,478.187c-1.635,0-2.961,1.327-2.961,2.962
	s1.326,2.96,2.961,2.96c1.633,0,2.96-1.325,2.96-2.96S470.316,478.187,468.684,478.187"/>
<path fill="#FFFFFF" d="M510.684,416.078c-1.635,0-2.96,1.326-2.96,2.961c0,1.636,1.325,2.961,2.96,2.961
	c1.634,0,2.961-1.325,2.961-2.961C513.645,417.404,512.317,416.078,510.684,416.078"/>
<path fill="none" stroke="#434344" stroke-width="0.581" d="M510.684,416.078c-1.635,0-2.961,1.326-2.961,2.961
	c0,1.636,1.326,2.961,2.961,2.961c1.633,0,2.96-1.325,2.96-2.961C513.644,417.404,512.316,416.078,510.684,416.078"/>
<path fill="#FFFFFF" d="M510.684,437.086c-1.635,0-2.96,1.324-2.96,2.959c0,1.636,1.325,2.962,2.96,2.962
	c1.634,0,2.961-1.326,2.961-2.962C513.645,438.41,512.317,437.086,510.684,437.086"/>
<path fill="none" stroke="#434344" stroke-width="0.581" d="M510.684,437.087c-1.635,0-2.961,1.323-2.961,2.958
	c0,1.636,1.326,2.962,2.961,2.962c1.633,0,2.96-1.326,2.96-2.962C513.644,438.41,512.316,437.087,510.684,437.087"/>
<path fill="#FFFFFF" d="M510.684,457.416c-1.635,0-2.96,1.328-2.96,2.963c0,1.636,1.325,2.962,2.96,2.962
	c1.634,0,2.961-1.326,2.961-2.962C513.645,458.744,512.317,457.416,510.684,457.416"/>
<path fill="none" stroke="#434344" stroke-width="0.581" d="M510.684,457.416c-1.635,0-2.961,1.328-2.961,2.963
	c0,1.636,1.326,2.962,2.961,2.962c1.633,0,2.96-1.326,2.96-2.962C513.644,458.744,512.316,457.416,510.684,457.416"/>
<path fill="#FFFFFF" d="M510.684,478.187c-1.635,0-2.96,1.327-2.96,2.962s1.325,2.96,2.96,2.96c1.634,0,2.961-1.325,2.961-2.96
	S512.317,478.187,510.684,478.187"/>
<path fill="none" stroke="#434344" stroke-width="0.581" d="M510.684,478.187c-1.635,0-2.961,1.327-2.961,2.962
	s1.326,2.96,2.961,2.96c1.633,0,2.96-1.325,2.96-2.96S512.316,478.187,510.684,478.187"/>
<path fill="#FFFFFF" d="M468.684,186.472c-1.634,0-2.96,1.326-2.96,2.96c0,1.635,1.326,2.961,2.96,2.961s2.961-1.326,2.961-2.961
	C471.645,187.798,470.317,186.472,468.684,186.472"/>
<path fill="none" stroke="#434344" stroke-width="0.581" d="M468.684,186.472c-1.635,0-2.961,1.326-2.961,2.96
	c0,1.635,1.326,2.961,2.961,2.961c1.633,0,2.96-1.326,2.96-2.961C471.644,187.798,470.316,186.472,468.684,186.472"/>
<path fill="#FFFFFF" d="M468.684,207.48c-1.634,0-2.96,1.324-2.96,2.959c0,1.634,1.326,2.96,2.96,2.96s2.961-1.326,2.961-2.96
	C471.645,208.804,470.317,207.48,468.684,207.48"/>
<path fill="none" stroke="#434344" stroke-width="0.581" d="M468.684,207.48c-1.635,0-2.961,1.325-2.961,2.959
	c0,1.635,1.326,2.961,2.961,2.961c1.633,0,2.96-1.326,2.96-2.961C471.644,208.805,470.316,207.48,468.684,207.48"/>
<path fill="#FFFFFF" d="M468.684,227.809c-1.634,0-2.96,1.329-2.96,2.963c0,1.636,1.326,2.96,2.96,2.96s2.961-1.325,2.961-2.96
	C471.645,229.138,470.317,227.809,468.684,227.809"/>
<path fill="none" stroke="#434344" stroke-width="0.581" d="M468.684,227.809c-1.635,0-2.961,1.329-2.961,2.963
	c0,1.636,1.326,2.961,2.961,2.961c1.633,0,2.96-1.326,2.96-2.961C471.644,229.138,470.316,227.809,468.684,227.809"/>
<path fill="#FFFFFF" d="M468.684,248.583c-1.634,0-2.96,1.326-2.96,2.959c0,1.636,1.326,2.962,2.96,2.962s2.961-1.326,2.961-2.962
	C471.645,249.908,470.317,248.583,468.684,248.583"/>
<path fill="none" stroke="#434344" stroke-width="0.581" d="M468.684,248.583c-1.635,0-2.961,1.326-2.961,2.96
	c0,1.634,1.326,2.96,2.961,2.96c1.633,0,2.96-1.326,2.96-2.96C471.644,249.908,470.316,248.583,468.684,248.583"/>
<path fill="#FFFFFF" d="M468.684,269.153c-1.634,0-2.96,1.325-2.96,2.959c0,1.637,1.326,2.962,2.96,2.962s2.961-1.326,2.961-2.962
	C471.645,270.478,470.317,269.153,468.684,269.153"/>
<path fill="none" stroke="#434344" stroke-width="0.581" d="M468.684,269.154c-1.635,0-2.961,1.323-2.961,2.958
	c0,1.638,1.326,2.962,2.961,2.962c1.633,0,2.96-1.325,2.96-2.962C471.644,270.478,470.316,269.154,468.684,269.154"/>
<path fill="#FFFFFF" d="M510.684,186.472c-1.635,0-2.96,1.326-2.96,2.96c0,1.635,1.325,2.961,2.96,2.961
	c1.634,0,2.961-1.326,2.961-2.961C513.645,187.798,512.317,186.472,510.684,186.472"/>
<path fill="none" stroke="#434344" stroke-width="0.581" d="M510.684,186.472c-1.635,0-2.961,1.326-2.961,2.96
	c0,1.635,1.326,2.961,2.961,2.961c1.633,0,2.96-1.326,2.96-2.961C513.644,187.798,512.316,186.472,510.684,186.472"/>
<path fill="#FFFFFF" d="M510.684,207.48c-1.635,0-2.96,1.324-2.96,2.959c0,1.634,1.325,2.96,2.96,2.96
	c1.634,0,2.961-1.326,2.961-2.96C513.645,208.804,512.317,207.48,510.684,207.48"/>
<path fill="none" stroke="#434344" stroke-width="0.581" d="M510.684,207.48c-1.635,0-2.961,1.325-2.961,2.959
	c0,1.635,1.326,2.961,2.961,2.961c1.633,0,2.96-1.326,2.96-2.961C513.644,208.805,512.316,207.48,510.684,207.48"/>
<path fill="#FFFFFF" d="M510.684,227.809c-1.635,0-2.96,1.329-2.96,2.963c0,1.636,1.325,2.96,2.96,2.96
	c1.634,0,2.961-1.325,2.961-2.96C513.645,229.138,512.317,227.809,510.684,227.809"/>
<path fill="none" stroke="#434344" stroke-width="0.581" d="M510.684,227.809c-1.635,0-2.961,1.329-2.961,2.963
	c0,1.636,1.326,2.961,2.961,2.961c1.633,0,2.96-1.326,2.96-2.961C513.644,229.138,512.316,227.809,510.684,227.809"/>
<path fill="#FFFFFF" d="M510.684,248.583c-1.635,0-2.96,1.326-2.96,2.959c0,1.636,1.325,2.962,2.96,2.962
	c1.634,0,2.961-1.326,2.961-2.962C513.645,249.908,512.317,248.583,510.684,248.583"/>
<path fill="none" stroke="#434344" stroke-width="0.581" d="M510.684,248.583c-1.635,0-2.961,1.326-2.961,2.96
	c0,1.634,1.326,2.96,2.961,2.96c1.633,0,2.96-1.326,2.96-2.96C513.644,249.908,512.316,248.583,510.684,248.583"/>
<path fill="#FFFFFF" d="M510.684,269.153c-1.635,0-2.96,1.325-2.96,2.959c0,1.637,1.325,2.962,2.96,2.962
	c1.634,0,2.961-1.326,2.961-2.962C513.645,270.478,512.317,269.153,510.684,269.153"/>
<path fill="none" stroke="#434344" stroke-width="0.581" d="M510.684,269.154c-1.635,0-2.961,1.323-2.961,2.958
	c0,1.638,1.326,2.962,2.961,2.962c1.633,0,2.96-1.325,2.96-2.962C513.644,270.478,512.316,269.154,510.684,269.154"/>
</svg>
