<?xml version="1.0" encoding="utf-8"?>
<!-- Generator: Adobe Illustrator 15.1.0, SVG Export Plug-In . SVG Version: 6.00 Build 0)  -->
<!DOCTYPE svg PUBLIC "-//W3C//DTD SVG 1.0//EN" "http://www.w3.org/TR/2001/REC-SVG-20010904/DTD/svg10.dtd">
<svg version="1.0" id="Layer_1" xmlns="http://www.w3.org/2000/svg" xmlns:xlink="http://www.w3.org/1999/xlink" x="0px" y="0px"
	 width="612px" height="792px" viewBox="0 0 612 792" enable-background="new 0 0 612 792" xml:space="preserve">
<path fill="none" stroke="#434344" stroke-width="0.581" d="M479.942,72.888c0,1.637-1.325,2.961-2.959,2.961
	c-1.639,0-2.962-1.325-2.962-2.961c0-1.632,1.323-2.958,2.962-2.958C478.617,69.93,479.942,71.256,479.942,72.888"/>
<path fill="none" stroke="#434344" stroke-width="0.581" d="M497.988,72.888c0,1.637,1.326,2.961,2.961,2.961
	c1.638,0,2.961-1.325,2.961-2.961c0-1.632-1.323-2.958-2.961-2.958C499.314,69.93,497.988,71.256,497.988,72.888"/>
<path fill="none" stroke="#434344" stroke-width="0.581" d="M466.068,136.99c0,1.636,1.323,2.962,2.96,2.962
	c1.633,0,2.96-1.326,2.96-2.962c0-1.634-1.327-2.959-2.96-2.959C467.392,134.03,466.068,135.355,466.068,136.99"/>
<path fill="none" stroke="#434344" stroke-width="0.581" d="M434.162,136.99c0,1.636,1.326,2.962,2.962,2.962
	c1.637,0,2.964-1.326,2.964-2.962c0-1.634-1.327-2.959-2.964-2.959C435.488,134.03,434.162,135.355,434.162,136.99"/>
<path fill="none" stroke="#434344" stroke-width="0.581" d="M511.872,136.99c0,1.636-1.324,2.962-2.962,2.962
	c-1.634,0-2.96-1.326-2.96-2.962c0-1.634,1.326-2.959,2.96-2.959C510.548,134.03,511.872,135.355,511.872,136.99"/>
<path fill="none" stroke="#434344" stroke-width="0.581" d="M537.854,136.99c0,1.636,1.326,2.962,2.962,2.962
	c1.634,0,2.959-1.326,2.959-2.962c0-1.634-1.325-2.959-2.959-2.959C539.181,134.03,537.854,135.355,537.854,136.99"/>
<path fill="none" stroke="#434344" stroke-width="0.581" d="M464.013,104.938c0,1.639-1.326,2.962-2.962,2.962
	c-1.632,0-2.959-1.323-2.959-2.962c0-1.632,1.327-2.958,2.959-2.958C462.687,101.979,464.013,103.306,464.013,104.938"/>
<path fill="none" stroke="#434344" stroke-width="0.581" d="M448.061,104.938c0,1.639-1.324,2.962-2.961,2.962
	c-1.635,0-2.961-1.323-2.961-2.962c0-1.632,1.326-2.958,2.961-2.958C446.736,101.979,448.061,103.306,448.061,104.938"/>
<path fill="none" stroke="#434344" stroke-width="0.581" d="M491.921,104.938c0,1.639-1.326,2.962-2.961,2.962
	c-1.637,0-2.964-1.323-2.964-2.962c0-1.632,1.327-2.958,2.964-2.958C490.594,101.98,491.921,103.306,491.921,104.938"/>
<path fill="none" stroke="#434344" stroke-width="0.581" d="M519.846,104.938c0,1.639-1.323,2.962-2.959,2.962
	c-1.635,0-2.962-1.323-2.962-2.962c0-1.632,1.327-2.958,2.962-2.958C518.522,101.979,519.846,103.306,519.846,104.938"/>
<path fill="none" stroke="#434344" stroke-width="0.581" d="M535.802,104.938c0,1.639-1.326,2.962-2.962,2.962
	c-1.635,0-2.959-1.323-2.959-2.962c0-1.632,1.324-2.958,2.959-2.958C534.474,101.979,535.802,103.306,535.802,104.938"/>
<path fill="none" stroke="#434344" stroke-width="0.581" d="M486.01,72.888c0,1.637,1.327,2.961,2.96,2.961
	c1.638,0,2.963-1.325,2.963-2.961c0-1.632-1.325-2.958-2.963-2.958C487.338,69.93,486.01,71.256,486.01,72.888"/>
<path fill="none" stroke="#434344" stroke-width="0.581" d="M491.921,136.99c0,1.636-1.326,2.962-2.961,2.962
	c-1.637,0-2.964-1.326-2.964-2.962c0-1.634,1.327-2.959,2.964-2.959C490.594,134.031,491.921,135.355,491.921,136.99"/>
</svg>
