<?xml version="1.0" encoding="utf-8"?>
<!-- Generator: Adobe Illustrator 15.1.0, SVG Export Plug-In . SVG Version: 6.00 Build 0)  -->
<!DOCTYPE svg PUBLIC "-//W3C//DTD SVG 1.0//EN" "http://www.w3.org/TR/2001/REC-SVG-20010904/DTD/svg10.dtd">
<svg version="1.0" id="Layer_1" xmlns="http://www.w3.org/2000/svg" xmlns:xlink="http://www.w3.org/1999/xlink" x="0px" y="0px"
	 width="612px" height="792px" viewBox="0 0 612 792" enable-background="new 0 0 612 792" xml:space="preserve">
<path fill="#FFFFFF" d="M491.682,157.619c0,1.313-1.063,2.378-2.378,2.378s-2.382-1.065-2.382-2.378c0-1.315,1.066-2.38,2.382-2.38
	C490.619,155.24,491.682,156.304,491.682,157.619"/>
<path fill="none" stroke="#434344" stroke-width="0.484" d="M491.682,157.619c0,1.313-1.063,2.378-2.379,2.378
	c-1.314,0-2.381-1.065-2.381-2.378c0-1.315,1.065-2.379,2.381-2.379S491.682,156.304,491.682,157.619"/>
<path fill="#FFFFFF" d="M462.556,157.619c0,1.314-1.064,2.38-2.379,2.38c-1.313,0-2.379-1.064-2.379-2.38
	c0-1.314,1.064-2.38,2.379-2.38C461.491,155.24,462.556,156.305,462.556,157.619"/>
<path fill="none" stroke="#434344" stroke-width="0.484" d="M462.556,157.619c0,1.314-1.064,2.381-2.38,2.381
	c-1.313,0-2.38-1.065-2.38-2.381c0-1.314,1.066-2.379,2.38-2.379C461.491,155.24,462.556,156.305,462.556,157.619"/>
<path fill="#FFFFFF" d="M521.188,157.619c0,1.314-1.063,2.38-2.378,2.38c-1.313,0-2.38-1.064-2.38-2.38
	c0-1.314,1.066-2.38,2.38-2.38C520.127,155.24,521.188,156.305,521.188,157.619"/>
<path fill="none" stroke="#434344" stroke-width="0.484" d="M521.188,157.619c0,1.314-1.063,2.381-2.378,2.381
	s-2.38-1.065-2.38-2.381c0-1.314,1.064-2.379,2.38-2.379C520.127,155.24,521.188,156.305,521.188,157.619"/>
<path fill="#FFFFFF" d="M531.914,157.619c0,1.314-1.064,2.38-2.379,2.38c-1.313,0-2.38-1.064-2.38-2.38
	c0-1.314,1.066-2.38,2.38-2.38C530.849,155.24,531.914,156.305,531.914,157.619"/>
<path fill="#FFFFFF" d="M491.42,532.922c0-1.313-1.064-2.378-2.38-2.378c-1.314,0-2.381,1.064-2.381,2.378s1.066,2.379,2.381,2.379
	C490.355,535.301,491.42,534.236,491.42,532.922"/>
<path fill="none" stroke="#434344" stroke-width="0.484" d="M491.42,532.922c0-1.313-1.064-2.378-2.38-2.378
	c-1.314,0-2.381,1.064-2.381,2.378s1.066,2.38,2.381,2.38C490.355,535.302,491.42,534.236,491.42,532.922"/>
<path fill="#FFFFFF" d="M466.993,532.922c0-1.315-1.064-2.378-2.38-2.378c-1.313,0-2.379,1.063-2.379,2.378
	c0,1.313,1.065,2.379,2.379,2.379C465.928,535.301,466.993,534.236,466.993,532.922"/>
<path fill="none" stroke="#434344" stroke-width="0.484" d="M466.993,532.922c0-1.315-1.065-2.378-2.38-2.378
	c-1.313,0-2.379,1.063-2.379,2.378c0,1.313,1.064,2.38,2.379,2.38S466.993,534.236,466.993,532.922"/>
<path fill="#FFFFFF" d="M516.755,532.922c0-1.315-1.066-2.378-2.38-2.378c-1.314,0-2.38,1.063-2.38,2.378
	c0,1.313,1.064,2.379,2.38,2.379C515.688,535.301,516.755,534.236,516.755,532.922"/>
<path fill="none" stroke="#434344" stroke-width="0.484" d="M516.753,532.922c0-1.315-1.064-2.378-2.378-2.378
	c-1.314,0-2.38,1.063-2.38,2.378c0,1.313,1.064,2.38,2.38,2.38C515.688,535.302,516.753,534.236,516.753,532.922"/>
<path fill="#FFFFFF" d="M468.684,437.086c-1.634,0-2.96,1.323-2.96,2.959s1.326,2.962,2.96,2.962s2.961-1.326,2.961-2.962
	S470.317,437.086,468.684,437.086"/>
<path fill="none" stroke="#434344" stroke-width="0.581" d="M468.684,437.087c-1.635,0-2.961,1.322-2.961,2.958
	s1.326,2.962,2.961,2.962c1.633,0,2.96-1.326,2.96-2.962S470.316,437.087,468.684,437.087"/>
<path fill="#FFFFFF" d="M510.684,437.086c-1.635,0-2.96,1.323-2.96,2.959s1.325,2.962,2.96,2.962c1.634,0,2.961-1.326,2.961-2.962
	S512.317,437.086,510.684,437.086"/>
<path fill="none" stroke="#434344" stroke-width="0.581" d="M510.684,437.087c-1.635,0-2.961,1.322-2.961,2.958
	s1.326,2.962,2.961,2.962c1.633,0,2.96-1.326,2.96-2.962S512.316,437.087,510.684,437.087"/>
<path fill="#FFFFFF" d="M468.684,207.48c-1.634,0-2.96,1.324-2.96,2.959c0,1.634,1.326,2.96,2.96,2.96s2.961-1.326,2.961-2.96
	C471.645,208.804,470.317,207.48,468.684,207.48"/>
<path fill="none" stroke="#434344" stroke-width="0.581" d="M468.684,207.48c-1.635,0-2.961,1.325-2.961,2.959
	c0,1.635,1.326,2.961,2.961,2.961c1.633,0,2.96-1.326,2.96-2.961C471.644,208.805,470.316,207.48,468.684,207.48"/>
<path fill="#FFFFFF" d="M468.684,227.809c-1.634,0-2.96,1.329-2.96,2.963c0,1.637,1.326,2.96,2.96,2.96s2.961-1.325,2.961-2.96
	C471.645,229.138,470.317,227.809,468.684,227.809"/>
<path fill="none" stroke="#434344" stroke-width="0.581" d="M468.684,227.809c-1.635,0-2.961,1.329-2.961,2.963
	c0,1.637,1.326,2.961,2.961,2.961c1.633,0,2.96-1.326,2.96-2.961C471.644,229.138,470.316,227.809,468.684,227.809"/>
<path fill="#FFFFFF" d="M510.684,207.48c-1.635,0-2.96,1.324-2.96,2.959c0,1.634,1.325,2.96,2.96,2.96
	c1.634,0,2.961-1.326,2.961-2.96C513.645,208.804,512.317,207.48,510.684,207.48"/>
<path fill="none" stroke="#434344" stroke-width="0.581" d="M510.684,207.48c-1.635,0-2.961,1.325-2.961,2.959
	c0,1.635,1.326,2.961,2.961,2.961c1.633,0,2.96-1.326,2.96-2.961C513.644,208.805,512.316,207.48,510.684,207.48"/>
<path fill="#FFFFFF" d="M510.684,227.809c-1.635,0-2.96,1.329-2.96,2.963c0,1.637,1.325,2.96,2.96,2.96
	c1.634,0,2.961-1.325,2.961-2.96C513.645,229.138,512.317,227.809,510.684,227.809"/>
<path fill="none" stroke="#434344" stroke-width="0.581" d="M510.684,227.809c-1.635,0-2.961,1.329-2.961,2.963
	c0,1.637,1.326,2.961,2.961,2.961c1.633,0,2.96-1.326,2.96-2.961C513.644,229.138,512.316,227.809,510.684,227.809"/>
</svg>
