<?xml version="1.0" encoding="utf-8"?>
<!-- Generator: Adobe Illustrator 15.1.0, SVG Export Plug-In . SVG Version: 6.00 Build 0)  -->
<!DOCTYPE svg PUBLIC "-//W3C//DTD SVG 1.0//EN" "http://www.w3.org/TR/2001/REC-SVG-20010904/DTD/svg10.dtd">
<svg version="1.0" id="Layer_1" xmlns="http://www.w3.org/2000/svg" xmlns:xlink="http://www.w3.org/1999/xlink" x="0px" y="0px"
	 width="612px" height="792px" viewBox="0 0 612 792" enable-background="new 0 0 612 792" xml:space="preserve">
<path fill="none" stroke="#434344" stroke-width="0.581" d="M482.151,589.354c0,1.634,1.326,2.96,2.962,2.96s2.962-1.326,2.962-2.96
	c0-1.636-1.326-2.96-2.962-2.96S482.151,587.719,482.151,589.354"/>
<path fill="none" stroke="#434344" stroke-width="0.581" d="M496.088,589.354c0,1.634-1.325,2.96-2.96,2.96
	c-1.636,0-2.962-1.326-2.962-2.96c0-1.636,1.326-2.96,2.962-2.96C494.763,586.395,496.088,587.719,496.088,589.354"/>
<path fill="none" stroke="#434344" stroke-width="0.581" d="M480.06,589.354c0,1.634-1.327,2.96-2.961,2.96
	c-1.635,0-2.961-1.326-2.961-2.96c0-1.636,1.326-2.96,2.961-2.96C478.732,586.395,480.06,587.719,480.06,589.354"/>
<path fill="none" stroke="#434344" stroke-width="0.581" d="M466.123,589.354c0,1.634,1.325,2.96,2.959,2.96
	c1.635,0,2.961-1.326,2.961-2.96c0-1.636-1.326-2.96-2.961-2.96C467.448,586.395,466.123,587.719,466.123,589.354"/>
<path fill="none" stroke="#434344" stroke-width="0.581" d="M464.039,589.354c0,1.634-1.326,2.96-2.961,2.96
	c-1.636,0-2.961-1.326-2.961-2.96c0-1.636,1.325-2.96,2.961-2.96C462.713,586.395,464.039,587.719,464.039,589.354"/>
<path fill="none" stroke="#434344" stroke-width="0.581" d="M449.991,589.354c0,1.634,1.325,2.96,2.961,2.96s2.96-1.326,2.96-2.96
	c0-1.636-1.324-2.96-2.96-2.96S449.991,587.719,449.991,589.354"/>
<path fill="none" stroke="#434344" stroke-width="0.581" d="M512.117,589.354c0,1.634-1.325,2.96-2.962,2.96
	c-1.635,0-2.961-1.326-2.961-2.96c0-1.636,1.326-2.96,2.961-2.96C510.792,586.395,512.117,587.719,512.117,589.354"/>
<path fill="none" stroke="#434344" stroke-width="0.581" d="M498.182,589.354c0,1.634,1.324,2.96,2.961,2.96
	c1.636,0,2.961-1.326,2.961-2.96c0-1.636-1.325-2.96-2.961-2.96C499.506,586.395,498.182,587.719,498.182,589.354"/>
<path fill="none" stroke="#434344" stroke-width="0.581" d="M528.162,589.354c0,1.634-1.326,2.96-2.962,2.96
	c-1.634,0-2.96-1.326-2.96-2.96c0-1.636,1.326-2.96,2.96-2.96C526.836,586.395,528.162,587.719,528.162,589.354"/>
<path fill="none" stroke="#434344" stroke-width="0.581" d="M514.115,589.354c0,1.634,1.323,2.96,2.959,2.96
	c1.637,0,2.96-1.326,2.96-2.96c0-1.636-1.323-2.96-2.96-2.96C515.438,586.395,514.115,587.719,514.115,589.354"/>
<path fill="none" stroke="#434344" stroke-width="0.581" d="M482.151,604.535c0,1.637,1.326,2.961,2.962,2.961
	s2.962-1.324,2.962-2.961c0-1.634-1.326-2.96-2.962-2.96S482.151,602.901,482.151,604.535"/>
<path fill="none" stroke="#434344" stroke-width="0.581" d="M496.088,604.535c0,1.637-1.325,2.961-2.96,2.961
	c-1.636,0-2.962-1.324-2.962-2.961c0-1.634,1.326-2.96,2.962-2.96C494.763,601.575,496.088,602.901,496.088,604.535"/>
<path fill="none" stroke="#434344" stroke-width="0.581" d="M480.06,604.535c0,1.637-1.327,2.961-2.961,2.961
	c-1.635,0-2.961-1.324-2.961-2.961c0-1.634,1.326-2.96,2.961-2.96C478.732,601.575,480.06,602.901,480.06,604.535"/>
<path fill="none" stroke="#434344" stroke-width="0.581" d="M466.123,604.535c0,1.637,1.325,2.961,2.959,2.961
	c1.635,0,2.961-1.324,2.961-2.961c0-1.634-1.326-2.96-2.961-2.96C467.448,601.575,466.123,602.901,466.123,604.535"/>
<path fill="none" stroke="#434344" stroke-width="0.581" d="M464.039,604.535c0,1.637-1.326,2.961-2.961,2.961
	c-1.636,0-2.961-1.324-2.961-2.961c0-1.634,1.325-2.96,2.961-2.96C462.713,601.575,464.039,602.901,464.039,604.535"/>
<path fill="none" stroke="#434344" stroke-width="0.581" d="M512.117,604.535c0,1.637-1.325,2.961-2.962,2.961
	c-1.635,0-2.961-1.324-2.961-2.961c0-1.634,1.326-2.96,2.961-2.96C510.792,601.575,512.117,602.901,512.117,604.535"/>
<path fill="none" stroke="#434344" stroke-width="0.581" d="M498.182,604.535c0,1.637,1.324,2.961,2.961,2.961
	c1.636,0,2.961-1.324,2.961-2.961c0-1.634-1.325-2.96-2.961-2.96C499.506,601.575,498.182,602.901,498.182,604.535"/>
<path fill="none" stroke="#434344" stroke-width="0.581" d="M514.115,604.535c0,1.637,1.323,2.961,2.959,2.961
	c1.637,0,2.96-1.324,2.96-2.961c0-1.634-1.323-2.96-2.96-2.96C515.438,601.575,514.115,602.901,514.115,604.535"/>
<path fill="none" stroke="#434344" stroke-width="0.581" d="M482.15,619.826c0-1.636,1.326-2.961,2.962-2.961
	c1.637,0,2.963,1.325,2.963,2.961c0,1.635-1.326,2.961-2.963,2.961C483.477,622.787,482.15,621.461,482.15,619.826"/>
<path fill="none" stroke="#434344" stroke-width="0.581" d="M496.088,619.826c0-1.636-1.325-2.961-2.96-2.961
	c-1.636,0-2.962,1.325-2.962,2.961c0,1.635,1.326,2.961,2.962,2.961C494.763,622.787,496.088,621.461,496.088,619.826"/>
<path fill="none" stroke="#434344" stroke-width="0.581" d="M480.06,619.826c0-1.636-1.327-2.961-2.961-2.961
	c-1.635,0-2.961,1.325-2.961,2.961c0,1.635,1.326,2.961,2.961,2.961C478.732,622.787,480.06,621.461,480.06,619.826"/>
<path fill="none" stroke="#434344" stroke-width="0.581" d="M466.123,619.826c0-1.636,1.325-2.961,2.959-2.961
	c1.635,0,2.961,1.325,2.961,2.961c0,1.635-1.326,2.961-2.961,2.961C467.448,622.787,466.123,621.461,466.123,619.826"/>
<path fill="none" stroke="#434344" stroke-width="0.581" d="M512.117,619.826c0-1.636-1.325-2.961-2.962-2.961
	c-1.635,0-2.961,1.325-2.961,2.961c0,1.635,1.326,2.961,2.961,2.961C510.792,622.787,512.117,621.461,512.117,619.826"/>
<path fill="none" stroke="#434344" stroke-width="0.581" d="M498.182,619.826c0-1.636,1.324-2.961,2.961-2.961
	c1.636,0,2.961,1.325,2.961,2.961c0,1.635-1.325,2.961-2.961,2.961C499.506,622.787,498.182,621.461,498.182,619.826"/>
<path fill="none" stroke="#434344" stroke-width="0.581" d="M482.151,557.937c0,1.635,1.326,2.959,2.962,2.959
	s2.962-1.324,2.962-2.959c0-1.636-1.326-2.959-2.962-2.959S482.151,556.301,482.151,557.937"/>
<path fill="none" stroke="#434344" stroke-width="0.581" d="M496.088,557.937c0,1.635-1.325,2.959-2.96,2.959
	c-1.636,0-2.962-1.324-2.962-2.959c0-1.636,1.326-2.959,2.962-2.959C494.763,554.978,496.088,556.301,496.088,557.937"/>
<path fill="none" stroke="#434344" stroke-width="0.581" d="M480.06,557.937c0,1.635-1.327,2.959-2.961,2.959
	c-1.635,0-2.961-1.324-2.961-2.959c0-1.636,1.326-2.959,2.961-2.959C478.732,554.978,480.06,556.301,480.06,557.937"/>
<path fill="none" stroke="#434344" stroke-width="0.581" d="M466.123,557.937c0,1.635,1.325,2.959,2.959,2.959
	c1.635,0,2.961-1.324,2.961-2.959c0-1.636-1.326-2.959-2.961-2.959C467.448,554.978,466.123,556.301,466.123,557.937"/>
<path fill="none" stroke="#434344" stroke-width="0.581" d="M464.039,557.937c0,1.635-1.326,2.959-2.961,2.959
	c-1.636,0-2.961-1.324-2.961-2.959c0-1.636,1.325-2.959,2.961-2.959C462.713,554.978,464.039,556.301,464.039,557.937"/>
<path fill="none" stroke="#434344" stroke-width="0.581" d="M449.991,557.937c0,1.635,1.325,2.959,2.961,2.959
	s2.96-1.324,2.96-2.959c0-1.636-1.324-2.959-2.96-2.959S449.991,556.301,449.991,557.937"/>
<path fill="none" stroke="#434344" stroke-width="0.581" d="M512.117,557.937c0,1.635-1.325,2.959-2.962,2.959
	c-1.635,0-2.961-1.324-2.961-2.959c0-1.636,1.326-2.959,2.961-2.959C510.792,554.978,512.117,556.301,512.117,557.937"/>
<path fill="none" stroke="#434344" stroke-width="0.581" d="M498.182,557.937c0,1.635,1.324,2.959,2.961,2.959
	c1.636,0,2.961-1.324,2.961-2.959c0-1.636-1.325-2.959-2.961-2.959C499.506,554.978,498.182,556.301,498.182,557.937"/>
<path fill="none" stroke="#434344" stroke-width="0.581" d="M528.162,557.937c0,1.635-1.326,2.959-2.962,2.959
	c-1.634,0-2.96-1.324-2.96-2.959c0-1.636,1.326-2.959,2.96-2.959C526.836,554.978,528.162,556.301,528.162,557.937"/>
<path fill="none" stroke="#434344" stroke-width="0.581" d="M514.115,557.937c0,1.635,1.323,2.959,2.959,2.959
	c1.637,0,2.96-1.324,2.96-2.959c0-1.636-1.323-2.959-2.96-2.959C515.438,554.978,514.115,556.301,514.115,557.937"/>
<path fill="none" stroke="#434344" stroke-width="0.581" d="M528.162,573.765c0,1.633-1.326,2.96-2.962,2.96
	c-1.634,0-2.96-1.327-2.96-2.96c0-1.636,1.326-2.959,2.96-2.959C526.836,570.806,528.162,572.129,528.162,573.765"/>
<path fill="none" stroke="#434344" stroke-width="0.581" d="M482.151,573.524c0,1.636,1.326,2.962,2.962,2.962
	s2.962-1.326,2.962-2.962c0-1.633-1.326-2.958-2.962-2.958S482.151,571.892,482.151,573.524"/>
<path fill="none" stroke="#434344" stroke-width="0.581" d="M496.088,573.524c0,1.636-1.325,2.962-2.96,2.962
	c-1.636,0-2.962-1.326-2.962-2.962c0-1.633,1.326-2.958,2.962-2.958C494.763,570.566,496.088,571.892,496.088,573.524"/>
<path fill="none" stroke="#434344" stroke-width="0.581" d="M480.06,573.524c0,1.636-1.327,2.962-2.961,2.962
	c-1.635,0-2.961-1.326-2.961-2.962c0-1.633,1.326-2.958,2.961-2.958C478.732,570.566,480.06,571.892,480.06,573.524"/>
<path fill="none" stroke="#434344" stroke-width="0.581" d="M466.123,573.524c0,1.636,1.325,2.962,2.959,2.962
	c1.635,0,2.961-1.326,2.961-2.962c0-1.633-1.326-2.958-2.961-2.958C467.448,570.566,466.123,571.892,466.123,573.524"/>
<path fill="none" stroke="#434344" stroke-width="0.581" d="M464.039,573.524c0,1.636-1.326,2.962-2.961,2.962
	c-1.636,0-2.961-1.326-2.961-2.962c0-1.633,1.325-2.958,2.961-2.958C462.713,570.566,464.039,571.892,464.039,573.524"/>
<path fill="none" stroke="#434344" stroke-width="0.581" d="M449.991,573.524c0,1.636,1.325,2.962,2.961,2.962
	s2.96-1.326,2.96-2.962c0-1.633-1.324-2.958-2.96-2.958S449.991,571.892,449.991,573.524"/>
<path fill="none" stroke="#434344" stroke-width="0.581" d="M512.117,573.524c0,1.636-1.325,2.962-2.962,2.962
	c-1.635,0-2.961-1.326-2.961-2.962c0-1.633,1.326-2.958,2.961-2.958C510.792,570.566,512.117,571.892,512.117,573.524"/>
<path fill="none" stroke="#434344" stroke-width="0.581" d="M498.182,573.524c0,1.636,1.324,2.962,2.961,2.962
	c1.636,0,2.961-1.326,2.961-2.962c0-1.633-1.325-2.958-2.961-2.958C499.506,570.566,498.182,571.892,498.182,573.524"/>
<path fill="none" stroke="#434344" stroke-width="0.581" d="M514.115,573.524c0,1.636,1.323,2.962,2.959,2.962
	c1.637,0,2.96-1.326,2.96-2.962c0-1.633-1.323-2.958-2.96-2.958C515.438,570.566,514.115,571.892,514.115,573.524"/>
</svg>
