<?xml version="1.0" encoding="utf-8"?>
<!-- Generator: Adobe Illustrator 15.1.0, SVG Export Plug-In . SVG Version: 6.00 Build 0)  -->
<!DOCTYPE svg PUBLIC "-//W3C//DTD SVG 1.0//EN" "http://www.w3.org/TR/2001/REC-SVG-20010904/DTD/svg10.dtd">
<svg version="1.0" id="Layer_1" xmlns="http://www.w3.org/2000/svg" xmlns:xlink="http://www.w3.org/1999/xlink" x="0px" y="0px"
	 width="612px" height="792px" viewBox="0 0 612 792" enable-background="new 0 0 612 792" xml:space="preserve">
<path fill="none" stroke="#434344" stroke-width="0.581" d="M566.035,321.761c-1.636,0-2.962,1.326-2.962,2.962
	c0,1.635,1.326,2.961,2.962,2.961c1.633,0,2.959-1.326,2.959-2.961C568.994,323.087,567.668,321.761,566.035,321.761
	 M566.035,353.458c-1.636,0-2.962,1.325-2.962,2.962c0,1.635,1.326,2.961,2.962,2.961c1.633,0,2.959-1.326,2.959-2.961
	C568.994,354.782,567.668,353.458,566.035,353.458 M566.035,290.064c-1.636,0-2.962,1.329-2.962,2.96c0,1.634,1.326,2.96,2.962,2.96
	c1.633,0,2.959-1.326,2.959-2.96C568.994,291.393,567.668,290.064,566.035,290.064 M566.035,226.669
	c-1.636,0-2.962,1.327-2.962,2.961s1.326,2.96,2.962,2.96c1.633,0,2.959-1.326,2.959-2.96S567.668,226.669,566.035,226.669
	 M566.035,171.139c-1.636,0-2.962,1.326-2.962,2.961c0,1.633,1.326,2.96,2.962,2.96c1.633,0,2.959-1.327,2.959-2.96
	C568.994,172.465,567.668,171.139,566.035,171.139 M566.035,155.291c-1.636,0-2.962,1.326-2.962,2.959
	c0,1.637,1.326,2.962,2.962,2.962c1.633,0,2.959-1.325,2.959-2.962C568.994,156.617,567.668,155.291,566.035,155.291
	 M557.282,171.137c-1.636,0-2.962,1.327-2.962,2.962c0,1.634,1.326,2.961,2.962,2.961c1.632,0,2.959-1.327,2.959-2.961
	C560.241,172.464,558.914,171.137,557.282,171.137 M548.528,171.168c-1.635,0-2.96,1.326-2.96,2.962c0,1.634,1.325,2.96,2.96,2.96
	c1.633,0,2.96-1.326,2.96-2.96C551.488,172.494,550.161,171.168,548.528,171.168 M566.035,258.367c-1.636,0-2.962,1.329-2.962,2.96
	c0,1.637,1.326,2.961,2.962,2.961c1.633,0,2.959-1.325,2.959-2.961C568.994,259.696,567.668,258.367,566.035,258.367
	 M566.035,194.973c-1.636,0-2.962,1.326-2.962,2.961c0,1.634,1.326,2.96,2.962,2.96c1.633,0,2.959-1.326,2.959-2.96
	C568.994,196.298,567.668,194.973,566.035,194.973 M557.282,448.515c-1.636,0-2.962,1.326-2.962,2.96
	c0,1.635,1.326,2.962,2.962,2.962c1.632,0,2.959-1.327,2.959-2.962C560.241,449.841,558.914,448.515,557.282,448.515
	 M557.282,478.207c-1.636,0-2.962-1.326-2.962-2.96c0-1.636,1.326-2.962,2.962-2.962c1.632,0,2.959,1.326,2.959,2.962
	C560.241,476.881,558.914,478.207,557.282,478.207 M557.282,416.822c-1.636,0-2.962,1.326-2.962,2.961s1.326,2.961,2.962,2.961
	c1.632,0,2.959-1.326,2.959-2.961S558.914,416.822,557.282,416.822 M557.282,385.128c-1.636,0-2.962,1.327-2.962,2.962
	c0,1.634,1.326,2.961,2.962,2.961c1.632,0,2.959-1.327,2.959-2.961C560.241,386.455,558.914,385.128,557.282,385.128
	 M557.282,321.742c-1.636,0-2.962,1.326-2.962,2.961c0,1.637,1.326,2.962,2.962,2.962c1.632,0,2.959-1.325,2.959-2.962
	C560.241,323.067,558.914,321.742,557.282,321.742 M557.282,353.436c-1.636,0-2.962,1.325-2.962,2.96c0,1.634,1.326,2.96,2.962,2.96
	c1.632,0,2.959-1.326,2.959-2.96C560.241,354.761,558.914,353.436,557.282,353.436 M557.282,290.05c-1.636,0-2.962,1.327-2.962,2.96
	c0,1.635,1.326,2.961,2.962,2.961c1.632,0,2.959-1.326,2.959-2.961C560.241,291.377,558.914,290.05,557.282,290.05 M557.282,226.663
	c-1.636,0-2.962,1.326-2.962,2.962c0,1.634,1.326,2.96,2.962,2.96c1.632,0,2.959-1.326,2.959-2.96
	C560.241,227.989,558.914,226.663,557.282,226.663 M557.282,258.356c-1.636,0-2.962,1.329-2.962,2.96
	c0,1.638,1.326,2.961,2.962,2.961c1.632,0,2.959-1.323,2.959-2.961C560.241,259.685,558.914,258.356,557.282,258.356
	 M557.282,194.97c-1.636,0-2.962,1.326-2.962,2.961c0,1.634,1.326,2.96,2.962,2.96c1.632,0,2.959-1.326,2.959-2.96
	C560.241,196.296,558.914,194.97,557.282,194.97 M539.775,449.045c-1.635,0-2.96,1.326-2.96,2.962c0,1.634,1.325,2.96,2.96,2.96
	c1.634,0,2.961-1.326,2.961-2.96C542.736,450.371,541.409,449.045,539.775,449.045 M539.775,478.784c-1.635,0-2.96-1.324-2.96-2.96
	c0-1.635,1.325-2.961,2.96-2.961c1.634,0,2.961,1.326,2.961,2.961C542.736,477.46,541.409,478.784,539.775,478.784 M539.775,417.292
	c-1.635,0-2.96,1.325-2.96,2.96c0,1.636,1.325,2.962,2.96,2.962c1.634,0,2.961-1.326,2.961-2.962
	C542.736,418.617,541.409,417.292,539.775,417.292 M539.775,385.535c-1.635,0-2.96,1.326-2.96,2.962c0,1.634,1.325,2.96,2.96,2.96
	c1.634,0,2.961-1.326,2.961-2.96C542.736,386.861,541.409,385.535,539.775,385.535 M539.775,322.023c-1.635,0-2.96,1.327-2.96,2.96
	c0,1.637,1.325,2.962,2.96,2.962c1.634,0,2.961-1.325,2.961-2.962C542.736,323.351,541.409,322.023,539.775,322.023
	 M539.775,353.779c-1.635,0-2.96,1.325-2.96,2.961c0,1.634,1.325,2.96,2.96,2.96c1.634,0,2.961-1.326,2.961-2.96
	C542.736,355.104,541.409,353.779,539.775,353.779 M539.775,290.268c-1.635,0-2.96,1.329-2.96,2.961c0,1.635,1.325,2.96,2.96,2.96
	c1.634,0,2.961-1.326,2.961-2.96C542.736,291.597,541.409,290.268,539.775,290.268 M539.775,226.757c-1.635,0-2.96,1.327-2.96,2.961
	c0,1.636,1.325,2.962,2.96,2.962c1.634,0,2.961-1.326,2.961-2.962C542.736,228.084,541.409,226.757,539.775,226.757
	 M539.775,258.513c-1.635,0-2.96,1.328-2.96,2.961c0,1.637,1.325,2.96,2.96,2.96c1.634,0,2.961-1.324,2.961-2.96
	C542.736,259.841,541.409,258.513,539.775,258.513 M539.775,195.001c-1.635,0-2.96,1.328-2.96,2.962s1.325,2.96,2.96,2.96
	c1.634,0,2.961-1.326,2.961-2.96S541.409,195.001,539.775,195.001 M548.528,449.045c-1.635,0-2.96,1.326-2.96,2.962
	c0,1.634,1.325,2.96,2.96,2.96c1.633,0,2.96-1.326,2.96-2.96C551.488,450.371,550.161,449.045,548.528,449.045 M548.528,478.784
	c-1.635,0-2.96-1.324-2.96-2.96c0-1.635,1.325-2.961,2.96-2.961c1.633,0,2.96,1.326,2.96,2.961
	C551.488,477.46,550.161,478.784,548.528,478.784 M548.528,417.292c-1.635,0-2.96,1.325-2.96,2.96c0,1.636,1.325,2.962,2.96,2.962
	c1.633,0,2.96-1.326,2.96-2.962C551.488,418.617,550.161,417.292,548.528,417.292 M548.528,385.535c-1.635,0-2.96,1.326-2.96,2.962
	c0,1.634,1.325,2.96,2.96,2.96c1.633,0,2.96-1.326,2.96-2.96C551.488,386.861,550.161,385.535,548.528,385.535 M548.528,322.023
	c-1.635,0-2.96,1.327-2.96,2.96c0,1.637,1.325,2.962,2.96,2.962c1.633,0,2.96-1.325,2.96-2.962
	C551.488,323.351,550.161,322.023,548.528,322.023 M548.528,353.779c-1.635,0-2.96,1.325-2.96,2.961c0,1.634,1.325,2.96,2.96,2.96
	c1.633,0,2.96-1.326,2.96-2.96C551.488,355.104,550.161,353.779,548.528,353.779 M548.528,290.268c-1.635,0-2.96,1.329-2.96,2.961
	c0,1.635,1.325,2.96,2.96,2.96c1.633,0,2.96-1.326,2.96-2.96C551.488,291.597,550.161,290.268,548.528,290.268 M548.528,226.757
	c-1.635,0-2.96,1.327-2.96,2.961c0,1.636,1.325,2.962,2.96,2.962c1.633,0,2.96-1.326,2.96-2.962
	C551.488,228.084,550.161,226.757,548.528,226.757 M548.528,258.513c-1.635,0-2.96,1.328-2.96,2.961c0,1.637,1.325,2.96,2.96,2.96
	c1.633,0,2.96-1.324,2.96-2.96C551.488,259.841,550.161,258.513,548.528,258.513 M548.528,195.001c-1.635,0-2.96,1.328-2.96,2.962
	s1.325,2.96,2.96,2.96c1.633,0,2.96-1.326,2.96-2.96S550.161,195.001,548.528,195.001"/>
<path fill="none" stroke="#434344" stroke-width="0.581" d="M566.035,448.549c-1.636,0-2.962,1.326-2.962,2.962
	c0,1.635,1.326,2.961,2.962,2.961c1.633,0,2.959-1.326,2.959-2.961C568.994,449.875,567.668,448.549,566.035,448.549"/>
<path fill="none" stroke="#434344" stroke-width="0.581" d="M566.035,416.853c-1.636,0-2.962,1.326-2.962,2.959
	c0,1.636,1.326,2.962,2.962,2.962c1.633,0,2.959-1.326,2.959-2.962C568.994,418.179,567.668,416.853,566.035,416.853"/>
<path fill="none" stroke="#434344" stroke-width="0.581" d="M566.035,385.154c-1.636,0-2.962,1.327-2.962,2.962
	c0,1.634,1.326,2.96,2.962,2.96c1.633,0,2.959-1.326,2.959-2.96C568.994,386.481,567.668,385.154,566.035,385.154"/>
</svg>
