<?xml version="1.0" encoding="utf-8"?>
<!-- Generator: Adobe Illustrator 15.1.0, SVG Export Plug-In . SVG Version: 6.00 Build 0)  -->
<!DOCTYPE svg PUBLIC "-//W3C//DTD SVG 1.0//EN" "http://www.w3.org/TR/2001/REC-SVG-20010904/DTD/svg10.dtd">
<svg version="1.0" id="Layer_1" xmlns="http://www.w3.org/2000/svg" xmlns:xlink="http://www.w3.org/1999/xlink" x="0px" y="0px"
	 width="612px" height="792px" viewBox="0 0 612 792" enable-background="new 0 0 612 792" xml:space="preserve">
<path fill="none" stroke="#434344" stroke-width="0.581" d="M463.772,350.777c-1.634,0-2.959,1.327-2.959,2.961
	c0,1.637,1.325,2.959,2.959,2.959c1.636,0,2.96-1.323,2.96-2.959C466.732,352.104,465.408,350.777,463.772,350.777"/>
<path fill="none" stroke="#434344" stroke-width="0.581" d="M516.104,341.68c-1.636,0-2.961-1.326-2.961-2.962
	c0-1.634,1.325-2.96,2.961-2.96c1.633,0,2.958,1.326,2.958,2.96C519.063,340.354,517.737,341.68,516.104,341.68"/>
<path fill="none" stroke="#434344" stroke-width="0.581" d="M463.772,341.68c-1.634,0-2.959-1.326-2.959-2.962
	c0-1.634,1.325-2.96,2.959-2.96c1.636,0,2.96,1.326,2.96,2.96C466.732,340.354,465.408,341.68,463.772,341.68"/>
<path fill="none" stroke="#434344" stroke-width="0.581" d="M516.104,326.661c-1.636,0-2.961-1.328-2.961-2.964
	c0-1.633,1.325-2.959,2.961-2.959c1.633,0,2.958,1.326,2.958,2.959C519.063,325.333,517.737,326.661,516.104,326.661"/>
<path fill="none" stroke="#434344" stroke-width="0.581" d="M463.772,326.661c-1.634,0-2.959-1.328-2.959-2.964
	c0-1.633,1.325-2.959,2.959-2.959c1.636,0,2.96,1.326,2.96,2.959C466.732,325.333,465.408,326.661,463.772,326.661"/>
<path fill="none" stroke="#434344" stroke-width="0.581" d="M516.104,305.719c-1.636,0-2.961,1.325-2.961,2.959
	c0,1.637,1.325,2.962,2.961,2.962c1.633,0,2.958-1.325,2.958-2.962C519.063,307.044,517.737,305.719,516.104,305.719"/>
<path fill="none" stroke="#434344" stroke-width="0.581" d="M463.772,305.719c-1.634,0-2.959,1.325-2.959,2.959
	c0,1.637,1.325,2.962,2.959,2.962c1.636,0,2.96-1.325,2.96-2.962C466.732,307.044,465.408,305.719,463.772,305.719"/>
<path fill="none" stroke="#434344" stroke-width="0.581" d="M463.772,365.796c-1.634,0-2.959,1.325-2.959,2.962
	c0,1.634,1.325,2.96,2.959,2.96c1.636,0,2.96-1.326,2.96-2.96C466.732,367.121,465.408,365.796,463.772,365.796"/>
<path fill="none" stroke="#434344" stroke-width="0.581" d="M516.104,365.796c-1.636,0-2.961,1.325-2.961,2.962
	c0,1.634,1.325,2.96,2.961,2.96c1.633,0,2.958-1.326,2.958-2.96C519.063,367.121,517.737,365.796,516.104,365.796"/>
<path fill="none" stroke="#434344" stroke-width="0.581" d="M516.104,350.777c-1.636,0-2.961,1.327-2.961,2.961
	c0,1.637,1.325,2.959,2.961,2.959c1.633,0,2.958-1.323,2.958-2.959C519.063,352.104,517.737,350.777,516.104,350.777"/>
</svg>
