<?xml version="1.0" encoding="utf-8"?>
<!-- Generator: Adobe Illustrator 15.1.0, SVG Export Plug-In . SVG Version: 6.00 Build 0)  -->
<!DOCTYPE svg PUBLIC "-//W3C//DTD SVG 1.0//EN" "http://www.w3.org/TR/2001/REC-SVG-20010904/DTD/svg10.dtd">
<svg version="1.0" id="Layer_1" xmlns="http://www.w3.org/2000/svg" xmlns:xlink="http://www.w3.org/1999/xlink" x="0px" y="0px"
	 width="612px" height="792px" viewBox="0 0 612 792" enable-background="new 0 0 612 792" xml:space="preserve">
<path d="M217.204,464.119c0,0.462-0.209,0.912-0.627,1.352l-0.066,0.064l-3.662,3.859c-0.778,0.817-1.44,1.449-1.987,1.896
	s-0.934,0.67-1.159,0.67c-0.236,0-0.53-0.111-0.882-0.335c-0.353-0.223-0.579-0.453-0.682-0.691
	c-0.088-0.196-0.169-0.615-0.246-1.256c-0.077-0.64-0.115-1.332-0.115-2.08c0-0.406,0.169-0.783,0.51-1.129
	c0.339-0.346,0.714-0.519,1.125-0.519c0.391,0,0.624,0.357,0.698,1.073l0.018,0.184c0.063,0.55,0.137,0.933,0.22,1.149
	c0.083,0.217,0.195,0.326,0.338,0.326c0.058,0,0.169-0.064,0.331-0.193c0.162-0.128,0.355-0.304,0.581-0.524l3.763-3.729
	c0.315-0.315,0.599-0.554,0.847-0.716c0.248-0.162,0.459-0.242,0.633-0.242c0.13,0,0.223,0.049,0.278,0.147
	c0.057,0.099,0.083,0.264,0.083,0.498V464.119"/>
</svg>
