<?xml version="1.0" encoding="utf-8"?>
<!-- Generator: Adobe Illustrator 15.1.0, SVG Export Plug-In . SVG Version: 6.00 Build 0)  -->
<!DOCTYPE svg PUBLIC "-//W3C//DTD SVG 1.0//EN" "http://www.w3.org/TR/2001/REC-SVG-20010904/DTD/svg10.dtd">
<svg version="1.0" id="Layer_1" xmlns="http://www.w3.org/2000/svg" xmlns:xlink="http://www.w3.org/1999/xlink" x="0px" y="0px"
	 width="612px" height="792px" viewBox="0 0 612 792" enable-background="new 0 0 612 792" xml:space="preserve">
<path d="M180.362,329.084c0,0.462-0.21,0.912-0.629,1.351l-0.064,0.065l-3.663,3.859c-0.777,0.817-1.44,1.45-1.987,1.896
	c-0.547,0.447-0.934,0.67-1.159,0.67c-0.236,0-0.531-0.11-0.883-0.335c-0.352-0.223-0.578-0.452-0.681-0.69
	c-0.086-0.198-0.169-0.617-0.246-1.256c-0.077-0.641-0.115-1.333-0.115-2.081c0-0.407,0.17-0.784,0.51-1.129
	c0.34-0.346,0.715-0.517,1.126-0.517c0.391,0,0.624,0.356,0.698,1.071l0.019,0.185c0.063,0.548,0.136,0.932,0.218,1.148
	c0.084,0.217,0.196,0.326,0.338,0.326c0.059,0,0.169-0.065,0.332-0.193s0.355-0.303,0.581-0.523l3.763-3.729
	c0.316-0.315,0.599-0.556,0.847-0.718c0.25-0.162,0.461-0.242,0.635-0.242c0.13,0,0.222,0.049,0.279,0.147
	c0.055,0.099,0.083,0.266,0.083,0.498V329.084"/>
</svg>
