<?xml version="1.0" encoding="utf-8"?>
<!-- Generator: Adobe Illustrator 15.1.0, SVG Export Plug-In . SVG Version: 6.00 Build 0)  -->
<!DOCTYPE svg PUBLIC "-//W3C//DTD SVG 1.0//EN" "http://www.w3.org/TR/2001/REC-SVG-20010904/DTD/svg10.dtd">
<svg version="1.0" id="Layer_1" xmlns="http://www.w3.org/2000/svg" xmlns:xlink="http://www.w3.org/1999/xlink" x="0px" y="0px"
	 width="612px" height="792px" viewBox="0 0 612 792" enable-background="new 0 0 612 792" xml:space="preserve">
<path d="M91.491,734.188c0,0.463-0.209,0.913-0.628,1.351l-0.065,0.065l-3.662,3.859c-0.777,0.817-1.44,1.449-1.987,1.897
	c-0.547,0.445-0.933,0.669-1.159,0.669c-0.237,0-0.531-0.111-0.883-0.335c-0.352-0.225-0.578-0.453-0.682-0.69
	c-0.087-0.197-0.168-0.616-0.246-1.257c-0.077-0.641-0.115-1.333-0.115-2.081c0-0.406,0.17-0.782,0.51-1.129
	c0.34-0.346,0.715-0.518,1.125-0.518c0.392,0,0.624,0.356,0.699,1.072l0.019,0.185c0.063,0.548,0.136,0.933,0.219,1.148
	c0.083,0.219,0.195,0.327,0.338,0.327c0.059,0,0.169-0.064,0.332-0.192c0.162-0.13,0.355-0.304,0.581-0.524l3.763-3.729
	c0.315-0.315,0.599-0.556,0.848-0.718c0.249-0.162,0.46-0.242,0.634-0.242c0.129,0,0.222,0.049,0.278,0.147
	c0.056,0.1,0.083,0.265,0.083,0.499V734.188"/>
</svg>
