<?xml version="1.0" encoding="utf-8"?>
<!-- Generator: Adobe Illustrator 15.1.0, SVG Export Plug-In . SVG Version: 6.00 Build 0)  -->
<!DOCTYPE svg PUBLIC "-//W3C//DTD SVG 1.0//EN" "http://www.w3.org/TR/2001/REC-SVG-20010904/DTD/svg10.dtd">
<svg version="1.0" id="Layer_1" xmlns="http://www.w3.org/2000/svg" xmlns:xlink="http://www.w3.org/1999/xlink" x="0px" y="0px"
	 width="612px" height="792px" viewBox="0 0 612 792" enable-background="new 0 0 612 792" xml:space="preserve">
<path d="M91.491,599.154c0,0.462-0.209,0.912-0.628,1.351l-0.065,0.065l-3.662,3.857c-0.777,0.817-1.44,1.45-1.987,1.897
	c-0.547,0.445-0.933,0.67-1.159,0.67c-0.237,0-0.531-0.112-0.883-0.335c-0.352-0.225-0.578-0.454-0.682-0.691
	c-0.087-0.196-0.168-0.615-0.246-1.256c-0.077-0.64-0.115-1.334-0.115-2.081c0-0.407,0.17-0.782,0.51-1.128
	c0.34-0.347,0.715-0.519,1.125-0.519c0.392,0,0.624,0.357,0.699,1.072l0.019,0.184c0.063,0.55,0.136,0.933,0.219,1.15
	c0.083,0.217,0.195,0.326,0.338,0.326c0.059,0,0.169-0.065,0.332-0.193s0.355-0.304,0.581-0.524l3.763-3.729
	c0.315-0.315,0.599-0.556,0.848-0.716c0.249-0.162,0.46-0.244,0.634-0.244c0.129,0,0.222,0.051,0.278,0.147
	c0.056,0.1,0.083,0.266,0.083,0.499V599.154"/>
</svg>
