<?xml version="1.0" encoding="utf-8"?>
<!-- Generator: Adobe Illustrator 15.1.0, SVG Export Plug-In . SVG Version: 6.00 Build 0)  -->
<!DOCTYPE svg PUBLIC "-//W3C//DTD SVG 1.0//EN" "http://www.w3.org/TR/2001/REC-SVG-20010904/DTD/svg10.dtd">
<svg version="1.0" id="Layer_1" xmlns="http://www.w3.org/2000/svg" xmlns:xlink="http://www.w3.org/1999/xlink" x="0px" y="0px"
	 width="612px" height="792px" viewBox="0 0 612 792" enable-background="new 0 0 612 792" xml:space="preserve">
<path fill="none" stroke="#000000" stroke-width="0.5057" d="M265.196,425.082c0,1.444-1.172,2.617-2.62,2.617
	c-1.447,0-2.618-1.173-2.618-2.617c0-1.448,1.171-2.62,2.618-2.62C264.023,422.462,265.196,423.634,265.196,425.082"/>
<path fill="none" stroke="#000000" stroke-width="0.5057" d="M265.196,406.875c0,1.446-1.172,2.617-2.62,2.617
	c-1.447,0-2.618-1.171-2.618-2.617c0-1.447,1.171-2.62,2.618-2.62C264.023,404.255,265.196,405.428,265.196,406.875"/>
<path fill="none" stroke="#000000" stroke-width="0.5057" d="M265.196,388.668c0,1.446-1.172,2.619-2.62,2.619
	c-1.447,0-2.618-1.173-2.618-2.619c0-1.446,1.171-2.619,2.618-2.619C264.023,386.049,265.196,387.221,265.196,388.668"/>
<path fill="none" stroke="#000000" stroke-width="0.5057" d="M265.196,370.46c0,1.446-1.172,2.618-2.62,2.618
	c-1.447,0-2.618-1.172-2.618-2.618c0-1.446,1.171-2.619,2.618-2.619C264.023,367.842,265.196,369.014,265.196,370.46"/>
<path fill="none" stroke="#000000" stroke-width="0.5057" d="M272.196,425.082c0,1.444-1.172,2.617-2.62,2.617
	c-1.447,0-2.618-1.173-2.618-2.617c0-1.448,1.171-2.62,2.618-2.62C271.023,422.462,272.196,423.634,272.196,425.082"/>
<path fill="none" stroke="#000000" stroke-width="0.5057" d="M272.196,406.875c0,1.446-1.172,2.617-2.62,2.617
	c-1.447,0-2.618-1.171-2.618-2.617c0-1.447,1.171-2.62,2.618-2.62C271.023,404.255,272.196,405.428,272.196,406.875"/>
<path fill="none" stroke="#000000" stroke-width="0.5057" d="M272.196,388.668c0,1.446-1.172,2.619-2.62,2.619
	c-1.447,0-2.618-1.173-2.618-2.619c0-1.446,1.171-2.619,2.618-2.619C271.023,386.049,272.196,387.221,272.196,388.668"/>
<path fill="none" stroke="#000000" stroke-width="0.5057" d="M272.196,370.46c0,1.446-1.172,2.618-2.62,2.618
	c-1.447,0-2.618-1.172-2.618-2.618c0-1.446,1.171-2.619,2.618-2.619C271.023,367.842,272.196,369.014,272.196,370.46"/>
<path fill="none" stroke="#000000" stroke-width="0.5057" d="M279.196,425.082c0,1.444-1.172,2.617-2.62,2.617
	c-1.447,0-2.618-1.173-2.618-2.617c0-1.448,1.171-2.62,2.618-2.62C278.023,422.462,279.196,423.634,279.196,425.082"/>
<path fill="none" stroke="#000000" stroke-width="0.5057" d="M279.196,406.875c0,1.446-1.172,2.617-2.62,2.617
	c-1.447,0-2.618-1.171-2.618-2.617c0-1.447,1.171-2.62,2.618-2.62C278.023,404.255,279.196,405.428,279.196,406.875"/>
<path fill="none" stroke="#000000" stroke-width="0.5057" d="M279.196,388.668c0,1.446-1.172,2.619-2.62,2.619
	c-1.447,0-2.618-1.173-2.618-2.619c0-1.446,1.171-2.619,2.618-2.619C278.023,386.049,279.196,387.221,279.196,388.668"/>
<path fill="none" stroke="#000000" stroke-width="0.5057" d="M279.196,370.46c0,1.446-1.172,2.618-2.62,2.618
	c-1.447,0-2.618-1.172-2.618-2.618c0-1.446,1.171-2.619,2.618-2.619C278.023,367.842,279.196,369.014,279.196,370.46"/>
<path fill="none" stroke="#000000" stroke-width="0.5057" d="M286.196,425.082c0,1.444-1.172,2.617-2.62,2.617
	c-1.447,0-2.618-1.173-2.618-2.617c0-1.448,1.171-2.62,2.618-2.62C285.023,422.462,286.196,423.634,286.196,425.082"/>
<path fill="none" stroke="#000000" stroke-width="0.5057" d="M286.196,406.875c0,1.446-1.172,2.617-2.62,2.617
	c-1.447,0-2.618-1.171-2.618-2.617c0-1.447,1.171-2.62,2.618-2.62C285.023,404.255,286.196,405.428,286.196,406.875"/>
<path fill="none" stroke="#000000" stroke-width="0.5057" d="M286.196,388.668c0,1.446-1.172,2.619-2.62,2.619
	c-1.447,0-2.618-1.173-2.618-2.619c0-1.446,1.171-2.619,2.618-2.619C285.023,386.049,286.196,387.221,286.196,388.668"/>
<path fill="none" stroke="#000000" stroke-width="0.5057" d="M286.196,370.46c0,1.446-1.172,2.618-2.62,2.618
	c-1.447,0-2.618-1.172-2.618-2.618c0-1.446,1.171-2.619,2.618-2.619C285.023,367.842,286.196,369.014,286.196,370.46"/>
<path fill="none" stroke="#000000" stroke-width="0.5057" d="M293.196,425.082c0,1.444-1.172,2.617-2.62,2.617
	c-1.447,0-2.618-1.173-2.618-2.617c0-1.448,1.171-2.62,2.618-2.62C292.023,422.462,293.196,423.634,293.196,425.082"/>
<path fill="none" stroke="#000000" stroke-width="0.5057" d="M293.196,406.875c0,1.446-1.172,2.617-2.62,2.617
	c-1.447,0-2.618-1.171-2.618-2.617c0-1.447,1.171-2.62,2.618-2.62C292.023,404.255,293.196,405.428,293.196,406.875"/>
<path fill="none" stroke="#000000" stroke-width="0.5057" d="M293.196,388.668c0,1.446-1.172,2.619-2.62,2.619
	c-1.447,0-2.618-1.173-2.618-2.619c0-1.446,1.171-2.619,2.618-2.619C292.023,386.049,293.196,387.221,293.196,388.668"/>
<path fill="none" stroke="#000000" stroke-width="0.5057" d="M293.196,370.46c0,1.446-1.172,2.618-2.62,2.618
	c-1.447,0-2.618-1.172-2.618-2.618c0-1.446,1.171-2.619,2.618-2.619C292.023,367.842,293.196,369.014,293.196,370.46"/>
<path fill="none" stroke="#000000" stroke-width="0.5057" d="M300.196,425.082c0,1.444-1.172,2.617-2.62,2.617
	c-1.447,0-2.618-1.173-2.618-2.617c0-1.448,1.171-2.62,2.618-2.62C299.023,422.462,300.196,423.634,300.196,425.082"/>
<path fill="none" stroke="#000000" stroke-width="0.5057" d="M300.196,406.875c0,1.446-1.172,2.617-2.62,2.617
	c-1.447,0-2.618-1.171-2.618-2.617c0-1.447,1.171-2.62,2.618-2.62C299.023,404.255,300.196,405.428,300.196,406.875"/>
<path fill="none" stroke="#000000" stroke-width="0.5057" d="M300.196,388.668c0,1.446-1.172,2.619-2.62,2.619
	c-1.447,0-2.618-1.173-2.618-2.619c0-1.446,1.171-2.619,2.618-2.619C299.023,386.049,300.196,387.221,300.196,388.668"/>
<path fill="none" stroke="#000000" stroke-width="0.5057" d="M300.196,370.46c0,1.446-1.172,2.618-2.62,2.618
	c-1.447,0-2.618-1.172-2.618-2.618c0-1.446,1.171-2.619,2.618-2.619C299.023,367.842,300.196,369.014,300.196,370.46"/>
<path fill="none" stroke="#000000" stroke-width="0.5057" d="M307.195,425.082c0,1.444-1.172,2.617-2.619,2.617
	c-1.447,0-2.618-1.173-2.618-2.617c0-1.448,1.171-2.62,2.618-2.62C306.023,422.462,307.195,423.634,307.195,425.082"/>
<path fill="none" stroke="#000000" stroke-width="0.5057" d="M307.195,406.875c0,1.446-1.172,2.617-2.619,2.617
	c-1.447,0-2.618-1.171-2.618-2.617c0-1.447,1.171-2.62,2.618-2.62C306.023,404.255,307.195,405.428,307.195,406.875"/>
<path fill="none" stroke="#000000" stroke-width="0.5057" d="M307.195,388.668c0,1.446-1.172,2.619-2.619,2.619
	c-1.447,0-2.618-1.173-2.618-2.619c0-1.446,1.171-2.619,2.618-2.619C306.023,386.049,307.195,387.221,307.195,388.668"/>
<path fill="none" stroke="#000000" stroke-width="0.5057" d="M307.195,370.46c0,1.446-1.172,2.618-2.619,2.618
	c-1.447,0-2.618-1.172-2.618-2.618c0-1.446,1.171-2.619,2.618-2.619C306.023,367.842,307.195,369.014,307.195,370.46"/>
<path fill="none" stroke="#000000" stroke-width="0.5057" d="M314.195,425.082c0,1.444-1.172,2.617-2.619,2.617
	s-2.618-1.173-2.618-2.617c0-1.448,1.171-2.62,2.618-2.62S314.195,423.634,314.195,425.082"/>
<path fill="none" stroke="#000000" stroke-width="0.5057" d="M314.195,406.875c0,1.446-1.172,2.617-2.619,2.617
	s-2.618-1.171-2.618-2.617c0-1.447,1.171-2.62,2.618-2.62S314.195,405.428,314.195,406.875"/>
<path fill="none" stroke="#000000" stroke-width="0.5057" d="M314.195,388.668c0,1.446-1.172,2.619-2.619,2.619
	s-2.618-1.173-2.618-2.619c0-1.446,1.171-2.619,2.618-2.619S314.195,387.221,314.195,388.668"/>
<path fill="none" stroke="#000000" stroke-width="0.5057" d="M314.195,370.46c0,1.446-1.172,2.618-2.619,2.618
	s-2.618-1.172-2.618-2.618c0-1.446,1.171-2.619,2.618-2.619S314.195,369.014,314.195,370.46"/>
<path fill="none" stroke="#000000" stroke-width="0.5057" d="M321.195,425.082c0,1.444-1.172,2.617-2.619,2.617
	s-2.618-1.173-2.618-2.617c0-1.448,1.171-2.62,2.618-2.62S321.195,423.634,321.195,425.082"/>
<path fill="none" stroke="#000000" stroke-width="0.5057" d="M321.195,406.875c0,1.446-1.172,2.617-2.619,2.617
	s-2.618-1.171-2.618-2.617c0-1.447,1.171-2.62,2.618-2.62S321.195,405.428,321.195,406.875"/>
<path fill="none" stroke="#000000" stroke-width="0.5057" d="M321.195,388.668c0,1.446-1.172,2.619-2.619,2.619
	s-2.618-1.173-2.618-2.619c0-1.446,1.171-2.619,2.618-2.619S321.195,387.221,321.195,388.668"/>
<path fill="none" stroke="#000000" stroke-width="0.5057" d="M321.195,370.46c0,1.446-1.172,2.618-2.619,2.618
	s-2.618-1.172-2.618-2.618c0-1.446,1.171-2.619,2.618-2.619S321.195,369.014,321.195,370.46"/>
<path fill="none" stroke="#000000" stroke-width="0.5057" d="M328.195,425.082c0,1.444-1.172,2.617-2.619,2.617
	s-2.618-1.173-2.618-2.617c0-1.448,1.171-2.62,2.618-2.62S328.195,423.634,328.195,425.082"/>
<path fill="none" stroke="#000000" stroke-width="0.5057" d="M328.195,406.875c0,1.446-1.172,2.617-2.619,2.617
	s-2.618-1.171-2.618-2.617c0-1.447,1.171-2.62,2.618-2.62S328.195,405.428,328.195,406.875"/>
<path fill="none" stroke="#000000" stroke-width="0.5057" d="M328.195,388.668c0,1.446-1.172,2.619-2.619,2.619
	s-2.618-1.173-2.618-2.619c0-1.446,1.171-2.619,2.618-2.619S328.195,387.221,328.195,388.668"/>
<path fill="none" stroke="#000000" stroke-width="0.5057" d="M328.195,370.46c0,1.446-1.172,2.618-2.619,2.618
	s-2.618-1.172-2.618-2.618c0-1.446,1.171-2.619,2.618-2.619S328.195,369.014,328.195,370.46"/>
<path fill="none" stroke="#000000" stroke-width="0.5057" d="M335.195,425.082c0,1.444-1.172,2.617-2.619,2.617
	s-2.618-1.173-2.618-2.617c0-1.448,1.171-2.62,2.618-2.62S335.195,423.634,335.195,425.082"/>
<path fill="none" stroke="#000000" stroke-width="0.5057" d="M335.195,406.875c0,1.446-1.172,2.617-2.619,2.617
	s-2.618-1.171-2.618-2.617c0-1.447,1.171-2.62,2.618-2.62S335.195,405.428,335.195,406.875"/>
<path fill="none" stroke="#000000" stroke-width="0.5057" d="M335.195,388.668c0,1.446-1.172,2.619-2.619,2.619
	s-2.618-1.173-2.618-2.619c0-1.446,1.171-2.619,2.618-2.619S335.195,387.221,335.195,388.668"/>
<path fill="none" stroke="#000000" stroke-width="0.5057" d="M335.195,370.46c0,1.446-1.172,2.618-2.619,2.618
	s-2.618-1.172-2.618-2.618c0-1.446,1.171-2.619,2.618-2.619S335.195,369.014,335.195,370.46"/>
</svg>
