<?xml version="1.0" encoding="UTF-8" standalone="no"?>
<!-- Generator: Adobe Illustrator 15.1.0, SVG Export Plug-In . SVG Version: 6.00 Build 0)  -->

<svg
   xmlns:dc="http://purl.org/dc/elements/1.1/"
   xmlns:cc="http://creativecommons.org/ns#"
   xmlns:rdf="http://www.w3.org/1999/02/22-rdf-syntax-ns#"
   xmlns:svg="http://www.w3.org/2000/svg"
   xmlns="http://www.w3.org/2000/svg"
   xmlns:sodipodi="http://sodipodi.sourceforge.net/DTD/sodipodi-0.dtd"
   xmlns:inkscape="http://www.inkscape.org/namespaces/inkscape"
   version="1.0"
   id="Layer_1"
   x="0px"
   y="0px"
   width="612px"
   height="792px"
   viewBox="0 0 612 792"
   enable-background="new 0 0 612 792"
   xml:space="preserve"
   inkscape:version="0.48.4 r9939"
   sodipodi:docname="Squad5_1_17.svg"><metadata
   id="metadata4558"><rdf:RDF><cc:Work
       rdf:about=""><dc:format>image/svg+xml</dc:format><dc:type
         rdf:resource="http://purl.org/dc/dcmitype/StillImage" /></cc:Work></rdf:RDF></metadata><defs
   id="defs4556" /><sodipodi:namedview
   pagecolor="#ffffff"
   bordercolor="#666666"
   borderopacity="1"
   objecttolerance="10"
   gridtolerance="10"
   guidetolerance="10"
   inkscape:pageopacity="0"
   inkscape:pageshadow="2"
   inkscape:window-width="640"
   inkscape:window-height="480"
   id="namedview4554"
   showgrid="false"
   inkscape:zoom="1.1919192"
   inkscape:cx="306"
   inkscape:cy="30.368276"
   inkscape:window-x="0"
   inkscape:window-y="0"
   inkscape:window-maximized="0"
   inkscape:current-layer="Layer_1" />



<path
   fill="none"
   stroke="#000000"
   stroke-width="0.5057"
   d="M265.196,640.527c0,1.446-1.172,2.619-2.62,2.619  c-1.447,0-2.618-1.173-2.618-2.619c0-1.447,1.171-2.619,2.618-2.619S265.196,639.078,265.196,640.527"
   id="path4418" />



<path
   fill="none"
   stroke="#000000"
   stroke-width="0.5057"
   d="M272.196,640.527c0,1.446-1.172,2.619-2.62,2.619  c-1.447,0-2.618-1.173-2.618-2.619c0-1.447,1.171-2.619,2.618-2.619S272.196,639.078,272.196,640.527"
   id="path4426" />



<path
   fill="none"
   stroke="#000000"
   stroke-width="0.5057"
   d="M279.196,640.527c0,1.446-1.172,2.619-2.62,2.619  c-1.447,0-2.618-1.173-2.618-2.619c0-1.447,1.171-2.619,2.618-2.619S279.196,639.078,279.196,640.527"
   id="path4434" />



<path
   fill="none"
   stroke="#000000"
   stroke-width="0.5057"
   d="M286.196,640.527c0,1.446-1.172,2.619-2.62,2.619  c-1.447,0-2.618-1.173-2.618-2.619c0-1.447,1.171-2.619,2.618-2.619S286.196,639.078,286.196,640.527"
   id="path4442" />



<path
   fill="none"
   stroke="#000000"
   stroke-width="0.5057"
   d="M293.196,640.527c0,1.446-1.172,2.619-2.62,2.619  c-1.447,0-2.618-1.173-2.618-2.619c0-1.447,1.171-2.619,2.618-2.619S293.196,639.078,293.196,640.527"
   id="path4450" />



<path
   fill="none"
   stroke="#000000"
   stroke-width="0.5057"
   d="M300.196,640.527c0,1.446-1.172,2.619-2.62,2.619  c-1.447,0-2.618-1.173-2.618-2.619c0-1.447,1.171-2.619,2.618-2.619S300.196,639.078,300.196,640.527"
   id="path4458" />



<path
   fill="none"
   stroke="#000000"
   stroke-width="0.5057"
   d="M307.195,640.527c0,1.446-1.172,2.619-2.619,2.619  c-1.445,0-2.616-1.173-2.616-2.619c0-1.447,1.171-2.619,2.616-2.619C306.023,637.906,307.195,639.078,307.195,640.527"
   id="path4466" />



<path
   fill="none"
   stroke="#000000"
   stroke-width="0.5057"
   d="M314.195,640.527c0,1.446-1.172,2.619-2.619,2.619  c-1.445,0-2.616-1.173-2.616-2.619c0-1.447,1.171-2.619,2.616-2.619C313.023,637.906,314.195,639.078,314.195,640.527"
   id="path4474" />



<path
   fill="none"
   stroke="#000000"
   stroke-width="0.5057"
   d="M321.195,640.527c0,1.446-1.172,2.619-2.619,2.619  c-1.445,0-2.616-1.173-2.616-2.619c0-1.447,1.171-2.619,2.616-2.619C320.023,637.906,321.195,639.078,321.195,640.527"
   id="path4482" />



<path
   fill="none"
   stroke="#000000"
   stroke-width="0.5057"
   d="M328.195,640.527c0,1.446-1.172,2.619-2.619,2.619  c-1.445,0-2.616-1.173-2.616-2.619c0-1.447,1.171-2.619,2.616-2.619C327.023,637.906,328.195,639.078,328.195,640.527"
   id="path4490" />



<path
   fill="none"
   stroke="#000000"
   stroke-width="0.5057"
   d="M335.195,640.527c0,1.446-1.172,2.619-2.619,2.619  c-1.445,0-2.616-1.173-2.616-2.619c0-1.447,1.171-2.619,2.616-2.619C334.023,637.906,335.195,639.078,335.195,640.527"
   id="path4498" />



<path
   fill="none"
   stroke="#000000"
   stroke-width="0.5057"
   d="M342.195,640.527c0,1.446-1.172,2.619-2.619,2.619  c-1.445,0-2.616-1.173-2.616-2.619c0-1.447,1.171-2.619,2.616-2.619C341.023,637.906,342.195,639.078,342.195,640.527"
   id="path4506" />



<path
   fill="none"
   stroke="#000000"
   stroke-width="0.5057"
   d="M349.195,640.527c0,1.446-1.172,2.619-2.619,2.619  c-1.445,0-2.616-1.173-2.616-2.619c0-1.447,1.171-2.619,2.616-2.619C348.023,637.906,349.195,639.078,349.195,640.527"
   id="path4514" />



<path
   fill="none"
   stroke="#000000"
   stroke-width="0.5057"
   d="M356.195,640.527c0,1.446-1.172,2.619-2.619,2.619  c-1.445,0-2.616-1.173-2.616-2.619c0-1.447,1.171-2.619,2.616-2.619C355.023,637.906,356.195,639.078,356.195,640.527"
   id="path4522" />



<path
   fill="none"
   stroke="#000000"
   stroke-width="0.5057"
   d="M363.195,640.527c0,1.446-1.172,2.619-2.619,2.619  c-1.445,0-2.616-1.173-2.616-2.619c0-1.447,1.171-2.619,2.616-2.619C362.023,637.906,363.195,639.078,363.195,640.527"
   id="path4530" />



<path
   fill="none"
   stroke="#000000"
   stroke-width="0.5057"
   d="M370.195,640.527c0,1.446-1.172,2.619-2.619,2.619  c-1.445,0-2.616-1.173-2.616-2.619c0-1.447,1.171-2.619,2.616-2.619C369.023,637.906,370.195,639.078,370.195,640.527"
   id="path4538" />



<path
   fill="none"
   stroke="#000000"
   stroke-width="0.5057"
   d="M377.195,640.527c0,1.446-1.172,2.619-2.619,2.619  c-1.445,0-2.616-1.173-2.616-2.619c0-1.447,1.171-2.619,2.616-2.619C376.023,637.906,377.195,639.078,377.195,640.527"
   id="path4546" />



</svg>