<?xml version="1.0" encoding="utf-8"?>
<!-- Generator: Adobe Illustrator 15.1.0, SVG Export Plug-In . SVG Version: 6.00 Build 0)  -->
<!DOCTYPE svg PUBLIC "-//W3C//DTD SVG 1.0//EN" "http://www.w3.org/TR/2001/REC-SVG-20010904/DTD/svg10.dtd">
<svg version="1.0" id="Layer_1" xmlns="http://www.w3.org/2000/svg" xmlns:xlink="http://www.w3.org/1999/xlink" x="0px" y="0px"
	 width="612px" height="792px" viewBox="0 0 612 792" enable-background="new 0 0 612 792" xml:space="preserve">
<path fill="none" stroke="#000000" stroke-width="0.5057" d="M265.196,326.461c0,1.445-1.172,2.619-2.62,2.619
	c-1.447,0-2.618-1.174-2.618-2.619c0-1.446,1.171-2.619,2.618-2.619C264.023,323.843,265.196,325.015,265.196,326.461"/>
<path fill="none" stroke="#000000" stroke-width="0.5057" d="M265.196,308.254c0,1.446-1.172,2.619-2.62,2.619
	c-1.447,0-2.618-1.173-2.618-2.619c0-1.446,1.171-2.619,2.618-2.619C264.023,305.635,265.196,306.807,265.196,308.254"/>
<path fill="none" stroke="#000000" stroke-width="0.5057" d="M265.196,290.047c0,1.446-1.172,2.619-2.62,2.619
	c-1.447,0-2.618-1.172-2.618-2.619s1.171-2.619,2.618-2.619C264.023,287.428,265.196,288.601,265.196,290.047"/>
<path fill="none" stroke="#000000" stroke-width="0.5057" d="M265.196,271.841c0,1.446-1.172,2.62-2.62,2.62
	c-1.447,0-2.618-1.173-2.618-2.62c0-1.446,1.171-2.619,2.618-2.619C264.023,269.222,265.196,270.395,265.196,271.841"/>
<path fill="none" stroke="#000000" stroke-width="0.5057" d="M265.196,253.634c0,1.445-1.172,2.619-2.62,2.619
	c-1.447,0-2.618-1.173-2.618-2.619c0-1.447,1.171-2.62,2.618-2.62C264.023,251.014,265.196,252.187,265.196,253.634"/>
<path fill="none" stroke="#000000" stroke-width="0.5057" d="M265.196,235.428c0,1.444-1.172,2.618-2.62,2.618
	c-1.447,0-2.618-1.174-2.618-2.618c0-1.448,1.171-2.619,2.618-2.619C264.023,232.809,265.196,233.98,265.196,235.428"/>
<path fill="none" stroke="#000000" stroke-width="0.5057" d="M272.196,326.461c0,1.445-1.172,2.619-2.62,2.619
	c-1.447,0-2.618-1.174-2.618-2.619c0-1.446,1.171-2.619,2.618-2.619C271.023,323.843,272.196,325.015,272.196,326.461"/>
<path fill="none" stroke="#000000" stroke-width="0.5057" d="M272.196,308.254c0,1.446-1.172,2.619-2.62,2.619
	c-1.447,0-2.618-1.173-2.618-2.619c0-1.446,1.171-2.619,2.618-2.619C271.023,305.635,272.196,306.807,272.196,308.254"/>
<path fill="none" stroke="#000000" stroke-width="0.5057" d="M272.196,290.047c0,1.446-1.172,2.619-2.62,2.619
	c-1.447,0-2.618-1.172-2.618-2.619s1.171-2.619,2.618-2.619C271.023,287.428,272.196,288.601,272.196,290.047"/>
<path fill="none" stroke="#000000" stroke-width="0.5057" d="M272.196,271.841c0,1.446-1.172,2.62-2.62,2.62
	c-1.447,0-2.618-1.173-2.618-2.62c0-1.446,1.171-2.619,2.618-2.619C271.023,269.222,272.196,270.395,272.196,271.841"/>
<path fill="none" stroke="#000000" stroke-width="0.5057" d="M272.196,253.634c0,1.445-1.172,2.619-2.62,2.619
	c-1.447,0-2.618-1.173-2.618-2.619c0-1.447,1.171-2.62,2.618-2.62C271.023,251.014,272.196,252.187,272.196,253.634"/>
<path fill="none" stroke="#000000" stroke-width="0.5057" d="M272.196,235.428c0,1.444-1.172,2.618-2.62,2.618
	c-1.447,0-2.618-1.174-2.618-2.618c0-1.448,1.171-2.619,2.618-2.619C271.023,232.809,272.196,233.98,272.196,235.428"/>
<path fill="none" stroke="#000000" stroke-width="0.5057" d="M279.196,326.461c0,1.445-1.172,2.619-2.62,2.619
	c-1.447,0-2.618-1.174-2.618-2.619c0-1.446,1.171-2.619,2.618-2.619C278.023,323.843,279.196,325.015,279.196,326.461"/>
<path fill="none" stroke="#000000" stroke-width="0.5057" d="M279.196,308.254c0,1.446-1.172,2.619-2.62,2.619
	c-1.447,0-2.618-1.173-2.618-2.619c0-1.446,1.171-2.619,2.618-2.619C278.023,305.635,279.196,306.807,279.196,308.254"/>
<path fill="none" stroke="#000000" stroke-width="0.5057" d="M279.196,290.047c0,1.446-1.172,2.619-2.62,2.619
	c-1.447,0-2.618-1.172-2.618-2.619s1.171-2.619,2.618-2.619C278.023,287.428,279.196,288.601,279.196,290.047"/>
<path fill="none" stroke="#000000" stroke-width="0.5057" d="M279.196,271.841c0,1.446-1.172,2.62-2.62,2.62
	c-1.447,0-2.618-1.173-2.618-2.62c0-1.446,1.171-2.619,2.618-2.619C278.023,269.222,279.196,270.395,279.196,271.841"/>
<path fill="none" stroke="#000000" stroke-width="0.5057" d="M279.196,253.634c0,1.445-1.172,2.619-2.62,2.619
	c-1.447,0-2.618-1.173-2.618-2.619c0-1.447,1.171-2.62,2.618-2.62C278.023,251.014,279.196,252.187,279.196,253.634"/>
<path fill="none" stroke="#000000" stroke-width="0.5057" d="M279.196,235.428c0,1.444-1.172,2.618-2.62,2.618
	c-1.447,0-2.618-1.174-2.618-2.618c0-1.448,1.171-2.619,2.618-2.619C278.023,232.809,279.196,233.98,279.196,235.428"/>
<path fill="none" stroke="#000000" stroke-width="0.5057" d="M286.196,326.461c0,1.445-1.172,2.619-2.62,2.619
	c-1.447,0-2.618-1.174-2.618-2.619c0-1.446,1.171-2.619,2.618-2.619C285.023,323.843,286.196,325.015,286.196,326.461"/>
<path fill="none" stroke="#000000" stroke-width="0.5057" d="M286.196,308.254c0,1.446-1.172,2.619-2.62,2.619
	c-1.447,0-2.618-1.173-2.618-2.619c0-1.446,1.171-2.619,2.618-2.619C285.023,305.635,286.196,306.807,286.196,308.254"/>
<path fill="none" stroke="#000000" stroke-width="0.5057" d="M286.196,290.047c0,1.446-1.172,2.619-2.62,2.619
	c-1.447,0-2.618-1.172-2.618-2.619s1.171-2.619,2.618-2.619C285.023,287.428,286.196,288.601,286.196,290.047"/>
<path fill="none" stroke="#000000" stroke-width="0.5057" d="M286.196,271.841c0,1.446-1.172,2.62-2.62,2.62
	c-1.447,0-2.618-1.173-2.618-2.62c0-1.446,1.171-2.619,2.618-2.619C285.023,269.222,286.196,270.395,286.196,271.841"/>
<path fill="none" stroke="#000000" stroke-width="0.5057" d="M286.196,253.634c0,1.445-1.172,2.619-2.62,2.619
	c-1.447,0-2.618-1.173-2.618-2.619c0-1.447,1.171-2.62,2.618-2.62C285.023,251.014,286.196,252.187,286.196,253.634"/>
<path fill="none" stroke="#000000" stroke-width="0.5057" d="M286.196,235.428c0,1.444-1.172,2.618-2.62,2.618
	c-1.447,0-2.618-1.174-2.618-2.618c0-1.448,1.171-2.619,2.618-2.619C285.023,232.809,286.196,233.98,286.196,235.428"/>
<path fill="none" stroke="#000000" stroke-width="0.5057" d="M293.196,326.461c0,1.445-1.172,2.619-2.62,2.619
	c-1.447,0-2.618-1.174-2.618-2.619c0-1.446,1.171-2.619,2.618-2.619C292.023,323.843,293.196,325.015,293.196,326.461"/>
<path fill="none" stroke="#000000" stroke-width="0.5057" d="M293.196,308.254c0,1.446-1.172,2.619-2.62,2.619
	c-1.447,0-2.618-1.173-2.618-2.619c0-1.446,1.171-2.619,2.618-2.619C292.023,305.635,293.196,306.807,293.196,308.254"/>
<path fill="none" stroke="#000000" stroke-width="0.5057" d="M293.196,290.047c0,1.446-1.172,2.619-2.62,2.619
	c-1.447,0-2.618-1.172-2.618-2.619s1.171-2.619,2.618-2.619C292.023,287.428,293.196,288.601,293.196,290.047"/>
<path fill="none" stroke="#000000" stroke-width="0.5057" d="M293.196,271.841c0,1.446-1.172,2.62-2.62,2.62
	c-1.447,0-2.618-1.173-2.618-2.62c0-1.446,1.171-2.619,2.618-2.619C292.023,269.222,293.196,270.395,293.196,271.841"/>
<path fill="none" stroke="#000000" stroke-width="0.5057" d="M293.196,253.634c0,1.445-1.172,2.619-2.62,2.619
	c-1.447,0-2.618-1.173-2.618-2.619c0-1.447,1.171-2.62,2.618-2.62C292.023,251.014,293.196,252.187,293.196,253.634"/>
<path fill="none" stroke="#000000" stroke-width="0.5057" d="M293.196,235.428c0,1.444-1.172,2.618-2.62,2.618
	c-1.447,0-2.618-1.174-2.618-2.618c0-1.448,1.171-2.619,2.618-2.619C292.023,232.809,293.196,233.98,293.196,235.428"/>
<path fill="none" stroke="#000000" stroke-width="0.5057" d="M300.196,326.461c0,1.445-1.172,2.619-2.62,2.619
	c-1.447,0-2.618-1.174-2.618-2.619c0-1.446,1.171-2.619,2.618-2.619C299.023,323.843,300.196,325.015,300.196,326.461"/>
<path fill="none" stroke="#000000" stroke-width="0.5057" d="M300.196,308.254c0,1.446-1.172,2.619-2.62,2.619
	c-1.447,0-2.618-1.173-2.618-2.619c0-1.446,1.171-2.619,2.618-2.619C299.023,305.635,300.196,306.807,300.196,308.254"/>
<path fill="none" stroke="#000000" stroke-width="0.5057" d="M300.196,290.047c0,1.446-1.172,2.619-2.62,2.619
	c-1.447,0-2.618-1.172-2.618-2.619s1.171-2.619,2.618-2.619C299.023,287.428,300.196,288.601,300.196,290.047"/>
<path fill="none" stroke="#000000" stroke-width="0.5057" d="M300.196,271.841c0,1.446-1.172,2.62-2.62,2.62
	c-1.447,0-2.618-1.173-2.618-2.62c0-1.446,1.171-2.619,2.618-2.619C299.023,269.222,300.196,270.395,300.196,271.841"/>
<path fill="none" stroke="#000000" stroke-width="0.5057" d="M300.196,253.634c0,1.445-1.172,2.619-2.62,2.619
	c-1.447,0-2.618-1.173-2.618-2.619c0-1.447,1.171-2.62,2.618-2.62C299.023,251.014,300.196,252.187,300.196,253.634"/>
<path fill="none" stroke="#000000" stroke-width="0.5057" d="M300.196,235.428c0,1.444-1.172,2.618-2.62,2.618
	c-1.447,0-2.618-1.174-2.618-2.618c0-1.448,1.171-2.619,2.618-2.619C299.023,232.809,300.196,233.98,300.196,235.428"/>
<path fill="none" stroke="#000000" stroke-width="0.5057" d="M307.195,326.461c0,1.445-1.172,2.619-2.619,2.619
	c-1.447,0-2.618-1.174-2.618-2.619c0-1.446,1.171-2.619,2.618-2.619C306.023,323.843,307.195,325.015,307.195,326.461"/>
<path fill="none" stroke="#000000" stroke-width="0.5057" d="M307.195,308.254c0,1.446-1.172,2.619-2.619,2.619
	c-1.447,0-2.618-1.173-2.618-2.619c0-1.446,1.171-2.619,2.618-2.619C306.023,305.635,307.195,306.807,307.195,308.254"/>
<path fill="none" stroke="#000000" stroke-width="0.5057" d="M307.195,290.047c0,1.446-1.172,2.619-2.619,2.619
	c-1.447,0-2.618-1.172-2.618-2.619s1.171-2.619,2.618-2.619C306.023,287.428,307.195,288.601,307.195,290.047"/>
<path fill="none" stroke="#000000" stroke-width="0.5057" d="M307.195,271.841c0,1.446-1.172,2.62-2.619,2.62
	c-1.447,0-2.618-1.173-2.618-2.62c0-1.446,1.171-2.619,2.618-2.619C306.023,269.222,307.195,270.395,307.195,271.841"/>
<path fill="none" stroke="#000000" stroke-width="0.5057" d="M307.195,253.634c0,1.445-1.172,2.619-2.619,2.619
	c-1.447,0-2.618-1.173-2.618-2.619c0-1.447,1.171-2.62,2.618-2.62C306.023,251.014,307.195,252.187,307.195,253.634"/>
<path fill="none" stroke="#000000" stroke-width="0.5057" d="M307.195,235.428c0,1.444-1.172,2.618-2.619,2.618
	c-1.447,0-2.618-1.174-2.618-2.618c0-1.448,1.171-2.619,2.618-2.619C306.023,232.809,307.195,233.98,307.195,235.428"/>
<path fill="none" stroke="#000000" stroke-width="0.5057" d="M314.195,326.461c0,1.445-1.172,2.619-2.619,2.619
	s-2.618-1.174-2.618-2.619c0-1.446,1.171-2.619,2.618-2.619S314.195,325.015,314.195,326.461"/>
<path fill="none" stroke="#000000" stroke-width="0.5057" d="M314.195,308.254c0,1.446-1.172,2.619-2.619,2.619
	s-2.618-1.173-2.618-2.619c0-1.446,1.171-2.619,2.618-2.619S314.195,306.807,314.195,308.254"/>
<path fill="none" stroke="#000000" stroke-width="0.5057" d="M314.195,290.047c0,1.446-1.172,2.619-2.619,2.619
	s-2.618-1.172-2.618-2.619s1.171-2.619,2.618-2.619S314.195,288.601,314.195,290.047"/>
<path fill="none" stroke="#000000" stroke-width="0.5057" d="M314.195,271.841c0,1.446-1.172,2.62-2.619,2.62
	s-2.618-1.173-2.618-2.62c0-1.446,1.171-2.619,2.618-2.619S314.195,270.395,314.195,271.841"/>
<path fill="none" stroke="#000000" stroke-width="0.5057" d="M314.195,253.634c0,1.445-1.172,2.619-2.619,2.619
	s-2.618-1.173-2.618-2.619c0-1.447,1.171-2.62,2.618-2.62S314.195,252.187,314.195,253.634"/>
<path fill="none" stroke="#000000" stroke-width="0.5057" d="M314.195,235.428c0,1.444-1.172,2.618-2.619,2.618
	s-2.618-1.174-2.618-2.618c0-1.448,1.171-2.619,2.618-2.619S314.195,233.98,314.195,235.428"/>
<path fill="none" stroke="#000000" stroke-width="0.5057" d="M321.195,326.461c0,1.445-1.172,2.619-2.619,2.619
	s-2.618-1.174-2.618-2.619c0-1.446,1.171-2.619,2.618-2.619S321.195,325.015,321.195,326.461"/>
<path fill="none" stroke="#000000" stroke-width="0.5057" d="M321.195,308.254c0,1.446-1.172,2.619-2.619,2.619
	s-2.618-1.173-2.618-2.619c0-1.446,1.171-2.619,2.618-2.619S321.195,306.807,321.195,308.254"/>
<path fill="none" stroke="#000000" stroke-width="0.5057" d="M321.195,290.047c0,1.446-1.172,2.619-2.619,2.619
	s-2.618-1.172-2.618-2.619s1.171-2.619,2.618-2.619S321.195,288.601,321.195,290.047"/>
<path fill="none" stroke="#000000" stroke-width="0.5057" d="M321.195,271.841c0,1.446-1.172,2.62-2.619,2.62
	s-2.618-1.173-2.618-2.62c0-1.446,1.171-2.619,2.618-2.619S321.195,270.395,321.195,271.841"/>
<path fill="none" stroke="#000000" stroke-width="0.5057" d="M321.195,253.634c0,1.445-1.172,2.619-2.619,2.619
	s-2.618-1.173-2.618-2.619c0-1.447,1.171-2.62,2.618-2.62S321.195,252.187,321.195,253.634"/>
<path fill="none" stroke="#000000" stroke-width="0.5057" d="M321.195,235.428c0,1.444-1.172,2.618-2.619,2.618
	s-2.618-1.174-2.618-2.618c0-1.448,1.171-2.619,2.618-2.619S321.195,233.98,321.195,235.428"/>
<path fill="none" stroke="#000000" stroke-width="0.5057" d="M328.195,326.461c0,1.445-1.172,2.619-2.619,2.619
	s-2.618-1.174-2.618-2.619c0-1.446,1.171-2.619,2.618-2.619S328.195,325.015,328.195,326.461"/>
<path fill="none" stroke="#000000" stroke-width="0.5057" d="M328.195,308.254c0,1.446-1.172,2.619-2.619,2.619
	s-2.618-1.173-2.618-2.619c0-1.446,1.171-2.619,2.618-2.619S328.195,306.807,328.195,308.254"/>
<path fill="none" stroke="#000000" stroke-width="0.5057" d="M328.195,290.047c0,1.446-1.172,2.619-2.619,2.619
	s-2.618-1.172-2.618-2.619s1.171-2.619,2.618-2.619S328.195,288.601,328.195,290.047"/>
<path fill="none" stroke="#000000" stroke-width="0.5057" d="M328.195,271.841c0,1.446-1.172,2.62-2.619,2.62
	s-2.618-1.173-2.618-2.62c0-1.446,1.171-2.619,2.618-2.619S328.195,270.395,328.195,271.841"/>
<path fill="none" stroke="#000000" stroke-width="0.5057" d="M328.195,253.634c0,1.445-1.172,2.619-2.619,2.619
	s-2.618-1.173-2.618-2.619c0-1.447,1.171-2.62,2.618-2.62S328.195,252.187,328.195,253.634"/>
<path fill="none" stroke="#000000" stroke-width="0.5057" d="M328.195,235.428c0,1.444-1.172,2.618-2.619,2.618
	s-2.618-1.174-2.618-2.618c0-1.448,1.171-2.619,2.618-2.619S328.195,233.98,328.195,235.428"/>
<path fill="none" stroke="#000000" stroke-width="0.5057" d="M335.195,326.461c0,1.445-1.172,2.619-2.619,2.619
	s-2.618-1.174-2.618-2.619c0-1.446,1.171-2.619,2.618-2.619S335.195,325.015,335.195,326.461"/>
<path fill="none" stroke="#000000" stroke-width="0.5057" d="M335.195,308.254c0,1.446-1.172,2.619-2.619,2.619
	s-2.618-1.173-2.618-2.619c0-1.446,1.171-2.619,2.618-2.619S335.195,306.807,335.195,308.254"/>
<path fill="none" stroke="#000000" stroke-width="0.5057" d="M335.195,290.047c0,1.446-1.172,2.619-2.619,2.619
	s-2.618-1.172-2.618-2.619s1.171-2.619,2.618-2.619S335.195,288.601,335.195,290.047"/>
<path fill="none" stroke="#000000" stroke-width="0.5057" d="M335.195,271.841c0,1.446-1.172,2.62-2.619,2.62
	s-2.618-1.173-2.618-2.62c0-1.446,1.171-2.619,2.618-2.619S335.195,270.395,335.195,271.841"/>
<path fill="none" stroke="#000000" stroke-width="0.5057" d="M335.195,253.634c0,1.445-1.172,2.619-2.619,2.619
	s-2.618-1.173-2.618-2.619c0-1.447,1.171-2.62,2.618-2.62S335.195,252.187,335.195,253.634"/>
<path fill="none" stroke="#000000" stroke-width="0.5057" d="M335.195,235.428c0,1.444-1.172,2.618-2.619,2.618
	s-2.618-1.174-2.618-2.618c0-1.448,1.171-2.619,2.618-2.619S335.195,233.98,335.195,235.428"/>
<path fill="none" stroke="#000000" stroke-width="0.5057" d="M342.195,326.461c0,1.445-1.172,2.619-2.619,2.619
	s-2.618-1.174-2.618-2.619c0-1.446,1.171-2.619,2.618-2.619S342.195,325.015,342.195,326.461"/>
<path fill="none" stroke="#000000" stroke-width="0.5057" d="M342.195,308.254c0,1.446-1.172,2.619-2.619,2.619
	s-2.618-1.173-2.618-2.619c0-1.446,1.171-2.619,2.618-2.619S342.195,306.807,342.195,308.254"/>
<path fill="none" stroke="#000000" stroke-width="0.5057" d="M342.195,290.047c0,1.446-1.172,2.619-2.619,2.619
	s-2.618-1.172-2.618-2.619s1.171-2.619,2.618-2.619S342.195,288.601,342.195,290.047"/>
<path fill="none" stroke="#000000" stroke-width="0.5057" d="M342.195,271.841c0,1.446-1.172,2.62-2.619,2.62
	s-2.618-1.173-2.618-2.62c0-1.446,1.171-2.619,2.618-2.619S342.195,270.395,342.195,271.841"/>
<path fill="none" stroke="#000000" stroke-width="0.5057" d="M342.195,253.634c0,1.445-1.172,2.619-2.619,2.619
	s-2.618-1.173-2.618-2.619c0-1.447,1.171-2.62,2.618-2.62S342.195,252.187,342.195,253.634"/>
<path fill="none" stroke="#000000" stroke-width="0.5057" d="M342.195,235.428c0,1.444-1.172,2.618-2.619,2.618
	s-2.618-1.174-2.618-2.618c0-1.448,1.171-2.619,2.618-2.619S342.195,233.98,342.195,235.428"/>
<path fill="none" stroke="#000000" stroke-width="0.5057" d="M349.195,326.461c0,1.445-1.172,2.619-2.619,2.619
	s-2.618-1.174-2.618-2.619c0-1.446,1.171-2.619,2.618-2.619S349.195,325.015,349.195,326.461"/>
<path fill="none" stroke="#000000" stroke-width="0.5057" d="M349.195,308.254c0,1.446-1.172,2.619-2.619,2.619
	s-2.618-1.173-2.618-2.619c0-1.446,1.171-2.619,2.618-2.619S349.195,306.807,349.195,308.254"/>
<path fill="none" stroke="#000000" stroke-width="0.5057" d="M349.195,290.047c0,1.446-1.172,2.619-2.619,2.619
	s-2.618-1.172-2.618-2.619s1.171-2.619,2.618-2.619S349.195,288.601,349.195,290.047"/>
<path fill="none" stroke="#000000" stroke-width="0.5057" d="M349.195,271.841c0,1.446-1.172,2.62-2.619,2.62
	s-2.618-1.173-2.618-2.62c0-1.446,1.171-2.619,2.618-2.619S349.195,270.395,349.195,271.841"/>
<path fill="none" stroke="#000000" stroke-width="0.5057" d="M349.195,253.634c0,1.445-1.172,2.619-2.619,2.619
	s-2.618-1.173-2.618-2.619c0-1.447,1.171-2.62,2.618-2.62S349.195,252.187,349.195,253.634"/>
<path fill="none" stroke="#000000" stroke-width="0.5057" d="M349.195,235.428c0,1.444-1.172,2.618-2.619,2.618
	s-2.618-1.174-2.618-2.618c0-1.448,1.171-2.619,2.618-2.619S349.195,233.98,349.195,235.428"/>
<path fill="none" stroke="#000000" stroke-width="0.5057" d="M356.195,326.461c0,1.445-1.172,2.619-2.619,2.619
	s-2.618-1.174-2.618-2.619c0-1.446,1.171-2.619,2.618-2.619S356.195,325.015,356.195,326.461"/>
<path fill="none" stroke="#000000" stroke-width="0.5057" d="M356.195,308.254c0,1.446-1.172,2.619-2.619,2.619
	s-2.618-1.173-2.618-2.619c0-1.446,1.171-2.619,2.618-2.619S356.195,306.807,356.195,308.254"/>
<path fill="none" stroke="#000000" stroke-width="0.5057" d="M356.195,290.047c0,1.446-1.172,2.619-2.619,2.619
	s-2.618-1.172-2.618-2.619s1.171-2.619,2.618-2.619S356.195,288.601,356.195,290.047"/>
<path fill="none" stroke="#000000" stroke-width="0.5057" d="M356.195,271.841c0,1.446-1.172,2.62-2.619,2.62
	s-2.618-1.173-2.618-2.62c0-1.446,1.171-2.619,2.618-2.619S356.195,270.395,356.195,271.841"/>
<path fill="none" stroke="#000000" stroke-width="0.5057" d="M356.195,253.634c0,1.445-1.172,2.619-2.619,2.619
	s-2.618-1.173-2.618-2.619c0-1.447,1.171-2.62,2.618-2.62S356.195,252.187,356.195,253.634"/>
<path fill="none" stroke="#000000" stroke-width="0.5057" d="M356.195,235.428c0,1.444-1.172,2.618-2.619,2.618
	s-2.618-1.174-2.618-2.618c0-1.448,1.171-2.619,2.618-2.619S356.195,233.98,356.195,235.428"/>
<path fill="none" stroke="#000000" stroke-width="0.5057" d="M363.195,326.461c0,1.445-1.172,2.619-2.619,2.619
	s-2.618-1.174-2.618-2.619c0-1.446,1.171-2.619,2.618-2.619S363.195,325.015,363.195,326.461"/>
<path fill="none" stroke="#000000" stroke-width="0.5057" d="M363.195,308.254c0,1.446-1.172,2.619-2.619,2.619
	s-2.618-1.173-2.618-2.619c0-1.446,1.171-2.619,2.618-2.619S363.195,306.807,363.195,308.254"/>
<path fill="none" stroke="#000000" stroke-width="0.5057" d="M363.195,290.047c0,1.446-1.172,2.619-2.619,2.619
	s-2.618-1.172-2.618-2.619s1.171-2.619,2.618-2.619S363.195,288.601,363.195,290.047"/>
<path fill="none" stroke="#000000" stroke-width="0.5057" d="M363.195,271.841c0,1.446-1.172,2.62-2.619,2.62
	s-2.618-1.173-2.618-2.62c0-1.446,1.171-2.619,2.618-2.619S363.195,270.395,363.195,271.841"/>
<path fill="none" stroke="#000000" stroke-width="0.5057" d="M363.195,253.634c0,1.445-1.172,2.619-2.619,2.619
	s-2.618-1.173-2.618-2.619c0-1.447,1.171-2.62,2.618-2.62S363.195,252.187,363.195,253.634"/>
<path fill="none" stroke="#000000" stroke-width="0.5057" d="M363.195,235.428c0,1.444-1.172,2.618-2.619,2.618
	s-2.618-1.174-2.618-2.618c0-1.448,1.171-2.619,2.618-2.619S363.195,233.98,363.195,235.428"/>
<path fill="none" stroke="#000000" stroke-width="0.5057" d="M370.195,326.461c0,1.445-1.172,2.619-2.619,2.619
	s-2.618-1.174-2.618-2.619c0-1.446,1.171-2.619,2.618-2.619S370.195,325.015,370.195,326.461"/>
<path fill="none" stroke="#000000" stroke-width="0.5057" d="M370.195,308.254c0,1.446-1.172,2.619-2.619,2.619
	s-2.618-1.173-2.618-2.619c0-1.446,1.171-2.619,2.618-2.619S370.195,306.807,370.195,308.254"/>
<path fill="none" stroke="#000000" stroke-width="0.5057" d="M370.195,290.047c0,1.446-1.172,2.619-2.619,2.619
	s-2.618-1.172-2.618-2.619s1.171-2.619,2.618-2.619S370.195,288.601,370.195,290.047"/>
<path fill="none" stroke="#000000" stroke-width="0.5057" d="M370.195,271.841c0,1.446-1.172,2.62-2.619,2.62
	s-2.618-1.173-2.618-2.62c0-1.446,1.171-2.619,2.618-2.619S370.195,270.395,370.195,271.841"/>
<path fill="none" stroke="#000000" stroke-width="0.5057" d="M370.195,253.634c0,1.445-1.172,2.619-2.619,2.619
	s-2.618-1.173-2.618-2.619c0-1.447,1.171-2.62,2.618-2.62S370.195,252.187,370.195,253.634"/>
<path fill="none" stroke="#000000" stroke-width="0.5057" d="M370.195,235.428c0,1.444-1.172,2.618-2.619,2.618
	s-2.618-1.174-2.618-2.618c0-1.448,1.171-2.619,2.618-2.619S370.195,233.98,370.195,235.428"/>
</svg>
