<?xml version="1.0" encoding="utf-8"?>
<!-- Generator: Adobe Illustrator 15.1.0, SVG Export Plug-In . SVG Version: 6.00 Build 0)  -->
<!DOCTYPE svg PUBLIC "-//W3C//DTD SVG 1.0//EN" "http://www.w3.org/TR/2001/REC-SVG-20010904/DTD/svg10.dtd">
<svg version="1.0" id="Layer_1" xmlns="http://www.w3.org/2000/svg" xmlns:xlink="http://www.w3.org/1999/xlink" x="0px" y="0px"
	 width="612px" height="792px" viewBox="0 0 612 792" enable-background="new 0 0 612 792" xml:space="preserve">
<path fill="none" stroke="#000000" stroke-width="0.5057" d="M265.196,596.53c0,1.446-1.172,2.617-2.62,2.617
	c-1.447,0-2.618-1.171-2.618-2.617c0-1.447,1.171-2.62,2.618-2.62C264.023,593.909,265.196,595.082,265.196,596.53"/>
<path fill="none" stroke="#000000" stroke-width="0.5057" d="M265.196,578.322c0,1.446-1.172,2.619-2.62,2.619
	c-1.447,0-2.618-1.173-2.618-2.619c0-1.447,1.171-2.619,2.618-2.619C264.023,575.702,265.196,576.874,265.196,578.322"/>
<path fill="none" stroke="#000000" stroke-width="0.5057" d="M265.196,560.116c0,1.445-1.172,2.617-2.62,2.617
	c-1.447,0-2.618-1.172-2.618-2.617c0-1.448,1.171-2.62,2.618-2.62C264.023,557.496,265.196,558.668,265.196,560.116"/>
<path fill="none" stroke="#000000" stroke-width="0.5057" d="M265.196,541.908c0,1.445-1.172,2.618-2.62,2.618
	c-1.447,0-2.618-1.173-2.618-2.618c0-1.448,1.171-2.619,2.618-2.619C264.023,539.289,265.196,540.46,265.196,541.908"/>
<path fill="none" stroke="#000000" stroke-width="0.5057" d="M265.196,523.702c0,1.444-1.172,2.617-2.62,2.617
	c-1.447,0-2.618-1.173-2.618-2.617c0-1.447,1.171-2.62,2.618-2.62C264.023,521.082,265.196,522.255,265.196,523.702"/>
<path fill="none" stroke="#000000" stroke-width="0.5057" d="M265.196,505.495c0,1.445-1.172,2.618-2.62,2.618
	c-1.447,0-2.618-1.173-2.618-2.618c0-1.447,1.171-2.619,2.618-2.619C264.023,502.876,265.196,504.048,265.196,505.495"/>
<path fill="none" stroke="#000000" stroke-width="0.5057" d="M272.196,596.53c0,1.446-1.172,2.617-2.62,2.617
	c-1.447,0-2.618-1.171-2.618-2.617c0-1.447,1.171-2.62,2.618-2.62C271.023,593.909,272.196,595.082,272.196,596.53"/>
<path fill="none" stroke="#000000" stroke-width="0.5057" d="M272.196,578.322c0,1.446-1.172,2.619-2.62,2.619
	c-1.447,0-2.618-1.173-2.618-2.619c0-1.447,1.171-2.619,2.618-2.619C271.023,575.702,272.196,576.874,272.196,578.322"/>
<path fill="none" stroke="#000000" stroke-width="0.5057" d="M272.196,560.116c0,1.445-1.172,2.617-2.62,2.617
	c-1.447,0-2.618-1.172-2.618-2.617c0-1.448,1.171-2.62,2.618-2.62C271.023,557.496,272.196,558.668,272.196,560.116"/>
<path fill="none" stroke="#000000" stroke-width="0.5057" d="M272.196,541.908c0,1.445-1.172,2.618-2.62,2.618
	c-1.447,0-2.618-1.173-2.618-2.618c0-1.448,1.171-2.619,2.618-2.619C271.023,539.289,272.196,540.46,272.196,541.908"/>
<path fill="none" stroke="#000000" stroke-width="0.5057" d="M272.196,523.702c0,1.444-1.172,2.617-2.62,2.617
	c-1.447,0-2.618-1.173-2.618-2.617c0-1.447,1.171-2.62,2.618-2.62C271.023,521.082,272.196,522.255,272.196,523.702"/>
<path fill="none" stroke="#000000" stroke-width="0.5057" d="M272.196,505.495c0,1.445-1.172,2.618-2.62,2.618
	c-1.447,0-2.618-1.173-2.618-2.618c0-1.447,1.171-2.619,2.618-2.619C271.023,502.876,272.196,504.048,272.196,505.495"/>
<path fill="none" stroke="#000000" stroke-width="0.5057" d="M279.196,596.53c0,1.446-1.172,2.617-2.62,2.617
	c-1.447,0-2.618-1.171-2.618-2.617c0-1.447,1.171-2.62,2.618-2.62C278.023,593.909,279.196,595.082,279.196,596.53"/>
<path fill="none" stroke="#000000" stroke-width="0.5057" d="M279.196,578.322c0,1.446-1.172,2.619-2.62,2.619
	c-1.447,0-2.618-1.173-2.618-2.619c0-1.447,1.171-2.619,2.618-2.619C278.023,575.702,279.196,576.874,279.196,578.322"/>
<path fill="none" stroke="#000000" stroke-width="0.5057" d="M279.196,560.116c0,1.445-1.172,2.617-2.62,2.617
	c-1.447,0-2.618-1.172-2.618-2.617c0-1.448,1.171-2.62,2.618-2.62C278.023,557.496,279.196,558.668,279.196,560.116"/>
<path fill="none" stroke="#000000" stroke-width="0.5057" d="M279.196,541.908c0,1.445-1.172,2.618-2.62,2.618
	c-1.447,0-2.618-1.173-2.618-2.618c0-1.448,1.171-2.619,2.618-2.619C278.023,539.289,279.196,540.46,279.196,541.908"/>
<path fill="none" stroke="#000000" stroke-width="0.5057" d="M279.196,523.702c0,1.444-1.172,2.617-2.62,2.617
	c-1.447,0-2.618-1.173-2.618-2.617c0-1.447,1.171-2.62,2.618-2.62C278.023,521.082,279.196,522.255,279.196,523.702"/>
<path fill="none" stroke="#000000" stroke-width="0.5057" d="M279.196,505.495c0,1.445-1.172,2.618-2.62,2.618
	c-1.447,0-2.618-1.173-2.618-2.618c0-1.447,1.171-2.619,2.618-2.619C278.023,502.876,279.196,504.048,279.196,505.495"/>
<path fill="none" stroke="#000000" stroke-width="0.5057" d="M286.196,596.53c0,1.446-1.172,2.617-2.62,2.617
	c-1.447,0-2.618-1.171-2.618-2.617c0-1.447,1.171-2.62,2.618-2.62C285.023,593.909,286.196,595.082,286.196,596.53"/>
<path fill="none" stroke="#000000" stroke-width="0.5057" d="M286.196,578.322c0,1.446-1.172,2.619-2.62,2.619
	c-1.447,0-2.618-1.173-2.618-2.619c0-1.447,1.171-2.619,2.618-2.619C285.023,575.702,286.196,576.874,286.196,578.322"/>
<path fill="none" stroke="#000000" stroke-width="0.5057" d="M286.196,560.116c0,1.445-1.172,2.617-2.62,2.617
	c-1.447,0-2.618-1.172-2.618-2.617c0-1.448,1.171-2.62,2.618-2.62C285.023,557.496,286.196,558.668,286.196,560.116"/>
<path fill="none" stroke="#000000" stroke-width="0.5057" d="M286.196,541.908c0,1.445-1.172,2.618-2.62,2.618
	c-1.447,0-2.618-1.173-2.618-2.618c0-1.448,1.171-2.619,2.618-2.619C285.023,539.289,286.196,540.46,286.196,541.908"/>
<path fill="none" stroke="#000000" stroke-width="0.5057" d="M286.196,523.702c0,1.444-1.172,2.617-2.62,2.617
	c-1.447,0-2.618-1.173-2.618-2.617c0-1.447,1.171-2.62,2.618-2.62C285.023,521.082,286.196,522.255,286.196,523.702"/>
<path fill="none" stroke="#000000" stroke-width="0.5057" d="M286.196,505.495c0,1.445-1.172,2.618-2.62,2.618
	c-1.447,0-2.618-1.173-2.618-2.618c0-1.447,1.171-2.619,2.618-2.619C285.023,502.876,286.196,504.048,286.196,505.495"/>
<path fill="none" stroke="#000000" stroke-width="0.5057" d="M293.196,596.53c0,1.446-1.172,2.617-2.62,2.617
	c-1.447,0-2.618-1.171-2.618-2.617c0-1.447,1.171-2.62,2.618-2.62C292.023,593.909,293.196,595.082,293.196,596.53"/>
<path fill="none" stroke="#000000" stroke-width="0.5057" d="M293.196,578.322c0,1.446-1.172,2.619-2.62,2.619
	c-1.447,0-2.618-1.173-2.618-2.619c0-1.447,1.171-2.619,2.618-2.619C292.023,575.702,293.196,576.874,293.196,578.322"/>
<path fill="none" stroke="#000000" stroke-width="0.5057" d="M293.196,560.116c0,1.445-1.172,2.617-2.62,2.617
	c-1.447,0-2.618-1.172-2.618-2.617c0-1.448,1.171-2.62,2.618-2.62C292.023,557.496,293.196,558.668,293.196,560.116"/>
<path fill="none" stroke="#000000" stroke-width="0.5057" d="M293.196,541.908c0,1.445-1.172,2.618-2.62,2.618
	c-1.447,0-2.618-1.173-2.618-2.618c0-1.448,1.171-2.619,2.618-2.619C292.023,539.289,293.196,540.46,293.196,541.908"/>
<path fill="none" stroke="#000000" stroke-width="0.5057" d="M293.196,523.702c0,1.444-1.172,2.617-2.62,2.617
	c-1.447,0-2.618-1.173-2.618-2.617c0-1.447,1.171-2.62,2.618-2.62C292.023,521.082,293.196,522.255,293.196,523.702"/>
<path fill="none" stroke="#000000" stroke-width="0.5057" d="M293.196,505.495c0,1.445-1.172,2.618-2.62,2.618
	c-1.447,0-2.618-1.173-2.618-2.618c0-1.447,1.171-2.619,2.618-2.619C292.023,502.876,293.196,504.048,293.196,505.495"/>
<path fill="none" stroke="#000000" stroke-width="0.5057" d="M300.196,596.53c0,1.446-1.172,2.617-2.62,2.617
	c-1.447,0-2.618-1.171-2.618-2.617c0-1.447,1.171-2.62,2.618-2.62C299.023,593.909,300.196,595.082,300.196,596.53"/>
<path fill="none" stroke="#000000" stroke-width="0.5057" d="M300.196,578.322c0,1.446-1.172,2.619-2.62,2.619
	c-1.447,0-2.618-1.173-2.618-2.619c0-1.447,1.171-2.619,2.618-2.619C299.023,575.702,300.196,576.874,300.196,578.322"/>
<path fill="none" stroke="#000000" stroke-width="0.5057" d="M300.196,560.116c0,1.445-1.172,2.617-2.62,2.617
	c-1.447,0-2.618-1.172-2.618-2.617c0-1.448,1.171-2.62,2.618-2.62C299.023,557.496,300.196,558.668,300.196,560.116"/>
<path fill="none" stroke="#000000" stroke-width="0.5057" d="M300.196,541.908c0,1.445-1.172,2.618-2.62,2.618
	c-1.447,0-2.618-1.173-2.618-2.618c0-1.448,1.171-2.619,2.618-2.619C299.023,539.289,300.196,540.46,300.196,541.908"/>
<path fill="none" stroke="#000000" stroke-width="0.5057" d="M300.196,523.702c0,1.444-1.172,2.617-2.62,2.617
	c-1.447,0-2.618-1.173-2.618-2.617c0-1.447,1.171-2.62,2.618-2.62C299.023,521.082,300.196,522.255,300.196,523.702"/>
<path fill="none" stroke="#000000" stroke-width="0.5057" d="M300.196,505.495c0,1.445-1.172,2.618-2.62,2.618
	c-1.447,0-2.618-1.173-2.618-2.618c0-1.447,1.171-2.619,2.618-2.619C299.023,502.876,300.196,504.048,300.196,505.495"/>
<path fill="none" stroke="#000000" stroke-width="0.5057" d="M307.195,596.53c0,1.446-1.172,2.617-2.619,2.617
	c-1.447,0-2.618-1.171-2.618-2.617c0-1.447,1.171-2.62,2.618-2.62C306.023,593.909,307.195,595.082,307.195,596.53"/>
<path fill="none" stroke="#000000" stroke-width="0.5057" d="M307.195,578.322c0,1.446-1.172,2.619-2.619,2.619
	c-1.447,0-2.618-1.173-2.618-2.619c0-1.447,1.171-2.619,2.618-2.619C306.023,575.702,307.195,576.874,307.195,578.322"/>
<path fill="none" stroke="#000000" stroke-width="0.5057" d="M307.195,560.116c0,1.445-1.172,2.617-2.619,2.617
	c-1.447,0-2.618-1.172-2.618-2.617c0-1.448,1.171-2.62,2.618-2.62C306.023,557.496,307.195,558.668,307.195,560.116"/>
<path fill="none" stroke="#000000" stroke-width="0.5057" d="M307.195,541.908c0,1.445-1.172,2.618-2.619,2.618
	c-1.447,0-2.618-1.173-2.618-2.618c0-1.448,1.171-2.619,2.618-2.619C306.023,539.289,307.195,540.46,307.195,541.908"/>
<path fill="none" stroke="#000000" stroke-width="0.5057" d="M307.195,523.702c0,1.444-1.172,2.617-2.619,2.617
	c-1.447,0-2.618-1.173-2.618-2.617c0-1.447,1.171-2.62,2.618-2.62C306.023,521.082,307.195,522.255,307.195,523.702"/>
<path fill="none" stroke="#000000" stroke-width="0.5057" d="M307.195,505.495c0,1.445-1.172,2.618-2.619,2.618
	c-1.447,0-2.618-1.173-2.618-2.618c0-1.447,1.171-2.619,2.618-2.619C306.023,502.876,307.195,504.048,307.195,505.495"/>
<path fill="none" stroke="#000000" stroke-width="0.5057" d="M314.195,596.53c0,1.446-1.172,2.617-2.619,2.617
	s-2.618-1.171-2.618-2.617c0-1.447,1.171-2.62,2.618-2.62S314.195,595.082,314.195,596.53"/>
<path fill="none" stroke="#000000" stroke-width="0.5057" d="M314.195,578.322c0,1.446-1.172,2.619-2.619,2.619
	s-2.618-1.173-2.618-2.619c0-1.447,1.171-2.619,2.618-2.619S314.195,576.874,314.195,578.322"/>
<path fill="none" stroke="#000000" stroke-width="0.5057" d="M314.195,560.116c0,1.445-1.172,2.617-2.619,2.617
	s-2.618-1.172-2.618-2.617c0-1.448,1.171-2.62,2.618-2.62S314.195,558.668,314.195,560.116"/>
<path fill="none" stroke="#000000" stroke-width="0.5057" d="M314.195,541.908c0,1.445-1.172,2.618-2.619,2.618
	s-2.618-1.173-2.618-2.618c0-1.448,1.171-2.619,2.618-2.619S314.195,540.46,314.195,541.908"/>
<path fill="none" stroke="#000000" stroke-width="0.5057" d="M314.195,523.702c0,1.444-1.172,2.617-2.619,2.617
	s-2.618-1.173-2.618-2.617c0-1.447,1.171-2.62,2.618-2.62S314.195,522.255,314.195,523.702"/>
<path fill="none" stroke="#000000" stroke-width="0.5057" d="M314.195,505.495c0,1.445-1.172,2.618-2.619,2.618
	s-2.618-1.173-2.618-2.618c0-1.447,1.171-2.619,2.618-2.619S314.195,504.048,314.195,505.495"/>
<path fill="none" stroke="#000000" stroke-width="0.5057" d="M321.195,596.53c0,1.446-1.172,2.617-2.619,2.617
	s-2.618-1.171-2.618-2.617c0-1.447,1.171-2.62,2.618-2.62S321.195,595.082,321.195,596.53"/>
<path fill="none" stroke="#000000" stroke-width="0.5057" d="M321.195,578.322c0,1.446-1.172,2.619-2.619,2.619
	s-2.618-1.173-2.618-2.619c0-1.447,1.171-2.619,2.618-2.619S321.195,576.874,321.195,578.322"/>
<path fill="none" stroke="#000000" stroke-width="0.5057" d="M321.195,560.116c0,1.445-1.172,2.617-2.619,2.617
	s-2.618-1.172-2.618-2.617c0-1.448,1.171-2.62,2.618-2.62S321.195,558.668,321.195,560.116"/>
<path fill="none" stroke="#000000" stroke-width="0.5057" d="M321.195,541.908c0,1.445-1.172,2.618-2.619,2.618
	s-2.618-1.173-2.618-2.618c0-1.448,1.171-2.619,2.618-2.619S321.195,540.46,321.195,541.908"/>
<path fill="none" stroke="#000000" stroke-width="0.5057" d="M321.195,523.702c0,1.444-1.172,2.617-2.619,2.617
	s-2.618-1.173-2.618-2.617c0-1.447,1.171-2.62,2.618-2.62S321.195,522.255,321.195,523.702"/>
<path fill="none" stroke="#000000" stroke-width="0.5057" d="M321.195,505.495c0,1.445-1.172,2.618-2.619,2.618
	s-2.618-1.173-2.618-2.618c0-1.447,1.171-2.619,2.618-2.619S321.195,504.048,321.195,505.495"/>
</svg>
