<?xml version="1.0" encoding="UTF-8" standalone="no"?>
<!-- Generator: Adobe Illustrator 15.1.0, SVG Export Plug-In . SVG Version: 6.00 Build 0)  -->

<svg
   xmlns:dc="http://purl.org/dc/elements/1.1/"
   xmlns:cc="http://creativecommons.org/ns#"
   xmlns:rdf="http://www.w3.org/1999/02/22-rdf-syntax-ns#"
   xmlns:svg="http://www.w3.org/2000/svg"
   xmlns="http://www.w3.org/2000/svg"
   xmlns:sodipodi="http://sodipodi.sourceforge.net/DTD/sodipodi-0.dtd"
   xmlns:inkscape="http://www.inkscape.org/namespaces/inkscape"
   version="1.0"
   id="Layer_1"
   x="0px"
   y="0px"
   width="612px"
   height="792px"
   viewBox="0 0 612 792"
   enable-background="new 0 0 612 792"
   xml:space="preserve"
   inkscape:version="0.48.4 r9939"
   sodipodi:docname="Squad5_1_9.svg"><metadata
   id="metadata3823"><rdf:RDF><cc:Work
       rdf:about=""><dc:format>image/svg+xml</dc:format><dc:type
         rdf:resource="http://purl.org/dc/dcmitype/StillImage" /></cc:Work></rdf:RDF></metadata><defs
   id="defs3821" /><sodipodi:namedview
   pagecolor="#ffffff"
   bordercolor="#666666"
   borderopacity="1"
   objecttolerance="10"
   gridtolerance="10"
   guidetolerance="10"
   inkscape:pageopacity="0"
   inkscape:pageshadow="2"
   inkscape:window-width="640"
   inkscape:window-height="480"
   id="namedview3819"
   showgrid="false"
   inkscape:zoom="1.1919192"
   inkscape:cx="306"
   inkscape:cy="127.52542"
   inkscape:window-x="0"
   inkscape:window-y="0"
   inkscape:window-maximized="0"
   inkscape:current-layer="Layer_1" />



<path
   fill="none"
   stroke="#000000"
   stroke-width="0.5057"
   d="M265.196,640.527c0,1.446-1.172,2.619-2.62,2.619  c-1.447,0-2.618-1.173-2.618-2.619c0-1.447,1.171-2.619,2.618-2.619S265.196,639.079,265.196,640.527"
   id="path3753" />



<path
   fill="none"
   stroke="#000000"
   stroke-width="0.5057"
   d="M272.196,640.527c0,1.446-1.172,2.619-2.62,2.619  c-1.447,0-2.618-1.173-2.618-2.619c0-1.447,1.171-2.619,2.618-2.619S272.196,639.079,272.196,640.527"
   id="path3761" />



<path
   fill="none"
   stroke="#000000"
   stroke-width="0.5057"
   d="M279.196,640.527c0,1.446-1.172,2.619-2.62,2.619  c-1.447,0-2.618-1.173-2.618-2.619c0-1.447,1.171-2.619,2.618-2.619S279.196,639.079,279.196,640.527"
   id="path3769" />



<path
   fill="none"
   stroke="#000000"
   stroke-width="0.5057"
   d="M286.196,640.527c0,1.446-1.172,2.619-2.62,2.619  c-1.447,0-2.618-1.173-2.618-2.619c0-1.447,1.171-2.619,2.618-2.619S286.196,639.079,286.196,640.527"
   id="path3777" />



<path
   fill="none"
   stroke="#000000"
   stroke-width="0.5057"
   d="M293.196,640.527c0,1.446-1.172,2.619-2.62,2.619  c-1.447,0-2.618-1.173-2.618-2.619c0-1.447,1.171-2.619,2.618-2.619S293.196,639.079,293.196,640.527"
   id="path3785" />



<path
   fill="none"
   stroke="#000000"
   stroke-width="0.5057"
   d="M300.196,640.527c0,1.446-1.172,2.619-2.62,2.619  c-1.447,0-2.618-1.173-2.618-2.619c0-1.447,1.171-2.619,2.618-2.619S300.196,639.079,300.196,640.527"
   id="path3793" />



<path
   fill="none"
   stroke="#000000"
   stroke-width="0.5057"
   d="M307.195,640.527c0,1.446-1.172,2.619-2.619,2.619  c-1.446,0-2.617-1.173-2.617-2.619c0-1.447,1.171-2.619,2.617-2.619C306.023,637.907,307.195,639.079,307.195,640.527"
   id="path3801" />



<path
   fill="none"
   stroke="#000000"
   stroke-width="0.5057"
   d="M314.195,640.527c0,1.446-1.172,2.619-2.619,2.619  c-1.446,0-2.617-1.173-2.617-2.619c0-1.447,1.171-2.619,2.617-2.619C313.023,637.907,314.195,639.079,314.195,640.527"
   id="path3809" />



<path
   fill="none"
   stroke="#000000"
   stroke-width="0.5057"
   d="M321.195,640.527c0,1.446-1.172,2.619-2.619,2.619  c-1.446,0-2.617-1.173-2.617-2.619c0-1.447,1.171-2.619,2.617-2.619C320.023,637.907,321.195,639.079,321.195,640.527"
   id="path3817" />
</svg>