<?xml version="1.0" encoding="utf-8"?>
<!-- Generator: Adobe Illustrator 15.1.0, SVG Export Plug-In . SVG Version: 6.00 Build 0)  -->
<!DOCTYPE svg PUBLIC "-//W3C//DTD SVG 1.0//EN" "http://www.w3.org/TR/2001/REC-SVG-20010904/DTD/svg10.dtd">
<svg version="1.0" id="Layer_1" xmlns="http://www.w3.org/2000/svg" xmlns:xlink="http://www.w3.org/1999/xlink" x="0px" y="0px"
	 width="612px" height="792px" viewBox="0 0 612 792" enable-background="new 0 0 612 792" xml:space="preserve">
<path fill="none" stroke="#000000" stroke-width="0.5057" d="M265.196,713.355c0,1.446-1.172,2.618-2.62,2.618
	c-1.447,0-2.618-1.172-2.618-2.618c0-1.447,1.171-2.619,2.618-2.619S265.196,711.907,265.196,713.355"/>
<path fill="none" stroke="#000000" stroke-width="0.5057" d="M265.196,695.149c0,1.446-1.172,2.618-2.62,2.618
	c-1.447,0-2.618-1.172-2.618-2.618c0-1.447,1.171-2.619,2.618-2.619S265.196,693.701,265.196,695.149"/>
<path fill="none" stroke="#000000" stroke-width="0.5057" d="M265.196,676.942c0,1.445-1.172,2.617-2.62,2.617
	c-1.447,0-2.618-1.172-2.618-2.617c0-1.447,1.171-2.62,2.618-2.62S265.196,675.494,265.196,676.942"/>
<path fill="none" stroke="#000000" stroke-width="0.5057" d="M265.196,658.735c0,1.446-1.172,2.617-2.62,2.617
	c-1.447,0-2.618-1.171-2.618-2.617c0-1.447,1.171-2.62,2.618-2.62S265.196,657.287,265.196,658.735"/>
<path fill="none" stroke="#000000" stroke-width="0.5057" d="M265.196,640.527c0,1.446-1.172,2.619-2.62,2.619
	c-1.447,0-2.618-1.173-2.618-2.619c0-1.447,1.171-2.619,2.618-2.619S265.196,639.079,265.196,640.527"/>
<path fill="none" stroke="#000000" stroke-width="0.5057" d="M272.196,713.355c0,1.446-1.172,2.618-2.62,2.618
	c-1.447,0-2.618-1.172-2.618-2.618c0-1.447,1.171-2.619,2.618-2.619S272.196,711.907,272.196,713.355"/>
<path fill="none" stroke="#000000" stroke-width="0.5057" d="M272.196,695.149c0,1.446-1.172,2.618-2.62,2.618
	c-1.447,0-2.618-1.172-2.618-2.618c0-1.447,1.171-2.619,2.618-2.619S272.196,693.701,272.196,695.149"/>
<path fill="none" stroke="#000000" stroke-width="0.5057" d="M272.196,676.942c0,1.445-1.172,2.617-2.62,2.617
	c-1.447,0-2.618-1.172-2.618-2.617c0-1.447,1.171-2.62,2.618-2.62S272.196,675.494,272.196,676.942"/>
<path fill="none" stroke="#000000" stroke-width="0.5057" d="M272.196,658.735c0,1.446-1.172,2.617-2.62,2.617
	c-1.447,0-2.618-1.171-2.618-2.617c0-1.447,1.171-2.62,2.618-2.62S272.196,657.287,272.196,658.735"/>
<path fill="none" stroke="#000000" stroke-width="0.5057" d="M272.196,640.527c0,1.446-1.172,2.619-2.62,2.619
	c-1.447,0-2.618-1.173-2.618-2.619c0-1.447,1.171-2.619,2.618-2.619S272.196,639.079,272.196,640.527"/>
<path fill="none" stroke="#000000" stroke-width="0.5057" d="M279.196,713.355c0,1.446-1.172,2.618-2.62,2.618
	c-1.447,0-2.618-1.172-2.618-2.618c0-1.447,1.171-2.619,2.618-2.619S279.196,711.907,279.196,713.355"/>
<path fill="none" stroke="#000000" stroke-width="0.5057" d="M279.196,695.149c0,1.446-1.172,2.618-2.62,2.618
	c-1.447,0-2.618-1.172-2.618-2.618c0-1.447,1.171-2.619,2.618-2.619S279.196,693.701,279.196,695.149"/>
<path fill="none" stroke="#000000" stroke-width="0.5057" d="M279.196,676.942c0,1.445-1.172,2.617-2.62,2.617
	c-1.447,0-2.618-1.172-2.618-2.617c0-1.447,1.171-2.62,2.618-2.62S279.196,675.494,279.196,676.942"/>
<path fill="none" stroke="#000000" stroke-width="0.5057" d="M279.196,658.735c0,1.446-1.172,2.617-2.62,2.617
	c-1.447,0-2.618-1.171-2.618-2.617c0-1.447,1.171-2.62,2.618-2.62S279.196,657.287,279.196,658.735"/>
<path fill="none" stroke="#000000" stroke-width="0.5057" d="M279.196,640.527c0,1.446-1.172,2.619-2.62,2.619
	c-1.447,0-2.618-1.173-2.618-2.619c0-1.447,1.171-2.619,2.618-2.619S279.196,639.079,279.196,640.527"/>
<path fill="none" stroke="#000000" stroke-width="0.5057" d="M286.196,713.355c0,1.446-1.172,2.618-2.62,2.618
	c-1.447,0-2.618-1.172-2.618-2.618c0-1.447,1.171-2.619,2.618-2.619S286.196,711.907,286.196,713.355"/>
<path fill="none" stroke="#000000" stroke-width="0.5057" d="M286.196,695.149c0,1.446-1.172,2.618-2.62,2.618
	c-1.447,0-2.618-1.172-2.618-2.618c0-1.447,1.171-2.619,2.618-2.619S286.196,693.701,286.196,695.149"/>
<path fill="none" stroke="#000000" stroke-width="0.5057" d="M286.196,676.942c0,1.445-1.172,2.617-2.62,2.617
	c-1.447,0-2.618-1.172-2.618-2.617c0-1.447,1.171-2.62,2.618-2.62S286.196,675.494,286.196,676.942"/>
<path fill="none" stroke="#000000" stroke-width="0.5057" d="M286.196,658.735c0,1.446-1.172,2.617-2.62,2.617
	c-1.447,0-2.618-1.171-2.618-2.617c0-1.447,1.171-2.62,2.618-2.62S286.196,657.287,286.196,658.735"/>
<path fill="none" stroke="#000000" stroke-width="0.5057" d="M286.196,640.527c0,1.446-1.172,2.619-2.62,2.619
	c-1.447,0-2.618-1.173-2.618-2.619c0-1.447,1.171-2.619,2.618-2.619S286.196,639.079,286.196,640.527"/>
<path fill="none" stroke="#000000" stroke-width="0.5057" d="M293.196,713.355c0,1.446-1.172,2.618-2.62,2.618
	c-1.447,0-2.618-1.172-2.618-2.618c0-1.447,1.171-2.619,2.618-2.619S293.196,711.907,293.196,713.355"/>
<path fill="none" stroke="#000000" stroke-width="0.5057" d="M293.196,695.149c0,1.446-1.172,2.618-2.62,2.618
	c-1.447,0-2.618-1.172-2.618-2.618c0-1.447,1.171-2.619,2.618-2.619S293.196,693.701,293.196,695.149"/>
<path fill="none" stroke="#000000" stroke-width="0.5057" d="M293.196,676.942c0,1.445-1.172,2.617-2.62,2.617
	c-1.447,0-2.618-1.172-2.618-2.617c0-1.447,1.171-2.62,2.618-2.62S293.196,675.494,293.196,676.942"/>
<path fill="none" stroke="#000000" stroke-width="0.5057" d="M293.196,658.735c0,1.446-1.172,2.617-2.62,2.617
	c-1.447,0-2.618-1.171-2.618-2.617c0-1.447,1.171-2.62,2.618-2.62S293.196,657.287,293.196,658.735"/>
<path fill="none" stroke="#000000" stroke-width="0.5057" d="M293.196,640.527c0,1.446-1.172,2.619-2.62,2.619
	c-1.447,0-2.618-1.173-2.618-2.619c0-1.447,1.171-2.619,2.618-2.619S293.196,639.079,293.196,640.527"/>
</svg>
