<?xml version="1.0" encoding="utf-8"?>
<!DOCTYPE svg PUBLIC "-//W3C//DTD SVG 1.1//EN" "http://www.w3.org/Graphics/SVG/1.1/DTD/svg11.dtd">
<svg version="1.1" id="Armor" xmlns="http://www.w3.org/2000/svg" xmlns:xlink="http://www.w3.org/1999/xlink" x="0px" y="0px"
	 width="612px" height="792px" viewBox="0 0 612 792" enable-background="new 0 0 612 792" xml:space="preserve">
<switch><g>
<path fill-rule="evenodd" clip-rule="evenodd" fill="none" stroke="#000000" stroke-width="0.504" stroke-miterlimit="2.4142" d="     M463.762,189.643c-1.564-0.389-2.524-1.985-2.114-3.618c0.39-1.562,1.985-2.521,3.548-2.13c1.631,0.405,2.591,2.001,2.201,3.564     C466.988,189.091,465.391,190.051,463.762,189.643L463.762,189.643z"/>
<path fill-rule="evenodd" clip-rule="evenodd" fill="none" stroke="#000000" stroke-width="0.504" stroke-miterlimit="2.4142" d="     M457.144,192.592c-1.558-0.392-2.521-1.985-2.11-3.619c0.389-1.562,1.98-2.524,3.545-2.132c1.632,0.404,2.592,2.003,2.199,3.563     C460.375,192.038,458.774,192.999,457.144,192.592L457.144,192.592z"/>
<path fill-rule="evenodd" clip-rule="evenodd" fill="none" stroke="#000000" stroke-width="0.504" stroke-miterlimit="2.4142" d="     M468.561,195.228c-1.562-0.393-2.525-1.987-2.112-3.62c0.386-1.563,1.98-2.523,3.544-2.131c1.633,0.404,2.59,2.001,2.201,3.564     C471.787,194.673,470.188,195.633,468.561,195.228L468.561,195.228z"/>
<path fill-rule="evenodd" clip-rule="evenodd" fill="none" stroke="#000000" stroke-width="0.504" stroke-miterlimit="2.4142" d="     M461.799,198.141c-1.563-0.388-2.522-1.984-2.112-3.617c0.389-1.562,1.983-2.521,3.546-2.13c1.632,0.404,2.592,1.998,2.201,3.563     C465.026,197.59,463.43,198.55,461.799,198.141L461.799,198.141z"/>
<path fill-rule="evenodd" clip-rule="evenodd" fill="none" stroke="#000000" stroke-width="0.504" stroke-miterlimit="2.4142" d="     M455.182,201.091c-1.557-0.393-2.521-1.987-2.109-3.619c0.388-1.563,1.98-2.524,3.544-2.133c1.632,0.404,2.593,2.005,2.2,3.563     C458.413,200.536,456.813,201.497,455.182,201.091L455.182,201.091z"/>
<path fill-rule="evenodd" clip-rule="evenodd" fill="none" stroke="#000000" stroke-width="0.504" stroke-miterlimit="2.4142" d="     M466.598,203.726c-1.561-0.393-2.525-1.986-2.112-3.619c0.386-1.562,1.979-2.522,3.546-2.131     c1.632,0.404,2.589,2.001,2.198,3.564C469.824,203.171,468.225,204.132,466.598,203.726L466.598,203.726z"/>
<path fill-rule="evenodd" clip-rule="evenodd" fill="none" stroke="#000000" stroke-width="0.504" stroke-miterlimit="2.4142" d="     M459.837,206.642c-1.56-0.391-2.523-1.986-2.108-3.619c0.383-1.564,1.979-2.523,3.546-2.133c1.628,0.406,2.587,2.004,2.194,3.564     C463.068,206.089,461.468,207.047,459.837,206.642L459.837,206.642z"/>
<path fill-rule="evenodd" clip-rule="evenodd" fill="none" stroke="#000000" stroke-width="0.504" stroke-miterlimit="2.4142" d="     M453.078,209.556c-1.56-0.391-2.521-1.985-2.114-3.62c0.391-1.563,1.986-2.519,3.548-2.13c1.631,0.406,2.591,2.004,2.201,3.564     C456.308,209.001,454.706,209.961,453.078,209.556L453.078,209.556z"/>
<path fill-rule="evenodd" clip-rule="evenodd" fill="none" stroke="#000000" stroke-width="0.504" stroke-miterlimit="2.4142" d="     M464.495,212.191c-1.563-0.392-2.521-1.989-2.116-3.621c0.393-1.562,1.984-2.521,3.548-2.129     c1.633,0.403,2.591,2.001,2.202,3.563C467.722,211.636,466.121,212.597,464.495,212.191L464.495,212.191z"/>
<path fill-rule="evenodd" clip-rule="evenodd" fill="none" stroke="#000000" stroke-width="0.504" stroke-miterlimit="2.4142" d="     M457.875,215.139c-1.563-0.391-2.524-1.987-2.114-3.621c0.389-1.562,1.982-2.518,3.55-2.128c1.629,0.405,2.588,2.002,2.198,3.563     C461.102,214.585,459.503,215.544,457.875,215.139L457.875,215.139z"/>
<path fill-rule="evenodd" clip-rule="evenodd" fill="none" stroke="#000000" stroke-width="0.504" stroke-miterlimit="2.4142" d="     M450.975,218.022c-1.559-0.389-2.522-1.986-2.115-3.621c0.389-1.563,1.988-2.519,3.551-2.131     c1.631,0.408,2.588,2.006,2.203,3.564C454.198,217.47,452.605,218.428,450.975,218.022L450.975,218.022z"/>
<path fill-rule="evenodd" clip-rule="evenodd" fill="none" stroke="#000000" stroke-width="0.504" stroke-miterlimit="2.4142" d="     M462.389,220.658c-1.561-0.39-2.523-1.988-2.117-3.62c0.389-1.562,1.988-2.521,3.552-2.132c1.628,0.407,2.589,2.005,2.202,3.565     C465.614,220.104,464.018,221.064,462.389,220.658L462.389,220.658z"/>
<path fill-rule="evenodd" clip-rule="evenodd" fill="none" stroke="#000000" stroke-width="0.504" stroke-miterlimit="2.4142" d="     M455.914,223.64c-1.563-0.389-2.528-1.987-2.116-3.621c0.387-1.561,1.983-2.52,3.549-2.133c1.628,0.408,2.589,2.008,2.202,3.566     C459.138,223.087,457.539,224.046,455.914,223.64L455.914,223.64z"/>
<path fill-rule="evenodd" clip-rule="evenodd" fill="none" stroke="#000000" stroke-width="0.504" stroke-miterlimit="2.4142" d="     M448.869,226.487c-1.563-0.393-2.521-1.986-2.115-3.621c0.392-1.561,1.987-2.521,3.554-2.128c1.628,0.405,2.587,1.999,2.197,3.56     C452.1,225.937,450.502,226.893,448.869,226.487L448.869,226.487z"/>
<path fill-rule="evenodd" clip-rule="evenodd" fill="none" stroke="#000000" stroke-width="0.504" stroke-miterlimit="2.4142" d="     M460.283,229.122c-1.565-0.389-2.521-1.984-2.114-3.62c0.388-1.56,1.987-2.519,3.55-2.129c1.629,0.407,2.586,2.001,2.199,3.562     C463.512,228.571,461.918,229.528,460.283,229.122L460.283,229.122z"/>
<path fill-rule="evenodd" clip-rule="evenodd" fill="none" stroke="#000000" stroke-width="0.504" stroke-miterlimit="2.4142" d="     M453.951,232.137c-1.566-0.394-2.524-1.988-2.115-3.623c0.389-1.559,1.986-2.52,3.551-2.128c1.625,0.405,2.587,2,2.199,3.563     C457.18,231.584,455.582,232.541,453.951,232.137L453.951,232.137z"/>
<path fill-rule="evenodd" clip-rule="evenodd" fill="none" stroke="#000000" stroke-width="0.504" stroke-miterlimit="2.4142" d="     M446.768,234.955c-1.56-0.392-2.521-1.987-2.117-3.62c0.393-1.561,1.987-2.521,3.551-2.133c1.631,0.407,2.591,2.001,2.199,3.564     C449.996,234.402,448.398,235.361,446.768,234.955L446.768,234.955z"/>
<path fill-rule="evenodd" clip-rule="evenodd" fill="none" stroke="#000000" stroke-width="0.504" stroke-miterlimit="2.4142" d="     M458.184,237.589c-1.561-0.388-2.523-1.984-2.119-3.62c0.394-1.563,1.988-2.519,3.551-2.131c1.63,0.408,2.592,2.001,2.201,3.565     C461.411,237.036,459.813,237.997,458.184,237.589L458.184,237.589z"/>
<path fill-rule="evenodd" clip-rule="evenodd" fill="none" stroke="#000000" stroke-width="0.504" stroke-miterlimit="2.4142" d="     M451.424,240.504c-1.563-0.391-2.524-1.988-2.116-3.62c0.392-1.563,1.985-2.521,3.548-2.131c1.629,0.405,2.59,2,2.201,3.564     C454.651,239.948,453.055,240.909,451.424,240.504L451.424,240.504z"/>
<path fill-rule="evenodd" clip-rule="evenodd" fill="none" stroke="#000000" stroke-width="0.504" stroke-miterlimit="2.4142" d="     M444.66,243.417c-1.562-0.387-2.521-1.982-2.111-3.618c0.389-1.56,1.987-2.52,3.548-2.129c1.627,0.405,2.593,2.005,2.2,3.564     C447.889,242.867,446.294,243.828,444.66,243.417L444.66,243.417z"/>
<path fill-rule="evenodd" clip-rule="evenodd" fill="none" stroke="#000000" stroke-width="0.504" stroke-miterlimit="2.4142" d="     M456.073,246.053c-1.559-0.389-2.52-1.984-2.11-3.62c0.393-1.559,1.988-2.519,3.549-2.128c1.628,0.404,2.589,2.003,2.199,3.564     C459.305,245.501,457.709,246.461,456.073,246.053L456.073,246.053z"/>
<path fill-rule="evenodd" clip-rule="evenodd" fill="none" stroke="#000000" stroke-width="0.504" stroke-miterlimit="2.4142" d="     M449.314,248.968c-1.562-0.387-2.521-1.985-2.111-3.616c0.391-1.561,1.986-2.521,3.551-2.131     c1.626,0.406,2.589,2.005,2.196,3.564C452.545,248.418,450.948,249.38,449.314,248.968L449.314,248.968z"/>
<path fill-rule="evenodd" clip-rule="evenodd" fill="none" stroke="#000000" stroke-width="0.504" stroke-miterlimit="2.4142" d="     M442.558,251.885c-1.563-0.39-2.521-1.986-2.113-3.618c0.392-1.563,1.988-2.521,3.551-2.132c1.629,0.404,2.587,2.005,2.196,3.563     C445.788,251.333,444.188,252.294,442.558,251.885L442.558,251.885z"/>
<path fill-rule="evenodd" clip-rule="evenodd" fill="none" stroke="#000000" stroke-width="0.504" stroke-miterlimit="2.4142" d="     M453.971,254.52c-1.564-0.392-2.523-1.989-2.112-3.619c0.391-1.563,1.986-2.523,3.548-2.131c1.632,0.403,2.591,2.003,2.199,3.563     C457.201,253.968,455.604,254.927,453.971,254.52L453.971,254.52z"/>
<path fill-rule="evenodd" clip-rule="evenodd" fill="none" stroke="#000000" stroke-width="0.504" stroke-miterlimit="2.4142" d="     M447.214,257.434c-1.565-0.388-2.523-1.985-2.114-3.616c0.389-1.563,1.986-2.521,3.549-2.131     c1.631,0.402,2.588,2.004,2.198,3.562C450.442,256.884,448.843,257.842,447.214,257.434L447.214,257.434z"/>
<path fill-rule="evenodd" clip-rule="evenodd" fill="none" stroke="#000000" stroke-width="0.504" stroke-miterlimit="2.4142" d="     M440.452,260.349c-1.56-0.39-2.521-1.985-2.109-3.616c0.39-1.564,1.989-2.524,3.549-2.131c1.628,0.403,2.587,2.004,2.199,3.562     C443.683,259.797,442.085,260.756,440.452,260.349L440.452,260.349z"/>
<path fill-rule="evenodd" clip-rule="evenodd" fill="none" stroke="#000000" stroke-width="0.504" stroke-miterlimit="2.4142" d="     M451.866,262.985c-1.562-0.392-2.521-1.987-2.113-3.617c0.394-1.564,1.988-2.523,3.552-2.132     c1.628,0.404,2.589,2.004,2.198,3.563C455.098,262.433,453.5,263.392,451.866,262.985L451.866,262.985z"/>
<path fill-rule="evenodd" clip-rule="evenodd" fill="none" stroke="#000000" stroke-width="0.504" stroke-miterlimit="2.4142" d="     M445.107,265.9c-1.561-0.388-2.518-1.987-2.11-3.617c0.39-1.563,1.985-2.521,3.547-2.132c1.632,0.406,2.591,2.006,2.198,3.563     C448.337,265.349,446.738,266.308,445.107,265.9L445.107,265.9z"/>
<path fill-rule="evenodd" clip-rule="evenodd" fill="none" stroke="#000000" stroke-width="0.504" stroke-miterlimit="2.4142" d="     M438.346,268.814c-1.563-0.39-2.518-1.986-2.111-3.618c0.393-1.563,1.99-2.521,3.549-2.131c1.632,0.405,2.594,2.004,2.201,3.563     C441.576,268.262,439.98,269.222,438.346,268.814L438.346,268.814z"/>
<path fill-rule="evenodd" clip-rule="evenodd" fill="none" stroke="#000000" stroke-width="0.504" stroke-miterlimit="2.4142" d="     M449.761,271.45c-1.564-0.39-2.519-1.985-2.108-3.619c0.387-1.563,1.983-2.521,3.545-2.129c1.631,0.401,2.59,2.003,2.2,3.563     C452.992,270.897,451.395,271.856,449.761,271.45L449.761,271.45z"/>
<path fill-rule="evenodd" clip-rule="evenodd" fill="none" stroke="#000000" stroke-width="0.504" stroke-miterlimit="2.4142" d="     M443,274.366c-1.561-0.39-2.518-1.986-2.111-3.62c0.393-1.562,1.988-2.521,3.547-2.131c1.636,0.406,2.595,2.005,2.203,3.564     C446.231,273.813,444.635,274.774,443,274.366L443,274.366z"/>
<path fill-rule="evenodd" clip-rule="evenodd" fill="none" stroke="#000000" stroke-width="0.504" stroke-miterlimit="2.4142" d="     M436.244,277.28c-1.559-0.39-2.52-1.987-2.113-3.617c0.395-1.563,1.986-2.522,3.551-2.131c1.631,0.405,2.592,2.004,2.199,3.563     C439.475,276.728,437.879,277.69,436.244,277.28L436.244,277.28z"/>
<path fill-rule="evenodd" clip-rule="evenodd" fill="none" stroke="#000000" stroke-width="0.504" stroke-miterlimit="2.4142" d="     M447.659,279.917c-1.562-0.393-2.522-1.986-2.116-3.619c0.394-1.562,1.988-2.519,3.555-2.131     c1.625,0.403,2.591,2.006,2.199,3.563C450.891,279.363,449.289,280.323,447.659,279.917L447.659,279.917z"/>
<path fill-rule="evenodd" clip-rule="evenodd" fill="none" stroke="#000000" stroke-width="0.504" stroke-miterlimit="2.4142" d="     M440.899,282.831c-1.563-0.389-2.521-1.984-2.112-3.618c0.391-1.562,1.984-2.52,3.549-2.13c1.631,0.404,2.592,2.004,2.2,3.563     C444.127,282.279,442.529,283.24,440.899,282.831L440.899,282.831z"/>
<path fill-rule="evenodd" clip-rule="evenodd" fill="none" stroke="#000000" stroke-width="0.504" stroke-miterlimit="2.4142" d="     M434.141,285.746c-1.562-0.387-2.523-1.984-2.113-3.617c0.388-1.562,1.986-2.519,3.549-2.131     c1.627,0.408,2.592,2.002,2.199,3.563C437.368,285.195,435.773,286.157,434.141,285.746L434.141,285.746z"/>
<path fill-rule="evenodd" clip-rule="evenodd" fill="none" stroke="#000000" stroke-width="0.504" stroke-miterlimit="2.4142" d="     M445.554,288.381c-1.563-0.388-2.521-1.985-2.112-3.617c0.391-1.561,1.984-2.519,3.551-2.13c1.627,0.405,2.589,2.003,2.197,3.564     C448.781,287.831,447.186,288.791,445.554,288.381L445.554,288.381z"/>
<path fill-rule="evenodd" clip-rule="evenodd" fill="none" stroke="#000000" stroke-width="0.504" stroke-miterlimit="2.4142" d="     M438.796,291.296c-1.563-0.388-2.521-1.986-2.113-3.617c0.39-1.563,1.986-2.521,3.548-2.13c1.63,0.404,2.594,2.001,2.199,3.562     C442.023,290.744,440.426,291.704,438.796,291.296L438.796,291.296z"/>
<path fill-rule="evenodd" clip-rule="evenodd" fill="none" stroke="#000000" stroke-width="0.504" stroke-miterlimit="2.4142" d="     M432.037,294.211c-1.563-0.389-2.519-1.984-2.112-3.617c0.389-1.563,1.985-2.519,3.549-2.129c1.629,0.403,2.589,2,2.198,3.562     C435.264,293.661,433.668,294.621,432.037,294.211L432.037,294.211z"/>
<path fill-rule="evenodd" clip-rule="evenodd" fill="none" stroke="#000000" stroke-width="0.504" stroke-miterlimit="2.4142" d="     M443.449,296.847c-1.562-0.389-2.522-1.986-2.113-3.618c0.39-1.562,1.987-2.521,3.551-2.129c1.628,0.403,2.591,2,2.202,3.563     C446.68,296.296,445.083,297.256,443.449,296.847L443.449,296.847z"/>
<path fill-rule="evenodd" clip-rule="evenodd" fill="none" stroke="#000000" stroke-width="0.504" stroke-miterlimit="2.4142" d="     M436.834,299.795c-1.563-0.389-2.521-1.986-2.113-3.618c0.39-1.563,1.986-2.521,3.548-2.13c1.63,0.404,2.593,2.002,2.199,3.562     C440.061,299.242,438.464,300.202,436.834,299.795L436.834,299.795z"/>
</g></switch>
</svg>