<?xml version="1.0" encoding="utf-8"?>
<!DOCTYPE svg PUBLIC "-//W3C//DTD SVG 1.1//EN" "http://www.w3.org/Graphics/SVG/1.1/DTD/svg11.dtd">
<svg version="1.1" id="Armor" xmlns="http://www.w3.org/2000/svg" xmlns:xlink="http://www.w3.org/1999/xlink" x="0px" y="0px"
	 width="612px" height="792px" viewBox="0 0 612 792" enable-background="new 0 0 612 792" xml:space="preserve">
<switch><g>
<path fill-rule="evenodd" clip-rule="evenodd" fill="none" stroke="#000000" stroke-width="0.504" stroke-miterlimit="2.4142" d="     M462.698,191.117c-1.558-0.39-2.524-1.988-2.117-3.623c0.394-1.559,1.989-2.52,3.555-2.127c1.624,0.403,2.586,2.002,2.198,3.563     C465.924,190.564,464.326,191.521,462.698,191.117L462.698,191.117z"/>
<path fill-rule="evenodd" clip-rule="evenodd" fill="none" stroke="#000000" stroke-width="0.504" stroke-miterlimit="2.4142" d="     M455.311,197.056c-1.563-0.389-2.516-1.983-2.111-3.618c0.389-1.563,1.989-2.518,3.553-2.131     c1.625,0.409,2.586,2.006,2.195,3.564C458.545,196.506,456.945,197.466,455.311,197.056L455.311,197.056z"/>
<path fill-rule="evenodd" clip-rule="evenodd" fill="none" stroke="#000000" stroke-width="0.504" stroke-miterlimit="2.4142" d="     M466.726,199.691c-1.563-0.389-2.517-1.983-2.112-3.618c0.39-1.563,1.99-2.518,3.553-2.131c1.625,0.409,2.586,2.005,2.196,3.563     C469.961,199.141,468.359,200.101,466.726,199.691L466.726,199.691z"/>
<path fill-rule="evenodd" clip-rule="evenodd" fill="none" stroke="#000000" stroke-width="0.504" stroke-miterlimit="2.4142" d="     M459.345,205.634c-1.564-0.393-2.521-1.984-2.111-3.621c0.391-1.558,1.984-2.518,3.55-2.132c1.623,0.41,2.586,2.005,2.2,3.565     C462.579,205.083,460.98,206.037,459.345,205.634L459.345,205.634z"/>
<path fill-rule="evenodd" clip-rule="evenodd" fill="none" stroke="#000000" stroke-width="0.504" stroke-miterlimit="2.4142" d="     M451.967,211.574c-1.563-0.391-2.52-1.985-2.118-3.62c0.392-1.563,1.986-2.519,3.549-2.132c1.629,0.409,2.592,2.001,2.2,3.566     C455.193,211.021,453.595,211.98,451.967,211.574L451.967,211.574z"/>
<path fill-rule="evenodd" clip-rule="evenodd" fill="none" stroke="#000000" stroke-width="0.504" stroke-miterlimit="2.4142" d="     M463.38,214.209c-1.563-0.39-2.52-1.984-2.118-3.62c0.392-1.562,1.986-2.518,3.548-2.132c1.632,0.41,2.592,2.002,2.202,3.566     C466.607,213.656,465.01,214.617,463.38,214.209L463.38,214.209z"/>
<path fill-rule="evenodd" clip-rule="evenodd" fill="none" stroke="#000000" stroke-width="0.504" stroke-miterlimit="2.4142" d="     M455.994,220.148c-1.563-0.39-2.519-1.986-2.112-3.617c0.394-1.563,1.983-2.521,3.548-2.133c1.627,0.406,2.588,2.002,2.2,3.564     C459.226,219.595,457.627,220.555,455.994,220.148L455.994,220.148z"/>
<path fill-rule="evenodd" clip-rule="evenodd" fill="none" stroke="#000000" stroke-width="0.504" stroke-miterlimit="2.4142" d="     M448.609,226.086c-1.56-0.386-2.519-1.982-2.112-3.616c0.392-1.56,1.984-2.522,3.548-2.129c1.631,0.403,2.593,2.004,2.203,3.564     C451.841,225.54,450.243,226.499,448.609,226.086L448.609,226.086z"/>
<path fill-rule="evenodd" clip-rule="evenodd" fill="none" stroke="#000000" stroke-width="0.504" stroke-miterlimit="2.4142" d="     M460.022,228.722c-1.56-0.386-2.517-1.982-2.11-3.615c0.39-1.561,1.982-2.523,3.548-2.131c1.631,0.404,2.593,2.005,2.201,3.565     C463.254,228.175,461.658,229.135,460.022,228.722L460.022,228.722z"/>
<path fill-rule="evenodd" clip-rule="evenodd" fill="none" stroke="#000000" stroke-width="0.504" stroke-miterlimit="2.4142" d="     M452.641,234.661c-1.564-0.385-2.52-1.981-2.109-3.611c0.389-1.563,1.982-2.524,3.547-2.132c1.629,0.402,2.59,2.003,2.196,3.564     C455.871,234.116,454.273,235.074,452.641,234.661L452.641,234.661z"/>
<path fill-rule="evenodd" clip-rule="evenodd" fill="none" stroke="#000000" stroke-width="0.504" stroke-miterlimit="2.4142" d="     M445.258,240.604c-1.563-0.39-2.521-1.986-2.112-3.617c0.393-1.565,1.986-2.524,3.547-2.133c1.635,0.405,2.593,2.003,2.2,3.563     C448.491,240.054,446.893,241.013,445.258,240.604L445.258,240.604z"/>
<path fill-rule="evenodd" clip-rule="evenodd" fill="none" stroke="#000000" stroke-width="0.504" stroke-miterlimit="2.4142" d="     M456.674,243.24c-1.564-0.391-2.522-1.986-2.115-3.616c0.393-1.566,1.986-2.525,3.549-2.134c1.633,0.405,2.592,2.003,2.2,3.563     C459.905,242.69,458.307,243.648,456.674,243.24L456.674,243.24z"/>
<path fill-rule="evenodd" clip-rule="evenodd" fill="none" stroke="#000000" stroke-width="0.504" stroke-miterlimit="2.4142" d="     M449.286,249.18c-1.562-0.391-2.514-1.984-2.107-3.614c0.39-1.563,1.985-2.525,3.548-2.135c1.631,0.407,2.59,2.003,2.2,3.563     C452.523,248.632,450.922,249.588,449.286,249.18L449.286,249.18z"/>
<path fill-rule="evenodd" clip-rule="evenodd" fill="none" stroke="#000000" stroke-width="0.504" stroke-miterlimit="2.4142" d="     M441.904,255.119c-1.563-0.388-2.521-1.982-2.11-3.614c0.39-1.565,1.984-2.521,3.546-2.134c1.63,0.407,2.592,2.005,2.199,3.567     C445.134,254.568,443.533,255.53,441.904,255.119L441.904,255.119z"/>
<path fill-rule="evenodd" clip-rule="evenodd" fill="none" stroke="#000000" stroke-width="0.504" stroke-miterlimit="2.4142" d="     M453.322,257.755c-1.563-0.386-2.521-1.983-2.111-3.613c0.391-1.565,1.984-2.522,3.545-2.134     c1.631,0.406,2.594,2.005,2.201,3.566C456.551,257.204,454.951,258.167,453.322,257.755L453.322,257.755z"/>
<path fill-rule="evenodd" clip-rule="evenodd" fill="none" stroke="#000000" stroke-width="0.504" stroke-miterlimit="2.4142" d="     M445.938,263.696c-1.566-0.389-2.517-1.982-2.112-3.617c0.393-1.564,1.986-2.521,3.549-2.132     c1.633,0.408,2.589,2.005,2.199,3.566C449.166,263.145,447.572,264.105,445.938,263.696L445.938,263.696z"/>
<path fill-rule="evenodd" clip-rule="evenodd" fill="none" stroke="#000000" stroke-width="0.504" stroke-miterlimit="2.4142" d="     M438.559,269.638c-1.563-0.39-2.524-1.986-2.115-3.618c0.393-1.565,1.988-2.519,3.551-2.132c1.629,0.404,2.592,2.005,2.201,3.563     C441.791,269.084,440.191,270.044,438.559,269.638L438.559,269.638z"/>
<path fill-rule="evenodd" clip-rule="evenodd" fill="none" stroke="#000000" stroke-width="0.504" stroke-miterlimit="2.4142" d="     M449.97,272.271c-1.562-0.389-2.522-1.986-2.114-3.617c0.392-1.564,1.988-2.519,3.55-2.132c1.63,0.404,2.592,2.006,2.202,3.563     C453.202,271.719,451.604,272.68,449.97,272.271L449.97,272.271z"/>
<path fill-rule="evenodd" clip-rule="evenodd" fill="none" stroke="#000000" stroke-width="0.504" stroke-miterlimit="2.4142" d="     M442.586,278.211c-1.56-0.388-2.514-1.985-2.112-3.616c0.392-1.564,1.989-2.522,3.548-2.132c1.637,0.406,2.595,2.006,2.203,3.563     C445.817,277.661,444.221,278.621,442.586,278.211L442.586,278.211z"/>
<path fill-rule="evenodd" clip-rule="evenodd" fill="none" stroke="#000000" stroke-width="0.504" stroke-miterlimit="2.4142" d="     M435.207,284.153c-1.563-0.389-2.522-1.985-2.115-3.621c0.391-1.558,1.988-2.517,3.552-2.127c1.631,0.406,2.593,2.003,2.2,3.565     C438.436,283.602,436.84,284.563,435.207,284.153L435.207,284.153z"/>
<path fill-rule="evenodd" clip-rule="evenodd" fill="none" stroke="#000000" stroke-width="0.504" stroke-miterlimit="2.4142" d="     M446.617,286.787c-1.563-0.387-2.521-1.984-2.113-3.619c0.391-1.558,1.988-2.517,3.552-2.128c1.63,0.406,2.593,2.003,2.199,3.565     C449.848,286.237,448.253,287.197,446.617,286.787L446.617,286.787z"/>
<path fill-rule="evenodd" clip-rule="evenodd" fill="none" stroke="#000000" stroke-width="0.504" stroke-miterlimit="2.4142" d="     M439.238,292.73c-1.563-0.39-2.526-1.986-2.113-3.621c0.387-1.561,1.982-2.518,3.55-2.132c1.627,0.407,2.591,2.006,2.202,3.565     C442.464,292.177,440.867,293.136,439.238,292.73L439.238,292.73z"/>
<path fill-rule="evenodd" clip-rule="evenodd" fill="none" stroke="#000000" stroke-width="0.504" stroke-miterlimit="2.4142" d="     M431.854,298.669c-1.563-0.386-2.521-1.986-2.112-3.62c0.39-1.559,1.985-2.517,3.551-2.128c1.626,0.405,2.591,1.999,2.198,3.563     C435.084,298.119,433.486,299.078,431.854,298.669L431.854,298.669z"/>
<path fill-rule="evenodd" clip-rule="evenodd" fill="none" stroke="#000000" stroke-width="0.504" stroke-miterlimit="2.4142" d="     M443.268,301.304c-1.563-0.386-2.523-1.986-2.115-3.619c0.391-1.559,1.987-2.518,3.551-2.129c1.629,0.406,2.592,2,2.201,3.563     C446.496,300.754,444.898,301.714,443.268,301.304L443.268,301.304z"/>
</g></switch>
</svg>