<?xml version="1.0" encoding="utf-8"?>
<!DOCTYPE svg PUBLIC "-//W3C//DTD SVG 1.1//EN" "http://www.w3.org/Graphics/SVG/1.1/DTD/svg11.dtd">
<svg version="1.1" id="Armor" xmlns="http://www.w3.org/2000/svg" xmlns:xlink="http://www.w3.org/1999/xlink" x="0px" y="0px"
	 width="612px" height="792px" viewBox="0 0 612 792" enable-background="new 0 0 612 792" xml:space="preserve">
<switch><g>
<path fill="none" stroke="#000000" stroke-width="0.504" stroke-miterlimit="2.4142" d="M451.564,93.42      c-1.32,0-2.416-1.098-2.416-2.415c0-1.317,1.096-2.414,2.416-2.414c1.315,0,2.411,1.097,2.411,2.414      C453.976,92.322,452.881,93.42,451.564,93.42L451.564,93.42z"/>
<path fill="none" stroke="#000000" stroke-width="0.504" stroke-miterlimit="2.4142" d="M462.615,93.42      c-1.322,0-2.418-1.098-2.418-2.415c0-1.317,1.096-2.414,2.418-2.414c1.315,0,2.412,1.097,2.412,2.414      C465.027,92.322,463.932,93.42,462.615,93.42L462.615,93.42z"/>
<path fill="none" stroke="#000000" stroke-width="0.504" stroke-miterlimit="2.4142" d="M446.04,102.962      c-1.321,0-2.417-1.098-2.417-2.415c0-1.317,1.096-2.414,2.417-2.414c1.316,0,2.412,1.097,2.412,2.414      C448.452,101.864,447.356,102.962,446.04,102.962L446.04,102.962z"/>
<path fill="none" stroke="#000000" stroke-width="0.504" stroke-miterlimit="2.4142" d="M457.09,102.962      c-1.321,0-2.417-1.098-2.417-2.415c0-1.317,1.096-2.414,2.417-2.414c1.316,0,2.412,1.097,2.412,2.414      C459.502,101.864,458.406,102.962,457.09,102.962L457.09,102.962z"/>
<path fill="none" stroke="#000000" stroke-width="0.504" stroke-miterlimit="2.4142" d="M468.137,102.962      c-1.316,0-2.414-1.098-2.414-2.415c0-1.317,1.098-2.414,2.414-2.414s2.415,1.097,2.415,2.414      C470.552,101.864,469.453,102.962,468.137,102.962L468.137,102.962z"/>
<path fill="none" stroke="#000000" stroke-width="0.504" stroke-miterlimit="2.4142" d="M451.564,112.505      c-1.32,0-2.416-1.098-2.416-2.415c0-1.317,1.096-2.414,2.416-2.414c1.315,0,2.411,1.097,2.411,2.414      C453.976,111.407,452.881,112.505,451.564,112.505L451.564,112.505z"/>
<path fill="none" stroke="#000000" stroke-width="0.504" stroke-miterlimit="2.4142" d="M462.615,112.505      c-1.322,0-2.418-1.098-2.418-2.415c0-1.317,1.096-2.414,2.418-2.414c1.315,0,2.412,1.097,2.412,2.414      C465.027,111.407,463.932,112.505,462.615,112.505L462.615,112.505z"/>
<path fill="none" stroke="#000000" stroke-width="0.504" stroke-miterlimit="2.4142" d="M446.04,122.047      c-1.321,0-2.417-1.098-2.417-2.415c0-1.317,1.096-2.414,2.417-2.414c1.316,0,2.412,1.097,2.412,2.414      C448.452,120.949,447.356,122.047,446.04,122.047L446.04,122.047z"/>
<path fill="none" stroke="#000000" stroke-width="0.504" stroke-miterlimit="2.4142" d="M457.09,122.047      c-1.321,0-2.417-1.098-2.417-2.415c0-1.317,1.096-2.414,2.417-2.414c1.316,0,2.412,1.097,2.412,2.414      C459.502,120.949,458.406,122.047,457.09,122.047L457.09,122.047z"/>
<path fill="none" stroke="#000000" stroke-width="0.504" stroke-miterlimit="2.4142" d="M468.137,122.047      c-1.316,0-2.414-1.098-2.414-2.415c0-1.317,1.098-2.414,2.414-2.414s2.415,1.097,2.415,2.414      C470.552,120.949,469.453,122.047,468.137,122.047L468.137,122.047z"/>
<path fill="none" stroke="#000000" stroke-width="0.504" stroke-miterlimit="2.4142" d="M462.382,131.589     c-1.316,0-2.414-1.098-2.414-2.414c0-1.317,1.098-2.415,2.414-2.415s2.415,1.098,2.415,2.415     C464.797,130.491,463.698,131.589,462.382,131.589L462.382,131.589z"/>
<path fill="none" stroke="#000000" stroke-width="0.504" stroke-miterlimit="2.4142" d="M464.775,136.302     c-1.321,0-2.417,1.098-2.417,2.415c0,1.317,1.096,2.415,2.417,2.415c1.315,0,2.411-1.097,2.411-2.415     C467.188,137.4,466.092,136.302,464.775,136.302L464.775,136.302z"/>
<path fill="none" stroke="#000000" stroke-width="0.504" stroke-miterlimit="2.4142" d="M467.166,145.844     c-1.321,0-2.417,1.098-2.417,2.415c0,1.317,1.096,2.415,2.417,2.415c1.316,0,2.412-1.097,2.412-2.415     C469.578,146.942,468.482,145.844,467.166,145.844L467.166,145.844z"/>
<path fill="none" stroke="#000000" stroke-width="0.504" stroke-miterlimit="2.4142" d="M469.553,160.252     c-1.315,0-2.413-1.097-2.413-2.488c0-1.317,1.098-2.414,2.413-2.414c1.316,0,2.416,1.097,2.416,2.414     C471.969,159.156,470.869,160.252,469.553,160.252L469.553,160.252z"/>
<path fill="none" stroke="#000000" stroke-width="0.504" stroke-miterlimit="2.4142" d="M455.957,169.794      c-1.316,0-2.413-1.097-2.413-2.488c0-1.317,1.097-2.414,2.413-2.414s2.416,1.097,2.416,2.414      C458.373,168.697,457.273,169.794,455.957,169.794L455.957,169.794z"/>
<path fill="none" stroke="#000000" stroke-width="0.504" stroke-miterlimit="2.4142" d="M469.553,169.794      c-1.315,0-2.413-1.097-2.413-2.488c0-1.317,1.098-2.414,2.413-2.414c1.316,0,2.416,1.097,2.416,2.414      C471.969,168.698,470.869,169.794,469.553,169.794L469.553,169.794z"/>
</g></switch>
</svg>