<?xml version="1.0" encoding="utf-8"?>
<!DOCTYPE svg PUBLIC "-//W3C//DTD SVG 1.1//EN" "http://www.w3.org/Graphics/SVG/1.1/DTD/svg11.dtd">
<svg version="1.1" id="Armor" xmlns="http://www.w3.org/2000/svg" xmlns:xlink="http://www.w3.org/1999/xlink" x="0px" y="0px"
	 width="612px" height="792px" viewBox="0 0 612 792" enable-background="new 0 0 612 792" xml:space="preserve">
<switch><g>
<path fill-rule="evenodd" clip-rule="evenodd" fill="none" stroke="#000000" stroke-width="0.504" stroke-miterlimit="2.4142" d="     M521.188,191.259c1.562-0.395,2.521-1.989,2.114-3.623c-0.39-1.561-1.984-2.521-3.548-2.126c-1.631,0.402-2.593,2-2.201,3.562     C517.959,190.702,519.56,191.665,521.188,191.259L521.188,191.259z"/>
<path fill-rule="evenodd" clip-rule="evenodd" fill="none" stroke="#000000" stroke-width="0.504" stroke-miterlimit="2.4142" d="     M528.293,195.99c1.561-0.389,2.525-1.987,2.116-3.618c-0.387-1.562-1.989-2.521-3.552-2.132c-1.627,0.405-2.59,2.005-2.2,3.564     C525.066,195.438,526.665,196.396,528.293,195.99L528.293,195.99z"/>
<path fill-rule="evenodd" clip-rule="evenodd" fill="none" stroke="#000000" stroke-width="0.504" stroke-miterlimit="2.4142" d="     M516.877,198.626c1.561-0.389,2.526-1.987,2.117-3.619c-0.387-1.562-1.99-2.521-3.553-2.131     c-1.626,0.405-2.589,2.005-2.199,3.564C513.65,198.073,515.25,199.032,516.877,198.626L516.877,198.626z"/>
<path fill-rule="evenodd" clip-rule="evenodd" fill="none" stroke="#000000" stroke-width="0.504" stroke-miterlimit="2.4142" d="     M523.98,203.357c1.56-0.391,2.526-1.987,2.118-3.622c-0.392-1.561-1.989-2.52-3.553-2.13c-1.627,0.406-2.588,2.004-2.199,3.563     C520.757,202.805,522.354,203.763,523.98,203.357L523.98,203.357z"/>
<path fill-rule="evenodd" clip-rule="evenodd" fill="none" stroke="#000000" stroke-width="0.504" stroke-miterlimit="2.4142" d="     M531.091,208.086c1.563-0.388,2.517-1.984,2.11-3.619c-0.387-1.562-1.988-2.518-3.552-2.13c-1.625,0.409-2.585,2.005-2.195,3.564     C527.855,207.535,529.456,208.495,531.091,208.086L531.091,208.086z"/>
<path fill-rule="evenodd" clip-rule="evenodd" fill="none" stroke="#000000" stroke-width="0.504" stroke-miterlimit="2.4142" d="     M519.675,210.722c1.563-0.389,2.518-1.984,2.111-3.619c-0.388-1.563-1.988-2.518-3.552-2.131     c-1.626,0.409-2.585,2.005-2.195,3.564C516.44,210.171,518.041,211.131,519.675,210.722L519.675,210.722z"/>
<path fill-rule="evenodd" clip-rule="evenodd" fill="none" stroke="#000000" stroke-width="0.504" stroke-miterlimit="2.4142" d="     M526.775,215.454c1.564-0.392,2.521-1.985,2.113-3.623c-0.391-1.557-1.984-2.518-3.55-2.13c-1.623,0.408-2.587,2.004-2.201,3.564     C523.543,214.902,525.143,215.857,526.775,215.454L526.775,215.454z"/>
<path fill-rule="evenodd" clip-rule="evenodd" fill="none" stroke="#000000" stroke-width="0.504" stroke-miterlimit="2.4142" d="     M533.875,220.184c1.563-0.39,2.52-1.984,2.119-3.62c-0.393-1.562-1.987-2.518-3.548-2.131c-1.633,0.409-2.593,2.001-2.202,3.564     C530.649,219.631,532.246,220.591,533.875,220.184L533.875,220.184z"/>
<path fill-rule="evenodd" clip-rule="evenodd" fill="none" stroke="#000000" stroke-width="0.504" stroke-miterlimit="2.4142" d="     M522.462,222.819c1.563-0.391,2.52-1.985,2.119-3.621c-0.394-1.562-1.987-2.517-3.548-2.131c-1.633,0.41-2.594,2.001-2.202,3.565     C519.236,222.266,520.833,223.226,522.462,222.819L522.462,222.819z"/>
<path fill-rule="evenodd" clip-rule="evenodd" fill="none" stroke="#000000" stroke-width="0.504" stroke-miterlimit="2.4142" d="     M529.567,227.55c1.563-0.39,2.521-1.987,2.113-3.618c-0.394-1.563-1.985-2.521-3.549-2.132c-1.627,0.406-2.588,2.002-2.197,3.564     C526.338,226.995,527.936,227.956,529.567,227.55L529.567,227.55z"/>
<path fill-rule="evenodd" clip-rule="evenodd" fill="none" stroke="#000000" stroke-width="0.504" stroke-miterlimit="2.4142" d="     M536.677,232.277c1.558-0.385,2.519-1.982,2.11-3.615c-0.391-1.561-1.984-2.522-3.549-2.131c-1.629,0.404-2.591,2.004-2.2,3.565     C533.446,231.73,535.041,232.689,536.677,232.277L536.677,232.277z"/>
<path fill-rule="evenodd" clip-rule="evenodd" fill="none" stroke="#000000" stroke-width="0.504" stroke-miterlimit="2.4142" d="     M525.261,234.913c1.559-0.386,2.519-1.982,2.111-3.615c-0.391-1.561-1.984-2.522-3.549-2.131c-1.629,0.404-2.592,2.004-2.2,3.565     C522.03,234.366,523.626,235.325,525.261,234.913L525.261,234.913z"/>
<path fill-rule="evenodd" clip-rule="evenodd" fill="none" stroke="#000000" stroke-width="0.504" stroke-miterlimit="2.4142" d="     M532.364,239.644c1.563-0.386,2.52-1.982,2.108-3.613c-0.388-1.563-1.983-2.523-3.546-2.133c-1.63,0.404-2.59,2.006-2.197,3.566     C529.133,239.097,530.731,240.056,532.364,239.644L532.364,239.644z"/>
<path fill-rule="evenodd" clip-rule="evenodd" fill="none" stroke="#000000" stroke-width="0.504" stroke-miterlimit="2.4142" d="     M539.467,244.376c1.563-0.39,2.521-1.985,2.113-3.618c-0.394-1.563-1.985-2.522-3.548-2.131c-1.633,0.405-2.592,2.003-2.2,3.563     C536.236,243.824,537.833,244.784,539.467,244.376L539.467,244.376z"/>
<path fill-rule="evenodd" clip-rule="evenodd" fill="none" stroke="#000000" stroke-width="0.504" stroke-miterlimit="2.4142" d="     M528.051,247.012c1.564-0.39,2.522-1.986,2.113-3.618c-0.393-1.564-1.985-2.523-3.548-2.131c-1.632,0.404-2.591,2.002-2.2,3.563     C524.82,246.46,526.418,247.42,528.051,247.012L528.051,247.012z"/>
<path fill-rule="evenodd" clip-rule="evenodd" fill="none" stroke="#000000" stroke-width="0.504" stroke-miterlimit="2.4142" d="     M535.158,251.741c1.562-0.391,2.515-1.984,2.108-3.614c-0.389-1.563-1.984-2.526-3.547-2.133     c-1.633,0.404-2.59,2.002-2.201,3.562C531.922,251.192,533.523,252.15,535.158,251.741L535.158,251.741z"/>
<path fill-rule="evenodd" clip-rule="evenodd" fill="none" stroke="#000000" stroke-width="0.504" stroke-miterlimit="2.4142" d="     M542.262,256.472c1.562-0.387,2.52-1.983,2.111-3.616c-0.394-1.563-1.986-2.521-3.547-2.132     c-1.631,0.408-2.593,2.005-2.199,3.565C539.031,255.921,540.631,256.882,542.262,256.472L542.262,256.472z"/>
<path fill-rule="evenodd" clip-rule="evenodd" fill="none" stroke="#000000" stroke-width="0.504" stroke-miterlimit="2.4142" d="     M530.845,259.107c1.563-0.387,2.52-1.983,2.112-3.616c-0.394-1.563-1.986-2.521-3.548-2.132     c-1.631,0.407-2.592,2.005-2.199,3.565C527.615,258.557,529.215,259.518,530.845,259.107L530.845,259.107z"/>
<path fill-rule="evenodd" clip-rule="evenodd" fill="none" stroke="#000000" stroke-width="0.504" stroke-miterlimit="2.4142" d="     M537.95,263.839c1.563-0.389,2.515-1.983,2.108-3.617c-0.388-1.564-1.984-2.521-3.547-2.131     c-1.632,0.406-2.589,2.004-2.199,3.563C534.721,263.287,536.315,264.247,537.95,263.839L537.95,263.839z"/>
<path fill-rule="evenodd" clip-rule="evenodd" fill="none" stroke="#000000" stroke-width="0.504" stroke-miterlimit="2.4142" d="     M545.053,268.57c1.562-0.389,2.523-1.985,2.113-3.617c-0.39-1.565-1.986-2.52-3.55-2.133c-1.63,0.404-2.592,2.005-2.2,3.563     C541.819,268.017,543.42,268.978,545.053,268.57L545.053,268.57z"/>
<path fill-rule="evenodd" clip-rule="evenodd" fill="none" stroke="#000000" stroke-width="0.504" stroke-miterlimit="2.4142" d="     M533.638,271.205c1.562-0.388,2.523-1.985,2.114-3.616c-0.391-1.566-1.987-2.52-3.55-2.133c-1.631,0.403-2.593,2.004-2.201,3.563     C530.404,270.652,532.005,271.613,533.638,271.205L533.638,271.205z"/>
<path fill-rule="evenodd" clip-rule="evenodd" fill="none" stroke="#000000" stroke-width="0.504" stroke-miterlimit="2.4142" d="     M540.743,275.936c1.561-0.388,2.515-1.985,2.111-3.616c-0.391-1.564-1.989-2.522-3.548-2.132     c-1.634,0.405-2.595,2.005-2.203,3.563C537.512,275.385,539.107,276.345,540.743,275.936L540.743,275.936z"/>
<path fill-rule="evenodd" clip-rule="evenodd" fill="none" stroke="#000000" stroke-width="0.504" stroke-miterlimit="2.4142" d="     M547.844,280.666c1.563-0.387,2.521-1.984,2.114-3.618c-0.391-1.561-1.987-2.519-3.552-2.128     c-1.631,0.405-2.592,2.003-2.199,3.563C544.613,280.115,546.209,281.076,547.844,280.666L547.844,280.666z"/>
<path fill-rule="evenodd" clip-rule="evenodd" fill="none" stroke="#000000" stroke-width="0.504" stroke-miterlimit="2.4142" d="     M536.432,283.301c1.562-0.387,2.521-1.984,2.114-3.618c-0.391-1.56-1.987-2.519-3.553-2.128c-1.63,0.405-2.592,2.003-2.198,3.564     C533.201,282.75,534.797,283.711,536.432,283.301L536.432,283.301z"/>
<path fill-rule="evenodd" clip-rule="evenodd" fill="none" stroke="#000000" stroke-width="0.504" stroke-miterlimit="2.4142" d="     M543.532,288.034c1.563-0.389,2.524-1.984,2.113-3.619c-0.389-1.562-1.983-2.519-3.549-2.132     c-1.627,0.406-2.592,2.006-2.202,3.565C540.306,287.481,541.901,288.441,543.532,288.034L543.532,288.034z"/>
<path fill-rule="evenodd" clip-rule="evenodd" fill="none" stroke="#000000" stroke-width="0.504" stroke-miterlimit="2.4142" d="     M550.637,292.764c1.563-0.388,2.521-1.987,2.113-3.62c-0.39-1.561-1.985-2.518-3.549-2.129c-1.629,0.405-2.594,2-2.2,3.563     C547.407,292.213,549.004,293.173,550.637,292.764L550.637,292.764z"/>
<path fill-rule="evenodd" clip-rule="evenodd" fill="none" stroke="#000000" stroke-width="0.504" stroke-miterlimit="2.4142" d="     M539.223,295.398c1.563-0.388,2.522-1.987,2.114-3.62c-0.391-1.56-1.986-2.518-3.55-2.129c-1.628,0.405-2.593,2-2.199,3.563     C535.994,294.848,537.591,295.808,539.223,295.398L539.223,295.398z"/>
<path fill-rule="evenodd" clip-rule="evenodd" fill="none" stroke="#000000" stroke-width="0.504" stroke-miterlimit="2.4142" d="     M546.325,300.131c1.563-0.389,2.523-1.984,2.112-3.618c-0.388-1.563-1.982-2.52-3.549-2.132     c-1.627,0.405-2.592,2.006-2.202,3.564C543.099,299.578,544.694,300.538,546.325,300.131L546.325,300.131z"/>
</g></switch>
</svg>