<?xml version="1.0" encoding="utf-8"?>
<!DOCTYPE svg PUBLIC "-//W3C//DTD SVG 1.1//EN" "http://www.w3.org/Graphics/SVG/1.1/DTD/svg11.dtd">
<svg version="1.1" id="Armor" xmlns="http://www.w3.org/2000/svg" xmlns:xlink="http://www.w3.org/1999/xlink" x="0px" y="0px"
	 width="612px" height="792px" viewBox="0 0 612 792" enable-background="new 0 0 612 792" xml:space="preserve">
<switch><g>
<path fill-rule="evenodd" clip-rule="evenodd" fill="none" stroke="#000000" stroke-width="0.504" stroke-miterlimit="2.4142" d="     M462.186,190.504c-1.563-0.384-2.52-1.979-2.106-3.608c0.388-1.566,1.984-2.523,3.546-2.132c1.625,0.399,2.586,2.001,2.195,3.563     C465.418,189.962,463.822,190.918,462.186,190.504L462.186,190.504z"/>
<path fill-rule="evenodd" clip-rule="evenodd" fill="none" stroke="#000000" stroke-width="0.504" stroke-miterlimit="2.4142" d="     M453.687,201.287c-1.562-0.388-2.521-1.985-2.113-3.615c0.396-1.565,1.988-2.525,3.549-2.134c1.636,0.406,2.591,2.002,2.2,3.562     C456.922,200.739,455.322,201.695,453.687,201.287L453.687,201.287z"/>
<path fill-rule="evenodd" clip-rule="evenodd" fill="none" stroke="#000000" stroke-width="0.504" stroke-miterlimit="2.4142" d="     M465.104,203.924c-1.564-0.389-2.523-1.986-2.114-3.617c0.39-1.566,1.985-2.523,3.546-2.134c1.634,0.406,2.594,2.002,2.204,3.563     C468.338,203.375,466.738,204.331,465.104,203.924L465.104,203.924z"/>
<path fill-rule="evenodd" clip-rule="evenodd" fill="none" stroke="#000000" stroke-width="0.504" stroke-miterlimit="2.4142" d="     M456.595,214.701c-1.559-0.389-2.515-1.984-2.103-3.612c0.387-1.564,1.984-2.527,3.547-2.136     c1.628,0.407,2.588,2.004,2.202,3.561C459.835,214.155,458.234,215.109,456.595,214.701L456.595,214.701z"/>
<path fill-rule="evenodd" clip-rule="evenodd" fill="none" stroke="#000000" stroke-width="0.504" stroke-miterlimit="2.4142" d="     M448.099,225.481c-1.563-0.391-2.521-1.983-2.11-3.616c0.391-1.565,1.984-2.521,3.544-2.135c1.636,0.408,2.595,2.006,2.203,3.568     C451.329,224.929,449.728,225.893,448.099,225.481L448.099,225.481z"/>
<path fill-rule="evenodd" clip-rule="evenodd" fill="none" stroke="#000000" stroke-width="0.504" stroke-miterlimit="2.4142" d="     M459.519,228.116c-1.566-0.385-2.521-1.982-2.116-3.61c0.395-1.567,1.985-2.526,3.546-2.137c1.631,0.408,2.597,2.009,2.202,3.566     C462.748,227.566,461.146,228.531,459.519,228.116L459.519,228.116z"/>
<path fill-rule="evenodd" clip-rule="evenodd" fill="none" stroke="#000000" stroke-width="0.504" stroke-miterlimit="2.4142" d="     M451.016,238.896c-1.564-0.389-2.52-1.984-2.109-3.616c0.388-1.566,1.984-2.522,3.548-2.131c1.63,0.406,2.587,2.004,2.198,3.565     C454.244,238.345,452.651,239.307,451.016,238.896L451.016,238.896z"/>
<path fill-rule="evenodd" clip-rule="evenodd" fill="none" stroke="#000000" stroke-width="0.504" stroke-miterlimit="2.4142" d="     M442.517,249.677c-1.561-0.388-2.521-1.983-2.116-3.617c0.394-1.565,1.99-2.52,3.557-2.132c1.627,0.406,2.591,2.005,2.196,3.563     C445.752,249.123,444.152,250.084,442.517,249.677L442.517,249.677z"/>
<path fill-rule="evenodd" clip-rule="evenodd" fill="none" stroke="#000000" stroke-width="0.504" stroke-miterlimit="2.4142" d="     M453.931,252.312c-1.563-0.39-2.522-1.987-2.115-3.618c0.391-1.563,1.987-2.519,3.55-2.131c1.631,0.403,2.591,2.004,2.2,3.563     C457.166,251.759,455.563,252.72,453.931,252.312L453.931,252.312z"/>
<path fill-rule="evenodd" clip-rule="evenodd" fill="none" stroke="#000000" stroke-width="0.504" stroke-miterlimit="2.4142" d="     M445.429,263.09c-1.56-0.391-2.511-1.986-2.112-3.617c0.392-1.563,1.99-2.524,3.547-2.131c1.639,0.404,2.597,2.005,2.204,3.562     C448.658,262.538,447.064,263.5,445.429,263.09L445.429,263.09z"/>
<path fill-rule="evenodd" clip-rule="evenodd" fill="none" stroke="#000000" stroke-width="0.504" stroke-miterlimit="2.4142" d="     M436.931,273.869c-1.561-0.387-2.518-1.985-2.116-3.621c0.396-1.557,1.991-2.516,3.557-2.126c1.631,0.407,2.593,2.002,2.2,3.565     C440.162,273.318,438.564,274.279,436.931,273.869L436.931,273.869z"/>
<path fill-rule="evenodd" clip-rule="evenodd" fill="none" stroke="#000000" stroke-width="0.504" stroke-miterlimit="2.4142" d="     M448.344,276.506c-1.563-0.389-2.521-1.985-2.114-3.617c0.391-1.559,1.989-2.52,3.555-2.131c1.627,0.407,2.592,2.005,2.194,3.565     C451.576,275.954,449.979,276.916,448.344,276.506L448.344,276.506z"/>
<path fill-rule="evenodd" clip-rule="evenodd" fill="none" stroke="#000000" stroke-width="0.504" stroke-miterlimit="2.4142" d="     M439.846,287.286c-1.562-0.392-2.524-1.985-2.109-3.621c0.384-1.562,1.978-2.52,3.545-2.13c1.628,0.403,2.591,2.002,2.205,3.563     C443.073,286.73,441.476,287.692,439.846,287.286L439.846,287.286z"/>
<path fill-rule="evenodd" clip-rule="evenodd" fill="none" stroke="#000000" stroke-width="0.504" stroke-miterlimit="2.4142" d="     M431.343,298.063c-1.561-0.386-2.521-1.986-2.112-3.622c0.396-1.556,1.986-2.513,3.556-2.126     c1.622,0.404,2.591,1.998,2.192,3.563C434.574,297.516,432.977,298.474,431.343,298.063L431.343,298.063z"/>
<path fill-rule="evenodd" clip-rule="evenodd" fill="none" stroke="#000000" stroke-width="0.504" stroke-miterlimit="2.4142" d="     M442.761,300.699c-1.565-0.382-2.524-1.982-2.116-3.617c0.392-1.56,1.989-2.517,3.55-2.13c1.628,0.409,2.593,2.001,2.2,3.565     C445.987,300.148,444.387,301.11,442.761,300.699L442.761,300.699z"/>
</g></switch>
</svg>