<?xml version="1.0" encoding="utf-8"?>
<!DOCTYPE svg PUBLIC "-//W3C//DTD SVG 1.1//EN" "http://www.w3.org/Graphics/SVG/1.1/DTD/svg11.dtd">
<svg version="1.1" id="Armor" xmlns="http://www.w3.org/2000/svg" xmlns:xlink="http://www.w3.org/1999/xlink" x="0px" y="0px"
	 width="612px" height="792px" viewBox="0 0 612 792" enable-background="new 0 0 612 792" xml:space="preserve">
<switch><g>
<path fill-rule="evenodd" clip-rule="evenodd" fill="none" stroke="#000000" stroke-width="0.504" stroke-miterlimit="2.4142" d="     M525.373,190.073c1.559-0.393,2.521-1.985,2.111-3.62c-0.388-1.563-1.982-2.521-3.547-2.13c-1.631,0.405-2.59,2.002-2.2,3.563     C522.143,189.52,523.742,190.479,525.373,190.073L525.373,190.073z"/>
<path fill-rule="evenodd" clip-rule="evenodd" fill="none" stroke="#000000" stroke-width="0.504" stroke-miterlimit="2.4142" d="     M513.958,192.708c1.561-0.393,2.522-1.985,2.112-3.62c-0.389-1.563-1.984-2.522-3.547-2.13c-1.633,0.404-2.589,2.002-2.2,3.564     C510.729,192.154,512.329,193.115,513.958,192.708L513.958,192.708z"/>
<path fill-rule="evenodd" clip-rule="evenodd" fill="none" stroke="#000000" stroke-width="0.504" stroke-miterlimit="2.4142" d="     M520.924,196.835c1.558-0.392,2.521-1.986,2.107-3.619c-0.383-1.564-1.98-2.524-3.545-2.133c-1.63,0.405-2.591,2.004-2.197,3.565     C517.691,196.281,519.29,197.241,520.924,196.835L520.924,196.835z"/>
<path fill-rule="evenodd" clip-rule="evenodd" fill="none" stroke="#000000" stroke-width="0.504" stroke-miterlimit="2.4142" d="     M527.882,200.961c1.561-0.392,2.522-1.988,2.115-3.623c-0.39-1.561-1.985-2.517-3.548-2.128     c-1.633,0.404-2.592,2.003-2.201,3.563C524.654,200.406,526.254,201.363,527.882,200.961L527.882,200.961z"/>
<path fill-rule="evenodd" clip-rule="evenodd" fill="none" stroke="#000000" stroke-width="0.504" stroke-miterlimit="2.4142" d="     M516.469,203.596c1.561-0.393,2.521-1.988,2.115-3.623c-0.39-1.561-1.986-2.519-3.547-2.128     c-1.634,0.405-2.592,2.003-2.201,3.563C513.241,203.04,514.843,203.998,516.469,203.596L516.469,203.596z"/>
<path fill-rule="evenodd" clip-rule="evenodd" fill="none" stroke="#000000" stroke-width="0.504" stroke-miterlimit="2.4142" d="     M523.434,207.722c1.563-0.393,2.522-1.988,2.114-3.623c-0.388-1.561-1.984-2.519-3.548-2.127     c-1.632,0.404-2.592,2.001-2.199,3.563C520.207,207.166,521.807,208.126,523.434,207.722L523.434,207.722z"/>
<path fill-rule="evenodd" clip-rule="evenodd" fill="none" stroke="#000000" stroke-width="0.504" stroke-miterlimit="2.4142" d="     M530.394,211.85c1.562-0.39,2.525-1.987,2.118-3.62c-0.389-1.562-1.987-2.521-3.552-2.132c-1.63,0.405-2.588,2.006-2.2,3.563     C527.168,211.296,528.766,212.255,530.394,211.85L530.394,211.85z"/>
<path fill-rule="evenodd" clip-rule="evenodd" fill="none" stroke="#000000" stroke-width="0.504" stroke-miterlimit="2.4142" d="     M518.982,214.482c1.561-0.388,2.525-1.986,2.117-3.619c-0.388-1.561-1.988-2.521-3.551-2.131     c-1.629,0.406-2.59,2.005-2.201,3.564C515.757,213.931,517.354,214.889,518.982,214.482L518.982,214.482z"/>
<path fill-rule="evenodd" clip-rule="evenodd" fill="none" stroke="#000000" stroke-width="0.504" stroke-miterlimit="2.4142" d="     M525.945,218.609c1.561-0.388,2.526-1.987,2.117-3.62c-0.389-1.561-1.988-2.52-3.551-2.131c-1.628,0.406-2.588,2.004-2.199,3.563     C522.722,218.058,524.32,219.015,525.945,218.609L525.945,218.609z"/>
<path fill-rule="evenodd" clip-rule="evenodd" fill="none" stroke="#000000" stroke-width="0.504" stroke-miterlimit="2.4142" d="     M532.912,222.734c1.563-0.391,2.52-1.985,2.111-3.62c-0.389-1.561-1.988-2.521-3.549-2.13c-1.628,0.407-2.587,2.002-2.199,3.563     C529.68,222.183,531.276,223.141,532.912,222.734L532.912,222.734z"/>
<path fill-rule="evenodd" clip-rule="evenodd" fill="none" stroke="#000000" stroke-width="0.504" stroke-miterlimit="2.4142" d="     M521.499,225.368c1.565-0.39,2.518-1.984,2.113-3.619c-0.39-1.563-1.989-2.519-3.553-2.13c-1.626,0.407-2.585,2.003-2.196,3.563     C518.268,224.817,519.864,225.776,521.499,225.368L521.499,225.368z"/>
<path fill-rule="evenodd" clip-rule="evenodd" fill="none" stroke="#000000" stroke-width="0.504" stroke-miterlimit="2.4142" d="     M528.462,229.496c1.565-0.393,2.521-1.986,2.113-3.622c-0.39-1.559-1.985-2.52-3.55-2.13c-1.624,0.407-2.588,2.004-2.201,3.564     C525.23,228.944,526.829,229.9,528.462,229.496L528.462,229.496z"/>
<path fill-rule="evenodd" clip-rule="evenodd" fill="none" stroke="#000000" stroke-width="0.504" stroke-miterlimit="2.4142" d="     M535.422,233.623c1.561-0.39,2.52-1.987,2.117-3.618c-0.393-1.564-1.988-2.521-3.551-2.134c-1.631,0.407-2.592,2.002-2.199,3.566     C532.191,233.068,533.792,234.03,535.422,233.623L535.422,233.623z"/>
<path fill-rule="evenodd" clip-rule="evenodd" fill="none" stroke="#000000" stroke-width="0.504" stroke-miterlimit="2.4142" d="     M524.01,236.257c1.561-0.39,2.52-1.986,2.118-3.619c-0.394-1.563-1.989-2.52-3.55-2.133c-1.631,0.408-2.592,2.002-2.201,3.566     C520.781,235.703,522.379,236.665,524.01,236.257L524.01,236.257z"/>
<path fill-rule="evenodd" clip-rule="evenodd" fill="none" stroke="#000000" stroke-width="0.504" stroke-miterlimit="2.4142" d="     M530.973,240.383c1.563-0.392,2.522-1.987,2.115-3.619c-0.393-1.563-1.984-2.521-3.548-2.132c-1.63,0.406-2.59,2.002-2.2,3.564     C527.744,239.827,529.344,240.788,530.973,240.383L530.973,240.383z"/>
<path fill-rule="evenodd" clip-rule="evenodd" fill="none" stroke="#000000" stroke-width="0.504" stroke-miterlimit="2.4142" d="     M537.94,244.506c1.561-0.387,2.519-1.982,2.11-3.615c-0.39-1.561-1.986-2.521-3.547-2.132c-1.63,0.406-2.592,2.005-2.2,3.565     C534.711,243.958,536.308,244.917,537.94,244.506L537.94,244.506z"/>
<path fill-rule="evenodd" clip-rule="evenodd" fill="none" stroke="#000000" stroke-width="0.504" stroke-miterlimit="2.4142" d="     M526.527,247.141c1.561-0.388,2.52-1.984,2.111-3.617c-0.391-1.561-1.986-2.521-3.548-2.13c-1.63,0.404-2.593,2.003-2.2,3.564     C523.297,246.591,524.895,247.551,526.527,247.141L526.527,247.141z"/>
<path fill-rule="evenodd" clip-rule="evenodd" fill="none" stroke="#000000" stroke-width="0.504" stroke-miterlimit="2.4142" d="     M533.492,251.267c1.563-0.387,2.52-1.984,2.109-3.614c-0.39-1.562-1.984-2.522-3.547-2.132c-1.629,0.404-2.59,2.004-2.199,3.564     C530.262,250.719,531.859,251.679,533.492,251.267L533.492,251.267z"/>
<path fill-rule="evenodd" clip-rule="evenodd" fill="none" stroke="#000000" stroke-width="0.504" stroke-miterlimit="2.4142" d="     M540.451,255.396c1.563-0.391,2.521-1.987,2.113-3.617c-0.393-1.565-1.985-2.524-3.55-2.133     c-1.631,0.403-2.591,2.004-2.197,3.563C537.22,254.843,538.818,255.803,540.451,255.396L540.451,255.396z"/>
<path fill-rule="evenodd" clip-rule="evenodd" fill="none" stroke="#000000" stroke-width="0.504" stroke-miterlimit="2.4142" d="     M529.039,258.029c1.563-0.39,2.521-1.986,2.113-3.618c-0.394-1.563-1.986-2.522-3.549-2.131c-1.63,0.403-2.591,2.003-2.199,3.563     C525.81,257.478,527.406,258.438,529.039,258.029L529.039,258.029z"/>
<path fill-rule="evenodd" clip-rule="evenodd" fill="none" stroke="#000000" stroke-width="0.504" stroke-miterlimit="2.4142" d="     M536.004,262.155c1.563-0.391,2.518-1.986,2.112-3.617c-0.39-1.563-1.986-2.523-3.548-2.132     c-1.633,0.404-2.589,2.003-2.201,3.563C532.771,261.604,534.372,262.563,536.004,262.155L536.004,262.155z"/>
<path fill-rule="evenodd" clip-rule="evenodd" fill="none" stroke="#000000" stroke-width="0.504" stroke-miterlimit="2.4142" d="     M542.968,266.281c1.561-0.39,2.521-1.986,2.111-3.618c-0.392-1.563-1.987-2.521-3.55-2.13c-1.629,0.404-2.59,2.004-2.198,3.563     C539.736,265.729,541.334,266.688,542.968,266.281L542.968,266.281z"/>
<path fill-rule="evenodd" clip-rule="evenodd" fill="none" stroke="#000000" stroke-width="0.504" stroke-miterlimit="2.4142" d="     M531.554,268.915c1.562-0.389,2.521-1.984,2.112-3.617c-0.393-1.563-1.987-2.521-3.549-2.131     c-1.629,0.405-2.592,2.005-2.199,3.564C528.323,268.363,529.922,269.324,531.554,268.915L531.554,268.915z"/>
<path fill-rule="evenodd" clip-rule="evenodd" fill="none" stroke="#000000" stroke-width="0.504" stroke-miterlimit="2.4142" d="     M538.519,273.042c1.563-0.389,2.517-1.983,2.11-3.616c-0.39-1.563-1.985-2.522-3.547-2.132c-1.632,0.405-2.59,2.005-2.2,3.564     C535.289,272.491,536.886,273.451,538.519,273.042L538.519,273.042z"/>
<path fill-rule="evenodd" clip-rule="evenodd" fill="none" stroke="#000000" stroke-width="0.504" stroke-miterlimit="2.4142" d="     M545.48,277.169c1.563-0.389,2.521-1.984,2.111-3.616c-0.391-1.565-1.985-2.522-3.548-2.133c-1.632,0.404-2.593,2.005-2.2,3.563     C542.251,276.616,543.848,277.576,545.48,277.169L545.48,277.169z"/>
<path fill-rule="evenodd" clip-rule="evenodd" fill="none" stroke="#000000" stroke-width="0.504" stroke-miterlimit="2.4142" d="     M534.067,279.804c1.563-0.389,2.521-1.985,2.114-3.616c-0.392-1.565-1.988-2.521-3.55-2.134     c-1.631,0.405-2.592,2.006-2.201,3.564C530.836,279.251,532.436,280.212,534.067,279.804L534.067,279.804z"/>
<path fill-rule="evenodd" clip-rule="evenodd" fill="none" stroke="#000000" stroke-width="0.504" stroke-miterlimit="2.4142" d="     M541.032,283.929c1.561-0.387,2.518-1.984,2.11-3.616c-0.389-1.563-1.986-2.521-3.548-2.133     c-1.632,0.406-2.592,2.005-2.202,3.565C537.801,283.378,539.396,284.339,541.032,283.929L541.032,283.929z"/>
<path fill-rule="evenodd" clip-rule="evenodd" fill="none" stroke="#000000" stroke-width="0.504" stroke-miterlimit="2.4142" d="     M547.992,288.055c1.562-0.387,2.521-1.985,2.113-3.616c-0.391-1.562-1.985-2.52-3.551-2.132     c-1.627,0.406-2.592,2.007-2.199,3.564C544.762,287.503,546.36,288.466,547.992,288.055L547.992,288.055z"/>
<path fill-rule="evenodd" clip-rule="evenodd" fill="none" stroke="#000000" stroke-width="0.504" stroke-miterlimit="2.4142" d="     M536.58,290.689c1.563-0.388,2.521-1.985,2.114-3.617c-0.391-1.563-1.987-2.521-3.551-2.131c-1.63,0.405-2.593,2.005-2.199,3.563     C533.351,290.138,534.948,291.099,536.58,290.689L536.58,290.689z"/>
<path fill-rule="evenodd" clip-rule="evenodd" fill="none" stroke="#000000" stroke-width="0.504" stroke-miterlimit="2.4142" d="     M543.543,294.816c1.563-0.39,2.523-1.984,2.113-3.617c-0.391-1.563-1.984-2.521-3.548-2.132c-1.63,0.404-2.592,2.005-2.204,3.564     C540.317,294.263,541.912,295.224,543.543,294.816L543.543,294.816z"/>
<path fill-rule="evenodd" clip-rule="evenodd" fill="none" stroke="#000000" stroke-width="0.504" stroke-miterlimit="2.4142" d="     M550.507,298.941c1.563-0.388,2.521-1.985,2.114-3.618c-0.393-1.56-1.989-2.517-3.553-2.128     c-1.626,0.402-2.591,2.002-2.197,3.563C547.277,298.392,548.874,299.351,550.507,298.941L550.507,298.941z"/>
<path fill-rule="evenodd" clip-rule="evenodd" fill="none" stroke="#000000" stroke-width="0.504" stroke-miterlimit="2.4142" d="     M539.094,301.576c1.562-0.388,2.521-1.985,2.112-3.618c-0.389-1.561-1.986-2.518-3.549-2.129     c-1.628,0.405-2.593,2.001-2.199,3.563C535.865,301.026,537.462,301.986,539.094,301.576L539.094,301.576z"/>
</g></switch>
</svg>