<?xml version="1.0" encoding="utf-8"?>
<!DOCTYPE svg PUBLIC "-//W3C//DTD SVG 1.1//EN" "http://www.w3.org/Graphics/SVG/1.1/DTD/svg11.dtd">
<svg version="1.1" id="Armor" xmlns="http://www.w3.org/2000/svg" xmlns:xlink="http://www.w3.org/1999/xlink" x="0px" y="0px"
	 width="612px" height="792px" viewBox="0 0 612 792" enable-background="new 0 0 612 792" xml:space="preserve">
<switch><g>
<path fill="none" stroke="#000000" stroke-width="0.504" stroke-miterlimit="2.4142" d="M459.792,327.606     c-1.065,0-1.998-0.864-1.998-1.994c0-1.131,0.933-2.062,1.998-2.062c1.13,0,2.06,0.931,2.06,2.062     C461.852,326.742,460.922,327.606,459.792,327.606L459.792,327.606z"/>
<path fill="none" stroke="#000000" stroke-width="0.504" stroke-miterlimit="2.4142" d="M459.791,349.158     c-1.132,0-1.997-0.932-1.997-1.997c0-1.128,0.865-2.061,1.997-2.061c1.131,0,2.061,0.932,2.061,2.061     C461.852,348.226,460.922,349.158,459.791,349.158L459.791,349.158z"/>
</g></switch>
</svg>