<?xml version="1.0" encoding="utf-8"?>
<!DOCTYPE svg PUBLIC "-//W3C//DTD SVG 1.1//EN" "http://www.w3.org/Graphics/SVG/1.1/DTD/svg11.dtd">
<svg version="1.1" id="Armor" xmlns="http://www.w3.org/2000/svg" xmlns:xlink="http://www.w3.org/1999/xlink" x="0px" y="0px"
	 width="612px" height="792px" viewBox="0 0 612 792" enable-background="new 0 0 612 792" xml:space="preserve">
<switch><g>
<path fill-rule="evenodd" clip-rule="evenodd" fill="none" stroke="#000000" stroke-width="0.504" stroke-miterlimit="2.4142" d="     M520.35,191.117c1.558-0.39,2.524-1.988,2.117-3.623c-0.394-1.559-1.989-2.52-3.555-2.127c-1.624,0.403-2.586,2.002-2.198,3.563     C517.124,190.564,518.722,191.521,520.35,191.117L520.35,191.117z"/>
<path fill-rule="evenodd" clip-rule="evenodd" fill="none" stroke="#000000" stroke-width="0.504" stroke-miterlimit="2.4142" d="     M527.737,197.056c1.563-0.389,2.516-1.983,2.111-3.618c-0.389-1.563-1.989-2.518-3.553-2.131     c-1.625,0.409-2.586,2.006-2.195,3.564C524.503,196.506,526.103,197.466,527.737,197.056L527.737,197.056z"/>
<path fill-rule="evenodd" clip-rule="evenodd" fill="none" stroke="#000000" stroke-width="0.504" stroke-miterlimit="2.4142" d="     M516.322,199.691c1.563-0.389,2.517-1.983,2.112-3.618c-0.39-1.563-1.99-2.518-3.553-2.131c-1.625,0.409-2.586,2.005-2.196,3.563     C513.087,199.141,514.688,200.101,516.322,199.691L516.322,199.691z"/>
<path fill-rule="evenodd" clip-rule="evenodd" fill="none" stroke="#000000" stroke-width="0.504" stroke-miterlimit="2.4142" d="     M523.703,205.634c1.564-0.393,2.521-1.984,2.111-3.621c-0.391-1.558-1.984-2.518-3.55-2.132c-1.623,0.41-2.586,2.005-2.2,3.565     C520.469,205.083,522.067,206.037,523.703,205.634L523.703,205.634z"/>
<path fill-rule="evenodd" clip-rule="evenodd" fill="none" stroke="#000000" stroke-width="0.504" stroke-miterlimit="2.4142" d="     M531.081,211.574c1.563-0.391,2.52-1.985,2.118-3.62c-0.392-1.563-1.986-2.519-3.549-2.132c-1.629,0.409-2.592,2.001-2.2,3.566     C527.854,211.021,529.453,211.98,531.081,211.574L531.081,211.574z"/>
<path fill-rule="evenodd" clip-rule="evenodd" fill="none" stroke="#000000" stroke-width="0.504" stroke-miterlimit="2.4142" d="     M519.668,214.209c1.563-0.39,2.52-1.984,2.118-3.62c-0.392-1.562-1.986-2.518-3.548-2.132c-1.632,0.41-2.592,2.002-2.202,3.566     C516.44,213.656,518.038,214.617,519.668,214.209L519.668,214.209z"/>
<path fill-rule="evenodd" clip-rule="evenodd" fill="none" stroke="#000000" stroke-width="0.504" stroke-miterlimit="2.4142" d="     M527.054,220.148c1.563-0.39,2.519-1.986,2.112-3.617c-0.394-1.563-1.983-2.521-3.548-2.133c-1.627,0.406-2.588,2.002-2.2,3.564     C523.822,219.595,525.421,220.555,527.054,220.148L527.054,220.148z"/>
<path fill-rule="evenodd" clip-rule="evenodd" fill="none" stroke="#000000" stroke-width="0.504" stroke-miterlimit="2.4142" d="     M534.438,226.086c1.56-0.386,2.519-1.982,2.112-3.616c-0.392-1.56-1.984-2.522-3.548-2.129c-1.631,0.403-2.593,2.004-2.203,3.564     C531.207,225.54,532.805,226.499,534.438,226.086L534.438,226.086z"/>
<path fill-rule="evenodd" clip-rule="evenodd" fill="none" stroke="#000000" stroke-width="0.504" stroke-miterlimit="2.4142" d="     M523.025,228.722c1.56-0.386,2.517-1.982,2.11-3.615c-0.39-1.561-1.982-2.523-3.548-2.131c-1.631,0.404-2.593,2.005-2.201,3.565     C519.794,228.175,521.39,229.135,523.025,228.722L523.025,228.722z"/>
<path fill-rule="evenodd" clip-rule="evenodd" fill="none" stroke="#000000" stroke-width="0.504" stroke-miterlimit="2.4142" d="     M530.407,234.661c1.564-0.385,2.52-1.981,2.109-3.611c-0.389-1.563-1.982-2.524-3.547-2.132c-1.629,0.402-2.59,2.003-2.196,3.564     C527.177,234.116,528.774,235.074,530.407,234.661L530.407,234.661z"/>
<path fill-rule="evenodd" clip-rule="evenodd" fill="none" stroke="#000000" stroke-width="0.504" stroke-miterlimit="2.4142" d="     M537.79,240.604c1.563-0.39,2.521-1.986,2.112-3.617c-0.393-1.565-1.986-2.524-3.547-2.133c-1.635,0.405-2.593,2.003-2.2,3.563     C534.557,240.054,536.155,241.013,537.79,240.604L537.79,240.604z"/>
<path fill-rule="evenodd" clip-rule="evenodd" fill="none" stroke="#000000" stroke-width="0.504" stroke-miterlimit="2.4142" d="     M526.374,243.24c1.564-0.391,2.522-1.986,2.115-3.616c-0.393-1.566-1.986-2.525-3.549-2.134c-1.633,0.405-2.592,2.003-2.2,3.563     C523.143,242.69,524.741,243.648,526.374,243.24L526.374,243.24z"/>
<path fill-rule="evenodd" clip-rule="evenodd" fill="none" stroke="#000000" stroke-width="0.504" stroke-miterlimit="2.4142" d="     M533.762,249.18c1.562-0.391,2.514-1.984,2.107-3.614c-0.39-1.563-1.985-2.525-3.548-2.135c-1.631,0.407-2.59,2.003-2.2,3.563     C530.524,248.632,532.126,249.588,533.762,249.18L533.762,249.18z"/>
<path fill-rule="evenodd" clip-rule="evenodd" fill="none" stroke="#000000" stroke-width="0.504" stroke-miterlimit="2.4142" d="     M541.144,255.119c1.563-0.388,2.521-1.982,2.11-3.614c-0.39-1.565-1.984-2.521-3.546-2.134c-1.63,0.407-2.592,2.005-2.199,3.567     C537.914,254.568,539.515,255.53,541.144,255.119L541.144,255.119z"/>
<path fill-rule="evenodd" clip-rule="evenodd" fill="none" stroke="#000000" stroke-width="0.504" stroke-miterlimit="2.4142" d="     M529.726,257.755c1.563-0.386,2.521-1.983,2.111-3.613c-0.391-1.565-1.984-2.522-3.545-2.134     c-1.631,0.406-2.594,2.005-2.201,3.566C526.497,257.204,528.097,258.167,529.726,257.755L529.726,257.755z"/>
<path fill-rule="evenodd" clip-rule="evenodd" fill="none" stroke="#000000" stroke-width="0.504" stroke-miterlimit="2.4142" d="     M537.109,263.696c1.566-0.389,2.517-1.982,2.112-3.617c-0.393-1.564-1.986-2.521-3.549-2.132     c-1.633,0.408-2.589,2.005-2.199,3.566C533.882,263.145,535.476,264.105,537.109,263.696L537.109,263.696z"/>
<path fill-rule="evenodd" clip-rule="evenodd" fill="none" stroke="#000000" stroke-width="0.504" stroke-miterlimit="2.4142" d="     M544.489,269.638c1.563-0.39,2.524-1.986,2.115-3.618c-0.393-1.565-1.988-2.519-3.551-2.132     c-1.629,0.404-2.592,2.005-2.201,3.563C541.257,269.084,542.856,270.044,544.489,269.638L544.489,269.638z"/>
<path fill-rule="evenodd" clip-rule="evenodd" fill="none" stroke="#000000" stroke-width="0.504" stroke-miterlimit="2.4142" d="     M533.078,272.271c1.562-0.389,2.522-1.986,2.114-3.617c-0.392-1.564-1.988-2.519-3.55-2.132c-1.63,0.404-2.592,2.006-2.202,3.563     C529.846,271.719,531.444,272.68,533.078,272.271L533.078,272.271z"/>
<path fill-rule="evenodd" clip-rule="evenodd" fill="none" stroke="#000000" stroke-width="0.504" stroke-miterlimit="2.4142" d="     M540.462,278.211c1.56-0.388,2.514-1.985,2.112-3.616c-0.392-1.564-1.989-2.522-3.548-2.132     c-1.637,0.406-2.595,2.006-2.203,3.563C537.23,277.661,538.827,278.621,540.462,278.211L540.462,278.211z"/>
<path fill-rule="evenodd" clip-rule="evenodd" fill="none" stroke="#000000" stroke-width="0.504" stroke-miterlimit="2.4142" d="     M547.841,284.153c1.563-0.389,2.522-1.985,2.115-3.621c-0.391-1.558-1.988-2.517-3.552-2.127c-1.631,0.406-2.593,2.003-2.2,3.565     C544.612,283.602,546.208,284.563,547.841,284.153L547.841,284.153z"/>
<path fill-rule="evenodd" clip-rule="evenodd" fill="none" stroke="#000000" stroke-width="0.504" stroke-miterlimit="2.4142" d="     M536.431,286.787c1.563-0.387,2.521-1.984,2.113-3.619c-0.391-1.558-1.988-2.517-3.552-2.128     c-1.63,0.406-2.593,2.003-2.199,3.565C533.2,286.237,534.795,287.197,536.431,286.787L536.431,286.787z"/>
<path fill-rule="evenodd" clip-rule="evenodd" fill="none" stroke="#000000" stroke-width="0.504" stroke-miterlimit="2.4142" d="     M543.81,292.73c1.563-0.39,2.526-1.986,2.113-3.621c-0.387-1.561-1.982-2.518-3.55-2.132c-1.627,0.407-2.591,2.006-2.202,3.565     C540.584,292.177,542.181,293.136,543.81,292.73L543.81,292.73z"/>
<path fill-rule="evenodd" clip-rule="evenodd" fill="none" stroke="#000000" stroke-width="0.504" stroke-miterlimit="2.4142" d="     M551.194,298.669c1.563-0.386,2.521-1.986,2.112-3.62c-0.39-1.559-1.985-2.517-3.551-2.128c-1.626,0.405-2.591,1.999-2.198,3.563     C547.964,298.119,549.562,299.078,551.194,298.669L551.194,298.669z"/>
<path fill-rule="evenodd" clip-rule="evenodd" fill="none" stroke="#000000" stroke-width="0.504" stroke-miterlimit="2.4142" d="     M539.78,301.304c1.563-0.386,2.523-1.986,2.115-3.619c-0.391-1.559-1.987-2.518-3.551-2.129c-1.629,0.406-2.592,2-2.201,3.563     C536.552,300.754,538.149,301.714,539.78,301.304L539.78,301.304z"/>
</g></switch>
</svg>