<?xml version="1.0" encoding="utf-8"?>
<!DOCTYPE svg PUBLIC "-//W3C//DTD SVG 1.1//EN" "http://www.w3.org/Graphics/SVG/1.1/DTD/svg11.dtd">
<svg version="1.1" id="Armor" xmlns="http://www.w3.org/2000/svg" xmlns:xlink="http://www.w3.org/1999/xlink" x="0px" y="0px"
	 width="612px" height="792px" viewBox="0 0 612 792" enable-background="new 0 0 612 792" xml:space="preserve">
<switch><g>
<path fill-rule="evenodd" clip-rule="evenodd" fill="none" stroke="#000000" stroke-width="0.504" stroke-miterlimit="2.4142" d="     M520.189,190.748c1.562-0.389,2.521-1.985,2.11-3.616c-0.391-1.565-1.98-2.521-3.547-2.133c-1.626,0.406-2.586,2.002-2.201,3.564     C516.958,190.194,518.556,191.155,520.189,190.748L520.189,190.748z"/>
<path fill-rule="evenodd" clip-rule="evenodd" fill="none" stroke="#000000" stroke-width="0.504" stroke-miterlimit="2.4142" d="     M527.991,198.5c1.561-0.384,2.52-1.982,2.114-3.616c-0.394-1.558-1.985-2.521-3.548-2.128c-1.634,0.402-2.593,2.004-2.204,3.565     C524.762,197.955,526.36,198.915,527.991,198.5L527.991,198.5z"/>
<path fill-rule="evenodd" clip-rule="evenodd" fill="none" stroke="#000000" stroke-width="0.504" stroke-miterlimit="2.4142" d="     M516.579,201.137c1.56-0.387,2.518-1.982,2.111-3.615c-0.39-1.561-1.983-2.524-3.549-2.131c-1.63,0.403-2.595,2.004-2.199,3.566     C513.349,200.59,514.943,201.549,516.579,201.137L516.579,201.137z"/>
<path fill-rule="evenodd" clip-rule="evenodd" fill="none" stroke="#000000" stroke-width="0.504" stroke-miterlimit="2.4142" d="     M524.381,208.889c1.562-0.384,2.521-1.979,2.107-3.609c-0.388-1.564-1.983-2.523-3.546-2.132     c-1.627,0.401-2.588,2.003-2.195,3.564C521.15,208.345,522.746,209.303,524.381,208.889L524.381,208.889z"/>
<path fill-rule="evenodd" clip-rule="evenodd" fill="none" stroke="#000000" stroke-width="0.504" stroke-miterlimit="2.4142" d="     M532.182,216.647c1.563-0.388,2.522-1.985,2.114-3.616c-0.395-1.564-1.988-2.523-3.549-2.133     c-1.634,0.406-2.592,2.003-2.199,3.563C528.947,216.099,530.547,217.057,532.182,216.647L532.182,216.647z"/>
<path fill-rule="evenodd" clip-rule="evenodd" fill="none" stroke="#000000" stroke-width="0.504" stroke-miterlimit="2.4142" d="     M520.765,219.284c1.566-0.391,2.524-1.987,2.116-3.617c-0.392-1.565-1.986-2.524-3.548-2.135     c-1.633,0.407-2.593,2.003-2.202,3.563C517.532,218.734,519.133,219.69,520.765,219.284L520.765,219.284z"/>
<path fill-rule="evenodd" clip-rule="evenodd" fill="none" stroke="#000000" stroke-width="0.504" stroke-miterlimit="2.4142" d="     M528.573,227.037c1.561-0.391,2.516-1.985,2.105-3.614c-0.387-1.564-1.984-2.526-3.547-2.135     c-1.63,0.406-2.588,2.003-2.201,3.562C525.335,226.49,526.937,227.445,528.573,227.037L528.573,227.037z"/>
<path fill-rule="evenodd" clip-rule="evenodd" fill="none" stroke="#000000" stroke-width="0.504" stroke-miterlimit="2.4142" d="     M536.372,234.793c1.564-0.391,2.522-1.985,2.112-3.616c-0.392-1.565-1.985-2.521-3.546-2.135     c-1.632,0.407-2.594,2.006-2.201,3.567C533.143,234.24,534.745,235.204,536.372,234.793L536.372,234.793z"/>
<path fill-rule="evenodd" clip-rule="evenodd" fill="none" stroke="#000000" stroke-width="0.504" stroke-miterlimit="2.4142" d="     M524.954,237.427c1.564-0.385,2.521-1.983,2.114-3.611c-0.392-1.567-1.985-2.525-3.546-2.137c-1.631,0.408-2.596,2.009-2.2,3.566     C521.726,236.875,523.326,237.841,524.954,237.427L524.954,237.427z"/>
<path fill-rule="evenodd" clip-rule="evenodd" fill="none" stroke="#000000" stroke-width="0.504" stroke-miterlimit="2.4142" d="     M532.758,245.183c1.565-0.39,2.519-1.985,2.112-3.617c-0.391-1.566-1.986-2.523-3.55-2.132c-1.63,0.407-2.588,2.005-2.198,3.566     C529.53,244.63,531.122,245.592,532.758,245.183L532.758,245.183z"/>
<path fill-rule="evenodd" clip-rule="evenodd" fill="none" stroke="#000000" stroke-width="0.504" stroke-miterlimit="2.4142" d="     M540.558,252.938c1.562-0.388,2.523-1.985,2.115-3.618c-0.392-1.565-1.987-2.519-3.552-2.131c-1.628,0.404-2.593,2.005-2.2,3.562     C537.323,252.384,538.925,253.345,540.558,252.938L540.558,252.938z"/>
<path fill-rule="evenodd" clip-rule="evenodd" fill="none" stroke="#000000" stroke-width="0.504" stroke-miterlimit="2.4142" d="     M529.145,255.572c1.563-0.389,2.524-1.986,2.116-3.617c-0.392-1.564-1.988-2.519-3.55-2.132     c-1.632,0.404-2.592,2.005-2.202,3.563C525.912,255.02,527.513,255.98,529.145,255.572L529.145,255.572z"/>
<path fill-rule="evenodd" clip-rule="evenodd" fill="none" stroke="#000000" stroke-width="0.504" stroke-miterlimit="2.4142" d="     M536.948,263.325c1.559-0.389,2.514-1.985,2.113-3.616c-0.392-1.564-1.99-2.524-3.547-2.131     c-1.639,0.404-2.597,2.004-2.205,3.562C533.719,262.776,535.313,263.736,536.948,263.325L536.948,263.325z"/>
<path fill-rule="evenodd" clip-rule="evenodd" fill="none" stroke="#000000" stroke-width="0.504" stroke-miterlimit="2.4142" d="     M544.747,271.082c1.563-0.389,2.519-1.984,2.116-3.621c-0.394-1.558-1.99-2.517-3.554-2.126     c-1.633,0.405-2.594,2.002-2.202,3.564C541.519,270.53,543.114,271.491,544.747,271.082L544.747,271.082z"/>
<path fill-rule="evenodd" clip-rule="evenodd" fill="none" stroke="#000000" stroke-width="0.504" stroke-miterlimit="2.4142" d="     M533.335,273.717c1.563-0.388,2.522-1.984,2.115-3.619c-0.391-1.558-1.988-2.518-3.554-2.128     c-1.63,0.406-2.593,2.003-2.197,3.564C530.105,273.167,531.699,274.127,533.335,273.717L533.335,273.717z"/>
<path fill-rule="evenodd" clip-rule="evenodd" fill="none" stroke="#000000" stroke-width="0.504" stroke-miterlimit="2.4142" d="     M541.136,281.475c1.561-0.392,2.523-1.986,2.109-3.622c-0.384-1.561-1.979-2.519-3.547-2.131     c-1.627,0.405-2.591,2.003-2.203,3.564C537.908,280.919,539.505,281.879,541.136,281.475L541.136,281.475z"/>
<path fill-rule="evenodd" clip-rule="evenodd" fill="none" stroke="#000000" stroke-width="0.504" stroke-miterlimit="2.4142" d="     M548.938,289.227c1.562-0.386,2.521-1.985,2.113-3.62c-0.394-1.558-1.987-2.515-3.554-2.128c-1.624,0.404-2.59,1.998-2.196,3.563     C545.708,288.677,547.306,289.636,548.938,289.227L548.938,289.227z"/>
<path fill-rule="evenodd" clip-rule="evenodd" fill="none" stroke="#000000" stroke-width="0.504" stroke-miterlimit="2.4142" d="     M537.522,291.862c1.564-0.386,2.523-1.985,2.115-3.619c-0.39-1.559-1.988-2.518-3.549-2.13c-1.629,0.408-2.593,2.001-2.201,3.565     C534.294,291.312,535.894,292.272,537.522,291.862L537.522,291.862z"/>
<path fill-rule="evenodd" clip-rule="evenodd" fill="none" stroke="#000000" stroke-width="0.504" stroke-miterlimit="2.4142" d="     M545.324,299.619c1.562-0.391,2.524-1.986,2.109-3.621c-0.384-1.562-1.979-2.519-3.547-2.132     c-1.627,0.406-2.59,2.004-2.203,3.564C542.097,299.063,543.694,300.023,545.324,299.619L545.324,299.619z"/>
</g></switch>
</svg>