<?xml version="1.0" encoding="utf-8"?>
<!DOCTYPE svg PUBLIC "-//W3C//DTD SVG 1.1//EN" "http://www.w3.org/Graphics/SVG/1.1/DTD/svg11.dtd">
<svg version="1.1" id="Armor" xmlns="http://www.w3.org/2000/svg" xmlns:xlink="http://www.w3.org/1999/xlink" x="0px" y="0px"
	 width="612px" height="792px" viewBox="0 0 612 792" enable-background="new 0 0 612 792" xml:space="preserve">
<switch><g>
<path fill="none" stroke="#000000" stroke-width="0.504" stroke-miterlimit="2.4142" d="M446.04,93.42      c-1.321,0-2.417-1.098-2.417-2.415c0-1.317,1.096-2.414,2.417-2.414c1.316,0,2.412,1.097,2.412,2.414      C448.452,92.322,447.356,93.42,446.04,93.42L446.04,93.42z"/>
<path fill="none" stroke="#000000" stroke-width="0.504" stroke-miterlimit="2.4142" d="M457.09,93.42      c-1.321,0-2.417-1.098-2.417-2.415c0-1.317,1.096-2.414,2.417-2.414c1.316,0,2.412,1.097,2.412,2.414      C459.502,92.322,458.406,93.42,457.09,93.42L457.09,93.42z"/>
<path fill="none" stroke="#000000" stroke-width="0.504" stroke-miterlimit="2.4142" d="M468.137,93.42      c-1.316,0-2.414-1.098-2.414-2.415c0-1.317,1.098-2.414,2.414-2.414s2.415,1.097,2.415,2.414      C470.552,92.322,469.453,93.42,468.137,93.42L468.137,93.42z"/>
<path fill="none" stroke="#000000" stroke-width="0.504" stroke-miterlimit="2.4142" d="M451.564,100.577      c-1.32,0-2.416-1.098-2.416-2.415c0-1.317,1.096-2.414,2.416-2.414c1.315,0,2.411,1.097,2.411,2.414      C453.976,99.479,452.881,100.577,451.564,100.577L451.564,100.577z"/>
<path fill="none" stroke="#000000" stroke-width="0.504" stroke-miterlimit="2.4142" d="M462.615,100.577      c-1.322,0-2.418-1.098-2.418-2.415c0-1.317,1.096-2.414,2.418-2.414c1.315,0,2.412,1.097,2.412,2.414      C465.027,99.479,463.932,100.577,462.615,100.577L462.615,100.577z"/>
<path fill="none" stroke="#000000" stroke-width="0.504" stroke-miterlimit="2.4142" d="M446.04,107.733      c-1.321,0-2.417-1.098-2.417-2.415s1.096-2.414,2.417-2.414c1.316,0,2.412,1.097,2.412,2.414S447.356,107.733,446.04,107.733      L446.04,107.733z"/>
<path fill="none" stroke="#000000" stroke-width="0.504" stroke-miterlimit="2.4142" d="M457.09,107.733      c-1.321,0-2.417-1.098-2.417-2.415s1.096-2.414,2.417-2.414c1.316,0,2.412,1.097,2.412,2.414S458.406,107.733,457.09,107.733      L457.09,107.733z"/>
<path fill="none" stroke="#000000" stroke-width="0.504" stroke-miterlimit="2.4142" d="M468.137,107.733      c-1.316,0-2.414-1.098-2.414-2.415s1.098-2.414,2.414-2.414s2.415,1.097,2.415,2.414S469.453,107.733,468.137,107.733      L468.137,107.733z"/>
<path fill="none" stroke="#000000" stroke-width="0.504" stroke-miterlimit="2.4142" d="M451.564,114.89      c-1.32,0-2.416-1.098-2.416-2.415s1.096-2.414,2.416-2.414c1.315,0,2.411,1.097,2.411,2.414S452.881,114.89,451.564,114.89      L451.564,114.89z"/>
<path fill="none" stroke="#000000" stroke-width="0.504" stroke-miterlimit="2.4142" d="M462.615,114.89      c-1.322,0-2.418-1.098-2.418-2.415s1.096-2.414,2.418-2.414c1.315,0,2.412,1.097,2.412,2.414S463.932,114.89,462.615,114.89      L462.615,114.89z"/>
<path fill="none" stroke="#000000" stroke-width="0.504" stroke-miterlimit="2.4142" d="M446.04,122.047      c-1.321,0-2.417-1.098-2.417-2.415c0-1.317,1.096-2.414,2.417-2.414c1.316,0,2.412,1.097,2.412,2.414      C448.452,120.949,447.356,122.047,446.04,122.047L446.04,122.047z"/>
<path fill="none" stroke="#000000" stroke-width="0.504" stroke-miterlimit="2.4142" d="M457.09,122.047      c-1.321,0-2.417-1.098-2.417-2.415c0-1.317,1.096-2.414,2.417-2.414c1.316,0,2.412,1.097,2.412,2.414      C459.502,120.949,458.406,122.047,457.09,122.047L457.09,122.047z"/>
<path fill="none" stroke="#000000" stroke-width="0.504" stroke-miterlimit="2.4142" d="M468.137,122.047      c-1.316,0-2.414-1.098-2.414-2.415c0-1.317,1.098-2.414,2.414-2.414s2.415,1.097,2.415,2.414      C470.552,120.949,469.453,122.047,468.137,122.047L468.137,122.047z"/>
<path fill="none" stroke="#000000" stroke-width="0.504" stroke-miterlimit="2.4142" d="M462.382,129.999     c-1.316,0-2.414-1.098-2.414-2.414c0-1.317,1.098-2.415,2.414-2.415s2.415,1.098,2.415,2.415     C464.797,128.901,463.698,129.999,462.382,129.999L462.382,129.999z"/>
<path fill="none" stroke="#000000" stroke-width="0.504" stroke-miterlimit="2.4142" d="M464.771,133.122     c1.32,0,2.416,1.098,2.416,2.415c0,1.317-1.096,2.415-2.416,2.415c-1.316,0-2.412-1.097-2.412-2.415     C462.359,134.219,463.455,133.122,464.771,133.122L464.771,133.122z"/>
<path fill="none" stroke="#000000" stroke-width="0.504" stroke-miterlimit="2.4142" d="M467.162,141.073     c1.321,0,2.417,1.098,2.417,2.415c0,1.317-1.096,2.415-2.417,2.415c-1.316,0-2.412-1.097-2.412-2.415     C464.75,142.171,465.846,141.073,467.162,141.073L467.162,141.073z"/>
<path fill="none" stroke="#000000" stroke-width="0.504" stroke-miterlimit="2.4142" d="M469.553,153.891     c-1.315,0-2.413-1.097-2.413-2.488c0-1.317,1.098-2.414,2.413-2.414c1.316,0,2.416,1.097,2.416,2.414     C471.969,152.794,470.869,153.891,469.553,153.891L469.553,153.891z"/>
<path fill="none" stroke="#000000" stroke-width="0.504" stroke-miterlimit="2.4142" d="M469.553,161.843     c-1.315,0-2.413-1.097-2.413-2.488c0-1.317,1.098-2.414,2.413-2.414c1.316,0,2.416,1.097,2.416,2.414     C471.969,160.746,470.869,161.843,469.553,161.843L469.553,161.843z"/>
<path fill="none" stroke="#000000" stroke-width="0.504" stroke-miterlimit="2.4142" d="M455.957,169.794      c-1.316,0-2.413-1.097-2.413-2.488c0-1.317,1.097-2.414,2.413-2.414s2.416,1.097,2.416,2.414      C458.373,168.697,457.273,169.794,455.957,169.794L455.957,169.794z"/>
<path fill="none" stroke="#000000" stroke-width="0.504" stroke-miterlimit="2.4142" d="M469.553,169.794      c-1.315,0-2.413-1.097-2.413-2.488c0-1.317,1.098-2.414,2.413-2.414c1.316,0,2.416,1.097,2.416,2.414      C471.969,168.698,470.869,169.794,469.553,169.794L469.553,169.794z"/>
</g></switch>
</svg>