<?xml version="1.0" encoding="utf-8"?>
<!DOCTYPE svg PUBLIC "-//W3C//DTD SVG 1.1//EN" "http://www.w3.org/Graphics/SVG/1.1/DTD/svg11.dtd">
<svg version="1.1" id="Armor" xmlns="http://www.w3.org/2000/svg" xmlns:xlink="http://www.w3.org/1999/xlink" x="0px" y="0px"
	 width="612px" height="792px" viewBox="0 0 612 792" enable-background="new 0 0 612 792" xml:space="preserve">
<switch><g>
<path fill="none" stroke="#000000" stroke-width="0.504" stroke-miterlimit="2.4142" d="M558.318,89.266     c1.657-0.145,2.922-1.652,2.778-3.312c-0.149-1.731-1.653-2.925-3.315-2.78c-1.729,0.151-3,1.588-2.851,3.32     C555.08,88.153,556.585,89.417,558.318,89.266L558.318,89.266z"/>
<path fill="none" stroke="#000000" stroke-width="0.504" stroke-miterlimit="2.4142" d="M561.936,130.635     c1.663-0.144,2.927-1.652,2.779-3.312c-0.148-1.732-1.648-2.925-3.312-2.779c-1.73,0.15-3.001,1.587-2.852,3.319     C558.698,129.524,560.207,130.788,561.936,130.635L561.936,130.635z"/>
<path fill="none" stroke="#000000" stroke-width="0.504" stroke-miterlimit="2.4142" d="M565.556,172.006     c1.659-0.145,2.926-1.652,2.779-3.312c-0.15-1.732-1.653-2.925-3.313-2.78c-1.729,0.151-3,1.588-2.851,3.32     C562.318,170.894,563.826,172.158,565.556,172.006L565.556,172.006z"/>
</g></switch>
</svg>