<?xml version="1.0" encoding="utf-8"?>
<!DOCTYPE svg PUBLIC "-//W3C//DTD SVG 1.1//EN" "http://www.w3.org/Graphics/SVG/1.1/DTD/svg11.dtd">
<svg version="1.1" id="Armor" xmlns="http://www.w3.org/2000/svg" xmlns:xlink="http://www.w3.org/1999/xlink" x="0px" y="0px"
	 width="612px" height="792px" viewBox="0 0 612 792" enable-background="new 0 0 612 792" xml:space="preserve">
<switch><g>
<path fill="none" stroke="#000000" stroke-width="0.504" stroke-miterlimit="2.4142" d="M425.768,80.766     c-1.67-0.145-2.927-1.648-2.78-3.311c0.15-1.732,1.646-2.926,3.314-2.782c1.718,0.153,2.997,1.591,2.847,3.323     C429.002,79.657,427.494,80.917,425.768,80.766L425.768,80.766z"/>
<path fill="none" stroke="#000000" stroke-width="0.504" stroke-miterlimit="2.4142" d="M418.484,98.91     c-1.664-0.146-2.924-1.652-2.773-3.315c0.143-1.729,1.646-2.923,3.312-2.777c1.721,0.149,3.001,1.585,2.852,3.318     C421.729,97.794,420.209,99.06,418.484,98.91L418.484,98.91z"/>
<path fill="none" stroke="#000000" stroke-width="0.504" stroke-miterlimit="2.4142" d="M429.783,99.899     c-1.668-0.146-2.928-1.652-2.777-3.312c0.146-1.734,1.645-2.925,3.314-2.782c1.719,0.15,2.994,1.587,2.841,3.322     C433.02,98.79,431.51,100.049,429.783,99.899L429.783,99.899z"/>
<path fill="none" stroke="#000000" stroke-width="0.504" stroke-miterlimit="2.4142" d="M422.504,118.042     c-1.664-0.144-2.925-1.649-2.777-3.311c0.152-1.73,1.646-2.926,3.312-2.784c1.721,0.154,3.002,1.592,2.848,3.323     C425.741,116.928,424.227,118.194,422.504,118.042L422.504,118.042z"/>
<path fill="none" stroke="#000000" stroke-width="0.504" stroke-miterlimit="2.4142" d="M415.227,136.184     c-1.666-0.146-2.926-1.653-2.778-3.314c0.147-1.729,1.646-2.925,3.313-2.777c1.721,0.148,3.005,1.588,2.847,3.323     C418.461,135.069,416.95,136.334,415.227,136.184L415.227,136.184z"/>
<path fill="none" stroke="#000000" stroke-width="0.504" stroke-miterlimit="2.4142" d="M426.523,137.174     c-1.671-0.142-2.928-1.648-2.78-3.311c0.154-1.733,1.644-2.926,3.312-2.782c1.729,0.152,3.003,1.587,2.85,3.32     C429.761,136.064,428.251,137.324,426.523,137.174L426.523,137.174z"/>
<path fill="none" stroke="#000000" stroke-width="0.504" stroke-miterlimit="2.4142" d="M419.242,155.315     c-1.663-0.142-2.92-1.652-2.777-3.311c0.154-1.73,1.647-2.926,3.313-2.779c1.725,0.148,3.004,1.587,2.846,3.316     C422.486,154.204,420.971,155.466,419.242,155.315L419.242,155.315z"/>
<path fill="none" stroke="#000000" stroke-width="0.504" stroke-miterlimit="2.4142" d="M411.966,173.458     c-1.667-0.143-2.925-1.65-2.78-3.309c0.153-1.735,1.65-2.928,3.313-2.781c1.724,0.146,3.003,1.586,2.85,3.319     C415.208,172.348,413.69,173.611,411.966,173.458L411.966,173.458z"/>
<path fill="none" stroke="#000000" stroke-width="0.504" stroke-miterlimit="2.4142" d="M423.261,174.447     c-1.67-0.137-2.927-1.647-2.775-3.309c0.147-1.731,1.643-2.926,3.312-2.776c1.725,0.147,2.995,1.585,2.847,3.316     C426.496,173.335,424.99,174.601,423.261,174.447L423.261,174.447z"/>
</g></switch>
</svg>