<?xml version="1.0" encoding="utf-8"?>
<!DOCTYPE svg PUBLIC "-//W3C//DTD SVG 1.1//EN" "http://www.w3.org/Graphics/SVG/1.1/DTD/svg11.dtd">
<svg version="1.1" id="Armor" xmlns="http://www.w3.org/2000/svg" xmlns:xlink="http://www.w3.org/1999/xlink" x="0px" y="0px"
	 width="612px" height="792px" viewBox="0 0 612 792" enable-background="new 0 0 612 792" xml:space="preserve">
<switch><g>
<path fill-rule="evenodd" clip-rule="evenodd" fill="none" stroke="#000000" stroke-width="0.504" stroke-miterlimit="2.4142" d="     M520.805,190.503c1.563-0.384,2.521-1.979,2.106-3.609c-0.387-1.565-1.984-2.522-3.546-2.132c-1.626,0.4-2.587,2.002-2.194,3.564     C517.573,189.96,519.169,190.917,520.805,190.503L520.805,190.503z"/>
<path fill-rule="evenodd" clip-rule="evenodd" fill="none" stroke="#000000" stroke-width="0.504" stroke-miterlimit="2.4142" d="     M529.024,200.076c1.563-0.389,2.521-1.985,2.113-3.615c-0.395-1.565-1.988-2.525-3.549-2.134c-1.636,0.405-2.591,2.002-2.2,3.562     C525.79,199.527,527.389,200.484,529.024,200.076L529.024,200.076z"/>
<path fill-rule="evenodd" clip-rule="evenodd" fill="none" stroke="#000000" stroke-width="0.504" stroke-miterlimit="2.4142" d="     M517.608,202.713c1.564-0.39,2.522-1.986,2.114-3.617c-0.391-1.566-1.985-2.523-3.547-2.134     c-1.634,0.405-2.594,2.002-2.204,3.563C514.374,202.163,515.973,203.119,517.608,202.713L517.608,202.713z"/>
<path fill-rule="evenodd" clip-rule="evenodd" fill="none" stroke="#000000" stroke-width="0.504" stroke-miterlimit="2.4142" d="     M525.837,212.281c1.559-0.39,2.514-1.985,2.104-3.613c-0.387-1.564-1.985-2.527-3.548-2.136     c-1.628,0.407-2.587,2.004-2.202,3.561C522.597,211.734,524.198,212.689,525.837,212.281L525.837,212.281z"/>
<path fill-rule="evenodd" clip-rule="evenodd" fill="none" stroke="#000000" stroke-width="0.504" stroke-miterlimit="2.4142" d="     M534.054,221.851c1.563-0.39,2.521-1.983,2.111-3.615c-0.392-1.566-1.985-2.522-3.545-2.135     c-1.636,0.407-2.595,2.005-2.203,3.567C530.823,221.298,532.425,222.263,534.054,221.851L534.054,221.851z"/>
<path fill-rule="evenodd" clip-rule="evenodd" fill="none" stroke="#000000" stroke-width="0.504" stroke-miterlimit="2.4142" d="     M522.634,224.485c1.566-0.384,2.521-1.982,2.116-3.61c-0.394-1.566-1.985-2.525-3.546-2.137     c-1.631,0.408-2.597,2.009-2.202,3.566C519.405,223.936,521.007,224.9,522.634,224.485L522.634,224.485z"/>
<path fill-rule="evenodd" clip-rule="evenodd" fill="none" stroke="#000000" stroke-width="0.504" stroke-miterlimit="2.4142" d="     M530.857,234.056c1.565-0.389,2.519-1.984,2.11-3.616c-0.389-1.566-1.984-2.523-3.549-2.131     c-1.629,0.406-2.586,2.004-2.198,3.565C527.629,233.504,529.222,234.467,530.857,234.056L530.857,234.056z"/>
<path fill-rule="evenodd" clip-rule="evenodd" fill="none" stroke="#000000" stroke-width="0.504" stroke-miterlimit="2.4142" d="     M539.076,243.626c1.562-0.388,2.522-1.983,2.116-3.616c-0.393-1.566-1.988-2.521-3.555-2.133     c-1.627,0.406-2.591,2.005-2.197,3.563C535.842,243.073,537.442,244.033,539.076,243.626L539.076,243.626z"/>
<path fill-rule="evenodd" clip-rule="evenodd" fill="none" stroke="#000000" stroke-width="0.504" stroke-miterlimit="2.4142" d="     M527.663,246.261c1.563-0.39,2.522-1.987,2.115-3.618c-0.391-1.563-1.987-2.519-3.55-2.131c-1.631,0.403-2.591,2.004-2.2,3.563     C524.428,245.708,526.03,246.669,527.663,246.261L527.663,246.261z"/>
<path fill-rule="evenodd" clip-rule="evenodd" fill="none" stroke="#000000" stroke-width="0.504" stroke-miterlimit="2.4142" d="     M535.886,255.829c1.559-0.39,2.512-1.985,2.112-3.616c-0.392-1.564-1.99-2.524-3.547-2.132c-1.639,0.404-2.597,2.005-2.204,3.562     C532.656,255.278,534.25,256.24,535.886,255.829L535.886,255.829z"/>
<path fill-rule="evenodd" clip-rule="evenodd" fill="none" stroke="#000000" stroke-width="0.504" stroke-miterlimit="2.4142" d="     M544.104,265.399c1.561-0.388,2.518-1.985,2.115-3.621c-0.395-1.558-1.99-2.517-3.555-2.126     c-1.633,0.406-2.594,2.002-2.201,3.565C540.874,264.848,542.472,265.809,544.104,265.399L544.104,265.399z"/>
<path fill-rule="evenodd" clip-rule="evenodd" fill="none" stroke="#000000" stroke-width="0.504" stroke-miterlimit="2.4142" d="     M532.69,268.034c1.563-0.389,2.522-1.985,2.115-3.617c-0.391-1.558-1.988-2.519-3.555-2.13c-1.627,0.406-2.592,2.004-2.195,3.564     C529.459,267.482,531.056,268.444,532.69,268.034L532.69,268.034z"/>
<path fill-rule="evenodd" clip-rule="evenodd" fill="none" stroke="#000000" stroke-width="0.504" stroke-miterlimit="2.4142" d="     M540.91,277.606c1.562-0.392,2.524-1.985,2.109-3.621c-0.384-1.562-1.978-2.52-3.546-2.131c-1.627,0.404-2.59,2.002-2.204,3.563     C537.683,277.051,539.28,278.012,540.91,277.606L540.91,277.606z"/>
<path fill-rule="evenodd" clip-rule="evenodd" fill="none" stroke="#000000" stroke-width="0.504" stroke-miterlimit="2.4142" d="     M549.134,287.174c1.561-0.386,2.521-1.986,2.112-3.622c-0.396-1.556-1.987-2.513-3.556-2.126     c-1.622,0.404-2.59,1.998-2.193,3.563C545.902,286.625,547.5,287.584,549.134,287.174L549.134,287.174z"/>
<path fill-rule="evenodd" clip-rule="evenodd" fill="none" stroke="#000000" stroke-width="0.504" stroke-miterlimit="2.4142" d="     M537.716,289.809c1.564-0.383,2.524-1.983,2.115-3.617c-0.391-1.56-1.988-2.518-3.549-2.131c-1.628,0.41-2.593,2.001-2.201,3.566     C534.489,289.258,536.089,290.219,537.716,289.809L537.716,289.809z"/>
<path fill-rule="evenodd" clip-rule="evenodd" fill="none" stroke="#000000" stroke-width="0.504" stroke-miterlimit="2.4142" d="     M545.937,299.381c1.562-0.392,2.524-1.985,2.11-3.621c-0.385-1.562-1.978-2.52-3.547-2.131c-1.626,0.404-2.59,2.002-2.203,3.563     C542.71,298.825,544.307,299.786,545.937,299.381L545.937,299.381z"/>
</g></switch>
</svg>