<?xml version="1.0" encoding="utf-8"?>
<!DOCTYPE svg PUBLIC "-//W3C//DTD SVG 1.1//EN" "http://www.w3.org/Graphics/SVG/1.1/DTD/svg11.dtd">
<svg version="1.1" id="Armor" xmlns="http://www.w3.org/2000/svg" xmlns:xlink="http://www.w3.org/1999/xlink" x="0px" y="0px"
	 width="612px" height="792px" viewBox="0 0 612 792" enable-background="new 0 0 612 792" xml:space="preserve">
<switch><g>
<path fill="none" stroke="#000000" stroke-width="0.504" stroke-miterlimit="2.4142" d="M557.876,80.937     c1.666-0.144,2.93-1.652,2.783-3.312c-0.148-1.731-1.652-2.925-3.312-2.779c-1.731,0.151-3,1.586-2.852,3.319     C554.646,79.825,556.146,81.088,557.876,80.937L557.876,80.937z"/>
<path fill="none" stroke="#000000" stroke-width="0.504" stroke-miterlimit="2.4142" d="M563.979,85.62     c1.662-0.145,2.929-1.651,2.779-3.312c-0.149-1.73-1.646-2.924-3.313-2.78c-1.729,0.152-3.002,1.589-2.851,3.32     C560.741,84.509,562.253,85.771,563.979,85.62L563.979,85.62z"/>
<path fill="none" stroke="#000000" stroke-width="0.504" stroke-miterlimit="2.4142" d="M552.685,86.608     c1.662-0.146,2.93-1.652,2.779-3.312c-0.147-1.729-1.646-2.924-3.313-2.78c-1.729,0.152-3,1.59-2.849,3.321     C549.45,85.498,550.956,86.759,552.685,86.608L552.685,86.608z"/>
<path fill="none" stroke="#000000" stroke-width="0.504" stroke-miterlimit="2.4142" d="M558.782,91.291     c1.665-0.145,2.929-1.652,2.783-3.312c-0.148-1.731-1.652-2.926-3.312-2.779c-1.731,0.15-3.001,1.586-2.852,3.318     C555.551,90.179,557.054,91.441,558.782,91.291L558.782,91.291z"/>
<path fill="none" stroke="#000000" stroke-width="0.504" stroke-miterlimit="2.4142" d="M564.882,95.974     c1.665-0.144,2.931-1.652,2.784-3.311c-0.149-1.73-1.652-2.926-3.313-2.779c-1.731,0.15-3.004,1.587-2.853,3.318     C561.648,94.862,563.155,96.126,564.882,95.974L564.882,95.974z"/>
<path fill="none" stroke="#000000" stroke-width="0.504" stroke-miterlimit="2.4142" d="M553.587,96.962     c1.664-0.144,2.93-1.652,2.785-3.311c-0.148-1.732-1.656-2.926-3.317-2.779c-1.729,0.149-2.997,1.586-2.847,3.319     C550.354,95.85,551.858,97.112,553.587,96.962L553.587,96.962z"/>
<path fill="none" stroke="#000000" stroke-width="0.504" stroke-miterlimit="2.4142" d="M559.69,101.646     c1.665-0.146,2.924-1.653,2.779-3.312c-0.15-1.731-1.649-2.926-3.313-2.783c-1.729,0.153-2.997,1.591-2.849,3.322     C556.452,100.533,557.964,101.798,559.69,101.646L559.69,101.646z"/>
<path fill="none" stroke="#000000" stroke-width="0.504" stroke-miterlimit="2.4142" d="M565.792,106.328     c1.662-0.144,2.922-1.65,2.779-3.312c-0.152-1.729-1.65-2.924-3.314-2.78c-1.727,0.151-3,1.59-2.85,3.32     C562.552,105.216,564.063,106.481,565.792,106.328L565.792,106.328z"/>
<path fill="none" stroke="#000000" stroke-width="0.504" stroke-miterlimit="2.4142" d="M554.497,107.316     c1.66-0.144,2.926-1.649,2.781-3.311c-0.154-1.731-1.653-2.925-3.316-2.78c-1.728,0.151-3,1.588-2.847,3.32     C551.259,106.204,552.767,107.47,554.497,107.316L554.497,107.316z"/>
<path fill="none" stroke="#000000" stroke-width="0.504" stroke-miterlimit="2.4142" d="M560.599,112     c1.662-0.146,2.923-1.653,2.777-3.312c-0.152-1.73-1.652-2.926-3.314-2.781c-1.729,0.152-2.995,1.59-2.846,3.32     C557.365,110.886,558.866,112.151,560.599,112L560.599,112z"/>
<path fill="none" stroke="#000000" stroke-width="0.504" stroke-miterlimit="2.4142" d="M566.699,116.683     c1.661-0.146,2.921-1.651,2.777-3.313c-0.151-1.73-1.651-2.924-3.313-2.779c-1.73,0.152-3,1.588-2.849,3.32     C563.462,115.57,564.966,116.834,566.699,116.683L566.699,116.683z"/>
<path fill="none" stroke="#000000" stroke-width="0.504" stroke-miterlimit="2.4142" d="M555.401,117.671     c1.659-0.144,2.926-1.651,2.78-3.311c-0.147-1.73-1.653-2.925-3.317-2.78c-1.729,0.152-2.996,1.589-2.842,3.32     C552.169,116.561,553.671,117.824,555.401,117.671L555.401,117.671z"/>
<path fill="none" stroke="#000000" stroke-width="0.504" stroke-miterlimit="2.4142" d="M561.503,122.354     c1.66-0.145,2.924-1.652,2.78-3.311c-0.153-1.732-1.649-2.926-3.313-2.781c-1.729,0.15-2.999,1.59-2.847,3.32     C558.267,121.241,559.774,122.506,561.503,122.354L561.503,122.354z"/>
<path fill="none" stroke="#000000" stroke-width="0.504" stroke-miterlimit="2.4142" d="M567.604,127.037     c1.657-0.146,2.926-1.651,2.78-3.313c-0.153-1.731-1.648-2.926-3.313-2.78c-1.729,0.151-3.003,1.588-2.85,3.318     C564.364,125.925,565.874,127.188,567.604,127.037L567.604,127.037z"/>
<path fill="none" stroke="#000000" stroke-width="0.504" stroke-miterlimit="2.4142" d="M556.308,128.025     c1.658-0.146,2.929-1.65,2.785-3.313c-0.156-1.731-1.653-2.925-3.315-2.779c-1.73,0.152-3,1.588-2.85,3.319     C553.069,126.913,554.577,128.177,556.308,128.025L556.308,128.025z"/>
<path fill="none" stroke="#000000" stroke-width="0.504" stroke-miterlimit="2.4142" d="M562.407,132.708     c1.664-0.146,2.926-1.651,2.778-3.312c-0.149-1.731-1.647-2.926-3.313-2.781c-1.728,0.151-2.994,1.589-2.842,3.321     C559.173,131.596,560.677,132.859,562.407,132.708L562.407,132.708z"/>
<path fill="none" stroke="#000000" stroke-width="0.504" stroke-miterlimit="2.4142" d="M568.509,137.392     c1.664-0.146,2.926-1.651,2.777-3.311c-0.148-1.734-1.65-2.928-3.313-2.783c-1.727,0.151-2.998,1.588-2.848,3.322     C565.271,136.279,566.778,137.543,568.509,137.392L568.509,137.392z"/>
<path fill="none" stroke="#000000" stroke-width="0.504" stroke-miterlimit="2.4142" d="M557.214,138.379     c1.662-0.144,2.928-1.649,2.783-3.31c-0.152-1.731-1.656-2.926-3.318-2.783c-1.727,0.152-2.996,1.589-2.842,3.324     C553.979,137.269,555.483,138.531,557.214,138.379L557.214,138.379z"/>
<path fill="none" stroke="#000000" stroke-width="0.504" stroke-miterlimit="2.4142" d="M563.313,143.061     c1.664-0.144,2.927-1.649,2.779-3.31c-0.149-1.731-1.647-2.926-3.313-2.781c-1.729,0.151-2.998,1.589-2.842,3.321     C560.079,141.95,561.585,143.213,563.313,143.061L563.313,143.061z"/>
<path fill="none" stroke="#000000" stroke-width="0.504" stroke-miterlimit="2.4142" d="M569.413,147.745     c1.665-0.145,2.927-1.651,2.781-3.312c-0.152-1.731-1.649-2.926-3.313-2.781c-1.729,0.151-3.001,1.589-2.847,3.322     C566.177,146.632,567.688,147.896,569.413,147.745L569.413,147.745z"/>
<path fill="none" stroke="#000000" stroke-width="0.504" stroke-miterlimit="2.4142" d="M558.118,148.733     c1.662-0.145,2.928-1.651,2.784-3.312c-0.154-1.731-1.655-2.925-3.318-2.78c-1.729,0.151-2.999,1.588-2.843,3.32     C554.881,147.622,556.389,148.884,558.118,148.733L558.118,148.733z"/>
<path fill="none" stroke="#000000" stroke-width="0.504" stroke-miterlimit="2.4142" d="M564.22,153.415     c1.66-0.144,2.924-1.651,2.781-3.311c-0.154-1.732-1.652-2.926-3.313-2.78c-1.729,0.151-3,1.587-2.844,3.319     C560.985,152.302,562.489,153.566,564.22,153.415L564.22,153.415z"/>
<path fill="none" stroke="#000000" stroke-width="0.504" stroke-miterlimit="2.4142" d="M570.321,158.099     c1.659-0.144,2.922-1.652,2.776-3.312c-0.149-1.732-1.65-2.924-3.313-2.78c-1.728,0.152-3,1.588-2.846,3.32     C567.081,156.986,568.589,158.251,570.321,158.099L570.321,158.099z"/>
<path fill="none" stroke="#000000" stroke-width="0.504" stroke-miterlimit="2.4142" d="M559.026,159.086     c1.661-0.141,2.926-1.65,2.78-3.311c-0.149-1.731-1.654-2.925-3.314-2.779c-1.729,0.151-2.999,1.588-2.845,3.319     C555.79,157.975,557.294,159.239,559.026,159.086L559.026,159.086z"/>
<path fill="none" stroke="#000000" stroke-width="0.504" stroke-miterlimit="2.4142" d="M565.126,163.77     c1.662-0.145,2.923-1.651,2.779-3.311c-0.152-1.733-1.652-2.925-3.314-2.78c-1.727,0.151-2.996,1.588-2.842,3.32     C561.889,162.657,563.396,163.921,565.126,163.77L565.126,163.77z"/>
<path fill="none" stroke="#000000" stroke-width="0.504" stroke-miterlimit="2.4142" d="M571.229,168.452     c1.66-0.145,2.922-1.651,2.776-3.311c-0.149-1.732-1.651-2.924-3.313-2.779c-1.728,0.15-3,1.586-2.849,3.319     C567.987,167.341,569.495,168.604,571.229,168.452L571.229,168.452z"/>
<path fill="none" stroke="#000000" stroke-width="0.504" stroke-miterlimit="2.4142" d="M559.933,169.44     c1.66-0.143,2.926-1.651,2.779-3.311c-0.147-1.732-1.654-2.925-3.313-2.779c-1.729,0.151-2.996,1.587-2.847,3.319     C556.694,168.328,558.2,169.593,559.933,169.44L559.933,169.44z"/>
<path fill="none" stroke="#000000" stroke-width="0.504" stroke-miterlimit="2.4142" d="M566.032,174.123     c1.662-0.145,2.922-1.651,2.778-3.311c-0.151-1.732-1.651-2.924-3.313-2.78c-1.728,0.152-2.996,1.588-2.842,3.321     C562.795,173.012,564.301,174.274,566.032,174.123L566.032,174.123z"/>
</g></switch>
</svg>