<?xml version="1.0" encoding="utf-8"?>
<!DOCTYPE svg PUBLIC "-//W3C//DTD SVG 1.1//EN" "http://www.w3.org/Graphics/SVG/1.1/DTD/svg11.dtd">
<svg version="1.1" id="Armor" xmlns="http://www.w3.org/2000/svg" xmlns:xlink="http://www.w3.org/1999/xlink" x="0px" y="0px"
	 width="612px" height="792px" viewBox="0 0 612 792" enable-background="new 0 0 612 792" xml:space="preserve">
<switch><g>
<path fill-rule="evenodd" clip-rule="evenodd" fill="none" stroke="#000000" stroke-width="0.504" stroke-miterlimit="2.4142" d="     M463.017,191.393c-1.558-0.393-2.521-1.987-2.106-3.619c0.382-1.565,1.979-2.525,3.544-2.133c1.63,0.404,2.591,2.003,2.197,3.564     C466.25,190.839,464.65,191.798,463.017,191.393L463.017,191.393z"/>
<path fill-rule="evenodd" clip-rule="evenodd" fill="none" stroke="#000000" stroke-width="0.504" stroke-miterlimit="2.4142" d="     M456.059,195.518c-1.561-0.391-2.522-1.988-2.115-3.622c0.39-1.561,1.985-2.517,3.548-2.128c1.633,0.404,2.592,2.003,2.202,3.563     C459.285,194.964,457.688,195.921,456.059,195.518L456.059,195.518z"/>
<path fill-rule="evenodd" clip-rule="evenodd" fill="none" stroke="#000000" stroke-width="0.504" stroke-miterlimit="2.4142" d="     M467.473,198.154c-1.562-0.393-2.521-1.988-2.116-3.623c0.39-1.561,1.986-2.519,3.546-2.128c1.635,0.405,2.594,2.003,2.202,3.563     C470.699,197.598,469.098,198.556,467.473,198.154L467.473,198.154z"/>
<path fill-rule="evenodd" clip-rule="evenodd" fill="none" stroke="#000000" stroke-width="0.504" stroke-miterlimit="2.4142" d="     M460.506,202.279c-1.562-0.393-2.521-1.988-2.113-3.623c0.389-1.56,1.984-2.519,3.548-2.126c1.632,0.403,2.592,2,2.2,3.563     C463.734,201.723,462.134,202.684,460.506,202.279L460.506,202.279z"/>
<path fill-rule="evenodd" clip-rule="evenodd" fill="none" stroke="#000000" stroke-width="0.504" stroke-miterlimit="2.4142" d="     M453.547,206.407c-1.561-0.39-2.525-1.987-2.117-3.62c0.388-1.562,1.986-2.521,3.551-2.132c1.63,0.404,2.588,2.006,2.201,3.563     C456.772,205.853,455.176,206.811,453.547,206.407L453.547,206.407z"/>
<path fill-rule="evenodd" clip-rule="evenodd" fill="none" stroke="#000000" stroke-width="0.504" stroke-miterlimit="2.4142" d="     M464.958,209.041c-1.561-0.388-2.525-1.986-2.117-3.619c0.388-1.561,1.989-2.521,3.551-2.131c1.629,0.406,2.59,2.005,2.201,3.564     C468.184,208.488,466.586,209.447,464.958,209.041L464.958,209.041z"/>
<path fill-rule="evenodd" clip-rule="evenodd" fill="none" stroke="#000000" stroke-width="0.504" stroke-miterlimit="2.4142" d="     M457.994,213.167c-1.559-0.388-2.525-1.987-2.116-3.62c0.39-1.561,1.989-2.52,3.551-2.131c1.628,0.406,2.589,2.004,2.199,3.563     C461.219,212.615,459.62,213.572,457.994,213.167L457.994,213.167z"/>
<path fill-rule="evenodd" clip-rule="evenodd" fill="none" stroke="#000000" stroke-width="0.504" stroke-miterlimit="2.4142" d="     M451.029,217.292c-1.563-0.39-2.521-1.985-2.112-3.62c0.389-1.561,1.988-2.521,3.549-2.13c1.628,0.408,2.587,2.002,2.199,3.563     C454.262,216.74,452.664,217.698,451.029,217.292L451.029,217.292z"/>
<path fill-rule="evenodd" clip-rule="evenodd" fill="none" stroke="#000000" stroke-width="0.504" stroke-miterlimit="2.4142" d="     M462.441,219.926c-1.565-0.39-2.518-1.984-2.112-3.619c0.388-1.563,1.988-2.519,3.552-2.13c1.626,0.407,2.584,2.003,2.196,3.563     C465.673,219.375,464.076,220.334,462.441,219.926L462.441,219.926z"/>
<path fill-rule="evenodd" clip-rule="evenodd" fill="none" stroke="#000000" stroke-width="0.504" stroke-miterlimit="2.4142" d="     M455.479,224.053c-1.565-0.392-2.521-1.985-2.113-3.622c0.39-1.558,1.985-2.519,3.551-2.13c1.623,0.407,2.587,2.004,2.2,3.564     C458.711,223.501,457.111,224.458,455.479,224.053L455.479,224.053z"/>
<path fill-rule="evenodd" clip-rule="evenodd" fill="none" stroke="#000000" stroke-width="0.504" stroke-miterlimit="2.4142" d="     M448.52,228.18c-1.561-0.391-2.52-1.987-2.117-3.618c0.393-1.565,1.988-2.521,3.55-2.134c1.632,0.406,2.592,2.001,2.2,3.565     C451.75,227.625,450.148,228.586,448.52,228.18L448.52,228.18z"/>
<path fill-rule="evenodd" clip-rule="evenodd" fill="none" stroke="#000000" stroke-width="0.504" stroke-miterlimit="2.4142" d="     M459.932,230.815c-1.562-0.391-2.52-1.986-2.119-3.62c0.393-1.563,1.989-2.519,3.55-2.133c1.632,0.409,2.591,2.002,2.201,3.566     C463.158,230.26,461.563,231.222,459.932,230.815L459.932,230.815z"/>
<path fill-rule="evenodd" clip-rule="evenodd" fill="none" stroke="#000000" stroke-width="0.504" stroke-miterlimit="2.4142" d="     M452.968,234.94c-1.563-0.392-2.521-1.987-2.114-3.619c0.393-1.563,1.983-2.521,3.548-2.132c1.629,0.405,2.589,2.002,2.199,3.564     C456.197,234.384,454.598,235.345,452.968,234.94L452.968,234.94z"/>
<path fill-rule="evenodd" clip-rule="evenodd" fill="none" stroke="#000000" stroke-width="0.504" stroke-miterlimit="2.4142" d="     M446.001,239.063c-1.562-0.386-2.52-1.982-2.11-3.615c0.389-1.561,1.985-2.521,3.546-2.132c1.63,0.406,2.592,2.006,2.201,3.566     C449.23,238.516,447.633,239.475,446.001,239.063L446.001,239.063z"/>
<path fill-rule="evenodd" clip-rule="evenodd" fill="none" stroke="#000000" stroke-width="0.504" stroke-miterlimit="2.4142" d="     M457.413,241.698c-1.56-0.387-2.52-1.983-2.111-3.616c0.39-1.561,1.986-2.522,3.548-2.131c1.63,0.404,2.593,2.004,2.201,3.565     C460.643,241.149,459.047,242.109,457.413,241.698L457.413,241.698z"/>
<path fill-rule="evenodd" clip-rule="evenodd" fill="none" stroke="#000000" stroke-width="0.504" stroke-miterlimit="2.4142" d="     M450.449,245.823c-1.563-0.386-2.521-1.983-2.109-3.614c0.389-1.562,1.984-2.522,3.547-2.132c1.629,0.404,2.59,2.005,2.198,3.565     C453.68,245.275,452.082,246.235,450.449,245.823L450.449,245.823z"/>
<path fill-rule="evenodd" clip-rule="evenodd" fill="none" stroke="#000000" stroke-width="0.504" stroke-miterlimit="2.4142" d="     M443.49,249.953c-1.563-0.392-2.522-1.987-2.113-3.617c0.392-1.565,1.984-2.525,3.549-2.133c1.631,0.403,2.591,2.003,2.198,3.563     C446.721,249.399,445.123,250.359,443.49,249.953L443.49,249.953z"/>
<path fill-rule="evenodd" clip-rule="evenodd" fill="none" stroke="#000000" stroke-width="0.504" stroke-miterlimit="2.4142" d="     M454.901,252.586c-1.563-0.39-2.521-1.986-2.113-3.618c0.394-1.563,1.987-2.522,3.549-2.131c1.631,0.403,2.591,2.003,2.2,3.563     C458.131,252.035,456.534,252.995,454.901,252.586L454.901,252.586z"/>
<path fill-rule="evenodd" clip-rule="evenodd" fill="none" stroke="#000000" stroke-width="0.504" stroke-miterlimit="2.4142" d="     M447.937,256.711c-1.563-0.391-2.517-1.985-2.111-3.616c0.39-1.563,1.985-2.524,3.548-2.132c1.633,0.404,2.589,2.003,2.2,3.562     C451.17,256.162,449.569,257.12,447.937,256.711L447.937,256.711z"/>
<path fill-rule="evenodd" clip-rule="evenodd" fill="none" stroke="#000000" stroke-width="0.504" stroke-miterlimit="2.4142" d="     M440.974,260.837c-1.562-0.39-2.522-1.986-2.111-3.617c0.392-1.564,1.986-2.521,3.55-2.131c1.629,0.404,2.589,2.004,2.198,3.563     C444.204,260.285,442.607,261.246,440.974,260.837L440.974,260.837z"/>
<path fill-rule="evenodd" clip-rule="evenodd" fill="none" stroke="#000000" stroke-width="0.504" stroke-miterlimit="2.4142" d="     M452.387,263.472c-1.562-0.388-2.52-1.984-2.111-3.617c0.393-1.563,1.986-2.521,3.548-2.131c1.63,0.406,2.593,2.005,2.199,3.565     C455.617,262.921,454.019,263.882,452.387,263.472L452.387,263.472z"/>
<path fill-rule="evenodd" clip-rule="evenodd" fill="none" stroke="#000000" stroke-width="0.504" stroke-miterlimit="2.4142" d="     M445.422,267.598c-1.563-0.389-2.516-1.983-2.109-3.617c0.39-1.563,1.985-2.521,3.547-2.131c1.632,0.405,2.59,2.004,2.2,3.563     C448.652,267.047,447.055,268.006,445.422,267.598L445.422,267.598z"/>
<path fill-rule="evenodd" clip-rule="evenodd" fill="none" stroke="#000000" stroke-width="0.504" stroke-miterlimit="2.4142" d="     M438.461,271.725c-1.563-0.39-2.521-1.984-2.111-3.616c0.391-1.565,1.985-2.523,3.547-2.134c1.633,0.404,2.594,2.005,2.201,3.563     C441.689,271.171,440.094,272.132,438.461,271.725L438.461,271.725z"/>
<path fill-rule="evenodd" clip-rule="evenodd" fill="none" stroke="#000000" stroke-width="0.504" stroke-miterlimit="2.4142" d="     M449.874,274.36c-1.563-0.389-2.522-1.985-2.114-3.616c0.391-1.565,1.987-2.521,3.55-2.134c1.631,0.405,2.592,2.006,2.201,3.564     C453.105,273.807,451.506,274.768,449.874,274.36L449.874,274.36z"/>
<path fill-rule="evenodd" clip-rule="evenodd" fill="none" stroke="#000000" stroke-width="0.504" stroke-miterlimit="2.4142" d="     M442.908,278.485c-1.56-0.387-2.517-1.984-2.11-3.616c0.39-1.563,1.987-2.521,3.549-2.132c1.632,0.405,2.592,2.004,2.201,3.564     C446.141,277.934,444.544,278.895,442.908,278.485L442.908,278.485z"/>
<path fill-rule="evenodd" clip-rule="evenodd" fill="none" stroke="#000000" stroke-width="0.504" stroke-miterlimit="2.4142" d="     M435.949,282.611c-1.563-0.386-2.521-1.984-2.113-3.616c0.39-1.562,1.984-2.519,3.55-2.132c1.628,0.406,2.592,2.007,2.2,3.565     C439.18,282.06,437.58,283.022,435.949,282.611L435.949,282.611z"/>
<path fill-rule="evenodd" clip-rule="evenodd" fill="none" stroke="#000000" stroke-width="0.504" stroke-miterlimit="2.4142" d="     M447.36,285.246c-1.563-0.388-2.521-1.985-2.114-3.617c0.391-1.563,1.988-2.521,3.552-2.13c1.629,0.405,2.592,2.004,2.199,3.563     C450.59,284.694,448.993,285.656,447.36,285.246L447.36,285.246z"/>
<path fill-rule="evenodd" clip-rule="evenodd" fill="none" stroke="#000000" stroke-width="0.504" stroke-miterlimit="2.4142" d="     M440.398,289.373c-1.563-0.39-2.523-1.984-2.113-3.618c0.39-1.563,1.983-2.521,3.548-2.131c1.63,0.404,2.593,2.004,2.204,3.564     C443.624,288.819,442.029,289.78,440.398,289.373L440.398,289.373z"/>
<path fill-rule="evenodd" clip-rule="evenodd" fill="none" stroke="#000000" stroke-width="0.504" stroke-miterlimit="2.4142" d="     M433.434,293.497c-1.563-0.388-2.521-1.985-2.113-3.617c0.393-1.56,1.989-2.518,3.552-2.128c1.627,0.402,2.591,2.001,2.198,3.563     C436.664,292.947,435.066,293.906,433.434,293.497L433.434,293.497z"/>
<path fill-rule="evenodd" clip-rule="evenodd" fill="none" stroke="#000000" stroke-width="0.504" stroke-miterlimit="2.4142" d="     M444.848,296.132c-1.563-0.388-2.521-1.985-2.113-3.618c0.389-1.561,1.986-2.518,3.549-2.129c1.628,0.405,2.593,2,2.2,3.563     C448.076,295.583,446.479,296.542,444.848,296.132L444.848,296.132z"/>
<path fill-rule="evenodd" clip-rule="evenodd" fill="none" stroke="#000000" stroke-width="0.504" stroke-miterlimit="2.4142" d="     M437.885,300.259c-1.563-0.39-2.523-1.984-2.113-3.617c0.391-1.563,1.984-2.521,3.548-2.132c1.63,0.404,2.593,2.005,2.204,3.563     C441.111,299.706,439.516,300.667,437.885,300.259L437.885,300.259z"/>
</g></switch>
</svg>