<?xml version="1.0" encoding="utf-8"?>
<!DOCTYPE svg PUBLIC "-//W3C//DTD SVG 1.1//EN" "http://www.w3.org/Graphics/SVG/1.1/DTD/svg11.dtd">
<svg version="1.1" id="Armor" xmlns="http://www.w3.org/2000/svg" xmlns:xlink="http://www.w3.org/1999/xlink" x="0px" y="0px"
	 width="612px" height="792px" viewBox="0 0 612 792" enable-background="new 0 0 612 792" xml:space="preserve">
<switch><g>
<path fill="none" stroke="#000000" stroke-width="0.504" stroke-miterlimit="2.4142" d="M420.092,80.202     c-1.664-0.146-2.924-1.652-2.773-3.315c0.142-1.729,1.646-2.923,3.31-2.777c1.723,0.149,3.002,1.585,2.853,3.318     C423.335,79.086,421.816,80.352,420.092,80.202L420.092,80.202z"/>
<path fill="none" stroke="#000000" stroke-width="0.504" stroke-miterlimit="2.4142" d="M431.391,81.191     c-1.668-0.145-2.93-1.651-2.778-3.312c0.146-1.733,1.645-2.925,3.313-2.781c1.719,0.15,2.996,1.587,2.841,3.321     C434.626,80.082,433.115,81.341,431.391,81.191L431.391,81.191z"/>
<path fill="none" stroke="#000000" stroke-width="0.504" stroke-miterlimit="2.4142" d="M423.703,103.994     c-1.665-0.144-2.926-1.649-2.777-3.31c0.151-1.731,1.645-2.926,3.312-2.785c1.72,0.154,3.001,1.592,2.848,3.324     C426.939,102.88,425.425,104.147,423.703,103.994L423.703,103.994z"/>
<path fill="none" stroke="#000000" stroke-width="0.504" stroke-miterlimit="2.4142" d="M416.018,126.795     c-1.666-0.145-2.926-1.653-2.778-3.314c0.147-1.729,1.646-2.925,3.313-2.777c1.721,0.148,3.004,1.588,2.847,3.323     C419.252,125.68,417.742,126.946,416.018,126.795L416.018,126.795z"/>
<path fill="none" stroke="#000000" stroke-width="0.504" stroke-miterlimit="2.4142" d="M427.314,127.786     c-1.67-0.142-2.928-1.648-2.78-3.311c0.153-1.733,1.645-2.926,3.312-2.782c1.729,0.152,3.002,1.587,2.85,3.32     C430.553,126.676,429.042,127.936,427.314,127.786L427.314,127.786z"/>
<path fill="none" stroke="#000000" stroke-width="0.504" stroke-miterlimit="2.4142" d="M419.626,150.586     c-1.663-0.143-2.921-1.653-2.778-3.313c0.155-1.729,1.648-2.925,3.313-2.778c1.724,0.148,3.004,1.587,2.845,3.316     C422.869,149.473,421.354,150.737,419.626,150.586L419.626,150.586z"/>
<path fill="none" stroke="#000000" stroke-width="0.504" stroke-miterlimit="2.4142" d="M411.941,173.388     c-1.667-0.143-2.926-1.65-2.779-3.309c0.152-1.735,1.648-2.928,3.311-2.781c1.726,0.146,3.004,1.586,2.853,3.319     C415.184,172.278,413.666,173.541,411.941,173.388L411.941,173.388z"/>
<path fill="none" stroke="#000000" stroke-width="0.504" stroke-miterlimit="2.4142" d="M423.236,174.376     c-1.67-0.137-2.928-1.647-2.775-3.309c0.147-1.731,1.643-2.926,3.312-2.776c1.723,0.147,2.993,1.585,2.848,3.316     C426.472,173.265,424.966,174.531,423.236,174.376L423.236,174.376z"/>
</g></switch>
</svg>