<?xml version="1.0" encoding="utf-8"?>
<!DOCTYPE svg PUBLIC "-//W3C//DTD SVG 1.1//EN" "http://www.w3.org/Graphics/SVG/1.1/DTD/svg11.dtd">
<svg version="1.1" id="Armor" xmlns="http://www.w3.org/2000/svg" xmlns:xlink="http://www.w3.org/1999/xlink" x="0px" y="0px"
	 width="612px" height="792px" viewBox="0 0 612 792" enable-background="new 0 0 612 792" xml:space="preserve">
<switch><g>
<path fill-rule="evenodd" clip-rule="evenodd" fill="none" stroke="#000000" stroke-width="0.504" stroke-miterlimit="2.4142" d="     M520.619,192.64c1.562-0.391,2.524-1.986,2.116-3.619c-0.388-1.563-1.984-2.522-3.55-2.132c-1.63,0.406-2.588,2.003-2.2,3.566     C517.394,192.087,518.99,193.046,520.619,192.64L520.619,192.64z"/>
<path fill-rule="evenodd" clip-rule="evenodd" fill="none" stroke="#000000" stroke-width="0.504" stroke-miterlimit="2.4142" d="     M532.751,241.284c1.562-0.39,2.521-1.986,2.113-3.619c-0.389-1.563-1.984-2.521-3.547-2.131c-1.63,0.406-2.592,2.003-2.203,3.565     C529.521,240.73,531.121,241.69,532.751,241.284L532.751,241.284z"/>
<path fill-rule="evenodd" clip-rule="evenodd" fill="none" stroke="#000000" stroke-width="0.504" stroke-miterlimit="2.4142" d="     M544.88,289.926c1.56-0.389,2.519-1.985,2.113-3.618c-0.392-1.562-1.987-2.52-3.55-2.13c-1.629,0.405-2.592,2.002-2.2,3.564     C541.651,289.375,543.247,290.334,544.88,289.926L544.88,289.926z"/>
</g></switch>
</svg>