<?xml version="1.0" encoding="utf-8"?>
<!DOCTYPE svg PUBLIC "-//W3C//DTD SVG 1.1//EN" "http://www.w3.org/Graphics/SVG/1.1/DTD/svg11.dtd">
<svg version="1.1" id="Armor" xmlns="http://www.w3.org/2000/svg" xmlns:xlink="http://www.w3.org/1999/xlink" x="0px" y="0px"
	 width="612px" height="792px" viewBox="0 0 612 792" enable-background="new 0 0 612 792" xml:space="preserve">
<switch><g>
<path fill="none" stroke="#000000" stroke-width="0.504" stroke-miterlimit="2.4142" d="M563.097,80.422     c1.662-0.146,2.929-1.651,2.779-3.313c-0.148-1.729-1.646-2.923-3.312-2.778c-1.729,0.151-3.002,1.589-2.851,3.318     C559.858,79.31,561.37,80.574,563.097,80.422L563.097,80.422z"/>
<path fill="none" stroke="#000000" stroke-width="0.504" stroke-miterlimit="2.4142" d="M551.802,81.411     c1.664-0.146,2.929-1.652,2.78-3.312c-0.148-1.729-1.646-2.925-3.313-2.78c-1.728,0.15-2.998,1.59-2.848,3.32     C548.569,80.3,550.073,81.562,551.802,81.411L551.802,81.411z"/>
<path fill="none" stroke="#000000" stroke-width="0.504" stroke-miterlimit="2.4142" d="M557.899,86.078     c1.661-0.143,2.929-1.651,2.78-3.312c-0.146-1.73-1.649-2.924-3.311-2.778c-1.73,0.149-3.002,1.586-2.85,3.318     C554.668,84.967,556.171,86.229,557.899,86.078L557.899,86.078z"/>
<path fill="none" stroke="#000000" stroke-width="0.504" stroke-miterlimit="2.4142" d="M564.001,90.747     c1.66-0.146,2.928-1.651,2.779-3.313c-0.15-1.729-1.647-2.924-3.313-2.779c-1.728,0.151-3.002,1.589-2.85,3.319     C560.763,89.634,562.274,90.898,564.001,90.747L564.001,90.747z"/>
<path fill="none" stroke="#000000" stroke-width="0.504" stroke-miterlimit="2.4142" d="M552.706,91.735     c1.662-0.146,2.928-1.651,2.779-3.312c-0.148-1.729-1.647-2.925-3.313-2.78c-1.727,0.15-2.998,1.59-2.847,3.321     C549.472,90.625,550.979,91.886,552.706,91.735L552.706,91.735z"/>
<path fill="none" stroke="#000000" stroke-width="0.504" stroke-miterlimit="2.4142" d="M558.802,96.402     c1.665-0.144,2.93-1.651,2.783-3.311c-0.147-1.732-1.65-2.925-3.309-2.779c-1.734,0.15-3.005,1.586-2.854,3.319     C555.569,95.292,557.073,96.554,558.802,96.402L558.802,96.402z"/>
<path fill="none" stroke="#000000" stroke-width="0.504" stroke-miterlimit="2.4142" d="M564.901,101.07     c1.664-0.143,2.93-1.651,2.782-3.311c-0.149-1.73-1.651-2.926-3.311-2.778c-1.733,0.15-3.006,1.586-2.852,3.317     C561.667,99.959,563.175,101.222,564.901,101.07L564.901,101.07z"/>
<path fill="none" stroke="#000000" stroke-width="0.504" stroke-miterlimit="2.4142" d="M553.604,102.059     c1.664-0.144,2.933-1.652,2.785-3.312c-0.147-1.732-1.653-2.925-3.313-2.779c-1.732,0.149-3,1.587-2.849,3.319     C550.372,100.948,551.878,102.209,553.604,102.059L553.604,102.059z"/>
<path fill="none" stroke="#000000" stroke-width="0.504" stroke-miterlimit="2.4142" d="M559.708,106.728     c1.664-0.146,2.924-1.652,2.78-3.313c-0.152-1.73-1.651-2.925-3.313-2.781c-1.727,0.152-2.999,1.59-2.848,3.32     C556.47,105.614,557.98,106.88,559.708,106.728L559.708,106.728z"/>
<path fill="none" stroke="#000000" stroke-width="0.504" stroke-miterlimit="2.4142" d="M565.808,111.396     c1.662-0.146,2.923-1.652,2.779-3.313c-0.152-1.731-1.65-2.925-3.313-2.781c-1.726,0.151-3,1.591-2.851,3.32     C562.565,110.282,564.079,111.548,565.808,111.396L565.808,111.396z"/>
<path fill="none" stroke="#000000" stroke-width="0.504" stroke-miterlimit="2.4142" d="M554.513,112.383     c1.66-0.145,2.927-1.65,2.779-3.312c-0.152-1.729-1.651-2.924-3.314-2.78c-1.727,0.152-2.997,1.588-2.846,3.32     C551.274,111.271,552.784,112.537,554.513,112.383L554.513,112.383z"/>
<path fill="none" stroke="#000000" stroke-width="0.504" stroke-miterlimit="2.4142" d="M560.614,117.051     c1.662-0.144,2.921-1.65,2.774-3.311c-0.149-1.731-1.649-2.926-3.313-2.78c-1.729,0.151-2.995,1.588-2.844,3.319     C557.379,115.938,558.882,117.204,560.614,117.051L560.614,117.051z"/>
<path fill="none" stroke="#000000" stroke-width="0.504" stroke-miterlimit="2.4142" d="M566.712,121.719     c1.662-0.145,2.924-1.652,2.779-3.312c-0.152-1.73-1.652-2.925-3.314-2.779c-1.729,0.152-3,1.588-2.85,3.319     C563.476,120.608,564.979,121.872,566.712,121.719L566.712,121.719z"/>
<path fill="none" stroke="#000000" stroke-width="0.504" stroke-miterlimit="2.4142" d="M555.415,122.708     c1.662-0.146,2.924-1.653,2.781-3.311c-0.15-1.73-1.654-2.926-3.32-2.78c-1.726,0.152-2.994,1.588-2.84,3.32     C552.183,121.597,553.685,122.86,555.415,122.708L555.415,122.708z"/>
<path fill="none" stroke="#000000" stroke-width="0.504" stroke-miterlimit="2.4142" d="M561.516,127.376     c1.659-0.146,2.926-1.652,2.779-3.313c-0.152-1.731-1.648-2.926-3.313-2.78c-1.73,0.151-3,1.588-2.849,3.319     C558.277,126.263,559.787,127.528,561.516,127.376L561.516,127.376z"/>
<path fill="none" stroke="#000000" stroke-width="0.504" stroke-miterlimit="2.4142" d="M567.612,132.044     c1.659-0.145,2.928-1.651,2.78-3.313c-0.151-1.732-1.647-2.927-3.313-2.781c-1.729,0.151-3.004,1.589-2.85,3.32     C564.376,130.932,565.886,132.197,567.612,132.044L567.612,132.044z"/>
<path fill="none" stroke="#000000" stroke-width="0.504" stroke-miterlimit="2.4142" d="M556.317,133.034     c1.659-0.146,2.928-1.652,2.784-3.314c-0.153-1.73-1.653-2.926-3.315-2.78c-1.73,0.152-3,1.589-2.849,3.32     C553.081,131.919,554.589,133.185,556.317,133.034L556.317,133.034z"/>
<path fill="none" stroke="#000000" stroke-width="0.504" stroke-miterlimit="2.4142" d="M562.416,137.701     c1.666-0.146,2.927-1.652,2.781-3.312c-0.15-1.732-1.65-2.926-3.315-2.781c-1.726,0.15-2.995,1.588-2.844,3.322     C559.182,136.588,560.688,137.852,562.416,137.701L562.416,137.701z"/>
<path fill="none" stroke="#000000" stroke-width="0.504" stroke-miterlimit="2.4142" d="M568.519,142.369     c1.662-0.145,2.925-1.65,2.777-3.311c-0.147-1.733-1.65-2.927-3.313-2.783c-1.728,0.153-2.998,1.589-2.849,3.322     C565.278,141.256,566.788,142.521,568.519,142.369L568.519,142.369z"/>
<path fill="none" stroke="#000000" stroke-width="0.504" stroke-miterlimit="2.4142" d="M557.224,143.357     c1.66-0.146,2.927-1.649,2.779-3.31c-0.15-1.733-1.652-2.927-3.315-2.783c-1.726,0.151-2.996,1.588-2.843,3.323     C553.987,142.246,555.493,143.509,557.224,143.357L557.224,143.357z"/>
<path fill="none" stroke="#000000" stroke-width="0.504" stroke-miterlimit="2.4142" d="M563.321,148.025     c1.663-0.145,2.924-1.651,2.777-3.312c-0.149-1.731-1.648-2.926-3.312-2.781c-1.729,0.152-2.999,1.59-2.846,3.322     C560.085,146.912,561.593,148.176,563.321,148.025L563.321,148.025z"/>
<path fill="none" stroke="#000000" stroke-width="0.504" stroke-miterlimit="2.4142" d="M569.419,152.693     c1.664-0.145,2.927-1.651,2.781-3.313c-0.152-1.73-1.648-2.924-3.313-2.78c-1.729,0.151-3.002,1.588-2.85,3.323     C566.184,151.58,567.692,152.844,569.419,152.693L569.419,152.693z"/>
<path fill="none" stroke="#000000" stroke-width="0.504" stroke-miterlimit="2.4142" d="M558.123,153.68     c1.663-0.145,2.928-1.65,2.784-3.311c-0.154-1.731-1.654-2.926-3.316-2.781c-1.729,0.151-3,1.588-2.844,3.32     C554.888,152.568,556.395,153.832,558.123,153.68L558.123,153.68z"/>
<path fill="none" stroke="#000000" stroke-width="0.504" stroke-miterlimit="2.4142" d="M564.224,158.349     c1.663-0.145,2.927-1.652,2.781-3.311c-0.154-1.733-1.651-2.927-3.313-2.782c-1.728,0.152-2.998,1.588-2.845,3.32     C560.987,157.235,562.495,158.5,564.224,158.349L564.224,158.349z"/>
<path fill="none" stroke="#000000" stroke-width="0.504" stroke-miterlimit="2.4142" d="M570.325,163.015     c1.66-0.144,2.922-1.65,2.776-3.31c-0.149-1.732-1.649-2.924-3.313-2.779c-1.725,0.149-3.001,1.586-2.848,3.32     C567.084,161.905,568.593,163.167,570.325,163.015L570.325,163.015z"/>
<path fill="none" stroke="#000000" stroke-width="0.504" stroke-miterlimit="2.4142" d="M559.029,164.003     c1.661-0.142,2.925-1.651,2.777-3.311c-0.146-1.731-1.649-2.925-3.313-2.778c-1.729,0.15-2.998,1.587-2.846,3.318     C555.792,162.891,557.298,164.156,559.029,164.003L559.029,164.003z"/>
<path fill="none" stroke="#000000" stroke-width="0.504" stroke-miterlimit="2.4142" d="M565.128,168.672     c1.662-0.145,2.924-1.651,2.78-3.312c-0.153-1.731-1.652-2.923-3.315-2.779c-1.726,0.151-2.996,1.588-2.844,3.32     C561.89,167.56,563.396,168.823,565.128,168.672L565.128,168.672z"/>
<path fill="none" stroke="#000000" stroke-width="0.504" stroke-miterlimit="2.4142" d="M571.229,173.341     c1.66-0.144,2.922-1.652,2.776-3.312c-0.149-1.732-1.649-2.925-3.313-2.78c-1.728,0.15-3,1.587-2.847,3.32     C567.986,172.229,569.495,173.494,571.229,173.341L571.229,173.341z"/>
<path fill="none" stroke="#000000" stroke-width="0.504" stroke-miterlimit="2.4142" d="M559.934,174.329     c1.659-0.143,2.924-1.651,2.778-3.312c-0.147-1.732-1.651-2.924-3.313-2.779c-1.729,0.15-2.996,1.588-2.845,3.319     C556.694,173.216,558.2,174.482,559.934,174.329L559.934,174.329z"/>
</g></switch>
</svg>