<?xml version="1.0" encoding="utf-8"?>
<!DOCTYPE svg PUBLIC "-//W3C//DTD SVG 1.1//EN" "http://www.w3.org/Graphics/SVG/1.1/DTD/svg11.dtd">
<svg version="1.1" id="Armor" xmlns="http://www.w3.org/2000/svg" xmlns:xlink="http://www.w3.org/1999/xlink" x="0px" y="0px"
	 width="612px" height="792px" viewBox="0 0 612 792" enable-background="new 0 0 612 792" xml:space="preserve">
<switch><g>
<path fill-rule="evenodd" clip-rule="evenodd" fill="none" stroke="#000000" stroke-width="0.504" stroke-miterlimit="2.4142" d="     M517.845,189.74c1.564-0.389,2.524-1.985,2.114-3.618c-0.39-1.562-1.985-2.521-3.548-2.13c-1.631,0.404-2.591,2-2.2,3.563     C514.618,189.188,516.215,190.148,517.845,189.74L517.845,189.74z"/>
<path fill-rule="evenodd" clip-rule="evenodd" fill="none" stroke="#000000" stroke-width="0.504" stroke-miterlimit="2.4142" d="     M524.502,192.859c1.558-0.392,2.521-1.986,2.11-3.619c-0.389-1.563-1.981-2.524-3.545-2.132     c-1.632,0.404-2.592,2.003-2.199,3.563C521.271,192.306,522.871,193.266,524.502,192.859L524.502,192.859z"/>
<path fill-rule="evenodd" clip-rule="evenodd" fill="none" stroke="#000000" stroke-width="0.504" stroke-miterlimit="2.4142" d="     M513.086,195.495c1.561-0.394,2.523-1.987,2.111-3.62c-0.386-1.563-1.98-2.523-3.545-2.131c-1.632,0.403-2.59,2.001-2.199,3.563     C509.858,194.94,511.457,195.899,513.086,195.495L513.086,195.495z"/>
<path fill-rule="evenodd" clip-rule="evenodd" fill="none" stroke="#000000" stroke-width="0.504" stroke-miterlimit="2.4142" d="     M519.886,198.578c1.563-0.388,2.523-1.984,2.113-3.617c-0.389-1.562-1.984-2.521-3.547-2.13     c-1.631,0.404-2.592,1.999-2.201,3.563C516.659,198.027,518.255,198.987,519.886,198.578L519.886,198.578z"/>
<path fill-rule="evenodd" clip-rule="evenodd" fill="none" stroke="#000000" stroke-width="0.504" stroke-miterlimit="2.4142" d="     M526.543,201.698c1.557-0.393,2.52-1.987,2.109-3.619c-0.389-1.563-1.981-2.524-3.545-2.132c-1.631,0.403-2.593,2.004-2.2,3.563     C523.311,201.144,524.911,202.104,526.543,201.698L526.543,201.698z"/>
<path fill-rule="evenodd" clip-rule="evenodd" fill="none" stroke="#000000" stroke-width="0.504" stroke-miterlimit="2.4142" d="     M515.127,204.333c1.56-0.393,2.524-1.987,2.112-3.62c-0.387-1.562-1.98-2.522-3.547-2.131c-1.632,0.404-2.589,2.002-2.198,3.564     C511.899,203.778,513.499,204.738,515.127,204.333L515.127,204.333z"/>
<path fill-rule="evenodd" clip-rule="evenodd" fill="none" stroke="#000000" stroke-width="0.504" stroke-miterlimit="2.4142" d="     M521.927,207.419c1.559-0.392,2.523-1.987,2.108-3.62c-0.383-1.563-1.979-2.523-3.546-2.132     c-1.627,0.405-2.588,2.003-2.195,3.564C518.694,206.865,520.296,207.823,521.927,207.419L521.927,207.419z"/>
<path fill-rule="evenodd" clip-rule="evenodd" fill="none" stroke="#000000" stroke-width="0.504" stroke-miterlimit="2.4142" d="     M528.725,210.503c1.56-0.392,2.521-1.985,2.114-3.62c-0.391-1.563-1.987-2.52-3.548-2.13c-1.632,0.405-2.592,2.003-2.201,3.564     C525.495,209.948,527.097,210.907,528.725,210.503L528.725,210.503z"/>
<path fill-rule="evenodd" clip-rule="evenodd" fill="none" stroke="#000000" stroke-width="0.504" stroke-miterlimit="2.4142" d="     M517.308,213.139c1.563-0.392,2.521-1.989,2.116-3.621c-0.392-1.562-1.984-2.521-3.548-2.129     c-1.633,0.403-2.591,2.001-2.203,3.563C514.081,212.583,515.682,213.543,517.308,213.139L517.308,213.139z"/>
<path fill-rule="evenodd" clip-rule="evenodd" fill="none" stroke="#000000" stroke-width="0.504" stroke-miterlimit="2.4142" d="     M523.967,216.256c1.563-0.391,2.524-1.987,2.114-3.621c-0.389-1.562-1.982-2.518-3.549-2.127     c-1.631,0.404-2.588,2.001-2.199,3.563C520.74,215.702,522.339,216.661,523.967,216.256L523.967,216.256z"/>
<path fill-rule="evenodd" clip-rule="evenodd" fill="none" stroke="#000000" stroke-width="0.504" stroke-miterlimit="2.4142" d="     M530.906,219.31c1.56-0.389,2.522-1.986,2.115-3.621c-0.388-1.563-1.988-2.519-3.55-2.131c-1.631,0.407-2.588,2.005-2.203,3.564     C527.683,218.757,529.276,219.715,530.906,219.31L530.906,219.31z"/>
<path fill-rule="evenodd" clip-rule="evenodd" fill="none" stroke="#000000" stroke-width="0.504" stroke-miterlimit="2.4142" d="     M519.492,221.944c1.562-0.389,2.524-1.987,2.117-3.619c-0.388-1.562-1.988-2.521-3.552-2.132     c-1.628,0.407-2.588,2.005-2.201,3.565C516.267,221.392,517.862,222.352,519.492,221.944L519.492,221.944z"/>
<path fill-rule="evenodd" clip-rule="evenodd" fill="none" stroke="#000000" stroke-width="0.504" stroke-miterlimit="2.4142" d="     M526.007,225.096c1.562-0.388,2.527-1.986,2.115-3.62c-0.387-1.561-1.983-2.52-3.549-2.133c-1.627,0.408-2.588,2.007-2.201,3.566     C522.782,224.544,524.381,225.503,526.007,225.096L526.007,225.096z"/>
<path fill-rule="evenodd" clip-rule="evenodd" fill="none" stroke="#000000" stroke-width="0.504" stroke-miterlimit="2.4142" d="     M533.091,228.114c1.562-0.392,2.521-1.986,2.114-3.62c-0.391-1.561-1.987-2.521-3.553-2.129c-1.628,0.406-2.587,1.999-2.197,3.56     C529.86,227.563,531.457,228.52,533.091,228.114L533.091,228.114z"/>
<path fill-rule="evenodd" clip-rule="evenodd" fill="none" stroke="#000000" stroke-width="0.504" stroke-miterlimit="2.4142" d="     M521.677,230.749c1.565-0.389,2.521-1.984,2.114-3.62c-0.389-1.56-1.988-2.519-3.551-2.129c-1.628,0.407-2.586,2.001-2.198,3.562     C518.447,230.198,520.042,231.155,521.677,230.749L521.677,230.749z"/>
<path fill-rule="evenodd" clip-rule="evenodd" fill="none" stroke="#000000" stroke-width="0.504" stroke-miterlimit="2.4142" d="     M528.048,233.934c1.566-0.394,2.524-1.988,2.115-3.623c-0.389-1.559-1.986-2.521-3.55-2.128c-1.626,0.405-2.588,2-2.2,3.563     C524.819,233.381,526.417,234.338,528.048,233.934L528.048,233.934z"/>
<path fill-rule="evenodd" clip-rule="evenodd" fill="none" stroke="#000000" stroke-width="0.504" stroke-miterlimit="2.4142" d="     M535.271,236.921c1.56-0.392,2.521-1.987,2.117-3.62c-0.394-1.561-1.988-2.521-3.551-2.132c-1.631,0.407-2.591,2.001-2.2,3.564     C532.041,236.368,533.639,237.328,535.271,236.921L535.271,236.921z"/>
<path fill-rule="evenodd" clip-rule="evenodd" fill="none" stroke="#000000" stroke-width="0.504" stroke-miterlimit="2.4142" d="     M523.854,239.557c1.561-0.389,2.523-1.985,2.119-3.62c-0.394-1.563-1.987-2.519-3.55-2.132c-1.631,0.408-2.592,2.001-2.202,3.565     C520.627,239.004,522.225,239.965,523.854,239.557L523.854,239.557z"/>
<path fill-rule="evenodd" clip-rule="evenodd" fill="none" stroke="#000000" stroke-width="0.504" stroke-miterlimit="2.4142" d="     M530.654,242.642c1.562-0.391,2.523-1.989,2.116-3.621c-0.393-1.563-1.986-2.521-3.549-2.13c-1.629,0.404-2.591,2-2.2,3.563     C527.426,242.086,529.023,243.046,530.654,242.642L530.654,242.642z"/>
<path fill-rule="evenodd" clip-rule="evenodd" fill="none" stroke="#000000" stroke-width="0.504" stroke-miterlimit="2.4142" d="     M537.456,245.724c1.563-0.387,2.521-1.982,2.111-3.617c-0.389-1.56-1.987-2.52-3.548-2.129c-1.627,0.405-2.593,2.005-2.199,3.564     C534.228,245.175,535.823,246.136,537.456,245.724L537.456,245.724z"/>
<path fill-rule="evenodd" clip-rule="evenodd" fill="none" stroke="#000000" stroke-width="0.504" stroke-miterlimit="2.4142" d="     M526.044,248.36c1.559-0.389,2.52-1.984,2.11-3.619c-0.393-1.56-1.988-2.52-3.55-2.129c-1.627,0.404-2.589,2.003-2.199,3.564     C522.812,247.809,524.408,248.769,526.044,248.36L526.044,248.36z"/>
<path fill-rule="evenodd" clip-rule="evenodd" fill="none" stroke="#000000" stroke-width="0.504" stroke-miterlimit="2.4142" d="     M532.841,251.445c1.562-0.387,2.522-1.985,2.111-3.616c-0.39-1.562-1.986-2.521-3.55-2.132c-1.627,0.406-2.589,2.005-2.197,3.565     C529.611,250.895,531.208,251.856,532.841,251.445L532.841,251.445z"/>
<path fill-rule="evenodd" clip-rule="evenodd" fill="none" stroke="#000000" stroke-width="0.504" stroke-miterlimit="2.4142" d="     M539.638,254.531c1.563-0.39,2.521-1.986,2.113-3.618c-0.392-1.563-1.988-2.521-3.551-2.132     c-1.629,0.404-2.588,2.005-2.197,3.563C536.407,253.979,538.007,254.94,539.638,254.531L539.638,254.531z"/>
<path fill-rule="evenodd" clip-rule="evenodd" fill="none" stroke="#000000" stroke-width="0.504" stroke-miterlimit="2.4142" d="     M528.224,257.167c1.564-0.392,2.523-1.989,2.113-3.619c-0.391-1.563-1.986-2.523-3.549-2.131     c-1.631,0.403-2.59,2.004-2.198,3.563C524.993,256.615,526.591,257.574,528.224,257.167L528.224,257.167z"/>
<path fill-rule="evenodd" clip-rule="evenodd" fill="none" stroke="#000000" stroke-width="0.504" stroke-miterlimit="2.4142" d="     M535.021,260.251c1.566-0.389,2.523-1.985,2.114-3.617c-0.389-1.563-1.986-2.521-3.549-2.131     c-1.631,0.402-2.589,2.004-2.198,3.562C531.791,259.7,533.392,260.658,535.021,260.251L535.021,260.251z"/>
<path fill-rule="evenodd" clip-rule="evenodd" fill="none" stroke="#000000" stroke-width="0.504" stroke-miterlimit="2.4142" d="     M541.821,263.336c1.56-0.39,2.521-1.985,2.11-3.617c-0.39-1.563-1.989-2.523-3.55-2.13c-1.627,0.403-2.587,2.003-2.199,3.562     C538.591,262.784,540.188,263.743,541.821,263.336L541.821,263.336z"/>
<path fill-rule="evenodd" clip-rule="evenodd" fill="none" stroke="#000000" stroke-width="0.504" stroke-miterlimit="2.4142" d="     M530.407,265.972c1.563-0.391,2.521-1.986,2.113-3.617c-0.393-1.563-1.988-2.522-3.551-2.131     c-1.629,0.404-2.59,2.004-2.199,3.563C527.177,265.419,528.774,266.379,530.407,265.972L530.407,265.972z"/>
<path fill-rule="evenodd" clip-rule="evenodd" fill="none" stroke="#000000" stroke-width="0.504" stroke-miterlimit="2.4142" d="     M537.206,269.057c1.56-0.388,2.518-1.986,2.109-3.617c-0.39-1.563-1.985-2.521-3.547-2.132c-1.632,0.407-2.591,2.006-2.198,3.563     C533.976,268.505,535.575,269.464,537.206,269.057L537.206,269.057z"/>
<path fill-rule="evenodd" clip-rule="evenodd" fill="none" stroke="#000000" stroke-width="0.504" stroke-miterlimit="2.4142" d="     M544.007,272.142c1.562-0.39,2.518-1.986,2.111-3.619c-0.393-1.562-1.99-2.52-3.549-2.13c-1.633,0.405-2.594,2.004-2.201,3.563     C540.776,271.589,542.372,272.549,544.007,272.142L544.007,272.142z"/>
<path fill-rule="evenodd" clip-rule="evenodd" fill="none" stroke="#000000" stroke-width="0.504" stroke-miterlimit="2.4142" d="     M532.591,274.776c1.564-0.389,2.52-1.984,2.109-3.618c-0.388-1.563-1.984-2.521-3.545-2.13c-1.631,0.402-2.591,2.004-2.201,3.563     C529.36,274.224,530.958,275.184,532.591,274.776L532.591,274.776z"/>
<path fill-rule="evenodd" clip-rule="evenodd" fill="none" stroke="#000000" stroke-width="0.504" stroke-miterlimit="2.4142" d="     M539.391,277.862c1.562-0.389,2.519-1.986,2.111-3.619c-0.391-1.562-1.987-2.521-3.547-2.131     c-1.635,0.406-2.594,2.004-2.203,3.563C536.16,277.31,537.757,278.271,539.391,277.862L539.391,277.862z"/>
<path fill-rule="evenodd" clip-rule="evenodd" fill="none" stroke="#000000" stroke-width="0.504" stroke-miterlimit="2.4142" d="     M546.187,280.947c1.559-0.39,2.52-1.987,2.113-3.617c-0.395-1.564-1.986-2.522-3.552-2.131c-1.63,0.405-2.591,2.004-2.198,3.563     C542.956,280.395,544.552,281.356,546.187,280.947L546.187,280.947z"/>
<path fill-rule="evenodd" clip-rule="evenodd" fill="none" stroke="#000000" stroke-width="0.504" stroke-miterlimit="2.4142" d="     M534.771,283.583c1.562-0.392,2.522-1.986,2.116-3.619c-0.394-1.561-1.988-2.518-3.555-2.13     c-1.625,0.403-2.591,2.005-2.199,3.563C531.54,283.03,533.142,283.99,534.771,283.583L534.771,283.583z"/>
<path fill-rule="evenodd" clip-rule="evenodd" fill="none" stroke="#000000" stroke-width="0.504" stroke-miterlimit="2.4142" d="     M541.57,286.668c1.563-0.389,2.521-1.985,2.112-3.618c-0.391-1.563-1.985-2.52-3.55-2.131c-1.63,0.405-2.591,2.005-2.199,3.563     C538.343,286.116,539.939,287.077,541.57,286.668L541.57,286.668z"/>
<path fill-rule="evenodd" clip-rule="evenodd" fill="none" stroke="#000000" stroke-width="0.504" stroke-miterlimit="2.4142" d="     M548.368,289.753c1.562-0.387,2.523-1.984,2.113-3.617c-0.388-1.562-1.986-2.518-3.549-2.131     c-1.627,0.408-2.592,2.002-2.198,3.563C545.142,289.202,546.735,290.164,548.368,289.753L548.368,289.753z"/>
<path fill-rule="evenodd" clip-rule="evenodd" fill="none" stroke="#000000" stroke-width="0.504" stroke-miterlimit="2.4142" d="     M536.955,292.388c1.563-0.388,2.522-1.985,2.112-3.617c-0.39-1.561-1.984-2.519-3.551-2.13c-1.627,0.405-2.589,2.003-2.197,3.564     C533.728,291.838,535.323,292.798,536.955,292.388L536.955,292.388z"/>
<path fill-rule="evenodd" clip-rule="evenodd" fill="none" stroke="#000000" stroke-width="0.504" stroke-miterlimit="2.4142" d="     M543.753,295.473c1.563-0.389,2.521-1.986,2.113-3.618c-0.39-1.563-1.986-2.521-3.549-2.13c-1.63,0.404-2.593,2.001-2.199,3.562     C540.525,294.92,542.122,295.88,543.753,295.473L543.753,295.473z"/>
<path fill-rule="evenodd" clip-rule="evenodd" fill="none" stroke="#000000" stroke-width="0.504" stroke-miterlimit="2.4142" d="     M550.55,298.558c1.563-0.389,2.52-1.984,2.113-3.617c-0.39-1.563-1.985-2.519-3.549-2.129c-1.63,0.403-2.59,2-2.199,3.562     C547.323,298.008,548.919,298.967,550.55,298.558L550.55,298.558z"/>
<path fill-rule="evenodd" clip-rule="evenodd" fill="none" stroke="#000000" stroke-width="0.504" stroke-miterlimit="2.4142" d="     M539.138,301.193c1.563-0.389,2.523-1.986,2.113-3.618c-0.39-1.562-1.986-2.521-3.551-2.129c-1.627,0.403-2.591,2-2.201,3.563     C535.907,300.643,537.505,301.603,539.138,301.193L539.138,301.193z"/>
</g></switch>
</svg>