<?xml version="1.0" encoding="utf-8"?>
<!DOCTYPE svg PUBLIC "-//W3C//DTD SVG 1.1//EN" "http://www.w3.org/Graphics/SVG/1.1/DTD/svg11.dtd">
<svg version="1.1" id="Armor" xmlns="http://www.w3.org/2000/svg" xmlns:xlink="http://www.w3.org/1999/xlink" x="0px" y="0px"
	 width="612px" height="792px" viewBox="0 0 612 792" enable-background="new 0 0 612 792" xml:space="preserve">
<switch><g>
<path fill-rule="evenodd" clip-rule="evenodd" fill="none" stroke="#000000" stroke-width="0.504" stroke-miterlimit="2.4142" d="     M525.899,189.627c1.563-0.389,2.516-1.983,2.111-3.617c-0.389-1.563-1.989-2.519-3.553-2.131     c-1.625,0.408-2.586,2.005-2.195,3.563C522.665,189.077,524.265,190.038,525.899,189.627L525.899,189.627z"/>
<path fill-rule="evenodd" clip-rule="evenodd" fill="none" stroke="#000000" stroke-width="0.504" stroke-miterlimit="2.4142" d="     M514.483,192.263c1.564-0.39,2.518-1.983,2.113-3.618c-0.39-1.563-1.99-2.518-3.553-2.131c-1.625,0.409-2.586,2.005-2.197,3.563     C511.249,191.712,512.851,192.671,514.483,192.263L514.483,192.263z"/>
<path fill-rule="evenodd" clip-rule="evenodd" fill="none" stroke="#000000" stroke-width="0.504" stroke-miterlimit="2.4142" d="     M521.985,198.724c1.563-0.393,2.521-1.984,2.11-3.621c-0.391-1.558-1.984-2.518-3.549-2.132c-1.624,0.41-2.587,2.005-2.201,3.565     C518.75,198.173,520.349,199.127,521.985,198.724L521.985,198.724z"/>
<path fill-rule="evenodd" clip-rule="evenodd" fill="none" stroke="#000000" stroke-width="0.504" stroke-miterlimit="2.4142" d="     M529.481,205.183c1.563-0.391,2.521-1.985,2.119-3.62c-0.392-1.563-1.986-2.519-3.549-2.132     c-1.629,0.409-2.592,2.001-2.199,3.566C526.256,204.63,527.854,205.589,529.481,205.183L529.481,205.183z"/>
<path fill-rule="evenodd" clip-rule="evenodd" fill="none" stroke="#000000" stroke-width="0.504" stroke-miterlimit="2.4142" d="     M518.069,207.816c1.563-0.389,2.52-1.983,2.118-3.62c-0.392-1.561-1.986-2.518-3.548-2.131c-1.632,0.409-2.592,2.001-2.203,3.565     C514.843,207.264,516.439,208.225,518.069,207.816L518.069,207.816z"/>
<path fill-rule="evenodd" clip-rule="evenodd" fill="none" stroke="#000000" stroke-width="0.504" stroke-miterlimit="2.4142" d="     M525.575,214.275c1.562-0.39,2.519-1.986,2.111-3.617c-0.393-1.563-1.982-2.521-3.547-2.133     c-1.629,0.406-2.589,2.002-2.201,3.564C522.343,213.722,523.941,214.683,525.575,214.275L525.575,214.275z"/>
<path fill-rule="evenodd" clip-rule="evenodd" fill="none" stroke="#000000" stroke-width="0.504" stroke-miterlimit="2.4142" d="     M533.079,220.73c1.561-0.385,2.518-1.982,2.112-3.616c-0.392-1.559-1.985-2.521-3.548-2.128     c-1.631,0.402-2.592,2.003-2.203,3.564C529.849,220.185,531.446,221.145,533.079,220.73L533.079,220.73z"/>
<path fill-rule="evenodd" clip-rule="evenodd" fill="none" stroke="#000000" stroke-width="0.504" stroke-miterlimit="2.4142" d="     M521.666,223.366c1.56-0.386,2.517-1.981,2.11-3.615c-0.39-1.56-1.982-2.522-3.547-2.13c-1.632,0.403-2.594,2.004-2.202,3.564     C518.435,222.819,520.03,223.779,521.666,223.366L521.666,223.366z"/>
<path fill-rule="evenodd" clip-rule="evenodd" fill="none" stroke="#000000" stroke-width="0.504" stroke-miterlimit="2.4142" d="     M529.167,229.824c1.564-0.385,2.52-1.981,2.109-3.611c-0.389-1.563-1.982-2.524-3.547-2.132     c-1.628,0.402-2.589,2.003-2.196,3.565C525.937,229.279,527.534,230.238,529.167,229.824L529.167,229.824z"/>
<path fill-rule="evenodd" clip-rule="evenodd" fill="none" stroke="#000000" stroke-width="0.504" stroke-miterlimit="2.4142" d="     M536.669,236.286c1.563-0.389,2.523-1.986,2.113-3.617c-0.393-1.565-1.986-2.523-3.547-2.133     c-1.635,0.406-2.592,2.004-2.199,3.563C533.437,235.736,535.035,236.695,536.669,236.286L536.669,236.286z"/>
<path fill-rule="evenodd" clip-rule="evenodd" fill="none" stroke="#000000" stroke-width="0.504" stroke-miterlimit="2.4142" d="     M525.254,238.922c1.565-0.391,2.522-1.986,2.114-3.616c-0.391-1.566-1.984-2.525-3.548-2.134c-1.632,0.405-2.591,2.003-2.2,3.563     C522.022,238.372,523.622,239.33,525.254,238.922L525.254,238.922z"/>
<path fill-rule="evenodd" clip-rule="evenodd" fill="none" stroke="#000000" stroke-width="0.504" stroke-miterlimit="2.4142" d="     M532.762,245.38c1.562-0.391,2.514-1.984,2.106-3.614c-0.389-1.563-1.984-2.525-3.547-2.135c-1.631,0.407-2.59,2.003-2.201,3.563     C529.524,244.832,531.126,245.788,532.762,245.38L532.762,245.38z"/>
<path fill-rule="evenodd" clip-rule="evenodd" fill="none" stroke="#000000" stroke-width="0.504" stroke-miterlimit="2.4142" d="     M540.263,251.838c1.563-0.388,2.521-1.982,2.11-3.614c-0.39-1.565-1.984-2.521-3.545-2.134c-1.63,0.407-2.593,2.006-2.2,3.567     C537.034,251.287,538.634,252.25,540.263,251.838L540.263,251.838z"/>
<path fill-rule="evenodd" clip-rule="evenodd" fill="none" stroke="#000000" stroke-width="0.504" stroke-miterlimit="2.4142" d="     M528.845,254.474c1.563-0.386,2.521-1.984,2.112-3.613c-0.392-1.565-1.985-2.523-3.546-2.135     c-1.631,0.407-2.594,2.006-2.201,3.566C525.616,253.922,527.216,254.885,528.845,254.474L528.845,254.474z"/>
<path fill-rule="evenodd" clip-rule="evenodd" fill="none" stroke="#000000" stroke-width="0.504" stroke-miterlimit="2.4142" d="     M536.349,260.934c1.566-0.389,2.517-1.983,2.112-3.617c-0.392-1.565-1.986-2.522-3.55-2.132     c-1.632,0.407-2.588,2.005-2.199,3.565C533.121,260.382,534.715,261.343,536.349,260.934L536.349,260.934z"/>
<path fill-rule="evenodd" clip-rule="evenodd" fill="none" stroke="#000000" stroke-width="0.504" stroke-miterlimit="2.4142" d="     M543.849,267.393c1.563-0.389,2.523-1.986,2.115-3.617c-0.393-1.566-1.988-2.52-3.552-2.132c-1.628,0.404-2.592,2.005-2.2,3.562     C540.615,266.839,542.216,267.799,543.849,267.393L543.849,267.393z"/>
<path fill-rule="evenodd" clip-rule="evenodd" fill="none" stroke="#000000" stroke-width="0.504" stroke-miterlimit="2.4142" d="     M532.438,270.027c1.562-0.39,2.522-1.986,2.114-3.617c-0.393-1.564-1.988-2.519-3.55-2.132c-1.631,0.404-2.592,2.005-2.203,3.563     C529.204,269.475,530.803,270.436,532.438,270.027L532.438,270.027z"/>
<path fill-rule="evenodd" clip-rule="evenodd" fill="none" stroke="#000000" stroke-width="0.504" stroke-miterlimit="2.4142" d="     M539.94,276.485c1.56-0.388,2.514-1.985,2.112-3.616c-0.392-1.564-1.989-2.522-3.548-2.131c-1.637,0.405-2.595,2.005-2.202,3.563     C536.71,275.936,538.306,276.896,539.94,276.485L539.94,276.485z"/>
<path fill-rule="evenodd" clip-rule="evenodd" fill="none" stroke="#000000" stroke-width="0.504" stroke-miterlimit="2.4142" d="     M547.438,282.945c1.563-0.389,2.522-1.984,2.116-3.621c-0.392-1.558-1.988-2.517-3.552-2.127     c-1.632,0.406-2.594,2.003-2.201,3.565C544.21,282.394,545.807,283.354,547.438,282.945L547.438,282.945z"/>
<path fill-rule="evenodd" clip-rule="evenodd" fill="none" stroke="#000000" stroke-width="0.504" stroke-miterlimit="2.4142" d="     M536.028,285.579c1.563-0.387,2.522-1.983,2.114-3.619c-0.392-1.558-1.989-2.517-3.552-2.128c-1.631,0.406-2.594,2.004-2.2,3.565     C532.798,285.029,534.393,285.989,536.028,285.579L536.028,285.579z"/>
<path fill-rule="evenodd" clip-rule="evenodd" fill="none" stroke="#000000" stroke-width="0.504" stroke-miterlimit="2.4142" d="     M543.527,292.042c1.563-0.39,2.526-1.986,2.113-3.621c-0.386-1.562-1.981-2.518-3.55-2.132c-1.627,0.407-2.591,2.006-2.201,3.565     C540.302,291.487,541.899,292.447,543.527,292.042L543.527,292.042z"/>
<path fill-rule="evenodd" clip-rule="evenodd" fill="none" stroke="#000000" stroke-width="0.504" stroke-miterlimit="2.4142" d="     M551.032,298.498c1.563-0.387,2.521-1.986,2.112-3.62c-0.391-1.559-1.985-2.517-3.552-2.128c-1.625,0.405-2.59,1.998-2.197,3.563     C547.802,297.947,549.399,298.907,551.032,298.498L551.032,298.498z"/>
<path fill-rule="evenodd" clip-rule="evenodd" fill="none" stroke="#000000" stroke-width="0.504" stroke-miterlimit="2.4142" d="     M539.617,301.133c1.563-0.386,2.523-1.986,2.116-3.619c-0.391-1.559-1.988-2.518-3.551-2.129c-1.629,0.406-2.592,2-2.201,3.563     C536.389,300.583,537.987,301.543,539.617,301.133L539.617,301.133z"/>
</g></switch>
</svg>