<?xml version="1.0" encoding="utf-8"?>
<!DOCTYPE svg PUBLIC "-//W3C//DTD SVG 1.1//EN" "http://www.w3.org/Graphics/SVG/1.1/DTD/svg11.dtd">
<svg version="1.1" id="Armor" xmlns="http://www.w3.org/2000/svg" xmlns:xlink="http://www.w3.org/1999/xlink" x="0px" y="0px"
	 width="612px" height="792px" viewBox="0 0 612 792" enable-background="new 0 0 612 792" xml:space="preserve">
<switch><g>
<path fill="none" stroke="#000000" stroke-width="0.504" stroke-miterlimit="2.4142" d="M423.5,109.95     c-1.663-0.144-2.93-1.652-2.783-3.312c0.149-1.732,1.653-2.925,3.313-2.779c1.732,0.15,3.004,1.587,2.851,3.319     C426.733,108.839,425.229,110.103,423.5,109.95L423.5,109.95z"/>
<path fill="none" stroke="#000000" stroke-width="0.504" stroke-miterlimit="2.4142" d="M419.877,151.321     c-1.661-0.145-2.925-1.652-2.779-3.312c0.151-1.732,1.651-2.925,3.313-2.78c1.729,0.151,3,1.588,2.847,3.32     C423.115,150.208,421.607,151.473,419.877,151.321L419.877,151.321z"/>
</g></switch>
</svg>