<?xml version="1.0" encoding="utf-8"?>
<!DOCTYPE svg PUBLIC "-//W3C//DTD SVG 1.1//EN" "http://www.w3.org/Graphics/SVG/1.1/DTD/svg11.dtd">
<svg version="1.1" id="Armor" xmlns="http://www.w3.org/2000/svg" xmlns:xlink="http://www.w3.org/1999/xlink" x="0px" y="0px"
	 width="612px" height="792px" viewBox="0 0 612 792" enable-background="new 0 0 612 792" xml:space="preserve">
<switch><g>
<path fill-rule="evenodd" clip-rule="evenodd" fill="none" stroke="#000000" stroke-width="0.504" stroke-miterlimit="2.4142" d="     M425.158,87.577c-1.662-0.144-2.93-1.652-2.783-3.312c0.148-1.731,1.652-2.925,3.311-2.779c1.732,0.15,3.004,1.587,2.85,3.319     C428.389,86.465,426.887,87.728,425.158,87.577L425.158,87.577z"/>
<path fill-rule="evenodd" clip-rule="evenodd" fill="none" stroke="#000000" stroke-width="0.504" stroke-miterlimit="2.4142" d="      M419.483,92.854c-1.659-0.146-2.928-1.652-2.778-3.313c0.149-1.73,1.646-2.925,3.313-2.78c1.728,0.151,3.001,1.589,2.85,3.32      C422.722,91.741,421.21,93.004,419.483,92.854L419.483,92.854z"/>
<path fill-rule="evenodd" clip-rule="evenodd" fill="none" stroke="#000000" stroke-width="0.504" stroke-miterlimit="2.4142" d="      M430.778,93.842c-1.661-0.146-2.928-1.652-2.779-3.312c0.149-1.73,1.647-2.925,3.313-2.781c1.727,0.152,2.998,1.59,2.848,3.322      C434.014,92.731,432.507,93.992,430.778,93.842L430.778,93.842z"/>
<path fill-rule="evenodd" clip-rule="evenodd" fill="none" stroke="#000000" stroke-width="0.504" stroke-miterlimit="2.4142" d="     M424.173,99.115c-1.662-0.144-2.928-1.651-2.783-3.311c0.148-1.731,1.653-2.925,3.311-2.779c1.732,0.15,3.004,1.587,2.852,3.319     C427.405,98.005,425.901,99.268,424.173,99.115L424.173,99.115z"/>
<path fill-rule="evenodd" clip-rule="evenodd" fill="none" stroke="#000000" stroke-width="0.504" stroke-miterlimit="2.4142" d="      M417.597,104.39c-1.663-0.143-2.93-1.652-2.784-3.312c0.15-1.73,1.654-2.925,3.313-2.779c1.732,0.15,3.004,1.587,2.852,3.319      C420.831,103.279,419.324,104.542,417.597,104.39L417.597,104.39z"/>
<path fill-rule="evenodd" clip-rule="evenodd" fill="none" stroke="#000000" stroke-width="0.504" stroke-miterlimit="2.4142" d="      M428.894,105.378c-1.665-0.144-2.931-1.652-2.786-3.312c0.149-1.731,1.656-2.925,3.316-2.779c1.73,0.15,2.999,1.587,2.848,3.319      C432.126,104.267,430.621,105.53,428.894,105.378L428.894,105.378z"/>
<path fill-rule="evenodd" clip-rule="evenodd" fill="none" stroke="#000000" stroke-width="0.504" stroke-miterlimit="2.4142" d="     M423.187,110.655c-1.665-0.145-2.926-1.652-2.781-3.312c0.151-1.731,1.651-2.925,3.313-2.781c1.729,0.151,2.998,1.589,2.848,3.32     C426.425,109.542,424.913,110.806,423.187,110.655L423.187,110.655z"/>
<path fill-rule="evenodd" clip-rule="evenodd" fill="none" stroke="#000000" stroke-width="0.504" stroke-miterlimit="2.4142" d="      M416.533,115.931c-1.662-0.145-2.922-1.651-2.779-3.312c0.152-1.73,1.652-2.925,3.314-2.781c1.727,0.151,3,1.59,2.85,3.32      C419.775,114.818,418.264,116.083,416.533,115.931L416.533,115.931z"/>
<path fill-rule="evenodd" clip-rule="evenodd" fill="none" stroke="#000000" stroke-width="0.504" stroke-miterlimit="2.4142" d="      M427.829,116.918c-1.661-0.144-2.927-1.649-2.78-3.311c0.152-1.73,1.652-2.924,3.314-2.78c1.729,0.15,3,1.588,2.848,3.32      C431.067,115.807,429.559,117.072,427.829,116.918L427.829,116.918z"/>
<path fill-rule="evenodd" clip-rule="evenodd" fill="none" stroke="#000000" stroke-width="0.504" stroke-miterlimit="2.4142" d="     M422.199,122.194c-1.661-0.144-2.921-1.651-2.776-3.311c0.151-1.731,1.651-2.926,3.314-2.781     c1.729,0.152,2.996,1.589,2.845,3.321C425.435,121.082,423.932,122.348,422.199,122.194L422.199,122.194z"/>
<path fill-rule="evenodd" clip-rule="evenodd" fill="none" stroke="#000000" stroke-width="0.504" stroke-miterlimit="2.4142" d="      M416.306,127.468c-1.66-0.145-2.922-1.651-2.777-3.311c0.152-1.73,1.652-2.925,3.313-2.779c1.73,0.152,3.002,1.588,2.85,3.319      C419.542,126.358,418.038,127.621,416.306,127.468L416.306,127.468z"/>
<path fill-rule="evenodd" clip-rule="evenodd" fill="none" stroke="#000000" stroke-width="0.504" stroke-miterlimit="2.4142" d="      M427.603,128.458c-1.66-0.145-2.924-1.652-2.781-3.311c0.152-1.73,1.654-2.926,3.32-2.78c1.727,0.152,2.996,1.589,2.842,3.32      C430.837,127.347,429.335,128.61,427.603,128.458L427.603,128.458z"/>
<path fill-rule="evenodd" clip-rule="evenodd" fill="none" stroke="#000000" stroke-width="0.504" stroke-miterlimit="2.4142" d="     M421.219,133.735c-1.659-0.146-2.925-1.653-2.78-3.313c0.153-1.732,1.65-2.926,3.313-2.781c1.73,0.15,3,1.59,2.848,3.32     C424.456,132.622,422.947,133.886,421.219,133.735L421.219,133.735z"/>
<path fill-rule="evenodd" clip-rule="evenodd" fill="none" stroke="#000000" stroke-width="0.504" stroke-miterlimit="2.4142" d="      M415.251,139.012c-1.66-0.146-2.928-1.651-2.781-3.313c0.152-1.731,1.65-2.926,3.313-2.78c1.73,0.151,3.004,1.588,2.85,3.319      C418.487,137.899,416.978,139.163,415.251,139.012L415.251,139.012z"/>
<path fill-rule="evenodd" clip-rule="evenodd" fill="none" stroke="#000000" stroke-width="0.504" stroke-miterlimit="2.4142" d="      M426.546,140c-1.66-0.146-2.928-1.651-2.783-3.313c0.152-1.731,1.652-2.925,3.314-2.78c1.729,0.153,3,1.589,2.85,3.32      C429.782,138.887,428.274,140.151,426.546,140L426.546,140z"/>
<path fill-rule="evenodd" clip-rule="evenodd" fill="none" stroke="#000000" stroke-width="0.504" stroke-miterlimit="2.4142" d="     M420.237,145.275c-1.665-0.146-2.927-1.651-2.78-3.312c0.15-1.731,1.65-2.925,3.314-2.78c1.727,0.151,2.995,1.588,2.844,3.321     C423.472,144.163,421.967,145.427,420.237,145.275L420.237,145.275z"/>
<path fill-rule="evenodd" clip-rule="evenodd" fill="none" stroke="#000000" stroke-width="0.504" stroke-miterlimit="2.4142" d="      M414.193,150.554c-1.664-0.146-2.926-1.651-2.778-3.312c0.149-1.733,1.65-2.928,3.313-2.783      c1.727,0.152,2.999,1.589,2.848,3.323C417.432,149.441,415.923,150.705,414.193,150.554L414.193,150.554z"/>
<path fill-rule="evenodd" clip-rule="evenodd" fill="none" stroke="#000000" stroke-width="0.504" stroke-miterlimit="2.4142" d="      M425.488,151.541c-1.662-0.145-2.926-1.649-2.781-3.31c0.15-1.732,1.653-2.927,3.316-2.783c1.726,0.151,2.996,1.589,2.844,3.323      C428.725,150.431,427.219,151.693,425.488,151.541L425.488,151.541z"/>
<path fill-rule="evenodd" clip-rule="evenodd" fill="none" stroke="#000000" stroke-width="0.504" stroke-miterlimit="2.4142" d="     M419.255,156.816c-1.663-0.144-2.927-1.65-2.78-3.311c0.152-1.73,1.65-2.925,3.313-2.78c1.729,0.151,3,1.589,2.846,3.32     C422.49,155.704,420.982,156.968,419.255,156.816L419.255,156.816z"/>
<path fill-rule="evenodd" clip-rule="evenodd" fill="none" stroke="#000000" stroke-width="0.504" stroke-miterlimit="2.4142" d="      M413.14,162.093c-1.664-0.145-2.927-1.652-2.781-3.313c0.152-1.731,1.65-2.925,3.313-2.781c1.729,0.151,3.001,1.589,2.847,3.323      C416.376,160.979,414.868,162.244,413.14,162.093L413.14,162.093z"/>
<path fill-rule="evenodd" clip-rule="evenodd" fill="none" stroke="#000000" stroke-width="0.504" stroke-miterlimit="2.4142" d="      M424.435,163.081c-1.661-0.146-2.927-1.651-2.783-3.312c0.154-1.73,1.654-2.926,3.316-2.78c1.73,0.151,3.001,1.587,2.845,3.32      C427.673,161.968,426.165,163.232,424.435,163.081L424.435,163.081z"/>
<path fill-rule="evenodd" clip-rule="evenodd" fill="none" stroke="#000000" stroke-width="0.504" stroke-miterlimit="2.4142" d="     M418.273,168.355c-1.662-0.144-2.926-1.651-2.781-3.311c0.154-1.731,1.652-2.925,3.314-2.78c1.727,0.151,2.998,1.588,2.844,3.32     C421.51,167.243,420.002,168.507,418.273,168.355L418.273,168.355z"/>
<path fill-rule="evenodd" clip-rule="evenodd" fill="none" stroke="#000000" stroke-width="0.504" stroke-miterlimit="2.4142" d="      M412.08,173.629c-1.66-0.144-2.922-1.651-2.777-3.311c0.15-1.731,1.652-2.924,3.313-2.779c1.727,0.15,3,1.587,2.848,3.32      C415.321,172.518,413.813,173.781,412.08,173.629L412.08,173.629z"/>
<path fill-rule="evenodd" clip-rule="evenodd" fill="none" stroke="#000000" stroke-width="0.504" stroke-miterlimit="2.4142" d="      M423.375,174.617c-1.66-0.142-2.924-1.651-2.778-3.311c0.148-1.731,1.653-2.925,3.313-2.779      c1.729,0.151,2.998,1.588,2.847,3.319C426.614,173.505,425.107,174.77,423.375,174.617L423.375,174.617z"/>
</g></switch>
</svg>