<?xml version="1.0" encoding="utf-8"?>
<!DOCTYPE svg PUBLIC "-//W3C//DTD SVG 1.1//EN" "http://www.w3.org/Graphics/SVG/1.1/DTD/svg11.dtd">
<svg version="1.1" id="Armor" xmlns="http://www.w3.org/2000/svg" xmlns:xlink="http://www.w3.org/1999/xlink" x="0px" y="0px"
	 width="612px" height="792px" viewBox="0 0 612 792" enable-background="new 0 0 612 792" xml:space="preserve">
<switch><g>
<path fill-rule="evenodd" clip-rule="evenodd" fill="none" stroke="#000000" stroke-width="0.504" stroke-miterlimit="2.4142" d="     M464.08,189.995c-1.563-0.388-2.521-1.984-2.113-3.617c0.391-1.562,1.986-2.521,3.549-2.13c1.629,0.404,2.592,2.001,2.199,3.563     C467.308,189.444,465.711,190.404,464.08,189.995L464.08,189.995z"/>
<path fill-rule="evenodd" clip-rule="evenodd" fill="none" stroke="#000000" stroke-width="0.504" stroke-miterlimit="2.4142" d="     M457.335,193.502c-1.558-0.392-2.521-1.987-2.11-3.62c0.389-1.563,1.981-2.522,3.545-2.132c1.632,0.405,2.592,2.003,2.2,3.564     C460.566,192.947,458.967,193.907,457.335,193.502L457.335,193.502z"/>
<path fill-rule="evenodd" clip-rule="evenodd" fill="none" stroke="#000000" stroke-width="0.504" stroke-miterlimit="2.4142" d="     M468.75,196.137c-1.56-0.393-2.522-1.987-2.112-3.62c0.388-1.563,1.982-2.522,3.547-2.131c1.632,0.404,2.59,2.002,2.198,3.564     C471.979,195.583,470.38,196.542,468.75,196.137L468.75,196.137z"/>
<path fill-rule="evenodd" clip-rule="evenodd" fill="none" stroke="#000000" stroke-width="0.504" stroke-miterlimit="2.4142" d="     M461.861,199.608c-1.559-0.393-2.523-1.987-2.109-3.62c0.385-1.563,1.979-2.523,3.547-2.132c1.629,0.405,2.589,2.003,2.196,3.565     C465.094,199.055,463.492,200.014,461.861,199.608L461.861,199.608z"/>
<path fill-rule="evenodd" clip-rule="evenodd" fill="none" stroke="#000000" stroke-width="0.504" stroke-miterlimit="2.4142" d="     M454.976,203.078c-1.562-0.392-2.522-1.986-2.116-3.62c0.393-1.562,1.987-2.52,3.55-2.129c1.632,0.404,2.591,2.002,2.201,3.563     C458.204,202.523,456.604,203.482,454.976,203.078L454.976,203.078z"/>
<path fill-rule="evenodd" clip-rule="evenodd" fill="none" stroke="#000000" stroke-width="0.504" stroke-miterlimit="2.4142" d="     M466.391,205.714c-1.563-0.392-2.522-1.988-2.115-3.622c0.39-1.561,1.985-2.52,3.548-2.128c1.632,0.404,2.591,2.001,2.201,3.563     C469.618,205.158,468.018,206.117,466.391,205.714L466.391,205.714z"/>
<path fill-rule="evenodd" clip-rule="evenodd" fill="none" stroke="#000000" stroke-width="0.504" stroke-miterlimit="2.4142" d="     M459.643,209.217c-1.563-0.391-2.521-1.986-2.114-3.621c0.389-1.561,1.983-2.519,3.55-2.128c1.631,0.405,2.589,2.002,2.199,3.563     C462.87,208.663,461.271,209.622,459.643,209.217L459.643,209.217z"/>
<path fill-rule="evenodd" clip-rule="evenodd" fill="none" stroke="#000000" stroke-width="0.504" stroke-miterlimit="2.4142" d="     M452.615,212.657c-1.56-0.388-2.522-1.986-2.116-3.621c0.39-1.56,1.988-2.519,3.551-2.13c1.631,0.406,2.589,2.005,2.201,3.563     C455.84,212.104,454.245,213.063,452.615,212.657L452.615,212.657z"/>
<path fill-rule="evenodd" clip-rule="evenodd" fill="none" stroke="#000000" stroke-width="0.504" stroke-miterlimit="2.4142" d="     M464.029,215.292c-1.561-0.388-2.525-1.986-2.117-3.62c0.389-1.56,1.988-2.52,3.551-2.131c1.629,0.407,2.59,2.006,2.201,3.565     C467.255,214.74,465.658,215.699,464.029,215.292L464.029,215.292z"/>
<path fill-rule="evenodd" clip-rule="evenodd" fill="none" stroke="#000000" stroke-width="0.504" stroke-miterlimit="2.4142" d="     M457.425,218.829c-1.562-0.388-2.526-1.986-2.116-3.62c0.388-1.561,1.985-2.52,3.549-2.132c1.629,0.407,2.588,2.006,2.201,3.565     C460.648,218.277,459.051,219.235,457.425,218.829L457.425,218.829z"/>
<path fill-rule="evenodd" clip-rule="evenodd" fill="none" stroke="#000000" stroke-width="0.504" stroke-miterlimit="2.4142" d="     M450.252,222.234c-1.562-0.392-2.52-1.986-2.113-3.621c0.389-1.56,1.988-2.52,3.552-2.129c1.627,0.406,2.588,2.001,2.198,3.562     C453.482,221.683,451.887,222.64,450.252,222.234L450.252,222.234z"/>
<path fill-rule="evenodd" clip-rule="evenodd" fill="none" stroke="#000000" stroke-width="0.504" stroke-miterlimit="2.4142" d="     M461.666,224.869c-1.564-0.392-2.52-1.985-2.113-3.62c0.389-1.562,1.988-2.52,3.55-2.13c1.628,0.406,2.587,2.002,2.198,3.563     C464.896,224.316,463.301,225.274,461.666,224.869L461.666,224.869z"/>
<path fill-rule="evenodd" clip-rule="evenodd" fill="none" stroke="#000000" stroke-width="0.504" stroke-miterlimit="2.4142" d="     M455.204,228.44c-1.565-0.394-2.522-1.987-2.115-3.623c0.391-1.56,1.987-2.52,3.55-2.129c1.627,0.406,2.589,2.002,2.201,3.563     C458.434,227.887,456.836,228.844,455.204,228.44L455.204,228.44z"/>
<path fill-rule="evenodd" clip-rule="evenodd" fill="none" stroke="#000000" stroke-width="0.504" stroke-miterlimit="2.4142" d="     M447.895,231.813c-1.561-0.392-2.521-1.987-2.117-3.62c0.393-1.562,1.987-2.521,3.549-2.132c1.631,0.407,2.592,2.002,2.202,3.565     C451.123,231.259,449.525,232.22,447.895,231.813L447.895,231.813z"/>
<path fill-rule="evenodd" clip-rule="evenodd" fill="none" stroke="#000000" stroke-width="0.504" stroke-miterlimit="2.4142" d="     M459.309,234.448c-1.561-0.39-2.521-1.986-2.117-3.619c0.393-1.563,1.986-2.52,3.549-2.132c1.631,0.407,2.592,2.001,2.201,3.564     C462.537,233.895,460.939,234.855,459.309,234.448L459.309,234.448z"/>
<path fill-rule="evenodd" clip-rule="evenodd" fill="none" stroke="#000000" stroke-width="0.504" stroke-miterlimit="2.4142" d="     M452.422,237.919c-1.563-0.391-2.522-1.986-2.117-3.62c0.393-1.562,1.986-2.52,3.549-2.131c1.63,0.406,2.591,2.001,2.201,3.565     C455.65,237.364,454.051,238.325,452.422,237.919L452.422,237.919z"/>
<path fill-rule="evenodd" clip-rule="evenodd" fill="none" stroke="#000000" stroke-width="0.504" stroke-miterlimit="2.4142" d="     M445.529,241.389c-1.561-0.388-2.52-1.984-2.111-3.617c0.391-1.561,1.988-2.521,3.549-2.131c1.628,0.406,2.592,2.005,2.198,3.565     C448.76,240.839,447.162,241.799,445.529,241.389L445.529,241.389z"/>
<path fill-rule="evenodd" clip-rule="evenodd" fill="none" stroke="#000000" stroke-width="0.504" stroke-miterlimit="2.4142" d="     M456.943,244.023c-1.561-0.388-2.52-1.984-2.111-3.617c0.391-1.561,1.987-2.521,3.549-2.13c1.629,0.404,2.591,2.003,2.199,3.564     C460.174,243.474,458.576,244.434,456.943,244.023L456.943,244.023z"/>
<path fill-rule="evenodd" clip-rule="evenodd" fill="none" stroke="#000000" stroke-width="0.504" stroke-miterlimit="2.4142" d="     M450.057,247.495c-1.563-0.388-2.521-1.986-2.111-3.616c0.39-1.562,1.986-2.522,3.548-2.132c1.628,0.406,2.591,2.004,2.2,3.564     C453.285,246.944,451.689,247.906,450.057,247.495L450.057,247.495z"/>
<path fill-rule="evenodd" clip-rule="evenodd" fill="none" stroke="#000000" stroke-width="0.504" stroke-miterlimit="2.4142" d="     M443.17,250.968c-1.563-0.39-2.521-1.987-2.113-3.619c0.392-1.562,1.988-2.521,3.551-2.131c1.629,0.405,2.589,2.003,2.198,3.563     C446.4,250.416,444.802,251.376,443.17,250.968L443.17,250.968z"/>
<path fill-rule="evenodd" clip-rule="evenodd" fill="none" stroke="#000000" stroke-width="0.504" stroke-miterlimit="2.4142" d="     M454.584,253.603c-1.563-0.39-2.522-1.988-2.113-3.618c0.392-1.563,1.986-2.522,3.549-2.132c1.631,0.405,2.591,2.004,2.199,3.563     C457.814,253.051,456.217,254.011,454.584,253.603L454.584,253.603z"/>
<path fill-rule="evenodd" clip-rule="evenodd" fill="none" stroke="#000000" stroke-width="0.504" stroke-miterlimit="2.4142" d="     M447.697,257.073c-1.565-0.389-2.521-1.986-2.114-3.617c0.391-1.563,1.987-2.521,3.549-2.132c1.631,0.404,2.591,2.005,2.2,3.563     C450.928,256.523,449.327,257.482,447.697,257.073L447.697,257.073z"/>
<path fill-rule="evenodd" clip-rule="evenodd" fill="none" stroke="#000000" stroke-width="0.504" stroke-miterlimit="2.4142" d="     M440.809,260.545c-1.561-0.39-2.521-1.985-2.111-3.617c0.39-1.563,1.987-2.522,3.551-2.131c1.627,0.404,2.587,2.004,2.199,3.563     C444.038,259.992,442.44,260.952,440.809,260.545L440.809,260.545z"/>
<path fill-rule="evenodd" clip-rule="evenodd" fill="none" stroke="#000000" stroke-width="0.504" stroke-miterlimit="2.4142" d="     M452.223,263.18c-1.562-0.39-2.521-1.985-2.112-3.617c0.392-1.563,1.987-2.522,3.549-2.131c1.63,0.404,2.591,2.004,2.2,3.563     C455.453,262.627,453.855,263.587,452.223,263.18L452.223,263.18z"/>
<path fill-rule="evenodd" clip-rule="evenodd" fill="none" stroke="#000000" stroke-width="0.504" stroke-miterlimit="2.4142" d="     M445.335,266.651c-1.562-0.389-2.519-1.986-2.11-3.617c0.39-1.563,1.985-2.521,3.548-2.131c1.63,0.405,2.591,2.004,2.198,3.563     C448.565,266.101,446.966,267.06,445.335,266.651L445.335,266.651z"/>
<path fill-rule="evenodd" clip-rule="evenodd" fill="none" stroke="#000000" stroke-width="0.504" stroke-miterlimit="2.4142" d="     M438.445,270.123c-1.561-0.389-2.519-1.986-2.111-3.619c0.392-1.562,1.987-2.52,3.549-2.131c1.632,0.406,2.593,2.005,2.201,3.564     C441.676,269.57,440.078,270.53,438.445,270.123L438.445,270.123z"/>
<path fill-rule="evenodd" clip-rule="evenodd" fill="none" stroke="#000000" stroke-width="0.504" stroke-miterlimit="2.4142" d="     M449.86,272.758c-1.563-0.39-2.519-1.985-2.111-3.618c0.39-1.563,1.986-2.521,3.548-2.131c1.632,0.404,2.592,2.004,2.201,3.563     C453.091,272.205,451.493,273.165,449.86,272.758L449.86,272.758z"/>
<path fill-rule="evenodd" clip-rule="evenodd" fill="none" stroke="#000000" stroke-width="0.504" stroke-miterlimit="2.4142" d="     M442.972,276.229c-1.561-0.388-2.52-1.985-2.111-3.617c0.39-1.562,1.987-2.521,3.548-2.132c1.633,0.406,2.593,2.004,2.201,3.564     C446.203,275.677,444.605,276.638,442.972,276.229L442.972,276.229z"/>
<path fill-rule="evenodd" clip-rule="evenodd" fill="none" stroke="#000000" stroke-width="0.504" stroke-miterlimit="2.4142" d="     M436.086,279.7c-1.56-0.389-2.52-1.985-2.112-3.617c0.392-1.563,1.987-2.521,3.552-2.131c1.629,0.405,2.59,2.004,2.199,3.563     C439.317,279.148,437.72,280.109,436.086,279.7L436.086,279.7z"/>
<path fill-rule="evenodd" clip-rule="evenodd" fill="none" stroke="#000000" stroke-width="0.504" stroke-miterlimit="2.4142" d="     M447.501,282.336c-1.562-0.39-2.521-1.986-2.114-3.618c0.392-1.562,1.986-2.52,3.552-2.131c1.628,0.405,2.592,2.006,2.2,3.563     C450.731,281.783,449.133,282.744,447.501,282.336L447.501,282.336z"/>
<path fill-rule="evenodd" clip-rule="evenodd" fill="none" stroke="#000000" stroke-width="0.504" stroke-miterlimit="2.4142" d="     M440.614,285.807c-1.563-0.389-2.522-1.985-2.114-3.618c0.392-1.562,1.986-2.52,3.551-2.131c1.629,0.406,2.591,2.005,2.2,3.564     C443.842,285.255,442.244,286.216,440.614,285.807L440.614,285.807z"/>
<path fill-rule="evenodd" clip-rule="evenodd" fill="none" stroke="#000000" stroke-width="0.504" stroke-miterlimit="2.4142" d="     M433.727,289.277c-1.563-0.387-2.523-1.984-2.112-3.617c0.388-1.562,1.986-2.519,3.548-2.131     c1.627,0.407,2.592,2.003,2.199,3.563C436.953,288.727,435.358,289.688,433.727,289.277L433.727,289.277z"/>
<path fill-rule="evenodd" clip-rule="evenodd" fill="none" stroke="#000000" stroke-width="0.504" stroke-miterlimit="2.4142" d="     M445.14,291.912c-1.563-0.388-2.521-1.984-2.112-3.617c0.389-1.561,1.986-2.519,3.549-2.13c1.628,0.405,2.592,2.003,2.199,3.563     C448.367,291.362,446.771,292.322,445.14,291.912L445.14,291.912z"/>
<path fill-rule="evenodd" clip-rule="evenodd" fill="none" stroke="#000000" stroke-width="0.504" stroke-miterlimit="2.4142" d="     M438.252,295.384c-1.563-0.388-2.521-1.984-2.113-3.617c0.391-1.562,1.986-2.521,3.55-2.13c1.629,0.405,2.592,2.001,2.198,3.563     C441.48,294.833,439.883,295.793,438.252,295.384L438.252,295.384z"/>
<path fill-rule="evenodd" clip-rule="evenodd" fill="none" stroke="#000000" stroke-width="0.504" stroke-miterlimit="2.4142" d="     M431.365,298.855c-1.561-0.389-2.52-1.985-2.113-3.617c0.391-1.563,1.986-2.52,3.552-2.13c1.628,0.404,2.589,2.001,2.198,3.563     C434.595,298.305,432.998,299.266,431.365,298.855L431.365,298.855z"/>
<path fill-rule="evenodd" clip-rule="evenodd" fill="none" stroke="#000000" stroke-width="0.504" stroke-miterlimit="2.4142" d="     M442.777,301.49c-1.56-0.388-2.52-1.985-2.111-3.617c0.391-1.563,1.986-2.521,3.55-2.13c1.628,0.404,2.591,2.001,2.2,3.563     C446.008,300.939,444.411,301.9,442.777,301.49L442.777,301.49z"/>
</g></switch>
</svg>