<?xml version="1.0" encoding="utf-8"?>
<!DOCTYPE svg PUBLIC "-//W3C//DTD SVG 1.1//EN" "http://www.w3.org/Graphics/SVG/1.1/DTD/svg11.dtd">
<svg version="1.1" id="Armor" xmlns="http://www.w3.org/2000/svg" xmlns:xlink="http://www.w3.org/1999/xlink" x="0px" y="0px"
	 width="612px" height="792px" viewBox="0 0 612 792" enable-background="new 0 0 612 792" xml:space="preserve">
<switch><g>
<path fill-rule="evenodd" clip-rule="evenodd" fill="none" stroke="#000000" stroke-width="0.504" stroke-miterlimit="2.4142" d="     M525.411,187.968c1.564-0.388,2.527-1.983,2.116-3.616c-0.388-1.566-1.987-2.521-3.556-2.132     c-1.626,0.404-2.59,2.004-2.196,3.563C522.178,187.414,523.78,188.375,525.411,187.968L525.411,187.968z"/>
<path fill-rule="evenodd" clip-rule="evenodd" fill="none" stroke="#000000" stroke-width="0.504" stroke-miterlimit="2.4142" d="     M513.997,190.6c1.567-0.387,2.523-1.985,2.117-3.615c-0.389-1.563-1.986-2.521-3.549-2.131c-1.629,0.402-2.591,2.001-2.203,3.563     C510.763,190.05,512.366,191.01,513.997,190.6L513.997,190.6z"/>
<path fill-rule="evenodd" clip-rule="evenodd" fill="none" stroke="#000000" stroke-width="0.504" stroke-miterlimit="2.4142" d="     M525.995,216.501c1.555-0.392,2.512-1.984,2.109-3.616c-0.393-1.564-1.992-2.523-3.547-2.131     c-1.637,0.401-2.596,2.006-2.202,3.56C522.763,215.951,524.356,216.911,525.995,216.501L525.995,216.501z"/>
<path fill-rule="evenodd" clip-rule="evenodd" fill="none" stroke="#000000" stroke-width="0.504" stroke-miterlimit="2.4142" d="     M537.979,242.403c1.563-0.388,2.518-1.985,2.118-3.62c-0.399-1.559-1.992-2.517-3.556-2.126     c-1.631,0.407-2.597,2.002-2.201,3.564C534.75,241.852,536.352,242.813,537.979,242.403L537.979,242.403z"/>
<path fill-rule="evenodd" clip-rule="evenodd" fill="none" stroke="#000000" stroke-width="0.504" stroke-miterlimit="2.4142" d="     M526.568,245.038c1.562-0.388,2.521-1.986,2.112-3.618c-0.387-1.559-1.99-2.52-3.55-2.13c-1.631,0.407-2.594,2.005-2.198,3.565     C523.338,244.486,524.933,245.448,526.568,245.038L526.568,245.038z"/>
<path fill-rule="evenodd" clip-rule="evenodd" fill="none" stroke="#000000" stroke-width="0.504" stroke-miterlimit="2.4142" d="     M538.559,270.938c1.559-0.389,2.523-1.982,2.106-3.618c-0.383-1.563-1.976-2.52-3.544-2.13c-1.627,0.402-2.591,2.003-2.205,3.561     C535.331,270.385,536.931,271.346,538.559,270.938L538.559,270.938z"/>
<path fill-rule="evenodd" clip-rule="evenodd" fill="none" stroke="#000000" stroke-width="0.504" stroke-miterlimit="2.4142" d="     M550.55,296.838c1.563-0.385,2.52-1.986,2.114-3.621c-0.396-1.556-1.989-2.511-3.556-2.126c-1.621,0.405-2.592,1.999-2.193,3.564     C547.321,296.292,548.917,297.25,550.55,296.838L550.55,296.838z"/>
<path fill-rule="evenodd" clip-rule="evenodd" fill="none" stroke="#000000" stroke-width="0.504" stroke-miterlimit="2.4142" d="     M539.133,299.473c1.569-0.383,2.524-1.982,2.118-3.618c-0.395-1.56-1.992-2.515-3.553-2.13c-1.626,0.411-2.592,2.002-2.2,3.566     C535.907,298.922,537.504,299.886,539.133,299.473L539.133,299.473z"/>
</g></switch>
</svg>