<?xml version="1.0" encoding="utf-8"?>
<!DOCTYPE svg PUBLIC "-//W3C//DTD SVG 1.1//EN" "http://www.w3.org/Graphics/SVG/1.1/DTD/svg11.dtd">
<svg version="1.1" id="Armor" xmlns="http://www.w3.org/2000/svg" xmlns:xlink="http://www.w3.org/1999/xlink" x="0px" y="0px"
	 width="612px" height="792px" viewBox="0 0 612 792" enable-background="new 0 0 612 792" xml:space="preserve">
<switch><g>
<path fill="none" stroke="#000000" stroke-width="0.504" stroke-miterlimit="2.4142" d="M520.406,91.841      c1.322,0,2.418-1.098,2.418-2.415c0-1.317-1.096-2.414-2.418-2.414c-1.316,0-2.412,1.097-2.412,2.414      C517.994,90.743,519.09,91.841,520.406,91.841L520.406,91.841z"/>
<path fill="none" stroke="#000000" stroke-width="0.504" stroke-miterlimit="2.4142" d="M531.457,91.841      c1.32,0,2.416-1.098,2.416-2.415c0-1.317-1.096-2.414-2.416-2.414c-1.316,0-2.412,1.097-2.412,2.414      C529.045,90.743,530.141,91.841,531.457,91.841L531.457,91.841z"/>
<path fill="none" stroke="#000000" stroke-width="0.504" stroke-miterlimit="2.4142" d="M514.885,95.916      c1.317,0,2.414-1.098,2.414-2.415s-1.097-2.414-2.414-2.414c-1.315,0-2.415,1.097-2.415,2.414S513.568,95.916,514.885,95.916      L514.885,95.916z"/>
<path fill="none" stroke="#000000" stroke-width="0.504" stroke-miterlimit="2.4142" d="M525.932,95.916      c1.321,0,2.417-1.098,2.417-2.415s-1.096-2.414-2.417-2.414c-1.315,0-2.412,1.097-2.412,2.414S524.615,95.916,525.932,95.916      L525.932,95.916z"/>
<path fill="none" stroke="#000000" stroke-width="0.504" stroke-miterlimit="2.4142" d="M536.981,95.916      c1.32,0,2.417-1.098,2.417-2.415s-1.097-2.414-2.417-2.414c-1.316,0-2.412,1.097-2.412,2.414S535.665,95.916,536.981,95.916      L536.981,95.916z"/>
<path fill="none" stroke="#000000" stroke-width="0.504" stroke-miterlimit="2.4142" d="M520.406,99.991      c1.322,0,2.418-1.098,2.418-2.415c0-1.317-1.096-2.414-2.418-2.414c-1.316,0-2.412,1.097-2.412,2.414      C517.994,98.893,519.09,99.991,520.406,99.991L520.406,99.991z"/>
<path fill="none" stroke="#000000" stroke-width="0.504" stroke-miterlimit="2.4142" d="M531.457,99.991      c1.32,0,2.416-1.098,2.416-2.415c0-1.317-1.096-2.414-2.416-2.414c-1.316,0-2.412,1.097-2.412,2.414      C529.045,98.893,530.141,99.991,531.457,99.991L531.457,99.991z"/>
<path fill="none" stroke="#000000" stroke-width="0.504" stroke-miterlimit="2.4142" d="M514.885,104.066      c1.317,0,2.414-1.098,2.414-2.415s-1.097-2.414-2.414-2.414c-1.315,0-2.415,1.097-2.415,2.414S513.568,104.066,514.885,104.066      L514.885,104.066z"/>
<path fill="none" stroke="#000000" stroke-width="0.504" stroke-miterlimit="2.4142" d="M525.932,104.066      c1.321,0,2.417-1.098,2.417-2.415s-1.096-2.414-2.417-2.414c-1.315,0-2.412,1.097-2.412,2.414S524.615,104.066,525.932,104.066      L525.932,104.066z"/>
<path fill="none" stroke="#000000" stroke-width="0.504" stroke-miterlimit="2.4142" d="M536.981,104.066      c1.32,0,2.417-1.098,2.417-2.415s-1.097-2.414-2.417-2.414c-1.316,0-2.412,1.097-2.412,2.414S535.665,104.066,536.981,104.066      L536.981,104.066z"/>
<path fill="none" stroke="#000000" stroke-width="0.504" stroke-miterlimit="2.4142" d="M520.406,108.141      c1.322,0,2.418-1.098,2.418-2.415s-1.096-2.414-2.418-2.414c-1.316,0-2.412,1.097-2.412,2.414S519.09,108.141,520.406,108.141      L520.406,108.141z"/>
<path fill="none" stroke="#000000" stroke-width="0.504" stroke-miterlimit="2.4142" d="M531.457,108.141      c1.32,0,2.416-1.098,2.416-2.415s-1.096-2.414-2.416-2.414c-1.316,0-2.412,1.097-2.412,2.414S530.141,108.141,531.457,108.141      L531.457,108.141z"/>
<path fill="none" stroke="#000000" stroke-width="0.504" stroke-miterlimit="2.4142" d="M514.885,112.215      c1.317,0,2.414-1.098,2.414-2.415c0-1.317-1.097-2.414-2.414-2.414c-1.315,0-2.415,1.097-2.415,2.414      C512.47,111.117,513.568,112.215,514.885,112.215L514.885,112.215z"/>
<path fill="none" stroke="#000000" stroke-width="0.504" stroke-miterlimit="2.4142" d="M525.932,112.215      c1.321,0,2.417-1.098,2.417-2.415c0-1.317-1.096-2.414-2.417-2.414c-1.315,0-2.412,1.097-2.412,2.414      C523.52,111.117,524.615,112.215,525.932,112.215L525.932,112.215z"/>
<path fill="none" stroke="#000000" stroke-width="0.504" stroke-miterlimit="2.4142" d="M536.981,112.215      c1.32,0,2.417-1.098,2.417-2.415c0-1.317-1.097-2.414-2.417-2.414c-1.316,0-2.412,1.097-2.412,2.414      C534.569,111.117,535.665,112.215,536.981,112.215L536.981,112.215z"/>
<path fill="none" stroke="#000000" stroke-width="0.504" stroke-miterlimit="2.4142" d="M520.406,116.29      c1.322,0,2.418-1.098,2.418-2.415s-1.096-2.414-2.418-2.414c-1.316,0-2.412,1.097-2.412,2.414S519.09,116.29,520.406,116.29      L520.406,116.29z"/>
<path fill="none" stroke="#000000" stroke-width="0.504" stroke-miterlimit="2.4142" d="M531.457,116.29      c1.32,0,2.416-1.098,2.416-2.415s-1.096-2.414-2.416-2.414c-1.316,0-2.412,1.097-2.412,2.414S530.141,116.29,531.457,116.29      L531.457,116.29z"/>
<path fill="none" stroke="#000000" stroke-width="0.504" stroke-miterlimit="2.4142" d="M514.885,120.365      c1.317,0,2.414-1.098,2.414-2.415c0-1.317-1.097-2.414-2.414-2.414c-1.315,0-2.415,1.097-2.415,2.414      C512.47,119.267,513.568,120.365,514.885,120.365L514.885,120.365z"/>
<path fill="none" stroke="#000000" stroke-width="0.504" stroke-miterlimit="2.4142" d="M525.932,120.365      c1.321,0,2.417-1.098,2.417-2.415c0-1.317-1.096-2.414-2.417-2.414c-1.315,0-2.412,1.097-2.412,2.414      C523.52,119.267,524.615,120.365,525.932,120.365L525.932,120.365z"/>
<path fill="none" stroke="#000000" stroke-width="0.504" stroke-miterlimit="2.4142" d="M536.981,120.365      c1.32,0,2.417-1.098,2.417-2.415c0-1.317-1.097-2.414-2.417-2.414c-1.316,0-2.412,1.097-2.412,2.414      C534.569,119.267,535.665,120.365,536.981,120.365L536.981,120.365z"/>
<path fill="none" stroke="#000000" stroke-width="0.504" stroke-miterlimit="2.4142" d="M520.406,124.44      c1.322,0,2.418-1.098,2.418-2.415s-1.096-2.414-2.418-2.414c-1.316,0-2.412,1.097-2.412,2.414S519.09,124.44,520.406,124.44      L520.406,124.44z"/>
<path fill="none" stroke="#000000" stroke-width="0.504" stroke-miterlimit="2.4142" d="M531.457,124.44      c1.32,0,2.416-1.098,2.416-2.415s-1.096-2.414-2.416-2.414c-1.316,0-2.412,1.097-2.412,2.414S530.141,124.44,531.457,124.44      L531.457,124.44z"/>
<path fill="none" stroke="#000000" stroke-width="0.504" stroke-miterlimit="2.4142" d="M520.411,131.319     c-1.321,0-2.417-1.098-2.417-2.415c0-1.317,1.096-2.414,2.417-2.414c1.315,0,2.412,1.097,2.412,2.414     C522.823,130.221,521.729,131.319,520.411,131.319L520.411,131.319z"/>
<path fill="none" stroke="#000000" stroke-width="0.504" stroke-miterlimit="2.4142" d="M519.021,138.198     c-1.32,0-2.416-1.098-2.416-2.415c0-1.317,1.096-2.414,2.416-2.414c1.316,0,2.412,1.097,2.412,2.414     C521.434,137.1,520.339,138.198,519.021,138.198L519.021,138.198z"/>
<path fill="none" stroke="#000000" stroke-width="0.504" stroke-miterlimit="2.4142" d="M517.63,140.248     c1.32,0,2.416,1.098,2.416,2.415s-1.096,2.415-2.416,2.415c-1.315,0-2.412-1.097-2.412-2.415     C515.218,141.345,516.313,140.248,517.63,140.248L517.63,140.248z"/>
<path fill="none" stroke="#000000" stroke-width="0.504" stroke-miterlimit="2.4142" d="M516.242,147.126     c1.32,0,2.416,1.098,2.416,2.415s-1.096,2.415-2.416,2.415c-1.316,0-2.412-1.097-2.412-2.415     C513.83,148.224,514.926,147.126,516.242,147.126L516.242,147.126z"/>
<path fill="none" stroke="#000000" stroke-width="0.504" stroke-miterlimit="2.4142" d="M513.469,158.871     c1.316,0,2.413-1.097,2.413-2.488c0-1.317-1.097-2.414-2.413-2.414c-1.315,0-2.416,1.097-2.416,2.414     C511.053,157.774,512.152,158.871,513.469,158.871L513.469,158.871z"/>
<path fill="none" stroke="#000000" stroke-width="0.504" stroke-miterlimit="2.4142" d="M517.721,160.848      c1.316,0,2.413,1.097,2.413,2.488c0,1.317-1.097,2.414-2.413,2.414c-1.315,0-2.416-1.097-2.416-2.414      C515.305,161.944,516.404,160.848,517.721,160.848L517.721,160.848z"/>
<path fill="none" stroke="#000000" stroke-width="0.504" stroke-miterlimit="2.4142" d="M526.225,160.848      c1.316,0,2.413,1.097,2.413,2.488c0,1.317-1.097,2.414-2.413,2.414c-1.315,0-2.416-1.097-2.416-2.414      C523.809,161.945,524.908,160.848,526.225,160.848L526.225,160.848z"/>
<path fill="none" stroke="#000000" stroke-width="0.504" stroke-miterlimit="2.4142" d="M513.469,167.727      c1.316,0,2.413,1.097,2.413,2.488c0,1.317-1.097,2.414-2.413,2.414c-1.315,0-2.416-1.097-2.416-2.414      C511.053,168.823,512.152,167.727,513.469,167.727L513.469,167.727z"/>
<path fill="none" stroke="#000000" stroke-width="0.504" stroke-miterlimit="2.4142" d="M521.973,167.727      c1.316,0,2.413,1.097,2.413,2.488c0,1.317-1.097,2.414-2.413,2.414c-1.315,0-2.416-1.097-2.416-2.414      C519.557,168.824,520.656,167.727,521.973,167.727L521.973,167.727z"/>
<path fill="none" stroke="#000000" stroke-width="0.504" stroke-miterlimit="2.4142" d="M530.477,167.727      c1.316,0,2.413,1.097,2.413,2.488c0,1.317-1.097,2.414-2.413,2.414c-1.315,0-2.416-1.097-2.416-2.414      C528.061,168.824,529.16,167.727,530.477,167.727L530.477,167.727z"/>
</g></switch>
</svg>