<?xml version="1.0" encoding="utf-8"?>
<!DOCTYPE svg PUBLIC "-//W3C//DTD SVG 1.1//EN" "http://www.w3.org/Graphics/SVG/1.1/DTD/svg11.dtd">
<svg version="1.1" id="Armor" xmlns="http://www.w3.org/2000/svg" xmlns:xlink="http://www.w3.org/1999/xlink" x="0px" y="0px"
	 width="612px" height="792px" viewBox="0 0 612 792" enable-background="new 0 0 612 792" xml:space="preserve">
<switch><g>
<path fill="none" stroke="#000000" stroke-width="0.504" stroke-miterlimit="2.4142" d="M425.859,80.911     c-1.664-0.143-2.927-1.651-2.781-3.311c0.146-1.729,1.65-2.925,3.311-2.779c1.729,0.15,3.001,1.588,2.853,3.319     C429.091,79.8,427.586,81.065,425.859,80.911L425.859,80.911z"/>
<path fill="none" stroke="#000000" stroke-width="0.504" stroke-miterlimit="2.4142" d="M419.585,87.585     c-1.663-0.142-2.929-1.652-2.783-3.312c0.15-1.73,1.653-2.925,3.313-2.779c1.731,0.15,3.006,1.587,2.853,3.318     C422.82,86.473,421.313,87.739,419.585,87.585L419.585,87.585z"/>
<path fill="none" stroke="#000000" stroke-width="0.504" stroke-miterlimit="2.4142" d="M430.883,88.575     c-1.665-0.146-2.93-1.653-2.787-3.313c0.15-1.73,1.656-2.924,3.316-2.778c1.729,0.149,2.999,1.587,2.847,3.319     C434.114,87.462,432.608,88.724,430.883,88.575L430.883,88.575z"/>
<path fill="none" stroke="#000000" stroke-width="0.504" stroke-miterlimit="2.4142" d="M424.604,95.249     c-1.664-0.143-2.925-1.651-2.779-3.311c0.149-1.729,1.647-2.925,3.313-2.781c1.728,0.152,2.996,1.591,2.847,3.32     C427.844,94.136,426.332,95.402,424.604,95.249L424.604,95.249z"/>
<path fill="none" stroke="#000000" stroke-width="0.504" stroke-miterlimit="2.4142" d="M418.328,101.924     c-1.664-0.146-2.924-1.652-2.779-3.313c0.152-1.73,1.65-2.925,3.314-2.782c1.727,0.153,3,1.592,2.85,3.32     C421.57,100.81,420.057,102.076,418.328,101.924L418.328,101.924z"/>
<path fill="none" stroke="#000000" stroke-width="0.504" stroke-miterlimit="2.4142" d="M429.625,102.911     c-1.664-0.144-2.928-1.648-2.781-3.31c0.152-1.729,1.65-2.925,3.314-2.781c1.729,0.152,2.998,1.589,2.845,3.32     C432.859,101.8,431.352,103.064,429.625,102.911L429.625,102.911z"/>
<path fill="none" stroke="#000000" stroke-width="0.504" stroke-miterlimit="2.4142" d="M423.346,109.586     c-1.66-0.146-2.92-1.651-2.774-3.312c0.151-1.732,1.648-2.926,3.313-2.782c1.729,0.152,2.997,1.591,2.845,3.321     C426.582,108.472,425.078,109.739,423.346,109.586L423.346,109.586z"/>
<path fill="none" stroke="#000000" stroke-width="0.504" stroke-miterlimit="2.4142" d="M417.071,116.259     c-1.659-0.146-2.921-1.651-2.776-3.311c0.154-1.729,1.652-2.925,3.313-2.78c1.73,0.151,3.004,1.59,2.85,3.319     C420.309,115.15,418.804,116.412,417.071,116.259L417.071,116.259z"/>
<path fill="none" stroke="#000000" stroke-width="0.504" stroke-miterlimit="2.4142" d="M428.369,117.248     c-1.66-0.144-2.924-1.652-2.782-3.31c0.155-1.73,1.654-2.926,3.32-2.78c1.728,0.152,2.996,1.588,2.84,3.32     C431.604,116.138,430.101,117.4,428.369,117.248L428.369,117.248z"/>
<path fill="none" stroke="#000000" stroke-width="0.504" stroke-miterlimit="2.4142" d="M422.094,123.923     c-1.66-0.146-2.924-1.653-2.778-3.313c0.154-1.733,1.646-2.927,3.313-2.781c1.73,0.15,3.001,1.589,2.85,3.319     C425.332,122.809,423.821,124.075,422.094,123.923L422.094,123.923z"/>
<path fill="none" stroke="#000000" stroke-width="0.504" stroke-miterlimit="2.4142" d="M415.821,130.596     c-1.662-0.146-2.93-1.65-2.78-3.313c0.15-1.731,1.646-2.925,3.311-2.778c1.73,0.151,3.006,1.585,2.853,3.317     C419.057,129.485,417.546,130.749,415.821,130.596L415.821,130.596z"/>
<path fill="none" stroke="#000000" stroke-width="0.504" stroke-miterlimit="2.4142" d="M427.117,131.586     c-1.664-0.146-2.93-1.651-2.783-3.313c0.15-1.731,1.648-2.925,3.314-2.78c1.729,0.153,2.995,1.588,2.848,3.32     C430.351,130.473,428.844,131.738,427.117,131.586L427.117,131.586z"/>
<path fill="none" stroke="#000000" stroke-width="0.504" stroke-miterlimit="2.4142" d="M420.842,138.259     c-1.666-0.146-2.926-1.65-2.781-3.311c0.152-1.731,1.648-2.925,3.314-2.781c1.727,0.152,2.996,1.589,2.847,3.322     C424.076,137.149,422.572,138.412,420.842,138.259L420.842,138.259z"/>
<path fill="none" stroke="#000000" stroke-width="0.504" stroke-miterlimit="2.4142" d="M414.566,144.934     c-1.665-0.145-2.927-1.65-2.779-3.312c0.15-1.732,1.648-2.927,3.313-2.781c1.728,0.152,3,1.588,2.85,3.322     C417.805,143.823,416.295,145.086,414.566,144.934L414.566,144.934z"/>
<path fill="none" stroke="#000000" stroke-width="0.504" stroke-miterlimit="2.4142" d="M425.861,145.923     c-1.663-0.146-2.928-1.65-2.78-3.311c0.15-1.733,1.651-2.927,3.313-2.783c1.727,0.152,2.994,1.588,2.843,3.322     C429.095,144.813,427.591,146.075,425.861,145.923L425.861,145.923z"/>
<path fill="none" stroke="#000000" stroke-width="0.504" stroke-miterlimit="2.4142" d="M419.587,152.596     c-1.664-0.145-2.926-1.65-2.779-3.311c0.152-1.731,1.647-2.926,3.311-2.782c1.729,0.152,3.003,1.59,2.849,3.322     C422.823,151.484,421.313,152.748,419.587,152.596L419.587,152.596z"/>
<path fill="none" stroke="#000000" stroke-width="0.504" stroke-miterlimit="2.4142" d="M413.313,159.272     c-1.665-0.145-2.926-1.653-2.779-3.313c0.151-1.731,1.646-2.926,3.313-2.781c1.729,0.151,3.002,1.59,2.85,3.324     C416.55,158.158,415.041,159.421,413.313,159.272L413.313,159.272z"/>
<path fill="none" stroke="#000000" stroke-width="0.504" stroke-miterlimit="2.4142" d="M424.606,160.259     c-1.661-0.146-2.927-1.649-2.78-3.311c0.152-1.732,1.651-2.928,3.314-2.782c1.729,0.151,2.997,1.587,2.844,3.321     C427.844,159.149,426.339,160.411,424.606,160.259L424.606,160.259z"/>
<path fill="none" stroke="#000000" stroke-width="0.504" stroke-miterlimit="2.4142" d="M418.333,166.933     c-1.663-0.144-2.926-1.65-2.78-3.311c0.154-1.731,1.65-2.925,3.313-2.781c1.727,0.151,3,1.589,2.846,3.32     C421.571,165.822,420.063,167.084,418.333,166.933L418.333,166.933z"/>
<path fill="none" stroke="#000000" stroke-width="0.504" stroke-miterlimit="2.4142" d="M412.055,173.606     c-1.66-0.143-2.92-1.649-2.776-3.311c0.151-1.731,1.652-2.924,3.313-2.779c1.729,0.15,3.002,1.587,2.85,3.319     C415.299,172.496,413.787,173.759,412.055,173.606L412.055,173.606z"/>
<path fill="none" stroke="#000000" stroke-width="0.504" stroke-miterlimit="2.4142" d="M423.35,174.594     c-1.658-0.141-2.922-1.651-2.774-3.311c0.147-1.732,1.65-2.925,3.312-2.778c1.729,0.15,2.997,1.586,2.844,3.318     C426.588,173.482,425.084,174.748,423.35,174.594L423.35,174.594z"/>
</g></switch>
</svg>