<?xml version="1.0" encoding="utf-8"?>
<!DOCTYPE svg PUBLIC "-//W3C//DTD SVG 1.1//EN" "http://www.w3.org/Graphics/SVG/1.1/DTD/svg11.dtd">
<svg version="1.1" id="Armor" xmlns="http://www.w3.org/2000/svg" xmlns:xlink="http://www.w3.org/1999/xlink" x="0px" y="0px"
	 width="612px" height="792px" viewBox="0 0 612 792" enable-background="new 0 0 612 792" xml:space="preserve">
<switch><g>
<path fill="none" stroke="#000000" stroke-width="0.504" stroke-miterlimit="2.4142" d="M420.165,80.363     c-1.667-0.146-2.923-1.652-2.778-3.313c0.151-1.73,1.646-2.925,3.313-2.782c1.725,0.153,3,1.59,2.851,3.32     C423.408,79.249,421.894,80.515,420.165,80.363L420.165,80.363z"/>
<path fill="none" stroke="#000000" stroke-width="0.504" stroke-miterlimit="2.4142" d="M431.463,81.349     c-1.668-0.145-2.929-1.648-2.781-3.311c0.15-1.729,1.648-2.924,3.314-2.781c1.727,0.152,2.997,1.589,2.846,3.319     C434.699,80.237,433.189,81.501,431.463,81.349L431.463,81.349z"/>
<path fill="none" stroke="#000000" stroke-width="0.504" stroke-miterlimit="2.4142" d="M424.994,90.175     c-1.664-0.145-2.92-1.652-2.773-3.313c0.15-1.73,1.647-2.924,3.313-2.78c1.726,0.151,2.995,1.591,2.846,3.321     C428.23,89.06,426.726,90.329,424.994,90.175L424.994,90.175z"/>
<path fill="none" stroke="#000000" stroke-width="0.504" stroke-miterlimit="2.4142" d="M418.532,98.997     c-1.662-0.145-2.92-1.65-2.774-3.31c0.15-1.729,1.648-2.925,3.309-2.779c1.732,0.151,3.005,1.589,2.854,3.317     C421.768,97.889,420.264,99.152,418.532,98.997L418.532,98.997z"/>
<path fill="none" stroke="#000000" stroke-width="0.504" stroke-miterlimit="2.4142" d="M429.831,99.985     c-1.663-0.144-2.924-1.652-2.782-3.31c0.152-1.73,1.651-2.925,3.32-2.78c1.725,0.151,2.996,1.588,2.838,3.321     C433.063,98.876,431.561,100.139,429.831,99.985L429.831,99.985z"/>
<path fill="none" stroke="#000000" stroke-width="0.504" stroke-miterlimit="2.4142" d="M423.365,108.813     c-1.662-0.146-2.922-1.653-2.777-3.313c0.155-1.733,1.646-2.928,3.307-2.783c1.736,0.151,3.008,1.59,2.855,3.321     C426.605,107.699,425.094,108.964,423.365,108.813L423.365,108.813z"/>
<path fill="none" stroke="#000000" stroke-width="0.504" stroke-miterlimit="2.4142" d="M416.905,117.635     c-1.665-0.146-2.929-1.65-2.779-3.313c0.149-1.731,1.643-2.926,3.31-2.776c1.729,0.148,3.005,1.582,2.854,3.314     C420.142,116.522,418.629,117.786,416.905,117.635L416.905,117.635z"/>
<path fill="none" stroke="#000000" stroke-width="0.504" stroke-miterlimit="2.4142" d="M428.202,118.624     c-1.665-0.145-2.931-1.652-2.782-3.313c0.148-1.732,1.646-2.925,3.314-2.779c1.727,0.152,2.994,1.586,2.848,3.318     C431.436,117.51,429.927,118.774,428.202,118.624L428.202,118.624z"/>
<path fill="none" stroke="#000000" stroke-width="0.504" stroke-miterlimit="2.4142" d="M421.736,127.449     c-1.667-0.144-2.926-1.649-2.779-3.311c0.152-1.731,1.646-2.925,3.314-2.781c1.723,0.152,2.998,1.591,2.846,3.322     C424.971,126.34,423.468,127.602,421.736,127.449L421.736,127.449z"/>
<path fill="none" stroke="#000000" stroke-width="0.504" stroke-miterlimit="2.4142" d="M415.273,136.274     c-1.668-0.146-2.925-1.651-2.777-3.313c0.146-1.73,1.646-2.924,3.311-2.778c1.727,0.15,3.002,1.585,2.851,3.319     C418.514,135.161,417.001,136.427,415.273,136.274L415.273,136.274z"/>
<path fill="none" stroke="#000000" stroke-width="0.504" stroke-miterlimit="2.4142" d="M426.568,137.264     c-1.664-0.146-2.925-1.652-2.779-3.313c0.15-1.731,1.65-2.926,3.313-2.782c1.725,0.152,2.994,1.589,2.843,3.321     C429.806,136.152,428.298,137.415,426.568,137.264L426.568,137.264z"/>
<path fill="none" stroke="#000000" stroke-width="0.504" stroke-miterlimit="2.4142" d="M420.107,146.088     c-1.666-0.144-2.928-1.65-2.779-3.312c0.152-1.73,1.644-2.926,3.31-2.783c1.729,0.154,3.004,1.591,2.848,3.323     C423.344,144.975,421.83,146.239,420.107,146.088L420.107,146.088z"/>
<path fill="none" stroke="#000000" stroke-width="0.504" stroke-miterlimit="2.4142" d="M413.645,154.912     c-1.668-0.146-2.928-1.652-2.778-3.314c0.147-1.73,1.645-2.925,3.313-2.778c1.726,0.15,3.004,1.588,2.849,3.322     C416.88,153.797,415.371,155.063,413.645,154.912L413.645,154.912z"/>
<path fill="none" stroke="#000000" stroke-width="0.504" stroke-miterlimit="2.4142" d="M424.939,155.9     c-1.664-0.144-2.929-1.648-2.78-3.31c0.153-1.733,1.647-2.927,3.313-2.781c1.729,0.151,3,1.586,2.848,3.32     C428.176,154.791,426.67,156.052,424.939,155.9L424.939,155.9z"/>
<path fill="none" stroke="#000000" stroke-width="0.504" stroke-miterlimit="2.4142" d="M418.475,164.725     c-1.661-0.144-2.924-1.651-2.778-3.312c0.153-1.731,1.647-2.925,3.313-2.781c1.728,0.151,3.002,1.589,2.847,3.32     C421.715,163.612,420.203,164.875,418.475,164.725L418.475,164.725z"/>
<path fill="none" stroke="#000000" stroke-width="0.504" stroke-miterlimit="2.4142" d="M412.012,173.548     c-1.664-0.143-2.923-1.649-2.776-3.311c0.15-1.732,1.649-2.926,3.311-2.779c1.728,0.148,3.004,1.586,2.851,3.319     C415.255,172.438,413.741,173.701,412.012,173.548L412.012,173.548z"/>
<path fill="none" stroke="#000000" stroke-width="0.504" stroke-miterlimit="2.4142" d="M423.307,174.536     c-1.663-0.138-2.925-1.65-2.774-3.31c0.147-1.732,1.647-2.926,3.309-2.777c1.729,0.147,3,1.585,2.847,3.318     C426.544,173.425,425.039,174.691,423.307,174.536L423.307,174.536z"/>
</g></switch>
</svg>