<?xml version="1.0" encoding="utf-8"?>
<!DOCTYPE svg PUBLIC "-//W3C//DTD SVG 1.1//EN" "http://www.w3.org/Graphics/SVG/1.1/DTD/svg11.dtd">
<svg version="1.1" id="Armor" xmlns="http://www.w3.org/2000/svg" xmlns:xlink="http://www.w3.org/1999/xlink" x="0px" y="0px"
	 width="612px" height="792px" viewBox="0 0 612 792" enable-background="new 0 0 612 792" xml:space="preserve">
<switch><g>
<path fill-rule="evenodd" clip-rule="evenodd" fill="none" stroke="#000000" stroke-width="0.504" stroke-miterlimit="2.4142" d="     M520.187,191.116c1.558-0.389,2.525-1.987,2.117-3.622c-0.393-1.56-1.988-2.52-3.554-2.128c-1.625,0.403-2.587,2.003-2.198,3.563     C516.961,190.563,518.56,191.521,520.187,191.116L520.187,191.116z"/>
<path fill-rule="evenodd" clip-rule="evenodd" fill="none" stroke="#000000" stroke-width="0.504" stroke-miterlimit="2.4142" d="     M527.47,196.601c1.563-0.389,2.516-1.983,2.111-3.618c-0.389-1.563-1.989-2.518-3.552-2.131     c-1.626,0.409-2.587,2.006-2.196,3.563C524.235,196.051,525.835,197.011,527.47,196.601L527.47,196.601z"/>
<path fill-rule="evenodd" clip-rule="evenodd" fill="none" stroke="#000000" stroke-width="0.504" stroke-miterlimit="2.4142" d="     M516.056,199.237c1.563-0.389,2.516-1.983,2.111-3.618c-0.39-1.563-1.99-2.518-3.553-2.131c-1.625,0.409-2.586,2.005-2.195,3.563     C512.82,198.687,514.421,199.647,516.056,199.237L516.056,199.237z"/>
<path fill-rule="evenodd" clip-rule="evenodd" fill="none" stroke="#000000" stroke-width="0.504" stroke-miterlimit="2.4142" d="     M523.33,204.725c1.565-0.393,2.522-1.984,2.112-3.621c-0.391-1.558-1.984-2.518-3.549-2.132c-1.623,0.41-2.588,2.005-2.201,3.565     C520.097,204.174,521.696,205.128,523.33,204.725L523.33,204.725z"/>
<path fill-rule="evenodd" clip-rule="evenodd" fill="none" stroke="#000000" stroke-width="0.504" stroke-miterlimit="2.4142" d="     M530.604,210.211c1.563-0.391,2.52-1.985,2.119-3.62c-0.392-1.563-1.986-2.519-3.549-2.132c-1.63,0.41-2.592,2.002-2.2,3.566     C527.378,209.659,528.976,210.619,530.604,210.211L530.604,210.211z"/>
<path fill-rule="evenodd" clip-rule="evenodd" fill="none" stroke="#000000" stroke-width="0.504" stroke-miterlimit="2.4142" d="     M519.19,212.846c1.563-0.39,2.52-1.984,2.119-3.62c-0.393-1.562-1.987-2.518-3.549-2.132c-1.631,0.41-2.592,2.002-2.201,3.566     C515.964,212.293,517.562,213.253,519.19,212.846L519.19,212.846z"/>
<path fill-rule="evenodd" clip-rule="evenodd" fill="none" stroke="#000000" stroke-width="0.504" stroke-miterlimit="2.4142" d="     M526.472,218.333c1.563-0.39,2.519-1.987,2.113-3.617c-0.395-1.563-1.984-2.521-3.549-2.133     c-1.627,0.406-2.588,2.002-2.199,3.564C523.24,217.779,524.839,218.739,526.472,218.333L526.472,218.333z"/>
<path fill-rule="evenodd" clip-rule="evenodd" fill="none" stroke="#000000" stroke-width="0.504" stroke-miterlimit="2.4142" d="     M533.753,223.816c1.559-0.386,2.518-1.982,2.111-3.615c-0.391-1.561-1.984-2.523-3.548-2.13     c-1.632,0.403-2.593,2.004-2.202,3.564C530.521,223.27,532.118,224.229,533.753,223.816L533.753,223.816z"/>
<path fill-rule="evenodd" clip-rule="evenodd" fill="none" stroke="#000000" stroke-width="0.504" stroke-miterlimit="2.4142" d="     M522.339,226.452c1.559-0.386,2.518-1.982,2.111-3.615c-0.391-1.561-1.984-2.523-3.549-2.131     c-1.631,0.404-2.592,2.005-2.201,3.565C519.106,225.905,520.703,226.865,522.339,226.452L522.339,226.452z"/>
<path fill-rule="evenodd" clip-rule="evenodd" fill="none" stroke="#000000" stroke-width="0.504" stroke-miterlimit="2.4142" d="     M529.616,231.938c1.564-0.385,2.52-1.981,2.109-3.611c-0.39-1.563-1.982-2.524-3.547-2.133c-1.629,0.403-2.589,2.004-2.196,3.565     C526.386,231.393,527.983,232.351,529.616,231.938L529.616,231.938z"/>
<path fill-rule="evenodd" clip-rule="evenodd" fill="none" stroke="#000000" stroke-width="0.504" stroke-miterlimit="2.4142" d="     M536.894,237.427c1.563-0.39,2.521-1.986,2.113-3.617c-0.393-1.565-1.986-2.524-3.548-2.133c-1.634,0.405-2.592,2.003-2.2,3.563     C533.661,236.876,535.26,237.835,536.894,237.427L536.894,237.427z"/>
<path fill-rule="evenodd" clip-rule="evenodd" fill="none" stroke="#000000" stroke-width="0.504" stroke-miterlimit="2.4142" d="     M525.479,240.062c1.563-0.39,2.522-1.986,2.114-3.616c-0.393-1.566-1.986-2.525-3.549-2.133c-1.633,0.404-2.592,2.003-2.2,3.563     C522.247,239.512,523.845,240.471,525.479,240.062L525.479,240.062z"/>
<path fill-rule="evenodd" clip-rule="evenodd" fill="none" stroke="#000000" stroke-width="0.504" stroke-miterlimit="2.4142" d="     M532.761,245.548c1.561-0.391,2.514-1.984,2.107-3.614c-0.39-1.563-1.984-2.525-3.547-2.134     c-1.633,0.406-2.591,2.003-2.201,3.562C529.524,245,531.125,245.958,532.761,245.548L532.761,245.548z"/>
<path fill-rule="evenodd" clip-rule="evenodd" fill="none" stroke="#000000" stroke-width="0.504" stroke-miterlimit="2.4142" d="     M540.038,251.034c1.563-0.387,2.521-1.982,2.11-3.614c-0.39-1.565-1.984-2.521-3.546-2.133c-1.63,0.407-2.592,2.005-2.199,3.566     C536.809,250.484,538.409,251.446,540.038,251.034L540.038,251.034z"/>
<path fill-rule="evenodd" clip-rule="evenodd" fill="none" stroke="#000000" stroke-width="0.504" stroke-miterlimit="2.4142" d="     M528.62,253.67c1.563-0.387,2.521-1.983,2.111-3.614c-0.391-1.565-1.984-2.522-3.545-2.134c-1.631,0.407-2.594,2.005-2.201,3.566     C525.392,253.12,526.991,254.082,528.62,253.67L528.62,253.67z"/>
<path fill-rule="evenodd" clip-rule="evenodd" fill="none" stroke="#000000" stroke-width="0.504" stroke-miterlimit="2.4142" d="     M535.899,259.158c1.565-0.389,2.516-1.982,2.111-3.616c-0.391-1.565-1.986-2.522-3.548-2.133c-1.634,0.408-2.589,2.005-2.2,3.566     C532.672,258.606,534.265,259.567,535.899,259.158L535.899,259.158z"/>
<path fill-rule="evenodd" clip-rule="evenodd" fill="none" stroke="#000000" stroke-width="0.504" stroke-miterlimit="2.4142" d="     M543.175,264.645c1.563-0.389,2.524-1.986,2.115-3.617c-0.393-1.565-1.988-2.519-3.551-2.132     c-1.63,0.403-2.592,2.005-2.201,3.563C539.942,264.092,541.542,265.052,543.175,264.645L543.175,264.645z"/>
<path fill-rule="evenodd" clip-rule="evenodd" fill="none" stroke="#000000" stroke-width="0.504" stroke-miterlimit="2.4142" d="     M531.763,267.28c1.563-0.389,2.523-1.986,2.115-3.617c-0.393-1.565-1.988-2.519-3.551-2.132c-1.63,0.403-2.592,2.005-2.202,3.563     C528.53,266.727,530.13,267.687,531.763,267.28L531.763,267.28z"/>
<path fill-rule="evenodd" clip-rule="evenodd" fill="none" stroke="#000000" stroke-width="0.504" stroke-miterlimit="2.4142" d="     M539.042,272.765c1.561-0.388,2.514-1.985,2.112-3.616c-0.392-1.564-1.989-2.522-3.548-2.132     c-1.636,0.406-2.595,2.005-2.203,3.563C535.812,272.215,537.407,273.175,539.042,272.765L539.042,272.765z"/>
<path fill-rule="evenodd" clip-rule="evenodd" fill="none" stroke="#000000" stroke-width="0.504" stroke-miterlimit="2.4142" d="     M546.316,278.253c1.563-0.388,2.522-1.985,2.115-3.62c-0.392-1.559-1.988-2.517-3.552-2.128c-1.631,0.407-2.593,2.003-2.2,3.565     C543.088,277.703,544.683,278.664,546.316,278.253L546.316,278.253z"/>
<path fill-rule="evenodd" clip-rule="evenodd" fill="none" stroke="#000000" stroke-width="0.504" stroke-miterlimit="2.4142" d="     M534.905,280.887c1.563-0.387,2.522-1.984,2.114-3.619c-0.391-1.559-1.988-2.517-3.552-2.128     c-1.631,0.406-2.593,2.003-2.199,3.565C531.676,280.337,533.271,281.298,534.905,280.887L534.905,280.887z"/>
<path fill-rule="evenodd" clip-rule="evenodd" fill="none" stroke="#000000" stroke-width="0.504" stroke-miterlimit="2.4142" d="     M542.181,286.377c1.563-0.39,2.525-1.986,2.113-3.621c-0.387-1.561-1.982-2.518-3.55-2.132c-1.627,0.407-2.592,2.006-2.202,3.565     C538.955,285.824,540.551,286.784,542.181,286.377L542.181,286.377z"/>
<path fill-rule="evenodd" clip-rule="evenodd" fill="none" stroke="#000000" stroke-width="0.504" stroke-miterlimit="2.4142" d="     M549.46,291.862c1.563-0.386,2.521-1.986,2.113-3.62c-0.391-1.559-1.986-2.517-3.551-2.128c-1.627,0.406-2.592,2-2.199,3.563     C546.229,291.312,547.827,292.272,549.46,291.862L549.46,291.862z"/>
<path fill-rule="evenodd" clip-rule="evenodd" fill="none" stroke="#000000" stroke-width="0.504" stroke-miterlimit="2.4142" d="     M538.047,294.497c1.563-0.386,2.522-1.986,2.114-3.619c-0.391-1.559-1.986-2.518-3.551-2.129c-1.628,0.406-2.592,2-2.2,3.563     C534.817,293.947,536.415,294.907,538.047,294.497L538.047,294.497z"/>
<path fill-rule="evenodd" clip-rule="evenodd" fill="none" stroke="#000000" stroke-width="0.504" stroke-miterlimit="2.4142" d="     M545.323,299.986c1.563-0.39,2.524-1.986,2.113-3.62c-0.388-1.562-1.983-2.518-3.551-2.133c-1.627,0.408-2.592,2.007-2.201,3.565     C542.097,299.432,543.692,300.392,545.323,299.986L545.323,299.986z"/>
</g></switch>
</svg>