<?xml version="1.0" encoding="utf-8"?>
<!DOCTYPE svg PUBLIC "-//W3C//DTD SVG 1.1//EN" "http://www.w3.org/Graphics/SVG/1.1/DTD/svg11.dtd">
<svg version="1.1" id="Armor" xmlns="http://www.w3.org/2000/svg" xmlns:xlink="http://www.w3.org/1999/xlink" x="0px" y="0px"
	 width="612px" height="792px" viewBox="0 0 612 792" enable-background="new 0 0 612 792" xml:space="preserve">
<switch><g>
<path fill="none" stroke="#000000" stroke-width="0.504" stroke-miterlimit="2.4142" d="M420.189,80.391     c-1.664-0.142-2.93-1.651-2.783-3.312c0.149-1.73,1.651-2.925,3.311-2.779c1.732,0.151,3.008,1.588,2.854,3.319     C423.426,79.279,421.916,80.545,420.189,80.391L420.189,80.391z"/>
<path fill="none" stroke="#000000" stroke-width="0.504" stroke-miterlimit="2.4142" d="M431.486,81.381     c-1.664-0.146-2.929-1.652-2.787-3.313c0.151-1.731,1.658-2.924,3.317-2.778c1.729,0.149,2.998,1.587,2.847,3.319     C434.719,80.269,433.213,81.53,431.486,81.381L431.486,81.381z"/>
<path fill="none" stroke="#000000" stroke-width="0.504" stroke-miterlimit="2.4142" d="M425.157,88.651     c-1.667-0.143-2.926-1.651-2.78-3.311c0.15-1.729,1.646-2.925,3.314-2.781c1.727,0.152,2.996,1.591,2.846,3.32     C428.396,87.539,426.884,88.805,425.157,88.651L425.157,88.651z"/>
<path fill="none" stroke="#000000" stroke-width="0.504" stroke-miterlimit="2.4142" d="M418.828,95.925     c-1.664-0.146-2.924-1.652-2.779-3.313c0.152-1.73,1.65-2.925,3.314-2.782c1.726,0.153,3,1.592,2.85,3.32     C422.07,94.811,420.556,96.075,418.828,95.925L418.828,95.925z"/>
<path fill="none" stroke="#000000" stroke-width="0.504" stroke-miterlimit="2.4142" d="M430.125,96.912     c-1.664-0.144-2.928-1.648-2.781-3.31c0.152-1.729,1.65-2.925,3.314-2.781c1.729,0.152,2.998,1.589,2.845,3.319     C433.36,95.802,431.851,97.065,430.125,96.912L430.125,96.912z"/>
<path fill="none" stroke="#000000" stroke-width="0.504" stroke-miterlimit="2.4142" d="M423.793,104.185     c-1.66-0.146-2.92-1.652-2.775-3.313c0.152-1.732,1.649-2.926,3.314-2.782c1.728,0.152,2.997,1.592,2.844,3.321     C427.029,103.069,425.525,104.337,423.793,104.185L423.793,104.185z"/>
<path fill="none" stroke="#000000" stroke-width="0.504" stroke-miterlimit="2.4142" d="M417.467,111.454     c-1.659-0.146-2.921-1.65-2.774-3.31c0.151-1.73,1.649-2.926,3.311-2.781c1.732,0.151,3.004,1.59,2.853,3.319     C420.703,110.345,419.199,111.607,417.467,111.454L417.467,111.454z"/>
<path fill="none" stroke="#000000" stroke-width="0.504" stroke-miterlimit="2.4142" d="M428.765,112.442     c-1.661-0.143-2.924-1.651-2.781-3.309c0.153-1.731,1.653-2.926,3.319-2.781c1.728,0.152,2.996,1.589,2.84,3.321     C431.998,111.334,430.496,112.596,428.765,112.442L428.765,112.442z"/>
<path fill="none" stroke="#000000" stroke-width="0.504" stroke-miterlimit="2.4142" d="M422.438,119.716     c-1.66-0.146-2.925-1.653-2.779-3.313c0.156-1.734,1.646-2.927,3.313-2.782c1.731,0.15,3.002,1.589,2.851,3.32     C425.675,118.602,424.164,119.866,422.438,119.716L422.438,119.716z"/>
<path fill="none" stroke="#000000" stroke-width="0.504" stroke-miterlimit="2.4142" d="M416.113,126.985     c-1.664-0.146-2.931-1.65-2.781-3.313c0.15-1.731,1.646-2.925,3.311-2.777c1.729,0.15,3.005,1.584,2.853,3.316     C419.348,125.874,417.836,127.138,416.113,126.985L416.113,126.985z"/>
<path fill="none" stroke="#000000" stroke-width="0.504" stroke-miterlimit="2.4142" d="M427.408,127.976     c-1.665-0.145-2.932-1.651-2.783-3.313c0.15-1.731,1.647-2.925,3.314-2.78c1.729,0.153,2.995,1.588,2.848,3.319     C430.642,126.862,429.134,128.127,427.408,127.976L427.408,127.976z"/>
<path fill="none" stroke="#000000" stroke-width="0.504" stroke-miterlimit="2.4142" d="M421.08,135.246     c-1.666-0.145-2.926-1.65-2.781-3.311c0.152-1.731,1.648-2.925,3.314-2.781c1.727,0.152,2.998,1.589,2.847,3.322     C424.314,134.136,422.811,135.398,421.08,135.246L421.08,135.246z"/>
<path fill="none" stroke="#000000" stroke-width="0.504" stroke-miterlimit="2.4142" d="M414.753,142.519     c-1.667-0.145-2.926-1.65-2.778-3.312c0.149-1.732,1.646-2.927,3.312-2.781c1.727,0.152,3.001,1.588,2.85,3.322     C417.991,141.407,416.48,142.671,414.753,142.519L414.753,142.519z"/>
<path fill="none" stroke="#000000" stroke-width="0.504" stroke-miterlimit="2.4142" d="M426.047,143.508     c-1.664-0.146-2.926-1.65-2.779-3.311c0.15-1.733,1.65-2.927,3.314-2.783c1.725,0.152,2.994,1.588,2.842,3.322     C429.281,142.397,427.777,143.659,426.047,143.508L426.047,143.508z"/>
<path fill="none" stroke="#000000" stroke-width="0.504" stroke-miterlimit="2.4142" d="M419.721,150.778     c-1.664-0.145-2.925-1.65-2.777-3.312c0.151-1.731,1.646-2.925,3.309-2.782c1.729,0.153,3.004,1.59,2.849,3.322     C422.958,149.665,421.446,150.93,419.721,150.778L419.721,150.778z"/>
<path fill="none" stroke="#000000" stroke-width="0.504" stroke-miterlimit="2.4142" d="M413.395,158.051     c-1.667-0.146-2.926-1.653-2.778-3.314c0.149-1.73,1.646-2.926,3.313-2.78c1.728,0.151,3.002,1.59,2.85,3.323     C416.631,156.936,415.123,158.2,413.395,158.051L413.395,158.051z"/>
<path fill="none" stroke="#000000" stroke-width="0.504" stroke-miterlimit="2.4142" d="M424.689,159.039     c-1.662-0.146-2.928-1.649-2.781-3.311c0.152-1.732,1.65-2.928,3.314-2.782c1.729,0.151,2.997,1.587,2.845,3.321     C427.926,157.929,426.42,159.19,424.689,159.039L424.689,159.039z"/>
<path fill="none" stroke="#000000" stroke-width="0.504" stroke-miterlimit="2.4142" d="M418.361,166.31     c-1.662-0.144-2.925-1.651-2.779-3.312c0.154-1.731,1.65-2.925,3.313-2.781c1.728,0.151,3,1.589,2.847,3.32     C421.602,165.197,420.09,166.46,418.361,166.31L418.361,166.31z"/>
<path fill="none" stroke="#000000" stroke-width="0.504" stroke-miterlimit="2.4142" d="M412.032,173.58     c-1.661-0.143-2.92-1.649-2.777-3.311c0.152-1.732,1.653-2.925,3.313-2.78c1.729,0.15,3.003,1.587,2.85,3.32     C415.276,172.47,413.765,173.733,412.032,173.58L412.032,173.58z"/>
<path fill="none" stroke="#000000" stroke-width="0.504" stroke-miterlimit="2.4142" d="M423.327,174.567     c-1.659-0.14-2.922-1.65-2.775-3.31c0.148-1.733,1.651-2.926,3.313-2.778c1.729,0.149,2.997,1.585,2.842,3.318     C426.565,173.456,425.063,174.722,423.327,174.567L423.327,174.567z"/>
</g></switch>
</svg>