<?xml version="1.0" encoding="utf-8"?>
<!DOCTYPE svg PUBLIC "-//W3C//DTD SVG 1.1//EN" "http://www.w3.org/Graphics/SVG/1.1/DTD/svg11.dtd">
<svg version="1.1" id="Armor" xmlns="http://www.w3.org/2000/svg" xmlns:xlink="http://www.w3.org/1999/xlink" x="0px" y="0px"
	 width="612px" height="792px" viewBox="0 0 612 792" enable-background="new 0 0 612 792" xml:space="preserve">
<switch><g>
<path fill-rule="evenodd" clip-rule="evenodd" fill="none" stroke="#000000" stroke-width="0.504" stroke-miterlimit="2.4142" d="     M463.179,191.509c-1.56-0.392-2.521-1.987-2.108-3.618c0.385-1.564,1.98-2.523,3.545-2.134c1.63,0.405,2.59,2.004,2.197,3.565     C466.412,190.956,464.813,191.915,463.179,191.509L463.179,191.509z"/>
<path fill-rule="evenodd" clip-rule="evenodd" fill="none" stroke="#000000" stroke-width="0.504" stroke-miterlimit="2.4142" d="     M456.275,195.375c-1.559-0.393-2.521-1.986-2.111-3.62c0.388-1.563,1.982-2.521,3.547-2.131c1.631,0.405,2.59,2.002,2.199,3.563     C459.506,194.822,457.906,195.781,456.275,195.375L456.275,195.375z"/>
<path fill-rule="evenodd" clip-rule="evenodd" fill="none" stroke="#000000" stroke-width="0.504" stroke-miterlimit="2.4142" d="     M467.69,198.01c-1.56-0.393-2.522-1.985-2.112-3.621c0.389-1.562,1.983-2.521,3.547-2.13c1.633,0.405,2.589,2.002,2.199,3.565     C470.92,197.456,469.319,198.417,467.69,198.01L467.69,198.01z"/>
<path fill-rule="evenodd" clip-rule="evenodd" fill="none" stroke="#000000" stroke-width="0.504" stroke-miterlimit="2.4142" d="     M460.785,201.877c-1.559-0.393-2.521-1.986-2.108-3.619c0.384-1.564,1.979-2.524,3.546-2.133c1.629,0.405,2.59,2.003,2.197,3.565     C464.017,201.324,462.418,202.283,460.785,201.877L460.785,201.877z"/>
<path fill-rule="evenodd" clip-rule="evenodd" fill="none" stroke="#000000" stroke-width="0.504" stroke-miterlimit="2.4142" d="     M453.886,205.745c-1.561-0.393-2.521-1.988-2.115-3.623c0.391-1.561,1.985-2.518,3.548-2.128     c1.633,0.404,2.592,2.003,2.201,3.563C457.114,205.189,455.514,206.147,453.886,205.745L453.886,205.745z"/>
<path fill-rule="evenodd" clip-rule="evenodd" fill="none" stroke="#000000" stroke-width="0.504" stroke-miterlimit="2.4142" d="     M465.299,208.379c-1.561-0.393-2.521-1.988-2.115-3.623c0.391-1.561,1.986-2.519,3.548-2.128     c1.633,0.405,2.591,2.003,2.201,3.563C468.527,207.824,466.926,208.782,465.299,208.379L465.299,208.379z"/>
<path fill-rule="evenodd" clip-rule="evenodd" fill="none" stroke="#000000" stroke-width="0.504" stroke-miterlimit="2.4142" d="     M458.395,212.246c-1.563-0.392-2.523-1.987-2.114-3.622c0.388-1.562,1.984-2.519,3.548-2.128     c1.631,0.405,2.591,2.002,2.199,3.563C461.62,211.691,460.021,212.65,458.395,212.246L458.395,212.246z"/>
<path fill-rule="evenodd" clip-rule="evenodd" fill="none" stroke="#000000" stroke-width="0.504" stroke-miterlimit="2.4142" d="     M451.493,216.114c-1.562-0.39-2.524-1.987-2.117-3.62c0.389-1.561,1.987-2.521,3.552-2.132c1.629,0.406,2.588,2.006,2.2,3.564     C454.72,215.561,453.122,216.52,451.493,216.114L451.493,216.114z"/>
<path fill-rule="evenodd" clip-rule="evenodd" fill="none" stroke="#000000" stroke-width="0.504" stroke-miterlimit="2.4142" d="     M462.904,218.748c-1.56-0.388-2.524-1.986-2.117-3.619c0.389-1.561,1.988-2.521,3.552-2.131c1.63,0.406,2.59,2.005,2.2,3.564     C466.131,218.196,464.533,219.154,462.904,218.748L462.904,218.748z"/>
<path fill-rule="evenodd" clip-rule="evenodd" fill="none" stroke="#000000" stroke-width="0.504" stroke-miterlimit="2.4142" d="     M456.002,222.615c-1.561-0.388-2.526-1.987-2.116-3.62c0.388-1.561,1.987-2.52,3.55-2.131c1.628,0.406,2.588,2.005,2.2,3.563     C459.226,222.063,457.628,223.02,456.002,222.615L456.002,222.615z"/>
<path fill-rule="evenodd" clip-rule="evenodd" fill="none" stroke="#000000" stroke-width="0.504" stroke-miterlimit="2.4142" d="     M449.096,226.481c-1.563-0.391-2.52-1.985-2.112-3.62c0.39-1.562,1.988-2.521,3.55-2.13c1.628,0.407,2.587,2.002,2.198,3.563     C452.327,225.929,450.731,226.887,449.096,226.481L449.096,226.481z"/>
<path fill-rule="evenodd" clip-rule="evenodd" fill="none" stroke="#000000" stroke-width="0.504" stroke-miterlimit="2.4142" d="     M460.509,229.115c-1.565-0.391-2.519-1.985-2.113-3.619c0.39-1.563,1.989-2.52,3.552-2.13c1.627,0.406,2.586,2.002,2.197,3.563     C463.74,228.564,462.144,229.522,460.509,229.115L460.509,229.115z"/>
<path fill-rule="evenodd" clip-rule="evenodd" fill="none" stroke="#000000" stroke-width="0.504" stroke-miterlimit="2.4142" d="     M453.605,232.983c-1.564-0.393-2.521-1.986-2.113-3.622c0.389-1.559,1.986-2.52,3.55-2.13c1.624,0.407,2.588,2.004,2.201,3.564     C456.836,232.431,455.238,233.387,453.605,232.983L453.605,232.983z"/>
<path fill-rule="evenodd" clip-rule="evenodd" fill="none" stroke="#000000" stroke-width="0.504" stroke-miterlimit="2.4142" d="     M446.705,236.85c-1.561-0.39-2.52-1.986-2.117-3.618c0.393-1.563,1.988-2.521,3.551-2.134c1.631,0.408,2.592,2.002,2.199,3.566     C449.936,236.296,448.336,237.257,446.705,236.85L446.705,236.85z"/>
<path fill-rule="evenodd" clip-rule="evenodd" fill="none" stroke="#000000" stroke-width="0.504" stroke-miterlimit="2.4142" d="     M458.117,239.485c-1.561-0.39-2.52-1.985-2.118-3.619c0.394-1.563,1.989-2.52,3.55-2.133c1.631,0.408,2.592,2.002,2.201,3.566     C461.346,238.931,459.748,239.892,458.117,239.485L458.117,239.485z"/>
<path fill-rule="evenodd" clip-rule="evenodd" fill="none" stroke="#000000" stroke-width="0.504" stroke-miterlimit="2.4142" d="     M451.215,243.351c-1.564-0.392-2.523-1.986-2.116-3.619c0.392-1.563,1.985-2.521,3.548-2.131c1.63,0.405,2.59,2.001,2.201,3.563     C454.443,242.796,452.843,243.756,451.215,243.351L451.215,243.351z"/>
<path fill-rule="evenodd" clip-rule="evenodd" fill="none" stroke="#000000" stroke-width="0.504" stroke-miterlimit="2.4142" d="     M444.307,247.215c-1.561-0.388-2.519-1.983-2.111-3.616c0.391-1.561,1.986-2.521,3.549-2.131     c1.629,0.405,2.591,2.004,2.199,3.564C447.536,246.667,445.939,247.626,444.307,247.215L444.307,247.215z"/>
<path fill-rule="evenodd" clip-rule="evenodd" fill="none" stroke="#000000" stroke-width="0.504" stroke-miterlimit="2.4142" d="     M455.719,249.85c-1.561-0.388-2.52-1.984-2.111-3.617c0.392-1.561,1.986-2.521,3.549-2.13c1.63,0.404,2.593,2.003,2.199,3.564     C458.95,249.3,457.353,250.26,455.719,249.85L455.719,249.85z"/>
<path fill-rule="evenodd" clip-rule="evenodd" fill="none" stroke="#000000" stroke-width="0.504" stroke-miterlimit="2.4142" d="     M448.814,253.717c-1.563-0.387-2.52-1.985-2.108-3.615c0.389-1.562,1.984-2.522,3.546-2.132c1.628,0.405,2.59,2.004,2.2,3.564     C452.045,253.168,450.447,254.129,448.814,253.717L448.814,253.717z"/>
<path fill-rule="evenodd" clip-rule="evenodd" fill="none" stroke="#000000" stroke-width="0.504" stroke-miterlimit="2.4142" d="     M441.915,257.586c-1.563-0.391-2.521-1.987-2.113-3.618c0.392-1.564,1.985-2.523,3.55-2.132c1.631,0.403,2.591,2.003,2.197,3.563     C445.146,257.034,443.548,257.994,441.915,257.586L441.915,257.586z"/>
<path fill-rule="evenodd" clip-rule="evenodd" fill="none" stroke="#000000" stroke-width="0.504" stroke-miterlimit="2.4142" d="     M453.327,260.22c-1.563-0.39-2.521-1.987-2.113-3.618c0.394-1.563,1.987-2.522,3.55-2.131c1.63,0.403,2.59,2.003,2.199,3.563     C456.558,259.668,454.96,260.628,453.327,260.22L453.327,260.22z"/>
<path fill-rule="evenodd" clip-rule="evenodd" fill="none" stroke="#000000" stroke-width="0.504" stroke-miterlimit="2.4142" d="     M446.423,264.086c-1.563-0.39-2.519-1.986-2.112-3.617c0.39-1.563,1.986-2.522,3.548-2.131c1.632,0.403,2.589,2.003,2.2,3.562     C449.655,263.536,448.055,264.495,446.423,264.086L446.423,264.086z"/>
<path fill-rule="evenodd" clip-rule="evenodd" fill="none" stroke="#000000" stroke-width="0.504" stroke-miterlimit="2.4142" d="     M439.519,267.954c-1.561-0.39-2.521-1.986-2.111-3.618c0.392-1.563,1.987-2.521,3.55-2.13c1.629,0.404,2.59,2.004,2.198,3.563     C442.75,267.401,441.152,268.361,439.519,267.954L439.519,267.954z"/>
<path fill-rule="evenodd" clip-rule="evenodd" fill="none" stroke="#000000" stroke-width="0.504" stroke-miterlimit="2.4142" d="     M450.933,270.587c-1.562-0.39-2.521-1.985-2.112-3.617c0.393-1.563,1.987-2.522,3.549-2.131c1.629,0.404,2.592,2.004,2.199,3.563     C454.163,270.035,452.564,270.996,450.933,270.587L450.933,270.587z"/>
<path fill-rule="evenodd" clip-rule="evenodd" fill="none" stroke="#000000" stroke-width="0.504" stroke-miterlimit="2.4142" d="     M444.027,274.455c-1.563-0.389-2.518-1.983-2.109-3.616c0.389-1.563,1.985-2.522,3.547-2.132     c1.631,0.406,2.589,2.005,2.199,3.564C447.258,273.904,445.66,274.864,444.027,274.455L444.027,274.455z"/>
<path fill-rule="evenodd" clip-rule="evenodd" fill="none" stroke="#000000" stroke-width="0.504" stroke-miterlimit="2.4142" d="     M437.125,278.322c-1.563-0.389-2.52-1.984-2.111-3.616c0.391-1.564,1.986-2.521,3.549-2.133c1.631,0.405,2.592,2.005,2.2,3.563     C440.355,277.77,438.758,278.73,437.125,278.322L437.125,278.322z"/>
<path fill-rule="evenodd" clip-rule="evenodd" fill="none" stroke="#000000" stroke-width="0.504" stroke-miterlimit="2.4142" d="     M448.538,280.957c-1.563-0.388-2.521-1.984-2.113-3.616c0.392-1.564,1.988-2.521,3.55-2.133c1.631,0.405,2.592,2.006,2.2,3.563     C451.77,280.405,450.17,281.366,448.538,280.957L448.538,280.957z"/>
<path fill-rule="evenodd" clip-rule="evenodd" fill="none" stroke="#000000" stroke-width="0.504" stroke-miterlimit="2.4142" d="     M441.634,284.823c-1.561-0.388-2.518-1.984-2.11-3.617c0.389-1.562,1.986-2.52,3.547-2.132c1.633,0.405,2.593,2.005,2.203,3.565     C444.865,284.272,443.269,285.232,441.634,284.823L441.634,284.823z"/>
<path fill-rule="evenodd" clip-rule="evenodd" fill="none" stroke="#000000" stroke-width="0.504" stroke-miterlimit="2.4142" d="     M434.733,288.69c-1.562-0.388-2.521-1.985-2.114-3.616c0.392-1.563,1.986-2.521,3.552-2.132c1.628,0.406,2.591,2.006,2.2,3.564     C437.964,288.138,436.365,289.1,434.733,288.69L434.733,288.69z"/>
<path fill-rule="evenodd" clip-rule="evenodd" fill="none" stroke="#000000" stroke-width="0.504" stroke-miterlimit="2.4142" d="     M446.146,291.325c-1.563-0.388-2.521-1.985-2.114-3.617c0.391-1.563,1.987-2.521,3.551-2.131c1.63,0.405,2.593,2.005,2.199,3.563     C449.375,290.773,447.777,291.734,446.146,291.325L446.146,291.325z"/>
<path fill-rule="evenodd" clip-rule="evenodd" fill="none" stroke="#000000" stroke-width="0.504" stroke-miterlimit="2.4142" d="     M439.242,295.192c-1.563-0.39-2.523-1.984-2.113-3.617c0.391-1.563,1.985-2.521,3.549-2.132c1.63,0.405,2.592,2.006,2.203,3.564     C442.469,294.639,440.873,295.6,439.242,295.192L439.242,295.192z"/>
<path fill-rule="evenodd" clip-rule="evenodd" fill="none" stroke="#000000" stroke-width="0.504" stroke-miterlimit="2.4142" d="     M432.339,299.058c-1.563-0.388-2.521-1.984-2.114-3.618c0.393-1.56,1.988-2.517,3.553-2.128c1.626,0.403,2.591,2.002,2.197,3.563     C435.567,298.508,433.971,299.468,432.339,299.058L432.339,299.058z"/>
<path fill-rule="evenodd" clip-rule="evenodd" fill="none" stroke="#000000" stroke-width="0.504" stroke-miterlimit="2.4142" d="     M443.752,301.693c-1.563-0.388-2.521-1.984-2.113-3.618c0.39-1.56,1.987-2.518,3.55-2.129c1.628,0.405,2.593,2.002,2.199,3.563     C446.98,301.143,445.384,302.103,443.752,301.693L443.752,301.693z"/>
</g></switch>
</svg>