<?xml version="1.0" encoding="utf-8"?>
<!DOCTYPE svg PUBLIC "-//W3C//DTD SVG 1.1//EN" "http://www.w3.org/Graphics/SVG/1.1/DTD/svg11.dtd">
<svg version="1.1" id="Armor" xmlns="http://www.w3.org/2000/svg" xmlns:xlink="http://www.w3.org/1999/xlink" x="0px" y="0px"
	 width="612px" height="792px" viewBox="0 0 612 792" enable-background="new 0 0 612 792" xml:space="preserve">
<switch><g>
<path fill="none" stroke="#000000" stroke-width="0.504" stroke-miterlimit="2.4142" d="M562.896,80.422     c1.658-0.144,2.927-1.651,2.778-3.311c-0.148-1.731-1.647-2.926-3.312-2.781c-1.729,0.152-3.002,1.589-2.852,3.321     C559.657,79.31,561.172,80.573,562.896,80.422L562.896,80.422z"/>
<path fill="none" stroke="#000000" stroke-width="0.504" stroke-miterlimit="2.4142" d="M551.602,81.41     c1.66-0.144,2.928-1.651,2.779-3.312c-0.148-1.729-1.646-2.924-3.312-2.78c-1.729,0.152-3,1.591-2.852,3.322     C548.365,80.301,549.875,81.563,551.602,81.41L551.602,81.41z"/>
<path fill="none" stroke="#000000" stroke-width="0.504" stroke-miterlimit="2.4142" d="M557.829,87.571     c1.662-0.144,2.929-1.652,2.781-3.312c-0.148-1.729-1.652-2.924-3.31-2.778c-1.731,0.149-3.004,1.585-2.853,3.318     C554.595,86.459,556.101,87.722,557.829,87.571L557.829,87.571z"/>
<path fill="none" stroke="#000000" stroke-width="0.504" stroke-miterlimit="2.4142" d="M564.06,93.734     c1.662-0.145,2.928-1.654,2.783-3.313c-0.148-1.73-1.653-2.925-3.312-2.779c-1.731,0.15-3.005,1.588-2.854,3.32     C560.826,92.621,562.332,93.885,564.06,93.734L564.06,93.734z"/>
<path fill="none" stroke="#000000" stroke-width="0.504" stroke-miterlimit="2.4142" d="M552.763,94.721     c1.664-0.144,2.927-1.653,2.783-3.312c-0.147-1.73-1.653-2.923-3.313-2.778c-1.732,0.151-3.001,1.586-2.85,3.319     C549.528,93.61,551.034,94.873,552.763,94.721L552.763,94.721z"/>
<path fill="none" stroke="#000000" stroke-width="0.504" stroke-miterlimit="2.4142" d="M558.994,100.884     c1.666-0.145,2.925-1.651,2.781-3.313c-0.151-1.73-1.651-2.924-3.313-2.78c-1.729,0.152-3,1.589-2.85,3.319     C555.755,99.771,557.268,101.037,558.994,100.884L558.994,100.884z"/>
<path fill="none" stroke="#000000" stroke-width="0.504" stroke-miterlimit="2.4142" d="M565.227,107.046     c1.663-0.145,2.923-1.65,2.78-3.312c-0.153-1.73-1.651-2.924-3.314-2.78c-1.729,0.15-3.001,1.589-2.85,3.319     C561.984,105.934,563.497,107.198,565.227,107.046L565.227,107.046z"/>
<path fill="none" stroke="#000000" stroke-width="0.504" stroke-miterlimit="2.4142" d="M553.931,108.033     c1.662-0.145,2.926-1.65,2.779-3.311c-0.152-1.73-1.65-2.924-3.313-2.779c-1.728,0.15-3.001,1.587-2.849,3.319     C550.691,106.923,552.202,108.187,553.931,108.033L553.931,108.033z"/>
<path fill="none" stroke="#000000" stroke-width="0.504" stroke-miterlimit="2.4142" d="M560.163,114.196     c1.662-0.145,2.921-1.65,2.778-3.312c-0.153-1.731-1.651-2.926-3.315-2.78c-1.729,0.151-2.998,1.589-2.847,3.32     C556.927,113.084,558.431,114.349,560.163,114.196L560.163,114.196z"/>
<path fill="none" stroke="#000000" stroke-width="0.504" stroke-miterlimit="2.4142" d="M566.394,120.357     c1.659-0.145,2.923-1.652,2.775-3.311c-0.15-1.73-1.651-2.924-3.313-2.778c-1.729,0.151-2.999,1.588-2.848,3.318     C563.155,119.247,564.66,120.511,566.394,120.357L566.394,120.357z"/>
<path fill="none" stroke="#000000" stroke-width="0.504" stroke-miterlimit="2.4142" d="M555.095,121.346     c1.66-0.143,2.924-1.651,2.781-3.311c-0.152-1.729-1.652-2.924-3.319-2.78c-1.728,0.153-2.998,1.589-2.844,3.32     C551.86,120.235,553.363,121.5,555.095,121.346L555.095,121.346z"/>
<path fill="none" stroke="#000000" stroke-width="0.504" stroke-miterlimit="2.4142" d="M561.326,127.51     c1.659-0.146,2.925-1.654,2.779-3.313c-0.152-1.732-1.649-2.926-3.313-2.781c-1.729,0.151-3,1.589-2.849,3.32     C558.088,126.395,559.598,127.661,561.326,127.51L561.326,127.51z"/>
<path fill="none" stroke="#000000" stroke-width="0.504" stroke-miterlimit="2.4142" d="M567.557,133.67     c1.657-0.145,2.926-1.651,2.777-3.311c-0.15-1.732-1.649-2.926-3.313-2.781c-1.729,0.152-3,1.588-2.851,3.32     C564.318,132.56,565.828,133.822,567.557,133.67L567.557,133.67z"/>
<path fill="none" stroke="#000000" stroke-width="0.504" stroke-miterlimit="2.4142" d="M556.26,134.659     c1.659-0.146,2.928-1.652,2.781-3.313c-0.15-1.731-1.65-2.926-3.313-2.779c-1.729,0.151-3.003,1.587-2.853,3.319     C553.021,133.545,554.53,134.81,556.26,134.659L556.26,134.659z"/>
<path fill="none" stroke="#000000" stroke-width="0.504" stroke-miterlimit="2.4142" d="M562.49,140.821     c1.664-0.146,2.926-1.65,2.777-3.311c-0.148-1.732-1.648-2.926-3.314-2.781c-1.725,0.152-2.994,1.587-2.845,3.321     C559.253,139.71,560.761,140.973,562.49,140.821L562.49,140.821z"/>
<path fill="none" stroke="#000000" stroke-width="0.504" stroke-miterlimit="2.4142" d="M568.721,146.984     c1.661-0.145,2.924-1.651,2.776-3.311c-0.148-1.734-1.651-2.927-3.313-2.783c-1.728,0.151-3,1.588-2.848,3.323     C565.48,145.872,566.989,147.135,568.721,146.984L568.721,146.984z"/>
<path fill="none" stroke="#000000" stroke-width="0.504" stroke-miterlimit="2.4142" d="M557.426,147.971     c1.659-0.143,2.924-1.648,2.779-3.309c-0.152-1.734-1.653-2.927-3.315-2.783c-1.727,0.151-2.999,1.587-2.845,3.322     C554.188,146.861,555.694,148.125,557.426,147.971L557.426,147.971z"/>
<path fill="none" stroke="#000000" stroke-width="0.504" stroke-miterlimit="2.4142" d="M563.655,154.133     c1.663-0.145,2.926-1.651,2.777-3.311c-0.15-1.731-1.648-2.926-3.312-2.782c-1.729,0.151-3.001,1.589-2.847,3.322     C560.418,153.021,561.927,154.285,563.655,154.133L563.655,154.133z"/>
<path fill="none" stroke="#000000" stroke-width="0.504" stroke-miterlimit="2.4142" d="M569.882,160.297     c1.665-0.146,2.927-1.653,2.782-3.312c-0.153-1.731-1.65-2.927-3.313-2.784c-1.728,0.153-3.002,1.591-2.847,3.324     C566.646,159.183,568.155,160.447,569.882,160.297L569.882,160.297z"/>
<path fill="none" stroke="#000000" stroke-width="0.504" stroke-miterlimit="2.4142" d="M558.587,161.283     c1.662-0.143,2.927-1.65,2.782-3.31c-0.153-1.731-1.651-2.926-3.314-2.782c-1.729,0.151-3.003,1.587-2.846,3.321     C555.35,160.171,556.858,161.435,558.587,161.283L558.587,161.283z"/>
<path fill="none" stroke="#000000" stroke-width="0.504" stroke-miterlimit="2.4142" d="M564.818,167.445     c1.662-0.144,2.925-1.652,2.778-3.311c-0.151-1.732-1.649-2.926-3.313-2.781c-1.728,0.152-2.999,1.588-2.847,3.32     C561.581,166.333,563.09,167.597,564.818,167.445L564.818,167.445z"/>
<path fill="none" stroke="#000000" stroke-width="0.504" stroke-miterlimit="2.4142" d="M571.049,173.607     c1.663-0.144,2.923-1.652,2.778-3.311c-0.149-1.731-1.65-2.925-3.313-2.781c-1.726,0.151-3,1.589-2.849,3.321     C567.809,172.494,569.318,173.759,571.049,173.607L571.049,173.607z"/>
<path fill="none" stroke="#000000" stroke-width="0.504" stroke-miterlimit="2.4142" d="M559.753,174.595     c1.665-0.143,2.925-1.652,2.779-3.311c-0.148-1.732-1.65-2.924-3.313-2.781c-1.727,0.152-2.997,1.589-2.848,3.319     C556.515,173.482,558.023,174.748,559.753,174.595L559.753,174.595z"/>
</g></switch>
</svg>