<?xml version="1.0" encoding="utf-8"?>
<!DOCTYPE svg PUBLIC "-//W3C//DTD SVG 1.1//EN" "http://www.w3.org/Graphics/SVG/1.1/DTD/svg11.dtd">
<svg version="1.1" id="Armor" xmlns="http://www.w3.org/2000/svg" xmlns:xlink="http://www.w3.org/1999/xlink" x="0px" y="0px"
	 width="612px" height="792px" viewBox="0 0 612 792" enable-background="new 0 0 612 792" xml:space="preserve">
<switch><g>
<path fill-rule="evenodd" clip-rule="evenodd" fill="none" stroke="#000000" stroke-width="0.504" stroke-miterlimit="2.4142" d="    M551.947,85.649c1.665-0.145,2.93-1.653,2.78-3.312c-0.149-1.73-1.646-2.923-3.313-2.78c-1.729,0.151-2.998,1.59-2.844,3.321    C548.716,84.539,550.219,85.799,551.947,85.649L551.947,85.649z"/>
<path fill-rule="evenodd" clip-rule="evenodd" fill="none" stroke="#000000" stroke-width="0.504" stroke-miterlimit="2.4142" d="    M557.963,89.391c1.666-0.144,2.93-1.652,2.783-3.312c-0.148-1.732-1.652-2.925-3.31-2.778c-1.733,0.15-2.999,1.585-2.853,3.318    C554.734,88.279,556.234,89.542,557.963,89.391L557.963,89.391z"/>
<path fill-rule="evenodd" clip-rule="evenodd" fill="none" stroke="#000000" stroke-width="0.504" stroke-miterlimit="2.4142" d="    M563.984,93.133c1.663-0.144,2.929-1.651,2.779-3.313c-0.152-1.729-1.646-2.924-3.313-2.778c-1.729,0.151-3.002,1.588-2.85,3.319    C560.747,92.021,562.259,93.283,563.984,93.133L563.984,93.133z"/>
<path fill-rule="evenodd" clip-rule="evenodd" fill="none" stroke="#000000" stroke-width="0.504" stroke-miterlimit="2.4142" d="    M552.688,94.122c1.665-0.146,2.933-1.653,2.781-3.313c-0.15-1.731-1.645-2.924-3.313-2.78c-1.73,0.15-2.999,1.59-2.845,3.32    C549.456,93.01,550.962,94.271,552.688,94.122L552.688,94.122z"/>
<path fill-rule="evenodd" clip-rule="evenodd" fill="none" stroke="#000000" stroke-width="0.504" stroke-miterlimit="2.4142" d="    M558.703,97.861c1.666-0.143,2.93-1.65,2.785-3.311c-0.15-1.73-1.65-2.926-3.311-2.778c-1.732,0.148-3.002,1.585-2.852,3.317    C555.473,96.749,556.977,98.014,558.703,97.861L558.703,97.861z"/>
<path fill-rule="evenodd" clip-rule="evenodd" fill="none" stroke="#000000" stroke-width="0.504" stroke-miterlimit="2.4142" d="     M547.412,98.852c1.663-0.144,2.931-1.652,2.786-3.313c-0.148-1.729-1.656-2.925-3.318-2.778c-1.729,0.149-2.995,1.586-2.845,3.32     C544.182,97.739,545.685,99.001,547.412,98.852L547.412,98.852z"/>
<path fill-rule="evenodd" clip-rule="evenodd" fill="none" stroke="#000000" stroke-width="0.504" stroke-miterlimit="2.4142" d="    M564.723,101.604c1.665-0.144,2.93-1.651,2.783-3.311c-0.149-1.731-1.65-2.926-3.313-2.779c-1.729,0.15-3.002,1.587-2.852,3.318    C561.488,100.493,562.997,101.756,564.723,101.604L564.723,101.604z"/>
<path fill-rule="evenodd" clip-rule="evenodd" fill="none" stroke="#000000" stroke-width="0.504" stroke-miterlimit="2.4142" d="    M553.427,102.593c1.663-0.144,2.931-1.652,2.786-3.313c-0.148-1.729-1.656-2.925-3.318-2.778c-1.729,0.149-2.995,1.586-2.845,3.32    C550.196,101.48,551.699,102.742,553.427,102.593L553.427,102.593z"/>
<path fill-rule="evenodd" clip-rule="evenodd" fill="none" stroke="#000000" stroke-width="0.504" stroke-miterlimit="2.4142" d="    M559.447,106.336c1.668-0.146,2.924-1.654,2.781-3.31c-0.152-1.733-1.65-2.928-3.314-2.785c-1.729,0.153-2.996,1.591-2.846,3.321    C556.212,105.222,557.723,106.486,559.447,106.336L559.447,106.336z"/>
<path fill-rule="evenodd" clip-rule="evenodd" fill="none" stroke="#000000" stroke-width="0.504" stroke-miterlimit="2.4142" d="     M548.158,107.323c1.66-0.145,2.924-1.651,2.782-3.313c-0.156-1.73-1.654-2.924-3.318-2.779c-1.729,0.15-2.998,1.588-2.845,3.319     C544.921,106.209,546.427,107.476,548.158,107.323L548.158,107.323z"/>
<path fill-rule="evenodd" clip-rule="evenodd" fill="none" stroke="#000000" stroke-width="0.504" stroke-miterlimit="2.4142" d="    M565.468,110.076c1.662-0.144,2.92-1.651,2.778-3.312c-0.152-1.729-1.65-2.924-3.313-2.78c-1.728,0.15-3.001,1.589-2.85,3.319    C562.227,108.963,563.736,110.23,565.468,110.076L565.468,110.076z"/>
<path fill-rule="evenodd" clip-rule="evenodd" fill="none" stroke="#000000" stroke-width="0.504" stroke-miterlimit="2.4142" d="    M554.173,111.064c1.66-0.145,2.924-1.651,2.782-3.313c-0.156-1.73-1.654-2.924-3.318-2.779c-1.729,0.15-2.998,1.588-2.845,3.319    C550.936,109.95,552.441,111.217,554.173,111.064L554.173,111.064z"/>
<path fill-rule="evenodd" clip-rule="evenodd" fill="none" stroke="#000000" stroke-width="0.504" stroke-miterlimit="2.4142" d="    M560.191,114.806c1.663-0.147,2.923-1.653,2.777-3.312c-0.154-1.73-1.65-2.926-3.314-2.78c-1.73,0.151-2.996,1.589-2.846,3.32    C556.959,113.691,558.46,114.957,560.191,114.806L560.191,114.806z"/>
<path fill-rule="evenodd" clip-rule="evenodd" fill="none" stroke="#000000" stroke-width="0.504" stroke-miterlimit="2.4142" d="    M566.209,118.547c1.663-0.145,2.922-1.651,2.78-3.313c-0.153-1.73-1.652-2.924-3.314-2.778c-1.731,0.152-3.002,1.587-2.848,3.319    C562.973,117.436,564.477,118.698,566.209,118.547L566.209,118.547z"/>
<path fill-rule="evenodd" clip-rule="evenodd" fill="none" stroke="#000000" stroke-width="0.504" stroke-miterlimit="2.4142" d="    M554.912,119.536c1.661-0.145,2.926-1.651,2.782-3.311c-0.15-1.73-1.654-2.926-3.318-2.782c-1.729,0.153-2.996,1.591-2.84,3.322    C551.681,118.426,553.182,119.689,554.912,119.536L554.912,119.536z"/>
<path fill-rule="evenodd" clip-rule="evenodd" fill="none" stroke="#000000" stroke-width="0.504" stroke-miterlimit="2.4142" d="    M560.93,123.276c1.662-0.144,2.925-1.65,2.781-3.31c-0.154-1.73-1.648-2.925-3.314-2.78c-1.727,0.151-2.996,1.588-2.846,3.319    C557.694,122.166,559.204,123.428,560.93,123.276L560.93,123.276z"/>
<path fill-rule="evenodd" clip-rule="evenodd" fill="none" stroke="#000000" stroke-width="0.504" stroke-miterlimit="2.4142" d="    M566.947,127.02c1.662-0.146,2.926-1.651,2.782-3.311c-0.155-1.734-1.647-2.928-3.314-2.782c-1.729,0.152-3.001,1.587-2.848,3.319    C563.709,125.907,565.221,127.172,566.947,127.02L566.947,127.02z"/>
<path fill-rule="evenodd" clip-rule="evenodd" fill="none" stroke="#000000" stroke-width="0.504" stroke-miterlimit="2.4142" d="    M555.652,128.007c1.66-0.146,2.93-1.651,2.787-3.314c-0.158-1.73-1.653-2.924-3.318-2.776c-1.729,0.151-2.996,1.585-2.847,3.318    C552.418,126.895,553.922,128.158,555.652,128.007L555.652,128.007z"/>
<path fill-rule="evenodd" clip-rule="evenodd" fill="none" stroke="#000000" stroke-width="0.504" stroke-miterlimit="2.4142" d="    M561.672,131.751c1.664-0.146,2.923-1.651,2.777-3.313c-0.15-1.731-1.648-2.926-3.313-2.783c-1.726,0.153-2.996,1.589-2.843,3.323    C558.436,130.639,559.939,131.902,561.672,131.751L561.672,131.751z"/>
<path fill-rule="evenodd" clip-rule="evenodd" fill="none" stroke="#000000" stroke-width="0.504" stroke-miterlimit="2.4142" d="    M567.689,135.491c1.666-0.146,2.924-1.652,2.778-3.312c-0.149-1.733-1.649-2.927-3.313-2.782    c-1.727,0.151-2.999,1.588-2.849,3.322C564.451,134.378,565.959,135.643,567.689,135.491L567.689,135.491z"/>
<path fill-rule="evenodd" clip-rule="evenodd" fill="none" stroke="#000000" stroke-width="0.504" stroke-miterlimit="2.4142" d="    M556.395,136.479c1.664-0.143,2.929-1.649,2.783-3.31c-0.15-1.73-1.655-2.926-3.318-2.783c-1.726,0.153-2.992,1.59-2.84,3.325    C553.16,135.369,554.665,136.631,556.395,136.479L556.395,136.479z"/>
<path fill-rule="evenodd" clip-rule="evenodd" fill="none" stroke="#000000" stroke-width="0.504" stroke-miterlimit="2.4142" d="    M562.412,140.22c1.666-0.143,2.926-1.649,2.777-3.309c-0.148-1.731-1.645-2.927-3.311-2.782c-1.729,0.152-2.998,1.589-2.842,3.322    C559.178,139.11,560.685,140.372,562.412,140.22L562.412,140.22z"/>
<path fill-rule="evenodd" clip-rule="evenodd" fill="none" stroke="#000000" stroke-width="0.504" stroke-miterlimit="2.4142" d="    M568.428,143.962c1.667-0.144,2.93-1.65,2.784-3.311c-0.155-1.732-1.647-2.926-3.314-2.781c-1.728,0.151-3,1.589-2.848,3.322    C565.195,142.85,566.705,144.112,568.428,143.962L568.428,143.962z"/>
<path fill-rule="evenodd" clip-rule="evenodd" fill="none" stroke="#000000" stroke-width="0.504" stroke-miterlimit="2.4142" d="    M557.133,144.95c1.664-0.145,2.932-1.653,2.786-3.312c-0.155-1.731-1.653-2.925-3.316-2.78c-1.732,0.151-2.999,1.589-2.843,3.319    C553.898,143.838,555.406,145.1,557.133,144.95L557.133,144.95z"/>
<path fill-rule="evenodd" clip-rule="evenodd" fill="none" stroke="#000000" stroke-width="0.504" stroke-miterlimit="2.4142" d="    M563.153,148.69c1.661-0.145,2.924-1.65,2.781-3.311c-0.155-1.731-1.65-2.926-3.313-2.779c-1.727,0.15-3,1.587-2.844,3.319    C559.919,147.577,561.423,148.842,563.153,148.69L563.153,148.69z"/>
<path fill-rule="evenodd" clip-rule="evenodd" fill="none" stroke="#000000" stroke-width="0.504" stroke-miterlimit="2.4142" d="    M569.174,152.434c1.66-0.145,2.92-1.652,2.776-3.312c-0.149-1.732-1.652-2.924-3.313-2.78c-1.726,0.151-2.999,1.588-2.846,3.32    C565.932,151.321,567.439,152.586,569.174,152.434L569.174,152.434z"/>
<path fill-rule="evenodd" clip-rule="evenodd" fill="none" stroke="#000000" stroke-width="0.504" stroke-miterlimit="2.4142" d="    M557.879,153.421c1.659-0.142,2.924-1.65,2.78-3.311c-0.149-1.731-1.656-2.925-3.316-2.78c-1.728,0.151-2.993,1.588-2.843,3.32    C554.643,152.31,556.146,153.574,557.879,153.421L557.879,153.421z"/>
<path fill-rule="evenodd" clip-rule="evenodd" fill="none" stroke="#000000" stroke-width="0.504" stroke-miterlimit="2.4142" d="    M563.896,157.163c1.665-0.146,2.921-1.654,2.777-3.312c-0.15-1.734-1.649-2.924-3.313-2.78c-1.726,0.15-2.995,1.586-2.842,3.319    C560.659,156.05,562.165,157.314,563.896,157.163L563.896,157.163z"/>
<path fill-rule="evenodd" clip-rule="evenodd" fill="none" stroke="#000000" stroke-width="0.504" stroke-miterlimit="2.4142" d="    M569.914,160.904c1.662-0.145,2.922-1.653,2.777-3.311c-0.15-1.732-1.651-2.924-3.313-2.779c-1.727,0.149-3,1.586-2.849,3.319    C566.674,159.791,568.184,161.057,569.914,160.904L569.914,160.904z"/>
<path fill-rule="evenodd" clip-rule="evenodd" fill="none" stroke="#000000" stroke-width="0.504" stroke-miterlimit="2.4142" d="    M558.619,161.892c1.662-0.142,2.926-1.651,2.781-3.312c-0.15-1.731-1.655-2.924-3.317-2.777c-1.727,0.151-2.993,1.586-2.841,3.318    C555.383,160.78,556.887,162.045,558.619,161.892L558.619,161.892z"/>
<path fill-rule="evenodd" clip-rule="evenodd" fill="none" stroke="#000000" stroke-width="0.504" stroke-miterlimit="2.4142" d="    M564.636,165.634c1.665-0.144,2.923-1.65,2.78-3.31c-0.153-1.734-1.65-2.924-3.314-2.781c-1.725,0.152-2.995,1.587-2.842,3.323    C561.401,164.523,562.906,165.786,564.636,165.634L564.636,165.634z"/>
<path fill-rule="evenodd" clip-rule="evenodd" fill="none" stroke="#000000" stroke-width="0.504" stroke-miterlimit="2.4142" d="    M570.654,169.376c1.664-0.145,2.923-1.652,2.777-3.311c-0.148-1.733-1.65-2.925-3.313-2.78c-1.725,0.15-2.998,1.586-2.848,3.319    C567.416,168.264,568.924,169.528,570.654,169.376L570.654,169.376z"/>
<path fill-rule="evenodd" clip-rule="evenodd" fill="none" stroke="#000000" stroke-width="0.504" stroke-miterlimit="2.4142" d="    M559.359,170.363c1.662-0.144,2.927-1.652,2.781-3.311c-0.148-1.732-1.654-2.926-3.315-2.779c-1.729,0.15-2.993,1.586-2.843,3.319    C556.123,169.251,557.629,170.517,559.359,170.363L559.359,170.363z"/>
<path fill-rule="evenodd" clip-rule="evenodd" fill="none" stroke="#000000" stroke-width="0.504" stroke-miterlimit="2.4142" d="    M565.377,174.105c1.665-0.144,2.923-1.65,2.78-3.31c-0.153-1.734-1.649-2.924-3.314-2.781c-1.726,0.152-2.995,1.587-2.841,3.322    C562.143,172.995,563.647,174.258,565.377,174.105L565.377,174.105z"/>
</g></switch>
</svg>