<?xml version="1.0" encoding="utf-8"?>
<!DOCTYPE svg PUBLIC "-//W3C//DTD SVG 1.1//EN" "http://www.w3.org/Graphics/SVG/1.1/DTD/svg11.dtd">
<svg version="1.1" id="Armor" xmlns="http://www.w3.org/2000/svg" xmlns:xlink="http://www.w3.org/1999/xlink" x="0px" y="0px"
	 width="612px" height="792px" viewBox="0 0 612 792" enable-background="new 0 0 612 792" xml:space="preserve">
<switch><g>
<path fill-rule="evenodd" clip-rule="evenodd" fill="none" stroke="#000000" stroke-width="0.504" stroke-miterlimit="2.4142" d="     M456.988,189.798c-1.561-0.389-2.525-1.988-2.118-3.619c0.39-1.561,1.991-2.521,3.554-2.133c1.627,0.407,2.59,2.006,2.199,3.566     C460.215,189.244,458.617,190.204,456.988,189.798L456.988,189.798z"/>
<path fill-rule="evenodd" clip-rule="evenodd" fill="none" stroke="#000000" stroke-width="0.504" stroke-miterlimit="2.4142" d="     M468.404,192.433c-1.561-0.389-2.527-1.988-2.117-3.619c0.387-1.561,1.99-2.521,3.552-2.132c1.627,0.406,2.589,2.006,2.2,3.565     C471.631,191.88,470.031,192.84,468.404,192.433L468.404,192.433z"/>
<path fill-rule="evenodd" clip-rule="evenodd" fill="none" stroke="#000000" stroke-width="0.504" stroke-miterlimit="2.4142" d="     M461.125,197.92c-1.558-0.39-2.525-1.987-2.117-3.622c0.393-1.561,1.988-2.52,3.553-2.129c1.625,0.404,2.588,2.004,2.199,3.563     C464.35,197.367,462.752,198.325,461.125,197.92L461.125,197.92z"/>
<path fill-rule="evenodd" clip-rule="evenodd" fill="none" stroke="#000000" stroke-width="0.504" stroke-miterlimit="2.4142" d="     M453.842,203.404c-1.564-0.389-2.518-1.984-2.111-3.619c0.387-1.562,1.988-2.518,3.553-2.129     c1.623,0.409,2.584,2.004,2.194,3.563C457.077,202.854,455.475,203.814,453.842,203.404L453.842,203.404z"/>
<path fill-rule="evenodd" clip-rule="evenodd" fill="none" stroke="#000000" stroke-width="0.504" stroke-miterlimit="2.4142" d="     M465.256,206.04c-1.563-0.389-2.516-1.983-2.111-3.618c0.389-1.563,1.989-2.518,3.553-2.131c1.625,0.409,2.586,2.005,2.195,3.563     C468.491,205.49,466.891,206.45,465.256,206.04L465.256,206.04z"/>
<path fill-rule="evenodd" clip-rule="evenodd" fill="none" stroke="#000000" stroke-width="0.504" stroke-miterlimit="2.4142" d="     M457.981,211.529c-1.565-0.393-2.522-1.985-2.112-3.622c0.391-1.558,1.984-2.518,3.549-2.131     c1.623,0.409,2.588,2.005,2.201,3.564C461.215,210.978,459.615,211.932,457.981,211.529L457.981,211.529z"/>
<path fill-rule="evenodd" clip-rule="evenodd" fill="none" stroke="#000000" stroke-width="0.504" stroke-miterlimit="2.4142" d="     M450.708,217.015c-1.563-0.39-2.521-1.984-2.119-3.619c0.392-1.562,1.986-2.518,3.546-2.132c1.635,0.409,2.594,2.001,2.203,3.564     C453.934,216.463,452.336,217.422,450.708,217.015L450.708,217.015z"/>
<path fill-rule="evenodd" clip-rule="evenodd" fill="none" stroke="#000000" stroke-width="0.504" stroke-miterlimit="2.4142" d="     M462.121,219.65c-1.563-0.391-2.52-1.985-2.119-3.621c0.393-1.562,1.986-2.518,3.549-2.131c1.631,0.41,2.592,2.001,2.201,3.565     C465.348,219.097,463.75,220.057,462.121,219.65L462.121,219.65z"/>
<path fill-rule="evenodd" clip-rule="evenodd" fill="none" stroke="#000000" stroke-width="0.504" stroke-miterlimit="2.4142" d="     M454.84,225.137c-1.563-0.39-2.519-1.987-2.113-3.617c0.395-1.564,1.984-2.521,3.549-2.133c1.627,0.406,2.588,2.002,2.199,3.564     C458.07,224.583,456.473,225.543,454.84,225.137L454.84,225.137z"/>
<path fill-rule="evenodd" clip-rule="evenodd" fill="none" stroke="#000000" stroke-width="0.504" stroke-miterlimit="2.4142" d="     M447.557,230.621c-1.557-0.385-2.52-1.982-2.109-3.615c0.39-1.562,1.982-2.523,3.547-2.132c1.629,0.405,2.592,2.005,2.201,3.566     C450.787,230.074,449.192,231.033,447.557,230.621L447.557,230.621z"/>
<path fill-rule="evenodd" clip-rule="evenodd" fill="none" stroke="#000000" stroke-width="0.504" stroke-miterlimit="2.4142" d="     M458.973,233.256c-1.559-0.386-2.518-1.982-2.111-3.615c0.391-1.561,1.984-2.523,3.549-2.131     c1.631,0.404,2.592,2.005,2.201,3.565C462.205,232.709,460.607,233.669,458.973,233.256L458.973,233.256z"/>
<path fill-rule="evenodd" clip-rule="evenodd" fill="none" stroke="#000000" stroke-width="0.504" stroke-miterlimit="2.4142" d="     M451.695,238.742c-1.564-0.385-2.52-1.981-2.109-3.612c0.389-1.563,1.982-2.523,3.546-2.133c1.63,0.404,2.59,2.005,2.197,3.566     C454.926,238.196,453.328,239.155,451.695,238.742L451.695,238.742z"/>
<path fill-rule="evenodd" clip-rule="evenodd" fill="none" stroke="#000000" stroke-width="0.504" stroke-miterlimit="2.4142" d="     M444.418,244.231c-1.563-0.391-2.521-1.986-2.113-3.619c0.393-1.563,1.986-2.521,3.549-2.131     c1.631,0.405,2.591,2.004,2.199,3.564C447.648,243.679,446.053,244.64,444.418,244.231L444.418,244.231z"/>
<path fill-rule="evenodd" clip-rule="evenodd" fill="none" stroke="#000000" stroke-width="0.504" stroke-miterlimit="2.4142" d="     M455.833,246.866c-1.563-0.39-2.522-1.986-2.114-3.616c0.393-1.566,1.986-2.525,3.549-2.133c1.633,0.404,2.592,2.003,2.2,3.563     C459.064,246.315,457.467,247.274,455.833,246.866L455.833,246.866z"/>
<path fill-rule="evenodd" clip-rule="evenodd" fill="none" stroke="#000000" stroke-width="0.504" stroke-miterlimit="2.4142" d="     M448.551,252.353c-1.561-0.391-2.514-1.984-2.107-3.614c0.389-1.563,1.984-2.525,3.547-2.134c1.633,0.406,2.59,2.003,2.201,3.563     C451.787,251.805,450.186,252.762,448.551,252.353L448.551,252.353z"/>
<path fill-rule="evenodd" clip-rule="evenodd" fill="none" stroke="#000000" stroke-width="0.504" stroke-miterlimit="2.4142" d="     M441.273,257.839c-1.562-0.386-2.519-1.983-2.111-3.615c0.393-1.564,1.986-2.521,3.547-2.133     c1.631,0.408,2.594,2.004,2.199,3.564C444.504,257.288,442.904,258.25,441.273,257.839L441.273,257.839z"/>
<path fill-rule="evenodd" clip-rule="evenodd" fill="none" stroke="#000000" stroke-width="0.504" stroke-miterlimit="2.4142" d="     M452.69,260.475c-1.562-0.387-2.521-1.983-2.11-3.614c0.391-1.565,1.984-2.522,3.545-2.134c1.631,0.407,2.594,2.005,2.2,3.566     C455.92,259.925,454.32,260.886,452.69,260.475L452.69,260.475z"/>
<path fill-rule="evenodd" clip-rule="evenodd" fill="none" stroke="#000000" stroke-width="0.504" stroke-miterlimit="2.4142" d="     M445.411,265.962c-1.564-0.389-2.515-1.982-2.11-3.617c0.391-1.564,1.986-2.521,3.548-2.132c1.633,0.407,2.589,2.005,2.2,3.565     C448.639,265.41,447.047,266.37,445.411,265.962L445.411,265.962z"/>
<path fill-rule="evenodd" clip-rule="evenodd" fill="none" stroke="#000000" stroke-width="0.504" stroke-miterlimit="2.4142" d="     M438.133,271.448c-1.562-0.387-2.521-1.984-2.112-3.617c0.39-1.565,1.985-2.519,3.55-2.132c1.629,0.405,2.591,2.005,2.201,3.563     C441.367,270.896,439.767,271.856,438.133,271.448L438.133,271.448z"/>
<path fill-rule="evenodd" clip-rule="evenodd" fill="none" stroke="#000000" stroke-width="0.504" stroke-miterlimit="2.4142" d="     M449.549,274.084c-1.563-0.388-2.523-1.986-2.115-3.617c0.393-1.565,1.988-2.519,3.551-2.132c1.63,0.403,2.592,2.005,2.201,3.563     C452.781,273.531,451.182,274.492,449.549,274.084L449.549,274.084z"/>
<path fill-rule="evenodd" clip-rule="evenodd" fill="none" stroke="#000000" stroke-width="0.504" stroke-miterlimit="2.4142" d="     M442.27,279.57c-1.562-0.388-2.516-1.985-2.112-3.616c0.391-1.564,1.989-2.522,3.548-2.132c1.635,0.406,2.594,2.005,2.203,3.563     C445.5,279.021,443.904,279.98,442.27,279.57L442.27,279.57z"/>
<path fill-rule="evenodd" clip-rule="evenodd" fill="none" stroke="#000000" stroke-width="0.504" stroke-miterlimit="2.4142" d="     M434.993,285.057c-1.563-0.387-2.522-1.984-2.113-3.618c0.39-1.561,1.987-2.519,3.551-2.128c1.632,0.405,2.592,2.003,2.2,3.563     C438.225,284.506,436.628,285.467,434.993,285.057L434.993,285.057z"/>
<path fill-rule="evenodd" clip-rule="evenodd" fill="none" stroke="#000000" stroke-width="0.504" stroke-miterlimit="2.4142" d="     M446.406,287.692c-1.563-0.387-2.522-1.984-2.115-3.619c0.391-1.559,1.988-2.517,3.553-2.128c1.63,0.406,2.592,2.003,2.199,3.565     C449.635,287.143,448.04,288.103,446.406,287.692L446.406,287.692z"/>
<path fill-rule="evenodd" clip-rule="evenodd" fill="none" stroke="#000000" stroke-width="0.504" stroke-miterlimit="2.4142" d="     M439.131,293.183c-1.564-0.39-2.525-1.986-2.114-3.62c0.388-1.562,1.983-2.519,3.55-2.133c1.627,0.407,2.592,2.007,2.202,3.565     C442.356,292.629,440.761,293.589,439.131,293.183L439.131,293.183z"/>
<path fill-rule="evenodd" clip-rule="evenodd" fill="none" stroke="#000000" stroke-width="0.504" stroke-miterlimit="2.4142" d="     M431.852,298.667c-1.563-0.388-2.521-1.988-2.113-3.621c0.389-1.56,1.986-2.516,3.548-2.128c1.63,0.406,2.595,2,2.2,3.563     C435.08,298.116,433.484,299.076,431.852,298.667L431.852,298.667z"/>
<path fill-rule="evenodd" clip-rule="evenodd" fill="none" stroke="#000000" stroke-width="0.504" stroke-miterlimit="2.4142" d="     M443.265,301.302c-1.563-0.387-2.522-1.988-2.114-3.62c0.391-1.559,1.986-2.517,3.551-2.129c1.627,0.406,2.592,2,2.199,3.563     C446.494,300.751,444.896,301.711,443.265,301.302L443.265,301.302z"/>
</g></switch>
</svg>