<?xml version="1.0" encoding="utf-8"?>
<!DOCTYPE svg PUBLIC "-//W3C//DTD SVG 1.1//EN" "http://www.w3.org/Graphics/SVG/1.1/DTD/svg11.dtd">
<svg version="1.1" id="Armor" xmlns="http://www.w3.org/2000/svg" xmlns:xlink="http://www.w3.org/1999/xlink" x="0px" y="0px"
	 width="612px" height="792px" viewBox="0 0 612 792" enable-background="new 0 0 612 792" xml:space="preserve">
<switch><g>
<path fill-rule="evenodd" clip-rule="evenodd" fill="none" stroke="#000000" stroke-width="0.504" stroke-miterlimit="2.4142" d="     M462.528,190.95c-1.563-0.393-2.521-1.984-2.11-3.621c0.391-1.558,1.984-2.518,3.549-2.132c1.625,0.41,2.587,2.005,2.202,3.565     C465.764,190.399,464.166,191.353,462.528,190.95L462.528,190.95z"/>
<path fill-rule="evenodd" clip-rule="evenodd" fill="none" stroke="#000000" stroke-width="0.504" stroke-miterlimit="2.4142" d="     M455.033,197.409c-1.563-0.391-2.521-1.985-2.12-3.62c0.392-1.563,1.986-2.519,3.549-2.132c1.629,0.408,2.593,2,2.2,3.566     C458.259,196.856,456.66,197.815,455.033,197.409L455.033,197.409z"/>
<path fill-rule="evenodd" clip-rule="evenodd" fill="none" stroke="#000000" stroke-width="0.504" stroke-miterlimit="2.4142" d="     M466.444,200.042c-1.563-0.389-2.519-1.983-2.118-3.62c0.393-1.561,1.987-2.518,3.549-2.131c1.631,0.409,2.592,2.001,2.202,3.565     C469.672,199.49,468.074,200.451,466.444,200.042L466.444,200.042z"/>
<path fill-rule="evenodd" clip-rule="evenodd" fill="none" stroke="#000000" stroke-width="0.504" stroke-miterlimit="2.4142" d="     M458.939,206.5c-1.563-0.39-2.52-1.986-2.111-3.617c0.392-1.563,1.982-2.521,3.547-2.133c1.628,0.406,2.588,2.002,2.201,3.564     C462.171,205.947,460.573,206.908,458.939,206.5L458.939,206.5z"/>
<path fill-rule="evenodd" clip-rule="evenodd" fill="none" stroke="#000000" stroke-width="0.504" stroke-miterlimit="2.4142" d="     M451.436,212.956c-1.561-0.384-2.518-1.982-2.113-3.616c0.393-1.558,1.986-2.521,3.549-2.127     c1.631,0.401,2.592,2.003,2.202,3.564C454.666,212.411,453.067,213.371,451.436,212.956L451.436,212.956z"/>
<path fill-rule="evenodd" clip-rule="evenodd" fill="none" stroke="#000000" stroke-width="0.504" stroke-miterlimit="2.4142" d="     M462.848,215.591c-1.56-0.386-2.516-1.981-2.109-3.615c0.389-1.559,1.982-2.522,3.547-2.13c1.631,0.403,2.594,2.004,2.201,3.565     C466.079,215.044,464.483,216.004,462.848,215.591L462.848,215.591z"/>
<path fill-rule="evenodd" clip-rule="evenodd" fill="none" stroke="#000000" stroke-width="0.504" stroke-miterlimit="2.4142" d="     M455.348,222.049c-1.564-0.385-2.521-1.981-2.109-3.61c0.389-1.564,1.982-2.525,3.547-2.133c1.627,0.402,2.588,2.003,2.196,3.565     C458.577,221.504,456.98,222.463,455.348,222.049L455.348,222.049z"/>
<path fill-rule="evenodd" clip-rule="evenodd" fill="none" stroke="#000000" stroke-width="0.504" stroke-miterlimit="2.4142" d="     M447.846,228.511c-1.564-0.389-2.523-1.986-2.114-3.617c0.393-1.565,1.987-2.523,3.548-2.133     c1.634,0.406,2.591,2.004,2.199,3.563C451.078,227.961,449.479,228.92,447.846,228.511L447.846,228.511z"/>
<path fill-rule="evenodd" clip-rule="evenodd" fill="none" stroke="#000000" stroke-width="0.504" stroke-miterlimit="2.4142" d="     M459.261,231.147c-1.565-0.391-2.522-1.986-2.114-3.617c0.391-1.565,1.984-2.524,3.548-2.134c1.632,0.406,2.591,2.003,2.2,3.563     C462.492,230.597,460.893,231.555,459.261,231.147L459.261,231.147z"/>
<path fill-rule="evenodd" clip-rule="evenodd" fill="none" stroke="#000000" stroke-width="0.504" stroke-miterlimit="2.4142" d="     M451.752,237.604c-1.561-0.391-2.514-1.984-2.105-3.614c0.389-1.563,1.984-2.525,3.547-2.135c1.631,0.407,2.59,2.003,2.201,3.563     C454.99,237.056,453.389,238.012,451.752,237.604L451.752,237.604z"/>
<path fill-rule="evenodd" clip-rule="evenodd" fill="none" stroke="#000000" stroke-width="0.504" stroke-miterlimit="2.4142" d="     M444.252,244.063c-1.563-0.389-2.521-1.983-2.11-3.615c0.39-1.565,1.985-2.521,3.545-2.134c1.63,0.407,2.593,2.006,2.2,3.567     C447.48,243.511,445.881,244.475,444.252,244.063L444.252,244.063z"/>
<path fill-rule="evenodd" clip-rule="evenodd" fill="none" stroke="#000000" stroke-width="0.504" stroke-miterlimit="2.4142" d="     M455.67,246.698c-1.563-0.386-2.521-1.984-2.113-3.613c0.393-1.565,1.986-2.523,3.546-2.135c1.632,0.407,2.595,2.006,2.201,3.566     C458.898,246.146,457.299,247.11,455.67,246.698L455.67,246.698z"/>
<path fill-rule="evenodd" clip-rule="evenodd" fill="none" stroke="#000000" stroke-width="0.504" stroke-miterlimit="2.4142" d="     M448.166,253.158c-1.566-0.389-2.518-1.984-2.113-3.617c0.393-1.565,1.987-2.523,3.551-2.132     c1.631,0.407,2.588,2.005,2.199,3.565C451.394,252.606,449.801,253.567,448.166,253.158L448.166,253.158z"/>
<path fill-rule="evenodd" clip-rule="evenodd" fill="none" stroke="#000000" stroke-width="0.504" stroke-miterlimit="2.4142" d="     M440.666,259.617c-1.563-0.39-2.523-1.987-2.115-3.618c0.393-1.566,1.988-2.52,3.552-2.131c1.628,0.403,2.593,2.004,2.2,3.561     C443.899,259.062,442.299,260.022,440.666,259.617L440.666,259.617z"/>
<path fill-rule="evenodd" clip-rule="evenodd" fill="none" stroke="#000000" stroke-width="0.504" stroke-miterlimit="2.4142" d="     M452.077,262.25c-1.562-0.39-2.522-1.986-2.114-3.617c0.393-1.564,1.988-2.519,3.549-2.131c1.633,0.403,2.593,2.004,2.203,3.563     C455.311,261.698,453.711,262.659,452.077,262.25L452.077,262.25z"/>
<path fill-rule="evenodd" clip-rule="evenodd" fill="none" stroke="#000000" stroke-width="0.504" stroke-miterlimit="2.4142" d="     M444.574,268.708c-1.56-0.389-2.514-1.985-2.112-3.616c0.392-1.564,1.989-2.523,3.548-2.131c1.637,0.404,2.595,2.005,2.202,3.562     C447.805,268.159,446.209,269.119,444.574,268.708L444.574,268.708z"/>
<path fill-rule="evenodd" clip-rule="evenodd" fill="none" stroke="#000000" stroke-width="0.504" stroke-miterlimit="2.4142" d="     M437.076,275.168c-1.563-0.389-2.521-1.984-2.116-3.621c0.392-1.558,1.988-2.518,3.552-2.127     c1.633,0.406,2.594,2.003,2.201,3.565C440.305,274.617,438.708,275.578,437.076,275.168L437.076,275.168z"/>
<path fill-rule="evenodd" clip-rule="evenodd" fill="none" stroke="#000000" stroke-width="0.504" stroke-miterlimit="2.4142" d="     M448.486,277.802c-1.563-0.387-2.522-1.982-2.113-3.619c0.391-1.558,1.988-2.517,3.551-2.128c1.631,0.406,2.594,2.005,2.2,3.565     C451.717,277.252,450.123,278.212,448.486,277.802L448.486,277.802z"/>
<path fill-rule="evenodd" clip-rule="evenodd" fill="none" stroke="#000000" stroke-width="0.504" stroke-miterlimit="2.4142" d="     M440.987,284.264c-1.563-0.39-2.526-1.986-2.112-3.621c0.385-1.562,1.98-2.518,3.549-2.131c1.627,0.406,2.59,2.005,2.201,3.564     C444.213,283.709,442.615,284.669,440.987,284.264L440.987,284.264z"/>
<path fill-rule="evenodd" clip-rule="evenodd" fill="none" stroke="#000000" stroke-width="0.504" stroke-miterlimit="2.4142" d="     M433.482,290.72c-1.563-0.387-2.521-1.986-2.112-3.62c0.392-1.559,1.985-2.517,3.552-2.128c1.625,0.405,2.59,1.998,2.197,3.563     C436.713,290.169,435.115,291.129,433.482,290.72L433.482,290.72z"/>
<path fill-rule="evenodd" clip-rule="evenodd" fill="none" stroke="#000000" stroke-width="0.504" stroke-miterlimit="2.4142" d="     M444.898,293.355c-1.564-0.386-2.523-1.985-2.116-3.619c0.391-1.559,1.988-2.518,3.55-2.129c1.629,0.406,2.592,2,2.201,3.563     C448.127,292.805,446.527,293.765,444.898,293.355L444.898,293.355z"/>
<path fill-rule="evenodd" clip-rule="evenodd" fill="none" stroke="#000000" stroke-width="0.504" stroke-miterlimit="2.4142" d="     M437.396,299.817c-1.563-0.39-2.525-1.986-2.112-3.621c0.386-1.562,1.981-2.519,3.55-2.132c1.627,0.407,2.59,2.006,2.201,3.565     C440.623,299.261,439.025,300.222,437.396,299.817L437.396,299.817z"/>
</g></switch>
</svg>