<?xml version="1.0" encoding="utf-8"?>
<!DOCTYPE svg PUBLIC "-//W3C//DTD SVG 1.1//EN" "http://www.w3.org/Graphics/SVG/1.1/DTD/svg11.dtd">
<svg version="1.1" id="Armor" xmlns="http://www.w3.org/2000/svg" xmlns:xlink="http://www.w3.org/1999/xlink" x="0px" y="0px"
	 width="612px" height="792px" viewBox="0 0 612 792" enable-background="new 0 0 612 792" xml:space="preserve">
<switch><g>
<path fill="none" stroke="#000000" stroke-width="0.504" stroke-miterlimit="2.4142" d="M557.476,80.911     c1.662-0.143,2.927-1.651,2.78-3.311c-0.146-1.73-1.65-2.925-3.311-2.779c-1.729,0.15-3.001,1.587-2.853,3.319     C554.243,79.8,555.748,81.064,557.476,80.911L557.476,80.911z"/>
<path fill="none" stroke="#000000" stroke-width="0.504" stroke-miterlimit="2.4142" d="M563.749,87.586     c1.664-0.142,2.929-1.652,2.783-3.313c-0.152-1.729-1.652-2.924-3.312-2.778c-1.732,0.149-3.008,1.586-2.854,3.318     C560.514,86.474,562.021,87.738,563.749,87.586L563.749,87.586z"/>
<path fill="none" stroke="#000000" stroke-width="0.504" stroke-miterlimit="2.4142" d="M552.452,88.575     c1.664-0.146,2.929-1.653,2.786-3.313c-0.151-1.73-1.656-2.924-3.316-2.778c-1.729,0.149-2.999,1.587-2.848,3.318     C549.218,87.462,550.725,88.724,552.452,88.575L552.452,88.575z"/>
<path fill="none" stroke="#000000" stroke-width="0.504" stroke-miterlimit="2.4142" d="M558.729,95.249     c1.668-0.143,2.927-1.651,2.781-3.311c-0.149-1.729-1.647-2.925-3.313-2.781c-1.727,0.153-2.996,1.59-2.847,3.32     C555.49,94.136,557.002,95.402,558.729,95.249L558.729,95.249z"/>
<path fill="none" stroke="#000000" stroke-width="0.504" stroke-miterlimit="2.4142" d="M565.006,101.925     c1.664-0.146,2.923-1.653,2.779-3.313c-0.152-1.729-1.65-2.925-3.315-2.782c-1.725,0.154-2.999,1.593-2.849,3.321     C561.764,100.81,563.276,102.075,565.006,101.925L565.006,101.925z"/>
<path fill="none" stroke="#000000" stroke-width="0.504" stroke-miterlimit="2.4142" d="M553.71,102.911     c1.662-0.144,2.927-1.649,2.78-3.31c-0.152-1.729-1.65-2.925-3.314-2.781c-1.728,0.152-2.998,1.588-2.847,3.32     C550.472,101.8,551.982,103.064,553.71,102.911L553.71,102.911z"/>
<path fill="none" stroke="#000000" stroke-width="0.504" stroke-miterlimit="2.4142" d="M559.988,109.586     c1.66-0.144,2.921-1.651,2.774-3.311c-0.151-1.731-1.648-2.926-3.313-2.782c-1.729,0.153-2.997,1.59-2.845,3.321     C556.753,108.474,558.256,109.739,559.988,109.586L559.988,109.586z"/>
<path fill="none" stroke="#000000" stroke-width="0.504" stroke-miterlimit="2.4142" d="M566.262,116.259     c1.66-0.146,2.922-1.651,2.777-3.31c-0.154-1.73-1.652-2.925-3.313-2.779c-1.732,0.15-3.004,1.588-2.85,3.318     C563.025,115.149,564.529,116.412,566.262,116.259L566.262,116.259z"/>
<path fill="none" stroke="#000000" stroke-width="0.504" stroke-miterlimit="2.4142" d="M554.965,117.247     c1.66-0.144,2.924-1.652,2.782-3.31c-0.156-1.73-1.654-2.925-3.32-2.78c-1.729,0.151-2.998,1.588-2.84,3.32     C551.73,116.137,553.231,117.399,554.965,117.247L554.965,117.247z"/>
<path fill="none" stroke="#000000" stroke-width="0.504" stroke-miterlimit="2.4142" d="M561.239,123.924     c1.661-0.146,2.925-1.654,2.78-3.313c-0.154-1.734-1.647-2.927-3.313-2.781c-1.729,0.15-3,1.589-2.849,3.319     C558.002,122.809,559.513,124.075,561.239,123.924L561.239,123.924z"/>
<path fill="none" stroke="#000000" stroke-width="0.504" stroke-miterlimit="2.4142" d="M567.514,130.597     c1.662-0.146,2.929-1.652,2.778-3.313c-0.149-1.733-1.646-2.926-3.311-2.78c-1.73,0.151-3.003,1.586-2.853,3.319     C564.277,129.484,565.788,130.748,567.514,130.597L567.514,130.597z"/>
<path fill="none" stroke="#000000" stroke-width="0.504" stroke-miterlimit="2.4142" d="M556.216,131.586     c1.664-0.146,2.932-1.651,2.783-3.313c-0.15-1.732-1.647-2.925-3.314-2.78c-1.728,0.153-2.997,1.588-2.848,3.32     C552.982,130.473,554.489,131.738,556.216,131.586L556.216,131.586z"/>
<path fill="none" stroke="#000000" stroke-width="0.504" stroke-miterlimit="2.4142" d="M562.491,138.259     c1.666-0.145,2.925-1.65,2.782-3.31c-0.152-1.732-1.649-2.925-3.314-2.781c-1.727,0.152-2.996,1.588-2.846,3.322     C559.256,137.148,560.761,138.412,562.491,138.259L562.491,138.259z"/>
<path fill="none" stroke="#000000" stroke-width="0.504" stroke-miterlimit="2.4142" d="M568.768,144.935     c1.665-0.144,2.928-1.651,2.779-3.312c-0.148-1.733-1.648-2.927-3.313-2.781c-1.728,0.152-3,1.587-2.849,3.322     C565.53,143.823,567.039,145.087,568.768,144.935L568.768,144.935z"/>
<path fill="none" stroke="#000000" stroke-width="0.504" stroke-miterlimit="2.4142" d="M557.473,145.923     c1.663-0.145,2.928-1.65,2.781-3.31c-0.15-1.734-1.653-2.927-3.314-2.784c-1.728,0.152-2.995,1.588-2.844,3.323     C554.238,144.812,555.744,146.075,557.473,145.923L557.473,145.923z"/>
<path fill="none" stroke="#000000" stroke-width="0.504" stroke-miterlimit="2.4142" d="M563.747,152.597     c1.664-0.145,2.926-1.651,2.778-3.312c-0.151-1.731-1.647-2.926-3.311-2.781c-1.729,0.151-3.002,1.589-2.849,3.322     C560.511,151.484,562.021,152.748,563.747,152.597L563.747,152.597z"/>
<path fill="none" stroke="#000000" stroke-width="0.504" stroke-miterlimit="2.4142" d="M570.021,159.272     c1.665-0.145,2.925-1.653,2.778-3.313c-0.15-1.732-1.646-2.927-3.312-2.782c-1.729,0.151-3.002,1.59-2.85,3.324     C566.784,158.158,568.293,159.422,570.021,159.272L570.021,159.272z"/>
<path fill="none" stroke="#000000" stroke-width="0.504" stroke-miterlimit="2.4142" d="M558.729,160.259     c1.66-0.144,2.926-1.65,2.779-3.311c-0.152-1.731-1.652-2.927-3.314-2.781c-1.729,0.151-2.998,1.587-2.845,3.321     C555.489,159.148,556.996,160.411,558.729,160.259L558.729,160.259z"/>
<path fill="none" stroke="#000000" stroke-width="0.504" stroke-miterlimit="2.4142" d="M565.001,166.934     c1.663-0.144,2.926-1.652,2.78-3.311c-0.154-1.731-1.65-2.925-3.313-2.781c-1.726,0.152-2.999,1.589-2.844,3.321     C561.762,165.821,563.273,167.084,565.001,166.934L565.001,166.934z"/>
<path fill="none" stroke="#000000" stroke-width="0.504" stroke-miterlimit="2.4142" d="M571.277,173.606     c1.662-0.143,2.921-1.651,2.777-3.311c-0.15-1.731-1.65-2.925-3.312-2.779c-1.729,0.15-3.002,1.587-2.85,3.319     C568.035,172.496,569.545,173.759,571.277,173.606L571.277,173.606z"/>
<path fill="none" stroke="#000000" stroke-width="0.504" stroke-miterlimit="2.4142" d="M559.982,174.595     c1.661-0.141,2.923-1.652,2.777-3.311c-0.148-1.733-1.65-2.925-3.312-2.78c-1.729,0.151-2.998,1.587-2.845,3.319     C556.744,173.482,558.25,174.748,559.982,174.595L559.982,174.595z"/>
</g></switch>
</svg>