<?xml version="1.0" encoding="utf-8"?>
<!DOCTYPE svg PUBLIC "-//W3C//DTD SVG 1.1//EN" "http://www.w3.org/Graphics/SVG/1.1/DTD/svg11.dtd">
<svg version="1.1" id="Armor" xmlns="http://www.w3.org/2000/svg" xmlns:xlink="http://www.w3.org/1999/xlink" x="0px" y="0px"
	 width="612px" height="792px" viewBox="0 0 612 792" enable-background="new 0 0 612 792" xml:space="preserve">
<switch><g>
<path fill-rule="evenodd" clip-rule="evenodd" fill="none" stroke="#000000" stroke-width="0.504" stroke-miterlimit="2.4142" d="     M525.368,188.164c1.563-0.392,2.525-1.986,2.112-3.619c-0.386-1.563-1.98-2.523-3.544-2.131c-1.633,0.404-2.59,2-2.201,3.564     C522.142,187.609,523.74,188.57,525.368,188.164L525.368,188.164z"/>
<path fill-rule="evenodd" clip-rule="evenodd" fill="none" stroke="#000000" stroke-width="0.504" stroke-miterlimit="2.4142" d="     M513.956,190.798c1.563-0.392,2.525-1.987,2.113-3.62c-0.387-1.563-1.98-2.522-3.545-2.131c-1.633,0.405-2.59,2.001-2.2,3.565     C510.729,190.244,512.329,191.205,513.956,190.798L513.956,190.798z"/>
<path fill-rule="evenodd" clip-rule="evenodd" fill="none" stroke="#000000" stroke-width="0.504" stroke-miterlimit="2.4142" d="     M520.57,193.746c1.564-0.388,2.524-1.984,2.114-3.618c-0.389-1.561-1.984-2.521-3.547-2.129c-1.631,0.405-2.592,2-2.201,3.564     C517.345,193.194,518.942,194.154,520.57,193.746L520.57,193.746z"/>
<path fill-rule="evenodd" clip-rule="evenodd" fill="none" stroke="#000000" stroke-width="0.504" stroke-miterlimit="2.4142" d="     M527.331,196.663c1.561-0.393,2.523-1.987,2.111-3.62c-0.386-1.563-1.98-2.523-3.544-2.131c-1.632,0.404-2.589,2-2.2,3.564     C524.104,196.108,525.702,197.069,527.331,196.663L527.331,196.663z"/>
<path fill-rule="evenodd" clip-rule="evenodd" fill="none" stroke="#000000" stroke-width="0.504" stroke-miterlimit="2.4142" d="     M515.919,199.296c1.561-0.392,2.525-1.986,2.111-3.619c-0.386-1.563-1.98-2.523-3.543-2.132c-1.633,0.405-2.59,2.001-2.201,3.565     C512.692,198.742,514.29,199.703,515.919,199.296L515.919,199.296z"/>
<path fill-rule="evenodd" clip-rule="evenodd" fill="none" stroke="#000000" stroke-width="0.504" stroke-miterlimit="2.4142" d="     M522.534,202.244c1.563-0.388,2.523-1.984,2.113-3.617c-0.389-1.562-1.984-2.521-3.546-2.13     c-1.632,0.405-2.592,1.998-2.202,3.563C519.308,201.693,520.904,202.653,522.534,202.244L522.534,202.244z"/>
<path fill-rule="evenodd" clip-rule="evenodd" fill="none" stroke="#000000" stroke-width="0.504" stroke-miterlimit="2.4142" d="     M529.292,205.161c1.561-0.393,2.525-1.987,2.112-3.619c-0.386-1.562-1.979-2.522-3.546-2.132     c-1.632,0.405-2.588,2.002-2.198,3.565C526.065,204.606,527.665,205.567,529.292,205.161L529.292,205.161z"/>
<path fill-rule="evenodd" clip-rule="evenodd" fill="none" stroke="#000000" stroke-width="0.504" stroke-miterlimit="2.4142" d="     M517.88,207.795c1.561-0.393,2.525-1.987,2.113-3.62c-0.387-1.561-1.979-2.521-3.547-2.131c-1.631,0.405-2.588,2.002-2.197,3.565     C514.653,207.241,516.254,208.202,517.88,207.795L517.88,207.795z"/>
<path fill-rule="evenodd" clip-rule="evenodd" fill="none" stroke="#000000" stroke-width="0.504" stroke-miterlimit="2.4142" d="     M524.5,210.744c1.561-0.391,2.524-1.986,2.109-3.619c-0.384-1.563-1.979-2.523-3.546-2.133c-1.629,0.407-2.586,2.004-2.195,3.564     C521.27,210.192,522.87,211.15,524.5,210.744L524.5,210.744z"/>
<path fill-rule="evenodd" clip-rule="evenodd" fill="none" stroke="#000000" stroke-width="0.504" stroke-miterlimit="2.4142" d="     M531.249,213.66c1.564-0.392,2.523-1.99,2.117-3.621c-0.393-1.562-1.984-2.521-3.549-2.129c-1.633,0.403-2.59,2.001-2.201,3.563     C528.023,213.104,529.623,214.065,531.249,213.66L531.249,213.66z"/>
<path fill-rule="evenodd" clip-rule="evenodd" fill="none" stroke="#000000" stroke-width="0.504" stroke-miterlimit="2.4142" d="     M519.838,216.294c1.563-0.392,2.522-1.99,2.116-3.621c-0.393-1.562-1.984-2.521-3.549-2.129c-1.631,0.403-2.59,2.001-2.201,3.563     C516.612,215.739,518.212,216.7,519.838,216.294L519.838,216.294z"/>
<path fill-rule="evenodd" clip-rule="evenodd" fill="none" stroke="#000000" stroke-width="0.504" stroke-miterlimit="2.4142" d="     M526.456,219.242c1.563-0.391,2.525-1.987,2.115-3.621c-0.389-1.561-1.983-2.518-3.55-2.127c-1.63,0.404-2.588,2.002-2.2,3.563     C523.229,218.688,524.829,219.648,526.456,219.242L526.456,219.242z"/>
<path fill-rule="evenodd" clip-rule="evenodd" fill="none" stroke="#000000" stroke-width="0.504" stroke-miterlimit="2.4142" d="     M533.212,222.16c1.561-0.39,2.523-1.989,2.117-3.62c-0.389-1.563-1.988-2.521-3.551-2.132c-1.629,0.407-2.59,2.005-2.203,3.564     C529.986,221.606,531.583,222.566,533.212,222.16L533.212,222.16z"/>
<path fill-rule="evenodd" clip-rule="evenodd" fill="none" stroke="#000000" stroke-width="0.504" stroke-miterlimit="2.4142" d="     M521.8,224.794c1.561-0.39,2.524-1.989,2.117-3.621c-0.389-1.562-1.988-2.521-3.551-2.131c-1.629,0.407-2.589,2.004-2.203,3.564     C518.575,224.24,520.171,225.201,521.8,224.794L521.8,224.794z"/>
<path fill-rule="evenodd" clip-rule="evenodd" fill="none" stroke="#000000" stroke-width="0.504" stroke-miterlimit="2.4142" d="     M528.417,227.743c1.563-0.389,2.529-1.988,2.116-3.621c-0.387-1.561-1.983-2.52-3.548-2.133     c-1.629,0.408-2.589,2.008-2.203,3.566C525.194,227.19,526.792,228.148,528.417,227.743L528.417,227.743z"/>
<path fill-rule="evenodd" clip-rule="evenodd" fill="none" stroke="#000000" stroke-width="0.504" stroke-miterlimit="2.4142" d="     M535.177,230.656c1.564-0.389,2.521-1.984,2.113-3.62c-0.388-1.56-1.986-2.519-3.549-2.129c-1.629,0.407-2.586,2.001-2.199,3.563     C531.948,230.105,533.542,231.062,535.177,230.656L535.177,230.656z"/>
<path fill-rule="evenodd" clip-rule="evenodd" fill="none" stroke="#000000" stroke-width="0.504" stroke-miterlimit="2.4142" d="     M523.765,233.291c1.564-0.389,2.521-1.984,2.113-3.62c-0.387-1.56-1.986-2.519-3.549-2.129c-1.629,0.406-2.586,2.001-2.199,3.562     C520.536,232.74,522.13,233.697,523.765,233.291L523.765,233.291z"/>
<path fill-rule="evenodd" clip-rule="evenodd" fill="none" stroke="#000000" stroke-width="0.504" stroke-miterlimit="2.4142" d="     M530.379,236.24c1.567-0.394,2.524-1.988,2.116-3.623c-0.389-1.559-1.986-2.52-3.551-2.128c-1.625,0.405-2.588,2-2.199,3.563     C527.15,235.687,528.749,236.644,530.379,236.24L530.379,236.24z"/>
<path fill-rule="evenodd" clip-rule="evenodd" fill="none" stroke="#000000" stroke-width="0.504" stroke-miterlimit="2.4142" d="     M537.134,239.156c1.561-0.388,2.523-1.983,2.119-3.62c-0.395-1.563-1.988-2.519-3.551-2.131     c-1.631,0.408-2.592,2.001-2.202,3.565C533.905,238.603,535.505,239.564,537.134,239.156L537.134,239.156z"/>
<path fill-rule="evenodd" clip-rule="evenodd" fill="none" stroke="#000000" stroke-width="0.504" stroke-miterlimit="2.4142" d="     M525.722,241.791c1.561-0.388,2.523-1.984,2.119-3.62c-0.394-1.563-1.988-2.519-3.551-2.131     c-1.631,0.408-2.592,2.001-2.201,3.565C522.493,241.238,524.093,242.199,525.722,241.791L525.722,241.791z"/>
<path fill-rule="evenodd" clip-rule="evenodd" fill="none" stroke="#000000" stroke-width="0.504" stroke-miterlimit="2.4142" d="     M532.341,244.738c1.563-0.391,2.523-1.987,2.117-3.619c-0.393-1.563-1.986-2.521-3.549-2.132c-1.629,0.406-2.59,2-2.201,3.565     C529.112,244.183,530.71,245.144,532.341,244.738L532.341,244.738z"/>
<path fill-rule="evenodd" clip-rule="evenodd" fill="none" stroke="#000000" stroke-width="0.504" stroke-miterlimit="2.4142" d="     M539.104,247.652c1.56-0.389,2.52-1.984,2.11-3.62c-0.393-1.559-1.988-2.519-3.549-2.128c-1.627,0.404-2.588,2.003-2.199,3.564     C535.872,247.1,537.468,248.06,539.104,247.652L539.104,247.652z"/>
<path fill-rule="evenodd" clip-rule="evenodd" fill="none" stroke="#000000" stroke-width="0.504" stroke-miterlimit="2.4142" d="     M527.692,250.287c1.559-0.389,2.52-1.985,2.109-3.621c-0.393-1.558-1.988-2.518-3.549-2.127     c-1.627,0.404-2.588,2.002-2.199,3.564C524.46,249.735,526.056,250.695,527.692,250.287L527.692,250.287z"/>
<path fill-rule="evenodd" clip-rule="evenodd" fill="none" stroke="#000000" stroke-width="0.504" stroke-miterlimit="2.4142" d="     M534.309,253.234c1.561-0.386,2.521-1.985,2.11-3.616c-0.391-1.56-1.986-2.521-3.551-2.131c-1.625,0.407-2.588,2.006-2.195,3.564     C531.077,252.685,532.675,253.647,534.309,253.234L534.309,253.234z"/>
<path fill-rule="evenodd" clip-rule="evenodd" fill="none" stroke="#000000" stroke-width="0.504" stroke-miterlimit="2.4142" d="     M541.064,256.151c1.563-0.392,2.524-1.989,2.112-3.619c-0.391-1.563-1.986-2.524-3.548-2.131     c-1.632,0.403-2.591,2.003-2.199,3.563C537.835,255.599,539.431,256.558,541.064,256.151L541.064,256.151z"/>
<path fill-rule="evenodd" clip-rule="evenodd" fill="none" stroke="#000000" stroke-width="0.504" stroke-miterlimit="2.4142" d="     M529.653,258.785c1.564-0.391,2.523-1.988,2.111-3.618c-0.391-1.563-1.985-2.524-3.548-2.131     c-1.632,0.402-2.59,2.003-2.198,3.563C526.423,258.234,528.021,259.193,529.653,258.785L529.653,258.785z"/>
<path fill-rule="evenodd" clip-rule="evenodd" fill="none" stroke="#000000" stroke-width="0.504" stroke-miterlimit="2.4142" d="     M536.267,261.733c1.566-0.388,2.523-1.985,2.115-3.616c-0.389-1.563-1.986-2.521-3.549-2.131     c-1.631,0.402-2.588,2.004-2.199,3.562C533.038,261.183,534.638,262.141,536.267,261.733L536.267,261.733z"/>
<path fill-rule="evenodd" clip-rule="evenodd" fill="none" stroke="#000000" stroke-width="0.504" stroke-miterlimit="2.4142" d="     M543.026,264.65c1.563-0.393,2.521-1.988,2.113-3.617c-0.395-1.565-1.988-2.523-3.551-2.132c-1.629,0.404-2.59,2.004-2.199,3.562     C539.795,264.096,541.392,265.056,543.026,264.65L543.026,264.65z"/>
<path fill-rule="evenodd" clip-rule="evenodd" fill="none" stroke="#000000" stroke-width="0.504" stroke-miterlimit="2.4142" d="     M531.614,267.285c1.563-0.393,2.521-1.988,2.113-3.618c-0.393-1.564-1.988-2.523-3.551-2.132     c-1.629,0.404-2.59,2.004-2.199,3.563C528.384,266.731,529.981,267.69,531.614,267.285L531.614,267.285z"/>
<path fill-rule="evenodd" clip-rule="evenodd" fill="none" stroke="#000000" stroke-width="0.504" stroke-miterlimit="2.4142" d="     M538.231,270.232c1.562-0.388,2.518-1.987,2.111-3.617c-0.39-1.564-1.984-2.521-3.547-2.132c-1.632,0.406-2.59,2.006-2.198,3.562     C535.003,269.679,536.602,270.638,538.231,270.232L538.231,270.232z"/>
<path fill-rule="evenodd" clip-rule="evenodd" fill="none" stroke="#000000" stroke-width="0.504" stroke-miterlimit="2.4142" d="     M544.992,273.146c1.563-0.39,2.519-1.985,2.108-3.619c-0.387-1.563-1.984-2.521-3.545-2.129c-1.631,0.401-2.59,2.004-2.201,3.563     C541.76,272.593,543.358,273.552,544.992,273.146L544.992,273.146z"/>
<path fill-rule="evenodd" clip-rule="evenodd" fill="none" stroke="#000000" stroke-width="0.504" stroke-miterlimit="2.4142" d="     M533.581,275.781c1.563-0.39,2.518-1.985,2.107-3.619c-0.387-1.563-1.984-2.521-3.545-2.129c-1.631,0.4-2.59,2.003-2.201,3.563     C530.348,275.228,531.946,276.187,533.581,275.781L533.581,275.781z"/>
<path fill-rule="evenodd" clip-rule="evenodd" fill="none" stroke="#000000" stroke-width="0.504" stroke-miterlimit="2.4142" d="     M540.192,278.731c1.562-0.39,2.519-1.986,2.113-3.62c-0.394-1.561-1.99-2.521-3.547-2.131c-1.637,0.406-2.596,2.005-2.203,3.564     C536.962,278.177,538.559,279.139,540.192,278.731L540.192,278.731z"/>
<path fill-rule="evenodd" clip-rule="evenodd" fill="none" stroke="#000000" stroke-width="0.504" stroke-miterlimit="2.4142" d="     M546.946,281.648c1.563-0.394,2.523-1.986,2.117-3.619c-0.395-1.563-1.988-2.52-3.555-2.131     c-1.625,0.403-2.592,2.005-2.199,3.563C543.716,281.093,545.316,282.053,546.946,281.648L546.946,281.648z"/>
<path fill-rule="evenodd" clip-rule="evenodd" fill="none" stroke="#000000" stroke-width="0.504" stroke-miterlimit="2.4142" d="     M535.535,284.282c1.562-0.393,2.522-1.986,2.116-3.619c-0.394-1.562-1.988-2.519-3.555-2.131     c-1.625,0.403-2.592,2.006-2.199,3.563C532.304,283.728,533.905,284.688,535.535,284.282L535.535,284.282z"/>
<path fill-rule="evenodd" clip-rule="evenodd" fill="none" stroke="#000000" stroke-width="0.504" stroke-miterlimit="2.4142" d="     M542.155,287.228c1.563-0.389,2.52-1.984,2.111-3.618c-0.391-1.562-1.983-2.52-3.549-2.13c-1.63,0.404-2.592,2.004-2.199,3.563     C538.927,286.676,540.524,287.637,542.155,287.228L542.155,287.228z"/>
<path fill-rule="evenodd" clip-rule="evenodd" fill="none" stroke="#000000" stroke-width="0.504" stroke-miterlimit="2.4142" d="     M548.913,290.143c1.563-0.387,2.521-1.985,2.111-3.617c-0.391-1.56-1.984-2.519-3.551-2.13c-1.627,0.405-2.588,2.004-2.197,3.565     C545.685,289.593,547.28,290.553,548.913,290.143L548.913,290.143z"/>
<path fill-rule="evenodd" clip-rule="evenodd" fill="none" stroke="#000000" stroke-width="0.504" stroke-miterlimit="2.4142" d="     M537.501,292.778c1.563-0.388,2.521-1.985,2.111-3.617c-0.391-1.561-1.984-2.519-3.549-2.13c-1.628,0.405-2.59,2.003-2.199,3.564     C534.272,292.228,535.868,293.188,537.501,292.778L537.501,292.778z"/>
<path fill-rule="evenodd" clip-rule="evenodd" fill="none" stroke="#000000" stroke-width="0.504" stroke-miterlimit="2.4142" d="     M544.116,295.726c1.564-0.387,2.521-1.986,2.113-3.617c-0.391-1.563-1.986-2.521-3.549-2.13     c-1.629,0.405-2.594,2.001-2.199,3.562C540.888,295.174,542.486,296.134,544.116,295.726L544.116,295.726z"/>
<path fill-rule="evenodd" clip-rule="evenodd" fill="none" stroke="#000000" stroke-width="0.504" stroke-miterlimit="2.4142" d="     M550.874,298.642c1.563-0.389,2.52-1.984,2.113-3.617c-0.389-1.563-1.984-2.519-3.549-2.129c-1.629,0.403-2.589,2-2.199,3.562     C547.649,298.092,549.244,299.052,550.874,298.642L550.874,298.642z"/>
<path fill-rule="evenodd" clip-rule="evenodd" fill="none" stroke="#000000" stroke-width="0.504" stroke-miterlimit="2.4142" d="     M539.462,301.277c1.562-0.389,2.523-1.986,2.113-3.619c-0.389-1.561-1.986-2.52-3.551-2.129c-1.627,0.404-2.59,2-2.202,3.564     C536.231,300.726,537.828,301.686,539.462,301.277L539.462,301.277z"/>
</g></switch>
</svg>