<?xml version="1.0" encoding="utf-8"?>
<!DOCTYPE svg PUBLIC "-//W3C//DTD SVG 1.1//EN" "http://www.w3.org/Graphics/SVG/1.1/DTD/svg11.dtd">
<svg version="1.1" id="Armor" xmlns="http://www.w3.org/2000/svg" xmlns:xlink="http://www.w3.org/1999/xlink" x="0px" y="0px"
	 width="612px" height="792px" viewBox="0 0 612 792" enable-background="new 0 0 612 792" xml:space="preserve">
<switch><g>
<path fill-rule="evenodd" clip-rule="evenodd" fill="none" stroke="#000000" stroke-width="0.504" stroke-miterlimit="2.4142" d="     M462.185,190.503c-1.563-0.384-2.521-1.979-2.106-3.609c0.387-1.565,1.984-2.522,3.546-2.132c1.626,0.4,2.587,2.002,2.194,3.564     C465.416,189.96,463.82,190.917,462.185,190.503L462.185,190.503z"/>
<path fill-rule="evenodd" clip-rule="evenodd" fill="none" stroke="#000000" stroke-width="0.504" stroke-miterlimit="2.4142" d="     M453.965,200.076c-1.563-0.389-2.521-1.985-2.113-3.615c0.395-1.565,1.988-2.525,3.549-2.134c1.636,0.405,2.591,2.002,2.2,3.562     C457.199,199.527,455.601,200.484,453.965,200.076L453.965,200.076z"/>
<path fill-rule="evenodd" clip-rule="evenodd" fill="none" stroke="#000000" stroke-width="0.504" stroke-miterlimit="2.4142" d="     M465.381,202.713c-1.564-0.39-2.522-1.986-2.114-3.617c0.391-1.566,1.985-2.523,3.547-2.134c1.634,0.405,2.594,2.002,2.204,3.563     C468.615,202.163,467.017,203.119,465.381,202.713L465.381,202.713z"/>
<path fill-rule="evenodd" clip-rule="evenodd" fill="none" stroke="#000000" stroke-width="0.504" stroke-miterlimit="2.4142" d="     M457.152,212.281c-1.559-0.39-2.514-1.985-2.104-3.613c0.387-1.564,1.985-2.527,3.548-2.136c1.628,0.407,2.587,2.004,2.202,3.561     C460.393,211.734,458.791,212.689,457.152,212.281L457.152,212.281z"/>
<path fill-rule="evenodd" clip-rule="evenodd" fill="none" stroke="#000000" stroke-width="0.504" stroke-miterlimit="2.4142" d="     M448.936,221.851c-1.563-0.39-2.521-1.983-2.111-3.615c0.392-1.566,1.985-2.522,3.545-2.135c1.636,0.407,2.595,2.005,2.203,3.567     C452.166,221.298,450.564,222.263,448.936,221.851L448.936,221.851z"/>
<path fill-rule="evenodd" clip-rule="evenodd" fill="none" stroke="#000000" stroke-width="0.504" stroke-miterlimit="2.4142" d="     M460.355,224.485c-1.566-0.384-2.521-1.982-2.116-3.61c0.394-1.566,1.985-2.525,3.546-2.137c1.631,0.408,2.597,2.009,2.202,3.566     C463.584,223.936,461.982,224.9,460.355,224.485L460.355,224.485z"/>
<path fill-rule="evenodd" clip-rule="evenodd" fill="none" stroke="#000000" stroke-width="0.504" stroke-miterlimit="2.4142" d="     M452.132,234.056c-1.565-0.389-2.519-1.984-2.11-3.616c0.389-1.566,1.984-2.523,3.549-2.131c1.629,0.406,2.586,2.004,2.198,3.565     C455.36,233.504,453.768,234.467,452.132,234.056L452.132,234.056z"/>
<path fill-rule="evenodd" clip-rule="evenodd" fill="none" stroke="#000000" stroke-width="0.504" stroke-miterlimit="2.4142" d="     M443.913,243.626c-1.562-0.388-2.522-1.983-2.116-3.616c0.393-1.566,1.988-2.521,3.555-2.133     c1.627,0.406,2.591,2.005,2.197,3.563C447.147,243.073,445.547,244.033,443.913,243.626L443.913,243.626z"/>
<path fill-rule="evenodd" clip-rule="evenodd" fill="none" stroke="#000000" stroke-width="0.504" stroke-miterlimit="2.4142" d="     M455.326,246.261c-1.563-0.39-2.522-1.987-2.115-3.618c0.391-1.563,1.987-2.519,3.55-2.131c1.631,0.403,2.591,2.004,2.2,3.563     C458.562,245.708,456.959,246.669,455.326,246.261L455.326,246.261z"/>
<path fill-rule="evenodd" clip-rule="evenodd" fill="none" stroke="#000000" stroke-width="0.504" stroke-miterlimit="2.4142" d="     M447.104,255.829c-1.559-0.39-2.512-1.985-2.112-3.616c0.392-1.564,1.99-2.524,3.547-2.132c1.639,0.404,2.597,2.005,2.204,3.562     C450.333,255.278,448.739,256.24,447.104,255.829L447.104,255.829z"/>
<path fill-rule="evenodd" clip-rule="evenodd" fill="none" stroke="#000000" stroke-width="0.504" stroke-miterlimit="2.4142" d="     M438.885,265.399c-1.561-0.388-2.518-1.985-2.115-3.621c0.395-1.558,1.99-2.517,3.555-2.126c1.633,0.406,2.594,2.002,2.201,3.565     C442.115,264.848,440.518,265.809,438.885,265.399L438.885,265.399z"/>
<path fill-rule="evenodd" clip-rule="evenodd" fill="none" stroke="#000000" stroke-width="0.504" stroke-miterlimit="2.4142" d="     M450.299,268.034c-1.563-0.389-2.522-1.985-2.115-3.617c0.391-1.558,1.988-2.519,3.555-2.13c1.627,0.406,2.592,2.004,2.195,3.564     C453.53,267.482,451.934,268.444,450.299,268.034L450.299,268.034z"/>
<path fill-rule="evenodd" clip-rule="evenodd" fill="none" stroke="#000000" stroke-width="0.504" stroke-miterlimit="2.4142" d="     M442.079,277.606c-1.562-0.392-2.524-1.985-2.109-3.621c0.384-1.562,1.978-2.52,3.546-2.131c1.627,0.404,2.59,2.002,2.204,3.563     C445.307,277.051,443.709,278.012,442.079,277.606L442.079,277.606z"/>
<path fill-rule="evenodd" clip-rule="evenodd" fill="none" stroke="#000000" stroke-width="0.504" stroke-miterlimit="2.4142" d="     M433.855,287.174c-1.561-0.386-2.521-1.986-2.112-3.622c0.396-1.556,1.987-2.513,3.556-2.126c1.622,0.404,2.59,1.998,2.193,3.563     C437.087,286.625,435.489,287.584,433.855,287.174L433.855,287.174z"/>
<path fill-rule="evenodd" clip-rule="evenodd" fill="none" stroke="#000000" stroke-width="0.504" stroke-miterlimit="2.4142" d="     M445.273,289.809c-1.564-0.383-2.524-1.983-2.115-3.617c0.391-1.56,1.988-2.518,3.549-2.131c1.628,0.41,2.593,2.001,2.201,3.566     C448.5,289.258,446.9,290.219,445.273,289.809L445.273,289.809z"/>
<path fill-rule="evenodd" clip-rule="evenodd" fill="none" stroke="#000000" stroke-width="0.504" stroke-miterlimit="2.4142" d="     M437.053,299.381c-1.562-0.392-2.524-1.985-2.11-3.621c0.385-1.562,1.978-2.52,3.547-2.131c1.626,0.404,2.59,2.002,2.203,3.563     C440.279,298.825,438.683,299.786,437.053,299.381L437.053,299.381z"/>
</g></switch>
</svg>