<?xml version="1.0" encoding="utf-8"?>
<!DOCTYPE svg PUBLIC "-//W3C//DTD SVG 1.1//EN" "http://www.w3.org/Graphics/SVG/1.1/DTD/svg11.dtd">
<svg version="1.1" id="Armor" xmlns="http://www.w3.org/2000/svg" xmlns:xlink="http://www.w3.org/1999/xlink" x="0px" y="0px"
	 width="612px" height="792px" viewBox="0 0 612 792" enable-background="new 0 0 612 792" xml:space="preserve">
<switch><g>
<path fill-rule="evenodd" clip-rule="evenodd" fill="none" stroke="#000000" stroke-width="0.504" stroke-miterlimit="2.4142" d="     M462.617,189.833c-1.563-0.389-2.517-1.984-2.107-3.617c0.388-1.567,1.982-2.523,3.548-2.132     c1.629,0.407,2.585,2.004,2.197,3.565C465.848,189.28,464.256,190.242,462.617,189.833L462.617,189.833z"/>
<path fill-rule="evenodd" clip-rule="evenodd" fill="none" stroke="#000000" stroke-width="0.504" stroke-miterlimit="2.4142" d="     M452.725,206.661c-1.563-0.389-2.525-1.983-2.115-3.616c0.389-1.566,1.987-2.521,3.555-2.132     c1.628,0.404,2.592,2.005,2.197,3.563C455.959,206.106,454.359,207.068,452.725,206.661L452.725,206.661z"/>
<path fill-rule="evenodd" clip-rule="evenodd" fill="none" stroke="#000000" stroke-width="0.504" stroke-miterlimit="2.4142" d="     M464.139,209.294c-1.564-0.388-2.523-1.985-2.115-3.616c0.389-1.563,1.985-2.521,3.548-2.131c1.63,0.402,2.591,2.002,2.202,3.563     C467.373,208.743,465.771,209.704,464.139,209.294L464.139,209.294z"/>
<path fill-rule="evenodd" clip-rule="evenodd" fill="none" stroke="#000000" stroke-width="0.504" stroke-miterlimit="2.4142" d="     M454.238,226.122c-1.557-0.393-2.512-1.986-2.111-3.617c0.395-1.563,1.993-2.524,3.547-2.131     c1.639,0.402,2.596,2.005,2.203,3.561C457.469,225.571,455.875,226.53,454.238,226.122L454.238,226.122z"/>
<path fill-rule="evenodd" clip-rule="evenodd" fill="none" stroke="#000000" stroke-width="0.504" stroke-miterlimit="2.4142" d="     M444.346,242.95c-1.563-0.387-2.518-1.984-2.117-3.621c0.398-1.557,1.993-2.516,3.557-2.125c1.631,0.407,2.596,2.002,2.201,3.564     C447.576,242.399,445.977,243.36,444.346,242.95L444.346,242.95z"/>
<path fill-rule="evenodd" clip-rule="evenodd" fill="none" stroke="#000000" stroke-width="0.504" stroke-miterlimit="2.4142" d="     M455.759,245.585c-1.563-0.389-2.522-1.986-2.114-3.617c0.389-1.559,1.99-2.521,3.553-2.131c1.629,0.407,2.593,2.005,2.195,3.565     C458.99,245.034,457.393,245.995,455.759,245.585L455.759,245.585z"/>
<path fill-rule="evenodd" clip-rule="evenodd" fill="none" stroke="#000000" stroke-width="0.504" stroke-miterlimit="2.4142" d="     M445.863,262.413c-1.561-0.389-2.524-1.983-2.107-3.618c0.383-1.563,1.975-2.521,3.544-2.13c1.628,0.403,2.591,2.003,2.204,3.562     C449.09,261.859,447.49,262.821,445.863,262.413L445.863,262.413z"/>
<path fill-rule="evenodd" clip-rule="evenodd" fill="none" stroke="#000000" stroke-width="0.504" stroke-miterlimit="2.4142" d="     M435.965,279.241c-1.563-0.385-2.52-1.986-2.113-3.622c0.395-1.555,1.988-2.511,3.557-2.126c1.621,0.405,2.59,2,2.191,3.564     C439.195,278.693,437.598,279.651,435.965,279.241L435.965,279.241z"/>
<path fill-rule="evenodd" clip-rule="evenodd" fill="none" stroke="#000000" stroke-width="0.504" stroke-miterlimit="2.4142" d="     M447.383,281.876c-1.568-0.385-2.525-1.984-2.117-3.619c0.393-1.561,1.99-2.516,3.551-2.131c1.627,0.411,2.592,2.002,2.201,3.566     C450.607,281.324,449.011,282.288,447.383,281.876L447.383,281.876z"/>
<path fill-rule="evenodd" clip-rule="evenodd" fill="none" stroke="#000000" stroke-width="0.504" stroke-miterlimit="2.4142" d="     M437.484,298.703c-1.561-0.389-2.523-1.983-2.107-3.618c0.383-1.563,1.975-2.521,3.545-2.13c1.627,0.403,2.592,2.003,2.204,3.562     C440.713,298.149,439.113,299.111,437.484,298.703L437.484,298.703z"/>
</g></switch>
</svg>