<?xml version="1.0" encoding="utf-8"?>
<!DOCTYPE svg PUBLIC "-//W3C//DTD SVG 1.1//EN" "http://www.w3.org/Graphics/SVG/1.1/DTD/svg11.dtd">
<svg version="1.1" id="Armor" xmlns="http://www.w3.org/2000/svg" xmlns:xlink="http://www.w3.org/1999/xlink" x="0px" y="0px"
	 width="612px" height="792px" viewBox="0 0 612 792" enable-background="new 0 0 612 792" xml:space="preserve">
<switch><g>
<path fill="none" stroke="#000000" stroke-width="0.504" stroke-miterlimit="2.4142" d="M560.126,109.95     c1.663-0.144,2.926-1.652,2.779-3.312c-0.149-1.732-1.649-2.925-3.313-2.779c-1.729,0.15-3.001,1.587-2.851,3.319     C556.889,108.839,558.396,110.103,560.126,109.95L560.126,109.95z"/>
<path fill="none" stroke="#000000" stroke-width="0.504" stroke-miterlimit="2.4142" d="M563.746,145.229     c1.659,0.145,2.925,1.652,2.779,3.312c-0.15,1.732-1.653,2.925-3.313,2.78c-1.729-0.151-3-1.588-2.85-3.32     C560.509,146.342,562.017,145.078,563.746,145.229L563.746,145.229z"/>
</g></switch>
</svg>