<?xml version="1.0" encoding="utf-8"?>
<!DOCTYPE svg PUBLIC "-//W3C//DTD SVG 1.1//EN" "http://www.w3.org/Graphics/SVG/1.1/DTD/svg11.dtd">
<svg version="1.1" id="Armor" xmlns="http://www.w3.org/2000/svg" xmlns:xlink="http://www.w3.org/1999/xlink" x="0px" y="0px"
	 width="612px" height="792px" viewBox="0 0 612 792" enable-background="new 0 0 612 792" xml:space="preserve">
<switch><g>
<path fill="none" stroke="#000000" stroke-width="0.504" stroke-miterlimit="2.4142" d="M516.487,327.606      c-1.065,0-1.998-0.864-1.998-1.994c0-1.131,0.933-2.062,1.998-2.062c1.13,0,2.06,0.931,2.06,2.062      C518.547,326.742,517.617,327.606,516.487,327.606L516.487,327.606z"/>
<path fill="none" stroke="#000000" stroke-width="0.504" stroke-miterlimit="2.4142" d="M524.38,327.606      c-1.064,0-1.998-0.864-1.998-1.994c0-1.131,0.934-2.062,1.998-2.062c1.13,0,2.061,0.931,2.061,2.062      C526.439,326.742,525.51,327.606,524.38,327.606L524.38,327.606z"/>
<path fill="none" stroke="#000000" stroke-width="0.504" stroke-miterlimit="2.4142" d="M532.271,327.606      c-1.064,0-1.997-0.864-1.997-1.994c0-1.131,0.933-2.062,1.997-2.062c1.131,0,2.061,0.931,2.061,2.062      C534.332,326.742,533.402,327.606,532.271,327.606L532.271,327.606z"/>
<path fill="none" stroke="#000000" stroke-width="0.504" stroke-miterlimit="2.4142" d="M516.487,334.79      c-1.065,0-1.998-0.864-1.998-1.994c0-1.131,0.933-2.062,1.998-2.062c1.13,0,2.06,0.931,2.06,2.062      C518.547,333.925,517.617,334.79,516.487,334.79L516.487,334.79z"/>
<path fill="none" stroke="#000000" stroke-width="0.504" stroke-miterlimit="2.4142" d="M524.38,334.79      c-1.064,0-1.998-0.864-1.998-1.994c0-1.131,0.934-2.062,1.998-2.062c1.13,0,2.061,0.931,2.061,2.062      C526.439,333.926,525.51,334.79,524.38,334.79L524.38,334.79z"/>
<path fill="none" stroke="#000000" stroke-width="0.504" stroke-miterlimit="2.4142" d="M532.271,334.79      c-1.064,0-1.997-0.864-1.997-1.994c0-1.131,0.933-2.062,1.997-2.062c1.131,0,2.061,0.931,2.061,2.062      C534.332,333.925,533.402,334.79,532.271,334.79L532.271,334.79z"/>
<path fill="none" stroke="#000000" stroke-width="0.504" stroke-miterlimit="2.4142" d="M516.487,341.973      c-1.065,0-1.998-0.864-1.998-1.994c0-1.131,0.933-2.062,1.998-2.062c1.13,0,2.06,0.931,2.06,2.062      C518.547,341.109,517.617,341.973,516.487,341.973L516.487,341.973z"/>
<path fill="none" stroke="#000000" stroke-width="0.504" stroke-miterlimit="2.4142" d="M532.271,341.973      c-1.064,0-1.997-0.864-1.997-1.994c0-1.131,0.933-2.062,1.997-2.062c1.131,0,2.061,0.931,2.061,2.062      C534.332,341.109,533.402,341.973,532.271,341.973L532.271,341.973z"/>
<path fill="none" stroke="#000000" stroke-width="0.504" stroke-miterlimit="2.4142" d="M524.38,341.974      c-1.064,0-1.998-0.864-1.998-1.994c0-1.131,0.934-2.062,1.998-2.062c1.13,0,2.061,0.931,2.061,2.062      C526.439,341.109,525.51,341.974,524.38,341.974L524.38,341.974z"/>
<path fill="none" stroke="#000000" stroke-width="0.504" stroke-miterlimit="2.4142" d="M516.486,349.158      c-1.133,0-1.997-0.932-1.997-1.997c0-1.128,0.864-2.061,1.997-2.061c1.131,0,2.061,0.932,2.061,2.061      C518.547,348.226,517.617,349.158,516.486,349.158L516.486,349.158z"/>
<path fill="none" stroke="#000000" stroke-width="0.504" stroke-miterlimit="2.4142" d="M524.38,349.158      c-1.064,0-1.998-0.864-1.998-1.994c0-1.131,0.934-2.062,1.998-2.062c1.13,0,2.061,0.931,2.061,2.062      C526.439,348.293,525.51,349.158,524.38,349.158L524.38,349.158z"/>
<path fill="none" stroke="#000000" stroke-width="0.504" stroke-miterlimit="2.4142" d="M532.271,349.158      c-1.133,0-1.997-0.932-1.997-1.997c0-1.128,0.864-2.061,1.997-2.061c1.131,0,2.061,0.932,2.061,2.061      C534.332,348.226,533.402,349.158,532.271,349.158L532.271,349.158z"/>
</g></switch>
</svg>