<?xml version="1.0" encoding="utf-8"?>
<!DOCTYPE svg PUBLIC "-//W3C//DTD SVG 1.1//EN" "http://www.w3.org/Graphics/SVG/1.1/DTD/svg11.dtd">
<svg version="1.1" id="Armor" xmlns="http://www.w3.org/2000/svg" xmlns:xlink="http://www.w3.org/1999/xlink" x="0px" y="0px"
	 width="612px" height="792px" viewBox="0 0 612 792" enable-background="new 0 0 612 792" xml:space="preserve">
<switch><g>
<path fill="none" stroke="#000000" stroke-width="0.504" stroke-miterlimit="2.4142" d="M425.85,80.914     c-1.661-0.143-2.928-1.651-2.78-3.312c0.146-1.73,1.648-2.924,3.312-2.778c1.729,0.149,3.001,1.586,2.85,3.318     C429.082,79.804,427.578,81.065,425.85,80.914L425.85,80.914z"/>
<path fill="none" stroke="#000000" stroke-width="0.504" stroke-miterlimit="2.4142" d="M419.813,84.845     c-1.662-0.145-2.927-1.649-2.778-3.313c0.148-1.728,1.646-2.922,3.312-2.778c1.728,0.152,3.002,1.589,2.852,3.318     C423.053,83.734,421.54,84.998,419.813,84.845L419.813,84.845z"/>
<path fill="none" stroke="#000000" stroke-width="0.504" stroke-miterlimit="2.4142" d="M431.108,85.833     c-1.665-0.145-2.928-1.651-2.779-3.311c0.148-1.729,1.646-2.925,3.313-2.779c1.728,0.149,2.996,1.589,2.845,3.32     C434.34,84.724,432.837,85.986,431.108,85.833L431.108,85.833z"/>
<path fill="none" stroke="#000000" stroke-width="0.504" stroke-miterlimit="2.4142" d="M425.076,89.763     c-1.662-0.143-2.93-1.65-2.781-3.311c0.146-1.731,1.648-2.924,3.311-2.777c1.73,0.148,3.003,1.585,2.851,3.318     C428.307,88.653,426.803,89.915,425.076,89.763L425.076,89.763z"/>
<path fill="none" stroke="#000000" stroke-width="0.504" stroke-miterlimit="2.4142" d="M419.039,93.695     c-1.66-0.146-2.928-1.653-2.78-3.313c0.15-1.729,1.646-2.924,3.313-2.779c1.728,0.151,3.002,1.59,2.849,3.319     C422.277,92.583,420.766,93.846,419.039,93.695L419.039,93.695z"/>
<path fill="none" stroke="#000000" stroke-width="0.504" stroke-miterlimit="2.4142" d="M430.334,94.685     c-1.663-0.146-2.929-1.651-2.78-3.312c0.149-1.729,1.648-2.926,3.315-2.782c1.726,0.151,2.995,1.592,2.844,3.323     C433.567,93.574,432.063,94.836,430.334,94.685L430.334,94.685z"/>
<path fill="none" stroke="#000000" stroke-width="0.504" stroke-miterlimit="2.4142" d="M424.302,98.612     c-1.665-0.144-2.927-1.65-2.782-3.311c0.146-1.732,1.65-2.925,3.31-2.778c1.731,0.15,3.002,1.586,2.854,3.318     C427.537,97.503,426.03,98.764,424.302,98.612L424.302,98.612z"/>
<path fill="none" stroke="#000000" stroke-width="0.504" stroke-miterlimit="2.4142" d="M418.268,102.543     c-1.666-0.142-2.932-1.651-2.782-3.311c0.149-1.73,1.649-2.925,3.311-2.777c1.732,0.15,3.008,1.585,2.853,3.316     C421.5,101.433,419.992,102.695,418.268,102.543L418.268,102.543z"/>
<path fill="none" stroke="#000000" stroke-width="0.504" stroke-miterlimit="2.4142" d="M429.566,103.533     c-1.668-0.144-2.937-1.654-2.787-3.313c0.149-1.729,1.651-2.924,3.313-2.777c1.732,0.148,2.998,1.586,2.847,3.318     C432.795,102.421,431.289,103.683,429.566,103.533L429.566,103.533z"/>
<path fill="none" stroke="#000000" stroke-width="0.504" stroke-miterlimit="2.4142" d="M423.525,107.465     c-1.665-0.146-2.925-1.652-2.779-3.313c0.151-1.731,1.647-2.924,3.313-2.78c1.728,0.152,3,1.588,2.85,3.319     C426.764,106.35,425.253,107.617,423.525,107.465L423.525,107.465z"/>
<path fill="none" stroke="#000000" stroke-width="0.504" stroke-miterlimit="2.4142" d="M417.488,111.396     c-1.662-0.146-2.92-1.652-2.779-3.313c0.154-1.731,1.65-2.926,3.314-2.782c1.727,0.152,3.002,1.592,2.852,3.32     C420.732,110.28,419.219,111.548,417.488,111.396L417.488,111.396z"/>
<path fill="none" stroke="#000000" stroke-width="0.504" stroke-miterlimit="2.4142" d="M428.785,112.382     c-1.662-0.145-2.926-1.649-2.777-3.312c0.15-1.729,1.648-2.924,3.313-2.779c1.727,0.151,2.996,1.587,2.844,3.32     C432.021,111.27,430.514,112.536,428.785,112.382L428.785,112.382z"/>
<path fill="none" stroke="#000000" stroke-width="0.504" stroke-miterlimit="2.4142" d="M422.749,116.313     c-1.663-0.144-2.922-1.648-2.776-3.311c0.151-1.731,1.65-2.927,3.314-2.78c1.729,0.15,2.995,1.589,2.844,3.319     C425.982,115.199,424.479,116.465,422.749,116.313L422.749,116.313z"/>
<path fill="none" stroke="#000000" stroke-width="0.504" stroke-miterlimit="2.4142" d="M416.715,120.243     c-1.664-0.146-2.923-1.652-2.779-3.312c0.152-1.73,1.652-2.925,3.314-2.779c1.729,0.153,3,1.587,2.85,3.319     C419.951,119.132,418.447,120.395,416.715,120.243L416.715,120.243z"/>
<path fill="none" stroke="#000000" stroke-width="0.504" stroke-miterlimit="2.4142" d="M428.012,121.232     c-1.664-0.146-2.923-1.654-2.78-3.311c0.149-1.729,1.653-2.926,3.319-2.78c1.726,0.152,2.992,1.589,2.838,3.319     C431.242,120.122,429.742,121.384,428.012,121.232L428.012,121.232z"/>
<path fill="none" stroke="#000000" stroke-width="0.504" stroke-miterlimit="2.4142" d="M421.977,125.162     c-1.661-0.146-2.926-1.652-2.778-3.313c0.151-1.731,1.646-2.925,3.312-2.779c1.73,0.151,3.001,1.587,2.851,3.319     C425.215,124.049,423.705,125.314,421.977,125.162L421.977,125.162z"/>
<path fill="none" stroke="#000000" stroke-width="0.504" stroke-miterlimit="2.4142" d="M415.943,129.094     c-1.66-0.144-2.929-1.65-2.781-3.312c0.152-1.733,1.647-2.927,3.313-2.782c1.729,0.151,3.007,1.589,2.851,3.32     C419.18,127.982,417.67,129.247,415.943,129.094L415.943,129.094z"/>
<path fill="none" stroke="#000000" stroke-width="0.504" stroke-miterlimit="2.4142" d="M427.238,130.083     c-1.66-0.146-2.926-1.651-2.785-3.314c0.156-1.731,1.654-2.926,3.315-2.78c1.73,0.152,3,1.589,2.845,3.321     C430.475,128.97,428.967,130.235,427.238,130.083L427.238,130.083z"/>
<path fill="none" stroke="#000000" stroke-width="0.504" stroke-miterlimit="2.4142" d="M421.205,134.013     c-1.668-0.146-2.928-1.653-2.781-3.312c0.148-1.732,1.65-2.927,3.314-2.781c1.725,0.15,2.996,1.589,2.844,3.322     C424.439,132.899,422.934,134.164,421.205,134.013L421.205,134.013z"/>
<path fill="none" stroke="#000000" stroke-width="0.504" stroke-miterlimit="2.4142" d="M415.166,137.943     c-1.663-0.144-2.924-1.651-2.777-3.311c0.148-1.733,1.648-2.927,3.313-2.782c1.728,0.153,2.999,1.589,2.85,3.32     C418.406,136.832,416.896,138.096,415.166,137.943L415.166,137.943z"/>
<path fill="none" stroke="#000000" stroke-width="0.504" stroke-miterlimit="2.4142" d="M426.46,138.932     c-1.66-0.146-2.925-1.649-2.778-3.31c0.15-1.733,1.65-2.927,3.317-2.783c1.724,0.151,2.994,1.588,2.839,3.323     C429.696,137.82,428.191,139.085,426.46,138.932L426.46,138.932z"/>
<path fill="none" stroke="#000000" stroke-width="0.504" stroke-miterlimit="2.4142" d="M420.43,142.861     c-1.666-0.144-2.926-1.65-2.778-3.311c0.149-1.731,1.646-2.925,3.311-2.78c1.729,0.152,3,1.589,2.848,3.322     C423.665,141.749,422.154,143.014,420.43,142.861L420.43,142.861z"/>
<path fill="none" stroke="#000000" stroke-width="0.504" stroke-miterlimit="2.4142" d="M414.396,146.793     c-1.666-0.146-2.929-1.652-2.783-3.313c0.151-1.73,1.646-2.923,3.313-2.779c1.729,0.15,3.002,1.587,2.85,3.322     C417.631,145.679,416.121,146.943,414.396,146.793L414.396,146.793z"/>
<path fill="none" stroke="#000000" stroke-width="0.504" stroke-miterlimit="2.4142" d="M425.691,147.781     c-1.664-0.146-2.929-1.651-2.786-3.312c0.155-1.729,1.653-2.927,3.316-2.781c1.731,0.151,3,1.587,2.843,3.319     C428.924,146.668,427.42,147.932,425.691,147.781L425.691,147.781z"/>
<path fill="none" stroke="#000000" stroke-width="0.504" stroke-miterlimit="2.4142" d="M419.653,151.712     c-1.662-0.146-2.923-1.651-2.78-3.311c0.155-1.733,1.65-2.928,3.315-2.783c1.724,0.152,2.997,1.588,2.843,3.321     C422.893,150.599,421.384,151.864,419.653,151.712L419.653,151.712z"/>
<path fill="none" stroke="#000000" stroke-width="0.504" stroke-miterlimit="2.4142" d="M413.617,155.64     c-1.66-0.144-2.924-1.649-2.775-3.309c0.148-1.733,1.646-2.925,3.312-2.78c1.725,0.15,3,1.586,2.849,3.32     C416.857,154.529,415.348,155.792,413.617,155.64L413.617,155.64z"/>
<path fill="none" stroke="#000000" stroke-width="0.504" stroke-miterlimit="2.4142" d="M424.914,156.629     c-1.662-0.142-2.926-1.65-2.777-3.311c0.146-1.731,1.646-2.924,3.313-2.778c1.728,0.15,2.995,1.587,2.845,3.319     C428.148,155.517,426.645,156.781,424.914,156.629L424.914,156.629z"/>
<path fill="none" stroke="#000000" stroke-width="0.504" stroke-miterlimit="2.4142" d="M418.879,160.561     c-1.662-0.145-2.922-1.652-2.779-3.313c0.153-1.73,1.65-2.923,3.315-2.779c1.726,0.153,2.996,1.59,2.843,3.321     C422.119,159.447,420.609,160.71,418.879,160.561L418.879,160.561z"/>
<path fill="none" stroke="#000000" stroke-width="0.504" stroke-miterlimit="2.4142" d="M412.844,164.491     c-1.662-0.145-2.922-1.651-2.776-3.312c0.149-1.733,1.649-2.925,3.313-2.78c1.728,0.151,3.001,1.585,2.846,3.321     C416.084,163.38,414.576,164.644,412.844,164.491L412.844,164.491z"/>
<path fill="none" stroke="#000000" stroke-width="0.504" stroke-miterlimit="2.4142" d="M424.139,165.479     c-1.66-0.143-2.923-1.651-2.778-3.312c0.147-1.732,1.651-2.924,3.313-2.779c1.729,0.151,2.996,1.588,2.842,3.319     C427.376,164.367,425.871,165.633,424.139,165.479L424.139,165.479z"/>
<path fill="none" stroke="#000000" stroke-width="0.504" stroke-miterlimit="2.4142" d="M418.105,169.41     c-1.662-0.146-2.925-1.651-2.781-3.313c0.153-1.73,1.651-2.923,3.315-2.779c1.726,0.152,2.997,1.589,2.845,3.321     C421.344,168.298,419.836,169.561,418.105,169.41L418.105,169.41z"/>
<path fill="none" stroke="#000000" stroke-width="0.504" stroke-miterlimit="2.4142" d="M412.069,173.341     c-1.661-0.145-2.922-1.651-2.776-3.312c0.15-1.733,1.648-2.925,3.313-2.781c1.725,0.151,3,1.587,2.846,3.321     C415.311,172.229,413.802,173.493,412.069,173.341L412.069,173.341z"/>
<path fill="none" stroke="#000000" stroke-width="0.504" stroke-miterlimit="2.4142" d="M423.365,174.329     c-1.662-0.143-2.924-1.651-2.779-3.313c0.148-1.731,1.65-2.924,3.314-2.778c1.729,0.151,2.993,1.588,2.842,3.318     C426.602,173.217,425.098,174.482,423.365,174.329L423.365,174.329z"/>
</g></switch>
</svg>