<?xml version="1.0" encoding="utf-8"?>
<!DOCTYPE svg PUBLIC "-//W3C//DTD SVG 1.1//EN" "http://www.w3.org/Graphics/SVG/1.1/DTD/svg11.dtd">
<svg version="1.1" id="Armor" xmlns="http://www.w3.org/2000/svg" xmlns:xlink="http://www.w3.org/1999/xlink" x="0px" y="0px"
	 width="612px" height="792px" viewBox="0 0 612 792" enable-background="new 0 0 612 792" xml:space="preserve">
<switch><g>
<path fill="none" stroke="#000000" stroke-width="0.504" stroke-miterlimit="2.4142" d="M557.723,80.766     c1.67-0.145,2.927-1.648,2.781-3.311c-0.152-1.732-1.645-2.926-3.315-2.781c-1.72,0.152-2.998,1.59-2.847,3.323     C554.488,79.656,555.996,80.916,557.723,80.766L557.723,80.766z"/>
<path fill="none" stroke="#000000" stroke-width="0.504" stroke-miterlimit="2.4142" d="M564.732,95.803     c1.664-0.146,2.924-1.652,2.772-3.315c-0.143-1.729-1.645-2.923-3.309-2.777c-1.724,0.149-3.002,1.585-2.853,3.318     C561.49,94.688,563.008,95.953,564.732,95.803L564.732,95.803z"/>
<path fill="none" stroke="#000000" stroke-width="0.504" stroke-miterlimit="2.4142" d="M553.436,96.792     c1.666-0.146,2.927-1.651,2.777-3.311c-0.148-1.734-1.645-2.926-3.314-2.783c-1.719,0.15-2.993,1.588-2.842,3.323     C550.199,95.684,551.707,96.943,553.436,96.792L553.436,96.792z"/>
<path fill="none" stroke="#000000" stroke-width="0.504" stroke-miterlimit="2.4142" d="M560.443,111.829     c1.664-0.144,2.924-1.649,2.776-3.311c-0.151-1.731-1.645-2.926-3.311-2.784c-1.724,0.153-3.002,1.591-2.849,3.323     C557.205,110.716,558.719,111.981,560.443,111.829L560.443,111.829z"/>
<path fill="none" stroke="#000000" stroke-width="0.504" stroke-miterlimit="2.4142" d="M567.447,126.865     c1.668-0.146,2.928-1.653,2.778-3.314c-0.147-1.729-1.645-2.925-3.313-2.777c-1.721,0.148-3.004,1.588-2.846,3.323     C564.213,125.75,565.723,127.016,567.447,126.865L567.447,126.865z"/>
<path fill="none" stroke="#000000" stroke-width="0.504" stroke-miterlimit="2.4142" d="M556.15,127.854     c1.67-0.142,2.928-1.647,2.78-3.311c-0.153-1.733-1.645-2.926-3.313-2.782c-1.729,0.152-3.002,1.587-2.849,3.321     C552.914,126.743,554.422,128.004,556.15,127.854L556.15,127.854z"/>
<path fill="none" stroke="#000000" stroke-width="0.504" stroke-miterlimit="2.4142" d="M563.16,142.89     c1.664-0.142,2.92-1.652,2.776-3.311c-0.151-1.731-1.646-2.926-3.313-2.78c-1.725,0.149-3.002,1.588-2.846,3.317     C559.916,141.778,561.432,143.04,563.16,142.89L563.16,142.89z"/>
<path fill="none" stroke="#000000" stroke-width="0.504" stroke-miterlimit="2.4142" d="M570.166,157.927     c1.666-0.143,2.924-1.65,2.779-3.309c-0.152-1.735-1.65-2.928-3.313-2.781c-1.725,0.147-3.002,1.586-2.85,3.319     C566.924,156.816,568.439,158.079,570.166,157.927L570.166,157.927z"/>
<path fill="none" stroke="#000000" stroke-width="0.504" stroke-miterlimit="2.4142" d="M558.871,158.912     c1.668-0.137,2.926-1.647,2.775-3.309c-0.148-1.731-1.646-2.926-3.312-2.776c-1.725,0.147-2.996,1.585-2.846,3.316     C555.635,157.801,557.141,159.066,558.871,158.912L558.871,158.912z"/>
<path fill="none" stroke="#000000" stroke-width="0.504" stroke-miterlimit="2.4142" d="M565.877,173.952     c1.664-0.142,2.922-1.652,2.777-3.311c-0.152-1.731-1.646-2.926-3.313-2.78c-1.723,0.149-3.002,1.588-2.846,3.317     C562.635,172.841,564.148,174.103,565.877,173.952L565.877,173.952z"/>
</g></switch>
</svg>