<?xml version="1.0" encoding="utf-8"?>
<!DOCTYPE svg PUBLIC "-//W3C//DTD SVG 1.1//EN" "http://www.w3.org/Graphics/SVG/1.1/DTD/svg11.dtd">
<svg version="1.1" id="Armor" xmlns="http://www.w3.org/2000/svg" xmlns:xlink="http://www.w3.org/1999/xlink" x="0px" y="0px"
	 width="612px" height="792px" viewBox="0 0 612 792" enable-background="new 0 0 612 792" xml:space="preserve">
<switch><g>
<path fill-rule="evenodd" clip-rule="evenodd" fill="none" stroke="#000000" stroke-width="0.504" stroke-miterlimit="2.4142" d="     M463.019,191.393c-1.558-0.393-2.521-1.986-2.106-3.619c0.381-1.565,1.979-2.525,3.544-2.133c1.63,0.404,2.591,2.004,2.196,3.564     C466.252,190.839,464.652,191.799,463.019,191.393L463.019,191.393z"/>
<path fill-rule="evenodd" clip-rule="evenodd" fill="none" stroke="#000000" stroke-width="0.504" stroke-miterlimit="2.4142" d="     M455.994,195.805c-1.561-0.391-2.523-1.988-2.115-3.621c0.39-1.561,1.985-2.518,3.547-2.129c1.633,0.404,2.593,2.003,2.202,3.564     C459.221,195.251,457.622,196.208,455.994,195.805L455.994,195.805z"/>
<path fill-rule="evenodd" clip-rule="evenodd" fill="none" stroke="#000000" stroke-width="0.504" stroke-miterlimit="2.4142" d="     M467.408,198.44c-1.562-0.393-2.521-1.987-2.116-3.622c0.39-1.561,1.986-2.52,3.546-2.129c1.635,0.405,2.594,2.003,2.202,3.563     C470.635,197.885,469.033,198.843,467.408,198.44L467.408,198.44z"/>
<path fill-rule="evenodd" clip-rule="evenodd" fill="none" stroke="#000000" stroke-width="0.504" stroke-miterlimit="2.4142" d="     M460.375,202.852c-1.562-0.393-2.521-1.988-2.113-3.623c0.389-1.56,1.983-2.519,3.548-2.126c1.632,0.403,2.593,2,2.2,3.563     C463.604,202.296,462.003,203.258,460.375,202.852L460.375,202.852z"/>
<path fill-rule="evenodd" clip-rule="evenodd" fill="none" stroke="#000000" stroke-width="0.504" stroke-miterlimit="2.4142" d="     M453.35,207.267c-1.561-0.39-2.525-1.987-2.117-3.62c0.388-1.562,1.986-2.521,3.551-2.132c1.63,0.404,2.588,2.006,2.201,3.563     C456.575,206.713,454.979,207.671,453.35,207.267L453.35,207.267z"/>
<path fill-rule="evenodd" clip-rule="evenodd" fill="none" stroke="#000000" stroke-width="0.504" stroke-miterlimit="2.4142" d="     M464.762,209.899c-1.561-0.388-2.526-1.986-2.117-3.618c0.387-1.562,1.989-2.521,3.551-2.132c1.628,0.406,2.59,2.006,2.201,3.565     C467.986,209.347,466.389,210.306,464.762,209.899L464.762,209.899z"/>
<path fill-rule="evenodd" clip-rule="evenodd" fill="none" stroke="#000000" stroke-width="0.504" stroke-miterlimit="2.4142" d="     M457.73,214.313c-1.559-0.389-2.525-1.987-2.116-3.621c0.391-1.561,1.989-2.52,3.551-2.131c1.629,0.407,2.589,2.004,2.2,3.563     C460.955,213.761,459.357,214.719,457.73,214.313L457.73,214.313z"/>
<path fill-rule="evenodd" clip-rule="evenodd" fill="none" stroke="#000000" stroke-width="0.504" stroke-miterlimit="2.4142" d="     M450.7,218.725c-1.563-0.39-2.521-1.984-2.112-3.62c0.389-1.56,1.988-2.521,3.548-2.13c1.629,0.408,2.587,2.003,2.2,3.563     C453.933,218.173,452.335,219.132,450.7,218.725L450.7,218.725z"/>
<path fill-rule="evenodd" clip-rule="evenodd" fill="none" stroke="#000000" stroke-width="0.504" stroke-miterlimit="2.4142" d="     M462.111,221.359c-1.564-0.39-2.518-1.984-2.111-3.619c0.387-1.563,1.987-2.519,3.551-2.131c1.627,0.408,2.585,2.004,2.197,3.564     C465.344,220.809,463.746,221.768,462.111,221.359L462.111,221.359z"/>
<path fill-rule="evenodd" clip-rule="evenodd" fill="none" stroke="#000000" stroke-width="0.504" stroke-miterlimit="2.4142" d="     M455.083,225.773c-1.565-0.392-2.521-1.985-2.113-3.622c0.39-1.558,1.985-2.519,3.551-2.13c1.623,0.407,2.587,2.004,2.2,3.563     C458.315,225.222,456.716,226.178,455.083,225.773L455.083,225.773z"/>
<path fill-rule="evenodd" clip-rule="evenodd" fill="none" stroke="#000000" stroke-width="0.504" stroke-miterlimit="2.4142" d="     M448.058,230.187c-1.56-0.391-2.52-1.987-2.117-3.618c0.393-1.566,1.989-2.521,3.55-2.134c1.632,0.406,2.592,2.001,2.2,3.565     C451.288,229.631,449.687,230.593,448.058,230.187L448.058,230.187z"/>
<path fill-rule="evenodd" clip-rule="evenodd" fill="none" stroke="#000000" stroke-width="0.504" stroke-miterlimit="2.4142" d="     M459.47,232.82c-1.562-0.391-2.519-1.985-2.118-3.62c0.393-1.563,1.988-2.519,3.549-2.132c1.632,0.409,2.592,2.001,2.201,3.565     C462.696,232.267,461.101,233.228,459.47,232.82L459.47,232.82z"/>
<path fill-rule="evenodd" clip-rule="evenodd" fill="none" stroke="#000000" stroke-width="0.504" stroke-miterlimit="2.4142" d="     M452.439,237.232c-1.563-0.391-2.521-1.987-2.113-3.619c0.393-1.563,1.983-2.52,3.548-2.132c1.628,0.405,2.589,2.002,2.198,3.564     C455.67,236.678,454.07,237.638,452.439,237.232L452.439,237.232z"/>
<path fill-rule="evenodd" clip-rule="evenodd" fill="none" stroke="#000000" stroke-width="0.504" stroke-miterlimit="2.4142" d="     M445.407,241.643c-1.562-0.386-2.521-1.982-2.11-3.615c0.389-1.561,1.984-2.521,3.545-2.132c1.631,0.406,2.592,2.006,2.201,3.566     C448.637,241.096,447.039,242.055,445.407,241.643L445.407,241.643z"/>
<path fill-rule="evenodd" clip-rule="evenodd" fill="none" stroke="#000000" stroke-width="0.504" stroke-miterlimit="2.4142" d="     M456.818,244.277c-1.559-0.387-2.519-1.983-2.11-3.616c0.39-1.56,1.985-2.522,3.548-2.131c1.629,0.404,2.592,2.004,2.201,3.565     C460.049,243.729,458.453,244.688,456.818,244.277L456.818,244.277z"/>
<path fill-rule="evenodd" clip-rule="evenodd" fill="none" stroke="#000000" stroke-width="0.504" stroke-miterlimit="2.4142" d="     M449.789,248.689c-1.564-0.386-2.52-1.983-2.109-3.614c0.389-1.562,1.984-2.522,3.547-2.132c1.629,0.404,2.59,2.005,2.197,3.565     C453.02,248.142,451.422,249.102,449.789,248.689L449.789,248.689z"/>
<path fill-rule="evenodd" clip-rule="evenodd" fill="none" stroke="#000000" stroke-width="0.504" stroke-miterlimit="2.4142" d="     M442.764,253.105c-1.563-0.393-2.521-1.988-2.112-3.618c0.392-1.564,1.983-2.525,3.548-2.133     c1.631,0.403,2.591,2.003,2.199,3.563C445.994,252.551,444.396,253.511,442.764,253.105L442.764,253.105z"/>
<path fill-rule="evenodd" clip-rule="evenodd" fill="none" stroke="#000000" stroke-width="0.504" stroke-miterlimit="2.4142" d="     M454.176,255.738c-1.564-0.389-2.521-1.985-2.113-3.618c0.393-1.563,1.986-2.522,3.548-2.131c1.632,0.404,2.591,2.003,2.2,3.563     C457.405,255.187,455.809,256.146,454.176,255.738L454.176,255.738z"/>
<path fill-rule="evenodd" clip-rule="evenodd" fill="none" stroke="#000000" stroke-width="0.504" stroke-miterlimit="2.4142" d="     M447.144,260.15c-1.563-0.391-2.517-1.984-2.11-3.615c0.39-1.563,1.984-2.525,3.548-2.133c1.632,0.404,2.589,2.003,2.199,3.563     C450.377,259.602,448.777,260.559,447.144,260.15L447.144,260.15z"/>
<path fill-rule="evenodd" clip-rule="evenodd" fill="none" stroke="#000000" stroke-width="0.504" stroke-miterlimit="2.4142" d="     M440.115,264.563c-1.562-0.39-2.523-1.986-2.111-3.617c0.392-1.565,1.986-2.522,3.55-2.131c1.628,0.404,2.589,2.004,2.198,3.562     C443.345,264.011,441.749,264.972,440.115,264.563L440.115,264.563z"/>
<path fill-rule="evenodd" clip-rule="evenodd" fill="none" stroke="#000000" stroke-width="0.504" stroke-miterlimit="2.4142" d="     M451.528,267.197c-1.562-0.388-2.52-1.984-2.111-3.616c0.393-1.563,1.986-2.522,3.548-2.132c1.63,0.406,2.593,2.005,2.199,3.565     C454.758,266.646,453.16,267.607,451.528,267.197L451.528,267.197z"/>
<path fill-rule="evenodd" clip-rule="evenodd" fill="none" stroke="#000000" stroke-width="0.504" stroke-miterlimit="2.4142" d="     M444.497,271.609c-1.563-0.388-2.516-1.982-2.109-3.617c0.39-1.563,1.985-2.521,3.547-2.13c1.632,0.405,2.59,2.004,2.2,3.563     C447.729,271.06,446.131,272.019,444.497,271.609L444.497,271.609z"/>
<path fill-rule="evenodd" clip-rule="evenodd" fill="none" stroke="#000000" stroke-width="0.504" stroke-miterlimit="2.4142" d="     M437.471,276.024c-1.563-0.391-2.521-1.985-2.112-3.617c0.391-1.565,1.985-2.522,3.547-2.134     c1.634,0.404,2.595,2.005,2.201,3.563C440.698,275.47,439.103,276.431,437.471,276.024L437.471,276.024z"/>
<path fill-rule="evenodd" clip-rule="evenodd" fill="none" stroke="#000000" stroke-width="0.504" stroke-miterlimit="2.4142" d="     M448.883,278.658c-1.563-0.388-2.522-1.984-2.113-3.616c0.39-1.565,1.986-2.521,3.549-2.134c1.631,0.405,2.592,2.006,2.201,3.564     C452.115,278.105,450.516,279.066,448.883,278.658L448.883,278.658z"/>
<path fill-rule="evenodd" clip-rule="evenodd" fill="none" stroke="#000000" stroke-width="0.504" stroke-miterlimit="2.4142" d="     M441.852,283.07c-1.56-0.388-2.517-1.985-2.111-3.616c0.391-1.563,1.988-2.521,3.549-2.132c1.633,0.404,2.593,2.004,2.201,3.563     C445.084,282.52,443.486,283.479,441.852,283.07L441.852,283.07z"/>
<path fill-rule="evenodd" clip-rule="evenodd" fill="none" stroke="#000000" stroke-width="0.504" stroke-miterlimit="2.4142" d="     M434.826,287.483c-1.563-0.385-2.521-1.984-2.114-3.616c0.39-1.563,1.985-2.519,3.55-2.132c1.629,0.406,2.592,2.007,2.201,3.565     C438.057,286.932,436.457,287.895,434.826,287.483L434.826,287.483z"/>
<path fill-rule="evenodd" clip-rule="evenodd" fill="none" stroke="#000000" stroke-width="0.504" stroke-miterlimit="2.4142" d="     M446.236,290.116c-1.562-0.388-2.521-1.985-2.113-3.617c0.391-1.562,1.988-2.521,3.552-2.13c1.63,0.405,2.591,2.004,2.199,3.564     C449.467,289.564,447.87,290.526,446.236,290.116L446.236,290.116z"/>
<path fill-rule="evenodd" clip-rule="evenodd" fill="none" stroke="#000000" stroke-width="0.504" stroke-miterlimit="2.4142" d="     M439.209,294.53c-1.563-0.389-2.523-1.983-2.113-3.618c0.39-1.563,1.983-2.52,3.549-2.131c1.629,0.405,2.592,2.005,2.203,3.564     C442.436,293.978,440.84,294.938,439.209,294.53L439.209,294.53z"/>
<path fill-rule="evenodd" clip-rule="evenodd" fill="none" stroke="#000000" stroke-width="0.504" stroke-miterlimit="2.4142" d="     M432.178,298.941c-1.563-0.388-2.521-1.985-2.113-3.617c0.393-1.56,1.99-2.517,3.552-2.128c1.627,0.402,2.591,2.001,2.198,3.563     C435.408,298.392,433.811,299.351,432.178,298.941L432.178,298.941z"/>
<path fill-rule="evenodd" clip-rule="evenodd" fill="none" stroke="#000000" stroke-width="0.504" stroke-miterlimit="2.4142" d="     M443.592,301.577c-1.563-0.388-2.521-1.986-2.113-3.619c0.389-1.561,1.986-2.518,3.549-2.128     c1.628,0.404,2.593,1.999,2.201,3.562C446.82,301.026,445.225,301.986,443.592,301.577L443.592,301.577z"/>
</g></switch>
</svg>