<?xml version="1.0" encoding="utf-8"?>
<!DOCTYPE svg PUBLIC "-//W3C//DTD SVG 1.1//EN" "http://www.w3.org/Graphics/SVG/1.1/DTD/svg11.dtd">
<svg version="1.1" id="Armor" xmlns="http://www.w3.org/2000/svg" xmlns:xlink="http://www.w3.org/1999/xlink" x="0px" y="0px"
	 width="612px" height="792px" viewBox="0 0 612 792" enable-background="new 0 0 612 792" xml:space="preserve">
<switch><g>
<path fill="none" stroke="#000000" stroke-width="0.504" stroke-miterlimit="2.4142" d="M425.889,80.937     c-1.666-0.144-2.93-1.652-2.782-3.312c0.147-1.731,1.651-2.925,3.311-2.778c1.732,0.15,2.998,1.585,2.852,3.318     C429.117,79.825,427.617,81.088,425.889,80.937L425.889,80.937z"/>
<path fill="none" stroke="#000000" stroke-width="0.504" stroke-miterlimit="2.4142" d="M419.81,85.349     c-1.662-0.145-2.929-1.651-2.779-3.313c0.15-1.73,1.646-2.924,3.313-2.779c1.729,0.151,3.002,1.588,2.851,3.319     C423.046,84.236,421.535,85.499,419.81,85.349L419.81,85.349z"/>
<path fill="none" stroke="#000000" stroke-width="0.504" stroke-miterlimit="2.4142" d="M431.104,86.337     c-1.662-0.146-2.931-1.652-2.78-3.313c0.148-1.729,1.646-2.923,3.313-2.78c1.729,0.152,3,1.59,2.847,3.322     C434.338,85.227,432.832,86.486,431.104,86.337L431.104,86.337z"/>
<path fill="none" stroke="#000000" stroke-width="0.504" stroke-miterlimit="2.4142" d="M425.03,90.746     c-1.665-0.144-2.93-1.651-2.784-3.312c0.15-1.73,1.652-2.926,3.311-2.779c1.732,0.15,3.002,1.586,2.853,3.319     C428.261,89.634,426.759,90.897,425.03,90.746L425.03,90.746z"/>
<path fill="none" stroke="#000000" stroke-width="0.504" stroke-miterlimit="2.4142" d="M418.953,95.156     c-1.664-0.144-2.93-1.652-2.783-3.312c0.149-1.729,1.651-2.926,3.313-2.779c1.73,0.15,3.003,1.587,2.852,3.318     C422.188,94.045,420.68,95.309,418.953,95.156L418.953,95.156z"/>
<path fill="none" stroke="#000000" stroke-width="0.504" stroke-miterlimit="2.4142" d="M430.248,96.145     c-1.662-0.144-2.93-1.652-2.785-3.311c0.148-1.731,1.656-2.926,3.317-2.779c1.73,0.149,2.997,1.586,2.847,3.319     C433.48,95.032,431.977,96.295,430.248,96.145L430.248,96.145z"/>
<path fill="none" stroke="#000000" stroke-width="0.504" stroke-miterlimit="2.4142" d="M424.17,100.558     c-1.666-0.146-2.925-1.653-2.781-3.311c0.152-1.732,1.65-2.927,3.314-2.784c1.729,0.153,2.996,1.591,2.846,3.322     C427.406,99.444,425.895,100.709,424.17,100.558L424.17,100.558z"/>
<path fill="none" stroke="#000000" stroke-width="0.504" stroke-miterlimit="2.4142" d="M418.092,104.966     c-1.662-0.143-2.922-1.65-2.778-3.311c0.151-1.729,1.648-2.924,3.313-2.78c1.727,0.151,3,1.589,2.848,3.319     C421.33,103.854,419.822,105.12,418.092,104.966L418.092,104.966z"/>
<path fill="none" stroke="#000000" stroke-width="0.504" stroke-miterlimit="2.4142" d="M429.387,105.954     c-1.66-0.144-2.926-1.65-2.783-3.312c0.156-1.73,1.654-2.924,3.318-2.78c1.729,0.152,3,1.589,2.846,3.32     C432.625,104.841,431.117,106.107,429.387,105.954L429.387,105.954z"/>
<path fill="none" stroke="#000000" stroke-width="0.504" stroke-miterlimit="2.4142" d="M423.309,110.365     c-1.661-0.146-2.922-1.653-2.776-3.313c0.152-1.729,1.651-2.926,3.313-2.781c1.731,0.152,2.996,1.59,2.846,3.32     C426.541,109.251,425.041,110.517,423.309,110.365L423.309,110.365z"/>
<path fill="none" stroke="#000000" stroke-width="0.504" stroke-miterlimit="2.4142" d="M417.232,114.775     c-1.662-0.146-2.922-1.651-2.779-3.313c0.152-1.73,1.652-2.924,3.313-2.779c1.73,0.152,3,1.588,2.849,3.32     C420.47,113.663,418.965,114.927,417.232,114.775L417.232,114.775z"/>
<path fill="none" stroke="#000000" stroke-width="0.504" stroke-miterlimit="2.4142" d="M428.529,115.764     c-1.66-0.144-2.926-1.651-2.781-3.311c0.148-1.73,1.654-2.926,3.318-2.781c1.729,0.153,2.995,1.59,2.842,3.321     C431.762,114.653,430.26,115.917,428.529,115.764L428.529,115.764z"/>
<path fill="none" stroke="#000000" stroke-width="0.504" stroke-miterlimit="2.4142" d="M422.453,120.173     c-1.662-0.144-2.926-1.651-2.781-3.311c0.154-1.73,1.648-2.925,3.313-2.78c1.729,0.151,2.998,1.589,2.846,3.32     C425.688,119.062,424.18,120.325,422.453,120.173L422.453,120.173z"/>
<path fill="none" stroke="#000000" stroke-width="0.504" stroke-miterlimit="2.4142" d="M416.377,124.585     c-1.659-0.146-2.926-1.651-2.782-3.313c0.155-1.731,1.649-2.926,3.314-2.78c1.729,0.151,3.002,1.588,2.848,3.317     C419.614,123.473,418.104,124.736,416.377,124.585L416.377,124.585z"/>
<path fill="none" stroke="#000000" stroke-width="0.504" stroke-miterlimit="2.4142" d="M427.672,125.573     c-1.659-0.146-2.929-1.651-2.787-3.314c0.157-1.73,1.655-2.924,3.318-2.778c1.729,0.152,2.999,1.587,2.848,3.319     C430.909,124.461,429.402,125.725,427.672,125.573L427.672,125.573z"/>
<path fill="none" stroke="#000000" stroke-width="0.504" stroke-miterlimit="2.4142" d="M421.596,129.984     c-1.664-0.146-2.926-1.651-2.778-3.313c0.149-1.73,1.647-2.926,3.313-2.781c1.728,0.151,2.994,1.589,2.841,3.322     C424.83,128.872,423.326,130.136,421.596,129.984L421.596,129.984z"/>
<path fill="none" stroke="#000000" stroke-width="0.504" stroke-miterlimit="2.4142" d="M415.518,134.395     c-1.664-0.146-2.925-1.651-2.776-3.311c0.147-1.734,1.649-2.928,3.313-2.783c1.728,0.151,2.998,1.588,2.849,3.322     C418.756,133.282,417.248,134.546,415.518,134.395L415.518,134.395z"/>
<path fill="none" stroke="#000000" stroke-width="0.504" stroke-miterlimit="2.4142" d="M426.813,135.382     c-1.661-0.143-2.928-1.649-2.782-3.31c0.15-1.73,1.655-2.925,3.317-2.782c1.728,0.152,2.995,1.589,2.843,3.324     C430.049,134.272,428.543,135.534,426.813,135.382L426.813,135.382z"/>
<path fill="none" stroke="#000000" stroke-width="0.504" stroke-miterlimit="2.4142" d="M420.737,139.792     c-1.665-0.144-2.928-1.649-2.778-3.31c0.148-1.731,1.646-2.926,3.311-2.781c1.729,0.151,2.998,1.589,2.843,3.322     C423.971,138.682,422.465,139.944,420.737,139.792L420.737,139.792z"/>
<path fill="none" stroke="#000000" stroke-width="0.504" stroke-miterlimit="2.4142" d="M414.662,144.203     c-1.666-0.144-2.928-1.651-2.782-3.312c0.153-1.731,1.648-2.926,3.313-2.781c1.729,0.151,3,1.589,2.848,3.322     C417.896,143.09,416.387,144.354,414.662,144.203L414.662,144.203z"/>
<path fill="none" stroke="#000000" stroke-width="0.504" stroke-miterlimit="2.4142" d="M425.957,145.191     c-1.664-0.145-2.93-1.652-2.785-3.312c0.154-1.732,1.655-2.926,3.317-2.781c1.729,0.152,2.999,1.589,2.844,3.32     C429.193,144.079,427.686,145.342,425.957,145.191L425.957,145.191z"/>
<path fill="none" stroke="#000000" stroke-width="0.504" stroke-miterlimit="2.4142" d="M419.878,149.601     c-1.66-0.144-2.923-1.65-2.78-3.311c0.154-1.731,1.65-2.926,3.313-2.779c1.729,0.151,3.001,1.586,2.844,3.319     C423.112,148.487,421.609,149.752,419.878,149.601L419.878,149.601z"/>
<path fill="none" stroke="#000000" stroke-width="0.504" stroke-miterlimit="2.4142" d="M413.801,154.012     c-1.66-0.144-2.921-1.652-2.776-3.312c0.149-1.732,1.651-2.924,3.313-2.78c1.728,0.152,3,1.588,2.846,3.32     C417.041,152.899,415.533,154.164,413.801,154.012L413.801,154.012z"/>
<path fill="none" stroke="#000000" stroke-width="0.504" stroke-miterlimit="2.4142" d="M425.096,154.999     c-1.66-0.141-2.926-1.65-2.78-3.311c0.147-1.732,1.655-2.925,3.315-2.779c1.729,0.151,2.996,1.587,2.844,3.319     C428.332,153.888,426.828,155.152,425.096,154.999L425.096,154.999z"/>
<path fill="none" stroke="#000000" stroke-width="0.504" stroke-miterlimit="2.4142" d="M419.02,159.41     c-1.662-0.145-2.922-1.652-2.777-3.311c0.15-1.733,1.65-2.925,3.313-2.78c1.727,0.15,2.994,1.587,2.841,3.319     C422.256,158.297,420.75,159.562,419.02,159.41L419.02,159.41z"/>
<path fill="none" stroke="#000000" stroke-width="0.504" stroke-miterlimit="2.4142" d="M412.942,163.819     c-1.662-0.144-2.923-1.651-2.776-3.31c0.149-1.732,1.65-2.924,3.313-2.779c1.726,0.149,2.999,1.586,2.849,3.319     C416.182,162.708,414.675,163.973,412.942,163.819L412.942,163.819z"/>
<path fill="none" stroke="#000000" stroke-width="0.504" stroke-miterlimit="2.4142" d="M424.237,164.808     c-1.661-0.142-2.927-1.65-2.78-3.311c0.148-1.731,1.654-2.924,3.316-2.778c1.727,0.151,2.993,1.587,2.844,3.318     C427.475,163.696,425.97,164.961,424.237,164.808L424.237,164.808z"/>
<path fill="none" stroke="#000000" stroke-width="0.504" stroke-miterlimit="2.4142" d="M418.162,169.219     c-1.664-0.144-2.922-1.65-2.78-3.31c0.153-1.733,1.652-2.924,3.314-2.781c1.727,0.152,2.995,1.588,2.841,3.322     C421.398,168.108,419.893,169.371,418.162,169.219L418.162,169.219z"/>
<path fill="none" stroke="#000000" stroke-width="0.504" stroke-miterlimit="2.4142" d="M412.084,173.629     c-1.662-0.145-2.922-1.651-2.776-3.311c0.149-1.732,1.651-2.924,3.313-2.779c1.727,0.15,3,1.586,2.849,3.319     C415.323,172.518,413.816,173.781,412.084,173.629L412.084,173.629z"/>
<path fill="none" stroke="#000000" stroke-width="0.504" stroke-miterlimit="2.4142" d="M423.379,174.617     c-1.66-0.143-2.926-1.651-2.779-3.311c0.147-1.732,1.654-2.925,3.314-2.779c1.729,0.151,2.995,1.587,2.846,3.319     C426.617,173.505,425.111,174.77,423.379,174.617L423.379,174.617z"/>
</g></switch>
</svg>