<?xml version="1.0" encoding="utf-8"?>
<!DOCTYPE svg PUBLIC "-//W3C//DTD SVG 1.1//EN" "http://www.w3.org/Graphics/SVG/1.1/DTD/svg11.dtd">
<svg version="1.1" id="Armor" xmlns="http://www.w3.org/2000/svg" xmlns:xlink="http://www.w3.org/1999/xlink" x="0px" y="0px"
	 width="612px" height="792px" viewBox="0 0 612 792" enable-background="new 0 0 612 792" xml:space="preserve">
<switch><g>
<path fill-rule="evenodd" clip-rule="evenodd" fill="none" stroke="#000000" stroke-width="0.504" stroke-miterlimit="2.4142" d="     M425.148,90.412c-1.664-0.145-2.918-1.652-2.773-3.313c0.15-1.73,1.647-2.923,3.313-2.779c1.726,0.15,2.995,1.59,2.847,3.321     C428.385,89.296,426.88,90.566,425.148,90.412L425.148,90.412z"/>
<path fill-rule="evenodd" clip-rule="evenodd" fill="none" stroke="#000000" stroke-width="0.504" stroke-miterlimit="2.4142" d="      M419.011,98.277c-1.662-0.144-2.918-1.649-2.773-3.31c0.151-1.729,1.648-2.924,3.308-2.778c1.733,0.151,3.006,1.589,2.854,3.317      C422.247,97.169,420.743,98.433,419.011,98.277L419.011,98.277z"/>
<path fill-rule="evenodd" clip-rule="evenodd" fill="none" stroke="#000000" stroke-width="0.504" stroke-miterlimit="2.4142" d="      M430.312,99.267c-1.664-0.144-2.924-1.652-2.783-3.31c0.153-1.73,1.651-2.925,3.32-2.78c1.726,0.151,2.997,1.588,2.839,3.321      C433.544,98.158,432.04,99.42,430.312,99.267L430.312,99.267z"/>
<path fill-rule="evenodd" clip-rule="evenodd" fill="none" stroke="#000000" stroke-width="0.504" stroke-miterlimit="2.4142" d="     M423.651,107.14c-1.664-0.146-2.922-1.653-2.777-3.313c0.154-1.733,1.643-2.927,3.307-2.783c1.736,0.151,3.006,1.59,2.855,3.321     C426.892,106.025,425.38,107.29,423.651,107.14L423.651,107.14z"/>
<path fill-rule="evenodd" clip-rule="evenodd" fill="none" stroke="#000000" stroke-width="0.504" stroke-miterlimit="2.4142" d="      M417.467,115.003c-1.666-0.146-2.929-1.65-2.779-3.313c0.149-1.731,1.642-2.925,3.309-2.775      c1.729,0.147,3.005,1.581,2.854,3.314C420.702,113.891,419.189,115.154,417.467,115.003L417.467,115.003z"/>
<path fill-rule="evenodd" clip-rule="evenodd" fill="none" stroke="#000000" stroke-width="0.504" stroke-miterlimit="2.4142" d="      M428.764,115.993c-1.666-0.144-2.931-1.652-2.783-3.313c0.149-1.732,1.646-2.925,3.314-2.779      c1.727,0.152,2.996,1.587,2.85,3.318C431.997,114.879,430.487,116.144,428.764,115.993L428.764,115.993z"/>
<path fill-rule="evenodd" clip-rule="evenodd" fill="none" stroke="#000000" stroke-width="0.504" stroke-miterlimit="2.4142" d="     M422.154,123.863c-1.668-0.144-2.926-1.648-2.78-3.311c0.153-1.731,1.646-2.925,3.315-2.781c1.722,0.152,2.999,1.591,2.845,3.322     C425.389,122.753,423.885,124.015,422.154,123.863L422.154,123.863z"/>
<path fill-rule="evenodd" clip-rule="evenodd" fill="none" stroke="#000000" stroke-width="0.504" stroke-miterlimit="2.4142" d="      M415.921,131.732c-1.668-0.146-2.924-1.651-2.776-3.313c0.146-1.73,1.646-2.924,3.311-2.778c1.725,0.15,3.001,1.585,2.85,3.318      C419.161,130.619,417.648,131.884,415.921,131.732L415.921,131.732z"/>
<path fill-rule="evenodd" clip-rule="evenodd" fill="none" stroke="#000000" stroke-width="0.504" stroke-miterlimit="2.4142" d="      M427.217,132.722c-1.664-0.146-2.925-1.653-2.779-3.313c0.149-1.731,1.649-2.926,3.314-2.782      c1.723,0.152,2.993,1.589,2.842,3.321C430.453,131.61,428.945,132.873,427.217,132.722L427.217,132.722z"/>
<path fill-rule="evenodd" clip-rule="evenodd" fill="none" stroke="#000000" stroke-width="0.504" stroke-miterlimit="2.4142" d="     M420.656,140.593c-1.666-0.144-2.926-1.651-2.778-3.313c0.152-1.729,1.643-2.925,3.309-2.783     c1.728,0.155,3.004,1.592,2.848,3.323C423.895,139.479,422.38,140.745,420.656,140.593L420.656,140.593z"/>
<path fill-rule="evenodd" clip-rule="evenodd" fill="none" stroke="#000000" stroke-width="0.504" stroke-miterlimit="2.4142" d="      M414.375,148.462c-1.668-0.146-2.928-1.652-2.779-3.314c0.148-1.73,1.645-2.926,3.313-2.778c1.725,0.15,3.006,1.588,2.848,3.322      C417.611,147.347,416.102,148.612,414.375,148.462L414.375,148.462z"/>
<path fill-rule="evenodd" clip-rule="evenodd" fill="none" stroke="#000000" stroke-width="0.504" stroke-miterlimit="2.4142" d="      M425.67,149.45c-1.664-0.144-2.927-1.648-2.779-3.31c0.154-1.734,1.647-2.927,3.313-2.782c1.729,0.151,3.002,1.586,2.848,3.321      C428.907,148.341,427.4,149.602,425.67,149.45L425.67,149.45z"/>
<path fill-rule="evenodd" clip-rule="evenodd" fill="none" stroke="#000000" stroke-width="0.504" stroke-miterlimit="2.4142" d="     M419.158,157.321c-1.662-0.145-2.924-1.652-2.779-3.312c0.154-1.732,1.648-2.925,3.314-2.781c1.725,0.15,3,1.588,2.844,3.32     C422.398,156.208,420.887,157.471,419.158,157.321L419.158,157.321z"/>
<path fill-rule="evenodd" clip-rule="evenodd" fill="none" stroke="#000000" stroke-width="0.504" stroke-miterlimit="2.4142" d="      M412.827,165.187c-1.665-0.143-2.923-1.649-2.778-3.311c0.152-1.732,1.65-2.926,3.311-2.778      c1.727,0.148,3.004,1.586,2.852,3.318C416.07,164.076,414.555,165.34,412.827,165.187L412.827,165.187z"/>
<path fill-rule="evenodd" clip-rule="evenodd" fill="none" stroke="#000000" stroke-width="0.504" stroke-miterlimit="2.4142" d="      M424.122,166.173c-1.664-0.138-2.925-1.649-2.774-3.31c0.147-1.732,1.646-2.926,3.308-2.776      c1.728,0.146,2.999,1.585,2.847,3.317C427.359,165.062,425.854,166.328,424.122,166.173L424.122,166.173z"/>
<path fill-rule="evenodd" clip-rule="evenodd" fill="none" stroke="#000000" stroke-width="0.504" stroke-miterlimit="2.4142" d="     M417.661,174.042c-1.663-0.144-2.924-1.651-2.78-3.312c0.155-1.731,1.648-2.925,3.314-2.781c1.725,0.151,3.001,1.589,2.844,3.32     C420.901,172.93,419.39,174.193,417.661,174.042L417.661,174.042z"/>
</g></switch>
</svg>