<?xml version="1.0" encoding="utf-8"?>
<!DOCTYPE svg PUBLIC "-//W3C//DTD SVG 1.1//EN" "http://www.w3.org/Graphics/SVG/1.1/DTD/svg11.dtd">
<svg version="1.1" id="Armor" xmlns="http://www.w3.org/2000/svg" xmlns:xlink="http://www.w3.org/1999/xlink" x="0px" y="0px"
	 width="612px" height="792px" viewBox="0 0 612 792" enable-background="new 0 0 612 792" xml:space="preserve">
<switch><g>
<path fill="none" stroke="#000000" stroke-width="0.504" stroke-miterlimit="2.4142" d="M425.85,80.914     c-1.661-0.143-2.928-1.651-2.78-3.312c0.146-1.73,1.649-2.924,3.312-2.778c1.729,0.149,3.001,1.586,2.85,3.318     C429.082,79.804,427.578,81.065,425.85,80.914L425.85,80.914z"/>
<path fill="none" stroke="#000000" stroke-width="0.504" stroke-miterlimit="2.4142" d="M419.795,85.066     c-1.663-0.145-2.928-1.65-2.779-3.313c0.148-1.729,1.646-2.923,3.313-2.778c1.727,0.151,3.001,1.589,2.85,3.318     C423.033,83.955,421.521,85.219,419.795,85.066L419.795,85.066z"/>
<path fill="none" stroke="#000000" stroke-width="0.504" stroke-miterlimit="2.4142" d="M431.09,86.055     c-1.665-0.145-2.928-1.651-2.78-3.311c0.148-1.729,1.646-2.926,3.313-2.78c1.727,0.15,2.997,1.59,2.846,3.32     C434.321,84.945,432.817,86.207,431.09,86.055L431.09,86.055z"/>
<path fill="none" stroke="#000000" stroke-width="0.504" stroke-miterlimit="2.4142" d="M425.037,90.206     c-1.662-0.143-2.929-1.65-2.781-3.312c0.146-1.73,1.65-2.923,3.312-2.777c1.729,0.148,3.002,1.585,2.85,3.318     C428.269,89.097,426.766,90.357,425.037,90.206L425.037,90.206z"/>
<path fill="none" stroke="#000000" stroke-width="0.504" stroke-miterlimit="2.4142" d="M418.98,94.359     c-1.66-0.146-2.928-1.652-2.779-3.313c0.149-1.729,1.646-2.924,3.313-2.779c1.729,0.151,3.002,1.589,2.851,3.318     C422.22,93.247,420.707,94.511,418.98,94.359L418.98,94.359z"/>
<path fill="none" stroke="#000000" stroke-width="0.504" stroke-miterlimit="2.4142" d="M430.275,95.348     c-1.662-0.146-2.929-1.651-2.779-3.312c0.147-1.729,1.647-2.925,3.313-2.781c1.728,0.151,2.996,1.591,2.847,3.322     C433.51,94.237,432.004,95.499,430.275,95.348L430.275,95.348z"/>
<path fill="none" stroke="#000000" stroke-width="0.504" stroke-miterlimit="2.4142" d="M424.225,99.498     c-1.664-0.144-2.928-1.651-2.782-3.311c0.147-1.732,1.649-2.925,3.309-2.779c1.734,0.15,3.004,1.586,2.854,3.319     C427.459,98.388,425.953,99.649,424.225,99.498L424.225,99.498z"/>
<path fill="none" stroke="#000000" stroke-width="0.504" stroke-miterlimit="2.4142" d="M418.17,103.649     c-1.664-0.142-2.93-1.651-2.782-3.311c0.149-1.73,1.651-2.925,3.312-2.778c1.731,0.151,3.007,1.586,2.852,3.317     C421.404,102.539,419.896,103.802,418.17,103.649L418.17,103.649z"/>
<path fill="none" stroke="#000000" stroke-width="0.504" stroke-miterlimit="2.4142" d="M429.469,104.64     c-1.666-0.144-2.934-1.653-2.786-3.313c0.149-1.731,1.653-2.924,3.314-2.778c1.73,0.148,2.999,1.586,2.847,3.318     C432.699,103.527,431.193,104.789,429.469,104.64L429.469,104.64z"/>
<path fill="none" stroke="#000000" stroke-width="0.504" stroke-miterlimit="2.4142" d="M423.409,108.793     c-1.665-0.146-2.924-1.653-2.779-3.313c0.151-1.73,1.649-2.925,3.313-2.781c1.727,0.152,2.999,1.59,2.849,3.32     C426.647,107.678,425.137,108.944,423.409,108.793L423.409,108.793z"/>
<path fill="none" stroke="#000000" stroke-width="0.504" stroke-miterlimit="2.4142" d="M417.354,112.944     c-1.661-0.146-2.921-1.652-2.778-3.313c0.153-1.731,1.649-2.925,3.313-2.781c1.728,0.151,3.002,1.591,2.851,3.32     C420.597,111.83,419.084,113.097,417.354,112.944L417.354,112.944z"/>
<path fill="none" stroke="#000000" stroke-width="0.504" stroke-miterlimit="2.4142" d="M428.649,113.931     c-1.661-0.145-2.926-1.649-2.778-3.312c0.152-1.729,1.649-2.924,3.313-2.779c1.729,0.151,2.999,1.587,2.847,3.32     C431.888,112.818,430.379,114.085,428.649,113.931L428.649,113.931z"/>
<path fill="none" stroke="#000000" stroke-width="0.504" stroke-miterlimit="2.4142" d="M422.594,118.083     c-1.662-0.144-2.922-1.649-2.774-3.311c0.149-1.731,1.649-2.927,3.313-2.78c1.729,0.15,2.994,1.588,2.844,3.319     C425.828,116.97,424.324,118.235,422.594,118.083L422.594,118.083z"/>
<path fill="none" stroke="#000000" stroke-width="0.504" stroke-miterlimit="2.4142" d="M416.541,122.234     c-1.664-0.146-2.924-1.652-2.779-3.312c0.152-1.73,1.651-2.925,3.314-2.779c1.729,0.152,3,1.588,2.85,3.319     C419.777,121.123,418.273,122.386,416.541,122.234L416.541,122.234z"/>
<path fill="none" stroke="#000000" stroke-width="0.504" stroke-miterlimit="2.4142" d="M427.838,123.223     c-1.664-0.146-2.924-1.653-2.781-3.311c0.15-1.729,1.653-2.926,3.32-2.78c1.725,0.152,2.993,1.589,2.839,3.32     C431.068,122.112,429.568,123.375,427.838,123.223L427.838,123.223z"/>
<path fill="none" stroke="#000000" stroke-width="0.504" stroke-miterlimit="2.4142" d="M421.782,127.375     c-1.66-0.146-2.925-1.652-2.779-3.313c0.152-1.731,1.648-2.925,3.313-2.779c1.729,0.151,3,1.587,2.849,3.319     C425.021,126.262,423.511,127.527,421.782,127.375L421.782,127.375z"/>
<path fill="none" stroke="#000000" stroke-width="0.504" stroke-miterlimit="2.4142" d="M415.73,131.528     c-1.66-0.145-2.929-1.651-2.781-3.313c0.151-1.732,1.647-2.927,3.313-2.781c1.729,0.151,3.005,1.589,2.851,3.32     C418.967,130.416,417.457,131.681,415.73,131.528L415.73,131.528z"/>
<path fill="none" stroke="#000000" stroke-width="0.504" stroke-miterlimit="2.4142" d="M427.025,132.517     c-1.66-0.146-2.928-1.651-2.785-3.314c0.154-1.731,1.653-2.926,3.315-2.78c1.73,0.152,3,1.589,2.847,3.321     C430.262,131.403,428.754,132.669,427.025,132.517L427.025,132.517z"/>
<path fill="none" stroke="#000000" stroke-width="0.504" stroke-miterlimit="2.4142" d="M420.973,136.667     c-1.666-0.146-2.927-1.652-2.78-3.312c0.147-1.732,1.649-2.926,3.313-2.78c1.726,0.149,2.996,1.588,2.844,3.321     C424.207,135.555,422.701,136.818,420.973,136.667L420.973,136.667z"/>
<path fill="none" stroke="#000000" stroke-width="0.504" stroke-miterlimit="2.4142" d="M414.914,140.819     c-1.662-0.144-2.924-1.65-2.776-3.31c0.147-1.734,1.648-2.928,3.313-2.783c1.727,0.153,2.998,1.589,2.849,3.321     C418.154,139.708,416.645,140.972,414.914,140.819L414.914,140.819z"/>
<path fill="none" stroke="#000000" stroke-width="0.504" stroke-miterlimit="2.4142" d="M426.209,141.808     c-1.66-0.146-2.926-1.649-2.778-3.31c0.149-1.733,1.651-2.927,3.317-2.783c1.723,0.151,2.994,1.588,2.84,3.323     C429.445,140.696,427.939,141.96,426.209,141.808L426.209,141.808z"/>
<path fill="none" stroke="#000000" stroke-width="0.504" stroke-miterlimit="2.4142" d="M420.158,145.959     c-1.665-0.145-2.924-1.65-2.779-3.311c0.15-1.731,1.648-2.926,3.313-2.781c1.728,0.152,2.999,1.59,2.847,3.322     C423.395,144.847,421.885,146.111,420.158,145.959L420.158,145.959z"/>
<path fill="none" stroke="#000000" stroke-width="0.504" stroke-miterlimit="2.4142" d="M414.105,150.111     c-1.665-0.145-2.929-1.651-2.782-3.313c0.151-1.73,1.646-2.924,3.313-2.78c1.729,0.151,3.002,1.588,2.85,3.323     C417.34,148.998,415.831,150.263,414.105,150.111L414.105,150.111z"/>
<path fill="none" stroke="#000000" stroke-width="0.504" stroke-miterlimit="2.4142" d="M425.401,151.1     c-1.664-0.146-2.93-1.651-2.786-3.311c0.156-1.731,1.653-2.927,3.315-2.781c1.732,0.151,3.001,1.587,2.845,3.319     C428.635,149.986,427.129,151.25,425.401,151.1L425.401,151.1z"/>
<path fill="none" stroke="#000000" stroke-width="0.504" stroke-miterlimit="2.4142" d="M419.344,155.252     c-1.662-0.146-2.924-1.652-2.778-3.311c0.153-1.733,1.649-2.928,3.313-2.783c1.725,0.152,2.998,1.588,2.844,3.32     C422.582,154.138,421.074,155.403,419.344,155.252L419.344,155.252z"/>
<path fill="none" stroke="#000000" stroke-width="0.504" stroke-miterlimit="2.4142" d="M413.289,159.401     c-1.66-0.144-2.924-1.65-2.777-3.31c0.15-1.732,1.648-2.924,3.313-2.779c1.726,0.149,3.001,1.586,2.849,3.32     C416.529,158.291,415.02,159.554,413.289,159.401L413.289,159.401z"/>
<path fill="none" stroke="#000000" stroke-width="0.504" stroke-miterlimit="2.4142" d="M424.584,160.39     c-1.66-0.142-2.924-1.65-2.777-3.311c0.146-1.731,1.648-2.925,3.313-2.778c1.729,0.15,2.996,1.587,2.846,3.318     C427.821,159.277,426.316,160.542,424.584,160.39L424.584,160.39z"/>
<path fill="none" stroke="#000000" stroke-width="0.504" stroke-miterlimit="2.4142" d="M418.531,164.542     c-1.662-0.144-2.924-1.651-2.78-3.312c0.153-1.73,1.651-2.923,3.315-2.779c1.726,0.152,2.996,1.589,2.844,3.321     C421.77,163.43,420.262,164.692,418.531,164.542L418.531,164.542z"/>
<path fill="none" stroke="#000000" stroke-width="0.504" stroke-miterlimit="2.4142" d="M412.476,168.695     c-1.659-0.145-2.921-1.652-2.775-3.312c0.149-1.733,1.649-2.925,3.313-2.781c1.728,0.151,3,1.587,2.847,3.321     C415.718,167.583,414.209,168.848,412.476,168.695L412.476,168.695z"/>
<path fill="none" stroke="#000000" stroke-width="0.504" stroke-miterlimit="2.4142" d="M423.771,169.683     c-1.66-0.143-2.925-1.651-2.779-3.312c0.147-1.732,1.651-2.924,3.313-2.779c1.729,0.151,2.996,1.588,2.844,3.319     C427.009,168.57,425.504,169.836,423.771,169.683L423.771,169.683z"/>
<path fill="none" stroke="#000000" stroke-width="0.504" stroke-miterlimit="2.4142" d="M417.719,173.835     c-1.663-0.145-2.925-1.651-2.781-3.313c0.154-1.73,1.652-2.923,3.316-2.779c1.725,0.152,2.996,1.589,2.844,3.321     C420.956,172.723,419.448,173.985,417.719,173.835L417.719,173.835z"/>
</g></switch>
</svg>