<?xml version="1.0" encoding="utf-8"?>
<!DOCTYPE svg PUBLIC "-//W3C//DTD SVG 1.1//EN" "http://www.w3.org/Graphics/SVG/1.1/DTD/svg11.dtd">
<svg version="1.1" id="Armor" xmlns="http://www.w3.org/2000/svg" xmlns:xlink="http://www.w3.org/1999/xlink" x="0px" y="0px"
	 width="612px" height="792px" viewBox="0 0 612 792" enable-background="new 0 0 612 792" xml:space="preserve">
<switch><g>
<path fill-rule="evenodd" clip-rule="evenodd" fill="none" stroke="#000000" stroke-width="0.504" stroke-miterlimit="2.4142" d="     M519.448,191.261c1.562-0.395,2.521-1.989,2.114-3.623c-0.39-1.561-1.984-2.521-3.548-2.126c-1.631,0.402-2.592,2-2.2,3.562     C516.22,190.704,517.821,191.667,519.448,191.261L519.448,191.261z"/>
<path fill-rule="evenodd" clip-rule="evenodd" fill="none" stroke="#000000" stroke-width="0.504" stroke-miterlimit="2.4142" d="     M526.636,196.348c1.561-0.389,2.525-1.988,2.117-3.618c-0.389-1.562-1.99-2.521-3.553-2.133c-1.627,0.406-2.59,2.006-2.199,3.565     C523.409,195.795,525.008,196.754,526.636,196.348L526.636,196.348z"/>
<path fill-rule="evenodd" clip-rule="evenodd" fill="none" stroke="#000000" stroke-width="0.504" stroke-miterlimit="2.4142" d="     M515.22,198.983c1.561-0.389,2.526-1.988,2.117-3.619c-0.387-1.562-1.99-2.521-3.553-2.132c-1.626,0.406-2.588,2.006-2.199,3.565     C511.993,198.431,513.593,199.39,515.22,198.983L515.22,198.983z"/>
<path fill-rule="evenodd" clip-rule="evenodd" fill="none" stroke="#000000" stroke-width="0.504" stroke-miterlimit="2.4142" d="     M522.405,204.07c1.56-0.39,2.527-1.987,2.118-3.622c-0.392-1.561-1.988-2.52-3.552-2.13c-1.627,0.406-2.588,2.005-2.2,3.563     C519.183,203.518,520.779,204.476,522.405,204.07L522.405,204.07z"/>
<path fill-rule="evenodd" clip-rule="evenodd" fill="none" stroke="#000000" stroke-width="0.504" stroke-miterlimit="2.4142" d="     M529.598,209.154c1.563-0.388,2.517-1.984,2.111-3.619c-0.388-1.562-1.988-2.518-3.553-2.129     c-1.624,0.409-2.585,2.004-2.194,3.563C526.362,208.604,527.964,209.564,529.598,209.154L529.598,209.154z"/>
<path fill-rule="evenodd" clip-rule="evenodd" fill="none" stroke="#000000" stroke-width="0.504" stroke-miterlimit="2.4142" d="     M518.183,211.79c1.563-0.389,2.516-1.983,2.111-3.618c-0.389-1.563-1.988-2.518-3.553-2.131     c-1.625,0.409-2.585,2.005-2.195,3.563C514.947,211.24,516.548,212.2,518.183,211.79L518.183,211.79z"/>
<path fill-rule="evenodd" clip-rule="evenodd" fill="none" stroke="#000000" stroke-width="0.504" stroke-miterlimit="2.4142" d="     M525.364,216.879c1.566-0.392,2.523-1.985,2.113-3.622c-0.391-1.558-1.984-2.518-3.549-2.13     c-1.624,0.408-2.588,2.004-2.201,3.563C522.132,216.327,523.731,217.282,525.364,216.879L525.364,216.879z"/>
<path fill-rule="evenodd" clip-rule="evenodd" fill="none" stroke="#000000" stroke-width="0.504" stroke-miterlimit="2.4142" d="     M532.546,221.965c1.563-0.39,2.521-1.985,2.12-3.62c-0.393-1.562-1.987-2.518-3.548-2.131c-1.633,0.409-2.593,2.001-2.201,3.564     C529.321,221.412,530.918,222.372,532.546,221.965L532.546,221.965z"/>
<path fill-rule="evenodd" clip-rule="evenodd" fill="none" stroke="#000000" stroke-width="0.504" stroke-miterlimit="2.4142" d="     M521.134,224.601c1.563-0.391,2.52-1.985,2.119-3.621c-0.394-1.562-1.987-2.517-3.549-2.131c-1.632,0.41-2.594,2.001-2.201,3.565     C517.907,224.047,519.505,225.007,521.134,224.601L521.134,224.601z"/>
<path fill-rule="evenodd" clip-rule="evenodd" fill="none" stroke="#000000" stroke-width="0.504" stroke-miterlimit="2.4142" d="     M528.321,229.687c1.563-0.39,2.52-1.987,2.113-3.617c-0.395-1.564-1.984-2.521-3.549-2.133c-1.627,0.406-2.588,2.002-2.198,3.564     C525.092,229.133,526.689,230.093,528.321,229.687L528.321,229.687z"/>
<path fill-rule="evenodd" clip-rule="evenodd" fill="none" stroke="#000000" stroke-width="0.504" stroke-miterlimit="2.4142" d="     M535.513,234.771c1.558-0.385,2.519-1.982,2.109-3.615c-0.39-1.561-1.982-2.523-3.547-2.132c-1.63,0.405-2.592,2.005-2.201,3.566     C532.282,234.224,533.877,235.183,535.513,234.771L535.513,234.771z"/>
<path fill-rule="evenodd" clip-rule="evenodd" fill="none" stroke="#000000" stroke-width="0.504" stroke-miterlimit="2.4142" d="     M524.097,237.405c1.559-0.386,2.518-1.982,2.111-3.615c-0.391-1.561-1.984-2.522-3.549-2.131     c-1.63,0.404-2.592,2.004-2.201,3.565C520.865,236.858,522.462,237.818,524.097,237.405L524.097,237.405z"/>
<path fill-rule="evenodd" clip-rule="evenodd" fill="none" stroke="#000000" stroke-width="0.504" stroke-miterlimit="2.4142" d="     M531.282,242.492c1.563-0.385,2.52-1.982,2.109-3.613c-0.389-1.563-1.984-2.523-3.547-2.133c-1.629,0.404-2.59,2.006-2.197,3.566     C528.051,241.946,529.649,242.904,531.282,242.492L531.282,242.492z"/>
<path fill-rule="evenodd" clip-rule="evenodd" fill="none" stroke="#000000" stroke-width="0.504" stroke-miterlimit="2.4142" d="     M538.468,247.581c1.563-0.391,2.521-1.986,2.112-3.619c-0.394-1.563-1.985-2.521-3.548-2.131     c-1.632,0.405-2.592,2.004-2.199,3.564C535.236,247.028,536.833,247.989,538.468,247.581L538.468,247.581z"/>
<path fill-rule="evenodd" clip-rule="evenodd" fill="none" stroke="#000000" stroke-width="0.504" stroke-miterlimit="2.4142" d="     M527.052,250.216c1.563-0.39,2.521-1.986,2.113-3.617c-0.393-1.565-1.986-2.524-3.549-2.132     c-1.632,0.404-2.591,2.003-2.199,3.563C523.819,249.665,525.418,250.624,527.052,250.216L527.052,250.216z"/>
<path fill-rule="evenodd" clip-rule="evenodd" fill="none" stroke="#000000" stroke-width="0.504" stroke-miterlimit="2.4142" d="     M534.241,255.301c1.562-0.391,2.515-1.984,2.108-3.614c-0.39-1.563-1.985-2.525-3.548-2.133c-1.633,0.405-2.59,2.003-2.201,3.562     C531.005,254.753,532.606,255.711,534.241,255.301L534.241,255.301z"/>
<path fill-rule="evenodd" clip-rule="evenodd" fill="none" stroke="#000000" stroke-width="0.504" stroke-miterlimit="2.4142" d="     M541.426,260.388c1.562-0.386,2.52-1.983,2.112-3.616c-0.393-1.563-1.986-2.521-3.547-2.132     c-1.631,0.408-2.594,2.005-2.199,3.565C538.196,259.837,539.796,260.799,541.426,260.388L541.426,260.388z"/>
<path fill-rule="evenodd" clip-rule="evenodd" fill="none" stroke="#000000" stroke-width="0.504" stroke-miterlimit="2.4142" d="     M530.01,263.023c1.562-0.387,2.52-1.983,2.111-3.615c-0.393-1.564-1.985-2.522-3.547-2.133c-1.631,0.407-2.593,2.005-2.199,3.566     C526.78,262.474,528.38,263.435,530.01,263.023L530.01,263.023z"/>
<path fill-rule="evenodd" clip-rule="evenodd" fill="none" stroke="#000000" stroke-width="0.504" stroke-miterlimit="2.4142" d="     M537.196,268.11c1.564-0.389,2.515-1.983,2.109-3.617c-0.389-1.564-1.985-2.521-3.547-2.132c-1.633,0.407-2.589,2.005-2.2,3.564     C533.968,267.559,535.562,268.519,537.196,268.11L537.196,268.11z"/>
<path fill-rule="evenodd" clip-rule="evenodd" fill="none" stroke="#000000" stroke-width="0.504" stroke-miterlimit="2.4142" d="     M544.382,273.198c1.562-0.389,2.522-1.985,2.113-3.618c-0.391-1.565-1.986-2.519-3.551-2.132     c-1.629,0.404-2.591,2.005-2.199,3.563C541.147,272.645,542.749,273.605,544.382,273.198L544.382,273.198z"/>
<path fill-rule="evenodd" clip-rule="evenodd" fill="none" stroke="#000000" stroke-width="0.504" stroke-miterlimit="2.4142" d="     M532.967,275.833c1.562-0.388,2.522-1.986,2.114-3.617c-0.392-1.565-1.987-2.519-3.55-2.132     c-1.631,0.403-2.593,2.004-2.201,3.563C529.733,275.28,531.334,276.241,532.967,275.833L532.967,275.833z"/>
<path fill-rule="evenodd" clip-rule="evenodd" fill="none" stroke="#000000" stroke-width="0.504" stroke-miterlimit="2.4142" d="     M540.154,280.919c1.561-0.388,2.515-1.985,2.11-3.616c-0.39-1.564-1.989-2.522-3.547-2.133c-1.635,0.406-2.595,2.006-2.203,3.563     C536.923,280.368,538.519,281.328,540.154,280.919L540.154,280.919z"/>
<path fill-rule="evenodd" clip-rule="evenodd" fill="none" stroke="#000000" stroke-width="0.504" stroke-miterlimit="2.4142" d="     M547.337,286.005c1.563-0.387,2.521-1.984,2.114-3.618c-0.391-1.561-1.987-2.519-3.552-2.128     c-1.631,0.405-2.592,2.003-2.199,3.563C544.106,285.454,545.702,286.415,547.337,286.005L547.337,286.005z"/>
<path fill-rule="evenodd" clip-rule="evenodd" fill="none" stroke="#000000" stroke-width="0.504" stroke-miterlimit="2.4142" d="     M535.925,288.64c1.561-0.387,2.521-1.984,2.114-3.618c-0.391-1.56-1.987-2.518-3.553-2.128c-1.63,0.405-2.591,2.003-2.198,3.564     C532.694,288.09,534.29,289.05,535.925,288.64L535.925,288.64z"/>
<path fill-rule="evenodd" clip-rule="evenodd" fill="none" stroke="#000000" stroke-width="0.504" stroke-miterlimit="2.4142" d="     M543.106,293.729c1.564-0.389,2.526-1.984,2.115-3.619c-0.389-1.562-1.984-2.519-3.55-2.133     c-1.627,0.407-2.592,2.007-2.202,3.566C539.882,293.177,541.478,294.137,543.106,293.729L543.106,293.729z"/>
<path fill-rule="evenodd" clip-rule="evenodd" fill="none" stroke="#000000" stroke-width="0.504" stroke-miterlimit="2.4142" d="     M550.294,298.814c1.563-0.388,2.521-1.987,2.113-3.62c-0.39-1.561-1.985-2.517-3.549-2.129c-1.629,0.406-2.594,2-2.199,3.563     C547.064,298.265,548.661,299.225,550.294,298.814L550.294,298.814z"/>
<path fill-rule="evenodd" clip-rule="evenodd" fill="none" stroke="#000000" stroke-width="0.504" stroke-miterlimit="2.4142" d="     M538.881,301.45c1.563-0.388,2.521-1.988,2.114-3.62c-0.392-1.56-1.986-2.518-3.551-2.129c-1.627,0.405-2.592,2-2.199,3.563     C535.651,300.899,537.249,301.859,538.881,301.45L538.881,301.45z"/>
</g></switch>
</svg>