<?xml version="1.0" encoding="utf-8"?>
<!DOCTYPE svg PUBLIC "-//W3C//DTD SVG 1.1//EN" "http://www.w3.org/Graphics/SVG/1.1/DTD/svg11.dtd">
<svg version="1.1" id="Armor" xmlns="http://www.w3.org/2000/svg" xmlns:xlink="http://www.w3.org/1999/xlink" x="0px" y="0px"
	 width="612px" height="792px" viewBox="0 0 612 792" enable-background="new 0 0 612 792" xml:space="preserve">
<switch><g>
<path fill="none" stroke="#000000" stroke-width="0.504" stroke-miterlimit="2.4142" d="M425.768,80.766     c-1.67-0.145-2.927-1.648-2.78-3.311c0.151-1.732,1.645-2.926,3.314-2.781c1.72,0.152,2.998,1.59,2.847,3.323     C429.002,79.656,427.494,80.916,425.768,80.766L425.768,80.766z"/>
<path fill="none" stroke="#000000" stroke-width="0.504" stroke-miterlimit="2.4142" d="M418.757,95.803     c-1.664-0.146-2.924-1.652-2.772-3.315c0.143-1.729,1.646-2.923,3.31-2.777c1.722,0.149,3.001,1.585,2.852,3.318     C422,94.688,420.481,95.953,418.757,95.803L418.757,95.803z"/>
<path fill="none" stroke="#000000" stroke-width="0.504" stroke-miterlimit="2.4142" d="M430.055,96.792     c-1.667-0.146-2.927-1.651-2.776-3.311c0.146-1.734,1.645-2.926,3.313-2.783c1.719,0.15,2.994,1.588,2.842,3.323     C433.291,95.684,431.782,96.943,430.055,96.792L430.055,96.792z"/>
<path fill="none" stroke="#000000" stroke-width="0.504" stroke-miterlimit="2.4142" d="M423.047,111.829     c-1.664-0.144-2.924-1.649-2.777-3.311c0.152-1.731,1.646-2.926,3.312-2.784c1.723,0.153,3.002,1.591,2.848,3.323     C426.285,110.716,424.771,111.981,423.047,111.829L423.047,111.829z"/>
<path fill="none" stroke="#000000" stroke-width="0.504" stroke-miterlimit="2.4142" d="M416.042,126.865     c-1.667-0.146-2.927-1.653-2.779-3.314c0.149-1.729,1.646-2.925,3.314-2.777c1.721,0.148,3.005,1.588,2.847,3.323     C419.277,125.75,417.767,127.016,416.042,126.865L416.042,126.865z"/>
<path fill="none" stroke="#000000" stroke-width="0.504" stroke-miterlimit="2.4142" d="M427.339,127.854     c-1.669-0.142-2.927-1.647-2.78-3.311c0.154-1.733,1.646-2.926,3.313-2.782c1.729,0.152,3.003,1.587,2.849,3.321     C430.576,126.743,429.067,128.004,427.339,127.854L427.339,127.854z"/>
<path fill="none" stroke="#000000" stroke-width="0.504" stroke-miterlimit="2.4142" d="M420.33,142.89     c-1.664-0.142-2.921-1.652-2.777-3.311c0.152-1.731,1.646-2.926,3.313-2.78c1.725,0.149,3.002,1.588,2.846,3.317     C423.573,141.778,422.059,143.04,420.33,142.89L420.33,142.89z"/>
<path fill="none" stroke="#000000" stroke-width="0.504" stroke-miterlimit="2.4142" d="M413.324,157.927     c-1.667-0.143-2.924-1.65-2.779-3.309c0.152-1.735,1.649-2.928,3.313-2.781c1.725,0.147,3.003,1.586,2.851,3.319     C416.566,156.816,415.05,158.079,413.324,157.927L413.324,157.927z"/>
<path fill="none" stroke="#000000" stroke-width="0.504" stroke-miterlimit="2.4142" d="M424.619,158.912     c-1.669-0.137-2.926-1.647-2.775-3.309c0.147-1.731,1.645-2.926,3.312-2.776c1.724,0.147,2.995,1.585,2.846,3.316     C427.855,157.801,426.35,159.066,424.619,158.912L424.619,158.912z"/>
<path fill="none" stroke="#000000" stroke-width="0.504" stroke-miterlimit="2.4142" d="M417.612,173.952     c-1.663-0.142-2.921-1.652-2.776-3.311c0.152-1.731,1.646-2.926,3.313-2.78c1.723,0.149,3.002,1.588,2.846,3.317     C420.855,172.841,419.341,174.103,417.612,173.952L417.612,173.952z"/>
</g></switch>
</svg>