<?xml version="1.0" encoding="utf-8"?>
<!DOCTYPE svg PUBLIC "-//W3C//DTD SVG 1.1//EN" "http://www.w3.org/Graphics/SVG/1.1/DTD/svg11.dtd">
<svg version="1.1" id="Armor" xmlns="http://www.w3.org/2000/svg" xmlns:xlink="http://www.w3.org/1999/xlink" x="0px" y="0px"
	 width="612px" height="792px" viewBox="0 0 612 792" enable-background="new 0 0 612 792" xml:space="preserve">
<switch><g>
<path fill="none" stroke="#000000" stroke-width="0.504" stroke-miterlimit="2.4142" d="M520.792,93.42      c1.317,0,2.414-1.098,2.414-2.415c0-1.317-1.097-2.415-2.414-2.415c-1.316,0-2.415,1.097-2.415,2.415      C518.377,92.323,519.476,93.42,520.792,93.42L520.792,93.42z"/>
<path fill="none" stroke="#000000" stroke-width="0.504" stroke-miterlimit="2.4142" d="M531.576,93.42      c1.32,0,2.417-1.098,2.417-2.415c0-1.317-1.097-2.415-2.417-2.415c-1.316,0-2.412,1.097-2.412,2.415      C529.164,92.323,530.26,93.42,531.576,93.42L531.576,93.42z"/>
<path fill="none" stroke="#000000" stroke-width="0.504" stroke-miterlimit="2.4142" d="M526.183,106.144      c1.321,0,2.417-1.098,2.417-2.415s-1.096-2.414-2.417-2.414c-1.315,0-2.411,1.097-2.411,2.414S524.866,106.144,526.183,106.144      L526.183,106.144z"/>
<path fill="none" stroke="#000000" stroke-width="0.504" stroke-miterlimit="2.4142" d="M520.792,118.866      c1.317,0,2.414-1.098,2.414-2.415c0-1.317-1.097-2.415-2.414-2.415c-1.316,0-2.415,1.097-2.415,2.415      C518.377,117.769,519.476,118.866,520.792,118.866L520.792,118.866z"/>
<path fill="none" stroke="#000000" stroke-width="0.504" stroke-miterlimit="2.4142" d="M531.576,118.866      c1.32,0,2.417-1.098,2.417-2.415c0-1.317-1.097-2.415-2.417-2.415c-1.316,0-2.412,1.097-2.412,2.415      C529.164,117.769,530.26,118.866,531.576,118.866L531.576,118.866z"/>
<path fill="none" stroke="#000000" stroke-width="0.504" stroke-miterlimit="2.4142" d="M520.792,131.589     c1.317,0,2.414-1.098,2.414-2.414c0-1.317-1.097-2.415-2.414-2.415c-1.316,0-2.415,1.098-2.415,2.415     C518.377,130.491,519.476,131.589,520.792,131.589L520.792,131.589z"/>
<path fill="none" stroke="#000000" stroke-width="0.504" stroke-miterlimit="2.4142" d="M518.709,144.312     c1.321,0,2.417-1.098,2.417-2.415s-1.096-2.415-2.417-2.415c-1.316,0-2.412,1.097-2.412,2.415     C516.297,143.214,517.393,144.312,518.709,144.312L518.709,144.312z"/>
<path fill="none" stroke="#000000" stroke-width="0.504" stroke-miterlimit="2.4142" d="M513.621,157.071     c1.315,0,2.413-1.097,2.413-2.488c0-1.317-1.097-2.414-2.413-2.414s-2.416,1.097-2.416,2.414     C511.205,155.975,512.305,157.071,513.621,157.071L513.621,157.071z"/>
<path fill="none" stroke="#000000" stroke-width="0.504" stroke-miterlimit="2.4142" d="M527.217,169.794     c1.316,0,2.413-1.097,2.413-2.488c0-1.317-1.097-2.414-2.413-2.414c-1.315,0-2.416,1.097-2.416,2.414     C524.801,168.697,525.9,169.794,527.217,169.794L527.217,169.794z"/>
</g></switch>
</svg>