<?xml version="1.0" encoding="utf-8"?>
<!DOCTYPE svg PUBLIC "-//W3C//DTD SVG 1.1//EN" "http://www.w3.org/Graphics/SVG/1.1/DTD/svg11.dtd">
<svg version="1.1" id="Armor" xmlns="http://www.w3.org/2000/svg" xmlns:xlink="http://www.w3.org/1999/xlink" x="0px" y="0px"
	 width="612px" height="792px" viewBox="0 0 612 792" enable-background="new 0 0 612 792" xml:space="preserve">
<switch><g>
<path fill-rule="evenodd" clip-rule="evenodd" fill="none" stroke="#000000" stroke-width="0.504" stroke-miterlimit="2.4142" d="     M458.252,190.371c-1.559-0.392-2.521-1.986-2.111-3.62c0.389-1.562,1.982-2.521,3.547-2.132c1.631,0.406,2.591,2.003,2.199,3.565     C461.482,189.816,459.884,190.776,458.252,190.371L458.252,190.371z"/>
<path fill-rule="evenodd" clip-rule="evenodd" fill="none" stroke="#000000" stroke-width="0.504" stroke-miterlimit="2.4142" d="     M469.666,193.006c-1.559-0.392-2.521-1.986-2.111-3.62c0.388-1.562,1.982-2.521,3.547-2.131c1.631,0.405,2.59,2.003,2.198,3.565     C472.896,192.452,471.297,193.412,469.666,193.006L469.666,193.006z"/>
<path fill-rule="evenodd" clip-rule="evenodd" fill="none" stroke="#000000" stroke-width="0.504" stroke-miterlimit="2.4142" d="     M462.745,196.621c-1.56-0.392-2.522-1.987-2.11-3.62c0.387-1.563,1.98-2.522,3.547-2.132c1.63,0.405,2.59,2.003,2.197,3.565     C465.977,196.067,464.377,197.026,462.745,196.621L462.745,196.621z"/>
<path fill-rule="evenodd" clip-rule="evenodd" fill="none" stroke="#000000" stroke-width="0.504" stroke-miterlimit="2.4142" d="     M455.826,200.234c-1.561-0.393-2.521-1.987-2.115-3.621c0.391-1.562,1.986-2.52,3.549-2.129c1.633,0.405,2.591,2.002,2.201,3.563     C459.055,199.68,457.455,200.639,455.826,200.234L455.826,200.234z"/>
<path fill-rule="evenodd" clip-rule="evenodd" fill="none" stroke="#000000" stroke-width="0.504" stroke-miterlimit="2.4142" d="     M467.24,202.87c-1.561-0.393-2.521-1.988-2.115-3.622c0.391-1.561,1.986-2.52,3.549-2.129c1.632,0.405,2.591,2.002,2.201,3.563     C470.469,202.314,468.869,203.273,467.24,202.87L467.24,202.87z"/>
<path fill-rule="evenodd" clip-rule="evenodd" fill="none" stroke="#000000" stroke-width="0.504" stroke-miterlimit="2.4142" d="     M460.319,206.484c-1.562-0.392-2.521-1.987-2.114-3.621c0.389-1.562,1.984-2.52,3.549-2.129c1.632,0.405,2.59,2.002,2.199,3.563     C463.547,205.93,461.948,206.889,460.319,206.484L460.319,206.484z"/>
<path fill-rule="evenodd" clip-rule="evenodd" fill="none" stroke="#000000" stroke-width="0.504" stroke-miterlimit="2.4142" d="     M453.4,210.1c-1.561-0.388-2.523-1.986-2.117-3.62c0.39-1.561,1.988-2.52,3.551-2.131c1.631,0.406,2.59,2.005,2.201,3.563     C456.625,209.548,455.029,210.505,453.4,210.1L453.4,210.1z"/>
<path fill-rule="evenodd" clip-rule="evenodd" fill="none" stroke="#000000" stroke-width="0.504" stroke-miterlimit="2.4142" d="     M464.814,212.734c-1.561-0.388-2.525-1.986-2.117-3.62c0.389-1.561,1.988-2.52,3.551-2.131c1.63,0.406,2.589,2.006,2.201,3.564     C468.039,212.183,466.443,213.141,464.814,212.734L464.814,212.734z"/>
<path fill-rule="evenodd" clip-rule="evenodd" fill="none" stroke="#000000" stroke-width="0.504" stroke-miterlimit="2.4142" d="     M457.895,216.35c-1.561-0.388-2.525-1.986-2.117-3.62c0.389-1.561,1.986-2.52,3.551-2.131c1.629,0.406,2.588,2.005,2.199,3.564     C461.118,215.798,459.521,216.756,457.895,216.35L457.895,216.35z"/>
<path fill-rule="evenodd" clip-rule="evenodd" fill="none" stroke="#000000" stroke-width="0.504" stroke-miterlimit="2.4142" d="     M450.971,219.964c-1.563-0.392-2.52-1.986-2.113-3.621c0.389-1.561,1.988-2.52,3.551-2.13c1.627,0.407,2.588,2.002,2.199,3.563     C454.201,219.411,452.605,220.369,450.971,219.964L450.971,219.964z"/>
<path fill-rule="evenodd" clip-rule="evenodd" fill="none" stroke="#000000" stroke-width="0.504" stroke-miterlimit="2.4142" d="     M462.385,222.599c-1.564-0.392-2.521-1.986-2.114-3.621c0.39-1.561,1.989-2.52,3.551-2.129c1.628,0.406,2.587,2.002,2.198,3.563     C465.615,222.046,464.019,223.004,462.385,222.599L462.385,222.599z"/>
<path fill-rule="evenodd" clip-rule="evenodd" fill="none" stroke="#000000" stroke-width="0.504" stroke-miterlimit="2.4142" d="     M455.465,226.214c-1.564-0.393-2.521-1.986-2.115-3.622c0.391-1.56,1.988-2.52,3.551-2.13c1.627,0.407,2.588,2.003,2.2,3.563     C458.695,225.661,457.098,226.618,455.465,226.214L455.465,226.214z"/>
<path fill-rule="evenodd" clip-rule="evenodd" fill="none" stroke="#000000" stroke-width="0.504" stroke-miterlimit="2.4142" d="     M448.547,229.828c-1.561-0.391-2.521-1.986-2.117-3.619c0.393-1.563,1.987-2.521,3.549-2.132     c1.631,0.407,2.592,2.002,2.202,3.565C451.775,229.274,450.178,230.235,448.547,229.828L448.547,229.828z"/>
<path fill-rule="evenodd" clip-rule="evenodd" fill="none" stroke="#000000" stroke-width="0.504" stroke-miterlimit="2.4142" d="     M459.961,232.463c-1.561-0.39-2.521-1.986-2.117-3.619c0.393-1.563,1.986-2.52,3.549-2.132c1.631,0.407,2.592,2.002,2.201,3.565     C463.189,231.909,461.591,232.87,459.961,232.463L459.961,232.463z"/>
<path fill-rule="evenodd" clip-rule="evenodd" fill="none" stroke="#000000" stroke-width="0.504" stroke-miterlimit="2.4142" d="     M453.041,236.078c-1.563-0.391-2.522-1.986-2.117-3.62c0.393-1.562,1.986-2.52,3.549-2.131c1.63,0.406,2.591,2.001,2.201,3.564     C456.27,235.523,454.67,236.484,453.041,236.078L453.041,236.078z"/>
<path fill-rule="evenodd" clip-rule="evenodd" fill="none" stroke="#000000" stroke-width="0.504" stroke-miterlimit="2.4142" d="     M446.115,239.69c-1.561-0.388-2.52-1.984-2.111-3.617c0.391-1.561,1.988-2.521,3.549-2.131c1.629,0.406,2.592,2.005,2.199,3.565     C449.346,239.141,447.748,240.101,446.115,239.69L446.115,239.69z"/>
<path fill-rule="evenodd" clip-rule="evenodd" fill="none" stroke="#000000" stroke-width="0.504" stroke-miterlimit="2.4142" d="     M457.529,242.325c-1.561-0.388-2.52-1.984-2.111-3.617c0.391-1.561,1.987-2.521,3.549-2.13c1.629,0.405,2.591,2.004,2.199,3.564     C460.76,241.775,459.162,242.736,457.529,242.325L457.529,242.325z"/>
<path fill-rule="evenodd" clip-rule="evenodd" fill="none" stroke="#000000" stroke-width="0.504" stroke-miterlimit="2.4142" d="     M450.609,245.94c-1.563-0.389-2.521-1.986-2.111-3.617c0.391-1.562,1.986-2.521,3.549-2.131c1.627,0.405,2.59,2.004,2.199,3.564     C453.839,245.39,452.242,246.351,450.609,245.94L450.609,245.94z"/>
<path fill-rule="evenodd" clip-rule="evenodd" fill="none" stroke="#000000" stroke-width="0.504" stroke-miterlimit="2.4142" d="     M443.689,249.556c-1.563-0.39-2.521-1.987-2.113-3.618c0.393-1.563,1.988-2.521,3.551-2.131c1.629,0.404,2.59,2.003,2.199,3.563     C446.92,249.004,445.322,249.964,443.689,249.556L443.689,249.556z"/>
<path fill-rule="evenodd" clip-rule="evenodd" fill="none" stroke="#000000" stroke-width="0.504" stroke-miterlimit="2.4142" d="     M455.104,252.19c-1.563-0.39-2.521-1.987-2.113-3.618c0.393-1.563,1.987-2.521,3.55-2.131c1.63,0.404,2.591,2.003,2.199,3.563     C458.334,251.639,456.736,252.599,455.104,252.19L455.104,252.19z"/>
<path fill-rule="evenodd" clip-rule="evenodd" fill="none" stroke="#000000" stroke-width="0.504" stroke-miterlimit="2.4142" d="     M448.184,255.805c-1.564-0.39-2.521-1.987-2.113-3.617c0.391-1.563,1.987-2.522,3.549-2.132c1.631,0.404,2.59,2.004,2.2,3.563     C451.414,255.254,449.814,256.213,448.184,255.805L448.184,255.805z"/>
<path fill-rule="evenodd" clip-rule="evenodd" fill="none" stroke="#000000" stroke-width="0.504" stroke-miterlimit="2.4142" d="     M441.262,259.42c-1.561-0.39-2.52-1.985-2.111-3.617c0.391-1.563,1.988-2.522,3.551-2.131c1.628,0.404,2.588,2.004,2.199,3.563     C444.492,258.867,442.895,259.827,441.262,259.42L441.262,259.42z"/>
<path fill-rule="evenodd" clip-rule="evenodd" fill="none" stroke="#000000" stroke-width="0.504" stroke-miterlimit="2.4142" d="     M452.676,262.055c-1.561-0.39-2.521-1.985-2.111-3.617c0.391-1.563,1.987-2.522,3.549-2.131c1.629,0.404,2.59,2.004,2.2,3.563     C455.906,261.502,454.309,262.462,452.676,262.055L452.676,262.055z"/>
<path fill-rule="evenodd" clip-rule="evenodd" fill="none" stroke="#000000" stroke-width="0.504" stroke-miterlimit="2.4142" d="     M445.756,265.669c-1.563-0.389-2.52-1.985-2.111-3.617c0.391-1.563,1.986-2.521,3.549-2.131c1.629,0.405,2.59,2.004,2.199,3.563     C448.986,265.118,447.387,266.077,445.756,265.669L445.756,265.669z"/>
<path fill-rule="evenodd" clip-rule="evenodd" fill="none" stroke="#000000" stroke-width="0.504" stroke-miterlimit="2.4142" d="     M438.834,269.284c-1.562-0.389-2.52-1.986-2.111-3.619c0.391-1.562,1.986-2.52,3.549-2.131c1.631,0.406,2.592,2.005,2.2,3.564     C442.064,268.731,440.467,269.692,438.834,269.284L438.834,269.284z"/>
<path fill-rule="evenodd" clip-rule="evenodd" fill="none" stroke="#000000" stroke-width="0.504" stroke-miterlimit="2.4142" d="     M450.248,271.919c-1.563-0.389-2.52-1.985-2.111-3.618c0.391-1.563,1.986-2.521,3.548-2.131c1.632,0.405,2.593,2.004,2.201,3.563     C453.479,271.367,451.881,272.327,450.248,271.919L450.248,271.919z"/>
<path fill-rule="evenodd" clip-rule="evenodd" fill="none" stroke="#000000" stroke-width="0.504" stroke-miterlimit="2.4142" d="     M443.326,275.533c-1.561-0.388-2.519-1.985-2.111-3.618c0.391-1.562,1.986-2.52,3.549-2.131c1.632,0.406,2.592,2.004,2.201,3.564     C446.559,274.981,444.959,275.942,443.326,275.533L443.326,275.533z"/>
<path fill-rule="evenodd" clip-rule="evenodd" fill="none" stroke="#000000" stroke-width="0.504" stroke-miterlimit="2.4142" d="     M436.408,279.148c-1.561-0.389-2.521-1.985-2.113-3.617c0.392-1.563,1.987-2.521,3.551-2.131c1.63,0.405,2.592,2.004,2.201,3.563     C439.639,278.597,438.041,279.558,436.408,279.148L436.408,279.148z"/>
<path fill-rule="evenodd" clip-rule="evenodd" fill="none" stroke="#000000" stroke-width="0.504" stroke-miterlimit="2.4142" d="     M447.822,281.783c-1.562-0.389-2.521-1.985-2.113-3.617c0.391-1.563,1.986-2.521,3.551-2.131c1.629,0.405,2.592,2.005,2.2,3.563     C451.053,281.231,449.455,282.192,447.822,281.783L447.822,281.783z"/>
<path fill-rule="evenodd" clip-rule="evenodd" fill="none" stroke="#000000" stroke-width="0.504" stroke-miterlimit="2.4142" d="     M440.902,285.398c-1.563-0.389-2.522-1.985-2.113-3.617c0.391-1.563,1.986-2.521,3.551-2.132c1.628,0.406,2.59,2.005,2.199,3.564     C444.131,284.847,442.533,285.807,440.902,285.398L440.902,285.398z"/>
<path fill-rule="evenodd" clip-rule="evenodd" fill="none" stroke="#000000" stroke-width="0.504" stroke-miterlimit="2.4142" d="     M433.981,289.012c-1.563-0.388-2.522-1.984-2.112-3.617c0.389-1.562,1.986-2.52,3.549-2.131c1.627,0.406,2.592,2.003,2.199,3.563     C437.209,288.461,435.613,289.422,433.981,289.012L433.981,289.012z"/>
<path fill-rule="evenodd" clip-rule="evenodd" fill="none" stroke="#000000" stroke-width="0.504" stroke-miterlimit="2.4142" d="     M445.395,291.646c-1.562-0.388-2.521-1.984-2.111-3.617c0.389-1.561,1.986-2.519,3.549-2.13c1.627,0.405,2.592,2.002,2.199,3.563     C448.623,291.097,447.027,292.057,445.395,291.646L445.395,291.646z"/>
<path fill-rule="evenodd" clip-rule="evenodd" fill="none" stroke="#000000" stroke-width="0.504" stroke-miterlimit="2.4142" d="     M438.475,295.262c-1.563-0.388-2.521-1.984-2.113-3.617c0.391-1.562,1.986-2.521,3.549-2.13c1.629,0.404,2.593,2.001,2.199,3.563     C441.703,294.711,440.105,295.671,438.475,295.262L438.475,295.262z"/>
<path fill-rule="evenodd" clip-rule="evenodd" fill="none" stroke="#000000" stroke-width="0.504" stroke-miterlimit="2.4142" d="     M431.555,298.876c-1.561-0.389-2.52-1.985-2.113-3.617c0.391-1.563,1.986-2.52,3.551-2.13c1.629,0.404,2.59,2.001,2.199,3.563     C434.783,298.325,433.188,299.286,431.555,298.876L431.555,298.876z"/>
<path fill-rule="evenodd" clip-rule="evenodd" fill="none" stroke="#000000" stroke-width="0.504" stroke-miterlimit="2.4142" d="     M442.967,301.511c-1.56-0.388-2.52-1.985-2.111-3.617c0.391-1.562,1.986-2.52,3.55-2.13c1.628,0.404,2.591,2.001,2.2,3.563     C446.197,300.96,444.601,301.921,442.967,301.511L442.967,301.511z"/>
</g></switch>
</svg>