<?xml version="1.0" encoding="utf-8"?>
<!DOCTYPE svg PUBLIC "-//W3C//DTD SVG 1.1//EN" "http://www.w3.org/Graphics/SVG/1.1/DTD/svg11.dtd">
<svg version="1.1" id="Armor" xmlns="http://www.w3.org/2000/svg" xmlns:xlink="http://www.w3.org/1999/xlink" x="0px" y="0px"
	 width="612px" height="792px" viewBox="0 0 612 792" enable-background="new 0 0 612 792" xml:space="preserve">
<switch><g>
<path fill="none" stroke="#000000" stroke-width="0.504" stroke-miterlimit="2.4142" d="M514.885,93.42      c1.317,0,2.414-1.098,2.414-2.415c0-1.317-1.097-2.414-2.414-2.414c-1.315,0-2.415,1.097-2.415,2.414      C512.47,92.322,513.568,93.42,514.885,93.42L514.885,93.42z"/>
<path fill="none" stroke="#000000" stroke-width="0.504" stroke-miterlimit="2.4142" d="M525.932,93.42      c1.321,0,2.417-1.098,2.417-2.415c0-1.317-1.096-2.414-2.417-2.414c-1.315,0-2.412,1.097-2.412,2.414      C523.52,92.322,524.615,93.42,525.932,93.42L525.932,93.42z"/>
<path fill="none" stroke="#000000" stroke-width="0.504" stroke-miterlimit="2.4142" d="M536.981,93.42      c1.32,0,2.417-1.098,2.417-2.415c0-1.317-1.097-2.414-2.417-2.414c-1.316,0-2.412,1.097-2.412,2.414      C534.569,92.322,535.665,93.42,536.981,93.42L536.981,93.42z"/>
<path fill="none" stroke="#000000" stroke-width="0.504" stroke-miterlimit="2.4142" d="M520.406,99.625      c1.322,0,2.418-1.098,2.418-2.415s-1.096-2.414-2.418-2.414c-1.316,0-2.412,1.097-2.412,2.414S519.09,99.625,520.406,99.625      L520.406,99.625z"/>
<path fill="none" stroke="#000000" stroke-width="0.504" stroke-miterlimit="2.4142" d="M531.457,99.625      c1.32,0,2.416-1.098,2.416-2.415s-1.096-2.414-2.416-2.414c-1.316,0-2.412,1.097-2.412,2.414S530.141,99.625,531.457,99.625      L531.457,99.625z"/>
<path fill="none" stroke="#000000" stroke-width="0.504" stroke-miterlimit="2.4142" d="M514.885,105.828      c1.317,0,2.414-1.098,2.414-2.415s-1.097-2.414-2.414-2.414c-1.315,0-2.415,1.097-2.415,2.414S513.568,105.828,514.885,105.828      L514.885,105.828z"/>
<path fill="none" stroke="#000000" stroke-width="0.504" stroke-miterlimit="2.4142" d="M525.932,105.828      c1.321,0,2.417-1.098,2.417-2.415s-1.096-2.414-2.417-2.414c-1.315,0-2.412,1.097-2.412,2.414S524.615,105.828,525.932,105.828      L525.932,105.828z"/>
<path fill="none" stroke="#000000" stroke-width="0.504" stroke-miterlimit="2.4142" d="M536.981,105.828      c1.32,0,2.417-1.098,2.417-2.415s-1.097-2.414-2.417-2.414c-1.316,0-2.412,1.097-2.412,2.414S535.665,105.828,536.981,105.828      L536.981,105.828z"/>
<path fill="none" stroke="#000000" stroke-width="0.504" stroke-miterlimit="2.4142" d="M520.406,112.032      c1.322,0,2.418-1.098,2.418-2.415c0-1.317-1.096-2.414-2.418-2.414c-1.316,0-2.412,1.097-2.412,2.414      C517.994,110.934,519.09,112.032,520.406,112.032L520.406,112.032z"/>
<path fill="none" stroke="#000000" stroke-width="0.504" stroke-miterlimit="2.4142" d="M531.457,112.032      c1.32,0,2.416-1.098,2.416-2.415c0-1.317-1.096-2.414-2.416-2.414c-1.316,0-2.412,1.097-2.412,2.414      C529.045,110.934,530.141,112.032,531.457,112.032L531.457,112.032z"/>
<path fill="none" stroke="#000000" stroke-width="0.504" stroke-miterlimit="2.4142" d="M514.885,118.236      c1.317,0,2.414-1.098,2.414-2.415c0-1.317-1.097-2.414-2.414-2.414c-1.315,0-2.415,1.097-2.415,2.414      C512.47,117.138,513.568,118.236,514.885,118.236L514.885,118.236z"/>
<path fill="none" stroke="#000000" stroke-width="0.504" stroke-miterlimit="2.4142" d="M525.932,118.236      c1.321,0,2.417-1.098,2.417-2.415c0-1.317-1.096-2.414-2.417-2.414c-1.315,0-2.412,1.097-2.412,2.414      C523.52,117.138,524.615,118.236,525.932,118.236L525.932,118.236z"/>
<path fill="none" stroke="#000000" stroke-width="0.504" stroke-miterlimit="2.4142" d="M536.981,118.236      c1.32,0,2.417-1.098,2.417-2.415c0-1.317-1.097-2.414-2.417-2.414c-1.316,0-2.412,1.097-2.412,2.414      C534.569,117.138,535.665,118.236,536.981,118.236L536.981,118.236z"/>
<path fill="none" stroke="#000000" stroke-width="0.504" stroke-miterlimit="2.4142" d="M520.406,124.44      c1.322,0,2.418-1.098,2.418-2.415s-1.096-2.414-2.418-2.414c-1.316,0-2.412,1.097-2.412,2.414S519.09,124.44,520.406,124.44      L520.406,124.44z"/>
<path fill="none" stroke="#000000" stroke-width="0.504" stroke-miterlimit="2.4142" d="M531.457,124.44      c1.32,0,2.416-1.098,2.416-2.415s-1.096-2.414-2.416-2.414c-1.316,0-2.412,1.097-2.412,2.414S530.141,124.44,531.457,124.44      L531.457,124.44z"/>
<path fill="none" stroke="#000000" stroke-width="0.504" stroke-miterlimit="2.4142" d="M518.25,131.914     c-1.321,0-2.417-1.098-2.417-2.415s1.096-2.414,2.417-2.414c1.316,0,2.412,1.097,2.412,2.414S519.566,131.914,518.25,131.914     L518.25,131.914z"/>
<path fill="none" stroke="#000000" stroke-width="0.504" stroke-miterlimit="2.4142" d="M517.055,139.387     c-1.32,0-2.417-1.098-2.417-2.415s1.097-2.414,2.417-2.414c1.316,0,2.412,1.097,2.412,2.414S518.371,139.387,517.055,139.387     L517.055,139.387z"/>
<path fill="none" stroke="#000000" stroke-width="0.504" stroke-miterlimit="2.4142" d="M515.859,142.031     c-1.32,0-2.416,1.098-2.416,2.415c0,1.317,1.096,2.415,2.416,2.415c1.315,0,2.412-1.097,2.412-2.415     C518.271,143.128,517.176,142.031,515.859,142.031L515.859,142.031z"/>
<path fill="none" stroke="#000000" stroke-width="0.504" stroke-miterlimit="2.4142" d="M514.664,154.37     c1.316,0,2.413-1.097,2.413-2.488c0-1.317-1.097-2.414-2.413-2.414s-2.416,1.097-2.416,2.414     C512.248,153.273,513.348,154.37,514.664,154.37L514.664,154.37z"/>
<path fill="none" stroke="#000000" stroke-width="0.504" stroke-miterlimit="2.4142" d="M513.469,161.843     c1.316,0,2.413-1.097,2.413-2.488c0-1.317-1.097-2.414-2.413-2.414c-1.315,0-2.416,1.097-2.416,2.414     C511.053,160.746,512.152,161.843,513.469,161.843L513.469,161.843z"/>
<path fill="none" stroke="#000000" stroke-width="0.504" stroke-miterlimit="2.4142" d="M513.469,169.794      c1.316,0,2.413-1.097,2.413-2.488c0-1.317-1.097-2.414-2.413-2.414c-1.315,0-2.416,1.097-2.416,2.414      C511.053,168.698,512.152,169.794,513.469,169.794L513.469,169.794z"/>
<path fill="none" stroke="#000000" stroke-width="0.504" stroke-miterlimit="2.4142" d="M527.064,169.794      c1.315,0,2.412-1.097,2.412-2.488c0-1.317-1.097-2.414-2.412-2.414c-1.316,0-2.416,1.097-2.416,2.414      C524.648,168.697,525.748,169.794,527.064,169.794L527.064,169.794z"/>
</g></switch>
</svg>