<?xml version="1.0" encoding="utf-8"?>
<!DOCTYPE svg PUBLIC "-//W3C//DTD SVG 1.1//EN" "http://www.w3.org/Graphics/SVG/1.1/DTD/svg11.dtd">
<svg version="1.1" id="Armor" xmlns="http://www.w3.org/2000/svg" xmlns:xlink="http://www.w3.org/1999/xlink" x="0px" y="0px"
	 width="612px" height="792px" viewBox="0 0 612 792" enable-background="new 0 0 612 792" xml:space="preserve">
<switch><g>
<path fill-rule="evenodd" clip-rule="evenodd" fill="none" stroke="#000000" stroke-width="0.504" stroke-miterlimit="2.4142" d="     M456.658,189.435c-1.563-0.391-2.521-1.987-2.121-3.621c0.393-1.563,1.986-2.519,3.549-2.133c1.63,0.409,2.594,2.002,2.2,3.567     C459.885,188.882,458.285,189.84,456.658,189.435L456.658,189.435z"/>
<path fill-rule="evenodd" clip-rule="evenodd" fill="none" stroke="#000000" stroke-width="0.504" stroke-miterlimit="2.4142" d="     M468.068,192.067c-1.563-0.388-2.518-1.983-2.118-3.62c0.394-1.561,1.988-2.518,3.55-2.131c1.631,0.41,2.592,2.002,2.201,3.566     C471.297,191.515,469.698,192.476,468.068,192.067L468.068,192.067z"/>
<path fill-rule="evenodd" clip-rule="evenodd" fill="none" stroke="#000000" stroke-width="0.504" stroke-miterlimit="2.4142" d="     M460.265,199.822c-1.563-0.389-2.521-1.985-2.111-3.616c0.392-1.565,1.981-2.521,3.547-2.133     c1.627,0.406,2.587,2.002,2.201,3.564C463.496,199.269,461.898,200.229,460.265,199.822L460.265,199.822z"/>
<path fill-rule="evenodd" clip-rule="evenodd" fill="none" stroke="#000000" stroke-width="0.504" stroke-miterlimit="2.4142" d="     M452.462,207.573c-1.56-0.384-2.519-1.982-2.113-3.616c0.394-1.558,1.985-2.521,3.548-2.127c1.633,0.401,2.593,2.003,2.203,3.564     C455.692,207.028,454.094,207.988,452.462,207.573L452.462,207.573z"/>
<path fill-rule="evenodd" clip-rule="evenodd" fill="none" stroke="#000000" stroke-width="0.504" stroke-miterlimit="2.4142" d="     M463.874,210.21c-1.56-0.387-2.517-1.981-2.11-3.615c0.389-1.56,1.982-2.523,3.549-2.131c1.629,0.404,2.594,2.004,2.199,3.566     C467.105,209.664,465.51,210.622,463.874,210.21L463.874,210.21z"/>
<path fill-rule="evenodd" clip-rule="evenodd" fill="none" stroke="#000000" stroke-width="0.504" stroke-miterlimit="2.4142" d="     M456.073,217.963c-1.563-0.384-2.521-1.98-2.107-3.609c0.388-1.564,1.982-2.524,3.546-2.133c1.627,0.402,2.588,2.003,2.195,3.565     C459.304,217.419,457.708,218.377,456.073,217.963L456.073,217.963z"/>
<path fill-rule="evenodd" clip-rule="evenodd" fill="none" stroke="#000000" stroke-width="0.504" stroke-miterlimit="2.4142" d="     M448.272,225.722c-1.563-0.389-2.522-1.986-2.115-3.617c0.395-1.564,1.989-2.523,3.55-2.133c1.633,0.406,2.592,2.004,2.199,3.563     C451.506,225.173,449.906,226.131,448.272,225.722L448.272,225.722z"/>
<path fill-rule="evenodd" clip-rule="evenodd" fill="none" stroke="#000000" stroke-width="0.504" stroke-miterlimit="2.4142" d="     M459.688,228.358c-1.565-0.391-2.523-1.987-2.115-3.617c0.392-1.565,1.985-2.524,3.548-2.135     c1.633,0.407,2.592,2.003,2.201,3.563C462.92,227.809,461.32,228.765,459.688,228.358L459.688,228.358z"/>
<path fill-rule="evenodd" clip-rule="evenodd" fill="none" stroke="#000000" stroke-width="0.504" stroke-miterlimit="2.4142" d="     M451.88,236.111c-1.561-0.391-2.515-1.985-2.104-3.614c0.387-1.564,1.983-2.526,3.546-2.135c1.631,0.406,2.589,2.003,2.202,3.562     C455.118,235.564,453.517,236.52,451.88,236.111L451.88,236.111z"/>
<path fill-rule="evenodd" clip-rule="evenodd" fill="none" stroke="#000000" stroke-width="0.504" stroke-miterlimit="2.4142" d="     M444.082,243.866c-1.564-0.39-2.523-1.984-2.112-3.615c0.391-1.565,1.985-2.521,3.546-2.135c1.631,0.407,2.594,2.006,2.2,3.567     C447.311,243.314,445.709,244.278,444.082,243.866L444.082,243.866z"/>
<path fill-rule="evenodd" clip-rule="evenodd" fill="none" stroke="#000000" stroke-width="0.504" stroke-miterlimit="2.4142" d="     M455.499,246.501c-1.563-0.385-2.522-1.983-2.113-3.611c0.392-1.567,1.985-2.525,3.546-2.137c1.631,0.408,2.595,2.008,2.2,3.566     C458.729,245.949,457.127,246.915,455.499,246.501L455.499,246.501z"/>
<path fill-rule="evenodd" clip-rule="evenodd" fill="none" stroke="#000000" stroke-width="0.504" stroke-miterlimit="2.4142" d="     M447.696,254.257c-1.566-0.39-2.519-1.985-2.113-3.617c0.392-1.566,1.987-2.523,3.551-2.132c1.63,0.407,2.588,2.005,2.198,3.566     C450.924,253.704,449.331,254.666,447.696,254.257L447.696,254.257z"/>
<path fill-rule="evenodd" clip-rule="evenodd" fill="none" stroke="#000000" stroke-width="0.504" stroke-miterlimit="2.4142" d="     M439.896,262.012c-1.563-0.389-2.523-1.986-2.115-3.618c0.392-1.566,1.987-2.519,3.552-2.131c1.628,0.404,2.593,2.005,2.2,3.561     C443.131,261.457,441.529,262.418,439.896,262.012L439.896,262.012z"/>
<path fill-rule="evenodd" clip-rule="evenodd" fill="none" stroke="#000000" stroke-width="0.504" stroke-miterlimit="2.4142" d="     M451.309,264.646c-1.563-0.39-2.524-1.986-2.115-3.617c0.392-1.564,1.988-2.519,3.549-2.132c1.633,0.404,2.592,2.005,2.203,3.563     C454.541,264.094,452.941,265.055,451.309,264.646L451.309,264.646z"/>
<path fill-rule="evenodd" clip-rule="evenodd" fill="none" stroke="#000000" stroke-width="0.504" stroke-miterlimit="2.4142" d="     M443.505,272.4c-1.559-0.39-2.514-1.985-2.112-3.616c0.392-1.565,1.989-2.524,3.547-2.131c1.638,0.403,2.597,2.003,2.204,3.561     C446.735,271.851,445.141,272.811,443.505,272.4L443.505,272.4z"/>
<path fill-rule="evenodd" clip-rule="evenodd" fill="none" stroke="#000000" stroke-width="0.504" stroke-miterlimit="2.4142" d="     M435.707,280.156c-1.563-0.389-2.52-1.983-2.116-3.62c0.394-1.559,1.989-2.518,3.554-2.127c1.632,0.405,2.593,2.002,2.201,3.564     C438.936,279.604,437.34,280.565,435.707,280.156L435.707,280.156z"/>
<path fill-rule="evenodd" clip-rule="evenodd" fill="none" stroke="#000000" stroke-width="0.504" stroke-miterlimit="2.4142" d="     M447.119,282.791c-1.563-0.387-2.523-1.983-2.115-3.619c0.391-1.558,1.988-2.517,3.553-2.128c1.63,0.406,2.592,2.004,2.198,3.565     C450.348,282.241,448.754,283.201,447.119,282.791L447.119,282.791z"/>
<path fill-rule="evenodd" clip-rule="evenodd" fill="none" stroke="#000000" stroke-width="0.504" stroke-miterlimit="2.4142" d="     M439.318,290.549c-1.562-0.391-2.524-1.986-2.109-3.621c0.384-1.562,1.979-2.519,3.547-2.132c1.627,0.406,2.59,2.004,2.203,3.564     C442.546,289.993,440.948,290.954,439.318,290.549L439.318,290.549z"/>
<path fill-rule="evenodd" clip-rule="evenodd" fill="none" stroke="#000000" stroke-width="0.504" stroke-miterlimit="2.4142" d="     M431.516,298.301c-1.563-0.386-2.522-1.985-2.113-3.62c0.393-1.559,1.986-2.516,3.553-2.128c1.625,0.404,2.59,1.998,2.197,3.563     C434.746,297.751,433.148,298.71,431.516,298.301L431.516,298.301z"/>
<path fill-rule="evenodd" clip-rule="evenodd" fill="none" stroke="#000000" stroke-width="0.504" stroke-miterlimit="2.4142" d="     M442.932,300.937c-1.564-0.386-2.523-1.985-2.116-3.619c0.39-1.559,1.988-2.519,3.55-2.13c1.629,0.408,2.592,2.001,2.201,3.565     C446.159,300.386,444.561,301.347,442.932,300.937L442.932,300.937z"/>
</g></switch>
</svg>