<?xml version="1.0" encoding="utf-8"?>
<!DOCTYPE svg PUBLIC "-//W3C//DTD SVG 1.1//EN" "http://www.w3.org/Graphics/SVG/1.1/DTD/svg11.dtd">
<svg version="1.1" id="Armor" xmlns="http://www.w3.org/2000/svg" xmlns:xlink="http://www.w3.org/1999/xlink" x="0px" y="0px"
	 width="612px" height="792px" viewBox="0 0 612 792" enable-background="new 0 0 612 792" xml:space="preserve">
<switch><g>
<path fill="none" stroke="#000000" stroke-width="0.504" stroke-miterlimit="2.4142" d="M563.395,80.266     c1.669-0.145,2.932-1.65,2.78-3.312c-0.147-1.731-1.643-2.927-3.309-2.775c-1.728,0.147-3.004,1.581-2.855,3.313     C560.161,79.154,561.673,80.417,563.395,80.266L563.395,80.266z"/>
<path fill="none" stroke="#000000" stroke-width="0.504" stroke-miterlimit="2.4142" d="M552.098,81.258     c1.672-0.143,2.933-1.652,2.785-3.311c-0.146-1.733-1.646-2.926-3.315-2.78c-1.726,0.151-2.995,1.585-2.851,3.317     C548.865,80.145,550.378,81.41,552.098,81.258L552.098,81.258z"/>
<path fill="none" stroke="#000000" stroke-width="0.504" stroke-miterlimit="2.4142" d="M559.107,96.297     c1.672-0.146,2.928-1.649,2.779-3.312c-0.15-1.732-1.642-2.924-3.314-2.781c-1.719,0.152-2.998,1.591-2.847,3.323     C555.873,95.187,557.381,96.448,559.107,96.297L559.107,96.297z"/>
<path fill="none" stroke="#000000" stroke-width="0.504" stroke-miterlimit="2.4142" d="M566.116,111.333     c1.667-0.147,2.925-1.652,2.775-3.316c-0.146-1.73-1.646-2.924-3.312-2.777c-1.721,0.15-3.002,1.584-2.85,3.318     C562.875,110.217,564.391,111.484,566.116,111.333L566.116,111.333z"/>
<path fill="none" stroke="#000000" stroke-width="0.504" stroke-miterlimit="2.4142" d="M554.819,112.325     c1.668-0.146,2.927-1.651,2.778-3.313c-0.148-1.734-1.646-2.927-3.314-2.784c-1.721,0.151-2.993,1.587-2.844,3.324     C551.584,111.215,553.093,112.476,554.819,112.325L554.819,112.325z"/>
<path fill="none" stroke="#000000" stroke-width="0.504" stroke-miterlimit="2.4142" d="M561.827,127.362     c1.668-0.143,2.924-1.649,2.778-3.311c-0.152-1.731-1.642-2.925-3.313-2.784c-1.724,0.155-3.002,1.59-2.849,3.324     C558.589,126.249,560.104,127.514,561.827,127.362L561.827,127.362z"/>
<path fill="none" stroke="#000000" stroke-width="0.504" stroke-miterlimit="2.4142" d="M568.832,142.397     c1.668-0.146,2.928-1.653,2.778-3.315c-0.147-1.728-1.645-2.925-3.313-2.778c-1.723,0.151-3.006,1.586-2.848,3.324     C565.598,141.284,567.106,142.547,568.832,142.397L568.832,142.397z"/>
<path fill="none" stroke="#000000" stroke-width="0.504" stroke-miterlimit="2.4142" d="M557.537,143.388     c1.667-0.144,2.926-1.648,2.779-3.311c-0.154-1.735-1.646-2.928-3.313-2.783c-1.726,0.151-3.002,1.586-2.847,3.322     C554.299,142.277,555.809,143.538,557.537,143.388L557.537,143.388z"/>
<path fill="none" stroke="#000000" stroke-width="0.504" stroke-miterlimit="2.4142" d="M564.545,158.424     c1.664-0.143,2.922-1.651,2.776-3.311c-0.152-1.731-1.646-2.924-3.313-2.78c-1.724,0.15-3.002,1.588-2.847,3.319     C561.302,157.314,562.815,158.576,564.545,158.424L564.545,158.424z"/>
<path fill="none" stroke="#000000" stroke-width="0.504" stroke-miterlimit="2.4142" d="M571.55,173.459     c1.667-0.143,2.924-1.65,2.779-3.31c-0.152-1.735-1.648-2.927-3.313-2.78c-1.724,0.149-3.003,1.585-2.851,3.319     C568.308,172.349,569.824,173.612,571.55,173.459L571.55,173.459z"/>
<path fill="none" stroke="#000000" stroke-width="0.504" stroke-miterlimit="2.4142" d="M560.255,174.448     c1.669-0.137,2.926-1.648,2.775-3.309c-0.148-1.732-1.643-2.925-3.311-2.776c-1.724,0.147-2.996,1.585-2.846,3.318     C557.019,173.336,558.525,174.602,560.255,174.448L560.255,174.448z"/>
</g></switch>
</svg>