<?xml version="1.0" encoding="utf-8"?>
<!DOCTYPE svg PUBLIC "-//W3C//DTD SVG 1.1//EN" "http://www.w3.org/Graphics/SVG/1.1/DTD/svg11.dtd">
<svg version="1.1" id="Armor" xmlns="http://www.w3.org/2000/svg" xmlns:xlink="http://www.w3.org/1999/xlink" x="0px" y="0px"
	 width="612px" height="792px" viewBox="0 0 612 792" enable-background="new 0 0 612 792" xml:space="preserve">
<switch><g>
<path fill-rule="evenodd" clip-rule="evenodd" fill="none" stroke="#000000" stroke-width="0.504" stroke-miterlimit="2.4142" d="     M524.899,188.898c1.562-0.389,2.521-1.985,2.113-3.615c-0.396-1.566-1.988-2.525-3.55-2.134c-1.635,0.405-2.59,2.002-2.199,3.562     C521.663,188.351,523.263,189.307,524.899,188.898L524.899,188.898z"/>
<path fill-rule="evenodd" clip-rule="evenodd" fill="none" stroke="#000000" stroke-width="0.504" stroke-miterlimit="2.4142" d="     M513.482,191.535c1.564-0.389,2.523-1.986,2.113-3.617c-0.389-1.565-1.984-2.523-3.545-2.134     c-1.635,0.406-2.594,2.002-2.205,3.563C510.248,190.986,511.848,191.942,513.482,191.535L513.482,191.535z"/>
<path fill-rule="evenodd" clip-rule="evenodd" fill="none" stroke="#000000" stroke-width="0.504" stroke-miterlimit="2.4142" d="     M522.34,203.823c1.559-0.388,2.515-1.983,2.104-3.612c-0.388-1.563-1.985-2.526-3.548-2.135c-1.628,0.407-2.588,2.004-2.201,3.56     C519.1,203.278,520.7,204.232,522.34,203.823L522.34,203.823z"/>
<path fill-rule="evenodd" clip-rule="evenodd" fill="none" stroke="#000000" stroke-width="0.504" stroke-miterlimit="2.4142" d="     M531.185,216.116c1.563-0.391,2.521-1.984,2.111-3.617c-0.392-1.564-1.985-2.521-3.545-2.135     c-1.636,0.408-2.595,2.006-2.202,3.569C527.955,215.563,529.557,216.526,531.185,216.116L531.185,216.116z"/>
<path fill-rule="evenodd" clip-rule="evenodd" fill="none" stroke="#000000" stroke-width="0.504" stroke-miterlimit="2.4142" d="     M519.766,218.751c1.566-0.385,2.521-1.982,2.116-3.61c-0.395-1.566-1.985-2.527-3.546-2.138c-1.633,0.409-2.598,2.01-2.203,3.567     C516.536,218.201,518.138,219.166,519.766,218.751L519.766,218.751z"/>
<path fill-rule="evenodd" clip-rule="evenodd" fill="none" stroke="#000000" stroke-width="0.504" stroke-miterlimit="2.4142" d="     M528.617,231.041c1.564-0.389,2.52-1.984,2.109-3.616c-0.388-1.566-1.984-2.522-3.548-2.131c-1.63,0.406-2.587,2.004-2.198,3.565     C525.389,230.49,526.98,231.452,528.617,231.041L528.617,231.041z"/>
<path fill-rule="evenodd" clip-rule="evenodd" fill="none" stroke="#000000" stroke-width="0.504" stroke-miterlimit="2.4142" d="     M537.465,243.334c1.561-0.389,2.522-1.983,2.115-3.617c-0.392-1.565-1.989-2.52-3.556-2.132     c-1.627,0.405-2.591,2.005-2.196,3.562C534.229,242.779,535.829,243.74,537.465,243.334L537.465,243.334z"/>
<path fill-rule="evenodd" clip-rule="evenodd" fill="none" stroke="#000000" stroke-width="0.504" stroke-miterlimit="2.4142" d="     M526.051,245.969c1.563-0.389,2.522-1.986,2.115-3.617c-0.391-1.563-1.986-2.52-3.55-2.131c-1.631,0.402-2.591,2.003-2.2,3.563     C522.815,245.417,524.419,246.378,526.051,245.969L526.051,245.969z"/>
<path fill-rule="evenodd" clip-rule="evenodd" fill="none" stroke="#000000" stroke-width="0.504" stroke-miterlimit="2.4142" d="     M534.902,258.259c1.559-0.392,2.51-1.986,2.111-3.617c-0.391-1.564-1.99-2.524-3.547-2.131c-1.639,0.403-2.596,2.004-2.203,3.562     C531.672,257.707,533.266,258.668,534.902,258.259L534.902,258.259z"/>
<path fill-rule="evenodd" clip-rule="evenodd" fill="none" stroke="#000000" stroke-width="0.504" stroke-miterlimit="2.4142" d="     M543.748,270.55c1.563-0.387,2.519-1.985,2.117-3.62c-0.396-1.557-1.991-2.517-3.557-2.126c-1.631,0.407-2.593,2.002-2.2,3.564     C540.518,270,542.115,270.961,543.748,270.55L543.748,270.55z"/>
<path fill-rule="evenodd" clip-rule="evenodd" fill="none" stroke="#000000" stroke-width="0.504" stroke-miterlimit="2.4142" d="     M532.335,273.187c1.563-0.389,2.522-1.985,2.114-3.617c-0.389-1.559-1.988-2.52-3.553-2.131     c-1.628,0.407-2.592,2.005-2.195,3.565C529.104,272.635,530.701,273.597,532.335,273.187L532.335,273.187z"/>
<path fill-rule="evenodd" clip-rule="evenodd" fill="none" stroke="#000000" stroke-width="0.504" stroke-miterlimit="2.4142" d="     M541.182,285.478c1.563-0.391,2.525-1.985,2.11-3.62c-0.384-1.563-1.978-2.521-3.544-2.131c-1.629,0.404-2.592,2.003-2.206,3.563     C537.955,284.922,539.554,285.885,541.182,285.478L541.182,285.478z"/>
<path fill-rule="evenodd" clip-rule="evenodd" fill="none" stroke="#000000" stroke-width="0.504" stroke-miterlimit="2.4142" d="     M550.035,297.768c1.561-0.386,2.52-1.986,2.112-3.622c-0.396-1.556-1.987-2.513-3.556-2.126c-1.622,0.404-2.59,1.998-2.191,3.563     C546.804,297.22,548.4,298.178,550.035,297.768L550.035,297.768z"/>
<path fill-rule="evenodd" clip-rule="evenodd" fill="none" stroke="#000000" stroke-width="0.504" stroke-miterlimit="2.4142" d="     M538.617,300.403c1.564-0.382,2.524-1.982,2.116-3.617c-0.392-1.56-1.989-2.517-3.55-2.13c-1.629,0.409-2.593,2.001-2.201,3.565     C535.391,299.853,536.99,300.814,538.617,300.403L538.617,300.403z"/>
</g></switch>
</svg>