<?xml version="1.0" encoding="utf-8"?>
<!DOCTYPE svg PUBLIC "-//W3C//DTD SVG 1.1//EN" "http://www.w3.org/Graphics/SVG/1.1/DTD/svg11.dtd">
<svg version="1.1" id="Armor" xmlns="http://www.w3.org/2000/svg" xmlns:xlink="http://www.w3.org/1999/xlink" x="0px" y="0px"
	 width="612px" height="792px" viewBox="0 0 612 792" enable-background="new 0 0 612 792" xml:space="preserve">
<switch><g>
<path fill-rule="evenodd" clip-rule="evenodd" fill="none" stroke="#000000" stroke-width="0.504" stroke-miterlimit="2.4142" d="     M456.818,189.627c-1.563-0.389-2.516-1.983-2.111-3.617c0.389-1.563,1.989-2.519,3.553-2.131     c1.625,0.408,2.586,2.005,2.195,3.563C460.053,189.077,458.453,190.038,456.818,189.627L456.818,189.627z"/>
<path fill-rule="evenodd" clip-rule="evenodd" fill="none" stroke="#000000" stroke-width="0.504" stroke-miterlimit="2.4142" d="     M468.234,192.263c-1.564-0.39-2.518-1.983-2.113-3.618c0.39-1.563,1.99-2.518,3.553-2.131c1.625,0.409,2.586,2.005,2.197,3.563     C471.469,191.712,469.867,192.671,468.234,192.263L468.234,192.263z"/>
<path fill-rule="evenodd" clip-rule="evenodd" fill="none" stroke="#000000" stroke-width="0.504" stroke-miterlimit="2.4142" d="     M460.732,198.724c-1.563-0.393-2.521-1.984-2.11-3.621c0.391-1.558,1.984-2.518,3.549-2.132c1.624,0.41,2.587,2.005,2.201,3.565     C463.968,198.173,462.369,199.127,460.732,198.724L460.732,198.724z"/>
<path fill-rule="evenodd" clip-rule="evenodd" fill="none" stroke="#000000" stroke-width="0.504" stroke-miterlimit="2.4142" d="     M453.236,205.183c-1.563-0.391-2.521-1.985-2.119-3.62c0.392-1.563,1.986-2.519,3.549-2.132c1.629,0.409,2.592,2.001,2.199,3.566     C456.462,204.63,454.863,205.589,453.236,205.183L453.236,205.183z"/>
<path fill-rule="evenodd" clip-rule="evenodd" fill="none" stroke="#000000" stroke-width="0.504" stroke-miterlimit="2.4142" d="     M464.648,207.816c-1.563-0.389-2.52-1.983-2.118-3.62c0.392-1.561,1.986-2.518,3.548-2.131c1.632,0.409,2.592,2.001,2.203,3.565     C467.875,207.264,466.278,208.225,464.648,207.816L464.648,207.816z"/>
<path fill-rule="evenodd" clip-rule="evenodd" fill="none" stroke="#000000" stroke-width="0.504" stroke-miterlimit="2.4142" d="     M457.143,214.275c-1.562-0.39-2.519-1.986-2.111-3.617c0.393-1.563,1.982-2.521,3.547-2.133c1.629,0.406,2.589,2.002,2.201,3.564     C460.375,213.722,458.776,214.683,457.143,214.275L457.143,214.275z"/>
<path fill-rule="evenodd" clip-rule="evenodd" fill="none" stroke="#000000" stroke-width="0.504" stroke-miterlimit="2.4142" d="     M449.639,220.73c-1.561-0.385-2.518-1.982-2.112-3.616c0.392-1.559,1.985-2.521,3.548-2.128c1.631,0.402,2.592,2.003,2.203,3.564     C452.869,220.185,451.271,221.145,449.639,220.73L449.639,220.73z"/>
<path fill-rule="evenodd" clip-rule="evenodd" fill="none" stroke="#000000" stroke-width="0.504" stroke-miterlimit="2.4142" d="     M461.052,223.366c-1.56-0.386-2.517-1.981-2.11-3.615c0.39-1.56,1.982-2.522,3.547-2.13c1.632,0.403,2.594,2.004,2.202,3.564     C464.283,222.819,462.688,223.779,461.052,223.366L461.052,223.366z"/>
<path fill-rule="evenodd" clip-rule="evenodd" fill="none" stroke="#000000" stroke-width="0.504" stroke-miterlimit="2.4142" d="     M453.551,229.824c-1.564-0.385-2.52-1.981-2.109-3.611c0.389-1.563,1.982-2.524,3.547-2.132c1.628,0.402,2.589,2.003,2.196,3.565     C456.781,229.279,455.184,230.238,453.551,229.824L453.551,229.824z"/>
<path fill-rule="evenodd" clip-rule="evenodd" fill="none" stroke="#000000" stroke-width="0.504" stroke-miterlimit="2.4142" d="     M446.049,236.286c-1.563-0.389-2.523-1.986-2.113-3.617c0.393-1.565,1.986-2.523,3.547-2.133     c1.635,0.406,2.592,2.004,2.199,3.563C449.281,235.736,447.683,236.695,446.049,236.286L446.049,236.286z"/>
<path fill-rule="evenodd" clip-rule="evenodd" fill="none" stroke="#000000" stroke-width="0.504" stroke-miterlimit="2.4142" d="     M457.464,238.922c-1.565-0.391-2.522-1.986-2.114-3.616c0.391-1.566,1.984-2.525,3.548-2.134c1.632,0.405,2.591,2.003,2.2,3.563     C460.695,238.372,459.096,239.33,457.464,238.922L457.464,238.922z"/>
<path fill-rule="evenodd" clip-rule="evenodd" fill="none" stroke="#000000" stroke-width="0.504" stroke-miterlimit="2.4142" d="     M449.956,245.38c-1.562-0.391-2.514-1.984-2.106-3.614c0.389-1.563,1.984-2.525,3.547-2.135c1.631,0.407,2.59,2.003,2.201,3.563     C453.193,244.832,451.592,245.788,449.956,245.38L449.956,245.38z"/>
<path fill-rule="evenodd" clip-rule="evenodd" fill="none" stroke="#000000" stroke-width="0.504" stroke-miterlimit="2.4142" d="     M442.455,251.838c-1.563-0.388-2.521-1.982-2.11-3.614c0.39-1.565,1.984-2.521,3.545-2.134c1.63,0.407,2.593,2.006,2.2,3.567     C445.684,251.287,444.084,252.25,442.455,251.838L442.455,251.838z"/>
<path fill-rule="evenodd" clip-rule="evenodd" fill="none" stroke="#000000" stroke-width="0.504" stroke-miterlimit="2.4142" d="     M453.873,254.474c-1.563-0.386-2.521-1.984-2.112-3.613c0.392-1.565,1.985-2.523,3.546-2.135     c1.631,0.407,2.594,2.006,2.201,3.566C457.102,253.922,455.502,254.885,453.873,254.474L453.873,254.474z"/>
<path fill-rule="evenodd" clip-rule="evenodd" fill="none" stroke="#000000" stroke-width="0.504" stroke-miterlimit="2.4142" d="     M446.369,260.934c-1.566-0.389-2.517-1.983-2.112-3.617c0.392-1.565,1.986-2.522,3.55-2.132c1.632,0.407,2.588,2.005,2.199,3.565     C449.597,260.382,448.003,261.343,446.369,260.934L446.369,260.934z"/>
<path fill-rule="evenodd" clip-rule="evenodd" fill="none" stroke="#000000" stroke-width="0.504" stroke-miterlimit="2.4142" d="     M438.869,267.393c-1.563-0.389-2.523-1.986-2.115-3.617c0.393-1.566,1.988-2.52,3.552-2.132c1.628,0.404,2.592,2.005,2.2,3.562     C442.103,266.839,440.502,267.799,438.869,267.393L438.869,267.393z"/>
<path fill-rule="evenodd" clip-rule="evenodd" fill="none" stroke="#000000" stroke-width="0.504" stroke-miterlimit="2.4142" d="     M450.28,270.027c-1.562-0.39-2.522-1.986-2.114-3.617c0.393-1.564,1.988-2.519,3.55-2.132c1.631,0.404,2.592,2.005,2.203,3.563     C453.514,269.475,451.915,270.436,450.28,270.027L450.28,270.027z"/>
<path fill-rule="evenodd" clip-rule="evenodd" fill="none" stroke="#000000" stroke-width="0.504" stroke-miterlimit="2.4142" d="     M442.777,276.485c-1.56-0.388-2.514-1.985-2.112-3.616c0.392-1.564,1.989-2.522,3.548-2.131c1.637,0.405,2.595,2.005,2.202,3.563     C446.008,275.936,444.412,276.896,442.777,276.485L442.777,276.485z"/>
<path fill-rule="evenodd" clip-rule="evenodd" fill="none" stroke="#000000" stroke-width="0.504" stroke-miterlimit="2.4142" d="     M435.279,282.945c-1.563-0.389-2.522-1.984-2.116-3.621c0.392-1.558,1.988-2.517,3.552-2.127     c1.632,0.406,2.594,2.003,2.201,3.565C438.508,282.394,436.911,283.354,435.279,282.945L435.279,282.945z"/>
<path fill-rule="evenodd" clip-rule="evenodd" fill="none" stroke="#000000" stroke-width="0.504" stroke-miterlimit="2.4142" d="     M446.689,285.579c-1.563-0.387-2.522-1.983-2.114-3.619c0.392-1.558,1.989-2.517,3.552-2.128c1.631,0.406,2.594,2.004,2.2,3.565     C449.92,285.029,448.325,285.989,446.689,285.579L446.689,285.579z"/>
<path fill-rule="evenodd" clip-rule="evenodd" fill="none" stroke="#000000" stroke-width="0.504" stroke-miterlimit="2.4142" d="     M439.19,292.042c-1.563-0.39-2.526-1.986-2.113-3.621c0.386-1.562,1.981-2.518,3.55-2.132c1.627,0.407,2.591,2.006,2.201,3.565     C442.416,291.487,440.818,292.447,439.19,292.042L439.19,292.042z"/>
<path fill-rule="evenodd" clip-rule="evenodd" fill="none" stroke="#000000" stroke-width="0.504" stroke-miterlimit="2.4142" d="     M431.686,298.498c-1.563-0.387-2.521-1.986-2.112-3.62c0.391-1.559,1.985-2.517,3.552-2.128c1.625,0.405,2.59,1.998,2.197,3.563     C434.916,297.947,433.318,298.907,431.686,298.498L431.686,298.498z"/>
<path fill-rule="evenodd" clip-rule="evenodd" fill="none" stroke="#000000" stroke-width="0.504" stroke-miterlimit="2.4142" d="     M443.101,301.133c-1.563-0.386-2.523-1.986-2.116-3.619c0.391-1.559,1.988-2.518,3.551-2.129c1.629,0.406,2.592,2,2.201,3.563     C446.329,300.583,444.73,301.543,443.101,301.133L443.101,301.133z"/>
</g></switch>
</svg>