<?xml version="1.0" encoding="utf-8"?>
<!DOCTYPE svg PUBLIC "-//W3C//DTD SVG 1.1//EN" "http://www.w3.org/Graphics/SVG/1.1/DTD/svg11.dtd">
<svg version="1.1" id="Armor" xmlns="http://www.w3.org/2000/svg" xmlns:xlink="http://www.w3.org/1999/xlink" x="0px" y="0px"
	 width="612px" height="792px" viewBox="0 0 612 792" enable-background="new 0 0 612 792" xml:space="preserve">
<switch><g>
<path fill="none" stroke="#000000" stroke-width="0.504" stroke-miterlimit="2.4142" d="M420.234,80.443     c-1.66-0.146-2.929-1.652-2.779-3.313c0.15-1.729,1.646-2.924,3.313-2.779c1.729,0.151,3.002,1.589,2.851,3.319     C423.473,79.331,421.961,80.594,420.234,80.443L420.234,80.443z"/>
<path fill="none" stroke="#000000" stroke-width="0.504" stroke-miterlimit="2.4142" d="M431.529,81.432     c-1.662-0.146-2.929-1.652-2.779-3.312c0.148-1.729,1.647-2.924,3.313-2.78c1.729,0.151,3,1.59,2.85,3.321     C434.764,80.321,433.258,81.582,431.529,81.432L431.529,81.432z"/>
<path fill="none" stroke="#000000" stroke-width="0.504" stroke-miterlimit="2.4142" d="M425.375,86.761     c-1.664-0.144-2.929-1.652-2.783-3.312c0.148-1.731,1.652-2.925,3.312-2.779c1.731,0.151,3.002,1.586,2.852,3.319     C428.607,85.649,427.104,86.912,425.375,86.761L425.375,86.761z"/>
<path fill="none" stroke="#000000" stroke-width="0.504" stroke-miterlimit="2.4142" d="M419.218,92.091     c-1.663-0.144-2.93-1.652-2.784-3.311c0.15-1.73,1.654-2.926,3.313-2.779c1.731,0.15,3.004,1.587,2.852,3.318     C422.452,90.979,420.945,92.243,419.218,92.091L419.218,92.091z"/>
<path fill="none" stroke="#000000" stroke-width="0.504" stroke-miterlimit="2.4142" d="M430.515,93.079     c-1.664-0.144-2.931-1.652-2.786-3.311c0.149-1.732,1.656-2.926,3.316-2.779c1.731,0.149,2.999,1.587,2.848,3.319     C433.747,91.968,432.242,93.23,430.515,93.079L430.515,93.079z"/>
<path fill="none" stroke="#000000" stroke-width="0.504" stroke-miterlimit="2.4142" d="M424.354,98.411     c-1.663-0.146-2.924-1.653-2.779-3.313c0.15-1.731,1.65-2.926,3.313-2.782c1.729,0.152,2.998,1.59,2.849,3.321     C427.592,97.297,426.081,98.562,424.354,98.411L424.354,98.411z"/>
<path fill="none" stroke="#000000" stroke-width="0.504" stroke-miterlimit="2.4142" d="M418.195,103.74     c-1.662-0.146-2.922-1.651-2.779-3.313c0.152-1.729,1.651-2.925,3.314-2.781c1.727,0.151,3,1.59,2.849,3.32     C421.438,102.627,419.926,103.893,418.195,103.74L418.195,103.74z"/>
<path fill="none" stroke="#000000" stroke-width="0.504" stroke-miterlimit="2.4142" d="M429.49,104.728     c-1.66-0.144-2.926-1.649-2.78-3.311c0.153-1.73,1.653-2.924,3.315-2.78c1.728,0.151,3,1.588,2.847,3.32     C432.729,103.616,431.221,104.881,429.49,104.728L429.49,104.728z"/>
<path fill="none" stroke="#000000" stroke-width="0.504" stroke-miterlimit="2.4142" d="M423.332,110.059     c-1.662-0.145-2.922-1.652-2.777-3.312c0.152-1.73,1.652-2.926,3.314-2.781c1.729,0.152,2.996,1.59,2.846,3.32     C426.566,108.945,425.064,110.211,423.332,110.059L423.332,110.059z"/>
<path fill="none" stroke="#000000" stroke-width="0.504" stroke-miterlimit="2.4142" d="M417.175,115.388     c-1.66-0.145-2.921-1.651-2.778-3.312c0.152-1.73,1.652-2.925,3.314-2.779c1.73,0.152,3,1.588,2.848,3.319     C420.412,114.276,418.908,115.54,417.175,115.388L417.175,115.388z"/>
<path fill="none" stroke="#000000" stroke-width="0.504" stroke-miterlimit="2.4142" d="M428.473,116.376     c-1.66-0.144-2.925-1.651-2.78-3.311c0.149-1.73,1.653-2.925,3.317-2.78c1.729,0.152,2.996,1.589,2.842,3.32     C431.707,115.266,430.203,116.529,428.473,116.376L428.473,116.376z"/>
<path fill="none" stroke="#000000" stroke-width="0.504" stroke-miterlimit="2.4142" d="M422.314,121.707     c-1.659-0.146-2.926-1.652-2.78-3.312c0.153-1.732,1.649-2.926,3.313-2.781c1.73,0.15,3,1.59,2.849,3.32     C425.552,120.595,424.043,121.858,422.314,121.707L422.314,121.707z"/>
<path fill="none" stroke="#000000" stroke-width="0.504" stroke-miterlimit="2.4142" d="M416.158,127.037     c-1.658-0.146-2.926-1.651-2.78-3.313c0.153-1.731,1.649-2.926,3.313-2.78c1.729,0.151,3.003,1.588,2.85,3.319     C419.396,125.925,417.887,127.188,416.158,127.037L416.158,127.037z"/>
<path fill="none" stroke="#000000" stroke-width="0.504" stroke-miterlimit="2.4142" d="M427.453,128.025     c-1.658-0.146-2.928-1.65-2.783-3.313c0.154-1.73,1.653-2.925,3.314-2.779c1.729,0.152,3.001,1.588,2.85,3.319     C430.691,126.913,429.184,128.177,427.453,128.025L427.453,128.025z"/>
<path fill="none" stroke="#000000" stroke-width="0.504" stroke-miterlimit="2.4142" d="M421.297,133.355     c-1.664-0.146-2.926-1.651-2.779-3.312c0.15-1.732,1.649-2.926,3.314-2.781c1.727,0.151,2.994,1.588,2.844,3.321     C424.531,132.243,423.027,133.507,421.297,133.355L421.297,133.355z"/>
<path fill="none" stroke="#000000" stroke-width="0.504" stroke-miterlimit="2.4142" d="M415.139,138.687     c-1.664-0.146-2.926-1.651-2.776-3.312c0.147-1.733,1.649-2.928,3.313-2.783c1.728,0.152,2.998,1.589,2.849,3.323     C418.377,137.573,416.869,138.838,415.139,138.687L415.139,138.687z"/>
<path fill="none" stroke="#000000" stroke-width="0.504" stroke-miterlimit="2.4142" d="M426.434,139.674     c-1.661-0.145-2.926-1.649-2.78-3.31c0.149-1.732,1.653-2.927,3.315-2.783c1.728,0.151,2.996,1.589,2.844,3.323     C429.67,138.563,428.164,139.826,426.434,139.674L426.434,139.674z"/>
<path fill="none" stroke="#000000" stroke-width="0.504" stroke-miterlimit="2.4142" d="M420.277,145.003     c-1.663-0.144-2.927-1.65-2.779-3.311c0.15-1.73,1.648-2.925,3.313-2.78c1.729,0.151,2.998,1.589,2.845,3.321     C423.513,143.892,422.006,145.155,420.277,145.003L420.277,145.003z"/>
<path fill="none" stroke="#000000" stroke-width="0.504" stroke-miterlimit="2.4142" d="M414.121,150.334     c-1.664-0.145-2.927-1.651-2.781-3.312c0.152-1.731,1.65-2.926,3.313-2.781c1.729,0.151,3.001,1.589,2.847,3.322     C417.357,149.221,415.849,150.484,414.121,150.334L414.121,150.334z"/>
<path fill="none" stroke="#000000" stroke-width="0.504" stroke-miterlimit="2.4142" d="M425.416,151.321     c-1.661-0.145-2.927-1.65-2.783-3.311c0.154-1.731,1.654-2.926,3.316-2.781c1.729,0.151,3.001,1.588,2.845,3.32     C428.654,150.21,427.146,151.473,425.416,151.321L425.416,151.321z"/>
<path fill="none" stroke="#000000" stroke-width="0.504" stroke-miterlimit="2.4142" d="M419.258,156.651     c-1.66-0.144-2.924-1.651-2.78-3.311c0.153-1.732,1.652-2.926,3.313-2.78c1.728,0.151,3,1.587,2.845,3.319     C422.494,155.538,420.988,156.803,419.258,156.651L419.258,156.651z"/>
<path fill="none" stroke="#000000" stroke-width="0.504" stroke-miterlimit="2.4142" d="M413.1,161.981     c-1.659-0.144-2.922-1.651-2.776-3.312c0.149-1.731,1.651-2.924,3.313-2.779c1.728,0.151,3,1.587,2.848,3.32     C416.34,160.869,414.832,162.134,413.1,161.981L413.1,161.981z"/>
<path fill="none" stroke="#000000" stroke-width="0.504" stroke-miterlimit="2.4142" d="M424.395,162.969     c-1.659-0.141-2.924-1.65-2.778-3.311c0.147-1.731,1.653-2.925,3.313-2.779c1.729,0.151,2.998,1.588,2.847,3.319     C427.633,161.857,426.127,163.122,424.395,162.969L424.395,162.969z"/>
<path fill="none" stroke="#000000" stroke-width="0.504" stroke-miterlimit="2.4142" d="M418.238,168.3     c-1.662-0.145-2.923-1.651-2.779-3.311c0.152-1.733,1.652-2.925,3.314-2.78c1.727,0.151,2.995,1.588,2.844,3.32     C421.477,167.188,419.97,168.451,418.238,168.3L418.238,168.3z"/>
<path fill="none" stroke="#000000" stroke-width="0.504" stroke-miterlimit="2.4142" d="M412.08,173.629     c-1.66-0.144-2.922-1.651-2.777-3.311c0.15-1.731,1.652-2.924,3.313-2.779c1.727,0.15,3,1.587,2.848,3.32     C415.321,172.518,413.813,173.781,412.08,173.629L412.08,173.629z"/>
<path fill="none" stroke="#000000" stroke-width="0.504" stroke-miterlimit="2.4142" d="M423.375,174.617     c-1.66-0.142-2.924-1.651-2.778-3.311c0.148-1.731,1.653-2.925,3.313-2.779c1.729,0.151,2.998,1.588,2.847,3.319     C426.614,173.505,425.107,174.77,423.375,174.617L423.375,174.617z"/>
</g></switch>
</svg>