<?xml version="1.0" encoding="utf-8"?>
<!DOCTYPE svg PUBLIC "-//W3C//DTD SVG 1.1//EN" "http://www.w3.org/Graphics/SVG/1.1/DTD/svg11.dtd">
<svg version="1.1" id="Armor" xmlns="http://www.w3.org/2000/svg" xmlns:xlink="http://www.w3.org/1999/xlink" x="0px" y="0px"
	 width="612px" height="792px" viewBox="0 0 612 792" enable-background="new 0 0 612 792" xml:space="preserve">
<switch><g>
<path fill="none" stroke="#000000" stroke-width="0.504" stroke-miterlimit="2.4142" d="M558.318,89.266     c1.657-0.145,2.922-1.652,2.778-3.312c-0.149-1.731-1.653-2.925-3.315-2.78c-1.729,0.151-3,1.588-2.851,3.32     C555.08,88.153,556.585,89.417,558.318,89.266L558.318,89.266z"/>
<path fill="none" stroke="#000000" stroke-width="0.504" stroke-miterlimit="2.4142" d="M560.126,109.95     c1.663-0.144,2.926-1.652,2.779-3.312c-0.149-1.732-1.649-2.925-3.313-2.779c-1.729,0.15-3.001,1.587-2.851,3.319     C556.889,108.839,558.396,110.103,560.126,109.95L560.126,109.95z"/>
<path fill="none" stroke="#000000" stroke-width="0.504" stroke-miterlimit="2.4142" d="M561.933,130.636     c1.665-0.144,2.93-1.651,2.783-3.312c-0.149-1.73-1.653-2.924-3.315-2.78c-1.729,0.151-3,1.588-2.848,3.32     C558.695,129.523,560.203,130.788,561.933,130.636L561.933,130.636z"/>
<path fill="none" stroke="#000000" stroke-width="0.504" stroke-miterlimit="2.4142" d="M563.746,151.321     c1.659-0.145,2.925-1.652,2.779-3.312c-0.15-1.732-1.653-2.925-3.313-2.78c-1.729,0.151-3,1.589-2.851,3.32     C560.509,150.209,562.014,151.473,563.746,151.321L563.746,151.321z"/>
<path fill="none" stroke="#000000" stroke-width="0.504" stroke-miterlimit="2.4142" d="M565.556,172.006     c1.659-0.145,2.926-1.652,2.779-3.312c-0.15-1.732-1.653-2.925-3.313-2.78c-1.729,0.151-3,1.588-2.851,3.32     C562.318,170.894,563.826,172.158,565.556,172.006L565.556,172.006z"/>
</g></switch>
</svg>