<?xml version="1.0" encoding="utf-8"?>
<!DOCTYPE svg PUBLIC "-//W3C//DTD SVG 1.1//EN" "http://www.w3.org/Graphics/SVG/1.1/DTD/svg11.dtd">
<svg version="1.1" id="Armor" xmlns="http://www.w3.org/2000/svg" xmlns:xlink="http://www.w3.org/1999/xlink" x="0px" y="0px"
	 width="612px" height="792px" viewBox="0 0 612 792" enable-background="new 0 0 612 792" xml:space="preserve">
<switch><g>
<path fill="none" stroke="#000000" stroke-width="0.504" stroke-miterlimit="2.4142" d="M425.786,80.817     c-1.664-0.146-2.923-1.652-2.776-3.312c0.152-1.732,1.645-2.927,3.307-2.783c1.732,0.151,3.006,1.59,2.855,3.321     C429.027,79.704,427.512,80.968,425.786,80.817L425.786,80.817z"/>
<path fill="none" stroke="#000000" stroke-width="0.504" stroke-miterlimit="2.4142" d="M418.979,93.633     c-1.666-0.146-2.931-1.65-2.779-3.313c0.147-1.73,1.643-2.926,3.309-2.775c1.728,0.148,3.004,1.581,2.855,3.314     C422.213,92.521,420.701,93.784,418.979,93.633L418.979,93.633z"/>
<path fill="none" stroke="#000000" stroke-width="0.504" stroke-miterlimit="2.4142" d="M430.275,94.623     c-1.668-0.144-2.933-1.652-2.783-3.312c0.146-1.731,1.646-2.925,3.315-2.779c1.724,0.151,2.994,1.586,2.851,3.317     C433.508,93.51,431.996,94.774,430.275,94.623L430.275,94.623z"/>
<path fill="none" stroke="#000000" stroke-width="0.504" stroke-miterlimit="2.4142" d="M423.461,107.442     c-1.67-0.146-2.927-1.649-2.781-3.312c0.153-1.732,1.646-2.925,3.316-2.781c1.719,0.152,2.998,1.59,2.846,3.323     C426.695,106.332,425.188,107.593,423.461,107.442L423.461,107.442z"/>
<path fill="none" stroke="#000000" stroke-width="0.504" stroke-miterlimit="2.4142" d="M416.645,120.26     c-1.663-0.146-2.924-1.652-2.772-3.315c0.143-1.729,1.646-2.923,3.31-2.776c1.723,0.149,3.001,1.584,2.852,3.317     C419.887,119.146,418.371,120.41,416.645,120.26L416.645,120.26z"/>
<path fill="none" stroke="#000000" stroke-width="0.504" stroke-miterlimit="2.4142" d="M427.942,121.25     c-1.666-0.146-2.928-1.651-2.777-3.312c0.147-1.733,1.646-2.926,3.313-2.782c1.721,0.15,2.993,1.587,2.843,3.322     C431.179,120.141,429.67,121.401,427.942,121.25L427.942,121.25z"/>
<path fill="none" stroke="#000000" stroke-width="0.504" stroke-miterlimit="2.4142" d="M421.129,134.068     c-1.666-0.144-2.924-1.65-2.777-3.312c0.152-1.731,1.644-2.926,3.312-2.784c1.725,0.154,3.002,1.592,2.848,3.323     C424.367,132.954,422.854,134.22,421.129,134.068L421.129,134.068z"/>
<path fill="none" stroke="#000000" stroke-width="0.504" stroke-miterlimit="2.4142" d="M414.319,146.886     c-1.668-0.146-2.93-1.653-2.779-3.313c0.148-1.729,1.645-2.926,3.313-2.778c1.723,0.149,3.007,1.588,2.848,3.323     C417.553,145.771,416.043,147.036,414.319,146.886L414.319,146.886z"/>
<path fill="none" stroke="#000000" stroke-width="0.504" stroke-miterlimit="2.4142" d="M425.614,147.875     c-1.667-0.144-2.927-1.647-2.78-3.311c0.155-1.734,1.646-2.927,3.313-2.782c1.729,0.151,3.003,1.586,2.848,3.321     C428.852,146.765,427.344,148.025,425.614,147.875L425.614,147.875z"/>
<path fill="none" stroke="#000000" stroke-width="0.504" stroke-miterlimit="2.4142" d="M418.801,160.691     c-1.665-0.143-2.922-1.652-2.776-3.312c0.151-1.731,1.646-2.925,3.313-2.78c1.724,0.15,3.002,1.588,2.846,3.318     C422.043,159.58,420.529,160.842,418.801,160.691L418.801,160.691z"/>
<path fill="none" stroke="#000000" stroke-width="0.504" stroke-miterlimit="2.4142" d="M411.989,173.509     c-1.667-0.143-2.925-1.65-2.78-3.31c0.152-1.734,1.65-2.927,3.313-2.779c1.725,0.148,3.002,1.585,2.85,3.318     C415.23,172.398,413.715,173.661,411.989,173.509L411.989,173.509z"/>
<path fill="none" stroke="#000000" stroke-width="0.504" stroke-miterlimit="2.4142" d="M423.284,174.496     c-1.669-0.137-2.927-1.647-2.776-3.309c0.148-1.731,1.646-2.926,3.312-2.775c1.725,0.146,2.996,1.584,2.846,3.315     C426.52,173.385,425.014,174.65,423.284,174.496L423.284,174.496z"/>
</g></switch>
</svg>