<?xml version="1.0" encoding="utf-8"?>
<!DOCTYPE svg PUBLIC "-//W3C//DTD SVG 1.1//EN" "http://www.w3.org/Graphics/SVG/1.1/DTD/svg11.dtd">
<svg version="1.1" id="Armor" xmlns="http://www.w3.org/2000/svg" xmlns:xlink="http://www.w3.org/1999/xlink" x="0px" y="0px"
	 width="612px" height="792px" viewBox="0 0 612 792" enable-background="new 0 0 612 792" xml:space="preserve">
<switch><g>
<path fill-rule="evenodd" clip-rule="evenodd" fill="none" stroke="#000000" stroke-width="0.504" stroke-miterlimit="2.4142" d="     M557.949,87.577c1.662-0.144,2.93-1.652,2.783-3.312c-0.148-1.731-1.652-2.925-3.311-2.779c-1.732,0.15-3.004,1.587-2.85,3.319     C554.719,86.465,556.221,87.728,557.949,87.577L557.949,87.577z"/>
<path fill-rule="evenodd" clip-rule="evenodd" fill="none" stroke="#000000" stroke-width="0.504" stroke-miterlimit="2.4142" d="      M563.624,92.854c1.659-0.146,2.928-1.652,2.778-3.313c-0.149-1.73-1.646-2.925-3.313-2.78c-1.728,0.151-3.001,1.589-2.85,3.32      C560.386,91.741,561.897,93.004,563.624,92.854L563.624,92.854z"/>
<path fill-rule="evenodd" clip-rule="evenodd" fill="none" stroke="#000000" stroke-width="0.504" stroke-miterlimit="2.4142" d="      M552.329,93.842c1.661-0.146,2.928-1.652,2.779-3.312c-0.149-1.73-1.647-2.925-3.313-2.781c-1.727,0.152-2.998,1.59-2.848,3.322      C549.094,92.731,550.601,93.992,552.329,93.842L552.329,93.842z"/>
<path fill-rule="evenodd" clip-rule="evenodd" fill="none" stroke="#000000" stroke-width="0.504" stroke-miterlimit="2.4142" d="     M558.935,99.115c1.662-0.144,2.928-1.651,2.783-3.311c-0.148-1.731-1.653-2.925-3.311-2.779c-1.732,0.15-3.004,1.587-2.852,3.319     C555.702,98.005,557.206,99.268,558.935,99.115L558.935,99.115z"/>
<path fill-rule="evenodd" clip-rule="evenodd" fill="none" stroke="#000000" stroke-width="0.504" stroke-miterlimit="2.4142" d="      M565.511,104.39c1.663-0.143,2.93-1.652,2.784-3.312c-0.15-1.73-1.654-2.925-3.313-2.779c-1.732,0.15-3.004,1.587-2.852,3.319      C562.276,103.279,563.783,104.542,565.511,104.39L565.511,104.39z"/>
<path fill-rule="evenodd" clip-rule="evenodd" fill="none" stroke="#000000" stroke-width="0.504" stroke-miterlimit="2.4142" d="      M554.214,105.378c1.665-0.144,2.931-1.652,2.786-3.312c-0.149-1.731-1.656-2.925-3.316-2.779      c-1.73,0.15-2.999,1.587-2.848,3.319C550.981,104.267,552.486,105.53,554.214,105.378L554.214,105.378z"/>
<path fill-rule="evenodd" clip-rule="evenodd" fill="none" stroke="#000000" stroke-width="0.504" stroke-miterlimit="2.4142" d="     M559.921,110.655c1.665-0.145,2.926-1.652,2.781-3.312c-0.151-1.731-1.651-2.925-3.313-2.781     c-1.729,0.151-2.998,1.589-2.848,3.32C556.683,109.542,558.194,110.806,559.921,110.655L559.921,110.655z"/>
<path fill-rule="evenodd" clip-rule="evenodd" fill="none" stroke="#000000" stroke-width="0.504" stroke-miterlimit="2.4142" d="      M566.574,115.931c1.662-0.145,2.922-1.651,2.779-3.312c-0.152-1.73-1.652-2.925-3.314-2.781c-1.727,0.151-3,1.59-2.85,3.32      C563.332,114.818,564.844,116.083,566.574,115.931L566.574,115.931z"/>
<path fill-rule="evenodd" clip-rule="evenodd" fill="none" stroke="#000000" stroke-width="0.504" stroke-miterlimit="2.4142" d="      M555.278,116.918c1.661-0.144,2.927-1.649,2.78-3.311c-0.152-1.73-1.652-2.924-3.314-2.78c-1.729,0.15-3,1.588-2.848,3.32      C552.04,115.807,553.549,117.072,555.278,116.918L555.278,116.918z"/>
<path fill-rule="evenodd" clip-rule="evenodd" fill="none" stroke="#000000" stroke-width="0.504" stroke-miterlimit="2.4142" d="     M560.908,122.194c1.661-0.144,2.921-1.651,2.776-3.311c-0.151-1.731-1.651-2.926-3.314-2.781     c-1.729,0.152-2.996,1.589-2.845,3.321C557.673,121.082,559.176,122.348,560.908,122.194L560.908,122.194z"/>
<path fill-rule="evenodd" clip-rule="evenodd" fill="none" stroke="#000000" stroke-width="0.504" stroke-miterlimit="2.4142" d="      M566.802,127.468c1.66-0.145,2.922-1.651,2.777-3.311c-0.152-1.73-1.652-2.925-3.313-2.779c-1.73,0.152-3.002,1.588-2.85,3.319      C563.565,126.358,565.069,127.621,566.802,127.468L566.802,127.468z"/>
<path fill-rule="evenodd" clip-rule="evenodd" fill="none" stroke="#000000" stroke-width="0.504" stroke-miterlimit="2.4142" d="      M555.505,128.458c1.66-0.145,2.924-1.652,2.781-3.311c-0.152-1.73-1.654-2.926-3.32-2.78c-1.727,0.152-2.996,1.589-2.842,3.32      C552.271,127.347,553.772,128.61,555.505,128.458L555.505,128.458z"/>
<path fill-rule="evenodd" clip-rule="evenodd" fill="none" stroke="#000000" stroke-width="0.504" stroke-miterlimit="2.4142" d="     M561.889,133.735c1.659-0.146,2.925-1.653,2.78-3.313c-0.153-1.732-1.65-2.926-3.313-2.781c-1.73,0.15-3,1.59-2.848,3.32     C558.651,132.622,560.16,133.886,561.889,133.735L561.889,133.735z"/>
<path fill-rule="evenodd" clip-rule="evenodd" fill="none" stroke="#000000" stroke-width="0.504" stroke-miterlimit="2.4142" d="      M567.856,139.012c1.66-0.146,2.928-1.651,2.781-3.313c-0.152-1.731-1.65-2.926-3.313-2.78c-1.73,0.151-3.004,1.588-2.85,3.319      C564.62,137.899,566.13,139.163,567.856,139.012L567.856,139.012z"/>
<path fill-rule="evenodd" clip-rule="evenodd" fill="none" stroke="#000000" stroke-width="0.504" stroke-miterlimit="2.4142" d="      M556.562,140c1.66-0.146,2.928-1.651,2.783-3.313c-0.152-1.731-1.652-2.925-3.314-2.78c-1.729,0.153-3,1.589-2.85,3.32      C553.325,138.887,554.833,140.151,556.562,140L556.562,140z"/>
<path fill-rule="evenodd" clip-rule="evenodd" fill="none" stroke="#000000" stroke-width="0.504" stroke-miterlimit="2.4142" d="     M562.87,145.275c1.665-0.146,2.927-1.651,2.78-3.312c-0.15-1.731-1.65-2.925-3.314-2.78c-1.727,0.151-2.995,1.588-2.844,3.321     C559.636,144.163,561.141,145.427,562.87,145.275L562.87,145.275z"/>
<path fill-rule="evenodd" clip-rule="evenodd" fill="none" stroke="#000000" stroke-width="0.504" stroke-miterlimit="2.4142" d="      M568.914,150.554c1.664-0.146,2.926-1.651,2.778-3.312c-0.149-1.733-1.65-2.928-3.313-2.783      c-1.727,0.152-2.999,1.589-2.848,3.323C565.676,149.441,567.185,150.705,568.914,150.554L568.914,150.554z"/>
<path fill-rule="evenodd" clip-rule="evenodd" fill="none" stroke="#000000" stroke-width="0.504" stroke-miterlimit="2.4142" d="      M557.619,151.541c1.662-0.145,2.926-1.649,2.781-3.31c-0.15-1.732-1.653-2.927-3.316-2.783      c-1.726,0.151-2.996,1.589-2.844,3.323C554.383,150.431,555.889,151.693,557.619,151.541L557.619,151.541z"/>
<path fill-rule="evenodd" clip-rule="evenodd" fill="none" stroke="#000000" stroke-width="0.504" stroke-miterlimit="2.4142" d="     M563.853,156.816c1.663-0.144,2.927-1.65,2.78-3.311c-0.152-1.73-1.65-2.925-3.313-2.78c-1.729,0.151-3,1.589-2.846,3.32     C560.617,155.704,562.125,156.968,563.853,156.816L563.853,156.816z"/>
<path fill-rule="evenodd" clip-rule="evenodd" fill="none" stroke="#000000" stroke-width="0.504" stroke-miterlimit="2.4142" d="      M569.968,162.093c1.664-0.145,2.927-1.652,2.781-3.313c-0.152-1.731-1.65-2.925-3.313-2.781      c-1.729,0.151-3.001,1.589-2.847,3.323C566.731,160.979,568.239,162.244,569.968,162.093L569.968,162.093z"/>
<path fill-rule="evenodd" clip-rule="evenodd" fill="none" stroke="#000000" stroke-width="0.504" stroke-miterlimit="2.4142" d="      M558.673,163.081c1.661-0.146,2.927-1.651,2.783-3.312c-0.154-1.73-1.654-2.926-3.316-2.78c-1.73,0.151-3.001,1.587-2.845,3.32      C555.435,161.968,556.942,163.232,558.673,163.081L558.673,163.081z"/>
<path fill-rule="evenodd" clip-rule="evenodd" fill="none" stroke="#000000" stroke-width="0.504" stroke-miterlimit="2.4142" d="     M564.834,168.355c1.662-0.144,2.926-1.651,2.781-3.311c-0.154-1.731-1.652-2.925-3.314-2.78c-1.727,0.151-2.998,1.588-2.844,3.32     C561.598,167.243,563.105,168.507,564.834,168.355L564.834,168.355z"/>
<path fill-rule="evenodd" clip-rule="evenodd" fill="none" stroke="#000000" stroke-width="0.504" stroke-miterlimit="2.4142" d="      M571.027,173.629c1.66-0.144,2.922-1.651,2.777-3.311c-0.15-1.731-1.652-2.924-3.313-2.779c-1.727,0.15-3,1.587-2.848,3.32      C567.786,172.518,569.295,173.781,571.027,173.629L571.027,173.629z"/>
<path fill-rule="evenodd" clip-rule="evenodd" fill="none" stroke="#000000" stroke-width="0.504" stroke-miterlimit="2.4142" d="      M559.732,174.617c1.66-0.142,2.924-1.651,2.778-3.311c-0.148-1.731-1.653-2.925-3.313-2.779      c-1.729,0.151-2.998,1.588-2.847,3.319C556.493,173.505,558,174.77,559.732,174.617L559.732,174.617z"/>
</g></switch>
</svg>