<?xml version="1.0" encoding="utf-8"?>
<!DOCTYPE svg PUBLIC "-//W3C//DTD SVG 1.1//EN" "http://www.w3.org/Graphics/SVG/1.1/DTD/svg11.dtd">
<svg version="1.1" id="Armor" xmlns="http://www.w3.org/2000/svg" xmlns:xlink="http://www.w3.org/1999/xlink" x="0px" y="0px"
	 width="612px" height="792px" viewBox="0 0 612 792" enable-background="new 0 0 612 792" xml:space="preserve">
<switch><g>
<path fill="none" stroke="#000000" stroke-width="0.504" stroke-miterlimit="2.4142" d="M557.727,80.696     c1.665-0.144,2.926-1.65,2.777-3.311c-0.148-1.729-1.644-2.925-3.311-2.784c-1.72,0.154-2.999,1.593-2.849,3.324     C554.488,79.582,556.004,80.848,557.727,80.696L557.727,80.696z"/>
<path fill="none" stroke="#000000" stroke-width="0.504" stroke-miterlimit="2.4142" d="M566.091,111.262     c1.666-0.144,2.925-1.653,2.778-3.314c-0.147-1.729-1.646-2.925-3.313-2.776c-1.721,0.148-3.005,1.586-2.847,3.323     C562.855,110.147,564.365,111.413,566.091,111.262L566.091,111.262z"/>
<path fill="none" stroke="#000000" stroke-width="0.504" stroke-miterlimit="2.4142" d="M554.792,112.252     c1.672-0.142,2.928-1.649,2.78-3.311c-0.151-1.733-1.643-2.926-3.311-2.782c-1.725,0.152-3.004,1.586-2.851,3.32     C551.554,111.143,553.066,112.402,554.792,112.252L554.792,112.252z"/>
<path fill="none" stroke="#000000" stroke-width="0.504" stroke-miterlimit="2.4142" d="M563.162,142.82     c1.662-0.143,2.92-1.652,2.775-3.313c-0.152-1.729-1.646-2.925-3.313-2.778c-1.723,0.148-3.004,1.586-2.846,3.317     C559.918,141.707,561.436,142.97,563.162,142.82L563.162,142.82z"/>
<path fill="none" stroke="#000000" stroke-width="0.504" stroke-miterlimit="2.4142" d="M571.524,173.387     c1.669-0.144,2.926-1.652,2.779-3.31c-0.15-1.735-1.647-2.928-3.31-2.781c-1.727,0.147-3.004,1.587-2.854,3.32     C568.284,172.275,569.803,173.538,571.524,173.387L571.524,173.387z"/>
<path fill="none" stroke="#000000" stroke-width="0.504" stroke-miterlimit="2.4142" d="M560.229,174.375     c1.672-0.136,2.929-1.649,2.776-3.31c-0.146-1.731-1.642-2.926-3.311-2.776c-1.723,0.148-2.993,1.585-2.851,3.317     C556.995,173.262,558.502,174.529,560.229,174.375L560.229,174.375z"/>
</g></switch>
</svg>