<?xml version="1.0" encoding="utf-8"?>
<!DOCTYPE svg PUBLIC "-//W3C//DTD SVG 1.1//EN" "http://www.w3.org/Graphics/SVG/1.1/DTD/svg11.dtd">
<svg version="1.1" id="Armor" xmlns="http://www.w3.org/2000/svg" xmlns:xlink="http://www.w3.org/1999/xlink" x="0px" y="0px"
	 width="612px" height="792px" viewBox="0 0 612 792" enable-background="new 0 0 612 792" xml:space="preserve">
<switch><g>
<path fill="none" stroke="#000000" stroke-width="0.504" stroke-miterlimit="2.4142" d="M425.807,80.855     c-1.665-0.145-2.918-1.652-2.772-3.313c0.148-1.73,1.646-2.923,3.313-2.779c1.726,0.15,2.994,1.59,2.848,3.321     C429.043,79.74,427.537,81.01,425.807,80.855L425.807,80.855z"/>
<path fill="none" stroke="#000000" stroke-width="0.504" stroke-miterlimit="2.4142" d="M419.255,90.714     c-1.663-0.144-2.918-1.649-2.773-3.31c0.151-1.729,1.647-2.924,3.308-2.778c1.733,0.151,3.007,1.588,2.854,3.317     C422.492,89.606,420.986,90.87,419.255,90.714L419.255,90.714z"/>
<path fill="none" stroke="#000000" stroke-width="0.504" stroke-miterlimit="2.4142" d="M430.556,91.703     c-1.665-0.144-2.923-1.651-2.781-3.309c0.151-1.73,1.649-2.925,3.317-2.78c1.727,0.151,2.998,1.587,2.84,3.321     C433.789,90.594,432.283,91.857,430.556,91.703L430.556,91.703z"/>
<path fill="none" stroke="#000000" stroke-width="0.504" stroke-miterlimit="2.4142" d="M423.998,101.565     c-1.664-0.146-2.922-1.653-2.777-3.313c0.154-1.733,1.644-2.927,3.308-2.783c1.735,0.152,3.007,1.59,2.854,3.321     C427.238,100.451,425.727,101.716,423.998,101.565L423.998,101.565z"/>
<path fill="none" stroke="#000000" stroke-width="0.504" stroke-miterlimit="2.4142" d="M417.449,111.423     c-1.668-0.146-2.931-1.65-2.781-3.313c0.15-1.731,1.643-2.926,3.311-2.775c1.729,0.147,3.006,1.58,2.854,3.313     C420.684,110.311,419.172,111.574,417.449,111.423L417.449,111.423z"/>
<path fill="none" stroke="#000000" stroke-width="0.504" stroke-miterlimit="2.4142" d="M428.746,112.413     c-1.668-0.144-2.932-1.652-2.784-3.312c0.149-1.733,1.646-2.925,3.314-2.779c1.727,0.151,2.997,1.586,2.851,3.317     C431.979,111.3,430.469,112.563,428.746,112.413L428.746,112.413z"/>
<path fill="none" stroke="#000000" stroke-width="0.504" stroke-miterlimit="2.4142" d="M422.189,122.273     c-1.671-0.145-2.927-1.649-2.781-3.311c0.153-1.732,1.646-2.926,3.315-2.781c1.722,0.152,2.998,1.59,2.847,3.322     C425.424,121.164,423.92,122.426,422.189,122.273L422.189,122.273z"/>
<path fill="none" stroke="#000000" stroke-width="0.504" stroke-miterlimit="2.4142" d="M415.634,132.134     c-1.668-0.146-2.924-1.652-2.774-3.314c0.146-1.73,1.646-2.924,3.311-2.778c1.724,0.15,3.001,1.585,2.85,3.318     C418.875,131.02,417.361,132.285,415.634,132.134L415.634,132.134z"/>
<path fill="none" stroke="#000000" stroke-width="0.504" stroke-miterlimit="2.4142" d="M426.931,133.124     c-1.665-0.146-2.926-1.652-2.778-3.313c0.148-1.732,1.647-2.927,3.313-2.783c1.722,0.152,2.993,1.589,2.842,3.322     C430.167,132.013,428.658,133.275,426.931,133.124L426.931,133.124z"/>
<path fill="none" stroke="#000000" stroke-width="0.504" stroke-miterlimit="2.4142" d="M420.377,142.983     c-1.665-0.144-2.926-1.651-2.777-3.313c0.151-1.729,1.644-2.924,3.31-2.783c1.727,0.155,3.004,1.592,2.848,3.323     C423.615,141.869,422.102,143.135,420.377,142.983L420.377,142.983z"/>
<path fill="none" stroke="#000000" stroke-width="0.504" stroke-miterlimit="2.4142" d="M413.824,152.842     c-1.668-0.146-2.928-1.651-2.779-3.314c0.149-1.729,1.646-2.925,3.313-2.777c1.724,0.15,3.006,1.587,2.848,3.322     C417.061,151.728,415.551,152.992,413.824,152.842L413.824,152.842z"/>
<path fill="none" stroke="#000000" stroke-width="0.504" stroke-miterlimit="2.4142" d="M425.119,153.831     c-1.664-0.144-2.926-1.647-2.779-3.31c0.154-1.734,1.648-2.927,3.313-2.782c1.729,0.151,3.002,1.586,2.848,3.321     C428.357,152.722,426.851,153.982,425.119,153.831L425.119,153.831z"/>
<path fill="none" stroke="#000000" stroke-width="0.504" stroke-miterlimit="2.4142" d="M418.565,163.691     c-1.662-0.145-2.924-1.652-2.779-3.312c0.155-1.733,1.647-2.925,3.313-2.782c1.726,0.15,3.001,1.588,2.845,3.32     C421.807,162.579,420.295,163.841,418.565,163.691L418.565,163.691z"/>
<path fill="none" stroke="#000000" stroke-width="0.504" stroke-miterlimit="2.4142" d="M412.012,173.549     c-1.666-0.143-2.923-1.649-2.778-3.311c0.152-1.733,1.649-2.926,3.313-2.778c1.726,0.148,3.002,1.585,2.851,3.318     C415.255,172.438,413.738,173.702,412.012,173.549L412.012,173.549z"/>
<path fill="none" stroke="#000000" stroke-width="0.504" stroke-miterlimit="2.4142" d="M423.307,174.537     c-1.665-0.138-2.926-1.648-2.774-3.31c0.147-1.731,1.646-2.925,3.309-2.775c1.728,0.146,2.998,1.584,2.847,3.316     C426.544,173.427,425.037,174.692,423.307,174.537L423.307,174.537z"/>
</g></switch>
</svg>