<?xml version="1.0" encoding="utf-8"?>
<!DOCTYPE svg PUBLIC "-//W3C//DTD SVG 1.1//EN" "http://www.w3.org/Graphics/SVG/1.1/DTD/svg11.dtd">
<svg version="1.1" id="Armor" xmlns="http://www.w3.org/2000/svg" xmlns:xlink="http://www.w3.org/1999/xlink" x="0px" y="0px"
	 width="612px" height="792px" viewBox="0 0 612 792" enable-background="new 0 0 612 792" xml:space="preserve">
<switch><g>
<path fill="none" stroke="#000000" stroke-width="0.504" stroke-miterlimit="2.4142" d="M563.189,80.427     c1.664-0.145,2.928-1.651,2.778-3.313c-0.149-1.73-1.646-2.924-3.312-2.779c-1.729,0.151-3.003,1.588-2.851,3.319     C559.953,79.315,561.463,80.578,563.189,80.427L563.189,80.427z"/>
<path fill="none" stroke="#000000" stroke-width="0.504" stroke-miterlimit="2.4142" d="M551.895,81.417     c1.664-0.146,2.931-1.653,2.781-3.313c-0.149-1.73-1.646-2.923-3.313-2.78c-1.729,0.151-3,1.59-2.846,3.321     C548.662,80.305,550.166,81.566,551.895,81.417L551.895,81.417z"/>
<path fill="none" stroke="#000000" stroke-width="0.504" stroke-miterlimit="2.4142" d="M557.946,85.58     c1.667-0.144,2.931-1.652,2.782-3.312c-0.146-1.732-1.65-2.925-3.31-2.778c-1.731,0.15-2.998,1.585-2.852,3.318     C554.719,84.468,556.219,85.731,557.946,85.58L557.946,85.58z"/>
<path fill="none" stroke="#000000" stroke-width="0.504" stroke-miterlimit="2.4142" d="M564.006,89.746     c1.662-0.145,2.928-1.651,2.779-3.313c-0.152-1.73-1.646-2.924-3.313-2.779c-1.729,0.151-3.002,1.588-2.85,3.319     C560.768,88.633,562.279,89.896,564.006,89.746L564.006,89.746z"/>
<path fill="none" stroke="#000000" stroke-width="0.504" stroke-miterlimit="2.4142" d="M552.709,90.735     c1.664-0.146,2.932-1.653,2.781-3.313c-0.15-1.73-1.646-2.923-3.313-2.78c-1.729,0.151-3,1.59-2.845,3.321     C549.477,89.624,550.982,90.884,552.709,90.735L552.709,90.735z"/>
<path fill="none" stroke="#000000" stroke-width="0.504" stroke-miterlimit="2.4142" d="M558.763,94.898     c1.665-0.143,2.93-1.65,2.784-3.311c-0.15-1.73-1.65-2.927-3.311-2.779c-1.732,0.149-3.002,1.586-2.853,3.318     C555.531,93.786,557.034,95.05,558.763,94.898L558.763,94.898z"/>
<path fill="none" stroke="#000000" stroke-width="0.504" stroke-miterlimit="2.4142" d="M564.817,99.063     c1.665-0.144,2.931-1.652,2.783-3.311c-0.149-1.73-1.649-2.926-3.313-2.779c-1.73,0.15-3.003,1.587-2.853,3.318     C561.584,97.952,563.092,99.215,564.817,99.063L564.817,99.063z"/>
<path fill="none" stroke="#000000" stroke-width="0.504" stroke-miterlimit="2.4142" d="M553.521,100.052     c1.663-0.144,2.932-1.652,2.786-3.312c-0.147-1.73-1.655-2.926-3.317-2.779c-1.73,0.149-2.996,1.587-2.847,3.32     C550.291,98.94,551.795,100.203,553.521,100.052L553.521,100.052z"/>
<path fill="none" stroke="#000000" stroke-width="0.504" stroke-miterlimit="2.4142" d="M559.58,104.219     c1.666-0.146,2.924-1.654,2.781-3.311c-0.153-1.732-1.65-2.927-3.314-2.784c-1.729,0.153-2.997,1.591-2.846,3.321     C556.344,103.105,557.855,104.37,559.58,104.219L559.58,104.219z"/>
<path fill="none" stroke="#000000" stroke-width="0.504" stroke-miterlimit="2.4142" d="M565.637,108.382     c1.662-0.143,2.921-1.65,2.779-3.311c-0.152-1.729-1.65-2.924-3.314-2.78c-1.727,0.15-3,1.589-2.849,3.319     C562.396,107.27,563.906,108.537,565.637,108.382L565.637,108.382z"/>
<path fill="none" stroke="#000000" stroke-width="0.504" stroke-miterlimit="2.4142" d="M554.342,109.372     c1.66-0.145,2.925-1.65,2.783-3.312c-0.156-1.731-1.654-2.925-3.318-2.78c-1.729,0.151-2.999,1.588-2.846,3.32     C551.104,108.258,552.611,109.524,554.342,109.372L554.342,109.372z"/>
<path fill="none" stroke="#000000" stroke-width="0.504" stroke-miterlimit="2.4142" d="M560.398,113.537     c1.661-0.147,2.922-1.653,2.776-3.312c-0.153-1.73-1.65-2.926-3.313-2.781c-1.731,0.152-2.996,1.59-2.847,3.32     C557.166,112.422,558.666,113.688,560.398,113.537L560.398,113.537z"/>
<path fill="none" stroke="#000000" stroke-width="0.504" stroke-miterlimit="2.4142" d="M566.453,117.701     c1.662-0.145,2.921-1.651,2.779-3.313c-0.152-1.73-1.652-2.924-3.314-2.778c-1.73,0.152-3.001,1.587-2.848,3.319     C563.216,116.589,564.721,117.852,566.453,117.701L566.453,117.701z"/>
<path fill="none" stroke="#000000" stroke-width="0.504" stroke-miterlimit="2.4142" d="M555.156,118.69     c1.66-0.144,2.925-1.651,2.781-3.311c-0.149-1.73-1.654-2.926-3.318-2.781c-1.729,0.153-2.996,1.59-2.84,3.321     C551.924,117.58,553.426,118.843,555.156,118.69L555.156,118.69z"/>
<path fill="none" stroke="#000000" stroke-width="0.504" stroke-miterlimit="2.4142" d="M561.211,122.854     c1.662-0.145,2.925-1.651,2.781-3.311c-0.154-1.73-1.648-2.925-3.314-2.78c-1.729,0.151-2.996,1.588-2.846,3.32     C557.976,121.743,559.484,123.005,561.211,122.854L561.211,122.854z"/>
<path fill="none" stroke="#000000" stroke-width="0.504" stroke-miterlimit="2.4142" d="M567.266,127.02     c1.66-0.146,2.927-1.651,2.782-3.312c-0.155-1.732-1.647-2.927-3.313-2.781c-1.729,0.151-3.002,1.588-2.849,3.318     C564.027,125.908,565.538,127.172,567.266,127.02L567.266,127.02z"/>
<path fill="none" stroke="#000000" stroke-width="0.504" stroke-miterlimit="2.4142" d="M555.971,128.008     c1.66-0.146,2.93-1.651,2.787-3.314c-0.158-1.73-1.654-2.924-3.317-2.777c-1.73,0.152-2.998,1.586-2.849,3.319     C552.734,126.896,554.24,128.16,555.971,128.008L555.971,128.008z"/>
<path fill="none" stroke="#000000" stroke-width="0.504" stroke-miterlimit="2.4142" d="M562.025,132.174     c1.664-0.146,2.925-1.651,2.778-3.313c-0.149-1.73-1.647-2.926-3.313-2.782c-1.728,0.152-2.995,1.589-2.842,3.323     C558.791,131.062,560.295,132.326,562.025,132.174L562.025,132.174z"/>
<path fill="none" stroke="#000000" stroke-width="0.504" stroke-miterlimit="2.4142" d="M568.082,136.339     c1.664-0.146,2.924-1.652,2.777-3.312c-0.148-1.733-1.65-2.927-3.313-2.782c-1.727,0.151-2.998,1.588-2.848,3.322     C564.844,135.226,566.352,136.491,568.082,136.339L568.082,136.339z"/>
<path fill="none" stroke="#000000" stroke-width="0.504" stroke-miterlimit="2.4142" d="M556.787,137.327     c1.662-0.143,2.928-1.649,2.783-3.31c-0.151-1.73-1.656-2.925-3.318-2.782c-1.727,0.152-2.994,1.589-2.842,3.324     C553.551,136.217,555.057,137.479,556.787,137.327L556.787,137.327z"/>
<path fill="none" stroke="#000000" stroke-width="0.504" stroke-miterlimit="2.4142" d="M562.841,141.491     c1.666-0.143,2.927-1.649,2.777-3.309c-0.147-1.732-1.646-2.927-3.312-2.782c-1.728,0.151-2.997,1.589-2.841,3.322     C559.607,140.381,561.113,141.643,562.841,141.491L562.841,141.491z"/>
<path fill="none" stroke="#000000" stroke-width="0.504" stroke-miterlimit="2.4142" d="M568.895,145.657     c1.666-0.144,2.929-1.65,2.783-3.311c-0.153-1.732-1.647-2.926-3.313-2.781c-1.729,0.151-3,1.589-2.849,3.322     C565.66,144.544,567.17,145.807,568.895,145.657L568.895,145.657z"/>
<path fill="none" stroke="#000000" stroke-width="0.504" stroke-miterlimit="2.4142" d="M557.6,146.645     c1.664-0.144,2.931-1.652,2.785-3.312c-0.154-1.731-1.654-2.925-3.315-2.78c-1.732,0.152-3,1.589-2.845,3.319     C554.363,145.533,555.871,146.795,557.6,146.645L557.6,146.645z"/>
<path fill="none" stroke="#000000" stroke-width="0.504" stroke-miterlimit="2.4142" d="M563.656,150.809     c1.661-0.145,2.924-1.65,2.781-3.311c-0.154-1.731-1.65-2.926-3.313-2.779c-1.729,0.15-3,1.586-2.844,3.319     C560.422,149.696,561.926,150.96,563.656,150.809L563.656,150.809z"/>
<path fill="none" stroke="#000000" stroke-width="0.504" stroke-miterlimit="2.4142" d="M569.713,154.975     c1.66-0.144,2.921-1.652,2.777-3.312c-0.15-1.732-1.652-2.924-3.313-2.78c-1.727,0.152-3,1.588-2.846,3.32     C566.473,153.863,567.98,155.127,569.713,154.975L569.713,154.975z"/>
<path fill="none" stroke="#000000" stroke-width="0.504" stroke-miterlimit="2.4142" d="M558.418,155.963     c1.66-0.142,2.926-1.65,2.781-3.311c-0.148-1.732-1.656-2.925-3.316-2.78c-1.729,0.151-2.994,1.587-2.844,3.32     C555.183,154.852,556.686,156.117,558.418,155.963L558.418,155.963z"/>
<path fill="none" stroke="#000000" stroke-width="0.504" stroke-miterlimit="2.4142" d="M564.473,160.128     c1.664-0.145,2.922-1.653,2.778-3.312c-0.151-1.733-1.651-2.924-3.313-2.779c-1.728,0.15-2.996,1.586-2.843,3.318     C561.236,159.015,562.742,160.28,564.473,160.128L564.473,160.128z"/>
<path fill="none" stroke="#000000" stroke-width="0.504" stroke-miterlimit="2.4142" d="M570.528,164.292     c1.662-0.144,2.922-1.651,2.775-3.31c-0.148-1.732-1.649-2.924-3.313-2.779c-1.726,0.149-2.999,1.586-2.849,3.319     C567.289,163.181,568.797,164.446,570.528,164.292L570.528,164.292z"/>
<path fill="none" stroke="#000000" stroke-width="0.504" stroke-miterlimit="2.4142" d="M559.233,165.281     c1.66-0.142,2.926-1.651,2.779-3.313c-0.147-1.729-1.653-2.923-3.315-2.777c-1.728,0.151-2.993,1.587-2.842,3.318     C555.996,164.169,557.502,165.434,559.233,165.281L559.233,165.281z"/>
<path fill="none" stroke="#000000" stroke-width="0.504" stroke-miterlimit="2.4142" d="M565.287,169.447     c1.664-0.145,2.922-1.65,2.78-3.31c-0.153-1.734-1.651-2.924-3.314-2.781c-1.726,0.152-2.995,1.587-2.841,3.322     C562.053,168.336,563.557,169.599,565.287,169.447L565.287,169.447z"/>
<path fill="none" stroke="#000000" stroke-width="0.504" stroke-miterlimit="2.4142" d="M571.344,173.612     c1.663-0.145,2.922-1.652,2.776-3.311c-0.149-1.733-1.651-2.925-3.313-2.78c-1.727,0.151-3,1.586-2.849,3.319     C568.104,172.5,569.611,173.764,571.344,173.612L571.344,173.612z"/>
<path fill="none" stroke="#000000" stroke-width="0.504" stroke-miterlimit="2.4142" d="M560.049,174.6     c1.66-0.144,2.926-1.652,2.779-3.312c-0.147-1.732-1.654-2.925-3.314-2.778c-1.729,0.15-2.994,1.586-2.845,3.318     C556.811,173.487,558.316,174.752,560.049,174.6L560.049,174.6z"/>
</g></switch>
</svg>