<?xml version="1.0" encoding="utf-8"?>
<!DOCTYPE svg PUBLIC "-//W3C//DTD SVG 1.1//EN" "http://www.w3.org/Graphics/SVG/1.1/DTD/svg11.dtd">
<svg version="1.1" id="Armor" xmlns="http://www.w3.org/2000/svg" xmlns:xlink="http://www.w3.org/1999/xlink" x="0px" y="0px"
	 width="612px" height="792px" viewBox="0 0 612 792" enable-background="new 0 0 612 792" xml:space="preserve">
<switch><g>
<path fill-rule="evenodd" clip-rule="evenodd" fill="none" stroke="#000000" stroke-width="0.504" stroke-miterlimit="2.4142" d="     M462.361,190.749c-1.562-0.389-2.521-1.985-2.11-3.616c0.39-1.565,1.981-2.521,3.547-2.133c1.626,0.406,2.585,2.002,2.201,3.564     C465.593,190.195,463.995,191.156,462.361,190.749L462.361,190.749z"/>
<path fill-rule="evenodd" clip-rule="evenodd" fill="none" stroke="#000000" stroke-width="0.504" stroke-miterlimit="2.4142" d="     M454.369,199.326c-1.561-0.385-2.52-1.982-2.114-3.617c0.394-1.557,1.985-2.52,3.548-2.127c1.635,0.402,2.593,2.004,2.204,3.565     C457.599,198.781,456,199.741,454.369,199.326L454.369,199.326z"/>
<path fill-rule="evenodd" clip-rule="evenodd" fill="none" stroke="#000000" stroke-width="0.504" stroke-miterlimit="2.4142" d="     M465.782,201.962c-1.561-0.388-2.519-1.982-2.112-3.616c0.39-1.56,1.983-2.524,3.549-2.131c1.631,0.403,2.596,2.004,2.199,3.566     C469.012,201.415,467.418,202.374,465.782,201.962L465.782,201.962z"/>
<path fill-rule="evenodd" clip-rule="evenodd" fill="none" stroke="#000000" stroke-width="0.504" stroke-miterlimit="2.4142" d="     M457.789,210.54c-1.563-0.385-2.521-1.979-2.107-3.609c0.388-1.565,1.984-2.523,3.547-2.132c1.625,0.4,2.587,2.002,2.194,3.563     C461.02,209.996,459.424,210.953,457.789,210.54L457.789,210.54z"/>
<path fill-rule="evenodd" clip-rule="evenodd" fill="none" stroke="#000000" stroke-width="0.504" stroke-miterlimit="2.4142" d="     M449.798,219.123c-1.562-0.388-2.522-1.985-2.114-3.615c0.395-1.565,1.988-2.524,3.549-2.134     c1.635,0.406,2.592,2.003,2.199,3.563C453.032,218.575,451.433,219.532,449.798,219.123L449.798,219.123z"/>
<path fill-rule="evenodd" clip-rule="evenodd" fill="none" stroke="#000000" stroke-width="0.504" stroke-miterlimit="2.4142" d="     M461.214,221.759c-1.565-0.39-2.523-1.986-2.115-3.617c0.392-1.565,1.986-2.523,3.548-2.134c1.633,0.406,2.593,2.002,2.202,3.563     C464.447,221.209,462.848,222.166,461.214,221.759L461.214,221.759z"/>
<path fill-rule="evenodd" clip-rule="evenodd" fill="none" stroke="#000000" stroke-width="0.504" stroke-miterlimit="2.4142" d="     M453.215,230.337c-1.56-0.391-2.515-1.985-2.104-3.614c0.386-1.564,1.984-2.526,3.546-2.135c1.631,0.406,2.589,2.003,2.203,3.561     C456.454,229.79,454.853,230.745,453.215,230.337L453.215,230.337z"/>
<path fill-rule="evenodd" clip-rule="evenodd" fill="none" stroke="#000000" stroke-width="0.504" stroke-miterlimit="2.4142" d="     M445.227,238.917c-1.564-0.39-2.521-1.984-2.112-3.616c0.392-1.565,1.985-2.521,3.546-2.135c1.633,0.408,2.594,2.006,2.201,3.568     C448.455,238.365,446.854,239.33,445.227,238.917L445.227,238.917z"/>
<path fill-rule="evenodd" clip-rule="evenodd" fill="none" stroke="#000000" stroke-width="0.504" stroke-miterlimit="2.4142" d="     M456.645,241.552c-1.564-0.385-2.521-1.983-2.115-3.611c0.393-1.567,1.985-2.525,3.547-2.137c1.631,0.408,2.596,2.009,2.2,3.566     C459.873,241,458.271,241.966,456.645,241.552L456.645,241.552z"/>
<path fill-rule="evenodd" clip-rule="evenodd" fill="none" stroke="#000000" stroke-width="0.504" stroke-miterlimit="2.4142" d="     M448.65,250.132c-1.565-0.389-2.519-1.984-2.112-3.617c0.39-1.566,1.986-2.522,3.55-2.131c1.63,0.407,2.588,2.004,2.198,3.566     C451.878,249.581,450.285,250.542,448.65,250.132L448.65,250.132z"/>
<path fill-rule="evenodd" clip-rule="evenodd" fill="none" stroke="#000000" stroke-width="0.504" stroke-miterlimit="2.4142" d="     M440.66,258.713c-1.562-0.389-2.523-1.985-2.115-3.618c0.392-1.565,1.987-2.52,3.552-2.131c1.628,0.404,2.593,2.004,2.2,3.562     C443.894,258.159,442.293,259.12,440.66,258.713L440.66,258.713z"/>
<path fill-rule="evenodd" clip-rule="evenodd" fill="none" stroke="#000000" stroke-width="0.504" stroke-miterlimit="2.4142" d="     M452.072,261.348c-1.563-0.39-2.523-1.987-2.115-3.618c0.392-1.563,1.987-2.519,3.551-2.132c1.631,0.405,2.59,2.005,2.2,3.563     C455.307,260.795,453.705,261.755,452.072,261.348L452.072,261.348z"/>
<path fill-rule="evenodd" clip-rule="evenodd" fill="none" stroke="#000000" stroke-width="0.504" stroke-miterlimit="2.4142" d="     M444.078,269.926c-1.558-0.389-2.513-1.985-2.112-3.616c0.392-1.564,1.99-2.524,3.547-2.131c1.639,0.403,2.597,2.004,2.204,3.562     C447.309,269.376,445.714,270.337,444.078,269.926L444.078,269.926z"/>
<path fill-rule="evenodd" clip-rule="evenodd" fill="none" stroke="#000000" stroke-width="0.504" stroke-miterlimit="2.4142" d="     M436.089,278.507c-1.562-0.389-2.519-1.985-2.116-3.621c0.395-1.559,1.99-2.517,3.555-2.127c1.633,0.406,2.594,2.002,2.201,3.564     C439.318,277.955,437.723,278.917,436.089,278.507L436.089,278.507z"/>
<path fill-rule="evenodd" clip-rule="evenodd" fill="none" stroke="#000000" stroke-width="0.504" stroke-miterlimit="2.4142" d="     M447.502,281.142c-1.563-0.389-2.522-1.985-2.115-3.619c0.391-1.558,1.988-2.518,3.555-2.128     c1.629,0.405,2.592,2.003,2.196,3.564C450.732,280.591,449.137,281.551,447.502,281.142L447.502,281.142z"/>
<path fill-rule="evenodd" clip-rule="evenodd" fill="none" stroke="#000000" stroke-width="0.504" stroke-miterlimit="2.4142" d="     M439.511,289.724c-1.561-0.392-2.524-1.986-2.109-3.621c0.384-1.562,1.978-2.52,3.547-2.131c1.627,0.404,2.591,2.002,2.203,3.563     C442.738,289.168,441.142,290.129,439.511,289.724L439.511,289.724z"/>
<path fill-rule="evenodd" clip-rule="evenodd" fill="none" stroke="#000000" stroke-width="0.504" stroke-miterlimit="2.4142" d="     M431.517,298.302c-1.562-0.386-2.521-1.986-2.112-3.621c0.394-1.557,1.987-2.514,3.555-2.127     c1.623,0.404,2.589,1.998,2.194,3.563C434.748,297.752,433.149,298.711,431.517,298.302L431.517,298.302z"/>
<path fill-rule="evenodd" clip-rule="evenodd" fill="none" stroke="#000000" stroke-width="0.504" stroke-miterlimit="2.4142" d="     M442.934,300.937c-1.564-0.385-2.524-1.984-2.115-3.618c0.391-1.56,1.988-2.518,3.549-2.131c1.629,0.409,2.593,2.001,2.201,3.565     C446.162,300.386,444.562,301.347,442.934,300.937L442.934,300.937z"/>
</g></switch>
</svg>