<?xml version="1.0" encoding="utf-8"?>
<!DOCTYPE svg PUBLIC "-//W3C//DTD SVG 1.1//EN" "http://www.w3.org/Graphics/SVG/1.1/DTD/svg11.dtd">
<svg version="1.1" id="Armor" xmlns="http://www.w3.org/2000/svg" xmlns:xlink="http://www.w3.org/1999/xlink" x="0px" y="0px"
	 width="612px" height="792px" viewBox="0 0 612 792" enable-background="new 0 0 612 792" xml:space="preserve">
<switch><g>
<path fill="none" stroke="#000000" stroke-width="0.504" stroke-miterlimit="2.4142" d="M563.145,80.392     c1.664-0.142,2.929-1.652,2.783-3.312c-0.151-1.73-1.651-2.925-3.31-2.779c-1.733,0.149-3.01,1.586-2.854,3.318     C559.908,79.28,561.417,80.543,563.145,80.392L563.145,80.392z"/>
<path fill="none" stroke="#000000" stroke-width="0.504" stroke-miterlimit="2.4142" d="M551.848,81.381     c1.664-0.146,2.929-1.653,2.786-3.314c-0.151-1.731-1.655-2.925-3.315-2.778c-1.73,0.15-2.999,1.587-2.848,3.318     C548.612,80.268,550.12,81.53,551.848,81.381L551.848,81.381z"/>
<path fill="none" stroke="#000000" stroke-width="0.504" stroke-miterlimit="2.4142" d="M558.175,88.653     c1.669-0.143,2.927-1.651,2.782-3.311c-0.149-1.729-1.647-2.924-3.314-2.781c-1.725,0.153-2.996,1.59-2.846,3.32     C554.938,87.54,556.45,88.806,558.175,88.653L558.175,88.653z"/>
<path fill="none" stroke="#000000" stroke-width="0.504" stroke-miterlimit="2.4142" d="M564.506,95.925     c1.663-0.146,2.923-1.652,2.779-3.313c-0.152-1.729-1.651-2.925-3.314-2.782c-1.726,0.154-3.001,1.593-2.85,3.321     C561.264,94.811,562.776,96.075,564.506,95.925L564.506,95.925z"/>
<path fill="none" stroke="#000000" stroke-width="0.504" stroke-miterlimit="2.4142" d="M553.211,96.912     c1.661-0.144,2.926-1.649,2.779-3.311c-0.153-1.729-1.65-2.925-3.314-2.781c-1.728,0.152-2.999,1.589-2.847,3.319     C549.971,95.801,551.481,97.065,553.211,96.912L553.211,96.912z"/>
<path fill="none" stroke="#000000" stroke-width="0.504" stroke-miterlimit="2.4142" d="M559.541,104.185     c1.66-0.144,2.921-1.651,2.774-3.311c-0.151-1.731-1.648-2.927-3.313-2.783c-1.728,0.154-2.996,1.59-2.845,3.321     C556.306,103.073,557.809,104.337,559.541,104.185L559.541,104.185z"/>
<path fill="none" stroke="#000000" stroke-width="0.504" stroke-miterlimit="2.4142" d="M565.866,111.454     c1.659-0.146,2.922-1.651,2.775-3.31c-0.152-1.731-1.65-2.925-3.311-2.78c-1.733,0.151-3.005,1.588-2.852,3.319     C562.629,110.344,564.135,111.606,565.866,111.454L565.866,111.454z"/>
<path fill="none" stroke="#000000" stroke-width="0.504" stroke-miterlimit="2.4142" d="M554.569,112.443     c1.659-0.144,2.924-1.653,2.781-3.31c-0.155-1.73-1.653-2.926-3.319-2.78c-1.729,0.151-2.998,1.588-2.84,3.32     C551.334,111.333,552.836,112.595,554.569,112.443L554.569,112.443z"/>
<path fill="none" stroke="#000000" stroke-width="0.504" stroke-miterlimit="2.4142" d="M560.896,119.717     c1.661-0.147,2.926-1.654,2.779-3.313c-0.152-1.736-1.646-2.927-3.313-2.781c-1.729,0.15-3,1.588-2.85,3.319     C557.659,118.602,559.17,119.867,560.896,119.717L560.896,119.717z"/>
<path fill="none" stroke="#000000" stroke-width="0.504" stroke-miterlimit="2.4142" d="M567.224,126.986     c1.661-0.146,2.928-1.652,2.777-3.312c-0.148-1.733-1.647-2.926-3.311-2.78c-1.729,0.151-3.003,1.586-2.853,3.319     C563.986,125.874,565.498,127.138,567.224,126.986L567.224,126.986z"/>
<path fill="none" stroke="#000000" stroke-width="0.504" stroke-miterlimit="2.4142" d="M555.925,127.975     c1.664-0.145,2.931-1.651,2.783-3.313c-0.15-1.731-1.647-2.924-3.314-2.779c-1.728,0.153-2.997,1.588-2.849,3.321     C552.692,126.862,554.199,128.127,555.925,127.975L555.925,127.975z"/>
<path fill="none" stroke="#000000" stroke-width="0.504" stroke-miterlimit="2.4142" d="M562.252,135.247     c1.666-0.145,2.926-1.65,2.783-3.31c-0.153-1.731-1.649-2.925-3.314-2.781c-1.727,0.152-2.997,1.588-2.846,3.322     C559.018,134.135,560.521,135.399,562.252,135.247L562.252,135.247z"/>
<path fill="none" stroke="#000000" stroke-width="0.504" stroke-miterlimit="2.4142" d="M568.581,142.519     c1.664-0.144,2.927-1.651,2.779-3.312c-0.149-1.733-1.65-2.927-3.313-2.782c-1.726,0.152-2.999,1.588-2.847,3.323     C565.344,141.407,566.854,142.671,568.581,142.519L568.581,142.519z"/>
<path fill="none" stroke="#000000" stroke-width="0.504" stroke-miterlimit="2.4142" d="M557.285,143.508     c1.664-0.146,2.928-1.65,2.782-3.31c-0.151-1.734-1.653-2.928-3.315-2.785c-1.727,0.152-2.995,1.589-2.843,3.324     C554.052,142.396,555.558,143.66,557.285,143.508L557.285,143.508z"/>
<path fill="none" stroke="#000000" stroke-width="0.504" stroke-miterlimit="2.4142" d="M563.613,150.778     c1.664-0.145,2.926-1.65,2.777-3.312c-0.151-1.731-1.646-2.925-3.31-2.781c-1.729,0.151-3.003,1.59-2.849,3.321     C560.377,149.666,561.888,150.93,563.613,150.778L563.613,150.778z"/>
<path fill="none" stroke="#000000" stroke-width="0.504" stroke-miterlimit="2.4142" d="M569.94,158.051     c1.665-0.145,2.925-1.653,2.777-3.313c-0.149-1.731-1.646-2.926-3.312-2.781c-1.728,0.151-3.002,1.59-2.851,3.323     C566.703,156.937,568.212,158.201,569.94,158.051L569.94,158.051z"/>
<path fill="none" stroke="#000000" stroke-width="0.504" stroke-miterlimit="2.4142" d="M558.646,159.038     c1.661-0.144,2.927-1.65,2.778-3.31c-0.151-1.731-1.65-2.927-3.313-2.781c-1.729,0.15-2.998,1.587-2.845,3.321     C555.407,157.927,556.915,159.189,558.646,159.038L558.646,159.038z"/>
<path fill="none" stroke="#000000" stroke-width="0.504" stroke-miterlimit="2.4142" d="M564.972,166.311     c1.663-0.144,2.925-1.652,2.78-3.312c-0.155-1.731-1.65-2.924-3.313-2.781c-1.728,0.152-2.999,1.59-2.845,3.321     C561.731,165.197,563.243,166.461,564.972,166.311L564.972,166.311z"/>
<path fill="none" stroke="#000000" stroke-width="0.504" stroke-miterlimit="2.4142" d="M571.3,173.58     c1.661-0.143,2.921-1.65,2.778-3.31c-0.151-1.732-1.652-2.925-3.313-2.78c-1.728,0.15-3.002,1.587-2.85,3.32     C568.058,172.47,569.568,173.733,571.3,173.58L571.3,173.58z"/>
<path fill="none" stroke="#000000" stroke-width="0.504" stroke-miterlimit="2.4142" d="M560.005,174.568     c1.662-0.142,2.923-1.651,2.777-3.31c-0.148-1.733-1.65-2.925-3.312-2.78c-1.729,0.151-2.998,1.587-2.846,3.32     C556.767,173.456,558.271,174.721,560.005,174.568L560.005,174.568z"/>
</g></switch>
</svg>