<?xml version="1.0" encoding="utf-8"?>
<!DOCTYPE svg PUBLIC "-//W3C//DTD SVG 1.1//EN" "http://www.w3.org/Graphics/SVG/1.1/DTD/svg11.dtd">
<svg version="1.1" id="Armor" xmlns="http://www.w3.org/2000/svg" xmlns:xlink="http://www.w3.org/1999/xlink" x="0px" y="0px"
	 width="612px" height="792px" viewBox="0 0 612 792" enable-background="new 0 0 612 792" xml:space="preserve">
<switch><g>
<path fill="none" stroke="#000000" stroke-width="0.504" stroke-miterlimit="2.4142" d="M516.487,327.606      c-1.065,0-1.998-0.864-1.998-1.994c0-1.131,0.933-2.062,1.998-2.062c1.13,0,2.06,0.931,2.06,2.062      C518.547,326.742,517.617,327.606,516.487,327.606L516.487,327.606z"/>
<path fill="none" stroke="#000000" stroke-width="0.504" stroke-miterlimit="2.4142" d="M524.38,327.606      c-1.064,0-1.998-0.864-1.998-1.994c0-1.131,0.934-2.062,1.998-2.062c1.13,0,2.061,0.931,2.061,2.062      C526.439,326.742,525.51,327.606,524.38,327.606L524.38,327.606z"/>
<path fill="none" stroke="#000000" stroke-width="0.504" stroke-miterlimit="2.4142" d="M532.271,327.606      c-1.064,0-1.997-0.864-1.997-1.994c0-1.131,0.933-2.062,1.997-2.062c1.131,0,2.061,0.931,2.061,2.062      C534.332,326.742,533.402,327.606,532.271,327.606L532.271,327.606z"/>
<path fill="none" stroke="#000000" stroke-width="0.504" stroke-miterlimit="2.4142" d="M516.487,332.994      c-1.065,0-1.998-0.864-1.998-1.994c0-1.131,0.933-2.062,1.998-2.062c1.13,0,2.06,0.931,2.06,2.062      C518.547,332.129,517.617,332.994,516.487,332.994L516.487,332.994z"/>
<path fill="none" stroke="#000000" stroke-width="0.504" stroke-miterlimit="2.4142" d="M524.38,332.994      c-1.064,0-1.998-0.864-1.998-1.994c0-1.131,0.934-2.062,1.998-2.062c1.13,0,2.061,0.931,2.061,2.062      C526.439,332.13,525.51,332.994,524.38,332.994L524.38,332.994z"/>
<path fill="none" stroke="#000000" stroke-width="0.504" stroke-miterlimit="2.4142" d="M532.271,332.994      c-1.064,0-1.997-0.864-1.997-1.994c0-1.131,0.933-2.062,1.997-2.062c1.131,0,2.061,0.931,2.061,2.062      C534.332,332.129,533.402,332.994,532.271,332.994L532.271,332.994z"/>
<path fill="none" stroke="#000000" stroke-width="0.504" stroke-miterlimit="2.4142" d="M516.487,338.381      c-1.065,0-1.998-0.864-1.998-1.994c0-1.131,0.933-2.062,1.998-2.062c1.13,0,2.06,0.931,2.06,2.062      C518.547,337.517,517.617,338.381,516.487,338.381L516.487,338.381z"/>
<path fill="none" stroke="#000000" stroke-width="0.504" stroke-miterlimit="2.4142" d="M532.271,338.381      c-1.064,0-1.997-0.864-1.997-1.994c0-1.131,0.933-2.062,1.997-2.062c1.131,0,2.061,0.931,2.061,2.062      C534.332,337.517,533.402,338.381,532.271,338.381L532.271,338.381z"/>
<path fill="none" stroke="#000000" stroke-width="0.504" stroke-miterlimit="2.4142" d="M524.38,338.382      c-1.064,0-1.998-0.864-1.998-1.994c0-1.131,0.934-2.062,1.998-2.062c1.13,0,2.061,0.931,2.061,2.062      C526.439,337.518,525.51,338.382,524.38,338.382L524.38,338.382z"/>
<path fill="none" stroke="#000000" stroke-width="0.504" stroke-miterlimit="2.4142" d="M516.486,343.77      c-1.133,0-1.997-0.932-1.997-1.997c0-1.128,0.864-2.061,1.997-2.061c1.131,0,2.061,0.932,2.061,2.061      C518.547,342.838,517.617,343.77,516.486,343.77L516.486,343.77z"/>
<path fill="none" stroke="#000000" stroke-width="0.504" stroke-miterlimit="2.4142" d="M524.38,343.77      c-1.064,0-1.998-0.864-1.998-1.994c0-1.131,0.934-2.062,1.998-2.062c1.13,0,2.061,0.931,2.061,2.062      C526.439,342.905,525.51,343.77,524.38,343.77L524.38,343.77z"/>
<path fill="none" stroke="#000000" stroke-width="0.504" stroke-miterlimit="2.4142" d="M532.271,343.77      c-1.133,0-1.997-0.932-1.997-1.997c0-1.128,0.864-2.061,1.997-2.061c1.131,0,2.061,0.932,2.061,2.061      C534.332,342.838,533.402,343.77,532.271,343.77L532.271,343.77z"/>
<path fill="none" stroke="#000000" stroke-width="0.504" stroke-miterlimit="2.4142" d="M516.486,349.158      c-1.133,0-1.997-0.932-1.997-1.997c0-1.128,0.864-2.061,1.997-2.061c1.131,0,2.061,0.932,2.061,2.061      C518.547,348.226,517.617,349.158,516.486,349.158L516.486,349.158z"/>
<path fill="none" stroke="#000000" stroke-width="0.504" stroke-miterlimit="2.4142" d="M524.38,349.158      c-1.064,0-1.998-0.864-1.998-1.994c0-1.131,0.934-2.062,1.998-2.062c1.13,0,2.061,0.931,2.061,2.062      C526.439,348.293,525.51,349.158,524.38,349.158L524.38,349.158z"/>
</g></switch>
</svg>