<?xml version="1.0" encoding="utf-8"?>
<!DOCTYPE svg PUBLIC "-//W3C//DTD SVG 1.1//EN" "http://www.w3.org/Graphics/SVG/1.1/DTD/svg11.dtd">
<svg version="1.1" id="Armor" xmlns="http://www.w3.org/2000/svg" xmlns:xlink="http://www.w3.org/1999/xlink" x="0px" y="0px"
	 width="612px" height="792px" viewBox="0 0 612 792" enable-background="new 0 0 612 792" xml:space="preserve">
<switch><g>
<path fill-rule="evenodd" clip-rule="evenodd" fill="none" stroke="#000000" stroke-width="0.504" stroke-miterlimit="2.4142" d="     M525.896,189.187c1.562-0.385,2.521-1.982,2.115-3.617c-0.395-1.557-1.985-2.52-3.549-2.127     c-1.635,0.402-2.592,2.004-2.204,3.565C522.667,188.643,524.266,189.602,525.896,189.187L525.896,189.187z"/>
<path fill-rule="evenodd" clip-rule="evenodd" fill="none" stroke="#000000" stroke-width="0.504" stroke-miterlimit="2.4142" d="     M514.484,191.825c1.561-0.388,2.519-1.982,2.112-3.616c-0.39-1.561-1.983-2.525-3.549-2.131c-1.631,0.402-2.597,2.004-2.2,3.566     C511.254,191.277,512.848,192.236,514.484,191.825L514.484,191.825z"/>
<path fill-rule="evenodd" clip-rule="evenodd" fill="none" stroke="#000000" stroke-width="0.504" stroke-miterlimit="2.4142" d="     M522.706,201.39c1.563-0.384,2.521-1.979,2.106-3.609c-0.387-1.565-1.984-2.522-3.546-2.132c-1.625,0.4-2.587,2.002-2.194,3.564     C519.475,200.847,521.071,201.804,522.706,201.39L522.706,201.39z"/>
<path fill-rule="evenodd" clip-rule="evenodd" fill="none" stroke="#000000" stroke-width="0.504" stroke-miterlimit="2.4142" d="     M530.926,210.964c1.563-0.389,2.521-1.985,2.113-3.615c-0.395-1.565-1.988-2.525-3.548-2.134c-1.636,0.405-2.592,2.002-2.2,3.562     C527.691,210.415,529.29,211.372,530.926,210.964L530.926,210.964z"/>
<path fill-rule="evenodd" clip-rule="evenodd" fill="none" stroke="#000000" stroke-width="0.504" stroke-miterlimit="2.4142" d="     M519.51,213.602c1.565-0.39,2.523-1.986,2.115-3.617c-0.392-1.566-1.986-2.523-3.547-2.135c-1.634,0.406-2.594,2.003-2.204,3.564     C516.276,213.051,517.875,214.008,519.51,213.602L519.51,213.602z"/>
<path fill-rule="evenodd" clip-rule="evenodd" fill="none" stroke="#000000" stroke-width="0.504" stroke-miterlimit="2.4142" d="     M527.737,223.168c1.56-0.39,2.515-1.985,2.104-3.613c-0.387-1.564-1.984-2.527-3.547-2.136c-1.629,0.407-2.588,2.004-2.203,3.561     C524.498,222.621,526.1,223.576,527.737,223.168L527.737,223.168z"/>
<path fill-rule="evenodd" clip-rule="evenodd" fill="none" stroke="#000000" stroke-width="0.504" stroke-miterlimit="2.4142" d="     M535.955,232.738c1.563-0.39,2.521-1.983,2.111-3.615c-0.392-1.566-1.985-2.522-3.545-2.135     c-1.635,0.407-2.595,2.005-2.203,3.567C532.725,232.186,534.326,233.15,535.955,232.738L535.955,232.738z"/>
<path fill-rule="evenodd" clip-rule="evenodd" fill="none" stroke="#000000" stroke-width="0.504" stroke-miterlimit="2.4142" d="     M524.535,235.373c1.566-0.384,2.522-1.982,2.116-3.61c-0.393-1.567-1.985-2.525-3.546-2.137     c-1.631,0.408-2.597,2.009-2.201,3.566C521.308,234.822,522.908,235.788,524.535,235.373L524.535,235.373z"/>
<path fill-rule="evenodd" clip-rule="evenodd" fill="none" stroke="#000000" stroke-width="0.504" stroke-miterlimit="2.4142" d="     M532.759,244.942c1.565-0.388,2.519-1.984,2.111-3.616c-0.389-1.566-1.985-2.523-3.549-2.131     c-1.63,0.407-2.588,2.004-2.198,3.566C529.531,244.392,531.123,245.354,532.759,244.942L532.759,244.942z"/>
<path fill-rule="evenodd" clip-rule="evenodd" fill="none" stroke="#000000" stroke-width="0.504" stroke-miterlimit="2.4142" d="     M540.978,254.514c1.562-0.389,2.522-1.984,2.116-3.617c-0.393-1.565-1.988-2.521-3.554-2.132     c-1.627,0.405-2.592,2.004-2.198,3.563C537.744,253.96,539.345,254.92,540.978,254.514L540.978,254.514z"/>
<path fill-rule="evenodd" clip-rule="evenodd" fill="none" stroke="#000000" stroke-width="0.504" stroke-miterlimit="2.4142" d="     M529.564,257.149c1.563-0.39,2.523-1.987,2.115-3.619c-0.391-1.563-1.986-2.519-3.55-2.131c-1.631,0.404-2.591,2.005-2.2,3.563     C526.33,256.596,527.933,257.557,529.564,257.149L529.564,257.149z"/>
<path fill-rule="evenodd" clip-rule="evenodd" fill="none" stroke="#000000" stroke-width="0.504" stroke-miterlimit="2.4142" d="     M537.788,266.717c1.558-0.389,2.512-1.985,2.112-3.616c-0.393-1.564-1.99-2.524-3.547-2.131     c-1.639,0.403-2.597,2.004-2.205,3.562C534.558,266.167,536.152,267.128,537.788,266.717L537.788,266.717z"/>
<path fill-rule="evenodd" clip-rule="evenodd" fill="none" stroke="#000000" stroke-width="0.504" stroke-miterlimit="2.4142" d="     M546.006,276.288c1.561-0.389,2.519-1.985,2.116-3.621c-0.395-1.558-1.99-2.517-3.555-2.127     c-1.633,0.406-2.594,2.002-2.202,3.565C542.776,275.736,544.373,276.697,546.006,276.288L546.006,276.288z"/>
<path fill-rule="evenodd" clip-rule="evenodd" fill="none" stroke="#000000" stroke-width="0.504" stroke-miterlimit="2.4142" d="     M534.593,278.922c1.563-0.388,2.522-1.984,2.115-3.618c-0.391-1.558-1.988-2.518-3.556-2.128     c-1.627,0.405-2.591,2.003-2.195,3.563C531.361,278.371,532.958,279.332,534.593,278.922L534.593,278.922z"/>
<path fill-rule="evenodd" clip-rule="evenodd" fill="none" stroke="#000000" stroke-width="0.504" stroke-miterlimit="2.4142" d="     M542.813,288.495c1.561-0.392,2.523-1.986,2.109-3.621c-0.385-1.562-1.978-2.52-3.547-2.131c-1.627,0.404-2.59,2.002-2.203,3.563     C539.585,287.939,541.182,288.9,542.813,288.495L542.813,288.495z"/>
<path fill-rule="evenodd" clip-rule="evenodd" fill="none" stroke="#000000" stroke-width="0.504" stroke-miterlimit="2.4142" d="     M551.035,298.063c1.562-0.387,2.521-1.986,2.112-3.622c-0.394-1.557-1.987-2.514-3.555-2.127     c-1.622,0.404-2.589,1.998-2.194,3.563C547.805,297.514,549.402,298.473,551.035,298.063L551.035,298.063z"/>
<path fill-rule="evenodd" clip-rule="evenodd" fill="none" stroke="#000000" stroke-width="0.504" stroke-miterlimit="2.4142" d="     M539.618,300.697c1.564-0.384,2.524-1.983,2.115-3.617c-0.391-1.561-1.988-2.519-3.549-2.132     c-1.629,0.41-2.593,2.001-2.202,3.566C536.391,300.146,537.99,301.107,539.618,300.697L539.618,300.697z"/>
</g></switch>
</svg>