<?xml version="1.0" encoding="utf-8"?>
<!DOCTYPE svg PUBLIC "-//W3C//DTD SVG 1.1//EN" "http://www.w3.org/Graphics/SVG/1.1/DTD/svg11.dtd">
<svg version="1.1" id="Armor" xmlns="http://www.w3.org/2000/svg" xmlns:xlink="http://www.w3.org/1999/xlink" x="0px" y="0px"
	 width="612px" height="792px" viewBox="0 0 612 792" enable-background="new 0 0 612 792" xml:space="preserve">
<switch><g>
<path fill="none" stroke="#000000" stroke-width="0.504" stroke-miterlimit="2.4142" d="M563.396,80.363     c1.663-0.146,2.923-1.651,2.778-3.313c-0.15-1.731-1.649-2.925-3.314-2.782c-1.725,0.154-2.998,1.59-2.851,3.321     C560.153,79.249,561.668,80.514,563.396,80.363L563.396,80.363z"/>
<path fill="none" stroke="#000000" stroke-width="0.504" stroke-miterlimit="2.4142" d="M552.098,81.348     c1.667-0.143,2.932-1.648,2.781-3.31c-0.15-1.73-1.646-2.925-3.313-2.781c-1.729,0.152-2.998,1.588-2.848,3.319     C548.862,80.238,550.373,81.501,552.098,81.348L552.098,81.348z"/>
<path fill="none" stroke="#000000" stroke-width="0.504" stroke-miterlimit="2.4142" d="M558.566,90.173     c1.664-0.146,2.919-1.652,2.774-3.313c-0.151-1.73-1.646-2.924-3.313-2.78c-1.728,0.152-2.998,1.592-2.847,3.321     C555.329,89.059,556.835,90.326,558.566,90.173L558.566,90.173z"/>
<path fill="none" stroke="#000000" stroke-width="0.504" stroke-miterlimit="2.4142" d="M565.027,98.998     c1.663-0.146,2.922-1.651,2.776-3.31c-0.151-1.729-1.648-2.926-3.311-2.78c-1.73,0.151-3.004,1.588-2.853,3.318     C561.792,97.889,563.299,99.152,565.027,98.998L565.027,98.998z"/>
<path fill="none" stroke="#000000" stroke-width="0.504" stroke-miterlimit="2.4142" d="M553.729,99.985     c1.665-0.144,2.925-1.652,2.785-3.311c-0.154-1.731-1.652-2.925-3.32-2.78c-1.726,0.152-2.997,1.587-2.84,3.319     C550.497,98.876,551.999,100.137,553.729,99.985L553.729,99.985z"/>
<path fill="none" stroke="#000000" stroke-width="0.504" stroke-miterlimit="2.4142" d="M560.193,108.813     c1.662-0.146,2.923-1.652,2.78-3.313c-0.156-1.734-1.646-2.927-3.312-2.782c-1.733,0.149-3.004,1.589-2.854,3.32     C556.954,107.699,558.467,108.962,560.193,108.813L560.193,108.813z"/>
<path fill="none" stroke="#000000" stroke-width="0.504" stroke-miterlimit="2.4142" d="M566.656,117.634     c1.663-0.145,2.926-1.65,2.777-3.312c-0.148-1.73-1.646-2.924-3.309-2.775c-1.73,0.149-3.005,1.582-2.854,3.315     C563.418,116.524,564.933,117.787,566.656,117.634L566.656,117.634z"/>
<path fill="none" stroke="#000000" stroke-width="0.504" stroke-miterlimit="2.4142" d="M555.358,118.624     c1.665-0.143,2.931-1.652,2.782-3.312c-0.148-1.731-1.646-2.925-3.313-2.779c-1.729,0.153-2.998,1.587-2.85,3.318     C552.125,117.51,553.634,118.774,555.358,118.624L555.358,118.624z"/>
<path fill="none" stroke="#000000" stroke-width="0.504" stroke-miterlimit="2.4142" d="M561.823,127.449     c1.667-0.144,2.926-1.65,2.782-3.31c-0.155-1.731-1.647-2.925-3.315-2.781c-1.726,0.153-3,1.589-2.848,3.322     C558.588,126.34,560.092,127.602,561.823,127.449L561.823,127.449z"/>
<path fill="none" stroke="#000000" stroke-width="0.504" stroke-miterlimit="2.4142" d="M568.285,136.274     c1.668-0.145,2.926-1.651,2.777-3.313c-0.146-1.731-1.646-2.926-3.309-2.781c-1.727,0.153-3.001,1.587-2.852,3.323     C565.047,135.161,566.56,136.427,568.285,136.274L568.285,136.274z"/>
<path fill="none" stroke="#000000" stroke-width="0.504" stroke-miterlimit="2.4142" d="M556.992,137.263     c1.664-0.145,2.924-1.651,2.78-3.311c-0.151-1.732-1.649-2.926-3.315-2.782c-1.724,0.152-2.994,1.587-2.842,3.321     C553.755,136.152,555.262,137.415,556.992,137.263L556.992,137.263z"/>
<path fill="none" stroke="#000000" stroke-width="0.504" stroke-miterlimit="2.4142" d="M563.454,146.088     c1.666-0.144,2.925-1.65,2.776-3.311c-0.151-1.731-1.643-2.926-3.309-2.783c-1.727,0.154-3.004,1.591-2.848,3.324     C560.217,144.976,561.729,146.24,563.454,146.088L563.454,146.088z"/>
<path fill="none" stroke="#000000" stroke-width="0.504" stroke-miterlimit="2.4142" d="M569.916,154.911     c1.668-0.146,2.927-1.652,2.779-3.313c-0.15-1.731-1.645-2.925-3.313-2.779c-1.725,0.15-3.002,1.589-2.848,3.323     C566.681,153.796,568.189,155.063,569.916,154.911L569.916,154.911z"/>
<path fill="none" stroke="#000000" stroke-width="0.504" stroke-miterlimit="2.4142" d="M558.621,155.9     c1.664-0.145,2.926-1.648,2.781-3.31c-0.154-1.733-1.648-2.928-3.316-2.782c-1.728,0.151-2.996,1.586-2.845,3.32     C555.385,154.792,556.891,156.052,558.621,155.9L558.621,155.9z"/>
<path fill="none" stroke="#000000" stroke-width="0.504" stroke-miterlimit="2.4142" d="M565.086,164.725     c1.663-0.144,2.923-1.651,2.779-3.311c-0.155-1.73-1.647-2.924-3.313-2.78c-1.726,0.151-3.001,1.587-2.845,3.319     C561.845,163.614,563.357,164.877,565.086,164.725L565.086,164.725z"/>
<path fill="none" stroke="#000000" stroke-width="0.504" stroke-miterlimit="2.4142" d="M571.55,173.547     c1.661-0.143,2.921-1.649,2.776-3.31c-0.151-1.733-1.649-2.926-3.313-2.781c-1.727,0.149-3.002,1.587-2.849,3.32     C568.306,172.437,569.819,173.701,571.55,173.547L571.55,173.547z"/>
<path fill="none" stroke="#000000" stroke-width="0.504" stroke-miterlimit="2.4142" d="M560.255,174.535     c1.66-0.138,2.923-1.65,2.774-3.309c-0.147-1.733-1.648-2.926-3.311-2.778c-1.729,0.148-2.998,1.584-2.846,3.319     C557.017,173.425,558.521,174.691,560.255,174.535L560.255,174.535z"/>
</g></switch>
</svg>