<?xml version="1.0" encoding="utf-8"?>
<!DOCTYPE svg PUBLIC "-//W3C//DTD SVG 1.1//EN" "http://www.w3.org/Graphics/SVG/1.1/DTD/svg11.dtd">
<svg version="1.1" id="Armor" xmlns="http://www.w3.org/2000/svg" xmlns:xlink="http://www.w3.org/1999/xlink" x="0px" y="0px"
	 width="612px" height="792px" viewBox="0 0 612 792" enable-background="new 0 0 612 792" xml:space="preserve">
<switch><g>
<path fill-rule="evenodd" clip-rule="evenodd" fill="none" stroke="#000000" stroke-width="0.504" stroke-miterlimit="2.4142" d="     M525.893,189.942c1.561-0.391,2.523-1.989,2.116-3.621c-0.391-1.561-1.985-2.518-3.548-2.129     c-1.632,0.404-2.592,2.003-2.203,3.564C522.666,189.388,524.266,190.345,525.893,189.942L525.893,189.942z"/>
<path fill-rule="evenodd" clip-rule="evenodd" fill="none" stroke="#000000" stroke-width="0.504" stroke-miterlimit="2.4142" d="     M514.479,192.578c1.563-0.393,2.521-1.987,2.117-3.622c-0.391-1.561-1.986-2.52-3.547-2.13c-1.635,0.406-2.594,2.004-2.202,3.564     C511.252,192.022,512.854,192.98,514.479,192.578L514.479,192.578z"/>
<path fill-rule="evenodd" clip-rule="evenodd" fill="none" stroke="#000000" stroke-width="0.504" stroke-miterlimit="2.4142" d="     M521.586,197.307c1.561-0.394,2.521-1.988,2.113-3.623c-0.389-1.561-1.984-2.52-3.547-2.126c-1.633,0.402-2.594,2-2.201,3.562     C518.357,196.75,519.958,197.713,521.586,197.307L521.586,197.307z"/>
<path fill-rule="evenodd" clip-rule="evenodd" fill="none" stroke="#000000" stroke-width="0.504" stroke-miterlimit="2.4142" d="     M528.684,202.041c1.562-0.39,2.526-1.987,2.119-3.62c-0.389-1.563-1.988-2.521-3.552-2.132c-1.63,0.403-2.588,2.005-2.201,3.563     C525.458,201.487,527.056,202.445,528.684,202.041L528.684,202.041z"/>
<path fill-rule="evenodd" clip-rule="evenodd" fill="none" stroke="#000000" stroke-width="0.504" stroke-miterlimit="2.4142" d="     M517.272,204.674c1.562-0.389,2.526-1.986,2.117-3.618c-0.387-1.562-1.989-2.521-3.552-2.132c-1.627,0.405-2.59,2.005-2.2,3.564     C514.047,204.122,515.646,205.081,517.272,204.674L517.272,204.674z"/>
<path fill-rule="evenodd" clip-rule="evenodd" fill="none" stroke="#000000" stroke-width="0.504" stroke-miterlimit="2.4142" d="     M524.377,209.406c1.559-0.39,2.525-1.987,2.117-3.622c-0.392-1.56-1.99-2.519-3.553-2.13c-1.627,0.407-2.588,2.004-2.199,3.563     C521.152,208.853,522.75,209.811,524.377,209.406L524.377,209.406z"/>
<path fill-rule="evenodd" clip-rule="evenodd" fill="none" stroke="#000000" stroke-width="0.504" stroke-miterlimit="2.4142" d="     M531.482,214.135c1.563-0.39,2.52-1.984,2.111-3.62c-0.39-1.56-1.988-2.521-3.549-2.13c-1.629,0.408-2.586,2.003-2.199,3.563     C528.25,213.583,529.847,214.542,531.482,214.135L531.482,214.135z"/>
<path fill-rule="evenodd" clip-rule="evenodd" fill="none" stroke="#000000" stroke-width="0.504" stroke-miterlimit="2.4142" d="     M520.07,216.77c1.564-0.389,2.518-1.984,2.111-3.619c-0.387-1.563-1.988-2.518-3.552-2.131c-1.626,0.409-2.585,2.005-2.196,3.564     C516.836,216.219,518.436,217.179,520.07,216.77L520.07,216.77z"/>
<path fill-rule="evenodd" clip-rule="evenodd" fill="none" stroke="#000000" stroke-width="0.504" stroke-miterlimit="2.4142" d="     M527.172,221.502c1.564-0.392,2.521-1.985,2.113-3.622c-0.391-1.558-1.985-2.519-3.551-2.13     c-1.623,0.407-2.587,2.003-2.201,3.563C523.939,220.951,525.539,221.906,527.172,221.502L527.172,221.502z"/>
<path fill-rule="evenodd" clip-rule="evenodd" fill="none" stroke="#000000" stroke-width="0.504" stroke-miterlimit="2.4142" d="     M534.271,226.233c1.56-0.39,2.521-1.987,2.118-3.617c-0.393-1.566-1.99-2.521-3.551-2.134c-1.631,0.406-2.592,2.001-2.199,3.565     C531.041,225.678,532.642,226.64,534.271,226.233L534.271,226.233z"/>
<path fill-rule="evenodd" clip-rule="evenodd" fill="none" stroke="#000000" stroke-width="0.504" stroke-miterlimit="2.4142" d="     M522.857,228.868c1.563-0.391,2.52-1.985,2.119-3.62c-0.393-1.563-1.988-2.519-3.549-2.132c-1.632,0.409-2.592,2.001-2.201,3.565     C519.632,228.314,521.229,229.274,522.857,228.868L522.857,228.868z"/>
<path fill-rule="evenodd" clip-rule="evenodd" fill="none" stroke="#000000" stroke-width="0.504" stroke-miterlimit="2.4142" d="     M529.963,233.598c1.563-0.39,2.521-1.986,2.113-3.618c-0.394-1.563-1.984-2.521-3.549-2.132     c-1.627,0.405-2.588,2.002-2.197,3.564C526.732,233.043,528.331,234.004,529.963,233.598L529.963,233.598z"/>
<path fill-rule="evenodd" clip-rule="evenodd" fill="none" stroke="#000000" stroke-width="0.504" stroke-miterlimit="2.4142" d="     M537.068,238.327c1.561-0.386,2.52-1.982,2.109-3.615c-0.388-1.561-1.984-2.521-3.545-2.132     c-1.631,0.406-2.592,2.006-2.201,3.566C533.838,237.78,535.436,238.739,537.068,238.327L537.068,238.327z"/>
<path fill-rule="evenodd" clip-rule="evenodd" fill="none" stroke="#000000" stroke-width="0.504" stroke-miterlimit="2.4142" d="     M525.656,240.961c1.559-0.386,2.52-1.982,2.111-3.615c-0.391-1.561-1.984-2.522-3.549-2.131c-1.629,0.404-2.592,2.004-2.2,3.565     C522.426,240.415,524.021,241.374,525.656,240.961L525.656,240.961z"/>
<path fill-rule="evenodd" clip-rule="evenodd" fill="none" stroke="#000000" stroke-width="0.504" stroke-miterlimit="2.4142" d="     M532.76,245.692c1.564-0.386,2.52-1.982,2.109-3.613c-0.389-1.563-1.984-2.523-3.547-2.133c-1.629,0.404-2.59,2.006-2.197,3.566     C529.529,245.145,531.127,246.104,532.76,245.692L532.76,245.692z"/>
<path fill-rule="evenodd" clip-rule="evenodd" fill="none" stroke="#000000" stroke-width="0.504" stroke-miterlimit="2.4142" d="     M539.857,250.426c1.564-0.392,2.521-1.988,2.113-3.618c-0.391-1.563-1.982-2.524-3.548-2.132     c-1.63,0.403-2.591,2.002-2.198,3.563C536.629,249.873,538.227,250.833,539.857,250.426L539.857,250.426z"/>
<path fill-rule="evenodd" clip-rule="evenodd" fill="none" stroke="#000000" stroke-width="0.504" stroke-miterlimit="2.4142" d="     M528.446,253.06c1.564-0.39,2.522-1.986,2.113-3.618c-0.393-1.564-1.985-2.523-3.548-2.131c-1.632,0.404-2.591,2.002-2.2,3.563     C525.217,252.508,526.813,253.468,528.446,253.06L528.446,253.06z"/>
<path fill-rule="evenodd" clip-rule="evenodd" fill="none" stroke="#000000" stroke-width="0.504" stroke-miterlimit="2.4142" d="     M535.553,257.791c1.563-0.391,2.517-1.984,2.109-3.615c-0.389-1.563-1.984-2.525-3.547-2.133c-1.633,0.404-2.59,2.003-2.2,3.563     C532.318,257.242,533.919,258.199,535.553,257.791L535.553,257.791z"/>
<path fill-rule="evenodd" clip-rule="evenodd" fill="none" stroke="#000000" stroke-width="0.504" stroke-miterlimit="2.4142" d="     M542.654,262.522c1.561-0.39,2.523-1.986,2.111-3.617c-0.393-1.565-1.986-2.522-3.551-2.131     c-1.627,0.404-2.588,2.004-2.197,3.561C539.425,261.969,541.021,262.93,542.654,262.522L542.654,262.522z"/>
<path fill-rule="evenodd" clip-rule="evenodd" fill="none" stroke="#000000" stroke-width="0.504" stroke-miterlimit="2.4142" d="     M531.24,265.156c1.563-0.387,2.52-1.983,2.112-3.616c-0.394-1.563-1.986-2.521-3.548-2.132c-1.631,0.407-2.592,2.005-2.199,3.565     C528.012,264.605,529.609,265.566,531.24,265.156L531.24,265.156z"/>
<path fill-rule="evenodd" clip-rule="evenodd" fill="none" stroke="#000000" stroke-width="0.504" stroke-miterlimit="2.4142" d="     M538.346,269.887c1.563-0.389,2.516-1.983,2.109-3.617c-0.389-1.563-1.985-2.521-3.547-2.131c-1.633,0.406-2.59,2.004-2.2,3.563     C535.115,269.336,536.711,270.295,538.346,269.887L538.346,269.887z"/>
<path fill-rule="evenodd" clip-rule="evenodd" fill="none" stroke="#000000" stroke-width="0.504" stroke-miterlimit="2.4142" d="     M545.445,274.62c1.563-0.39,2.521-1.985,2.113-3.617c-0.391-1.564-1.986-2.522-3.547-2.134c-1.635,0.404-2.595,2.006-2.202,3.564     C542.219,274.065,543.813,275.026,545.445,274.62L545.445,274.62z"/>
<path fill-rule="evenodd" clip-rule="evenodd" fill="none" stroke="#000000" stroke-width="0.504" stroke-miterlimit="2.4142" d="     M534.033,277.253c1.563-0.388,2.523-1.984,2.114-3.616c-0.391-1.565-1.987-2.52-3.55-2.133c-1.631,0.404-2.592,2.005-2.201,3.563     C530.801,276.701,532.4,277.662,534.033,277.253L534.033,277.253z"/>
<path fill-rule="evenodd" clip-rule="evenodd" fill="none" stroke="#000000" stroke-width="0.504" stroke-miterlimit="2.4142" d="     M541.139,281.984c1.561-0.388,2.516-1.985,2.111-3.616c-0.391-1.563-1.988-2.521-3.549-2.132     c-1.633,0.405-2.594,2.005-2.201,3.563C537.906,281.433,539.504,282.393,541.139,281.984L541.139,281.984z"/>
<path fill-rule="evenodd" clip-rule="evenodd" fill="none" stroke="#000000" stroke-width="0.504" stroke-miterlimit="2.4142" d="     M548.237,286.715c1.563-0.385,2.521-1.984,2.114-3.616c-0.39-1.563-1.985-2.519-3.551-2.132c-1.629,0.406-2.59,2.007-2.199,3.565     C545.007,286.165,546.605,287.126,548.237,286.715L548.237,286.715z"/>
<path fill-rule="evenodd" clip-rule="evenodd" fill="none" stroke="#000000" stroke-width="0.504" stroke-miterlimit="2.4142" d="     M536.826,289.349c1.563-0.387,2.522-1.984,2.115-3.617c-0.391-1.561-1.988-2.52-3.553-2.129c-1.63,0.405-2.591,2.003-2.199,3.564     C533.597,288.798,535.193,289.76,536.826,289.349L536.826,289.349z"/>
<path fill-rule="evenodd" clip-rule="evenodd" fill="none" stroke="#000000" stroke-width="0.504" stroke-miterlimit="2.4142" d="     M543.928,294.083c1.564-0.39,2.524-1.984,2.113-3.619c-0.389-1.562-1.983-2.519-3.549-2.132     c-1.627,0.406-2.592,2.006-2.203,3.565C540.701,293.53,542.297,294.49,543.928,294.083L543.928,294.083z"/>
<path fill-rule="evenodd" clip-rule="evenodd" fill="none" stroke="#000000" stroke-width="0.504" stroke-miterlimit="2.4142" d="     M551.033,298.811c1.563-0.389,2.52-1.986,2.113-3.617c-0.393-1.561-1.99-2.518-3.553-2.128c-1.627,0.402-2.59,2.001-2.198,3.563     C547.803,298.26,549.4,299.22,551.033,298.811L551.033,298.811z"/>
<path fill-rule="evenodd" clip-rule="evenodd" fill="none" stroke="#000000" stroke-width="0.504" stroke-miterlimit="2.4142" d="     M539.619,301.447c1.563-0.388,2.521-1.987,2.113-3.62c-0.391-1.56-1.986-2.518-3.55-2.128c-1.628,0.404-2.593,1.999-2.2,3.562     C536.39,300.896,537.986,301.856,539.619,301.447L539.619,301.447z"/>
</g></switch>
</svg>