<?xml version="1.0" encoding="utf-8"?>
<!DOCTYPE svg PUBLIC "-//W3C//DTD SVG 1.1//EN" "http://www.w3.org/Graphics/SVG/1.1/DTD/svg11.dtd">
<svg version="1.1" id="Armor" xmlns="http://www.w3.org/2000/svg" xmlns:xlink="http://www.w3.org/1999/xlink" x="0px" y="0px"
	 width="612px" height="792px" viewBox="0 0 612 792" enable-background="new 0 0 612 792" xml:space="preserve">
<switch><g>
<path fill-rule="evenodd" clip-rule="evenodd" fill="none" stroke="#000000" stroke-width="0.504" stroke-miterlimit="2.4142" d="     M462.804,190.215c-1.559-0.388-2.515-1.983-2.104-3.612c0.388-1.563,1.985-2.526,3.548-2.135c1.629,0.407,2.588,2.004,2.2,3.56     C466.044,189.67,464.443,190.624,462.804,190.215L462.804,190.215z"/>
<path fill-rule="evenodd" clip-rule="evenodd" fill="none" stroke="#000000" stroke-width="0.504" stroke-miterlimit="2.4142" d="     M453.959,202.508c-1.563-0.391-2.521-1.984-2.111-3.617c0.391-1.564,1.985-2.521,3.545-2.135     c1.635,0.408,2.594,2.006,2.201,3.569C457.188,201.954,455.588,202.918,453.959,202.508L453.959,202.508z"/>
<path fill-rule="evenodd" clip-rule="evenodd" fill="none" stroke="#000000" stroke-width="0.504" stroke-miterlimit="2.4142" d="     M465.378,205.142c-1.566-0.384-2.521-1.982-2.116-3.61c0.395-1.566,1.986-2.527,3.546-2.137c1.633,0.408,2.598,2.01,2.203,3.567     C468.607,204.592,467.006,205.557,465.378,205.142L465.378,205.142z"/>
<path fill-rule="evenodd" clip-rule="evenodd" fill="none" stroke="#000000" stroke-width="0.504" stroke-miterlimit="2.4142" d="     M456.525,217.434c-1.563-0.389-2.518-1.985-2.108-3.616c0.388-1.567,1.984-2.523,3.548-2.132     c1.629,0.406,2.586,2.004,2.197,3.565C459.755,216.882,458.163,217.844,456.525,217.434L456.525,217.434z"/>
<path fill-rule="evenodd" clip-rule="evenodd" fill="none" stroke="#000000" stroke-width="0.504" stroke-miterlimit="2.4142" d="     M447.679,229.726c-1.561-0.39-2.523-1.983-2.114-3.617c0.39-1.565,1.988-2.52,3.555-2.132c1.627,0.404,2.591,2.005,2.196,3.563     C450.914,229.171,449.314,230.133,447.679,229.726L447.679,229.726z"/>
<path fill-rule="evenodd" clip-rule="evenodd" fill="none" stroke="#000000" stroke-width="0.504" stroke-miterlimit="2.4142" d="     M459.094,232.359c-1.564-0.389-2.523-1.986-2.115-3.617c0.39-1.563,1.985-2.52,3.549-2.131c1.631,0.402,2.591,2.002,2.201,3.563     C462.328,231.808,460.725,232.769,459.094,232.359L459.094,232.359z"/>
<path fill-rule="evenodd" clip-rule="evenodd" fill="none" stroke="#000000" stroke-width="0.504" stroke-miterlimit="2.4142" d="     M450.241,244.65c-1.558-0.393-2.511-1.986-2.111-3.617c0.392-1.564,1.991-2.525,3.547-2.131c1.639,0.402,2.596,2.004,2.203,3.562     C453.472,244.099,451.878,245.059,450.241,244.65L450.241,244.65z"/>
<path fill-rule="evenodd" clip-rule="evenodd" fill="none" stroke="#000000" stroke-width="0.504" stroke-miterlimit="2.4142" d="     M441.396,256.941c-1.563-0.387-2.519-1.985-2.117-3.621c0.396-1.557,1.991-2.516,3.557-2.125c1.631,0.407,2.593,2.002,2.2,3.564     C444.626,256.391,443.027,257.352,441.396,256.941L441.396,256.941z"/>
<path fill-rule="evenodd" clip-rule="evenodd" fill="none" stroke="#000000" stroke-width="0.504" stroke-miterlimit="2.4142" d="     M452.809,259.577c-1.563-0.389-2.522-1.985-2.114-3.617c0.389-1.559,1.989-2.52,3.553-2.131c1.629,0.407,2.592,2.005,2.195,3.565     C456.04,259.025,454.442,259.986,452.809,259.577L452.809,259.577z"/>
<path fill-rule="evenodd" clip-rule="evenodd" fill="none" stroke="#000000" stroke-width="0.504" stroke-miterlimit="2.4142" d="     M443.962,271.869c-1.562-0.391-2.526-1.985-2.11-3.619c0.384-1.563,1.978-2.521,3.544-2.131c1.63,0.403,2.593,2.003,2.206,3.562     C447.188,271.313,445.589,272.276,443.962,271.869L443.962,271.869z"/>
<path fill-rule="evenodd" clip-rule="evenodd" fill="none" stroke="#000000" stroke-width="0.504" stroke-miterlimit="2.4142" d="     M435.108,284.158c-1.561-0.385-2.519-1.985-2.112-3.621c0.395-1.556,1.987-2.513,3.556-2.127c1.622,0.405,2.59,1.999,2.191,3.564     C438.34,283.611,436.742,284.569,435.108,284.158L435.108,284.158z"/>
<path fill-rule="evenodd" clip-rule="evenodd" fill="none" stroke="#000000" stroke-width="0.504" stroke-miterlimit="2.4142" d="     M446.526,286.794c-1.565-0.382-2.524-1.983-2.116-3.617c0.392-1.56,1.99-2.517,3.55-2.131c1.628,0.41,2.593,2.002,2.201,3.566     C449.753,286.243,448.153,287.205,446.526,286.794L446.526,286.794z"/>
<path fill-rule="evenodd" clip-rule="evenodd" fill="none" stroke="#000000" stroke-width="0.504" stroke-miterlimit="2.4142" d="     M437.679,299.086c-1.563-0.391-2.526-1.984-2.11-3.619c0.383-1.563,1.977-2.521,3.543-2.131c1.63,0.404,2.593,2.003,2.207,3.563     C440.904,298.531,439.306,299.493,437.679,299.086L437.679,299.086z"/>
</g></switch>
</svg>