<?xml version="1.0" encoding="utf-8"?>
<!DOCTYPE svg PUBLIC "-//W3C//DTD SVG 1.1//EN" "http://www.w3.org/Graphics/SVG/1.1/DTD/svg11.dtd">
<svg version="1.1" id="Armor" xmlns="http://www.w3.org/2000/svg" xmlns:xlink="http://www.w3.org/1999/xlink" x="0px" y="0px"
	 width="612px" height="792px" viewBox="0 0 612 792" enable-background="new 0 0 612 792" xml:space="preserve">
<switch><g>
<path fill="none" stroke="#000000" stroke-width="0.504" stroke-miterlimit="2.4142" d="M557.724,80.766     c1.67-0.144,2.927-1.649,2.78-3.311c-0.15-1.733-1.644-2.926-3.314-2.781c-1.72,0.152-2.998,1.59-2.848,3.323     C554.489,79.657,555.998,80.917,557.724,80.766L557.724,80.766z"/>
<path fill="none" stroke="#000000" stroke-width="0.504" stroke-miterlimit="2.4142" d="M565.005,98.91     c1.664-0.146,2.923-1.653,2.773-3.316c-0.145-1.728-1.646-2.922-3.31-2.777c-1.722,0.15-3.002,1.585-2.852,3.319     C561.762,97.794,563.28,99.06,565.005,98.91L565.005,98.91z"/>
<path fill="none" stroke="#000000" stroke-width="0.504" stroke-miterlimit="2.4142" d="M553.707,99.899     c1.666-0.146,2.926-1.652,2.778-3.31c-0.149-1.735-1.646-2.926-3.314-2.783c-1.718,0.15-2.995,1.588-2.843,3.323     C550.472,98.79,551.979,100.05,553.707,99.899L553.707,99.899z"/>
<path fill="none" stroke="#000000" stroke-width="0.504" stroke-miterlimit="2.4142" d="M560.986,118.043     c1.665-0.144,2.924-1.65,2.778-3.312c-0.153-1.73-1.645-2.925-3.311-2.783c-1.723,0.154-3.004,1.591-2.848,3.323     C557.749,116.929,559.263,118.195,560.986,118.043L560.986,118.043z"/>
<path fill="none" stroke="#000000" stroke-width="0.504" stroke-miterlimit="2.4142" d="M568.264,136.184     c1.668-0.145,2.929-1.653,2.778-3.314c-0.147-1.729-1.644-2.924-3.314-2.777c-1.72,0.148-3.003,1.588-2.846,3.323     C565.029,135.069,566.539,136.335,568.264,136.184L568.264,136.184z"/>
<path fill="none" stroke="#000000" stroke-width="0.504" stroke-miterlimit="2.4142" d="M556.966,137.175     c1.671-0.142,2.929-1.647,2.781-3.311c-0.153-1.733-1.644-2.925-3.313-2.782c-1.729,0.153-3.001,1.588-2.848,3.321     C553.73,136.065,555.238,137.325,556.966,137.175L556.966,137.175z"/>
<path fill="none" stroke="#000000" stroke-width="0.504" stroke-miterlimit="2.4142" d="M564.248,155.317     c1.664-0.142,2.919-1.653,2.777-3.311c-0.152-1.731-1.646-2.926-3.313-2.781c-1.724,0.15-3.002,1.588-2.846,3.317     C561.004,154.206,562.52,155.468,564.248,155.317L564.248,155.317z"/>
<path fill="none" stroke="#000000" stroke-width="0.504" stroke-miterlimit="2.4142" d="M571.526,173.458     c1.665-0.143,2.922-1.65,2.778-3.309c-0.153-1.735-1.65-2.928-3.313-2.782c-1.726,0.147-3.003,1.586-2.851,3.32     C568.282,172.348,569.799,173.61,571.526,173.458L571.526,173.458z"/>
<path fill="none" stroke="#000000" stroke-width="0.504" stroke-miterlimit="2.4142" d="M560.231,174.446     c1.667-0.136,2.924-1.648,2.773-3.309c-0.148-1.73-1.644-2.926-3.311-2.776c-1.726,0.148-2.996,1.586-2.846,3.317     C556.993,173.334,558.5,174.601,560.231,174.446L560.231,174.446z"/>
</g></switch>
</svg>