<?xml version="1.0" encoding="utf-8"?>
<!DOCTYPE svg PUBLIC "-//W3C//DTD SVG 1.1//EN" "http://www.w3.org/Graphics/SVG/1.1/DTD/svg11.dtd">
<svg version="1.1" id="Armor" xmlns="http://www.w3.org/2000/svg" xmlns:xlink="http://www.w3.org/1999/xlink" x="0px" y="0px"
	 width="612px" height="792px" viewBox="0 0 612 792" enable-background="new 0 0 612 792" xml:space="preserve">
<switch><g>
<path fill-rule="evenodd" clip-rule="evenodd" fill="none" stroke="#000000" stroke-width="0.504" stroke-miterlimit="2.4142" d="     M462.806,190.216c-1.559-0.388-2.515-1.984-2.104-3.612c0.388-1.563,1.985-2.527,3.548-2.135c1.628,0.407,2.588,2.004,2.199,3.56     C466.045,189.67,464.445,190.625,462.806,190.216L462.806,190.216z"/>
<path fill-rule="evenodd" clip-rule="evenodd" fill="none" stroke="#000000" stroke-width="0.504" stroke-miterlimit="2.4142" d="     M453.512,204.452c-1.564-0.391-2.521-1.984-2.111-3.617c0.391-1.564,1.985-2.52,3.545-2.135c1.635,0.408,2.594,2.006,2.201,3.569     C456.742,203.899,455.141,204.862,453.512,204.452L453.512,204.452z"/>
<path fill-rule="evenodd" clip-rule="evenodd" fill="none" stroke="#000000" stroke-width="0.504" stroke-miterlimit="2.4142" d="     M464.932,207.086c-1.568-0.384-2.521-1.982-2.117-3.61c0.395-1.566,1.986-2.526,3.545-2.137c1.633,0.409,2.599,2.011,2.204,3.567     C468.16,206.537,466.559,207.501,464.932,207.086L464.932,207.086z"/>
<path fill-rule="evenodd" clip-rule="evenodd" fill="none" stroke="#000000" stroke-width="0.504" stroke-miterlimit="2.4142" d="     M455.629,221.322c-1.563-0.389-2.518-1.985-2.107-3.616c0.387-1.567,1.983-2.523,3.548-2.132     c1.628,0.406,2.585,2.004,2.196,3.565C458.858,220.77,457.268,221.732,455.629,221.322L455.629,221.322z"/>
<path fill-rule="evenodd" clip-rule="evenodd" fill="none" stroke="#000000" stroke-width="0.504" stroke-miterlimit="2.4142" d="     M446.334,235.559c-1.561-0.39-2.523-1.984-2.115-3.617c0.391-1.566,1.988-2.521,3.556-2.132c1.628,0.404,2.591,2.005,2.196,3.563     C449.569,235.003,447.97,235.965,446.334,235.559L446.334,235.559z"/>
<path fill-rule="evenodd" clip-rule="evenodd" fill="none" stroke="#000000" stroke-width="0.504" stroke-miterlimit="2.4142" d="     M457.749,238.192c-1.564-0.388-2.524-1.985-2.115-3.616c0.389-1.563,1.985-2.521,3.548-2.131     c1.631,0.402,2.591,2.002,2.201,3.563C460.982,237.641,459.38,238.602,457.749,238.192L457.749,238.192z"/>
<path fill-rule="evenodd" clip-rule="evenodd" fill="none" stroke="#000000" stroke-width="0.504" stroke-miterlimit="2.4142" d="     M448.447,252.427c-1.557-0.393-2.511-1.986-2.111-3.617c0.393-1.564,1.992-2.524,3.547-2.13c1.639,0.401,2.596,2.003,2.203,3.561     C451.678,251.875,450.084,252.835,448.447,252.427L448.447,252.427z"/>
<path fill-rule="evenodd" clip-rule="evenodd" fill="none" stroke="#000000" stroke-width="0.504" stroke-miterlimit="2.4142" d="     M439.152,266.662c-1.563-0.387-2.518-1.984-2.116-3.621c0.396-1.557,1.991-2.516,3.557-2.125c1.631,0.407,2.593,2.002,2.2,3.564     C442.383,266.111,440.785,267.072,439.152,266.662L439.152,266.662z"/>
<path fill-rule="evenodd" clip-rule="evenodd" fill="none" stroke="#000000" stroke-width="0.504" stroke-miterlimit="2.4142" d="     M450.565,269.299c-1.563-0.389-2.521-1.985-2.114-3.617c0.389-1.559,1.989-2.521,3.553-2.131     c1.629,0.407,2.593,2.005,2.196,3.565C453.797,268.747,452.199,269.708,450.565,269.299L450.565,269.299z"/>
<path fill-rule="evenodd" clip-rule="evenodd" fill="none" stroke="#000000" stroke-width="0.504" stroke-miterlimit="2.4142" d="     M441.27,283.534c-1.561-0.391-2.525-1.985-2.109-3.62c0.383-1.563,1.977-2.521,3.544-2.13c1.63,0.403,2.593,2.003,2.206,3.562     C444.496,282.979,442.896,283.941,441.27,283.534L441.27,283.534z"/>
<path fill-rule="evenodd" clip-rule="evenodd" fill="none" stroke="#000000" stroke-width="0.504" stroke-miterlimit="2.4142" d="     M431.969,297.768c-1.563-0.385-2.52-1.985-2.113-3.621c0.395-1.555,1.988-2.512,3.557-2.126c1.621,0.405,2.589,1.999,2.19,3.563     C435.199,297.221,433.602,298.179,431.969,297.768L431.969,297.768z"/>
<path fill-rule="evenodd" clip-rule="evenodd" fill="none" stroke="#000000" stroke-width="0.504" stroke-miterlimit="2.4142" d="     M443.386,300.404c-1.565-0.383-2.524-1.983-2.116-3.617c0.393-1.561,1.99-2.517,3.55-2.132c1.628,0.41,2.593,2.002,2.202,3.567     C446.611,299.854,445.014,300.815,443.386,300.404L443.386,300.404z"/>
</g></switch>
</svg>