<?xml version="1.0" encoding="utf-8"?>
<!DOCTYPE svg PUBLIC "-//W3C//DTD SVG 1.1//EN" "http://www.w3.org/Graphics/SVG/1.1/DTD/svg11.dtd">
<svg version="1.1" id="Armor" xmlns="http://www.w3.org/2000/svg" xmlns:xlink="http://www.w3.org/1999/xlink" x="0px" y="0px"
	 width="612px" height="792px" viewBox="0 0 612 792" enable-background="new 0 0 612 792" xml:space="preserve">
<switch><g>
<path fill-rule="evenodd" clip-rule="evenodd" fill="none" stroke="#000000" stroke-width="0.504" stroke-miterlimit="2.4142" d="     M462.529,190.951c-1.563-0.393-2.521-1.984-2.11-3.621c0.392-1.559,1.983-2.518,3.548-2.132c1.626,0.409,2.588,2.005,2.203,3.565     C465.764,190.4,464.167,191.354,462.529,190.951L462.529,190.951z"/>
<path fill-rule="evenodd" clip-rule="evenodd" fill="none" stroke="#000000" stroke-width="0.504" stroke-miterlimit="2.4142" d="     M454.896,198.009c-1.563-0.391-2.521-1.986-2.121-3.62c0.393-1.563,1.986-2.52,3.549-2.133c1.63,0.408,2.594,2.001,2.201,3.566     C458.122,197.456,456.522,198.414,454.896,198.009L454.896,198.009z"/>
<path fill-rule="evenodd" clip-rule="evenodd" fill="none" stroke="#000000" stroke-width="0.504" stroke-miterlimit="2.4142" d="     M466.307,200.643c-1.563-0.389-2.518-1.984-2.117-3.62c0.393-1.562,1.987-2.519,3.549-2.132c1.631,0.41,2.592,2.002,2.201,3.566     C469.535,200.09,467.937,201.051,466.307,200.643L466.307,200.643z"/>
<path fill-rule="evenodd" clip-rule="evenodd" fill="none" stroke="#000000" stroke-width="0.504" stroke-miterlimit="2.4142" d="     M458.664,207.698c-1.563-0.389-2.52-1.985-2.111-3.616c0.392-1.564,1.982-2.521,3.547-2.134c1.628,0.407,2.587,2.003,2.201,3.565     C461.896,207.145,460.299,208.105,458.664,207.698L458.664,207.698z"/>
<path fill-rule="evenodd" clip-rule="evenodd" fill="none" stroke="#000000" stroke-width="0.504" stroke-miterlimit="2.4142" d="     M451.022,214.752c-1.561-0.384-2.518-1.982-2.113-3.616c0.393-1.558,1.985-2.521,3.549-2.127     c1.632,0.401,2.592,2.003,2.202,3.564C454.253,214.207,452.654,215.167,451.022,214.752L451.022,214.752z"/>
<path fill-rule="evenodd" clip-rule="evenodd" fill="none" stroke="#000000" stroke-width="0.504" stroke-miterlimit="2.4142" d="     M462.435,217.388c-1.56-0.386-2.516-1.98-2.109-3.615c0.388-1.559,1.981-2.522,3.547-2.13c1.63,0.404,2.595,2.004,2.201,3.566     C465.666,216.842,464.07,217.801,462.435,217.388L462.435,217.388z"/>
<path fill-rule="evenodd" clip-rule="evenodd" fill="none" stroke="#000000" stroke-width="0.504" stroke-miterlimit="2.4142" d="     M454.796,224.443c-1.563-0.384-2.521-1.98-2.108-3.609c0.389-1.564,1.982-2.525,3.546-2.133c1.627,0.402,2.588,2.003,2.196,3.565     C458.025,223.899,456.43,224.857,454.796,224.443L454.796,224.443z"/>
<path fill-rule="evenodd" clip-rule="evenodd" fill="none" stroke="#000000" stroke-width="0.504" stroke-miterlimit="2.4142" d="     M447.156,231.504c-1.564-0.389-2.523-1.986-2.115-3.617c0.394-1.565,1.988-2.523,3.549-2.133     c1.633,0.406,2.592,2.004,2.199,3.563C450.389,230.954,448.789,231.913,447.156,231.504L447.156,231.504z"/>
<path fill-rule="evenodd" clip-rule="evenodd" fill="none" stroke="#000000" stroke-width="0.504" stroke-miterlimit="2.4142" d="     M458.571,234.141c-1.565-0.391-2.522-1.986-2.114-3.617c0.391-1.565,1.984-2.524,3.547-2.135     c1.633,0.407,2.592,2.004,2.201,3.564C461.803,233.591,460.203,234.548,458.571,234.141L458.571,234.141z"/>
<path fill-rule="evenodd" clip-rule="evenodd" fill="none" stroke="#000000" stroke-width="0.504" stroke-miterlimit="2.4142" d="     M450.924,241.195c-1.561-0.391-2.514-1.984-2.105-3.614c0.389-1.563,1.984-2.525,3.547-2.135c1.631,0.407,2.59,2.003,2.202,3.563     C454.162,240.648,452.561,241.604,450.924,241.195L450.924,241.195z"/>
<path fill-rule="evenodd" clip-rule="evenodd" fill="none" stroke="#000000" stroke-width="0.504" stroke-miterlimit="2.4142" d="     M443.287,248.252c-1.563-0.389-2.522-1.983-2.111-3.615c0.39-1.565,1.984-2.521,3.545-2.134c1.631,0.407,2.594,2.006,2.2,3.567     C446.516,247.7,444.915,248.664,443.287,248.252L443.287,248.252z"/>
<path fill-rule="evenodd" clip-rule="evenodd" fill="none" stroke="#000000" stroke-width="0.504" stroke-miterlimit="2.4142" d="     M454.704,250.888c-1.563-0.386-2.521-1.984-2.113-3.612c0.393-1.566,1.985-2.524,3.546-2.136     c1.631,0.408,2.595,2.007,2.201,3.566C457.933,250.336,456.332,251.301,454.704,250.888L454.704,250.888z"/>
<path fill-rule="evenodd" clip-rule="evenodd" fill="none" stroke="#000000" stroke-width="0.504" stroke-miterlimit="2.4142" d="     M447.063,257.945c-1.566-0.39-2.518-1.985-2.113-3.617c0.393-1.566,1.987-2.523,3.551-2.132c1.631,0.407,2.588,2.005,2.199,3.565     C450.289,257.393,448.697,258.354,447.063,257.945L447.063,257.945z"/>
<path fill-rule="evenodd" clip-rule="evenodd" fill="none" stroke="#000000" stroke-width="0.504" stroke-miterlimit="2.4142" d="     M439.424,265.002c-1.563-0.389-2.523-1.986-2.115-3.617c0.393-1.567,1.988-2.52,3.552-2.132c1.628,0.404,2.593,2.005,2.2,3.561     C442.658,264.447,441.057,265.408,439.424,265.002L439.424,265.002z"/>
<path fill-rule="evenodd" clip-rule="evenodd" fill="none" stroke="#000000" stroke-width="0.504" stroke-miterlimit="2.4142" d="     M450.836,267.637c-1.563-0.39-2.523-1.986-2.115-3.617c0.393-1.564,1.988-2.519,3.549-2.132c1.633,0.404,2.592,2.005,2.203,3.563     C454.068,267.084,452.469,268.045,450.836,267.637L450.836,267.637z"/>
<path fill-rule="evenodd" clip-rule="evenodd" fill="none" stroke="#000000" stroke-width="0.504" stroke-miterlimit="2.4142" d="     M443.193,274.692c-1.559-0.389-2.513-1.985-2.111-3.616c0.391-1.564,1.988-2.523,3.547-2.131     c1.638,0.404,2.596,2.004,2.203,3.562C446.425,274.143,444.829,275.104,443.193,274.692L443.193,274.692z"/>
<path fill-rule="evenodd" clip-rule="evenodd" fill="none" stroke="#000000" stroke-width="0.504" stroke-miterlimit="2.4142" d="     M435.558,281.751c-1.563-0.389-2.521-1.984-2.116-3.621c0.393-1.558,1.988-2.518,3.552-2.127     c1.633,0.406,2.595,2.003,2.202,3.565C438.786,281.199,437.19,282.16,435.558,281.751L435.558,281.751z"/>
<path fill-rule="evenodd" clip-rule="evenodd" fill="none" stroke="#000000" stroke-width="0.504" stroke-miterlimit="2.4142" d="     M446.968,284.386c-1.563-0.387-2.522-1.982-2.113-3.619c0.391-1.558,1.987-2.517,3.552-2.128c1.63,0.406,2.593,2.004,2.199,3.565     C450.198,283.836,448.604,284.796,446.968,284.386L446.968,284.386z"/>
<path fill-rule="evenodd" clip-rule="evenodd" fill="none" stroke="#000000" stroke-width="0.504" stroke-miterlimit="2.4142" d="     M439.33,291.445c-1.563-0.391-2.525-1.986-2.111-3.621c0.385-1.562,1.98-2.519,3.549-2.132c1.627,0.406,2.59,2.005,2.201,3.564     C442.557,290.89,440.959,291.851,439.33,291.445L439.33,291.445z"/>
<path fill-rule="evenodd" clip-rule="evenodd" fill="none" stroke="#000000" stroke-width="0.504" stroke-miterlimit="2.4142" d="     M431.688,298.5c-1.563-0.387-2.521-1.986-2.112-3.62c0.392-1.56,1.985-2.517,3.552-2.128c1.625,0.404,2.59,1.997,2.197,3.563     C434.918,297.949,433.32,298.908,431.688,298.5L431.688,298.5z"/>
<path fill-rule="evenodd" clip-rule="evenodd" fill="none" stroke="#000000" stroke-width="0.504" stroke-miterlimit="2.4142" d="     M443.104,301.136c-1.564-0.386-2.523-1.985-2.116-3.619c0.39-1.56,1.988-2.519,3.55-2.13c1.629,0.407,2.592,2,2.201,3.564     C446.332,300.585,444.732,301.546,443.104,301.136L443.104,301.136z"/>
</g></switch>
</svg>