<?xml version="1.0" encoding="utf-8"?>
<!DOCTYPE svg PUBLIC "-//W3C//DTD SVG 1.1//EN" "http://www.w3.org/Graphics/SVG/1.1/DTD/svg11.dtd">
<svg version="1.1" id="Armor" xmlns="http://www.w3.org/2000/svg" xmlns:xlink="http://www.w3.org/1999/xlink" x="0px" y="0px"
	 width="612px" height="792px" viewBox="0 0 612 792" enable-background="new 0 0 612 792" xml:space="preserve">
<switch><g>
<path fill-rule="evenodd" clip-rule="evenodd" fill="none" stroke="#000000" stroke-width="0.504" stroke-miterlimit="2.4142" d="    M431.141,85.649c-1.665-0.145-2.93-1.653-2.78-3.312c0.149-1.73,1.646-2.923,3.313-2.78c1.729,0.151,2.998,1.59,2.844,3.321    C434.372,84.539,432.869,85.799,431.141,85.649L431.141,85.649z"/>
<path fill-rule="evenodd" clip-rule="evenodd" fill="none" stroke="#000000" stroke-width="0.504" stroke-miterlimit="2.4142" d="    M425.125,89.391c-1.666-0.144-2.93-1.652-2.783-3.312c0.148-1.732,1.652-2.925,3.31-2.778c1.733,0.15,2.999,1.585,2.853,3.318    C428.354,88.279,426.854,89.542,425.125,89.391L425.125,89.391z"/>
<path fill-rule="evenodd" clip-rule="evenodd" fill="none" stroke="#000000" stroke-width="0.504" stroke-miterlimit="2.4142" d="    M419.104,93.133c-1.663-0.144-2.929-1.651-2.779-3.313c0.152-1.729,1.646-2.924,3.313-2.778c1.729,0.151,3.002,1.588,2.85,3.319    C422.341,92.021,420.829,93.283,419.104,93.133L419.104,93.133z"/>
<path fill-rule="evenodd" clip-rule="evenodd" fill="none" stroke="#000000" stroke-width="0.504" stroke-miterlimit="2.4142" d="    M430.4,94.122c-1.665-0.146-2.933-1.653-2.781-3.313c0.15-1.731,1.645-2.924,3.313-2.78c1.73,0.15,2.999,1.59,2.845,3.32    C433.632,93.01,432.126,94.271,430.4,94.122L430.4,94.122z"/>
<path fill-rule="evenodd" clip-rule="evenodd" fill="none" stroke="#000000" stroke-width="0.504" stroke-miterlimit="2.4142" d="    M424.385,97.861c-1.666-0.143-2.93-1.65-2.785-3.311c0.15-1.73,1.65-2.926,3.311-2.778c1.732,0.148,3.002,1.585,2.852,3.317    C427.615,96.749,426.111,98.014,424.385,97.861L424.385,97.861z"/>
<path fill-rule="evenodd" clip-rule="evenodd" fill="none" stroke="#000000" stroke-width="0.504" stroke-miterlimit="2.4142" d="     M435.676,98.852c-1.663-0.144-2.931-1.652-2.786-3.313c0.148-1.729,1.656-2.925,3.318-2.778c1.729,0.149,2.995,1.586,2.845,3.32     C438.906,97.739,437.403,99.001,435.676,98.852L435.676,98.852z"/>
<path fill-rule="evenodd" clip-rule="evenodd" fill="none" stroke="#000000" stroke-width="0.504" stroke-miterlimit="2.4142" d="    M418.365,101.604c-1.665-0.144-2.93-1.651-2.783-3.311c0.149-1.731,1.65-2.926,3.313-2.779c1.729,0.15,3.002,1.587,2.852,3.318    C421.6,100.493,420.091,101.756,418.365,101.604L418.365,101.604z"/>
<path fill-rule="evenodd" clip-rule="evenodd" fill="none" stroke="#000000" stroke-width="0.504" stroke-miterlimit="2.4142" d="    M429.661,102.593c-1.663-0.144-2.931-1.652-2.786-3.313c0.148-1.729,1.656-2.925,3.318-2.778c1.729,0.149,2.995,1.586,2.845,3.32    C432.892,101.48,431.389,102.742,429.661,102.593L429.661,102.593z"/>
<path fill-rule="evenodd" clip-rule="evenodd" fill="none" stroke="#000000" stroke-width="0.504" stroke-miterlimit="2.4142" d="    M423.641,106.336c-1.668-0.146-2.924-1.654-2.781-3.31c0.152-1.733,1.65-2.928,3.314-2.785c1.729,0.153,2.996,1.591,2.846,3.321    C426.876,105.222,425.365,106.486,423.641,106.336L423.641,106.336z"/>
<path fill-rule="evenodd" clip-rule="evenodd" fill="none" stroke="#000000" stroke-width="0.504" stroke-miterlimit="2.4142" d="     M434.93,107.323c-1.66-0.145-2.924-1.651-2.782-3.313c0.156-1.73,1.654-2.924,3.318-2.779c1.729,0.15,2.998,1.588,2.845,3.319     C438.167,106.209,436.661,107.476,434.93,107.323L434.93,107.323z"/>
<path fill-rule="evenodd" clip-rule="evenodd" fill="none" stroke="#000000" stroke-width="0.504" stroke-miterlimit="2.4142" d="    M417.62,110.076c-1.662-0.144-2.92-1.651-2.778-3.312c0.152-1.729,1.65-2.924,3.313-2.78c1.728,0.15,3.001,1.589,2.85,3.319    C420.861,108.963,419.352,110.23,417.62,110.076L417.62,110.076z"/>
<path fill-rule="evenodd" clip-rule="evenodd" fill="none" stroke="#000000" stroke-width="0.504" stroke-miterlimit="2.4142" d="    M428.915,111.064c-1.66-0.145-2.924-1.651-2.782-3.313c0.156-1.73,1.654-2.924,3.318-2.779c1.729,0.15,2.998,1.588,2.845,3.319    C432.152,109.95,430.646,111.217,428.915,111.064L428.915,111.064z"/>
<path fill-rule="evenodd" clip-rule="evenodd" fill="none" stroke="#000000" stroke-width="0.504" stroke-miterlimit="2.4142" d="    M422.896,114.806c-1.663-0.147-2.923-1.653-2.777-3.312c0.154-1.73,1.65-2.926,3.314-2.78c1.73,0.151,2.996,1.589,2.846,3.32    C426.129,113.691,424.628,114.957,422.896,114.806L422.896,114.806z"/>
<path fill-rule="evenodd" clip-rule="evenodd" fill="none" stroke="#000000" stroke-width="0.504" stroke-miterlimit="2.4142" d="    M416.879,118.547c-1.663-0.145-2.922-1.651-2.78-3.313c0.153-1.73,1.652-2.924,3.314-2.778c1.731,0.152,3.002,1.587,2.848,3.319    C420.115,117.436,418.611,118.698,416.879,118.547L416.879,118.547z"/>
<path fill-rule="evenodd" clip-rule="evenodd" fill="none" stroke="#000000" stroke-width="0.504" stroke-miterlimit="2.4142" d="    M428.176,119.536c-1.661-0.145-2.926-1.651-2.782-3.311c0.15-1.73,1.654-2.926,3.318-2.782c1.729,0.153,2.996,1.591,2.84,3.322    C431.407,118.426,429.906,119.689,428.176,119.536L428.176,119.536z"/>
<path fill-rule="evenodd" clip-rule="evenodd" fill="none" stroke="#000000" stroke-width="0.504" stroke-miterlimit="2.4142" d="    M422.158,123.276c-1.662-0.144-2.925-1.65-2.781-3.31c0.154-1.73,1.648-2.925,3.314-2.78c1.727,0.151,2.996,1.588,2.846,3.319    C425.394,122.166,423.884,123.428,422.158,123.276L422.158,123.276z"/>
<path fill-rule="evenodd" clip-rule="evenodd" fill="none" stroke="#000000" stroke-width="0.504" stroke-miterlimit="2.4142" d="    M416.141,127.02c-1.662-0.146-2.926-1.651-2.782-3.311c0.155-1.734,1.647-2.928,3.314-2.782c1.729,0.152,3.001,1.587,2.848,3.319    C419.379,125.907,417.867,127.172,416.141,127.02L416.141,127.02z"/>
<path fill-rule="evenodd" clip-rule="evenodd" fill="none" stroke="#000000" stroke-width="0.504" stroke-miterlimit="2.4142" d="    M427.436,128.007c-1.66-0.146-2.93-1.651-2.787-3.314c0.158-1.73,1.653-2.924,3.318-2.776c1.729,0.151,2.996,1.585,2.847,3.318    C430.67,126.895,429.166,128.158,427.436,128.007L427.436,128.007z"/>
<path fill-rule="evenodd" clip-rule="evenodd" fill="none" stroke="#000000" stroke-width="0.504" stroke-miterlimit="2.4142" d="    M421.416,131.751c-1.664-0.146-2.923-1.651-2.777-3.313c0.15-1.731,1.648-2.926,3.313-2.783c1.726,0.153,2.996,1.589,2.843,3.323    C424.652,130.639,423.148,131.902,421.416,131.751L421.416,131.751z"/>
<path fill-rule="evenodd" clip-rule="evenodd" fill="none" stroke="#000000" stroke-width="0.504" stroke-miterlimit="2.4142" d="    M415.398,135.491c-1.666-0.146-2.924-1.652-2.778-3.312c0.149-1.733,1.649-2.927,3.313-2.782c1.727,0.151,2.999,1.588,2.849,3.322    C418.637,134.378,417.129,135.643,415.398,135.491L415.398,135.491z"/>
<path fill-rule="evenodd" clip-rule="evenodd" fill="none" stroke="#000000" stroke-width="0.504" stroke-miterlimit="2.4142" d="    M426.693,136.479c-1.664-0.143-2.929-1.649-2.783-3.31c0.15-1.73,1.655-2.926,3.318-2.783c1.726,0.153,2.992,1.59,2.84,3.325    C429.928,135.369,428.423,136.631,426.693,136.479L426.693,136.479z"/>
<path fill-rule="evenodd" clip-rule="evenodd" fill="none" stroke="#000000" stroke-width="0.504" stroke-miterlimit="2.4142" d="    M420.676,140.22c-1.666-0.143-2.926-1.649-2.777-3.309c0.148-1.731,1.645-2.927,3.311-2.782c1.729,0.152,2.998,1.589,2.842,3.322    C423.91,139.11,422.403,140.372,420.676,140.22L420.676,140.22z"/>
<path fill-rule="evenodd" clip-rule="evenodd" fill="none" stroke="#000000" stroke-width="0.504" stroke-miterlimit="2.4142" d="    M414.66,143.962c-1.667-0.144-2.93-1.65-2.784-3.311c0.155-1.732,1.647-2.926,3.314-2.781c1.728,0.151,3,1.589,2.848,3.322    C417.893,142.85,416.383,144.112,414.66,143.962L414.66,143.962z"/>
<path fill-rule="evenodd" clip-rule="evenodd" fill="none" stroke="#000000" stroke-width="0.504" stroke-miterlimit="2.4142" d="    M425.955,144.95c-1.664-0.145-2.932-1.653-2.786-3.312c0.155-1.731,1.653-2.925,3.316-2.78c1.732,0.151,2.999,1.589,2.843,3.319    C429.189,143.838,427.682,145.1,425.955,144.95L425.955,144.95z"/>
<path fill-rule="evenodd" clip-rule="evenodd" fill="none" stroke="#000000" stroke-width="0.504" stroke-miterlimit="2.4142" d="    M419.935,148.69c-1.661-0.145-2.924-1.65-2.781-3.311c0.155-1.731,1.65-2.926,3.313-2.779c1.727,0.15,3,1.587,2.844,3.319    C423.169,147.577,421.665,148.842,419.935,148.69L419.935,148.69z"/>
<path fill-rule="evenodd" clip-rule="evenodd" fill="none" stroke="#000000" stroke-width="0.504" stroke-miterlimit="2.4142" d="    M413.914,152.434c-1.66-0.145-2.92-1.652-2.776-3.312c0.149-1.732,1.652-2.924,3.313-2.78c1.726,0.151,2.999,1.588,2.846,3.32    C417.156,151.321,415.648,152.586,413.914,152.434L413.914,152.434z"/>
<path fill-rule="evenodd" clip-rule="evenodd" fill="none" stroke="#000000" stroke-width="0.504" stroke-miterlimit="2.4142" d="    M425.209,153.421c-1.659-0.142-2.924-1.65-2.78-3.311c0.149-1.731,1.656-2.925,3.316-2.78c1.728,0.151,2.993,1.588,2.843,3.32    C428.445,152.31,426.941,153.574,425.209,153.421L425.209,153.421z"/>
<path fill-rule="evenodd" clip-rule="evenodd" fill="none" stroke="#000000" stroke-width="0.504" stroke-miterlimit="2.4142" d="    M419.192,157.163c-1.665-0.146-2.921-1.654-2.777-3.312c0.15-1.734,1.649-2.924,3.313-2.78c1.726,0.15,2.995,1.586,2.842,3.319    C422.429,156.05,420.923,157.314,419.192,157.163L419.192,157.163z"/>
<path fill-rule="evenodd" clip-rule="evenodd" fill="none" stroke="#000000" stroke-width="0.504" stroke-miterlimit="2.4142" d="    M413.174,160.904c-1.662-0.145-2.922-1.653-2.777-3.311c0.15-1.732,1.651-2.924,3.313-2.779c1.727,0.149,3,1.586,2.849,3.319    C416.414,159.791,414.904,161.057,413.174,160.904L413.174,160.904z"/>
<path fill-rule="evenodd" clip-rule="evenodd" fill="none" stroke="#000000" stroke-width="0.504" stroke-miterlimit="2.4142" d="    M424.469,161.892c-1.662-0.142-2.926-1.651-2.781-3.312c0.15-1.731,1.655-2.924,3.317-2.777c1.727,0.151,2.993,1.586,2.841,3.318    C427.705,160.78,426.201,162.045,424.469,161.892L424.469,161.892z"/>
<path fill-rule="evenodd" clip-rule="evenodd" fill="none" stroke="#000000" stroke-width="0.504" stroke-miterlimit="2.4142" d="    M418.452,165.634c-1.665-0.144-2.923-1.65-2.78-3.31c0.153-1.734,1.65-2.924,3.314-2.781c1.725,0.152,2.995,1.587,2.842,3.323    C421.687,164.523,420.182,165.786,418.452,165.634L418.452,165.634z"/>
<path fill-rule="evenodd" clip-rule="evenodd" fill="none" stroke="#000000" stroke-width="0.504" stroke-miterlimit="2.4142" d="    M412.434,169.376c-1.664-0.145-2.923-1.652-2.777-3.311c0.148-1.733,1.65-2.925,3.313-2.78c1.725,0.15,2.998,1.586,2.848,3.319    C415.672,168.264,414.164,169.528,412.434,169.376L412.434,169.376z"/>
<path fill-rule="evenodd" clip-rule="evenodd" fill="none" stroke="#000000" stroke-width="0.504" stroke-miterlimit="2.4142" d="    M423.729,170.363c-1.662-0.144-2.927-1.652-2.781-3.311c0.148-1.732,1.654-2.926,3.315-2.779c1.729,0.15,2.993,1.586,2.843,3.319    C426.965,169.251,425.459,170.517,423.729,170.363L423.729,170.363z"/>
<path fill-rule="evenodd" clip-rule="evenodd" fill="none" stroke="#000000" stroke-width="0.504" stroke-miterlimit="2.4142" d="    M417.711,174.105c-1.665-0.144-2.923-1.65-2.78-3.31c0.153-1.734,1.649-2.924,3.314-2.781c1.726,0.152,2.995,1.587,2.841,3.322    C420.945,172.995,419.44,174.258,417.711,174.105L417.711,174.105z"/>
</g></switch>
</svg>