<?xml version="1.0" encoding="utf-8"?>
<!DOCTYPE svg PUBLIC "-//W3C//DTD SVG 1.1//EN" "http://www.w3.org/Graphics/SVG/1.1/DTD/svg11.dtd">
<svg version="1.1" id="Armor" xmlns="http://www.w3.org/2000/svg" xmlns:xlink="http://www.w3.org/1999/xlink" x="0px" y="0px"
	 width="612px" height="792px" viewBox="0 0 612 792" enable-background="new 0 0 612 792" xml:space="preserve">
<switch><g>
<path fill-rule="evenodd" clip-rule="evenodd" fill="none" stroke="#000000" stroke-width="0.504" stroke-miterlimit="2.4142" d="      M446.04,91.841c-1.321,0-2.417-1.098-2.417-2.415s1.096-2.414,2.417-2.414c1.316,0,2.412,1.097,2.412,2.414      S447.356,91.841,446.04,91.841L446.04,91.841z"/>
<path fill-rule="evenodd" clip-rule="evenodd" fill="none" stroke="#000000" stroke-width="0.504" stroke-miterlimit="2.4142" d="      M457.09,91.841c-1.321,0-2.417-1.098-2.417-2.415s1.096-2.414,2.417-2.414c1.316,0,2.412,1.097,2.412,2.414      S458.406,91.841,457.09,91.841L457.09,91.841z"/>
<path fill-rule="evenodd" clip-rule="evenodd" fill="none" stroke="#000000" stroke-width="0.504" stroke-miterlimit="2.4142" d="      M468.137,91.841c-1.317,0-2.414-1.098-2.414-2.415s1.097-2.414,2.414-2.414c1.316,0,2.415,1.097,2.415,2.414      S469.453,91.841,468.137,91.841L468.137,91.841z"/>
<path fill-rule="evenodd" clip-rule="evenodd" fill="none" stroke="#000000" stroke-width="0.504" stroke-miterlimit="2.4142" d="      M451.564,95.916c-1.32,0-2.416-1.098-2.416-2.415s1.096-2.414,2.416-2.414c1.316,0,2.412,1.097,2.412,2.414      S452.881,95.916,451.564,95.916L451.564,95.916z"/>
<path fill-rule="evenodd" clip-rule="evenodd" fill="none" stroke="#000000" stroke-width="0.504" stroke-miterlimit="2.4142" d="      M462.615,95.916c-1.322,0-2.418-1.098-2.418-2.415s1.096-2.414,2.418-2.414c1.316,0,2.412,1.097,2.412,2.414      S463.932,95.916,462.615,95.916L462.615,95.916z"/>
<path fill-rule="evenodd" clip-rule="evenodd" fill="none" stroke="#000000" stroke-width="0.504" stroke-miterlimit="2.4142" d="      M446.04,99.991c-1.321,0-2.417-1.098-2.417-2.415s1.096-2.414,2.417-2.414c1.316,0,2.412,1.097,2.412,2.414      S447.356,99.991,446.04,99.991L446.04,99.991z"/>
<path fill-rule="evenodd" clip-rule="evenodd" fill="none" stroke="#000000" stroke-width="0.504" stroke-miterlimit="2.4142" d="      M457.09,99.991c-1.321,0-2.417-1.098-2.417-2.415s1.096-2.414,2.417-2.414c1.316,0,2.412,1.097,2.412,2.414      S458.406,99.991,457.09,99.991L457.09,99.991z"/>
<path fill-rule="evenodd" clip-rule="evenodd" fill="none" stroke="#000000" stroke-width="0.504" stroke-miterlimit="2.4142" d="      M468.137,99.991c-1.317,0-2.414-1.098-2.414-2.415s1.097-2.414,2.414-2.414c1.316,0,2.415,1.097,2.415,2.414      S469.453,99.991,468.137,99.991L468.137,99.991z"/>
<path fill-rule="evenodd" clip-rule="evenodd" fill="none" stroke="#000000" stroke-width="0.504" stroke-miterlimit="2.4142" d="      M451.564,104.066c-1.32,0-2.416-1.098-2.416-2.415s1.096-2.414,2.416-2.414c1.316,0,2.412,1.097,2.412,2.414      S452.881,104.066,451.564,104.066L451.564,104.066z"/>
<path fill-rule="evenodd" clip-rule="evenodd" fill="none" stroke="#000000" stroke-width="0.504" stroke-miterlimit="2.4142" d="      M462.615,104.066c-1.322,0-2.418-1.098-2.418-2.415s1.096-2.414,2.418-2.414c1.316,0,2.412,1.097,2.412,2.414      S463.932,104.066,462.615,104.066L462.615,104.066z"/>
<path fill-rule="evenodd" clip-rule="evenodd" fill="none" stroke="#000000" stroke-width="0.504" stroke-miterlimit="2.4142" d="      M446.04,108.141c-1.321,0-2.417-1.098-2.417-2.415s1.096-2.414,2.417-2.414c1.316,0,2.412,1.097,2.412,2.414      S447.356,108.141,446.04,108.141L446.04,108.141z"/>
<path fill-rule="evenodd" clip-rule="evenodd" fill="none" stroke="#000000" stroke-width="0.504" stroke-miterlimit="2.4142" d="      M457.09,108.141c-1.321,0-2.417-1.098-2.417-2.415s1.096-2.414,2.417-2.414c1.316,0,2.412,1.097,2.412,2.414      S458.406,108.141,457.09,108.141L457.09,108.141z"/>
<path fill-rule="evenodd" clip-rule="evenodd" fill="none" stroke="#000000" stroke-width="0.504" stroke-miterlimit="2.4142" d="      M468.137,108.141c-1.317,0-2.414-1.098-2.414-2.415s1.097-2.414,2.414-2.414c1.316,0,2.415,1.097,2.415,2.414      S469.453,108.141,468.137,108.141L468.137,108.141z"/>
<path fill-rule="evenodd" clip-rule="evenodd" fill="none" stroke="#000000" stroke-width="0.504" stroke-miterlimit="2.4142" d="      M451.564,112.215c-1.32,0-2.416-1.098-2.416-2.415s1.096-2.414,2.416-2.414c1.316,0,2.412,1.097,2.412,2.414      S452.881,112.215,451.564,112.215L451.564,112.215z"/>
<path fill-rule="evenodd" clip-rule="evenodd" fill="none" stroke="#000000" stroke-width="0.504" stroke-miterlimit="2.4142" d="      M462.615,112.215c-1.322,0-2.418-1.098-2.418-2.415s1.096-2.414,2.418-2.414c1.316,0,2.412,1.097,2.412,2.414      S463.932,112.215,462.615,112.215L462.615,112.215z"/>
<path fill-rule="evenodd" clip-rule="evenodd" fill="none" stroke="#000000" stroke-width="0.504" stroke-miterlimit="2.4142" d="      M446.04,116.29c-1.321,0-2.417-1.098-2.417-2.415s1.096-2.414,2.417-2.414c1.316,0,2.412,1.097,2.412,2.414      S447.356,116.29,446.04,116.29L446.04,116.29z"/>
<path fill-rule="evenodd" clip-rule="evenodd" fill="none" stroke="#000000" stroke-width="0.504" stroke-miterlimit="2.4142" d="      M457.09,116.29c-1.321,0-2.417-1.098-2.417-2.415s1.096-2.414,2.417-2.414c1.316,0,2.412,1.097,2.412,2.414      S458.406,116.29,457.09,116.29L457.09,116.29z"/>
<path fill-rule="evenodd" clip-rule="evenodd" fill="none" stroke="#000000" stroke-width="0.504" stroke-miterlimit="2.4142" d="      M468.137,116.29c-1.317,0-2.414-1.098-2.414-2.415s1.097-2.414,2.414-2.414c1.316,0,2.415,1.097,2.415,2.414      S469.453,116.29,468.137,116.29L468.137,116.29z"/>
<path fill-rule="evenodd" clip-rule="evenodd" fill="none" stroke="#000000" stroke-width="0.504" stroke-miterlimit="2.4142" d="      M451.564,120.365c-1.32,0-2.416-1.098-2.416-2.415s1.096-2.414,2.416-2.414c1.316,0,2.412,1.097,2.412,2.414      S452.881,120.365,451.564,120.365L451.564,120.365z"/>
<path fill-rule="evenodd" clip-rule="evenodd" fill="none" stroke="#000000" stroke-width="0.504" stroke-miterlimit="2.4142" d="      M462.615,120.365c-1.322,0-2.418-1.098-2.418-2.415s1.096-2.414,2.418-2.414c1.316,0,2.412,1.097,2.412,2.414      S463.932,120.365,462.615,120.365L462.615,120.365z"/>
<path fill-rule="evenodd" clip-rule="evenodd" fill="none" stroke="#000000" stroke-width="0.504" stroke-miterlimit="2.4142" d="      M446.04,124.44c-1.321,0-2.417-1.098-2.417-2.415s1.096-2.414,2.417-2.414c1.316,0,2.412,1.097,2.412,2.414      S447.356,124.44,446.04,124.44L446.04,124.44z"/>
<path fill-rule="evenodd" clip-rule="evenodd" fill="none" stroke="#000000" stroke-width="0.504" stroke-miterlimit="2.4142" d="      M457.09,124.44c-1.321,0-2.417-1.098-2.417-2.415s1.096-2.414,2.417-2.414c1.316,0,2.412,1.097,2.412,2.414      S458.406,124.44,457.09,124.44L457.09,124.44z"/>
<path fill-rule="evenodd" clip-rule="evenodd" fill="none" stroke="#000000" stroke-width="0.504" stroke-miterlimit="2.4142" d="      M468.137,124.44c-1.317,0-2.414-1.098-2.414-2.415s1.097-2.414,2.414-2.414c1.316,0,2.415,1.097,2.415,2.414      S469.453,124.44,468.137,124.44L468.137,124.44z"/>
<path fill-rule="evenodd" clip-rule="evenodd" fill="none" stroke="#000000" stroke-width="0.504" stroke-miterlimit="2.4142" d="     M462.61,131.319c1.321,0,2.417-1.098,2.417-2.415s-1.096-2.414-2.417-2.414c-1.316,0-2.412,1.097-2.412,2.414     S461.294,131.319,462.61,131.319L462.61,131.319z"/>
<path fill-rule="evenodd" clip-rule="evenodd" fill="none" stroke="#000000" stroke-width="0.504" stroke-miterlimit="2.4142" d="     M463.999,138.198c1.321,0,2.417-1.098,2.417-2.415s-1.096-2.414-2.417-2.414c-1.316,0-2.412,1.097-2.412,2.414     S462.683,138.198,463.999,138.198L463.999,138.198z"/>
<path fill-rule="evenodd" clip-rule="evenodd" fill="none" stroke="#000000" stroke-width="0.504" stroke-miterlimit="2.4142" d="     M465.392,140.248c-1.32,0-2.416,1.098-2.416,2.415c0,1.317,1.096,2.415,2.416,2.415c1.316,0,2.412-1.097,2.412-2.415     C467.804,141.345,466.708,140.248,465.392,140.248L465.392,140.248z"/>
<path fill-rule="evenodd" clip-rule="evenodd" fill="none" stroke="#000000" stroke-width="0.504" stroke-miterlimit="2.4142" d="     M466.779,147.126c-1.32,0-2.416,1.098-2.416,2.415c0,1.317,1.096,2.415,2.416,2.415c1.316,0,2.412-1.097,2.412-2.415     C469.191,148.224,468.096,147.126,466.779,147.126L466.779,147.126z"/>
<path fill-rule="evenodd" clip-rule="evenodd" fill="none" stroke="#000000" stroke-width="0.504" stroke-miterlimit="2.4142" d="     M469.553,158.871c-1.316,0-2.413-1.097-2.413-2.488c0-1.317,1.097-2.414,2.413-2.414s2.416,1.097,2.416,2.414     C471.969,157.774,470.869,158.871,469.553,158.871L469.553,158.871z"/>
<path fill-rule="evenodd" clip-rule="evenodd" fill="none" stroke="#000000" stroke-width="0.504" stroke-miterlimit="2.4142" d="      M452.545,160.848c-1.316,0-2.413,1.097-2.413,2.488c0,1.317,1.097,2.414,2.413,2.414s2.416-1.097,2.416-2.414      C454.961,161.945,453.861,160.848,452.545,160.848L452.545,160.848z"/>
<path fill-rule="evenodd" clip-rule="evenodd" fill="none" stroke="#000000" stroke-width="0.504" stroke-miterlimit="2.4142" d="      M461.049,160.848c-1.316,0-2.413,1.097-2.413,2.488c0,1.317,1.097,2.414,2.413,2.414s2.416-1.097,2.416-2.414      C463.465,161.945,462.365,160.848,461.049,160.848L461.049,160.848z"/>
<path fill-rule="evenodd" clip-rule="evenodd" fill="none" stroke="#000000" stroke-width="0.504" stroke-miterlimit="2.4142" d="      M469.553,160.848c-1.316,0-2.413,1.097-2.413,2.488c0,1.317,1.097,2.414,2.413,2.414s2.416-1.097,2.416-2.414      C471.969,161.944,470.869,160.848,469.553,160.848L469.553,160.848z"/>
<path fill-rule="evenodd" clip-rule="evenodd" fill="none" stroke="#000000" stroke-width="0.504" stroke-miterlimit="2.4142" d="      M452.545,167.727c-1.316,0-2.413,1.097-2.413,2.488c0,1.317,1.097,2.414,2.413,2.414s2.416-1.097,2.416-2.414      C454.961,168.824,453.861,167.727,452.545,167.727L452.545,167.727z"/>
<path fill-rule="evenodd" clip-rule="evenodd" fill="none" stroke="#000000" stroke-width="0.504" stroke-miterlimit="2.4142" d="      M461.049,167.727c-1.316,0-2.413,1.097-2.413,2.488c0,1.317,1.097,2.414,2.413,2.414s2.416-1.097,2.416-2.414      C463.465,168.824,462.365,167.727,461.049,167.727L461.049,167.727z"/>
<path fill-rule="evenodd" clip-rule="evenodd" fill="none" stroke="#000000" stroke-width="0.504" stroke-miterlimit="2.4142" d="      M469.553,167.727c-1.316,0-2.413,1.097-2.413,2.488c0,1.317,1.097,2.414,2.413,2.414s2.416-1.097,2.416-2.414      C471.969,168.823,470.869,167.727,469.553,167.727L469.553,167.727z"/>
</g></switch>
</svg>