<?xml version="1.0" encoding="utf-8"?>
<!DOCTYPE svg PUBLIC "-//W3C//DTD SVG 1.1//EN" "http://www.w3.org/Graphics/SVG/1.1/DTD/svg11.dtd">
<svg version="1.1" id="Armor" xmlns="http://www.w3.org/2000/svg" xmlns:xlink="http://www.w3.org/1999/xlink" x="0px" y="0px"
	 width="612px" height="792px" viewBox="0 0 612 792" enable-background="new 0 0 612 792" xml:space="preserve">
<switch><g>
<path fill="none" stroke="#000000" stroke-width="0.504" stroke-miterlimit="2.4142" d="M557.475,80.911     c1.662-0.143,2.927-1.651,2.781-3.311c-0.146-1.73-1.652-2.925-3.311-2.779c-1.729,0.15-3.002,1.588-2.853,3.319     C554.242,79.801,555.747,81.064,557.475,80.911L557.475,80.911z"/>
<path fill="none" stroke="#000000" stroke-width="0.504" stroke-miterlimit="2.4142" d="M563.703,87.074     c1.664-0.142,2.93-1.652,2.784-3.312c-0.151-1.73-1.653-2.925-3.313-2.779c-1.732,0.149-3.007,1.587-2.853,3.318     C560.469,85.962,561.977,87.227,563.703,87.074L563.703,87.074z"/>
<path fill="none" stroke="#000000" stroke-width="0.504" stroke-miterlimit="2.4142" d="M552.406,88.063     c1.665-0.146,2.93-1.653,2.787-3.313c-0.151-1.732-1.656-2.925-3.316-2.779c-1.73,0.149-3,1.587-2.848,3.319     C549.174,86.951,550.68,88.213,552.406,88.063L552.406,88.063z"/>
<path fill="none" stroke="#000000" stroke-width="0.504" stroke-miterlimit="2.4142" d="M558.639,94.225     c1.666-0.144,2.927-1.651,2.781-3.311c-0.15-1.73-1.648-2.925-3.314-2.781c-1.727,0.152-2.995,1.59-2.846,3.32     C555.4,93.112,556.912,94.378,558.639,94.225L558.639,94.225z"/>
<path fill="none" stroke="#000000" stroke-width="0.504" stroke-miterlimit="2.4142" d="M564.871,100.389     c1.663-0.146,2.923-1.652,2.779-3.313c-0.152-1.73-1.651-2.925-3.314-2.782c-1.727,0.153-3,1.592-2.85,3.321     C561.629,99.274,563.142,100.54,564.871,100.389L564.871,100.389z"/>
<path fill="none" stroke="#000000" stroke-width="0.504" stroke-miterlimit="2.4142" d="M553.575,101.375     c1.662-0.144,2.927-1.648,2.78-3.311c-0.152-1.729-1.651-2.924-3.314-2.78c-1.729,0.151-2.999,1.588-2.847,3.32     C550.338,100.264,551.847,101.528,553.575,101.375L553.575,101.375z"/>
<path fill="none" stroke="#000000" stroke-width="0.504" stroke-miterlimit="2.4142" d="M559.809,107.538     c1.66-0.145,2.92-1.651,2.775-3.312c-0.152-1.731-1.65-2.925-3.313-2.781c-1.729,0.152-2.997,1.59-2.846,3.321     C556.572,106.425,558.075,107.69,559.809,107.538L559.809,107.538z"/>
<path fill="none" stroke="#000000" stroke-width="0.504" stroke-miterlimit="2.4142" d="M566.037,113.698     c1.66-0.146,2.922-1.651,2.777-3.311c-0.154-1.729-1.652-2.924-3.313-2.779c-1.732,0.151-3.004,1.589-2.85,3.319     C562.801,112.589,564.305,113.851,566.037,113.698L566.037,113.698z"/>
<path fill="none" stroke="#000000" stroke-width="0.504" stroke-miterlimit="2.4142" d="M554.74,114.688     c1.66-0.144,2.924-1.652,2.781-3.31c-0.154-1.73-1.653-2.926-3.319-2.78c-1.729,0.152-2.997,1.588-2.84,3.32     C551.506,113.578,553.008,114.84,554.74,114.688L554.74,114.688z"/>
<path fill="none" stroke="#000000" stroke-width="0.504" stroke-miterlimit="2.4142" d="M560.971,120.852     c1.66-0.146,2.924-1.653,2.779-3.313c-0.154-1.733-1.646-2.927-3.313-2.781c-1.73,0.15-3,1.589-2.851,3.319     C557.732,119.737,559.243,121.003,560.971,120.852L560.971,120.852z"/>
<path fill="none" stroke="#000000" stroke-width="0.504" stroke-miterlimit="2.4142" d="M567.199,127.013     c1.661-0.146,2.928-1.651,2.778-3.313c-0.149-1.732-1.646-2.926-3.311-2.779c-1.729,0.151-3.004,1.586-2.852,3.318     C563.963,125.9,565.474,127.164,567.199,127.013L567.199,127.013z"/>
<path fill="none" stroke="#000000" stroke-width="0.504" stroke-miterlimit="2.4142" d="M555.902,128.002     c1.663-0.146,2.93-1.651,2.782-3.313c-0.149-1.731-1.647-2.925-3.313-2.78c-1.729,0.153-2.997,1.589-2.848,3.32     C552.669,126.889,554.176,128.153,555.902,128.002L555.902,128.002z"/>
<path fill="none" stroke="#000000" stroke-width="0.504" stroke-miterlimit="2.4142" d="M562.133,134.163     c1.666-0.146,2.926-1.65,2.781-3.311c-0.152-1.731-1.649-2.925-3.314-2.781c-1.727,0.152-2.996,1.589-2.846,3.322     C558.898,133.052,560.402,134.315,562.133,134.163L562.133,134.163z"/>
<path fill="none" stroke="#000000" stroke-width="0.504" stroke-miterlimit="2.4142" d="M568.363,140.326     c1.665-0.145,2.927-1.651,2.778-3.312c-0.148-1.733-1.648-2.928-3.313-2.782c-1.728,0.152-2.999,1.588-2.849,3.322     C565.126,139.214,566.635,140.478,568.363,140.326L568.363,140.326z"/>
<path fill="none" stroke="#000000" stroke-width="0.504" stroke-miterlimit="2.4142" d="M557.068,141.314     c1.663-0.146,2.928-1.649,2.78-3.31c-0.149-1.733-1.651-2.928-3.314-2.784c-1.727,0.152-2.994,1.589-2.842,3.323     C553.835,140.204,555.34,141.467,557.068,141.314L557.068,141.314z"/>
<path fill="none" stroke="#000000" stroke-width="0.504" stroke-miterlimit="2.4142" d="M563.299,147.476     c1.663-0.145,2.926-1.65,2.779-3.311c-0.152-1.731-1.648-2.926-3.312-2.781c-1.729,0.151-3.002,1.589-2.848,3.321     C560.063,146.363,561.572,147.627,563.299,147.476L563.299,147.476z"/>
<path fill="none" stroke="#000000" stroke-width="0.504" stroke-miterlimit="2.4142" d="M569.529,153.639     c1.664-0.145,2.924-1.652,2.778-3.313c-0.151-1.731-1.647-2.926-3.313-2.781c-1.729,0.151-3.002,1.59-2.849,3.323     C566.291,152.525,567.799,153.789,569.529,153.639L569.529,153.639z"/>
<path fill="none" stroke="#000000" stroke-width="0.504" stroke-miterlimit="2.4142" d="M558.234,154.626     c1.659-0.145,2.926-1.649,2.78-3.311c-0.153-1.731-1.653-2.927-3.315-2.781c-1.729,0.151-2.998,1.587-2.843,3.321     C554.996,153.516,556.502,154.777,558.234,154.626L558.234,154.626z"/>
<path fill="none" stroke="#000000" stroke-width="0.504" stroke-miterlimit="2.4142" d="M564.463,160.788     c1.663-0.144,2.926-1.651,2.781-3.311c-0.155-1.731-1.652-2.925-3.314-2.781c-1.727,0.152-2.999,1.589-2.844,3.321     C561.225,159.676,562.734,160.939,564.463,160.788L564.463,160.788z"/>
<path fill="none" stroke="#000000" stroke-width="0.504" stroke-miterlimit="2.4142" d="M570.695,166.949     c1.661-0.144,2.921-1.65,2.776-3.311c-0.149-1.731-1.651-2.924-3.313-2.779c-1.728,0.15-3,1.587-2.849,3.319     C567.453,165.839,568.963,167.102,570.695,166.949L570.695,166.949z"/>
<path fill="none" stroke="#000000" stroke-width="0.504" stroke-miterlimit="2.4142" d="M559.4,167.938     c1.659-0.142,2.923-1.651,2.776-3.311c-0.147-1.732-1.651-2.925-3.313-2.779c-1.729,0.151-2.997,1.587-2.845,3.319     C556.162,166.825,557.668,168.09,559.4,167.938L559.4,167.938z"/>
<path fill="none" stroke="#000000" stroke-width="0.504" stroke-miterlimit="2.4142" d="M565.629,174.101     c1.662-0.144,2.924-1.651,2.779-3.311c-0.154-1.731-1.651-2.925-3.314-2.781c-1.727,0.152-2.998,1.589-2.843,3.321     C562.39,172.988,563.898,174.252,565.629,174.101L565.629,174.101z"/>
</g></switch>
</svg>