<?xml version="1.0" encoding="utf-8"?>
<!DOCTYPE svg PUBLIC "-//W3C//DTD SVG 1.1//EN" "http://www.w3.org/Graphics/SVG/1.1/DTD/svg11.dtd">
<svg version="1.1" id="Armor" xmlns="http://www.w3.org/2000/svg" xmlns:xlink="http://www.w3.org/1999/xlink" x="0px" y="0px"
	 width="612px" height="792px" viewBox="0 0 612 792" enable-background="new 0 0 612 792" xml:space="preserve">
<switch><g>
<path fill-rule="evenodd" clip-rule="evenodd" fill="none" stroke="#000000" stroke-width="0.504" stroke-miterlimit="2.4142" d="     M462.697,191.116c-1.558-0.389-2.525-1.987-2.117-3.622c0.393-1.56,1.988-2.52,3.554-2.128c1.625,0.403,2.587,2.003,2.198,3.563     C465.923,190.563,464.324,191.521,462.697,191.116L462.697,191.116z"/>
<path fill-rule="evenodd" clip-rule="evenodd" fill="none" stroke="#000000" stroke-width="0.504" stroke-miterlimit="2.4142" d="     M455.414,196.601c-1.563-0.389-2.516-1.983-2.111-3.618c0.389-1.563,1.989-2.518,3.552-2.131     c1.626,0.409,2.587,2.006,2.196,3.563C458.648,196.051,457.049,197.011,455.414,196.601L455.414,196.601z"/>
<path fill-rule="evenodd" clip-rule="evenodd" fill="none" stroke="#000000" stroke-width="0.504" stroke-miterlimit="2.4142" d="     M466.828,199.237c-1.563-0.389-2.516-1.983-2.111-3.618c0.39-1.563,1.99-2.518,3.553-2.131c1.625,0.409,2.586,2.005,2.195,3.563     C470.063,198.687,468.463,199.647,466.828,199.237L466.828,199.237z"/>
<path fill-rule="evenodd" clip-rule="evenodd" fill="none" stroke="#000000" stroke-width="0.504" stroke-miterlimit="2.4142" d="     M459.554,204.725c-1.565-0.393-2.522-1.984-2.112-3.621c0.391-1.558,1.984-2.518,3.549-2.132c1.623,0.41,2.588,2.005,2.201,3.565     C462.787,204.174,461.188,205.128,459.554,204.725L459.554,204.725z"/>
<path fill-rule="evenodd" clip-rule="evenodd" fill="none" stroke="#000000" stroke-width="0.504" stroke-miterlimit="2.4142" d="     M452.28,210.211c-1.563-0.391-2.52-1.985-2.119-3.62c0.392-1.563,1.986-2.519,3.549-2.132c1.63,0.41,2.592,2.002,2.2,3.566     C455.506,209.659,453.908,210.619,452.28,210.211L452.28,210.211z"/>
<path fill-rule="evenodd" clip-rule="evenodd" fill="none" stroke="#000000" stroke-width="0.504" stroke-miterlimit="2.4142" d="     M463.693,212.846c-1.563-0.39-2.52-1.984-2.119-3.62c0.393-1.562,1.987-2.518,3.549-2.132c1.631,0.41,2.592,2.002,2.201,3.566     C466.92,212.293,465.322,213.253,463.693,212.846L463.693,212.846z"/>
<path fill-rule="evenodd" clip-rule="evenodd" fill="none" stroke="#000000" stroke-width="0.504" stroke-miterlimit="2.4142" d="     M456.412,218.333c-1.563-0.39-2.519-1.987-2.113-3.617c0.395-1.563,1.984-2.521,3.549-2.133c1.627,0.406,2.588,2.002,2.199,3.564     C459.644,217.779,458.045,218.739,456.412,218.333L456.412,218.333z"/>
<path fill-rule="evenodd" clip-rule="evenodd" fill="none" stroke="#000000" stroke-width="0.504" stroke-miterlimit="2.4142" d="     M449.131,223.816c-1.559-0.386-2.518-1.982-2.111-3.615c0.391-1.561,1.984-2.523,3.548-2.13c1.632,0.403,2.593,2.004,2.202,3.564     C452.363,223.27,450.766,224.229,449.131,223.816L449.131,223.816z"/>
<path fill-rule="evenodd" clip-rule="evenodd" fill="none" stroke="#000000" stroke-width="0.504" stroke-miterlimit="2.4142" d="     M460.545,226.452c-1.559-0.386-2.518-1.982-2.111-3.615c0.391-1.561,1.984-2.523,3.549-2.131     c1.631,0.404,2.592,2.005,2.201,3.565C463.777,225.905,462.181,226.865,460.545,226.452L460.545,226.452z"/>
<path fill-rule="evenodd" clip-rule="evenodd" fill="none" stroke="#000000" stroke-width="0.504" stroke-miterlimit="2.4142" d="     M453.268,231.938c-1.564-0.385-2.52-1.981-2.109-3.611c0.39-1.563,1.982-2.524,3.547-2.133c1.629,0.403,2.589,2.004,2.196,3.565     C456.498,231.393,454.9,232.351,453.268,231.938L453.268,231.938z"/>
<path fill-rule="evenodd" clip-rule="evenodd" fill="none" stroke="#000000" stroke-width="0.504" stroke-miterlimit="2.4142" d="     M445.99,237.427c-1.563-0.39-2.521-1.986-2.113-3.617c0.393-1.565,1.986-2.524,3.548-2.133c1.634,0.405,2.592,2.003,2.2,3.563     C449.223,236.876,447.624,237.835,445.99,237.427L445.99,237.427z"/>
<path fill-rule="evenodd" clip-rule="evenodd" fill="none" stroke="#000000" stroke-width="0.504" stroke-miterlimit="2.4142" d="     M457.405,240.062c-1.563-0.39-2.522-1.986-2.114-3.616c0.393-1.566,1.986-2.525,3.549-2.133c1.633,0.404,2.592,2.003,2.2,3.563     C460.637,239.512,459.039,240.471,457.405,240.062L457.405,240.062z"/>
<path fill-rule="evenodd" clip-rule="evenodd" fill="none" stroke="#000000" stroke-width="0.504" stroke-miterlimit="2.4142" d="     M450.123,245.548c-1.561-0.391-2.514-1.984-2.107-3.614c0.39-1.563,1.984-2.525,3.547-2.134c1.633,0.406,2.591,2.003,2.201,3.562     C453.359,245,451.759,245.958,450.123,245.548L450.123,245.548z"/>
<path fill-rule="evenodd" clip-rule="evenodd" fill="none" stroke="#000000" stroke-width="0.504" stroke-miterlimit="2.4142" d="     M442.846,251.034c-1.563-0.387-2.521-1.982-2.11-3.614c0.39-1.565,1.984-2.521,3.546-2.133c1.63,0.407,2.592,2.005,2.199,3.566     C446.075,250.484,444.475,251.446,442.846,251.034L442.846,251.034z"/>
<path fill-rule="evenodd" clip-rule="evenodd" fill="none" stroke="#000000" stroke-width="0.504" stroke-miterlimit="2.4142" d="     M454.264,253.67c-1.563-0.387-2.521-1.983-2.111-3.614c0.391-1.565,1.984-2.522,3.545-2.134c1.631,0.407,2.594,2.005,2.201,3.566     C457.492,253.12,455.893,254.082,454.264,253.67L454.264,253.67z"/>
<path fill-rule="evenodd" clip-rule="evenodd" fill="none" stroke="#000000" stroke-width="0.504" stroke-miterlimit="2.4142" d="     M446.984,259.158c-1.565-0.389-2.516-1.982-2.111-3.616c0.391-1.565,1.986-2.522,3.548-2.133c1.634,0.408,2.589,2.005,2.2,3.566     C450.212,258.606,448.619,259.567,446.984,259.158L446.984,259.158z"/>
<path fill-rule="evenodd" clip-rule="evenodd" fill="none" stroke="#000000" stroke-width="0.504" stroke-miterlimit="2.4142" d="     M439.709,264.645c-1.563-0.389-2.524-1.986-2.115-3.617c0.393-1.565,1.988-2.519,3.551-2.132c1.63,0.403,2.592,2.005,2.201,3.563     C442.941,264.092,441.342,265.052,439.709,264.645L439.709,264.645z"/>
<path fill-rule="evenodd" clip-rule="evenodd" fill="none" stroke="#000000" stroke-width="0.504" stroke-miterlimit="2.4142" d="     M451.121,267.28c-1.563-0.389-2.523-1.986-2.115-3.617c0.393-1.565,1.988-2.519,3.551-2.132c1.63,0.403,2.592,2.005,2.202,3.563     C454.354,266.727,452.754,267.687,451.121,267.28L451.121,267.28z"/>
<path fill-rule="evenodd" clip-rule="evenodd" fill="none" stroke="#000000" stroke-width="0.504" stroke-miterlimit="2.4142" d="     M443.842,272.765c-1.561-0.388-2.514-1.985-2.112-3.616c0.392-1.564,1.989-2.522,3.548-2.132     c1.636,0.406,2.595,2.005,2.203,3.563C447.072,272.215,445.477,273.175,443.842,272.765L443.842,272.765z"/>
<path fill-rule="evenodd" clip-rule="evenodd" fill="none" stroke="#000000" stroke-width="0.504" stroke-miterlimit="2.4142" d="     M436.567,278.253c-1.563-0.388-2.522-1.985-2.115-3.62c0.392-1.559,1.988-2.517,3.552-2.128c1.631,0.407,2.593,2.003,2.2,3.565     C439.796,277.703,438.201,278.664,436.567,278.253L436.567,278.253z"/>
<path fill-rule="evenodd" clip-rule="evenodd" fill="none" stroke="#000000" stroke-width="0.504" stroke-miterlimit="2.4142" d="     M447.979,280.887c-1.563-0.387-2.522-1.984-2.114-3.619c0.391-1.559,1.988-2.517,3.552-2.128     c1.631,0.406,2.593,2.003,2.199,3.565C451.208,280.337,449.613,281.298,447.979,280.887L447.979,280.887z"/>
<path fill-rule="evenodd" clip-rule="evenodd" fill="none" stroke="#000000" stroke-width="0.504" stroke-miterlimit="2.4142" d="     M440.703,286.377c-1.563-0.39-2.525-1.986-2.113-3.621c0.387-1.561,1.982-2.518,3.55-2.132c1.627,0.407,2.592,2.006,2.202,3.565     C443.929,285.824,442.333,286.784,440.703,286.377L440.703,286.377z"/>
<path fill-rule="evenodd" clip-rule="evenodd" fill="none" stroke="#000000" stroke-width="0.504" stroke-miterlimit="2.4142" d="     M433.424,291.862c-1.563-0.386-2.521-1.986-2.113-3.62c0.391-1.559,1.986-2.517,3.551-2.128c1.627,0.406,2.592,2,2.199,3.563     C436.654,291.312,435.057,292.272,433.424,291.862L433.424,291.862z"/>
<path fill-rule="evenodd" clip-rule="evenodd" fill="none" stroke="#000000" stroke-width="0.504" stroke-miterlimit="2.4142" d="     M444.837,294.497c-1.563-0.386-2.522-1.986-2.114-3.619c0.391-1.559,1.986-2.518,3.551-2.129c1.628,0.406,2.592,2,2.2,3.563     C448.066,293.947,446.469,294.907,444.837,294.497L444.837,294.497z"/>
<path fill-rule="evenodd" clip-rule="evenodd" fill="none" stroke="#000000" stroke-width="0.504" stroke-miterlimit="2.4142" d="     M437.561,299.986c-1.563-0.39-2.524-1.986-2.113-3.62c0.388-1.562,1.983-2.518,3.551-2.133c1.627,0.408,2.592,2.007,2.201,3.565     C440.787,299.432,439.191,300.392,437.561,299.986L437.561,299.986z"/>
</g></switch>
</svg>