<?xml version="1.0" encoding="utf-8"?>
<!DOCTYPE svg PUBLIC "-//W3C//DTD SVG 1.1//EN" "http://www.w3.org/Graphics/SVG/1.1/DTD/svg11.dtd">
<svg version="1.1" id="Armor" xmlns="http://www.w3.org/2000/svg" xmlns:xlink="http://www.w3.org/1999/xlink" x="0px" y="0px"
	 width="612px" height="792px" viewBox="0 0 612 792" enable-background="new 0 0 612 792" xml:space="preserve">
<switch><g>
<path fill-rule="evenodd" clip-rule="evenodd" fill="none" stroke="#000000" stroke-width="0.504" stroke-miterlimit="2.4142" d="     M519.887,191.509c1.56-0.392,2.521-1.987,2.108-3.618c-0.385-1.564-1.98-2.523-3.545-2.134c-1.63,0.405-2.59,2.004-2.197,3.565     C516.653,190.956,518.253,191.915,519.887,191.509L519.887,191.509z"/>
<path fill-rule="evenodd" clip-rule="evenodd" fill="none" stroke="#000000" stroke-width="0.504" stroke-miterlimit="2.4142" d="     M526.79,195.375c1.559-0.393,2.521-1.986,2.111-3.62c-0.388-1.563-1.982-2.521-3.547-2.131c-1.631,0.405-2.59,2.002-2.199,3.563     C523.56,194.822,525.159,195.781,526.79,195.375L526.79,195.375z"/>
<path fill-rule="evenodd" clip-rule="evenodd" fill="none" stroke="#000000" stroke-width="0.504" stroke-miterlimit="2.4142" d="     M515.375,198.01c1.56-0.393,2.522-1.985,2.112-3.621c-0.389-1.562-1.983-2.521-3.547-2.13c-1.633,0.405-2.589,2.002-2.199,3.565     C512.146,197.456,513.746,198.417,515.375,198.01L515.375,198.01z"/>
<path fill-rule="evenodd" clip-rule="evenodd" fill="none" stroke="#000000" stroke-width="0.504" stroke-miterlimit="2.4142" d="     M522.28,201.877c1.559-0.393,2.521-1.986,2.108-3.619c-0.384-1.564-1.979-2.524-3.546-2.133c-1.629,0.405-2.59,2.003-2.197,3.565     C519.049,201.324,520.647,202.283,522.28,201.877L522.28,201.877z"/>
<path fill-rule="evenodd" clip-rule="evenodd" fill="none" stroke="#000000" stroke-width="0.504" stroke-miterlimit="2.4142" d="     M529.18,205.745c1.561-0.393,2.521-1.988,2.115-3.623c-0.391-1.561-1.985-2.518-3.548-2.128     c-1.633,0.404-2.592,2.003-2.201,3.563C525.951,205.189,527.552,206.147,529.18,205.745L529.18,205.745z"/>
<path fill-rule="evenodd" clip-rule="evenodd" fill="none" stroke="#000000" stroke-width="0.504" stroke-miterlimit="2.4142" d="     M517.767,208.379c1.561-0.393,2.521-1.988,2.115-3.623c-0.391-1.561-1.986-2.519-3.548-2.128     c-1.633,0.405-2.591,2.003-2.201,3.563C514.538,207.824,516.14,208.782,517.767,208.379L517.767,208.379z"/>
<path fill-rule="evenodd" clip-rule="evenodd" fill="none" stroke="#000000" stroke-width="0.504" stroke-miterlimit="2.4142" d="     M524.671,212.246c1.563-0.392,2.523-1.987,2.114-3.622c-0.388-1.562-1.984-2.519-3.548-2.128     c-1.631,0.405-2.591,2.002-2.199,3.563C521.445,211.691,523.044,212.65,524.671,212.246L524.671,212.246z"/>
<path fill-rule="evenodd" clip-rule="evenodd" fill="none" stroke="#000000" stroke-width="0.504" stroke-miterlimit="2.4142" d="     M531.572,216.114c1.562-0.39,2.524-1.987,2.117-3.62c-0.389-1.561-1.987-2.521-3.552-2.132c-1.629,0.406-2.588,2.006-2.2,3.564     C528.346,215.561,529.943,216.52,531.572,216.114L531.572,216.114z"/>
<path fill-rule="evenodd" clip-rule="evenodd" fill="none" stroke="#000000" stroke-width="0.504" stroke-miterlimit="2.4142" d="     M520.161,218.748c1.56-0.388,2.524-1.986,2.117-3.619c-0.389-1.561-1.988-2.521-3.552-2.131c-1.63,0.406-2.59,2.005-2.2,3.564     C516.935,218.196,518.532,219.154,520.161,218.748L520.161,218.748z"/>
<path fill-rule="evenodd" clip-rule="evenodd" fill="none" stroke="#000000" stroke-width="0.504" stroke-miterlimit="2.4142" d="     M527.063,222.615c1.561-0.388,2.526-1.987,2.116-3.62c-0.388-1.561-1.987-2.52-3.55-2.131c-1.628,0.406-2.588,2.005-2.2,3.563     C523.84,222.063,525.438,223.02,527.063,222.615L527.063,222.615z"/>
<path fill-rule="evenodd" clip-rule="evenodd" fill="none" stroke="#000000" stroke-width="0.504" stroke-miterlimit="2.4142" d="     M533.97,226.481c1.563-0.391,2.52-1.985,2.112-3.62c-0.39-1.562-1.988-2.521-3.55-2.13c-1.628,0.407-2.587,2.002-2.198,3.563     C530.738,225.929,532.334,226.887,533.97,226.481L533.97,226.481z"/>
<path fill-rule="evenodd" clip-rule="evenodd" fill="none" stroke="#000000" stroke-width="0.504" stroke-miterlimit="2.4142" d="     M522.557,229.115c1.565-0.391,2.519-1.985,2.113-3.619c-0.39-1.563-1.989-2.52-3.552-2.13c-1.627,0.406-2.586,2.002-2.197,3.563     C519.325,228.564,520.922,229.522,522.557,229.115L522.557,229.115z"/>
<path fill-rule="evenodd" clip-rule="evenodd" fill="none" stroke="#000000" stroke-width="0.504" stroke-miterlimit="2.4142" d="     M529.46,232.983c1.564-0.393,2.521-1.986,2.113-3.622c-0.389-1.559-1.986-2.52-3.55-2.13c-1.624,0.407-2.588,2.004-2.201,3.564     C526.229,232.431,527.827,233.387,529.46,232.983L529.46,232.983z"/>
<path fill-rule="evenodd" clip-rule="evenodd" fill="none" stroke="#000000" stroke-width="0.504" stroke-miterlimit="2.4142" d="     M536.36,236.85c1.561-0.39,2.52-1.986,2.117-3.618c-0.393-1.563-1.988-2.521-3.551-2.134c-1.631,0.408-2.592,2.002-2.199,3.566     C533.13,236.296,534.729,237.257,536.36,236.85L536.36,236.85z"/>
<path fill-rule="evenodd" clip-rule="evenodd" fill="none" stroke="#000000" stroke-width="0.504" stroke-miterlimit="2.4142" d="     M524.948,239.485c1.561-0.39,2.52-1.985,2.118-3.619c-0.394-1.563-1.989-2.52-3.55-2.133c-1.631,0.408-2.592,2.002-2.201,3.566     C521.72,238.931,523.317,239.892,524.948,239.485L524.948,239.485z"/>
<path fill-rule="evenodd" clip-rule="evenodd" fill="none" stroke="#000000" stroke-width="0.504" stroke-miterlimit="2.4142" d="     M531.851,243.351c1.564-0.392,2.523-1.986,2.116-3.619c-0.392-1.563-1.985-2.521-3.548-2.131c-1.63,0.405-2.59,2.001-2.201,3.563     C528.622,242.796,530.223,243.756,531.851,243.351L531.851,243.351z"/>
<path fill-rule="evenodd" clip-rule="evenodd" fill="none" stroke="#000000" stroke-width="0.504" stroke-miterlimit="2.4142" d="     M538.759,247.215c1.561-0.388,2.519-1.983,2.111-3.616c-0.391-1.561-1.986-2.521-3.549-2.131     c-1.629,0.405-2.591,2.004-2.199,3.564C535.529,246.667,537.126,247.626,538.759,247.215L538.759,247.215z"/>
<path fill-rule="evenodd" clip-rule="evenodd" fill="none" stroke="#000000" stroke-width="0.504" stroke-miterlimit="2.4142" d="     M527.347,249.85c1.561-0.388,2.52-1.984,2.111-3.617c-0.392-1.561-1.986-2.521-3.549-2.13c-1.63,0.404-2.593,2.003-2.199,3.564     C524.115,249.3,525.713,250.26,527.347,249.85L527.347,249.85z"/>
<path fill-rule="evenodd" clip-rule="evenodd" fill="none" stroke="#000000" stroke-width="0.504" stroke-miterlimit="2.4142" d="     M534.251,253.717c1.563-0.387,2.52-1.985,2.108-3.615c-0.389-1.562-1.984-2.522-3.546-2.132c-1.628,0.405-2.59,2.004-2.2,3.564     C531.021,253.168,532.618,254.129,534.251,253.717L534.251,253.717z"/>
<path fill-rule="evenodd" clip-rule="evenodd" fill="none" stroke="#000000" stroke-width="0.504" stroke-miterlimit="2.4142" d="     M541.15,257.586c1.563-0.391,2.521-1.987,2.113-3.618c-0.392-1.564-1.985-2.523-3.55-2.132c-1.631,0.403-2.591,2.003-2.197,3.563     C537.919,257.034,539.518,257.994,541.15,257.586L541.15,257.586z"/>
<path fill-rule="evenodd" clip-rule="evenodd" fill="none" stroke="#000000" stroke-width="0.504" stroke-miterlimit="2.4142" d="     M529.738,260.22c1.563-0.39,2.521-1.987,2.113-3.618c-0.394-1.563-1.987-2.522-3.55-2.131c-1.63,0.403-2.59,2.003-2.199,3.563     C526.508,259.668,528.105,260.628,529.738,260.22L529.738,260.22z"/>
<path fill-rule="evenodd" clip-rule="evenodd" fill="none" stroke="#000000" stroke-width="0.504" stroke-miterlimit="2.4142" d="     M536.643,264.086c1.563-0.39,2.519-1.986,2.112-3.617c-0.39-1.563-1.986-2.522-3.548-2.131c-1.632,0.403-2.589,2.003-2.2,3.562     C533.41,263.536,535.011,264.495,536.643,264.086L536.643,264.086z"/>
<path fill-rule="evenodd" clip-rule="evenodd" fill="none" stroke="#000000" stroke-width="0.504" stroke-miterlimit="2.4142" d="     M543.547,267.954c1.561-0.39,2.521-1.986,2.111-3.618c-0.392-1.563-1.987-2.521-3.55-2.13c-1.629,0.404-2.59,2.004-2.198,3.563     C540.315,267.401,541.913,268.361,543.547,267.954L543.547,267.954z"/>
<path fill-rule="evenodd" clip-rule="evenodd" fill="none" stroke="#000000" stroke-width="0.504" stroke-miterlimit="2.4142" d="     M532.133,270.587c1.562-0.39,2.521-1.985,2.112-3.617c-0.393-1.563-1.987-2.522-3.549-2.131     c-1.629,0.404-2.592,2.004-2.199,3.563C528.902,270.035,530.501,270.996,532.133,270.587L532.133,270.587z"/>
<path fill-rule="evenodd" clip-rule="evenodd" fill="none" stroke="#000000" stroke-width="0.504" stroke-miterlimit="2.4142" d="     M539.038,274.455c1.563-0.389,2.518-1.983,2.109-3.616c-0.389-1.563-1.985-2.522-3.547-2.132     c-1.631,0.406-2.589,2.005-2.199,3.564C535.808,273.904,537.405,274.864,539.038,274.455L539.038,274.455z"/>
<path fill-rule="evenodd" clip-rule="evenodd" fill="none" stroke="#000000" stroke-width="0.504" stroke-miterlimit="2.4142" d="     M545.94,278.322c1.563-0.389,2.52-1.984,2.111-3.616c-0.391-1.564-1.986-2.521-3.549-2.133c-1.631,0.405-2.592,2.005-2.2,3.563     C542.71,277.77,544.308,278.73,545.94,278.322L545.94,278.322z"/>
<path fill-rule="evenodd" clip-rule="evenodd" fill="none" stroke="#000000" stroke-width="0.504" stroke-miterlimit="2.4142" d="     M534.527,280.957c1.563-0.388,2.521-1.984,2.113-3.616c-0.392-1.564-1.988-2.521-3.55-2.133c-1.631,0.405-2.592,2.006-2.2,3.563     C531.296,280.405,532.896,281.366,534.527,280.957L534.527,280.957z"/>
<path fill-rule="evenodd" clip-rule="evenodd" fill="none" stroke="#000000" stroke-width="0.504" stroke-miterlimit="2.4142" d="     M541.432,284.823c1.561-0.388,2.518-1.984,2.11-3.617c-0.389-1.562-1.986-2.52-3.547-2.132c-1.633,0.405-2.593,2.005-2.203,3.565     C538.2,284.272,539.797,285.232,541.432,284.823L541.432,284.823z"/>
<path fill-rule="evenodd" clip-rule="evenodd" fill="none" stroke="#000000" stroke-width="0.504" stroke-miterlimit="2.4142" d="     M548.332,288.69c1.562-0.388,2.521-1.985,2.114-3.616c-0.392-1.563-1.986-2.521-3.552-2.132c-1.628,0.406-2.591,2.006-2.2,3.564     C545.102,288.138,546.7,289.1,548.332,288.69L548.332,288.69z"/>
<path fill-rule="evenodd" clip-rule="evenodd" fill="none" stroke="#000000" stroke-width="0.504" stroke-miterlimit="2.4142" d="     M536.92,291.325c1.563-0.388,2.521-1.985,2.114-3.617c-0.391-1.563-1.987-2.521-3.551-2.131c-1.63,0.405-2.593,2.005-2.199,3.563     C533.69,290.773,535.288,291.734,536.92,291.325L536.92,291.325z"/>
<path fill-rule="evenodd" clip-rule="evenodd" fill="none" stroke="#000000" stroke-width="0.504" stroke-miterlimit="2.4142" d="     M543.823,295.192c1.563-0.39,2.523-1.984,2.113-3.617c-0.391-1.563-1.985-2.521-3.549-2.132c-1.63,0.405-2.592,2.006-2.203,3.564     C540.597,294.639,542.192,295.6,543.823,295.192L543.823,295.192z"/>
<path fill-rule="evenodd" clip-rule="evenodd" fill="none" stroke="#000000" stroke-width="0.504" stroke-miterlimit="2.4142" d="     M550.727,299.058c1.563-0.388,2.521-1.984,2.114-3.618c-0.393-1.56-1.988-2.517-3.553-2.128     c-1.626,0.403-2.591,2.002-2.197,3.563C547.498,298.508,549.095,299.468,550.727,299.058L550.727,299.058z"/>
<path fill-rule="evenodd" clip-rule="evenodd" fill="none" stroke="#000000" stroke-width="0.504" stroke-miterlimit="2.4142" d="     M539.313,301.693c1.563-0.388,2.521-1.984,2.113-3.618c-0.39-1.56-1.987-2.518-3.55-2.129c-1.628,0.405-2.593,2.002-2.199,3.563     C536.085,301.143,537.682,302.103,539.313,301.693L539.313,301.693z"/>
</g></switch>
</svg>