<?xml version="1.0" encoding="utf-8"?>
<!DOCTYPE svg PUBLIC "-//W3C//DTD SVG 1.1//EN" "http://www.w3.org/Graphics/SVG/1.1/DTD/svg11.dtd">
<svg version="1.1" id="Armor" xmlns="http://www.w3.org/2000/svg" xmlns:xlink="http://www.w3.org/1999/xlink" x="0px" y="0px"
	 width="612px" height="792px" viewBox="0 0 612 792" enable-background="new 0 0 612 792" xml:space="preserve">
<switch><g>
<path fill-rule="evenodd" clip-rule="evenodd" fill="none" stroke="#000000" stroke-width="0.504" stroke-miterlimit="2.4142" d="     M513.962,189.981c1.563-0.389,2.52-1.986,2.109-3.618c-0.383-1.56-1.988-2.521-3.547-2.131c-1.631,0.408-2.594,2.005-2.199,3.565     C510.731,189.43,512.325,190.391,513.962,189.981L513.962,189.981z"/>
<path fill-rule="evenodd" clip-rule="evenodd" fill="none" stroke="#000000" stroke-width="0.504" stroke-miterlimit="2.4142" d="     M531.655,214.563c1.563-0.388,2.518-1.986,2.119-3.622c-0.401-1.557-1.992-2.515-3.557-2.125     c-1.631,0.407-2.596,2.003-2.201,3.564C528.427,214.011,530.028,214.974,531.655,214.563L531.655,214.563z"/>
<path fill-rule="evenodd" clip-rule="evenodd" fill="none" stroke="#000000" stroke-width="0.504" stroke-miterlimit="2.4142" d="     M532.235,243.098c1.559-0.388,2.523-1.982,2.105-3.617c-0.383-1.563-1.975-2.519-3.545-2.13c-1.625,0.403-2.59,2.003-2.203,3.56     C529.007,242.545,530.606,243.508,532.235,243.098L532.235,243.098z"/>
<path fill-rule="evenodd" clip-rule="evenodd" fill="none" stroke="#000000" stroke-width="0.504" stroke-miterlimit="2.4142" d="     M532.808,271.635c1.571-0.385,2.525-1.984,2.121-3.62c-0.396-1.559-1.994-2.514-3.555-2.13c-1.625,0.411-2.592,2.004-2.201,3.568     C529.583,271.083,531.181,272.047,532.808,271.635L532.808,271.635z"/>
<path fill-rule="evenodd" clip-rule="evenodd" fill="none" stroke="#000000" stroke-width="0.504" stroke-miterlimit="2.4142" d="     M550.509,296.215c1.566-0.385,2.52-1.984,2.116-3.621c-0.397-1.555-1.992-2.51-3.557-2.124c-1.62,0.404-2.593,1.998-2.194,3.563     C547.282,295.668,548.876,296.627,550.509,296.215L550.509,296.215z"/>
</g></switch>
</svg>