<?xml version="1.0" encoding="utf-8"?>
<!DOCTYPE svg PUBLIC "-//W3C//DTD SVG 1.1//EN" "http://www.w3.org/Graphics/SVG/1.1/DTD/svg11.dtd">
<svg version="1.1" id="Armor" xmlns="http://www.w3.org/2000/svg" xmlns:xlink="http://www.w3.org/1999/xlink" x="0px" y="0px"
	 width="612px" height="792px" viewBox="0 0 612 792" enable-background="new 0 0 612 792" xml:space="preserve">
<switch><g>
<path fill="none" stroke="#000000" stroke-width="0.504" stroke-miterlimit="2.4142" d="M425.883,80.936     c-1.662-0.144-2.93-1.652-2.783-3.312c0.148-1.731,1.653-2.925,3.312-2.779c1.731,0.15,3.004,1.587,2.851,3.319     C429.115,79.825,427.611,81.087,425.883,80.936L425.883,80.936z"/>
<path fill="none" stroke="#000000" stroke-width="0.504" stroke-miterlimit="2.4142" d="M419.723,86.266     c-1.657-0.146-2.928-1.651-2.778-3.312c0.149-1.73,1.647-2.925,3.313-2.78c1.729,0.151,3.002,1.589,2.851,3.32     C422.961,85.155,421.449,86.417,419.723,86.266L419.723,86.266z"/>
<path fill="none" stroke="#000000" stroke-width="0.504" stroke-miterlimit="2.4142" d="M431.018,87.254     c-1.659-0.146-2.927-1.652-2.778-3.312c0.149-1.729,1.647-2.925,3.313-2.78c1.729,0.152,3,1.59,2.851,3.321     C434.254,86.144,432.746,87.406,431.018,87.254L431.018,87.254z"/>
<path fill="none" stroke="#000000" stroke-width="0.504" stroke-miterlimit="2.4142" d="M424.863,92.584     c-1.662-0.144-2.93-1.652-2.783-3.312c0.148-1.731,1.654-2.925,3.311-2.779c1.732,0.15,3.004,1.587,2.853,3.319     C428.097,91.473,426.592,92.736,424.863,92.584L424.863,92.584z"/>
<path fill="none" stroke="#000000" stroke-width="0.504" stroke-miterlimit="2.4142" d="M418.706,97.915     c-1.662-0.144-2.929-1.652-2.783-3.312c0.149-1.73,1.654-2.925,3.313-2.779c1.731,0.15,3.004,1.587,2.852,3.319     C421.94,96.803,420.435,98.066,418.706,97.915L418.706,97.915z"/>
<path fill="none" stroke="#000000" stroke-width="0.504" stroke-miterlimit="2.4142" d="M430.003,98.903     c-1.663-0.144-2.929-1.652-2.784-3.312c0.148-1.731,1.655-2.925,3.314-2.779c1.73,0.15,3,1.587,2.848,3.319     C433.236,97.792,431.731,99.054,430.003,98.903L430.003,98.903z"/>
<path fill="none" stroke="#000000" stroke-width="0.504" stroke-miterlimit="2.4142" d="M423.842,104.234     c-1.663-0.145-2.924-1.651-2.779-3.312c0.15-1.731,1.651-2.925,3.313-2.781c1.729,0.151,2.999,1.589,2.849,3.32     C427.082,103.121,425.57,104.386,423.842,104.234L423.842,104.234z"/>
<path fill="none" stroke="#000000" stroke-width="0.504" stroke-miterlimit="2.4142" d="M417.684,109.565     c-1.661-0.145-2.922-1.651-2.778-3.312c0.151-1.73,1.651-2.925,3.313-2.781c1.729,0.151,3,1.59,2.85,3.32     C420.926,108.452,419.414,109.717,417.684,109.565L417.684,109.565z"/>
<path fill="none" stroke="#000000" stroke-width="0.504" stroke-miterlimit="2.4142" d="M428.979,110.551     c-1.659-0.144-2.924-1.649-2.778-3.311c0.151-1.731,1.653-2.924,3.313-2.78c1.729,0.15,3,1.588,2.849,3.32     C432.219,109.44,430.709,110.705,428.979,110.551L428.979,110.551z"/>
<path fill="none" stroke="#000000" stroke-width="0.504" stroke-miterlimit="2.4142" d="M422.82,115.881     c-1.66-0.145-2.921-1.651-2.777-3.312c0.152-1.73,1.652-2.925,3.314-2.78c1.729,0.152,2.998,1.589,2.846,3.32     C426.057,114.769,424.553,116.034,422.82,115.881L422.82,115.881z"/>
<path fill="none" stroke="#000000" stroke-width="0.504" stroke-miterlimit="2.4142" d="M416.663,121.211     c-1.659-0.145-2.921-1.651-2.777-3.312c0.152-1.73,1.653-2.925,3.313-2.779c1.729,0.152,3.001,1.588,2.848,3.319     C419.9,120.1,418.396,121.364,416.663,121.211L416.663,121.211z"/>
<path fill="none" stroke="#000000" stroke-width="0.504" stroke-miterlimit="2.4142" d="M427.961,122.2     c-1.659-0.144-2.924-1.651-2.781-3.311c0.152-1.73,1.654-2.925,3.318-2.78c1.729,0.152,2.998,1.589,2.844,3.32     C431.196,121.089,429.692,122.353,427.961,122.2L427.961,122.2z"/>
<path fill="none" stroke="#000000" stroke-width="0.504" stroke-miterlimit="2.4142" d="M421.803,127.531     c-1.658-0.146-2.924-1.652-2.778-3.313c0.151-1.731,1.649-2.926,3.313-2.781c1.73,0.151,3.001,1.59,2.851,3.32     C425.041,126.417,423.532,127.682,421.803,127.531L421.803,127.531z"/>
<path fill="none" stroke="#000000" stroke-width="0.504" stroke-miterlimit="2.4142" d="M415.646,132.861     c-1.658-0.146-2.927-1.651-2.779-3.313c0.151-1.731,1.648-2.926,3.312-2.78c1.73,0.151,3.003,1.588,2.852,3.319     C418.885,131.749,417.375,133.012,415.646,132.861L415.646,132.861z"/>
<path fill="none" stroke="#000000" stroke-width="0.504" stroke-miterlimit="2.4142" d="M426.941,133.849     c-1.658-0.146-2.927-1.651-2.781-3.313c0.152-1.73,1.652-2.925,3.313-2.779c1.73,0.151,3.002,1.588,2.853,3.319     C430.18,132.737,428.672,134,426.941,133.849L426.941,133.849z"/>
<path fill="none" stroke="#000000" stroke-width="0.504" stroke-miterlimit="2.4142" d="M420.785,139.179     c-1.664-0.146-2.926-1.651-2.779-3.312c0.15-1.732,1.65-2.926,3.314-2.781c1.727,0.151,2.996,1.588,2.846,3.321     C424.021,138.067,422.516,139.331,420.785,139.179L420.785,139.179z"/>
<path fill="none" stroke="#000000" stroke-width="0.504" stroke-miterlimit="2.4142" d="M414.627,144.51     c-1.662-0.146-2.925-1.651-2.777-3.312c0.148-1.733,1.65-2.927,3.313-2.782c1.727,0.151,2.998,1.588,2.848,3.322     C417.866,143.398,416.357,144.662,414.627,144.51L414.627,144.51z"/>
<path fill="none" stroke="#000000" stroke-width="0.504" stroke-miterlimit="2.4142" d="M425.922,145.497     c-1.66-0.145-2.925-1.649-2.779-3.31c0.15-1.732,1.652-2.927,3.314-2.782c1.727,0.151,2.998,1.588,2.846,3.322     C429.159,144.386,427.652,145.649,425.922,145.497L425.922,145.497z"/>
<path fill="none" stroke="#000000" stroke-width="0.504" stroke-miterlimit="2.4142" d="M419.766,150.827     c-1.662-0.145-2.926-1.65-2.778-3.311c0.15-1.731,1.649-2.926,3.313-2.781c1.729,0.151,3,1.589,2.847,3.321     C423.002,149.714,421.494,150.978,419.766,150.827L419.766,150.827z"/>
<path fill="none" stroke="#000000" stroke-width="0.504" stroke-miterlimit="2.4142" d="M413.609,156.158     c-1.663-0.145-2.927-1.651-2.78-3.312c0.151-1.731,1.649-2.926,3.313-2.781c1.729,0.151,3.001,1.589,2.849,3.322     C416.846,155.044,415.338,156.308,413.609,156.158L413.609,156.158z"/>
<path fill="none" stroke="#000000" stroke-width="0.504" stroke-miterlimit="2.4142" d="M424.904,157.145     c-1.66-0.145-2.927-1.65-2.781-3.311c0.153-1.731,1.653-2.926,3.314-2.781c1.729,0.151,3.002,1.588,2.846,3.32     C428.143,156.033,426.635,157.296,424.904,157.145L424.904,157.145z"/>
<path fill="none" stroke="#000000" stroke-width="0.504" stroke-miterlimit="2.4142" d="M418.746,162.475     c-1.66-0.144-2.924-1.651-2.779-3.311c0.152-1.731,1.652-2.925,3.313-2.78c1.727,0.151,2.999,1.588,2.846,3.32     C421.984,161.363,420.477,162.626,418.746,162.475L418.746,162.475z"/>
<path fill="none" stroke="#000000" stroke-width="0.504" stroke-miterlimit="2.4142" d="M412.588,167.805     c-1.66-0.144-2.922-1.651-2.777-3.311c0.15-1.731,1.652-2.925,3.313-2.78c1.727,0.151,3,1.588,2.848,3.32     C415.829,166.693,414.32,167.958,412.588,167.805L412.588,167.805z"/>
<path fill="none" stroke="#000000" stroke-width="0.504" stroke-miterlimit="2.4142" d="M423.883,168.793     c-1.66-0.143-2.923-1.651-2.776-3.311c0.147-1.732,1.651-2.925,3.313-2.78c1.729,0.151,2.998,1.588,2.848,3.319     C427.123,167.681,425.615,168.946,423.883,168.793L423.883,168.793z"/>
<path fill="none" stroke="#000000" stroke-width="0.504" stroke-miterlimit="2.4142" d="M417.727,174.124     c-1.659-0.144-2.923-1.651-2.778-3.311c0.151-1.732,1.651-2.925,3.313-2.78c1.728,0.151,2.998,1.588,2.847,3.32     C420.966,173.011,419.458,174.275,417.727,174.124L417.727,174.124z"/>
</g></switch>
</svg>