<?xml version="1.0" encoding="utf-8"?>
<!DOCTYPE svg PUBLIC "-//W3C//DTD SVG 1.1//EN" "http://www.w3.org/Graphics/SVG/1.1/DTD/svg11.dtd">
<svg version="1.1" id="Armor" xmlns="http://www.w3.org/2000/svg" xmlns:xlink="http://www.w3.org/1999/xlink" x="0px" y="0px"
	 width="612px" height="792px" viewBox="0 0 612 792" enable-background="new 0 0 612 792" xml:space="preserve">
<switch><g>
<path fill-rule="evenodd" clip-rule="evenodd" fill="none" stroke="#000000" stroke-width="0.504" stroke-miterlimit="2.4142" d="      M514.885,91.841c1.317,0,2.414-1.098,2.414-2.415s-1.097-2.414-2.414-2.414c-1.316,0-2.415,1.097-2.415,2.414      S513.568,91.841,514.885,91.841L514.885,91.841z"/>
<path fill-rule="evenodd" clip-rule="evenodd" fill="none" stroke="#000000" stroke-width="0.504" stroke-miterlimit="2.4142" d="      M525.932,91.841c1.321,0,2.417-1.098,2.417-2.415s-1.096-2.414-2.417-2.414c-1.316,0-2.412,1.097-2.412,2.414      S524.615,91.841,525.932,91.841L525.932,91.841z"/>
<path fill-rule="evenodd" clip-rule="evenodd" fill="none" stroke="#000000" stroke-width="0.504" stroke-miterlimit="2.4142" d="      M536.981,91.841c1.321,0,2.417-1.098,2.417-2.415s-1.096-2.414-2.417-2.414c-1.316,0-2.412,1.097-2.412,2.414      S535.665,91.841,536.981,91.841L536.981,91.841z"/>
<path fill-rule="evenodd" clip-rule="evenodd" fill="none" stroke="#000000" stroke-width="0.504" stroke-miterlimit="2.4142" d="      M520.406,95.916c1.322,0,2.418-1.098,2.418-2.415s-1.096-2.414-2.418-2.414c-1.316,0-2.412,1.097-2.412,2.414      S519.09,95.916,520.406,95.916L520.406,95.916z"/>
<path fill-rule="evenodd" clip-rule="evenodd" fill="none" stroke="#000000" stroke-width="0.504" stroke-miterlimit="2.4142" d="      M531.457,95.916c1.32,0,2.416-1.098,2.416-2.415s-1.096-2.414-2.416-2.414c-1.316,0-2.412,1.097-2.412,2.414      S530.141,95.916,531.457,95.916L531.457,95.916z"/>
<path fill-rule="evenodd" clip-rule="evenodd" fill="none" stroke="#000000" stroke-width="0.504" stroke-miterlimit="2.4142" d="      M514.885,99.991c1.317,0,2.414-1.098,2.414-2.415s-1.097-2.414-2.414-2.414c-1.316,0-2.415,1.097-2.415,2.414      S513.568,99.991,514.885,99.991L514.885,99.991z"/>
<path fill-rule="evenodd" clip-rule="evenodd" fill="none" stroke="#000000" stroke-width="0.504" stroke-miterlimit="2.4142" d="      M525.932,99.991c1.321,0,2.417-1.098,2.417-2.415s-1.096-2.414-2.417-2.414c-1.316,0-2.412,1.097-2.412,2.414      S524.615,99.991,525.932,99.991L525.932,99.991z"/>
<path fill-rule="evenodd" clip-rule="evenodd" fill="none" stroke="#000000" stroke-width="0.504" stroke-miterlimit="2.4142" d="      M536.981,99.991c1.321,0,2.417-1.098,2.417-2.415s-1.096-2.414-2.417-2.414c-1.316,0-2.412,1.097-2.412,2.414      S535.665,99.991,536.981,99.991L536.981,99.991z"/>
<path fill-rule="evenodd" clip-rule="evenodd" fill="none" stroke="#000000" stroke-width="0.504" stroke-miterlimit="2.4142" d="      M520.406,104.066c1.322,0,2.418-1.098,2.418-2.415s-1.096-2.414-2.418-2.414c-1.316,0-2.412,1.097-2.412,2.414      S519.09,104.066,520.406,104.066L520.406,104.066z"/>
<path fill-rule="evenodd" clip-rule="evenodd" fill="none" stroke="#000000" stroke-width="0.504" stroke-miterlimit="2.4142" d="      M531.457,104.066c1.32,0,2.416-1.098,2.416-2.415s-1.096-2.414-2.416-2.414c-1.316,0-2.412,1.097-2.412,2.414      S530.141,104.066,531.457,104.066L531.457,104.066z"/>
<path fill-rule="evenodd" clip-rule="evenodd" fill="none" stroke="#000000" stroke-width="0.504" stroke-miterlimit="2.4142" d="      M514.885,108.141c1.317,0,2.414-1.098,2.414-2.415s-1.097-2.414-2.414-2.414c-1.316,0-2.415,1.097-2.415,2.414      S513.568,108.141,514.885,108.141L514.885,108.141z"/>
<path fill-rule="evenodd" clip-rule="evenodd" fill="none" stroke="#000000" stroke-width="0.504" stroke-miterlimit="2.4142" d="      M525.932,108.141c1.321,0,2.417-1.098,2.417-2.415s-1.096-2.414-2.417-2.414c-1.316,0-2.412,1.097-2.412,2.414      S524.615,108.141,525.932,108.141L525.932,108.141z"/>
<path fill-rule="evenodd" clip-rule="evenodd" fill="none" stroke="#000000" stroke-width="0.504" stroke-miterlimit="2.4142" d="      M536.981,108.141c1.321,0,2.417-1.098,2.417-2.415s-1.096-2.414-2.417-2.414c-1.316,0-2.412,1.097-2.412,2.414      S535.665,108.141,536.981,108.141L536.981,108.141z"/>
<path fill-rule="evenodd" clip-rule="evenodd" fill="none" stroke="#000000" stroke-width="0.504" stroke-miterlimit="2.4142" d="      M520.406,112.215c1.322,0,2.418-1.098,2.418-2.415s-1.096-2.414-2.418-2.414c-1.316,0-2.412,1.097-2.412,2.414      S519.09,112.215,520.406,112.215L520.406,112.215z"/>
<path fill-rule="evenodd" clip-rule="evenodd" fill="none" stroke="#000000" stroke-width="0.504" stroke-miterlimit="2.4142" d="      M531.457,112.215c1.32,0,2.416-1.098,2.416-2.415s-1.096-2.414-2.416-2.414c-1.316,0-2.412,1.097-2.412,2.414      S530.141,112.215,531.457,112.215L531.457,112.215z"/>
<path fill-rule="evenodd" clip-rule="evenodd" fill="none" stroke="#000000" stroke-width="0.504" stroke-miterlimit="2.4142" d="      M514.885,116.29c1.317,0,2.414-1.098,2.414-2.415s-1.097-2.414-2.414-2.414c-1.316,0-2.415,1.097-2.415,2.414      S513.568,116.29,514.885,116.29L514.885,116.29z"/>
<path fill-rule="evenodd" clip-rule="evenodd" fill="none" stroke="#000000" stroke-width="0.504" stroke-miterlimit="2.4142" d="      M525.932,116.29c1.321,0,2.417-1.098,2.417-2.415s-1.096-2.414-2.417-2.414c-1.316,0-2.412,1.097-2.412,2.414      S524.615,116.29,525.932,116.29L525.932,116.29z"/>
<path fill-rule="evenodd" clip-rule="evenodd" fill="none" stroke="#000000" stroke-width="0.504" stroke-miterlimit="2.4142" d="      M536.981,116.29c1.321,0,2.417-1.098,2.417-2.415s-1.096-2.414-2.417-2.414c-1.316,0-2.412,1.097-2.412,2.414      S535.665,116.29,536.981,116.29L536.981,116.29z"/>
<path fill-rule="evenodd" clip-rule="evenodd" fill="none" stroke="#000000" stroke-width="0.504" stroke-miterlimit="2.4142" d="      M520.406,120.365c1.322,0,2.418-1.098,2.418-2.415s-1.096-2.414-2.418-2.414c-1.316,0-2.412,1.097-2.412,2.414      S519.09,120.365,520.406,120.365L520.406,120.365z"/>
<path fill-rule="evenodd" clip-rule="evenodd" fill="none" stroke="#000000" stroke-width="0.504" stroke-miterlimit="2.4142" d="      M531.457,120.365c1.32,0,2.416-1.098,2.416-2.415s-1.096-2.414-2.416-2.414c-1.316,0-2.412,1.097-2.412,2.414      S530.141,120.365,531.457,120.365L531.457,120.365z"/>
<path fill-rule="evenodd" clip-rule="evenodd" fill="none" stroke="#000000" stroke-width="0.504" stroke-miterlimit="2.4142" d="      M514.885,124.44c1.317,0,2.414-1.098,2.414-2.415s-1.097-2.414-2.414-2.414c-1.316,0-2.415,1.097-2.415,2.414      S513.568,124.44,514.885,124.44L514.885,124.44z"/>
<path fill-rule="evenodd" clip-rule="evenodd" fill="none" stroke="#000000" stroke-width="0.504" stroke-miterlimit="2.4142" d="      M525.932,124.44c1.321,0,2.417-1.098,2.417-2.415s-1.096-2.414-2.417-2.414c-1.316,0-2.412,1.097-2.412,2.414      S524.615,124.44,525.932,124.44L525.932,124.44z"/>
<path fill-rule="evenodd" clip-rule="evenodd" fill="none" stroke="#000000" stroke-width="0.504" stroke-miterlimit="2.4142" d="      M536.981,124.44c1.321,0,2.417-1.098,2.417-2.415s-1.096-2.414-2.417-2.414c-1.316,0-2.412,1.097-2.412,2.414      S535.665,124.44,536.981,124.44L536.981,124.44z"/>
<path fill-rule="evenodd" clip-rule="evenodd" fill="none" stroke="#000000" stroke-width="0.504" stroke-miterlimit="2.4142" d="     M520.411,131.319c-1.321,0-2.417-1.098-2.417-2.415s1.096-2.414,2.417-2.414c1.316,0,2.412,1.097,2.412,2.414     S521.728,131.319,520.411,131.319L520.411,131.319z"/>
<path fill-rule="evenodd" clip-rule="evenodd" fill="none" stroke="#000000" stroke-width="0.504" stroke-miterlimit="2.4142" d="     M519.022,138.198c-1.321,0-2.417-1.098-2.417-2.415s1.096-2.414,2.417-2.414c1.316,0,2.412,1.097,2.412,2.414     S520.339,138.198,519.022,138.198L519.022,138.198z"/>
<path fill-rule="evenodd" clip-rule="evenodd" fill="none" stroke="#000000" stroke-width="0.504" stroke-miterlimit="2.4142" d="     M517.63,140.248c1.32,0,2.416,1.098,2.416,2.415c0,1.317-1.096,2.415-2.416,2.415c-1.316,0-2.412-1.097-2.412-2.415     C515.218,141.345,516.313,140.248,517.63,140.248L517.63,140.248z"/>
<path fill-rule="evenodd" clip-rule="evenodd" fill="none" stroke="#000000" stroke-width="0.504" stroke-miterlimit="2.4142" d="     M516.242,147.126c1.32,0,2.416,1.098,2.416,2.415c0,1.317-1.096,2.415-2.416,2.415c-1.316,0-2.412-1.097-2.412-2.415     C513.83,148.224,514.926,147.126,516.242,147.126L516.242,147.126z"/>
<path fill-rule="evenodd" clip-rule="evenodd" fill="none" stroke="#000000" stroke-width="0.504" stroke-miterlimit="2.4142" d="     M513.469,158.871c1.316,0,2.413-1.097,2.413-2.488c0-1.317-1.097-2.414-2.413-2.414s-2.416,1.097-2.416,2.414     C511.053,157.774,512.152,158.871,513.469,158.871L513.469,158.871z"/>
<path fill-rule="evenodd" clip-rule="evenodd" fill="none" stroke="#000000" stroke-width="0.504" stroke-miterlimit="2.4142" d="      M517.721,160.848c1.316,0,2.413,1.097,2.413,2.488c0,1.317-1.097,2.414-2.413,2.414s-2.416-1.097-2.416-2.414      C515.305,161.944,516.404,160.848,517.721,160.848L517.721,160.848z"/>
<path fill-rule="evenodd" clip-rule="evenodd" fill="none" stroke="#000000" stroke-width="0.504" stroke-miterlimit="2.4142" d="      M526.225,160.848c1.316,0,2.413,1.097,2.413,2.488c0,1.317-1.097,2.414-2.413,2.414s-2.416-1.097-2.416-2.414      C523.809,161.945,524.908,160.848,526.225,160.848L526.225,160.848z"/>
<path fill-rule="evenodd" clip-rule="evenodd" fill="none" stroke="#000000" stroke-width="0.504" stroke-miterlimit="2.4142" d="      M513.469,167.727c1.316,0,2.413,1.097,2.413,2.488c0,1.317-1.097,2.414-2.413,2.414s-2.416-1.097-2.416-2.414      C511.053,168.823,512.152,167.727,513.469,167.727L513.469,167.727z"/>
<path fill-rule="evenodd" clip-rule="evenodd" fill="none" stroke="#000000" stroke-width="0.504" stroke-miterlimit="2.4142" d="      M521.973,167.727c1.316,0,2.413,1.097,2.413,2.488c0,1.317-1.097,2.414-2.413,2.414s-2.416-1.097-2.416-2.414      C519.557,168.824,520.656,167.727,521.973,167.727L521.973,167.727z"/>
<path fill-rule="evenodd" clip-rule="evenodd" fill="none" stroke="#000000" stroke-width="0.504" stroke-miterlimit="2.4142" d="      M530.477,167.727c1.316,0,2.413,1.097,2.413,2.488c0,1.317-1.097,2.414-2.413,2.414s-2.416-1.097-2.416-2.414      C528.061,168.824,529.16,167.727,530.477,167.727L530.477,167.727z"/>
</g></switch>
</svg>