<?xml version="1.0" encoding="utf-8"?>
<!DOCTYPE svg PUBLIC "-//W3C//DTD SVG 1.1//EN" "http://www.w3.org/Graphics/SVG/1.1/DTD/svg11.dtd">
<svg version="1.1" id="Armor" xmlns="http://www.w3.org/2000/svg" xmlns:xlink="http://www.w3.org/1999/xlink" x="0px" y="0px"
	 width="612px" height="792px" viewBox="0 0 612 792" enable-background="new 0 0 612 792" xml:space="preserve">
<switch><g>
<path fill="none" stroke="#000000" stroke-width="0.504" stroke-miterlimit="2.4142" d="M557.448,80.914     c1.662-0.143,2.928-1.651,2.78-3.312c-0.146-1.73-1.648-2.924-3.312-2.778c-1.729,0.149-3.001,1.586-2.849,3.318     C554.216,79.804,555.72,81.065,557.448,80.914L557.448,80.914z"/>
<path fill="none" stroke="#000000" stroke-width="0.504" stroke-miterlimit="2.4142" d="M563.484,84.845     c1.663-0.145,2.927-1.649,2.778-3.313c-0.148-1.728-1.646-2.922-3.312-2.778c-1.728,0.152-3.002,1.589-2.852,3.318     C560.245,83.734,561.758,84.998,563.484,84.845L563.484,84.845z"/>
<path fill="none" stroke="#000000" stroke-width="0.504" stroke-miterlimit="2.4142" d="M552.189,85.833     c1.664-0.145,2.927-1.651,2.778-3.311c-0.148-1.729-1.646-2.925-3.313-2.779c-1.728,0.149-2.996,1.589-2.845,3.32     C548.958,84.724,550.461,85.986,552.189,85.833L552.189,85.833z"/>
<path fill="none" stroke="#000000" stroke-width="0.504" stroke-miterlimit="2.4142" d="M558.222,89.763     c1.662-0.143,2.931-1.65,2.781-3.311c-0.146-1.731-1.647-2.924-3.31-2.777c-1.731,0.148-3.003,1.585-2.852,3.318     C554.991,88.653,556.495,89.915,558.222,89.763L558.222,89.763z"/>
<path fill="none" stroke="#000000" stroke-width="0.504" stroke-miterlimit="2.4142" d="M564.259,93.695     c1.66-0.146,2.928-1.653,2.78-3.313c-0.15-1.729-1.646-2.924-3.313-2.779c-1.728,0.151-3.002,1.59-2.849,3.319     C561.021,92.583,562.532,93.846,564.259,93.695L564.259,93.695z"/>
<path fill="none" stroke="#000000" stroke-width="0.504" stroke-miterlimit="2.4142" d="M552.964,94.685     c1.663-0.146,2.929-1.651,2.78-3.312c-0.149-1.729-1.648-2.926-3.315-2.782c-1.726,0.151-2.995,1.592-2.844,3.323     C549.73,93.574,551.236,94.836,552.964,94.685L552.964,94.685z"/>
<path fill="none" stroke="#000000" stroke-width="0.504" stroke-miterlimit="2.4142" d="M558.996,98.612     c1.665-0.144,2.927-1.65,2.782-3.311c-0.146-1.732-1.65-2.925-3.31-2.778c-1.731,0.15-3.002,1.586-2.854,3.318     C555.761,97.503,557.268,98.764,558.996,98.612L558.996,98.612z"/>
<path fill="none" stroke="#000000" stroke-width="0.504" stroke-miterlimit="2.4142" d="M565.03,102.543     c1.666-0.142,2.932-1.651,2.783-3.311c-0.15-1.73-1.65-2.925-3.312-2.777c-1.731,0.15-3.008,1.585-2.852,3.316     C561.798,101.433,563.306,102.695,565.03,102.543L565.03,102.543z"/>
<path fill="none" stroke="#000000" stroke-width="0.504" stroke-miterlimit="2.4142" d="M553.731,103.533     c1.668-0.144,2.936-1.654,2.786-3.313c-0.149-1.729-1.651-2.924-3.313-2.777c-1.732,0.148-2.998,1.586-2.846,3.318     C550.503,102.421,552.009,103.683,553.731,103.533L553.731,103.533z"/>
<path fill="none" stroke="#000000" stroke-width="0.504" stroke-miterlimit="2.4142" d="M559.771,107.465     c1.665-0.146,2.925-1.652,2.779-3.313c-0.15-1.731-1.647-2.924-3.313-2.78c-1.728,0.152-3,1.588-2.85,3.319     C556.534,106.35,558.045,107.617,559.771,107.465L559.771,107.465z"/>
<path fill="none" stroke="#000000" stroke-width="0.504" stroke-miterlimit="2.4142" d="M565.81,111.396     c1.662-0.146,2.921-1.652,2.779-3.313c-0.154-1.731-1.649-2.926-3.313-2.782c-1.728,0.152-3.002,1.592-2.853,3.32     C562.565,110.28,564.079,111.548,565.81,111.396L565.81,111.396z"/>
<path fill="none" stroke="#000000" stroke-width="0.504" stroke-miterlimit="2.4142" d="M554.513,112.382     c1.662-0.145,2.927-1.649,2.777-3.312c-0.15-1.729-1.648-2.924-3.313-2.779c-1.727,0.151-2.995,1.587-2.844,3.32     C551.276,111.27,552.784,112.536,554.513,112.382L554.513,112.382z"/>
<path fill="none" stroke="#000000" stroke-width="0.504" stroke-miterlimit="2.4142" d="M560.549,116.313     c1.663-0.144,2.922-1.648,2.776-3.311c-0.151-1.731-1.65-2.927-3.314-2.78c-1.729,0.15-2.995,1.589-2.844,3.319     C557.315,115.199,558.819,116.465,560.549,116.313L560.549,116.313z"/>
<path fill="none" stroke="#000000" stroke-width="0.504" stroke-miterlimit="2.4142" d="M566.583,120.243     c1.664-0.146,2.923-1.652,2.779-3.312c-0.152-1.73-1.652-2.925-3.314-2.779c-1.729,0.153-3,1.587-2.85,3.319     C563.347,119.132,564.851,120.395,566.583,120.243L566.583,120.243z"/>
<path fill="none" stroke="#000000" stroke-width="0.504" stroke-miterlimit="2.4142" d="M555.286,121.232     c1.664-0.146,2.923-1.654,2.781-3.311c-0.15-1.729-1.654-2.926-3.32-2.78c-1.725,0.152-2.992,1.589-2.838,3.319     C552.056,120.122,553.556,121.384,555.286,121.232L555.286,121.232z"/>
<path fill="none" stroke="#000000" stroke-width="0.504" stroke-miterlimit="2.4142" d="M561.321,125.162     c1.662-0.146,2.926-1.652,2.778-3.313c-0.151-1.731-1.646-2.925-3.312-2.779c-1.73,0.151-3.001,1.587-2.851,3.319     C558.083,124.049,559.593,125.314,561.321,125.162L561.321,125.162z"/>
<path fill="none" stroke="#000000" stroke-width="0.504" stroke-miterlimit="2.4142" d="M567.354,129.094     c1.66-0.144,2.929-1.65,2.781-3.312c-0.151-1.733-1.647-2.927-3.313-2.782c-1.729,0.151-3.006,1.589-2.851,3.32     C564.118,127.982,565.628,129.247,567.354,129.094L567.354,129.094z"/>
<path fill="none" stroke="#000000" stroke-width="0.504" stroke-miterlimit="2.4142" d="M556.06,130.083     c1.66-0.146,2.927-1.651,2.785-3.314c-0.155-1.731-1.653-2.926-3.315-2.78c-1.73,0.152-3,1.589-2.845,3.321     C552.823,128.97,554.331,130.235,556.06,130.083L556.06,130.083z"/>
<path fill="none" stroke="#000000" stroke-width="0.504" stroke-miterlimit="2.4142" d="M562.093,134.013     c1.668-0.146,2.929-1.653,2.781-3.312c-0.148-1.732-1.65-2.927-3.314-2.781c-1.725,0.15-2.995,1.589-2.844,3.322     C558.858,132.899,560.364,134.164,562.093,134.013L562.093,134.013z"/>
<path fill="none" stroke="#000000" stroke-width="0.504" stroke-miterlimit="2.4142" d="M568.132,137.943     c1.663-0.144,2.924-1.651,2.777-3.311c-0.148-1.733-1.648-2.927-3.313-2.782c-1.728,0.153-2.999,1.589-2.85,3.32     C564.892,136.832,566.401,138.096,568.132,137.943L568.132,137.943z"/>
<path fill="none" stroke="#000000" stroke-width="0.504" stroke-miterlimit="2.4142" d="M556.838,138.932     c1.66-0.146,2.925-1.649,2.778-3.31c-0.15-1.733-1.65-2.927-3.317-2.783c-1.724,0.151-2.994,1.588-2.839,3.323     C553.602,137.82,555.106,139.085,556.838,138.932L556.838,138.932z"/>
<path fill="none" stroke="#000000" stroke-width="0.504" stroke-miterlimit="2.4142" d="M562.868,142.861     c1.666-0.144,2.926-1.65,2.778-3.311c-0.149-1.731-1.646-2.925-3.311-2.78c-1.729,0.152-3,1.589-2.848,3.322     C559.633,141.749,561.144,143.014,562.868,142.861L562.868,142.861z"/>
<path fill="none" stroke="#000000" stroke-width="0.504" stroke-miterlimit="2.4142" d="M568.901,146.793     c1.666-0.146,2.928-1.652,2.782-3.313c-0.151-1.73-1.646-2.923-3.313-2.779c-1.729,0.15-3.002,1.587-2.849,3.322     C565.667,145.679,567.177,146.943,568.901,146.793L568.901,146.793z"/>
<path fill="none" stroke="#000000" stroke-width="0.504" stroke-miterlimit="2.4142" d="M557.606,147.781     c1.663-0.146,2.928-1.651,2.785-3.312c-0.155-1.729-1.653-2.927-3.316-2.781c-1.731,0.151-3,1.587-2.842,3.319     C554.374,146.668,555.878,147.932,557.606,147.781L557.606,147.781z"/>
<path fill="none" stroke="#000000" stroke-width="0.504" stroke-miterlimit="2.4142" d="M563.645,151.712     c1.662-0.146,2.924-1.651,2.78-3.311c-0.155-1.733-1.649-2.928-3.314-2.783c-1.725,0.152-2.998,1.588-2.844,3.321     C560.405,150.599,561.914,151.864,563.645,151.712L563.645,151.712z"/>
<path fill="none" stroke="#000000" stroke-width="0.504" stroke-miterlimit="2.4142" d="M569.681,155.64     c1.66-0.144,2.925-1.649,2.775-3.309c-0.148-1.733-1.646-2.925-3.311-2.78c-1.726,0.15-3,1.586-2.85,3.32     C566.44,154.529,567.95,155.792,569.681,155.64L569.681,155.64z"/>
<path fill="none" stroke="#000000" stroke-width="0.504" stroke-miterlimit="2.4142" d="M558.384,156.629     c1.662-0.142,2.926-1.65,2.777-3.311c-0.146-1.731-1.646-2.924-3.313-2.778c-1.728,0.15-2.995,1.587-2.845,3.319     C555.149,155.517,556.653,156.781,558.384,156.629L558.384,156.629z"/>
<path fill="none" stroke="#000000" stroke-width="0.504" stroke-miterlimit="2.4142" d="M564.419,160.561     c1.662-0.145,2.922-1.652,2.779-3.313c-0.153-1.73-1.65-2.923-3.315-2.779c-1.726,0.153-2.996,1.59-2.843,3.321     C561.179,159.447,562.688,160.71,564.419,160.561L564.419,160.561z"/>
<path fill="none" stroke="#000000" stroke-width="0.504" stroke-miterlimit="2.4142" d="M570.454,164.491     c1.662-0.145,2.922-1.651,2.776-3.312c-0.149-1.733-1.649-2.925-3.313-2.78c-1.727,0.151-3.001,1.585-2.846,3.321     C567.214,163.38,568.722,164.644,570.454,164.491L570.454,164.491z"/>
<path fill="none" stroke="#000000" stroke-width="0.504" stroke-miterlimit="2.4142" d="M559.159,165.479     c1.66-0.143,2.923-1.651,2.778-3.312c-0.147-1.732-1.651-2.924-3.313-2.779c-1.729,0.151-2.996,1.588-2.842,3.319     C555.922,164.367,557.427,165.633,559.159,165.479L559.159,165.479z"/>
<path fill="none" stroke="#000000" stroke-width="0.504" stroke-miterlimit="2.4142" d="M565.192,169.41     c1.661-0.146,2.924-1.651,2.78-3.313c-0.153-1.73-1.651-2.923-3.315-2.779c-1.726,0.152-2.997,1.589-2.844,3.321     C561.954,168.298,563.462,169.561,565.192,169.41L565.192,169.41z"/>
<path fill="none" stroke="#000000" stroke-width="0.504" stroke-miterlimit="2.4142" d="M571.229,173.341     c1.661-0.145,2.923-1.651,2.776-3.312c-0.149-1.733-1.647-2.925-3.313-2.781c-1.726,0.151-3,1.587-2.847,3.321     C567.987,172.229,569.496,173.493,571.229,173.341L571.229,173.341z"/>
<path fill="none" stroke="#000000" stroke-width="0.504" stroke-miterlimit="2.4142" d="M559.933,174.329     c1.662-0.143,2.925-1.651,2.779-3.313c-0.147-1.731-1.65-2.924-3.313-2.778c-1.729,0.151-2.994,1.588-2.843,3.318     C556.696,173.217,558.2,174.482,559.933,174.329L559.933,174.329z"/>
</g></switch>
</svg>