<?xml version="1.0" encoding="utf-8"?>
<!DOCTYPE svg PUBLIC "-//W3C//DTD SVG 1.1//EN" "http://www.w3.org/Graphics/SVG/1.1/DTD/svg11.dtd">
<svg version="1.1" id="Armor" xmlns="http://www.w3.org/2000/svg" xmlns:xlink="http://www.w3.org/1999/xlink" x="0px" y="0px"
	 width="612px" height="792px" viewBox="0 0 612 792" enable-background="new 0 0 612 792" xml:space="preserve">
<switch><g>
<path fill="none" stroke="#000000" stroke-width="0.504" stroke-miterlimit="2.4142" d="M449.873,327.606      c-1.065,0-1.998-0.864-1.998-1.994c0-1.131,0.933-2.062,1.998-2.062c1.13,0,2.06,0.931,2.06,2.062      C451.933,326.742,451.003,327.606,449.873,327.606L449.873,327.606z"/>
<path fill="none" stroke="#000000" stroke-width="0.504" stroke-miterlimit="2.4142" d="M457.766,327.606      c-1.064,0-1.998-0.864-1.998-1.994c0-1.131,0.934-2.062,1.998-2.062c1.131,0,2.061,0.931,2.061,2.062      C459.825,326.742,458.896,327.606,457.766,327.606L457.766,327.606z"/>
<path fill="none" stroke="#000000" stroke-width="0.504" stroke-miterlimit="2.4142" d="M465.658,327.606      c-1.065,0-1.998-0.864-1.998-1.994c0-1.131,0.933-2.062,1.998-2.062c1.13,0,2.06,0.931,2.06,2.062      C467.718,326.742,466.788,327.606,465.658,327.606L465.658,327.606z"/>
<path fill="none" stroke="#000000" stroke-width="0.504" stroke-miterlimit="2.4142" d="M449.873,332.994      c-1.065,0-1.998-0.864-1.998-1.994c0-1.131,0.933-2.062,1.998-2.062c1.13,0,2.06,0.931,2.06,2.062      C451.933,332.129,451.003,332.994,449.873,332.994L449.873,332.994z"/>
<path fill="none" stroke="#000000" stroke-width="0.504" stroke-miterlimit="2.4142" d="M457.766,332.994      c-1.064,0-1.998-0.864-1.998-1.994c0-1.131,0.934-2.062,1.998-2.062c1.131,0,2.061,0.931,2.061,2.062      C459.825,332.13,458.896,332.994,457.766,332.994L457.766,332.994z"/>
<path fill="none" stroke="#000000" stroke-width="0.504" stroke-miterlimit="2.4142" d="M465.658,332.994      c-1.065,0-1.998-0.864-1.998-1.994c0-1.131,0.933-2.062,1.998-2.062c1.13,0,2.06,0.931,2.06,2.062      C467.718,332.129,466.788,332.994,465.658,332.994L465.658,332.994z"/>
<path fill="none" stroke="#000000" stroke-width="0.504" stroke-miterlimit="2.4142" d="M449.873,338.381      c-1.065,0-1.998-0.864-1.998-1.994c0-1.131,0.933-2.062,1.998-2.062c1.13,0,2.06,0.931,2.06,2.062      C451.933,337.517,451.003,338.381,449.873,338.381L449.873,338.381z"/>
<path fill="none" stroke="#000000" stroke-width="0.504" stroke-miterlimit="2.4142" d="M465.658,338.381      c-1.065,0-1.998-0.864-1.998-1.994c0-1.131,0.933-2.062,1.998-2.062c1.13,0,2.06,0.931,2.06,2.062      C467.718,337.517,466.788,338.381,465.658,338.381L465.658,338.381z"/>
<path fill="none" stroke="#000000" stroke-width="0.504" stroke-miterlimit="2.4142" d="M457.766,338.382      c-1.064,0-1.998-0.864-1.998-1.994c0-1.131,0.934-2.062,1.998-2.062c1.131,0,2.061,0.931,2.061,2.062      C459.825,337.518,458.896,338.382,457.766,338.382L457.766,338.382z"/>
<path fill="none" stroke="#000000" stroke-width="0.504" stroke-miterlimit="2.4142" d="M449.872,343.77      c-1.132,0-1.997-0.932-1.997-1.997c0-1.128,0.865-2.061,1.997-2.061c1.131,0,2.061,0.932,2.061,2.061      C451.933,342.838,451.003,343.77,449.872,343.77L449.872,343.77z"/>
<path fill="none" stroke="#000000" stroke-width="0.504" stroke-miterlimit="2.4142" d="M457.766,343.77      c-1.064,0-1.998-0.864-1.998-1.994c0-1.131,0.934-2.062,1.998-2.062c1.131,0,2.061,0.931,2.061,2.062      C459.825,342.905,458.896,343.77,457.766,343.77L457.766,343.77z"/>
<path fill="none" stroke="#000000" stroke-width="0.504" stroke-miterlimit="2.4142" d="M465.657,343.77      c-1.132,0-1.997-0.932-1.997-1.997c0-1.128,0.865-2.061,1.997-2.061c1.131,0,2.061,0.932,2.061,2.061      C467.718,342.838,466.788,343.77,465.657,343.77L465.657,343.77z"/>
<path fill="none" stroke="#000000" stroke-width="0.504" stroke-miterlimit="2.4142" d="M457.766,349.158      c-1.064,0-1.998-0.864-1.998-1.994c0-1.131,0.934-2.062,1.998-2.062c1.131,0,2.061,0.931,2.061,2.062      C459.825,348.293,458.896,349.158,457.766,349.158L457.766,349.158z"/>
<path fill="none" stroke="#000000" stroke-width="0.504" stroke-miterlimit="2.4142" d="M465.657,349.158      c-1.132,0-1.997-0.932-1.997-1.997c0-1.128,0.865-2.061,1.997-2.061c1.131,0,2.061,0.932,2.061,2.061      C467.718,348.226,466.788,349.158,465.657,349.158L465.657,349.158z"/>
</g></switch>
</svg>