<?xml version="1.0" encoding="utf-8"?>
<!DOCTYPE svg PUBLIC "-//W3C//DTD SVG 1.1//EN" "http://www.w3.org/Graphics/SVG/1.1/DTD/svg11.dtd">
<svg version="1.1" id="Armor" xmlns="http://www.w3.org/2000/svg" xmlns:xlink="http://www.w3.org/1999/xlink" x="0px" y="0px"
	 width="612px" height="792px" viewBox="0 0 612 792" enable-background="new 0 0 612 792" xml:space="preserve">
<switch><g>
<path fill-rule="evenodd" clip-rule="evenodd" fill="none" stroke="#000000" stroke-width="0.504" stroke-miterlimit="2.4142" d="     M519.401,190.216c1.559-0.388,2.515-1.984,2.104-3.612c-0.388-1.563-1.985-2.527-3.548-2.135     c-1.628,0.407-2.588,2.004-2.199,3.56C516.162,189.67,517.762,190.625,519.401,190.216L519.401,190.216z"/>
<path fill-rule="evenodd" clip-rule="evenodd" fill="none" stroke="#000000" stroke-width="0.504" stroke-miterlimit="2.4142" d="     M528.695,204.452c1.564-0.391,2.521-1.984,2.111-3.617c-0.391-1.564-1.985-2.52-3.545-2.135     c-1.635,0.408-2.594,2.006-2.201,3.569C525.465,203.899,527.066,204.862,528.695,204.452L528.695,204.452z"/>
<path fill-rule="evenodd" clip-rule="evenodd" fill="none" stroke="#000000" stroke-width="0.504" stroke-miterlimit="2.4142" d="     M517.275,207.086c1.568-0.384,2.521-1.982,2.117-3.61c-0.395-1.566-1.986-2.526-3.545-2.137     c-1.633,0.409-2.599,2.011-2.204,3.567C514.047,206.537,515.648,207.501,517.275,207.086L517.275,207.086z"/>
<path fill-rule="evenodd" clip-rule="evenodd" fill="none" stroke="#000000" stroke-width="0.504" stroke-miterlimit="2.4142" d="     M526.578,221.322c1.563-0.389,2.518-1.985,2.107-3.616c-0.387-1.567-1.983-2.523-3.548-2.132     c-1.628,0.406-2.585,2.004-2.196,3.565C523.349,220.77,524.939,221.732,526.578,221.322L526.578,221.322z"/>
<path fill-rule="evenodd" clip-rule="evenodd" fill="none" stroke="#000000" stroke-width="0.504" stroke-miterlimit="2.4142" d="     M535.873,235.559c1.561-0.39,2.523-1.984,2.115-3.617c-0.391-1.566-1.988-2.521-3.556-2.132     c-1.628,0.404-2.591,2.005-2.196,3.563C532.638,235.003,534.237,235.965,535.873,235.559L535.873,235.559z"/>
<path fill-rule="evenodd" clip-rule="evenodd" fill="none" stroke="#000000" stroke-width="0.504" stroke-miterlimit="2.4142" d="     M524.458,238.192c1.564-0.388,2.524-1.985,2.115-3.616c-0.389-1.563-1.985-2.521-3.548-2.131     c-1.631,0.402-2.591,2.002-2.201,3.563C521.225,237.641,522.827,238.602,524.458,238.192L524.458,238.192z"/>
<path fill-rule="evenodd" clip-rule="evenodd" fill="none" stroke="#000000" stroke-width="0.504" stroke-miterlimit="2.4142" d="     M533.76,252.427c1.557-0.393,2.511-1.986,2.111-3.617c-0.393-1.564-1.992-2.524-3.547-2.13c-1.639,0.401-2.596,2.003-2.203,3.561     C530.529,251.875,532.123,252.835,533.76,252.427L533.76,252.427z"/>
<path fill-rule="evenodd" clip-rule="evenodd" fill="none" stroke="#000000" stroke-width="0.504" stroke-miterlimit="2.4142" d="     M543.055,266.662c1.563-0.387,2.518-1.984,2.116-3.621c-0.396-1.557-1.991-2.516-3.557-2.125c-1.631,0.407-2.593,2.002-2.2,3.564     C539.824,266.111,541.422,267.072,543.055,266.662L543.055,266.662z"/>
<path fill-rule="evenodd" clip-rule="evenodd" fill="none" stroke="#000000" stroke-width="0.504" stroke-miterlimit="2.4142" d="     M531.642,269.299c1.563-0.389,2.521-1.985,2.114-3.617c-0.389-1.559-1.989-2.521-3.553-2.131     c-1.629,0.407-2.593,2.005-2.196,3.565C528.41,268.747,530.008,269.708,531.642,269.299L531.642,269.299z"/>
<path fill-rule="evenodd" clip-rule="evenodd" fill="none" stroke="#000000" stroke-width="0.504" stroke-miterlimit="2.4142" d="     M540.938,283.534c1.561-0.391,2.525-1.985,2.109-3.62c-0.383-1.563-1.977-2.521-3.544-2.13c-1.63,0.403-2.593,2.003-2.206,3.562     C537.711,282.979,539.311,283.941,540.938,283.534L540.938,283.534z"/>
<path fill-rule="evenodd" clip-rule="evenodd" fill="none" stroke="#000000" stroke-width="0.504" stroke-miterlimit="2.4142" d="     M550.238,297.768c1.563-0.385,2.52-1.985,2.113-3.621c-0.395-1.555-1.988-2.512-3.557-2.126c-1.621,0.405-2.589,1.999-2.19,3.563     C547.008,297.221,548.605,298.179,550.238,297.768L550.238,297.768z"/>
<path fill-rule="evenodd" clip-rule="evenodd" fill="none" stroke="#000000" stroke-width="0.504" stroke-miterlimit="2.4142" d="     M538.821,300.404c1.565-0.383,2.524-1.983,2.116-3.617c-0.393-1.561-1.99-2.517-3.55-2.132c-1.628,0.41-2.593,2.002-2.202,3.567     C535.596,299.854,537.193,300.815,538.821,300.404L538.821,300.404z"/>
</g></switch>
</svg>