<?xml version="1.0" encoding="utf-8"?>
<!DOCTYPE svg PUBLIC "-//W3C//DTD SVG 1.1//EN" "http://www.w3.org/Graphics/SVG/1.1/DTD/svg11.dtd">
<svg version="1.1" id="Armor" xmlns="http://www.w3.org/2000/svg" xmlns:xlink="http://www.w3.org/1999/xlink" x="0px" y="0px"
	 width="612px" height="792px" viewBox="0 0 612 792" enable-background="new 0 0 612 792" xml:space="preserve">
<switch><g>
<path fill="none" stroke="#000000" stroke-width="0.504" stroke-miterlimit="2.4142" d="M514.883,93.42      c1.318,0,2.414-1.098,2.414-2.415c0-1.317-1.096-2.414-2.414-2.414c-1.315,0-2.414,1.097-2.414,2.414      C512.469,92.322,513.566,93.42,514.883,93.42L514.883,93.42z"/>
<path fill="none" stroke="#000000" stroke-width="0.504" stroke-miterlimit="2.4142" d="M525.93,93.42      c1.322,0,2.418-1.098,2.418-2.415c0-1.317-1.096-2.414-2.418-2.414c-1.315,0-2.412,1.097-2.412,2.414      C523.518,92.322,524.613,93.42,525.93,93.42L525.93,93.42z"/>
<path fill="none" stroke="#000000" stroke-width="0.504" stroke-miterlimit="2.4142" d="M536.98,93.42      c1.321,0,2.418-1.098,2.418-2.415c0-1.317-1.097-2.414-2.418-2.414c-1.316,0-2.412,1.097-2.412,2.414      C534.568,92.322,535.664,93.42,536.98,93.42L536.98,93.42z"/>
<path fill="none" stroke="#000000" stroke-width="0.504" stroke-miterlimit="2.4142" d="M520.189,106.144      c1.315,0,2.414-1.098,2.414-2.415s-1.099-2.415-2.414-2.415c-1.316,0-2.416,1.097-2.416,2.415      C517.773,105.046,518.873,106.144,520.189,106.144L520.189,106.144z"/>
<path fill="none" stroke="#000000" stroke-width="0.504" stroke-miterlimit="2.4142" d="M530.973,106.144      c1.322,0,2.418-1.098,2.418-2.415s-1.096-2.415-2.418-2.415c-1.315,0-2.412,1.097-2.412,2.415      C528.561,105.046,529.656,106.144,530.973,106.144L530.973,106.144z"/>
<path fill="none" stroke="#000000" stroke-width="0.504" stroke-miterlimit="2.4142" d="M514.883,118.866      c1.318,0,2.414-1.098,2.414-2.415c0-1.317-1.096-2.414-2.414-2.414c-1.315,0-2.414,1.097-2.414,2.414      C512.469,117.768,513.566,118.866,514.883,118.866L514.883,118.866z"/>
<path fill="none" stroke="#000000" stroke-width="0.504" stroke-miterlimit="2.4142" d="M525.93,118.866      c1.322,0,2.418-1.098,2.418-2.415c0-1.317-1.096-2.414-2.418-2.414c-1.315,0-2.412,1.097-2.412,2.414      C523.518,117.768,524.613,118.866,525.93,118.866L525.93,118.866z"/>
<path fill="none" stroke="#000000" stroke-width="0.504" stroke-miterlimit="2.4142" d="M536.98,118.866      c1.321,0,2.418-1.098,2.418-2.415c0-1.317-1.097-2.414-2.418-2.414c-1.316,0-2.412,1.097-2.412,2.414      C534.568,117.768,535.664,118.866,536.98,118.866L536.98,118.866z"/>
<path fill="none" stroke="#000000" stroke-width="0.504" stroke-miterlimit="2.4142" d="M520.189,131.589     c1.315,0,2.414-1.098,2.414-2.414c0-1.317-1.099-2.415-2.414-2.415c-1.316,0-2.416,1.098-2.416,2.415     C517.773,130.491,518.873,131.589,520.189,131.589L520.189,131.589z"/>
<path fill="none" stroke="#000000" stroke-width="0.504" stroke-miterlimit="2.4142" d="M518.105,144.312     c1.321,0,2.418-1.098,2.418-2.415s-1.097-2.415-2.418-2.415c-1.316,0-2.412,1.097-2.412,2.415     C515.693,143.214,516.789,144.312,518.105,144.312L518.105,144.312z"/>
<path fill="none" stroke="#000000" stroke-width="0.504" stroke-miterlimit="2.4142" d="M513.018,157.071     c1.316,0,2.414-1.097,2.414-2.488c0-1.317-1.098-2.414-2.414-2.414c-1.315,0-2.416,1.097-2.416,2.414     C510.602,155.975,511.701,157.071,513.018,157.071L513.018,157.071z"/>
<path fill="none" stroke="#000000" stroke-width="0.504" stroke-miterlimit="2.4142" d="M526.613,169.794     c1.315,0,2.414-1.097,2.414-2.488c0-1.317-1.099-2.414-2.414-2.414c-1.316,0-2.416,1.097-2.416,2.414     C524.197,168.697,525.297,169.794,526.613,169.794L526.613,169.794z"/>
</g></switch>
</svg>