<?xml version="1.0" encoding="utf-8"?>
<!DOCTYPE svg PUBLIC "-//W3C//DTD SVG 1.1//EN" "http://www.w3.org/Graphics/SVG/1.1/DTD/svg11.dtd">
<svg version="1.1" id="Armor" xmlns="http://www.w3.org/2000/svg" xmlns:xlink="http://www.w3.org/1999/xlink" x="0px" y="0px"
	 width="612px" height="792px" viewBox="0 0 612 792" enable-background="new 0 0 612 792" xml:space="preserve">
<switch><g>
<path fill="none" stroke="#000000" stroke-width="0.504" stroke-miterlimit="2.4142" d="M557.724,80.887     c1.668-0.144,2.926-1.652,2.78-3.312c-0.148-1.73-1.646-2.924-3.313-2.782c-1.728,0.152-2.996,1.592-2.847,3.322     C554.484,79.775,555.996,81.041,557.724,80.887L557.724,80.887z"/>
<path fill="none" stroke="#000000" stroke-width="0.504" stroke-miterlimit="2.4142" d="M564.115,88.866     c1.664-0.146,2.922-1.652,2.778-3.313c-0.151-1.729-1.649-2.925-3.314-2.782c-1.726,0.154-2.999,1.591-2.851,3.321     C560.871,87.751,562.386,89.016,564.115,88.866L564.115,88.866z"/>
<path fill="none" stroke="#000000" stroke-width="0.504" stroke-miterlimit="2.4142" d="M552.817,89.852     c1.665-0.144,2.929-1.648,2.78-3.31c-0.151-1.729-1.648-2.925-3.313-2.781c-1.729,0.152-2.998,1.589-2.847,3.319     C549.581,88.742,551.091,90.005,552.817,89.852L552.817,89.852z"/>
<path fill="none" stroke="#000000" stroke-width="0.504" stroke-miterlimit="2.4142" d="M559.212,97.831     c1.661-0.146,2.919-1.652,2.774-3.313c-0.152-1.731-1.648-2.925-3.313-2.781c-1.728,0.152-2.998,1.592-2.845,3.321     C555.975,96.716,557.479,97.984,559.212,97.831L559.212,97.831z"/>
<path fill="none" stroke="#000000" stroke-width="0.504" stroke-miterlimit="2.4142" d="M565.599,105.806     c1.662-0.146,2.921-1.651,2.776-3.309c-0.152-1.73-1.649-2.926-3.311-2.781c-1.731,0.151-3.005,1.589-2.854,3.318     C562.362,104.697,563.868,105.96,565.599,105.806L565.599,105.806z"/>
<path fill="none" stroke="#000000" stroke-width="0.504" stroke-miterlimit="2.4142" d="M554.3,106.795     c1.664-0.144,2.924-1.653,2.783-3.311c-0.153-1.731-1.653-2.925-3.319-2.78c-1.726,0.152-2.997,1.588-2.841,3.32     C551.068,105.687,552.57,106.948,554.3,106.795L554.3,106.795z"/>
<path fill="none" stroke="#000000" stroke-width="0.504" stroke-miterlimit="2.4142" d="M560.69,114.775     c1.66-0.146,2.923-1.653,2.779-3.313c-0.155-1.734-1.646-2.928-3.312-2.783c-1.732,0.15-3.003,1.589-2.853,3.321     C557.451,113.662,558.964,114.925,560.69,114.775L560.69,114.775z"/>
<path fill="none" stroke="#000000" stroke-width="0.504" stroke-miterlimit="2.4142" d="M567.077,122.748     c1.664-0.145,2.928-1.65,2.779-3.312c-0.148-1.731-1.646-2.925-3.31-2.776c-1.729,0.149-3.004,1.582-2.854,3.315     C563.841,121.638,565.354,122.901,567.077,122.748L567.077,122.748z"/>
<path fill="none" stroke="#000000" stroke-width="0.504" stroke-miterlimit="2.4142" d="M555.78,123.739     c1.666-0.145,2.932-1.652,2.783-3.313c-0.148-1.733-1.646-2.925-3.313-2.78c-1.728,0.153-2.997,1.587-2.849,3.319     C552.548,122.625,554.057,123.89,555.78,123.739L555.78,123.739z"/>
<path fill="none" stroke="#000000" stroke-width="0.504" stroke-miterlimit="2.4142" d="M562.171,131.717     c1.667-0.145,2.927-1.65,2.782-3.311c-0.154-1.731-1.647-2.925-3.315-2.781c-1.726,0.153-2.999,1.589-2.847,3.322     C558.938,130.608,560.44,131.869,562.171,131.717L562.171,131.717z"/>
<path fill="none" stroke="#000000" stroke-width="0.504" stroke-miterlimit="2.4142" d="M568.559,139.694     c1.67-0.145,2.928-1.651,2.779-3.313c-0.146-1.731-1.646-2.926-3.31-2.781c-1.728,0.153-3.002,1.586-2.852,3.322     C565.321,138.582,566.832,139.847,568.559,139.694L568.559,139.694z"/>
<path fill="none" stroke="#000000" stroke-width="0.504" stroke-miterlimit="2.4142" d="M557.266,140.683     c1.665-0.146,2.926-1.651,2.78-3.311c-0.151-1.733-1.648-2.926-3.313-2.782c-1.726,0.152-2.995,1.587-2.843,3.321     C554.029,139.573,555.535,140.835,557.266,140.683L557.266,140.683z"/>
<path fill="none" stroke="#000000" stroke-width="0.504" stroke-miterlimit="2.4142" d="M563.653,148.662     c1.666-0.144,2.925-1.65,2.776-3.312c-0.15-1.73-1.643-2.925-3.308-2.783c-1.729,0.154-3.004,1.591-2.848,3.323     C560.416,147.549,561.929,148.813,563.653,148.662L563.653,148.662z"/>
<path fill="none" stroke="#000000" stroke-width="0.504" stroke-miterlimit="2.4142" d="M570.042,156.637     c1.668-0.146,2.926-1.652,2.779-3.313c-0.15-1.731-1.646-2.926-3.313-2.78c-1.726,0.15-3.003,1.589-2.848,3.324     C566.806,155.522,568.314,156.788,570.042,156.637L570.042,156.637z"/>
<path fill="none" stroke="#000000" stroke-width="0.504" stroke-miterlimit="2.4142" d="M558.747,157.626     c1.662-0.145,2.926-1.648,2.781-3.31c-0.154-1.733-1.65-2.928-3.316-2.782c-1.729,0.151-2.997,1.587-2.845,3.32     C555.51,156.517,557.016,157.777,558.747,157.626L558.747,157.626z"/>
<path fill="none" stroke="#000000" stroke-width="0.504" stroke-miterlimit="2.4142" d="M565.138,165.604     c1.661-0.144,2.923-1.651,2.779-3.312c-0.155-1.73-1.648-2.924-3.313-2.78c-1.727,0.151-3,1.588-2.845,3.32     C561.896,164.493,563.409,165.755,565.138,165.604L565.138,165.604z"/>
<path fill="none" stroke="#000000" stroke-width="0.504" stroke-miterlimit="2.4142" d="M571.527,173.579     c1.66-0.143,2.921-1.649,2.776-3.311c-0.151-1.732-1.65-2.926-3.312-2.781c-1.729,0.15-3.003,1.587-2.85,3.321     C568.283,172.469,569.797,173.732,571.527,173.579L571.527,173.579z"/>
<path fill="none" stroke="#000000" stroke-width="0.504" stroke-miterlimit="2.4142" d="M560.232,174.567     c1.658-0.139,2.923-1.651,2.774-3.31c-0.147-1.733-1.648-2.926-3.311-2.778c-1.729,0.148-2.998,1.585-2.845,3.319     C556.994,173.457,558.498,174.723,560.232,174.567L560.232,174.567z"/>
</g></switch>
</svg>