<?xml version="1.0" encoding="utf-8"?>
<!DOCTYPE svg PUBLIC "-//W3C//DTD SVG 1.1//EN" "http://www.w3.org/Graphics/SVG/1.1/DTD/svg11.dtd">
<svg version="1.1" id="Armor" xmlns="http://www.w3.org/2000/svg" xmlns:xlink="http://www.w3.org/1999/xlink" x="0px" y="0px"
	 width="612px" height="792px" viewBox="0 0 612 792" enable-background="new 0 0 612 792" xml:space="preserve">
<switch><g>
<path fill="none" stroke="#000000" stroke-width="0.504" stroke-miterlimit="2.4142" d="M557.447,80.935     c1.662-0.144,2.929-1.652,2.781-3.312c-0.146-1.731-1.651-2.925-3.311-2.779c-1.73,0.15-3.003,1.587-2.85,3.319     C554.216,79.823,555.719,81.086,557.447,80.935L557.447,80.935z"/>
<path fill="none" stroke="#000000" stroke-width="0.504" stroke-miterlimit="2.4142" d="M563.575,85.907     c1.66-0.146,2.928-1.651,2.778-3.313c-0.148-1.729-1.646-2.924-3.313-2.779c-1.729,0.151-3.001,1.589-2.85,3.319     C560.337,84.795,561.849,86.059,563.575,85.907L563.575,85.907z"/>
<path fill="none" stroke="#000000" stroke-width="0.504" stroke-miterlimit="2.4142" d="M552.28,86.896     c1.662-0.146,2.928-1.652,2.78-3.312c-0.149-1.729-1.648-2.925-3.313-2.78c-1.728,0.151-2.999,1.59-2.849,3.321     C549.046,85.785,550.552,87.047,552.28,86.896L552.28,86.896z"/>
<path fill="none" stroke="#000000" stroke-width="0.504" stroke-miterlimit="2.4142" d="M558.403,91.866     c1.664-0.144,2.929-1.651,2.782-3.311c-0.147-1.732-1.651-2.925-3.311-2.779c-1.732,0.15-3.002,1.586-2.852,3.319     C555.171,90.756,556.675,92.019,558.403,91.866L558.403,91.866z"/>
<path fill="none" stroke="#000000" stroke-width="0.504" stroke-miterlimit="2.4142" d="M564.529,96.838     c1.663-0.143,2.93-1.651,2.783-3.311c-0.149-1.73-1.653-2.926-3.313-2.779c-1.732,0.15-3.004,1.587-2.852,3.318     C561.295,95.727,562.802,96.99,564.529,96.838L564.529,96.838z"/>
<path fill="none" stroke="#000000" stroke-width="0.504" stroke-miterlimit="2.4142" d="M553.232,97.826     c1.664-0.144,2.931-1.651,2.784-3.311c-0.147-1.732-1.654-2.925-3.314-2.779c-1.731,0.149-2.999,1.587-2.849,3.319     C550,96.716,551.505,97.978,553.232,97.826L553.232,97.826z"/>
<path fill="none" stroke="#000000" stroke-width="0.504" stroke-miterlimit="2.4142" d="M559.362,102.8     c1.664-0.146,2.924-1.652,2.779-3.313c-0.15-1.73-1.65-2.925-3.313-2.781c-1.729,0.152-2.998,1.59-2.848,3.32     C556.124,101.686,557.635,102.951,559.362,102.8L559.362,102.8z"/>
<path fill="none" stroke="#000000" stroke-width="0.504" stroke-miterlimit="2.4142" d="M565.489,107.772     c1.662-0.145,2.922-1.652,2.778-3.313c-0.151-1.73-1.65-2.925-3.313-2.781c-1.728,0.151-3,1.59-2.851,3.32     C562.247,106.658,563.759,107.925,565.489,107.772L565.489,107.772z"/>
<path fill="none" stroke="#000000" stroke-width="0.504" stroke-miterlimit="2.4142" d="M554.193,108.759     c1.66-0.145,2.927-1.65,2.779-3.312c-0.151-1.73-1.651-2.924-3.313-2.78c-1.729,0.151-3,1.588-2.849,3.32     C550.955,107.646,552.464,108.912,554.193,108.759L554.193,108.759z"/>
<path fill="none" stroke="#000000" stroke-width="0.504" stroke-miterlimit="2.4142" d="M560.321,113.73     c1.661-0.145,2.921-1.651,2.775-3.312c-0.15-1.73-1.65-2.925-3.313-2.78c-1.729,0.152-2.996,1.589-2.846,3.32     C557.086,112.617,558.589,113.883,560.321,113.73L560.321,113.73z"/>
<path fill="none" stroke="#000000" stroke-width="0.504" stroke-miterlimit="2.4142" d="M566.446,118.701     c1.659-0.145,2.922-1.651,2.777-3.312c-0.151-1.73-1.651-2.925-3.313-2.779c-1.73,0.152-3.001,1.588-2.849,3.319     C563.21,117.59,564.714,118.854,566.446,118.701L566.446,118.701z"/>
<path fill="none" stroke="#000000" stroke-width="0.504" stroke-miterlimit="2.4142" d="M555.149,119.69     c1.659-0.145,2.924-1.652,2.78-3.311c-0.15-1.73-1.653-2.926-3.318-2.78c-1.729,0.152-2.996,1.588-2.842,3.32     C551.915,118.58,553.418,119.843,555.149,119.69L555.149,119.69z"/>
<path fill="none" stroke="#000000" stroke-width="0.504" stroke-miterlimit="2.4142" d="M561.276,124.663     c1.657-0.146,2.924-1.652,2.778-3.313c-0.151-1.731-1.649-2.926-3.313-2.781c-1.73,0.151-3,1.59-2.849,3.32     C558.038,123.55,559.548,124.814,561.276,124.663L561.276,124.663z"/>
<path fill="none" stroke="#000000" stroke-width="0.504" stroke-miterlimit="2.4142" d="M567.4,129.634     c1.658-0.145,2.927-1.651,2.779-3.313c-0.151-1.731-1.648-2.926-3.313-2.78c-1.729,0.151-3.003,1.588-2.85,3.319     C564.163,128.521,565.673,129.786,567.4,129.634L567.4,129.634z"/>
<path fill="none" stroke="#000000" stroke-width="0.504" stroke-miterlimit="2.4142" d="M556.105,130.623     c1.658-0.146,2.928-1.651,2.782-3.314c-0.152-1.73-1.652-2.925-3.313-2.779c-1.73,0.152-3.001,1.589-2.851,3.319     C552.868,129.51,554.376,130.774,556.105,130.623L556.105,130.623z"/>
<path fill="none" stroke="#000000" stroke-width="0.504" stroke-miterlimit="2.4142" d="M562.229,135.595     c1.666-0.146,2.929-1.652,2.781-3.312c-0.149-1.733-1.649-2.927-3.314-2.782c-1.727,0.151-2.995,1.588-2.845,3.322     C558.995,134.481,560.501,135.746,562.229,135.595L562.229,135.595z"/>
<path fill="none" stroke="#000000" stroke-width="0.504" stroke-miterlimit="2.4142" d="M568.358,140.567     c1.661-0.146,2.924-1.651,2.776-3.312c-0.147-1.733-1.649-2.927-3.313-2.782c-1.728,0.152-2.998,1.588-2.849,3.322     C565.118,139.455,566.628,140.72,568.358,140.567L568.358,140.567z"/>
<path fill="none" stroke="#000000" stroke-width="0.504" stroke-miterlimit="2.4142" d="M557.063,141.554     c1.66-0.145,2.927-1.649,2.78-3.31c-0.15-1.732-1.652-2.926-3.316-2.782c-1.726,0.151-2.996,1.588-2.844,3.323     C553.827,140.443,555.333,141.706,557.063,141.554L557.063,141.554z"/>
<path fill="none" stroke="#000000" stroke-width="0.504" stroke-miterlimit="2.4142" d="M563.188,146.525     c1.663-0.145,2.927-1.65,2.779-3.311c-0.15-1.731-1.648-2.926-3.313-2.781c-1.729,0.152-2.999,1.59-2.846,3.321     C559.952,145.413,561.459,146.677,563.188,146.525L563.188,146.525z"/>
<path fill="none" stroke="#000000" stroke-width="0.504" stroke-miterlimit="2.4142" d="M569.313,151.499     c1.664-0.145,2.928-1.652,2.781-3.313c-0.151-1.731-1.649-2.925-3.313-2.781c-1.729,0.151-3.001,1.589-2.849,3.323     C566.077,150.385,567.585,151.649,569.313,151.499L569.313,151.499z"/>
<path fill="none" stroke="#000000" stroke-width="0.504" stroke-miterlimit="2.4142" d="M558.017,152.485     c1.662-0.145,2.929-1.65,2.784-3.311c-0.153-1.731-1.653-2.926-3.315-2.781c-1.73,0.151-3.001,1.588-2.846,3.32     C554.78,151.373,556.288,152.637,558.017,152.485L558.017,152.485z"/>
<path fill="none" stroke="#000000" stroke-width="0.504" stroke-miterlimit="2.4142" d="M564.144,157.457     c1.662-0.144,2.926-1.651,2.781-3.311c-0.153-1.732-1.651-2.926-3.313-2.781c-1.728,0.152-2.998,1.588-2.845,3.32     C560.907,156.344,562.415,157.608,564.144,157.457L564.144,157.457z"/>
<path fill="none" stroke="#000000" stroke-width="0.504" stroke-miterlimit="2.4142" d="M570.271,162.428     c1.659-0.144,2.922-1.651,2.776-3.311c-0.149-1.731-1.651-2.924-3.312-2.779c-1.728,0.15-3.001,1.587-2.849,3.32     C567.03,161.316,568.539,162.58,570.271,162.428L570.271,162.428z"/>
<path fill="none" stroke="#000000" stroke-width="0.504" stroke-miterlimit="2.4142" d="M558.977,163.416     c1.66-0.142,2.925-1.651,2.778-3.311c-0.147-1.732-1.651-2.925-3.313-2.779c-1.729,0.15-2.999,1.588-2.849,3.319     C555.737,162.304,557.244,163.568,558.977,163.416L558.977,163.416z"/>
<path fill="none" stroke="#000000" stroke-width="0.504" stroke-miterlimit="2.4142" d="M565.101,168.389     c1.662-0.145,2.925-1.651,2.78-3.311c-0.151-1.732-1.651-2.925-3.313-2.78c-1.728,0.151-2.997,1.588-2.846,3.32     C561.862,167.276,563.37,168.54,565.101,168.389L565.101,168.389z"/>
<path fill="none" stroke="#000000" stroke-width="0.504" stroke-miterlimit="2.4142" d="M571.229,173.36     c1.659-0.144,2.922-1.652,2.776-3.312c-0.149-1.731-1.651-2.924-3.313-2.779c-1.728,0.15-3,1.587-2.848,3.32     C567.986,172.248,569.495,173.513,571.229,173.36L571.229,173.36z"/>
<path fill="none" stroke="#000000" stroke-width="0.504" stroke-miterlimit="2.4142" d="M559.933,174.348     c1.66-0.142,2.925-1.651,2.779-3.311c-0.147-1.732-1.653-2.925-3.313-2.779c-1.729,0.15-2.998,1.588-2.847,3.319     C556.693,173.235,558.2,174.501,559.933,174.348L559.933,174.348z"/>
</g></switch>
</svg>