<?xml version="1.0" encoding="utf-8"?>
<!DOCTYPE svg PUBLIC "-//W3C//DTD SVG 1.1//EN" "http://www.w3.org/Graphics/SVG/1.1/DTD/svg11.dtd">
<svg version="1.1" id="Armor" xmlns="http://www.w3.org/2000/svg" xmlns:xlink="http://www.w3.org/1999/xlink" x="0px" y="0px"
	 width="612px" height="792px" viewBox="0 0 612 792" enable-background="new 0 0 612 792" xml:space="preserve">
<switch><g>
<path fill="none" stroke="#000000" stroke-width="0.504" stroke-miterlimit="2.4142" d="M420.137,80.318     c-1.662-0.144-2.918-1.649-2.772-3.31c0.15-1.729,1.647-2.924,3.308-2.778c1.732,0.151,3.006,1.588,2.854,3.317     C423.374,79.211,421.868,80.475,420.137,80.318L420.137,80.318z"/>
<path fill="none" stroke="#000000" stroke-width="0.504" stroke-miterlimit="2.4142" d="M431.438,81.308     c-1.663-0.144-2.922-1.651-2.781-3.309c0.152-1.729,1.649-2.925,3.317-2.78c1.727,0.152,2.999,1.587,2.839,3.322     C434.672,80.198,433.165,81.462,431.438,81.308L431.438,81.308z"/>
<path fill="none" stroke="#000000" stroke-width="0.504" stroke-miterlimit="2.4142" d="M424.768,92.465     c-1.664-0.146-2.923-1.653-2.776-3.313c0.152-1.733,1.643-2.927,3.307-2.783c1.734,0.152,3.006,1.59,2.855,3.321     C428.007,91.351,426.494,92.615,424.768,92.465L424.768,92.465z"/>
<path fill="none" stroke="#000000" stroke-width="0.504" stroke-miterlimit="2.4142" d="M418.105,103.616     c-1.668-0.146-2.931-1.65-2.781-3.313c0.149-1.73,1.643-2.926,3.311-2.775c1.729,0.147,3.004,1.58,2.854,3.313     C421.34,102.504,419.828,103.768,418.105,103.616L418.105,103.616z"/>
<path fill="none" stroke="#000000" stroke-width="0.504" stroke-miterlimit="2.4142" d="M429.402,104.607     c-1.669-0.144-2.933-1.652-2.785-3.312c0.148-1.733,1.646-2.925,3.314-2.779c1.728,0.151,2.997,1.586,2.851,3.317     C432.635,103.494,431.124,104.758,429.402,104.607L429.402,104.607z"/>
<path fill="none" stroke="#000000" stroke-width="0.504" stroke-miterlimit="2.4142" d="M422.732,115.762     c-1.671-0.146-2.927-1.649-2.781-3.312c0.154-1.732,1.646-2.925,3.315-2.781c1.722,0.152,2.998,1.59,2.847,3.323     C425.967,114.652,424.461,115.913,422.732,115.762L422.732,115.762z"/>
<path fill="none" stroke="#000000" stroke-width="0.504" stroke-miterlimit="2.4142" d="M416.063,126.916     c-1.668-0.146-2.925-1.652-2.774-3.314c0.145-1.73,1.646-2.924,3.311-2.777c1.724,0.149,3.001,1.584,2.851,3.317     C419.305,125.802,417.79,127.067,416.063,126.916L416.063,126.916z"/>
<path fill="none" stroke="#000000" stroke-width="0.504" stroke-miterlimit="2.4142" d="M427.359,127.907     c-1.666-0.146-2.926-1.651-2.777-3.313c0.148-1.732,1.646-2.927,3.313-2.782c1.723,0.151,2.993,1.588,2.844,3.322     C430.596,126.797,429.088,128.059,427.359,127.907L427.359,127.907z"/>
<path fill="none" stroke="#000000" stroke-width="0.504" stroke-miterlimit="2.4142" d="M420.692,139.061     c-1.665-0.144-2.926-1.651-2.777-3.313c0.151-1.729,1.643-2.924,3.31-2.783c1.727,0.155,3.003,1.592,2.849,3.323     C423.932,137.946,422.417,139.212,420.692,139.061L420.692,139.061z"/>
<path fill="none" stroke="#000000" stroke-width="0.504" stroke-miterlimit="2.4142" d="M414.027,150.214     c-1.668-0.146-2.929-1.652-2.779-3.314c0.149-1.729,1.645-2.926,3.313-2.778c1.724,0.15,3.007,1.588,2.849,3.322     C417.263,149.099,415.753,150.364,414.027,150.214L414.027,150.214z"/>
<path fill="none" stroke="#000000" stroke-width="0.504" stroke-miterlimit="2.4142" d="M425.322,151.203     c-1.666-0.144-2.926-1.647-2.779-3.31c0.154-1.734,1.648-2.927,3.313-2.782c1.729,0.151,3.002,1.586,2.848,3.321     C428.561,150.094,427.053,151.354,425.322,151.203L425.322,151.203z"/>
<path fill="none" stroke="#000000" stroke-width="0.504" stroke-miterlimit="2.4142" d="M418.654,162.356     c-1.662-0.144-2.922-1.651-2.778-3.311c0.154-1.733,1.647-2.925,3.313-2.782c1.725,0.15,3.002,1.588,2.845,3.32     C421.896,161.245,420.385,162.507,418.654,162.356L418.654,162.356z"/>
<path fill="none" stroke="#000000" stroke-width="0.504" stroke-miterlimit="2.4142" d="M411.988,173.51     c-1.666-0.143-2.924-1.649-2.779-3.311c0.152-1.733,1.65-2.926,3.313-2.778c1.725,0.148,3.002,1.585,2.85,3.318     C415.23,172.399,413.715,173.663,411.988,173.51L411.988,173.51z"/>
<path fill="none" stroke="#000000" stroke-width="0.504" stroke-miterlimit="2.4142" d="M423.283,174.498     c-1.666-0.138-2.926-1.648-2.775-3.31c0.148-1.731,1.646-2.925,3.31-2.775c1.727,0.146,2.998,1.584,2.846,3.316     C426.52,173.387,425.014,174.652,423.283,174.498L423.283,174.498z"/>
</g></switch>
</svg>