<?xml version="1.0" encoding="utf-8"?>
<!DOCTYPE svg PUBLIC "-//W3C//DTD SVG 1.1//EN" "http://www.w3.org/Graphics/SVG/1.1/DTD/svg11.dtd">
<svg version="1.1" id="Armor" xmlns="http://www.w3.org/2000/svg" xmlns:xlink="http://www.w3.org/1999/xlink" x="0px" y="0px"
	 width="612px" height="792px" viewBox="0 0 612 792" enable-background="new 0 0 612 792" xml:space="preserve">
<switch><g>
<path fill="none" stroke="#000000" stroke-width="0.504" stroke-miterlimit="2.4142" d="M557.729,80.818     c1.664-0.146,2.924-1.653,2.776-3.313c-0.151-1.732-1.644-2.927-3.306-2.783c-1.734,0.152-3.006,1.59-2.856,3.321     C554.49,79.704,556.003,80.969,557.729,80.818L557.729,80.818z"/>
<path fill="none" stroke="#000000" stroke-width="0.504" stroke-miterlimit="2.4142" d="M564.391,91.969     c1.667-0.146,2.932-1.65,2.781-3.313c-0.148-1.73-1.643-2.926-3.31-2.775c-1.729,0.148-3.004,1.581-2.854,3.313     C561.157,90.856,562.669,92.12,564.391,91.969L564.391,91.969z"/>
<path fill="none" stroke="#000000" stroke-width="0.504" stroke-miterlimit="2.4142" d="M553.094,92.959     c1.67-0.144,2.933-1.652,2.785-3.312c-0.148-1.732-1.646-2.925-3.316-2.779c-1.725,0.151-2.995,1.586-2.85,3.317     C549.861,91.846,551.373,93.11,553.094,92.959L553.094,92.959z"/>
<path fill="none" stroke="#000000" stroke-width="0.504" stroke-miterlimit="2.4142" d="M559.764,104.114     c1.67-0.146,2.928-1.649,2.781-3.313c-0.153-1.732-1.645-2.925-3.316-2.781c-1.719,0.152-2.997,1.59-2.846,3.323     C556.529,103.004,558.036,104.266,559.764,104.114L559.764,104.114z"/>
<path fill="none" stroke="#000000" stroke-width="0.504" stroke-miterlimit="2.4142" d="M566.434,115.268     c1.666-0.146,2.925-1.652,2.775-3.314c-0.145-1.73-1.646-2.924-3.311-2.777c-1.724,0.149-3.002,1.584-2.851,3.317     C563.191,114.153,564.707,115.419,566.434,115.268L566.434,115.268z"/>
<path fill="none" stroke="#000000" stroke-width="0.504" stroke-miterlimit="2.4142" d="M555.137,116.257     c1.666-0.146,2.927-1.651,2.777-3.313c-0.148-1.732-1.646-2.926-3.314-2.781c-1.721,0.15-2.991,1.587-2.842,3.322     C551.9,115.146,553.408,116.408,555.137,116.257L555.137,116.257z"/>
<path fill="none" stroke="#000000" stroke-width="0.504" stroke-miterlimit="2.4142" d="M561.804,127.411     c1.667-0.144,2.925-1.65,2.778-3.312c-0.152-1.73-1.643-2.925-3.311-2.783c-1.726,0.154-3.004,1.591-2.849,3.322     C558.565,126.297,560.08,127.563,561.804,127.411L561.804,127.411z"/>
<path fill="none" stroke="#000000" stroke-width="0.504" stroke-miterlimit="2.4142" d="M568.469,138.564     c1.668-0.146,2.928-1.652,2.779-3.314c-0.148-1.729-1.646-2.926-3.313-2.778c-1.723,0.15-3.006,1.588-2.848,3.323     C565.234,137.45,566.744,138.715,568.469,138.564L568.469,138.564z"/>
<path fill="none" stroke="#000000" stroke-width="0.504" stroke-miterlimit="2.4142" d="M557.174,139.553     c1.666-0.144,2.926-1.646,2.779-3.311c-0.154-1.734-1.647-2.927-3.313-2.782c-1.728,0.151-3.002,1.586-2.848,3.321     C553.936,138.442,555.443,139.703,557.174,139.553L557.174,139.553z"/>
<path fill="none" stroke="#000000" stroke-width="0.504" stroke-miterlimit="2.4142" d="M563.842,150.707     c1.664-0.144,2.922-1.652,2.777-3.312c-0.153-1.732-1.646-2.925-3.313-2.781c-1.725,0.15-3.002,1.588-2.846,3.319     C560.6,149.596,562.112,150.857,563.842,150.707L563.842,150.707z"/>
<path fill="none" stroke="#000000" stroke-width="0.504" stroke-miterlimit="2.4142" d="M570.508,161.858     c1.666-0.143,2.924-1.649,2.779-3.31c-0.152-1.734-1.65-2.927-3.313-2.779c-1.725,0.148-3.002,1.585-2.85,3.318     C567.266,160.748,568.781,162.012,570.508,161.858L570.508,161.858z"/>
<path fill="none" stroke="#000000" stroke-width="0.504" stroke-miterlimit="2.4142" d="M559.213,162.845     c1.667-0.138,2.926-1.647,2.775-3.31c-0.148-1.731-1.646-2.925-3.311-2.775c-1.726,0.146-2.997,1.584-2.846,3.316     C555.977,161.733,557.482,162.999,559.213,162.845L559.213,162.845z"/>
<path fill="none" stroke="#000000" stroke-width="0.504" stroke-miterlimit="2.4142" d="M565.88,174.003     c1.663-0.144,2.922-1.651,2.778-3.311c-0.154-1.733-1.646-2.925-3.313-2.782c-1.725,0.15-3.003,1.588-2.846,3.32     C562.638,172.892,564.15,174.153,565.88,174.003L565.88,174.003z"/>
</g></switch>
</svg>