<?xml version="1.0" encoding="utf-8"?>
<!DOCTYPE svg PUBLIC "-//W3C//DTD SVG 1.1//EN" "http://www.w3.org/Graphics/SVG/1.1/DTD/svg11.dtd">
<svg version="1.1" id="Armor" xmlns="http://www.w3.org/2000/svg" xmlns:xlink="http://www.w3.org/1999/xlink" x="0px" y="0px"
	 width="612px" height="792px" viewBox="0 0 612 792" enable-background="new 0 0 612 792" xml:space="preserve">
<switch><g>
<path fill-rule="evenodd" clip-rule="evenodd" fill="none" stroke="#000000" stroke-width="0.504" stroke-miterlimit="2.4142" d="     M518.755,189.643c1.564-0.389,2.524-1.985,2.114-3.618c-0.39-1.562-1.985-2.521-3.548-2.13c-1.631,0.405-2.591,2.001-2.201,3.564     C515.528,189.091,517.126,190.051,518.755,189.643L518.755,189.643z"/>
<path fill-rule="evenodd" clip-rule="evenodd" fill="none" stroke="#000000" stroke-width="0.504" stroke-miterlimit="2.4142" d="     M525.373,192.592c1.558-0.392,2.521-1.985,2.11-3.619c-0.389-1.562-1.98-2.524-3.545-2.132c-1.632,0.404-2.592,2.003-2.199,3.563     C522.142,192.038,523.742,192.999,525.373,192.592L525.373,192.592z"/>
<path fill-rule="evenodd" clip-rule="evenodd" fill="none" stroke="#000000" stroke-width="0.504" stroke-miterlimit="2.4142" d="     M513.956,195.228c1.562-0.393,2.525-1.987,2.112-3.62c-0.386-1.563-1.98-2.523-3.544-2.131c-1.633,0.404-2.59,2.001-2.201,3.564     C510.729,194.673,512.328,195.633,513.956,195.228L513.956,195.228z"/>
<path fill-rule="evenodd" clip-rule="evenodd" fill="none" stroke="#000000" stroke-width="0.504" stroke-miterlimit="2.4142" d="     M520.718,198.141c1.563-0.388,2.522-1.984,2.112-3.617c-0.389-1.562-1.983-2.521-3.546-2.13     c-1.632,0.404-2.592,1.998-2.201,3.563C517.49,197.59,519.087,198.55,520.718,198.141L520.718,198.141z"/>
<path fill-rule="evenodd" clip-rule="evenodd" fill="none" stroke="#000000" stroke-width="0.504" stroke-miterlimit="2.4142" d="     M527.335,201.091c1.557-0.393,2.521-1.987,2.109-3.619c-0.388-1.563-1.98-2.524-3.544-2.133c-1.632,0.404-2.593,2.005-2.2,3.563     C524.104,200.536,525.703,201.497,527.335,201.091L527.335,201.091z"/>
<path fill-rule="evenodd" clip-rule="evenodd" fill="none" stroke="#000000" stroke-width="0.504" stroke-miterlimit="2.4142" d="     M515.919,203.726c1.561-0.393,2.525-1.986,2.112-3.619c-0.386-1.562-1.979-2.522-3.546-2.131     c-1.632,0.404-2.589,2.001-2.198,3.564C512.692,203.171,514.292,204.132,515.919,203.726L515.919,203.726z"/>
<path fill-rule="evenodd" clip-rule="evenodd" fill="none" stroke="#000000" stroke-width="0.504" stroke-miterlimit="2.4142" d="     M522.68,206.642c1.56-0.391,2.523-1.986,2.108-3.619c-0.383-1.564-1.979-2.523-3.546-2.133c-1.628,0.406-2.587,2.004-2.194,3.564     C519.448,206.089,521.049,207.047,522.68,206.642L522.68,206.642z"/>
<path fill-rule="evenodd" clip-rule="evenodd" fill="none" stroke="#000000" stroke-width="0.504" stroke-miterlimit="2.4142" d="     M529.438,209.556c1.56-0.391,2.521-1.985,2.114-3.62c-0.391-1.563-1.986-2.519-3.548-2.13c-1.631,0.406-2.591,2.004-2.201,3.564     C526.209,209.001,527.811,209.961,529.438,209.556L529.438,209.556z"/>
<path fill-rule="evenodd" clip-rule="evenodd" fill="none" stroke="#000000" stroke-width="0.504" stroke-miterlimit="2.4142" d="     M518.021,212.191c1.563-0.392,2.521-1.989,2.116-3.621c-0.393-1.562-1.984-2.521-3.548-2.129     c-1.633,0.403-2.591,2.001-2.202,3.563C514.795,211.636,516.396,212.597,518.021,212.191L518.021,212.191z"/>
<path fill-rule="evenodd" clip-rule="evenodd" fill="none" stroke="#000000" stroke-width="0.504" stroke-miterlimit="2.4142" d="     M524.642,215.139c1.563-0.391,2.524-1.987,2.114-3.621c-0.389-1.562-1.982-2.518-3.55-2.128     c-1.629,0.405-2.588,2.002-2.198,3.563C521.415,214.585,523.014,215.544,524.642,215.139L524.642,215.139z"/>
<path fill-rule="evenodd" clip-rule="evenodd" fill="none" stroke="#000000" stroke-width="0.504" stroke-miterlimit="2.4142" d="     M531.542,218.022c1.559-0.389,2.522-1.986,2.115-3.621c-0.389-1.563-1.988-2.519-3.551-2.131     c-1.631,0.408-2.588,2.006-2.203,3.564C528.318,217.47,529.911,218.428,531.542,218.022L531.542,218.022z"/>
<path fill-rule="evenodd" clip-rule="evenodd" fill="none" stroke="#000000" stroke-width="0.504" stroke-miterlimit="2.4142" d="     M520.128,220.658c1.561-0.39,2.523-1.988,2.117-3.62c-0.389-1.562-1.988-2.521-3.552-2.132c-1.628,0.407-2.589,2.005-2.202,3.565     C516.902,220.104,518.499,221.064,520.128,220.658L520.128,220.658z"/>
<path fill-rule="evenodd" clip-rule="evenodd" fill="none" stroke="#000000" stroke-width="0.504" stroke-miterlimit="2.4142" d="     M526.603,223.64c1.563-0.389,2.528-1.987,2.116-3.621c-0.387-1.561-1.983-2.52-3.549-2.133c-1.628,0.408-2.589,2.008-2.202,3.566     C523.379,223.087,524.978,224.046,526.603,223.64L526.603,223.64z"/>
<path fill-rule="evenodd" clip-rule="evenodd" fill="none" stroke="#000000" stroke-width="0.504" stroke-miterlimit="2.4142" d="     M533.647,226.487c1.563-0.393,2.521-1.986,2.115-3.621c-0.392-1.561-1.987-2.521-3.554-2.128     c-1.628,0.405-2.587,1.999-2.197,3.56C530.417,225.937,532.015,226.893,533.647,226.487L533.647,226.487z"/>
<path fill-rule="evenodd" clip-rule="evenodd" fill="none" stroke="#000000" stroke-width="0.504" stroke-miterlimit="2.4142" d="     M522.233,229.122c1.565-0.389,2.521-1.984,2.114-3.62c-0.388-1.56-1.987-2.519-3.55-2.129c-1.629,0.407-2.586,2.001-2.199,3.562     C519.005,228.571,520.599,229.528,522.233,229.122L522.233,229.122z"/>
<path fill-rule="evenodd" clip-rule="evenodd" fill="none" stroke="#000000" stroke-width="0.504" stroke-miterlimit="2.4142" d="     M528.565,232.137c1.566-0.394,2.524-1.988,2.115-3.623c-0.389-1.559-1.986-2.52-3.551-2.128c-1.625,0.405-2.587,2-2.199,3.563     C525.337,231.584,526.935,232.541,528.565,232.137L528.565,232.137z"/>
<path fill-rule="evenodd" clip-rule="evenodd" fill="none" stroke="#000000" stroke-width="0.504" stroke-miterlimit="2.4142" d="     M535.749,234.955c1.56-0.392,2.521-1.987,2.117-3.62c-0.393-1.561-1.987-2.521-3.551-2.133c-1.631,0.407-2.591,2.001-2.199,3.564     C532.521,234.402,534.118,235.361,535.749,234.955L535.749,234.955z"/>
<path fill-rule="evenodd" clip-rule="evenodd" fill="none" stroke="#000000" stroke-width="0.504" stroke-miterlimit="2.4142" d="     M524.333,237.589c1.561-0.388,2.523-1.984,2.119-3.62c-0.394-1.563-1.988-2.519-3.551-2.131c-1.63,0.408-2.592,2.001-2.201,3.565     C521.105,237.036,522.704,237.997,524.333,237.589L524.333,237.589z"/>
<path fill-rule="evenodd" clip-rule="evenodd" fill="none" stroke="#000000" stroke-width="0.504" stroke-miterlimit="2.4142" d="     M531.093,240.504c1.563-0.391,2.524-1.988,2.116-3.62c-0.392-1.563-1.985-2.521-3.548-2.131c-1.629,0.405-2.59,2-2.201,3.564     C527.865,239.948,529.462,240.909,531.093,240.504L531.093,240.504z"/>
<path fill-rule="evenodd" clip-rule="evenodd" fill="none" stroke="#000000" stroke-width="0.504" stroke-miterlimit="2.4142" d="     M537.856,243.417c1.562-0.387,2.521-1.982,2.111-3.618c-0.389-1.56-1.987-2.52-3.548-2.129c-1.627,0.405-2.593,2.005-2.2,3.564     C534.628,242.867,536.223,243.828,537.856,243.417L537.856,243.417z"/>
<path fill-rule="evenodd" clip-rule="evenodd" fill="none" stroke="#000000" stroke-width="0.504" stroke-miterlimit="2.4142" d="     M526.443,246.053c1.559-0.389,2.52-1.984,2.11-3.62c-0.393-1.559-1.988-2.519-3.549-2.128c-1.628,0.404-2.589,2.003-2.199,3.564     C523.212,245.501,524.808,246.461,526.443,246.053L526.443,246.053z"/>
<path fill-rule="evenodd" clip-rule="evenodd" fill="none" stroke="#000000" stroke-width="0.504" stroke-miterlimit="2.4142" d="     M533.202,248.968c1.562-0.387,2.521-1.985,2.111-3.616c-0.391-1.561-1.986-2.521-3.551-2.131     c-1.626,0.406-2.589,2.005-2.196,3.564C529.972,248.418,531.568,249.38,533.202,248.968L533.202,248.968z"/>
<path fill-rule="evenodd" clip-rule="evenodd" fill="none" stroke="#000000" stroke-width="0.504" stroke-miterlimit="2.4142" d="     M539.959,251.885c1.563-0.39,2.521-1.986,2.113-3.618c-0.392-1.563-1.988-2.521-3.551-2.132     c-1.629,0.404-2.587,2.005-2.196,3.563C536.729,251.333,538.329,252.294,539.959,251.885L539.959,251.885z"/>
<path fill-rule="evenodd" clip-rule="evenodd" fill="none" stroke="#000000" stroke-width="0.504" stroke-miterlimit="2.4142" d="     M528.546,254.52c1.564-0.392,2.523-1.989,2.112-3.619c-0.391-1.563-1.986-2.523-3.548-2.131     c-1.632,0.403-2.591,2.003-2.199,3.563C525.315,253.968,526.913,254.927,528.546,254.52L528.546,254.52z"/>
<path fill-rule="evenodd" clip-rule="evenodd" fill="none" stroke="#000000" stroke-width="0.504" stroke-miterlimit="2.4142" d="     M535.303,257.434c1.565-0.388,2.523-1.985,2.114-3.616c-0.389-1.563-1.986-2.521-3.549-2.131     c-1.631,0.402-2.588,2.004-2.198,3.562C532.074,256.884,533.674,257.842,535.303,257.434L535.303,257.434z"/>
<path fill-rule="evenodd" clip-rule="evenodd" fill="none" stroke="#000000" stroke-width="0.504" stroke-miterlimit="2.4142" d="     M542.064,260.349c1.56-0.39,2.521-1.985,2.109-3.616c-0.39-1.564-1.989-2.524-3.549-2.131c-1.628,0.403-2.587,2.004-2.199,3.562     C538.834,259.797,540.432,260.756,542.064,260.349L542.064,260.349z"/>
<path fill-rule="evenodd" clip-rule="evenodd" fill="none" stroke="#000000" stroke-width="0.504" stroke-miterlimit="2.4142" d="     M530.65,262.985c1.562-0.392,2.521-1.987,2.113-3.617c-0.394-1.564-1.988-2.523-3.552-2.132     c-1.628,0.404-2.589,2.004-2.198,3.563C527.419,262.433,529.017,263.392,530.65,262.985L530.65,262.985z"/>
<path fill-rule="evenodd" clip-rule="evenodd" fill="none" stroke="#000000" stroke-width="0.504" stroke-miterlimit="2.4142" d="     M537.409,265.9c1.561-0.388,2.518-1.987,2.11-3.617c-0.39-1.563-1.985-2.521-3.547-2.132c-1.632,0.406-2.591,2.006-2.198,3.563     C534.18,265.349,535.778,266.308,537.409,265.9L537.409,265.9z"/>
<path fill-rule="evenodd" clip-rule="evenodd" fill="none" stroke="#000000" stroke-width="0.504" stroke-miterlimit="2.4142" d="     M544.171,268.814c1.563-0.39,2.518-1.986,2.111-3.618c-0.393-1.563-1.99-2.521-3.549-2.131c-1.632,0.405-2.594,2.004-2.201,3.563     C540.94,268.262,542.536,269.222,544.171,268.814L544.171,268.814z"/>
<path fill-rule="evenodd" clip-rule="evenodd" fill="none" stroke="#000000" stroke-width="0.504" stroke-miterlimit="2.4142" d="     M532.756,271.45c1.564-0.39,2.519-1.985,2.108-3.619c-0.387-1.563-1.983-2.521-3.545-2.129c-1.631,0.401-2.59,2.003-2.2,3.563     C529.524,270.897,531.122,271.856,532.756,271.45L532.756,271.45z"/>
<path fill-rule="evenodd" clip-rule="evenodd" fill="none" stroke="#000000" stroke-width="0.504" stroke-miterlimit="2.4142" d="     M539.517,274.366c1.561-0.39,2.518-1.986,2.111-3.62c-0.393-1.562-1.988-2.521-3.547-2.131c-1.636,0.406-2.595,2.005-2.203,3.564     C536.285,273.813,537.882,274.774,539.517,274.366L539.517,274.366z"/>
<path fill-rule="evenodd" clip-rule="evenodd" fill="none" stroke="#000000" stroke-width="0.504" stroke-miterlimit="2.4142" d="     M546.272,277.28c1.559-0.39,2.52-1.987,2.113-3.617c-0.395-1.563-1.986-2.522-3.551-2.131c-1.631,0.405-2.592,2.004-2.199,3.563     C543.042,276.728,544.638,277.69,546.272,277.28L546.272,277.28z"/>
<path fill-rule="evenodd" clip-rule="evenodd" fill="none" stroke="#000000" stroke-width="0.504" stroke-miterlimit="2.4142" d="     M534.857,279.917c1.562-0.393,2.522-1.986,2.116-3.619c-0.394-1.562-1.988-2.519-3.555-2.131     c-1.625,0.403-2.591,2.006-2.199,3.563C531.626,279.363,533.228,280.323,534.857,279.917L534.857,279.917z"/>
<path fill-rule="evenodd" clip-rule="evenodd" fill="none" stroke="#000000" stroke-width="0.504" stroke-miterlimit="2.4142" d="     M541.617,282.831c1.563-0.389,2.521-1.984,2.112-3.618c-0.391-1.562-1.984-2.52-3.549-2.13c-1.631,0.404-2.592,2.004-2.2,3.563     C538.39,282.279,539.987,283.24,541.617,282.831L541.617,282.831z"/>
<path fill-rule="evenodd" clip-rule="evenodd" fill="none" stroke="#000000" stroke-width="0.504" stroke-miterlimit="2.4142" d="     M548.376,285.746c1.562-0.387,2.523-1.984,2.113-3.617c-0.388-1.562-1.986-2.519-3.549-2.131     c-1.627,0.408-2.592,2.002-2.199,3.563C545.148,285.195,546.743,286.157,548.376,285.746L548.376,285.746z"/>
<path fill-rule="evenodd" clip-rule="evenodd" fill="none" stroke="#000000" stroke-width="0.504" stroke-miterlimit="2.4142" d="     M536.963,288.381c1.563-0.388,2.521-1.985,2.112-3.617c-0.391-1.561-1.984-2.519-3.551-2.13     c-1.627,0.405-2.589,2.003-2.197,3.564C533.735,287.831,535.331,288.791,536.963,288.381L536.963,288.381z"/>
<path fill-rule="evenodd" clip-rule="evenodd" fill="none" stroke="#000000" stroke-width="0.504" stroke-miterlimit="2.4142" d="     M543.721,291.296c1.563-0.388,2.521-1.986,2.113-3.617c-0.39-1.563-1.986-2.521-3.548-2.13c-1.63,0.404-2.594,2.001-2.199,3.562     C540.493,290.744,542.091,291.704,543.721,291.296L543.721,291.296z"/>
<path fill-rule="evenodd" clip-rule="evenodd" fill="none" stroke="#000000" stroke-width="0.504" stroke-miterlimit="2.4142" d="     M550.479,294.211c1.563-0.389,2.519-1.984,2.112-3.617c-0.389-1.563-1.985-2.519-3.549-2.129c-1.629,0.403-2.589,2-2.198,3.562     C547.253,293.661,548.849,294.621,550.479,294.211L550.479,294.211z"/>
<path fill-rule="evenodd" clip-rule="evenodd" fill="none" stroke="#000000" stroke-width="0.504" stroke-miterlimit="2.4142" d="     M539.067,296.847c1.562-0.389,2.522-1.986,2.113-3.618c-0.39-1.562-1.987-2.521-3.551-2.129c-1.628,0.403-2.591,2-2.202,3.563     C535.837,296.296,537.434,297.256,539.067,296.847L539.067,296.847z"/>
<path fill-rule="evenodd" clip-rule="evenodd" fill="none" stroke="#000000" stroke-width="0.504" stroke-miterlimit="2.4142" d="     M545.683,299.795c1.563-0.389,2.521-1.986,2.113-3.618c-0.39-1.563-1.986-2.521-3.548-2.13c-1.63,0.404-2.593,2.002-2.199,3.562     C542.456,299.242,544.053,300.202,545.683,299.795L545.683,299.795z"/>
</g></switch>
</svg>