<?xml version="1.0" encoding="utf-8"?>
<!DOCTYPE svg PUBLIC "-//W3C//DTD SVG 1.1//EN" "http://www.w3.org/Graphics/SVG/1.1/DTD/svg11.dtd">
<svg version="1.1" id="Armor" xmlns="http://www.w3.org/2000/svg" xmlns:xlink="http://www.w3.org/1999/xlink" x="0px" y="0px"
	 width="612px" height="792px" viewBox="0 0 612 792" enable-background="new 0 0 612 792" xml:space="preserve">
<switch><g>
<path fill="none" stroke="#000000" stroke-width="0.504" stroke-miterlimit="2.4142" d="M425.859,80.911     c-1.662-0.143-2.927-1.651-2.781-3.311c0.146-1.73,1.652-2.925,3.311-2.779c1.729,0.15,3.002,1.588,2.853,3.319     C429.092,79.801,427.587,81.064,425.859,80.911L425.859,80.911z"/>
<path fill="none" stroke="#000000" stroke-width="0.504" stroke-miterlimit="2.4142" d="M419.631,87.074     c-1.664-0.142-2.93-1.652-2.784-3.312c0.151-1.73,1.653-2.925,3.313-2.779c1.732,0.149,3.007,1.587,2.853,3.318     C422.865,85.962,421.357,87.227,419.631,87.074L419.631,87.074z"/>
<path fill="none" stroke="#000000" stroke-width="0.504" stroke-miterlimit="2.4142" d="M430.928,88.063     c-1.665-0.146-2.93-1.653-2.787-3.313c0.151-1.732,1.656-2.925,3.316-2.779c1.731,0.149,3,1.587,2.848,3.319     C434.16,86.951,432.654,88.213,430.928,88.063L430.928,88.063z"/>
<path fill="none" stroke="#000000" stroke-width="0.504" stroke-miterlimit="2.4142" d="M424.695,94.225     c-1.666-0.144-2.927-1.651-2.781-3.311c0.15-1.73,1.648-2.925,3.313-2.781c1.728,0.152,2.996,1.59,2.847,3.32     C427.934,93.112,426.422,94.378,424.695,94.225L424.695,94.225z"/>
<path fill="none" stroke="#000000" stroke-width="0.504" stroke-miterlimit="2.4142" d="M418.463,100.389     c-1.663-0.146-2.923-1.652-2.779-3.313c0.152-1.73,1.651-2.925,3.314-2.782c1.727,0.153,3,1.592,2.85,3.321     C421.705,99.274,420.192,100.54,418.463,100.389L418.463,100.389z"/>
<path fill="none" stroke="#000000" stroke-width="0.504" stroke-miterlimit="2.4142" d="M429.759,101.375     c-1.662-0.144-2.927-1.648-2.78-3.311c0.152-1.729,1.651-2.924,3.314-2.78c1.729,0.151,2.999,1.588,2.847,3.32     C432.996,100.264,431.487,101.528,429.759,101.375L429.759,101.375z"/>
<path fill="none" stroke="#000000" stroke-width="0.504" stroke-miterlimit="2.4142" d="M423.525,107.538     c-1.66-0.145-2.92-1.651-2.775-3.312c0.152-1.731,1.65-2.925,3.313-2.781c1.729,0.152,2.997,1.59,2.846,3.321     C426.762,106.425,425.259,107.69,423.525,107.538L423.525,107.538z"/>
<path fill="none" stroke="#000000" stroke-width="0.504" stroke-miterlimit="2.4142" d="M417.297,113.698     c-1.66-0.146-2.922-1.651-2.777-3.311c0.154-1.729,1.652-2.924,3.313-2.779c1.732,0.151,3.004,1.589,2.85,3.319     C420.533,112.589,419.029,113.851,417.297,113.698L417.297,113.698z"/>
<path fill="none" stroke="#000000" stroke-width="0.504" stroke-miterlimit="2.4142" d="M428.594,114.688     c-1.66-0.144-2.924-1.652-2.782-3.31c0.155-1.73,1.654-2.926,3.32-2.78c1.729,0.152,2.997,1.588,2.84,3.32     C431.828,113.578,430.326,114.84,428.594,114.688L428.594,114.688z"/>
<path fill="none" stroke="#000000" stroke-width="0.504" stroke-miterlimit="2.4142" d="M422.363,120.852     c-1.66-0.146-2.924-1.653-2.779-3.313c0.154-1.733,1.647-2.927,3.313-2.781c1.729,0.15,3,1.589,2.85,3.319     C425.602,119.737,424.091,121.003,422.363,120.852L422.363,120.852z"/>
<path fill="none" stroke="#000000" stroke-width="0.504" stroke-miterlimit="2.4142" d="M416.135,127.013     c-1.661-0.146-2.928-1.651-2.778-3.313c0.149-1.732,1.646-2.926,3.311-2.779c1.73,0.151,3.004,1.586,2.852,3.318     C419.371,125.9,417.86,127.164,416.135,127.013L416.135,127.013z"/>
<path fill="none" stroke="#000000" stroke-width="0.504" stroke-miterlimit="2.4142" d="M427.432,128.002     c-1.663-0.146-2.93-1.651-2.782-3.313c0.149-1.731,1.647-2.925,3.313-2.78c1.729,0.153,2.997,1.589,2.848,3.32     C430.665,126.889,429.158,128.153,427.432,128.002L427.432,128.002z"/>
<path fill="none" stroke="#000000" stroke-width="0.504" stroke-miterlimit="2.4142" d="M421.201,134.163     c-1.666-0.146-2.926-1.65-2.781-3.311c0.152-1.731,1.649-2.925,3.314-2.781c1.727,0.152,2.996,1.589,2.846,3.322     C424.436,133.052,422.932,134.315,421.201,134.163L421.201,134.163z"/>
<path fill="none" stroke="#000000" stroke-width="0.504" stroke-miterlimit="2.4142" d="M414.971,140.326     c-1.665-0.145-2.927-1.651-2.778-3.312c0.148-1.733,1.648-2.928,3.313-2.782c1.728,0.152,2.999,1.588,2.848,3.322     C418.208,139.214,416.699,140.478,414.971,140.326L414.971,140.326z"/>
<path fill="none" stroke="#000000" stroke-width="0.504" stroke-miterlimit="2.4142" d="M426.266,141.314     c-1.663-0.146-2.928-1.649-2.78-3.31c0.149-1.733,1.651-2.928,3.314-2.784c1.727,0.152,2.994,1.589,2.842,3.323     C429.499,140.204,427.994,141.467,426.266,141.314L426.266,141.314z"/>
<path fill="none" stroke="#000000" stroke-width="0.504" stroke-miterlimit="2.4142" d="M420.035,147.476     c-1.663-0.145-2.926-1.65-2.779-3.311c0.152-1.731,1.648-2.926,3.312-2.781c1.729,0.151,3.002,1.589,2.848,3.321     C423.271,146.363,421.762,147.627,420.035,147.476L420.035,147.476z"/>
<path fill="none" stroke="#000000" stroke-width="0.504" stroke-miterlimit="2.4142" d="M413.805,153.639     c-1.664-0.145-2.924-1.652-2.778-3.313c0.151-1.731,1.647-2.926,3.313-2.781c1.729,0.151,3.002,1.59,2.848,3.323     C417.043,152.525,415.535,153.789,413.805,153.639L413.805,153.639z"/>
<path fill="none" stroke="#000000" stroke-width="0.504" stroke-miterlimit="2.4142" d="M425.1,154.626     c-1.659-0.145-2.926-1.649-2.78-3.311c0.153-1.731,1.653-2.927,3.315-2.781c1.729,0.151,2.998,1.587,2.843,3.321     C428.338,153.516,426.832,154.777,425.1,154.626L425.1,154.626z"/>
<path fill="none" stroke="#000000" stroke-width="0.504" stroke-miterlimit="2.4142" d="M418.871,160.788     c-1.663-0.144-2.926-1.651-2.781-3.311c0.155-1.731,1.652-2.925,3.314-2.781c1.727,0.152,2.999,1.589,2.844,3.321     C422.109,159.676,420.6,160.939,418.871,160.788L418.871,160.788z"/>
<path fill="none" stroke="#000000" stroke-width="0.504" stroke-miterlimit="2.4142" d="M412.639,166.949     c-1.661-0.144-2.921-1.65-2.776-3.311c0.149-1.731,1.651-2.924,3.313-2.779c1.728,0.15,3,1.587,2.849,3.319     C415.881,165.839,414.371,167.102,412.639,166.949L412.639,166.949z"/>
<path fill="none" stroke="#000000" stroke-width="0.504" stroke-miterlimit="2.4142" d="M423.934,167.938     c-1.659-0.142-2.923-1.651-2.776-3.311c0.147-1.732,1.651-2.925,3.313-2.779c1.729,0.151,2.997,1.587,2.845,3.319     C427.172,166.825,425.666,168.09,423.934,167.938L423.934,167.938z"/>
<path fill="none" stroke="#000000" stroke-width="0.504" stroke-miterlimit="2.4142" d="M417.705,174.101     c-1.662-0.144-2.924-1.651-2.779-3.311c0.154-1.731,1.651-2.925,3.314-2.781c1.727,0.152,2.998,1.589,2.843,3.321     C420.944,172.988,419.436,174.252,417.705,174.101L417.705,174.101z"/>
</g></switch>
</svg>