<?xml version="1.0" encoding="utf-8"?>
<!DOCTYPE svg PUBLIC "-//W3C//DTD SVG 1.1//EN" "http://www.w3.org/Graphics/SVG/1.1/DTD/svg11.dtd">
<svg version="1.1" id="Armor" xmlns="http://www.w3.org/2000/svg" xmlns:xlink="http://www.w3.org/1999/xlink" x="0px" y="0px"
	 width="612px" height="792px" viewBox="0 0 612 792" enable-background="new 0 0 612 792" xml:space="preserve">
<switch><g>
<path fill="none" stroke="#000000" stroke-width="0.504" stroke-miterlimit="2.4142" d="M563.399,80.203     c1.663-0.146,2.922-1.653,2.772-3.316c-0.145-1.728-1.646-2.922-3.309-2.776c-1.723,0.149-3.003,1.585-2.853,3.318     C560.155,79.088,561.674,80.353,563.399,80.203L563.399,80.203z"/>
<path fill="none" stroke="#000000" stroke-width="0.504" stroke-miterlimit="2.4142" d="M552.102,81.191     c1.666-0.145,2.925-1.652,2.777-3.31c-0.15-1.735-1.644-2.926-3.313-2.783c-1.719,0.15-2.996,1.588-2.844,3.323     C548.865,80.083,550.373,81.344,552.102,81.191L552.102,81.191z"/>
<path fill="none" stroke="#000000" stroke-width="0.504" stroke-miterlimit="2.4142" d="M559.788,103.995     c1.665-0.144,2.924-1.65,2.779-3.312c-0.154-1.731-1.645-2.925-3.312-2.784c-1.723,0.154-3.004,1.592-2.849,3.324     C556.551,102.881,558.065,104.146,559.788,103.995L559.788,103.995z"/>
<path fill="none" stroke="#000000" stroke-width="0.504" stroke-miterlimit="2.4142" d="M567.474,126.795     c1.667-0.144,2.928-1.653,2.778-3.314c-0.146-1.728-1.645-2.924-3.314-2.777c-1.72,0.148-3.003,1.588-2.847,3.323     C564.238,125.681,565.75,126.946,567.474,126.795L567.474,126.795z"/>
<path fill="none" stroke="#000000" stroke-width="0.504" stroke-miterlimit="2.4142" d="M556.175,127.786     c1.671-0.142,2.931-1.647,2.781-3.312c-0.152-1.733-1.644-2.926-3.313-2.783c-1.728,0.154-3,1.588-2.848,3.322     C552.94,126.676,554.448,127.937,556.175,127.786L556.175,127.786z"/>
<path fill="none" stroke="#000000" stroke-width="0.504" stroke-miterlimit="2.4142" d="M563.865,150.587     c1.664-0.142,2.918-1.654,2.775-3.312c-0.151-1.73-1.646-2.925-3.312-2.78c-1.724,0.151-3.003,1.589-2.846,3.317     C560.621,149.474,562.137,150.737,563.865,150.587L563.865,150.587z"/>
<path fill="none" stroke="#000000" stroke-width="0.504" stroke-miterlimit="2.4142" d="M571.551,173.388     c1.665-0.143,2.923-1.651,2.779-3.309c-0.153-1.736-1.651-2.929-3.313-2.782c-1.724,0.147-3.003,1.586-2.851,3.32     C568.307,172.278,569.824,173.54,571.551,173.388L571.551,173.388z"/>
<path fill="none" stroke="#000000" stroke-width="0.504" stroke-miterlimit="2.4142" d="M560.256,174.376     c1.668-0.137,2.924-1.647,2.773-3.309c-0.148-1.732-1.643-2.926-3.311-2.777c-1.724,0.149-2.996,1.585-2.846,3.317     C557.018,173.265,558.524,174.531,560.256,174.376L560.256,174.376z"/>
</g></switch>
</svg>