<?xml version="1.0" encoding="utf-8"?>
<!DOCTYPE svg PUBLIC "-//W3C//DTD SVG 1.1//EN" "http://www.w3.org/Graphics/SVG/1.1/DTD/svg11.dtd">
<svg version="1.1" id="Armor" xmlns="http://www.w3.org/2000/svg" xmlns:xlink="http://www.w3.org/1999/xlink" x="0px" y="0px"
	 width="612px" height="792px" viewBox="0 0 612 792" enable-background="new 0 0 612 792" xml:space="preserve">
<switch><g>
<path fill-rule="evenodd" clip-rule="evenodd" fill="none" stroke="#000000" stroke-width="0.504" stroke-miterlimit="2.4142" d="     M520.191,190.95c1.563-0.393,2.521-1.984,2.11-3.621c-0.391-1.558-1.984-2.518-3.549-2.132c-1.625,0.41-2.587,2.005-2.202,3.565     C516.956,190.399,518.554,191.353,520.191,190.95L520.191,190.95z"/>
<path fill-rule="evenodd" clip-rule="evenodd" fill="none" stroke="#000000" stroke-width="0.504" stroke-miterlimit="2.4142" d="     M527.687,197.409c1.563-0.391,2.521-1.985,2.12-3.62c-0.392-1.563-1.986-2.519-3.549-2.132c-1.629,0.408-2.593,2-2.2,3.566     C524.461,196.856,526.06,197.815,527.687,197.409L527.687,197.409z"/>
<path fill-rule="evenodd" clip-rule="evenodd" fill="none" stroke="#000000" stroke-width="0.504" stroke-miterlimit="2.4142" d="     M516.275,200.042c1.563-0.389,2.519-1.983,2.118-3.62c-0.393-1.561-1.987-2.518-3.549-2.131     c-1.631,0.409-2.592,2.001-2.202,3.565C513.048,199.49,514.646,200.451,516.275,200.042L516.275,200.042z"/>
<path fill-rule="evenodd" clip-rule="evenodd" fill="none" stroke="#000000" stroke-width="0.504" stroke-miterlimit="2.4142" d="     M523.78,206.5c1.563-0.39,2.52-1.986,2.111-3.617c-0.392-1.563-1.982-2.521-3.547-2.133c-1.628,0.406-2.588,2.002-2.201,3.564     C520.549,205.947,522.146,206.908,523.78,206.5L523.78,206.5z"/>
<path fill-rule="evenodd" clip-rule="evenodd" fill="none" stroke="#000000" stroke-width="0.504" stroke-miterlimit="2.4142" d="     M531.284,212.956c1.561-0.384,2.518-1.982,2.113-3.616c-0.393-1.558-1.986-2.521-3.549-2.127     c-1.631,0.401-2.592,2.003-2.202,3.564C528.054,212.411,529.652,213.371,531.284,212.956L531.284,212.956z"/>
<path fill-rule="evenodd" clip-rule="evenodd" fill="none" stroke="#000000" stroke-width="0.504" stroke-miterlimit="2.4142" d="     M519.872,215.591c1.56-0.386,2.516-1.981,2.109-3.615c-0.389-1.559-1.982-2.522-3.547-2.13c-1.631,0.403-2.594,2.004-2.201,3.565     C516.641,215.044,518.236,216.004,519.872,215.591L519.872,215.591z"/>
<path fill-rule="evenodd" clip-rule="evenodd" fill="none" stroke="#000000" stroke-width="0.504" stroke-miterlimit="2.4142" d="     M527.372,222.049c1.564-0.385,2.521-1.981,2.109-3.61c-0.389-1.564-1.982-2.525-3.547-2.133     c-1.627,0.402-2.588,2.003-2.196,3.565C524.143,221.504,525.739,222.463,527.372,222.049L527.372,222.049z"/>
<path fill-rule="evenodd" clip-rule="evenodd" fill="none" stroke="#000000" stroke-width="0.504" stroke-miterlimit="2.4142" d="     M534.874,228.511c1.564-0.389,2.523-1.986,2.114-3.617c-0.393-1.565-1.987-2.523-3.548-2.133     c-1.634,0.406-2.591,2.004-2.199,3.563C531.642,227.961,533.24,228.92,534.874,228.511L534.874,228.511z"/>
<path fill-rule="evenodd" clip-rule="evenodd" fill="none" stroke="#000000" stroke-width="0.504" stroke-miterlimit="2.4142" d="     M523.459,231.147c1.565-0.391,2.522-1.986,2.114-3.617c-0.391-1.565-1.984-2.524-3.548-2.134c-1.632,0.406-2.591,2.003-2.2,3.563     C520.228,230.597,521.827,231.555,523.459,231.147L523.459,231.147z"/>
<path fill-rule="evenodd" clip-rule="evenodd" fill="none" stroke="#000000" stroke-width="0.504" stroke-miterlimit="2.4142" d="     M530.968,237.604c1.561-0.391,2.514-1.984,2.105-3.614c-0.389-1.563-1.984-2.525-3.547-2.135     c-1.631,0.407-2.59,2.003-2.201,3.563C527.729,237.056,529.331,238.012,530.968,237.604L530.968,237.604z"/>
<path fill-rule="evenodd" clip-rule="evenodd" fill="none" stroke="#000000" stroke-width="0.504" stroke-miterlimit="2.4142" d="     M538.468,244.063c1.563-0.389,2.521-1.983,2.11-3.615c-0.39-1.565-1.985-2.521-3.545-2.134c-1.63,0.407-2.593,2.006-2.2,3.567     C535.239,243.511,536.839,244.475,538.468,244.063L538.468,244.063z"/>
<path fill-rule="evenodd" clip-rule="evenodd" fill="none" stroke="#000000" stroke-width="0.504" stroke-miterlimit="2.4142" d="     M527.05,246.698c1.563-0.386,2.521-1.984,2.113-3.613c-0.393-1.565-1.986-2.523-3.546-2.135     c-1.632,0.407-2.595,2.006-2.201,3.566C523.821,246.146,525.421,247.11,527.05,246.698L527.05,246.698z"/>
<path fill-rule="evenodd" clip-rule="evenodd" fill="none" stroke="#000000" stroke-width="0.504" stroke-miterlimit="2.4142" d="     M534.554,253.158c1.566-0.389,2.518-1.984,2.113-3.617c-0.393-1.565-1.987-2.523-3.551-2.132     c-1.631,0.407-2.588,2.005-2.199,3.565C531.326,252.606,532.919,253.567,534.554,253.158L534.554,253.158z"/>
<path fill-rule="evenodd" clip-rule="evenodd" fill="none" stroke="#000000" stroke-width="0.504" stroke-miterlimit="2.4142" d="     M542.054,259.617c1.563-0.39,2.523-1.987,2.115-3.618c-0.393-1.566-1.988-2.52-3.552-2.131c-1.628,0.403-2.593,2.004-2.2,3.561     C538.82,259.062,540.421,260.022,542.054,259.617L542.054,259.617z"/>
<path fill-rule="evenodd" clip-rule="evenodd" fill="none" stroke="#000000" stroke-width="0.504" stroke-miterlimit="2.4142" d="     M530.643,262.25c1.562-0.39,2.522-1.986,2.114-3.617c-0.393-1.564-1.988-2.519-3.549-2.131c-1.633,0.403-2.593,2.004-2.203,3.563     C527.409,261.698,529.009,262.659,530.643,262.25L530.643,262.25z"/>
<path fill-rule="evenodd" clip-rule="evenodd" fill="none" stroke="#000000" stroke-width="0.504" stroke-miterlimit="2.4142" d="     M538.146,268.708c1.56-0.389,2.514-1.985,2.112-3.616c-0.392-1.564-1.989-2.523-3.548-2.131     c-1.637,0.404-2.595,2.005-2.202,3.562C534.915,268.159,536.511,269.119,538.146,268.708L538.146,268.708z"/>
<path fill-rule="evenodd" clip-rule="evenodd" fill="none" stroke="#000000" stroke-width="0.504" stroke-miterlimit="2.4142" d="     M545.644,275.168c1.563-0.389,2.521-1.984,2.116-3.621c-0.392-1.558-1.988-2.518-3.552-2.127     c-1.633,0.406-2.594,2.003-2.201,3.565C542.415,274.617,544.012,275.578,545.644,275.168L545.644,275.168z"/>
<path fill-rule="evenodd" clip-rule="evenodd" fill="none" stroke="#000000" stroke-width="0.504" stroke-miterlimit="2.4142" d="     M534.233,277.802c1.563-0.387,2.522-1.982,2.113-3.619c-0.391-1.558-1.988-2.517-3.551-2.128c-1.631,0.406-2.594,2.005-2.2,3.565     C531.003,277.252,532.597,278.212,534.233,277.802L534.233,277.802z"/>
<path fill-rule="evenodd" clip-rule="evenodd" fill="none" stroke="#000000" stroke-width="0.504" stroke-miterlimit="2.4142" d="     M541.732,284.264c1.563-0.39,2.526-1.986,2.112-3.621c-0.385-1.562-1.98-2.518-3.549-2.131c-1.627,0.406-2.59,2.005-2.201,3.564     C538.507,283.709,540.104,284.669,541.732,284.264L541.732,284.264z"/>
<path fill-rule="evenodd" clip-rule="evenodd" fill="none" stroke="#000000" stroke-width="0.504" stroke-miterlimit="2.4142" d="     M549.237,290.72c1.563-0.387,2.521-1.986,2.112-3.62c-0.392-1.559-1.985-2.517-3.552-2.128c-1.625,0.405-2.59,1.998-2.197,3.563     C546.007,290.169,547.604,291.129,549.237,290.72L549.237,290.72z"/>
<path fill-rule="evenodd" clip-rule="evenodd" fill="none" stroke="#000000" stroke-width="0.504" stroke-miterlimit="2.4142" d="     M537.821,293.355c1.564-0.386,2.523-1.985,2.116-3.619c-0.391-1.559-1.988-2.518-3.55-2.129c-1.629,0.406-2.592,2-2.201,3.563     C534.593,292.805,536.192,293.765,537.821,293.355L537.821,293.355z"/>
<path fill-rule="evenodd" clip-rule="evenodd" fill="none" stroke="#000000" stroke-width="0.504" stroke-miterlimit="2.4142" d="     M545.323,299.817c1.563-0.39,2.525-1.986,2.112-3.621c-0.386-1.562-1.981-2.519-3.55-2.132c-1.627,0.407-2.59,2.006-2.201,3.565     C542.097,299.261,543.694,300.222,545.323,299.817L545.323,299.817z"/>
</g></switch>
</svg>