<?xml version="1.0" encoding="utf-8"?>
<!DOCTYPE svg PUBLIC "-//W3C//DTD SVG 1.1//EN" "http://www.w3.org/Graphics/SVG/1.1/DTD/svg11.dtd">
<svg version="1.1" id="Armor" xmlns="http://www.w3.org/2000/svg" xmlns:xlink="http://www.w3.org/1999/xlink" x="0px" y="0px"
	 width="612px" height="792px" viewBox="0 0 612 792" enable-background="new 0 0 612 792" xml:space="preserve">
<switch><g>
<path fill-rule="evenodd" clip-rule="evenodd" fill="none" stroke="#000000" stroke-width="0.504" stroke-miterlimit="2.4142" d="     M458.256,188.164c-1.563-0.392-2.525-1.986-2.112-3.619c0.386-1.563,1.98-2.523,3.544-2.131c1.633,0.404,2.59,2,2.201,3.564     C461.482,187.609,459.884,188.57,458.256,188.164L458.256,188.164z"/>
<path fill-rule="evenodd" clip-rule="evenodd" fill="none" stroke="#000000" stroke-width="0.504" stroke-miterlimit="2.4142" d="     M469.668,190.798c-1.563-0.392-2.525-1.987-2.113-3.62c0.387-1.563,1.98-2.522,3.545-2.131c1.633,0.405,2.59,2.001,2.2,3.565     C472.895,190.244,471.295,191.205,469.668,190.798L469.668,190.798z"/>
<path fill-rule="evenodd" clip-rule="evenodd" fill="none" stroke="#000000" stroke-width="0.504" stroke-miterlimit="2.4142" d="     M463.054,193.746c-1.564-0.388-2.524-1.984-2.114-3.618c0.389-1.561,1.984-2.521,3.547-2.129c1.631,0.405,2.592,2,2.201,3.564     C466.279,193.194,464.682,194.154,463.054,193.746L463.054,193.746z"/>
<path fill-rule="evenodd" clip-rule="evenodd" fill="none" stroke="#000000" stroke-width="0.504" stroke-miterlimit="2.4142" d="     M456.293,196.663c-1.561-0.393-2.523-1.987-2.111-3.62c0.386-1.563,1.98-2.523,3.544-2.131c1.632,0.404,2.589,2,2.2,3.564     C459.52,196.108,457.922,197.069,456.293,196.663L456.293,196.663z"/>
<path fill-rule="evenodd" clip-rule="evenodd" fill="none" stroke="#000000" stroke-width="0.504" stroke-miterlimit="2.4142" d="     M467.705,199.296c-1.561-0.392-2.525-1.986-2.111-3.619c0.386-1.563,1.98-2.523,3.543-2.132c1.633,0.405,2.59,2.001,2.201,3.565     C470.932,198.742,469.334,199.703,467.705,199.296L467.705,199.296z"/>
<path fill-rule="evenodd" clip-rule="evenodd" fill="none" stroke="#000000" stroke-width="0.504" stroke-miterlimit="2.4142" d="     M461.09,202.244c-1.563-0.388-2.523-1.984-2.113-3.617c0.389-1.562,1.984-2.521,3.546-2.13c1.632,0.405,2.592,1.998,2.202,3.563     C464.316,201.693,462.72,202.653,461.09,202.244L461.09,202.244z"/>
<path fill-rule="evenodd" clip-rule="evenodd" fill="none" stroke="#000000" stroke-width="0.504" stroke-miterlimit="2.4142" d="     M454.332,205.161c-1.561-0.393-2.525-1.987-2.112-3.619c0.386-1.562,1.979-2.522,3.546-2.132     c1.632,0.405,2.588,2.002,2.198,3.565C457.559,204.606,455.959,205.567,454.332,205.161L454.332,205.161z"/>
<path fill-rule="evenodd" clip-rule="evenodd" fill="none" stroke="#000000" stroke-width="0.504" stroke-miterlimit="2.4142" d="     M465.744,207.795c-1.561-0.393-2.525-1.987-2.113-3.62c0.387-1.561,1.979-2.521,3.547-2.131c1.631,0.405,2.588,2.002,2.197,3.565     C468.971,207.241,467.37,208.202,465.744,207.795L465.744,207.795z"/>
<path fill-rule="evenodd" clip-rule="evenodd" fill="none" stroke="#000000" stroke-width="0.504" stroke-miterlimit="2.4142" d="     M459.124,210.744c-1.561-0.391-2.524-1.986-2.109-3.619c0.384-1.563,1.979-2.523,3.546-2.133     c1.629,0.407,2.586,2.004,2.195,3.564C462.354,210.192,460.754,211.15,459.124,210.744L459.124,210.744z"/>
<path fill-rule="evenodd" clip-rule="evenodd" fill="none" stroke="#000000" stroke-width="0.504" stroke-miterlimit="2.4142" d="     M452.375,213.66c-1.564-0.392-2.523-1.99-2.117-3.621c0.393-1.562,1.984-2.521,3.549-2.129c1.633,0.403,2.59,2.001,2.201,3.563     C455.601,213.104,454.001,214.065,452.375,213.66L452.375,213.66z"/>
<path fill-rule="evenodd" clip-rule="evenodd" fill="none" stroke="#000000" stroke-width="0.504" stroke-miterlimit="2.4142" d="     M463.786,216.294c-1.563-0.392-2.522-1.99-2.116-3.621c0.393-1.562,1.984-2.521,3.549-2.129c1.631,0.403,2.59,2.001,2.201,3.563     C467.012,215.739,465.412,216.7,463.786,216.294L463.786,216.294z"/>
<path fill-rule="evenodd" clip-rule="evenodd" fill="none" stroke="#000000" stroke-width="0.504" stroke-miterlimit="2.4142" d="     M457.168,219.242c-1.563-0.391-2.525-1.987-2.115-3.621c0.389-1.561,1.983-2.518,3.55-2.127c1.63,0.404,2.588,2.002,2.2,3.563     C460.395,218.688,458.795,219.648,457.168,219.242L457.168,219.242z"/>
<path fill-rule="evenodd" clip-rule="evenodd" fill="none" stroke="#000000" stroke-width="0.504" stroke-miterlimit="2.4142" d="     M450.412,222.16c-1.561-0.39-2.523-1.989-2.117-3.62c0.389-1.563,1.988-2.521,3.551-2.132c1.629,0.407,2.59,2.005,2.203,3.564     C453.638,221.606,452.041,222.566,450.412,222.16L450.412,222.16z"/>
<path fill-rule="evenodd" clip-rule="evenodd" fill="none" stroke="#000000" stroke-width="0.504" stroke-miterlimit="2.4142" d="     M461.824,224.794c-1.561-0.39-2.524-1.989-2.117-3.621c0.389-1.562,1.988-2.521,3.551-2.131c1.629,0.407,2.589,2.004,2.203,3.564     C465.049,224.24,463.453,225.201,461.824,224.794L461.824,224.794z"/>
<path fill-rule="evenodd" clip-rule="evenodd" fill="none" stroke="#000000" stroke-width="0.504" stroke-miterlimit="2.4142" d="     M455.207,227.743c-1.563-0.389-2.529-1.988-2.116-3.621c0.387-1.561,1.983-2.52,3.548-2.133c1.629,0.408,2.589,2.008,2.203,3.566     C458.43,227.19,456.832,228.148,455.207,227.743L455.207,227.743z"/>
<path fill-rule="evenodd" clip-rule="evenodd" fill="none" stroke="#000000" stroke-width="0.504" stroke-miterlimit="2.4142" d="     M448.447,230.656c-1.564-0.389-2.521-1.984-2.113-3.62c0.388-1.56,1.986-2.519,3.549-2.129c1.629,0.407,2.586,2.001,2.199,3.563     C451.676,230.105,450.082,231.062,448.447,230.656L448.447,230.656z"/>
<path fill-rule="evenodd" clip-rule="evenodd" fill="none" stroke="#000000" stroke-width="0.504" stroke-miterlimit="2.4142" d="     M459.859,233.291c-1.564-0.389-2.521-1.984-2.113-3.62c0.387-1.56,1.986-2.519,3.549-2.129c1.629,0.406,2.586,2.001,2.199,3.562     C463.088,232.74,461.494,233.697,459.859,233.291L459.859,233.291z"/>
<path fill-rule="evenodd" clip-rule="evenodd" fill="none" stroke="#000000" stroke-width="0.504" stroke-miterlimit="2.4142" d="     M453.245,236.24c-1.567-0.394-2.524-1.988-2.116-3.623c0.389-1.559,1.986-2.52,3.551-2.128c1.625,0.405,2.588,2,2.199,3.563     C456.474,235.687,454.875,236.644,453.245,236.24L453.245,236.24z"/>
<path fill-rule="evenodd" clip-rule="evenodd" fill="none" stroke="#000000" stroke-width="0.504" stroke-miterlimit="2.4142" d="     M446.49,239.156c-1.561-0.388-2.523-1.983-2.119-3.62c0.395-1.563,1.988-2.519,3.551-2.131c1.631,0.408,2.592,2.001,2.202,3.565     C449.719,238.603,448.119,239.564,446.49,239.156L446.49,239.156z"/>
<path fill-rule="evenodd" clip-rule="evenodd" fill="none" stroke="#000000" stroke-width="0.504" stroke-miterlimit="2.4142" d="     M457.902,241.791c-1.561-0.388-2.523-1.984-2.119-3.62c0.394-1.563,1.988-2.519,3.551-2.131c1.631,0.408,2.592,2.001,2.201,3.565     C461.131,241.238,459.531,242.199,457.902,241.791L457.902,241.791z"/>
<path fill-rule="evenodd" clip-rule="evenodd" fill="none" stroke="#000000" stroke-width="0.504" stroke-miterlimit="2.4142" d="     M451.283,244.738c-1.563-0.391-2.523-1.987-2.117-3.619c0.393-1.563,1.986-2.521,3.549-2.132c1.629,0.406,2.59,2,2.201,3.565     C454.512,244.183,452.914,245.144,451.283,244.738L451.283,244.738z"/>
<path fill-rule="evenodd" clip-rule="evenodd" fill="none" stroke="#000000" stroke-width="0.504" stroke-miterlimit="2.4142" d="     M444.521,247.652c-1.56-0.389-2.52-1.984-2.11-3.62c0.393-1.559,1.988-2.519,3.549-2.128c1.627,0.404,2.588,2.003,2.199,3.564     C447.752,247.1,446.156,248.06,444.521,247.652L444.521,247.652z"/>
<path fill-rule="evenodd" clip-rule="evenodd" fill="none" stroke="#000000" stroke-width="0.504" stroke-miterlimit="2.4142" d="     M455.932,250.287c-1.559-0.389-2.52-1.985-2.109-3.621c0.393-1.558,1.988-2.518,3.549-2.127c1.627,0.404,2.588,2.002,2.199,3.564     C459.164,249.735,457.568,250.695,455.932,250.287L455.932,250.287z"/>
<path fill-rule="evenodd" clip-rule="evenodd" fill="none" stroke="#000000" stroke-width="0.504" stroke-miterlimit="2.4142" d="     M449.315,253.234c-1.561-0.386-2.521-1.985-2.11-3.616c0.391-1.56,1.986-2.521,3.551-2.131c1.625,0.407,2.588,2.006,2.195,3.564     C452.547,252.685,450.949,253.647,449.315,253.234L449.315,253.234z"/>
<path fill-rule="evenodd" clip-rule="evenodd" fill="none" stroke="#000000" stroke-width="0.504" stroke-miterlimit="2.4142" d="     M442.56,256.151c-1.563-0.392-2.524-1.989-2.112-3.619c0.391-1.563,1.986-2.524,3.548-2.131c1.632,0.403,2.591,2.003,2.199,3.563     C445.789,255.599,444.193,256.558,442.56,256.151L442.56,256.151z"/>
<path fill-rule="evenodd" clip-rule="evenodd" fill="none" stroke="#000000" stroke-width="0.504" stroke-miterlimit="2.4142" d="     M453.971,258.785c-1.564-0.391-2.523-1.988-2.111-3.618c0.391-1.563,1.985-2.524,3.548-2.131c1.632,0.402,2.59,2.003,2.198,3.563     C457.201,258.234,455.604,259.193,453.971,258.785L453.971,258.785z"/>
<path fill-rule="evenodd" clip-rule="evenodd" fill="none" stroke="#000000" stroke-width="0.504" stroke-miterlimit="2.4142" d="     M447.357,261.733c-1.566-0.388-2.523-1.985-2.115-3.616c0.389-1.563,1.986-2.521,3.549-2.131     c1.631,0.402,2.588,2.004,2.199,3.562C450.586,261.183,448.986,262.141,447.357,261.733L447.357,261.733z"/>
<path fill-rule="evenodd" clip-rule="evenodd" fill="none" stroke="#000000" stroke-width="0.504" stroke-miterlimit="2.4142" d="     M440.598,264.65c-1.563-0.393-2.521-1.988-2.113-3.617c0.395-1.565,1.988-2.523,3.551-2.132c1.629,0.404,2.59,2.004,2.199,3.562     C443.829,264.096,442.232,265.056,440.598,264.65L440.598,264.65z"/>
<path fill-rule="evenodd" clip-rule="evenodd" fill="none" stroke="#000000" stroke-width="0.504" stroke-miterlimit="2.4142" d="     M452.01,267.285c-1.563-0.393-2.521-1.988-2.113-3.618c0.393-1.564,1.988-2.523,3.551-2.132c1.629,0.404,2.59,2.004,2.199,3.563     C455.24,266.731,453.643,267.69,452.01,267.285L452.01,267.285z"/>
<path fill-rule="evenodd" clip-rule="evenodd" fill="none" stroke="#000000" stroke-width="0.504" stroke-miterlimit="2.4142" d="     M445.393,270.232c-1.562-0.388-2.518-1.987-2.111-3.617c0.39-1.564,1.984-2.521,3.547-2.132c1.632,0.406,2.59,2.006,2.198,3.562     C448.621,269.679,447.022,270.638,445.393,270.232L445.393,270.232z"/>
<path fill-rule="evenodd" clip-rule="evenodd" fill="none" stroke="#000000" stroke-width="0.504" stroke-miterlimit="2.4142" d="     M438.632,273.146c-1.563-0.39-2.519-1.985-2.108-3.619c0.387-1.563,1.984-2.521,3.545-2.129c1.631,0.401,2.59,2.004,2.201,3.563     C441.864,272.593,440.266,273.552,438.632,273.146L438.632,273.146z"/>
<path fill-rule="evenodd" clip-rule="evenodd" fill="none" stroke="#000000" stroke-width="0.504" stroke-miterlimit="2.4142" d="     M450.043,275.781c-1.563-0.39-2.518-1.985-2.107-3.619c0.387-1.563,1.984-2.521,3.545-2.129c1.631,0.4,2.59,2.003,2.201,3.563     C453.276,275.228,451.678,276.187,450.043,275.781L450.043,275.781z"/>
<path fill-rule="evenodd" clip-rule="evenodd" fill="none" stroke="#000000" stroke-width="0.504" stroke-miterlimit="2.4142" d="     M443.432,278.731c-1.562-0.39-2.519-1.986-2.113-3.62c0.394-1.561,1.99-2.521,3.547-2.131c1.637,0.406,2.596,2.005,2.203,3.564     C446.662,278.177,445.065,279.139,443.432,278.731L443.432,278.731z"/>
<path fill-rule="evenodd" clip-rule="evenodd" fill="none" stroke="#000000" stroke-width="0.504" stroke-miterlimit="2.4142" d="     M436.678,281.648c-1.563-0.394-2.523-1.986-2.117-3.619c0.395-1.563,1.988-2.52,3.555-2.131c1.625,0.403,2.592,2.005,2.199,3.563     C439.908,281.093,438.308,282.053,436.678,281.648L436.678,281.648z"/>
<path fill-rule="evenodd" clip-rule="evenodd" fill="none" stroke="#000000" stroke-width="0.504" stroke-miterlimit="2.4142" d="     M448.089,284.282c-1.562-0.393-2.522-1.986-2.116-3.619c0.394-1.562,1.988-2.519,3.555-2.131     c1.625,0.403,2.592,2.006,2.199,3.563C451.32,283.728,449.719,284.688,448.089,284.282L448.089,284.282z"/>
<path fill-rule="evenodd" clip-rule="evenodd" fill="none" stroke="#000000" stroke-width="0.504" stroke-miterlimit="2.4142" d="     M441.469,287.228c-1.563-0.389-2.52-1.984-2.111-3.618c0.391-1.562,1.983-2.52,3.549-2.13c1.63,0.404,2.592,2.004,2.199,3.563     C444.697,286.676,443.1,287.637,441.469,287.228L441.469,287.228z"/>
<path fill-rule="evenodd" clip-rule="evenodd" fill="none" stroke="#000000" stroke-width="0.504" stroke-miterlimit="2.4142" d="     M434.711,290.143c-1.563-0.387-2.521-1.985-2.111-3.617c0.391-1.56,1.984-2.519,3.551-2.13c1.627,0.405,2.588,2.004,2.197,3.565     C437.939,289.593,436.344,290.553,434.711,290.143L434.711,290.143z"/>
<path fill-rule="evenodd" clip-rule="evenodd" fill="none" stroke="#000000" stroke-width="0.504" stroke-miterlimit="2.4142" d="     M446.123,292.778c-1.563-0.388-2.521-1.985-2.111-3.617c0.391-1.561,1.984-2.519,3.549-2.13c1.628,0.405,2.59,2.003,2.199,3.564     C449.352,292.228,447.756,293.188,446.123,292.778L446.123,292.778z"/>
<path fill-rule="evenodd" clip-rule="evenodd" fill="none" stroke="#000000" stroke-width="0.504" stroke-miterlimit="2.4142" d="     M439.508,295.726c-1.564-0.387-2.521-1.986-2.113-3.617c0.391-1.563,1.986-2.521,3.549-2.13c1.629,0.405,2.594,2.001,2.199,3.562     C442.736,295.174,441.138,296.134,439.508,295.726L439.508,295.726z"/>
<path fill-rule="evenodd" clip-rule="evenodd" fill="none" stroke="#000000" stroke-width="0.504" stroke-miterlimit="2.4142" d="     M432.75,298.642c-1.563-0.389-2.52-1.984-2.113-3.617c0.389-1.563,1.984-2.519,3.549-2.129c1.629,0.403,2.589,2,2.199,3.562     C435.975,298.092,434.38,299.052,432.75,298.642L432.75,298.642z"/>
<path fill-rule="evenodd" clip-rule="evenodd" fill="none" stroke="#000000" stroke-width="0.504" stroke-miterlimit="2.4142" d="     M444.162,301.277c-1.562-0.389-2.523-1.986-2.113-3.619c0.389-1.561,1.986-2.52,3.551-2.129c1.627,0.404,2.59,2,2.202,3.564     C447.393,300.726,445.796,301.686,444.162,301.277L444.162,301.277z"/>
</g></switch>
</svg>