<?xml version="1.0" encoding="utf-8"?>
<!DOCTYPE svg PUBLIC "-//W3C//DTD SVG 1.1//EN" "http://www.w3.org/Graphics/SVG/1.1/DTD/svg11.dtd">
<svg version="1.1" id="Armor" xmlns="http://www.w3.org/2000/svg" xmlns:xlink="http://www.w3.org/1999/xlink" x="0px" y="0px"
	 width="612px" height="792px" viewBox="0 0 612 792" enable-background="new 0 0 612 792" xml:space="preserve">
<switch><g>
<path fill-rule="evenodd" clip-rule="evenodd" fill="none" stroke="#000000" stroke-width="0.504" stroke-miterlimit="2.4142" d="     M462.863,191.261c-1.562-0.395-2.521-1.989-2.114-3.623c0.39-1.561,1.984-2.521,3.548-2.126c1.631,0.402,2.592,2,2.2,3.562     C466.092,190.704,464.49,191.667,462.863,191.261L462.863,191.261z"/>
<path fill-rule="evenodd" clip-rule="evenodd" fill="none" stroke="#000000" stroke-width="0.504" stroke-miterlimit="2.4142" d="     M455.676,196.348c-1.561-0.389-2.525-1.988-2.117-3.618c0.389-1.562,1.99-2.521,3.553-2.133c1.627,0.406,2.59,2.006,2.199,3.565     C458.902,195.795,457.304,196.754,455.676,196.348L455.676,196.348z"/>
<path fill-rule="evenodd" clip-rule="evenodd" fill="none" stroke="#000000" stroke-width="0.504" stroke-miterlimit="2.4142" d="     M467.092,198.983c-1.561-0.389-2.526-1.988-2.117-3.619c0.387-1.562,1.99-2.521,3.553-2.132c1.626,0.406,2.588,2.006,2.199,3.565     C470.318,198.431,468.719,199.39,467.092,198.983L467.092,198.983z"/>
<path fill-rule="evenodd" clip-rule="evenodd" fill="none" stroke="#000000" stroke-width="0.504" stroke-miterlimit="2.4142" d="     M459.906,204.07c-1.56-0.39-2.527-1.987-2.118-3.622c0.392-1.561,1.988-2.52,3.552-2.13c1.627,0.406,2.588,2.005,2.2,3.563     C463.129,203.518,461.532,204.476,459.906,204.07L459.906,204.07z"/>
<path fill-rule="evenodd" clip-rule="evenodd" fill="none" stroke="#000000" stroke-width="0.504" stroke-miterlimit="2.4142" d="     M452.714,209.154c-1.563-0.388-2.517-1.984-2.111-3.619c0.388-1.562,1.988-2.518,3.553-2.129     c1.624,0.409,2.585,2.004,2.194,3.563C455.949,208.604,454.348,209.564,452.714,209.154L452.714,209.154z"/>
<path fill-rule="evenodd" clip-rule="evenodd" fill="none" stroke="#000000" stroke-width="0.504" stroke-miterlimit="2.4142" d="     M464.129,211.79c-1.563-0.389-2.516-1.983-2.111-3.618c0.389-1.563,1.988-2.518,3.553-2.131c1.625,0.409,2.585,2.005,2.195,3.563     C467.364,211.24,465.764,212.2,464.129,211.79L464.129,211.79z"/>
<path fill-rule="evenodd" clip-rule="evenodd" fill="none" stroke="#000000" stroke-width="0.504" stroke-miterlimit="2.4142" d="     M456.947,216.879c-1.566-0.392-2.523-1.985-2.113-3.622c0.391-1.558,1.984-2.518,3.549-2.13c1.624,0.408,2.588,2.004,2.201,3.563     C460.18,216.327,458.58,217.282,456.947,216.879L456.947,216.879z"/>
<path fill-rule="evenodd" clip-rule="evenodd" fill="none" stroke="#000000" stroke-width="0.504" stroke-miterlimit="2.4142" d="     M449.766,221.965c-1.563-0.39-2.521-1.985-2.12-3.62c0.393-1.562,1.987-2.518,3.548-2.131c1.633,0.409,2.593,2.001,2.201,3.564     C452.99,221.412,451.394,222.372,449.766,221.965L449.766,221.965z"/>
<path fill-rule="evenodd" clip-rule="evenodd" fill="none" stroke="#000000" stroke-width="0.504" stroke-miterlimit="2.4142" d="     M461.178,224.601c-1.563-0.391-2.52-1.985-2.119-3.621c0.394-1.562,1.987-2.517,3.549-2.131c1.632,0.41,2.594,2.001,2.201,3.565     C464.404,224.047,462.807,225.007,461.178,224.601L461.178,224.601z"/>
<path fill-rule="evenodd" clip-rule="evenodd" fill="none" stroke="#000000" stroke-width="0.504" stroke-miterlimit="2.4142" d="     M453.99,229.687c-1.563-0.39-2.52-1.987-2.113-3.617c0.395-1.564,1.984-2.521,3.549-2.133c1.627,0.406,2.588,2.002,2.198,3.564     C457.22,229.133,455.622,230.093,453.99,229.687L453.99,229.687z"/>
<path fill-rule="evenodd" clip-rule="evenodd" fill="none" stroke="#000000" stroke-width="0.504" stroke-miterlimit="2.4142" d="     M446.799,234.771c-1.558-0.385-2.519-1.982-2.109-3.615c0.39-1.561,1.982-2.523,3.547-2.132c1.63,0.405,2.592,2.005,2.201,3.566     C450.029,234.224,448.435,235.183,446.799,234.771L446.799,234.771z"/>
<path fill-rule="evenodd" clip-rule="evenodd" fill="none" stroke="#000000" stroke-width="0.504" stroke-miterlimit="2.4142" d="     M458.215,237.405c-1.559-0.386-2.518-1.982-2.111-3.615c0.391-1.561,1.984-2.522,3.549-2.131c1.63,0.404,2.592,2.004,2.201,3.565     C461.446,236.858,459.85,237.818,458.215,237.405L458.215,237.405z"/>
<path fill-rule="evenodd" clip-rule="evenodd" fill="none" stroke="#000000" stroke-width="0.504" stroke-miterlimit="2.4142" d="     M451.029,242.492c-1.563-0.385-2.52-1.982-2.109-3.613c0.389-1.563,1.984-2.523,3.547-2.133c1.629,0.404,2.59,2.006,2.197,3.566     C454.261,241.946,452.662,242.904,451.029,242.492L451.029,242.492z"/>
<path fill-rule="evenodd" clip-rule="evenodd" fill="none" stroke="#000000" stroke-width="0.504" stroke-miterlimit="2.4142" d="     M443.844,247.581c-1.563-0.391-2.521-1.986-2.112-3.619c0.394-1.563,1.985-2.521,3.548-2.131     c1.632,0.405,2.592,2.004,2.199,3.564C447.075,247.028,445.479,247.989,443.844,247.581L443.844,247.581z"/>
<path fill-rule="evenodd" clip-rule="evenodd" fill="none" stroke="#000000" stroke-width="0.504" stroke-miterlimit="2.4142" d="     M455.26,250.216c-1.563-0.39-2.521-1.986-2.113-3.617c0.393-1.565,1.986-2.524,3.549-2.132c1.632,0.404,2.591,2.003,2.199,3.563     C458.492,249.665,456.894,250.624,455.26,250.216L455.26,250.216z"/>
<path fill-rule="evenodd" clip-rule="evenodd" fill="none" stroke="#000000" stroke-width="0.504" stroke-miterlimit="2.4142" d="     M448.07,255.301c-1.562-0.391-2.515-1.984-2.108-3.614c0.39-1.563,1.985-2.525,3.548-2.133c1.633,0.405,2.59,2.003,2.201,3.562     C451.307,254.753,449.705,255.711,448.07,255.301L448.07,255.301z"/>
<path fill-rule="evenodd" clip-rule="evenodd" fill="none" stroke="#000000" stroke-width="0.504" stroke-miterlimit="2.4142" d="     M440.886,260.388c-1.562-0.386-2.52-1.983-2.112-3.616c0.393-1.563,1.986-2.521,3.547-2.132c1.631,0.408,2.594,2.005,2.199,3.565     C444.115,259.837,442.516,260.799,440.886,260.388L440.886,260.388z"/>
<path fill-rule="evenodd" clip-rule="evenodd" fill="none" stroke="#000000" stroke-width="0.504" stroke-miterlimit="2.4142" d="     M452.302,263.023c-1.562-0.387-2.52-1.983-2.111-3.615c0.393-1.564,1.985-2.522,3.547-2.133c1.631,0.407,2.593,2.005,2.199,3.566     C455.531,262.474,453.932,263.435,452.302,263.023L452.302,263.023z"/>
<path fill-rule="evenodd" clip-rule="evenodd" fill="none" stroke="#000000" stroke-width="0.504" stroke-miterlimit="2.4142" d="     M445.115,268.11c-1.564-0.389-2.515-1.983-2.109-3.617c0.389-1.564,1.985-2.521,3.547-2.132c1.633,0.407,2.589,2.005,2.2,3.564     C448.344,267.559,446.75,268.519,445.115,268.11L445.115,268.11z"/>
<path fill-rule="evenodd" clip-rule="evenodd" fill="none" stroke="#000000" stroke-width="0.504" stroke-miterlimit="2.4142" d="     M437.93,273.198c-1.562-0.389-2.522-1.985-2.113-3.618c0.391-1.565,1.986-2.519,3.551-2.132c1.629,0.404,2.591,2.005,2.199,3.563     C441.164,272.645,439.563,273.605,437.93,273.198L437.93,273.198z"/>
<path fill-rule="evenodd" clip-rule="evenodd" fill="none" stroke="#000000" stroke-width="0.504" stroke-miterlimit="2.4142" d="     M449.345,275.833c-1.562-0.388-2.522-1.986-2.114-3.617c0.392-1.565,1.987-2.519,3.55-2.132c1.631,0.403,2.593,2.004,2.201,3.563     C452.578,275.28,450.978,276.241,449.345,275.833L449.345,275.833z"/>
<path fill-rule="evenodd" clip-rule="evenodd" fill="none" stroke="#000000" stroke-width="0.504" stroke-miterlimit="2.4142" d="     M442.157,280.919c-1.561-0.388-2.515-1.985-2.11-3.616c0.39-1.564,1.989-2.522,3.547-2.133c1.635,0.406,2.595,2.006,2.203,3.563     C445.389,280.368,443.793,281.328,442.157,280.919L442.157,280.919z"/>
<path fill-rule="evenodd" clip-rule="evenodd" fill="none" stroke="#000000" stroke-width="0.504" stroke-miterlimit="2.4142" d="     M434.975,286.005c-1.563-0.387-2.521-1.984-2.114-3.618c0.391-1.561,1.987-2.519,3.552-2.128     c1.631,0.405,2.592,2.003,2.199,3.563C438.205,285.454,436.609,286.415,434.975,286.005L434.975,286.005z"/>
<path fill-rule="evenodd" clip-rule="evenodd" fill="none" stroke="#000000" stroke-width="0.504" stroke-miterlimit="2.4142" d="     M446.387,288.64c-1.561-0.387-2.521-1.984-2.114-3.618c0.391-1.56,1.987-2.518,3.553-2.128c1.63,0.405,2.591,2.003,2.198,3.564     C449.617,288.09,448.021,289.05,446.387,288.64L446.387,288.64z"/>
<path fill-rule="evenodd" clip-rule="evenodd" fill="none" stroke="#000000" stroke-width="0.504" stroke-miterlimit="2.4142" d="     M439.205,293.729c-1.564-0.389-2.526-1.984-2.115-3.619c0.389-1.562,1.984-2.519,3.55-2.133c1.627,0.407,2.592,2.007,2.202,3.566     C442.43,293.177,440.834,294.137,439.205,293.729L439.205,293.729z"/>
<path fill-rule="evenodd" clip-rule="evenodd" fill="none" stroke="#000000" stroke-width="0.504" stroke-miterlimit="2.4142" d="     M432.018,298.814c-1.563-0.388-2.521-1.987-2.113-3.62c0.39-1.561,1.985-2.517,3.549-2.129c1.629,0.406,2.594,2,2.199,3.563     C435.247,298.265,433.65,299.225,432.018,298.814L432.018,298.814z"/>
<path fill-rule="evenodd" clip-rule="evenodd" fill="none" stroke="#000000" stroke-width="0.504" stroke-miterlimit="2.4142" d="     M443.431,301.45c-1.563-0.388-2.521-1.988-2.114-3.62c0.392-1.56,1.986-2.518,3.551-2.129c1.627,0.405,2.592,2,2.199,3.563     C446.66,300.899,445.063,301.859,443.431,301.45L443.431,301.45z"/>
</g></switch>
</svg>