<?xml version="1.0" encoding="utf-8"?>
<!DOCTYPE svg PUBLIC "-//W3C//DTD SVG 1.1//EN" "http://www.w3.org/Graphics/SVG/1.1/DTD/svg11.dtd">
<svg version="1.1" id="Armor" xmlns="http://www.w3.org/2000/svg" xmlns:xlink="http://www.w3.org/1999/xlink" x="0px" y="0px"
	 width="612px" height="792px" viewBox="0 0 612 792" enable-background="new 0 0 612 792" xml:space="preserve">
<switch><g>
<path fill="none" stroke="#000000" stroke-width="0.504" stroke-miterlimit="2.4142" d="M456.988,103.18      c-1.317,0-2.414,1.098-2.414,2.415c0,1.317,1.097,2.415,2.414,2.415c1.315,0,2.415-1.097,2.415-2.415      C459.403,104.278,458.305,103.18,456.988,103.18L456.988,103.18z"/>
<path fill="none" stroke="#000000" stroke-width="0.504" stroke-miterlimit="2.4142" d="M467.3,138.884     c-1.321,0-2.417-1.098-2.417-2.415c0-1.317,1.096-2.414,2.417-2.414c1.316,0,2.412,1.097,2.412,2.414     C469.712,137.786,468.616,138.884,467.3,138.884L467.3,138.884z"/>
<path fill="none" stroke="#000000" stroke-width="0.504" stroke-miterlimit="2.4142" d="M455.957,169.794     c-1.316,0-2.413-1.097-2.413-2.488c0-1.317,1.097-2.414,2.413-2.414s2.416,1.097,2.416,2.414     C458.373,168.697,457.273,169.794,455.957,169.794L455.957,169.794z"/>
</g></switch>
</svg>