<?xml version="1.0" encoding="utf-8"?>
<!DOCTYPE svg PUBLIC "-//W3C//DTD SVG 1.1//EN" "http://www.w3.org/Graphics/SVG/1.1/DTD/svg11.dtd">
<svg version="1.1" id="Armor" xmlns="http://www.w3.org/2000/svg" xmlns:xlink="http://www.w3.org/1999/xlink" x="0px" y="0px"
	 width="612px" height="792px" viewBox="0 0 612 792" enable-background="new 0 0 612 792" xml:space="preserve">
<switch><g>
<path fill-rule="evenodd" clip-rule="evenodd" fill="none" stroke="#000000" stroke-width="0.504" stroke-miterlimit="2.4142" d="     M520.192,191.393c1.558-0.393,2.521-1.987,2.106-3.619c-0.382-1.565-1.979-2.525-3.544-2.133     c-1.63,0.404-2.591,2.003-2.197,3.564C516.959,190.839,518.559,191.798,520.192,191.393L520.192,191.393z"/>
<path fill-rule="evenodd" clip-rule="evenodd" fill="none" stroke="#000000" stroke-width="0.504" stroke-miterlimit="2.4142" d="     M527.15,195.518c1.561-0.391,2.522-1.988,2.115-3.622c-0.39-1.561-1.985-2.517-3.548-2.128c-1.633,0.404-2.592,2.003-2.202,3.563     C523.924,194.964,525.521,195.921,527.15,195.518L527.15,195.518z"/>
<path fill-rule="evenodd" clip-rule="evenodd" fill="none" stroke="#000000" stroke-width="0.504" stroke-miterlimit="2.4142" d="     M515.736,198.154c1.562-0.393,2.521-1.988,2.116-3.623c-0.39-1.561-1.986-2.519-3.546-2.128     c-1.635,0.405-2.594,2.003-2.202,3.563C512.51,197.598,514.111,198.556,515.736,198.154L515.736,198.154z"/>
<path fill-rule="evenodd" clip-rule="evenodd" fill="none" stroke="#000000" stroke-width="0.504" stroke-miterlimit="2.4142" d="     M522.703,202.279c1.562-0.393,2.521-1.988,2.113-3.623c-0.389-1.56-1.984-2.519-3.548-2.126c-1.632,0.403-2.592,2-2.2,3.563     C519.475,201.723,521.075,202.684,522.703,202.279L522.703,202.279z"/>
<path fill-rule="evenodd" clip-rule="evenodd" fill="none" stroke="#000000" stroke-width="0.504" stroke-miterlimit="2.4142" d="     M529.662,206.407c1.561-0.39,2.525-1.987,2.117-3.62c-0.388-1.562-1.986-2.521-3.551-2.132c-1.63,0.404-2.588,2.006-2.201,3.563     C526.437,205.853,528.033,206.811,529.662,206.407L529.662,206.407z"/>
<path fill-rule="evenodd" clip-rule="evenodd" fill="none" stroke="#000000" stroke-width="0.504" stroke-miterlimit="2.4142" d="     M518.251,209.041c1.561-0.388,2.525-1.986,2.117-3.619c-0.388-1.561-1.989-2.521-3.551-2.131     c-1.629,0.406-2.59,2.005-2.201,3.564C515.025,208.488,516.623,209.447,518.251,209.041L518.251,209.041z"/>
<path fill-rule="evenodd" clip-rule="evenodd" fill="none" stroke="#000000" stroke-width="0.504" stroke-miterlimit="2.4142" d="     M525.215,213.167c1.559-0.388,2.525-1.987,2.116-3.62c-0.39-1.561-1.989-2.52-3.551-2.131c-1.628,0.406-2.589,2.004-2.199,3.563     C521.99,212.615,523.589,213.572,525.215,213.167L525.215,213.167z"/>
<path fill-rule="evenodd" clip-rule="evenodd" fill="none" stroke="#000000" stroke-width="0.504" stroke-miterlimit="2.4142" d="     M532.18,217.292c1.563-0.39,2.521-1.985,2.112-3.62c-0.389-1.561-1.988-2.521-3.549-2.13c-1.628,0.408-2.587,2.002-2.199,3.563     C528.947,216.74,530.545,217.698,532.18,217.292L532.18,217.292z"/>
<path fill-rule="evenodd" clip-rule="evenodd" fill="none" stroke="#000000" stroke-width="0.504" stroke-miterlimit="2.4142" d="     M520.768,219.926c1.565-0.39,2.518-1.984,2.112-3.619c-0.388-1.563-1.988-2.519-3.552-2.13c-1.626,0.407-2.584,2.003-2.196,3.563     C517.536,219.375,519.133,220.334,520.768,219.926L520.768,219.926z"/>
<path fill-rule="evenodd" clip-rule="evenodd" fill="none" stroke="#000000" stroke-width="0.504" stroke-miterlimit="2.4142" d="     M527.73,224.053c1.565-0.392,2.521-1.985,2.113-3.622c-0.39-1.558-1.985-2.519-3.551-2.13c-1.623,0.407-2.587,2.004-2.2,3.564     C524.498,223.501,526.098,224.458,527.73,224.053L527.73,224.053z"/>
<path fill-rule="evenodd" clip-rule="evenodd" fill="none" stroke="#000000" stroke-width="0.504" stroke-miterlimit="2.4142" d="     M534.689,228.18c1.561-0.391,2.52-1.987,2.117-3.618c-0.393-1.565-1.988-2.521-3.55-2.134c-1.632,0.406-2.592,2.001-2.2,3.565     C531.459,227.625,533.061,228.586,534.689,228.18L534.689,228.18z"/>
<path fill-rule="evenodd" clip-rule="evenodd" fill="none" stroke="#000000" stroke-width="0.504" stroke-miterlimit="2.4142" d="     M523.277,230.815c1.562-0.391,2.52-1.986,2.119-3.62c-0.393-1.563-1.989-2.519-3.55-2.133c-1.632,0.409-2.591,2.002-2.201,3.566     C520.051,230.26,521.646,231.222,523.277,230.815L523.277,230.815z"/>
<path fill-rule="evenodd" clip-rule="evenodd" fill="none" stroke="#000000" stroke-width="0.504" stroke-miterlimit="2.4142" d="     M530.241,234.94c1.563-0.392,2.521-1.987,2.114-3.619c-0.393-1.563-1.983-2.521-3.548-2.132     c-1.629,0.405-2.589,2.002-2.199,3.564C527.012,234.384,528.611,235.345,530.241,234.94L530.241,234.94z"/>
<path fill-rule="evenodd" clip-rule="evenodd" fill="none" stroke="#000000" stroke-width="0.504" stroke-miterlimit="2.4142" d="     M537.208,239.063c1.562-0.386,2.52-1.982,2.11-3.615c-0.389-1.561-1.985-2.521-3.546-2.132c-1.63,0.406-2.592,2.006-2.201,3.566     C533.979,238.516,535.576,239.475,537.208,239.063L537.208,239.063z"/>
<path fill-rule="evenodd" clip-rule="evenodd" fill="none" stroke="#000000" stroke-width="0.504" stroke-miterlimit="2.4142" d="     M525.796,241.698c1.56-0.387,2.52-1.983,2.111-3.616c-0.39-1.561-1.986-2.522-3.548-2.131c-1.63,0.404-2.593,2.004-2.201,3.565     C522.566,241.149,524.162,242.109,525.796,241.698L525.796,241.698z"/>
<path fill-rule="evenodd" clip-rule="evenodd" fill="none" stroke="#000000" stroke-width="0.504" stroke-miterlimit="2.4142" d="     M532.76,245.823c1.563-0.386,2.521-1.983,2.109-3.614c-0.389-1.562-1.984-2.522-3.547-2.132c-1.629,0.404-2.59,2.005-2.198,3.565     C529.529,245.275,531.127,246.235,532.76,245.823L532.76,245.823z"/>
<path fill-rule="evenodd" clip-rule="evenodd" fill="none" stroke="#000000" stroke-width="0.504" stroke-miterlimit="2.4142" d="     M539.719,249.953c1.563-0.392,2.522-1.987,2.113-3.617c-0.392-1.565-1.984-2.525-3.549-2.133     c-1.631,0.403-2.591,2.003-2.198,3.563C536.488,249.399,538.086,250.359,539.719,249.953L539.719,249.953z"/>
<path fill-rule="evenodd" clip-rule="evenodd" fill="none" stroke="#000000" stroke-width="0.504" stroke-miterlimit="2.4142" d="     M528.308,252.586c1.563-0.39,2.521-1.986,2.113-3.618c-0.394-1.563-1.987-2.522-3.549-2.131c-1.631,0.403-2.591,2.003-2.2,3.563     C525.078,252.035,526.675,252.995,528.308,252.586L528.308,252.586z"/>
<path fill-rule="evenodd" clip-rule="evenodd" fill="none" stroke="#000000" stroke-width="0.504" stroke-miterlimit="2.4142" d="     M535.272,256.711c1.563-0.391,2.517-1.985,2.111-3.616c-0.39-1.563-1.985-2.524-3.548-2.132c-1.633,0.404-2.589,2.003-2.2,3.562     C532.039,256.162,533.64,257.12,535.272,256.711L535.272,256.711z"/>
<path fill-rule="evenodd" clip-rule="evenodd" fill="none" stroke="#000000" stroke-width="0.504" stroke-miterlimit="2.4142" d="     M542.235,260.837c1.562-0.39,2.522-1.986,2.111-3.617c-0.392-1.564-1.986-2.521-3.55-2.131c-1.629,0.404-2.589,2.004-2.198,3.563     C539.005,260.285,540.602,261.246,542.235,260.837L542.235,260.837z"/>
<path fill-rule="evenodd" clip-rule="evenodd" fill="none" stroke="#000000" stroke-width="0.504" stroke-miterlimit="2.4142" d="     M530.822,263.472c1.562-0.388,2.52-1.984,2.111-3.617c-0.393-1.563-1.986-2.521-3.548-2.131c-1.63,0.406-2.593,2.005-2.199,3.565     C527.592,262.921,529.19,263.882,530.822,263.472L530.822,263.472z"/>
<path fill-rule="evenodd" clip-rule="evenodd" fill="none" stroke="#000000" stroke-width="0.504" stroke-miterlimit="2.4142" d="     M537.787,267.598c1.563-0.389,2.516-1.983,2.109-3.617c-0.39-1.563-1.985-2.521-3.547-2.131c-1.632,0.405-2.59,2.004-2.2,3.563     C534.557,267.047,536.154,268.006,537.787,267.598L537.787,267.598z"/>
<path fill-rule="evenodd" clip-rule="evenodd" fill="none" stroke="#000000" stroke-width="0.504" stroke-miterlimit="2.4142" d="     M544.748,271.725c1.563-0.39,2.521-1.984,2.111-3.616c-0.391-1.565-1.985-2.523-3.547-2.134     c-1.633,0.404-2.594,2.005-2.201,3.563C541.52,271.171,543.115,272.132,544.748,271.725L544.748,271.725z"/>
<path fill-rule="evenodd" clip-rule="evenodd" fill="none" stroke="#000000" stroke-width="0.504" stroke-miterlimit="2.4142" d="     M533.335,274.36c1.563-0.389,2.522-1.985,2.114-3.616c-0.391-1.565-1.987-2.521-3.55-2.134c-1.631,0.405-2.592,2.006-2.201,3.564     C530.104,273.807,531.703,274.768,533.335,274.36L533.335,274.36z"/>
<path fill-rule="evenodd" clip-rule="evenodd" fill="none" stroke="#000000" stroke-width="0.504" stroke-miterlimit="2.4142" d="     M540.301,278.485c1.56-0.387,2.517-1.984,2.11-3.616c-0.39-1.563-1.987-2.521-3.549-2.132c-1.632,0.405-2.592,2.004-2.201,3.564     C537.068,277.934,538.665,278.895,540.301,278.485L540.301,278.485z"/>
<path fill-rule="evenodd" clip-rule="evenodd" fill="none" stroke="#000000" stroke-width="0.504" stroke-miterlimit="2.4142" d="     M547.26,282.611c1.563-0.386,2.521-1.984,2.113-3.616c-0.39-1.562-1.984-2.519-3.55-2.132c-1.628,0.406-2.592,2.007-2.2,3.565     C544.029,282.06,545.629,283.022,547.26,282.611L547.26,282.611z"/>
<path fill-rule="evenodd" clip-rule="evenodd" fill="none" stroke="#000000" stroke-width="0.504" stroke-miterlimit="2.4142" d="     M535.849,285.246c1.563-0.388,2.521-1.985,2.114-3.617c-0.391-1.563-1.988-2.521-3.552-2.13     c-1.629,0.405-2.592,2.004-2.199,3.563C532.619,284.694,534.216,285.656,535.849,285.246L535.849,285.246z"/>
<path fill-rule="evenodd" clip-rule="evenodd" fill="none" stroke="#000000" stroke-width="0.504" stroke-miterlimit="2.4142" d="     M542.811,289.373c1.563-0.39,2.523-1.984,2.113-3.618c-0.39-1.563-1.983-2.521-3.548-2.131c-1.63,0.404-2.593,2.004-2.204,3.564     C539.585,288.819,541.18,289.78,542.811,289.373L542.811,289.373z"/>
<path fill-rule="evenodd" clip-rule="evenodd" fill="none" stroke="#000000" stroke-width="0.504" stroke-miterlimit="2.4142" d="     M549.775,293.497c1.563-0.388,2.521-1.985,2.113-3.617c-0.393-1.56-1.989-2.518-3.552-2.128     c-1.627,0.402-2.591,2.001-2.198,3.563C546.545,292.947,548.143,293.906,549.775,293.497L549.775,293.497z"/>
<path fill-rule="evenodd" clip-rule="evenodd" fill="none" stroke="#000000" stroke-width="0.504" stroke-miterlimit="2.4142" d="     M538.361,296.132c1.563-0.388,2.521-1.985,2.113-3.618c-0.389-1.561-1.986-2.518-3.549-2.129c-1.628,0.405-2.593,2-2.2,3.563     C535.133,295.583,536.729,296.542,538.361,296.132L538.361,296.132z"/>
<path fill-rule="evenodd" clip-rule="evenodd" fill="none" stroke="#000000" stroke-width="0.504" stroke-miterlimit="2.4142" d="     M545.324,300.259c1.563-0.39,2.523-1.984,2.113-3.617c-0.391-1.563-1.984-2.521-3.548-2.132c-1.63,0.404-2.593,2.005-2.204,3.563     C542.098,299.706,543.693,300.667,545.324,300.259L545.324,300.259z"/>
</g></switch>
</svg>