<?xml version="1.0" encoding="utf-8"?>
<!DOCTYPE svg PUBLIC "-//W3C//DTD SVG 1.1//EN" "http://www.w3.org/Graphics/SVG/1.1/DTD/svg11.dtd">
<svg version="1.1" id="Armor" xmlns="http://www.w3.org/2000/svg" xmlns:xlink="http://www.w3.org/1999/xlink" x="0px" y="0px"
	 width="612px" height="792px" viewBox="0 0 612 792" enable-background="new 0 0 612 792" xml:space="preserve">
<switch><g>
<path fill="none" stroke="#000000" stroke-width="0.504" stroke-miterlimit="2.4142" d="M425.306,89.266     c-1.658-0.145-2.925-1.652-2.778-3.312c0.149-1.731,1.649-2.925,3.313-2.78c1.729,0.151,3.001,1.588,2.852,3.32     C428.543,88.153,427.035,89.417,425.306,89.266L425.306,89.266z"/>
<path fill="none" stroke="#000000" stroke-width="0.504" stroke-miterlimit="2.4142" d="M421.69,130.635     c-1.663-0.144-2.931-1.652-2.783-3.312c0.148-1.732,1.652-2.925,3.312-2.779c1.733,0.15,3.004,1.587,2.852,3.319     C424.924,129.524,423.419,130.788,421.69,130.635L421.69,130.635z"/>
<path fill="none" stroke="#000000" stroke-width="0.504" stroke-miterlimit="2.4142" d="M418.067,172.006     c-1.661-0.145-2.926-1.652-2.779-3.312c0.151-1.732,1.651-2.925,3.313-2.78c1.729,0.151,3,1.588,2.848,3.32     C421.306,170.894,419.798,172.158,418.067,172.006L418.067,172.006z"/>
</g></switch>
</svg>