<?xml version="1.0" encoding="utf-8"?>
<!DOCTYPE svg PUBLIC "-//W3C//DTD SVG 1.1//EN" "http://www.w3.org/Graphics/SVG/1.1/DTD/svg11.dtd">
<svg version="1.1" id="Armor" xmlns="http://www.w3.org/2000/svg" xmlns:xlink="http://www.w3.org/1999/xlink" x="0px" y="0px"
	 width="612px" height="792px" viewBox="0 0 612 792" enable-background="new 0 0 612 792" xml:space="preserve">
<switch><g>
<path fill-rule="evenodd" clip-rule="evenodd" fill="none" stroke="#000000" stroke-width="0.504" stroke-miterlimit="2.4142" d="     M464.037,189.494c-1.565-0.388-2.525-1.983-2.115-3.617c0.389-1.561,1.984-2.521,3.547-2.13c1.631,0.405,2.592,2.001,2.201,3.564     C467.262,188.943,465.665,189.902,464.037,189.494L464.037,189.494z"/>
<path fill-rule="evenodd" clip-rule="evenodd" fill="none" stroke="#000000" stroke-width="0.504" stroke-miterlimit="2.4142" d="     M457.313,192.253c-1.563-0.392-2.526-1.986-2.112-3.619c0.385-1.563,1.98-2.523,3.543-2.131c1.633,0.403,2.59,2,2.201,3.564     C460.539,191.698,458.94,192.66,457.313,192.253L457.313,192.253z"/>
<path fill-rule="evenodd" clip-rule="evenodd" fill="none" stroke="#000000" stroke-width="0.504" stroke-miterlimit="2.4142" d="     M468.725,194.889c-1.563-0.393-2.524-1.988-2.113-3.621c0.387-1.563,1.98-2.521,3.545-2.131c1.633,0.405,2.59,2.001,2.2,3.565     C471.951,194.333,470.352,195.294,468.725,194.889L468.725,194.889z"/>
<path fill-rule="evenodd" clip-rule="evenodd" fill="none" stroke="#000000" stroke-width="0.504" stroke-miterlimit="2.4142" d="     M462.148,197.677c-1.566-0.387-2.526-1.983-2.115-3.617c0.389-1.561,1.984-2.521,3.547-2.13c1.631,0.406,2.59,2.001,2.201,3.564     C465.373,197.126,463.775,198.085,462.148,197.677L462.148,197.677z"/>
<path fill-rule="evenodd" clip-rule="evenodd" fill="none" stroke="#000000" stroke-width="0.504" stroke-miterlimit="2.4142" d="     M455.423,200.437c-1.56-0.393-2.523-1.987-2.112-3.62c0.387-1.563,1.98-2.523,3.545-2.131c1.632,0.404,2.59,2,2.2,3.564     C458.648,199.882,457.053,200.843,455.423,200.437L455.423,200.437z"/>
<path fill-rule="evenodd" clip-rule="evenodd" fill="none" stroke="#000000" stroke-width="0.504" stroke-miterlimit="2.4142" d="     M466.834,203.072c-1.561-0.392-2.524-1.986-2.11-3.619c0.386-1.563,1.979-2.523,3.543-2.132c1.632,0.405,2.589,2.001,2.2,3.565     C470.063,202.517,468.463,203.478,466.834,203.072L466.834,203.072z"/>
<path fill-rule="evenodd" clip-rule="evenodd" fill="none" stroke="#000000" stroke-width="0.504" stroke-miterlimit="2.4142" d="     M460.256,205.861c-1.564-0.387-2.523-1.983-2.113-3.616c0.389-1.562,1.984-2.521,3.546-2.131     c1.632,0.406,2.591,1.999,2.202,3.563C463.482,205.311,461.887,206.27,460.256,205.861L460.256,205.861z"/>
<path fill-rule="evenodd" clip-rule="evenodd" fill="none" stroke="#000000" stroke-width="0.504" stroke-miterlimit="2.4142" d="     M453.535,208.622c-1.563-0.393-2.526-1.987-2.113-3.619c0.386-1.562,1.979-2.523,3.546-2.132     c1.632,0.405,2.587,2.001,2.198,3.565C456.76,208.067,455.162,209.027,453.535,208.622L453.535,208.622z"/>
<path fill-rule="evenodd" clip-rule="evenodd" fill="none" stroke="#000000" stroke-width="0.504" stroke-miterlimit="2.4142" d="     M464.947,211.256c-1.561-0.393-2.525-1.987-2.113-3.62c0.387-1.562,1.979-2.521,3.547-2.131c1.631,0.405,2.587,2.002,2.195,3.565     C468.174,210.702,466.572,211.663,464.947,211.256L464.947,211.256z"/>
<path fill-rule="evenodd" clip-rule="evenodd" fill="none" stroke="#000000" stroke-width="0.504" stroke-miterlimit="2.4142" d="     M458.363,214.046c-1.562-0.39-2.525-1.985-2.109-3.618c0.383-1.563,1.979-2.523,3.545-2.133c1.629,0.406,2.586,2.004,2.195,3.563     C461.593,213.496,459.992,214.453,458.363,214.046L458.363,214.046z"/>
<path fill-rule="evenodd" clip-rule="evenodd" fill="none" stroke="#000000" stroke-width="0.504" stroke-miterlimit="2.4142" d="     M451.65,216.806c-1.564-0.392-2.523-1.99-2.118-3.621c0.393-1.562,1.984-2.522,3.55-2.129c1.633,0.403,2.59,2,2.201,3.563     C454.875,216.25,453.276,217.21,451.65,216.806L451.65,216.806z"/>
<path fill-rule="evenodd" clip-rule="evenodd" fill="none" stroke="#000000" stroke-width="0.504" stroke-miterlimit="2.4142" d="     M463.061,219.44c-1.563-0.391-2.522-1.989-2.115-3.621c0.393-1.562,1.984-2.521,3.549-2.129c1.63,0.403,2.589,2.001,2.201,3.563     C466.287,218.884,464.688,219.845,463.061,219.44L463.061,219.44z"/>
<path fill-rule="evenodd" clip-rule="evenodd" fill="none" stroke="#000000" stroke-width="0.504" stroke-miterlimit="2.4142" d="     M456.479,222.231c-1.563-0.392-2.526-1.988-2.116-3.621c0.389-1.561,1.984-2.518,3.551-2.128c1.63,0.404,2.588,2.003,2.199,3.563     C459.705,221.677,458.106,222.636,456.479,222.231L456.479,222.231z"/>
<path fill-rule="evenodd" clip-rule="evenodd" fill="none" stroke="#000000" stroke-width="0.504" stroke-miterlimit="2.4142" d="     M449.76,224.991c-1.561-0.39-2.523-1.989-2.117-3.62c0.389-1.562,1.988-2.521,3.551-2.132c1.629,0.408,2.59,2.005,2.203,3.564     C452.984,224.437,451.389,225.397,449.76,224.991L449.76,224.991z"/>
<path fill-rule="evenodd" clip-rule="evenodd" fill="none" stroke="#000000" stroke-width="0.504" stroke-miterlimit="2.4142" d="     M461.172,227.625c-1.561-0.39-2.524-1.989-2.117-3.622c0.389-1.562,1.988-2.521,3.551-2.131c1.629,0.408,2.589,2.005,2.203,3.564     C464.396,227.071,462.801,228.032,461.172,227.625L461.172,227.625z"/>
<path fill-rule="evenodd" clip-rule="evenodd" fill="none" stroke="#000000" stroke-width="0.504" stroke-miterlimit="2.4142" d="     M454.592,230.417c-1.564-0.388-2.531-1.987-2.117-3.621c0.387-1.561,1.984-2.519,3.547-2.132c1.63,0.408,2.59,2.008,2.205,3.566     C457.813,229.865,456.215,230.823,454.592,230.417L454.592,230.417z"/>
<path fill-rule="evenodd" clip-rule="evenodd" fill="none" stroke="#000000" stroke-width="0.504" stroke-miterlimit="2.4142" d="     M447.867,233.172c-1.564-0.388-2.521-1.983-2.113-3.62c0.387-1.559,1.986-2.518,3.549-2.129c1.629,0.408,2.586,2.001,2.199,3.563     C451.096,232.623,449.502,233.58,447.867,233.172L447.867,233.172z"/>
<path fill-rule="evenodd" clip-rule="evenodd" fill="none" stroke="#000000" stroke-width="0.504" stroke-miterlimit="2.4142" d="     M459.279,235.807c-1.564-0.389-2.521-1.984-2.113-3.62c0.387-1.56,1.986-2.519,3.549-2.129c1.629,0.407,2.586,2.001,2.199,3.562     C462.508,235.256,460.914,236.213,459.279,235.807L459.279,235.807z"/>
<path fill-rule="evenodd" clip-rule="evenodd" fill="none" stroke="#000000" stroke-width="0.504" stroke-miterlimit="2.4142" d="     M452.701,238.6c-1.567-0.394-2.523-1.988-2.115-3.623c0.388-1.56,1.986-2.52,3.55-2.128c1.626,0.405,2.589,2,2.2,3.563     C455.93,238.047,454.332,239.003,452.701,238.6L452.701,238.6z"/>
<path fill-rule="evenodd" clip-rule="evenodd" fill="none" stroke="#000000" stroke-width="0.504" stroke-miterlimit="2.4142" d="     M445.982,241.358c-1.561-0.388-2.522-1.983-2.119-3.62c0.396-1.563,1.989-2.519,3.551-2.131c1.631,0.409,2.592,2.001,2.203,3.565     C449.211,240.805,447.611,241.766,445.982,241.358L445.982,241.358z"/>
<path fill-rule="evenodd" clip-rule="evenodd" fill="none" stroke="#000000" stroke-width="0.504" stroke-miterlimit="2.4142" d="     M457.396,243.993c-1.561-0.388-2.524-1.985-2.12-3.62c0.395-1.563,1.988-2.519,3.552-2.132c1.63,0.408,2.591,2.002,2.2,3.566     C460.623,243.44,459.023,244.401,457.396,243.993L457.396,243.993z"/>
<path fill-rule="evenodd" clip-rule="evenodd" fill="none" stroke="#000000" stroke-width="0.504" stroke-miterlimit="2.4142" d="     M450.813,246.784c-1.563-0.391-2.523-1.987-2.117-3.619c0.393-1.563,1.985-2.521,3.549-2.132c1.629,0.406,2.59,1.999,2.201,3.565     C454.041,246.229,452.443,247.19,450.813,246.784L450.813,246.784z"/>
<path fill-rule="evenodd" clip-rule="evenodd" fill="none" stroke="#000000" stroke-width="0.504" stroke-miterlimit="2.4142" d="     M444.086,249.54c-1.561-0.389-2.52-1.984-2.111-3.62c0.395-1.559,1.988-2.519,3.549-2.128c1.628,0.404,2.589,2.003,2.201,3.564     C447.316,248.988,445.722,249.948,444.086,249.54L444.086,249.54z"/>
<path fill-rule="evenodd" clip-rule="evenodd" fill="none" stroke="#000000" stroke-width="0.504" stroke-miterlimit="2.4142" d="     M455.498,252.174c-1.559-0.389-2.52-1.986-2.109-3.621c0.392-1.558,1.988-2.518,3.549-2.127c1.626,0.403,2.588,2.002,2.198,3.564     C458.729,251.623,457.135,252.583,455.498,252.174L455.498,252.174z"/>
<path fill-rule="evenodd" clip-rule="evenodd" fill="none" stroke="#000000" stroke-width="0.504" stroke-miterlimit="2.4142" d="     M448.917,254.964c-1.562-0.386-2.521-1.984-2.11-3.616c0.391-1.56,1.986-2.521,3.551-2.131c1.625,0.408,2.588,2.006,2.195,3.565     C452.148,254.416,450.551,255.377,448.917,254.964L448.917,254.964z"/>
<path fill-rule="evenodd" clip-rule="evenodd" fill="none" stroke="#000000" stroke-width="0.504" stroke-miterlimit="2.4142" d="     M442.197,257.724c-1.563-0.391-2.524-1.988-2.112-3.618c0.391-1.563,1.985-2.525,3.548-2.131     c1.631,0.402,2.592,2.003,2.199,3.563C445.428,257.173,443.832,258.131,442.197,257.724L442.197,257.724z"/>
<path fill-rule="evenodd" clip-rule="evenodd" fill="none" stroke="#000000" stroke-width="0.504" stroke-miterlimit="2.4142" d="     M453.607,260.358c-1.563-0.391-2.521-1.988-2.111-3.618c0.393-1.563,1.986-2.524,3.55-2.131c1.63,0.402,2.589,2.003,2.198,3.563     C456.839,259.807,455.242,260.766,453.607,260.358L453.607,260.358z"/>
<path fill-rule="evenodd" clip-rule="evenodd" fill="none" stroke="#000000" stroke-width="0.504" stroke-miterlimit="2.4142" d="     M447.031,263.149c-1.566-0.387-2.523-1.985-2.114-3.616c0.388-1.563,1.985-2.521,3.548-2.131c1.631,0.403,2.588,2.004,2.2,3.562     C450.26,262.599,448.66,263.558,447.031,263.149L447.031,263.149z"/>
<path fill-rule="evenodd" clip-rule="evenodd" fill="none" stroke="#000000" stroke-width="0.504" stroke-miterlimit="2.4142" d="     M440.308,265.908c-1.562-0.392-2.521-1.987-2.112-3.616c0.395-1.565,1.988-2.524,3.551-2.132c1.629,0.403,2.59,2.004,2.199,3.562     C443.539,265.354,441.943,266.315,440.308,265.908L440.308,265.908z"/>
<path fill-rule="evenodd" clip-rule="evenodd" fill="none" stroke="#000000" stroke-width="0.504" stroke-miterlimit="2.4142" d="     M451.721,268.542c-1.563-0.394-2.521-1.988-2.113-3.618c0.393-1.564,1.988-2.523,3.551-2.132c1.629,0.404,2.59,2.004,2.199,3.563     C454.951,267.989,453.354,268.948,451.721,268.542L451.721,268.542z"/>
<path fill-rule="evenodd" clip-rule="evenodd" fill="none" stroke="#000000" stroke-width="0.504" stroke-miterlimit="2.4142" d="     M445.141,271.333c-1.563-0.388-2.519-1.987-2.113-3.617c0.391-1.564,1.986-2.522,3.548-2.132c1.632,0.406,2.59,2.006,2.198,3.562     C448.367,270.781,446.77,271.74,445.141,271.333L445.141,271.333z"/>
<path fill-rule="evenodd" clip-rule="evenodd" fill="none" stroke="#000000" stroke-width="0.504" stroke-miterlimit="2.4142" d="     M438.416,274.09c-1.564-0.39-2.52-1.985-2.109-3.619c0.387-1.563,1.984-2.521,3.545-2.129c1.631,0.402,2.59,2.004,2.201,3.563     C441.646,273.538,440.049,274.497,438.416,274.09L438.416,274.09z"/>
<path fill-rule="evenodd" clip-rule="evenodd" fill="none" stroke="#000000" stroke-width="0.504" stroke-miterlimit="2.4142" d="     M449.826,276.724c-1.563-0.391-2.517-1.985-2.107-3.619c0.387-1.563,1.984-2.521,3.545-2.129c1.632,0.401,2.59,2.003,2.201,3.563     C453.061,276.171,451.461,277.13,449.826,276.724L449.826,276.724z"/>
<path fill-rule="evenodd" clip-rule="evenodd" fill="none" stroke="#000000" stroke-width="0.504" stroke-miterlimit="2.4142" d="     M443.252,279.518c-1.563-0.39-2.52-1.986-2.113-3.62c0.393-1.56,1.99-2.521,3.545-2.132c1.638,0.408,2.597,2.006,2.205,3.565     C446.48,278.964,444.885,279.927,443.252,279.518L443.252,279.518z"/>
<path fill-rule="evenodd" clip-rule="evenodd" fill="none" stroke="#000000" stroke-width="0.504" stroke-miterlimit="2.4142" d="     M436.533,282.278c-1.563-0.395-2.523-1.987-2.117-3.619c0.395-1.563,1.988-2.52,3.555-2.131c1.625,0.402,2.593,2.004,2.199,3.563     C439.765,281.723,438.164,282.682,436.533,282.278L436.533,282.278z"/>
<path fill-rule="evenodd" clip-rule="evenodd" fill="none" stroke="#000000" stroke-width="0.504" stroke-miterlimit="2.4142" d="     M447.944,284.912c-1.562-0.394-2.522-1.986-2.116-3.619c0.395-1.562,1.988-2.519,3.555-2.132     c1.625,0.404,2.592,2.006,2.199,3.563C451.176,284.357,449.574,285.317,447.944,284.912L447.944,284.912z"/>
<path fill-rule="evenodd" clip-rule="evenodd" fill="none" stroke="#000000" stroke-width="0.504" stroke-miterlimit="2.4142" d="     M441.361,287.701c-1.564-0.39-2.52-1.985-2.111-3.618c0.391-1.563,1.982-2.52,3.549-2.13c1.629,0.404,2.591,2.004,2.199,3.563     C444.59,287.149,442.992,288.109,441.361,287.701L441.361,287.701z"/>
<path fill-rule="evenodd" clip-rule="evenodd" fill="none" stroke="#000000" stroke-width="0.504" stroke-miterlimit="2.4142" d="     M434.639,290.458c-1.563-0.387-2.521-1.985-2.111-3.617c0.391-1.559,1.984-2.519,3.551-2.129     c1.627,0.404,2.588,2.003,2.199,3.565C437.867,289.909,436.271,290.868,434.639,290.458L434.639,290.458z"/>
<path fill-rule="evenodd" clip-rule="evenodd" fill="none" stroke="#000000" stroke-width="0.504" stroke-miterlimit="2.4142" d="     M446.052,293.092c-1.563-0.388-2.521-1.984-2.111-3.617c0.39-1.561,1.984-2.518,3.548-2.13c1.629,0.405,2.591,2.003,2.2,3.565     C449.279,292.542,447.686,293.503,446.052,293.092L446.052,293.092z"/>
<path fill-rule="evenodd" clip-rule="evenodd" fill="none" stroke="#000000" stroke-width="0.504" stroke-miterlimit="2.4142" d="     M439.473,295.884c-1.564-0.387-2.521-1.986-2.113-3.617c0.391-1.563,1.986-2.521,3.549-2.13c1.629,0.405,2.594,2.001,2.199,3.562     C442.701,295.333,441.104,296.292,439.473,295.884L439.473,295.884z"/>
<path fill-rule="evenodd" clip-rule="evenodd" fill="none" stroke="#000000" stroke-width="0.504" stroke-miterlimit="2.4142" d="     M432.752,298.642c-1.564-0.389-2.52-1.984-2.113-3.617c0.389-1.563,1.984-2.519,3.547-2.13c1.631,0.404,2.59,2.001,2.201,3.563     C435.976,298.092,434.381,299.052,432.752,298.642L432.752,298.642z"/>
<path fill-rule="evenodd" clip-rule="evenodd" fill="none" stroke="#000000" stroke-width="0.504" stroke-miterlimit="2.4142" d="     M444.163,301.277c-1.562-0.389-2.522-1.986-2.112-3.619c0.389-1.561,1.985-2.52,3.551-2.129c1.627,0.404,2.589,2,2.202,3.564     C447.395,300.726,445.798,301.686,444.163,301.277L444.163,301.277z"/>
</g></switch>
</svg>