<?xml version="1.0" encoding="utf-8"?>
<!DOCTYPE svg PUBLIC "-//W3C//DTD SVG 1.1//EN" "http://www.w3.org/Graphics/SVG/1.1/DTD/svg11.dtd">
<svg version="1.1" id="Armor" xmlns="http://www.w3.org/2000/svg" xmlns:xlink="http://www.w3.org/1999/xlink" x="0px" y="0px"
	 width="612px" height="792px" viewBox="0 0 612 792" enable-background="new 0 0 612 792" xml:space="preserve">
<switch><g>
<path fill="none" stroke="#000000" stroke-width="0.504" stroke-miterlimit="2.4142" d="M446.04,93.42      c-1.321,0-2.417-1.098-2.417-2.415c0-1.317,1.096-2.414,2.417-2.414c1.316,0,2.412,1.097,2.412,2.414      C448.452,92.322,447.356,93.42,446.04,93.42L446.04,93.42z"/>
<path fill="none" stroke="#000000" stroke-width="0.504" stroke-miterlimit="2.4142" d="M457.09,93.42      c-1.321,0-2.417-1.098-2.417-2.415c0-1.317,1.096-2.414,2.417-2.414c1.316,0,2.412,1.097,2.412,2.414      C459.502,92.322,458.406,93.42,457.09,93.42L457.09,93.42z"/>
<path fill="none" stroke="#000000" stroke-width="0.504" stroke-miterlimit="2.4142" d="M468.137,93.42      c-1.316,0-2.414-1.098-2.414-2.415c0-1.317,1.098-2.414,2.414-2.414s2.415,1.097,2.415,2.414      C470.552,92.322,469.453,93.42,468.137,93.42L468.137,93.42z"/>
<path fill="none" stroke="#000000" stroke-width="0.504" stroke-miterlimit="2.4142" d="M451.564,99.625      c-1.32,0-2.416-1.098-2.416-2.415s1.096-2.414,2.416-2.414c1.315,0,2.411,1.097,2.411,2.414S452.881,99.625,451.564,99.625      L451.564,99.625z"/>
<path fill="none" stroke="#000000" stroke-width="0.504" stroke-miterlimit="2.4142" d="M462.615,99.625      c-1.322,0-2.418-1.098-2.418-2.415s1.096-2.414,2.418-2.414c1.315,0,2.412,1.097,2.412,2.414S463.932,99.625,462.615,99.625      L462.615,99.625z"/>
<path fill="none" stroke="#000000" stroke-width="0.504" stroke-miterlimit="2.4142" d="M446.04,105.828      c-1.321,0-2.417-1.098-2.417-2.415s1.096-2.414,2.417-2.414c1.316,0,2.412,1.097,2.412,2.414S447.356,105.828,446.04,105.828      L446.04,105.828z"/>
<path fill="none" stroke="#000000" stroke-width="0.504" stroke-miterlimit="2.4142" d="M457.09,105.828      c-1.321,0-2.417-1.098-2.417-2.415s1.096-2.414,2.417-2.414c1.316,0,2.412,1.097,2.412,2.414S458.406,105.828,457.09,105.828      L457.09,105.828z"/>
<path fill="none" stroke="#000000" stroke-width="0.504" stroke-miterlimit="2.4142" d="M468.137,105.828      c-1.316,0-2.414-1.098-2.414-2.415s1.098-2.414,2.414-2.414s2.415,1.097,2.415,2.414S469.453,105.828,468.137,105.828      L468.137,105.828z"/>
<path fill="none" stroke="#000000" stroke-width="0.504" stroke-miterlimit="2.4142" d="M451.564,112.032      c-1.32,0-2.416-1.098-2.416-2.415c0-1.317,1.096-2.414,2.416-2.414c1.315,0,2.411,1.097,2.411,2.414      C453.976,110.934,452.881,112.032,451.564,112.032L451.564,112.032z"/>
<path fill="none" stroke="#000000" stroke-width="0.504" stroke-miterlimit="2.4142" d="M462.615,112.032      c-1.322,0-2.418-1.098-2.418-2.415c0-1.317,1.096-2.414,2.418-2.414c1.315,0,2.412,1.097,2.412,2.414      C465.027,110.934,463.932,112.032,462.615,112.032L462.615,112.032z"/>
<path fill="none" stroke="#000000" stroke-width="0.504" stroke-miterlimit="2.4142" d="M446.04,118.236      c-1.321,0-2.417-1.098-2.417-2.415c0-1.317,1.096-2.414,2.417-2.414c1.316,0,2.412,1.097,2.412,2.414      C448.452,117.138,447.356,118.236,446.04,118.236L446.04,118.236z"/>
<path fill="none" stroke="#000000" stroke-width="0.504" stroke-miterlimit="2.4142" d="M457.09,118.236      c-1.321,0-2.417-1.098-2.417-2.415c0-1.317,1.096-2.414,2.417-2.414c1.316,0,2.412,1.097,2.412,2.414      C459.502,117.138,458.406,118.236,457.09,118.236L457.09,118.236z"/>
<path fill="none" stroke="#000000" stroke-width="0.504" stroke-miterlimit="2.4142" d="M468.137,118.236      c-1.316,0-2.414-1.098-2.414-2.415c0-1.317,1.098-2.414,2.414-2.414s2.415,1.097,2.415,2.414      C470.552,117.138,469.453,118.236,468.137,118.236L468.137,118.236z"/>
<path fill="none" stroke="#000000" stroke-width="0.504" stroke-miterlimit="2.4142" d="M451.564,124.44      c-1.32,0-2.416-1.098-2.416-2.415s1.096-2.414,2.416-2.414c1.315,0,2.411,1.097,2.411,2.414S452.881,124.44,451.564,124.44      L451.564,124.44z"/>
<path fill="none" stroke="#000000" stroke-width="0.504" stroke-miterlimit="2.4142" d="M462.615,124.44      c-1.322,0-2.418-1.098-2.418-2.415s1.096-2.414,2.418-2.414c1.315,0,2.412,1.097,2.412,2.414S463.932,124.44,462.615,124.44      L462.615,124.44z"/>
<path fill="none" stroke="#000000" stroke-width="0.504" stroke-miterlimit="2.4142" d="M464.771,131.914     c1.32,0,2.416-1.098,2.416-2.415s-1.096-2.414-2.416-2.414c-1.316,0-2.412,1.097-2.412,2.414S463.455,131.914,464.771,131.914     L464.771,131.914z"/>
<path fill="none" stroke="#000000" stroke-width="0.504" stroke-miterlimit="2.4142" d="M465.967,139.387     c1.321,0,2.417-1.098,2.417-2.415s-1.096-2.414-2.417-2.414c-1.315,0-2.412,1.097-2.412,2.414S464.65,139.387,465.967,139.387     L465.967,139.387z"/>
<path fill="none" stroke="#000000" stroke-width="0.504" stroke-miterlimit="2.4142" d="M467.162,142.031     c1.32,0,2.416,1.098,2.416,2.415c0,1.317-1.096,2.415-2.416,2.415c-1.316,0-2.412-1.097-2.412-2.415     C464.75,143.128,465.846,142.031,467.162,142.031L467.162,142.031z"/>
<path fill="none" stroke="#000000" stroke-width="0.504" stroke-miterlimit="2.4142" d="M468.357,154.37     c-1.316,0-2.413-1.097-2.413-2.488c0-1.317,1.097-2.414,2.413-2.414c1.315,0,2.416,1.097,2.416,2.414     C470.773,153.273,469.674,154.37,468.357,154.37L468.357,154.37z"/>
<path fill="none" stroke="#000000" stroke-width="0.504" stroke-miterlimit="2.4142" d="M469.553,161.843     c-1.315,0-2.413-1.097-2.413-2.488c0-1.317,1.098-2.414,2.413-2.414c1.316,0,2.416,1.097,2.416,2.414     C471.969,160.746,470.869,161.843,469.553,161.843L469.553,161.843z"/>
<path fill="none" stroke="#000000" stroke-width="0.504" stroke-miterlimit="2.4142" d="M455.957,169.794      c-1.316,0-2.413-1.097-2.413-2.488c0-1.317,1.097-2.414,2.413-2.414s2.416,1.097,2.416,2.414      C458.373,168.697,457.273,169.794,455.957,169.794L455.957,169.794z"/>
<path fill="none" stroke="#000000" stroke-width="0.504" stroke-miterlimit="2.4142" d="M469.553,169.794      c-1.315,0-2.413-1.097-2.413-2.488c0-1.317,1.098-2.414,2.413-2.414c1.316,0,2.416,1.097,2.416,2.414      C471.969,168.698,470.869,169.794,469.553,169.794L469.553,169.794z"/>
</g></switch>
</svg>