<?xml version="1.0" encoding="utf-8"?>
<!DOCTYPE svg PUBLIC "-//W3C//DTD SVG 1.1//EN" "http://www.w3.org/Graphics/SVG/1.1/DTD/svg11.dtd">
<svg version="1.1" id="Armor" xmlns="http://www.w3.org/2000/svg" xmlns:xlink="http://www.w3.org/1999/xlink" x="0px" y="0px"
	 width="612px" height="792px" viewBox="0 0 612 792" enable-background="new 0 0 612 792" xml:space="preserve">
<switch><g>
<path fill-rule="evenodd" clip-rule="evenodd" fill="none" stroke="#000000" stroke-width="0.504" stroke-miterlimit="2.4142" d="     M520.191,189.833c1.563-0.389,2.517-1.984,2.107-3.617c-0.388-1.567-1.982-2.523-3.548-2.132     c-1.629,0.407-2.585,2.004-2.197,3.565C516.961,189.28,518.553,190.242,520.191,189.833L520.191,189.833z"/>
<path fill-rule="evenodd" clip-rule="evenodd" fill="none" stroke="#000000" stroke-width="0.504" stroke-miterlimit="2.4142" d="     M530.084,206.661c1.563-0.389,2.525-1.983,2.115-3.616c-0.389-1.566-1.987-2.521-3.555-2.132     c-1.628,0.404-2.592,2.005-2.197,3.563C526.85,206.106,528.449,207.068,530.084,206.661L530.084,206.661z"/>
<path fill-rule="evenodd" clip-rule="evenodd" fill="none" stroke="#000000" stroke-width="0.504" stroke-miterlimit="2.4142" d="     M518.67,209.294c1.564-0.388,2.523-1.985,2.115-3.616c-0.389-1.563-1.985-2.521-3.548-2.131c-1.63,0.402-2.591,2.002-2.202,3.563     C515.436,208.743,517.037,209.704,518.67,209.294L518.67,209.294z"/>
<path fill-rule="evenodd" clip-rule="evenodd" fill="none" stroke="#000000" stroke-width="0.504" stroke-miterlimit="2.4142" d="     M528.57,226.122c1.557-0.393,2.512-1.986,2.111-3.617c-0.395-1.563-1.993-2.524-3.547-2.131     c-1.639,0.402-2.596,2.005-2.203,3.561C525.34,225.571,526.934,226.53,528.57,226.122L528.57,226.122z"/>
<path fill-rule="evenodd" clip-rule="evenodd" fill="none" stroke="#000000" stroke-width="0.504" stroke-miterlimit="2.4142" d="     M538.463,242.95c1.563-0.387,2.518-1.984,2.117-3.621c-0.398-1.557-1.993-2.516-3.557-2.125     c-1.631,0.407-2.596,2.002-2.201,3.564C535.232,242.399,536.832,243.36,538.463,242.95L538.463,242.95z"/>
<path fill-rule="evenodd" clip-rule="evenodd" fill="none" stroke="#000000" stroke-width="0.504" stroke-miterlimit="2.4142" d="     M527.05,245.585c1.563-0.389,2.522-1.986,2.114-3.617c-0.389-1.559-1.99-2.521-3.553-2.131c-1.629,0.407-2.593,2.005-2.195,3.565     C523.818,245.034,525.416,245.995,527.05,245.585L527.05,245.585z"/>
<path fill-rule="evenodd" clip-rule="evenodd" fill="none" stroke="#000000" stroke-width="0.504" stroke-miterlimit="2.4142" d="     M536.945,262.413c1.561-0.389,2.524-1.983,2.107-3.618c-0.383-1.563-1.975-2.521-3.544-2.13     c-1.628,0.403-2.591,2.003-2.204,3.562C533.719,261.859,535.318,262.821,536.945,262.413L536.945,262.413z"/>
<path fill-rule="evenodd" clip-rule="evenodd" fill="none" stroke="#000000" stroke-width="0.504" stroke-miterlimit="2.4142" d="     M546.844,279.241c1.563-0.385,2.52-1.986,2.113-3.622c-0.395-1.555-1.988-2.511-3.557-2.126c-1.621,0.405-2.59,2-2.191,3.564     C543.613,278.693,545.211,279.651,546.844,279.241L546.844,279.241z"/>
<path fill-rule="evenodd" clip-rule="evenodd" fill="none" stroke="#000000" stroke-width="0.504" stroke-miterlimit="2.4142" d="     M535.426,281.876c1.568-0.385,2.525-1.984,2.117-3.619c-0.393-1.561-1.99-2.516-3.551-2.131     c-1.627,0.411-2.592,2.002-2.201,3.566C532.201,281.324,533.798,282.288,535.426,281.876L535.426,281.876z"/>
<path fill-rule="evenodd" clip-rule="evenodd" fill="none" stroke="#000000" stroke-width="0.504" stroke-miterlimit="2.4142" d="     M545.324,298.703c1.561-0.389,2.523-1.983,2.107-3.618c-0.383-1.563-1.975-2.521-3.545-2.13     c-1.627,0.403-2.592,2.003-2.204,3.562C542.096,298.149,543.695,299.111,545.324,298.703L545.324,298.703z"/>
</g></switch>
</svg>