<?xml version="1.0" encoding="utf-8"?>
<!DOCTYPE svg PUBLIC "-//W3C//DTD SVG 1.1//EN" "http://www.w3.org/Graphics/SVG/1.1/DTD/svg11.dtd">
<svg version="1.1" id="Armor" xmlns="http://www.w3.org/2000/svg" xmlns:xlink="http://www.w3.org/1999/xlink" x="0px" y="0px"
	 width="612px" height="792px" viewBox="0 0 612 792" enable-background="new 0 0 612 792" xml:space="preserve">
<switch><g>
<path fill="none" stroke="#000000" stroke-width="0.504" stroke-miterlimit="2.4142" d="M451.564,91.841      c-1.32,0-2.416-1.098-2.416-2.415c0-1.317,1.096-2.414,2.416-2.414c1.315,0,2.411,1.097,2.411,2.414      C453.976,90.743,452.881,91.841,451.564,91.841L451.564,91.841z"/>
<path fill="none" stroke="#000000" stroke-width="0.504" stroke-miterlimit="2.4142" d="M462.615,91.841      c-1.322,0-2.418-1.098-2.418-2.415c0-1.317,1.096-2.414,2.418-2.414c1.315,0,2.412,1.097,2.412,2.414      C465.027,90.743,463.932,91.841,462.615,91.841L462.615,91.841z"/>
<path fill="none" stroke="#000000" stroke-width="0.504" stroke-miterlimit="2.4142" d="M446.04,95.916      c-1.321,0-2.417-1.098-2.417-2.415s1.096-2.414,2.417-2.414c1.316,0,2.412,1.097,2.412,2.414S447.356,95.916,446.04,95.916      L446.04,95.916z"/>
<path fill="none" stroke="#000000" stroke-width="0.504" stroke-miterlimit="2.4142" d="M457.09,95.916      c-1.321,0-2.417-1.098-2.417-2.415s1.096-2.414,2.417-2.414c1.316,0,2.412,1.097,2.412,2.414S458.406,95.916,457.09,95.916      L457.09,95.916z"/>
<path fill="none" stroke="#000000" stroke-width="0.504" stroke-miterlimit="2.4142" d="M468.137,95.916      c-1.316,0-2.414-1.098-2.414-2.415s1.098-2.414,2.414-2.414s2.415,1.097,2.415,2.414S469.453,95.916,468.137,95.916      L468.137,95.916z"/>
<path fill="none" stroke="#000000" stroke-width="0.504" stroke-miterlimit="2.4142" d="M451.564,99.991      c-1.32,0-2.416-1.098-2.416-2.415c0-1.317,1.096-2.414,2.416-2.414c1.315,0,2.411,1.097,2.411,2.414      C453.976,98.893,452.881,99.991,451.564,99.991L451.564,99.991z"/>
<path fill="none" stroke="#000000" stroke-width="0.504" stroke-miterlimit="2.4142" d="M462.615,99.991      c-1.322,0-2.418-1.098-2.418-2.415c0-1.317,1.096-2.414,2.418-2.414c1.315,0,2.412,1.097,2.412,2.414      C465.027,98.893,463.932,99.991,462.615,99.991L462.615,99.991z"/>
<path fill="none" stroke="#000000" stroke-width="0.504" stroke-miterlimit="2.4142" d="M446.04,104.066      c-1.321,0-2.417-1.098-2.417-2.415s1.096-2.414,2.417-2.414c1.316,0,2.412,1.097,2.412,2.414S447.356,104.066,446.04,104.066      L446.04,104.066z"/>
<path fill="none" stroke="#000000" stroke-width="0.504" stroke-miterlimit="2.4142" d="M457.09,104.066      c-1.321,0-2.417-1.098-2.417-2.415s1.096-2.414,2.417-2.414c1.316,0,2.412,1.097,2.412,2.414S458.406,104.066,457.09,104.066      L457.09,104.066z"/>
<path fill="none" stroke="#000000" stroke-width="0.504" stroke-miterlimit="2.4142" d="M468.137,104.066      c-1.316,0-2.414-1.098-2.414-2.415s1.098-2.414,2.414-2.414s2.415,1.097,2.415,2.414S469.453,104.066,468.137,104.066      L468.137,104.066z"/>
<path fill="none" stroke="#000000" stroke-width="0.504" stroke-miterlimit="2.4142" d="M451.564,108.141      c-1.32,0-2.416-1.098-2.416-2.415s1.096-2.414,2.416-2.414c1.315,0,2.411,1.097,2.411,2.414S452.881,108.141,451.564,108.141      L451.564,108.141z"/>
<path fill="none" stroke="#000000" stroke-width="0.504" stroke-miterlimit="2.4142" d="M462.615,108.141      c-1.322,0-2.418-1.098-2.418-2.415s1.096-2.414,2.418-2.414c1.315,0,2.412,1.097,2.412,2.414S463.932,108.141,462.615,108.141      L462.615,108.141z"/>
<path fill="none" stroke="#000000" stroke-width="0.504" stroke-miterlimit="2.4142" d="M446.04,112.215      c-1.321,0-2.417-1.098-2.417-2.415c0-1.317,1.096-2.414,2.417-2.414c1.316,0,2.412,1.097,2.412,2.414      C448.452,111.117,447.356,112.215,446.04,112.215L446.04,112.215z"/>
<path fill="none" stroke="#000000" stroke-width="0.504" stroke-miterlimit="2.4142" d="M457.09,112.215      c-1.321,0-2.417-1.098-2.417-2.415c0-1.317,1.096-2.414,2.417-2.414c1.316,0,2.412,1.097,2.412,2.414      C459.502,111.117,458.406,112.215,457.09,112.215L457.09,112.215z"/>
<path fill="none" stroke="#000000" stroke-width="0.504" stroke-miterlimit="2.4142" d="M468.137,112.215      c-1.316,0-2.414-1.098-2.414-2.415c0-1.317,1.098-2.414,2.414-2.414s2.415,1.097,2.415,2.414      C470.552,111.117,469.453,112.215,468.137,112.215L468.137,112.215z"/>
<path fill="none" stroke="#000000" stroke-width="0.504" stroke-miterlimit="2.4142" d="M451.564,116.29      c-1.32,0-2.416-1.098-2.416-2.415s1.096-2.414,2.416-2.414c1.315,0,2.411,1.097,2.411,2.414S452.881,116.29,451.564,116.29      L451.564,116.29z"/>
<path fill="none" stroke="#000000" stroke-width="0.504" stroke-miterlimit="2.4142" d="M462.615,116.29      c-1.322,0-2.418-1.098-2.418-2.415s1.096-2.414,2.418-2.414c1.315,0,2.412,1.097,2.412,2.414S463.932,116.29,462.615,116.29      L462.615,116.29z"/>
<path fill="none" stroke="#000000" stroke-width="0.504" stroke-miterlimit="2.4142" d="M446.04,120.365      c-1.321,0-2.417-1.098-2.417-2.415c0-1.317,1.096-2.414,2.417-2.414c1.316,0,2.412,1.097,2.412,2.414      C448.452,119.267,447.356,120.365,446.04,120.365L446.04,120.365z"/>
<path fill="none" stroke="#000000" stroke-width="0.504" stroke-miterlimit="2.4142" d="M457.09,120.365      c-1.321,0-2.417-1.098-2.417-2.415c0-1.317,1.096-2.414,2.417-2.414c1.316,0,2.412,1.097,2.412,2.414      C459.502,119.267,458.406,120.365,457.09,120.365L457.09,120.365z"/>
<path fill="none" stroke="#000000" stroke-width="0.504" stroke-miterlimit="2.4142" d="M468.137,120.365      c-1.316,0-2.414-1.098-2.414-2.415c0-1.317,1.098-2.414,2.414-2.414s2.415,1.097,2.415,2.414      C470.552,119.267,469.453,120.365,468.137,120.365L468.137,120.365z"/>
<path fill="none" stroke="#000000" stroke-width="0.504" stroke-miterlimit="2.4142" d="M451.564,124.44      c-1.32,0-2.416-1.098-2.416-2.415s1.096-2.414,2.416-2.414c1.315,0,2.411,1.097,2.411,2.414S452.881,124.44,451.564,124.44      L451.564,124.44z"/>
<path fill="none" stroke="#000000" stroke-width="0.504" stroke-miterlimit="2.4142" d="M462.615,124.44      c-1.322,0-2.418-1.098-2.418-2.415s1.096-2.414,2.418-2.414c1.315,0,2.412,1.097,2.412,2.414S463.932,124.44,462.615,124.44      L462.615,124.44z"/>
<path fill="none" stroke="#000000" stroke-width="0.504" stroke-miterlimit="2.4142" d="M462.61,131.319     c1.32,0,2.417-1.098,2.417-2.415c0-1.317-1.097-2.414-2.417-2.414c-1.316,0-2.412,1.097-2.412,2.414     C460.198,130.221,461.294,131.319,462.61,131.319L462.61,131.319z"/>
<path fill="none" stroke="#000000" stroke-width="0.504" stroke-miterlimit="2.4142" d="M463.999,138.198     c1.321,0,2.417-1.098,2.417-2.415c0-1.317-1.096-2.414-2.417-2.414c-1.316,0-2.412,1.097-2.412,2.414     C461.587,137.1,462.683,138.198,463.999,138.198L463.999,138.198z"/>
<path fill="none" stroke="#000000" stroke-width="0.504" stroke-miterlimit="2.4142" d="M465.392,140.248     c-1.319,0-2.416,1.098-2.416,2.415s1.097,2.415,2.416,2.415c1.316,0,2.412-1.097,2.412-2.415     C467.804,141.345,466.708,140.248,465.392,140.248L465.392,140.248z"/>
<path fill="none" stroke="#000000" stroke-width="0.504" stroke-miterlimit="2.4142" d="M466.779,147.126     c-1.32,0-2.416,1.098-2.416,2.415s1.096,2.415,2.416,2.415c1.315,0,2.412-1.097,2.412-2.415     C469.191,148.224,468.096,147.126,466.779,147.126L466.779,147.126z"/>
<path fill="none" stroke="#000000" stroke-width="0.504" stroke-miterlimit="2.4142" d="M469.553,158.871     c-1.315,0-2.413-1.097-2.413-2.488c0-1.317,1.098-2.414,2.413-2.414c1.316,0,2.416,1.097,2.416,2.414     C471.969,157.774,470.869,158.871,469.553,158.871L469.553,158.871z"/>
<path fill="none" stroke="#000000" stroke-width="0.504" stroke-miterlimit="2.4142" d="M456.797,160.848      c-1.315,0-2.413,1.097-2.413,2.488c0,1.317,1.098,2.414,2.413,2.414c1.316,0,2.416-1.097,2.416-2.414      C459.213,161.945,458.113,160.848,456.797,160.848L456.797,160.848z"/>
<path fill="none" stroke="#000000" stroke-width="0.504" stroke-miterlimit="2.4142" d="M465.301,160.848      c-1.315,0-2.413,1.097-2.413,2.488c0,1.317,1.098,2.414,2.413,2.414c1.316,0,2.416-1.097,2.416-2.414      C467.717,161.944,466.617,160.848,465.301,160.848L465.301,160.848z"/>
<path fill="none" stroke="#000000" stroke-width="0.504" stroke-miterlimit="2.4142" d="M452.545,167.727      c-1.316,0-2.413,1.097-2.413,2.488c0,1.317,1.097,2.414,2.413,2.414s2.416-1.097,2.416-2.414      C454.961,168.824,453.861,167.727,452.545,167.727L452.545,167.727z"/>
<path fill="none" stroke="#000000" stroke-width="0.504" stroke-miterlimit="2.4142" d="M461.049,167.727      c-1.315,0-2.413,1.097-2.413,2.488c0,1.317,1.098,2.414,2.413,2.414c1.316,0,2.416-1.097,2.416-2.414      C463.465,168.824,462.365,167.727,461.049,167.727L461.049,167.727z"/>
<path fill="none" stroke="#000000" stroke-width="0.504" stroke-miterlimit="2.4142" d="M469.553,167.727      c-1.315,0-2.413,1.097-2.413,2.488c0,1.317,1.098,2.414,2.413,2.414c1.316,0,2.416-1.097,2.416-2.414      C471.969,168.823,470.869,167.727,469.553,167.727L469.553,167.727z"/>
</g></switch>
</svg>