<?xml version="1.0" encoding="utf-8"?>
<!DOCTYPE svg PUBLIC "-//W3C//DTD SVG 1.1//EN" "http://www.w3.org/Graphics/SVG/1.1/DTD/svg11.dtd">
<svg version="1.1" id="Armor" xmlns="http://www.w3.org/2000/svg" xmlns:xlink="http://www.w3.org/1999/xlink" x="0px" y="0px"
	 width="612px" height="792px" viewBox="0 0 612 792" enable-background="new 0 0 612 792" xml:space="preserve">
<switch><g>
<path fill="none" stroke="#000000" stroke-width="0.504" stroke-miterlimit="2.4142" d="M425.872,80.935     c-1.662-0.144-2.929-1.652-2.782-3.312c0.147-1.731,1.652-2.925,3.312-2.779c1.73,0.15,3.003,1.587,2.85,3.319     C429.104,79.823,427.601,81.086,425.872,80.935L425.872,80.935z"/>
<path fill="none" stroke="#000000" stroke-width="0.504" stroke-miterlimit="2.4142" d="M419.744,85.907     c-1.66-0.146-2.928-1.651-2.779-3.313c0.149-1.729,1.647-2.924,3.313-2.779c1.728,0.151,3.001,1.589,2.85,3.319     C422.982,84.795,421.471,86.059,419.744,85.907L419.744,85.907z"/>
<path fill="none" stroke="#000000" stroke-width="0.504" stroke-miterlimit="2.4142" d="M431.039,86.896     c-1.662-0.146-2.928-1.652-2.78-3.312c0.149-1.729,1.648-2.925,3.313-2.78c1.728,0.151,2.999,1.59,2.849,3.321     C434.273,85.785,432.768,87.047,431.039,86.896L431.039,86.896z"/>
<path fill="none" stroke="#000000" stroke-width="0.504" stroke-miterlimit="2.4142" d="M424.916,91.866     c-1.664-0.144-2.929-1.651-2.783-3.311c0.148-1.732,1.652-2.925,3.312-2.779c1.731,0.15,3.002,1.586,2.852,3.319     C428.148,90.756,426.645,92.019,424.916,91.866L424.916,91.866z"/>
<path fill="none" stroke="#000000" stroke-width="0.504" stroke-miterlimit="2.4142" d="M418.79,96.838     c-1.663-0.143-2.93-1.651-2.783-3.311c0.149-1.73,1.653-2.926,3.313-2.779c1.731,0.15,3.004,1.587,2.852,3.318     C422.024,95.727,420.518,96.99,418.79,96.838L418.79,96.838z"/>
<path fill="none" stroke="#000000" stroke-width="0.504" stroke-miterlimit="2.4142" d="M430.087,97.826     c-1.664-0.144-2.931-1.651-2.785-3.311c0.148-1.732,1.655-2.925,3.315-2.779c1.73,0.149,2.999,1.587,2.848,3.319     C433.319,96.716,431.814,97.978,430.087,97.826L430.087,97.826z"/>
<path fill="none" stroke="#000000" stroke-width="0.504" stroke-miterlimit="2.4142" d="M423.957,102.8     c-1.664-0.146-2.924-1.652-2.78-3.313c0.151-1.73,1.651-2.925,3.313-2.781c1.729,0.152,2.998,1.59,2.848,3.32     C427.195,101.686,425.685,102.951,423.957,102.8L423.957,102.8z"/>
<path fill="none" stroke="#000000" stroke-width="0.504" stroke-miterlimit="2.4142" d="M417.83,107.772     c-1.662-0.145-2.922-1.652-2.779-3.313c0.152-1.73,1.651-2.925,3.314-2.781c1.727,0.151,3,1.59,2.85,3.32     C421.072,106.658,419.561,107.925,417.83,107.772L417.83,107.772z"/>
<path fill="none" stroke="#000000" stroke-width="0.504" stroke-miterlimit="2.4142" d="M429.126,108.759     c-1.661-0.145-2.927-1.65-2.78-3.312c0.152-1.73,1.652-2.924,3.314-2.78c1.729,0.151,3,1.588,2.848,3.32     C432.364,107.646,430.855,108.912,429.126,108.759L429.126,108.759z"/>
<path fill="none" stroke="#000000" stroke-width="0.504" stroke-miterlimit="2.4142" d="M422.998,113.73     c-1.661-0.145-2.921-1.651-2.776-3.312c0.151-1.73,1.651-2.925,3.314-2.78c1.729,0.152,2.996,1.589,2.845,3.32     C426.233,112.617,424.73,113.883,422.998,113.73L422.998,113.73z"/>
<path fill="none" stroke="#000000" stroke-width="0.504" stroke-miterlimit="2.4142" d="M416.873,118.701     c-1.66-0.145-2.922-1.651-2.778-3.312c0.152-1.73,1.652-2.925,3.313-2.779c1.729,0.152,3.001,1.588,2.849,3.319     C420.109,117.59,418.605,118.854,416.873,118.701L416.873,118.701z"/>
<path fill="none" stroke="#000000" stroke-width="0.504" stroke-miterlimit="2.4142" d="M428.17,119.69     c-1.66-0.145-2.924-1.652-2.781-3.311c0.151-1.73,1.654-2.926,3.319-2.78c1.728,0.152,2.996,1.588,2.842,3.32     C431.404,118.58,429.901,119.843,428.17,119.69L428.17,119.69z"/>
<path fill="none" stroke="#000000" stroke-width="0.504" stroke-miterlimit="2.4142" d="M422.043,124.663     c-1.658-0.146-2.924-1.652-2.779-3.313c0.152-1.731,1.65-2.926,3.313-2.781c1.729,0.151,3,1.59,2.848,3.32     C425.281,123.55,423.771,124.814,422.043,124.663L422.043,124.663z"/>
<path fill="none" stroke="#000000" stroke-width="0.504" stroke-miterlimit="2.4142" d="M415.919,129.634     c-1.659-0.145-2.927-1.651-2.78-3.313c0.152-1.731,1.649-2.926,3.313-2.78c1.729,0.151,3.003,1.588,2.85,3.319     C419.156,128.521,417.646,129.786,415.919,129.634L415.919,129.634z"/>
<path fill="none" stroke="#000000" stroke-width="0.504" stroke-miterlimit="2.4142" d="M427.214,130.623     c-1.659-0.146-2.928-1.651-2.783-3.314c0.153-1.73,1.653-2.925,3.314-2.779c1.729,0.152,3.001,1.589,2.85,3.319     C430.451,129.51,428.943,130.774,427.214,130.623L427.214,130.623z"/>
<path fill="none" stroke="#000000" stroke-width="0.504" stroke-miterlimit="2.4142" d="M421.09,135.595     c-1.666-0.146-2.928-1.652-2.781-3.312c0.15-1.733,1.65-2.927,3.315-2.782c1.726,0.151,2.995,1.588,2.844,3.322     C424.324,134.481,422.818,135.746,421.09,135.595L421.09,135.595z"/>
<path fill="none" stroke="#000000" stroke-width="0.504" stroke-miterlimit="2.4142" d="M414.961,140.567     c-1.662-0.146-2.924-1.651-2.777-3.312c0.148-1.733,1.65-2.927,3.313-2.782c1.727,0.152,2.998,1.588,2.848,3.322     C418.201,139.455,416.691,140.72,414.961,140.567L414.961,140.567z"/>
<path fill="none" stroke="#000000" stroke-width="0.504" stroke-miterlimit="2.4142" d="M426.256,141.554     c-1.66-0.145-2.926-1.649-2.78-3.31c0.151-1.732,1.653-2.926,3.317-2.782c1.725,0.151,2.996,1.588,2.843,3.323     C429.492,140.443,427.986,141.706,426.256,141.554L426.256,141.554z"/>
<path fill="none" stroke="#000000" stroke-width="0.504" stroke-miterlimit="2.4142" d="M420.132,146.525     c-1.663-0.145-2.926-1.65-2.779-3.311c0.151-1.731,1.649-2.926,3.313-2.781c1.728,0.152,2.999,1.59,2.845,3.321     C423.367,145.413,421.86,146.677,420.132,146.525L420.132,146.525z"/>
<path fill="none" stroke="#000000" stroke-width="0.504" stroke-miterlimit="2.4142" d="M414.007,151.499     c-1.664-0.145-2.927-1.652-2.781-3.313c0.152-1.731,1.65-2.925,3.313-2.781c1.729,0.151,3.001,1.589,2.848,3.323     C417.242,150.385,415.734,151.649,414.007,151.499L414.007,151.499z"/>
<path fill="none" stroke="#000000" stroke-width="0.504" stroke-miterlimit="2.4142" d="M425.303,152.485     c-1.662-0.145-2.928-1.65-2.784-3.311c0.154-1.731,1.654-2.926,3.316-2.781c1.73,0.151,3.001,1.588,2.845,3.32     C428.539,151.373,427.031,152.637,425.303,152.485L425.303,152.485z"/>
<path fill="none" stroke="#000000" stroke-width="0.504" stroke-miterlimit="2.4142" d="M419.176,157.457     c-1.662-0.144-2.925-1.651-2.781-3.311c0.154-1.732,1.652-2.926,3.314-2.781c1.727,0.152,2.998,1.588,2.844,3.32     C422.412,156.344,420.904,157.608,419.176,157.457L419.176,157.457z"/>
<path fill="none" stroke="#000000" stroke-width="0.504" stroke-miterlimit="2.4142" d="M413.048,162.428     c-1.66-0.144-2.922-1.651-2.776-3.311c0.149-1.731,1.65-2.924,3.312-2.779c1.727,0.15,3.001,1.587,2.848,3.32     C416.289,161.316,414.78,162.58,413.048,162.428L413.048,162.428z"/>
<path fill="none" stroke="#000000" stroke-width="0.504" stroke-miterlimit="2.4142" d="M424.343,163.416     c-1.66-0.142-2.924-1.651-2.777-3.311c0.147-1.732,1.651-2.925,3.313-2.779c1.729,0.15,2.999,1.588,2.848,3.319     C427.582,162.304,426.075,163.568,424.343,163.416L424.343,163.416z"/>
<path fill="none" stroke="#000000" stroke-width="0.504" stroke-miterlimit="2.4142" d="M418.219,168.389     c-1.662-0.145-2.924-1.651-2.779-3.311c0.151-1.732,1.651-2.925,3.313-2.78c1.728,0.151,2.997,1.588,2.845,3.32     C421.457,167.276,419.949,168.54,418.219,168.389L418.219,168.389z"/>
<path fill="none" stroke="#000000" stroke-width="0.504" stroke-miterlimit="2.4142" d="M412.092,173.36     c-1.66-0.144-2.922-1.652-2.776-3.312c0.149-1.731,1.65-2.924,3.313-2.779c1.728,0.15,3,1.587,2.847,3.32     C415.333,172.248,413.824,173.513,412.092,173.36L412.092,173.36z"/>
<path fill="none" stroke="#000000" stroke-width="0.504" stroke-miterlimit="2.4142" d="M423.387,174.348     c-1.66-0.142-2.924-1.651-2.778-3.311c0.147-1.732,1.652-2.925,3.313-2.779c1.729,0.15,2.998,1.588,2.846,3.319     C426.626,173.235,425.119,174.501,423.387,174.348L423.387,174.348z"/>
</g></switch>
</svg>