<?xml version="1.0" encoding="utf-8"?>
<!DOCTYPE svg PUBLIC "-//W3C//DTD SVG 1.1//EN" "http://www.w3.org/Graphics/SVG/1.1/DTD/svg11.dtd">
<svg version="1.1" id="Armor" xmlns="http://www.w3.org/2000/svg" xmlns:xlink="http://www.w3.org/1999/xlink" x="0px" y="0px"
	 width="612px" height="792px" viewBox="0 0 612 792" enable-background="new 0 0 612 792" xml:space="preserve">
<switch><g>
<path fill-rule="evenodd" clip-rule="evenodd" fill="none" stroke="#000000" stroke-width="0.504" stroke-miterlimit="2.4142" d="     M457.154,189.942c-1.561-0.391-2.523-1.989-2.116-3.621c0.391-1.561,1.985-2.518,3.548-2.129     c1.632,0.404,2.592,2.003,2.203,3.564C460.381,189.388,458.781,190.345,457.154,189.942L457.154,189.942z"/>
<path fill-rule="evenodd" clip-rule="evenodd" fill="none" stroke="#000000" stroke-width="0.504" stroke-miterlimit="2.4142" d="     M468.568,192.578c-1.563-0.393-2.521-1.987-2.117-3.622c0.391-1.561,1.986-2.52,3.547-2.13c1.635,0.406,2.594,2.004,2.202,3.564     C471.795,192.022,470.193,192.98,468.568,192.578L468.568,192.578z"/>
<path fill-rule="evenodd" clip-rule="evenodd" fill="none" stroke="#000000" stroke-width="0.504" stroke-miterlimit="2.4142" d="     M461.461,197.307c-1.561-0.394-2.521-1.988-2.113-3.623c0.389-1.561,1.984-2.52,3.547-2.126c1.633,0.402,2.594,2,2.201,3.562     C464.689,196.75,463.089,197.713,461.461,197.307L461.461,197.307z"/>
<path fill-rule="evenodd" clip-rule="evenodd" fill="none" stroke="#000000" stroke-width="0.504" stroke-miterlimit="2.4142" d="     M454.363,202.041c-1.562-0.39-2.526-1.987-2.119-3.62c0.389-1.563,1.988-2.521,3.552-2.132c1.63,0.403,2.588,2.005,2.201,3.563     C457.589,201.487,455.991,202.445,454.363,202.041L454.363,202.041z"/>
<path fill-rule="evenodd" clip-rule="evenodd" fill="none" stroke="#000000" stroke-width="0.504" stroke-miterlimit="2.4142" d="     M465.774,204.674c-1.562-0.389-2.526-1.986-2.117-3.618c0.387-1.562,1.989-2.521,3.552-2.132c1.627,0.405,2.59,2.005,2.2,3.564     C469,204.122,467.401,205.081,465.774,204.674L465.774,204.674z"/>
<path fill-rule="evenodd" clip-rule="evenodd" fill="none" stroke="#000000" stroke-width="0.504" stroke-miterlimit="2.4142" d="     M458.67,209.406c-1.559-0.39-2.525-1.987-2.117-3.622c0.392-1.56,1.99-2.519,3.553-2.13c1.627,0.407,2.588,2.004,2.199,3.563     C461.895,208.853,460.297,209.811,458.67,209.406L458.67,209.406z"/>
<path fill-rule="evenodd" clip-rule="evenodd" fill="none" stroke="#000000" stroke-width="0.504" stroke-miterlimit="2.4142" d="     M451.564,214.135c-1.563-0.39-2.52-1.984-2.111-3.62c0.39-1.56,1.988-2.521,3.549-2.13c1.629,0.408,2.586,2.003,2.199,3.563     C454.797,213.583,453.2,214.542,451.564,214.135L451.564,214.135z"/>
<path fill-rule="evenodd" clip-rule="evenodd" fill="none" stroke="#000000" stroke-width="0.504" stroke-miterlimit="2.4142" d="     M462.977,216.77c-1.564-0.389-2.518-1.984-2.111-3.619c0.387-1.563,1.988-2.518,3.552-2.131c1.626,0.409,2.585,2.005,2.196,3.564     C466.211,216.219,464.611,217.179,462.977,216.77L462.977,216.77z"/>
<path fill-rule="evenodd" clip-rule="evenodd" fill="none" stroke="#000000" stroke-width="0.504" stroke-miterlimit="2.4142" d="     M455.875,221.502c-1.564-0.392-2.521-1.985-2.113-3.622c0.391-1.558,1.985-2.519,3.551-2.13c1.623,0.407,2.587,2.003,2.201,3.563     C459.107,220.951,457.508,221.906,455.875,221.502L455.875,221.502z"/>
<path fill-rule="evenodd" clip-rule="evenodd" fill="none" stroke="#000000" stroke-width="0.504" stroke-miterlimit="2.4142" d="     M448.776,226.233c-1.56-0.39-2.521-1.987-2.118-3.617c0.393-1.566,1.99-2.521,3.551-2.134c1.631,0.406,2.592,2.001,2.199,3.565     C452.006,225.678,450.405,226.64,448.776,226.233L448.776,226.233z"/>
<path fill-rule="evenodd" clip-rule="evenodd" fill="none" stroke="#000000" stroke-width="0.504" stroke-miterlimit="2.4142" d="     M460.189,228.868c-1.563-0.391-2.52-1.985-2.119-3.62c0.393-1.563,1.988-2.519,3.549-2.132c1.632,0.409,2.592,2.001,2.201,3.565     C463.415,228.314,461.818,229.274,460.189,228.868L460.189,228.868z"/>
<path fill-rule="evenodd" clip-rule="evenodd" fill="none" stroke="#000000" stroke-width="0.504" stroke-miterlimit="2.4142" d="     M453.084,233.598c-1.563-0.39-2.521-1.986-2.113-3.618c0.394-1.563,1.984-2.521,3.549-2.132c1.627,0.405,2.588,2.002,2.197,3.564     C456.314,233.043,454.716,234.004,453.084,233.598L453.084,233.598z"/>
<path fill-rule="evenodd" clip-rule="evenodd" fill="none" stroke="#000000" stroke-width="0.504" stroke-miterlimit="2.4142" d="     M445.979,238.327c-1.561-0.386-2.52-1.982-2.109-3.615c0.388-1.561,1.984-2.521,3.545-2.132c1.631,0.406,2.592,2.006,2.201,3.566     C449.209,237.78,447.611,238.739,445.979,238.327L445.979,238.327z"/>
<path fill-rule="evenodd" clip-rule="evenodd" fill="none" stroke="#000000" stroke-width="0.504" stroke-miterlimit="2.4142" d="     M457.391,240.961c-1.559-0.386-2.52-1.982-2.111-3.615c0.391-1.561,1.984-2.522,3.549-2.131c1.629,0.404,2.592,2.004,2.2,3.565     C460.621,240.415,459.025,241.374,457.391,240.961L457.391,240.961z"/>
<path fill-rule="evenodd" clip-rule="evenodd" fill="none" stroke="#000000" stroke-width="0.504" stroke-miterlimit="2.4142" d="     M450.287,245.692c-1.564-0.386-2.52-1.982-2.109-3.613c0.389-1.563,1.984-2.523,3.547-2.133c1.629,0.404,2.59,2.006,2.197,3.566     C453.518,245.145,451.92,246.104,450.287,245.692L450.287,245.692z"/>
<path fill-rule="evenodd" clip-rule="evenodd" fill="none" stroke="#000000" stroke-width="0.504" stroke-miterlimit="2.4142" d="     M443.189,250.426c-1.564-0.392-2.521-1.988-2.113-3.618c0.391-1.563,1.982-2.524,3.548-2.132c1.63,0.403,2.591,2.002,2.198,3.563     C446.418,249.873,444.82,250.833,443.189,250.426L443.189,250.426z"/>
<path fill-rule="evenodd" clip-rule="evenodd" fill="none" stroke="#000000" stroke-width="0.504" stroke-miterlimit="2.4142" d="     M454.601,253.06c-1.564-0.39-2.522-1.986-2.113-3.618c0.393-1.564,1.985-2.523,3.548-2.131c1.632,0.404,2.591,2.002,2.2,3.563     C457.83,252.508,456.233,253.468,454.601,253.06L454.601,253.06z"/>
<path fill-rule="evenodd" clip-rule="evenodd" fill="none" stroke="#000000" stroke-width="0.504" stroke-miterlimit="2.4142" d="     M447.494,257.791c-1.563-0.391-2.517-1.984-2.109-3.615c0.389-1.563,1.984-2.525,3.547-2.133c1.633,0.404,2.59,2.003,2.2,3.563     C450.729,257.242,449.128,258.199,447.494,257.791L447.494,257.791z"/>
<path fill-rule="evenodd" clip-rule="evenodd" fill="none" stroke="#000000" stroke-width="0.504" stroke-miterlimit="2.4142" d="     M440.393,262.522c-1.561-0.39-2.523-1.986-2.111-3.617c0.393-1.565,1.986-2.522,3.551-2.131c1.627,0.404,2.588,2.004,2.197,3.561     C443.622,261.969,442.025,262.93,440.393,262.522L440.393,262.522z"/>
<path fill-rule="evenodd" clip-rule="evenodd" fill="none" stroke="#000000" stroke-width="0.504" stroke-miterlimit="2.4142" d="     M451.807,265.156c-1.563-0.387-2.52-1.983-2.112-3.616c0.394-1.563,1.986-2.521,3.548-2.132c1.631,0.407,2.592,2.005,2.199,3.565     C455.035,264.605,453.438,265.566,451.807,265.156L451.807,265.156z"/>
<path fill-rule="evenodd" clip-rule="evenodd" fill="none" stroke="#000000" stroke-width="0.504" stroke-miterlimit="2.4142" d="     M444.701,269.887c-1.563-0.389-2.516-1.983-2.109-3.617c0.389-1.563,1.985-2.521,3.547-2.131c1.633,0.406,2.59,2.004,2.2,3.563     C447.932,269.336,446.336,270.295,444.701,269.887L444.701,269.887z"/>
<path fill-rule="evenodd" clip-rule="evenodd" fill="none" stroke="#000000" stroke-width="0.504" stroke-miterlimit="2.4142" d="     M437.602,274.62c-1.563-0.39-2.521-1.985-2.113-3.617c0.391-1.564,1.986-2.522,3.547-2.134c1.635,0.404,2.595,2.006,2.202,3.564     C440.828,274.065,439.233,275.026,437.602,274.62L437.602,274.62z"/>
<path fill-rule="evenodd" clip-rule="evenodd" fill="none" stroke="#000000" stroke-width="0.504" stroke-miterlimit="2.4142" d="     M449.014,277.253c-1.563-0.388-2.523-1.984-2.114-3.616c0.391-1.565,1.987-2.52,3.55-2.133c1.631,0.404,2.592,2.005,2.201,3.563     C452.246,276.701,450.646,277.662,449.014,277.253L449.014,277.253z"/>
<path fill-rule="evenodd" clip-rule="evenodd" fill="none" stroke="#000000" stroke-width="0.504" stroke-miterlimit="2.4142" d="     M441.908,281.984c-1.561-0.388-2.516-1.985-2.111-3.616c0.391-1.563,1.988-2.521,3.549-2.132     c1.633,0.405,2.594,2.005,2.201,3.563C445.141,281.433,443.543,282.393,441.908,281.984L441.908,281.984z"/>
<path fill-rule="evenodd" clip-rule="evenodd" fill="none" stroke="#000000" stroke-width="0.504" stroke-miterlimit="2.4142" d="     M434.81,286.715c-1.563-0.385-2.521-1.984-2.114-3.616c0.39-1.563,1.985-2.519,3.551-2.132c1.629,0.406,2.59,2.007,2.199,3.565     C438.04,286.165,436.441,287.126,434.81,286.715L434.81,286.715z"/>
<path fill-rule="evenodd" clip-rule="evenodd" fill="none" stroke="#000000" stroke-width="0.504" stroke-miterlimit="2.4142" d="     M446.221,289.349c-1.563-0.387-2.522-1.984-2.115-3.617c0.391-1.561,1.988-2.52,3.553-2.129c1.63,0.405,2.591,2.003,2.199,3.564     C449.45,288.798,447.854,289.76,446.221,289.349L446.221,289.349z"/>
<path fill-rule="evenodd" clip-rule="evenodd" fill="none" stroke="#000000" stroke-width="0.504" stroke-miterlimit="2.4142" d="     M439.119,294.083c-1.564-0.39-2.524-1.984-2.113-3.619c0.389-1.562,1.983-2.519,3.549-2.132c1.627,0.406,2.592,2.006,2.203,3.565     C442.346,293.53,440.75,294.49,439.119,294.083L439.119,294.083z"/>
<path fill-rule="evenodd" clip-rule="evenodd" fill="none" stroke="#000000" stroke-width="0.504" stroke-miterlimit="2.4142" d="     M432.014,298.811c-1.563-0.389-2.52-1.986-2.113-3.617c0.393-1.561,1.99-2.518,3.553-2.128c1.627,0.402,2.59,2.001,2.198,3.563     C435.244,298.26,433.646,299.22,432.014,298.811L432.014,298.811z"/>
<path fill-rule="evenodd" clip-rule="evenodd" fill="none" stroke="#000000" stroke-width="0.504" stroke-miterlimit="2.4142" d="     M443.428,301.447c-1.563-0.388-2.521-1.987-2.113-3.62c0.391-1.56,1.986-2.518,3.55-2.128c1.628,0.404,2.593,1.999,2.2,3.562     C446.657,300.896,445.061,301.856,443.428,301.447L443.428,301.447z"/>
</g></switch>
</svg>