<?xml version="1.0" encoding="utf-8"?>
<!DOCTYPE svg PUBLIC "-//W3C//DTD SVG 1.1//EN" "http://www.w3.org/Graphics/SVG/1.1/DTD/svg11.dtd">
<svg version="1.1" id="Armor" xmlns="http://www.w3.org/2000/svg" xmlns:xlink="http://www.w3.org/1999/xlink" x="0px" y="0px"
	 width="612px" height="792px" viewBox="0 0 612 792" enable-background="new 0 0 612 792" xml:space="preserve">
<switch><g>
<path fill="none" stroke="#000000" stroke-width="0.504" stroke-miterlimit="2.4142" d="M420.201,80.422     c-1.662-0.146-2.928-1.651-2.779-3.313c0.148-1.729,1.646-2.923,3.313-2.778c1.728,0.151,3.001,1.589,2.85,3.318     C423.439,79.31,421.928,80.574,420.201,80.422L420.201,80.422z"/>
<path fill="none" stroke="#000000" stroke-width="0.504" stroke-miterlimit="2.4142" d="M431.496,81.411     c-1.664-0.146-2.928-1.652-2.78-3.312c0.148-1.729,1.647-2.925,3.313-2.78c1.727,0.15,2.998,1.59,2.847,3.32     C434.729,80.3,433.225,81.562,431.496,81.411L431.496,81.411z"/>
<path fill="none" stroke="#000000" stroke-width="0.504" stroke-miterlimit="2.4142" d="M425.398,86.078     c-1.662-0.143-2.93-1.651-2.781-3.312c0.146-1.73,1.649-2.924,3.311-2.778c1.73,0.149,3.002,1.586,2.851,3.318     C428.63,84.967,427.127,86.229,425.398,86.078L425.398,86.078z"/>
<path fill="none" stroke="#000000" stroke-width="0.504" stroke-miterlimit="2.4142" d="M419.297,90.747     c-1.66-0.146-2.928-1.651-2.779-3.313c0.15-1.729,1.647-2.924,3.313-2.779c1.728,0.151,3.002,1.589,2.85,3.319     C422.535,89.634,421.023,90.898,419.297,90.747L419.297,90.747z"/>
<path fill="none" stroke="#000000" stroke-width="0.504" stroke-miterlimit="2.4142" d="M430.592,91.735     c-1.662-0.146-2.928-1.651-2.778-3.312c0.147-1.729,1.646-2.925,3.313-2.78c1.727,0.15,2.998,1.59,2.847,3.321     C433.826,90.625,432.32,91.886,430.592,91.735L430.592,91.735z"/>
<path fill="none" stroke="#000000" stroke-width="0.504" stroke-miterlimit="2.4142" d="M424.496,96.402     c-1.665-0.144-2.929-1.651-2.783-3.311c0.148-1.732,1.65-2.925,3.31-2.779c1.733,0.15,3.004,1.586,2.854,3.319     C427.729,95.292,426.225,96.554,424.496,96.402L424.496,96.402z"/>
<path fill="none" stroke="#000000" stroke-width="0.504" stroke-miterlimit="2.4142" d="M418.396,101.07     c-1.664-0.143-2.931-1.651-2.783-3.311c0.149-1.73,1.651-2.926,3.311-2.778c1.733,0.15,3.006,1.586,2.853,3.317     C421.631,99.959,420.123,101.222,418.396,101.07L418.396,101.07z"/>
<path fill="none" stroke="#000000" stroke-width="0.504" stroke-miterlimit="2.4142" d="M429.693,102.059     c-1.664-0.144-2.933-1.652-2.785-3.312c0.147-1.732,1.653-2.925,3.313-2.779c1.732,0.149,3,1.587,2.849,3.319     C432.926,100.948,431.42,102.209,429.693,102.059L429.693,102.059z"/>
<path fill="none" stroke="#000000" stroke-width="0.504" stroke-miterlimit="2.4142" d="M423.59,106.728     c-1.664-0.146-2.924-1.652-2.78-3.313c0.152-1.73,1.651-2.925,3.313-2.781c1.727,0.152,2.999,1.59,2.848,3.32     C426.828,105.614,425.317,106.88,423.59,106.728L423.59,106.728z"/>
<path fill="none" stroke="#000000" stroke-width="0.504" stroke-miterlimit="2.4142" d="M417.49,111.396     c-1.662-0.146-2.922-1.652-2.779-3.313c0.152-1.731,1.65-2.925,3.314-2.781c1.725,0.151,3,1.591,2.85,3.32     C420.732,110.282,419.219,111.548,417.49,111.396L417.49,111.396z"/>
<path fill="none" stroke="#000000" stroke-width="0.504" stroke-miterlimit="2.4142" d="M428.785,112.383     c-1.66-0.145-2.926-1.65-2.779-3.312c0.152-1.729,1.651-2.924,3.314-2.78c1.727,0.152,2.998,1.588,2.846,3.32     C432.023,111.271,430.514,112.537,428.785,112.383L428.785,112.383z"/>
<path fill="none" stroke="#000000" stroke-width="0.504" stroke-miterlimit="2.4142" d="M422.684,117.051     c-1.661-0.144-2.921-1.65-2.774-3.311c0.149-1.731,1.649-2.926,3.313-2.78c1.729,0.151,2.995,1.588,2.845,3.319     C425.919,115.938,424.416,117.204,422.684,117.051L422.684,117.051z"/>
<path fill="none" stroke="#000000" stroke-width="0.504" stroke-miterlimit="2.4142" d="M416.586,121.719     c-1.662-0.145-2.924-1.652-2.779-3.312c0.152-1.73,1.652-2.925,3.314-2.779c1.729,0.152,3,1.588,2.85,3.319     C419.822,120.608,418.318,121.872,416.586,121.719L416.586,121.719z"/>
<path fill="none" stroke="#000000" stroke-width="0.504" stroke-miterlimit="2.4142" d="M427.883,122.708     c-1.662-0.146-2.924-1.653-2.781-3.311c0.15-1.73,1.654-2.926,3.32-2.78c1.727,0.152,2.994,1.588,2.84,3.32     C431.115,121.597,429.613,122.86,427.883,122.708L427.883,122.708z"/>
<path fill="none" stroke="#000000" stroke-width="0.504" stroke-miterlimit="2.4142" d="M421.782,127.376     c-1.659-0.146-2.925-1.652-2.779-3.313c0.152-1.731,1.649-2.926,3.313-2.78c1.729,0.151,3,1.588,2.848,3.319     C425.021,126.263,423.511,127.528,421.782,127.376L421.782,127.376z"/>
<path fill="none" stroke="#000000" stroke-width="0.504" stroke-miterlimit="2.4142" d="M415.686,132.044     c-1.659-0.145-2.928-1.651-2.78-3.313c0.151-1.732,1.647-2.927,3.313-2.781c1.729,0.151,3.004,1.589,2.851,3.32     C418.922,130.932,417.412,132.197,415.686,132.044L415.686,132.044z"/>
<path fill="none" stroke="#000000" stroke-width="0.504" stroke-miterlimit="2.4142" d="M426.98,133.034     c-1.66-0.146-2.929-1.652-2.785-3.314c0.153-1.73,1.653-2.926,3.315-2.78c1.73,0.152,3,1.589,2.849,3.32     C430.217,131.919,428.709,133.185,426.98,133.034L426.98,133.034z"/>
<path fill="none" stroke="#000000" stroke-width="0.504" stroke-miterlimit="2.4142" d="M420.882,137.701     c-1.666-0.146-2.927-1.652-2.781-3.312c0.15-1.732,1.65-2.926,3.315-2.781c1.726,0.15,2.995,1.588,2.844,3.322     C424.116,136.588,422.61,137.852,420.882,137.701L420.882,137.701z"/>
<path fill="none" stroke="#000000" stroke-width="0.504" stroke-miterlimit="2.4142" d="M414.779,142.369     c-1.662-0.145-2.924-1.65-2.777-3.311c0.148-1.733,1.65-2.927,3.313-2.783c1.727,0.153,2.997,1.589,2.848,3.322     C418.02,141.256,416.51,142.521,414.779,142.369L414.779,142.369z"/>
<path fill="none" stroke="#000000" stroke-width="0.504" stroke-miterlimit="2.4142" d="M426.074,143.357     c-1.66-0.146-2.926-1.649-2.779-3.31c0.15-1.733,1.652-2.927,3.316-2.783c1.725,0.151,2.996,1.588,2.842,3.323     C429.311,142.246,427.805,143.509,426.074,143.357L426.074,143.357z"/>
<path fill="none" stroke="#000000" stroke-width="0.504" stroke-miterlimit="2.4142" d="M419.977,148.025     c-1.662-0.145-2.924-1.651-2.777-3.312c0.149-1.731,1.648-2.926,3.312-2.781c1.729,0.152,2.999,1.59,2.847,3.322     C423.213,146.912,421.705,148.176,419.977,148.025L419.977,148.025z"/>
<path fill="none" stroke="#000000" stroke-width="0.504" stroke-miterlimit="2.4142" d="M413.879,152.693     c-1.664-0.145-2.927-1.651-2.781-3.313c0.152-1.73,1.648-2.924,3.313-2.78c1.729,0.151,3.002,1.588,2.85,3.323     C417.114,151.58,415.605,152.844,413.879,152.693L413.879,152.693z"/>
<path fill="none" stroke="#000000" stroke-width="0.504" stroke-miterlimit="2.4142" d="M425.175,153.68     c-1.663-0.145-2.928-1.65-2.784-3.311c0.154-1.731,1.654-2.926,3.316-2.781c1.73,0.151,3,1.588,2.844,3.32     C428.41,152.568,426.903,153.832,425.175,153.68L425.175,153.68z"/>
<path fill="none" stroke="#000000" stroke-width="0.504" stroke-miterlimit="2.4142" d="M419.074,158.349     c-1.663-0.145-2.926-1.652-2.781-3.311c0.154-1.733,1.651-2.927,3.314-2.782c1.727,0.152,2.998,1.588,2.844,3.32     C422.311,157.235,420.803,158.5,419.074,158.349L419.074,158.349z"/>
<path fill="none" stroke="#000000" stroke-width="0.504" stroke-miterlimit="2.4142" d="M412.973,163.015     c-1.66-0.144-2.922-1.65-2.776-3.31c0.149-1.732,1.649-2.924,3.313-2.779c1.726,0.149,3.001,1.586,2.849,3.32     C416.214,161.905,414.705,163.167,412.973,163.015L412.973,163.015z"/>
<path fill="none" stroke="#000000" stroke-width="0.504" stroke-miterlimit="2.4142" d="M424.269,164.003     c-1.66-0.142-2.925-1.651-2.777-3.311c0.146-1.731,1.649-2.925,3.313-2.778c1.729,0.15,2.998,1.587,2.847,3.318     C427.506,162.891,426,164.156,424.269,164.003L424.269,164.003z"/>
<path fill="none" stroke="#000000" stroke-width="0.504" stroke-miterlimit="2.4142" d="M418.17,168.672     c-1.662-0.145-2.924-1.651-2.78-3.312c0.153-1.731,1.652-2.923,3.315-2.779c1.726,0.151,2.996,1.588,2.844,3.32     C421.408,167.56,419.9,168.823,418.17,168.672L418.17,168.672z"/>
<path fill="none" stroke="#000000" stroke-width="0.504" stroke-miterlimit="2.4142" d="M412.069,173.341     c-1.66-0.144-2.921-1.652-2.776-3.312c0.15-1.732,1.65-2.925,3.313-2.78c1.727,0.15,3,1.587,2.846,3.32     C415.313,172.229,413.803,173.494,412.069,173.341L412.069,173.341z"/>
<path fill="none" stroke="#000000" stroke-width="0.504" stroke-miterlimit="2.4142" d="M423.364,174.329     c-1.659-0.143-2.923-1.651-2.778-3.312c0.148-1.732,1.652-2.924,3.314-2.779c1.729,0.15,2.996,1.588,2.844,3.319     C426.604,173.216,425.098,174.482,423.364,174.329L423.364,174.329z"/>
</g></switch>
</svg>