<?xml version="1.0" encoding="utf-8"?>
<!DOCTYPE svg PUBLIC "-//W3C//DTD SVG 1.1//EN" "http://www.w3.org/Graphics/SVG/1.1/DTD/svg11.dtd">
<svg version="1.1" id="Armor" xmlns="http://www.w3.org/2000/svg" xmlns:xlink="http://www.w3.org/1999/xlink" x="0px" y="0px"
	 width="612px" height="792px" viewBox="0 0 612 792" enable-background="new 0 0 612 792" xml:space="preserve">
<switch><g>
<path fill-rule="evenodd" clip-rule="evenodd" fill="none" stroke="#000000" stroke-width="0.504" stroke-miterlimit="2.4142" d="     M523.955,188.693c1.558-0.392,2.521-1.986,2.109-3.619c-0.388-1.563-1.98-2.523-3.544-2.132c-1.632,0.404-2.593,2.003-2.2,3.563     C520.724,188.14,522.323,189.1,523.955,188.693L523.955,188.693z"/>
<path fill-rule="evenodd" clip-rule="evenodd" fill="none" stroke="#000000" stroke-width="0.504" stroke-miterlimit="2.4142" d="     M512.539,191.329c1.561-0.393,2.523-1.987,2.111-3.62c-0.386-1.563-1.98-2.522-3.545-2.131c-1.632,0.404-2.59,2.002-2.199,3.564     C509.312,190.774,510.91,191.734,512.539,191.329L512.539,191.329z"/>
<path fill-rule="evenodd" clip-rule="evenodd" fill="none" stroke="#000000" stroke-width="0.504" stroke-miterlimit="2.4142" d="     M519.379,194.586c1.563-0.388,2.523-1.984,2.113-3.617c-0.39-1.562-1.985-2.521-3.548-2.13c-1.63,0.404-2.591,2-2.199,3.563     C516.151,194.035,517.749,194.995,519.379,194.586L519.379,194.586z"/>
<path fill-rule="evenodd" clip-rule="evenodd" fill="none" stroke="#000000" stroke-width="0.504" stroke-miterlimit="2.4142" d="     M526.076,197.879c1.557-0.392,2.52-1.986,2.109-3.619c-0.389-1.562-1.981-2.523-3.545-2.131c-1.631,0.403-2.592,2.003-2.2,3.563     C522.844,197.325,524.444,198.286,526.076,197.879L526.076,197.879z"/>
<path fill-rule="evenodd" clip-rule="evenodd" fill="none" stroke="#000000" stroke-width="0.504" stroke-miterlimit="2.4142" d="     M514.66,200.515c1.561-0.393,2.523-1.987,2.111-3.62c-0.386-1.563-1.98-2.522-3.545-2.131c-1.633,0.404-2.59,2.002-2.199,3.564     C511.433,199.96,513.031,200.92,514.66,200.515L514.66,200.515z"/>
<path fill-rule="evenodd" clip-rule="evenodd" fill="none" stroke="#000000" stroke-width="0.504" stroke-miterlimit="2.4142" d="     M521.5,203.774c1.559-0.393,2.522-1.987,2.108-3.62c-0.384-1.563-1.979-2.523-3.546-2.132c-1.627,0.405-2.588,2.003-2.195,3.564     C518.268,203.221,519.868,204.179,521.5,203.774L521.5,203.774z"/>
<path fill-rule="evenodd" clip-rule="evenodd" fill="none" stroke="#000000" stroke-width="0.504" stroke-miterlimit="2.4142" d="     M528.338,207.031c1.561-0.392,2.521-1.985,2.115-3.62c-0.393-1.562-1.988-2.52-3.549-2.129c-1.633,0.404-2.592,2.002-2.201,3.563     C525.107,206.477,526.709,207.436,528.338,207.031L528.338,207.031z"/>
<path fill-rule="evenodd" clip-rule="evenodd" fill="none" stroke="#000000" stroke-width="0.504" stroke-miterlimit="2.4142" d="     M516.922,209.668c1.563-0.392,2.521-1.988,2.115-3.621c-0.391-1.562-1.983-2.521-3.548-2.129     c-1.632,0.403-2.591,2.001-2.202,3.563C513.694,209.112,515.295,210.072,516.922,209.668L516.922,209.668z"/>
<path fill-rule="evenodd" clip-rule="evenodd" fill="none" stroke="#000000" stroke-width="0.504" stroke-miterlimit="2.4142" d="     M523.62,212.958c1.563-0.391,2.524-1.987,2.115-3.621c-0.39-1.562-1.983-2.518-3.55-2.127c-1.631,0.404-2.589,2.001-2.2,3.563     C520.394,212.404,521.992,213.363,523.62,212.958L523.62,212.958z"/>
<path fill-rule="evenodd" clip-rule="evenodd" fill="none" stroke="#000000" stroke-width="0.504" stroke-miterlimit="2.4142" d="     M530.6,216.187c1.559-0.389,2.522-1.986,2.115-3.622c-0.389-1.562-1.988-2.519-3.55-2.13c-1.631,0.406-2.589,2.005-2.202,3.564     C527.376,215.633,528.97,216.591,530.6,216.187L530.6,216.187z"/>
<path fill-rule="evenodd" clip-rule="evenodd" fill="none" stroke="#000000" stroke-width="0.504" stroke-miterlimit="2.4142" d="     M519.186,218.821c1.562-0.389,2.524-1.987,2.117-3.62c-0.389-1.561-1.988-2.521-3.552-2.13c-1.628,0.406-2.588,2.005-2.2,3.564     C515.959,218.269,517.557,219.229,519.186,218.821L519.186,218.821z"/>
<path fill-rule="evenodd" clip-rule="evenodd" fill="none" stroke="#000000" stroke-width="0.504" stroke-miterlimit="2.4142" d="     M525.741,222.146c1.561-0.387,2.526-1.986,2.114-3.62c-0.387-1.561-1.983-2.52-3.548-2.132c-1.628,0.407-2.589,2.006-2.202,3.565     C522.517,221.594,524.114,222.553,525.741,222.146L525.741,222.146z"/>
<path fill-rule="evenodd" clip-rule="evenodd" fill="none" stroke="#000000" stroke-width="0.504" stroke-miterlimit="2.4142" d="     M532.864,225.338c1.562-0.392,2.521-1.986,2.114-3.62c-0.39-1.561-1.988-2.521-3.552-2.129c-1.628,0.406-2.588,1.999-2.198,3.561     C529.635,224.786,531.23,225.743,532.864,225.338L532.864,225.338z"/>
<path fill-rule="evenodd" clip-rule="evenodd" fill="none" stroke="#000000" stroke-width="0.504" stroke-miterlimit="2.4142" d="     M521.451,227.973c1.564-0.39,2.52-1.984,2.113-3.62c-0.389-1.561-1.988-2.519-3.551-2.129c-1.627,0.406-2.586,2.001-2.198,3.562     C518.221,227.421,519.815,228.379,521.451,227.973L521.451,227.973z"/>
<path fill-rule="evenodd" clip-rule="evenodd" fill="none" stroke="#000000" stroke-width="0.504" stroke-miterlimit="2.4142" d="     M527.861,231.331c1.566-0.395,2.524-1.988,2.116-3.623c-0.39-1.56-1.987-2.521-3.55-2.129c-1.627,0.405-2.589,2.001-2.201,3.563     C524.633,230.777,526.23,231.734,527.861,231.331L527.861,231.331z"/>
<path fill-rule="evenodd" clip-rule="evenodd" fill="none" stroke="#000000" stroke-width="0.504" stroke-miterlimit="2.4142" d="     M535.125,234.492c1.559-0.393,2.52-1.987,2.116-3.62c-0.393-1.562-1.987-2.521-3.55-2.132c-1.631,0.406-2.592,2.001-2.201,3.564     C531.896,233.938,533.492,234.898,535.125,234.492L535.125,234.492z"/>
<path fill-rule="evenodd" clip-rule="evenodd" fill="none" stroke="#000000" stroke-width="0.504" stroke-miterlimit="2.4142" d="     M523.709,237.127c1.561-0.388,2.522-1.985,2.119-3.619c-0.395-1.563-1.987-2.519-3.55-2.132     c-1.631,0.408-2.592,2.001-2.202,3.564C520.48,236.574,522.078,237.536,523.709,237.127L523.709,237.127z"/>
<path fill-rule="evenodd" clip-rule="evenodd" fill="none" stroke="#000000" stroke-width="0.504" stroke-miterlimit="2.4142" d="     M530.548,240.387c1.563-0.391,2.523-1.988,2.116-3.62c-0.393-1.563-1.986-2.521-3.549-2.131c-1.629,0.405-2.59,2.001-2.2,3.564     C527.319,239.831,528.918,240.792,530.548,240.387L530.548,240.387z"/>
<path fill-rule="evenodd" clip-rule="evenodd" fill="none" stroke="#000000" stroke-width="0.504" stroke-miterlimit="2.4142" d="     M537.391,243.642c1.563-0.387,2.52-1.982,2.11-3.617c-0.389-1.56-1.987-2.52-3.547-2.129c-1.628,0.405-2.593,2.005-2.199,3.564     C534.162,243.093,535.757,244.054,537.391,243.642L537.391,243.642z"/>
<path fill-rule="evenodd" clip-rule="evenodd" fill="none" stroke="#000000" stroke-width="0.504" stroke-miterlimit="2.4142" d="     M525.978,246.278c1.56-0.389,2.52-1.984,2.111-3.618c-0.393-1.561-1.988-2.521-3.55-2.13c-1.628,0.404-2.59,2.003-2.199,3.564     C522.746,245.728,524.343,246.688,525.978,246.278L525.978,246.278z"/>
<path fill-rule="evenodd" clip-rule="evenodd" fill="none" stroke="#000000" stroke-width="0.504" stroke-miterlimit="2.4142" d="     M532.815,249.537c1.562-0.387,2.521-1.985,2.11-3.616c-0.39-1.562-1.986-2.521-3.549-2.132c-1.627,0.406-2.59,2.005-2.198,3.565     C529.586,248.986,531.182,249.948,532.815,249.537L532.815,249.537z"/>
<path fill-rule="evenodd" clip-rule="evenodd" fill="none" stroke="#000000" stroke-width="0.504" stroke-miterlimit="2.4142" d="     M539.652,252.797c1.563-0.389,2.521-1.986,2.113-3.617c-0.392-1.563-1.988-2.521-3.551-2.132     c-1.629,0.404-2.589,2.004-2.197,3.562C536.422,252.246,538.021,253.206,539.652,252.797L539.652,252.797z"/>
<path fill-rule="evenodd" clip-rule="evenodd" fill="none" stroke="#000000" stroke-width="0.504" stroke-miterlimit="2.4142" d="     M528.238,255.433c1.564-0.391,2.523-1.989,2.113-3.618c-0.392-1.563-1.986-2.523-3.549-2.132     c-1.631,0.404-2.59,2.004-2.199,3.563C525.008,254.881,526.605,255.841,528.238,255.433L528.238,255.433z"/>
<path fill-rule="evenodd" clip-rule="evenodd" fill="none" stroke="#000000" stroke-width="0.504" stroke-miterlimit="2.4142" d="     M535.076,258.69c1.565-0.389,2.521-1.985,2.113-3.617c-0.39-1.563-1.986-2.521-3.549-2.131c-1.631,0.403-2.59,2.004-2.199,3.562     C531.846,258.14,533.446,259.099,535.076,258.69L535.076,258.69z"/>
<path fill-rule="evenodd" clip-rule="evenodd" fill="none" stroke="#000000" stroke-width="0.504" stroke-miterlimit="2.4142" d="     M541.916,261.949c1.56-0.39,2.521-1.985,2.11-3.617c-0.39-1.563-1.988-2.522-3.55-2.13c-1.627,0.403-2.588,2.003-2.199,3.563     C538.686,261.397,540.283,262.356,541.916,261.949L541.916,261.949z"/>
<path fill-rule="evenodd" clip-rule="evenodd" fill="none" stroke="#000000" stroke-width="0.504" stroke-miterlimit="2.4142" d="     M530.502,264.585c1.562-0.39,2.521-1.986,2.112-3.617c-0.392-1.563-1.987-2.522-3.55-2.131c-1.63,0.404-2.591,2.004-2.199,3.563     C527.271,264.032,528.869,264.992,530.502,264.585L530.502,264.585z"/>
<path fill-rule="evenodd" clip-rule="evenodd" fill="none" stroke="#000000" stroke-width="0.504" stroke-miterlimit="2.4142" d="     M537.34,267.844c1.561-0.389,2.518-1.987,2.109-3.617c-0.389-1.563-1.984-2.521-3.547-2.132c-1.631,0.406-2.59,2.005-2.198,3.563     C534.11,267.292,535.71,268.251,537.34,267.844L537.34,267.844z"/>
<path fill-rule="evenodd" clip-rule="evenodd" fill="none" stroke="#000000" stroke-width="0.504" stroke-miterlimit="2.4142" d="     M544.182,271.103c1.561-0.39,2.518-1.986,2.111-3.619c-0.393-1.562-1.989-2.52-3.55-2.13c-1.632,0.405-2.593,2.004-2.201,3.563     C540.95,270.55,542.547,271.51,544.182,271.103L544.182,271.103z"/>
<path fill-rule="evenodd" clip-rule="evenodd" fill="none" stroke="#000000" stroke-width="0.504" stroke-miterlimit="2.4142" d="     M532.766,273.737c1.564-0.39,2.52-1.984,2.11-3.618c-0.389-1.563-1.985-2.521-3.546-2.13c-1.631,0.402-2.592,2.003-2.201,3.563     C529.535,273.185,531.132,274.145,532.766,273.737L532.766,273.737z"/>
<path fill-rule="evenodd" clip-rule="evenodd" fill="none" stroke="#000000" stroke-width="0.504" stroke-miterlimit="2.4142" d="     M539.605,276.996c1.561-0.388,2.52-1.985,2.111-3.618c-0.391-1.562-1.987-2.521-3.547-2.131     c-1.635,0.406-2.594,2.004-2.203,3.563C536.375,276.444,537.972,277.405,539.605,276.996L539.605,276.996z"/>
<path fill-rule="evenodd" clip-rule="evenodd" fill="none" stroke="#000000" stroke-width="0.504" stroke-miterlimit="2.4142" d="     M546.441,280.256c1.56-0.39,2.52-1.987,2.112-3.617c-0.393-1.564-1.985-2.522-3.55-2.131c-1.631,0.405-2.592,2.004-2.2,3.563     C543.211,279.703,544.808,280.665,546.441,280.256L546.441,280.256z"/>
<path fill-rule="evenodd" clip-rule="evenodd" fill="none" stroke="#000000" stroke-width="0.504" stroke-miterlimit="2.4142" d="     M535.026,282.892c1.562-0.392,2.522-1.986,2.116-3.619c-0.394-1.561-1.988-2.519-3.554-2.13c-1.626,0.403-2.592,2.005-2.2,3.563     C531.796,282.339,533.396,283.299,535.026,282.892L535.026,282.892z"/>
<path fill-rule="evenodd" clip-rule="evenodd" fill="none" stroke="#000000" stroke-width="0.504" stroke-miterlimit="2.4142" d="     M541.865,286.15c1.563-0.389,2.521-1.985,2.113-3.618c-0.391-1.563-1.985-2.521-3.551-2.131c-1.629,0.405-2.59,2.005-2.199,3.563     C538.638,285.599,540.234,286.56,541.865,286.15L541.865,286.15z"/>
<path fill-rule="evenodd" clip-rule="evenodd" fill="none" stroke="#000000" stroke-width="0.504" stroke-miterlimit="2.4142" d="     M548.703,289.408c1.562-0.387,2.523-1.984,2.113-3.617c-0.388-1.562-1.986-2.518-3.549-2.131     c-1.626,0.408-2.593,2.003-2.198,3.563C545.477,288.857,547.071,289.819,548.703,289.408L548.703,289.408z"/>
<path fill-rule="evenodd" clip-rule="evenodd" fill="none" stroke="#000000" stroke-width="0.504" stroke-miterlimit="2.4142" d="     M537.29,292.043c1.563-0.388,2.522-1.984,2.113-3.617c-0.391-1.561-1.985-2.519-3.551-2.13c-1.628,0.405-2.59,2.003-2.198,3.564     C534.063,291.493,535.658,292.453,537.29,292.043L537.29,292.043z"/>
<path fill-rule="evenodd" clip-rule="evenodd" fill="none" stroke="#000000" stroke-width="0.504" stroke-miterlimit="2.4142" d="     M544.129,295.303c1.563-0.39,2.52-1.986,2.113-3.618c-0.391-1.563-1.986-2.521-3.549-2.13c-1.631,0.404-2.594,2-2.199,3.562     C540.9,294.75,542.498,295.71,544.129,295.303L544.129,295.303z"/>
<path fill-rule="evenodd" clip-rule="evenodd" fill="none" stroke="#000000" stroke-width="0.504" stroke-miterlimit="2.4142" d="     M550.966,298.561c1.562-0.389,2.52-1.984,2.113-3.617c-0.39-1.563-1.986-2.519-3.55-2.129c-1.63,0.403-2.59,2-2.199,3.562     C547.738,298.011,549.334,298.97,550.966,298.561L550.966,298.561z"/>
<path fill-rule="evenodd" clip-rule="evenodd" fill="none" stroke="#000000" stroke-width="0.504" stroke-miterlimit="2.4142" d="     M539.553,301.196c1.563-0.389,2.523-1.986,2.113-3.618c-0.39-1.562-1.986-2.521-3.55-2.129c-1.628,0.403-2.592,2.001-2.201,3.563     C536.323,300.646,537.921,301.605,539.553,301.196L539.553,301.196z"/>
</g></switch>
</svg>