<?xml version="1.0" encoding="utf-8"?>
<!DOCTYPE svg PUBLIC "-//W3C//DTD SVG 1.1//EN" "http://www.w3.org/Graphics/SVG/1.1/DTD/svg11.dtd">
<svg version="1.1" id="Armor" xmlns="http://www.w3.org/2000/svg" xmlns:xlink="http://www.w3.org/1999/xlink" x="0px" y="0px"
	 width="612px" height="792px" viewBox="0 0 612 792" enable-background="new 0 0 612 792" xml:space="preserve">
<switch><g>
<path fill-rule="evenodd" clip-rule="evenodd" fill="none" stroke="#000000" stroke-width="0.504" stroke-miterlimit="2.4142" d="     M519.678,189.833c1.563-0.388,2.518-1.984,2.107-3.617c-0.388-1.567-1.98-2.523-3.547-2.132     c-1.629,0.408-2.585,2.004-2.197,3.565C516.449,189.28,518.039,190.243,519.678,189.833L519.678,189.833z"/>
<path fill-rule="evenodd" clip-rule="evenodd" fill="none" stroke="#000000" stroke-width="0.504" stroke-miterlimit="2.4142" d="     M530.408,210.29c1.563-0.389,2.526-1.983,2.115-3.616c-0.388-1.566-1.986-2.521-3.555-2.132     c-1.627,0.404-2.591,2.004-2.197,3.563C527.174,209.735,528.775,210.697,530.408,210.29L530.408,210.29z"/>
<path fill-rule="evenodd" clip-rule="evenodd" fill="none" stroke="#000000" stroke-width="0.504" stroke-miterlimit="2.4142" d="     M518.994,212.924c1.566-0.388,2.523-1.985,2.116-3.616c-0.389-1.563-1.986-2.521-3.548-2.131     c-1.63,0.402-2.592,2.002-2.203,3.563C515.76,212.373,517.362,213.333,518.994,212.924L518.994,212.924z"/>
<path fill-rule="evenodd" clip-rule="evenodd" fill="none" stroke="#000000" stroke-width="0.504" stroke-miterlimit="2.4142" d="     M529.734,233.38c1.555-0.392,2.511-1.985,2.109-3.617c-0.393-1.563-1.992-2.523-3.547-2.131     c-1.637,0.402-2.596,2.006-2.202,3.561C526.502,232.829,528.096,233.789,529.734,233.38L529.734,233.38z"/>
<path fill-rule="evenodd" clip-rule="evenodd" fill="none" stroke="#000000" stroke-width="0.504" stroke-miterlimit="2.4142" d="     M540.463,253.837c1.563-0.387,2.518-1.984,2.117-3.62c-0.398-1.558-1.992-2.516-3.556-2.126     c-1.631,0.407-2.597,2.003-2.202,3.565C537.232,253.287,538.834,254.248,540.463,253.837L540.463,253.837z"/>
<path fill-rule="evenodd" clip-rule="evenodd" fill="none" stroke="#000000" stroke-width="0.504" stroke-miterlimit="2.4142" d="     M529.051,256.473c1.563-0.388,2.521-1.986,2.113-3.617c-0.388-1.559-1.99-2.52-3.551-2.131c-1.631,0.408-2.594,2.005-2.197,3.565     C525.82,255.922,527.416,256.883,529.051,256.473L529.051,256.473z"/>
<path fill-rule="evenodd" clip-rule="evenodd" fill="none" stroke="#000000" stroke-width="0.504" stroke-miterlimit="2.4142" d="     M539.784,276.93c1.56-0.389,2.523-1.983,2.106-3.618c-0.383-1.563-1.975-2.521-3.544-2.13c-1.627,0.402-2.591,2.003-2.204,3.561     C536.557,276.376,538.156,277.338,539.784,276.93L539.784,276.93z"/>
<path fill-rule="evenodd" clip-rule="evenodd" fill="none" stroke="#000000" stroke-width="0.504" stroke-miterlimit="2.4142" d="     M550.52,297.386c1.563-0.385,2.52-1.986,2.113-3.621c-0.395-1.556-1.988-2.511-3.556-2.126c-1.621,0.405-2.591,2-2.192,3.564     C547.29,296.839,548.887,297.797,550.52,297.386L550.52,297.386z"/>
<path fill-rule="evenodd" clip-rule="evenodd" fill="none" stroke="#000000" stroke-width="0.504" stroke-miterlimit="2.4142" d="     M539.102,300.021c1.569-0.384,2.525-1.983,2.118-3.619c-0.394-1.56-1.991-2.515-3.552-2.13c-1.627,0.411-2.592,2.002-2.201,3.566     C535.877,299.47,537.474,300.434,539.102,300.021L539.102,300.021z"/>
</g></switch>
</svg>