<?xml version="1.0" encoding="utf-8"?>
<!DOCTYPE svg PUBLIC "-//W3C//DTD SVG 1.1//EN" "http://www.w3.org/Graphics/SVG/1.1/DTD/svg11.dtd">
<svg version="1.1" id="Armor" xmlns="http://www.w3.org/2000/svg" xmlns:xlink="http://www.w3.org/1999/xlink" x="0px" y="0px"
	 width="612px" height="792px" viewBox="0 0 612 792" enable-background="new 0 0 612 792" xml:space="preserve">
<switch><g>
<path fill-rule="evenodd" clip-rule="evenodd" fill="none" stroke="#000000" stroke-width="0.504" stroke-miterlimit="2.4142" d="     M462.406,189.284c-1.555-0.391-2.512-1.984-2.109-3.616c0.393-1.564,1.992-2.523,3.547-2.131c1.637,0.401,2.596,2.006,2.201,3.56     C465.639,188.733,464.045,189.694,462.406,189.284L462.406,189.284z"/>
<path fill-rule="evenodd" clip-rule="evenodd" fill="none" stroke="#000000" stroke-width="0.504" stroke-miterlimit="2.4142" d="     M450.422,215.186c-1.563-0.388-2.518-1.985-2.118-3.62c0.399-1.559,1.992-2.517,3.556-2.126c1.631,0.407,2.597,2.002,2.201,3.563     C453.651,214.635,452.05,215.596,450.422,215.186L450.422,215.186z"/>
<path fill-rule="evenodd" clip-rule="evenodd" fill="none" stroke="#000000" stroke-width="0.504" stroke-miterlimit="2.4142" d="     M461.833,217.821c-1.563-0.388-2.521-1.986-2.112-3.618c0.386-1.56,1.99-2.52,3.549-2.131c1.631,0.408,2.594,2.005,2.199,3.566     C465.063,217.27,463.468,218.23,461.833,217.821L461.833,217.821z"/>
<path fill-rule="evenodd" clip-rule="evenodd" fill="none" stroke="#000000" stroke-width="0.504" stroke-miterlimit="2.4142" d="     M449.842,243.721c-1.558-0.389-2.523-1.982-2.105-3.617c0.383-1.563,1.975-2.52,3.544-2.13c1.627,0.402,2.591,2.003,2.204,3.56     C453.07,243.168,451.471,244.13,449.842,243.721L449.842,243.721z"/>
<path fill-rule="evenodd" clip-rule="evenodd" fill="none" stroke="#000000" stroke-width="0.504" stroke-miterlimit="2.4142" d="     M437.852,269.621c-1.564-0.385-2.52-1.986-2.115-3.621c0.396-1.556,1.99-2.511,3.557-2.126c1.62,0.405,2.592,1.999,2.193,3.564     C441.079,269.073,439.484,270.032,437.852,269.621L437.852,269.621z"/>
<path fill-rule="evenodd" clip-rule="evenodd" fill="none" stroke="#000000" stroke-width="0.504" stroke-miterlimit="2.4142" d="     M449.269,272.256c-1.569-0.383-2.524-1.982-2.119-3.618c0.396-1.56,1.993-2.515,3.554-2.13c1.625,0.411,2.592,2.003,2.199,3.567     C452.494,271.706,450.896,272.67,449.269,272.256L449.269,272.256z"/>
<path fill-rule="evenodd" clip-rule="evenodd" fill="none" stroke="#000000" stroke-width="0.504" stroke-miterlimit="2.4142" d="     M437.274,298.156c-1.558-0.389-2.522-1.982-2.106-3.618c0.383-1.563,1.977-2.52,3.545-2.13c1.627,0.403,2.59,2.004,2.205,3.561     C440.502,297.604,438.902,298.564,437.274,298.156L437.274,298.156z"/>
</g></switch>
</svg>