<?xml version="1.0" encoding="utf-8"?>
<!DOCTYPE svg PUBLIC "-//W3C//DTD SVG 1.1//EN" "http://www.w3.org/Graphics/SVG/1.1/DTD/svg11.dtd">
<svg version="1.1" id="Armor" xmlns="http://www.w3.org/2000/svg" xmlns:xlink="http://www.w3.org/1999/xlink" x="0px" y="0px"
	 width="612px" height="792px" viewBox="0 0 612 792" enable-background="new 0 0 612 792" xml:space="preserve">
<switch><g>
<path fill-rule="evenodd" clip-rule="evenodd" fill="none" stroke="#000000" stroke-width="0.504" stroke-miterlimit="2.4142" d="     M462.861,191.259c-1.562-0.395-2.521-1.989-2.114-3.623c0.39-1.561,1.984-2.521,3.548-2.126c1.631,0.402,2.593,2,2.201,3.562     C466.09,190.702,464.489,191.665,462.861,191.259L462.861,191.259z"/>
<path fill-rule="evenodd" clip-rule="evenodd" fill="none" stroke="#000000" stroke-width="0.504" stroke-miterlimit="2.4142" d="     M455.756,195.99c-1.561-0.389-2.525-1.987-2.116-3.618c0.387-1.562,1.989-2.521,3.552-2.132c1.627,0.405,2.59,2.005,2.2,3.564     C458.982,195.438,457.384,196.396,455.756,195.99L455.756,195.99z"/>
<path fill-rule="evenodd" clip-rule="evenodd" fill="none" stroke="#000000" stroke-width="0.504" stroke-miterlimit="2.4142" d="     M467.172,198.626c-1.561-0.389-2.526-1.987-2.117-3.619c0.387-1.562,1.99-2.521,3.553-2.131c1.626,0.405,2.589,2.005,2.199,3.564     C470.398,198.073,468.799,199.032,467.172,198.626L467.172,198.626z"/>
<path fill-rule="evenodd" clip-rule="evenodd" fill="none" stroke="#000000" stroke-width="0.504" stroke-miterlimit="2.4142" d="     M460.068,203.357c-1.56-0.391-2.526-1.987-2.118-3.622c0.392-1.561,1.989-2.52,3.553-2.13c1.627,0.406,2.588,2.004,2.199,3.563     C463.292,202.805,461.694,203.763,460.068,203.357L460.068,203.357z"/>
<path fill-rule="evenodd" clip-rule="evenodd" fill="none" stroke="#000000" stroke-width="0.504" stroke-miterlimit="2.4142" d="     M452.958,208.086c-1.563-0.388-2.517-1.984-2.11-3.619c0.387-1.562,1.988-2.518,3.552-2.13c1.625,0.409,2.585,2.005,2.195,3.564     C456.193,207.535,454.593,208.495,452.958,208.086L452.958,208.086z"/>
<path fill-rule="evenodd" clip-rule="evenodd" fill="none" stroke="#000000" stroke-width="0.504" stroke-miterlimit="2.4142" d="     M464.374,210.722c-1.563-0.389-2.518-1.984-2.111-3.619c0.388-1.563,1.988-2.518,3.552-2.131     c1.626,0.409,2.585,2.005,2.195,3.564C467.608,210.171,466.008,211.131,464.374,210.722L464.374,210.722z"/>
<path fill-rule="evenodd" clip-rule="evenodd" fill="none" stroke="#000000" stroke-width="0.504" stroke-miterlimit="2.4142" d="     M457.273,215.454c-1.564-0.392-2.521-1.985-2.113-3.623c0.391-1.557,1.984-2.518,3.55-2.13c1.623,0.408,2.587,2.004,2.201,3.564     C460.506,214.902,458.906,215.857,457.273,215.454L457.273,215.454z"/>
<path fill-rule="evenodd" clip-rule="evenodd" fill="none" stroke="#000000" stroke-width="0.504" stroke-miterlimit="2.4142" d="     M450.174,220.184c-1.563-0.39-2.52-1.984-2.119-3.62c0.393-1.562,1.987-2.518,3.548-2.131c1.633,0.409,2.593,2.001,2.202,3.564     C453.399,219.631,451.803,220.591,450.174,220.184L450.174,220.184z"/>
<path fill-rule="evenodd" clip-rule="evenodd" fill="none" stroke="#000000" stroke-width="0.504" stroke-miterlimit="2.4142" d="     M461.587,222.819c-1.563-0.391-2.52-1.985-2.119-3.621c0.394-1.562,1.987-2.517,3.548-2.131c1.633,0.41,2.594,2.001,2.202,3.565     C464.813,222.266,463.216,223.226,461.587,222.819L461.587,222.819z"/>
<path fill-rule="evenodd" clip-rule="evenodd" fill="none" stroke="#000000" stroke-width="0.504" stroke-miterlimit="2.4142" d="     M454.481,227.55c-1.563-0.39-2.521-1.987-2.113-3.618c0.394-1.563,1.985-2.521,3.549-2.132c1.627,0.406,2.588,2.002,2.197,3.564     C457.711,226.995,456.113,227.956,454.481,227.55L454.481,227.55z"/>
<path fill-rule="evenodd" clip-rule="evenodd" fill="none" stroke="#000000" stroke-width="0.504" stroke-miterlimit="2.4142" d="     M447.372,232.277c-1.558-0.385-2.519-1.982-2.11-3.615c0.391-1.561,1.984-2.522,3.549-2.131c1.629,0.404,2.591,2.004,2.2,3.565     C450.603,231.73,449.008,232.689,447.372,232.277L447.372,232.277z"/>
<path fill-rule="evenodd" clip-rule="evenodd" fill="none" stroke="#000000" stroke-width="0.504" stroke-miterlimit="2.4142" d="     M458.788,234.913c-1.559-0.386-2.519-1.982-2.111-3.615c0.391-1.561,1.984-2.522,3.549-2.131c1.629,0.404,2.592,2.004,2.2,3.565     C462.019,234.366,460.423,235.325,458.788,234.913L458.788,234.913z"/>
<path fill-rule="evenodd" clip-rule="evenodd" fill="none" stroke="#000000" stroke-width="0.504" stroke-miterlimit="2.4142" d="     M451.685,239.644c-1.563-0.386-2.52-1.982-2.108-3.613c0.388-1.563,1.983-2.523,3.546-2.133c1.63,0.404,2.59,2.006,2.197,3.566     C454.916,239.097,453.317,240.056,451.685,239.644L451.685,239.644z"/>
<path fill-rule="evenodd" clip-rule="evenodd" fill="none" stroke="#000000" stroke-width="0.504" stroke-miterlimit="2.4142" d="     M444.582,244.376c-1.563-0.39-2.521-1.985-2.113-3.618c0.394-1.563,1.985-2.522,3.548-2.131c1.633,0.405,2.592,2.003,2.2,3.563     C447.813,243.824,446.216,244.784,444.582,244.376L444.582,244.376z"/>
<path fill-rule="evenodd" clip-rule="evenodd" fill="none" stroke="#000000" stroke-width="0.504" stroke-miterlimit="2.4142" d="     M455.998,247.012c-1.564-0.39-2.522-1.986-2.113-3.618c0.393-1.564,1.985-2.523,3.548-2.131c1.632,0.404,2.591,2.002,2.2,3.563     C459.229,246.46,457.631,247.42,455.998,247.012L455.998,247.012z"/>
<path fill-rule="evenodd" clip-rule="evenodd" fill="none" stroke="#000000" stroke-width="0.504" stroke-miterlimit="2.4142" d="     M448.891,251.741c-1.562-0.391-2.515-1.984-2.108-3.614c0.389-1.563,1.984-2.526,3.547-2.133c1.633,0.404,2.59,2.002,2.201,3.562     C452.127,251.192,450.525,252.15,448.891,251.741L448.891,251.741z"/>
<path fill-rule="evenodd" clip-rule="evenodd" fill="none" stroke="#000000" stroke-width="0.504" stroke-miterlimit="2.4142" d="     M441.787,256.472c-1.562-0.387-2.52-1.983-2.111-3.616c0.394-1.563,1.986-2.521,3.547-2.132c1.631,0.408,2.593,2.005,2.199,3.565     C445.018,255.921,443.418,256.882,441.787,256.472L441.787,256.472z"/>
<path fill-rule="evenodd" clip-rule="evenodd" fill="none" stroke="#000000" stroke-width="0.504" stroke-miterlimit="2.4142" d="     M453.204,259.107c-1.563-0.387-2.52-1.983-2.112-3.616c0.394-1.563,1.986-2.521,3.548-2.132c1.631,0.407,2.592,2.005,2.199,3.565     C456.434,258.557,454.834,259.518,453.204,259.107L453.204,259.107z"/>
<path fill-rule="evenodd" clip-rule="evenodd" fill="none" stroke="#000000" stroke-width="0.504" stroke-miterlimit="2.4142" d="     M446.099,263.839c-1.563-0.389-2.515-1.983-2.108-3.617c0.388-1.564,1.984-2.521,3.547-2.131     c1.632,0.406,2.589,2.004,2.199,3.563C449.328,263.287,447.733,264.247,446.099,263.839L446.099,263.839z"/>
<path fill-rule="evenodd" clip-rule="evenodd" fill="none" stroke="#000000" stroke-width="0.504" stroke-miterlimit="2.4142" d="     M438.996,268.57c-1.562-0.389-2.523-1.985-2.113-3.617c0.39-1.565,1.986-2.52,3.55-2.133c1.63,0.404,2.592,2.005,2.2,3.563     C442.229,268.017,440.629,268.978,438.996,268.57L438.996,268.57z"/>
<path fill-rule="evenodd" clip-rule="evenodd" fill="none" stroke="#000000" stroke-width="0.504" stroke-miterlimit="2.4142" d="     M450.411,271.205c-1.562-0.388-2.523-1.985-2.114-3.616c0.391-1.566,1.987-2.52,3.55-2.133c1.631,0.403,2.593,2.004,2.201,3.563     C453.645,270.652,452.044,271.613,450.411,271.205L450.411,271.205z"/>
<path fill-rule="evenodd" clip-rule="evenodd" fill="none" stroke="#000000" stroke-width="0.504" stroke-miterlimit="2.4142" d="     M443.306,275.936c-1.561-0.388-2.515-1.985-2.111-3.616c0.391-1.564,1.989-2.522,3.548-2.132     c1.634,0.405,2.595,2.005,2.203,3.563C446.537,275.385,444.941,276.345,443.306,275.936L443.306,275.936z"/>
<path fill-rule="evenodd" clip-rule="evenodd" fill="none" stroke="#000000" stroke-width="0.504" stroke-miterlimit="2.4142" d="     M436.205,280.666c-1.563-0.387-2.521-1.984-2.114-3.618c0.391-1.561,1.987-2.519,3.552-2.128     c1.631,0.405,2.592,2.003,2.199,3.563C439.436,280.115,437.84,281.076,436.205,280.666L436.205,280.666z"/>
<path fill-rule="evenodd" clip-rule="evenodd" fill="none" stroke="#000000" stroke-width="0.504" stroke-miterlimit="2.4142" d="     M447.617,283.301c-1.562-0.387-2.521-1.984-2.114-3.618c0.391-1.56,1.987-2.519,3.553-2.128c1.63,0.405,2.592,2.003,2.198,3.564     C450.848,282.75,449.252,283.711,447.617,283.301L447.617,283.301z"/>
<path fill-rule="evenodd" clip-rule="evenodd" fill="none" stroke="#000000" stroke-width="0.504" stroke-miterlimit="2.4142" d="     M440.517,288.034c-1.563-0.389-2.524-1.984-2.113-3.619c0.389-1.562,1.983-2.519,3.549-2.132     c1.627,0.406,2.592,2.006,2.202,3.565C443.743,287.481,442.147,288.441,440.517,288.034L440.517,288.034z"/>
<path fill-rule="evenodd" clip-rule="evenodd" fill="none" stroke="#000000" stroke-width="0.504" stroke-miterlimit="2.4142" d="     M433.412,292.764c-1.563-0.388-2.521-1.987-2.113-3.62c0.39-1.561,1.985-2.518,3.549-2.129c1.629,0.405,2.594,2,2.2,3.563     C436.642,292.213,435.045,293.173,433.412,292.764L433.412,292.764z"/>
<path fill-rule="evenodd" clip-rule="evenodd" fill="none" stroke="#000000" stroke-width="0.504" stroke-miterlimit="2.4142" d="     M444.826,295.398c-1.563-0.388-2.522-1.987-2.114-3.62c0.391-1.56,1.986-2.518,3.55-2.129c1.628,0.405,2.593,2,2.199,3.563     C448.055,294.848,446.458,295.808,444.826,295.398L444.826,295.398z"/>
<path fill-rule="evenodd" clip-rule="evenodd" fill="none" stroke="#000000" stroke-width="0.504" stroke-miterlimit="2.4142" d="     M437.724,300.131c-1.563-0.389-2.523-1.984-2.112-3.618c0.388-1.563,1.982-2.52,3.549-2.132c1.627,0.405,2.592,2.006,2.202,3.564     C440.95,299.578,439.354,300.538,437.724,300.131L437.724,300.131z"/>
</g></switch>
</svg>