<?xml version="1.0" encoding="utf-8"?>
<!DOCTYPE svg PUBLIC "-//W3C//DTD SVG 1.1//EN" "http://www.w3.org/Graphics/SVG/1.1/DTD/svg11.dtd">
<svg version="1.1" id="Armor" xmlns="http://www.w3.org/2000/svg" xmlns:xlink="http://www.w3.org/1999/xlink" x="0px" y="0px"
	 width="612px" height="792px" viewBox="0 0 612 792" enable-background="new 0 0 612 792" xml:space="preserve">
<switch><g>
<path fill-rule="evenodd" clip-rule="evenodd" fill="none" stroke="#000000" stroke-width="0.504" stroke-miterlimit="2.4142" d="     M457.101,188.898c-1.562-0.389-2.521-1.985-2.113-3.615c0.396-1.566,1.988-2.525,3.55-2.134c1.635,0.405,2.59,2.002,2.199,3.562     C460.337,188.351,458.737,189.307,457.101,188.898L457.101,188.898z"/>
<path fill-rule="evenodd" clip-rule="evenodd" fill="none" stroke="#000000" stroke-width="0.504" stroke-miterlimit="2.4142" d="     M468.518,191.535c-1.564-0.389-2.523-1.986-2.113-3.617c0.389-1.565,1.984-2.523,3.545-2.134     c1.635,0.406,2.594,2.002,2.205,3.563C471.752,190.986,470.152,191.942,468.518,191.535L468.518,191.535z"/>
<path fill-rule="evenodd" clip-rule="evenodd" fill="none" stroke="#000000" stroke-width="0.504" stroke-miterlimit="2.4142" d="     M459.66,203.823c-1.559-0.388-2.515-1.983-2.104-3.612c0.388-1.563,1.985-2.526,3.548-2.135c1.628,0.407,2.588,2.004,2.201,3.56     C462.9,203.278,461.3,204.232,459.66,203.823L459.66,203.823z"/>
<path fill-rule="evenodd" clip-rule="evenodd" fill="none" stroke="#000000" stroke-width="0.504" stroke-miterlimit="2.4142" d="     M450.815,216.116c-1.563-0.391-2.521-1.984-2.111-3.617c0.392-1.564,1.985-2.521,3.545-2.135     c1.636,0.408,2.595,2.006,2.202,3.569C454.045,215.563,452.443,216.526,450.815,216.116L450.815,216.116z"/>
<path fill-rule="evenodd" clip-rule="evenodd" fill="none" stroke="#000000" stroke-width="0.504" stroke-miterlimit="2.4142" d="     M462.234,218.751c-1.566-0.385-2.521-1.982-2.116-3.61c0.395-1.566,1.985-2.527,3.546-2.138c1.633,0.409,2.598,2.01,2.203,3.567     C465.464,218.201,463.862,219.166,462.234,218.751L462.234,218.751z"/>
<path fill-rule="evenodd" clip-rule="evenodd" fill="none" stroke="#000000" stroke-width="0.504" stroke-miterlimit="2.4142" d="     M453.383,231.041c-1.564-0.389-2.52-1.984-2.109-3.616c0.388-1.566,1.984-2.522,3.548-2.131c1.63,0.406,2.587,2.004,2.198,3.565     C456.611,230.49,455.02,231.452,453.383,231.041L453.383,231.041z"/>
<path fill-rule="evenodd" clip-rule="evenodd" fill="none" stroke="#000000" stroke-width="0.504" stroke-miterlimit="2.4142" d="     M444.535,243.334c-1.561-0.389-2.522-1.983-2.115-3.617c0.392-1.565,1.989-2.52,3.556-2.132c1.627,0.405,2.591,2.005,2.196,3.562     C447.771,242.779,446.171,243.74,444.535,243.334L444.535,243.334z"/>
<path fill-rule="evenodd" clip-rule="evenodd" fill="none" stroke="#000000" stroke-width="0.504" stroke-miterlimit="2.4142" d="     M455.949,245.969c-1.563-0.389-2.522-1.986-2.115-3.617c0.391-1.563,1.986-2.52,3.55-2.131c1.631,0.402,2.591,2.003,2.2,3.563     C459.185,245.417,457.581,246.378,455.949,245.969L455.949,245.969z"/>
<path fill-rule="evenodd" clip-rule="evenodd" fill="none" stroke="#000000" stroke-width="0.504" stroke-miterlimit="2.4142" d="     M447.098,258.259c-1.559-0.392-2.51-1.986-2.111-3.617c0.391-1.564,1.99-2.524,3.547-2.131c1.639,0.403,2.596,2.004,2.203,3.562     C450.328,257.707,448.734,258.668,447.098,258.259L447.098,258.259z"/>
<path fill-rule="evenodd" clip-rule="evenodd" fill="none" stroke="#000000" stroke-width="0.504" stroke-miterlimit="2.4142" d="     M438.252,270.55c-1.563-0.387-2.519-1.985-2.117-3.62c0.396-1.557,1.991-2.517,3.557-2.126c1.631,0.407,2.593,2.002,2.2,3.564     C441.482,270,439.885,270.961,438.252,270.55L438.252,270.55z"/>
<path fill-rule="evenodd" clip-rule="evenodd" fill="none" stroke="#000000" stroke-width="0.504" stroke-miterlimit="2.4142" d="     M449.665,273.187c-1.563-0.389-2.522-1.985-2.114-3.617c0.389-1.559,1.988-2.52,3.553-2.131c1.628,0.407,2.592,2.005,2.195,3.565     C452.896,272.635,451.299,273.597,449.665,273.187L449.665,273.187z"/>
<path fill-rule="evenodd" clip-rule="evenodd" fill="none" stroke="#000000" stroke-width="0.504" stroke-miterlimit="2.4142" d="     M440.818,285.478c-1.563-0.391-2.525-1.985-2.11-3.62c0.384-1.563,1.978-2.521,3.544-2.131c1.629,0.404,2.592,2.003,2.206,3.563     C444.045,284.922,442.446,285.885,440.818,285.478L440.818,285.478z"/>
<path fill-rule="evenodd" clip-rule="evenodd" fill="none" stroke="#000000" stroke-width="0.504" stroke-miterlimit="2.4142" d="     M431.965,297.768c-1.561-0.386-2.52-1.986-2.112-3.622c0.396-1.556,1.987-2.513,3.556-2.126c1.622,0.404,2.59,1.998,2.191,3.563     C435.196,297.22,433.6,298.178,431.965,297.768L431.965,297.768z"/>
<path fill-rule="evenodd" clip-rule="evenodd" fill="none" stroke="#000000" stroke-width="0.504" stroke-miterlimit="2.4142" d="     M443.383,300.403c-1.564-0.382-2.524-1.982-2.116-3.617c0.392-1.56,1.989-2.517,3.55-2.13c1.629,0.409,2.593,2.001,2.201,3.565     C446.609,299.853,445.01,300.814,443.383,300.403L443.383,300.403z"/>
</g></switch>
</svg>