<?xml version="1.0" encoding="utf-8"?>
<!DOCTYPE svg PUBLIC "-//W3C//DTD SVG 1.1//EN" "http://www.w3.org/Graphics/SVG/1.1/DTD/svg11.dtd">
<svg version="1.1" id="Armor" xmlns="http://www.w3.org/2000/svg" xmlns:xlink="http://www.w3.org/1999/xlink" x="0px" y="0px"
	 width="612px" height="792px" viewBox="0 0 612 792" enable-background="new 0 0 612 792" xml:space="preserve">
<switch><g>
<path fill="none" stroke="#000000" stroke-width="0.504" stroke-miterlimit="2.4142" d="M425.838,80.887     c-1.668-0.144-2.926-1.651-2.781-3.311c0.15-1.73,1.646-2.925,3.314-2.782c1.727,0.152,2.996,1.592,2.846,3.321     C429.076,79.774,427.564,81.04,425.838,80.887L425.838,80.887z"/>
<path fill="none" stroke="#000000" stroke-width="0.504" stroke-miterlimit="2.4142" d="M419.508,88.159     c-1.664-0.146-2.923-1.652-2.779-3.313c0.152-1.73,1.65-2.925,3.314-2.782c1.725,0.153,3,1.591,2.851,3.32     C422.751,87.045,421.236,88.31,419.508,88.159L419.508,88.159z"/>
<path fill="none" stroke="#000000" stroke-width="0.504" stroke-miterlimit="2.4142" d="M430.805,89.146     c-1.664-0.144-2.928-1.648-2.78-3.31c0.151-1.729,1.649-2.925,3.313-2.781c1.729,0.152,2.998,1.589,2.846,3.319     C434.041,88.035,432.531,89.299,430.805,89.146L430.805,89.146z"/>
<path fill="none" stroke="#000000" stroke-width="0.504" stroke-miterlimit="2.4142" d="M424.473,96.419     c-1.661-0.146-2.92-1.652-2.773-3.313c0.15-1.732,1.647-2.926,3.313-2.782c1.729,0.152,2.997,1.592,2.846,3.321     C427.709,95.304,426.205,96.571,424.473,96.419L424.473,96.419z"/>
<path fill="none" stroke="#000000" stroke-width="0.504" stroke-miterlimit="2.4142" d="M418.146,103.688     c-1.66-0.146-2.921-1.65-2.775-3.31c0.152-1.729,1.65-2.926,3.311-2.78c1.732,0.151,3.004,1.589,2.853,3.318     C421.383,102.579,419.879,103.842,418.146,103.688L418.146,103.688z"/>
<path fill="none" stroke="#000000" stroke-width="0.504" stroke-miterlimit="2.4142" d="M429.445,104.677     c-1.662-0.144-2.924-1.652-2.783-3.311c0.154-1.73,1.654-2.925,3.32-2.78c1.727,0.152,2.997,1.589,2.84,3.321     C432.678,103.567,431.176,104.829,429.445,104.677L429.445,104.677z"/>
<path fill="none" stroke="#000000" stroke-width="0.504" stroke-miterlimit="2.4142" d="M423.117,111.95     c-1.661-0.146-2.924-1.653-2.779-3.313c0.155-1.734,1.646-2.928,3.312-2.783c1.731,0.15,3.003,1.589,2.852,3.321     C426.355,110.836,424.844,112.101,423.117,111.95L423.117,111.95z"/>
<path fill="none" stroke="#000000" stroke-width="0.504" stroke-miterlimit="2.4142" d="M416.793,119.219     c-1.665-0.146-2.93-1.65-2.78-3.313c0.149-1.731,1.646-2.925,3.311-2.776c1.729,0.149,3.004,1.582,2.853,3.315     C420.027,118.107,418.516,119.371,416.793,119.219L416.793,119.219z"/>
<path fill="none" stroke="#000000" stroke-width="0.504" stroke-miterlimit="2.4142" d="M428.089,120.209     c-1.666-0.145-2.932-1.652-2.783-3.313c0.149-1.732,1.646-2.925,3.314-2.78c1.728,0.153,2.996,1.587,2.848,3.319     C431.321,119.095,429.813,120.359,428.089,120.209L428.089,120.209z"/>
<path fill="none" stroke="#000000" stroke-width="0.504" stroke-miterlimit="2.4142" d="M421.76,127.479     c-1.666-0.145-2.926-1.649-2.781-3.311c0.153-1.731,1.648-2.925,3.314-2.781c1.727,0.152,2.999,1.589,2.847,3.322     C424.994,126.37,423.49,127.632,421.76,127.479L421.76,127.479z"/>
<path fill="none" stroke="#000000" stroke-width="0.504" stroke-miterlimit="2.4142" d="M415.434,134.752     c-1.668-0.145-2.926-1.651-2.778-3.313c0.147-1.731,1.646-2.926,3.311-2.78c1.728,0.152,3.002,1.587,2.851,3.321     C418.672,133.64,417.16,134.904,415.434,134.752L415.434,134.752z"/>
<path fill="none" stroke="#000000" stroke-width="0.504" stroke-miterlimit="2.4142" d="M426.727,135.74     c-1.664-0.146-2.924-1.651-2.778-3.313c0.149-1.731,1.649-2.926,3.313-2.782c1.726,0.152,2.994,1.588,2.842,3.321     C429.963,134.63,428.457,135.892,426.727,135.74L426.727,135.74z"/>
<path fill="none" stroke="#000000" stroke-width="0.504" stroke-miterlimit="2.4142" d="M420.401,143.012     c-1.665-0.145-2.927-1.65-2.778-3.312c0.152-1.731,1.645-2.926,3.309-2.783c1.729,0.154,3.004,1.591,2.849,3.323     C423.638,141.898,422.126,143.163,420.401,143.012L420.401,143.012z"/>
<path fill="none" stroke="#000000" stroke-width="0.504" stroke-miterlimit="2.4142" d="M414.074,150.283     c-1.667-0.146-2.926-1.652-2.779-3.314c0.15-1.729,1.646-2.925,3.313-2.779c1.727,0.15,3.003,1.589,2.849,3.323     C417.311,149.169,415.803,150.434,414.074,150.283L414.074,150.283z"/>
<path fill="none" stroke="#000000" stroke-width="0.504" stroke-miterlimit="2.4142" d="M425.369,151.271     c-1.662-0.145-2.926-1.648-2.78-3.31c0.153-1.733,1.65-2.928,3.314-2.782c1.729,0.151,2.998,1.587,2.845,3.32     C428.606,150.161,427.101,151.422,425.369,151.271L425.369,151.271z"/>
<path fill="none" stroke="#000000" stroke-width="0.504" stroke-miterlimit="2.4142" d="M419.041,158.542     c-1.662-0.144-2.924-1.651-2.779-3.312c0.154-1.731,1.649-2.925,3.313-2.781c1.727,0.151,3,1.589,2.846,3.32     C422.281,157.43,420.77,158.692,419.041,158.542L419.041,158.542z"/>
<path fill="none" stroke="#000000" stroke-width="0.504" stroke-miterlimit="2.4142" d="M412.713,165.813     c-1.662-0.143-2.921-1.649-2.777-3.311c0.152-1.732,1.652-2.925,3.312-2.78c1.729,0.15,3.004,1.587,2.85,3.32     C415.957,164.702,414.444,165.966,412.713,165.813L412.713,165.813z"/>
<path fill="none" stroke="#000000" stroke-width="0.504" stroke-miterlimit="2.4142" d="M424.008,166.799     c-1.66-0.139-2.923-1.65-2.774-3.31c0.147-1.732,1.649-2.926,3.311-2.777c1.729,0.148,2.998,1.585,2.844,3.318     C427.246,165.688,425.742,166.954,424.008,166.799L424.008,166.799z"/>
<path fill="none" stroke="#000000" stroke-width="0.504" stroke-miterlimit="2.4142" d="M417.683,174.073     c-1.661-0.144-2.925-1.651-2.778-3.313c0.153-1.73,1.648-2.926,3.313-2.781c1.728,0.15,3,1.589,2.847,3.32     C420.923,172.961,419.41,174.224,417.683,174.073L417.683,174.073z"/>
</g></switch>
</svg>