<?xml version="1.0" encoding="utf-8"?>
<!DOCTYPE svg PUBLIC "-//W3C//DTD SVG 1.1//EN" "http://www.w3.org/Graphics/SVG/1.1/DTD/svg11.dtd">
<svg version="1.1" id="Armor" xmlns="http://www.w3.org/2000/svg" xmlns:xlink="http://www.w3.org/1999/xlink" x="0px" y="0px"
	 width="612px" height="792px" viewBox="0 0 612 792" enable-background="new 0 0 612 792" xml:space="preserve">
<switch><g>
<path fill="none" stroke="#000000" stroke-width="0.504" stroke-miterlimit="2.4142" d="M425.74,80.696     c-1.664-0.144-2.925-1.649-2.777-3.31c0.15-1.73,1.646-2.926,3.312-2.785c1.719,0.154,3,1.593,2.848,3.324     C428.978,79.583,427.463,80.85,425.74,80.696L425.74,80.696z"/>
<path fill="none" stroke="#000000" stroke-width="0.504" stroke-miterlimit="2.4142" d="M418.055,103.498     c-1.665-0.145-2.925-1.653-2.777-3.314c0.146-1.729,1.646-2.926,3.313-2.777c1.721,0.148,3.004,1.587,2.846,3.323     C421.291,102.383,419.78,103.648,418.055,103.498L418.055,103.498z"/>
<path fill="none" stroke="#000000" stroke-width="0.504" stroke-miterlimit="2.4142" d="M429.353,104.486     c-1.669-0.142-2.927-1.648-2.779-3.311c0.151-1.734,1.645-2.926,3.311-2.782c1.728,0.152,3.003,1.586,2.851,3.32     C432.592,103.377,431.079,104.637,429.353,104.486L429.353,104.486z"/>
<path fill="none" stroke="#000000" stroke-width="0.504" stroke-miterlimit="2.4142" d="M421.664,127.288     c-1.662-0.143-2.921-1.652-2.778-3.313c0.155-1.729,1.649-2.925,3.313-2.778c1.723,0.147,3.004,1.587,2.845,3.317     C424.907,126.175,423.391,127.438,421.664,127.288L421.664,127.288z"/>
<path fill="none" stroke="#000000" stroke-width="0.504" stroke-miterlimit="2.4142" d="M413.979,150.091     c-1.666-0.144-2.926-1.651-2.779-3.31c0.151-1.735,1.649-2.928,3.311-2.781c1.727,0.146,3.004,1.587,2.853,3.319     C417.221,148.979,415.703,150.242,413.979,150.091L413.979,150.091z"/>
<path fill="none" stroke="#000000" stroke-width="0.504" stroke-miterlimit="2.4142" d="M425.274,151.077     c-1.669-0.137-2.928-1.648-2.776-3.31c0.148-1.731,1.643-2.926,3.312-2.776c1.723,0.147,2.993,1.585,2.85,3.316     C428.51,149.965,427.004,151.231,425.274,151.077L425.274,151.077z"/>
<path fill="none" stroke="#000000" stroke-width="0.504" stroke-miterlimit="2.4142" d="M417.588,173.882     c-1.662-0.143-2.921-1.653-2.779-3.313c0.156-1.729,1.65-2.925,3.314-2.778c1.723,0.148,3.004,1.587,2.844,3.316     C420.831,172.769,419.314,174.032,417.588,173.882L417.588,173.882z"/>
</g></switch>
</svg>