<?xml version="1.0" encoding="utf-8"?>
<!DOCTYPE svg PUBLIC "-//W3C//DTD SVG 1.1//EN" "http://www.w3.org/Graphics/SVG/1.1/DTD/svg11.dtd">
<svg version="1.1" id="Armor" xmlns="http://www.w3.org/2000/svg" xmlns:xlink="http://www.w3.org/1999/xlink" x="0px" y="0px"
	 width="612px" height="792px" viewBox="0 0 612 792" enable-background="new 0 0 612 792" xml:space="preserve">
<switch><g>
<path fill="none" stroke="#000000" stroke-width="0.504" stroke-miterlimit="2.4142" d="M557.223,80.936     c1.662-0.144,2.931-1.652,2.783-3.312c-0.147-1.731-1.652-2.925-3.311-2.779c-1.732,0.15-3.004,1.587-2.852,3.319     C553.99,79.825,555.494,81.087,557.223,80.936L557.223,80.936z"/>
<path fill="none" stroke="#000000" stroke-width="0.504" stroke-miterlimit="2.4142" d="M563.383,86.266     c1.658-0.146,2.928-1.651,2.779-3.312c-0.15-1.73-1.648-2.925-3.313-2.78c-1.729,0.151-3.002,1.589-2.85,3.32     C560.145,85.155,561.656,86.417,563.383,86.266L563.383,86.266z"/>
<path fill="none" stroke="#000000" stroke-width="0.504" stroke-miterlimit="2.4142" d="M552.088,87.254     c1.66-0.146,2.927-1.652,2.779-3.312c-0.15-1.729-1.648-2.925-3.313-2.78c-1.729,0.152-3,1.59-2.85,3.321     C548.852,86.144,550.359,87.406,552.088,87.254L552.088,87.254z"/>
<path fill="none" stroke="#000000" stroke-width="0.504" stroke-miterlimit="2.4142" d="M558.242,92.584     c1.662-0.144,2.929-1.652,2.783-3.312c-0.148-1.731-1.654-2.925-3.312-2.779c-1.731,0.15-3.004,1.587-2.852,3.319     C555.009,91.473,556.514,92.736,558.242,92.584L558.242,92.584z"/>
<path fill="none" stroke="#000000" stroke-width="0.504" stroke-miterlimit="2.4142" d="M564.399,97.915     c1.661-0.144,2.929-1.652,2.782-3.312c-0.148-1.73-1.653-2.925-3.312-2.779c-1.732,0.15-3.004,1.587-2.853,3.319     C561.165,96.803,562.671,98.066,564.399,97.915L564.399,97.915z"/>
<path fill="none" stroke="#000000" stroke-width="0.504" stroke-miterlimit="2.4142" d="M553.104,98.903     c1.662-0.144,2.929-1.652,2.783-3.312c-0.147-1.731-1.654-2.925-3.313-2.779c-1.731,0.15-3,1.587-2.849,3.319     C549.869,97.792,551.374,99.054,553.104,98.903L553.104,98.903z"/>
<path fill="none" stroke="#000000" stroke-width="0.504" stroke-miterlimit="2.4142" d="M559.264,104.234     c1.663-0.145,2.924-1.651,2.78-3.312c-0.151-1.731-1.652-2.925-3.313-2.781c-1.729,0.151-2.999,1.589-2.85,3.32     C556.023,103.121,557.535,104.386,559.264,104.234L559.264,104.234z"/>
<path fill="none" stroke="#000000" stroke-width="0.504" stroke-miterlimit="2.4142" d="M565.422,109.565     c1.662-0.145,2.922-1.651,2.779-3.312c-0.152-1.73-1.652-2.925-3.314-2.781c-1.728,0.151-3,1.59-2.849,3.32     C562.18,108.452,563.691,109.717,565.422,109.565L565.422,109.565z"/>
<path fill="none" stroke="#000000" stroke-width="0.504" stroke-miterlimit="2.4142" d="M554.127,110.551     c1.66-0.144,2.924-1.649,2.779-3.311c-0.152-1.731-1.653-2.924-3.314-2.78c-1.729,0.15-3,1.588-2.848,3.32     C550.887,109.44,552.396,110.705,554.127,110.551L554.127,110.551z"/>
<path fill="none" stroke="#000000" stroke-width="0.504" stroke-miterlimit="2.4142" d="M560.285,115.881     c1.66-0.145,2.921-1.651,2.776-3.312c-0.151-1.73-1.651-2.925-3.313-2.78c-1.73,0.152-2.998,1.589-2.846,3.32     C557.049,114.769,558.553,116.034,560.285,115.881L560.285,115.881z"/>
<path fill="none" stroke="#000000" stroke-width="0.504" stroke-miterlimit="2.4142" d="M566.442,121.211     c1.658-0.145,2.921-1.651,2.776-3.312c-0.151-1.73-1.652-2.925-3.313-2.779c-1.73,0.152-3.001,1.588-2.849,3.319     C563.205,120.1,564.709,121.364,566.442,121.211L566.442,121.211z"/>
<path fill="none" stroke="#000000" stroke-width="0.504" stroke-miterlimit="2.4142" d="M555.145,122.2     c1.659-0.144,2.925-1.651,2.781-3.311c-0.151-1.73-1.653-2.925-3.317-2.78c-1.729,0.152-2.998,1.589-2.845,3.32     C551.909,121.089,553.413,122.353,555.145,122.2L555.145,122.2z"/>
<path fill="none" stroke="#000000" stroke-width="0.504" stroke-miterlimit="2.4142" d="M561.303,127.531     c1.658-0.146,2.924-1.652,2.779-3.313c-0.152-1.731-1.65-2.926-3.313-2.781c-1.729,0.151-3.001,1.59-2.85,3.32     C558.064,126.417,559.573,127.682,561.303,127.531L561.303,127.531z"/>
<path fill="none" stroke="#000000" stroke-width="0.504" stroke-miterlimit="2.4142" d="M567.459,132.861     c1.658-0.146,2.926-1.651,2.779-3.313c-0.152-1.731-1.649-2.926-3.313-2.78c-1.729,0.151-3.003,1.588-2.851,3.319     C564.221,131.749,565.73,133.012,567.459,132.861L567.459,132.861z"/>
<path fill="none" stroke="#000000" stroke-width="0.504" stroke-miterlimit="2.4142" d="M556.164,133.849     c1.658-0.146,2.926-1.651,2.781-3.313c-0.152-1.73-1.652-2.925-3.313-2.779c-1.729,0.151-3.002,1.588-2.852,3.319     C552.926,132.737,554.434,134,556.164,133.849L556.164,133.849z"/>
<path fill="none" stroke="#000000" stroke-width="0.504" stroke-miterlimit="2.4142" d="M562.32,139.179     c1.664-0.146,2.926-1.651,2.778-3.312c-0.149-1.732-1.649-2.926-3.313-2.781c-1.728,0.151-2.996,1.588-2.846,3.321     C559.084,138.067,560.59,139.331,562.32,139.179L562.32,139.179z"/>
<path fill="none" stroke="#000000" stroke-width="0.504" stroke-miterlimit="2.4142" d="M568.479,144.51     c1.662-0.146,2.926-1.651,2.777-3.312c-0.147-1.733-1.65-2.927-3.313-2.782c-1.728,0.151-2.998,1.588-2.849,3.322     C565.239,143.398,566.748,144.662,568.479,144.51L568.479,144.51z"/>
<path fill="none" stroke="#000000" stroke-width="0.504" stroke-miterlimit="2.4142" d="M557.184,145.497     c1.66-0.145,2.926-1.649,2.779-3.31c-0.15-1.732-1.652-2.927-3.313-2.782c-1.728,0.151-2.998,1.588-2.847,3.322     C553.946,144.386,555.453,145.649,557.184,145.497L557.184,145.497z"/>
<path fill="none" stroke="#000000" stroke-width="0.504" stroke-miterlimit="2.4142" d="M563.34,150.827     c1.662-0.145,2.926-1.65,2.779-3.311c-0.151-1.731-1.65-2.926-3.313-2.781c-1.729,0.151-3,1.589-2.846,3.321     C560.104,149.714,561.611,150.978,563.34,150.827L563.34,150.827z"/>
<path fill="none" stroke="#000000" stroke-width="0.504" stroke-miterlimit="2.4142" d="M569.496,156.158     c1.663-0.145,2.926-1.651,2.78-3.312c-0.151-1.731-1.65-2.926-3.313-2.781c-1.729,0.151-3.001,1.589-2.848,3.322     C566.26,155.044,567.768,156.308,569.496,156.158L569.496,156.158z"/>
<path fill="none" stroke="#000000" stroke-width="0.504" stroke-miterlimit="2.4142" d="M558.201,157.145     c1.66-0.145,2.926-1.65,2.781-3.311c-0.153-1.731-1.653-2.926-3.315-2.781c-1.729,0.151-3.001,1.588-2.845,3.32     C554.963,156.033,556.471,157.296,558.201,157.145L558.201,157.145z"/>
<path fill="none" stroke="#000000" stroke-width="0.504" stroke-miterlimit="2.4142" d="M564.359,162.475     c1.659-0.144,2.924-1.651,2.778-3.311c-0.151-1.731-1.651-2.925-3.313-2.78c-1.728,0.151-2.999,1.588-2.847,3.32     C561.121,161.363,562.629,162.626,564.359,162.475L564.359,162.475z"/>
<path fill="none" stroke="#000000" stroke-width="0.504" stroke-miterlimit="2.4142" d="M570.518,167.805     c1.66-0.144,2.923-1.651,2.777-3.311c-0.15-1.731-1.652-2.925-3.313-2.78c-1.728,0.151-3,1.588-2.849,3.32     C567.276,166.693,568.785,167.958,570.518,167.805L570.518,167.805z"/>
<path fill="none" stroke="#000000" stroke-width="0.504" stroke-miterlimit="2.4142" d="M559.223,168.793     c1.66-0.143,2.924-1.651,2.777-3.311c-0.148-1.732-1.652-2.925-3.313-2.78c-1.729,0.151-2.998,1.588-2.849,3.319     C555.982,167.681,557.49,168.946,559.223,168.793L559.223,168.793z"/>
<path fill="none" stroke="#000000" stroke-width="0.504" stroke-miterlimit="2.4142" d="M565.379,174.124     c1.66-0.144,2.923-1.651,2.779-3.311c-0.152-1.732-1.652-2.925-3.314-2.78c-1.727,0.151-2.998,1.588-2.846,3.32     C562.14,173.011,563.646,174.275,565.379,174.124L565.379,174.124z"/>
</g></switch>
</svg>