<?xml version="1.0" encoding="utf-8"?>
<!DOCTYPE svg PUBLIC "-//W3C//DTD SVG 1.1//EN" "http://www.w3.org/Graphics/SVG/1.1/DTD/svg11.dtd">
<svg version="1.1" id="Armor" xmlns="http://www.w3.org/2000/svg" xmlns:xlink="http://www.w3.org/1999/xlink" x="0px" y="0px"
	 width="612px" height="792px" viewBox="0 0 612 792" enable-background="new 0 0 612 792" xml:space="preserve">
<switch><g>
<path fill-rule="evenodd" clip-rule="evenodd" fill="none" stroke="#000000" stroke-width="0.504" stroke-miterlimit="2.4142" d="     M519.341,189.286c1.554-0.391,2.511-1.984,2.109-3.616c-0.394-1.564-1.993-2.523-3.547-2.131     c-1.636,0.401-2.596,2.006-2.202,3.56C516.107,188.735,517.702,189.695,519.341,189.286L519.341,189.286z"/>
<path fill-rule="evenodd" clip-rule="evenodd" fill="none" stroke="#000000" stroke-width="0.504" stroke-miterlimit="2.4142" d="     M533.419,224.259c1.563-0.388,2.519-1.985,2.119-3.621c-0.4-1.558-1.992-2.516-3.556-2.125c-1.632,0.407-2.597,2.002-2.202,3.563     C530.189,223.708,531.792,224.669,533.419,224.259L533.419,224.259z"/>
<path fill-rule="evenodd" clip-rule="evenodd" fill="none" stroke="#000000" stroke-width="0.504" stroke-miterlimit="2.4142" d="     M522.009,226.895c1.563-0.388,2.521-1.986,2.11-3.618c-0.384-1.56-1.989-2.52-3.547-2.131c-1.632,0.408-2.594,2.005-2.199,3.566     C518.779,226.343,520.373,227.304,522.009,226.895L522.009,226.895z"/>
<path fill-rule="evenodd" clip-rule="evenodd" fill="none" stroke="#000000" stroke-width="0.504" stroke-miterlimit="2.4142" d="     M536.094,261.867c1.559-0.389,2.523-1.982,2.105-3.617c-0.383-1.563-1.975-2.52-3.545-2.13c-1.625,0.402-2.59,2.003-2.203,3.56     C532.865,261.314,534.465,262.276,536.094,261.867L536.094,261.867z"/>
<path fill-rule="evenodd" clip-rule="evenodd" fill="none" stroke="#000000" stroke-width="0.504" stroke-miterlimit="2.4142" d="     M550.179,296.839c1.565-0.385,2.519-1.985,2.115-3.621c-0.397-1.555-1.991-2.51-3.556-2.125     c-1.621,0.405-2.593,1.999-2.194,3.564C546.951,296.292,548.546,297.251,550.179,296.839L550.179,296.839z"/>
<path fill-rule="evenodd" clip-rule="evenodd" fill="none" stroke="#000000" stroke-width="0.504" stroke-miterlimit="2.4142" d="     M538.762,299.476c1.57-0.384,2.524-1.983,2.119-3.619c-0.396-1.559-1.993-2.514-3.553-2.13c-1.626,0.411-2.593,2.003-2.201,3.567     C535.536,298.925,537.134,299.889,538.762,299.476L538.762,299.476z"/>
</g></switch>
</svg>