<?xml version="1.0" encoding="utf-8"?>
<!DOCTYPE svg PUBLIC "-//W3C//DTD SVG 1.1//EN" "http://www.w3.org/Graphics/SVG/1.1/DTD/svg11.dtd">
<svg version="1.1" id="Armor" xmlns="http://www.w3.org/2000/svg" xmlns:xlink="http://www.w3.org/1999/xlink" x="0px" y="0px"
	 width="612px" height="792px" viewBox="0 0 612 792" enable-background="new 0 0 612 792" xml:space="preserve">
<switch><g>
<path fill-rule="evenodd" clip-rule="evenodd" fill="none" stroke="#000000" stroke-width="0.504" stroke-miterlimit="2.4142" d="     M458.252,188.693c-1.558-0.392-2.521-1.986-2.109-3.619c0.388-1.563,1.98-2.523,3.544-2.132c1.632,0.404,2.593,2.003,2.2,3.563     C461.483,188.14,459.884,189.1,458.252,188.693L458.252,188.693z"/>
<path fill-rule="evenodd" clip-rule="evenodd" fill="none" stroke="#000000" stroke-width="0.504" stroke-miterlimit="2.4142" d="     M469.668,191.329c-1.561-0.393-2.523-1.987-2.111-3.62c0.386-1.563,1.98-2.522,3.545-2.131c1.632,0.404,2.59,2.002,2.199,3.564     C472.896,190.774,471.297,191.734,469.668,191.329L469.668,191.329z"/>
<path fill-rule="evenodd" clip-rule="evenodd" fill="none" stroke="#000000" stroke-width="0.504" stroke-miterlimit="2.4142" d="     M462.828,194.586c-1.563-0.388-2.523-1.984-2.113-3.617c0.39-1.562,1.985-2.521,3.548-2.13c1.63,0.404,2.591,2,2.199,3.563     C466.056,194.035,464.458,194.995,462.828,194.586L462.828,194.586z"/>
<path fill-rule="evenodd" clip-rule="evenodd" fill="none" stroke="#000000" stroke-width="0.504" stroke-miterlimit="2.4142" d="     M456.131,197.879c-1.557-0.392-2.52-1.986-2.109-3.619c0.389-1.562,1.981-2.523,3.545-2.131c1.631,0.403,2.592,2.003,2.2,3.563     C459.363,197.325,457.763,198.286,456.131,197.879L456.131,197.879z"/>
<path fill-rule="evenodd" clip-rule="evenodd" fill="none" stroke="#000000" stroke-width="0.504" stroke-miterlimit="2.4142" d="     M467.547,200.515c-1.561-0.393-2.523-1.987-2.111-3.62c0.386-1.563,1.98-2.522,3.545-2.131c1.633,0.404,2.59,2.002,2.199,3.564     C470.774,199.96,469.176,200.92,467.547,200.515L467.547,200.515z"/>
<path fill-rule="evenodd" clip-rule="evenodd" fill="none" stroke="#000000" stroke-width="0.504" stroke-miterlimit="2.4142" d="     M460.707,203.774c-1.559-0.393-2.522-1.987-2.108-3.62c0.384-1.563,1.979-2.523,3.546-2.132c1.627,0.405,2.588,2.003,2.195,3.564     C463.939,203.221,462.339,204.179,460.707,203.774L460.707,203.774z"/>
<path fill-rule="evenodd" clip-rule="evenodd" fill="none" stroke="#000000" stroke-width="0.504" stroke-miterlimit="2.4142" d="     M453.869,207.031c-1.561-0.392-2.521-1.985-2.115-3.62c0.393-1.562,1.988-2.52,3.549-2.129c1.633,0.404,2.592,2.002,2.201,3.563     C457.1,206.477,455.498,207.436,453.869,207.031L453.869,207.031z"/>
<path fill-rule="evenodd" clip-rule="evenodd" fill="none" stroke="#000000" stroke-width="0.504" stroke-miterlimit="2.4142" d="     M465.285,209.668c-1.563-0.392-2.521-1.988-2.115-3.621c0.391-1.562,1.983-2.521,3.548-2.129     c1.632,0.403,2.591,2.001,2.202,3.563C468.513,209.112,466.912,210.072,465.285,209.668L465.285,209.668z"/>
<path fill-rule="evenodd" clip-rule="evenodd" fill="none" stroke="#000000" stroke-width="0.504" stroke-miterlimit="2.4142" d="     M458.587,212.958c-1.563-0.391-2.524-1.987-2.115-3.621c0.39-1.562,1.983-2.518,3.55-2.127c1.631,0.404,2.589,2.001,2.2,3.563     C461.813,212.404,460.215,213.363,458.587,212.958L458.587,212.958z"/>
<path fill-rule="evenodd" clip-rule="evenodd" fill="none" stroke="#000000" stroke-width="0.504" stroke-miterlimit="2.4142" d="     M451.607,216.187c-1.559-0.389-2.522-1.986-2.115-3.622c0.389-1.562,1.988-2.519,3.55-2.13c1.631,0.406,2.589,2.005,2.202,3.564     C454.831,215.633,453.237,216.591,451.607,216.187L451.607,216.187z"/>
<path fill-rule="evenodd" clip-rule="evenodd" fill="none" stroke="#000000" stroke-width="0.504" stroke-miterlimit="2.4142" d="     M463.021,218.821c-1.562-0.389-2.524-1.987-2.117-3.62c0.389-1.561,1.988-2.521,3.552-2.13c1.628,0.406,2.588,2.005,2.2,3.564     C466.248,218.269,464.65,219.229,463.021,218.821L463.021,218.821z"/>
<path fill-rule="evenodd" clip-rule="evenodd" fill="none" stroke="#000000" stroke-width="0.504" stroke-miterlimit="2.4142" d="     M456.466,222.146c-1.561-0.387-2.526-1.986-2.114-3.62c0.387-1.561,1.983-2.52,3.548-2.132c1.628,0.407,2.589,2.006,2.202,3.565     C459.69,221.594,458.093,222.553,456.466,222.146L456.466,222.146z"/>
<path fill-rule="evenodd" clip-rule="evenodd" fill="none" stroke="#000000" stroke-width="0.504" stroke-miterlimit="2.4142" d="     M449.343,225.338c-1.562-0.392-2.521-1.986-2.114-3.62c0.39-1.561,1.988-2.521,3.552-2.129c1.628,0.406,2.588,1.999,2.198,3.561     C452.572,224.786,450.977,225.743,449.343,225.338L449.343,225.338z"/>
<path fill-rule="evenodd" clip-rule="evenodd" fill="none" stroke="#000000" stroke-width="0.504" stroke-miterlimit="2.4142" d="     M460.756,227.973c-1.564-0.39-2.52-1.984-2.113-3.62c0.389-1.561,1.988-2.519,3.551-2.129c1.627,0.406,2.586,2.001,2.198,3.562     C463.986,227.421,462.392,228.379,460.756,227.973L460.756,227.973z"/>
<path fill-rule="evenodd" clip-rule="evenodd" fill="none" stroke="#000000" stroke-width="0.504" stroke-miterlimit="2.4142" d="     M454.346,231.331c-1.566-0.395-2.524-1.988-2.116-3.623c0.39-1.56,1.987-2.521,3.55-2.129c1.627,0.405,2.589,2.001,2.201,3.563     C457.574,230.777,455.977,231.734,454.346,231.331L454.346,231.331z"/>
<path fill-rule="evenodd" clip-rule="evenodd" fill="none" stroke="#000000" stroke-width="0.504" stroke-miterlimit="2.4142" d="     M447.082,234.492c-1.559-0.393-2.52-1.987-2.116-3.62c0.393-1.562,1.987-2.521,3.55-2.132c1.631,0.406,2.592,2.001,2.201,3.564     C450.312,233.938,448.715,234.898,447.082,234.492L447.082,234.492z"/>
<path fill-rule="evenodd" clip-rule="evenodd" fill="none" stroke="#000000" stroke-width="0.504" stroke-miterlimit="2.4142" d="     M458.498,237.127c-1.561-0.388-2.522-1.985-2.119-3.619c0.395-1.563,1.987-2.519,3.55-2.132c1.631,0.408,2.592,2.001,2.202,3.564     C461.727,236.574,460.129,237.536,458.498,237.127L458.498,237.127z"/>
<path fill-rule="evenodd" clip-rule="evenodd" fill="none" stroke="#000000" stroke-width="0.504" stroke-miterlimit="2.4142" d="     M451.659,240.387c-1.563-0.391-2.523-1.988-2.116-3.62c0.393-1.563,1.986-2.521,3.549-2.131c1.629,0.405,2.59,2.001,2.2,3.564     C454.888,239.831,453.289,240.792,451.659,240.387L451.659,240.387z"/>
<path fill-rule="evenodd" clip-rule="evenodd" fill="none" stroke="#000000" stroke-width="0.504" stroke-miterlimit="2.4142" d="     M444.816,243.642c-1.563-0.387-2.52-1.982-2.11-3.617c0.389-1.56,1.987-2.52,3.547-2.129c1.628,0.405,2.593,2.005,2.199,3.564     C448.045,243.093,446.45,244.054,444.816,243.642L444.816,243.642z"/>
<path fill-rule="evenodd" clip-rule="evenodd" fill="none" stroke="#000000" stroke-width="0.504" stroke-miterlimit="2.4142" d="     M456.229,246.278c-1.56-0.389-2.52-1.984-2.111-3.618c0.393-1.561,1.988-2.521,3.55-2.13c1.628,0.404,2.59,2.003,2.199,3.564     C459.461,245.728,457.864,246.688,456.229,246.278L456.229,246.278z"/>
<path fill-rule="evenodd" clip-rule="evenodd" fill="none" stroke="#000000" stroke-width="0.504" stroke-miterlimit="2.4142" d="     M449.392,249.537c-1.562-0.387-2.521-1.985-2.11-3.616c0.39-1.562,1.986-2.521,3.549-2.132c1.627,0.406,2.59,2.005,2.198,3.565     C452.621,248.986,451.025,249.948,449.392,249.537L449.392,249.537z"/>
<path fill-rule="evenodd" clip-rule="evenodd" fill="none" stroke="#000000" stroke-width="0.504" stroke-miterlimit="2.4142" d="     M442.555,252.797c-1.563-0.389-2.521-1.986-2.113-3.617c0.392-1.563,1.988-2.521,3.551-2.132     c1.629,0.404,2.589,2.004,2.197,3.562C445.785,252.246,444.187,253.206,442.555,252.797L442.555,252.797z"/>
<path fill-rule="evenodd" clip-rule="evenodd" fill="none" stroke="#000000" stroke-width="0.504" stroke-miterlimit="2.4142" d="     M453.969,255.433c-1.564-0.391-2.523-1.989-2.113-3.618c0.392-1.563,1.986-2.523,3.549-2.132c1.631,0.404,2.59,2.004,2.199,3.563     C457.199,254.881,455.602,255.841,453.969,255.433L453.969,255.433z"/>
<path fill-rule="evenodd" clip-rule="evenodd" fill="none" stroke="#000000" stroke-width="0.504" stroke-miterlimit="2.4142" d="     M447.131,258.69c-1.565-0.389-2.521-1.985-2.113-3.617c0.39-1.563,1.986-2.521,3.549-2.131c1.631,0.403,2.59,2.004,2.199,3.562     C450.361,258.14,448.761,259.099,447.131,258.69L447.131,258.69z"/>
<path fill-rule="evenodd" clip-rule="evenodd" fill="none" stroke="#000000" stroke-width="0.504" stroke-miterlimit="2.4142" d="     M440.291,261.949c-1.56-0.39-2.521-1.985-2.11-3.617c0.39-1.563,1.988-2.522,3.55-2.13c1.627,0.403,2.588,2.003,2.199,3.563     C443.521,261.397,441.924,262.356,440.291,261.949L440.291,261.949z"/>
<path fill-rule="evenodd" clip-rule="evenodd" fill="none" stroke="#000000" stroke-width="0.504" stroke-miterlimit="2.4142" d="     M451.705,264.585c-1.562-0.39-2.521-1.986-2.112-3.617c0.392-1.563,1.987-2.522,3.55-2.131c1.63,0.404,2.591,2.004,2.199,3.563     C454.936,264.032,453.338,264.992,451.705,264.585L451.705,264.585z"/>
<path fill-rule="evenodd" clip-rule="evenodd" fill="none" stroke="#000000" stroke-width="0.504" stroke-miterlimit="2.4142" d="     M444.867,267.844c-1.561-0.389-2.518-1.987-2.109-3.617c0.389-1.563,1.984-2.521,3.547-2.132c1.631,0.406,2.59,2.005,2.198,3.563     C448.097,267.292,446.497,268.251,444.867,267.844L444.867,267.844z"/>
<path fill-rule="evenodd" clip-rule="evenodd" fill="none" stroke="#000000" stroke-width="0.504" stroke-miterlimit="2.4142" d="     M438.025,271.103c-1.561-0.39-2.518-1.986-2.111-3.619c0.393-1.562,1.989-2.52,3.55-2.13c1.632,0.405,2.593,2.004,2.201,3.563     C441.257,270.55,439.66,271.51,438.025,271.103L438.025,271.103z"/>
<path fill-rule="evenodd" clip-rule="evenodd" fill="none" stroke="#000000" stroke-width="0.504" stroke-miterlimit="2.4142" d="     M449.441,273.737c-1.564-0.39-2.52-1.984-2.11-3.618c0.389-1.563,1.985-2.521,3.546-2.13c1.631,0.402,2.592,2.003,2.201,3.563     C452.672,273.185,451.075,274.145,449.441,273.737L449.441,273.737z"/>
<path fill-rule="evenodd" clip-rule="evenodd" fill="none" stroke="#000000" stroke-width="0.504" stroke-miterlimit="2.4142" d="     M442.602,276.996c-1.561-0.388-2.52-1.985-2.111-3.618c0.391-1.562,1.987-2.521,3.547-2.131c1.635,0.406,2.594,2.004,2.203,3.563     C445.832,276.444,444.235,277.405,442.602,276.996L442.602,276.996z"/>
<path fill-rule="evenodd" clip-rule="evenodd" fill="none" stroke="#000000" stroke-width="0.504" stroke-miterlimit="2.4142" d="     M435.766,280.256c-1.56-0.39-2.52-1.987-2.112-3.617c0.393-1.564,1.985-2.522,3.55-2.131c1.631,0.405,2.592,2.004,2.2,3.563     C438.996,279.703,437.399,280.665,435.766,280.256L435.766,280.256z"/>
<path fill-rule="evenodd" clip-rule="evenodd" fill="none" stroke="#000000" stroke-width="0.504" stroke-miterlimit="2.4142" d="     M447.181,282.892c-1.562-0.392-2.522-1.986-2.116-3.619c0.394-1.561,1.988-2.519,3.554-2.13c1.626,0.403,2.592,2.005,2.2,3.563     C450.411,282.339,448.811,283.299,447.181,282.892L447.181,282.892z"/>
<path fill-rule="evenodd" clip-rule="evenodd" fill="none" stroke="#000000" stroke-width="0.504" stroke-miterlimit="2.4142" d="     M440.342,286.15c-1.563-0.389-2.521-1.985-2.113-3.618c0.391-1.563,1.985-2.521,3.551-2.131c1.629,0.405,2.59,2.005,2.199,3.563     C443.569,285.599,441.973,286.56,440.342,286.15L440.342,286.15z"/>
<path fill-rule="evenodd" clip-rule="evenodd" fill="none" stroke="#000000" stroke-width="0.504" stroke-miterlimit="2.4142" d="     M433.504,289.408c-1.562-0.387-2.523-1.984-2.113-3.617c0.388-1.562,1.986-2.518,3.549-2.131     c1.626,0.408,2.593,2.003,2.198,3.563C436.73,288.857,435.136,289.819,433.504,289.408L433.504,289.408z"/>
<path fill-rule="evenodd" clip-rule="evenodd" fill="none" stroke="#000000" stroke-width="0.504" stroke-miterlimit="2.4142" d="     M444.917,292.043c-1.563-0.388-2.522-1.984-2.113-3.617c0.391-1.561,1.985-2.519,3.551-2.13c1.628,0.405,2.59,2.003,2.198,3.564     C448.145,291.493,446.549,292.453,444.917,292.043L444.917,292.043z"/>
<path fill-rule="evenodd" clip-rule="evenodd" fill="none" stroke="#000000" stroke-width="0.504" stroke-miterlimit="2.4142" d="     M438.078,295.303c-1.563-0.39-2.52-1.986-2.113-3.618c0.391-1.563,1.986-2.521,3.549-2.13c1.631,0.404,2.594,2,2.199,3.562     C441.307,294.75,439.709,295.71,438.078,295.303L438.078,295.303z"/>
<path fill-rule="evenodd" clip-rule="evenodd" fill="none" stroke="#000000" stroke-width="0.504" stroke-miterlimit="2.4142" d="     M431.241,298.561c-1.562-0.389-2.52-1.984-2.113-3.617c0.39-1.563,1.986-2.519,3.55-2.129c1.63,0.403,2.59,2,2.199,3.562     C434.469,298.011,432.873,298.97,431.241,298.561L431.241,298.561z"/>
<path fill-rule="evenodd" clip-rule="evenodd" fill="none" stroke="#000000" stroke-width="0.504" stroke-miterlimit="2.4142" d="     M442.654,301.196c-1.563-0.389-2.523-1.986-2.113-3.618c0.39-1.562,1.986-2.521,3.55-2.129c1.628,0.403,2.592,2.001,2.201,3.563     C445.884,300.646,444.286,301.605,442.654,301.196L442.654,301.196z"/>
</g></switch>
</svg>