<?xml version="1.0" encoding="utf-8"?>
<!DOCTYPE svg PUBLIC "-//W3C//DTD SVG 1.1//EN" "http://www.w3.org/Graphics/SVG/1.1/DTD/svg11.dtd">
<svg version="1.1" id="Armor" xmlns="http://www.w3.org/2000/svg" xmlns:xlink="http://www.w3.org/1999/xlink" x="0px" y="0px"
	 width="612px" height="792px" viewBox="0 0 612 792" enable-background="new 0 0 612 792" xml:space="preserve">
<switch><g>
<path fill-rule="evenodd" clip-rule="evenodd" fill="none" stroke="#000000" stroke-width="0.504" stroke-miterlimit="2.4142" d="     M519.796,190.504c1.563-0.384,2.52-1.979,2.106-3.608c-0.388-1.566-1.984-2.523-3.546-2.132     c-1.625,0.399-2.586,2.001-2.195,3.563C516.563,189.962,518.159,190.918,519.796,190.504L519.796,190.504z"/>
<path fill-rule="evenodd" clip-rule="evenodd" fill="none" stroke="#000000" stroke-width="0.504" stroke-miterlimit="2.4142" d="     M528.295,201.287c1.562-0.388,2.521-1.985,2.113-3.615c-0.396-1.565-1.988-2.525-3.549-2.134c-1.636,0.406-2.591,2.002-2.2,3.562     C525.06,200.739,526.659,201.695,528.295,201.287L528.295,201.287z"/>
<path fill-rule="evenodd" clip-rule="evenodd" fill="none" stroke="#000000" stroke-width="0.504" stroke-miterlimit="2.4142" d="     M516.878,203.924c1.564-0.389,2.523-1.986,2.114-3.617c-0.39-1.566-1.985-2.523-3.546-2.134     c-1.634,0.406-2.594,2.002-2.204,3.563C513.644,203.375,515.243,204.331,516.878,203.924L516.878,203.924z"/>
<path fill-rule="evenodd" clip-rule="evenodd" fill="none" stroke="#000000" stroke-width="0.504" stroke-miterlimit="2.4142" d="     M525.387,214.701c1.559-0.389,2.515-1.984,2.103-3.612c-0.387-1.564-1.984-2.527-3.547-2.136     c-1.628,0.407-2.588,2.004-2.202,3.561C522.146,214.155,523.747,215.109,525.387,214.701L525.387,214.701z"/>
<path fill-rule="evenodd" clip-rule="evenodd" fill="none" stroke="#000000" stroke-width="0.504" stroke-miterlimit="2.4142" d="     M533.883,225.481c1.563-0.391,2.521-1.983,2.11-3.616c-0.391-1.565-1.984-2.521-3.544-2.135     c-1.636,0.408-2.595,2.006-2.203,3.568C530.652,224.929,532.254,225.893,533.883,225.481L533.883,225.481z"/>
<path fill-rule="evenodd" clip-rule="evenodd" fill="none" stroke="#000000" stroke-width="0.504" stroke-miterlimit="2.4142" d="     M522.463,228.116c1.566-0.385,2.521-1.982,2.116-3.61c-0.395-1.567-1.985-2.526-3.546-2.137     c-1.631,0.408-2.597,2.009-2.202,3.566C519.233,227.566,520.836,228.531,522.463,228.116L522.463,228.116z"/>
<path fill-rule="evenodd" clip-rule="evenodd" fill="none" stroke="#000000" stroke-width="0.504" stroke-miterlimit="2.4142" d="     M530.966,238.896c1.564-0.389,2.52-1.984,2.109-3.616c-0.388-1.566-1.984-2.522-3.548-2.131c-1.63,0.406-2.587,2.004-2.198,3.565     C527.737,238.345,529.33,239.307,530.966,238.896L530.966,238.896z"/>
<path fill-rule="evenodd" clip-rule="evenodd" fill="none" stroke="#000000" stroke-width="0.504" stroke-miterlimit="2.4142" d="     M539.465,249.677c1.561-0.388,2.521-1.983,2.116-3.617c-0.394-1.565-1.99-2.52-3.557-2.132c-1.627,0.406-2.591,2.005-2.196,3.563     C536.229,249.123,537.829,250.084,539.465,249.677L539.465,249.677z"/>
<path fill-rule="evenodd" clip-rule="evenodd" fill="none" stroke="#000000" stroke-width="0.504" stroke-miterlimit="2.4142" d="     M528.051,252.312c1.563-0.39,2.522-1.987,2.115-3.618c-0.391-1.563-1.987-2.519-3.55-2.131c-1.631,0.403-2.591,2.004-2.2,3.563     C524.815,251.759,526.419,252.72,528.051,252.312L528.051,252.312z"/>
<path fill-rule="evenodd" clip-rule="evenodd" fill="none" stroke="#000000" stroke-width="0.504" stroke-miterlimit="2.4142" d="     M536.553,263.09c1.56-0.391,2.511-1.986,2.112-3.617c-0.392-1.563-1.99-2.524-3.547-2.131c-1.639,0.404-2.597,2.005-2.204,3.562     C533.323,262.538,534.917,263.5,536.553,263.09L536.553,263.09z"/>
<path fill-rule="evenodd" clip-rule="evenodd" fill="none" stroke="#000000" stroke-width="0.504" stroke-miterlimit="2.4142" d="     M545.051,273.869c1.561-0.387,2.518-1.985,2.116-3.621c-0.396-1.557-1.991-2.516-3.557-2.126c-1.631,0.407-2.593,2.002-2.2,3.565     C541.819,273.318,543.417,274.279,545.051,273.869L545.051,273.869z"/>
<path fill-rule="evenodd" clip-rule="evenodd" fill="none" stroke="#000000" stroke-width="0.504" stroke-miterlimit="2.4142" d="     M533.638,276.506c1.563-0.389,2.521-1.985,2.114-3.617c-0.391-1.559-1.989-2.52-3.555-2.131     c-1.627,0.407-2.592,2.005-2.194,3.565C530.405,275.954,532.003,276.916,533.638,276.506L533.638,276.506z"/>
<path fill-rule="evenodd" clip-rule="evenodd" fill="none" stroke="#000000" stroke-width="0.504" stroke-miterlimit="2.4142" d="     M542.136,287.286c1.562-0.392,2.524-1.985,2.109-3.621c-0.384-1.562-1.978-2.52-3.545-2.13c-1.628,0.403-2.591,2.002-2.205,3.563     C538.908,286.73,540.506,287.692,542.136,287.286L542.136,287.286z"/>
<path fill-rule="evenodd" clip-rule="evenodd" fill="none" stroke="#000000" stroke-width="0.504" stroke-miterlimit="2.4142" d="     M550.639,298.063c1.561-0.386,2.521-1.986,2.112-3.622c-0.396-1.556-1.986-2.513-3.556-2.126     c-1.622,0.404-2.591,1.998-2.192,3.563C547.407,297.516,549.005,298.474,550.639,298.063L550.639,298.063z"/>
<path fill-rule="evenodd" clip-rule="evenodd" fill="none" stroke="#000000" stroke-width="0.504" stroke-miterlimit="2.4142" d="     M539.221,300.699c1.565-0.382,2.524-1.982,2.116-3.617c-0.392-1.56-1.989-2.517-3.55-2.13c-1.628,0.409-2.593,2.001-2.2,3.565     C535.994,300.148,537.595,301.11,539.221,300.699L539.221,300.699z"/>
</g></switch>
</svg>