<?xml version="1.0" encoding="utf-8"?>
<!DOCTYPE svg PUBLIC "-//W3C//DTD SVG 1.1//EN" "http://www.w3.org/Graphics/SVG/1.1/DTD/svg11.dtd">
<svg version="1.1" id="Armor" xmlns="http://www.w3.org/2000/svg" xmlns:xlink="http://www.w3.org/1999/xlink" x="0px" y="0px"
	 width="612px" height="792px" viewBox="0 0 612 792" enable-background="new 0 0 612 792" xml:space="preserve">
<switch><g>
<path fill="none" stroke="#000000" stroke-width="0.504" stroke-miterlimit="2.4142" d="M557.729,80.818     c1.665-0.146,2.925-1.652,2.776-3.312c-0.151-1.732-1.642-2.926-3.306-2.783c-1.733,0.151-3.006,1.589-2.856,3.321     C554.49,79.705,556.003,80.969,557.729,80.818L557.729,80.818z"/>
<path fill="none" stroke="#000000" stroke-width="0.504" stroke-miterlimit="2.4142" d="M564.536,93.633     c1.668-0.145,2.931-1.65,2.78-3.312c-0.148-1.73-1.643-2.926-3.311-2.775c-1.727,0.148-3.003,1.581-2.854,3.313     C561.303,92.521,562.814,93.785,564.536,93.633L564.536,93.633z"/>
<path fill="none" stroke="#000000" stroke-width="0.504" stroke-miterlimit="2.4142" d="M553.239,94.623     c1.67-0.143,2.932-1.652,2.784-3.311c-0.147-1.733-1.646-2.925-3.316-2.779c-1.725,0.151-2.995,1.585-2.85,3.317     C550.007,93.51,551.519,94.775,553.239,94.623L553.239,94.623z"/>
<path fill="none" stroke="#000000" stroke-width="0.504" stroke-miterlimit="2.4142" d="M560.055,107.443     c1.671-0.145,2.928-1.649,2.78-3.312c-0.152-1.733-1.644-2.924-3.315-2.781c-1.719,0.152-2.997,1.59-2.847,3.323     C556.82,106.333,558.327,107.595,560.055,107.443L560.055,107.443z"/>
<path fill="none" stroke="#000000" stroke-width="0.504" stroke-miterlimit="2.4142" d="M566.869,120.261     c1.668-0.146,2.925-1.653,2.775-3.315c-0.145-1.73-1.646-2.923-3.312-2.776c-1.722,0.15-3.001,1.583-2.85,3.317     C563.628,119.146,565.144,120.412,566.869,120.261L566.869,120.261z"/>
<path fill="none" stroke="#000000" stroke-width="0.504" stroke-miterlimit="2.4142" d="M555.572,121.251     c1.667-0.146,2.926-1.651,2.777-3.313c-0.148-1.733-1.646-2.926-3.314-2.782c-1.72,0.151-2.992,1.587-2.842,3.323     C552.337,120.142,553.845,121.402,555.572,121.251L555.572,121.251z"/>
<path fill="none" stroke="#000000" stroke-width="0.504" stroke-miterlimit="2.4142" d="M562.386,134.07     c1.668-0.143,2.925-1.65,2.778-3.312c-0.152-1.731-1.643-2.925-3.313-2.784c-1.724,0.155-3.002,1.591-2.848,3.324     C559.146,132.956,560.662,134.221,562.386,134.07L562.386,134.07z"/>
<path fill="none" stroke="#000000" stroke-width="0.504" stroke-miterlimit="2.4142" d="M569.197,146.886     c1.668-0.146,2.927-1.652,2.777-3.315c-0.146-1.729-1.644-2.925-3.313-2.778c-1.723,0.151-3.006,1.587-2.848,3.323     C565.962,145.772,567.472,147.036,569.197,146.886L569.197,146.886z"/>
<path fill="none" stroke="#000000" stroke-width="0.504" stroke-miterlimit="2.4142" d="M557.901,147.876     c1.667-0.144,2.926-1.648,2.778-3.311c-0.152-1.734-1.646-2.927-3.313-2.782c-1.728,0.151-3.002,1.586-2.849,3.321     C554.663,146.765,556.172,148.026,557.901,147.876L557.901,147.876z"/>
<path fill="none" stroke="#000000" stroke-width="0.504" stroke-miterlimit="2.4142" d="M564.715,160.694     c1.665-0.143,2.922-1.652,2.776-3.312c-0.152-1.731-1.646-2.924-3.312-2.78c-1.725,0.15-3.003,1.588-2.848,3.319     C561.473,159.583,562.985,160.845,564.715,160.694L564.715,160.694z"/>
<path fill="none" stroke="#000000" stroke-width="0.504" stroke-miterlimit="2.4142" d="M571.526,173.509     c1.667-0.143,2.924-1.65,2.778-3.31c-0.151-1.734-1.648-2.927-3.313-2.779c-1.725,0.149-3.002,1.585-2.852,3.318     C568.284,172.399,569.801,173.662,571.526,173.509L571.526,173.509z"/>
<path fill="none" stroke="#000000" stroke-width="0.504" stroke-miterlimit="2.4142" d="M560.231,174.498     c1.668-0.137,2.926-1.648,2.774-3.309c-0.147-1.732-1.644-2.925-3.31-2.776c-1.726,0.147-2.997,1.585-2.847,3.316     C556.995,173.386,558.502,174.652,560.231,174.498L560.231,174.498z"/>
</g></switch>
</svg>