<?xml version="1.0" encoding="utf-8"?>
<!DOCTYPE svg PUBLIC "-//W3C//DTD SVG 1.1//EN" "http://www.w3.org/Graphics/SVG/1.1/DTD/svg11.dtd">
<svg version="1.1" id="Armor" xmlns="http://www.w3.org/2000/svg" xmlns:xlink="http://www.w3.org/1999/xlink" x="0px" y="0px"
	 width="612px" height="792px" viewBox="0 0 612 792" enable-background="new 0 0 612 792" xml:space="preserve">
<switch><g>
<path fill-rule="evenodd" clip-rule="evenodd" fill="none" stroke="#000000" stroke-width="0.504" stroke-miterlimit="2.4142" d="     M558.139,90.412c1.664-0.145,2.918-1.652,2.773-3.313c-0.15-1.73-1.647-2.923-3.313-2.779c-1.726,0.15-2.995,1.59-2.847,3.321     C554.902,89.296,556.407,90.566,558.139,90.412L558.139,90.412z"/>
<path fill-rule="evenodd" clip-rule="evenodd" fill="none" stroke="#000000" stroke-width="0.504" stroke-miterlimit="2.4142" d="      M564.276,98.277c1.662-0.144,2.918-1.649,2.773-3.31c-0.151-1.729-1.648-2.924-3.308-2.778      c-1.733,0.151-3.006,1.589-2.854,3.317C561.04,97.169,562.544,98.433,564.276,98.277L564.276,98.277z"/>
<path fill-rule="evenodd" clip-rule="evenodd" fill="none" stroke="#000000" stroke-width="0.504" stroke-miterlimit="2.4142" d="      M552.976,99.267c1.664-0.144,2.924-1.652,2.783-3.31c-0.153-1.73-1.651-2.925-3.32-2.78c-1.726,0.151-2.997,1.588-2.839,3.321      C549.743,98.158,551.247,99.42,552.976,99.267L552.976,99.267z"/>
<path fill-rule="evenodd" clip-rule="evenodd" fill="none" stroke="#000000" stroke-width="0.504" stroke-miterlimit="2.4142" d="     M559.636,107.14c1.664-0.146,2.922-1.653,2.777-3.313c-0.154-1.733-1.643-2.927-3.307-2.783c-1.736,0.151-3.006,1.59-2.855,3.321     C556.396,106.025,557.907,107.29,559.636,107.14L559.636,107.14z"/>
<path fill-rule="evenodd" clip-rule="evenodd" fill="none" stroke="#000000" stroke-width="0.504" stroke-miterlimit="2.4142" d="      M565.82,115.003c1.666-0.146,2.929-1.65,2.779-3.313c-0.149-1.731-1.642-2.925-3.309-2.775      c-1.729,0.147-3.005,1.581-2.854,3.314C562.585,113.891,564.098,115.154,565.82,115.003L565.82,115.003z"/>
<path fill-rule="evenodd" clip-rule="evenodd" fill="none" stroke="#000000" stroke-width="0.504" stroke-miterlimit="2.4142" d="      M554.523,115.993c1.666-0.144,2.931-1.652,2.783-3.313c-0.149-1.732-1.646-2.925-3.314-2.779      c-1.727,0.152-2.996,1.587-2.85,3.318C551.29,114.879,552.8,116.144,554.523,115.993L554.523,115.993z"/>
<path fill-rule="evenodd" clip-rule="evenodd" fill="none" stroke="#000000" stroke-width="0.504" stroke-miterlimit="2.4142" d="     M561.133,123.863c1.668-0.144,2.926-1.648,2.78-3.311c-0.153-1.731-1.646-2.925-3.315-2.781     c-1.722,0.152-2.999,1.591-2.845,3.322C557.898,122.753,559.402,124.015,561.133,123.863L561.133,123.863z"/>
<path fill-rule="evenodd" clip-rule="evenodd" fill="none" stroke="#000000" stroke-width="0.504" stroke-miterlimit="2.4142" d="      M567.366,131.732c1.668-0.146,2.924-1.651,2.776-3.313c-0.146-1.73-1.646-2.924-3.311-2.778c-1.725,0.15-3.001,1.585-2.85,3.318      C564.126,130.619,565.639,131.884,567.366,131.732L567.366,131.732z"/>
<path fill-rule="evenodd" clip-rule="evenodd" fill="none" stroke="#000000" stroke-width="0.504" stroke-miterlimit="2.4142" d="      M556.07,132.722c1.664-0.146,2.925-1.653,2.779-3.313c-0.149-1.731-1.649-2.926-3.314-2.782      c-1.723,0.152-2.993,1.589-2.842,3.321C552.834,131.61,554.342,132.873,556.07,132.722L556.07,132.722z"/>
<path fill-rule="evenodd" clip-rule="evenodd" fill="none" stroke="#000000" stroke-width="0.504" stroke-miterlimit="2.4142" d="     M562.631,140.593c1.666-0.144,2.926-1.651,2.778-3.313c-0.152-1.729-1.643-2.925-3.309-2.783     c-1.728,0.155-3.004,1.592-2.848,3.323C559.393,139.479,560.907,140.745,562.631,140.593L562.631,140.593z"/>
<path fill-rule="evenodd" clip-rule="evenodd" fill="none" stroke="#000000" stroke-width="0.504" stroke-miterlimit="2.4142" d="      M568.912,148.462c1.668-0.146,2.928-1.652,2.779-3.314c-0.148-1.73-1.645-2.926-3.313-2.778      c-1.725,0.15-3.006,1.588-2.848,3.322C565.676,147.347,567.186,148.612,568.912,148.462L568.912,148.462z"/>
<path fill-rule="evenodd" clip-rule="evenodd" fill="none" stroke="#000000" stroke-width="0.504" stroke-miterlimit="2.4142" d="      M557.617,149.45c1.664-0.144,2.927-1.648,2.779-3.31c-0.154-1.734-1.647-2.927-3.313-2.782      c-1.729,0.151-3.002,1.586-2.848,3.321C554.38,148.341,555.887,149.602,557.617,149.45L557.617,149.45z"/>
<path fill-rule="evenodd" clip-rule="evenodd" fill="none" stroke="#000000" stroke-width="0.504" stroke-miterlimit="2.4142" d="     M564.129,157.321c1.662-0.145,2.924-1.652,2.779-3.312c-0.154-1.732-1.648-2.925-3.314-2.781c-1.725,0.15-3,1.588-2.844,3.32     C560.889,156.208,562.4,157.471,564.129,157.321L564.129,157.321z"/>
<path fill-rule="evenodd" clip-rule="evenodd" fill="none" stroke="#000000" stroke-width="0.504" stroke-miterlimit="2.4142" d="      M570.46,165.187c1.665-0.143,2.923-1.649,2.778-3.311c-0.152-1.732-1.65-2.926-3.311-2.778      c-1.727,0.148-3.004,1.586-2.852,3.318C567.217,164.076,568.732,165.34,570.46,165.187L570.46,165.187z"/>
<path fill-rule="evenodd" clip-rule="evenodd" fill="none" stroke="#000000" stroke-width="0.504" stroke-miterlimit="2.4142" d="      M559.165,166.173c1.664-0.138,2.925-1.649,2.774-3.31c-0.147-1.732-1.646-2.926-3.308-2.776      c-1.728,0.146-2.999,1.585-2.847,3.317C555.928,165.062,557.434,166.328,559.165,166.173L559.165,166.173z"/>
<path fill-rule="evenodd" clip-rule="evenodd" fill="none" stroke="#000000" stroke-width="0.504" stroke-miterlimit="2.4142" d="     M565.626,174.042c1.663-0.144,2.924-1.651,2.78-3.312c-0.155-1.731-1.648-2.925-3.314-2.781c-1.725,0.151-3.001,1.589-2.844,3.32     C562.386,172.93,563.897,174.193,565.626,174.042L565.626,174.042z"/>
</g></switch>
</svg>