<?xml version="1.0" encoding="utf-8"?>
<!DOCTYPE svg PUBLIC "-//W3C//DTD SVG 1.1//EN" "http://www.w3.org/Graphics/SVG/1.1/DTD/svg11.dtd">
<svg version="1.1" id="Armor" xmlns="http://www.w3.org/2000/svg" xmlns:xlink="http://www.w3.org/1999/xlink" x="0px" y="0px"
	 width="612px" height="792px" viewBox="0 0 612 792" enable-background="new 0 0 612 792" xml:space="preserve">
<switch><g>
<path fill-rule="evenodd" clip-rule="evenodd" fill="none" stroke="#000000" stroke-width="0.504" stroke-miterlimit="2.4142" d="     M518.734,189.995c1.563-0.388,2.521-1.984,2.113-3.617c-0.391-1.562-1.986-2.521-3.549-2.13     c-1.629,0.404-2.592,2.001-2.199,3.563C515.507,189.444,517.104,190.404,518.734,189.995L518.734,189.995z"/>
<path fill-rule="evenodd" clip-rule="evenodd" fill="none" stroke="#000000" stroke-width="0.504" stroke-miterlimit="2.4142" d="     M525.479,193.502c1.558-0.392,2.521-1.987,2.11-3.62c-0.389-1.563-1.981-2.522-3.545-2.132c-1.632,0.405-2.592,2.003-2.2,3.564     C522.248,192.947,523.848,193.907,525.479,193.502L525.479,193.502z"/>
<path fill-rule="evenodd" clip-rule="evenodd" fill="none" stroke="#000000" stroke-width="0.504" stroke-miterlimit="2.4142" d="     M514.064,196.137c1.56-0.393,2.522-1.987,2.112-3.62c-0.388-1.563-1.982-2.522-3.547-2.131c-1.632,0.404-2.59,2.002-2.198,3.564     C510.835,195.583,512.435,196.542,514.064,196.137L514.064,196.137z"/>
<path fill-rule="evenodd" clip-rule="evenodd" fill="none" stroke="#000000" stroke-width="0.504" stroke-miterlimit="2.4142" d="     M520.953,199.608c1.559-0.393,2.523-1.987,2.109-3.62c-0.385-1.563-1.979-2.523-3.547-2.132     c-1.629,0.405-2.589,2.003-2.196,3.565C517.721,199.055,519.322,200.014,520.953,199.608L520.953,199.608z"/>
<path fill-rule="evenodd" clip-rule="evenodd" fill="none" stroke="#000000" stroke-width="0.504" stroke-miterlimit="2.4142" d="     M527.839,203.078c1.562-0.392,2.522-1.986,2.116-3.62c-0.393-1.562-1.987-2.52-3.55-2.129c-1.632,0.404-2.591,2.002-2.201,3.563     C524.61,202.523,526.211,203.482,527.839,203.078L527.839,203.078z"/>
<path fill-rule="evenodd" clip-rule="evenodd" fill="none" stroke="#000000" stroke-width="0.504" stroke-miterlimit="2.4142" d="     M516.424,205.714c1.563-0.392,2.522-1.988,2.115-3.622c-0.39-1.561-1.985-2.52-3.548-2.128c-1.632,0.404-2.591,2.001-2.201,3.563     C513.196,205.158,514.797,206.117,516.424,205.714L516.424,205.714z"/>
<path fill-rule="evenodd" clip-rule="evenodd" fill="none" stroke="#000000" stroke-width="0.504" stroke-miterlimit="2.4142" d="     M523.172,209.217c1.563-0.391,2.521-1.986,2.114-3.621c-0.389-1.561-1.983-2.519-3.55-2.128     c-1.631,0.405-2.589,2.002-2.199,3.563C519.944,208.663,521.543,209.622,523.172,209.217L523.172,209.217z"/>
<path fill-rule="evenodd" clip-rule="evenodd" fill="none" stroke="#000000" stroke-width="0.504" stroke-miterlimit="2.4142" d="     M530.199,212.657c1.56-0.388,2.522-1.986,2.116-3.621c-0.39-1.56-1.988-2.519-3.551-2.13c-1.631,0.406-2.589,2.005-2.201,3.563     C526.975,212.104,528.569,213.063,530.199,212.657L530.199,212.657z"/>
<path fill-rule="evenodd" clip-rule="evenodd" fill="none" stroke="#000000" stroke-width="0.504" stroke-miterlimit="2.4142" d="     M518.785,215.292c1.561-0.388,2.525-1.986,2.117-3.62c-0.389-1.56-1.988-2.52-3.551-2.131c-1.629,0.407-2.59,2.006-2.201,3.565     C515.56,214.74,517.156,215.699,518.785,215.292L518.785,215.292z"/>
<path fill-rule="evenodd" clip-rule="evenodd" fill="none" stroke="#000000" stroke-width="0.504" stroke-miterlimit="2.4142" d="     M525.39,218.829c1.562-0.388,2.526-1.986,2.116-3.62c-0.388-1.561-1.985-2.52-3.549-2.132c-1.629,0.407-2.588,2.006-2.201,3.565     C522.166,218.277,523.764,219.235,525.39,218.829L525.39,218.829z"/>
<path fill-rule="evenodd" clip-rule="evenodd" fill="none" stroke="#000000" stroke-width="0.504" stroke-miterlimit="2.4142" d="     M532.563,222.234c1.562-0.392,2.52-1.986,2.113-3.621c-0.389-1.56-1.988-2.52-3.552-2.129c-1.627,0.406-2.588,2.001-2.198,3.562     C529.332,221.683,530.928,222.64,532.563,222.234L532.563,222.234z"/>
<path fill-rule="evenodd" clip-rule="evenodd" fill="none" stroke="#000000" stroke-width="0.504" stroke-miterlimit="2.4142" d="     M521.148,224.869c1.564-0.392,2.52-1.985,2.113-3.62c-0.389-1.562-1.988-2.52-3.55-2.13c-1.628,0.406-2.587,2.002-2.198,3.563     C517.918,224.316,519.514,225.274,521.148,224.869L521.148,224.869z"/>
<path fill-rule="evenodd" clip-rule="evenodd" fill="none" stroke="#000000" stroke-width="0.504" stroke-miterlimit="2.4142" d="     M527.61,228.44c1.565-0.394,2.522-1.987,2.115-3.623c-0.391-1.56-1.987-2.52-3.55-2.129c-1.627,0.406-2.589,2.002-2.201,3.563     C524.381,227.887,525.979,228.844,527.61,228.44L527.61,228.44z"/>
<path fill-rule="evenodd" clip-rule="evenodd" fill="none" stroke="#000000" stroke-width="0.504" stroke-miterlimit="2.4142" d="     M534.92,231.813c1.561-0.392,2.521-1.987,2.117-3.62c-0.393-1.562-1.987-2.521-3.549-2.132c-1.631,0.407-2.592,2.002-2.202,3.565     C531.691,231.259,533.289,232.22,534.92,231.813L534.92,231.813z"/>
<path fill-rule="evenodd" clip-rule="evenodd" fill="none" stroke="#000000" stroke-width="0.504" stroke-miterlimit="2.4142" d="     M523.506,234.448c1.561-0.39,2.521-1.986,2.117-3.619c-0.393-1.563-1.986-2.52-3.549-2.132c-1.631,0.407-2.592,2.001-2.201,3.564     C520.277,233.895,521.875,234.855,523.506,234.448L523.506,234.448z"/>
<path fill-rule="evenodd" clip-rule="evenodd" fill="none" stroke="#000000" stroke-width="0.504" stroke-miterlimit="2.4142" d="     M530.393,237.919c1.563-0.391,2.522-1.986,2.117-3.62c-0.393-1.562-1.986-2.52-3.549-2.131c-1.63,0.406-2.591,2.001-2.201,3.565     C527.164,237.364,528.764,238.325,530.393,237.919L530.393,237.919z"/>
<path fill-rule="evenodd" clip-rule="evenodd" fill="none" stroke="#000000" stroke-width="0.504" stroke-miterlimit="2.4142" d="     M537.285,241.389c1.561-0.388,2.52-1.984,2.111-3.617c-0.391-1.561-1.988-2.521-3.549-2.131     c-1.628,0.406-2.592,2.005-2.198,3.565C534.055,240.839,535.652,241.799,537.285,241.389L537.285,241.389z"/>
<path fill-rule="evenodd" clip-rule="evenodd" fill="none" stroke="#000000" stroke-width="0.504" stroke-miterlimit="2.4142" d="     M525.871,244.023c1.561-0.388,2.52-1.984,2.111-3.617c-0.391-1.561-1.987-2.521-3.549-2.13c-1.629,0.404-2.591,2.003-2.199,3.564     C522.641,243.474,524.238,244.434,525.871,244.023L525.871,244.023z"/>
<path fill-rule="evenodd" clip-rule="evenodd" fill="none" stroke="#000000" stroke-width="0.504" stroke-miterlimit="2.4142" d="     M532.758,247.495c1.563-0.388,2.521-1.986,2.111-3.616c-0.39-1.562-1.986-2.522-3.548-2.132c-1.628,0.406-2.591,2.004-2.2,3.564     C529.529,246.944,531.125,247.906,532.758,247.495L532.758,247.495z"/>
<path fill-rule="evenodd" clip-rule="evenodd" fill="none" stroke="#000000" stroke-width="0.504" stroke-miterlimit="2.4142" d="     M539.645,250.968c1.563-0.39,2.521-1.987,2.113-3.619c-0.392-1.562-1.988-2.521-3.551-2.131     c-1.629,0.405-2.589,2.003-2.198,3.563C536.414,250.416,538.013,251.376,539.645,250.968L539.645,250.968z"/>
<path fill-rule="evenodd" clip-rule="evenodd" fill="none" stroke="#000000" stroke-width="0.504" stroke-miterlimit="2.4142" d="     M528.23,253.603c1.563-0.39,2.522-1.988,2.113-3.618c-0.392-1.563-1.986-2.522-3.549-2.132c-1.631,0.405-2.591,2.004-2.199,3.563     C525,253.051,526.598,254.011,528.23,253.603L528.23,253.603z"/>
<path fill-rule="evenodd" clip-rule="evenodd" fill="none" stroke="#000000" stroke-width="0.504" stroke-miterlimit="2.4142" d="     M535.117,257.073c1.565-0.389,2.521-1.986,2.114-3.617c-0.391-1.563-1.987-2.521-3.549-2.132c-1.631,0.404-2.591,2.005-2.2,3.563     C531.887,256.523,533.487,257.482,535.117,257.073L535.117,257.073z"/>
<path fill-rule="evenodd" clip-rule="evenodd" fill="none" stroke="#000000" stroke-width="0.504" stroke-miterlimit="2.4142" d="     M542.006,260.545c1.561-0.39,2.521-1.985,2.111-3.617c-0.39-1.563-1.987-2.522-3.551-2.131c-1.627,0.404-2.587,2.004-2.199,3.563     C538.776,259.992,540.374,260.952,542.006,260.545L542.006,260.545z"/>
<path fill-rule="evenodd" clip-rule="evenodd" fill="none" stroke="#000000" stroke-width="0.504" stroke-miterlimit="2.4142" d="     M530.592,263.18c1.562-0.39,2.521-1.985,2.112-3.617c-0.392-1.563-1.987-2.522-3.549-2.131c-1.63,0.404-2.591,2.004-2.2,3.563     C527.361,262.627,528.959,263.587,530.592,263.18L530.592,263.18z"/>
<path fill-rule="evenodd" clip-rule="evenodd" fill="none" stroke="#000000" stroke-width="0.504" stroke-miterlimit="2.4142" d="     M537.479,266.651c1.562-0.389,2.519-1.986,2.11-3.617c-0.39-1.563-1.985-2.521-3.548-2.131c-1.63,0.405-2.591,2.004-2.198,3.563     C534.249,266.101,535.849,267.06,537.479,266.651L537.479,266.651z"/>
<path fill-rule="evenodd" clip-rule="evenodd" fill="none" stroke="#000000" stroke-width="0.504" stroke-miterlimit="2.4142" d="     M544.369,270.123c1.561-0.389,2.519-1.986,2.111-3.619c-0.392-1.562-1.987-2.52-3.549-2.131     c-1.632,0.406-2.593,2.005-2.201,3.564C541.139,269.57,542.736,270.53,544.369,270.123L544.369,270.123z"/>
<path fill-rule="evenodd" clip-rule="evenodd" fill="none" stroke="#000000" stroke-width="0.504" stroke-miterlimit="2.4142" d="     M532.954,272.758c1.563-0.39,2.519-1.985,2.111-3.618c-0.39-1.563-1.986-2.521-3.548-2.131c-1.632,0.404-2.592,2.004-2.201,3.563     C529.724,272.205,531.321,273.165,532.954,272.758L532.954,272.758z"/>
<path fill-rule="evenodd" clip-rule="evenodd" fill="none" stroke="#000000" stroke-width="0.504" stroke-miterlimit="2.4142" d="     M539.843,276.229c1.561-0.388,2.52-1.985,2.111-3.617c-0.39-1.562-1.987-2.521-3.548-2.132c-1.633,0.406-2.593,2.004-2.201,3.564     C536.611,275.677,538.209,276.638,539.843,276.229L539.843,276.229z"/>
<path fill-rule="evenodd" clip-rule="evenodd" fill="none" stroke="#000000" stroke-width="0.504" stroke-miterlimit="2.4142" d="     M546.729,279.7c1.56-0.389,2.52-1.985,2.112-3.617c-0.392-1.563-1.987-2.521-3.552-2.131c-1.629,0.405-2.59,2.004-2.199,3.563     C543.497,279.148,545.095,280.109,546.729,279.7L546.729,279.7z"/>
<path fill-rule="evenodd" clip-rule="evenodd" fill="none" stroke="#000000" stroke-width="0.504" stroke-miterlimit="2.4142" d="     M535.313,282.336c1.562-0.39,2.521-1.986,2.114-3.618c-0.392-1.562-1.986-2.52-3.552-2.131c-1.628,0.405-2.592,2.006-2.2,3.563     C532.083,281.783,533.682,282.744,535.313,282.336L535.313,282.336z"/>
<path fill-rule="evenodd" clip-rule="evenodd" fill="none" stroke="#000000" stroke-width="0.504" stroke-miterlimit="2.4142" d="     M542.2,285.807c1.563-0.389,2.522-1.985,2.114-3.618c-0.392-1.562-1.986-2.52-3.551-2.131c-1.629,0.406-2.591,2.005-2.2,3.564     C538.973,285.255,540.57,286.216,542.2,285.807L542.2,285.807z"/>
<path fill-rule="evenodd" clip-rule="evenodd" fill="none" stroke="#000000" stroke-width="0.504" stroke-miterlimit="2.4142" d="     M549.088,289.277c1.563-0.387,2.523-1.984,2.112-3.617c-0.388-1.562-1.986-2.519-3.548-2.131     c-1.627,0.407-2.592,2.003-2.199,3.563C545.861,288.727,547.456,289.688,549.088,289.277L549.088,289.277z"/>
<path fill-rule="evenodd" clip-rule="evenodd" fill="none" stroke="#000000" stroke-width="0.504" stroke-miterlimit="2.4142" d="     M537.675,291.912c1.563-0.388,2.521-1.984,2.112-3.617c-0.389-1.561-1.986-2.519-3.549-2.13     c-1.628,0.405-2.592,2.003-2.199,3.563C534.447,291.362,536.043,292.322,537.675,291.912L537.675,291.912z"/>
<path fill-rule="evenodd" clip-rule="evenodd" fill="none" stroke="#000000" stroke-width="0.504" stroke-miterlimit="2.4142" d="     M544.563,295.384c1.563-0.388,2.521-1.984,2.113-3.617c-0.391-1.562-1.986-2.521-3.55-2.13c-1.629,0.405-2.592,2.001-2.198,3.563     C541.334,294.833,542.932,295.793,544.563,295.384L544.563,295.384z"/>
<path fill-rule="evenodd" clip-rule="evenodd" fill="none" stroke="#000000" stroke-width="0.504" stroke-miterlimit="2.4142" d="     M551.449,298.855c1.561-0.389,2.52-1.985,2.113-3.617c-0.391-1.563-1.986-2.52-3.552-2.13c-1.628,0.404-2.589,2.001-2.198,3.563     C548.22,298.305,549.816,299.266,551.449,298.855L551.449,298.855z"/>
<path fill-rule="evenodd" clip-rule="evenodd" fill="none" stroke="#000000" stroke-width="0.504" stroke-miterlimit="2.4142" d="     M540.037,301.49c1.56-0.388,2.52-1.985,2.111-3.617c-0.391-1.563-1.986-2.521-3.55-2.13c-1.628,0.404-2.591,2.001-2.2,3.563     C536.807,300.939,538.403,301.9,540.037,301.49L540.037,301.49z"/>
</g></switch>
</svg>