<?xml version="1.0" encoding="utf-8"?>
<!DOCTYPE svg PUBLIC "-//W3C//DTD SVG 1.1//EN" "http://www.w3.org/Graphics/SVG/1.1/DTD/svg11.dtd">
<svg version="1.1" id="Armor" xmlns="http://www.w3.org/2000/svg" xmlns:xlink="http://www.w3.org/1999/xlink" x="0px" y="0px"
	 width="612px" height="792px" viewBox="0 0 612 792" enable-background="new 0 0 612 792" xml:space="preserve">
<switch><g>
<path fill-rule="evenodd" clip-rule="evenodd" fill="none" stroke="#000000" stroke-width="0.504" stroke-miterlimit="2.4142" d="     M463.899,189.886c-1.563-0.388-2.522-1.984-2.113-3.617c0.39-1.562,1.985-2.521,3.548-2.13c1.63,0.404,2.592,2,2.199,3.563     C467.127,189.335,465.529,190.295,463.899,189.886L463.899,189.886z"/>
<path fill-rule="evenodd" clip-rule="evenodd" fill="none" stroke="#000000" stroke-width="0.504" stroke-miterlimit="2.4142" d="     M457.201,193.184c-1.557-0.392-2.52-1.986-2.109-3.619c0.389-1.563,1.981-2.523,3.545-2.132c1.631,0.404,2.592,2.003,2.2,3.563     C460.434,192.63,458.834,193.59,457.201,193.184L457.201,193.184z"/>
<path fill-rule="evenodd" clip-rule="evenodd" fill="none" stroke="#000000" stroke-width="0.504" stroke-miterlimit="2.4142" d="     M468.617,195.819c-1.561-0.393-2.523-1.987-2.111-3.62c0.387-1.563,1.98-2.522,3.545-2.131c1.633,0.404,2.59,2.002,2.199,3.564     C471.846,195.265,470.246,196.225,468.617,195.819L468.617,195.819z"/>
<path fill-rule="evenodd" clip-rule="evenodd" fill="none" stroke="#000000" stroke-width="0.504" stroke-miterlimit="2.4142" d="     M461.775,199.083c-1.558-0.393-2.521-1.987-2.107-3.62c0.384-1.563,1.979-2.523,3.546-2.132c1.628,0.405,2.589,2.003,2.196,3.565     C465.009,198.529,463.408,199.488,461.775,199.083L461.775,199.083z"/>
<path fill-rule="evenodd" clip-rule="evenodd" fill="none" stroke="#000000" stroke-width="0.504" stroke-miterlimit="2.4142" d="     M454.938,202.345c-1.561-0.392-2.521-1.986-2.115-3.62c0.393-1.562,1.988-2.52,3.549-2.129c1.633,0.404,2.592,2.002,2.201,3.563     C458.168,201.79,456.566,202.749,454.938,202.345L454.938,202.345z"/>
<path fill-rule="evenodd" clip-rule="evenodd" fill="none" stroke="#000000" stroke-width="0.504" stroke-miterlimit="2.4142" d="     M466.354,204.98c-1.563-0.392-2.521-1.988-2.115-3.621c0.39-1.561,1.984-2.521,3.549-2.129c1.631,0.404,2.59,2.001,2.201,3.563     C469.581,204.425,467.98,205.385,466.354,204.98L466.354,204.98z"/>
<path fill-rule="evenodd" clip-rule="evenodd" fill="none" stroke="#000000" stroke-width="0.504" stroke-miterlimit="2.4142" d="     M459.654,208.275c-1.563-0.391-2.523-1.986-2.115-3.621c0.389-1.561,1.983-2.518,3.55-2.127c1.632,0.404,2.589,2.001,2.2,3.563     C462.881,207.722,461.282,208.681,459.654,208.275L459.654,208.275z"/>
<path fill-rule="evenodd" clip-rule="evenodd" fill="none" stroke="#000000" stroke-width="0.504" stroke-miterlimit="2.4142" d="     M452.674,211.508c-1.559-0.388-2.522-1.986-2.115-3.621c0.389-1.561,1.988-2.519,3.55-2.13c1.631,0.406,2.589,2.005,2.202,3.564     C455.898,210.955,454.304,211.913,452.674,211.508L452.674,211.508z"/>
<path fill-rule="evenodd" clip-rule="evenodd" fill="none" stroke="#000000" stroke-width="0.504" stroke-miterlimit="2.4142" d="     M464.088,214.143c-1.561-0.388-2.524-1.986-2.117-3.62c0.389-1.56,1.988-2.52,3.552-2.13c1.628,0.406,2.589,2.005,2.2,3.564     C467.314,213.591,465.717,214.55,464.088,214.143L464.088,214.143z"/>
<path fill-rule="evenodd" clip-rule="evenodd" fill="none" stroke="#000000" stroke-width="0.504" stroke-miterlimit="2.4142" d="     M457.531,217.472c-1.561-0.388-2.525-1.986-2.115-3.62c0.387-1.561,1.984-2.52,3.549-2.132c1.629,0.407,2.588,2.006,2.201,3.565     C460.756,216.92,459.158,217.879,457.531,217.472L457.531,217.472z"/>
<path fill-rule="evenodd" clip-rule="evenodd" fill="none" stroke="#000000" stroke-width="0.504" stroke-miterlimit="2.4142" d="     M450.407,220.669c-1.562-0.392-2.521-1.986-2.114-3.62c0.39-1.561,1.988-2.521,3.552-2.129c1.628,0.406,2.588,2,2.198,3.561     C453.637,220.117,452.041,221.074,450.407,220.669L450.407,220.669z"/>
<path fill-rule="evenodd" clip-rule="evenodd" fill="none" stroke="#000000" stroke-width="0.504" stroke-miterlimit="2.4142" d="     M461.82,223.304c-1.564-0.391-2.52-1.985-2.113-3.62c0.389-1.561,1.988-2.52,3.551-2.129c1.627,0.406,2.586,2.001,2.198,3.562     C465.051,222.752,463.456,223.71,461.82,223.304L461.82,223.304z"/>
<path fill-rule="evenodd" clip-rule="evenodd" fill="none" stroke="#000000" stroke-width="0.504" stroke-miterlimit="2.4142" d="     M455.408,226.667c-1.566-0.395-2.523-1.987-2.115-3.623c0.39-1.56,1.986-2.521,3.549-2.129c1.627,0.405,2.59,2.001,2.201,3.563     C458.637,226.113,457.039,227.07,455.408,226.667L455.408,226.667z"/>
<path fill-rule="evenodd" clip-rule="evenodd" fill="none" stroke="#000000" stroke-width="0.504" stroke-miterlimit="2.4142" d="     M448.145,229.832c-1.559-0.393-2.52-1.987-2.116-3.62c0.393-1.562,1.987-2.521,3.55-2.132c1.631,0.406,2.592,2.001,2.201,3.564     C451.374,229.277,449.777,230.238,448.145,229.832L448.145,229.832z"/>
<path fill-rule="evenodd" clip-rule="evenodd" fill="none" stroke="#000000" stroke-width="0.504" stroke-miterlimit="2.4142" d="     M459.561,232.467c-1.561-0.389-2.522-1.986-2.119-3.619c0.395-1.563,1.987-2.52,3.55-2.132c1.631,0.407,2.592,2.001,2.202,3.564     C462.788,231.913,461.191,232.875,459.561,232.467L459.561,232.467z"/>
<path fill-rule="evenodd" clip-rule="evenodd" fill="none" stroke="#000000" stroke-width="0.504" stroke-miterlimit="2.4142" d="     M452.721,235.73c-1.563-0.391-2.523-1.987-2.117-3.62c0.393-1.563,1.986-2.521,3.549-2.131c1.63,0.406,2.592,2.001,2.201,3.565     C455.949,235.175,454.35,236.137,452.721,235.73L452.721,235.73z"/>
<path fill-rule="evenodd" clip-rule="evenodd" fill="none" stroke="#000000" stroke-width="0.504" stroke-miterlimit="2.4142" d="     M445.877,238.991c-1.563-0.388-2.52-1.983-2.111-3.617c0.39-1.561,1.987-2.521,3.548-2.13c1.628,0.405,2.593,2.005,2.198,3.564     C449.105,238.441,447.51,239.402,445.877,238.991L445.877,238.991z"/>
<path fill-rule="evenodd" clip-rule="evenodd" fill="none" stroke="#000000" stroke-width="0.504" stroke-miterlimit="2.4142" d="     M457.29,241.627c-1.56-0.389-2.52-1.985-2.111-3.618c0.392-1.561,1.987-2.521,3.55-2.13c1.628,0.404,2.59,2.003,2.199,3.564     C460.521,241.076,458.924,242.036,457.29,241.627L457.29,241.627z"/>
<path fill-rule="evenodd" clip-rule="evenodd" fill="none" stroke="#000000" stroke-width="0.504" stroke-miterlimit="2.4142" d="     M450.451,244.89c-1.562-0.387-2.521-1.986-2.111-3.616c0.391-1.562,1.986-2.521,3.549-2.132c1.628,0.406,2.591,2.004,2.199,3.564     C453.68,244.339,452.085,245.301,450.451,244.89L450.451,244.89z"/>
<path fill-rule="evenodd" clip-rule="evenodd" fill="none" stroke="#000000" stroke-width="0.504" stroke-miterlimit="2.4142" d="     M443.613,248.154c-1.563-0.389-2.521-1.986-2.113-3.618c0.391-1.563,1.988-2.521,3.551-2.131     c1.629,0.404,2.589,2.003,2.197,3.562C446.844,247.604,445.245,248.563,443.613,248.154L443.613,248.154z"/>
<path fill-rule="evenodd" clip-rule="evenodd" fill="none" stroke="#000000" stroke-width="0.504" stroke-miterlimit="2.4142" d="     M455.027,250.79c-1.564-0.391-2.523-1.989-2.113-3.618c0.392-1.563,1.986-2.523,3.549-2.132c1.631,0.404,2.59,2.004,2.199,3.563     C458.258,250.238,456.66,251.198,455.027,250.79L455.027,250.79z"/>
<path fill-rule="evenodd" clip-rule="evenodd" fill="none" stroke="#000000" stroke-width="0.504" stroke-miterlimit="2.4142" d="     M448.188,254.053c-1.565-0.389-2.521-1.986-2.114-3.617c0.391-1.563,1.986-2.521,3.549-2.132c1.631,0.403,2.591,2.005,2.2,3.563     C451.418,253.502,449.818,254.461,448.188,254.053L448.188,254.053z"/>
<path fill-rule="evenodd" clip-rule="evenodd" fill="none" stroke="#000000" stroke-width="0.504" stroke-miterlimit="2.4142" d="     M441.348,257.315c-1.561-0.39-2.521-1.985-2.111-3.617c0.391-1.563,1.988-2.522,3.551-2.131c1.627,0.404,2.587,2.004,2.199,3.563     C444.578,256.764,442.98,257.723,441.348,257.315L441.348,257.315z"/>
<path fill-rule="evenodd" clip-rule="evenodd" fill="none" stroke="#000000" stroke-width="0.504" stroke-miterlimit="2.4142" d="     M452.762,259.95c-1.562-0.389-2.521-1.985-2.112-3.616c0.392-1.563,1.987-2.522,3.549-2.131c1.63,0.404,2.591,2.004,2.2,3.563     C455.992,259.398,454.395,260.358,452.762,259.95L452.762,259.95z"/>
<path fill-rule="evenodd" clip-rule="evenodd" fill="none" stroke="#000000" stroke-width="0.504" stroke-miterlimit="2.4142" d="     M445.923,263.215c-1.562-0.39-2.519-1.987-2.11-3.617c0.389-1.563,1.984-2.522,3.547-2.132c1.631,0.405,2.591,2.005,2.199,3.563     C449.152,262.663,447.553,263.622,445.923,263.215L445.923,263.215z"/>
<path fill-rule="evenodd" clip-rule="evenodd" fill="none" stroke="#000000" stroke-width="0.504" stroke-miterlimit="2.4142" d="     M439.08,266.478c-1.561-0.39-2.518-1.986-2.111-3.619c0.393-1.562,1.988-2.52,3.549-2.13c1.632,0.405,2.594,2.004,2.201,3.563     C442.311,265.925,440.714,266.885,439.08,266.478L439.08,266.478z"/>
<path fill-rule="evenodd" clip-rule="evenodd" fill="none" stroke="#000000" stroke-width="0.504" stroke-miterlimit="2.4142" d="     M450.496,269.112c-1.564-0.39-2.52-1.984-2.111-3.618c0.389-1.563,1.985-2.521,3.547-2.131c1.631,0.404,2.592,2.004,2.201,3.564     C453.727,268.56,452.129,269.52,450.496,269.112L450.496,269.112z"/>
<path fill-rule="evenodd" clip-rule="evenodd" fill="none" stroke="#000000" stroke-width="0.504" stroke-miterlimit="2.4142" d="     M443.655,272.376c-1.562-0.388-2.521-1.985-2.111-3.618c0.39-1.562,1.987-2.521,3.547-2.131c1.634,0.406,2.593,2.003,2.202,3.563     C446.886,271.824,445.289,272.785,443.655,272.376L443.655,272.376z"/>
<path fill-rule="evenodd" clip-rule="evenodd" fill="none" stroke="#000000" stroke-width="0.504" stroke-miterlimit="2.4142" d="     M436.817,275.64c-1.56-0.39-2.52-1.986-2.112-3.617c0.393-1.564,1.986-2.521,3.551-2.131c1.63,0.405,2.591,2.004,2.199,3.563     C440.049,275.088,438.451,276.049,436.817,275.64L436.817,275.64z"/>
<path fill-rule="evenodd" clip-rule="evenodd" fill="none" stroke="#000000" stroke-width="0.504" stroke-miterlimit="2.4142" d="     M448.232,278.275c-1.562-0.391-2.521-1.986-2.115-3.619c0.393-1.561,1.987-2.519,3.553-2.13c1.627,0.404,2.592,2.006,2.2,3.563     C451.463,277.723,449.863,278.683,448.232,278.275L448.232,278.275z"/>
<path fill-rule="evenodd" clip-rule="evenodd" fill="none" stroke="#000000" stroke-width="0.504" stroke-miterlimit="2.4142" d="     M441.394,281.539c-1.563-0.39-2.522-1.985-2.114-3.619c0.392-1.562,1.986-2.52,3.551-2.131c1.629,0.406,2.59,2.005,2.2,3.564     C444.621,280.987,443.023,281.947,441.394,281.539L441.394,281.539z"/>
<path fill-rule="evenodd" clip-rule="evenodd" fill="none" stroke="#000000" stroke-width="0.504" stroke-miterlimit="2.4142" d="     M434.554,284.801c-1.562-0.387-2.523-1.984-2.112-3.617c0.388-1.562,1.986-2.518,3.548-2.131     c1.626,0.408,2.593,2.003,2.198,3.563C437.781,284.25,436.186,285.212,434.554,284.801L434.554,284.801z"/>
<path fill-rule="evenodd" clip-rule="evenodd" fill="none" stroke="#000000" stroke-width="0.504" stroke-miterlimit="2.4142" d="     M445.967,287.436c-1.563-0.388-2.521-1.984-2.113-3.617c0.391-1.561,1.986-2.519,3.551-2.13c1.627,0.405,2.591,2.003,2.198,3.563     C449.194,286.886,447.599,287.846,445.967,287.436L445.967,287.436z"/>
<path fill-rule="evenodd" clip-rule="evenodd" fill="none" stroke="#000000" stroke-width="0.504" stroke-miterlimit="2.4142" d="     M439.127,290.699c-1.562-0.389-2.52-1.985-2.113-3.617c0.391-1.563,1.986-2.521,3.55-2.13c1.63,0.404,2.593,2,2.198,3.562     C442.355,290.147,440.758,291.107,439.127,290.699L439.127,290.699z"/>
<path fill-rule="evenodd" clip-rule="evenodd" fill="none" stroke="#000000" stroke-width="0.504" stroke-miterlimit="2.4142" d="     M432.289,293.963c-1.561-0.39-2.52-1.985-2.113-3.618c0.39-1.563,1.986-2.519,3.551-2.129c1.629,0.403,2.59,2,2.198,3.562     C435.518,293.412,433.922,294.372,432.289,293.963L432.289,293.963z"/>
<path fill-rule="evenodd" clip-rule="evenodd" fill="none" stroke="#000000" stroke-width="0.504" stroke-miterlimit="2.4142" d="     M443.701,296.598c-1.561-0.388-2.521-1.985-2.111-3.617c0.389-1.563,1.986-2.521,3.549-2.13c1.628,0.403,2.592,2.001,2.201,3.563     C446.932,296.047,445.334,297.007,443.701,296.598L443.701,296.598z"/>
<path fill-rule="evenodd" clip-rule="evenodd" fill="none" stroke="#000000" stroke-width="0.504" stroke-miterlimit="2.4142" d="     M437.005,299.894c-1.563-0.388-2.521-1.984-2.114-3.618c0.391-1.561,1.986-2.52,3.551-2.129c1.629,0.405,2.592,2,2.197,3.563     C440.232,299.343,438.635,300.303,437.005,299.894L437.005,299.894z"/>
</g></switch>
</svg>