<?xml version="1.0" encoding="utf-8"?>
<!DOCTYPE svg PUBLIC "-//W3C//DTD SVG 1.1//EN" "http://www.w3.org/Graphics/SVG/1.1/DTD/svg11.dtd">
<svg version="1.1" id="Armor" xmlns="http://www.w3.org/2000/svg" xmlns:xlink="http://www.w3.org/1999/xlink" x="0px" y="0px"
	 width="612px" height="792px" viewBox="0 0 612 792" enable-background="new 0 0 612 792" xml:space="preserve">
<switch><g>
<path fill-rule="evenodd" clip-rule="evenodd" fill="none" stroke="#000000" stroke-width="0.504" stroke-miterlimit="2.4142" d="     M462.619,189.833c-1.563-0.388-2.518-1.984-2.107-3.617c0.388-1.567,1.98-2.523,3.547-2.132c1.629,0.408,2.585,2.004,2.197,3.565     C465.848,189.28,464.258,190.243,462.619,189.833L462.619,189.833z"/>
<path fill-rule="evenodd" clip-rule="evenodd" fill="none" stroke="#000000" stroke-width="0.504" stroke-miterlimit="2.4142" d="     M451.889,210.29c-1.563-0.389-2.526-1.983-2.115-3.616c0.388-1.566,1.986-2.521,3.555-2.132c1.627,0.404,2.591,2.004,2.197,3.563     C455.123,209.735,453.521,210.697,451.889,210.29L451.889,210.29z"/>
<path fill-rule="evenodd" clip-rule="evenodd" fill="none" stroke="#000000" stroke-width="0.504" stroke-miterlimit="2.4142" d="     M463.303,212.924c-1.566-0.388-2.523-1.985-2.116-3.616c0.389-1.563,1.986-2.521,3.548-2.131c1.63,0.402,2.592,2.002,2.203,3.563     C466.537,212.373,464.935,213.333,463.303,212.924L463.303,212.924z"/>
<path fill-rule="evenodd" clip-rule="evenodd" fill="none" stroke="#000000" stroke-width="0.504" stroke-miterlimit="2.4142" d="     M452.563,233.38c-1.555-0.392-2.511-1.985-2.109-3.617c0.393-1.563,1.992-2.523,3.547-2.131c1.637,0.402,2.596,2.006,2.202,3.561     C455.795,232.829,454.201,233.789,452.563,233.38L452.563,233.38z"/>
<path fill-rule="evenodd" clip-rule="evenodd" fill="none" stroke="#000000" stroke-width="0.504" stroke-miterlimit="2.4142" d="     M441.834,253.837c-1.563-0.387-2.518-1.984-2.117-3.62c0.398-1.558,1.992-2.516,3.556-2.126c1.631,0.407,2.597,2.003,2.202,3.565     C445.064,253.287,443.463,254.248,441.834,253.837L441.834,253.837z"/>
<path fill-rule="evenodd" clip-rule="evenodd" fill="none" stroke="#000000" stroke-width="0.504" stroke-miterlimit="2.4142" d="     M453.246,256.473c-1.563-0.388-2.521-1.986-2.113-3.617c0.388-1.559,1.99-2.52,3.551-2.131c1.631,0.408,2.594,2.005,2.197,3.565     C456.477,255.922,454.881,256.883,453.246,256.473L453.246,256.473z"/>
<path fill-rule="evenodd" clip-rule="evenodd" fill="none" stroke="#000000" stroke-width="0.504" stroke-miterlimit="2.4142" d="     M442.513,276.93c-1.56-0.389-2.523-1.983-2.106-3.618c0.383-1.563,1.975-2.521,3.544-2.13c1.627,0.402,2.591,2.003,2.204,3.561     C445.74,276.376,444.141,277.338,442.513,276.93L442.513,276.93z"/>
<path fill-rule="evenodd" clip-rule="evenodd" fill="none" stroke="#000000" stroke-width="0.504" stroke-miterlimit="2.4142" d="     M431.777,297.386c-1.563-0.385-2.52-1.986-2.113-3.621c0.395-1.556,1.988-2.511,3.556-2.126c1.621,0.405,2.591,2,2.192,3.564     C435.007,296.839,433.41,297.797,431.777,297.386L431.777,297.386z"/>
<path fill-rule="evenodd" clip-rule="evenodd" fill="none" stroke="#000000" stroke-width="0.504" stroke-miterlimit="2.4142" d="     M443.195,300.021c-1.569-0.384-2.525-1.983-2.118-3.619c0.394-1.56,1.991-2.515,3.552-2.13c1.627,0.411,2.592,2.002,2.201,3.566     C446.42,299.47,444.823,300.434,443.195,300.021L443.195,300.021z"/>
</g></switch>
</svg>