<?xml version="1.0" encoding="utf-8"?>
<!DOCTYPE svg PUBLIC "-//W3C//DTD SVG 1.1//EN" "http://www.w3.org/Graphics/SVG/1.1/DTD/svg11.dtd">
<svg version="1.1" id="Armor" xmlns="http://www.w3.org/2000/svg" xmlns:xlink="http://www.w3.org/1999/xlink" x="0px" y="0px"
	 width="612px" height="792px" viewBox="0 0 612 792" enable-background="new 0 0 612 792" xml:space="preserve">
<switch><g>
<path fill-rule="evenodd" clip-rule="evenodd" fill="none" stroke="#000000" stroke-width="0.504" stroke-miterlimit="2.4142" d="     M457.311,190.073c-1.559-0.393-2.521-1.985-2.111-3.62c0.388-1.563,1.982-2.521,3.547-2.13c1.631,0.405,2.59,2.002,2.2,3.563     C460.541,189.52,458.941,190.479,457.311,190.073L457.311,190.073z"/>
<path fill-rule="evenodd" clip-rule="evenodd" fill="none" stroke="#000000" stroke-width="0.504" stroke-miterlimit="2.4142" d="     M468.726,192.708c-1.561-0.393-2.522-1.985-2.112-3.62c0.389-1.563,1.984-2.522,3.547-2.13c1.633,0.404,2.589,2.002,2.2,3.564     C471.955,192.154,470.354,193.115,468.726,192.708L468.726,192.708z"/>
<path fill-rule="evenodd" clip-rule="evenodd" fill="none" stroke="#000000" stroke-width="0.504" stroke-miterlimit="2.4142" d="     M461.76,196.835c-1.558-0.392-2.521-1.986-2.107-3.619c0.383-1.564,1.98-2.524,3.545-2.133c1.63,0.405,2.591,2.004,2.197,3.565     C464.992,196.281,463.394,197.241,461.76,196.835L461.76,196.835z"/>
<path fill-rule="evenodd" clip-rule="evenodd" fill="none" stroke="#000000" stroke-width="0.504" stroke-miterlimit="2.4142" d="     M454.802,200.961c-1.561-0.392-2.522-1.988-2.115-3.623c0.39-1.561,1.985-2.517,3.548-2.128c1.633,0.404,2.592,2.003,2.201,3.563     C458.029,200.406,456.43,201.363,454.802,200.961L454.802,200.961z"/>
<path fill-rule="evenodd" clip-rule="evenodd" fill="none" stroke="#000000" stroke-width="0.504" stroke-miterlimit="2.4142" d="     M466.215,203.596c-1.561-0.393-2.521-1.988-2.115-3.623c0.39-1.561,1.986-2.519,3.547-2.128c1.634,0.405,2.592,2.003,2.201,3.563     C469.442,203.04,467.841,203.998,466.215,203.596L466.215,203.596z"/>
<path fill-rule="evenodd" clip-rule="evenodd" fill="none" stroke="#000000" stroke-width="0.504" stroke-miterlimit="2.4142" d="     M459.25,207.722c-1.563-0.393-2.522-1.988-2.114-3.623c0.388-1.561,1.984-2.519,3.548-2.127c1.632,0.404,2.592,2.001,2.199,3.563     C462.477,207.166,460.877,208.126,459.25,207.722L459.25,207.722z"/>
<path fill-rule="evenodd" clip-rule="evenodd" fill="none" stroke="#000000" stroke-width="0.504" stroke-miterlimit="2.4142" d="     M452.29,211.85c-1.562-0.39-2.525-1.987-2.118-3.62c0.389-1.562,1.987-2.521,3.552-2.132c1.63,0.405,2.588,2.006,2.2,3.563     C455.516,211.296,453.918,212.255,452.29,211.85L452.29,211.85z"/>
<path fill-rule="evenodd" clip-rule="evenodd" fill="none" stroke="#000000" stroke-width="0.504" stroke-miterlimit="2.4142" d="     M463.701,214.482c-1.561-0.388-2.525-1.986-2.117-3.619c0.388-1.561,1.988-2.521,3.551-2.131c1.629,0.406,2.59,2.005,2.201,3.564     C466.927,213.931,465.329,214.889,463.701,214.482L463.701,214.482z"/>
<path fill-rule="evenodd" clip-rule="evenodd" fill="none" stroke="#000000" stroke-width="0.504" stroke-miterlimit="2.4142" d="     M456.738,218.609c-1.561-0.388-2.526-1.987-2.117-3.62c0.389-1.561,1.988-2.52,3.551-2.131c1.628,0.406,2.588,2.004,2.199,3.563     C459.962,218.058,458.363,219.015,456.738,218.609L456.738,218.609z"/>
<path fill-rule="evenodd" clip-rule="evenodd" fill="none" stroke="#000000" stroke-width="0.504" stroke-miterlimit="2.4142" d="     M449.771,222.734c-1.563-0.391-2.52-1.985-2.111-3.62c0.389-1.561,1.988-2.521,3.549-2.13c1.628,0.407,2.587,2.002,2.199,3.563     C453.004,222.183,451.407,223.141,449.771,222.734L449.771,222.734z"/>
<path fill-rule="evenodd" clip-rule="evenodd" fill="none" stroke="#000000" stroke-width="0.504" stroke-miterlimit="2.4142" d="     M461.185,225.368c-1.565-0.39-2.518-1.984-2.113-3.619c0.39-1.563,1.989-2.519,3.553-2.13c1.626,0.407,2.585,2.003,2.196,3.563     C464.416,224.817,462.819,225.776,461.185,225.368L461.185,225.368z"/>
<path fill-rule="evenodd" clip-rule="evenodd" fill="none" stroke="#000000" stroke-width="0.504" stroke-miterlimit="2.4142" d="     M454.222,229.496c-1.565-0.393-2.521-1.986-2.113-3.622c0.39-1.559,1.985-2.52,3.55-2.13c1.624,0.407,2.588,2.004,2.201,3.564     C457.453,228.944,455.854,229.9,454.222,229.496L454.222,229.496z"/>
<path fill-rule="evenodd" clip-rule="evenodd" fill="none" stroke="#000000" stroke-width="0.504" stroke-miterlimit="2.4142" d="     M447.262,233.623c-1.561-0.39-2.52-1.987-2.117-3.618c0.393-1.564,1.988-2.521,3.551-2.134c1.631,0.407,2.592,2.002,2.199,3.566     C450.492,233.068,448.892,234.03,447.262,233.623L447.262,233.623z"/>
<path fill-rule="evenodd" clip-rule="evenodd" fill="none" stroke="#000000" stroke-width="0.504" stroke-miterlimit="2.4142" d="     M458.674,236.257c-1.561-0.39-2.52-1.986-2.118-3.619c0.394-1.563,1.989-2.52,3.55-2.133c1.631,0.408,2.592,2.002,2.201,3.566     C461.902,235.703,460.305,236.665,458.674,236.257L458.674,236.257z"/>
<path fill-rule="evenodd" clip-rule="evenodd" fill="none" stroke="#000000" stroke-width="0.504" stroke-miterlimit="2.4142" d="     M451.711,240.383c-1.563-0.392-2.522-1.987-2.115-3.619c0.393-1.563,1.984-2.521,3.548-2.132c1.63,0.406,2.59,2.002,2.2,3.564     C454.939,239.827,453.34,240.788,451.711,240.383L451.711,240.383z"/>
<path fill-rule="evenodd" clip-rule="evenodd" fill="none" stroke="#000000" stroke-width="0.504" stroke-miterlimit="2.4142" d="     M444.743,244.506c-1.561-0.387-2.519-1.982-2.11-3.615c0.39-1.561,1.986-2.521,3.547-2.132c1.63,0.406,2.592,2.005,2.2,3.565     C447.973,243.958,446.376,244.917,444.743,244.506L444.743,244.506z"/>
<path fill-rule="evenodd" clip-rule="evenodd" fill="none" stroke="#000000" stroke-width="0.504" stroke-miterlimit="2.4142" d="     M456.156,247.141c-1.561-0.388-2.52-1.984-2.111-3.617c0.391-1.561,1.986-2.521,3.548-2.13c1.63,0.404,2.593,2.003,2.2,3.564     C459.387,246.591,457.789,247.551,456.156,247.141L456.156,247.141z"/>
<path fill-rule="evenodd" clip-rule="evenodd" fill="none" stroke="#000000" stroke-width="0.504" stroke-miterlimit="2.4142" d="     M449.191,251.267c-1.563-0.387-2.52-1.984-2.109-3.614c0.39-1.562,1.984-2.522,3.547-2.132c1.629,0.404,2.59,2.004,2.199,3.564     C452.422,250.719,450.824,251.679,449.191,251.267L449.191,251.267z"/>
<path fill-rule="evenodd" clip-rule="evenodd" fill="none" stroke="#000000" stroke-width="0.504" stroke-miterlimit="2.4142" d="     M442.232,255.396c-1.563-0.391-2.521-1.987-2.113-3.617c0.393-1.565,1.985-2.524,3.55-2.133c1.631,0.403,2.591,2.004,2.197,3.563     C445.464,254.843,443.865,255.803,442.232,255.396L442.232,255.396z"/>
<path fill-rule="evenodd" clip-rule="evenodd" fill="none" stroke="#000000" stroke-width="0.504" stroke-miterlimit="2.4142" d="     M453.645,258.029c-1.563-0.39-2.521-1.986-2.113-3.618c0.394-1.563,1.986-2.522,3.549-2.131c1.63,0.403,2.591,2.003,2.199,3.563     C456.874,257.478,455.277,258.438,453.645,258.029L453.645,258.029z"/>
<path fill-rule="evenodd" clip-rule="evenodd" fill="none" stroke="#000000" stroke-width="0.504" stroke-miterlimit="2.4142" d="     M446.68,262.155c-1.563-0.391-2.518-1.986-2.112-3.617c0.39-1.563,1.986-2.523,3.548-2.132c1.633,0.404,2.589,2.003,2.201,3.563     C449.912,261.604,448.312,262.563,446.68,262.155L446.68,262.155z"/>
<path fill-rule="evenodd" clip-rule="evenodd" fill="none" stroke="#000000" stroke-width="0.504" stroke-miterlimit="2.4142" d="     M439.716,266.281c-1.561-0.39-2.521-1.986-2.111-3.618c0.392-1.563,1.987-2.521,3.55-2.13c1.629,0.404,2.59,2.004,2.198,3.563     C442.947,265.729,441.35,266.688,439.716,266.281L439.716,266.281z"/>
<path fill-rule="evenodd" clip-rule="evenodd" fill="none" stroke="#000000" stroke-width="0.504" stroke-miterlimit="2.4142" d="     M451.13,268.915c-1.562-0.389-2.521-1.984-2.112-3.617c0.393-1.563,1.987-2.521,3.549-2.131c1.629,0.405,2.592,2.005,2.199,3.564     C454.36,268.363,452.762,269.324,451.13,268.915L451.13,268.915z"/>
<path fill-rule="evenodd" clip-rule="evenodd" fill="none" stroke="#000000" stroke-width="0.504" stroke-miterlimit="2.4142" d="     M444.165,273.042c-1.563-0.389-2.517-1.983-2.11-3.616c0.39-1.563,1.985-2.522,3.547-2.132c1.632,0.405,2.59,2.005,2.2,3.564     C447.395,272.491,445.798,273.451,444.165,273.042L444.165,273.042z"/>
<path fill-rule="evenodd" clip-rule="evenodd" fill="none" stroke="#000000" stroke-width="0.504" stroke-miterlimit="2.4142" d="     M437.203,277.169c-1.563-0.389-2.521-1.984-2.111-3.616c0.391-1.565,1.985-2.522,3.548-2.133c1.632,0.404,2.593,2.005,2.2,3.563     C440.433,276.616,438.836,277.576,437.203,277.169L437.203,277.169z"/>
<path fill-rule="evenodd" clip-rule="evenodd" fill="none" stroke="#000000" stroke-width="0.504" stroke-miterlimit="2.4142" d="     M448.616,279.804c-1.563-0.389-2.521-1.985-2.114-3.616c0.392-1.565,1.988-2.521,3.55-2.134c1.631,0.405,2.592,2.006,2.201,3.564     C451.848,279.251,450.248,280.212,448.616,279.804L448.616,279.804z"/>
<path fill-rule="evenodd" clip-rule="evenodd" fill="none" stroke="#000000" stroke-width="0.504" stroke-miterlimit="2.4142" d="     M441.651,283.929c-1.561-0.387-2.518-1.984-2.11-3.616c0.389-1.563,1.986-2.521,3.548-2.133c1.632,0.406,2.592,2.005,2.202,3.565     C444.883,283.378,443.287,284.339,441.651,283.929L441.651,283.929z"/>
<path fill-rule="evenodd" clip-rule="evenodd" fill="none" stroke="#000000" stroke-width="0.504" stroke-miterlimit="2.4142" d="     M434.691,288.055c-1.562-0.387-2.521-1.985-2.113-3.616c0.391-1.562,1.985-2.52,3.551-2.132c1.627,0.406,2.592,2.007,2.199,3.564     C437.922,287.503,436.323,288.466,434.691,288.055L434.691,288.055z"/>
<path fill-rule="evenodd" clip-rule="evenodd" fill="none" stroke="#000000" stroke-width="0.504" stroke-miterlimit="2.4142" d="     M446.104,290.689c-1.563-0.388-2.521-1.985-2.114-3.617c0.391-1.563,1.987-2.521,3.551-2.131c1.63,0.405,2.593,2.005,2.199,3.563     C449.333,290.138,447.735,291.099,446.104,290.689L446.104,290.689z"/>
<path fill-rule="evenodd" clip-rule="evenodd" fill="none" stroke="#000000" stroke-width="0.504" stroke-miterlimit="2.4142" d="     M439.141,294.816c-1.563-0.39-2.523-1.984-2.113-3.617c0.391-1.563,1.984-2.521,3.548-2.132c1.63,0.404,2.592,2.005,2.204,3.564     C442.366,294.263,440.771,295.224,439.141,294.816L439.141,294.816z"/>
<path fill-rule="evenodd" clip-rule="evenodd" fill="none" stroke="#000000" stroke-width="0.504" stroke-miterlimit="2.4142" d="     M432.177,298.941c-1.563-0.388-2.521-1.985-2.114-3.618c0.393-1.56,1.989-2.517,3.553-2.128c1.626,0.402,2.591,2.002,2.197,3.563     C435.406,298.392,433.81,299.351,432.177,298.941L432.177,298.941z"/>
<path fill-rule="evenodd" clip-rule="evenodd" fill="none" stroke="#000000" stroke-width="0.504" stroke-miterlimit="2.4142" d="     M443.59,301.576c-1.562-0.388-2.521-1.985-2.112-3.618c0.389-1.561,1.986-2.518,3.549-2.129c1.628,0.405,2.593,2.001,2.199,3.563     C446.818,301.026,445.222,301.986,443.59,301.576L443.59,301.576z"/>
</g></switch>
</svg>