<?xml version="1.0" encoding="utf-8"?>
<!DOCTYPE svg PUBLIC "-//W3C//DTD SVG 1.1//EN" "http://www.w3.org/Graphics/SVG/1.1/DTD/svg11.dtd">
<svg version="1.1" id="Armor" xmlns="http://www.w3.org/2000/svg" xmlns:xlink="http://www.w3.org/1999/xlink" x="0px" y="0px"
	 width="612px" height="792px" viewBox="0 0 612 792" enable-background="new 0 0 612 792" xml:space="preserve">
<switch><g>
<path fill="none" stroke="#000000" stroke-width="0.504" stroke-miterlimit="2.4142" d="M563.194,80.443     c1.659-0.146,2.928-1.652,2.778-3.313c-0.149-1.729-1.646-2.924-3.313-2.779c-1.729,0.151-3.002,1.589-2.851,3.319     C559.956,79.331,561.468,80.594,563.194,80.443L563.194,80.443z"/>
<path fill="none" stroke="#000000" stroke-width="0.504" stroke-miterlimit="2.4142" d="M551.899,81.432     c1.661-0.146,2.928-1.652,2.778-3.312c-0.147-1.729-1.646-2.924-3.313-2.78c-1.729,0.151-3,1.59-2.85,3.321     C548.665,80.321,550.171,81.582,551.899,81.432L551.899,81.432z"/>
<path fill="none" stroke="#000000" stroke-width="0.504" stroke-miterlimit="2.4142" d="M558.054,86.761     c1.664-0.144,2.93-1.652,2.783-3.312c-0.147-1.731-1.651-2.925-3.311-2.779c-1.732,0.151-3.002,1.586-2.853,3.319     C554.821,85.649,556.325,86.912,558.054,86.761L558.054,86.761z"/>
<path fill="none" stroke="#000000" stroke-width="0.504" stroke-miterlimit="2.4142" d="M564.211,92.091     c1.663-0.144,2.93-1.652,2.784-3.311c-0.15-1.73-1.654-2.926-3.313-2.779c-1.731,0.15-3.004,1.587-2.852,3.318     C560.977,90.979,562.483,92.243,564.211,92.091L564.211,92.091z"/>
<path fill="none" stroke="#000000" stroke-width="0.504" stroke-miterlimit="2.4142" d="M552.914,93.079     c1.664-0.144,2.931-1.652,2.786-3.311c-0.149-1.732-1.656-2.926-3.316-2.779c-1.73,0.149-2.999,1.587-2.848,3.319     C549.682,91.968,551.188,93.23,552.914,93.079L552.914,93.079z"/>
<path fill="none" stroke="#000000" stroke-width="0.504" stroke-miterlimit="2.4142" d="M559.075,98.411     c1.664-0.146,2.924-1.653,2.78-3.313c-0.151-1.731-1.651-2.926-3.313-2.782c-1.729,0.152-2.998,1.59-2.848,3.321     C555.837,97.297,557.348,98.562,559.075,98.411L559.075,98.411z"/>
<path fill="none" stroke="#000000" stroke-width="0.504" stroke-miterlimit="2.4142" d="M565.233,103.74     c1.661-0.146,2.922-1.651,2.778-3.313c-0.151-1.729-1.65-2.925-3.313-2.781c-1.728,0.151-3,1.59-2.85,3.32     C561.991,102.627,563.503,103.893,565.233,103.74L565.233,103.74z"/>
<path fill="none" stroke="#000000" stroke-width="0.504" stroke-miterlimit="2.4142" d="M553.938,104.728     c1.66-0.144,2.927-1.649,2.78-3.311c-0.152-1.73-1.652-2.924-3.314-2.78c-1.729,0.151-3,1.588-2.848,3.32     C550.7,103.616,552.208,104.881,553.938,104.728L553.938,104.728z"/>
<path fill="none" stroke="#000000" stroke-width="0.504" stroke-miterlimit="2.4142" d="M560.097,110.059     c1.662-0.145,2.922-1.652,2.777-3.312c-0.152-1.73-1.652-2.926-3.314-2.781c-1.729,0.152-2.995,1.59-2.846,3.32     C556.862,108.945,558.364,110.211,560.097,110.059L560.097,110.059z"/>
<path fill="none" stroke="#000000" stroke-width="0.504" stroke-miterlimit="2.4142" d="M566.254,115.388     c1.66-0.145,2.921-1.651,2.778-3.312c-0.152-1.73-1.652-2.925-3.314-2.779c-1.729,0.152-3,1.588-2.848,3.319     C563.017,114.276,564.521,115.54,566.254,115.388L566.254,115.388z"/>
<path fill="none" stroke="#000000" stroke-width="0.504" stroke-miterlimit="2.4142" d="M554.956,116.376     c1.66-0.144,2.925-1.651,2.781-3.311c-0.15-1.73-1.654-2.925-3.318-2.78c-1.729,0.152-2.996,1.589-2.842,3.32     C551.722,115.266,553.226,116.529,554.956,116.376L554.956,116.376z"/>
<path fill="none" stroke="#000000" stroke-width="0.504" stroke-miterlimit="2.4142" d="M561.114,121.707     c1.659-0.146,2.925-1.652,2.78-3.312c-0.153-1.732-1.65-2.926-3.313-2.781c-1.729,0.15-3,1.59-2.848,3.32     C557.877,120.595,559.386,121.858,561.114,121.707L561.114,121.707z"/>
<path fill="none" stroke="#000000" stroke-width="0.504" stroke-miterlimit="2.4142" d="M567.271,127.037     c1.657-0.146,2.926-1.651,2.779-3.313c-0.152-1.731-1.648-2.926-3.313-2.78c-1.729,0.151-3.003,1.588-2.851,3.319     C564.032,125.925,565.542,127.188,567.271,127.037L567.271,127.037z"/>
<path fill="none" stroke="#000000" stroke-width="0.504" stroke-miterlimit="2.4142" d="M555.976,128.025     c1.658-0.146,2.929-1.65,2.783-3.313c-0.153-1.73-1.652-2.925-3.313-2.779c-1.73,0.152-3.001,1.588-2.851,3.319     C552.737,126.913,554.245,128.177,555.976,128.025L555.976,128.025z"/>
<path fill="none" stroke="#000000" stroke-width="0.504" stroke-miterlimit="2.4142" d="M562.132,133.355     c1.664-0.146,2.926-1.651,2.779-3.312c-0.15-1.732-1.649-2.926-3.314-2.781c-1.727,0.151-2.994,1.588-2.844,3.321     C558.896,132.243,560.401,133.507,562.132,133.355L562.132,133.355z"/>
<path fill="none" stroke="#000000" stroke-width="0.504" stroke-miterlimit="2.4142" d="M568.29,138.687     c1.664-0.146,2.926-1.651,2.777-3.312c-0.148-1.733-1.65-2.928-3.313-2.783c-1.727,0.152-2.998,1.589-2.848,3.323     C565.052,137.573,566.56,138.838,568.29,138.687L568.29,138.687z"/>
<path fill="none" stroke="#000000" stroke-width="0.504" stroke-miterlimit="2.4142" d="M556.995,139.674     c1.662-0.145,2.926-1.649,2.781-3.31c-0.15-1.732-1.654-2.927-3.316-2.783c-1.727,0.151-2.996,1.589-2.844,3.323     C553.759,138.563,555.265,139.826,556.995,139.674L556.995,139.674z"/>
<path fill="none" stroke="#000000" stroke-width="0.504" stroke-miterlimit="2.4142" d="M563.151,145.003     c1.663-0.144,2.926-1.65,2.778-3.311c-0.149-1.73-1.647-2.925-3.313-2.78c-1.729,0.151-2.998,1.589-2.844,3.321     C559.916,143.892,561.423,145.155,563.151,145.003L563.151,145.003z"/>
<path fill="none" stroke="#000000" stroke-width="0.504" stroke-miterlimit="2.4142" d="M569.308,150.334     c1.664-0.145,2.928-1.651,2.781-3.312c-0.151-1.731-1.649-2.926-3.313-2.781c-1.729,0.151-3.001,1.589-2.848,3.322     C566.071,149.221,567.58,150.484,569.308,150.334L569.308,150.334z"/>
<path fill="none" stroke="#000000" stroke-width="0.504" stroke-miterlimit="2.4142" d="M558.013,151.321     c1.661-0.145,2.928-1.65,2.783-3.311c-0.154-1.731-1.654-2.926-3.315-2.781c-1.73,0.151-3.001,1.588-2.846,3.32     C554.774,150.21,556.283,151.473,558.013,151.321L558.013,151.321z"/>
<path fill="none" stroke="#000000" stroke-width="0.504" stroke-miterlimit="2.4142" d="M564.171,156.651     c1.66-0.144,2.924-1.651,2.78-3.311c-0.153-1.732-1.652-2.926-3.313-2.78c-1.728,0.151-3,1.587-2.845,3.319     C560.935,155.538,562.44,156.803,564.171,156.651L564.171,156.651z"/>
<path fill="none" stroke="#000000" stroke-width="0.504" stroke-miterlimit="2.4142" d="M570.329,161.981     c1.66-0.144,2.922-1.651,2.776-3.312c-0.149-1.731-1.651-2.924-3.313-2.779c-1.727,0.151-3,1.587-2.847,3.32     C567.089,160.869,568.597,162.134,570.329,161.981L570.329,161.981z"/>
<path fill="none" stroke="#000000" stroke-width="0.504" stroke-miterlimit="2.4142" d="M559.034,162.969     c1.66-0.141,2.924-1.65,2.778-3.311c-0.147-1.731-1.653-2.925-3.313-2.779c-1.729,0.151-2.998,1.588-2.846,3.319     C555.796,161.857,557.302,163.122,559.034,162.969L559.034,162.969z"/>
<path fill="none" stroke="#000000" stroke-width="0.504" stroke-miterlimit="2.4142" d="M565.19,168.3     c1.661-0.145,2.923-1.651,2.778-3.311c-0.151-1.733-1.651-2.925-3.313-2.78c-1.728,0.151-2.996,1.588-2.845,3.32     C561.952,167.188,563.459,168.451,565.19,168.3L565.19,168.3z"/>
<path fill="none" stroke="#000000" stroke-width="0.504" stroke-miterlimit="2.4142" d="M571.349,173.629     c1.66-0.144,2.923-1.651,2.777-3.311c-0.15-1.731-1.652-2.924-3.313-2.779c-1.727,0.15-3,1.587-2.848,3.32     C568.107,172.518,569.616,173.781,571.349,173.629L571.349,173.629z"/>
<path fill="none" stroke="#000000" stroke-width="0.504" stroke-miterlimit="2.4142" d="M560.054,174.617     c1.66-0.142,2.925-1.651,2.778-3.311c-0.148-1.731-1.653-2.925-3.313-2.779c-1.729,0.151-2.998,1.588-2.848,3.319     C556.814,173.505,558.321,174.77,560.054,174.617L560.054,174.617z"/>
</g></switch>
</svg>