<?xml version="1.0" encoding="utf-8"?>
<!DOCTYPE svg PUBLIC "-//W3C//DTD SVG 1.1//EN" "http://www.w3.org/Graphics/SVG/1.1/DTD/svg11.dtd">
<svg version="1.1" id="Armor" xmlns="http://www.w3.org/2000/svg" xmlns:xlink="http://www.w3.org/1999/xlink" x="0px" y="0px"
	 width="612px" height="792px" viewBox="0 0 612 792" enable-background="new 0 0 612 792" xml:space="preserve">
<switch><g>
<path fill-rule="evenodd" clip-rule="evenodd" fill="none" stroke="#000000" stroke-width="0.504" stroke-miterlimit="2.4142" d="     M456.705,187.968c-1.564-0.388-2.527-1.983-2.116-3.616c0.388-1.566,1.987-2.521,3.556-2.132c1.626,0.404,2.59,2.004,2.196,3.563     C459.938,187.414,458.336,188.375,456.705,187.968L456.705,187.968z"/>
<path fill-rule="evenodd" clip-rule="evenodd" fill="none" stroke="#000000" stroke-width="0.504" stroke-miterlimit="2.4142" d="     M468.119,190.6c-1.567-0.387-2.523-1.985-2.117-3.615c0.389-1.563,1.986-2.521,3.549-2.131c1.629,0.402,2.591,2.001,2.203,3.563     C471.354,190.05,469.75,191.01,468.119,190.6L468.119,190.6z"/>
<path fill-rule="evenodd" clip-rule="evenodd" fill="none" stroke="#000000" stroke-width="0.504" stroke-miterlimit="2.4142" d="     M456.121,216.501c-1.555-0.392-2.512-1.984-2.109-3.616c0.393-1.564,1.992-2.523,3.547-2.131c1.637,0.401,2.596,2.006,2.202,3.56     C459.354,215.951,457.76,216.911,456.121,216.501L456.121,216.501z"/>
<path fill-rule="evenodd" clip-rule="evenodd" fill="none" stroke="#000000" stroke-width="0.504" stroke-miterlimit="2.4142" d="     M444.137,242.403c-1.563-0.388-2.518-1.985-2.118-3.62c0.399-1.559,1.992-2.517,3.556-2.126c1.631,0.407,2.597,2.002,2.201,3.564     C447.366,241.852,445.765,242.813,444.137,242.403L444.137,242.403z"/>
<path fill-rule="evenodd" clip-rule="evenodd" fill="none" stroke="#000000" stroke-width="0.504" stroke-miterlimit="2.4142" d="     M455.548,245.038c-1.562-0.388-2.521-1.986-2.112-3.618c0.387-1.559,1.99-2.52,3.55-2.13c1.631,0.407,2.594,2.005,2.198,3.565     C458.778,244.486,457.184,245.448,455.548,245.038L455.548,245.038z"/>
<path fill-rule="evenodd" clip-rule="evenodd" fill="none" stroke="#000000" stroke-width="0.504" stroke-miterlimit="2.4142" d="     M443.558,270.938c-1.559-0.389-2.523-1.982-2.106-3.618c0.383-1.563,1.976-2.52,3.544-2.13c1.627,0.402,2.591,2.003,2.205,3.561     C446.785,270.385,445.186,271.346,443.558,270.938L443.558,270.938z"/>
<path fill-rule="evenodd" clip-rule="evenodd" fill="none" stroke="#000000" stroke-width="0.504" stroke-miterlimit="2.4142" d="     M431.566,296.838c-1.563-0.385-2.52-1.986-2.114-3.621c0.396-1.556,1.989-2.511,3.556-2.126c1.621,0.405,2.592,1.999,2.193,3.564     C434.795,296.292,433.199,297.25,431.566,296.838L431.566,296.838z"/>
<path fill-rule="evenodd" clip-rule="evenodd" fill="none" stroke="#000000" stroke-width="0.504" stroke-miterlimit="2.4142" d="     M442.983,299.473c-1.569-0.383-2.524-1.982-2.118-3.618c0.395-1.56,1.992-2.515,3.553-2.13c1.626,0.411,2.592,2.002,2.2,3.566     C446.209,298.922,444.612,299.886,442.983,299.473L442.983,299.473z"/>
</g></switch>
</svg>