<?xml version="1.0" encoding="utf-8"?>
<!DOCTYPE svg PUBLIC "-//W3C//DTD SVG 1.1//EN" "http://www.w3.org/Graphics/SVG/1.1/DTD/svg11.dtd">
<svg version="1.1" id="Armor" xmlns="http://www.w3.org/2000/svg" xmlns:xlink="http://www.w3.org/1999/xlink" x="0px" y="0px"
	 width="612px" height="792px" viewBox="0 0 612 792" enable-background="new 0 0 612 792" xml:space="preserve">
<switch><g>
<path fill-rule="evenodd" clip-rule="evenodd" fill="none" stroke="#000000" stroke-width="0.504" stroke-miterlimit="2.4142" d="     M525.27,190.371c1.559-0.392,2.521-1.986,2.111-3.62c-0.389-1.562-1.982-2.521-3.547-2.132c-1.631,0.406-2.591,2.003-2.199,3.565     C522.039,189.816,523.638,190.776,525.27,190.371L525.27,190.371z"/>
<path fill-rule="evenodd" clip-rule="evenodd" fill="none" stroke="#000000" stroke-width="0.504" stroke-miterlimit="2.4142" d="     M513.855,193.006c1.559-0.392,2.521-1.986,2.111-3.62c-0.388-1.562-1.982-2.521-3.547-2.131c-1.631,0.405-2.59,2.003-2.198,3.565     C510.625,192.452,512.225,193.412,513.855,193.006L513.855,193.006z"/>
<path fill-rule="evenodd" clip-rule="evenodd" fill="none" stroke="#000000" stroke-width="0.504" stroke-miterlimit="2.4142" d="     M520.776,196.621c1.56-0.392,2.522-1.987,2.11-3.62c-0.387-1.563-1.98-2.522-3.547-2.132c-1.63,0.405-2.59,2.003-2.197,3.565     C517.545,196.067,519.145,197.026,520.776,196.621L520.776,196.621z"/>
<path fill-rule="evenodd" clip-rule="evenodd" fill="none" stroke="#000000" stroke-width="0.504" stroke-miterlimit="2.4142" d="     M527.695,200.234c1.561-0.393,2.521-1.987,2.115-3.621c-0.391-1.562-1.986-2.52-3.549-2.129     c-1.633,0.405-2.591,2.002-2.201,3.563C524.467,199.68,526.066,200.639,527.695,200.234L527.695,200.234z"/>
<path fill-rule="evenodd" clip-rule="evenodd" fill="none" stroke="#000000" stroke-width="0.504" stroke-miterlimit="2.4142" d="     M516.281,202.87c1.561-0.393,2.521-1.988,2.115-3.622c-0.391-1.561-1.986-2.52-3.549-2.129c-1.632,0.405-2.591,2.002-2.201,3.563     C513.053,202.314,514.652,203.273,516.281,202.87L516.281,202.87z"/>
<path fill-rule="evenodd" clip-rule="evenodd" fill="none" stroke="#000000" stroke-width="0.504" stroke-miterlimit="2.4142" d="     M523.202,206.484c1.562-0.392,2.521-1.987,2.114-3.621c-0.389-1.562-1.984-2.52-3.549-2.129c-1.632,0.405-2.59,2.002-2.199,3.563     C519.975,205.93,521.573,206.889,523.202,206.484L523.202,206.484z"/>
<path fill-rule="evenodd" clip-rule="evenodd" fill="none" stroke="#000000" stroke-width="0.504" stroke-miterlimit="2.4142" d="     M530.121,210.1c1.561-0.388,2.523-1.986,2.117-3.62c-0.39-1.561-1.988-2.52-3.551-2.131c-1.631,0.406-2.59,2.005-2.201,3.563     C526.896,209.548,528.492,210.505,530.121,210.1L530.121,210.1z"/>
<path fill-rule="evenodd" clip-rule="evenodd" fill="none" stroke="#000000" stroke-width="0.504" stroke-miterlimit="2.4142" d="     M518.707,212.734c1.561-0.388,2.525-1.986,2.117-3.62c-0.389-1.561-1.988-2.52-3.551-2.131c-1.63,0.406-2.589,2.006-2.201,3.564     C515.482,212.183,517.078,213.141,518.707,212.734L518.707,212.734z"/>
<path fill-rule="evenodd" clip-rule="evenodd" fill="none" stroke="#000000" stroke-width="0.504" stroke-miterlimit="2.4142" d="     M525.627,216.35c1.561-0.388,2.525-1.986,2.117-3.62c-0.389-1.561-1.986-2.52-3.551-2.131c-1.629,0.406-2.588,2.005-2.199,3.564     C522.403,215.798,524,216.756,525.627,216.35L525.627,216.35z"/>
<path fill-rule="evenodd" clip-rule="evenodd" fill="none" stroke="#000000" stroke-width="0.504" stroke-miterlimit="2.4142" d="     M532.551,219.964c1.563-0.392,2.52-1.986,2.113-3.621c-0.389-1.561-1.988-2.52-3.551-2.13c-1.627,0.407-2.588,2.002-2.199,3.563     C529.32,219.411,530.916,220.369,532.551,219.964L532.551,219.964z"/>
<path fill-rule="evenodd" clip-rule="evenodd" fill="none" stroke="#000000" stroke-width="0.504" stroke-miterlimit="2.4142" d="     M521.137,222.599c1.564-0.392,2.521-1.986,2.114-3.621c-0.39-1.561-1.989-2.52-3.551-2.129c-1.628,0.406-2.587,2.002-2.198,3.563     C517.906,222.046,519.503,223.004,521.137,222.599L521.137,222.599z"/>
<path fill-rule="evenodd" clip-rule="evenodd" fill="none" stroke="#000000" stroke-width="0.504" stroke-miterlimit="2.4142" d="     M528.057,226.214c1.564-0.393,2.521-1.986,2.115-3.622c-0.391-1.56-1.988-2.52-3.551-2.13c-1.627,0.407-2.588,2.003-2.2,3.563     C524.826,225.661,526.424,226.618,528.057,226.214L528.057,226.214z"/>
<path fill-rule="evenodd" clip-rule="evenodd" fill="none" stroke="#000000" stroke-width="0.504" stroke-miterlimit="2.4142" d="     M534.975,229.828c1.561-0.391,2.521-1.986,2.117-3.619c-0.393-1.563-1.987-2.521-3.549-2.132     c-1.631,0.407-2.592,2.002-2.202,3.565C531.746,229.274,533.344,230.235,534.975,229.828L534.975,229.828z"/>
<path fill-rule="evenodd" clip-rule="evenodd" fill="none" stroke="#000000" stroke-width="0.504" stroke-miterlimit="2.4142" d="     M523.561,232.463c1.561-0.39,2.521-1.986,2.117-3.619c-0.393-1.563-1.986-2.52-3.549-2.132c-1.631,0.407-2.592,2.002-2.201,3.565     C520.332,231.909,521.931,232.87,523.561,232.463L523.561,232.463z"/>
<path fill-rule="evenodd" clip-rule="evenodd" fill="none" stroke="#000000" stroke-width="0.504" stroke-miterlimit="2.4142" d="     M530.48,236.078c1.563-0.391,2.522-1.986,2.117-3.62c-0.393-1.562-1.986-2.52-3.549-2.131c-1.63,0.406-2.591,2.001-2.201,3.564     C527.252,235.523,528.852,236.484,530.48,236.078L530.48,236.078z"/>
<path fill-rule="evenodd" clip-rule="evenodd" fill="none" stroke="#000000" stroke-width="0.504" stroke-miterlimit="2.4142" d="     M537.406,239.69c1.561-0.388,2.52-1.984,2.111-3.617c-0.391-1.561-1.988-2.521-3.549-2.131c-1.629,0.406-2.592,2.005-2.199,3.565     C534.176,239.141,535.773,240.101,537.406,239.69L537.406,239.69z"/>
<path fill-rule="evenodd" clip-rule="evenodd" fill="none" stroke="#000000" stroke-width="0.504" stroke-miterlimit="2.4142" d="     M525.992,242.325c1.561-0.388,2.52-1.984,2.111-3.617c-0.391-1.561-1.987-2.521-3.549-2.13c-1.629,0.405-2.591,2.004-2.199,3.564     C522.762,241.775,524.359,242.736,525.992,242.325L525.992,242.325z"/>
<path fill-rule="evenodd" clip-rule="evenodd" fill="none" stroke="#000000" stroke-width="0.504" stroke-miterlimit="2.4142" d="     M532.912,245.94c1.563-0.389,2.521-1.986,2.111-3.617c-0.391-1.562-1.986-2.521-3.549-2.131c-1.627,0.405-2.59,2.004-2.199,3.564     C529.683,245.39,531.279,246.351,532.912,245.94L532.912,245.94z"/>
<path fill-rule="evenodd" clip-rule="evenodd" fill="none" stroke="#000000" stroke-width="0.504" stroke-miterlimit="2.4142" d="     M539.832,249.556c1.563-0.39,2.521-1.987,2.113-3.618c-0.393-1.563-1.988-2.521-3.551-2.131c-1.629,0.404-2.59,2.003-2.199,3.563     C536.602,249.004,538.199,249.964,539.832,249.556L539.832,249.556z"/>
<path fill-rule="evenodd" clip-rule="evenodd" fill="none" stroke="#000000" stroke-width="0.504" stroke-miterlimit="2.4142" d="     M528.418,252.19c1.563-0.39,2.521-1.987,2.113-3.618c-0.393-1.563-1.987-2.521-3.55-2.131c-1.63,0.404-2.591,2.003-2.199,3.563     C525.188,251.639,526.785,252.599,528.418,252.19L528.418,252.19z"/>
<path fill-rule="evenodd" clip-rule="evenodd" fill="none" stroke="#000000" stroke-width="0.504" stroke-miterlimit="2.4142" d="     M535.338,255.805c1.564-0.39,2.521-1.987,2.113-3.617c-0.391-1.563-1.987-2.522-3.549-2.132c-1.631,0.404-2.59,2.004-2.2,3.563     C532.107,255.254,533.707,256.213,535.338,255.805L535.338,255.805z"/>
<path fill-rule="evenodd" clip-rule="evenodd" fill="none" stroke="#000000" stroke-width="0.504" stroke-miterlimit="2.4142" d="     M542.26,259.42c1.561-0.39,2.52-1.985,2.111-3.617c-0.391-1.563-1.988-2.522-3.551-2.131c-1.628,0.404-2.588,2.004-2.199,3.563     C539.029,258.867,540.627,259.827,542.26,259.42L542.26,259.42z"/>
<path fill-rule="evenodd" clip-rule="evenodd" fill="none" stroke="#000000" stroke-width="0.504" stroke-miterlimit="2.4142" d="     M530.846,262.055c1.561-0.39,2.521-1.985,2.111-3.617c-0.391-1.563-1.987-2.522-3.549-2.131c-1.629,0.404-2.59,2.004-2.2,3.563     C527.615,261.502,529.213,262.462,530.846,262.055L530.846,262.055z"/>
<path fill-rule="evenodd" clip-rule="evenodd" fill="none" stroke="#000000" stroke-width="0.504" stroke-miterlimit="2.4142" d="     M537.766,265.669c1.563-0.389,2.52-1.985,2.111-3.617c-0.391-1.563-1.986-2.521-3.549-2.131c-1.629,0.405-2.59,2.004-2.199,3.563     C534.535,265.118,536.135,266.077,537.766,265.669L537.766,265.669z"/>
<path fill-rule="evenodd" clip-rule="evenodd" fill="none" stroke="#000000" stroke-width="0.504" stroke-miterlimit="2.4142" d="     M544.688,269.284c1.562-0.389,2.52-1.986,2.111-3.619c-0.391-1.562-1.986-2.52-3.549-2.131c-1.631,0.406-2.592,2.005-2.2,3.564     C541.457,268.731,543.055,269.692,544.688,269.284L544.688,269.284z"/>
<path fill-rule="evenodd" clip-rule="evenodd" fill="none" stroke="#000000" stroke-width="0.504" stroke-miterlimit="2.4142" d="     M533.273,271.919c1.563-0.389,2.52-1.985,2.111-3.618c-0.391-1.563-1.986-2.521-3.548-2.131     c-1.632,0.405-2.593,2.004-2.201,3.563C530.043,271.367,531.641,272.327,533.273,271.919L533.273,271.919z"/>
<path fill-rule="evenodd" clip-rule="evenodd" fill="none" stroke="#000000" stroke-width="0.504" stroke-miterlimit="2.4142" d="     M540.195,275.533c1.561-0.388,2.519-1.985,2.111-3.618c-0.391-1.562-1.986-2.52-3.549-2.131     c-1.632,0.406-2.592,2.004-2.201,3.564C536.963,274.981,538.563,275.942,540.195,275.533L540.195,275.533z"/>
<path fill-rule="evenodd" clip-rule="evenodd" fill="none" stroke="#000000" stroke-width="0.504" stroke-miterlimit="2.4142" d="     M547.113,279.148c1.561-0.389,2.521-1.985,2.113-3.617c-0.392-1.563-1.987-2.521-3.551-2.131     c-1.63,0.405-2.592,2.004-2.201,3.563C543.883,278.597,545.48,279.558,547.113,279.148L547.113,279.148z"/>
<path fill-rule="evenodd" clip-rule="evenodd" fill="none" stroke="#000000" stroke-width="0.504" stroke-miterlimit="2.4142" d="     M535.699,281.783c1.562-0.389,2.521-1.985,2.113-3.617c-0.391-1.563-1.986-2.521-3.551-2.131c-1.629,0.405-2.592,2.005-2.2,3.563     C532.469,281.231,534.066,282.192,535.699,281.783L535.699,281.783z"/>
<path fill-rule="evenodd" clip-rule="evenodd" fill="none" stroke="#000000" stroke-width="0.504" stroke-miterlimit="2.4142" d="     M542.619,285.398c1.563-0.389,2.522-1.985,2.113-3.617c-0.391-1.563-1.986-2.521-3.551-2.132     c-1.628,0.406-2.59,2.005-2.199,3.564C539.391,284.847,540.988,285.807,542.619,285.398L542.619,285.398z"/>
<path fill-rule="evenodd" clip-rule="evenodd" fill="none" stroke="#000000" stroke-width="0.504" stroke-miterlimit="2.4142" d="     M549.54,289.012c1.563-0.388,2.522-1.984,2.112-3.617c-0.389-1.562-1.986-2.52-3.549-2.131c-1.627,0.406-2.592,2.003-2.199,3.563     C546.313,288.461,547.908,289.422,549.54,289.012L549.54,289.012z"/>
<path fill-rule="evenodd" clip-rule="evenodd" fill="none" stroke="#000000" stroke-width="0.504" stroke-miterlimit="2.4142" d="     M538.127,291.646c1.562-0.388,2.521-1.984,2.111-3.617c-0.389-1.561-1.986-2.519-3.549-2.13     c-1.627,0.405-2.592,2.002-2.199,3.563C534.898,291.097,536.494,292.057,538.127,291.646L538.127,291.646z"/>
<path fill-rule="evenodd" clip-rule="evenodd" fill="none" stroke="#000000" stroke-width="0.504" stroke-miterlimit="2.4142" d="     M545.047,295.262c1.563-0.388,2.521-1.984,2.113-3.617c-0.391-1.562-1.986-2.521-3.549-2.13     c-1.629,0.404-2.593,2.001-2.199,3.563C541.818,294.711,543.416,295.671,545.047,295.262L545.047,295.262z"/>
<path fill-rule="evenodd" clip-rule="evenodd" fill="none" stroke="#000000" stroke-width="0.504" stroke-miterlimit="2.4142" d="     M551.967,298.876c1.561-0.389,2.52-1.985,2.113-3.617c-0.391-1.563-1.986-2.52-3.551-2.13c-1.629,0.404-2.59,2.001-2.199,3.563     C548.738,298.325,550.334,299.286,551.967,298.876L551.967,298.876z"/>
<path fill-rule="evenodd" clip-rule="evenodd" fill="none" stroke="#000000" stroke-width="0.504" stroke-miterlimit="2.4142" d="     M540.555,301.511c1.56-0.388,2.52-1.985,2.111-3.617c-0.391-1.562-1.986-2.52-3.55-2.13c-1.628,0.404-2.591,2.001-2.2,3.563     C537.324,300.96,538.921,301.921,540.555,301.511L540.555,301.511z"/>
</g></switch>
</svg>