<?xml version="1.0" encoding="utf-8"?>
<!DOCTYPE svg PUBLIC "-//W3C//DTD SVG 1.1//EN" "http://www.w3.org/Graphics/SVG/1.1/DTD/svg11.dtd">
<svg version="1.1" id="Armor" xmlns="http://www.w3.org/2000/svg" xmlns:xlink="http://www.w3.org/1999/xlink" x="0px" y="0px"
	 width="612px" height="792px" viewBox="0 0 612 792" enable-background="new 0 0 612 792" xml:space="preserve">
<switch><g>
<path fill-rule="evenodd" clip-rule="evenodd" fill="none" stroke="#000000" stroke-width="0.504" stroke-miterlimit="2.4142" d="     M520.225,190.951c1.563-0.393,2.521-1.984,2.11-3.621c-0.392-1.559-1.983-2.518-3.548-2.132     c-1.626,0.409-2.588,2.005-2.203,3.565C516.99,190.4,518.587,191.354,520.225,190.951L520.225,190.951z"/>
<path fill-rule="evenodd" clip-rule="evenodd" fill="none" stroke="#000000" stroke-width="0.504" stroke-miterlimit="2.4142" d="     M527.857,198.009c1.563-0.391,2.521-1.986,2.121-3.62c-0.393-1.563-1.986-2.52-3.549-2.133c-1.63,0.408-2.594,2.001-2.201,3.566     C524.632,197.456,526.231,198.414,527.857,198.009L527.857,198.009z"/>
<path fill-rule="evenodd" clip-rule="evenodd" fill="none" stroke="#000000" stroke-width="0.504" stroke-miterlimit="2.4142" d="     M516.447,200.643c1.563-0.389,2.518-1.984,2.117-3.62c-0.393-1.562-1.987-2.519-3.549-2.132c-1.631,0.41-2.592,2.002-2.201,3.566     C513.219,200.09,514.817,201.051,516.447,200.643L516.447,200.643z"/>
<path fill-rule="evenodd" clip-rule="evenodd" fill="none" stroke="#000000" stroke-width="0.504" stroke-miterlimit="2.4142" d="     M524.09,207.698c1.563-0.389,2.52-1.985,2.111-3.616c-0.392-1.564-1.982-2.521-3.547-2.134c-1.628,0.407-2.587,2.003-2.201,3.565     C520.858,207.145,522.455,208.105,524.09,207.698L524.09,207.698z"/>
<path fill-rule="evenodd" clip-rule="evenodd" fill="none" stroke="#000000" stroke-width="0.504" stroke-miterlimit="2.4142" d="     M531.731,214.752c1.561-0.384,2.518-1.982,2.113-3.616c-0.393-1.558-1.985-2.521-3.549-2.127     c-1.632,0.401-2.592,2.003-2.202,3.564C528.501,214.207,530.1,215.167,531.731,214.752L531.731,214.752z"/>
<path fill-rule="evenodd" clip-rule="evenodd" fill="none" stroke="#000000" stroke-width="0.504" stroke-miterlimit="2.4142" d="     M520.319,217.388c1.56-0.386,2.516-1.98,2.109-3.615c-0.388-1.559-1.981-2.522-3.547-2.13c-1.63,0.404-2.595,2.004-2.201,3.566     C517.088,216.842,518.684,217.801,520.319,217.388L520.319,217.388z"/>
<path fill-rule="evenodd" clip-rule="evenodd" fill="none" stroke="#000000" stroke-width="0.504" stroke-miterlimit="2.4142" d="     M527.958,224.443c1.563-0.384,2.521-1.98,2.108-3.609c-0.389-1.564-1.982-2.525-3.546-2.133     c-1.627,0.402-2.588,2.003-2.196,3.565C524.729,223.899,526.324,224.857,527.958,224.443L527.958,224.443z"/>
<path fill-rule="evenodd" clip-rule="evenodd" fill="none" stroke="#000000" stroke-width="0.504" stroke-miterlimit="2.4142" d="     M535.598,231.504c1.564-0.389,2.523-1.986,2.115-3.617c-0.394-1.565-1.988-2.523-3.549-2.133     c-1.633,0.406-2.592,2.004-2.199,3.563C532.365,230.954,533.965,231.913,535.598,231.504L535.598,231.504z"/>
<path fill-rule="evenodd" clip-rule="evenodd" fill="none" stroke="#000000" stroke-width="0.504" stroke-miterlimit="2.4142" d="     M524.183,234.141c1.565-0.391,2.522-1.986,2.114-3.617c-0.391-1.565-1.984-2.524-3.547-2.135     c-1.633,0.407-2.592,2.004-2.201,3.564C520.951,233.591,522.551,234.548,524.183,234.141L524.183,234.141z"/>
<path fill-rule="evenodd" clip-rule="evenodd" fill="none" stroke="#000000" stroke-width="0.504" stroke-miterlimit="2.4142" d="     M531.83,241.195c1.561-0.391,2.514-1.984,2.105-3.614c-0.389-1.563-1.984-2.525-3.547-2.135c-1.631,0.407-2.59,2.003-2.202,3.563     C528.592,240.648,530.193,241.604,531.83,241.195L531.83,241.195z"/>
<path fill-rule="evenodd" clip-rule="evenodd" fill="none" stroke="#000000" stroke-width="0.504" stroke-miterlimit="2.4142" d="     M539.467,248.252c1.563-0.389,2.522-1.983,2.111-3.615c-0.39-1.565-1.984-2.521-3.545-2.134c-1.631,0.407-2.594,2.006-2.2,3.567     C536.238,247.7,537.839,248.664,539.467,248.252L539.467,248.252z"/>
<path fill-rule="evenodd" clip-rule="evenodd" fill="none" stroke="#000000" stroke-width="0.504" stroke-miterlimit="2.4142" d="     M528.05,250.888c1.563-0.386,2.521-1.984,2.113-3.612c-0.393-1.566-1.985-2.524-3.546-2.136     c-1.631,0.408-2.595,2.007-2.201,3.566C524.821,250.336,526.422,251.301,528.05,250.888L528.05,250.888z"/>
<path fill-rule="evenodd" clip-rule="evenodd" fill="none" stroke="#000000" stroke-width="0.504" stroke-miterlimit="2.4142" d="     M535.691,257.945c1.566-0.39,2.518-1.985,2.113-3.617c-0.393-1.566-1.987-2.523-3.551-2.132     c-1.631,0.407-2.588,2.005-2.199,3.565C532.465,257.393,534.057,258.354,535.691,257.945L535.691,257.945z"/>
<path fill-rule="evenodd" clip-rule="evenodd" fill="none" stroke="#000000" stroke-width="0.504" stroke-miterlimit="2.4142" d="     M543.33,265.002c1.563-0.389,2.523-1.986,2.115-3.617c-0.393-1.567-1.988-2.52-3.552-2.132c-1.628,0.404-2.593,2.005-2.2,3.561     C540.096,264.447,541.697,265.408,543.33,265.002L543.33,265.002z"/>
<path fill-rule="evenodd" clip-rule="evenodd" fill="none" stroke="#000000" stroke-width="0.504" stroke-miterlimit="2.4142" d="     M531.918,267.637c1.563-0.39,2.523-1.986,2.115-3.617c-0.393-1.564-1.988-2.519-3.549-2.132     c-1.633,0.404-2.592,2.005-2.203,3.563C528.686,267.084,530.285,268.045,531.918,267.637L531.918,267.637z"/>
<path fill-rule="evenodd" clip-rule="evenodd" fill="none" stroke="#000000" stroke-width="0.504" stroke-miterlimit="2.4142" d="     M539.561,274.692c1.559-0.389,2.513-1.985,2.111-3.616c-0.391-1.564-1.988-2.523-3.547-2.131     c-1.638,0.404-2.596,2.004-2.203,3.562C536.329,274.143,537.925,275.104,539.561,274.692L539.561,274.692z"/>
<path fill-rule="evenodd" clip-rule="evenodd" fill="none" stroke="#000000" stroke-width="0.504" stroke-miterlimit="2.4142" d="     M547.196,281.751c1.563-0.389,2.521-1.984,2.116-3.621c-0.393-1.558-1.988-2.518-3.552-2.127     c-1.633,0.406-2.595,2.003-2.202,3.565C543.968,281.199,545.563,282.16,547.196,281.751L547.196,281.751z"/>
<path fill-rule="evenodd" clip-rule="evenodd" fill="none" stroke="#000000" stroke-width="0.504" stroke-miterlimit="2.4142" d="     M535.786,284.386c1.563-0.387,2.522-1.982,2.113-3.619c-0.391-1.558-1.987-2.517-3.552-2.128     c-1.63,0.406-2.593,2.004-2.199,3.565C532.556,283.836,534.149,284.796,535.786,284.386L535.786,284.386z"/>
<path fill-rule="evenodd" clip-rule="evenodd" fill="none" stroke="#000000" stroke-width="0.504" stroke-miterlimit="2.4142" d="     M543.424,291.445c1.563-0.391,2.525-1.986,2.111-3.621c-0.385-1.562-1.98-2.519-3.549-2.132c-1.627,0.406-2.59,2.005-2.201,3.564     C540.197,290.89,541.795,291.851,543.424,291.445L543.424,291.445z"/>
<path fill-rule="evenodd" clip-rule="evenodd" fill="none" stroke="#000000" stroke-width="0.504" stroke-miterlimit="2.4142" d="     M551.066,298.5c1.563-0.387,2.521-1.986,2.112-3.62c-0.392-1.56-1.985-2.517-3.552-2.128c-1.625,0.404-2.59,1.997-2.197,3.563     C547.836,297.949,549.434,298.908,551.066,298.5L551.066,298.5z"/>
<path fill-rule="evenodd" clip-rule="evenodd" fill="none" stroke="#000000" stroke-width="0.504" stroke-miterlimit="2.4142" d="     M539.65,301.136c1.564-0.386,2.523-1.985,2.116-3.619c-0.39-1.56-1.988-2.519-3.55-2.13c-1.629,0.407-2.592,2-2.201,3.564     C536.422,300.585,538.021,301.546,539.65,301.136L539.65,301.136z"/>
</g></switch>
</svg>