<?xml version="1.0" encoding="utf-8"?>
<!DOCTYPE svg PUBLIC "-//W3C//DTD SVG 1.1//EN" "http://www.w3.org/Graphics/SVG/1.1/DTD/svg11.dtd">
<svg version="1.1" id="Armor" xmlns="http://www.w3.org/2000/svg" xmlns:xlink="http://www.w3.org/1999/xlink" x="0px" y="0px"
	 width="612px" height="792px" viewBox="0 0 612 792" enable-background="new 0 0 612 792" xml:space="preserve">
<switch><g>
<path fill-rule="evenodd" clip-rule="evenodd" fill="none" stroke="#000000" stroke-width="0.504" stroke-miterlimit="2.4142" d="     M518.675,189.886c1.563-0.388,2.522-1.984,2.113-3.617c-0.39-1.562-1.985-2.521-3.548-2.13c-1.63,0.404-2.592,2-2.199,3.563     C515.447,189.335,517.045,190.295,518.675,189.886L518.675,189.886z"/>
<path fill-rule="evenodd" clip-rule="evenodd" fill="none" stroke="#000000" stroke-width="0.504" stroke-miterlimit="2.4142" d="     M525.373,193.184c1.557-0.392,2.52-1.986,2.109-3.619c-0.389-1.563-1.981-2.523-3.545-2.132c-1.631,0.404-2.592,2.003-2.2,3.563     C522.141,192.63,523.74,193.59,525.373,193.184L525.373,193.184z"/>
<path fill-rule="evenodd" clip-rule="evenodd" fill="none" stroke="#000000" stroke-width="0.504" stroke-miterlimit="2.4142" d="     M513.957,195.819c1.561-0.393,2.523-1.987,2.111-3.62c-0.387-1.563-1.98-2.522-3.545-2.131c-1.633,0.404-2.59,2.002-2.199,3.564     C510.729,195.265,512.328,196.225,513.957,195.819L513.957,195.819z"/>
<path fill-rule="evenodd" clip-rule="evenodd" fill="none" stroke="#000000" stroke-width="0.504" stroke-miterlimit="2.4142" d="     M520.799,199.083c1.558-0.393,2.521-1.987,2.107-3.62c-0.384-1.563-1.979-2.523-3.546-2.132     c-1.628,0.405-2.589,2.003-2.196,3.565C517.565,198.529,519.166,199.488,520.799,199.083L520.799,199.083z"/>
<path fill-rule="evenodd" clip-rule="evenodd" fill="none" stroke="#000000" stroke-width="0.504" stroke-miterlimit="2.4142" d="     M527.637,202.345c1.561-0.392,2.521-1.986,2.115-3.62c-0.393-1.562-1.988-2.52-3.549-2.129c-1.633,0.404-2.592,2.002-2.201,3.563     C524.406,201.79,526.008,202.749,527.637,202.345L527.637,202.345z"/>
<path fill-rule="evenodd" clip-rule="evenodd" fill="none" stroke="#000000" stroke-width="0.504" stroke-miterlimit="2.4142" d="     M516.221,204.98c1.563-0.392,2.521-1.988,2.115-3.621c-0.39-1.561-1.984-2.521-3.549-2.129c-1.631,0.404-2.59,2.001-2.201,3.563     C512.993,204.425,514.594,205.385,516.221,204.98L516.221,204.98z"/>
<path fill-rule="evenodd" clip-rule="evenodd" fill="none" stroke="#000000" stroke-width="0.504" stroke-miterlimit="2.4142" d="     M522.92,208.275c1.563-0.391,2.523-1.986,2.115-3.621c-0.389-1.561-1.983-2.518-3.55-2.127c-1.632,0.404-2.589,2.001-2.2,3.563     C519.693,207.722,521.292,208.681,522.92,208.275L522.92,208.275z"/>
<path fill-rule="evenodd" clip-rule="evenodd" fill="none" stroke="#000000" stroke-width="0.504" stroke-miterlimit="2.4142" d="     M529.9,211.508c1.559-0.388,2.522-1.986,2.115-3.621c-0.389-1.561-1.988-2.519-3.55-2.13c-1.631,0.406-2.589,2.005-2.202,3.564     C526.676,210.955,528.271,211.913,529.9,211.508L529.9,211.508z"/>
<path fill-rule="evenodd" clip-rule="evenodd" fill="none" stroke="#000000" stroke-width="0.504" stroke-miterlimit="2.4142" d="     M518.486,214.143c1.561-0.388,2.524-1.986,2.117-3.62c-0.389-1.56-1.988-2.52-3.552-2.13c-1.628,0.406-2.589,2.005-2.2,3.564     C515.26,213.591,516.857,214.55,518.486,214.143L518.486,214.143z"/>
<path fill-rule="evenodd" clip-rule="evenodd" fill="none" stroke="#000000" stroke-width="0.504" stroke-miterlimit="2.4142" d="     M525.043,217.472c1.561-0.388,2.525-1.986,2.115-3.62c-0.387-1.561-1.984-2.52-3.549-2.132c-1.629,0.407-2.588,2.006-2.201,3.565     C521.818,216.92,523.416,217.879,525.043,217.472L525.043,217.472z"/>
<path fill-rule="evenodd" clip-rule="evenodd" fill="none" stroke="#000000" stroke-width="0.504" stroke-miterlimit="2.4142" d="     M532.167,220.669c1.562-0.392,2.521-1.986,2.114-3.62c-0.39-1.561-1.988-2.521-3.552-2.129c-1.628,0.406-2.588,2-2.198,3.561     C528.938,220.117,530.533,221.074,532.167,220.669L532.167,220.669z"/>
<path fill-rule="evenodd" clip-rule="evenodd" fill="none" stroke="#000000" stroke-width="0.504" stroke-miterlimit="2.4142" d="     M520.754,223.304c1.564-0.391,2.52-1.985,2.113-3.62c-0.389-1.561-1.988-2.52-3.551-2.129c-1.627,0.406-2.586,2.001-2.198,3.562     C517.523,222.752,519.118,223.71,520.754,223.304L520.754,223.304z"/>
<path fill-rule="evenodd" clip-rule="evenodd" fill="none" stroke="#000000" stroke-width="0.504" stroke-miterlimit="2.4142" d="     M527.166,226.667c1.566-0.395,2.523-1.987,2.115-3.623c-0.39-1.56-1.986-2.521-3.549-2.129c-1.627,0.405-2.59,2.001-2.201,3.563     C523.938,226.113,525.535,227.07,527.166,226.667L527.166,226.667z"/>
<path fill-rule="evenodd" clip-rule="evenodd" fill="none" stroke="#000000" stroke-width="0.504" stroke-miterlimit="2.4142" d="     M534.43,229.832c1.559-0.393,2.52-1.987,2.116-3.62c-0.393-1.562-1.987-2.521-3.55-2.132c-1.631,0.406-2.592,2.001-2.201,3.564     C531.2,229.277,532.797,230.238,534.43,229.832L534.43,229.832z"/>
<path fill-rule="evenodd" clip-rule="evenodd" fill="none" stroke="#000000" stroke-width="0.504" stroke-miterlimit="2.4142" d="     M523.014,232.467c1.561-0.389,2.522-1.986,2.119-3.619c-0.395-1.563-1.987-2.52-3.55-2.132c-1.631,0.407-2.592,2.001-2.202,3.564     C519.786,231.913,521.383,232.875,523.014,232.467L523.014,232.467z"/>
<path fill-rule="evenodd" clip-rule="evenodd" fill="none" stroke="#000000" stroke-width="0.504" stroke-miterlimit="2.4142" d="     M529.854,235.73c1.563-0.391,2.523-1.987,2.117-3.62c-0.393-1.563-1.986-2.521-3.549-2.131c-1.63,0.406-2.592,2.001-2.201,3.565     C526.625,235.175,528.225,236.137,529.854,235.73L529.854,235.73z"/>
<path fill-rule="evenodd" clip-rule="evenodd" fill="none" stroke="#000000" stroke-width="0.504" stroke-miterlimit="2.4142" d="     M536.697,238.991c1.563-0.388,2.52-1.983,2.111-3.617c-0.39-1.561-1.987-2.521-3.548-2.13c-1.628,0.405-2.593,2.005-2.198,3.564     C533.469,238.441,535.064,239.402,536.697,238.991L536.697,238.991z"/>
<path fill-rule="evenodd" clip-rule="evenodd" fill="none" stroke="#000000" stroke-width="0.504" stroke-miterlimit="2.4142" d="     M525.284,241.627c1.56-0.389,2.52-1.985,2.111-3.618c-0.392-1.561-1.987-2.521-3.55-2.13c-1.628,0.404-2.59,2.003-2.199,3.564     C522.053,241.076,523.65,242.036,525.284,241.627L525.284,241.627z"/>
<path fill-rule="evenodd" clip-rule="evenodd" fill="none" stroke="#000000" stroke-width="0.504" stroke-miterlimit="2.4142" d="     M532.123,244.89c1.562-0.387,2.521-1.986,2.111-3.616c-0.391-1.562-1.986-2.521-3.549-2.132     c-1.628,0.406-2.591,2.004-2.199,3.564C528.895,244.339,530.489,245.301,532.123,244.89L532.123,244.89z"/>
<path fill-rule="evenodd" clip-rule="evenodd" fill="none" stroke="#000000" stroke-width="0.504" stroke-miterlimit="2.4142" d="     M538.961,248.154c1.563-0.389,2.521-1.986,2.113-3.618c-0.391-1.563-1.988-2.521-3.551-2.131     c-1.629,0.404-2.589,2.003-2.197,3.562C535.73,247.604,537.329,248.563,538.961,248.154L538.961,248.154z"/>
<path fill-rule="evenodd" clip-rule="evenodd" fill="none" stroke="#000000" stroke-width="0.504" stroke-miterlimit="2.4142" d="     M527.547,250.79c1.564-0.391,2.523-1.989,2.113-3.618c-0.392-1.563-1.986-2.523-3.549-2.132c-1.631,0.404-2.59,2.004-2.199,3.563     C524.316,250.238,525.914,251.198,527.547,250.79L527.547,250.79z"/>
<path fill-rule="evenodd" clip-rule="evenodd" fill="none" stroke="#000000" stroke-width="0.504" stroke-miterlimit="2.4142" d="     M534.386,254.053c1.565-0.389,2.521-1.986,2.114-3.617c-0.391-1.563-1.986-2.521-3.549-2.132c-1.631,0.403-2.591,2.005-2.2,3.563     C531.156,253.502,532.756,254.461,534.386,254.053L534.386,254.053z"/>
<path fill-rule="evenodd" clip-rule="evenodd" fill="none" stroke="#000000" stroke-width="0.504" stroke-miterlimit="2.4142" d="     M541.227,257.315c1.561-0.39,2.521-1.985,2.111-3.617c-0.391-1.563-1.988-2.522-3.551-2.131     c-1.627,0.404-2.587,2.004-2.199,3.563C537.996,256.764,539.594,257.723,541.227,257.315L541.227,257.315z"/>
<path fill-rule="evenodd" clip-rule="evenodd" fill="none" stroke="#000000" stroke-width="0.504" stroke-miterlimit="2.4142" d="     M529.813,259.95c1.562-0.389,2.521-1.985,2.112-3.616c-0.392-1.563-1.987-2.522-3.549-2.131c-1.63,0.404-2.591,2.004-2.2,3.563     C526.582,259.398,528.18,260.358,529.813,259.95L529.813,259.95z"/>
<path fill-rule="evenodd" clip-rule="evenodd" fill="none" stroke="#000000" stroke-width="0.504" stroke-miterlimit="2.4142" d="     M536.651,263.215c1.562-0.39,2.519-1.987,2.11-3.617c-0.389-1.563-1.984-2.522-3.547-2.132c-1.631,0.405-2.591,2.005-2.199,3.563     C533.422,262.663,535.021,263.622,536.651,263.215L536.651,263.215z"/>
<path fill-rule="evenodd" clip-rule="evenodd" fill="none" stroke="#000000" stroke-width="0.504" stroke-miterlimit="2.4142" d="     M543.494,266.478c1.561-0.39,2.518-1.986,2.111-3.619c-0.393-1.562-1.988-2.52-3.549-2.13c-1.632,0.405-2.594,2.004-2.201,3.563     C540.264,265.925,541.86,266.885,543.494,266.478L543.494,266.478z"/>
<path fill-rule="evenodd" clip-rule="evenodd" fill="none" stroke="#000000" stroke-width="0.504" stroke-miterlimit="2.4142" d="     M532.078,269.112c1.564-0.39,2.52-1.984,2.111-3.618c-0.389-1.563-1.985-2.521-3.547-2.131c-1.631,0.404-2.592,2.004-2.201,3.564     C528.848,268.56,530.445,269.52,532.078,269.112L532.078,269.112z"/>
<path fill-rule="evenodd" clip-rule="evenodd" fill="none" stroke="#000000" stroke-width="0.504" stroke-miterlimit="2.4142" d="     M538.919,272.376c1.562-0.388,2.521-1.985,2.111-3.618c-0.39-1.562-1.987-2.521-3.547-2.131     c-1.634,0.406-2.593,2.003-2.202,3.563C535.688,271.824,537.285,272.785,538.919,272.376L538.919,272.376z"/>
<path fill-rule="evenodd" clip-rule="evenodd" fill="none" stroke="#000000" stroke-width="0.504" stroke-miterlimit="2.4142" d="     M545.757,275.64c1.56-0.39,2.52-1.986,2.112-3.617c-0.393-1.564-1.986-2.521-3.551-2.131c-1.63,0.405-2.591,2.004-2.199,3.563     C542.525,275.088,544.123,276.049,545.757,275.64L545.757,275.64z"/>
<path fill-rule="evenodd" clip-rule="evenodd" fill="none" stroke="#000000" stroke-width="0.504" stroke-miterlimit="2.4142" d="     M534.342,278.275c1.562-0.391,2.521-1.986,2.115-3.619c-0.393-1.561-1.987-2.519-3.553-2.13c-1.627,0.404-2.592,2.006-2.2,3.563     C531.111,277.723,532.711,278.683,534.342,278.275L534.342,278.275z"/>
<path fill-rule="evenodd" clip-rule="evenodd" fill="none" stroke="#000000" stroke-width="0.504" stroke-miterlimit="2.4142" d="     M541.181,281.539c1.563-0.39,2.522-1.985,2.114-3.619c-0.392-1.562-1.986-2.52-3.551-2.131c-1.629,0.406-2.59,2.005-2.2,3.564     C537.953,280.987,539.551,281.947,541.181,281.539L541.181,281.539z"/>
<path fill-rule="evenodd" clip-rule="evenodd" fill="none" stroke="#000000" stroke-width="0.504" stroke-miterlimit="2.4142" d="     M548.021,284.801c1.562-0.387,2.523-1.984,2.112-3.617c-0.388-1.562-1.986-2.518-3.548-2.131     c-1.626,0.408-2.593,2.003-2.198,3.563C544.793,284.25,546.389,285.212,548.021,284.801L548.021,284.801z"/>
<path fill-rule="evenodd" clip-rule="evenodd" fill="none" stroke="#000000" stroke-width="0.504" stroke-miterlimit="2.4142" d="     M536.607,287.436c1.563-0.388,2.521-1.984,2.113-3.617c-0.391-1.561-1.986-2.519-3.551-2.13     c-1.627,0.405-2.591,2.003-2.198,3.563C533.38,286.886,534.976,287.846,536.607,287.436L536.607,287.436z"/>
<path fill-rule="evenodd" clip-rule="evenodd" fill="none" stroke="#000000" stroke-width="0.504" stroke-miterlimit="2.4142" d="     M543.447,290.699c1.562-0.389,2.52-1.985,2.113-3.617c-0.391-1.563-1.986-2.521-3.55-2.13c-1.63,0.404-2.593,2-2.198,3.562     C540.219,290.147,541.816,291.107,543.447,290.699L543.447,290.699z"/>
<path fill-rule="evenodd" clip-rule="evenodd" fill="none" stroke="#000000" stroke-width="0.504" stroke-miterlimit="2.4142" d="     M550.285,293.963c1.561-0.39,2.52-1.985,2.113-3.618c-0.39-1.563-1.986-2.519-3.551-2.129c-1.629,0.403-2.59,2-2.198,3.562     C547.057,293.412,548.652,294.372,550.285,293.963L550.285,293.963z"/>
<path fill-rule="evenodd" clip-rule="evenodd" fill="none" stroke="#000000" stroke-width="0.504" stroke-miterlimit="2.4142" d="     M538.873,296.598c1.561-0.388,2.521-1.985,2.111-3.617c-0.389-1.563-1.986-2.521-3.549-2.13     c-1.628,0.403-2.592,2.001-2.201,3.563C535.643,296.047,537.24,297.007,538.873,296.598L538.873,296.598z"/>
<path fill-rule="evenodd" clip-rule="evenodd" fill="none" stroke="#000000" stroke-width="0.504" stroke-miterlimit="2.4142" d="     M545.569,299.894c1.563-0.388,2.521-1.984,2.114-3.618c-0.391-1.561-1.986-2.52-3.551-2.129c-1.629,0.405-2.592,2-2.197,3.563     C542.342,299.343,543.939,300.303,545.569,299.894L545.569,299.894z"/>
</g></switch>
</svg>