<?xml version="1.0" encoding="utf-8"?>
<!DOCTYPE svg PUBLIC "-//W3C//DTD SVG 1.1//EN" "http://www.w3.org/Graphics/SVG/1.1/DTD/svg11.dtd">
<svg version="1.1" id="Armor" xmlns="http://www.w3.org/2000/svg" xmlns:xlink="http://www.w3.org/1999/xlink" x="0px" y="0px"
	 width="612px" height="792px" viewBox="0 0 612 792" enable-background="new 0 0 612 792" xml:space="preserve">
<switch><g>
<path fill-rule="evenodd" clip-rule="evenodd" fill="none" stroke="#000000" stroke-width="0.504" stroke-miterlimit="2.4142" d="     M524.9,188.517c1.564-0.392,2.521-1.985,2.111-3.618c-0.391-1.563-1.985-2.519-3.545-2.135c-1.635,0.409-2.594,2.006-2.201,3.569     C521.67,187.964,523.271,188.926,524.9,188.517L524.9,188.517z"/>
<path fill-rule="evenodd" clip-rule="evenodd" fill="none" stroke="#000000" stroke-width="0.504" stroke-miterlimit="2.4142" d="     M513.48,191.146c1.567-0.384,2.521-1.982,2.116-3.61c-0.395-1.566-1.985-2.525-3.545-2.137c-1.633,0.409-2.599,2.012-2.204,3.567     C510.252,190.598,511.853,191.563,513.48,191.146L513.48,191.146z"/>
<path fill-rule="evenodd" clip-rule="evenodd" fill="none" stroke="#000000" stroke-width="0.504" stroke-miterlimit="2.4142" d="     M523.383,207.978c1.562-0.389,2.516-1.984,2.106-3.616c-0.388-1.567-1.983-2.523-3.548-2.132     c-1.628,0.406-2.585,2.004-2.197,3.565C520.151,207.425,521.743,208.388,523.383,207.978L523.383,207.978z"/>
<path fill-rule="evenodd" clip-rule="evenodd" fill="none" stroke="#000000" stroke-width="0.504" stroke-miterlimit="2.4142" d="     M533.274,224.805c1.562-0.389,2.524-1.983,2.116-3.616c-0.391-1.566-1.988-2.521-3.557-2.132     c-1.627,0.404-2.591,2.005-2.196,3.563C530.039,224.25,531.64,225.212,533.274,224.805L533.274,224.805z"/>
<path fill-rule="evenodd" clip-rule="evenodd" fill="none" stroke="#000000" stroke-width="0.504" stroke-miterlimit="2.4142" d="     M521.859,227.438c1.564-0.388,2.524-1.985,2.115-3.616c-0.389-1.563-1.985-2.521-3.548-2.131     c-1.63,0.402-2.591,2.002-2.201,3.563C518.626,226.886,520.228,227.847,521.859,227.438L521.859,227.438z"/>
<path fill-rule="evenodd" clip-rule="evenodd" fill="none" stroke="#000000" stroke-width="0.504" stroke-miterlimit="2.4142" d="     M531.76,244.266c1.557-0.393,2.512-1.986,2.111-3.617c-0.393-1.564-1.992-2.524-3.547-2.131     c-1.639,0.401-2.596,2.004-2.203,3.561C528.529,243.714,530.123,244.673,531.76,244.266L531.76,244.266z"/>
<path fill-rule="evenodd" clip-rule="evenodd" fill="none" stroke="#000000" stroke-width="0.504" stroke-miterlimit="2.4142" d="     M541.653,261.093c1.563-0.387,2.518-1.984,2.116-3.621c-0.397-1.557-1.992-2.516-3.557-2.125c-1.631,0.407-2.594,2.002-2.2,3.564     C538.422,260.542,540.021,261.503,541.653,261.093L541.653,261.093z"/>
<path fill-rule="evenodd" clip-rule="evenodd" fill="none" stroke="#000000" stroke-width="0.504" stroke-miterlimit="2.4142" d="     M530.24,263.729c1.563-0.389,2.521-1.986,2.114-3.617c-0.389-1.559-1.99-2.521-3.553-2.131c-1.629,0.407-2.593,2.005-2.196,3.565     C527.009,263.177,528.606,264.138,530.24,263.729L530.24,263.729z"/>
<path fill-rule="evenodd" clip-rule="evenodd" fill="none" stroke="#000000" stroke-width="0.504" stroke-miterlimit="2.4142" d="     M540.135,280.556c1.561-0.39,2.525-1.984,2.108-3.619c-0.383-1.563-1.976-2.521-3.544-2.13c-1.629,0.403-2.592,2.003-2.205,3.562     C536.908,280.001,538.508,280.963,540.135,280.556L540.135,280.556z"/>
<path fill-rule="evenodd" clip-rule="evenodd" fill="none" stroke="#000000" stroke-width="0.504" stroke-miterlimit="2.4142" d="     M550.033,297.382c1.563-0.385,2.52-1.985,2.113-3.621c-0.395-1.555-1.988-2.512-3.557-2.126     c-1.621,0.405-2.589,1.999-2.191,3.563C546.803,296.835,548.4,297.793,550.033,297.382L550.033,297.382z"/>
<path fill-rule="evenodd" clip-rule="evenodd" fill="none" stroke="#000000" stroke-width="0.504" stroke-miterlimit="2.4142" d="     M538.616,300.02c1.566-0.384,2.524-1.984,2.116-3.618c-0.393-1.561-1.99-2.516-3.55-2.131c-1.627,0.41-2.593,2.002-2.201,3.566     C535.391,299.468,536.988,300.431,538.616,300.02L538.616,300.02z"/>
</g></switch>
</svg>