<?xml version="1.0" encoding="utf-8"?>
<!DOCTYPE svg PUBLIC "-//W3C//DTD SVG 1.1//EN" "http://www.w3.org/Graphics/SVG/1.1/DTD/svg11.dtd">
<svg version="1.1" id="Armor" xmlns="http://www.w3.org/2000/svg" xmlns:xlink="http://www.w3.org/1999/xlink" x="0px" y="0px"
	 width="612px" height="792px" viewBox="0 0 612 792" enable-background="new 0 0 612 792" xml:space="preserve">
<switch><g>
<path fill-rule="evenodd" clip-rule="evenodd" fill="none" stroke="#000000" stroke-width="0.504" stroke-miterlimit="2.4142" d="     M520.047,190.749c1.562-0.389,2.521-1.985,2.11-3.616c-0.39-1.565-1.981-2.521-3.547-2.133c-1.626,0.406-2.585,2.002-2.201,3.564     C516.815,190.195,518.413,191.156,520.047,190.749L520.047,190.749z"/>
<path fill-rule="evenodd" clip-rule="evenodd" fill="none" stroke="#000000" stroke-width="0.504" stroke-miterlimit="2.4142" d="     M528.039,199.326c1.561-0.385,2.52-1.982,2.114-3.617c-0.394-1.557-1.985-2.52-3.548-2.127c-1.635,0.402-2.593,2.004-2.204,3.565     C524.81,198.781,526.408,199.741,528.039,199.326L528.039,199.326z"/>
<path fill-rule="evenodd" clip-rule="evenodd" fill="none" stroke="#000000" stroke-width="0.504" stroke-miterlimit="2.4142" d="     M516.626,201.962c1.561-0.388,2.519-1.982,2.112-3.616c-0.39-1.56-1.983-2.524-3.549-2.131c-1.631,0.403-2.596,2.004-2.199,3.566     C513.396,201.415,514.99,202.374,516.626,201.962L516.626,201.962z"/>
<path fill-rule="evenodd" clip-rule="evenodd" fill="none" stroke="#000000" stroke-width="0.504" stroke-miterlimit="2.4142" d="     M524.619,210.54c1.563-0.385,2.521-1.979,2.107-3.609c-0.388-1.565-1.984-2.523-3.547-2.132c-1.625,0.4-2.587,2.002-2.194,3.563     C521.389,209.996,522.984,210.953,524.619,210.54L524.619,210.54z"/>
<path fill-rule="evenodd" clip-rule="evenodd" fill="none" stroke="#000000" stroke-width="0.504" stroke-miterlimit="2.4142" d="     M532.61,219.123c1.562-0.388,2.522-1.985,2.114-3.615c-0.395-1.565-1.988-2.524-3.549-2.134     c-1.635,0.406-2.592,2.003-2.199,3.563C529.376,218.575,530.976,219.532,532.61,219.123L532.61,219.123z"/>
<path fill-rule="evenodd" clip-rule="evenodd" fill="none" stroke="#000000" stroke-width="0.504" stroke-miterlimit="2.4142" d="     M521.194,221.759c1.565-0.39,2.523-1.986,2.115-3.617c-0.392-1.565-1.986-2.523-3.548-2.134     c-1.633,0.406-2.593,2.002-2.202,3.563C517.961,221.209,519.561,222.166,521.194,221.759L521.194,221.759z"/>
<path fill-rule="evenodd" clip-rule="evenodd" fill="none" stroke="#000000" stroke-width="0.504" stroke-miterlimit="2.4142" d="     M529.193,230.337c1.56-0.391,2.515-1.985,2.104-3.614c-0.386-1.564-1.984-2.526-3.546-2.135     c-1.631,0.406-2.589,2.003-2.203,3.561C525.954,229.79,527.556,230.745,529.193,230.337L529.193,230.337z"/>
<path fill-rule="evenodd" clip-rule="evenodd" fill="none" stroke="#000000" stroke-width="0.504" stroke-miterlimit="2.4142" d="     M537.182,238.917c1.564-0.39,2.521-1.984,2.112-3.616c-0.392-1.565-1.985-2.521-3.546-2.135     c-1.633,0.408-2.594,2.006-2.201,3.568C533.953,238.365,535.555,239.33,537.182,238.917L537.182,238.917z"/>
<path fill-rule="evenodd" clip-rule="evenodd" fill="none" stroke="#000000" stroke-width="0.504" stroke-miterlimit="2.4142" d="     M525.764,241.552c1.564-0.385,2.521-1.983,2.115-3.611c-0.393-1.567-1.985-2.525-3.547-2.137c-1.631,0.408-2.596,2.009-2.2,3.566     C522.535,241,524.137,241.966,525.764,241.552L525.764,241.552z"/>
<path fill-rule="evenodd" clip-rule="evenodd" fill="none" stroke="#000000" stroke-width="0.504" stroke-miterlimit="2.4142" d="     M533.758,250.132c1.565-0.389,2.519-1.984,2.112-3.617c-0.39-1.566-1.986-2.522-3.55-2.131c-1.63,0.407-2.588,2.004-2.198,3.566     C530.53,249.581,532.123,250.542,533.758,250.132L533.758,250.132z"/>
<path fill-rule="evenodd" clip-rule="evenodd" fill="none" stroke="#000000" stroke-width="0.504" stroke-miterlimit="2.4142" d="     M541.748,258.713c1.562-0.389,2.523-1.985,2.115-3.618c-0.392-1.565-1.987-2.52-3.552-2.131c-1.628,0.404-2.593,2.004-2.2,3.562     C538.515,258.159,540.115,259.12,541.748,258.713L541.748,258.713z"/>
<path fill-rule="evenodd" clip-rule="evenodd" fill="none" stroke="#000000" stroke-width="0.504" stroke-miterlimit="2.4142" d="     M530.336,261.348c1.563-0.39,2.523-1.987,2.115-3.618c-0.392-1.563-1.987-2.519-3.551-2.132c-1.631,0.405-2.59,2.005-2.2,3.563     C527.102,260.795,528.703,261.755,530.336,261.348L530.336,261.348z"/>
<path fill-rule="evenodd" clip-rule="evenodd" fill="none" stroke="#000000" stroke-width="0.504" stroke-miterlimit="2.4142" d="     M538.33,269.926c1.558-0.389,2.513-1.985,2.112-3.616c-0.392-1.564-1.99-2.524-3.547-2.131c-1.639,0.403-2.597,2.004-2.204,3.562     C535.1,269.376,536.694,270.337,538.33,269.926L538.33,269.926z"/>
<path fill-rule="evenodd" clip-rule="evenodd" fill="none" stroke="#000000" stroke-width="0.504" stroke-miterlimit="2.4142" d="     M546.319,278.507c1.562-0.389,2.519-1.985,2.116-3.621c-0.395-1.559-1.99-2.517-3.555-2.127     c-1.633,0.406-2.594,2.002-2.201,3.564C543.09,277.955,544.686,278.917,546.319,278.507L546.319,278.507z"/>
<path fill-rule="evenodd" clip-rule="evenodd" fill="none" stroke="#000000" stroke-width="0.504" stroke-miterlimit="2.4142" d="     M534.906,281.142c1.563-0.389,2.522-1.985,2.115-3.619c-0.391-1.558-1.988-2.518-3.555-2.128     c-1.629,0.405-2.592,2.003-2.196,3.564C531.676,280.591,533.271,281.551,534.906,281.142L534.906,281.142z"/>
<path fill-rule="evenodd" clip-rule="evenodd" fill="none" stroke="#000000" stroke-width="0.504" stroke-miterlimit="2.4142" d="     M542.897,289.724c1.561-0.392,2.524-1.986,2.109-3.621c-0.384-1.562-1.978-2.52-3.547-2.131     c-1.627,0.404-2.591,2.002-2.203,3.563C539.67,289.168,541.267,290.129,542.897,289.724L542.897,289.724z"/>
<path fill-rule="evenodd" clip-rule="evenodd" fill="none" stroke="#000000" stroke-width="0.504" stroke-miterlimit="2.4142" d="     M550.892,298.302c1.562-0.386,2.521-1.986,2.112-3.621c-0.394-1.557-1.987-2.514-3.555-2.127     c-1.623,0.404-2.589,1.998-2.194,3.563C547.66,297.752,549.259,298.711,550.892,298.302L550.892,298.302z"/>
<path fill-rule="evenodd" clip-rule="evenodd" fill="none" stroke="#000000" stroke-width="0.504" stroke-miterlimit="2.4142" d="     M539.475,300.937c1.564-0.385,2.524-1.984,2.115-3.618c-0.391-1.56-1.988-2.518-3.549-2.131     c-1.629,0.409-2.593,2.001-2.201,3.565C536.246,300.386,537.847,301.347,539.475,300.937L539.475,300.937z"/>
</g></switch>
</svg>