<?xml version="1.0" encoding="utf-8"?>
<!DOCTYPE svg PUBLIC "-//W3C//DTD SVG 1.1//EN" "http://www.w3.org/Graphics/SVG/1.1/DTD/svg11.dtd">
<svg version="1.1" id="Armor" xmlns="http://www.w3.org/2000/svg" xmlns:xlink="http://www.w3.org/1999/xlink" x="0px" y="0px"
	 width="612px" height="792px" viewBox="0 0 612 792" enable-background="new 0 0 612 792" xml:space="preserve">
<switch><g>
<path fill="none" stroke="#000000" stroke-width="0.504" stroke-miterlimit="2.4142" d="M557.727,80.696     c1.664-0.144,2.925-1.649,2.777-3.31c-0.15-1.73-1.645-2.926-3.311-2.785c-1.72,0.154-3,1.593-2.849,3.324     C554.488,79.583,556.004,80.85,557.727,80.696L557.727,80.696z"/>
<path fill="none" stroke="#000000" stroke-width="0.504" stroke-miterlimit="2.4142" d="M565.412,103.498     c1.664-0.145,2.924-1.653,2.777-3.314c-0.146-1.729-1.646-2.926-3.313-2.777c-1.721,0.148-3.004,1.587-2.846,3.323     C562.176,102.383,563.686,103.648,565.412,103.498L565.412,103.498z"/>
<path fill="none" stroke="#000000" stroke-width="0.504" stroke-miterlimit="2.4142" d="M554.113,104.486     c1.67-0.142,2.928-1.648,2.78-3.311c-0.151-1.734-1.645-2.926-3.311-2.782c-1.727,0.152-3.004,1.586-2.85,3.32     C550.875,103.377,552.387,104.637,554.113,104.486L554.113,104.486z"/>
<path fill="none" stroke="#000000" stroke-width="0.504" stroke-miterlimit="2.4142" d="M561.803,127.288     c1.662-0.143,2.92-1.652,2.777-3.313c-0.154-1.729-1.648-2.925-3.313-2.778c-1.723,0.147-3.004,1.587-2.846,3.317     C558.559,126.175,560.076,127.438,561.803,127.288L561.803,127.288z"/>
<path fill="none" stroke="#000000" stroke-width="0.504" stroke-miterlimit="2.4142" d="M569.486,150.091     c1.668-0.144,2.926-1.651,2.78-3.31c-0.151-1.735-1.649-2.928-3.311-2.781c-1.727,0.146-3.004,1.587-2.852,3.319     C566.246,148.979,567.764,150.242,569.486,150.091L569.486,150.091z"/>
<path fill="none" stroke="#000000" stroke-width="0.504" stroke-miterlimit="2.4142" d="M558.191,151.077     c1.67-0.137,2.928-1.648,2.776-3.31c-0.147-1.731-1.643-2.926-3.313-2.776c-1.722,0.147-2.992,1.585-2.849,3.316     C554.957,149.965,556.463,151.231,558.191,151.077L558.191,151.077z"/>
<path fill="none" stroke="#000000" stroke-width="0.504" stroke-miterlimit="2.4142" d="M565.879,173.882     c1.662-0.143,2.92-1.653,2.779-3.313c-0.156-1.729-1.65-2.925-3.314-2.778c-1.723,0.148-3.004,1.587-2.844,3.316     C562.635,172.769,564.152,174.032,565.879,173.882L565.879,173.882z"/>
</g></switch>
</svg>