<?xml version="1.0" encoding="utf-8"?>
<!DOCTYPE svg PUBLIC "-//W3C//DTD SVG 1.1//EN" "http://www.w3.org/Graphics/SVG/1.1/DTD/svg11.dtd">
<svg version="1.1" id="Armor" xmlns="http://www.w3.org/2000/svg" xmlns:xlink="http://www.w3.org/1999/xlink" x="0px" y="0px"
	 width="612px" height="792px" viewBox="0 0 612 792" enable-background="new 0 0 612 792" xml:space="preserve">
<switch><g>
<path fill-rule="evenodd" clip-rule="evenodd" fill="none" stroke="#000000" stroke-width="0.504" stroke-miterlimit="2.4142" d="     M463.92,189.74c-1.564-0.389-2.524-1.985-2.114-3.618c0.39-1.562,1.985-2.521,3.548-2.13c1.631,0.404,2.591,2,2.2,3.563     C467.146,189.188,465.55,190.148,463.92,189.74L463.92,189.74z"/>
<path fill-rule="evenodd" clip-rule="evenodd" fill="none" stroke="#000000" stroke-width="0.504" stroke-miterlimit="2.4142" d="     M457.263,192.859c-1.558-0.392-2.521-1.986-2.11-3.619c0.389-1.563,1.981-2.524,3.545-2.132c1.632,0.404,2.592,2.003,2.199,3.563     C460.494,192.306,458.894,193.266,457.263,192.859L457.263,192.859z"/>
<path fill-rule="evenodd" clip-rule="evenodd" fill="none" stroke="#000000" stroke-width="0.504" stroke-miterlimit="2.4142" d="     M468.679,195.495c-1.561-0.394-2.523-1.987-2.111-3.62c0.386-1.563,1.98-2.523,3.545-2.131c1.632,0.403,2.59,2.001,2.199,3.563     C471.906,194.94,470.308,195.899,468.679,195.495L468.679,195.495z"/>
<path fill-rule="evenodd" clip-rule="evenodd" fill="none" stroke="#000000" stroke-width="0.504" stroke-miterlimit="2.4142" d="     M461.879,198.578c-1.563-0.388-2.523-1.984-2.113-3.617c0.389-1.562,1.984-2.521,3.547-2.13c1.631,0.404,2.592,1.999,2.201,3.563     C465.105,198.027,463.51,198.987,461.879,198.578L461.879,198.578z"/>
<path fill-rule="evenodd" clip-rule="evenodd" fill="none" stroke="#000000" stroke-width="0.504" stroke-miterlimit="2.4142" d="     M455.222,201.698c-1.557-0.393-2.52-1.987-2.109-3.619c0.389-1.563,1.981-2.524,3.545-2.132c1.631,0.403,2.593,2.004,2.2,3.563     C458.454,201.144,456.854,202.104,455.222,201.698L455.222,201.698z"/>
<path fill-rule="evenodd" clip-rule="evenodd" fill="none" stroke="#000000" stroke-width="0.504" stroke-miterlimit="2.4142" d="     M466.638,204.333c-1.56-0.393-2.524-1.987-2.112-3.62c0.387-1.562,1.98-2.522,3.547-2.131c1.632,0.404,2.589,2.002,2.198,3.564     C469.865,203.778,468.266,204.738,466.638,204.333L466.638,204.333z"/>
<path fill-rule="evenodd" clip-rule="evenodd" fill="none" stroke="#000000" stroke-width="0.504" stroke-miterlimit="2.4142" d="     M459.838,207.419c-1.559-0.392-2.523-1.987-2.108-3.62c0.383-1.563,1.979-2.523,3.546-2.132c1.627,0.405,2.588,2.003,2.195,3.564     C463.07,206.865,461.469,207.823,459.838,207.419L459.838,207.419z"/>
<path fill-rule="evenodd" clip-rule="evenodd" fill="none" stroke="#000000" stroke-width="0.504" stroke-miterlimit="2.4142" d="     M453.04,210.503c-1.56-0.392-2.521-1.985-2.114-3.62c0.391-1.563,1.987-2.52,3.548-2.13c1.632,0.405,2.592,2.003,2.201,3.564     C456.27,209.948,454.668,210.907,453.04,210.503L453.04,210.503z"/>
<path fill-rule="evenodd" clip-rule="evenodd" fill="none" stroke="#000000" stroke-width="0.504" stroke-miterlimit="2.4142" d="     M464.457,213.139c-1.563-0.392-2.521-1.989-2.116-3.621c0.392-1.562,1.984-2.521,3.548-2.129     c1.633,0.403,2.591,2.001,2.203,3.563C467.684,212.583,466.083,213.543,464.457,213.139L464.457,213.139z"/>
<path fill-rule="evenodd" clip-rule="evenodd" fill="none" stroke="#000000" stroke-width="0.504" stroke-miterlimit="2.4142" d="     M457.798,216.256c-1.563-0.391-2.524-1.987-2.114-3.621c0.389-1.562,1.982-2.518,3.549-2.127     c1.631,0.404,2.588,2.001,2.199,3.563C461.024,215.702,459.426,216.661,457.798,216.256L457.798,216.256z"/>
<path fill-rule="evenodd" clip-rule="evenodd" fill="none" stroke="#000000" stroke-width="0.504" stroke-miterlimit="2.4142" d="     M450.858,219.31c-1.56-0.389-2.522-1.986-2.115-3.621c0.388-1.563,1.988-2.519,3.55-2.131c1.631,0.407,2.588,2.005,2.203,3.564     C454.082,218.757,452.488,219.715,450.858,219.31L450.858,219.31z"/>
<path fill-rule="evenodd" clip-rule="evenodd" fill="none" stroke="#000000" stroke-width="0.504" stroke-miterlimit="2.4142" d="     M462.272,221.944c-1.562-0.389-2.524-1.987-2.117-3.619c0.388-1.562,1.988-2.521,3.552-2.132     c1.628,0.407,2.588,2.005,2.201,3.565C465.498,221.392,463.902,222.352,462.272,221.944L462.272,221.944z"/>
<path fill-rule="evenodd" clip-rule="evenodd" fill="none" stroke="#000000" stroke-width="0.504" stroke-miterlimit="2.4142" d="     M455.758,225.096c-1.562-0.388-2.527-1.986-2.115-3.62c0.387-1.561,1.983-2.52,3.549-2.133c1.627,0.408,2.588,2.007,2.201,3.566     C458.982,224.544,457.384,225.503,455.758,225.096L455.758,225.096z"/>
<path fill-rule="evenodd" clip-rule="evenodd" fill="none" stroke="#000000" stroke-width="0.504" stroke-miterlimit="2.4142" d="     M448.674,228.114c-1.562-0.392-2.521-1.986-2.114-3.62c0.391-1.561,1.987-2.521,3.553-2.129c1.628,0.406,2.587,1.999,2.197,3.56     C451.904,227.563,450.308,228.52,448.674,228.114L448.674,228.114z"/>
<path fill-rule="evenodd" clip-rule="evenodd" fill="none" stroke="#000000" stroke-width="0.504" stroke-miterlimit="2.4142" d="     M460.088,230.749c-1.565-0.389-2.521-1.984-2.114-3.62c0.389-1.56,1.988-2.519,3.551-2.129c1.628,0.407,2.586,2.001,2.198,3.562     C463.317,230.198,461.723,231.155,460.088,230.749L460.088,230.749z"/>
<path fill-rule="evenodd" clip-rule="evenodd" fill="none" stroke="#000000" stroke-width="0.504" stroke-miterlimit="2.4142" d="     M453.717,233.934c-1.566-0.394-2.524-1.988-2.115-3.623c0.389-1.559,1.986-2.521,3.55-2.128c1.626,0.405,2.588,2,2.2,3.563     C456.945,233.381,455.348,234.338,453.717,233.934L453.717,233.934z"/>
<path fill-rule="evenodd" clip-rule="evenodd" fill="none" stroke="#000000" stroke-width="0.504" stroke-miterlimit="2.4142" d="     M446.494,236.921c-1.56-0.392-2.521-1.987-2.117-3.62c0.394-1.561,1.988-2.521,3.551-2.132c1.631,0.407,2.591,2.001,2.2,3.564     C449.724,236.368,448.126,237.328,446.494,236.921L446.494,236.921z"/>
<path fill-rule="evenodd" clip-rule="evenodd" fill="none" stroke="#000000" stroke-width="0.504" stroke-miterlimit="2.4142" d="     M457.91,239.557c-1.561-0.389-2.523-1.985-2.119-3.62c0.394-1.563,1.987-2.519,3.55-2.132c1.631,0.408,2.592,2.001,2.202,3.565     C461.138,239.004,459.54,239.965,457.91,239.557L457.91,239.557z"/>
<path fill-rule="evenodd" clip-rule="evenodd" fill="none" stroke="#000000" stroke-width="0.504" stroke-miterlimit="2.4142" d="     M451.11,242.642c-1.562-0.391-2.523-1.989-2.116-3.621c0.393-1.563,1.986-2.521,3.549-2.13c1.629,0.404,2.591,2,2.2,3.563     C454.339,242.086,452.741,243.046,451.11,242.642L451.11,242.642z"/>
<path fill-rule="evenodd" clip-rule="evenodd" fill="none" stroke="#000000" stroke-width="0.504" stroke-miterlimit="2.4142" d="     M444.309,245.724c-1.563-0.387-2.521-1.982-2.111-3.617c0.389-1.56,1.987-2.52,3.548-2.129c1.627,0.405,2.593,2.005,2.199,3.564     C447.537,245.175,445.941,246.136,444.309,245.724L444.309,245.724z"/>
<path fill-rule="evenodd" clip-rule="evenodd" fill="none" stroke="#000000" stroke-width="0.504" stroke-miterlimit="2.4142" d="     M455.721,248.36c-1.559-0.389-2.52-1.984-2.11-3.619c0.393-1.56,1.988-2.52,3.55-2.129c1.627,0.404,2.589,2.003,2.199,3.564     C458.953,247.809,457.356,248.769,455.721,248.36L455.721,248.36z"/>
<path fill-rule="evenodd" clip-rule="evenodd" fill="none" stroke="#000000" stroke-width="0.504" stroke-miterlimit="2.4142" d="     M448.924,251.445c-1.562-0.387-2.522-1.985-2.111-3.616c0.39-1.562,1.986-2.521,3.55-2.132c1.627,0.406,2.589,2.005,2.197,3.565     C452.153,250.895,450.557,251.856,448.924,251.445L448.924,251.445z"/>
<path fill-rule="evenodd" clip-rule="evenodd" fill="none" stroke="#000000" stroke-width="0.504" stroke-miterlimit="2.4142" d="     M442.127,254.531c-1.563-0.39-2.521-1.986-2.113-3.618c0.392-1.563,1.988-2.521,3.551-2.132c1.629,0.404,2.588,2.005,2.197,3.563     C445.357,253.979,443.758,254.94,442.127,254.531L442.127,254.531z"/>
<path fill-rule="evenodd" clip-rule="evenodd" fill="none" stroke="#000000" stroke-width="0.504" stroke-miterlimit="2.4142" d="     M453.541,257.167c-1.564-0.392-2.523-1.989-2.113-3.619c0.391-1.563,1.986-2.523,3.549-2.131c1.631,0.403,2.59,2.004,2.198,3.563     C456.771,256.615,455.174,257.574,453.541,257.167L453.541,257.167z"/>
<path fill-rule="evenodd" clip-rule="evenodd" fill="none" stroke="#000000" stroke-width="0.504" stroke-miterlimit="2.4142" d="     M446.744,260.251c-1.566-0.389-2.523-1.985-2.114-3.617c0.389-1.563,1.986-2.521,3.549-2.131     c1.631,0.402,2.589,2.004,2.198,3.562C449.974,259.7,448.373,260.658,446.744,260.251L446.744,260.251z"/>
<path fill-rule="evenodd" clip-rule="evenodd" fill="none" stroke="#000000" stroke-width="0.504" stroke-miterlimit="2.4142" d="     M439.943,263.336c-1.56-0.39-2.521-1.985-2.11-3.617c0.39-1.563,1.989-2.523,3.55-2.13c1.627,0.403,2.587,2.003,2.199,3.562     C443.174,262.784,441.576,263.743,439.943,263.336L439.943,263.336z"/>
<path fill-rule="evenodd" clip-rule="evenodd" fill="none" stroke="#000000" stroke-width="0.504" stroke-miterlimit="2.4142" d="     M451.357,265.972c-1.563-0.391-2.521-1.986-2.113-3.617c0.393-1.563,1.988-2.522,3.551-2.131c1.629,0.404,2.59,2.004,2.199,3.563     C454.588,265.419,452.99,266.379,451.357,265.972L451.357,265.972z"/>
<path fill-rule="evenodd" clip-rule="evenodd" fill="none" stroke="#000000" stroke-width="0.504" stroke-miterlimit="2.4142" d="     M444.559,269.057c-1.56-0.388-2.518-1.986-2.109-3.617c0.39-1.563,1.985-2.521,3.547-2.132c1.632,0.407,2.591,2.006,2.198,3.563     C447.789,268.505,446.189,269.464,444.559,269.057L444.559,269.057z"/>
<path fill-rule="evenodd" clip-rule="evenodd" fill="none" stroke="#000000" stroke-width="0.504" stroke-miterlimit="2.4142" d="     M437.758,272.142c-1.562-0.39-2.518-1.986-2.111-3.619c0.393-1.562,1.99-2.52,3.549-2.13c1.633,0.405,2.594,2.004,2.201,3.563     C440.988,271.589,439.393,272.549,437.758,272.142L437.758,272.142z"/>
<path fill-rule="evenodd" clip-rule="evenodd" fill="none" stroke="#000000" stroke-width="0.504" stroke-miterlimit="2.4142" d="     M449.174,274.776c-1.564-0.389-2.52-1.984-2.109-3.618c0.388-1.563,1.984-2.521,3.545-2.13c1.631,0.402,2.591,2.004,2.201,3.563     C452.404,274.224,450.807,275.184,449.174,274.776L449.174,274.776z"/>
<path fill-rule="evenodd" clip-rule="evenodd" fill="none" stroke="#000000" stroke-width="0.504" stroke-miterlimit="2.4142" d="     M442.374,277.862c-1.562-0.389-2.519-1.986-2.111-3.619c0.391-1.562,1.987-2.521,3.547-2.131     c1.635,0.406,2.594,2.004,2.203,3.563C445.604,277.31,444.008,278.271,442.374,277.862L442.374,277.862z"/>
<path fill-rule="evenodd" clip-rule="evenodd" fill="none" stroke="#000000" stroke-width="0.504" stroke-miterlimit="2.4142" d="     M435.578,280.947c-1.559-0.39-2.52-1.987-2.113-3.617c0.395-1.564,1.986-2.522,3.552-2.131c1.63,0.405,2.591,2.004,2.198,3.563     C438.809,280.395,437.213,281.356,435.578,280.947L435.578,280.947z"/>
<path fill-rule="evenodd" clip-rule="evenodd" fill="none" stroke="#000000" stroke-width="0.504" stroke-miterlimit="2.4142" d="     M446.993,283.583c-1.562-0.392-2.522-1.986-2.116-3.619c0.394-1.561,1.988-2.518,3.555-2.13c1.625,0.403,2.591,2.005,2.199,3.563     C450.225,283.03,448.623,283.99,446.993,283.583L446.993,283.583z"/>
<path fill-rule="evenodd" clip-rule="evenodd" fill="none" stroke="#000000" stroke-width="0.504" stroke-miterlimit="2.4142" d="     M440.194,286.668c-1.563-0.389-2.521-1.985-2.112-3.618c0.391-1.563,1.985-2.52,3.55-2.131c1.63,0.405,2.591,2.005,2.199,3.563     C443.422,286.116,441.825,287.077,440.194,286.668L440.194,286.668z"/>
<path fill-rule="evenodd" clip-rule="evenodd" fill="none" stroke="#000000" stroke-width="0.504" stroke-miterlimit="2.4142" d="     M433.396,289.753c-1.562-0.387-2.523-1.984-2.113-3.617c0.388-1.562,1.986-2.518,3.549-2.131     c1.627,0.408,2.592,2.002,2.198,3.563C436.623,289.202,435.029,290.164,433.396,289.753L433.396,289.753z"/>
<path fill-rule="evenodd" clip-rule="evenodd" fill="none" stroke="#000000" stroke-width="0.504" stroke-miterlimit="2.4142" d="     M444.81,292.388c-1.563-0.388-2.522-1.985-2.112-3.617c0.39-1.561,1.984-2.519,3.551-2.13c1.627,0.405,2.589,2.003,2.197,3.564     C448.037,291.838,446.441,292.798,444.81,292.388L444.81,292.388z"/>
<path fill-rule="evenodd" clip-rule="evenodd" fill="none" stroke="#000000" stroke-width="0.504" stroke-miterlimit="2.4142" d="     M438.012,295.473c-1.563-0.389-2.521-1.986-2.113-3.618c0.39-1.563,1.986-2.521,3.549-2.13c1.63,0.404,2.593,2.001,2.199,3.562     C441.239,294.92,439.643,295.88,438.012,295.473L438.012,295.473z"/>
<path fill-rule="evenodd" clip-rule="evenodd" fill="none" stroke="#000000" stroke-width="0.504" stroke-miterlimit="2.4142" d="     M431.215,298.558c-1.563-0.389-2.52-1.984-2.113-3.617c0.39-1.563,1.985-2.519,3.549-2.129c1.63,0.403,2.59,2,2.199,3.562     C434.441,298.008,432.846,298.967,431.215,298.558L431.215,298.558z"/>
<path fill-rule="evenodd" clip-rule="evenodd" fill="none" stroke="#000000" stroke-width="0.504" stroke-miterlimit="2.4142" d="     M442.627,301.193c-1.563-0.389-2.523-1.986-2.113-3.618c0.39-1.562,1.986-2.521,3.551-2.129c1.627,0.403,2.591,2,2.201,3.563     C445.857,300.643,444.26,301.603,442.627,301.193L442.627,301.193z"/>
</g></switch>
</svg>