<?xml version="1.0" encoding="utf-8"?>
<!DOCTYPE svg PUBLIC "-//W3C//DTD SVG 1.1//EN" "http://www.w3.org/Graphics/SVG/1.1/DTD/svg11.dtd">
<svg version="1.1" id="Armor" xmlns="http://www.w3.org/2000/svg" xmlns:xlink="http://www.w3.org/1999/xlink" x="0px" y="0px"
	 width="612px" height="792px" viewBox="0 0 612 792" enable-background="new 0 0 612 792" xml:space="preserve">
<switch><g>
<path fill="none" stroke="#000000" stroke-width="0.504" stroke-miterlimit="2.4142" d="M425.838,80.887     c-1.668-0.144-2.926-1.651-2.78-3.311c0.149-1.73,1.646-2.925,3.313-2.782c1.727,0.152,2.996,1.592,2.847,3.321     C429.076,79.774,427.564,81.04,425.838,80.887L425.838,80.887z"/>
<path fill="none" stroke="#000000" stroke-width="0.504" stroke-miterlimit="2.4142" d="M419.447,88.865     c-1.666-0.146-2.924-1.652-2.779-3.313c0.152-1.729,1.648-2.925,3.314-2.782c1.725,0.153,3,1.591,2.85,3.32     C422.69,87.751,421.176,89.017,419.447,88.865L419.447,88.865z"/>
<path fill="none" stroke="#000000" stroke-width="0.504" stroke-miterlimit="2.4142" d="M430.744,89.852     c-1.666-0.144-2.928-1.648-2.781-3.31c0.151-1.729,1.649-2.925,3.314-2.781c1.728,0.152,2.998,1.589,2.846,3.319     C433.98,88.741,432.471,90.005,430.744,89.852L430.744,89.852z"/>
<path fill="none" stroke="#000000" stroke-width="0.504" stroke-miterlimit="2.4142" d="M424.35,97.83     c-1.661-0.146-2.919-1.652-2.772-3.313c0.149-1.731,1.647-2.925,3.313-2.781c1.728,0.152,2.996,1.592,2.847,3.321     C427.587,96.715,426.082,97.983,424.35,97.83L424.35,97.83z"/>
<path fill="none" stroke="#000000" stroke-width="0.504" stroke-miterlimit="2.4142" d="M417.962,105.806     c-1.661-0.146-2.92-1.65-2.773-3.31c0.149-1.73,1.647-2.926,3.309-2.78c1.731,0.151,3.004,1.589,2.854,3.318     C421.197,104.696,419.693,105.96,417.962,105.806L417.962,105.806z"/>
<path fill="none" stroke="#000000" stroke-width="0.504" stroke-miterlimit="2.4142" d="M429.261,106.795     c-1.663-0.144-2.924-1.652-2.782-3.31c0.152-1.731,1.652-2.925,3.32-2.78c1.726,0.151,2.996,1.588,2.839,3.321     C432.492,105.686,430.99,106.948,429.261,106.795L429.261,106.795z"/>
<path fill="none" stroke="#000000" stroke-width="0.504" stroke-miterlimit="2.4142" d="M422.871,114.774     c-1.662-0.146-2.924-1.653-2.779-3.313c0.155-1.734,1.646-2.928,3.31-2.783c1.733,0.15,3.005,1.589,2.854,3.321     C426.109,113.66,424.598,114.925,422.871,114.774L422.871,114.774z"/>
<path fill="none" stroke="#000000" stroke-width="0.504" stroke-miterlimit="2.4142" d="M416.484,122.749     c-1.665-0.146-2.93-1.65-2.78-3.313c0.148-1.731,1.644-2.926,3.31-2.776c1.729,0.148,3.004,1.582,2.854,3.314     C419.72,121.637,418.207,122.9,416.484,122.749L416.484,122.749z"/>
<path fill="none" stroke="#000000" stroke-width="0.504" stroke-miterlimit="2.4142" d="M427.78,123.739     c-1.665-0.146-2.932-1.652-2.782-3.313c0.148-1.732,1.646-2.925,3.313-2.779c1.728,0.152,2.995,1.586,2.849,3.318     C431.014,122.625,429.505,123.89,427.78,123.739L427.78,123.739z"/>
<path fill="none" stroke="#000000" stroke-width="0.504" stroke-miterlimit="2.4142" d="M421.39,131.716     c-1.667-0.145-2.926-1.649-2.779-3.311c0.151-1.731,1.646-2.925,3.313-2.781c1.726,0.152,2.998,1.59,2.846,3.322     C424.623,130.606,423.12,131.868,421.39,131.716L421.39,131.716z"/>
<path fill="none" stroke="#000000" stroke-width="0.504" stroke-miterlimit="2.4142" d="M415.001,139.693     c-1.668-0.145-2.925-1.65-2.778-3.313c0.148-1.731,1.646-2.925,3.312-2.779c1.727,0.151,3.002,1.586,2.85,3.32     C418.24,138.581,416.729,139.847,415.001,139.693L415.001,139.693z"/>
<path fill="none" stroke="#000000" stroke-width="0.504" stroke-miterlimit="2.4142" d="M426.295,140.684     c-1.664-0.146-2.924-1.651-2.779-3.312c0.15-1.732,1.65-2.926,3.314-2.782c1.725,0.152,2.994,1.588,2.842,3.321     C429.531,139.573,428.025,140.835,426.295,140.684L426.295,140.684z"/>
<path fill="none" stroke="#000000" stroke-width="0.504" stroke-miterlimit="2.4142" d="M419.908,148.66     c-1.666-0.144-2.926-1.65-2.779-3.312c0.152-1.731,1.646-2.926,3.311-2.783c1.728,0.154,3.004,1.591,2.847,3.323     C423.145,147.547,421.632,148.812,419.908,148.66L419.908,148.66z"/>
<path fill="none" stroke="#000000" stroke-width="0.504" stroke-miterlimit="2.4142" d="M413.519,156.638     c-1.667-0.146-2.926-1.652-2.777-3.314c0.148-1.73,1.645-2.926,3.313-2.779c1.727,0.15,3.003,1.589,2.849,3.322     C416.755,155.522,415.247,156.788,413.519,156.638L413.519,156.638z"/>
<path fill="none" stroke="#000000" stroke-width="0.504" stroke-miterlimit="2.4142" d="M424.814,157.626     c-1.663-0.145-2.929-1.648-2.781-3.31c0.153-1.733,1.649-2.927,3.313-2.782c1.729,0.151,2.999,1.587,2.847,3.32     C428.051,156.517,426.545,157.777,424.814,157.626L424.814,157.626z"/>
<path fill="none" stroke="#000000" stroke-width="0.504" stroke-miterlimit="2.4142" d="M418.424,165.603     c-1.662-0.144-2.924-1.651-2.779-3.312c0.154-1.731,1.648-2.925,3.313-2.781c1.727,0.151,3.001,1.589,2.846,3.32     C421.664,164.49,420.152,165.753,418.424,165.603L418.424,165.603z"/>
<path fill="none" stroke="#000000" stroke-width="0.504" stroke-miterlimit="2.4142" d="M412.034,173.579     c-1.662-0.143-2.922-1.649-2.777-3.311c0.151-1.732,1.651-2.926,3.312-2.78c1.728,0.149,3.004,1.587,2.85,3.32     C415.277,172.469,413.765,173.732,412.034,173.579L412.034,173.579z"/>
<path fill="none" stroke="#000000" stroke-width="0.504" stroke-miterlimit="2.4142" d="M423.329,174.567     c-1.661-0.139-2.924-1.65-2.775-3.31c0.148-1.732,1.649-2.926,3.311-2.778c1.729,0.148,2.999,1.586,2.844,3.319     C426.566,173.456,425.063,174.723,423.329,174.567L423.329,174.567z"/>
</g></switch>
</svg>