<?xml version="1.0" encoding="utf-8"?>
<!DOCTYPE svg PUBLIC "-//W3C//DTD SVG 1.1//EN" "http://www.w3.org/Graphics/SVG/1.1/DTD/svg11.dtd">
<svg version="1.1" id="Armor" xmlns="http://www.w3.org/2000/svg" xmlns:xlink="http://www.w3.org/1999/xlink" x="0px" y="0px"
	 width="612px" height="792px" viewBox="0 0 612 792" enable-background="new 0 0 612 792" xml:space="preserve">
<switch><g>
<path fill-rule="evenodd" clip-rule="evenodd" fill="none" stroke="#000000" stroke-width="0.504" stroke-miterlimit="2.4142" d="     M519.53,191.393c1.558-0.393,2.521-1.986,2.106-3.619c-0.381-1.565-1.979-2.525-3.544-2.133c-1.63,0.404-2.591,2.004-2.196,3.564     C516.297,190.839,517.896,191.799,519.53,191.393L519.53,191.393z"/>
<path fill-rule="evenodd" clip-rule="evenodd" fill="none" stroke="#000000" stroke-width="0.504" stroke-miterlimit="2.4142" d="     M526.555,195.805c1.561-0.391,2.523-1.988,2.115-3.621c-0.39-1.561-1.985-2.518-3.547-2.129     c-1.633,0.404-2.593,2.003-2.202,3.564C523.328,195.251,524.927,196.208,526.555,195.805L526.555,195.805z"/>
<path fill-rule="evenodd" clip-rule="evenodd" fill="none" stroke="#000000" stroke-width="0.504" stroke-miterlimit="2.4142" d="     M515.141,198.44c1.562-0.393,2.521-1.987,2.116-3.622c-0.39-1.561-1.986-2.52-3.546-2.129c-1.635,0.405-2.594,2.003-2.202,3.563     C511.914,197.885,513.516,198.843,515.141,198.44L515.141,198.44z"/>
<path fill-rule="evenodd" clip-rule="evenodd" fill="none" stroke="#000000" stroke-width="0.504" stroke-miterlimit="2.4142" d="     M522.174,202.852c1.562-0.393,2.521-1.988,2.113-3.623c-0.389-1.56-1.983-2.519-3.548-2.126c-1.632,0.403-2.593,2-2.2,3.563     C518.945,202.296,520.546,203.258,522.174,202.852L522.174,202.852z"/>
<path fill-rule="evenodd" clip-rule="evenodd" fill="none" stroke="#000000" stroke-width="0.504" stroke-miterlimit="2.4142" d="     M529.199,207.267c1.561-0.39,2.525-1.987,2.117-3.62c-0.388-1.562-1.986-2.521-3.551-2.132c-1.63,0.404-2.588,2.006-2.201,3.563     C525.974,206.713,527.57,207.671,529.199,207.267L529.199,207.267z"/>
<path fill-rule="evenodd" clip-rule="evenodd" fill="none" stroke="#000000" stroke-width="0.504" stroke-miterlimit="2.4142" d="     M517.787,209.899c1.561-0.388,2.526-1.986,2.117-3.618c-0.387-1.562-1.989-2.521-3.551-2.132     c-1.628,0.406-2.59,2.006-2.201,3.565C514.563,209.347,516.16,210.306,517.787,209.899L517.787,209.899z"/>
<path fill-rule="evenodd" clip-rule="evenodd" fill="none" stroke="#000000" stroke-width="0.504" stroke-miterlimit="2.4142" d="     M524.818,214.313c1.559-0.389,2.525-1.987,2.116-3.621c-0.391-1.561-1.989-2.52-3.551-2.131c-1.629,0.407-2.589,2.004-2.2,3.563     C521.594,213.761,523.191,214.719,524.818,214.313L524.818,214.313z"/>
<path fill-rule="evenodd" clip-rule="evenodd" fill="none" stroke="#000000" stroke-width="0.504" stroke-miterlimit="2.4142" d="     M531.849,218.725c1.563-0.39,2.521-1.984,2.112-3.62c-0.389-1.56-1.988-2.521-3.548-2.13c-1.629,0.408-2.587,2.003-2.2,3.563     C528.616,218.173,530.214,219.132,531.849,218.725L531.849,218.725z"/>
<path fill-rule="evenodd" clip-rule="evenodd" fill="none" stroke="#000000" stroke-width="0.504" stroke-miterlimit="2.4142" d="     M520.438,221.359c1.564-0.39,2.518-1.984,2.111-3.619c-0.387-1.563-1.987-2.519-3.551-2.131     c-1.627,0.408-2.585,2.004-2.197,3.564C517.205,220.809,518.803,221.768,520.438,221.359L520.438,221.359z"/>
<path fill-rule="evenodd" clip-rule="evenodd" fill="none" stroke="#000000" stroke-width="0.504" stroke-miterlimit="2.4142" d="     M527.466,225.773c1.565-0.392,2.521-1.985,2.113-3.622c-0.39-1.558-1.985-2.519-3.551-2.13c-1.623,0.407-2.587,2.004-2.2,3.563     C524.233,225.222,525.833,226.178,527.466,225.773L527.466,225.773z"/>
<path fill-rule="evenodd" clip-rule="evenodd" fill="none" stroke="#000000" stroke-width="0.504" stroke-miterlimit="2.4142" d="     M534.491,230.187c1.56-0.391,2.52-1.987,2.117-3.618c-0.393-1.566-1.989-2.521-3.55-2.134c-1.632,0.406-2.592,2.001-2.2,3.565     C531.261,229.631,532.862,230.593,534.491,230.187L534.491,230.187z"/>
<path fill-rule="evenodd" clip-rule="evenodd" fill="none" stroke="#000000" stroke-width="0.504" stroke-miterlimit="2.4142" d="     M523.079,232.82c1.562-0.391,2.519-1.985,2.118-3.62c-0.393-1.563-1.988-2.519-3.549-2.132c-1.632,0.409-2.592,2.001-2.201,3.565     C519.853,232.267,521.448,233.228,523.079,232.82L523.079,232.82z"/>
<path fill-rule="evenodd" clip-rule="evenodd" fill="none" stroke="#000000" stroke-width="0.504" stroke-miterlimit="2.4142" d="     M530.109,237.232c1.563-0.391,2.521-1.987,2.113-3.619c-0.393-1.563-1.983-2.52-3.548-2.132     c-1.628,0.405-2.589,2.002-2.198,3.564C526.879,236.678,528.479,237.638,530.109,237.232L530.109,237.232z"/>
<path fill-rule="evenodd" clip-rule="evenodd" fill="none" stroke="#000000" stroke-width="0.504" stroke-miterlimit="2.4142" d="     M537.142,241.643c1.562-0.386,2.521-1.982,2.11-3.615c-0.389-1.561-1.984-2.521-3.545-2.132     c-1.631,0.406-2.592,2.006-2.201,3.566C533.912,241.096,535.51,242.055,537.142,241.643L537.142,241.643z"/>
<path fill-rule="evenodd" clip-rule="evenodd" fill="none" stroke="#000000" stroke-width="0.504" stroke-miterlimit="2.4142" d="     M525.73,244.277c1.559-0.387,2.519-1.983,2.11-3.616c-0.39-1.56-1.985-2.522-3.548-2.131c-1.629,0.404-2.592,2.004-2.201,3.565     C522.5,243.729,524.096,244.688,525.73,244.277L525.73,244.277z"/>
<path fill-rule="evenodd" clip-rule="evenodd" fill="none" stroke="#000000" stroke-width="0.504" stroke-miterlimit="2.4142" d="     M532.76,248.689c1.564-0.386,2.52-1.983,2.109-3.614c-0.389-1.562-1.984-2.522-3.547-2.132c-1.629,0.404-2.59,2.005-2.197,3.565     C529.529,248.142,531.127,249.102,532.76,248.689L532.76,248.689z"/>
<path fill-rule="evenodd" clip-rule="evenodd" fill="none" stroke="#000000" stroke-width="0.504" stroke-miterlimit="2.4142" d="     M539.785,253.105c1.563-0.393,2.521-1.988,2.112-3.618c-0.392-1.564-1.983-2.525-3.548-2.133     c-1.631,0.403-2.591,2.003-2.199,3.563C536.555,252.551,538.152,253.511,539.785,253.105L539.785,253.105z"/>
<path fill-rule="evenodd" clip-rule="evenodd" fill="none" stroke="#000000" stroke-width="0.504" stroke-miterlimit="2.4142" d="     M528.373,255.738c1.564-0.389,2.521-1.985,2.113-3.618c-0.393-1.563-1.986-2.522-3.548-2.131c-1.632,0.404-2.591,2.003-2.2,3.563     C525.144,255.187,526.74,256.146,528.373,255.738L528.373,255.738z"/>
<path fill-rule="evenodd" clip-rule="evenodd" fill="none" stroke="#000000" stroke-width="0.504" stroke-miterlimit="2.4142" d="     M535.405,260.15c1.563-0.391,2.517-1.984,2.11-3.615c-0.39-1.563-1.984-2.525-3.548-2.133c-1.632,0.404-2.589,2.003-2.199,3.563     C532.172,259.602,533.771,260.559,535.405,260.15L535.405,260.15z"/>
<path fill-rule="evenodd" clip-rule="evenodd" fill="none" stroke="#000000" stroke-width="0.504" stroke-miterlimit="2.4142" d="     M542.434,264.563c1.562-0.39,2.523-1.986,2.111-3.617c-0.392-1.565-1.986-2.522-3.55-2.131c-1.628,0.404-2.589,2.004-2.198,3.562     C539.204,264.011,540.8,264.972,542.434,264.563L542.434,264.563z"/>
<path fill-rule="evenodd" clip-rule="evenodd" fill="none" stroke="#000000" stroke-width="0.504" stroke-miterlimit="2.4142" d="     M531.021,267.197c1.562-0.388,2.52-1.984,2.111-3.616c-0.393-1.563-1.986-2.522-3.548-2.132c-1.63,0.406-2.593,2.005-2.199,3.565     C527.791,266.646,529.389,267.607,531.021,267.197L531.021,267.197z"/>
<path fill-rule="evenodd" clip-rule="evenodd" fill="none" stroke="#000000" stroke-width="0.504" stroke-miterlimit="2.4142" d="     M538.052,271.609c1.563-0.388,2.516-1.982,2.109-3.617c-0.39-1.563-1.985-2.521-3.547-2.13c-1.632,0.405-2.59,2.004-2.2,3.563     C534.82,271.06,536.418,272.019,538.052,271.609L538.052,271.609z"/>
<path fill-rule="evenodd" clip-rule="evenodd" fill="none" stroke="#000000" stroke-width="0.504" stroke-miterlimit="2.4142" d="     M545.078,276.024c1.563-0.391,2.521-1.985,2.112-3.617c-0.391-1.565-1.985-2.522-3.547-2.134     c-1.634,0.404-2.595,2.005-2.201,3.563C541.851,275.47,543.446,276.431,545.078,276.024L545.078,276.024z"/>
<path fill-rule="evenodd" clip-rule="evenodd" fill="none" stroke="#000000" stroke-width="0.504" stroke-miterlimit="2.4142" d="     M533.666,278.658c1.563-0.388,2.522-1.984,2.113-3.616c-0.39-1.565-1.986-2.521-3.549-2.134     c-1.631,0.405-2.592,2.006-2.201,3.564C530.434,278.105,532.033,279.066,533.666,278.658L533.666,278.658z"/>
<path fill-rule="evenodd" clip-rule="evenodd" fill="none" stroke="#000000" stroke-width="0.504" stroke-miterlimit="2.4142" d="     M540.697,283.07c1.56-0.388,2.517-1.985,2.111-3.616c-0.391-1.563-1.988-2.521-3.549-2.132c-1.633,0.404-2.593,2.004-2.201,3.563     C537.465,282.52,539.063,283.479,540.697,283.07L540.697,283.07z"/>
<path fill-rule="evenodd" clip-rule="evenodd" fill="none" stroke="#000000" stroke-width="0.504" stroke-miterlimit="2.4142" d="     M547.723,287.483c1.563-0.385,2.521-1.984,2.114-3.616c-0.39-1.563-1.985-2.519-3.55-2.132c-1.629,0.406-2.592,2.007-2.201,3.565     C544.492,286.932,546.092,287.895,547.723,287.483L547.723,287.483z"/>
<path fill-rule="evenodd" clip-rule="evenodd" fill="none" stroke="#000000" stroke-width="0.504" stroke-miterlimit="2.4142" d="     M536.313,290.116c1.562-0.388,2.521-1.985,2.113-3.617c-0.391-1.562-1.988-2.521-3.552-2.13c-1.63,0.405-2.591,2.004-2.199,3.564     C533.082,289.564,534.679,290.526,536.313,290.116L536.313,290.116z"/>
<path fill-rule="evenodd" clip-rule="evenodd" fill="none" stroke="#000000" stroke-width="0.504" stroke-miterlimit="2.4142" d="     M543.34,294.53c1.563-0.389,2.523-1.983,2.113-3.618c-0.39-1.563-1.983-2.52-3.549-2.131c-1.629,0.405-2.592,2.005-2.203,3.564     C540.113,293.978,541.709,294.938,543.34,294.53L543.34,294.53z"/>
<path fill-rule="evenodd" clip-rule="evenodd" fill="none" stroke="#000000" stroke-width="0.504" stroke-miterlimit="2.4142" d="     M550.371,298.941c1.563-0.388,2.521-1.985,2.113-3.617c-0.393-1.56-1.99-2.517-3.552-2.128c-1.627,0.402-2.591,2.001-2.198,3.563     C547.141,298.392,548.738,299.351,550.371,298.941L550.371,298.941z"/>
<path fill-rule="evenodd" clip-rule="evenodd" fill="none" stroke="#000000" stroke-width="0.504" stroke-miterlimit="2.4142" d="     M538.957,301.577c1.563-0.388,2.521-1.986,2.113-3.619c-0.389-1.561-1.986-2.518-3.549-2.128     c-1.628,0.404-2.593,1.999-2.201,3.562C535.729,301.026,537.324,301.986,538.957,301.577L538.957,301.577z"/>
</g></switch>
</svg>