<?xml version="1.0" encoding="utf-8"?>
<!DOCTYPE svg PUBLIC "-//W3C//DTD SVG 1.1//EN" "http://www.w3.org/Graphics/SVG/1.1/DTD/svg11.dtd">
<svg version="1.1" id="Armor" xmlns="http://www.w3.org/2000/svg" xmlns:xlink="http://www.w3.org/1999/xlink" x="0px" y="0px"
	 width="612px" height="792px" viewBox="0 0 612 792" enable-background="new 0 0 612 792" xml:space="preserve">
<switch><g>
<path fill="none" stroke="#000000" stroke-width="0.504" stroke-miterlimit="2.4142" d="M557.234,80.914     c1.662-0.143,2.928-1.651,2.78-3.312c-0.146-1.73-1.649-2.924-3.312-2.778c-1.729,0.149-3.001,1.586-2.85,3.318     C554.002,79.804,555.506,81.065,557.234,80.914L557.234,80.914z"/>
<path fill="none" stroke="#000000" stroke-width="0.504" stroke-miterlimit="2.4142" d="M563.289,85.066     c1.663-0.145,2.928-1.65,2.779-3.313c-0.148-1.729-1.646-2.923-3.313-2.778c-1.727,0.151-3.001,1.589-2.85,3.318     C560.051,83.955,561.563,85.219,563.289,85.066L563.289,85.066z"/>
<path fill="none" stroke="#000000" stroke-width="0.504" stroke-miterlimit="2.4142" d="M551.994,86.055     c1.665-0.145,2.928-1.651,2.78-3.311c-0.148-1.729-1.646-2.926-3.313-2.78c-1.727,0.15-2.997,1.59-2.846,3.32     C548.763,84.945,550.267,86.207,551.994,86.055L551.994,86.055z"/>
<path fill="none" stroke="#000000" stroke-width="0.504" stroke-miterlimit="2.4142" d="M558.047,90.206     c1.662-0.143,2.929-1.65,2.781-3.312c-0.146-1.73-1.65-2.923-3.312-2.777c-1.729,0.148-3.002,1.585-2.85,3.318     C554.815,89.097,556.318,90.357,558.047,90.206L558.047,90.206z"/>
<path fill="none" stroke="#000000" stroke-width="0.504" stroke-miterlimit="2.4142" d="M564.104,94.359     c1.66-0.146,2.928-1.652,2.779-3.313c-0.149-1.729-1.646-2.924-3.313-2.779c-1.729,0.151-3.002,1.589-2.851,3.318     C560.864,93.247,562.377,94.511,564.104,94.359L564.104,94.359z"/>
<path fill="none" stroke="#000000" stroke-width="0.504" stroke-miterlimit="2.4142" d="M552.809,95.348     c1.662-0.146,2.929-1.651,2.779-3.312c-0.147-1.729-1.647-2.925-3.313-2.781c-1.728,0.151-2.996,1.591-2.847,3.322     C549.574,94.237,551.08,95.499,552.809,95.348L552.809,95.348z"/>
<path fill="none" stroke="#000000" stroke-width="0.504" stroke-miterlimit="2.4142" d="M558.859,99.498     c1.664-0.144,2.928-1.651,2.782-3.311c-0.147-1.732-1.649-2.925-3.309-2.779c-1.734,0.15-3.004,1.586-2.854,3.319     C555.625,98.388,557.131,99.649,558.859,99.498L558.859,99.498z"/>
<path fill="none" stroke="#000000" stroke-width="0.504" stroke-miterlimit="2.4142" d="M564.914,103.649     c1.664-0.142,2.93-1.651,2.782-3.311c-0.149-1.73-1.651-2.925-3.312-2.778c-1.731,0.151-3.007,1.586-2.852,3.317     C561.68,102.539,563.188,103.802,564.914,103.649L564.914,103.649z"/>
<path fill="none" stroke="#000000" stroke-width="0.504" stroke-miterlimit="2.4142" d="M553.615,104.64     c1.666-0.144,2.934-1.653,2.786-3.313c-0.149-1.731-1.653-2.924-3.314-2.778c-1.731,0.148-2.999,1.586-2.847,3.318     C550.385,103.527,551.891,104.789,553.615,104.64L553.615,104.64z"/>
<path fill="none" stroke="#000000" stroke-width="0.504" stroke-miterlimit="2.4142" d="M559.675,108.793     c1.665-0.146,2.924-1.653,2.779-3.313c-0.151-1.73-1.649-2.925-3.313-2.781c-1.727,0.152-2.999,1.59-2.849,3.32     C556.438,107.678,557.947,108.944,559.675,108.793L559.675,108.793z"/>
<path fill="none" stroke="#000000" stroke-width="0.504" stroke-miterlimit="2.4142" d="M565.73,112.944     c1.661-0.146,2.921-1.652,2.778-3.313c-0.153-1.731-1.649-2.925-3.313-2.781c-1.728,0.151-3.002,1.591-2.851,3.32     C562.487,111.83,564,113.097,565.73,112.944L565.73,112.944z"/>
<path fill="none" stroke="#000000" stroke-width="0.504" stroke-miterlimit="2.4142" d="M554.435,113.931     c1.661-0.145,2.926-1.649,2.778-3.312c-0.152-1.729-1.65-2.924-3.313-2.779c-1.729,0.151-2.999,1.587-2.847,3.32     C551.196,112.818,552.705,114.085,554.435,113.931L554.435,113.931z"/>
<path fill="none" stroke="#000000" stroke-width="0.504" stroke-miterlimit="2.4142" d="M560.49,118.083     c1.662-0.144,2.922-1.649,2.774-3.311c-0.149-1.731-1.649-2.927-3.313-2.78c-1.729,0.15-2.994,1.588-2.844,3.319     C557.256,116.97,558.76,118.235,560.49,118.083L560.49,118.083z"/>
<path fill="none" stroke="#000000" stroke-width="0.504" stroke-miterlimit="2.4142" d="M566.543,122.234     c1.664-0.146,2.924-1.652,2.779-3.312c-0.152-1.73-1.651-2.925-3.314-2.779c-1.729,0.152-3,1.588-2.85,3.319     C563.307,121.123,564.811,122.386,566.543,122.234L566.543,122.234z"/>
<path fill="none" stroke="#000000" stroke-width="0.504" stroke-miterlimit="2.4142" d="M555.246,123.223     c1.664-0.146,2.924-1.653,2.781-3.311c-0.15-1.729-1.653-2.926-3.32-2.78c-1.725,0.152-2.993,1.589-2.839,3.32     C552.016,122.112,553.516,123.375,555.246,123.223L555.246,123.223z"/>
<path fill="none" stroke="#000000" stroke-width="0.504" stroke-miterlimit="2.4142" d="M561.302,127.375     c1.66-0.146,2.925-1.652,2.779-3.313c-0.152-1.731-1.648-2.925-3.313-2.779c-1.729,0.151-3,1.587-2.849,3.319     C558.063,126.262,559.573,127.527,561.302,127.375L561.302,127.375z"/>
<path fill="none" stroke="#000000" stroke-width="0.504" stroke-miterlimit="2.4142" d="M567.354,131.528     c1.66-0.145,2.929-1.651,2.781-3.313c-0.151-1.732-1.647-2.927-3.313-2.781c-1.729,0.151-3.005,1.589-2.851,3.32     C564.117,130.416,565.627,131.681,567.354,131.528L567.354,131.528z"/>
<path fill="none" stroke="#000000" stroke-width="0.504" stroke-miterlimit="2.4142" d="M556.059,132.517     c1.66-0.146,2.928-1.651,2.785-3.314c-0.154-1.731-1.653-2.926-3.315-2.78c-1.73,0.152-3,1.589-2.847,3.321     C552.822,131.403,554.33,132.669,556.059,132.517L556.059,132.517z"/>
<path fill="none" stroke="#000000" stroke-width="0.504" stroke-miterlimit="2.4142" d="M562.111,136.667     c1.666-0.146,2.927-1.652,2.78-3.312c-0.147-1.732-1.649-2.926-3.313-2.78c-1.725,0.149-2.996,1.588-2.844,3.321     C558.877,135.555,560.383,136.818,562.111,136.667L562.111,136.667z"/>
<path fill="none" stroke="#000000" stroke-width="0.504" stroke-miterlimit="2.4142" d="M568.17,140.819     c1.662-0.144,2.924-1.65,2.776-3.31c-0.147-1.734-1.648-2.928-3.313-2.783c-1.727,0.153-2.998,1.589-2.849,3.321     C564.93,139.708,566.439,140.972,568.17,140.819L568.17,140.819z"/>
<path fill="none" stroke="#000000" stroke-width="0.504" stroke-miterlimit="2.4142" d="M556.875,141.808     c1.66-0.146,2.926-1.649,2.778-3.31c-0.149-1.733-1.651-2.927-3.317-2.783c-1.723,0.151-2.994,1.588-2.84,3.323     C553.639,140.696,555.145,141.96,556.875,141.808L556.875,141.808z"/>
<path fill="none" stroke="#000000" stroke-width="0.504" stroke-miterlimit="2.4142" d="M562.926,145.959     c1.665-0.145,2.924-1.65,2.779-3.311c-0.15-1.731-1.648-2.926-3.313-2.781c-1.728,0.152-2.999,1.59-2.847,3.322     C559.689,144.847,561.199,146.111,562.926,145.959L562.926,145.959z"/>
<path fill="none" stroke="#000000" stroke-width="0.504" stroke-miterlimit="2.4142" d="M568.979,150.111     c1.665-0.145,2.929-1.651,2.782-3.313c-0.151-1.73-1.646-2.924-3.313-2.78c-1.729,0.151-3.002,1.588-2.85,3.323     C565.744,148.998,567.253,150.263,568.979,150.111L568.979,150.111z"/>
<path fill="none" stroke="#000000" stroke-width="0.504" stroke-miterlimit="2.4142" d="M557.683,151.1     c1.664-0.146,2.93-1.651,2.786-3.311c-0.156-1.731-1.653-2.927-3.315-2.781c-1.732,0.151-3.001,1.587-2.845,3.319     C554.449,149.986,555.955,151.25,557.683,151.1L557.683,151.1z"/>
<path fill="none" stroke="#000000" stroke-width="0.504" stroke-miterlimit="2.4142" d="M563.74,155.252     c1.662-0.146,2.924-1.652,2.778-3.311c-0.153-1.733-1.649-2.928-3.313-2.783c-1.725,0.152-2.998,1.588-2.844,3.32     C560.502,154.138,562.01,155.403,563.74,155.252L563.74,155.252z"/>
<path fill="none" stroke="#000000" stroke-width="0.504" stroke-miterlimit="2.4142" d="M569.795,159.401     c1.66-0.144,2.924-1.65,2.777-3.31c-0.15-1.732-1.648-2.924-3.313-2.779c-1.726,0.149-3.001,1.586-2.849,3.32     C566.555,158.291,568.064,159.554,569.795,159.401L569.795,159.401z"/>
<path fill="none" stroke="#000000" stroke-width="0.504" stroke-miterlimit="2.4142" d="M558.5,160.39     c1.66-0.142,2.924-1.65,2.777-3.311c-0.146-1.731-1.648-2.925-3.313-2.778c-1.729,0.15-2.996,1.587-2.846,3.318     C555.263,159.277,556.768,160.542,558.5,160.39L558.5,160.39z"/>
<path fill="none" stroke="#000000" stroke-width="0.504" stroke-miterlimit="2.4142" d="M564.553,164.542     c1.662-0.144,2.924-1.651,2.78-3.312c-0.153-1.73-1.651-2.923-3.315-2.779c-1.726,0.152-2.995,1.589-2.844,3.321     C561.314,163.43,562.822,164.692,564.553,164.542L564.553,164.542z"/>
<path fill="none" stroke="#000000" stroke-width="0.504" stroke-miterlimit="2.4142" d="M570.608,168.695     c1.659-0.145,2.921-1.652,2.775-3.312c-0.149-1.733-1.649-2.925-3.313-2.781c-1.728,0.151-3,1.587-2.847,3.321     C567.366,167.583,568.875,168.848,570.608,168.695L570.608,168.695z"/>
<path fill="none" stroke="#000000" stroke-width="0.504" stroke-miterlimit="2.4142" d="M559.313,169.683     c1.66-0.143,2.925-1.651,2.779-3.312c-0.147-1.732-1.651-2.924-3.313-2.779c-1.729,0.151-2.996,1.588-2.844,3.319     C556.075,168.57,557.58,169.836,559.313,169.683L559.313,169.683z"/>
<path fill="none" stroke="#000000" stroke-width="0.504" stroke-miterlimit="2.4142" d="M565.365,173.835     c1.663-0.145,2.925-1.651,2.781-3.313c-0.154-1.73-1.652-2.923-3.316-2.779c-1.725,0.152-2.996,1.589-2.844,3.321     C562.128,172.723,563.636,173.985,565.365,173.835L565.365,173.835z"/>
</g></switch>
</svg>