<?xml version="1.0" encoding="utf-8"?>
<!DOCTYPE svg PUBLIC "-//W3C//DTD SVG 1.1//EN" "http://www.w3.org/Graphics/SVG/1.1/DTD/svg11.dtd">
<svg version="1.1" id="Armor" xmlns="http://www.w3.org/2000/svg" xmlns:xlink="http://www.w3.org/1999/xlink" x="0px" y="0px"
	 width="612px" height="792px" viewBox="0 0 612 792" enable-background="new 0 0 612 792" xml:space="preserve">
<switch><g>
<path fill-rule="evenodd" clip-rule="evenodd" fill="none" stroke="#000000" stroke-width="0.504" stroke-miterlimit="2.4142" d="     M513.485,189.982c1.562-0.389,2.519-1.986,2.108-3.618c-0.382-1.56-1.988-2.521-3.547-2.131c-1.63,0.408-2.594,2.005-2.198,3.565     C510.254,189.431,511.848,190.392,513.485,189.982L513.485,189.982z"/>
<path fill-rule="evenodd" clip-rule="evenodd" fill="none" stroke="#000000" stroke-width="0.504" stroke-miterlimit="2.4142" d="     M533.272,223.637c1.563-0.388,2.518-1.986,2.119-3.622c-0.401-1.557-1.992-2.515-3.557-2.124     c-1.631,0.406-2.596,2.003-2.201,3.564C530.044,223.084,531.646,224.048,533.272,223.637L533.272,223.637z"/>
<path fill-rule="evenodd" clip-rule="evenodd" fill="none" stroke="#000000" stroke-width="0.504" stroke-miterlimit="2.4142" d="     M530.235,262.563c1.571-0.385,2.525-1.984,2.121-3.62c-0.396-1.56-1.993-2.515-3.555-2.13c-1.625,0.411-2.592,2.004-2.201,3.568     C527.011,262.011,528.609,262.976,530.235,262.563L530.235,262.563z"/>
<path fill-rule="evenodd" clip-rule="evenodd" fill="none" stroke="#000000" stroke-width="0.504" stroke-miterlimit="2.4142" d="     M550.031,296.216c1.566-0.386,2.52-1.984,2.116-3.621c-0.397-1.555-1.992-2.51-3.556-2.124c-1.621,0.404-2.594,1.998-2.195,3.563     C546.806,295.669,548.398,296.628,550.031,296.216L550.031,296.216z"/>
</g></switch>
</svg>