<?xml version="1.0" encoding="utf-8"?>
<!DOCTYPE svg PUBLIC "-//W3C//DTD SVG 1.1//EN" "http://www.w3.org/Graphics/SVG/1.1/DTD/svg11.dtd">
<svg version="1.1" id="Armor" xmlns="http://www.w3.org/2000/svg" xmlns:xlink="http://www.w3.org/1999/xlink" x="0px" y="0px"
	 width="612px" height="792px" viewBox="0 0 612 792" enable-background="new 0 0 612 792" xml:space="preserve">
<switch><g>
<path fill-rule="evenodd" clip-rule="evenodd" fill="none" stroke="#000000" stroke-width="0.504" stroke-miterlimit="2.4142" d="     M519.265,189.494c1.565-0.388,2.525-1.983,2.115-3.617c-0.389-1.561-1.984-2.521-3.547-2.13     c-1.631,0.405-2.592,2.001-2.201,3.564C516.04,188.943,517.637,189.902,519.265,189.494L519.265,189.494z"/>
<path fill-rule="evenodd" clip-rule="evenodd" fill="none" stroke="#000000" stroke-width="0.504" stroke-miterlimit="2.4142" d="     M525.988,192.253c1.563-0.392,2.526-1.986,2.112-3.619c-0.385-1.563-1.98-2.523-3.543-2.131c-1.633,0.403-2.59,2-2.201,3.564     C522.763,191.698,524.361,192.66,525.988,192.253L525.988,192.253z"/>
<path fill-rule="evenodd" clip-rule="evenodd" fill="none" stroke="#000000" stroke-width="0.504" stroke-miterlimit="2.4142" d="     M514.577,194.889c1.563-0.393,2.524-1.988,2.113-3.621c-0.387-1.563-1.98-2.521-3.545-2.131c-1.633,0.405-2.59,2.001-2.2,3.565     C511.351,194.333,512.95,195.294,514.577,194.889L514.577,194.889z"/>
<path fill-rule="evenodd" clip-rule="evenodd" fill="none" stroke="#000000" stroke-width="0.504" stroke-miterlimit="2.4142" d="     M521.153,197.677c1.566-0.387,2.526-1.983,2.115-3.617c-0.389-1.561-1.984-2.521-3.547-2.13c-1.631,0.406-2.59,2.001-2.201,3.564     C517.929,197.126,519.526,198.085,521.153,197.677L521.153,197.677z"/>
<path fill-rule="evenodd" clip-rule="evenodd" fill="none" stroke="#000000" stroke-width="0.504" stroke-miterlimit="2.4142" d="     M527.879,200.437c1.56-0.393,2.523-1.987,2.112-3.62c-0.387-1.563-1.98-2.523-3.545-2.131c-1.632,0.404-2.59,2-2.2,3.564     C524.653,199.882,526.249,200.843,527.879,200.437L527.879,200.437z"/>
<path fill-rule="evenodd" clip-rule="evenodd" fill="none" stroke="#000000" stroke-width="0.504" stroke-miterlimit="2.4142" d="     M516.468,203.072c1.561-0.392,2.524-1.986,2.11-3.619c-0.386-1.563-1.979-2.523-3.543-2.132c-1.632,0.405-2.589,2.001-2.2,3.565     C513.239,202.517,514.839,203.478,516.468,203.072L516.468,203.072z"/>
<path fill-rule="evenodd" clip-rule="evenodd" fill="none" stroke="#000000" stroke-width="0.504" stroke-miterlimit="2.4142" d="     M523.046,205.861c1.564-0.387,2.523-1.983,2.113-3.616c-0.389-1.562-1.984-2.521-3.546-2.131     c-1.632,0.406-2.591,1.999-2.202,3.563C519.819,205.311,521.415,206.27,523.046,205.861L523.046,205.861z"/>
<path fill-rule="evenodd" clip-rule="evenodd" fill="none" stroke="#000000" stroke-width="0.504" stroke-miterlimit="2.4142" d="     M529.767,208.622c1.563-0.393,2.526-1.987,2.113-3.619c-0.386-1.562-1.979-2.523-3.546-2.132     c-1.632,0.405-2.587,2.001-2.198,3.565C526.542,208.067,528.14,209.027,529.767,208.622L529.767,208.622z"/>
<path fill-rule="evenodd" clip-rule="evenodd" fill="none" stroke="#000000" stroke-width="0.504" stroke-miterlimit="2.4142" d="     M518.354,211.256c1.561-0.393,2.525-1.987,2.113-3.62c-0.387-1.562-1.979-2.521-3.547-2.131     c-1.631,0.405-2.587,2.002-2.195,3.565C515.128,210.702,516.729,211.663,518.354,211.256L518.354,211.256z"/>
<path fill-rule="evenodd" clip-rule="evenodd" fill="none" stroke="#000000" stroke-width="0.504" stroke-miterlimit="2.4142" d="     M524.938,214.046c1.562-0.39,2.525-1.985,2.109-3.618c-0.383-1.563-1.979-2.523-3.545-2.133     c-1.629,0.406-2.586,2.004-2.195,3.563C521.709,213.496,523.31,214.453,524.938,214.046L524.938,214.046z"/>
<path fill-rule="evenodd" clip-rule="evenodd" fill="none" stroke="#000000" stroke-width="0.504" stroke-miterlimit="2.4142" d="     M531.651,216.806c1.564-0.392,2.523-1.99,2.118-3.621c-0.393-1.562-1.984-2.522-3.55-2.129c-1.633,0.403-2.59,2-2.201,3.563     C528.427,216.25,530.025,217.21,531.651,216.806L531.651,216.806z"/>
<path fill-rule="evenodd" clip-rule="evenodd" fill="none" stroke="#000000" stroke-width="0.504" stroke-miterlimit="2.4142" d="     M520.241,219.44c1.563-0.391,2.522-1.989,2.115-3.621c-0.393-1.562-1.984-2.521-3.549-2.129c-1.63,0.403-2.589,2.001-2.201,3.563     C517.015,218.884,518.614,219.845,520.241,219.44L520.241,219.44z"/>
<path fill-rule="evenodd" clip-rule="evenodd" fill="none" stroke="#000000" stroke-width="0.504" stroke-miterlimit="2.4142" d="     M526.822,222.231c1.563-0.392,2.526-1.988,2.116-3.621c-0.389-1.561-1.984-2.518-3.551-2.128     c-1.63,0.404-2.588,2.003-2.199,3.563C523.597,221.677,525.195,222.636,526.822,222.231L526.822,222.231z"/>
<path fill-rule="evenodd" clip-rule="evenodd" fill="none" stroke="#000000" stroke-width="0.504" stroke-miterlimit="2.4142" d="     M533.542,224.991c1.561-0.39,2.523-1.989,2.117-3.62c-0.389-1.562-1.988-2.521-3.551-2.132c-1.629,0.408-2.59,2.005-2.203,3.564     C530.317,224.437,531.913,225.397,533.542,224.991L533.542,224.991z"/>
<path fill-rule="evenodd" clip-rule="evenodd" fill="none" stroke="#000000" stroke-width="0.504" stroke-miterlimit="2.4142" d="     M522.13,227.625c1.561-0.39,2.524-1.989,2.117-3.622c-0.389-1.562-1.988-2.521-3.551-2.131c-1.629,0.408-2.589,2.005-2.203,3.564     C518.905,227.071,520.501,228.032,522.13,227.625L522.13,227.625z"/>
<path fill-rule="evenodd" clip-rule="evenodd" fill="none" stroke="#000000" stroke-width="0.504" stroke-miterlimit="2.4142" d="     M528.71,230.417c1.564-0.388,2.531-1.987,2.117-3.621c-0.387-1.561-1.984-2.519-3.547-2.132c-1.63,0.408-2.59,2.008-2.205,3.566     C525.489,229.865,527.087,230.823,528.71,230.417L528.71,230.417z"/>
<path fill-rule="evenodd" clip-rule="evenodd" fill="none" stroke="#000000" stroke-width="0.504" stroke-miterlimit="2.4142" d="     M535.435,233.172c1.564-0.388,2.521-1.983,2.113-3.62c-0.387-1.559-1.986-2.518-3.549-2.129     c-1.629,0.408-2.586,2.001-2.199,3.563C532.206,232.623,533.8,233.58,535.435,233.172L535.435,233.172z"/>
<path fill-rule="evenodd" clip-rule="evenodd" fill="none" stroke="#000000" stroke-width="0.504" stroke-miterlimit="2.4142" d="     M524.022,235.807c1.564-0.389,2.521-1.984,2.113-3.62c-0.387-1.56-1.986-2.519-3.549-2.129c-1.629,0.407-2.586,2.001-2.199,3.562     C520.794,235.256,522.388,236.213,524.022,235.807L524.022,235.807z"/>
<path fill-rule="evenodd" clip-rule="evenodd" fill="none" stroke="#000000" stroke-width="0.504" stroke-miterlimit="2.4142" d="     M530.601,238.6c1.567-0.394,2.523-1.988,2.115-3.623c-0.388-1.56-1.986-2.52-3.55-2.128c-1.626,0.405-2.589,2-2.2,3.563     C527.372,238.047,528.97,239.003,530.601,238.6L530.601,238.6z"/>
<path fill-rule="evenodd" clip-rule="evenodd" fill="none" stroke="#000000" stroke-width="0.504" stroke-miterlimit="2.4142" d="     M537.319,241.358c1.561-0.388,2.522-1.983,2.119-3.62c-0.396-1.563-1.989-2.519-3.551-2.131     c-1.631,0.409-2.592,2.001-2.203,3.565C534.091,240.805,535.69,241.766,537.319,241.358L537.319,241.358z"/>
<path fill-rule="evenodd" clip-rule="evenodd" fill="none" stroke="#000000" stroke-width="0.504" stroke-miterlimit="2.4142" d="     M525.906,243.993c1.561-0.388,2.524-1.985,2.12-3.62c-0.395-1.563-1.988-2.519-3.552-2.132c-1.63,0.408-2.591,2.002-2.2,3.566     C522.679,243.44,524.278,244.401,525.906,243.993L525.906,243.993z"/>
<path fill-rule="evenodd" clip-rule="evenodd" fill="none" stroke="#000000" stroke-width="0.504" stroke-miterlimit="2.4142" d="     M532.489,246.784c1.563-0.391,2.523-1.987,2.117-3.619c-0.393-1.563-1.985-2.521-3.549-2.132     c-1.629,0.406-2.59,1.999-2.201,3.565C529.261,246.229,530.858,247.19,532.489,246.784L532.489,246.784z"/>
<path fill-rule="evenodd" clip-rule="evenodd" fill="none" stroke="#000000" stroke-width="0.504" stroke-miterlimit="2.4142" d="     M539.216,249.54c1.561-0.389,2.52-1.984,2.111-3.62c-0.395-1.559-1.988-2.519-3.549-2.128c-1.628,0.404-2.589,2.003-2.201,3.564     C535.985,248.988,537.58,249.948,539.216,249.54L539.216,249.54z"/>
<path fill-rule="evenodd" clip-rule="evenodd" fill="none" stroke="#000000" stroke-width="0.504" stroke-miterlimit="2.4142" d="     M527.804,252.174c1.559-0.389,2.52-1.986,2.109-3.621c-0.392-1.558-1.988-2.518-3.549-2.127     c-1.626,0.403-2.588,2.002-2.198,3.564C524.572,251.623,526.167,252.583,527.804,252.174L527.804,252.174z"/>
<path fill-rule="evenodd" clip-rule="evenodd" fill="none" stroke="#000000" stroke-width="0.504" stroke-miterlimit="2.4142" d="     M534.385,254.964c1.562-0.386,2.521-1.984,2.11-3.616c-0.391-1.56-1.986-2.521-3.551-2.131c-1.625,0.408-2.588,2.006-2.195,3.565     C531.153,254.416,532.751,255.377,534.385,254.964L534.385,254.964z"/>
<path fill-rule="evenodd" clip-rule="evenodd" fill="none" stroke="#000000" stroke-width="0.504" stroke-miterlimit="2.4142" d="     M541.104,257.724c1.563-0.391,2.524-1.988,2.112-3.618c-0.391-1.563-1.985-2.525-3.548-2.131     c-1.631,0.402-2.592,2.003-2.199,3.563C537.874,257.173,539.47,258.131,541.104,257.724L541.104,257.724z"/>
<path fill-rule="evenodd" clip-rule="evenodd" fill="none" stroke="#000000" stroke-width="0.504" stroke-miterlimit="2.4142" d="     M529.694,260.358c1.563-0.391,2.521-1.988,2.111-3.618c-0.393-1.563-1.986-2.524-3.55-2.131c-1.63,0.402-2.589,2.003-2.198,3.563     C526.463,259.807,528.06,260.766,529.694,260.358L529.694,260.358z"/>
<path fill-rule="evenodd" clip-rule="evenodd" fill="none" stroke="#000000" stroke-width="0.504" stroke-miterlimit="2.4142" d="     M536.271,263.149c1.566-0.387,2.523-1.985,2.114-3.616c-0.388-1.563-1.985-2.521-3.548-2.131c-1.631,0.403-2.588,2.004-2.2,3.562     C533.042,262.599,534.642,263.558,536.271,263.149L536.271,263.149z"/>
<path fill-rule="evenodd" clip-rule="evenodd" fill="none" stroke="#000000" stroke-width="0.504" stroke-miterlimit="2.4142" d="     M542.994,265.908c1.562-0.392,2.521-1.987,2.112-3.616c-0.395-1.565-1.988-2.524-3.551-2.132     c-1.629,0.403-2.59,2.004-2.199,3.562C539.763,265.354,541.358,266.315,542.994,265.908L542.994,265.908z"/>
<path fill-rule="evenodd" clip-rule="evenodd" fill="none" stroke="#000000" stroke-width="0.504" stroke-miterlimit="2.4142" d="     M531.581,268.542c1.563-0.394,2.521-1.988,2.113-3.618c-0.393-1.564-1.988-2.523-3.551-2.132     c-1.629,0.404-2.59,2.004-2.199,3.563C528.351,267.989,529.948,268.948,531.581,268.542L531.581,268.542z"/>
<path fill-rule="evenodd" clip-rule="evenodd" fill="none" stroke="#000000" stroke-width="0.504" stroke-miterlimit="2.4142" d="     M538.161,271.333c1.563-0.388,2.519-1.987,2.113-3.617c-0.391-1.564-1.986-2.522-3.548-2.132     c-1.632,0.406-2.59,2.006-2.198,3.562C534.935,270.781,536.532,271.74,538.161,271.333L538.161,271.333z"/>
<path fill-rule="evenodd" clip-rule="evenodd" fill="none" stroke="#000000" stroke-width="0.504" stroke-miterlimit="2.4142" d="     M544.886,274.09c1.564-0.39,2.52-1.985,2.109-3.619c-0.387-1.563-1.984-2.521-3.545-2.129c-1.631,0.402-2.59,2.004-2.201,3.563     C541.655,273.538,543.253,274.497,544.886,274.09L544.886,274.09z"/>
<path fill-rule="evenodd" clip-rule="evenodd" fill="none" stroke="#000000" stroke-width="0.504" stroke-miterlimit="2.4142" d="     M533.476,276.724c1.563-0.391,2.517-1.985,2.107-3.619c-0.387-1.563-1.984-2.521-3.545-2.129     c-1.632,0.401-2.59,2.003-2.201,3.563C530.241,276.171,531.841,277.13,533.476,276.724L533.476,276.724z"/>
<path fill-rule="evenodd" clip-rule="evenodd" fill="none" stroke="#000000" stroke-width="0.504" stroke-miterlimit="2.4142" d="     M540.05,279.518c1.563-0.39,2.52-1.986,2.113-3.62c-0.393-1.56-1.99-2.521-3.545-2.132c-1.638,0.408-2.597,2.006-2.205,3.565     C536.821,278.964,538.417,279.927,540.05,279.518L540.05,279.518z"/>
<path fill-rule="evenodd" clip-rule="evenodd" fill="none" stroke="#000000" stroke-width="0.504" stroke-miterlimit="2.4142" d="     M546.769,282.278c1.563-0.395,2.523-1.987,2.117-3.619c-0.395-1.563-1.988-2.52-3.555-2.131     c-1.625,0.402-2.593,2.004-2.199,3.563C543.537,281.723,545.138,282.682,546.769,282.278L546.769,282.278z"/>
<path fill-rule="evenodd" clip-rule="evenodd" fill="none" stroke="#000000" stroke-width="0.504" stroke-miterlimit="2.4142" d="     M535.357,284.912c1.562-0.394,2.522-1.986,2.116-3.619c-0.395-1.562-1.988-2.519-3.555-2.132     c-1.625,0.404-2.592,2.006-2.199,3.563C532.126,284.357,533.728,285.317,535.357,284.912L535.357,284.912z"/>
<path fill-rule="evenodd" clip-rule="evenodd" fill="none" stroke="#000000" stroke-width="0.504" stroke-miterlimit="2.4142" d="     M541.94,287.701c1.564-0.39,2.52-1.985,2.111-3.618c-0.391-1.563-1.982-2.52-3.549-2.13c-1.629,0.404-2.591,2.004-2.199,3.563     C538.712,287.149,540.31,288.109,541.94,287.701L541.94,287.701z"/>
<path fill-rule="evenodd" clip-rule="evenodd" fill="none" stroke="#000000" stroke-width="0.504" stroke-miterlimit="2.4142" d="     M548.663,290.458c1.563-0.387,2.521-1.985,2.111-3.617c-0.391-1.559-1.984-2.519-3.551-2.129     c-1.627,0.404-2.588,2.003-2.199,3.565C545.435,289.909,547.03,290.868,548.663,290.458L548.663,290.458z"/>
<path fill-rule="evenodd" clip-rule="evenodd" fill="none" stroke="#000000" stroke-width="0.504" stroke-miterlimit="2.4142" d="     M537.25,293.092c1.563-0.388,2.521-1.984,2.111-3.617c-0.39-1.561-1.984-2.518-3.548-2.13c-1.629,0.405-2.591,2.003-2.2,3.565     C534.022,292.542,535.616,293.503,537.25,293.092L537.25,293.092z"/>
<path fill-rule="evenodd" clip-rule="evenodd" fill="none" stroke="#000000" stroke-width="0.504" stroke-miterlimit="2.4142" d="     M543.829,295.884c1.564-0.387,2.521-1.986,2.113-3.617c-0.391-1.563-1.986-2.521-3.549-2.13     c-1.629,0.405-2.594,2.001-2.199,3.562C540.601,295.333,542.198,296.292,543.829,295.884L543.829,295.884z"/>
<path fill-rule="evenodd" clip-rule="evenodd" fill="none" stroke="#000000" stroke-width="0.504" stroke-miterlimit="2.4142" d="     M550.55,298.642c1.564-0.389,2.52-1.984,2.113-3.617c-0.389-1.563-1.984-2.519-3.547-2.13c-1.631,0.404-2.59,2.001-2.201,3.563     C547.326,298.092,548.921,299.052,550.55,298.642L550.55,298.642z"/>
<path fill-rule="evenodd" clip-rule="evenodd" fill="none" stroke="#000000" stroke-width="0.504" stroke-miterlimit="2.4142" d="     M539.139,301.277c1.562-0.389,2.522-1.986,2.112-3.619c-0.389-1.561-1.985-2.52-3.551-2.129c-1.627,0.404-2.589,2-2.202,3.564     C535.907,300.726,537.504,301.686,539.139,301.277L539.139,301.277z"/>
</g></switch>
</svg>