<?xml version="1.0" encoding="utf-8"?>
<!DOCTYPE svg PUBLIC "-//W3C//DTD SVG 1.1//EN" "http://www.w3.org/Graphics/SVG/1.1/DTD/svg11.dtd">
<svg version="1.1" id="Armor" xmlns="http://www.w3.org/2000/svg" xmlns:xlink="http://www.w3.org/1999/xlink" x="0px" y="0px"
	 width="612px" height="792px" viewBox="0 0 612 792" enable-background="new 0 0 612 792" xml:space="preserve">
<switch><g>
<path fill="none" stroke="#000000" stroke-width="0.504" stroke-miterlimit="2.4142" d="M425.74,80.696     c-1.663-0.144-2.924-1.649-2.777-3.31c0.15-1.73,1.646-2.926,3.312-2.785c1.719,0.154,3,1.593,2.848,3.324     C428.979,79.583,427.463,80.85,425.74,80.696L425.74,80.696z"/>
<path fill="none" stroke="#000000" stroke-width="0.504" stroke-miterlimit="2.4142" d="M417.375,111.263     c-1.664-0.145-2.924-1.653-2.777-3.314c0.148-1.729,1.646-2.925,3.313-2.777c1.723,0.149,3.004,1.587,2.846,3.323     C420.613,110.147,419.102,111.413,417.375,111.263L417.375,111.263z"/>
<path fill="none" stroke="#000000" stroke-width="0.504" stroke-miterlimit="2.4142" d="M428.673,112.252     c-1.667-0.141-2.926-1.648-2.779-3.311c0.151-1.734,1.646-2.925,3.312-2.782c1.726,0.153,3.003,1.586,2.85,3.32     C431.913,111.143,430.4,112.402,428.673,112.252L428.673,112.252z"/>
<path fill="none" stroke="#000000" stroke-width="0.504" stroke-miterlimit="2.4142" d="M420.305,142.819     c-1.66-0.143-2.92-1.652-2.776-3.313c0.153-1.729,1.649-2.925,3.313-2.778c1.722,0.148,3.003,1.587,2.845,3.317     C423.549,141.706,422.031,142.97,420.305,142.819L420.305,142.819z"/>
<path fill="none" stroke="#000000" stroke-width="0.504" stroke-miterlimit="2.4142" d="M411.941,173.388     c-1.666-0.144-2.927-1.651-2.779-3.31c0.15-1.735,1.65-2.928,3.311-2.781c1.726,0.146,3.002,1.587,2.853,3.319     C415.184,172.276,413.666,173.539,411.941,173.388L411.941,173.388z"/>
<path fill="none" stroke="#000000" stroke-width="0.504" stroke-miterlimit="2.4142" d="M423.236,174.376     c-1.668-0.137-2.927-1.649-2.775-3.311c0.148-1.73,1.643-2.926,3.312-2.776c1.721,0.148,2.993,1.586,2.85,3.316     C426.473,173.263,424.965,174.529,423.236,174.376L423.236,174.376z"/>
</g></switch>
</svg>