<?xml version="1.0" encoding="utf-8"?>
<!DOCTYPE svg PUBLIC "-//W3C//DTD SVG 1.1//EN" "http://www.w3.org/Graphics/SVG/1.1/DTD/svg11.dtd">
<svg version="1.1" id="Armor" xmlns="http://www.w3.org/2000/svg" xmlns:xlink="http://www.w3.org/1999/xlink" x="0px" y="0px"
	 width="612px" height="792px" viewBox="0 0 612 792" enable-background="new 0 0 612 792" xml:space="preserve">
<switch><g>
<path fill-rule="evenodd" clip-rule="evenodd" fill="none" stroke="#000000" stroke-width="0.504" stroke-miterlimit="2.4142" d="     M462.36,190.748c-1.562-0.389-2.521-1.985-2.11-3.616c0.391-1.565,1.98-2.521,3.547-2.133c1.626,0.406,2.586,2.002,2.201,3.564     C465.592,190.194,463.994,191.155,462.36,190.748L462.36,190.748z"/>
<path fill-rule="evenodd" clip-rule="evenodd" fill="none" stroke="#000000" stroke-width="0.504" stroke-miterlimit="2.4142" d="     M454.559,198.5c-1.561-0.384-2.52-1.982-2.114-3.616c0.394-1.558,1.985-2.521,3.548-2.128c1.634,0.402,2.593,2.004,2.204,3.565     C457.788,197.955,456.189,198.915,454.559,198.5L454.559,198.5z"/>
<path fill-rule="evenodd" clip-rule="evenodd" fill="none" stroke="#000000" stroke-width="0.504" stroke-miterlimit="2.4142" d="     M465.971,201.137c-1.56-0.387-2.518-1.982-2.111-3.615c0.39-1.561,1.983-2.524,3.549-2.131c1.63,0.403,2.595,2.004,2.199,3.566     C469.201,200.59,467.606,201.549,465.971,201.137L465.971,201.137z"/>
<path fill-rule="evenodd" clip-rule="evenodd" fill="none" stroke="#000000" stroke-width="0.504" stroke-miterlimit="2.4142" d="     M458.169,208.889c-1.562-0.384-2.521-1.979-2.107-3.609c0.388-1.564,1.983-2.523,3.546-2.132     c1.627,0.401,2.588,2.003,2.195,3.564C461.399,208.345,459.804,209.303,458.169,208.889L458.169,208.889z"/>
<path fill-rule="evenodd" clip-rule="evenodd" fill="none" stroke="#000000" stroke-width="0.504" stroke-miterlimit="2.4142" d="     M450.368,216.647c-1.563-0.388-2.522-1.985-2.114-3.616c0.395-1.564,1.988-2.523,3.549-2.133     c1.634,0.406,2.592,2.003,2.199,3.563C453.603,216.099,452.003,217.057,450.368,216.647L450.368,216.647z"/>
<path fill-rule="evenodd" clip-rule="evenodd" fill="none" stroke="#000000" stroke-width="0.504" stroke-miterlimit="2.4142" d="     M461.785,219.284c-1.566-0.391-2.524-1.987-2.116-3.617c0.392-1.565,1.986-2.524,3.548-2.135     c1.633,0.407,2.593,2.003,2.202,3.563C465.018,218.734,463.417,219.69,461.785,219.284L461.785,219.284z"/>
<path fill-rule="evenodd" clip-rule="evenodd" fill="none" stroke="#000000" stroke-width="0.504" stroke-miterlimit="2.4142" d="     M453.977,227.037c-1.561-0.391-2.516-1.985-2.105-3.614c0.387-1.564,1.984-2.526,3.547-2.135c1.63,0.406,2.588,2.003,2.201,3.562     C457.215,226.49,455.613,227.445,453.977,227.037L453.977,227.037z"/>
<path fill-rule="evenodd" clip-rule="evenodd" fill="none" stroke="#000000" stroke-width="0.504" stroke-miterlimit="2.4142" d="     M446.178,234.793c-1.564-0.391-2.522-1.985-2.112-3.616c0.392-1.565,1.985-2.521,3.546-2.135     c1.632,0.407,2.594,2.006,2.201,3.567C449.407,234.24,447.805,235.204,446.178,234.793L446.178,234.793z"/>
<path fill-rule="evenodd" clip-rule="evenodd" fill="none" stroke="#000000" stroke-width="0.504" stroke-miterlimit="2.4142" d="     M457.596,237.427c-1.564-0.385-2.521-1.983-2.114-3.611c0.392-1.567,1.985-2.525,3.546-2.137c1.631,0.408,2.596,2.009,2.2,3.566     C460.824,236.875,459.224,237.841,457.596,237.427L457.596,237.427z"/>
<path fill-rule="evenodd" clip-rule="evenodd" fill="none" stroke="#000000" stroke-width="0.504" stroke-miterlimit="2.4142" d="     M449.792,245.183c-1.565-0.39-2.519-1.985-2.112-3.617c0.391-1.566,1.986-2.523,3.55-2.132c1.63,0.407,2.588,2.005,2.198,3.566     C453.02,244.63,451.428,245.592,449.792,245.183L449.792,245.183z"/>
<path fill-rule="evenodd" clip-rule="evenodd" fill="none" stroke="#000000" stroke-width="0.504" stroke-miterlimit="2.4142" d="     M441.992,252.938c-1.562-0.388-2.523-1.985-2.115-3.618c0.392-1.565,1.987-2.519,3.552-2.131c1.628,0.404,2.593,2.005,2.2,3.562     C445.227,252.384,443.625,253.345,441.992,252.938L441.992,252.938z"/>
<path fill-rule="evenodd" clip-rule="evenodd" fill="none" stroke="#000000" stroke-width="0.504" stroke-miterlimit="2.4142" d="     M453.405,255.572c-1.563-0.389-2.524-1.986-2.116-3.617c0.392-1.564,1.988-2.519,3.55-2.132c1.632,0.404,2.592,2.005,2.202,3.563     C456.638,255.02,455.037,255.98,453.405,255.572L453.405,255.572z"/>
<path fill-rule="evenodd" clip-rule="evenodd" fill="none" stroke="#000000" stroke-width="0.504" stroke-miterlimit="2.4142" d="     M445.602,263.325c-1.559-0.389-2.514-1.985-2.113-3.616c0.392-1.564,1.99-2.524,3.547-2.131c1.639,0.404,2.597,2.004,2.205,3.562     C448.831,262.776,447.236,263.736,445.602,263.325L445.602,263.325z"/>
<path fill-rule="evenodd" clip-rule="evenodd" fill="none" stroke="#000000" stroke-width="0.504" stroke-miterlimit="2.4142" d="     M437.803,271.082c-1.563-0.389-2.519-1.984-2.116-3.621c0.394-1.558,1.99-2.517,3.554-2.126c1.633,0.405,2.594,2.002,2.202,3.564     C441.031,270.53,439.436,271.491,437.803,271.082L437.803,271.082z"/>
<path fill-rule="evenodd" clip-rule="evenodd" fill="none" stroke="#000000" stroke-width="0.504" stroke-miterlimit="2.4142" d="     M449.215,273.717c-1.563-0.388-2.522-1.984-2.115-3.619c0.391-1.558,1.988-2.518,3.554-2.128c1.63,0.406,2.593,2.003,2.197,3.564     C452.444,273.167,450.851,274.127,449.215,273.717L449.215,273.717z"/>
<path fill-rule="evenodd" clip-rule="evenodd" fill="none" stroke="#000000" stroke-width="0.504" stroke-miterlimit="2.4142" d="     M441.414,281.475c-1.561-0.392-2.523-1.986-2.109-3.622c0.384-1.561,1.979-2.519,3.547-2.131     c1.627,0.405,2.591,2.003,2.203,3.564C444.642,280.919,443.045,281.879,441.414,281.475L441.414,281.475z"/>
<path fill-rule="evenodd" clip-rule="evenodd" fill="none" stroke="#000000" stroke-width="0.504" stroke-miterlimit="2.4142" d="     M433.611,289.227c-1.562-0.386-2.521-1.985-2.113-3.62c0.394-1.558,1.987-2.515,3.554-2.128c1.624,0.404,2.59,1.998,2.196,3.563     C436.842,288.677,435.244,289.636,433.611,289.227L433.611,289.227z"/>
<path fill-rule="evenodd" clip-rule="evenodd" fill="none" stroke="#000000" stroke-width="0.504" stroke-miterlimit="2.4142" d="     M445.027,291.862c-1.564-0.386-2.523-1.985-2.115-3.619c0.39-1.559,1.988-2.518,3.549-2.13c1.629,0.408,2.593,2.001,2.201,3.565     C448.256,291.312,446.656,292.272,445.027,291.862L445.027,291.862z"/>
<path fill-rule="evenodd" clip-rule="evenodd" fill="none" stroke="#000000" stroke-width="0.504" stroke-miterlimit="2.4142" d="     M437.226,299.619c-1.562-0.391-2.524-1.986-2.109-3.621c0.384-1.562,1.979-2.519,3.547-2.132c1.627,0.406,2.59,2.004,2.203,3.564     C440.453,299.063,438.855,300.023,437.226,299.619L437.226,299.619z"/>
</g></switch>
</svg>