<?xml version="1.0" encoding="utf-8"?>
<!DOCTYPE svg PUBLIC "-//W3C//DTD SVG 1.1//EN" "http://www.w3.org/Graphics/SVG/1.1/DTD/svg11.dtd">
<svg version="1.1" id="Armor" xmlns="http://www.w3.org/2000/svg" xmlns:xlink="http://www.w3.org/1999/xlink" x="0px" y="0px"
	 width="612px" height="792px" viewBox="0 0 612 792" enable-background="new 0 0 612 792" xml:space="preserve">
<switch><g>
<path fill-rule="evenodd" clip-rule="evenodd" fill="none" stroke="#000000" stroke-width="0.504" stroke-miterlimit="2.4142" d="     M456.479,189.187c-1.562-0.385-2.521-1.982-2.115-3.617c0.395-1.557,1.985-2.52,3.549-2.127c1.635,0.402,2.592,2.004,2.204,3.565     C459.708,188.643,458.109,189.602,456.479,189.187L456.479,189.187z"/>
<path fill-rule="evenodd" clip-rule="evenodd" fill="none" stroke="#000000" stroke-width="0.504" stroke-miterlimit="2.4142" d="     M467.891,191.825c-1.561-0.388-2.519-1.982-2.112-3.616c0.39-1.561,1.983-2.525,3.549-2.131c1.631,0.402,2.597,2.004,2.2,3.566     C471.121,191.277,469.527,192.236,467.891,191.825L467.891,191.825z"/>
<path fill-rule="evenodd" clip-rule="evenodd" fill="none" stroke="#000000" stroke-width="0.504" stroke-miterlimit="2.4142" d="     M459.669,201.39c-1.563-0.384-2.521-1.979-2.106-3.609c0.387-1.565,1.984-2.522,3.546-2.132c1.625,0.4,2.587,2.002,2.194,3.564     C462.9,200.847,461.304,201.804,459.669,201.39L459.669,201.39z"/>
<path fill-rule="evenodd" clip-rule="evenodd" fill="none" stroke="#000000" stroke-width="0.504" stroke-miterlimit="2.4142" d="     M451.449,210.964c-1.563-0.389-2.521-1.985-2.113-3.615c0.395-1.565,1.988-2.525,3.548-2.134c1.636,0.405,2.592,2.002,2.2,3.562     C454.684,210.415,453.085,211.372,451.449,210.964L451.449,210.964z"/>
<path fill-rule="evenodd" clip-rule="evenodd" fill="none" stroke="#000000" stroke-width="0.504" stroke-miterlimit="2.4142" d="     M462.865,213.602c-1.565-0.39-2.523-1.986-2.115-3.617c0.392-1.566,1.986-2.523,3.547-2.135c1.634,0.406,2.594,2.003,2.204,3.564     C466.099,213.051,464.5,214.008,462.865,213.602L462.865,213.602z"/>
<path fill-rule="evenodd" clip-rule="evenodd" fill="none" stroke="#000000" stroke-width="0.504" stroke-miterlimit="2.4142" d="     M454.638,223.168c-1.56-0.39-2.515-1.985-2.104-3.613c0.387-1.564,1.984-2.527,3.547-2.136c1.629,0.407,2.588,2.004,2.203,3.561     C457.877,222.621,456.275,223.576,454.638,223.168L454.638,223.168z"/>
<path fill-rule="evenodd" clip-rule="evenodd" fill="none" stroke="#000000" stroke-width="0.504" stroke-miterlimit="2.4142" d="     M446.42,232.738c-1.563-0.39-2.521-1.983-2.111-3.615c0.392-1.566,1.985-2.522,3.545-2.135c1.635,0.407,2.595,2.005,2.203,3.567     C449.65,232.186,448.049,233.15,446.42,232.738L446.42,232.738z"/>
<path fill-rule="evenodd" clip-rule="evenodd" fill="none" stroke="#000000" stroke-width="0.504" stroke-miterlimit="2.4142" d="     M457.84,235.373c-1.566-0.384-2.522-1.982-2.116-3.61c0.393-1.567,1.985-2.525,3.546-2.137c1.631,0.408,2.597,2.009,2.201,3.566     C461.067,234.822,459.467,235.788,457.84,235.373L457.84,235.373z"/>
<path fill-rule="evenodd" clip-rule="evenodd" fill="none" stroke="#000000" stroke-width="0.504" stroke-miterlimit="2.4142" d="     M449.616,244.942c-1.565-0.388-2.519-1.984-2.111-3.616c0.389-1.566,1.985-2.523,3.549-2.131c1.63,0.407,2.588,2.004,2.198,3.566     C452.844,244.392,451.252,245.354,449.616,244.942L449.616,244.942z"/>
<path fill-rule="evenodd" clip-rule="evenodd" fill="none" stroke="#000000" stroke-width="0.504" stroke-miterlimit="2.4142" d="     M441.397,254.514c-1.562-0.389-2.522-1.984-2.116-3.617c0.393-1.565,1.988-2.521,3.554-2.132     c1.627,0.405,2.592,2.004,2.198,3.563C444.631,253.96,443.03,254.92,441.397,254.514L441.397,254.514z"/>
<path fill-rule="evenodd" clip-rule="evenodd" fill="none" stroke="#000000" stroke-width="0.504" stroke-miterlimit="2.4142" d="     M452.811,257.149c-1.563-0.39-2.523-1.987-2.115-3.619c0.391-1.563,1.986-2.519,3.55-2.131c1.631,0.404,2.591,2.005,2.2,3.563     C456.045,256.596,454.442,257.557,452.811,257.149L452.811,257.149z"/>
<path fill-rule="evenodd" clip-rule="evenodd" fill="none" stroke="#000000" stroke-width="0.504" stroke-miterlimit="2.4142" d="     M444.587,266.717c-1.558-0.389-2.512-1.985-2.112-3.616c0.393-1.564,1.99-2.524,3.547-2.131c1.639,0.403,2.597,2.004,2.205,3.562     C447.817,266.167,446.223,267.128,444.587,266.717L444.587,266.717z"/>
<path fill-rule="evenodd" clip-rule="evenodd" fill="none" stroke="#000000" stroke-width="0.504" stroke-miterlimit="2.4142" d="     M436.369,276.288c-1.561-0.389-2.519-1.985-2.116-3.621c0.395-1.558,1.99-2.517,3.555-2.127c1.633,0.406,2.594,2.002,2.202,3.565     C439.599,275.736,438.002,276.697,436.369,276.288L436.369,276.288z"/>
<path fill-rule="evenodd" clip-rule="evenodd" fill="none" stroke="#000000" stroke-width="0.504" stroke-miterlimit="2.4142" d="     M447.782,278.922c-1.563-0.388-2.522-1.984-2.115-3.618c0.391-1.558,1.988-2.518,3.556-2.128     c1.627,0.405,2.591,2.003,2.195,3.563C451.014,278.371,449.417,279.332,447.782,278.922L447.782,278.922z"/>
<path fill-rule="evenodd" clip-rule="evenodd" fill="none" stroke="#000000" stroke-width="0.504" stroke-miterlimit="2.4142" d="     M439.563,288.495c-1.561-0.392-2.523-1.986-2.109-3.621c0.385-1.562,1.978-2.52,3.547-2.131c1.627,0.404,2.59,2.002,2.203,3.563     C442.79,287.939,441.193,288.9,439.563,288.495L439.563,288.495z"/>
<path fill-rule="evenodd" clip-rule="evenodd" fill="none" stroke="#000000" stroke-width="0.504" stroke-miterlimit="2.4142" d="     M431.34,298.063c-1.562-0.387-2.521-1.986-2.112-3.622c0.394-1.557,1.987-2.514,3.555-2.127c1.622,0.404,2.589,1.998,2.194,3.563     C434.57,297.514,432.973,298.473,431.34,298.063L431.34,298.063z"/>
<path fill-rule="evenodd" clip-rule="evenodd" fill="none" stroke="#000000" stroke-width="0.504" stroke-miterlimit="2.4142" d="     M442.757,300.697c-1.564-0.384-2.524-1.983-2.115-3.617c0.391-1.561,1.988-2.519,3.549-2.132c1.629,0.41,2.593,2.001,2.202,3.566     C445.984,300.146,444.385,301.107,442.757,300.697L442.757,300.697z"/>
</g></switch>
</svg>