<?xml version="1.0" encoding="utf-8"?>
<!DOCTYPE svg PUBLIC "-//W3C//DTD SVG 1.1//EN" "http://www.w3.org/Graphics/SVG/1.1/DTD/svg11.dtd">
<svg version="1.1" id="Armor" xmlns="http://www.w3.org/2000/svg" xmlns:xlink="http://www.w3.org/1999/xlink" x="0px" y="0px"
	 width="612px" height="792px" viewBox="0 0 612 792" enable-background="new 0 0 612 792" xml:space="preserve">
<switch><g>
<path fill-rule="evenodd" clip-rule="evenodd" fill="none" stroke="#000000" stroke-width="0.504" stroke-miterlimit="2.4142" d="     M525.374,189.798c1.561-0.389,2.525-1.988,2.118-3.619c-0.39-1.561-1.991-2.521-3.554-2.133c-1.627,0.407-2.59,2.006-2.199,3.566     C522.147,189.244,523.745,190.204,525.374,189.798L525.374,189.798z"/>
<path fill-rule="evenodd" clip-rule="evenodd" fill="none" stroke="#000000" stroke-width="0.504" stroke-miterlimit="2.4142" d="     M513.958,192.433c1.561-0.389,2.527-1.988,2.117-3.619c-0.387-1.561-1.99-2.521-3.552-2.132c-1.627,0.406-2.589,2.006-2.2,3.565     C510.731,191.88,512.331,192.84,513.958,192.433L513.958,192.433z"/>
<path fill-rule="evenodd" clip-rule="evenodd" fill="none" stroke="#000000" stroke-width="0.504" stroke-miterlimit="2.4142" d="     M521.237,197.92c1.558-0.39,2.525-1.987,2.117-3.622c-0.393-1.561-1.988-2.52-3.553-2.129c-1.625,0.404-2.588,2.004-2.199,3.563     C518.013,197.367,519.61,198.325,521.237,197.92L521.237,197.92z"/>
<path fill-rule="evenodd" clip-rule="evenodd" fill="none" stroke="#000000" stroke-width="0.504" stroke-miterlimit="2.4142" d="     M528.521,203.404c1.564-0.389,2.518-1.984,2.111-3.619c-0.387-1.562-1.988-2.518-3.553-2.129     c-1.623,0.409-2.584,2.004-2.194,3.563C525.285,202.854,526.888,203.814,528.521,203.404L528.521,203.404z"/>
<path fill-rule="evenodd" clip-rule="evenodd" fill="none" stroke="#000000" stroke-width="0.504" stroke-miterlimit="2.4142" d="     M517.106,206.04c1.563-0.389,2.516-1.983,2.111-3.618c-0.389-1.563-1.989-2.518-3.553-2.131     c-1.625,0.409-2.586,2.005-2.195,3.563C513.871,205.49,515.472,206.45,517.106,206.04L517.106,206.04z"/>
<path fill-rule="evenodd" clip-rule="evenodd" fill="none" stroke="#000000" stroke-width="0.504" stroke-miterlimit="2.4142" d="     M524.381,211.529c1.565-0.393,2.522-1.985,2.112-3.622c-0.391-1.558-1.984-2.518-3.549-2.131     c-1.623,0.409-2.588,2.005-2.201,3.564C521.147,210.978,522.747,211.932,524.381,211.529L524.381,211.529z"/>
<path fill-rule="evenodd" clip-rule="evenodd" fill="none" stroke="#000000" stroke-width="0.504" stroke-miterlimit="2.4142" d="     M531.654,217.015c1.563-0.39,2.521-1.984,2.119-3.619c-0.392-1.562-1.986-2.518-3.546-2.132     c-1.635,0.409-2.594,2.001-2.203,3.564C528.429,216.463,530.026,217.422,531.654,217.015L531.654,217.015z"/>
<path fill-rule="evenodd" clip-rule="evenodd" fill="none" stroke="#000000" stroke-width="0.504" stroke-miterlimit="2.4142" d="     M520.241,219.65c1.563-0.391,2.52-1.985,2.119-3.621c-0.393-1.562-1.986-2.518-3.549-2.131c-1.631,0.41-2.592,2.001-2.201,3.565     C517.015,219.097,518.612,220.057,520.241,219.65L520.241,219.65z"/>
<path fill-rule="evenodd" clip-rule="evenodd" fill="none" stroke="#000000" stroke-width="0.504" stroke-miterlimit="2.4142" d="     M527.522,225.137c1.563-0.39,2.519-1.987,2.113-3.617c-0.395-1.564-1.984-2.521-3.549-2.133     c-1.627,0.406-2.588,2.002-2.199,3.564C524.292,224.583,525.89,225.543,527.522,225.137L527.522,225.137z"/>
<path fill-rule="evenodd" clip-rule="evenodd" fill="none" stroke="#000000" stroke-width="0.504" stroke-miterlimit="2.4142" d="     M534.806,230.621c1.557-0.385,2.52-1.982,2.109-3.615c-0.39-1.562-1.982-2.523-3.547-2.132c-1.629,0.405-2.592,2.005-2.201,3.566     C531.575,230.074,533.17,231.033,534.806,230.621L534.806,230.621z"/>
<path fill-rule="evenodd" clip-rule="evenodd" fill="none" stroke="#000000" stroke-width="0.504" stroke-miterlimit="2.4142" d="     M523.39,233.256c1.559-0.386,2.518-1.982,2.111-3.615c-0.391-1.561-1.984-2.523-3.549-2.131     c-1.631,0.404-2.592,2.005-2.201,3.565C520.157,232.709,521.755,233.669,523.39,233.256L523.39,233.256z"/>
<path fill-rule="evenodd" clip-rule="evenodd" fill="none" stroke="#000000" stroke-width="0.504" stroke-miterlimit="2.4142" d="     M530.667,238.742c1.564-0.385,2.52-1.981,2.109-3.612c-0.389-1.563-1.982-2.523-3.546-2.133c-1.63,0.404-2.59,2.005-2.197,3.566     C527.437,238.196,529.034,239.155,530.667,238.742L530.667,238.742z"/>
<path fill-rule="evenodd" clip-rule="evenodd" fill="none" stroke="#000000" stroke-width="0.504" stroke-miterlimit="2.4142" d="     M537.944,244.231c1.563-0.391,2.521-1.986,2.113-3.619c-0.393-1.563-1.986-2.521-3.549-2.131     c-1.631,0.405-2.591,2.004-2.199,3.564C534.714,243.679,536.31,244.64,537.944,244.231L537.944,244.231z"/>
<path fill-rule="evenodd" clip-rule="evenodd" fill="none" stroke="#000000" stroke-width="0.504" stroke-miterlimit="2.4142" d="     M526.529,246.866c1.563-0.39,2.522-1.986,2.114-3.616c-0.393-1.566-1.986-2.525-3.549-2.133c-1.633,0.404-2.592,2.003-2.2,3.563     C523.298,246.315,524.896,247.274,526.529,246.866L526.529,246.866z"/>
<path fill-rule="evenodd" clip-rule="evenodd" fill="none" stroke="#000000" stroke-width="0.504" stroke-miterlimit="2.4142" d="     M533.812,252.353c1.561-0.391,2.514-1.984,2.107-3.614c-0.389-1.563-1.984-2.525-3.547-2.134     c-1.633,0.406-2.59,2.003-2.201,3.563C530.575,251.805,532.177,252.762,533.812,252.353L533.812,252.353z"/>
<path fill-rule="evenodd" clip-rule="evenodd" fill="none" stroke="#000000" stroke-width="0.504" stroke-miterlimit="2.4142" d="     M541.089,257.839c1.562-0.386,2.519-1.983,2.111-3.615c-0.393-1.564-1.986-2.521-3.547-2.133     c-1.631,0.408-2.594,2.004-2.199,3.564C537.858,257.288,539.458,258.25,541.089,257.839L541.089,257.839z"/>
<path fill-rule="evenodd" clip-rule="evenodd" fill="none" stroke="#000000" stroke-width="0.504" stroke-miterlimit="2.4142" d="     M529.672,260.475c1.562-0.387,2.521-1.983,2.11-3.614c-0.391-1.565-1.984-2.522-3.545-2.134c-1.631,0.407-2.594,2.005-2.2,3.566     C526.442,259.925,528.042,260.886,529.672,260.475L529.672,260.475z"/>
<path fill-rule="evenodd" clip-rule="evenodd" fill="none" stroke="#000000" stroke-width="0.504" stroke-miterlimit="2.4142" d="     M536.951,265.962c1.564-0.389,2.515-1.982,2.11-3.617c-0.391-1.564-1.986-2.521-3.548-2.132c-1.633,0.407-2.589,2.005-2.2,3.565     C533.724,265.41,535.315,266.37,536.951,265.962L536.951,265.962z"/>
<path fill-rule="evenodd" clip-rule="evenodd" fill="none" stroke="#000000" stroke-width="0.504" stroke-miterlimit="2.4142" d="     M544.229,271.448c1.562-0.387,2.521-1.984,2.112-3.617c-0.39-1.565-1.985-2.519-3.55-2.132c-1.629,0.405-2.591,2.005-2.201,3.563     C540.995,270.896,542.596,271.856,544.229,271.448L544.229,271.448z"/>
<path fill-rule="evenodd" clip-rule="evenodd" fill="none" stroke="#000000" stroke-width="0.504" stroke-miterlimit="2.4142" d="     M532.813,274.084c1.563-0.388,2.523-1.986,2.115-3.617c-0.393-1.565-1.988-2.519-3.551-2.132     c-1.63,0.403-2.592,2.005-2.201,3.563C529.581,273.531,531.181,274.492,532.813,274.084L532.813,274.084z"/>
<path fill-rule="evenodd" clip-rule="evenodd" fill="none" stroke="#000000" stroke-width="0.504" stroke-miterlimit="2.4142" d="     M540.093,279.57c1.562-0.388,2.516-1.985,2.112-3.616c-0.391-1.564-1.989-2.522-3.548-2.132     c-1.635,0.406-2.594,2.005-2.203,3.563C536.862,279.021,538.458,279.98,540.093,279.57L540.093,279.57z"/>
<path fill-rule="evenodd" clip-rule="evenodd" fill="none" stroke="#000000" stroke-width="0.504" stroke-miterlimit="2.4142" d="     M547.369,285.057c1.563-0.387,2.522-1.984,2.113-3.618c-0.39-1.561-1.987-2.519-3.551-2.128c-1.632,0.405-2.592,2.003-2.2,3.563     C544.138,284.506,545.734,285.467,547.369,285.057L547.369,285.057z"/>
<path fill-rule="evenodd" clip-rule="evenodd" fill="none" stroke="#000000" stroke-width="0.504" stroke-miterlimit="2.4142" d="     M535.956,287.692c1.563-0.387,2.522-1.984,2.115-3.619c-0.391-1.559-1.988-2.517-3.553-2.128     c-1.63,0.406-2.592,2.003-2.199,3.565C532.728,287.143,534.322,288.103,535.956,287.692L535.956,287.692z"/>
<path fill-rule="evenodd" clip-rule="evenodd" fill="none" stroke="#000000" stroke-width="0.504" stroke-miterlimit="2.4142" d="     M543.231,293.183c1.564-0.39,2.525-1.986,2.114-3.62c-0.388-1.562-1.983-2.519-3.55-2.133c-1.627,0.407-2.592,2.007-2.202,3.565     C540.006,292.629,541.602,293.589,543.231,293.183L543.231,293.183z"/>
<path fill-rule="evenodd" clip-rule="evenodd" fill="none" stroke="#000000" stroke-width="0.504" stroke-miterlimit="2.4142" d="     M550.511,298.667c1.563-0.388,2.521-1.988,2.113-3.621c-0.389-1.56-1.986-2.516-3.548-2.128c-1.63,0.406-2.595,2-2.2,3.563     C547.282,298.116,548.878,299.076,550.511,298.667L550.511,298.667z"/>
<path fill-rule="evenodd" clip-rule="evenodd" fill="none" stroke="#000000" stroke-width="0.504" stroke-miterlimit="2.4142" d="     M539.098,301.302c1.563-0.387,2.522-1.988,2.114-3.62c-0.391-1.559-1.986-2.517-3.551-2.129c-1.627,0.406-2.592,2-2.199,3.563     C535.868,300.751,537.466,301.711,539.098,301.302L539.098,301.302z"/>
</g></switch>
</svg>