<?xml version="1.0" encoding="utf-8"?>
<!DOCTYPE svg PUBLIC "-//W3C//DTD SVG 1.1//EN" "http://www.w3.org/Graphics/SVG/1.1/DTD/svg11.dtd">
<svg version="1.1" id="Armor" xmlns="http://www.w3.org/2000/svg" xmlns:xlink="http://www.w3.org/1999/xlink" x="0px" y="0px"
	 width="612px" height="792px" viewBox="0 0 612 792" enable-background="new 0 0 612 792" xml:space="preserve">
<switch><g>
<path fill="none" stroke="#000000" stroke-width="0.504" stroke-miterlimit="2.4142" d="M420.217,80.427     c-1.664-0.145-2.928-1.651-2.778-3.313c0.149-1.73,1.646-2.924,3.312-2.779c1.729,0.151,3.003,1.588,2.85,3.319     C423.453,79.315,421.943,80.578,420.217,80.427L420.217,80.427z"/>
<path fill="none" stroke="#000000" stroke-width="0.504" stroke-miterlimit="2.4142" d="M431.512,81.417     c-1.664-0.146-2.93-1.653-2.78-3.313c0.149-1.73,1.646-2.923,3.313-2.78c1.729,0.151,3,1.59,2.845,3.321     C434.744,80.305,433.24,81.566,431.512,81.417L431.512,81.417z"/>
<path fill="none" stroke="#000000" stroke-width="0.504" stroke-miterlimit="2.4142" d="M425.46,85.58     c-1.667-0.144-2.931-1.652-2.783-3.312c0.147-1.732,1.651-2.925,3.311-2.778c1.731,0.15,2.998,1.585,2.852,3.318     C428.688,84.468,427.188,85.731,425.46,85.58L425.46,85.58z"/>
<path fill="none" stroke="#000000" stroke-width="0.504" stroke-miterlimit="2.4142" d="M419.4,89.746     c-1.662-0.145-2.929-1.651-2.779-3.313c0.152-1.73,1.646-2.924,3.313-2.779c1.729,0.151,3.002,1.588,2.851,3.319     C422.639,88.633,421.127,89.896,419.4,89.746L419.4,89.746z"/>
<path fill="none" stroke="#000000" stroke-width="0.504" stroke-miterlimit="2.4142" d="M430.697,90.735     c-1.664-0.146-2.933-1.653-2.781-3.313c0.15-1.73,1.646-2.923,3.313-2.78c1.73,0.151,3,1.59,2.846,3.321     C433.93,89.624,432.424,90.884,430.697,90.735L430.697,90.735z"/>
<path fill="none" stroke="#000000" stroke-width="0.504" stroke-miterlimit="2.4142" d="M424.644,94.898     c-1.665-0.143-2.929-1.65-2.783-3.311c0.149-1.73,1.65-2.927,3.311-2.779c1.732,0.149,3.002,1.586,2.853,3.318     C427.875,93.786,426.372,95.05,424.644,94.898L424.644,94.898z"/>
<path fill="none" stroke="#000000" stroke-width="0.504" stroke-miterlimit="2.4142" d="M418.589,99.063     c-1.665-0.144-2.931-1.652-2.784-3.311c0.15-1.73,1.65-2.926,3.313-2.779c1.729,0.15,3.003,1.587,2.852,3.318     C421.822,97.952,420.314,99.215,418.589,99.063L418.589,99.063z"/>
<path fill="none" stroke="#000000" stroke-width="0.504" stroke-miterlimit="2.4142" d="M429.884,100.052     c-1.663-0.144-2.931-1.652-2.786-3.312c0.148-1.73,1.656-2.926,3.318-2.779c1.73,0.149,2.996,1.587,2.846,3.32     C433.115,98.94,431.611,100.203,429.884,100.052L429.884,100.052z"/>
<path fill="none" stroke="#000000" stroke-width="0.504" stroke-miterlimit="2.4142" d="M423.826,104.219     c-1.666-0.146-2.924-1.654-2.781-3.311c0.153-1.732,1.65-2.927,3.314-2.784c1.729,0.153,2.997,1.591,2.846,3.321     C427.063,103.105,425.551,104.37,423.826,104.219L423.826,104.219z"/>
<path fill="none" stroke="#000000" stroke-width="0.504" stroke-miterlimit="2.4142" d="M417.77,108.382     c-1.661-0.143-2.921-1.65-2.778-3.311c0.151-1.729,1.649-2.924,3.313-2.78c1.728,0.15,3,1.589,2.85,3.319     C421.009,107.27,419.5,108.537,417.77,108.382L417.77,108.382z"/>
<path fill="none" stroke="#000000" stroke-width="0.504" stroke-miterlimit="2.4142" d="M429.064,109.372     c-1.66-0.145-2.926-1.65-2.783-3.312c0.156-1.731,1.653-2.925,3.317-2.78c1.729,0.151,2.999,1.588,2.847,3.32     C432.302,108.258,430.795,109.524,429.064,109.372L429.064,109.372z"/>
<path fill="none" stroke="#000000" stroke-width="0.504" stroke-miterlimit="2.4142" d="M423.008,113.537     c-1.662-0.147-2.922-1.653-2.776-3.312c0.153-1.73,1.65-2.926,3.313-2.781c1.731,0.152,2.996,1.59,2.846,3.32     C426.24,112.422,424.74,113.688,423.008,113.537L423.008,113.537z"/>
<path fill="none" stroke="#000000" stroke-width="0.504" stroke-miterlimit="2.4142" d="M416.953,117.701     c-1.662-0.145-2.921-1.651-2.779-3.313c0.152-1.73,1.652-2.924,3.314-2.778c1.729,0.152,3.001,1.587,2.848,3.319     C420.19,116.589,418.686,117.852,416.953,117.701L416.953,117.701z"/>
<path fill="none" stroke="#000000" stroke-width="0.504" stroke-miterlimit="2.4142" d="M428.25,118.69     c-1.66-0.144-2.925-1.651-2.781-3.311c0.149-1.73,1.654-2.926,3.318-2.781c1.729,0.153,2.996,1.59,2.84,3.321     C431.482,117.58,429.98,118.843,428.25,118.69L428.25,118.69z"/>
<path fill="none" stroke="#000000" stroke-width="0.504" stroke-miterlimit="2.4142" d="M422.195,122.854     c-1.662-0.145-2.926-1.651-2.781-3.311c0.154-1.73,1.648-2.925,3.313-2.78c1.729,0.151,2.996,1.588,2.847,3.32     C425.431,121.743,423.922,123.005,422.195,122.854L422.195,122.854z"/>
<path fill="none" stroke="#000000" stroke-width="0.504" stroke-miterlimit="2.4142" d="M416.141,127.02     c-1.659-0.146-2.926-1.651-2.781-3.312c0.154-1.732,1.647-2.927,3.313-2.781c1.729,0.151,3.002,1.588,2.848,3.318     C419.379,125.908,417.868,127.172,416.141,127.02L416.141,127.02z"/>
<path fill="none" stroke="#000000" stroke-width="0.504" stroke-miterlimit="2.4142" d="M427.436,128.008     c-1.659-0.146-2.929-1.651-2.786-3.314c0.157-1.73,1.653-2.924,3.317-2.777c1.73,0.152,2.998,1.586,2.849,3.319     C430.672,126.896,429.166,128.16,427.436,128.008L427.436,128.008z"/>
<path fill="none" stroke="#000000" stroke-width="0.504" stroke-miterlimit="2.4142" d="M421.381,132.174     c-1.664-0.146-2.925-1.651-2.779-3.313c0.15-1.73,1.648-2.926,3.314-2.782c1.727,0.152,2.995,1.589,2.842,3.323     C424.615,131.062,423.111,132.326,421.381,132.174L421.381,132.174z"/>
<path fill="none" stroke="#000000" stroke-width="0.504" stroke-miterlimit="2.4142" d="M415.324,136.339     c-1.664-0.146-2.924-1.652-2.777-3.312c0.148-1.733,1.65-2.927,3.313-2.782c1.727,0.151,2.998,1.588,2.848,3.322     C418.563,135.226,417.055,136.491,415.324,136.339L415.324,136.339z"/>
<path fill="none" stroke="#000000" stroke-width="0.504" stroke-miterlimit="2.4142" d="M426.619,137.327     c-1.662-0.143-2.928-1.649-2.783-3.31c0.151-1.73,1.656-2.925,3.318-2.782c1.727,0.152,2.994,1.589,2.842,3.324     C429.855,136.217,428.35,137.479,426.619,137.327L426.619,137.327z"/>
<path fill="none" stroke="#000000" stroke-width="0.504" stroke-miterlimit="2.4142" d="M420.565,141.491     c-1.666-0.143-2.928-1.649-2.777-3.309c0.146-1.732,1.646-2.927,3.311-2.782c1.729,0.151,2.997,1.589,2.842,3.322     C423.799,140.381,422.293,141.643,420.565,141.491L420.565,141.491z"/>
<path fill="none" stroke="#000000" stroke-width="0.504" stroke-miterlimit="2.4142" d="M414.512,145.657     c-1.666-0.144-2.928-1.65-2.783-3.311c0.154-1.732,1.648-2.926,3.314-2.781c1.729,0.151,3,1.589,2.848,3.322     C417.746,144.544,416.236,145.807,414.512,145.657L414.512,145.657z"/>
<path fill="none" stroke="#000000" stroke-width="0.504" stroke-miterlimit="2.4142" d="M425.807,146.645     c-1.664-0.144-2.93-1.652-2.784-3.312c0.153-1.731,1.653-2.925,3.315-2.78c1.732,0.152,3,1.589,2.844,3.319     C429.043,145.533,427.535,146.795,425.807,146.645L425.807,146.645z"/>
<path fill="none" stroke="#000000" stroke-width="0.504" stroke-miterlimit="2.4142" d="M419.75,150.809     c-1.661-0.145-2.924-1.65-2.781-3.311c0.154-1.731,1.65-2.926,3.313-2.779c1.729,0.15,3,1.586,2.844,3.319     C422.984,149.696,421.48,150.96,419.75,150.809L419.75,150.809z"/>
<path fill="none" stroke="#000000" stroke-width="0.504" stroke-miterlimit="2.4142" d="M413.693,154.975     c-1.66-0.144-2.921-1.652-2.777-3.312c0.15-1.732,1.652-2.924,3.313-2.78c1.728,0.152,3,1.588,2.847,3.32     C416.934,153.863,415.426,155.127,413.693,154.975L413.693,154.975z"/>
<path fill="none" stroke="#000000" stroke-width="0.504" stroke-miterlimit="2.4142" d="M424.988,155.963     c-1.66-0.142-2.926-1.65-2.781-3.311c0.148-1.732,1.656-2.925,3.316-2.78c1.729,0.151,2.993,1.587,2.844,3.32     C428.224,154.852,426.721,156.117,424.988,155.963L424.988,155.963z"/>
<path fill="none" stroke="#000000" stroke-width="0.504" stroke-miterlimit="2.4142" d="M418.934,160.128     c-1.664-0.145-2.922-1.653-2.777-3.312c0.15-1.733,1.65-2.924,3.313-2.779c1.728,0.15,2.996,1.586,2.842,3.318     C422.17,159.015,420.664,160.28,418.934,160.128L418.934,160.128z"/>
<path fill="none" stroke="#000000" stroke-width="0.504" stroke-miterlimit="2.4142" d="M412.878,164.292     c-1.662-0.144-2.922-1.651-2.776-3.31c0.149-1.732,1.65-2.924,3.313-2.779c1.725,0.149,2.999,1.586,2.848,3.319     C416.117,163.181,414.609,164.446,412.878,164.292L412.878,164.292z"/>
<path fill="none" stroke="#000000" stroke-width="0.504" stroke-miterlimit="2.4142" d="M424.173,165.281     c-1.661-0.142-2.926-1.651-2.78-3.313c0.148-1.729,1.654-2.923,3.316-2.777c1.727,0.151,2.993,1.587,2.842,3.318     C427.41,164.169,425.904,165.434,424.173,165.281L424.173,165.281z"/>
<path fill="none" stroke="#000000" stroke-width="0.504" stroke-miterlimit="2.4142" d="M418.119,169.447     c-1.664-0.145-2.922-1.65-2.78-3.31c0.153-1.734,1.651-2.924,3.314-2.781c1.726,0.152,2.995,1.587,2.841,3.322     C421.354,168.336,419.85,169.599,418.119,169.447L418.119,169.447z"/>
<path fill="none" stroke="#000000" stroke-width="0.504" stroke-miterlimit="2.4142" d="M412.063,173.612     c-1.662-0.145-2.922-1.652-2.775-3.311c0.148-1.733,1.65-2.925,3.312-2.78c1.728,0.151,3,1.586,2.85,3.319     C415.302,172.5,413.795,173.764,412.063,173.612L412.063,173.612z"/>
<path fill="none" stroke="#000000" stroke-width="0.504" stroke-miterlimit="2.4142" d="M423.357,174.6     c-1.66-0.144-2.927-1.652-2.779-3.312c0.146-1.732,1.654-2.925,3.313-2.778c1.729,0.15,2.994,1.586,2.846,3.318     C426.596,173.487,425.09,174.752,423.357,174.6L423.357,174.6z"/>
</g></switch>
</svg>