<?xml version="1.0" encoding="utf-8"?>
<!DOCTYPE svg PUBLIC "-//W3C//DTD SVG 1.1//EN" "http://www.w3.org/Graphics/SVG/1.1/DTD/svg11.dtd">
<svg version="1.1" id="Armor" xmlns="http://www.w3.org/2000/svg" xmlns:xlink="http://www.w3.org/1999/xlink" x="0px" y="0px"
	 width="612px" height="792px" viewBox="0 0 612 792" enable-background="new 0 0 612 792" xml:space="preserve">
<switch><g>
<path fill="none" stroke="#000000" stroke-width="0.504" stroke-miterlimit="2.4142" d="M514.885,91.841      c1.317,0,2.414-1.098,2.414-2.415c0-1.317-1.097-2.414-2.414-2.414c-1.315,0-2.415,1.097-2.415,2.414      C512.47,90.743,513.568,91.841,514.885,91.841L514.885,91.841z"/>
<path fill="none" stroke="#000000" stroke-width="0.504" stroke-miterlimit="2.4142" d="M525.932,91.841      c1.321,0,2.417-1.098,2.417-2.415c0-1.317-1.096-2.414-2.417-2.414c-1.315,0-2.412,1.097-2.412,2.414      C523.52,90.743,524.615,91.841,525.932,91.841L525.932,91.841z"/>
<path fill="none" stroke="#000000" stroke-width="0.504" stroke-miterlimit="2.4142" d="M536.981,91.841      c1.32,0,2.417-1.098,2.417-2.415c0-1.317-1.097-2.414-2.417-2.414c-1.316,0-2.412,1.097-2.412,2.414      C534.569,90.743,535.665,91.841,536.981,91.841L536.981,91.841z"/>
<path fill="none" stroke="#000000" stroke-width="0.504" stroke-miterlimit="2.4142" d="M520.406,97.274      c1.322,0,2.418-1.098,2.418-2.415s-1.096-2.414-2.418-2.414c-1.316,0-2.412,1.097-2.412,2.414S519.09,97.274,520.406,97.274      L520.406,97.274z"/>
<path fill="none" stroke="#000000" stroke-width="0.504" stroke-miterlimit="2.4142" d="M531.457,97.274      c1.32,0,2.416-1.098,2.416-2.415s-1.096-2.414-2.416-2.414c-1.316,0-2.412,1.097-2.412,2.414S530.141,97.274,531.457,97.274      L531.457,97.274z"/>
<path fill="none" stroke="#000000" stroke-width="0.504" stroke-miterlimit="2.4142" d="M514.885,102.708      c1.317,0,2.414-1.098,2.414-2.415s-1.097-2.414-2.414-2.414c-1.315,0-2.415,1.097-2.415,2.414S513.568,102.708,514.885,102.708      L514.885,102.708z"/>
<path fill="none" stroke="#000000" stroke-width="0.504" stroke-miterlimit="2.4142" d="M525.932,102.708      c1.321,0,2.417-1.098,2.417-2.415s-1.096-2.414-2.417-2.414c-1.315,0-2.412,1.097-2.412,2.414S524.615,102.708,525.932,102.708      L525.932,102.708z"/>
<path fill="none" stroke="#000000" stroke-width="0.504" stroke-miterlimit="2.4142" d="M536.981,102.708      c1.32,0,2.417-1.098,2.417-2.415s-1.097-2.414-2.417-2.414c-1.316,0-2.412,1.097-2.412,2.414S535.665,102.708,536.981,102.708      L536.981,102.708z"/>
<path fill="none" stroke="#000000" stroke-width="0.504" stroke-miterlimit="2.4142" d="M520.406,108.141      c1.322,0,2.418-1.098,2.418-2.415s-1.096-2.414-2.418-2.414c-1.316,0-2.412,1.097-2.412,2.414S519.09,108.141,520.406,108.141      L520.406,108.141z"/>
<path fill="none" stroke="#000000" stroke-width="0.504" stroke-miterlimit="2.4142" d="M531.457,108.141      c1.32,0,2.416-1.098,2.416-2.415s-1.096-2.414-2.416-2.414c-1.316,0-2.412,1.097-2.412,2.414S530.141,108.141,531.457,108.141      L531.457,108.141z"/>
<path fill="none" stroke="#000000" stroke-width="0.504" stroke-miterlimit="2.4142" d="M514.885,113.574      c1.317,0,2.414-1.098,2.414-2.415c0-1.317-1.097-2.414-2.414-2.414c-1.315,0-2.415,1.097-2.415,2.414      C512.47,112.476,513.568,113.574,514.885,113.574L514.885,113.574z"/>
<path fill="none" stroke="#000000" stroke-width="0.504" stroke-miterlimit="2.4142" d="M525.932,113.574      c1.321,0,2.417-1.098,2.417-2.415c0-1.317-1.096-2.414-2.417-2.414c-1.315,0-2.412,1.097-2.412,2.414      C523.52,112.476,524.615,113.574,525.932,113.574L525.932,113.574z"/>
<path fill="none" stroke="#000000" stroke-width="0.504" stroke-miterlimit="2.4142" d="M536.981,113.574      c1.32,0,2.417-1.098,2.417-2.415c0-1.317-1.097-2.414-2.417-2.414c-1.316,0-2.412,1.097-2.412,2.414      C534.569,112.476,535.665,113.574,536.981,113.574L536.981,113.574z"/>
<path fill="none" stroke="#000000" stroke-width="0.504" stroke-miterlimit="2.4142" d="M520.406,119.007      c1.322,0,2.418-1.098,2.418-2.415c0-1.317-1.096-2.414-2.418-2.414c-1.316,0-2.412,1.097-2.412,2.414      C517.994,117.909,519.09,119.007,520.406,119.007L520.406,119.007z"/>
<path fill="none" stroke="#000000" stroke-width="0.504" stroke-miterlimit="2.4142" d="M531.457,119.007      c1.32,0,2.416-1.098,2.416-2.415c0-1.317-1.096-2.414-2.416-2.414c-1.316,0-2.412,1.097-2.412,2.414      C529.045,117.909,530.141,119.007,531.457,119.007L531.457,119.007z"/>
<path fill="none" stroke="#000000" stroke-width="0.504" stroke-miterlimit="2.4142" d="M514.885,124.44      c1.317,0,2.414-1.098,2.414-2.415s-1.097-2.414-2.414-2.414c-1.315,0-2.415,1.097-2.415,2.414S513.568,124.44,514.885,124.44      L514.885,124.44z"/>
<path fill="none" stroke="#000000" stroke-width="0.504" stroke-miterlimit="2.4142" d="M525.932,124.44      c1.321,0,2.417-1.098,2.417-2.415s-1.096-2.414-2.417-2.414c-1.315,0-2.412,1.097-2.412,2.414S524.615,124.44,525.932,124.44      L525.932,124.44z"/>
<path fill="none" stroke="#000000" stroke-width="0.504" stroke-miterlimit="2.4142" d="M536.981,124.44      c1.32,0,2.417-1.098,2.417-2.415s-1.097-2.414-2.417-2.414c-1.316,0-2.412,1.097-2.412,2.414S535.665,124.44,536.981,124.44      L536.981,124.44z"/>
<path fill="none" stroke="#000000" stroke-width="0.504" stroke-miterlimit="2.4142" d="M518.25,133.503     c-1.321,0-2.417-1.098-2.417-2.415c0-1.317,1.096-2.414,2.417-2.414c1.316,0,2.412,1.097,2.412,2.414     C520.662,132.405,519.566,133.503,518.25,133.503L518.25,133.503z"/>
<path fill="none" stroke="#000000" stroke-width="0.504" stroke-miterlimit="2.4142" d="M515.859,137.738     c-1.32,0-2.416,1.098-2.416,2.415s1.096,2.415,2.416,2.415c1.315,0,2.412-1.097,2.412-2.415     C518.271,138.835,517.176,137.738,515.859,137.738L515.859,137.738z"/>
<path fill="none" stroke="#000000" stroke-width="0.504" stroke-miterlimit="2.4142" d="M514.664,151.667     c1.316,0,2.413-1.097,2.413-2.488c0-1.317-1.097-2.414-2.413-2.414s-2.416,1.097-2.416,2.414     C512.248,150.571,513.348,151.667,514.664,151.667L514.664,151.667z"/>
<path fill="none" stroke="#000000" stroke-width="0.504" stroke-miterlimit="2.4142" d="M513.469,160.731     c1.316,0,2.413-1.097,2.413-2.488c0-1.317-1.097-2.414-2.413-2.414c-1.315,0-2.416,1.097-2.416,2.414     C511.053,159.634,512.152,160.731,513.469,160.731L513.469,160.731z"/>
<path fill="none" stroke="#000000" stroke-width="0.504" stroke-miterlimit="2.4142" d="M513.469,169.794      c1.316,0,2.413-1.097,2.413-2.488c0-1.317-1.097-2.414-2.413-2.414c-1.315,0-2.416,1.097-2.416,2.414      C511.053,168.698,512.152,169.794,513.469,169.794L513.469,169.794z"/>
<path fill="none" stroke="#000000" stroke-width="0.504" stroke-miterlimit="2.4142" d="M520.267,169.794      c1.316,0,2.413-1.097,2.413-2.488c0-1.317-1.097-2.414-2.413-2.414c-1.315,0-2.416,1.097-2.416,2.414      C517.851,168.697,518.95,169.794,520.267,169.794L520.267,169.794z"/>
<path fill="none" stroke="#000000" stroke-width="0.504" stroke-miterlimit="2.4142" d="M527.064,169.794      c1.315,0,2.412-1.097,2.412-2.488c0-1.317-1.097-2.414-2.412-2.414c-1.316,0-2.416,1.097-2.416,2.414      C524.648,168.697,525.748,169.794,527.064,169.794L527.064,169.794z"/>
</g></switch>
</svg>