<?xml version="1.0" encoding="utf-8"?>
<!DOCTYPE svg PUBLIC "-//W3C//DTD SVG 1.1//EN" "http://www.w3.org/Graphics/SVG/1.1/DTD/svg11.dtd">
<svg version="1.1" id="Armor" xmlns="http://www.w3.org/2000/svg" xmlns:xlink="http://www.w3.org/1999/xlink" x="0px" y="0px"
	 width="612px" height="792px" viewBox="0 0 612 792" enable-background="new 0 0 612 792" xml:space="preserve">
<switch><g>
<path fill="none" stroke="#000000" stroke-width="0.504" stroke-miterlimit="2.4142" d="M557.424,80.937     c1.666-0.144,2.93-1.652,2.783-3.312c-0.148-1.731-1.652-2.925-3.311-2.778c-1.732,0.15-2.998,1.585-2.853,3.318     C554.195,79.825,555.695,81.088,557.424,80.937L557.424,80.937z"/>
<path fill="none" stroke="#000000" stroke-width="0.504" stroke-miterlimit="2.4142" d="M563.503,85.349     c1.663-0.145,2.929-1.651,2.78-3.313c-0.151-1.73-1.646-2.924-3.313-2.779c-1.729,0.151-3.002,1.588-2.85,3.319     C560.267,84.236,561.777,85.499,563.503,85.349L563.503,85.349z"/>
<path fill="none" stroke="#000000" stroke-width="0.504" stroke-miterlimit="2.4142" d="M552.208,86.337     c1.663-0.146,2.931-1.652,2.781-3.313c-0.149-1.729-1.647-2.923-3.313-2.78c-1.729,0.152-3,1.59-2.846,3.322     C548.975,85.227,550.48,86.486,552.208,86.337L552.208,86.337z"/>
<path fill="none" stroke="#000000" stroke-width="0.504" stroke-miterlimit="2.4142" d="M558.282,90.746     c1.665-0.144,2.929-1.651,2.784-3.312c-0.15-1.73-1.652-2.926-3.312-2.779c-1.731,0.15-3.002,1.586-2.852,3.319     C555.052,89.634,556.554,90.897,558.282,90.746L558.282,90.746z"/>
<path fill="none" stroke="#000000" stroke-width="0.504" stroke-miterlimit="2.4142" d="M564.359,95.156     c1.664-0.144,2.93-1.652,2.782-3.312c-0.148-1.729-1.65-2.926-3.312-2.779c-1.731,0.15-3.003,1.587-2.852,3.318     C561.125,94.045,562.633,95.309,564.359,95.156L564.359,95.156z"/>
<path fill="none" stroke="#000000" stroke-width="0.504" stroke-miterlimit="2.4142" d="M553.064,96.145     c1.661-0.144,2.93-1.652,2.784-3.311c-0.147-1.731-1.655-2.926-3.316-2.779c-1.731,0.149-2.997,1.586-2.848,3.319     C549.832,95.032,551.336,96.295,553.064,96.145L553.064,96.145z"/>
<path fill="none" stroke="#000000" stroke-width="0.504" stroke-miterlimit="2.4142" d="M559.143,100.558     c1.666-0.146,2.926-1.653,2.781-3.311c-0.151-1.732-1.649-2.927-3.313-2.784c-1.729,0.153-2.996,1.591-2.847,3.322     C555.906,99.444,557.418,100.709,559.143,100.558L559.143,100.558z"/>
<path fill="none" stroke="#000000" stroke-width="0.504" stroke-miterlimit="2.4142" d="M565.221,104.966     c1.662-0.143,2.922-1.65,2.779-3.311c-0.152-1.729-1.649-2.924-3.314-2.78c-1.727,0.151-3,1.589-2.848,3.319     C561.982,103.854,563.49,105.12,565.221,104.966L565.221,104.966z"/>
<path fill="none" stroke="#000000" stroke-width="0.504" stroke-miterlimit="2.4142" d="M553.926,105.954     c1.66-0.144,2.926-1.65,2.783-3.312c-0.156-1.73-1.654-2.924-3.318-2.78c-1.729,0.152-3,1.589-2.846,3.32     C550.688,104.841,552.195,106.107,553.926,105.954L553.926,105.954z"/>
<path fill="none" stroke="#000000" stroke-width="0.504" stroke-miterlimit="2.4142" d="M560.004,110.365     c1.662-0.146,2.922-1.653,2.777-3.313c-0.153-1.729-1.652-2.926-3.314-2.781c-1.73,0.152-2.996,1.59-2.845,3.32     C556.771,109.251,558.271,110.517,560.004,110.365L560.004,110.365z"/>
<path fill="none" stroke="#000000" stroke-width="0.504" stroke-miterlimit="2.4142" d="M566.08,114.775     c1.662-0.146,2.921-1.651,2.779-3.313c-0.152-1.73-1.652-2.924-3.314-2.779c-1.729,0.152-3,1.588-2.848,3.32     C562.843,113.663,564.348,114.927,566.08,114.775L566.08,114.775z"/>
<path fill="none" stroke="#000000" stroke-width="0.504" stroke-miterlimit="2.4142" d="M554.783,115.764     c1.66-0.144,2.925-1.651,2.781-3.311c-0.148-1.73-1.654-2.926-3.318-2.781c-1.729,0.153-2.996,1.59-2.842,3.321     C551.551,114.653,553.053,115.917,554.783,115.764L554.783,115.764z"/>
<path fill="none" stroke="#000000" stroke-width="0.504" stroke-miterlimit="2.4142" d="M560.859,120.173     c1.662-0.144,2.926-1.651,2.78-3.311c-0.153-1.73-1.647-2.925-3.313-2.78c-1.73,0.151-2.998,1.589-2.846,3.32     C557.625,119.062,559.133,120.325,560.859,120.173L560.859,120.173z"/>
<path fill="none" stroke="#000000" stroke-width="0.504" stroke-miterlimit="2.4142" d="M566.936,124.585     c1.659-0.146,2.927-1.651,2.782-3.313c-0.155-1.731-1.648-2.926-3.313-2.78c-1.729,0.151-3.002,1.588-2.849,3.317     C563.698,123.473,565.208,124.736,566.936,124.585L566.936,124.585z"/>
<path fill="none" stroke="#000000" stroke-width="0.504" stroke-miterlimit="2.4142" d="M555.641,125.573     c1.659-0.146,2.93-1.651,2.787-3.314c-0.156-1.73-1.654-2.924-3.317-2.778c-1.73,0.152-2.999,1.587-2.849,3.319     C552.403,124.461,553.91,125.725,555.641,125.573L555.641,125.573z"/>
<path fill="none" stroke="#000000" stroke-width="0.504" stroke-miterlimit="2.4142" d="M561.717,129.984     c1.664-0.146,2.926-1.651,2.779-3.313c-0.15-1.73-1.648-2.926-3.314-2.781c-1.727,0.151-2.994,1.589-2.841,3.322     C558.482,128.872,559.986,130.136,561.717,129.984L561.717,129.984z"/>
<path fill="none" stroke="#000000" stroke-width="0.504" stroke-miterlimit="2.4142" d="M567.795,134.395     c1.664-0.146,2.925-1.651,2.777-3.311c-0.148-1.734-1.65-2.928-3.313-2.783c-1.727,0.151-2.998,1.588-2.848,3.322     C564.557,133.282,566.064,134.546,567.795,134.395L567.795,134.395z"/>
<path fill="none" stroke="#000000" stroke-width="0.504" stroke-miterlimit="2.4142" d="M556.5,135.382     c1.662-0.143,2.928-1.649,2.783-3.31c-0.151-1.73-1.656-2.925-3.318-2.782c-1.727,0.152-2.995,1.589-2.842,3.324     C553.264,134.272,554.77,135.534,556.5,135.382L556.5,135.382z"/>
<path fill="none" stroke="#000000" stroke-width="0.504" stroke-miterlimit="2.4142" d="M562.575,139.792     c1.665-0.144,2.927-1.649,2.778-3.31c-0.148-1.731-1.646-2.926-3.312-2.781c-1.729,0.151-2.998,1.589-2.842,3.322     C559.342,138.682,560.848,139.944,562.575,139.792L562.575,139.792z"/>
<path fill="none" stroke="#000000" stroke-width="0.504" stroke-miterlimit="2.4142" d="M568.65,144.203     c1.666-0.144,2.928-1.651,2.781-3.312c-0.152-1.731-1.647-2.926-3.313-2.781c-1.729,0.151-3,1.589-2.848,3.322     C565.416,143.09,566.926,144.354,568.65,144.203L568.65,144.203z"/>
<path fill="none" stroke="#000000" stroke-width="0.504" stroke-miterlimit="2.4142" d="M557.355,145.191     c1.663-0.145,2.93-1.652,2.784-3.312c-0.153-1.732-1.654-2.926-3.316-2.781c-1.73,0.152-2.999,1.589-2.845,3.32     C554.119,144.079,555.627,145.342,557.355,145.191L557.355,145.191z"/>
<path fill="none" stroke="#000000" stroke-width="0.504" stroke-miterlimit="2.4142" d="M563.435,149.601     c1.66-0.144,2.924-1.65,2.78-3.311c-0.154-1.731-1.649-2.926-3.313-2.779c-1.729,0.151-3.001,1.586-2.845,3.319     C560.2,148.487,561.703,149.752,563.435,149.601L563.435,149.601z"/>
<path fill="none" stroke="#000000" stroke-width="0.504" stroke-miterlimit="2.4142" d="M569.512,154.012     c1.66-0.144,2.921-1.652,2.777-3.312c-0.15-1.732-1.652-2.924-3.313-2.78c-1.727,0.152-3,1.588-2.846,3.32     C566.271,152.899,567.779,154.164,569.512,154.012L569.512,154.012z"/>
<path fill="none" stroke="#000000" stroke-width="0.504" stroke-miterlimit="2.4142" d="M558.217,154.999     c1.66-0.141,2.926-1.65,2.781-3.311c-0.148-1.732-1.656-2.925-3.316-2.779c-1.729,0.151-2.996,1.587-2.844,3.319     C554.98,153.888,556.484,155.152,558.217,154.999L558.217,154.999z"/>
<path fill="none" stroke="#000000" stroke-width="0.504" stroke-miterlimit="2.4142" d="M564.293,159.41     c1.663-0.145,2.922-1.652,2.778-3.311c-0.151-1.733-1.651-2.925-3.314-2.78c-1.726,0.15-2.994,1.587-2.841,3.319     C561.057,158.297,562.563,159.562,564.293,159.41L564.293,159.41z"/>
<path fill="none" stroke="#000000" stroke-width="0.504" stroke-miterlimit="2.4142" d="M570.37,163.819     c1.662-0.144,2.922-1.651,2.776-3.31c-0.149-1.732-1.65-2.924-3.313-2.779c-1.725,0.149-2.999,1.586-2.848,3.319     C567.131,162.708,568.638,163.973,570.37,163.819L570.37,163.819z"/>
<path fill="none" stroke="#000000" stroke-width="0.504" stroke-miterlimit="2.4142" d="M559.075,164.808     c1.661-0.142,2.926-1.65,2.78-3.311c-0.148-1.731-1.654-2.924-3.316-2.778c-1.727,0.151-2.994,1.587-2.844,3.318     C555.838,163.696,557.343,164.961,559.075,164.808L559.075,164.808z"/>
<path fill="none" stroke="#000000" stroke-width="0.504" stroke-miterlimit="2.4142" d="M565.15,169.219     c1.664-0.144,2.922-1.65,2.779-3.31c-0.152-1.733-1.651-2.924-3.313-2.781c-1.728,0.152-2.995,1.588-2.841,3.322     C561.914,168.108,563.42,169.371,565.15,169.219L565.15,169.219z"/>
<path fill="none" stroke="#000000" stroke-width="0.504" stroke-miterlimit="2.4142" d="M571.229,173.629     c1.662-0.145,2.923-1.651,2.776-3.311c-0.148-1.732-1.651-2.924-3.312-2.779c-1.728,0.15-3,1.586-2.85,3.319     C567.989,172.518,569.496,173.781,571.229,173.629L571.229,173.629z"/>
<path fill="none" stroke="#000000" stroke-width="0.504" stroke-miterlimit="2.4142" d="M559.934,174.617     c1.66-0.143,2.927-1.651,2.779-3.311c-0.146-1.732-1.654-2.925-3.313-2.779c-1.729,0.151-2.995,1.587-2.847,3.319     C556.695,173.505,558.201,174.77,559.934,174.617L559.934,174.617z"/>
</g></switch>
</svg>