<?xml version="1.0" encoding="utf-8"?>
<!DOCTYPE svg PUBLIC "-//W3C//DTD SVG 1.1//EN" "http://www.w3.org/Graphics/SVG/1.1/DTD/svg11.dtd">
<svg version="1.1" id="Armor" xmlns="http://www.w3.org/2000/svg" xmlns:xlink="http://www.w3.org/1999/xlink" x="0px" y="0px"
	 width="612px" height="792px" viewBox="0 0 612 792" enable-background="new 0 0 612 792" xml:space="preserve">
<switch><g>
<path fill="none" stroke="#000000" stroke-width="0.504" stroke-miterlimit="2.4142" d="M449.873,327.606      c-1.065,0-1.998-0.864-1.998-1.994c0-1.131,0.933-2.062,1.998-2.062c1.13,0,2.06,0.931,2.06,2.062      C451.933,326.742,451.003,327.606,449.873,327.606L449.873,327.606z"/>
<path fill="none" stroke="#000000" stroke-width="0.504" stroke-miterlimit="2.4142" d="M457.766,327.606      c-1.064,0-1.998-0.864-1.998-1.994c0-1.131,0.934-2.062,1.998-2.062c1.131,0,2.061,0.931,2.061,2.062      C459.825,326.742,458.896,327.606,457.766,327.606L457.766,327.606z"/>
<path fill="none" stroke="#000000" stroke-width="0.504" stroke-miterlimit="2.4142" d="M465.658,327.606      c-1.065,0-1.998-0.864-1.998-1.994c0-1.131,0.933-2.062,1.998-2.062c1.13,0,2.06,0.931,2.06,2.062      C467.718,326.742,466.788,327.606,465.658,327.606L465.658,327.606z"/>
<path fill="none" stroke="#000000" stroke-width="0.504" stroke-miterlimit="2.4142" d="M449.873,334.79      c-1.065,0-1.998-0.864-1.998-1.994c0-1.131,0.933-2.062,1.998-2.062c1.13,0,2.06,0.931,2.06,2.062      C451.933,333.925,451.003,334.79,449.873,334.79L449.873,334.79z"/>
<path fill="none" stroke="#000000" stroke-width="0.504" stroke-miterlimit="2.4142" d="M457.766,334.79      c-1.064,0-1.998-0.864-1.998-1.994c0-1.131,0.934-2.062,1.998-2.062c1.131,0,2.061,0.931,2.061,2.062      C459.825,333.926,458.896,334.79,457.766,334.79L457.766,334.79z"/>
<path fill="none" stroke="#000000" stroke-width="0.504" stroke-miterlimit="2.4142" d="M465.658,334.79      c-1.065,0-1.998-0.864-1.998-1.994c0-1.131,0.933-2.062,1.998-2.062c1.13,0,2.06,0.931,2.06,2.062      C467.718,333.925,466.788,334.79,465.658,334.79L465.658,334.79z"/>
<path fill="none" stroke="#000000" stroke-width="0.504" stroke-miterlimit="2.4142" d="M449.873,341.973      c-1.065,0-1.998-0.864-1.998-1.994c0-1.131,0.933-2.062,1.998-2.062c1.13,0,2.06,0.931,2.06,2.062      C451.933,341.109,451.003,341.973,449.873,341.973L449.873,341.973z"/>
<path fill="none" stroke="#000000" stroke-width="0.504" stroke-miterlimit="2.4142" d="M465.658,341.973      c-1.065,0-1.998-0.864-1.998-1.994c0-1.131,0.933-2.062,1.998-2.062c1.13,0,2.06,0.931,2.06,2.062      C467.718,341.109,466.788,341.973,465.658,341.973L465.658,341.973z"/>
<path fill="none" stroke="#000000" stroke-width="0.504" stroke-miterlimit="2.4142" d="M457.766,341.974      c-1.064,0-1.998-0.864-1.998-1.994c0-1.131,0.934-2.062,1.998-2.062c1.131,0,2.061,0.931,2.061,2.062      C459.825,341.109,458.896,341.974,457.766,341.974L457.766,341.974z"/>
<path fill="none" stroke="#000000" stroke-width="0.504" stroke-miterlimit="2.4142" d="M449.872,349.158      c-1.132,0-1.997-0.932-1.997-1.997c0-1.128,0.865-2.061,1.997-2.061c1.131,0,2.061,0.932,2.061,2.061      C451.933,348.226,451.003,349.158,449.872,349.158L449.872,349.158z"/>
<path fill="none" stroke="#000000" stroke-width="0.504" stroke-miterlimit="2.4142" d="M457.766,349.158      c-1.064,0-1.998-0.864-1.998-1.994c0-1.131,0.934-2.062,1.998-2.062c1.131,0,2.061,0.931,2.061,2.062      C459.825,348.293,458.896,349.158,457.766,349.158L457.766,349.158z"/>
<path fill="none" stroke="#000000" stroke-width="0.504" stroke-miterlimit="2.4142" d="M465.657,349.158      c-1.132,0-1.997-0.932-1.997-1.997c0-1.128,0.865-2.061,1.997-2.061c1.131,0,2.061,0.932,2.061,2.061      C467.718,348.226,466.788,349.158,465.657,349.158L465.657,349.158z"/>
</g></switch>
</svg>