<?xml version="1.0" encoding="utf-8"?>
<!DOCTYPE svg PUBLIC "-//W3C//DTD SVG 1.1//EN" "http://www.w3.org/Graphics/SVG/1.1/DTD/svg11.dtd">
<svg version="1.1" id="Armor" xmlns="http://www.w3.org/2000/svg" xmlns:xlink="http://www.w3.org/1999/xlink" x="0px" y="0px"
	 width="612px" height="792px" viewBox="0 0 612 792" enable-background="new 0 0 612 792" xml:space="preserve">
<switch><g>
<path fill="none" stroke="#000000" stroke-width="0.504" stroke-miterlimit="2.4142" d="M557.723,80.887     c1.668-0.144,2.927-1.651,2.781-3.311c-0.15-1.73-1.646-2.925-3.313-2.782c-1.728,0.152-2.996,1.592-2.847,3.321     C554.484,79.774,555.996,81.04,557.723,80.887L557.723,80.887z"/>
<path fill="none" stroke="#000000" stroke-width="0.504" stroke-miterlimit="2.4142" d="M564.053,88.159     c1.664-0.146,2.923-1.652,2.779-3.313c-0.152-1.73-1.65-2.925-3.314-2.782c-1.725,0.153-3,1.591-2.851,3.32     C560.81,87.045,562.324,88.31,564.053,88.159L564.053,88.159z"/>
<path fill="none" stroke="#000000" stroke-width="0.504" stroke-miterlimit="2.4142" d="M552.756,89.146     c1.664-0.144,2.928-1.648,2.781-3.31c-0.152-1.729-1.65-2.925-3.314-2.781c-1.729,0.152-2.998,1.589-2.846,3.319     C549.52,88.035,551.029,89.299,552.756,89.146L552.756,89.146z"/>
<path fill="none" stroke="#000000" stroke-width="0.504" stroke-miterlimit="2.4142" d="M559.088,96.419     c1.661-0.146,2.92-1.652,2.774-3.313c-0.151-1.732-1.648-2.926-3.313-2.782c-1.728,0.152-2.997,1.592-2.845,3.321     C555.852,95.304,557.355,96.571,559.088,96.419L559.088,96.419z"/>
<path fill="none" stroke="#000000" stroke-width="0.504" stroke-miterlimit="2.4142" d="M565.414,103.688     c1.66-0.146,2.92-1.65,2.775-3.31c-0.152-1.729-1.65-2.926-3.312-2.78c-1.731,0.151-3.004,1.589-2.852,3.318     C562.178,102.579,563.682,103.842,565.414,103.688L565.414,103.688z"/>
<path fill="none" stroke="#000000" stroke-width="0.504" stroke-miterlimit="2.4142" d="M554.115,104.677     c1.662-0.144,2.924-1.652,2.783-3.311c-0.154-1.73-1.654-2.925-3.32-2.78c-1.728,0.152-2.997,1.589-2.84,3.321     C550.883,103.567,552.385,104.829,554.115,104.677L554.115,104.677z"/>
<path fill="none" stroke="#000000" stroke-width="0.504" stroke-miterlimit="2.4142" d="M560.443,111.95     c1.66-0.146,2.924-1.653,2.778-3.313c-0.154-1.734-1.646-2.928-3.311-2.783c-1.732,0.15-3.003,1.589-2.853,3.321     C557.205,110.836,558.717,112.101,560.443,111.95L560.443,111.95z"/>
<path fill="none" stroke="#000000" stroke-width="0.504" stroke-miterlimit="2.4142" d="M566.768,119.219     c1.665-0.146,2.931-1.65,2.78-3.313c-0.148-1.731-1.645-2.925-3.31-2.776c-1.729,0.149-3.004,1.582-2.854,3.315     C563.533,118.107,565.045,119.371,566.768,119.219L566.768,119.219z"/>
<path fill="none" stroke="#000000" stroke-width="0.504" stroke-miterlimit="2.4142" d="M555.472,120.209     c1.666-0.145,2.933-1.652,2.783-3.313c-0.148-1.732-1.646-2.925-3.313-2.78c-1.729,0.153-2.996,1.587-2.849,3.319     C552.239,119.095,553.747,120.359,555.472,120.209L555.472,120.209z"/>
<path fill="none" stroke="#000000" stroke-width="0.504" stroke-miterlimit="2.4142" d="M561.801,127.479     c1.666-0.145,2.926-1.649,2.781-3.311c-0.153-1.731-1.648-2.925-3.314-2.781c-1.727,0.152-2.999,1.589-2.847,3.322     C558.566,126.37,560.07,127.632,561.801,127.479L561.801,127.479z"/>
<path fill="none" stroke="#000000" stroke-width="0.504" stroke-miterlimit="2.4142" d="M568.127,134.752     c1.668-0.145,2.926-1.651,2.779-3.313c-0.148-1.731-1.646-2.926-3.312-2.78c-1.727,0.152-3.002,1.587-2.85,3.321     C564.889,133.64,566.4,134.904,568.127,134.752L568.127,134.752z"/>
<path fill="none" stroke="#000000" stroke-width="0.504" stroke-miterlimit="2.4142" d="M556.834,135.74     c1.664-0.146,2.924-1.651,2.779-3.313c-0.15-1.731-1.65-2.926-3.314-2.782c-1.725,0.152-2.994,1.588-2.842,3.321     C553.598,134.63,555.104,135.892,556.834,135.74L556.834,135.74z"/>
<path fill="none" stroke="#000000" stroke-width="0.504" stroke-miterlimit="2.4142" d="M563.159,143.012     c1.665-0.145,2.926-1.65,2.778-3.312c-0.152-1.731-1.646-2.926-3.31-2.783c-1.729,0.154-3.004,1.591-2.848,3.323     C559.923,141.898,561.435,143.163,563.159,143.012L563.159,143.012z"/>
<path fill="none" stroke="#000000" stroke-width="0.504" stroke-miterlimit="2.4142" d="M569.486,150.283     c1.667-0.146,2.926-1.652,2.778-3.314c-0.149-1.729-1.646-2.925-3.313-2.779c-1.728,0.15-3.003,1.589-2.849,3.323     C566.25,149.169,567.758,150.434,569.486,150.283L569.486,150.283z"/>
<path fill="none" stroke="#000000" stroke-width="0.504" stroke-miterlimit="2.4142" d="M558.191,151.271     c1.661-0.145,2.926-1.648,2.779-3.31c-0.152-1.733-1.649-2.928-3.313-2.782c-1.729,0.151-2.998,1.587-2.845,3.32     C554.954,150.161,556.46,151.422,558.191,151.271L558.191,151.271z"/>
<path fill="none" stroke="#000000" stroke-width="0.504" stroke-miterlimit="2.4142" d="M564.52,158.542     c1.662-0.144,2.925-1.651,2.779-3.312c-0.154-1.731-1.648-2.925-3.313-2.781c-1.728,0.151-3,1.589-2.847,3.32     C561.279,157.43,562.791,158.692,564.52,158.542L564.52,158.542z"/>
<path fill="none" stroke="#000000" stroke-width="0.504" stroke-miterlimit="2.4142" d="M570.848,165.813     c1.662-0.143,2.922-1.649,2.777-3.311c-0.152-1.732-1.652-2.925-3.311-2.78c-1.729,0.15-3.005,1.587-2.851,3.32     C567.604,164.702,569.116,165.966,570.848,165.813L570.848,165.813z"/>
<path fill="none" stroke="#000000" stroke-width="0.504" stroke-miterlimit="2.4142" d="M559.553,166.799     c1.66-0.139,2.923-1.65,2.775-3.31c-0.148-1.732-1.65-2.926-3.312-2.777c-1.729,0.148-2.997,1.585-2.844,3.318     C556.314,165.688,557.818,166.954,559.553,166.799L559.553,166.799z"/>
<path fill="none" stroke="#000000" stroke-width="0.504" stroke-miterlimit="2.4142" d="M565.878,174.073     c1.662-0.144,2.925-1.651,2.779-3.313c-0.154-1.73-1.649-2.926-3.313-2.781c-1.727,0.15-3,1.589-2.846,3.32     C562.638,172.961,564.15,174.224,565.878,174.073L565.878,174.073z"/>
</g></switch>
</svg>