<?xml version="1.0" encoding="utf-8"?>
<!DOCTYPE svg PUBLIC "-//W3C//DTD SVG 1.1//EN" "http://www.w3.org/Graphics/SVG/1.1/DTD/svg11.dtd">
<svg version="1.1" id="Armor" xmlns="http://www.w3.org/2000/svg" xmlns:xlink="http://www.w3.org/1999/xlink" x="0px" y="0px"
	 width="612px" height="792px" viewBox="0 0 612 792" enable-background="new 0 0 612 792" xml:space="preserve">
<switch><g>
<path fill="none" stroke="#000000" stroke-width="0.504" stroke-miterlimit="2.4142" d="M420.211,80.421     c-1.66-0.146-2.929-1.653-2.778-3.313c0.149-1.729,1.646-2.924,3.313-2.78c1.728,0.152,3.001,1.59,2.85,3.321     C423.449,79.309,421.938,80.571,420.211,80.421L420.211,80.421z"/>
<path fill="none" stroke="#000000" stroke-width="0.504" stroke-miterlimit="2.4142" d="M431.506,81.41     c-1.662-0.146-2.928-1.653-2.778-3.312c0.148-1.73,1.646-2.926,3.313-2.782c1.726,0.152,2.997,1.591,2.847,3.322     C434.74,80.299,433.234,81.56,431.506,81.41L431.506,81.41z"/>
<path fill="none" stroke="#000000" stroke-width="0.504" stroke-miterlimit="2.4142" d="M425.278,87.57     c-1.663-0.144-2.929-1.651-2.782-3.311c0.146-1.731,1.652-2.925,3.311-2.779c1.73,0.15,3.002,1.587,2.853,3.319     C428.51,86.459,427.006,87.722,425.278,87.57L425.278,87.57z"/>
<path fill="none" stroke="#000000" stroke-width="0.504" stroke-miterlimit="2.4142" d="M419.049,93.733     c-1.663-0.143-2.93-1.652-2.784-3.312c0.15-1.73,1.654-2.925,3.313-2.779c1.731,0.149,3.005,1.587,2.852,3.318     C422.283,92.621,420.775,93.885,419.049,93.733L419.049,93.733z"/>
<path fill="none" stroke="#000000" stroke-width="0.504" stroke-miterlimit="2.4142" d="M430.346,94.721     c-1.665-0.145-2.93-1.652-2.786-3.312c0.149-1.732,1.655-2.925,3.316-2.779c1.73,0.149,2.999,1.587,2.848,3.319     C433.578,93.61,432.072,94.872,430.346,94.721L430.346,94.721z"/>
<path fill="none" stroke="#000000" stroke-width="0.504" stroke-miterlimit="2.4142" d="M424.112,100.883     c-1.665-0.144-2.925-1.651-2.78-3.311c0.15-1.731,1.65-2.925,3.313-2.781c1.729,0.151,2.997,1.589,2.849,3.32     C427.352,99.771,425.84,101.036,424.112,100.883L424.112,100.883z"/>
<path fill="none" stroke="#000000" stroke-width="0.504" stroke-miterlimit="2.4142" d="M417.881,107.046     c-1.662-0.145-2.922-1.651-2.779-3.312c0.152-1.73,1.652-2.925,3.314-2.782c1.727,0.152,3,1.591,2.85,3.321     C421.123,105.933,419.611,107.199,417.881,107.046L417.881,107.046z"/>
<path fill="none" stroke="#000000" stroke-width="0.504" stroke-miterlimit="2.4142" d="M429.177,108.033     c-1.661-0.144-2.927-1.649-2.779-3.311c0.151-1.729,1.651-2.924,3.313-2.78c1.729,0.151,3,1.588,2.848,3.32     C432.415,106.921,430.906,108.186,429.177,108.033L429.177,108.033z"/>
<path fill="none" stroke="#000000" stroke-width="0.504" stroke-miterlimit="2.4142" d="M422.943,114.196     c-1.66-0.145-2.92-1.651-2.775-3.312c0.152-1.731,1.651-2.925,3.313-2.781c1.729,0.152,2.996,1.59,2.846,3.321     C426.18,113.083,424.678,114.348,422.943,114.196L422.943,114.196z"/>
<path fill="none" stroke="#000000" stroke-width="0.504" stroke-miterlimit="2.4142" d="M416.715,120.357     c-1.66-0.146-2.922-1.651-2.777-3.311c0.153-1.73,1.652-2.925,3.313-2.779c1.73,0.151,3.002,1.588,2.849,3.319     C419.951,119.247,418.447,120.509,416.715,120.357L416.715,120.357z"/>
<path fill="none" stroke="#000000" stroke-width="0.504" stroke-miterlimit="2.4142" d="M428.013,121.345     c-1.661-0.144-2.925-1.652-2.781-3.31c0.152-1.73,1.653-2.926,3.319-2.78c1.728,0.152,2.996,1.588,2.84,3.32     C431.246,120.236,429.744,121.498,428.013,121.345L428.013,121.345z"/>
<path fill="none" stroke="#000000" stroke-width="0.504" stroke-miterlimit="2.4142" d="M421.781,127.509     c-1.659-0.146-2.924-1.653-2.779-3.313c0.153-1.733,1.648-2.927,3.313-2.781c1.729,0.15,3,1.589,2.85,3.319     C425.02,126.395,423.51,127.661,421.781,127.509L421.781,127.509z"/>
<path fill="none" stroke="#000000" stroke-width="0.504" stroke-miterlimit="2.4142" d="M415.553,133.67     c-1.66-0.146-2.928-1.651-2.778-3.313c0.149-1.731,1.647-2.926,3.312-2.779c1.729,0.151,3.003,1.587,2.852,3.318     C418.789,132.558,417.279,133.822,415.553,133.67L415.553,133.67z"/>
<path fill="none" stroke="#000000" stroke-width="0.504" stroke-miterlimit="2.4142" d="M426.85,134.66     c-1.661-0.146-2.93-1.651-2.782-3.313c0.149-1.731,1.649-2.925,3.313-2.78c1.729,0.153,2.998,1.589,2.848,3.32     C430.084,133.546,428.576,134.811,426.85,134.66L426.85,134.66z"/>
<path fill="none" stroke="#000000" stroke-width="0.504" stroke-miterlimit="2.4142" d="M420.619,140.82     c-1.666-0.146-2.927-1.65-2.78-3.311c0.15-1.731,1.649-2.925,3.314-2.781c1.727,0.152,2.995,1.589,2.845,3.322     C423.854,139.708,422.349,140.972,420.619,140.82L420.619,140.82z"/>
<path fill="none" stroke="#000000" stroke-width="0.504" stroke-miterlimit="2.4142" d="M414.389,146.984     c-1.664-0.146-2.927-1.651-2.778-3.312c0.148-1.733,1.649-2.928,3.313-2.783c1.727,0.152,2.998,1.589,2.847,3.323     C417.626,145.872,416.117,147.135,414.389,146.984L414.389,146.984z"/>
<path fill="none" stroke="#000000" stroke-width="0.504" stroke-miterlimit="2.4142" d="M425.684,147.971     c-1.661-0.145-2.928-1.649-2.78-3.31c0.149-1.732,1.651-2.927,3.315-2.783c1.726,0.151,2.994,1.589,2.842,3.323     C428.918,146.861,427.412,148.124,425.684,147.971L425.684,147.971z"/>
<path fill="none" stroke="#000000" stroke-width="0.504" stroke-miterlimit="2.4142" d="M419.453,154.132     c-1.662-0.145-2.926-1.65-2.779-3.311c0.152-1.731,1.649-2.926,3.313-2.781c1.729,0.151,3.001,1.589,2.847,3.321     C422.689,153.02,421.18,154.284,419.453,154.132L419.453,154.132z"/>
<path fill="none" stroke="#000000" stroke-width="0.504" stroke-miterlimit="2.4142" d="M413.224,160.295     c-1.664-0.145-2.925-1.652-2.779-3.313c0.151-1.731,1.649-2.925,3.313-2.781c1.729,0.151,3.001,1.59,2.847,3.323     C416.461,159.182,414.953,160.446,413.224,160.295L413.224,160.295z"/>
<path fill="none" stroke="#000000" stroke-width="0.504" stroke-miterlimit="2.4142" d="M424.519,161.283     c-1.659-0.145-2.926-1.65-2.781-3.311c0.154-1.731,1.653-2.927,3.315-2.781c1.729,0.151,3,1.587,2.845,3.32     C427.758,160.171,426.25,161.434,424.519,161.283L424.519,161.283z"/>
<path fill="none" stroke="#000000" stroke-width="0.504" stroke-miterlimit="2.4142" d="M418.289,167.445     c-1.662-0.144-2.926-1.651-2.781-3.311c0.155-1.731,1.652-2.925,3.314-2.78c1.727,0.151,2.999,1.588,2.844,3.32     C421.526,166.333,420.018,167.596,418.289,167.445L418.289,167.445z"/>
<path fill="none" stroke="#000000" stroke-width="0.504" stroke-miterlimit="2.4142" d="M412.057,173.606     c-1.659-0.144-2.921-1.651-2.776-3.311c0.149-1.731,1.651-2.924,3.313-2.779c1.728,0.15,3,1.587,2.849,3.319     C415.299,172.495,413.789,173.758,412.057,173.606L412.057,173.606z"/>
<path fill="none" stroke="#000000" stroke-width="0.504" stroke-miterlimit="2.4142" d="M423.352,174.594     c-1.659-0.142-2.923-1.651-2.776-3.311c0.147-1.732,1.651-2.925,3.313-2.779c1.729,0.151,2.998,1.588,2.847,3.319     C426.591,173.482,425.084,174.747,423.352,174.594L423.352,174.594z"/>
</g></switch>
</svg>