<?xml version="1.0" encoding="utf-8"?>
<!DOCTYPE svg PUBLIC "-//W3C//DTD SVG 1.1//EN" "http://www.w3.org/Graphics/SVG/1.1/DTD/svg11.dtd">
<svg version="1.1" id="Armor" xmlns="http://www.w3.org/2000/svg" xmlns:xlink="http://www.w3.org/1999/xlink" x="0px" y="0px"
	 width="612px" height="792px" viewBox="0 0 612 792" enable-background="new 0 0 612 792" xml:space="preserve">
<switch><g>
<path fill-rule="evenodd" clip-rule="evenodd" fill="none" stroke="#000000" stroke-width="0.504" stroke-miterlimit="2.4142" d="     M463.178,191.509c-1.56-0.392-2.521-1.987-2.108-3.619c0.384-1.563,1.979-2.523,3.546-2.133c1.629,0.405,2.589,2.004,2.196,3.565     C466.41,190.956,464.811,191.915,463.178,191.509L463.178,191.509z"/>
<path fill-rule="evenodd" clip-rule="evenodd" fill="none" stroke="#000000" stroke-width="0.504" stroke-miterlimit="2.4142" d="     M456.329,195.14c-1.56-0.393-2.522-1.986-2.112-3.62c0.389-1.563,1.982-2.521,3.547-2.131c1.632,0.405,2.59,2.003,2.199,3.564     C459.559,194.586,457.959,195.545,456.329,195.14L456.329,195.14z"/>
<path fill-rule="evenodd" clip-rule="evenodd" fill="none" stroke="#000000" stroke-width="0.504" stroke-miterlimit="2.4142" d="     M467.743,197.776c-1.559-0.393-2.521-1.986-2.111-3.621c0.388-1.562,1.982-2.521,3.547-2.13c1.632,0.404,2.589,2.002,2.198,3.564     C470.974,197.221,469.373,198.181,467.743,197.776L467.743,197.776z"/>
<path fill-rule="evenodd" clip-rule="evenodd" fill="none" stroke="#000000" stroke-width="0.504" stroke-miterlimit="2.4142" d="     M460.893,201.407c-1.559-0.393-2.521-1.987-2.108-3.62c0.385-1.563,1.979-2.523,3.547-2.132c1.628,0.405,2.589,2.003,2.196,3.565     C464.125,200.853,462.525,201.812,460.893,201.407L460.893,201.407z"/>
<path fill-rule="evenodd" clip-rule="evenodd" fill="none" stroke="#000000" stroke-width="0.504" stroke-miterlimit="2.4142" d="     M454.048,205.038c-1.561-0.393-2.521-1.988-2.115-3.623c0.391-1.561,1.985-2.519,3.548-2.128     c1.633,0.404,2.592,2.002,2.201,3.563C457.276,204.482,455.676,205.44,454.048,205.038L454.048,205.038z"/>
<path fill-rule="evenodd" clip-rule="evenodd" fill="none" stroke="#000000" stroke-width="0.504" stroke-miterlimit="2.4142" d="     M465.461,207.672c-1.561-0.393-2.521-1.988-2.115-3.623c0.391-1.561,1.986-2.519,3.548-2.128     c1.633,0.405,2.591,2.002,2.201,3.563C468.689,207.117,467.088,208.075,465.461,207.672L465.461,207.672z"/>
<path fill-rule="evenodd" clip-rule="evenodd" fill="none" stroke="#000000" stroke-width="0.504" stroke-miterlimit="2.4142" d="     M458.61,211.303c-1.562-0.392-2.522-1.987-2.114-3.622c0.388-1.562,1.984-2.519,3.549-2.128c1.631,0.405,2.59,2.002,2.199,3.563     C461.837,210.749,460.238,211.708,458.61,211.303L458.61,211.303z"/>
<path fill-rule="evenodd" clip-rule="evenodd" fill="none" stroke="#000000" stroke-width="0.504" stroke-miterlimit="2.4142" d="     M451.764,214.935c-1.561-0.389-2.524-1.987-2.116-3.62c0.388-1.561,1.987-2.52,3.551-2.131c1.629,0.406,2.589,2.006,2.2,3.564     C454.99,214.383,453.393,215.341,451.764,214.935L451.764,214.935z"/>
<path fill-rule="evenodd" clip-rule="evenodd" fill="none" stroke="#000000" stroke-width="0.504" stroke-miterlimit="2.4142" d="     M463.176,217.569c-1.561-0.388-2.525-1.986-2.117-3.619c0.389-1.561,1.988-2.521,3.551-2.131c1.63,0.406,2.59,2.005,2.201,3.564     C466.401,217.018,464.805,217.976,463.176,217.569L463.176,217.569z"/>
<path fill-rule="evenodd" clip-rule="evenodd" fill="none" stroke="#000000" stroke-width="0.504" stroke-miterlimit="2.4142" d="     M456.327,221.201c-1.561-0.388-2.526-1.986-2.116-3.62c0.388-1.561,1.986-2.52,3.55-2.131c1.628,0.406,2.588,2.005,2.2,3.564     C459.551,220.649,457.953,221.606,456.327,221.201L456.327,221.201z"/>
<path fill-rule="evenodd" clip-rule="evenodd" fill="none" stroke="#000000" stroke-width="0.504" stroke-miterlimit="2.4142" d="     M449.477,224.831c-1.564-0.391-2.521-1.985-2.113-3.62c0.389-1.562,1.988-2.52,3.55-2.13c1.628,0.407,2.587,2.002,2.198,3.563     C452.707,224.279,451.111,225.237,449.477,224.831L449.477,224.831z"/>
<path fill-rule="evenodd" clip-rule="evenodd" fill="none" stroke="#000000" stroke-width="0.504" stroke-miterlimit="2.4142" d="     M460.889,227.465c-1.564-0.391-2.52-1.985-2.113-3.62c0.39-1.562,1.988-2.52,3.551-2.129c1.628,0.406,2.586,2.001,2.197,3.563     C464.119,226.914,462.523,227.872,460.889,227.465L460.889,227.465z"/>
<path fill-rule="evenodd" clip-rule="evenodd" fill="none" stroke="#000000" stroke-width="0.504" stroke-miterlimit="2.4142" d="     M454.04,231.098c-1.564-0.394-2.522-1.986-2.114-3.622c0.39-1.56,1.986-2.521,3.551-2.13c1.625,0.406,2.588,2.003,2.2,3.563     C457.271,230.545,455.673,231.501,454.04,231.098L454.04,231.098z"/>
<path fill-rule="evenodd" clip-rule="evenodd" fill="none" stroke="#000000" stroke-width="0.504" stroke-miterlimit="2.4142" d="     M447.194,234.729c-1.561-0.39-2.521-1.986-2.117-3.619c0.393-1.563,1.987-2.52,3.55-2.133c1.631,0.408,2.592,2.002,2.2,3.566     C450.424,234.175,448.825,235.136,447.194,234.729L447.194,234.729z"/>
<path fill-rule="evenodd" clip-rule="evenodd" fill="none" stroke="#000000" stroke-width="0.504" stroke-miterlimit="2.4142" d="     M458.605,237.364c-1.561-0.39-2.521-1.986-2.117-3.619c0.394-1.563,1.988-2.52,3.55-2.133c1.631,0.408,2.592,2.002,2.2,3.566     C461.835,236.81,460.236,237.771,458.605,237.364L458.605,237.364z"/>
<path fill-rule="evenodd" clip-rule="evenodd" fill="none" stroke="#000000" stroke-width="0.504" stroke-miterlimit="2.4142" d="     M451.758,240.995c-1.564-0.392-2.522-1.986-2.117-3.62c0.393-1.562,1.986-2.52,3.549-2.131c1.63,0.406,2.59,2.001,2.201,3.564     C454.986,240.44,453.386,241.4,451.758,240.995L451.758,240.995z"/>
<path fill-rule="evenodd" clip-rule="evenodd" fill="none" stroke="#000000" stroke-width="0.504" stroke-miterlimit="2.4142" d="     M444.904,244.624c-1.561-0.389-2.52-1.984-2.111-3.617c0.391-1.561,1.986-2.521,3.549-2.131c1.629,0.405,2.591,2.004,2.199,3.564     C448.134,244.074,446.537,245.034,444.904,244.624L444.904,244.624z"/>
<path fill-rule="evenodd" clip-rule="evenodd" fill="none" stroke="#000000" stroke-width="0.504" stroke-miterlimit="2.4142" d="     M456.316,247.258c-1.561-0.388-2.52-1.984-2.111-3.617c0.391-1.561,1.986-2.521,3.549-2.13c1.629,0.404,2.592,2.003,2.199,3.564     C459.547,246.708,457.949,247.668,456.316,247.258L456.316,247.258z"/>
<path fill-rule="evenodd" clip-rule="evenodd" fill="none" stroke="#000000" stroke-width="0.504" stroke-miterlimit="2.4142" d="     M449.467,250.889c-1.563-0.388-2.521-1.986-2.109-3.616c0.389-1.562,1.985-2.522,3.547-2.132c1.628,0.406,2.59,2.004,2.199,3.564     C452.697,250.339,451.1,251.3,449.467,250.889L449.467,250.889z"/>
<path fill-rule="evenodd" clip-rule="evenodd" fill="none" stroke="#000000" stroke-width="0.504" stroke-miterlimit="2.4142" d="     M442.621,254.522c-1.563-0.39-2.521-1.987-2.113-3.618c0.392-1.563,1.986-2.522,3.55-2.131c1.63,0.403,2.591,2.003,2.198,3.563     C445.852,253.97,444.254,254.93,442.621,254.522L442.621,254.522z"/>
<path fill-rule="evenodd" clip-rule="evenodd" fill="none" stroke="#000000" stroke-width="0.504" stroke-miterlimit="2.4142" d="     M454.033,257.157c-1.563-0.39-2.521-1.987-2.113-3.618c0.393-1.563,1.987-2.522,3.55-2.131c1.63,0.403,2.591,2.003,2.199,3.563     C457.264,256.605,455.666,257.565,454.033,257.157L454.033,257.157z"/>
<path fill-rule="evenodd" clip-rule="evenodd" fill="none" stroke="#000000" stroke-width="0.504" stroke-miterlimit="2.4142" d="     M447.184,260.788c-1.563-0.39-2.52-1.986-2.113-3.617c0.391-1.563,1.987-2.522,3.549-2.132c1.631,0.404,2.59,2.004,2.2,3.563     C450.416,260.237,448.815,261.196,447.184,260.788L447.184,260.788z"/>
<path fill-rule="evenodd" clip-rule="evenodd" fill="none" stroke="#000000" stroke-width="0.504" stroke-miterlimit="2.4142" d="     M440.334,264.418c-1.561-0.39-2.521-1.985-2.111-3.617c0.391-1.563,1.987-2.522,3.549-2.131c1.629,0.404,2.59,2.004,2.199,3.563     C443.564,263.866,441.967,264.826,440.334,264.418L440.334,264.418z"/>
<path fill-rule="evenodd" clip-rule="evenodd" fill="none" stroke="#000000" stroke-width="0.504" stroke-miterlimit="2.4142" d="     M451.747,267.053c-1.562-0.39-2.521-1.985-2.112-3.617c0.392-1.563,1.987-2.522,3.549-2.131c1.63,0.404,2.591,2.004,2.2,3.563     C454.978,266.5,453.379,267.46,451.747,267.053L451.747,267.053z"/>
<path fill-rule="evenodd" clip-rule="evenodd" fill="none" stroke="#000000" stroke-width="0.504" stroke-miterlimit="2.4142" d="     M444.896,270.684c-1.562-0.389-2.518-1.985-2.109-3.617c0.389-1.563,1.985-2.521,3.547-2.132c1.631,0.406,2.59,2.005,2.2,3.564     C448.127,270.133,446.529,271.092,444.896,270.684L444.896,270.684z"/>
<path fill-rule="evenodd" clip-rule="evenodd" fill="none" stroke="#000000" stroke-width="0.504" stroke-miterlimit="2.4142" d="     M438.049,274.315c-1.563-0.389-2.52-1.984-2.111-3.617c0.391-1.563,1.986-2.521,3.549-2.132c1.631,0.405,2.592,2.005,2.2,3.563     C441.279,273.763,439.682,274.723,438.049,274.315L438.049,274.315z"/>
<path fill-rule="evenodd" clip-rule="evenodd" fill="none" stroke="#000000" stroke-width="0.504" stroke-miterlimit="2.4142" d="     M449.462,276.95c-1.563-0.389-2.52-1.984-2.112-3.617c0.391-1.563,1.987-2.521,3.549-2.132c1.631,0.405,2.592,2.005,2.201,3.563     C452.692,276.398,451.094,277.358,449.462,276.95L449.462,276.95z"/>
<path fill-rule="evenodd" clip-rule="evenodd" fill="none" stroke="#000000" stroke-width="0.504" stroke-miterlimit="2.4142" d="     M442.611,280.582c-1.56-0.389-2.518-1.985-2.11-3.618c0.39-1.562,1.986-2.52,3.548-2.131c1.633,0.405,2.593,2.004,2.203,3.564     C445.844,280.03,444.246,280.99,442.611,280.582L442.611,280.582z"/>
<path fill-rule="evenodd" clip-rule="evenodd" fill="none" stroke="#000000" stroke-width="0.504" stroke-miterlimit="2.4142" d="     M435.766,284.212c-1.562-0.389-2.521-1.985-2.113-3.617c0.391-1.563,1.986-2.521,3.551-2.132c1.629,0.406,2.592,2.006,2.2,3.564     C438.996,283.661,437.398,284.622,435.766,284.212L435.766,284.212z"/>
<path fill-rule="evenodd" clip-rule="evenodd" fill="none" stroke="#000000" stroke-width="0.504" stroke-miterlimit="2.4142" d="     M447.178,286.847c-1.563-0.389-2.521-1.985-2.113-3.617c0.391-1.563,1.986-2.521,3.551-2.132     c1.629,0.406,2.592,2.006,2.199,3.564C450.408,286.295,448.811,287.256,447.178,286.847L447.178,286.847z"/>
<path fill-rule="evenodd" clip-rule="evenodd" fill="none" stroke="#000000" stroke-width="0.504" stroke-miterlimit="2.4142" d="     M440.329,290.479c-1.563-0.39-2.522-1.985-2.113-3.618c0.391-1.563,1.985-2.521,3.55-2.131c1.629,0.405,2.591,2.005,2.201,3.563     C443.557,289.926,441.959,290.887,440.329,290.479L440.329,290.479z"/>
<path fill-rule="evenodd" clip-rule="evenodd" fill="none" stroke="#000000" stroke-width="0.504" stroke-miterlimit="2.4142" d="     M433.48,294.108c-1.563-0.387-2.521-1.983-2.113-3.617c0.391-1.56,1.987-2.518,3.551-2.129c1.627,0.404,2.592,2.002,2.198,3.563     C436.709,293.559,435.112,294.519,433.48,294.108L433.48,294.108z"/>
<path fill-rule="evenodd" clip-rule="evenodd" fill="none" stroke="#000000" stroke-width="0.504" stroke-miterlimit="2.4142" d="     M444.894,296.744c-1.563-0.388-2.522-1.984-2.113-3.618c0.39-1.56,1.987-2.518,3.55-2.129c1.627,0.405,2.592,2.002,2.199,3.563     C448.121,296.194,446.525,297.154,444.894,296.744L444.894,296.744z"/>
<path fill-rule="evenodd" clip-rule="evenodd" fill="none" stroke="#000000" stroke-width="0.504" stroke-miterlimit="2.4142" d="     M438.047,300.375c-1.564-0.389-2.523-1.985-2.114-3.617c0.391-1.563,1.985-2.521,3.548-2.13c1.629,0.404,2.594,2.001,2.199,3.562     C441.274,299.825,439.676,300.784,438.047,300.375L438.047,300.375z"/>
</g></switch>
</svg>