<?xml version="1.0" encoding="utf-8"?>
<!DOCTYPE svg PUBLIC "-//W3C//DTD SVG 1.1//EN" "http://www.w3.org/Graphics/SVG/1.1/DTD/svg11.dtd">
<svg version="1.1" id="Armor" xmlns="http://www.w3.org/2000/svg" xmlns:xlink="http://www.w3.org/1999/xlink" x="0px" y="0px"
	 width="612px" height="792px" viewBox="0 0 612 792" enable-background="new 0 0 612 792" xml:space="preserve">
<switch><g>
<path fill="none" stroke="#000000" stroke-width="0.504" stroke-miterlimit="2.4142" d="M425.887,80.937     c-1.666-0.144-2.93-1.652-2.783-3.312c0.148-1.731,1.652-2.925,3.312-2.779c1.732,0.151,3,1.586,2.852,3.319     C429.117,79.825,427.615,81.088,425.887,80.937L425.887,80.937z"/>
<path fill="none" stroke="#000000" stroke-width="0.504" stroke-miterlimit="2.4142" d="M419.783,85.62     c-1.662-0.145-2.928-1.651-2.779-3.312c0.15-1.73,1.646-2.924,3.313-2.78c1.729,0.152,3.002,1.589,2.85,3.32     C423.021,84.509,421.51,85.771,419.783,85.62L419.783,85.62z"/>
<path fill="none" stroke="#000000" stroke-width="0.504" stroke-miterlimit="2.4142" d="M431.078,86.608     c-1.662-0.146-2.929-1.652-2.779-3.312c0.148-1.729,1.646-2.924,3.313-2.78c1.729,0.152,3,1.59,2.848,3.321     C434.313,85.498,432.807,86.759,431.078,86.608L431.078,86.608z"/>
<path fill="none" stroke="#000000" stroke-width="0.504" stroke-miterlimit="2.4142" d="M424.98,91.291     c-1.665-0.145-2.93-1.652-2.783-3.312c0.147-1.731,1.651-2.926,3.311-2.779c1.732,0.15,3.001,1.586,2.853,3.318     C428.212,90.179,426.709,91.441,424.98,91.291L424.98,91.291z"/>
<path fill="none" stroke="#000000" stroke-width="0.504" stroke-miterlimit="2.4142" d="M418.881,95.974     c-1.665-0.144-2.93-1.652-2.784-3.311c0.149-1.73,1.652-2.926,3.313-2.779c1.731,0.15,3.004,1.587,2.853,3.318     C422.114,94.862,420.607,96.126,418.881,95.974L418.881,95.974z"/>
<path fill="none" stroke="#000000" stroke-width="0.504" stroke-miterlimit="2.4142" d="M430.176,96.962     c-1.664-0.144-2.93-1.652-2.785-3.311c0.148-1.732,1.656-2.926,3.317-2.779c1.729,0.149,2.997,1.586,2.847,3.319     C433.408,95.85,431.904,97.112,430.176,96.962L430.176,96.962z"/>
<path fill="none" stroke="#000000" stroke-width="0.504" stroke-miterlimit="2.4142" d="M424.072,101.646     c-1.665-0.146-2.924-1.653-2.78-3.312c0.151-1.731,1.65-2.926,3.313-2.783c1.729,0.153,2.996,1.591,2.848,3.322     C427.311,100.533,425.799,101.798,424.072,101.646L424.072,101.646z"/>
<path fill="none" stroke="#000000" stroke-width="0.504" stroke-miterlimit="2.4142" d="M417.971,106.328     c-1.662-0.144-2.922-1.65-2.778-3.312c0.151-1.729,1.649-2.924,3.313-2.78c1.728,0.151,3,1.59,2.851,3.32     C421.211,105.216,419.701,106.481,417.971,106.328L417.971,106.328z"/>
<path fill="none" stroke="#000000" stroke-width="0.504" stroke-miterlimit="2.4142" d="M429.266,107.316     c-1.659-0.144-2.926-1.649-2.78-3.311c0.153-1.731,1.652-2.925,3.315-2.78c1.729,0.151,3,1.588,2.848,3.32     C432.504,106.204,430.996,107.47,429.266,107.316L429.266,107.316z"/>
<path fill="none" stroke="#000000" stroke-width="0.504" stroke-miterlimit="2.4142" d="M423.164,112     c-1.662-0.146-2.922-1.653-2.777-3.312c0.152-1.73,1.652-2.926,3.314-2.781c1.729,0.152,2.996,1.59,2.846,3.32     C426.397,110.886,424.896,112.151,423.164,112L423.164,112z"/>
<path fill="none" stroke="#000000" stroke-width="0.504" stroke-miterlimit="2.4142" d="M417.063,116.683     c-1.66-0.146-2.921-1.651-2.777-3.313c0.151-1.73,1.651-2.924,3.313-2.779c1.73,0.152,3,1.588,2.849,3.32     C420.301,115.57,418.797,116.834,417.063,116.683L417.063,116.683z"/>
<path fill="none" stroke="#000000" stroke-width="0.504" stroke-miterlimit="2.4142" d="M428.361,117.671     c-1.66-0.144-2.927-1.651-2.781-3.311c0.147-1.73,1.654-2.925,3.318-2.78c1.729,0.152,2.995,1.589,2.842,3.32     C431.594,116.561,430.092,117.824,428.361,117.671L428.361,117.671z"/>
<path fill="none" stroke="#000000" stroke-width="0.504" stroke-miterlimit="2.4142" d="M422.26,122.354     c-1.66-0.145-2.924-1.652-2.779-3.311c0.152-1.732,1.648-2.926,3.313-2.781c1.73,0.15,2.999,1.59,2.847,3.32     C425.496,121.241,423.988,122.506,422.26,122.354L422.26,122.354z"/>
<path fill="none" stroke="#000000" stroke-width="0.504" stroke-miterlimit="2.4142" d="M416.16,127.037     c-1.658-0.146-2.926-1.651-2.781-3.313c0.154-1.731,1.649-2.926,3.313-2.78c1.729,0.151,3.003,1.588,2.849,3.318     C419.398,125.925,417.889,127.188,416.16,127.037L416.16,127.037z"/>
<path fill="none" stroke="#000000" stroke-width="0.504" stroke-miterlimit="2.4142" d="M427.455,128.025     c-1.658-0.146-2.928-1.65-2.785-3.313c0.156-1.731,1.654-2.925,3.316-2.779c1.729,0.152,3,1.588,2.849,3.319     C430.693,126.913,429.186,128.177,427.455,128.025L427.455,128.025z"/>
<path fill="none" stroke="#000000" stroke-width="0.504" stroke-miterlimit="2.4142" d="M421.355,132.708     c-1.664-0.146-2.927-1.651-2.779-3.312c0.149-1.731,1.647-2.926,3.313-2.781c1.728,0.151,2.994,1.589,2.843,3.321     C424.59,131.596,423.086,132.859,421.355,132.708L421.355,132.708z"/>
<path fill="none" stroke="#000000" stroke-width="0.504" stroke-miterlimit="2.4142" d="M415.254,137.392     c-1.664-0.146-2.926-1.651-2.777-3.311c0.148-1.734,1.65-2.928,3.313-2.783c1.727,0.151,2.998,1.588,2.848,3.322     C418.492,136.279,416.984,137.543,415.254,137.392L415.254,137.392z"/>
<path fill="none" stroke="#000000" stroke-width="0.504" stroke-miterlimit="2.4142" d="M426.549,138.379     c-1.662-0.144-2.928-1.649-2.783-3.31c0.152-1.731,1.656-2.926,3.318-2.783c1.727,0.152,2.996,1.589,2.842,3.324     C429.785,137.269,428.279,138.531,426.549,138.379L426.549,138.379z"/>
<path fill="none" stroke="#000000" stroke-width="0.504" stroke-miterlimit="2.4142" d="M420.449,143.061     c-1.664-0.144-2.926-1.649-2.779-3.31c0.15-1.731,1.648-2.926,3.313-2.781c1.729,0.151,2.998,1.589,2.842,3.321     C423.684,141.95,422.178,143.213,420.449,143.061L420.449,143.061z"/>
<path fill="none" stroke="#000000" stroke-width="0.504" stroke-miterlimit="2.4142" d="M414.35,147.745     c-1.665-0.145-2.927-1.651-2.78-3.312c0.151-1.731,1.648-2.926,3.313-2.781c1.729,0.151,3.001,1.589,2.847,3.322     C417.586,146.632,416.076,147.896,414.35,147.745L414.35,147.745z"/>
<path fill="none" stroke="#000000" stroke-width="0.504" stroke-miterlimit="2.4142" d="M425.645,148.733     c-1.661-0.145-2.928-1.651-2.783-3.312c0.153-1.731,1.654-2.925,3.317-2.78c1.729,0.151,2.999,1.588,2.843,3.32     C428.882,147.622,427.374,148.884,425.645,148.733L425.645,148.733z"/>
<path fill="none" stroke="#000000" stroke-width="0.504" stroke-miterlimit="2.4142" d="M419.543,153.415     c-1.66-0.144-2.924-1.651-2.781-3.311c0.154-1.732,1.652-2.926,3.313-2.78c1.729,0.151,3.001,1.587,2.844,3.319     C422.777,152.302,421.273,153.566,419.543,153.415L419.543,153.415z"/>
<path fill="none" stroke="#000000" stroke-width="0.504" stroke-miterlimit="2.4142" d="M413.441,158.099     c-1.66-0.144-2.923-1.652-2.777-3.312c0.15-1.732,1.651-2.924,3.313-2.78c1.728,0.152,3,1.588,2.847,3.32     C416.682,156.986,415.174,158.251,413.441,158.099L413.441,158.099z"/>
<path fill="none" stroke="#000000" stroke-width="0.504" stroke-miterlimit="2.4142" d="M424.736,159.086     c-1.661-0.141-2.927-1.65-2.781-3.311c0.15-1.731,1.655-2.925,3.314-2.779c1.729,0.151,2.999,1.588,2.846,3.319     C427.973,157.975,426.469,159.239,424.736,159.086L424.736,159.086z"/>
<path fill="none" stroke="#000000" stroke-width="0.504" stroke-miterlimit="2.4142" d="M418.637,163.77     c-1.662-0.145-2.923-1.651-2.778-3.311c0.151-1.733,1.651-2.925,3.313-2.78c1.728,0.151,2.996,1.588,2.842,3.32     C421.874,162.657,420.367,163.921,418.637,163.77L418.637,163.77z"/>
<path fill="none" stroke="#000000" stroke-width="0.504" stroke-miterlimit="2.4142" d="M412.535,168.452     c-1.661-0.145-2.922-1.651-2.777-3.311c0.15-1.732,1.652-2.924,3.313-2.779c1.727,0.15,3,1.586,2.848,3.319     C415.775,167.341,414.268,168.604,412.535,168.452L412.535,168.452z"/>
<path fill="none" stroke="#000000" stroke-width="0.504" stroke-miterlimit="2.4142" d="M423.83,169.44     c-1.66-0.143-2.925-1.651-2.779-3.311c0.148-1.732,1.654-2.925,3.314-2.779c1.729,0.151,2.996,1.587,2.846,3.319     C427.068,168.328,425.563,169.593,423.83,169.44L423.83,169.44z"/>
<path fill="none" stroke="#000000" stroke-width="0.504" stroke-miterlimit="2.4142" d="M417.73,174.123     c-1.662-0.145-2.923-1.651-2.779-3.311c0.152-1.732,1.652-2.924,3.313-2.78c1.728,0.152,2.996,1.588,2.843,3.321     C420.968,173.012,419.462,174.274,417.73,174.123L417.73,174.123z"/>
</g></switch>
</svg>