<?xml version="1.0" encoding="utf-8"?>
<!DOCTYPE svg PUBLIC "-//W3C//DTD SVG 1.1//EN" "http://www.w3.org/Graphics/SVG/1.1/DTD/svg11.dtd">
<svg version="1.1" id="Armor" xmlns="http://www.w3.org/2000/svg" xmlns:xlink="http://www.w3.org/1999/xlink" x="0px" y="0px"
	 width="612px" height="792px" viewBox="0 0 612 792" enable-background="new 0 0 612 792" xml:space="preserve">
<switch><g>
<path fill-rule="evenodd" clip-rule="evenodd" fill="none" stroke="#000000" stroke-width="0.504" stroke-miterlimit="2.4142" d="     M456.908,188.517c-1.564-0.392-2.521-1.985-2.111-3.618c0.391-1.563,1.985-2.519,3.545-2.135     c1.635,0.409,2.594,2.006,2.201,3.569C460.139,187.964,458.537,188.926,456.908,188.517L456.908,188.517z"/>
<path fill-rule="evenodd" clip-rule="evenodd" fill="none" stroke="#000000" stroke-width="0.504" stroke-miterlimit="2.4142" d="     M468.328,191.146c-1.567-0.384-2.521-1.982-2.116-3.61c0.395-1.566,1.985-2.525,3.545-2.137c1.633,0.409,2.599,2.012,2.204,3.567     C471.557,190.598,469.956,191.563,468.328,191.146L468.328,191.146z"/>
<path fill-rule="evenodd" clip-rule="evenodd" fill="none" stroke="#000000" stroke-width="0.504" stroke-miterlimit="2.4142" d="     M458.426,207.978c-1.562-0.389-2.516-1.984-2.106-3.616c0.388-1.567,1.983-2.523,3.548-2.132     c1.628,0.406,2.585,2.004,2.197,3.565C461.657,207.425,460.065,208.388,458.426,207.978L458.426,207.978z"/>
<path fill-rule="evenodd" clip-rule="evenodd" fill="none" stroke="#000000" stroke-width="0.504" stroke-miterlimit="2.4142" d="     M448.534,224.805c-1.562-0.389-2.524-1.983-2.116-3.616c0.391-1.566,1.988-2.521,3.557-2.132     c1.627,0.404,2.591,2.005,2.196,3.563C451.77,224.25,450.169,225.212,448.534,224.805L448.534,224.805z"/>
<path fill-rule="evenodd" clip-rule="evenodd" fill="none" stroke="#000000" stroke-width="0.504" stroke-miterlimit="2.4142" d="     M459.949,227.438c-1.564-0.388-2.524-1.985-2.115-3.616c0.389-1.563,1.985-2.521,3.548-2.131c1.63,0.402,2.591,2.002,2.201,3.563     C463.183,226.886,461.581,227.847,459.949,227.438L459.949,227.438z"/>
<path fill-rule="evenodd" clip-rule="evenodd" fill="none" stroke="#000000" stroke-width="0.504" stroke-miterlimit="2.4142" d="     M450.049,244.266c-1.557-0.393-2.512-1.986-2.111-3.617c0.393-1.564,1.992-2.524,3.547-2.131     c1.639,0.401,2.596,2.004,2.203,3.561C453.279,243.714,451.686,244.673,450.049,244.266L450.049,244.266z"/>
<path fill-rule="evenodd" clip-rule="evenodd" fill="none" stroke="#000000" stroke-width="0.504" stroke-miterlimit="2.4142" d="     M440.155,261.093c-1.563-0.387-2.518-1.984-2.116-3.621c0.397-1.557,1.992-2.516,3.557-2.125c1.631,0.407,2.594,2.002,2.2,3.564     C443.387,260.542,441.788,261.503,440.155,261.093L440.155,261.093z"/>
<path fill-rule="evenodd" clip-rule="evenodd" fill="none" stroke="#000000" stroke-width="0.504" stroke-miterlimit="2.4142" d="     M451.568,263.729c-1.563-0.389-2.521-1.986-2.114-3.617c0.389-1.559,1.99-2.521,3.553-2.131c1.629,0.407,2.593,2.005,2.196,3.565     C454.8,263.177,453.202,264.138,451.568,263.729L451.568,263.729z"/>
<path fill-rule="evenodd" clip-rule="evenodd" fill="none" stroke="#000000" stroke-width="0.504" stroke-miterlimit="2.4142" d="     M441.674,280.556c-1.561-0.39-2.525-1.984-2.108-3.619c0.383-1.563,1.976-2.521,3.544-2.13c1.629,0.403,2.592,2.003,2.205,3.562     C444.9,280.001,443.301,280.963,441.674,280.556L441.674,280.556z"/>
<path fill-rule="evenodd" clip-rule="evenodd" fill="none" stroke="#000000" stroke-width="0.504" stroke-miterlimit="2.4142" d="     M431.775,297.382c-1.563-0.385-2.52-1.985-2.113-3.621c0.395-1.555,1.988-2.512,3.557-2.126c1.621,0.405,2.589,1.999,2.191,3.563     C435.006,296.835,433.408,297.793,431.775,297.382L431.775,297.382z"/>
<path fill-rule="evenodd" clip-rule="evenodd" fill="none" stroke="#000000" stroke-width="0.504" stroke-miterlimit="2.4142" d="     M443.192,300.02c-1.566-0.384-2.524-1.984-2.116-3.618c0.393-1.561,1.99-2.516,3.55-2.131c1.627,0.41,2.593,2.002,2.201,3.566     C446.418,299.468,444.82,300.431,443.192,300.02L443.192,300.02z"/>
</g></switch>
</svg>