<?xml version="1.0" encoding="utf-8"?>
<!DOCTYPE svg PUBLIC "-//W3C//DTD SVG 1.1//EN" "http://www.w3.org/Graphics/SVG/1.1/DTD/svg11.dtd">
<svg version="1.1" id="Armor" xmlns="http://www.w3.org/2000/svg" xmlns:xlink="http://www.w3.org/1999/xlink" x="0px" y="0px"
	 width="612px" height="792px" viewBox="0 0 612 792" enable-background="new 0 0 612 792" xml:space="preserve">
<switch><g>
<path fill="none" stroke="#000000" stroke-width="0.504" stroke-miterlimit="2.4142" d="M557.481,80.855     c1.663-0.145,2.918-1.652,2.771-3.313c-0.149-1.731-1.646-2.923-3.312-2.779c-1.728,0.15-2.996,1.59-2.85,3.321     C554.244,79.74,555.749,81.01,557.481,80.855L557.481,80.855z"/>
<path fill="none" stroke="#000000" stroke-width="0.504" stroke-miterlimit="2.4142" d="M564.033,90.713     c1.661-0.144,2.916-1.649,2.771-3.31c-0.15-1.729-1.646-2.923-3.308-2.779c-1.732,0.152-3.006,1.589-2.854,3.318     C560.795,89.605,562.301,90.87,564.033,90.713L564.033,90.713z"/>
<path fill="none" stroke="#000000" stroke-width="0.504" stroke-miterlimit="2.4142" d="M552.731,91.703     c1.663-0.144,2.923-1.652,2.783-3.309c-0.153-1.73-1.652-2.924-3.32-2.78c-1.727,0.152-2.998,1.587-2.841,3.321     C549.498,90.594,551.003,91.856,552.731,91.703L552.731,91.703z"/>
<path fill="none" stroke="#000000" stroke-width="0.504" stroke-miterlimit="2.4142" d="M559.289,101.565     c1.664-0.146,2.922-1.653,2.777-3.312c-0.154-1.734-1.644-2.927-3.308-2.783c-1.735,0.151-3.006,1.589-2.854,3.321     C556.049,100.451,557.561,101.716,559.289,101.565L559.289,101.565z"/>
<path fill="none" stroke="#000000" stroke-width="0.504" stroke-miterlimit="2.4142" d="M565.838,111.421     c1.667-0.146,2.929-1.65,2.779-3.313c-0.15-1.732-1.642-2.924-3.308-2.775c-1.729,0.147-3.008,1.581-2.856,3.314     C562.604,110.309,564.115,111.573,565.838,111.421L565.838,111.421z"/>
<path fill="none" stroke="#000000" stroke-width="0.504" stroke-miterlimit="2.4142" d="M554.54,112.412     c1.669-0.144,2.931-1.652,2.785-3.313c-0.151-1.733-1.646-2.924-3.313-2.778c-1.728,0.152-2.998,1.586-2.851,3.317     C551.307,111.298,552.817,112.563,554.54,112.412L554.54,112.412z"/>
<path fill="none" stroke="#000000" stroke-width="0.504" stroke-miterlimit="2.4142" d="M561.097,122.272     c1.669-0.143,2.927-1.648,2.781-3.31c-0.154-1.732-1.646-2.925-3.315-2.781c-1.721,0.153-2.997,1.59-2.845,3.322     C557.862,121.164,559.367,122.426,561.097,122.272L561.097,122.272z"/>
<path fill="none" stroke="#000000" stroke-width="0.504" stroke-miterlimit="2.4142" d="M567.653,132.132     c1.668-0.145,2.924-1.652,2.773-3.313c-0.146-1.73-1.646-2.924-3.311-2.779c-1.725,0.151-2.999,1.585-2.851,3.318     C564.413,131.019,565.925,132.284,567.653,132.132L567.653,132.132z"/>
<path fill="none" stroke="#000000" stroke-width="0.504" stroke-miterlimit="2.4142" d="M556.355,133.124     c1.664-0.146,2.927-1.653,2.778-3.313c-0.146-1.731-1.646-2.926-3.313-2.782c-1.724,0.153-2.991,1.589-2.843,3.321     C553.12,132.011,554.627,133.275,556.355,133.124L556.355,133.124z"/>
<path fill="none" stroke="#000000" stroke-width="0.504" stroke-miterlimit="2.4142" d="M562.909,142.984     c1.666-0.144,2.927-1.652,2.776-3.313c-0.151-1.729-1.642-2.924-3.309-2.782c-1.726,0.155-3.004,1.592-2.848,3.323     C559.671,141.869,561.186,143.135,562.909,142.984L562.909,142.984z"/>
<path fill="none" stroke="#000000" stroke-width="0.504" stroke-miterlimit="2.4142" d="M569.463,152.841     c1.668-0.146,2.928-1.652,2.779-3.314c-0.148-1.73-1.646-2.925-3.313-2.778c-1.724,0.151-3.006,1.587-2.849,3.322     C566.227,151.727,567.735,152.992,569.463,152.841L569.463,152.841z"/>
<path fill="none" stroke="#000000" stroke-width="0.504" stroke-miterlimit="2.4142" d="M558.168,153.83     c1.664-0.144,2.925-1.649,2.778-3.31c-0.153-1.735-1.647-2.927-3.313-2.782c-1.729,0.151-3.002,1.585-2.849,3.321     C554.929,152.72,556.438,153.981,558.168,153.83L558.168,153.83z"/>
<path fill="none" stroke="#000000" stroke-width="0.504" stroke-miterlimit="2.4142" d="M564.723,163.691     c1.661-0.146,2.924-1.653,2.778-3.312c-0.155-1.733-1.647-2.925-3.313-2.782c-1.726,0.151-3.002,1.588-2.845,3.321     C561.48,162.578,562.993,163.841,564.723,163.691L564.723,163.691z"/>
<path fill="none" stroke="#000000" stroke-width="0.504" stroke-miterlimit="2.4142" d="M571.274,173.548     c1.666-0.143,2.924-1.65,2.779-3.311c-0.152-1.733-1.65-2.926-3.311-2.778c-1.729,0.148-3.005,1.585-2.854,3.318     C568.032,172.438,569.548,173.701,571.274,173.548L571.274,173.548z"/>
<path fill="none" stroke="#000000" stroke-width="0.504" stroke-miterlimit="2.4142" d="M559.979,174.536     c1.665-0.138,2.927-1.65,2.775-3.309c-0.147-1.733-1.646-2.926-3.309-2.777c-1.728,0.147-2.998,1.584-2.846,3.317     C556.743,173.425,558.249,174.691,559.979,174.536L559.979,174.536z"/>
</g></switch>
</svg>