<?xml version="1.0" encoding="utf-8"?>
<!DOCTYPE svg PUBLIC "-//W3C//DTD SVG 1.1//EN" "http://www.w3.org/Graphics/SVG/1.1/DTD/svg11.dtd">
<svg version="1.1" id="Armor" xmlns="http://www.w3.org/2000/svg" xmlns:xlink="http://www.w3.org/1999/xlink" x="0px" y="0px"
	 width="612px" height="792px" viewBox="0 0 612 792" enable-background="new 0 0 612 792" xml:space="preserve">
<switch><g>
<path fill="none" stroke="#000000" stroke-width="0.504" stroke-miterlimit="2.4142" d="M425.786,80.818     c-1.664-0.146-2.923-1.653-2.776-3.313c0.152-1.732,1.645-2.927,3.307-2.783c1.733,0.152,3.006,1.59,2.855,3.321     C429.025,79.704,427.513,80.969,425.786,80.818L425.786,80.818z"/>
<path fill="none" stroke="#000000" stroke-width="0.504" stroke-miterlimit="2.4142" d="M419.125,91.969     c-1.667-0.146-2.931-1.65-2.781-3.313c0.149-1.73,1.644-2.926,3.311-2.775c1.728,0.148,3.004,1.581,2.854,3.313     C422.358,90.856,420.847,92.12,419.125,91.969L419.125,91.969z"/>
<path fill="none" stroke="#000000" stroke-width="0.504" stroke-miterlimit="2.4142" d="M430.422,92.959     c-1.67-0.144-2.932-1.652-2.785-3.312c0.148-1.732,1.646-2.925,3.316-2.779c1.725,0.151,2.996,1.586,2.85,3.317     C433.654,91.846,432.143,93.11,430.422,92.959L430.422,92.959z"/>
<path fill="none" stroke="#000000" stroke-width="0.504" stroke-miterlimit="2.4142" d="M423.752,104.114     c-1.67-0.146-2.927-1.649-2.781-3.313c0.153-1.732,1.646-2.925,3.316-2.781c1.719,0.152,2.998,1.59,2.846,3.323     C426.986,103.004,425.479,104.266,423.752,104.114L423.752,104.114z"/>
<path fill="none" stroke="#000000" stroke-width="0.504" stroke-miterlimit="2.4142" d="M417.082,115.268     c-1.666-0.146-2.924-1.652-2.775-3.314c0.146-1.73,1.646-2.924,3.312-2.777c1.723,0.149,3.002,1.584,2.85,3.317     C420.324,114.153,418.809,115.419,417.082,115.268L417.082,115.268z"/>
<path fill="none" stroke="#000000" stroke-width="0.504" stroke-miterlimit="2.4142" d="M428.379,116.257     c-1.666-0.146-2.926-1.651-2.777-3.313c0.148-1.732,1.646-2.926,3.314-2.781c1.721,0.15,2.992,1.587,2.842,3.322     C431.615,115.146,430.107,116.408,428.379,116.257L428.379,116.257z"/>
<path fill="none" stroke="#000000" stroke-width="0.504" stroke-miterlimit="2.4142" d="M421.712,127.411     c-1.667-0.144-2.925-1.65-2.778-3.312c0.152-1.73,1.644-2.925,3.312-2.783c1.725,0.154,3.003,1.591,2.848,3.322     C424.95,126.297,423.436,127.563,421.712,127.411L421.712,127.411z"/>
<path fill="none" stroke="#000000" stroke-width="0.504" stroke-miterlimit="2.4142" d="M415.047,138.564     c-1.668-0.146-2.928-1.652-2.779-3.314c0.148-1.729,1.646-2.926,3.313-2.778c1.723,0.15,3.006,1.588,2.848,3.323     C418.281,137.45,416.771,138.715,415.047,138.564L415.047,138.564z"/>
<path fill="none" stroke="#000000" stroke-width="0.504" stroke-miterlimit="2.4142" d="M426.342,139.553     c-1.666-0.144-2.926-1.646-2.778-3.311c0.153-1.734,1.646-2.927,3.313-2.782c1.728,0.151,3.002,1.586,2.848,3.321     C429.58,138.442,428.072,139.703,426.342,139.553L426.342,139.553z"/>
<path fill="none" stroke="#000000" stroke-width="0.504" stroke-miterlimit="2.4142" d="M419.674,150.707     c-1.664-0.144-2.922-1.652-2.776-3.312c0.152-1.732,1.646-2.925,3.313-2.781c1.725,0.15,3.002,1.588,2.846,3.319     C422.916,149.596,421.403,150.857,419.674,150.707L419.674,150.707z"/>
<path fill="none" stroke="#000000" stroke-width="0.504" stroke-miterlimit="2.4142" d="M413.008,161.858     c-1.666-0.143-2.924-1.649-2.779-3.31c0.152-1.734,1.65-2.927,3.313-2.779c1.725,0.148,3.002,1.585,2.85,3.318     C416.25,160.748,414.734,162.012,413.008,161.858L413.008,161.858z"/>
<path fill="none" stroke="#000000" stroke-width="0.504" stroke-miterlimit="2.4142" d="M424.303,162.845     c-1.667-0.138-2.926-1.647-2.774-3.31c0.147-1.731,1.645-2.925,3.31-2.775c1.727,0.146,2.997,1.584,2.846,3.316     C427.539,161.733,426.033,162.999,424.303,162.845L424.303,162.845z"/>
<path fill="none" stroke="#000000" stroke-width="0.504" stroke-miterlimit="2.4142" d="M417.636,174.003     c-1.663-0.144-2.922-1.651-2.777-3.311c0.153-1.733,1.646-2.925,3.313-2.782c1.725,0.15,3.003,1.588,2.846,3.32     C420.878,172.892,419.365,174.153,417.636,174.003L417.636,174.003z"/>
</g></switch>
</svg>