<?xml version="1.0" encoding="utf-8"?>
<!DOCTYPE svg PUBLIC "-//W3C//DTD SVG 1.1//EN" "http://www.w3.org/Graphics/SVG/1.1/DTD/svg11.dtd">
<svg version="1.1" id="Armor" xmlns="http://www.w3.org/2000/svg" xmlns:xlink="http://www.w3.org/1999/xlink" x="0px" y="0px"
	 width="612px" height="792px" viewBox="0 0 612 792" enable-background="new 0 0 612 792" xml:space="preserve">
<switch><g>
<path fill-rule="evenodd" clip-rule="evenodd" fill="none" stroke="#000000" stroke-width="0.504" stroke-miterlimit="2.4142" d="     M526.687,216.961c1.562-0.39,2.521-1.986,2.113-3.619c-0.389-1.563-1.984-2.521-3.547-2.131c-1.63,0.406-2.592,2.003-2.203,3.565     C523.457,216.408,525.057,217.368,526.687,216.961L526.687,216.961z"/>
<path fill-rule="evenodd" clip-rule="evenodd" fill="none" stroke="#000000" stroke-width="0.504" stroke-miterlimit="2.4142" d="     M538.814,265.605c1.563-0.39,2.521-1.984,2.114-3.619c-0.39-1.562-1.989-2.521-3.552-2.131c-1.629,0.407-2.588,2.003-2.198,3.565     C535.585,265.054,537.181,266.012,538.814,265.605L538.814,265.605z"/>
</g></switch>
</svg>