<?xml version="1.0" encoding="utf-8"?>
<!DOCTYPE svg PUBLIC "-//W3C//DTD SVG 1.1//EN" "http://www.w3.org/Graphics/SVG/1.1/DTD/svg11.dtd">
<svg version="1.1" id="Armor" xmlns="http://www.w3.org/2000/svg" xmlns:xlink="http://www.w3.org/1999/xlink" x="0px" y="0px"
	 width="612px" height="792px" viewBox="0 0 612 792" enable-background="new 0 0 612 792" xml:space="preserve">
<switch><g>
<path fill-rule="evenodd" clip-rule="evenodd" fill="none" stroke="#000000" stroke-width="0.504" stroke-miterlimit="2.4142" d="     M525.89,189.435c1.563-0.391,2.521-1.987,2.121-3.621c-0.393-1.563-1.986-2.519-3.549-2.133c-1.63,0.409-2.594,2.002-2.2,3.567     C522.663,188.882,524.263,189.84,525.89,189.435L525.89,189.435z"/>
<path fill-rule="evenodd" clip-rule="evenodd" fill="none" stroke="#000000" stroke-width="0.504" stroke-miterlimit="2.4142" d="     M514.479,192.067c1.563-0.388,2.518-1.983,2.118-3.62c-0.394-1.561-1.988-2.518-3.55-2.131c-1.631,0.41-2.592,2.002-2.201,3.566     C511.251,191.515,512.85,192.476,514.479,192.067L514.479,192.067z"/>
<path fill-rule="evenodd" clip-rule="evenodd" fill="none" stroke="#000000" stroke-width="0.504" stroke-miterlimit="2.4142" d="     M522.283,199.822c1.563-0.389,2.521-1.985,2.111-3.616c-0.392-1.565-1.981-2.521-3.547-2.133     c-1.627,0.406-2.587,2.002-2.201,3.564C519.052,199.269,520.649,200.229,522.283,199.822L522.283,199.822z"/>
<path fill-rule="evenodd" clip-rule="evenodd" fill="none" stroke="#000000" stroke-width="0.504" stroke-miterlimit="2.4142" d="     M530.086,207.573c1.56-0.384,2.519-1.982,2.113-3.616c-0.394-1.558-1.985-2.521-3.548-2.127     c-1.633,0.401-2.593,2.003-2.203,3.564C526.855,207.028,528.454,207.988,530.086,207.573L530.086,207.573z"/>
<path fill-rule="evenodd" clip-rule="evenodd" fill="none" stroke="#000000" stroke-width="0.504" stroke-miterlimit="2.4142" d="     M518.674,210.21c1.56-0.387,2.517-1.981,2.11-3.615c-0.389-1.56-1.982-2.523-3.549-2.131c-1.629,0.404-2.594,2.004-2.199,3.566     C515.442,209.664,517.038,210.622,518.674,210.21L518.674,210.21z"/>
<path fill-rule="evenodd" clip-rule="evenodd" fill="none" stroke="#000000" stroke-width="0.504" stroke-miterlimit="2.4142" d="     M526.475,217.963c1.563-0.384,2.521-1.98,2.107-3.609c-0.388-1.564-1.982-2.524-3.546-2.133     c-1.627,0.402-2.588,2.003-2.195,3.565C523.244,217.419,524.84,218.377,526.475,217.963L526.475,217.963z"/>
<path fill-rule="evenodd" clip-rule="evenodd" fill="none" stroke="#000000" stroke-width="0.504" stroke-miterlimit="2.4142" d="     M534.275,225.722c1.563-0.389,2.522-1.986,2.115-3.617c-0.395-1.564-1.989-2.523-3.55-2.133     c-1.633,0.406-2.592,2.004-2.199,3.563C531.042,225.173,532.642,226.131,534.275,225.722L534.275,225.722z"/>
<path fill-rule="evenodd" clip-rule="evenodd" fill="none" stroke="#000000" stroke-width="0.504" stroke-miterlimit="2.4142" d="     M522.859,228.358c1.565-0.391,2.523-1.987,2.115-3.617c-0.392-1.565-1.985-2.524-3.548-2.135     c-1.633,0.407-2.592,2.003-2.201,3.563C519.628,227.809,521.228,228.765,522.859,228.358L522.859,228.358z"/>
<path fill-rule="evenodd" clip-rule="evenodd" fill="none" stroke="#000000" stroke-width="0.504" stroke-miterlimit="2.4142" d="     M530.668,236.111c1.561-0.391,2.515-1.985,2.104-3.614c-0.387-1.564-1.983-2.526-3.546-2.135     c-1.631,0.406-2.589,2.003-2.202,3.562C527.43,235.564,529.031,236.52,530.668,236.111L530.668,236.111z"/>
<path fill-rule="evenodd" clip-rule="evenodd" fill="none" stroke="#000000" stroke-width="0.504" stroke-miterlimit="2.4142" d="     M538.466,243.866c1.564-0.39,2.523-1.984,2.112-3.615c-0.391-1.565-1.985-2.521-3.546-2.135c-1.631,0.407-2.594,2.006-2.2,3.567     C535.237,243.314,536.839,244.278,538.466,243.866L538.466,243.866z"/>
<path fill-rule="evenodd" clip-rule="evenodd" fill="none" stroke="#000000" stroke-width="0.504" stroke-miterlimit="2.4142" d="     M527.049,246.501c1.563-0.385,2.522-1.983,2.113-3.611c-0.392-1.567-1.985-2.525-3.546-2.137c-1.631,0.408-2.595,2.008-2.2,3.566     C523.819,245.949,525.421,246.915,527.049,246.501L527.049,246.501z"/>
<path fill-rule="evenodd" clip-rule="evenodd" fill="none" stroke="#000000" stroke-width="0.504" stroke-miterlimit="2.4142" d="     M534.852,254.257c1.566-0.39,2.519-1.985,2.113-3.617c-0.392-1.566-1.987-2.523-3.551-2.132c-1.63,0.407-2.588,2.005-2.198,3.566     C531.624,253.704,533.217,254.666,534.852,254.257L534.852,254.257z"/>
<path fill-rule="evenodd" clip-rule="evenodd" fill="none" stroke="#000000" stroke-width="0.504" stroke-miterlimit="2.4142" d="     M542.651,262.012c1.563-0.389,2.523-1.986,2.115-3.618c-0.392-1.566-1.987-2.519-3.552-2.131c-1.628,0.404-2.593,2.005-2.2,3.561     C539.417,261.457,541.019,262.418,542.651,262.012L542.651,262.012z"/>
<path fill-rule="evenodd" clip-rule="evenodd" fill="none" stroke="#000000" stroke-width="0.504" stroke-miterlimit="2.4142" d="     M531.239,264.646c1.563-0.39,2.524-1.986,2.115-3.617c-0.392-1.564-1.988-2.519-3.549-2.132     c-1.633,0.404-2.592,2.005-2.203,3.563C528.007,264.094,529.606,265.055,531.239,264.646L531.239,264.646z"/>
<path fill-rule="evenodd" clip-rule="evenodd" fill="none" stroke="#000000" stroke-width="0.504" stroke-miterlimit="2.4142" d="     M539.043,272.4c1.559-0.39,2.514-1.985,2.112-3.616c-0.392-1.565-1.989-2.524-3.547-2.131c-1.638,0.403-2.597,2.003-2.204,3.561     C535.813,271.851,537.407,272.811,539.043,272.4L539.043,272.4z"/>
<path fill-rule="evenodd" clip-rule="evenodd" fill="none" stroke="#000000" stroke-width="0.504" stroke-miterlimit="2.4142" d="     M546.841,280.156c1.563-0.389,2.52-1.983,2.116-3.62c-0.394-1.559-1.989-2.518-3.554-2.127c-1.632,0.405-2.593,2.002-2.201,3.564     C543.612,279.604,545.208,280.565,546.841,280.156L546.841,280.156z"/>
<path fill-rule="evenodd" clip-rule="evenodd" fill="none" stroke="#000000" stroke-width="0.504" stroke-miterlimit="2.4142" d="     M535.429,282.791c1.563-0.387,2.523-1.983,2.115-3.619c-0.391-1.558-1.988-2.517-3.553-2.128     c-1.63,0.406-2.592,2.004-2.198,3.565C532.2,282.241,533.794,283.201,535.429,282.791L535.429,282.791z"/>
<path fill-rule="evenodd" clip-rule="evenodd" fill="none" stroke="#000000" stroke-width="0.504" stroke-miterlimit="2.4142" d="     M543.229,290.549c1.562-0.391,2.524-1.986,2.109-3.621c-0.384-1.562-1.979-2.519-3.547-2.132     c-1.627,0.406-2.59,2.004-2.203,3.564C540.002,289.993,541.6,290.954,543.229,290.549L543.229,290.549z"/>
<path fill-rule="evenodd" clip-rule="evenodd" fill="none" stroke="#000000" stroke-width="0.504" stroke-miterlimit="2.4142" d="     M551.032,298.301c1.563-0.386,2.522-1.985,2.113-3.62c-0.393-1.559-1.986-2.516-3.553-2.128c-1.625,0.404-2.59,1.998-2.197,3.563     C547.802,297.751,549.399,298.71,551.032,298.301L551.032,298.301z"/>
<path fill-rule="evenodd" clip-rule="evenodd" fill="none" stroke="#000000" stroke-width="0.504" stroke-miterlimit="2.4142" d="     M539.616,300.937c1.564-0.386,2.523-1.985,2.116-3.619c-0.39-1.559-1.988-2.519-3.55-2.13c-1.629,0.408-2.592,2.001-2.201,3.565     C536.389,300.386,537.987,301.347,539.616,300.937L539.616,300.937z"/>
</g></switch>
</svg>