<?xml version="1.0" encoding="utf-8"?>
<!DOCTYPE svg PUBLIC "-//W3C//DTD SVG 1.1//EN" "http://www.w3.org/Graphics/SVG/1.1/DTD/svg11.dtd">
<svg version="1.1" id="Armor" xmlns="http://www.w3.org/2000/svg" xmlns:xlink="http://www.w3.org/1999/xlink" x="0px" y="0px"
	 width="612px" height="792px" viewBox="0 0 612 792" enable-background="new 0 0 612 792" xml:space="preserve">
<switch><g>
<path fill-rule="evenodd" clip-rule="evenodd" fill="none" stroke="#000000" stroke-width="0.504" stroke-miterlimit="2.4142" d="     M520.197,190.215c1.559-0.388,2.515-1.983,2.104-3.612c-0.388-1.563-1.985-2.526-3.548-2.135c-1.629,0.407-2.588,2.004-2.2,3.56     C516.957,189.67,518.558,190.624,520.197,190.215L520.197,190.215z"/>
<path fill-rule="evenodd" clip-rule="evenodd" fill="none" stroke="#000000" stroke-width="0.504" stroke-miterlimit="2.4142" d="     M529.042,202.508c1.563-0.391,2.521-1.984,2.111-3.617c-0.391-1.564-1.985-2.521-3.545-2.135     c-1.635,0.408-2.594,2.006-2.201,3.569C525.813,201.954,527.413,202.918,529.042,202.508L529.042,202.508z"/>
<path fill-rule="evenodd" clip-rule="evenodd" fill="none" stroke="#000000" stroke-width="0.504" stroke-miterlimit="2.4142" d="     M517.623,205.142c1.566-0.384,2.521-1.982,2.116-3.61c-0.395-1.566-1.986-2.527-3.546-2.137c-1.633,0.408-2.598,2.01-2.203,3.567     C514.394,204.592,515.995,205.557,517.623,205.142L517.623,205.142z"/>
<path fill-rule="evenodd" clip-rule="evenodd" fill="none" stroke="#000000" stroke-width="0.504" stroke-miterlimit="2.4142" d="     M526.476,217.434c1.563-0.389,2.518-1.985,2.108-3.616c-0.388-1.567-1.984-2.523-3.548-2.132     c-1.629,0.406-2.586,2.004-2.197,3.565C523.246,216.882,524.838,217.844,526.476,217.434L526.476,217.434z"/>
<path fill-rule="evenodd" clip-rule="evenodd" fill="none" stroke="#000000" stroke-width="0.504" stroke-miterlimit="2.4142" d="     M535.322,229.726c1.561-0.39,2.523-1.983,2.114-3.617c-0.39-1.565-1.988-2.52-3.555-2.132c-1.627,0.404-2.591,2.005-2.196,3.563     C532.087,229.171,533.687,230.133,535.322,229.726L535.322,229.726z"/>
<path fill-rule="evenodd" clip-rule="evenodd" fill="none" stroke="#000000" stroke-width="0.504" stroke-miterlimit="2.4142" d="     M523.907,232.359c1.564-0.389,2.523-1.986,2.115-3.617c-0.39-1.563-1.985-2.52-3.549-2.131c-1.631,0.402-2.591,2.002-2.201,3.563     C520.673,231.808,522.276,232.769,523.907,232.359L523.907,232.359z"/>
<path fill-rule="evenodd" clip-rule="evenodd" fill="none" stroke="#000000" stroke-width="0.504" stroke-miterlimit="2.4142" d="     M532.76,244.65c1.558-0.393,2.511-1.986,2.111-3.617c-0.392-1.564-1.991-2.525-3.547-2.131c-1.639,0.402-2.596,2.004-2.203,3.562     C529.529,244.099,531.123,245.059,532.76,244.65L532.76,244.65z"/>
<path fill-rule="evenodd" clip-rule="evenodd" fill="none" stroke="#000000" stroke-width="0.504" stroke-miterlimit="2.4142" d="     M541.605,256.941c1.563-0.387,2.519-1.985,2.117-3.621c-0.396-1.557-1.991-2.516-3.557-2.125c-1.631,0.407-2.593,2.002-2.2,3.564     C538.375,256.391,539.974,257.352,541.605,256.941L541.605,256.941z"/>
<path fill-rule="evenodd" clip-rule="evenodd" fill="none" stroke="#000000" stroke-width="0.504" stroke-miterlimit="2.4142" d="     M530.192,259.577c1.563-0.389,2.522-1.985,2.114-3.617c-0.389-1.559-1.989-2.52-3.553-2.131     c-1.629,0.407-2.592,2.005-2.195,3.565C526.961,259.025,528.559,259.986,530.192,259.577L530.192,259.577z"/>
<path fill-rule="evenodd" clip-rule="evenodd" fill="none" stroke="#000000" stroke-width="0.504" stroke-miterlimit="2.4142" d="     M539.039,271.869c1.562-0.391,2.526-1.985,2.11-3.619c-0.384-1.563-1.978-2.521-3.544-2.131c-1.63,0.403-2.593,2.003-2.206,3.562     C535.813,271.313,537.412,272.276,539.039,271.869L539.039,271.869z"/>
<path fill-rule="evenodd" clip-rule="evenodd" fill="none" stroke="#000000" stroke-width="0.504" stroke-miterlimit="2.4142" d="     M547.893,284.158c1.561-0.385,2.519-1.985,2.112-3.621c-0.395-1.556-1.987-2.513-3.556-2.127     c-1.622,0.405-2.59,1.999-2.191,3.564C544.661,283.611,546.259,284.569,547.893,284.158L547.893,284.158z"/>
<path fill-rule="evenodd" clip-rule="evenodd" fill="none" stroke="#000000" stroke-width="0.504" stroke-miterlimit="2.4142" d="     M536.475,286.794c1.565-0.382,2.524-1.983,2.116-3.617c-0.392-1.56-1.99-2.517-3.55-2.131c-1.628,0.41-2.593,2.002-2.201,3.566     C533.248,286.243,534.848,287.205,536.475,286.794L536.475,286.794z"/>
<path fill-rule="evenodd" clip-rule="evenodd" fill="none" stroke="#000000" stroke-width="0.504" stroke-miterlimit="2.4142" d="     M545.322,299.086c1.563-0.391,2.526-1.984,2.11-3.619c-0.383-1.563-1.977-2.521-3.543-2.131c-1.63,0.404-2.593,2.003-2.207,3.563     C542.097,298.531,543.695,299.493,545.322,299.086L545.322,299.086z"/>
</g></switch>
</svg>