<?xml version="1.0" encoding="utf-8"?>
<!DOCTYPE svg PUBLIC "-//W3C//DTD SVG 1.1//EN" "http://www.w3.org/Graphics/SVG/1.1/DTD/svg11.dtd">
<svg version="1.1" id="Armor" xmlns="http://www.w3.org/2000/svg" xmlns:xlink="http://www.w3.org/1999/xlink" x="0px" y="0px"
	 width="612px" height="792px" viewBox="0 0 612 792" enable-background="new 0 0 612 792" xml:space="preserve">
<switch><g>
<path fill="none" stroke="#000000" stroke-width="0.504" stroke-miterlimit="2.4142" d="M420.121,80.268     c-1.666-0.146-2.932-1.65-2.781-3.313c0.15-1.73,1.646-2.926,3.311-2.776c1.728,0.148,3.004,1.581,2.854,3.315     C423.354,79.154,421.842,80.418,420.121,80.268L420.121,80.268z"/>
<path fill="none" stroke="#000000" stroke-width="0.504" stroke-miterlimit="2.4142" d="M431.418,81.259     c-1.67-0.144-2.932-1.652-2.785-3.312c0.147-1.731,1.646-2.925,3.317-2.779c1.723,0.151,2.995,1.586,2.849,3.317     C434.65,80.146,433.137,81.41,431.418,81.259L431.418,81.259z"/>
<path fill="none" stroke="#000000" stroke-width="0.504" stroke-miterlimit="2.4142" d="M424.408,96.295     c-1.669-0.145-2.926-1.648-2.78-3.311c0.152-1.732,1.645-2.925,3.315-2.781c1.719,0.152,2.998,1.59,2.846,3.323     C427.644,95.186,426.136,96.445,424.408,96.295L424.408,96.295z"/>
<path fill="none" stroke="#000000" stroke-width="0.504" stroke-miterlimit="2.4142" d="M417.398,111.333     c-1.664-0.146-2.925-1.652-2.773-3.315c0.143-1.729,1.645-2.923,3.309-2.777c1.724,0.149,3.002,1.585,2.853,3.318     C420.641,110.218,419.123,111.483,417.398,111.333L417.398,111.333z"/>
<path fill="none" stroke="#000000" stroke-width="0.504" stroke-miterlimit="2.4142" d="M428.695,112.323     c-1.666-0.146-2.927-1.65-2.776-3.311c0.147-1.734,1.646-2.926,3.313-2.783c1.72,0.15,2.993,1.588,2.843,3.323     C431.932,111.215,430.424,112.475,428.695,112.323L428.695,112.323z"/>
<path fill="none" stroke="#000000" stroke-width="0.504" stroke-miterlimit="2.4142" d="M421.688,127.36     c-1.663-0.144-2.923-1.65-2.775-3.312c0.152-1.731,1.644-2.926,3.31-2.784c1.726,0.154,3.003,1.592,2.85,3.323     C424.927,126.246,423.413,127.512,421.688,127.36L421.688,127.36z"/>
<path fill="none" stroke="#000000" stroke-width="0.504" stroke-miterlimit="2.4142" d="M414.684,142.397     c-1.668-0.146-2.928-1.653-2.778-3.314c0.147-1.729,1.645-2.926,3.313-2.778c1.722,0.149,3.004,1.588,2.847,3.323     C417.918,141.282,416.408,142.548,414.684,142.397L414.684,142.397z"/>
<path fill="none" stroke="#000000" stroke-width="0.504" stroke-miterlimit="2.4142" d="M425.98,143.387     c-1.67-0.143-2.929-1.646-2.781-3.311c0.153-1.734,1.646-2.927,3.313-2.782c1.729,0.151,3.002,1.586,2.849,3.321     C429.217,142.276,427.709,143.537,425.98,143.387L425.98,143.387z"/>
<path fill="none" stroke="#000000" stroke-width="0.504" stroke-miterlimit="2.4142" d="M418.971,158.422     c-1.663-0.142-2.92-1.652-2.775-3.312c0.151-1.73,1.646-2.925,3.313-2.779c1.725,0.149,3.002,1.588,2.846,3.317     C422.214,157.311,420.7,158.572,418.971,158.422L418.971,158.422z"/>
<path fill="none" stroke="#000000" stroke-width="0.504" stroke-miterlimit="2.4142" d="M411.966,173.459     c-1.667-0.143-2.925-1.65-2.78-3.309c0.152-1.735,1.65-2.928,3.313-2.781c1.725,0.148,3.002,1.586,2.85,3.319     C415.207,172.349,413.691,173.611,411.966,173.459L411.966,173.459z"/>
<path fill="none" stroke="#000000" stroke-width="0.504" stroke-miterlimit="2.4142" d="M423.261,174.446     c-1.67-0.137-2.927-1.647-2.775-3.309c0.147-1.73,1.645-2.926,3.311-2.776c1.726,0.147,2.996,1.585,2.846,3.316     C426.496,173.335,424.99,174.601,423.261,174.446L423.261,174.446z"/>
</g></switch>
</svg>