<?xml version="1.0" encoding="utf-8"?>
<!DOCTYPE svg PUBLIC "-//W3C//DTD SVG 1.1//EN" "http://www.w3.org/Graphics/SVG/1.1/DTD/svg11.dtd">
<svg version="1.1" id="Armor" xmlns="http://www.w3.org/2000/svg" xmlns:xlink="http://www.w3.org/1999/xlink" x="0px" y="0px"
	 width="612px" height="792px" viewBox="0 0 612 792" enable-background="new 0 0 612 792" xml:space="preserve">
<switch><g>
<path fill-rule="evenodd" clip-rule="evenodd" fill="none" stroke="#000000" stroke-width="0.504" stroke-miterlimit="2.4142" d="     M519.753,189.284c1.555-0.391,2.512-1.984,2.109-3.616c-0.393-1.564-1.992-2.523-3.547-2.131     c-1.637,0.401-2.596,2.006-2.201,3.56C516.521,188.733,518.114,189.694,519.753,189.284L519.753,189.284z"/>
<path fill-rule="evenodd" clip-rule="evenodd" fill="none" stroke="#000000" stroke-width="0.504" stroke-miterlimit="2.4142" d="     M531.737,215.186c1.563-0.388,2.518-1.985,2.118-3.62c-0.399-1.559-1.992-2.517-3.556-2.126     c-1.631,0.407-2.597,2.002-2.201,3.563C528.508,214.635,530.109,215.596,531.737,215.186L531.737,215.186z"/>
<path fill-rule="evenodd" clip-rule="evenodd" fill="none" stroke="#000000" stroke-width="0.504" stroke-miterlimit="2.4142" d="     M520.326,217.821c1.563-0.388,2.521-1.986,2.112-3.618c-0.386-1.56-1.99-2.52-3.549-2.131c-1.631,0.408-2.594,2.005-2.199,3.566     C517.097,217.27,518.691,218.23,520.326,217.821L520.326,217.821z"/>
<path fill-rule="evenodd" clip-rule="evenodd" fill="none" stroke="#000000" stroke-width="0.504" stroke-miterlimit="2.4142" d="     M532.317,243.721c1.558-0.389,2.523-1.982,2.105-3.617c-0.383-1.563-1.975-2.52-3.544-2.13c-1.627,0.402-2.591,2.003-2.204,3.56     C529.089,243.168,530.688,244.13,532.317,243.721L532.317,243.721z"/>
<path fill-rule="evenodd" clip-rule="evenodd" fill="none" stroke="#000000" stroke-width="0.504" stroke-miterlimit="2.4142" d="     M544.308,269.621c1.564-0.385,2.52-1.986,2.115-3.621c-0.396-1.556-1.99-2.511-3.557-2.126c-1.62,0.405-2.592,1.999-2.193,3.564     C541.08,269.073,542.675,270.032,544.308,269.621L544.308,269.621z"/>
<path fill-rule="evenodd" clip-rule="evenodd" fill="none" stroke="#000000" stroke-width="0.504" stroke-miterlimit="2.4142" d="     M532.891,272.256c1.569-0.383,2.524-1.982,2.119-3.618c-0.396-1.56-1.993-2.515-3.554-2.13c-1.625,0.411-2.592,2.003-2.199,3.567     C529.665,271.706,531.263,272.67,532.891,272.256L532.891,272.256z"/>
<path fill-rule="evenodd" clip-rule="evenodd" fill="none" stroke="#000000" stroke-width="0.504" stroke-miterlimit="2.4142" d="     M544.885,298.156c1.558-0.389,2.522-1.982,2.106-3.618c-0.383-1.563-1.977-2.52-3.545-2.13c-1.627,0.403-2.59,2.004-2.205,3.561     C541.657,297.604,543.257,298.564,544.885,298.156L544.885,298.156z"/>
</g></switch>
</svg>