<?xml version="1.0" encoding="utf-8"?>
<!DOCTYPE svg PUBLIC "-//W3C//DTD SVG 1.1//EN" "http://www.w3.org/Graphics/SVG/1.1/DTD/svg11.dtd">
<svg version="1.1" id="Armor" xmlns="http://www.w3.org/2000/svg" xmlns:xlink="http://www.w3.org/1999/xlink" x="0px" y="0px"
	 width="612px" height="792px" viewBox="0 0 612 792" enable-background="new 0 0 612 792" xml:space="preserve">
<switch><g>
<path fill="none" stroke="#000000" stroke-width="0.504" stroke-miterlimit="2.4142" d="M523.635,327.606     c1.134,0,1.996-0.864,1.996-1.994c0-1.131-0.862-2.062-1.996-2.062c-1.129,0-2.062,0.931-2.062,2.062     C521.573,326.742,522.506,327.606,523.635,327.606L523.635,327.606z"/>
<path fill="none" stroke="#000000" stroke-width="0.504" stroke-miterlimit="2.4142" d="M523.635,338.381     c1.134,0,1.996-0.864,1.996-1.994c0-1.131-0.862-2.062-1.996-2.062c-1.129,0-2.062,0.931-2.062,2.062     C521.573,337.517,522.506,338.381,523.635,338.381L523.635,338.381z"/>
<path fill="none" stroke="#000000" stroke-width="0.504" stroke-miterlimit="2.4142" d="M523.639,349.158     c1.13,0,1.992-0.932,1.992-1.997c0-1.128-0.862-2.061-1.992-2.061c-1.133,0-2.063,0.932-2.063,2.061     C521.576,348.226,522.506,349.158,523.639,349.158L523.639,349.158z"/>
</g></switch>
</svg>