<?xml version="1.0" encoding="utf-8"?>
<!DOCTYPE svg PUBLIC "-//W3C//DTD SVG 1.1//EN" "http://www.w3.org/Graphics/SVG/1.1/DTD/svg11.dtd">
<svg version="1.1" id="Armor" xmlns="http://www.w3.org/2000/svg" xmlns:xlink="http://www.w3.org/1999/xlink" x="0px" y="0px"
	 width="612px" height="792px" viewBox="0 0 612 792" enable-background="new 0 0 612 792" xml:space="preserve">
<switch><g>
<path fill="none" stroke="#000000" stroke-width="0.504" stroke-miterlimit="2.4142" d="M425.306,89.266     c-1.658-0.145-2.925-1.652-2.778-3.312c0.149-1.731,1.649-2.925,3.313-2.78c1.729,0.151,3.001,1.588,2.852,3.32     C428.543,88.153,427.035,89.417,425.306,89.266L425.306,89.266z"/>
<path fill="none" stroke="#000000" stroke-width="0.504" stroke-miterlimit="2.4142" d="M423.5,109.95     c-1.663-0.144-2.93-1.652-2.783-3.312c0.149-1.732,1.653-2.925,3.313-2.779c1.732,0.15,3.004,1.587,2.851,3.319     C426.733,108.839,425.229,110.103,423.5,109.95L423.5,109.95z"/>
<path fill="none" stroke="#000000" stroke-width="0.504" stroke-miterlimit="2.4142" d="M421.688,130.636     c-1.663-0.144-2.926-1.651-2.78-3.312c0.15-1.73,1.65-2.924,3.313-2.78c1.729,0.151,3,1.588,2.851,3.32     C424.925,129.523,423.416,130.788,421.688,130.636L421.688,130.636z"/>
<path fill="none" stroke="#000000" stroke-width="0.504" stroke-miterlimit="2.4142" d="M419.876,151.321     c-1.659-0.145-2.922-1.652-2.779-3.312c0.152-1.732,1.653-2.925,3.315-2.78c1.729,0.151,3,1.589,2.847,3.32     C423.112,150.209,421.608,151.473,419.876,151.321L419.876,151.321z"/>
<path fill="none" stroke="#000000" stroke-width="0.504" stroke-miterlimit="2.4142" d="M418.067,172.006     c-1.661-0.145-2.926-1.652-2.779-3.312c0.151-1.732,1.651-2.925,3.313-2.78c1.729,0.151,3,1.588,2.848,3.32     C421.306,170.894,419.798,172.158,418.067,172.006L418.067,172.006z"/>
</g></switch>
</svg>