<?xml version="1.0" encoding="utf-8"?>
<!DOCTYPE svg PUBLIC "-//W3C//DTD SVG 1.1//EN" "http://www.w3.org/Graphics/SVG/1.1/DTD/svg11.dtd">
<svg version="1.1" id="Armor" xmlns="http://www.w3.org/2000/svg" xmlns:xlink="http://www.w3.org/1999/xlink" x="0px" y="0px"
	 width="612px" height="792px" viewBox="0 0 612 792" enable-background="new 0 0 612 792" xml:space="preserve">
<switch><g>
<path fill="none" stroke="#000000" stroke-width="0.504" stroke-miterlimit="2.4142" d="M451.564,91.841      c-1.32,0-2.416-1.098-2.416-2.415c0-1.317,1.096-2.414,2.416-2.414c1.315,0,2.411,1.097,2.411,2.414      C453.976,90.743,452.881,91.841,451.564,91.841L451.564,91.841z"/>
<path fill="none" stroke="#000000" stroke-width="0.504" stroke-miterlimit="2.4142" d="M462.615,91.841      c-1.322,0-2.418-1.098-2.418-2.415c0-1.317,1.096-2.414,2.418-2.414c1.315,0,2.412,1.097,2.412,2.414      C465.027,90.743,463.932,91.841,462.615,91.841L462.615,91.841z"/>
<path fill="none" stroke="#000000" stroke-width="0.504" stroke-miterlimit="2.4142" d="M446.04,96.498      c-1.321,0-2.417-1.098-2.417-2.415s1.096-2.414,2.417-2.414c1.316,0,2.412,1.097,2.412,2.414S447.356,96.498,446.04,96.498      L446.04,96.498z"/>
<path fill="none" stroke="#000000" stroke-width="0.504" stroke-miterlimit="2.4142" d="M457.09,96.498      c-1.321,0-2.417-1.098-2.417-2.415s1.096-2.414,2.417-2.414c1.316,0,2.412,1.097,2.412,2.414S458.406,96.498,457.09,96.498      L457.09,96.498z"/>
<path fill="none" stroke="#000000" stroke-width="0.504" stroke-miterlimit="2.4142" d="M468.137,96.498      c-1.316,0-2.414-1.098-2.414-2.415s1.098-2.414,2.414-2.414s2.415,1.097,2.415,2.414S469.453,96.498,468.137,96.498      L468.137,96.498z"/>
<path fill="none" stroke="#000000" stroke-width="0.504" stroke-miterlimit="2.4142" d="M451.564,101.155      c-1.32,0-2.416-1.098-2.416-2.415c0-1.317,1.096-2.414,2.416-2.414c1.315,0,2.411,1.097,2.411,2.414      C453.976,100.057,452.881,101.155,451.564,101.155L451.564,101.155z"/>
<path fill="none" stroke="#000000" stroke-width="0.504" stroke-miterlimit="2.4142" d="M462.615,101.155      c-1.322,0-2.418-1.098-2.418-2.415c0-1.317,1.096-2.414,2.418-2.414c1.315,0,2.412,1.097,2.412,2.414      C465.027,100.057,463.932,101.155,462.615,101.155L462.615,101.155z"/>
<path fill="none" stroke="#000000" stroke-width="0.504" stroke-miterlimit="2.4142" d="M446.04,105.812      c-1.321,0-2.417-1.098-2.417-2.415s1.096-2.414,2.417-2.414c1.316,0,2.412,1.097,2.412,2.414S447.356,105.812,446.04,105.812      L446.04,105.812z"/>
<path fill="none" stroke="#000000" stroke-width="0.504" stroke-miterlimit="2.4142" d="M457.09,105.812      c-1.321,0-2.417-1.098-2.417-2.415s1.096-2.414,2.417-2.414c1.316,0,2.412,1.097,2.412,2.414S458.406,105.812,457.09,105.812      L457.09,105.812z"/>
<path fill="none" stroke="#000000" stroke-width="0.504" stroke-miterlimit="2.4142" d="M468.137,105.812      c-1.316,0-2.414-1.098-2.414-2.415s1.098-2.414,2.414-2.414s2.415,1.097,2.415,2.414S469.453,105.812,468.137,105.812      L468.137,105.812z"/>
<path fill="none" stroke="#000000" stroke-width="0.504" stroke-miterlimit="2.4142" d="M451.564,110.469      c-1.32,0-2.416-1.098-2.416-2.415c0-1.317,1.096-2.414,2.416-2.414c1.315,0,2.411,1.097,2.411,2.414      C453.976,109.371,452.881,110.469,451.564,110.469L451.564,110.469z"/>
<path fill="none" stroke="#000000" stroke-width="0.504" stroke-miterlimit="2.4142" d="M462.615,110.469      c-1.322,0-2.418-1.098-2.418-2.415c0-1.317,1.096-2.414,2.418-2.414c1.315,0,2.412,1.097,2.412,2.414      C465.027,109.371,463.932,110.469,462.615,110.469L462.615,110.469z"/>
<path fill="none" stroke="#000000" stroke-width="0.504" stroke-miterlimit="2.4142" d="M446.04,115.126      c-1.321,0-2.417-1.098-2.417-2.415s1.096-2.414,2.417-2.414c1.316,0,2.412,1.097,2.412,2.414S447.356,115.126,446.04,115.126      L446.04,115.126z"/>
<path fill="none" stroke="#000000" stroke-width="0.504" stroke-miterlimit="2.4142" d="M457.09,115.126      c-1.321,0-2.417-1.098-2.417-2.415s1.096-2.414,2.417-2.414c1.316,0,2.412,1.097,2.412,2.414S458.406,115.126,457.09,115.126      L457.09,115.126z"/>
<path fill="none" stroke="#000000" stroke-width="0.504" stroke-miterlimit="2.4142" d="M468.137,115.126      c-1.316,0-2.414-1.098-2.414-2.415s1.098-2.414,2.414-2.414s2.415,1.097,2.415,2.414S469.453,115.126,468.137,115.126      L468.137,115.126z"/>
<path fill="none" stroke="#000000" stroke-width="0.504" stroke-miterlimit="2.4142" d="M451.564,119.783      c-1.32,0-2.416-1.098-2.416-2.415c0-1.317,1.096-2.414,2.416-2.414c1.315,0,2.411,1.097,2.411,2.414      C453.976,118.685,452.881,119.783,451.564,119.783L451.564,119.783z"/>
<path fill="none" stroke="#000000" stroke-width="0.504" stroke-miterlimit="2.4142" d="M462.615,119.783      c-1.322,0-2.418-1.098-2.418-2.415c0-1.317,1.096-2.414,2.418-2.414c1.315,0,2.412,1.097,2.412,2.414      C465.027,118.685,463.932,119.783,462.615,119.783L462.615,119.783z"/>
<path fill="none" stroke="#000000" stroke-width="0.504" stroke-miterlimit="2.4142" d="M446.04,124.44      c-1.321,0-2.417-1.098-2.417-2.415s1.096-2.414,2.417-2.414c1.316,0,2.412,1.097,2.412,2.414S447.356,124.44,446.04,124.44      L446.04,124.44z"/>
<path fill="none" stroke="#000000" stroke-width="0.504" stroke-miterlimit="2.4142" d="M457.09,124.44      c-1.321,0-2.417-1.098-2.417-2.415s1.096-2.414,2.417-2.414c1.316,0,2.412,1.097,2.412,2.414S458.406,124.44,457.09,124.44      L457.09,124.44z"/>
<path fill="none" stroke="#000000" stroke-width="0.504" stroke-miterlimit="2.4142" d="M468.137,124.44      c-1.316,0-2.414-1.098-2.414-2.415s1.098-2.414,2.414-2.414s2.415,1.097,2.415,2.414S469.453,124.44,468.137,124.44      L468.137,124.44z"/>
<path fill="none" stroke="#000000" stroke-width="0.504" stroke-miterlimit="2.4142" d="M462.61,130.336     c1.32,0,2.417-1.098,2.417-2.415s-1.097-2.414-2.417-2.414c-1.316,0-2.412,1.097-2.412,2.414     C460.198,129.238,461.294,130.336,462.61,130.336L462.61,130.336z"/>
<path fill="none" stroke="#000000" stroke-width="0.504" stroke-miterlimit="2.4142" d="M463.999,136.232     c1.321,0,2.417-1.098,2.417-2.415s-1.096-2.414-2.417-2.414c-1.316,0-2.412,1.097-2.412,2.414S462.683,136.232,463.999,136.232     L463.999,136.232z"/>
<path fill="none" stroke="#000000" stroke-width="0.504" stroke-miterlimit="2.4142" d="M465.392,137.299     c-1.319,0-2.416,1.098-2.416,2.415c0,1.317,1.097,2.415,2.416,2.415c1.316,0,2.412-1.097,2.412-2.415     C467.804,138.397,466.708,137.299,465.392,137.299L465.392,137.299z"/>
<path fill="none" stroke="#000000" stroke-width="0.504" stroke-miterlimit="2.4142" d="M466.779,143.196     c-1.32,0-2.416,1.098-2.416,2.415s1.096,2.415,2.416,2.415c1.315,0,2.412-1.097,2.412-2.415S468.096,143.196,466.779,143.196     L466.779,143.196z"/>
<path fill="none" stroke="#000000" stroke-width="0.504" stroke-miterlimit="2.4142" d="M468.164,153.958     c-1.316,0-2.413-1.097-2.413-2.488c0-1.317,1.097-2.414,2.413-2.414s2.416,1.097,2.416,2.414     C470.58,152.861,469.48,153.958,468.164,153.958L468.164,153.958z"/>
<path fill="none" stroke="#000000" stroke-width="0.504" stroke-miterlimit="2.4142" d="M469.553,159.854     c-1.315,0-2.413-1.097-2.413-2.488c0-1.317,1.098-2.414,2.413-2.414c1.316,0,2.416,1.097,2.416,2.414     C471.969,158.757,470.869,159.854,469.553,159.854L469.553,159.854z"/>
<path fill="none" stroke="#000000" stroke-width="0.504" stroke-miterlimit="2.4142" d="M456.797,160.848      c-1.315,0-2.413,1.097-2.413,2.488c0,1.317,1.098,2.414,2.413,2.414c1.316,0,2.416-1.097,2.416-2.414      C459.213,161.945,458.113,160.848,456.797,160.848L456.797,160.848z"/>
<path fill="none" stroke="#000000" stroke-width="0.504" stroke-miterlimit="2.4142" d="M465.301,160.848      c-1.315,0-2.413,1.097-2.413,2.488c0,1.317,1.098,2.414,2.413,2.414c1.316,0,2.416-1.097,2.416-2.414      C467.717,161.944,466.617,160.848,465.301,160.848L465.301,160.848z"/>
<path fill="none" stroke="#000000" stroke-width="0.504" stroke-miterlimit="2.4142" d="M452.545,167.727      c-1.316,0-2.413,1.097-2.413,2.488c0,1.317,1.097,2.414,2.413,2.414s2.416-1.097,2.416-2.414      C454.961,168.824,453.861,167.727,452.545,167.727L452.545,167.727z"/>
<path fill="none" stroke="#000000" stroke-width="0.504" stroke-miterlimit="2.4142" d="M461.049,167.727      c-1.315,0-2.413,1.097-2.413,2.488c0,1.317,1.098,2.414,2.413,2.414c1.316,0,2.416-1.097,2.416-2.414      C463.465,168.824,462.365,167.727,461.049,167.727L461.049,167.727z"/>
<path fill="none" stroke="#000000" stroke-width="0.504" stroke-miterlimit="2.4142" d="M469.553,167.727      c-1.315,0-2.413,1.097-2.413,2.488c0,1.317,1.098,2.414,2.413,2.414c1.316,0,2.416-1.097,2.416-2.414      C471.969,168.823,470.869,167.727,469.553,167.727L469.553,167.727z"/>
</g></switch>
</svg>