<?xml version="1.0" encoding="utf-8"?>
<!DOCTYPE svg PUBLIC "-//W3C//DTD SVG 1.1//EN" "http://www.w3.org/Graphics/SVG/1.1/DTD/svg11.dtd">
<svg version="1.1" id="Armor" xmlns="http://www.w3.org/2000/svg" xmlns:xlink="http://www.w3.org/1999/xlink" x="0px" y="0px"
	 width="612px" height="792px" viewBox="0 0 612 792" enable-background="new 0 0 612 792" xml:space="preserve">
<switch><g>
<path fill-rule="evenodd" clip-rule="evenodd" fill="none" stroke="#000000" stroke-width="0.504" stroke-miterlimit="2.4142" d="     M520.19,191.509c1.56-0.392,2.521-1.987,2.108-3.619c-0.384-1.563-1.979-2.523-3.546-2.133c-1.629,0.405-2.589,2.004-2.196,3.565     C516.958,190.956,518.558,191.915,520.19,191.509L520.19,191.509z"/>
<path fill-rule="evenodd" clip-rule="evenodd" fill="none" stroke="#000000" stroke-width="0.504" stroke-miterlimit="2.4142" d="     M527.039,195.14c1.56-0.393,2.522-1.986,2.112-3.62c-0.389-1.563-1.982-2.521-3.547-2.131c-1.632,0.405-2.59,2.003-2.199,3.564     C523.81,194.586,525.409,195.545,527.039,195.14L527.039,195.14z"/>
<path fill-rule="evenodd" clip-rule="evenodd" fill="none" stroke="#000000" stroke-width="0.504" stroke-miterlimit="2.4142" d="     M515.625,197.776c1.559-0.393,2.521-1.986,2.111-3.621c-0.388-1.562-1.982-2.521-3.547-2.13     c-1.632,0.404-2.589,2.002-2.198,3.564C512.395,197.221,513.995,198.181,515.625,197.776L515.625,197.776z"/>
<path fill-rule="evenodd" clip-rule="evenodd" fill="none" stroke="#000000" stroke-width="0.504" stroke-miterlimit="2.4142" d="     M522.476,201.407c1.559-0.393,2.521-1.987,2.108-3.62c-0.385-1.563-1.979-2.523-3.547-2.132     c-1.628,0.405-2.589,2.003-2.196,3.565C519.243,200.853,520.843,201.812,522.476,201.407L522.476,201.407z"/>
<path fill-rule="evenodd" clip-rule="evenodd" fill="none" stroke="#000000" stroke-width="0.504" stroke-miterlimit="2.4142" d="     M529.32,205.038c1.561-0.393,2.521-1.988,2.115-3.623c-0.391-1.561-1.985-2.519-3.548-2.128     c-1.633,0.404-2.592,2.002-2.201,3.563C526.092,204.482,527.692,205.44,529.32,205.038L529.32,205.038z"/>
<path fill-rule="evenodd" clip-rule="evenodd" fill="none" stroke="#000000" stroke-width="0.504" stroke-miterlimit="2.4142" d="     M517.907,207.672c1.561-0.393,2.521-1.988,2.115-3.623c-0.391-1.561-1.986-2.519-3.548-2.128     c-1.633,0.405-2.591,2.002-2.201,3.563C514.679,207.117,516.28,208.075,517.907,207.672L517.907,207.672z"/>
<path fill-rule="evenodd" clip-rule="evenodd" fill="none" stroke="#000000" stroke-width="0.504" stroke-miterlimit="2.4142" d="     M524.758,211.303c1.562-0.392,2.522-1.987,2.114-3.622c-0.388-1.562-1.984-2.519-3.549-2.128     c-1.631,0.405-2.59,2.002-2.199,3.563C521.531,210.749,523.13,211.708,524.758,211.303L524.758,211.303z"/>
<path fill-rule="evenodd" clip-rule="evenodd" fill="none" stroke="#000000" stroke-width="0.504" stroke-miterlimit="2.4142" d="     M531.604,214.935c1.561-0.389,2.524-1.987,2.116-3.62c-0.388-1.561-1.987-2.52-3.551-2.131c-1.629,0.406-2.589,2.006-2.2,3.564     C528.378,214.383,529.976,215.341,531.604,214.935L531.604,214.935z"/>
<path fill-rule="evenodd" clip-rule="evenodd" fill="none" stroke="#000000" stroke-width="0.504" stroke-miterlimit="2.4142" d="     M520.192,217.569c1.561-0.388,2.525-1.986,2.117-3.619c-0.389-1.561-1.988-2.521-3.551-2.131c-1.63,0.406-2.59,2.005-2.201,3.564     C516.967,217.018,518.563,217.976,520.192,217.569L520.192,217.569z"/>
<path fill-rule="evenodd" clip-rule="evenodd" fill="none" stroke="#000000" stroke-width="0.504" stroke-miterlimit="2.4142" d="     M527.041,221.201c1.561-0.388,2.526-1.986,2.116-3.62c-0.388-1.561-1.986-2.52-3.55-2.131c-1.628,0.406-2.588,2.005-2.2,3.564     C523.817,220.649,525.415,221.606,527.041,221.201L527.041,221.201z"/>
<path fill-rule="evenodd" clip-rule="evenodd" fill="none" stroke="#000000" stroke-width="0.504" stroke-miterlimit="2.4142" d="     M533.892,224.831c1.564-0.391,2.521-1.985,2.113-3.62c-0.389-1.562-1.988-2.52-3.55-2.13c-1.628,0.407-2.587,2.002-2.198,3.563     C530.661,224.279,532.257,225.237,533.892,224.831L533.892,224.831z"/>
<path fill-rule="evenodd" clip-rule="evenodd" fill="none" stroke="#000000" stroke-width="0.504" stroke-miterlimit="2.4142" d="     M522.479,227.465c1.564-0.391,2.52-1.985,2.113-3.62c-0.39-1.562-1.988-2.52-3.551-2.129c-1.628,0.406-2.586,2.001-2.197,3.563     C519.249,226.914,520.845,227.872,522.479,227.465L522.479,227.465z"/>
<path fill-rule="evenodd" clip-rule="evenodd" fill="none" stroke="#000000" stroke-width="0.504" stroke-miterlimit="2.4142" d="     M529.328,231.098c1.564-0.394,2.522-1.986,2.114-3.622c-0.39-1.56-1.986-2.521-3.551-2.13c-1.625,0.406-2.588,2.003-2.2,3.563     C526.098,230.545,527.695,231.501,529.328,231.098L529.328,231.098z"/>
<path fill-rule="evenodd" clip-rule="evenodd" fill="none" stroke="#000000" stroke-width="0.504" stroke-miterlimit="2.4142" d="     M536.174,234.729c1.561-0.39,2.521-1.986,2.117-3.619c-0.393-1.563-1.987-2.52-3.55-2.133c-1.631,0.408-2.592,2.002-2.2,3.566     C532.944,234.175,534.543,235.136,536.174,234.729L536.174,234.729z"/>
<path fill-rule="evenodd" clip-rule="evenodd" fill="none" stroke="#000000" stroke-width="0.504" stroke-miterlimit="2.4142" d="     M524.763,237.364c1.561-0.39,2.521-1.986,2.117-3.619c-0.394-1.563-1.988-2.52-3.55-2.133c-1.631,0.408-2.592,2.002-2.2,3.566     C521.533,236.81,523.132,237.771,524.763,237.364L524.763,237.364z"/>
<path fill-rule="evenodd" clip-rule="evenodd" fill="none" stroke="#000000" stroke-width="0.504" stroke-miterlimit="2.4142" d="     M531.61,240.995c1.564-0.392,2.522-1.986,2.117-3.62c-0.393-1.562-1.986-2.52-3.549-2.131c-1.63,0.406-2.59,2.001-2.201,3.564     C528.382,240.44,529.982,241.4,531.61,240.995L531.61,240.995z"/>
<path fill-rule="evenodd" clip-rule="evenodd" fill="none" stroke="#000000" stroke-width="0.504" stroke-miterlimit="2.4142" d="     M538.464,244.624c1.561-0.389,2.52-1.984,2.111-3.617c-0.391-1.561-1.986-2.521-3.549-2.131     c-1.629,0.405-2.591,2.004-2.199,3.564C535.234,244.074,536.831,245.034,538.464,244.624L538.464,244.624z"/>
<path fill-rule="evenodd" clip-rule="evenodd" fill="none" stroke="#000000" stroke-width="0.504" stroke-miterlimit="2.4142" d="     M527.052,247.258c1.561-0.388,2.52-1.984,2.111-3.617c-0.391-1.561-1.986-2.521-3.549-2.13c-1.629,0.404-2.592,2.003-2.199,3.564     C523.821,246.708,525.419,247.668,527.052,247.258L527.052,247.258z"/>
<path fill-rule="evenodd" clip-rule="evenodd" fill="none" stroke="#000000" stroke-width="0.504" stroke-miterlimit="2.4142" d="     M533.901,250.889c1.563-0.388,2.521-1.986,2.109-3.616c-0.389-1.562-1.985-2.522-3.547-2.132     c-1.628,0.406-2.59,2.004-2.199,3.564C530.671,250.339,532.269,251.3,533.901,250.889L533.901,250.889z"/>
<path fill-rule="evenodd" clip-rule="evenodd" fill="none" stroke="#000000" stroke-width="0.504" stroke-miterlimit="2.4142" d="     M540.747,254.522c1.563-0.39,2.521-1.987,2.113-3.618c-0.392-1.563-1.986-2.522-3.55-2.131c-1.63,0.403-2.591,2.003-2.198,3.563     C537.517,253.97,539.114,254.93,540.747,254.522L540.747,254.522z"/>
<path fill-rule="evenodd" clip-rule="evenodd" fill="none" stroke="#000000" stroke-width="0.504" stroke-miterlimit="2.4142" d="     M529.335,257.157c1.563-0.39,2.521-1.987,2.113-3.618c-0.393-1.563-1.987-2.522-3.55-2.131c-1.63,0.403-2.591,2.003-2.199,3.563     C526.104,256.605,527.702,257.565,529.335,257.157L529.335,257.157z"/>
<path fill-rule="evenodd" clip-rule="evenodd" fill="none" stroke="#000000" stroke-width="0.504" stroke-miterlimit="2.4142" d="     M536.185,260.788c1.563-0.39,2.52-1.986,2.113-3.617c-0.391-1.563-1.987-2.522-3.549-2.132c-1.631,0.404-2.59,2.004-2.2,3.563     C532.952,260.237,534.553,261.196,536.185,260.788L536.185,260.788z"/>
<path fill-rule="evenodd" clip-rule="evenodd" fill="none" stroke="#000000" stroke-width="0.504" stroke-miterlimit="2.4142" d="     M543.034,264.418c1.561-0.39,2.521-1.985,2.111-3.617c-0.391-1.563-1.987-2.522-3.549-2.131c-1.629,0.404-2.59,2.004-2.199,3.563     C539.804,263.866,541.401,264.826,543.034,264.418L543.034,264.418z"/>
<path fill-rule="evenodd" clip-rule="evenodd" fill="none" stroke="#000000" stroke-width="0.504" stroke-miterlimit="2.4142" d="     M531.621,267.053c1.562-0.39,2.521-1.985,2.112-3.617c-0.392-1.563-1.987-2.522-3.549-2.131c-1.63,0.404-2.591,2.004-2.2,3.563     C528.391,266.5,529.989,267.46,531.621,267.053L531.621,267.053z"/>
<path fill-rule="evenodd" clip-rule="evenodd" fill="none" stroke="#000000" stroke-width="0.504" stroke-miterlimit="2.4142" d="     M538.472,270.684c1.562-0.389,2.518-1.985,2.109-3.617c-0.389-1.563-1.985-2.521-3.547-2.132c-1.631,0.406-2.59,2.005-2.2,3.564     C535.241,270.133,536.839,271.092,538.472,270.684L538.472,270.684z"/>
<path fill-rule="evenodd" clip-rule="evenodd" fill="none" stroke="#000000" stroke-width="0.504" stroke-miterlimit="2.4142" d="     M545.319,274.315c1.563-0.389,2.52-1.984,2.111-3.617c-0.391-1.563-1.986-2.521-3.549-2.132c-1.631,0.405-2.592,2.005-2.2,3.563     C542.089,273.763,543.687,274.723,545.319,274.315L545.319,274.315z"/>
<path fill-rule="evenodd" clip-rule="evenodd" fill="none" stroke="#000000" stroke-width="0.504" stroke-miterlimit="2.4142" d="     M533.906,276.95c1.563-0.389,2.52-1.984,2.112-3.617c-0.391-1.563-1.987-2.521-3.549-2.132c-1.631,0.405-2.592,2.005-2.201,3.563     C530.676,276.398,532.274,277.358,533.906,276.95L533.906,276.95z"/>
<path fill-rule="evenodd" clip-rule="evenodd" fill="none" stroke="#000000" stroke-width="0.504" stroke-miterlimit="2.4142" d="     M540.757,280.582c1.56-0.389,2.518-1.985,2.11-3.618c-0.39-1.562-1.986-2.52-3.548-2.131c-1.633,0.405-2.593,2.004-2.203,3.564     C537.524,280.03,539.122,280.99,540.757,280.582L540.757,280.582z"/>
<path fill-rule="evenodd" clip-rule="evenodd" fill="none" stroke="#000000" stroke-width="0.504" stroke-miterlimit="2.4142" d="     M547.603,284.212c1.562-0.389,2.521-1.985,2.113-3.617c-0.391-1.563-1.986-2.521-3.551-2.132c-1.629,0.406-2.592,2.006-2.2,3.564     C544.372,283.661,545.97,284.622,547.603,284.212L547.603,284.212z"/>
<path fill-rule="evenodd" clip-rule="evenodd" fill="none" stroke="#000000" stroke-width="0.504" stroke-miterlimit="2.4142" d="     M536.19,286.847c1.563-0.389,2.521-1.985,2.113-3.617c-0.391-1.563-1.986-2.521-3.551-2.132     c-1.629,0.406-2.592,2.006-2.199,3.564C532.96,286.295,534.558,287.256,536.19,286.847L536.19,286.847z"/>
<path fill-rule="evenodd" clip-rule="evenodd" fill="none" stroke="#000000" stroke-width="0.504" stroke-miterlimit="2.4142" d="     M543.039,290.479c1.563-0.39,2.522-1.985,2.113-3.618c-0.391-1.563-1.985-2.521-3.55-2.131c-1.629,0.405-2.591,2.005-2.201,3.563     C539.812,289.926,541.409,290.887,543.039,290.479L543.039,290.479z"/>
<path fill-rule="evenodd" clip-rule="evenodd" fill="none" stroke="#000000" stroke-width="0.504" stroke-miterlimit="2.4142" d="     M549.888,294.108c1.563-0.387,2.521-1.983,2.113-3.617c-0.391-1.56-1.987-2.518-3.551-2.129     c-1.627,0.404-2.592,2.002-2.198,3.563C546.659,293.559,548.256,294.519,549.888,294.108L549.888,294.108z"/>
<path fill-rule="evenodd" clip-rule="evenodd" fill="none" stroke="#000000" stroke-width="0.504" stroke-miterlimit="2.4142" d="     M538.475,296.744c1.563-0.388,2.522-1.984,2.113-3.618c-0.39-1.56-1.987-2.518-3.55-2.129c-1.627,0.405-2.592,2.002-2.199,3.563     C535.247,296.194,536.843,297.154,538.475,296.744L538.475,296.744z"/>
<path fill-rule="evenodd" clip-rule="evenodd" fill="none" stroke="#000000" stroke-width="0.504" stroke-miterlimit="2.4142" d="     M545.321,300.375c1.564-0.389,2.523-1.985,2.114-3.617c-0.391-1.563-1.985-2.521-3.548-2.13     c-1.629,0.404-2.594,2.001-2.199,3.562C542.094,299.825,543.692,300.784,545.321,300.375L545.321,300.375z"/>
</g></switch>
</svg>