<?xml version="1.0" encoding="utf-8"?>
<!DOCTYPE svg PUBLIC "-//W3C//DTD SVG 1.1//EN" "http://www.w3.org/Graphics/SVG/1.1/DTD/svg11.dtd">
<svg version="1.1" id="Armor" xmlns="http://www.w3.org/2000/svg" xmlns:xlink="http://www.w3.org/1999/xlink" x="0px" y="0px"
	 width="612px" height="792px" viewBox="0 0 612 792" enable-background="new 0 0 612 792" xml:space="preserve">
<switch><g>
<path fill="none" stroke="#000000" stroke-width="0.504" stroke-miterlimit="2.4142" d="M563.149,80.319     c1.66-0.144,2.916-1.649,2.772-3.31c-0.153-1.729-1.647-2.923-3.308-2.779c-1.733,0.152-3.008,1.59-2.855,3.318     C559.911,79.211,561.417,80.475,563.149,80.319L563.149,80.319z"/>
<path fill="none" stroke="#000000" stroke-width="0.504" stroke-miterlimit="2.4142" d="M551.848,81.309     c1.664-0.144,2.924-1.652,2.785-3.309c-0.156-1.73-1.652-2.924-3.322-2.781c-1.725,0.152-2.998,1.587-2.84,3.322     C548.613,80.2,550.119,81.462,551.848,81.309L551.848,81.309z"/>
<path fill="none" stroke="#000000" stroke-width="0.504" stroke-miterlimit="2.4142" d="M558.52,92.465     c1.664-0.146,2.923-1.653,2.776-3.312c-0.153-1.733-1.642-2.927-3.306-2.783c-1.736,0.151-3.006,1.59-2.856,3.321     C555.279,91.351,556.791,92.615,558.52,92.465L558.52,92.465z"/>
<path fill="none" stroke="#000000" stroke-width="0.504" stroke-miterlimit="2.4142" d="M565.181,103.616     c1.667-0.146,2.93-1.651,2.78-3.313c-0.15-1.73-1.643-2.923-3.308-2.775c-1.729,0.148-3.008,1.581-2.857,3.314     C561.945,102.502,563.458,103.767,565.181,103.616L565.181,103.616z"/>
<path fill="none" stroke="#000000" stroke-width="0.504" stroke-miterlimit="2.4142" d="M553.882,104.607     c1.671-0.145,2.933-1.652,2.786-3.313c-0.151-1.732-1.645-2.924-3.313-2.778c-1.728,0.152-2.998,1.586-2.852,3.317     C550.649,103.493,552.16,104.758,553.882,104.607L553.882,104.607z"/>
<path fill="none" stroke="#000000" stroke-width="0.504" stroke-miterlimit="2.4142" d="M560.554,115.761     c1.668-0.143,2.925-1.646,2.78-3.309c-0.153-1.733-1.646-2.925-3.316-2.782c-1.719,0.153-2.996,1.59-2.844,3.323     C557.317,114.653,558.824,115.915,560.554,115.761L560.554,115.761z"/>
<path fill="none" stroke="#000000" stroke-width="0.504" stroke-miterlimit="2.4142" d="M567.223,126.915     c1.668-0.145,2.925-1.651,2.775-3.312c-0.146-1.731-1.646-2.924-3.313-2.779c-1.724,0.15-2.998,1.584-2.849,3.317     C563.982,125.802,565.494,127.067,567.223,126.915L567.223,126.915z"/>
<path fill="none" stroke="#000000" stroke-width="0.504" stroke-miterlimit="2.4142" d="M555.925,127.907     c1.666-0.145,2.928-1.653,2.78-3.313c-0.148-1.731-1.647-2.926-3.315-2.782c-1.722,0.153-2.99,1.59-2.841,3.321     C552.689,126.795,554.197,128.058,555.925,127.907L555.925,127.907z"/>
<path fill="none" stroke="#000000" stroke-width="0.504" stroke-miterlimit="2.4142" d="M562.592,139.061     c1.666-0.144,2.926-1.652,2.776-3.314c-0.151-1.729-1.643-2.924-3.309-2.782c-1.725,0.155-3.004,1.592-2.849,3.324     C559.354,137.946,560.868,139.212,562.592,139.061L562.592,139.061z"/>
<path fill="none" stroke="#000000" stroke-width="0.504" stroke-miterlimit="2.4142" d="M569.259,150.215     c1.668-0.147,2.929-1.652,2.779-3.315c-0.147-1.731-1.646-2.926-3.313-2.779c-1.723,0.152-3.005,1.587-2.85,3.322     C566.021,149.099,567.532,150.365,569.259,150.215L569.259,150.215z"/>
<path fill="none" stroke="#000000" stroke-width="0.504" stroke-miterlimit="2.4142" d="M557.964,151.203     c1.665-0.144,2.925-1.649,2.777-3.31c-0.152-1.735-1.646-2.927-3.313-2.782c-1.729,0.151-3.001,1.586-2.849,3.321     C554.725,150.093,556.235,151.354,557.964,151.203L557.964,151.203z"/>
<path fill="none" stroke="#000000" stroke-width="0.504" stroke-miterlimit="2.4142" d="M564.632,162.356     c1.661-0.146,2.922-1.653,2.778-3.312c-0.155-1.732-1.648-2.924-3.315-2.781c-1.724,0.151-3,1.588-2.843,3.32     C561.389,161.244,562.902,162.506,564.632,162.356L564.632,162.356z"/>
<path fill="none" stroke="#000000" stroke-width="0.504" stroke-miterlimit="2.4142" d="M571.297,173.509     c1.666-0.143,2.925-1.65,2.779-3.311c-0.151-1.732-1.65-2.926-3.311-2.779c-1.728,0.148-3.005,1.586-2.853,3.319     C568.055,172.399,569.57,173.662,571.297,173.509L571.297,173.509z"/>
<path fill="none" stroke="#000000" stroke-width="0.504" stroke-miterlimit="2.4142" d="M560.002,174.498     c1.665-0.138,2.926-1.65,2.775-3.309c-0.148-1.733-1.646-2.926-3.311-2.777c-1.726,0.147-2.998,1.585-2.845,3.317     C556.766,173.387,558.271,174.653,560.002,174.498L560.002,174.498z"/>
</g></switch>
</svg>