<?xml version="1.0" encoding="utf-8"?>
<!DOCTYPE svg PUBLIC "-//W3C//DTD SVG 1.1//EN" "http://www.w3.org/Graphics/SVG/1.1/DTD/svg11.dtd">
<svg version="1.1" id="Armor" xmlns="http://www.w3.org/2000/svg" xmlns:xlink="http://www.w3.org/1999/xlink" x="0px" y="0px"
	 width="612px" height="792px" viewBox="0 0 612 792" enable-background="new 0 0 612 792" xml:space="preserve">
<switch><g>
<path fill-rule="evenodd" clip-rule="evenodd" fill="none" stroke="#000000" stroke-width="0.504" stroke-miterlimit="2.4142" d="     M462.577,192.64c-1.56-0.391-2.521-1.986-2.113-3.619c0.388-1.563,1.983-2.522,3.547-2.132c1.632,0.406,2.591,2.003,2.2,3.566     C465.806,192.087,464.208,193.046,462.577,192.64L462.577,192.64z"/>
<path fill-rule="evenodd" clip-rule="evenodd" fill="none" stroke="#000000" stroke-width="0.504" stroke-miterlimit="2.4142" d="     M450.449,241.284c-1.561-0.39-2.521-1.986-2.115-3.619c0.391-1.563,1.986-2.521,3.549-2.131c1.631,0.406,2.592,2.003,2.201,3.565     C453.678,240.73,452.078,241.69,450.449,241.284L450.449,241.284z"/>
<path fill-rule="evenodd" clip-rule="evenodd" fill="none" stroke="#000000" stroke-width="0.504" stroke-miterlimit="2.4142" d="     M438.318,289.926c-1.562-0.389-2.521-1.985-2.112-3.618c0.391-1.562,1.987-2.52,3.55-2.13c1.629,0.405,2.591,2.002,2.2,3.564     C441.548,289.375,439.951,290.334,438.318,289.926L438.318,289.926z"/>
</g></switch>
</svg>