<?xml version="1.0" encoding="utf-8"?>
<!DOCTYPE svg PUBLIC "-//W3C//DTD SVG 1.1//EN" "http://www.w3.org/Graphics/SVG/1.1/DTD/svg11.dtd">
<svg version="1.1" id="Armor" xmlns="http://www.w3.org/2000/svg" xmlns:xlink="http://www.w3.org/1999/xlink" x="0px" y="0px"
	 width="612px" height="792px" viewBox="0 0 612 792" enable-background="new 0 0 612 792" xml:space="preserve">
<switch><g>
<path fill="none" stroke="#000000" stroke-width="0.504" stroke-miterlimit="2.4142" d="M446.04,93.42      c-1.321,0-2.417-1.098-2.417-2.415c0-1.317,1.096-2.414,2.417-2.414c1.316,0,2.412,1.097,2.412,2.414      C448.452,92.322,447.356,93.42,446.04,93.42L446.04,93.42z"/>
<path fill="none" stroke="#000000" stroke-width="0.504" stroke-miterlimit="2.4142" d="M457.09,93.42      c-1.321,0-2.417-1.098-2.417-2.415c0-1.317,1.096-2.414,2.417-2.414c1.316,0,2.412,1.097,2.412,2.414      C459.502,92.322,458.406,93.42,457.09,93.42L457.09,93.42z"/>
<path fill="none" stroke="#000000" stroke-width="0.504" stroke-miterlimit="2.4142" d="M468.137,93.42      c-1.316,0-2.414-1.098-2.414-2.415c0-1.317,1.098-2.414,2.414-2.414s2.415,1.097,2.415,2.414      C470.552,92.322,469.453,93.42,468.137,93.42L468.137,93.42z"/>
<path fill="none" stroke="#000000" stroke-width="0.504" stroke-miterlimit="2.4142" d="M446.04,106.144      c-1.321,0-2.417-1.098-2.417-2.415s1.096-2.414,2.417-2.414c1.316,0,2.412,1.097,2.412,2.414S447.356,106.144,446.04,106.144      L446.04,106.144z"/>
<path fill="none" stroke="#000000" stroke-width="0.504" stroke-miterlimit="2.4142" d="M457.09,106.144      c-1.321,0-2.417-1.098-2.417-2.415s1.096-2.414,2.417-2.414c1.316,0,2.412,1.097,2.412,2.414S458.406,106.144,457.09,106.144      L457.09,106.144z"/>
<path fill="none" stroke="#000000" stroke-width="0.504" stroke-miterlimit="2.4142" d="M468.137,106.144      c-1.316,0-2.414-1.098-2.414-2.415s1.098-2.414,2.414-2.414s2.415,1.097,2.415,2.414S469.453,106.144,468.137,106.144      L468.137,106.144z"/>
<path fill="none" stroke="#000000" stroke-width="0.504" stroke-miterlimit="2.4142" d="M446.04,118.866      c-1.321,0-2.417-1.098-2.417-2.415c0-1.317,1.096-2.414,2.417-2.414c1.316,0,2.412,1.097,2.412,2.414      C448.452,117.768,447.356,118.866,446.04,118.866L446.04,118.866z"/>
<path fill="none" stroke="#000000" stroke-width="0.504" stroke-miterlimit="2.4142" d="M457.09,118.866      c-1.321,0-2.417-1.098-2.417-2.415c0-1.317,1.096-2.414,2.417-2.414c1.316,0,2.412,1.097,2.412,2.414      C459.502,117.768,458.406,118.866,457.09,118.866L457.09,118.866z"/>
<path fill="none" stroke="#000000" stroke-width="0.504" stroke-miterlimit="2.4142" d="M468.137,118.866      c-1.316,0-2.414-1.098-2.414-2.415c0-1.317,1.098-2.414,2.414-2.414s2.415,1.097,2.415,2.414      C470.552,117.768,469.453,118.866,468.137,118.866L468.137,118.866z"/>
<path fill="none" stroke="#000000" stroke-width="0.504" stroke-miterlimit="2.4142" d="M462.382,129.044     c-1.316,0-2.414-1.098-2.414-2.414c0-1.317,1.098-2.415,2.414-2.415s2.415,1.098,2.415,2.415     C464.797,127.947,463.698,129.044,462.382,129.044L462.382,129.044z"/>
<path fill="none" stroke="#000000" stroke-width="0.504" stroke-miterlimit="2.4142" d="M464.775,134.394     c-1.321,0-2.417,1.098-2.417,2.415s1.096,2.415,2.417,2.415c1.315,0,2.411-1.097,2.411-2.415     C467.188,135.491,466.092,134.394,464.775,134.394L464.775,134.394z"/>
<path fill="none" stroke="#000000" stroke-width="0.504" stroke-miterlimit="2.4142" d="M467.166,144.572     c-1.321,0-2.417,1.098-2.417,2.415c0,1.317,1.096,2.415,2.417,2.415c1.316,0,2.412-1.097,2.412-2.415     C469.578,145.67,468.482,144.572,467.166,144.572L467.166,144.572z"/>
<path fill="none" stroke="#000000" stroke-width="0.504" stroke-miterlimit="2.4142" d="M469.553,159.616     c-1.315,0-2.413-1.097-2.413-2.488c0-1.317,1.098-2.414,2.413-2.414c1.316,0,2.416,1.097,2.416,2.414     C471.969,158.52,470.869,159.616,469.553,159.616L469.553,159.616z"/>
<path fill="none" stroke="#000000" stroke-width="0.504" stroke-miterlimit="2.4142" d="M455.957,169.794     c-1.316,0-2.413-1.097-2.413-2.488c0-1.317,1.097-2.414,2.413-2.414s2.416,1.097,2.416,2.414     C458.373,168.697,457.273,169.794,455.957,169.794L455.957,169.794z"/>
<path fill="none" stroke="#000000" stroke-width="0.504" stroke-miterlimit="2.4142" d="M469.553,169.794     c-1.315,0-2.413-1.097-2.413-2.488c0-1.317,1.098-2.414,2.413-2.414c1.316,0,2.416,1.097,2.416,2.414     C471.969,168.698,470.869,169.794,469.553,169.794L469.553,169.794z"/>
</g></switch>
</svg>