<?xml version="1.0" encoding="utf-8"?>
<!DOCTYPE svg PUBLIC "-//W3C//DTD SVG 1.1//EN" "http://www.w3.org/Graphics/SVG/1.1/DTD/svg11.dtd" [
	<!ENTITY ns_extend "http://ns.adobe.com/Extensibility/1.0/">
	<!ENTITY ns_ai "http://ns.adobe.com/AdobeIllustrator/10.0/">
	<!ENTITY ns_graphs "http://ns.adobe.com/Graphs/1.0/">
	<!ENTITY ns_vars "http://ns.adobe.com/Variables/1.0/">
	<!ENTITY ns_imrep "http://ns.adobe.com/ImageReplacement/1.0/">
	<!ENTITY ns_sfw "http://ns.adobe.com/SaveForWeb/1.0/">
	<!ENTITY ns_custom "http://ns.adobe.com/GenericCustomNamespace/1.0/">
	<!ENTITY ns_adobe_xpath "http://ns.adobe.com/XPath/1.0/">
]>
<svg version="1.1" id="Internal_Structure" xmlns:x="&ns_extend;" xmlns:i="&ns_ai;" xmlns:graph="&ns_graphs;"
	 xmlns="http://www.w3.org/2000/svg" xmlns:xlink="http://www.w3.org/1999/xlink" x="0px" y="0px" width="612px" height="792px"
	 viewBox="0 0 612 792" enable-background="new 0 0 612 792" xml:space="preserve">
<switch>
<g i:extraneous="self">
<path xmlns="http://www.w3.org/2000/svg" xmlns:ns1="http://ns.adobe.com/AdobeIllustrator/10.0/" ns1:knockout="Off" fill-rule="evenodd" clip-rule="evenodd" fill="none" stroke="#000000" stroke-width="0.504" stroke-miterlimit="2.4142" d="      M522.431,426.504c-0.991,0.087-1.889-0.666-1.976-1.656c-0.086-0.989,0.667-1.887,1.658-1.974      c0.988-0.085,1.886,0.667,1.972,1.656C524.172,425.52,523.42,426.417,522.431,426.504L522.431,426.504z"/>
<path xmlns="http://www.w3.org/2000/svg" xmlns:ns1="http://ns.adobe.com/AdobeIllustrator/10.0/" ns1:knockout="Off" fill-rule="evenodd" clip-rule="evenodd" fill="none" stroke="#000000" stroke-width="0.504" stroke-miterlimit="2.4142" d="      M527.103,430.236c-0.991,0.086-1.888-0.666-1.975-1.656c-0.087-0.989,0.666-1.886,1.657-1.974      c0.989-0.086,1.885,0.666,1.972,1.656S528.092,430.15,527.103,430.236L527.103,430.236z"/>
<path xmlns="http://www.w3.org/2000/svg" xmlns:ns1="http://ns.adobe.com/AdobeIllustrator/10.0/" ns1:knockout="Off" fill-rule="evenodd" clip-rule="evenodd" fill="none" stroke="#000000" stroke-width="0.504" stroke-miterlimit="2.4142" d="      M523.27,436.093c-0.991,0.087-1.889-0.665-1.976-1.655c-0.087-0.989,0.667-1.887,1.658-1.973      c0.989-0.087,1.886,0.666,1.972,1.654C525.01,435.11,524.259,436.006,523.27,436.093L523.27,436.093z"/>
<path xmlns="http://www.w3.org/2000/svg" xmlns:ns1="http://ns.adobe.com/AdobeIllustrator/10.0/" ns1:knockout="Off" fill-rule="evenodd" clip-rule="evenodd" fill="none" stroke="#000000" stroke-width="0.504" stroke-miterlimit="2.4142" d="      M527.756,440.024c-0.99,0.086-1.888-0.666-1.975-1.655c-0.086-0.991,0.667-1.888,1.657-1.974      c0.99-0.087,1.886,0.665,1.972,1.656C529.498,439.041,528.745,439.938,527.756,440.024L527.756,440.024z"/>
<path xmlns="http://www.w3.org/2000/svg" xmlns:ns1="http://ns.adobe.com/AdobeIllustrator/10.0/" ns1:knockout="Off" fill-rule="evenodd" clip-rule="evenodd" fill="none" stroke="#000000" stroke-width="0.504" stroke-miterlimit="2.4142" d="      M524.107,445.684c-0.99,0.086-1.888-0.666-1.975-1.655c-0.087-0.99,0.666-1.888,1.658-1.975      c0.989-0.086,1.886,0.667,1.972,1.657C525.849,444.7,525.098,445.598,524.107,445.684L524.107,445.684z"/>
<path xmlns="http://www.w3.org/2000/svg" xmlns:ns1="http://ns.adobe.com/AdobeIllustrator/10.0/" ns1:knockout="Off" fill-rule="evenodd" clip-rule="evenodd" fill="none" stroke="#000000" stroke-width="0.504" stroke-miterlimit="2.4142" d="      M528.409,449.813c-0.992,0.086-1.889-0.666-1.976-1.656s0.667-1.887,1.657-1.973c0.989-0.088,1.886,0.666,1.973,1.656      C530.149,448.83,529.397,449.725,528.409,449.813L528.409,449.813z"/>
<path xmlns="http://www.w3.org/2000/svg" xmlns:ns1="http://ns.adobe.com/AdobeIllustrator/10.0/" ns1:knockout="Off" fill-rule="evenodd" clip-rule="evenodd" fill="none" stroke="#000000" stroke-width="0.504" stroke-miterlimit="2.4142" d="      M524.946,455.273c-0.99,0.086-1.888-0.665-1.974-1.655c-0.087-0.991,0.666-1.887,1.656-1.974      c0.99-0.086,1.886,0.665,1.972,1.656C526.688,454.29,525.936,455.188,524.946,455.273L524.946,455.273z"/>
<path xmlns="http://www.w3.org/2000/svg" xmlns:ns1="http://ns.adobe.com/AdobeIllustrator/10.0/" ns1:knockout="Off" fill-rule="evenodd" clip-rule="evenodd" fill="none" stroke="#000000" stroke-width="0.504" stroke-miterlimit="2.4142" d="      M529.061,459.601c-0.99,0.086-1.889-0.666-1.975-1.655c-0.086-0.991,0.668-1.887,1.658-1.974      c0.988-0.087,1.885,0.665,1.973,1.655C530.803,458.617,530.051,459.514,529.061,459.601L529.061,459.601z"/>
<path xmlns="http://www.w3.org/2000/svg" xmlns:ns1="http://ns.adobe.com/AdobeIllustrator/10.0/" ns1:knockout="Off" fill-rule="evenodd" clip-rule="evenodd" fill="none" stroke="#000000" stroke-width="0.504" stroke-miterlimit="2.4142" d="      M525.786,464.863c-0.991,0.086-1.888-0.666-1.975-1.656s0.667-1.887,1.657-1.973c0.989-0.088,1.885,0.666,1.972,1.654      C527.527,463.879,526.775,464.775,525.786,464.863L525.786,464.863z"/>
<path xmlns="http://www.w3.org/2000/svg" xmlns:ns1="http://ns.adobe.com/AdobeIllustrator/10.0/" ns1:knockout="Off" fill-rule="evenodd" clip-rule="evenodd" fill="none" stroke="#000000" stroke-width="0.504" stroke-miterlimit="2.4142" d="      M529.715,469.389c-0.991,0.087-1.889-0.666-1.975-1.656c-0.087-0.989,0.666-1.886,1.657-1.974      c0.989-0.086,1.886,0.666,1.972,1.656C531.457,468.406,530.704,469.302,529.715,469.389L529.715,469.389z"/>
<path xmlns="http://www.w3.org/2000/svg" xmlns:ns1="http://ns.adobe.com/AdobeIllustrator/10.0/" ns1:knockout="Off" fill-rule="evenodd" clip-rule="evenodd" fill="none" stroke="#000000" stroke-width="0.504" stroke-miterlimit="2.4142" d="      M526.625,474.452c-0.99,0.087-1.888-0.667-1.975-1.656c-0.086-0.988,0.667-1.886,1.657-1.973s1.886,0.666,1.973,1.655      C528.367,473.469,527.615,474.365,526.625,474.452L526.625,474.452z"/>
<path xmlns="http://www.w3.org/2000/svg" xmlns:ns1="http://ns.adobe.com/AdobeIllustrator/10.0/" ns1:knockout="Off" fill-rule="evenodd" clip-rule="evenodd" fill="none" stroke="#000000" stroke-width="0.504" stroke-miterlimit="2.4142" d="      M530.368,479.176c-0.991,0.087-1.889-0.665-1.976-1.655s0.667-1.888,1.658-1.974c0.989-0.086,1.885,0.666,1.972,1.656      C532.108,478.192,531.357,479.089,530.368,479.176L530.368,479.176z"/>
<path xmlns="http://www.w3.org/2000/svg" xmlns:ns1="http://ns.adobe.com/AdobeIllustrator/10.0/" ns1:knockout="Off" fill-rule="evenodd" clip-rule="evenodd" fill="none" stroke="#000000" stroke-width="0.504" stroke-miterlimit="2.4142" d="      M527.465,484.042c-0.992,0.087-1.89-0.666-1.976-1.656c-0.087-0.99,0.667-1.886,1.657-1.972      c0.989-0.088,1.886,0.665,1.973,1.654C529.205,483.059,528.454,483.956,527.465,484.042L527.465,484.042z"/>
<path xmlns="http://www.w3.org/2000/svg" xmlns:ns1="http://ns.adobe.com/AdobeIllustrator/10.0/" ns1:knockout="Off" fill-rule="evenodd" clip-rule="evenodd" fill="none" stroke="#000000" stroke-width="0.504" stroke-miterlimit="2.4142" d="      M531.021,488.965c-0.991,0.087-1.888-0.666-1.976-1.656c-0.086-0.99,0.667-1.887,1.658-1.974      c0.989-0.087,1.886,0.665,1.973,1.656C532.762,487.98,532.011,488.878,531.021,488.965L531.021,488.965z"/>
<path xmlns="http://www.w3.org/2000/svg" xmlns:ns1="http://ns.adobe.com/AdobeIllustrator/10.0/" ns1:knockout="Off" fill-rule="evenodd" clip-rule="evenodd" fill="none" stroke="#000000" stroke-width="0.504" stroke-miterlimit="2.4142" d="      M530.946,495.508c-0.991,0.087-1.889-0.666-1.975-1.655c-0.087-0.991,0.666-1.887,1.657-1.974      c0.989-0.088,1.886,0.665,1.973,1.655S531.937,495.421,530.946,495.508L530.946,495.508z"/>
</g>
</switch>
</svg>