<?xml version="1.0" encoding="utf-8"?>
<!DOCTYPE svg PUBLIC "-//W3C//DTD SVG 1.1//EN" "http://www.w3.org/Graphics/SVG/1.1/DTD/svg11.dtd" [
	<!ENTITY ns_extend "http://ns.adobe.com/Extensibility/1.0/">
	<!ENTITY ns_ai "http://ns.adobe.com/AdobeIllustrator/10.0/">
	<!ENTITY ns_graphs "http://ns.adobe.com/Graphs/1.0/">
	<!ENTITY ns_vars "http://ns.adobe.com/Variables/1.0/">
	<!ENTITY ns_imrep "http://ns.adobe.com/ImageReplacement/1.0/">
	<!ENTITY ns_sfw "http://ns.adobe.com/SaveForWeb/1.0/">
	<!ENTITY ns_custom "http://ns.adobe.com/GenericCustomNamespace/1.0/">
	<!ENTITY ns_adobe_xpath "http://ns.adobe.com/XPath/1.0/">
]>
<svg version="1.1" id="Internal_Structure" xmlns:x="&ns_extend;" xmlns:i="&ns_ai;" xmlns:graph="&ns_graphs;"
	 xmlns="http://www.w3.org/2000/svg" xmlns:xlink="http://www.w3.org/1999/xlink" x="0px" y="0px" width="612px" height="792px"
	 viewBox="0 0 612 792" enable-background="new 0 0 612 792" xml:space="preserve">
<switch>
<g i:extraneous="self">
<path xmlns="http://www.w3.org/2000/svg" xmlns:ns1="http://ns.adobe.com/AdobeIllustrator/10.0/" ns1:knockout="Off" fill-rule="evenodd" clip-rule="evenodd" fill="none" stroke="#000000" stroke-width="0.504" stroke-miterlimit="2.4142" d="      M431.719,427.655c0.991,0.088,1.887-0.664,1.975-1.655c0.088-0.99-0.667-1.886-1.658-1.973      c-0.988-0.088-1.884,0.665-1.971,1.655C429.977,426.673,430.728,427.568,431.719,427.655L431.719,427.655z"/>
<path xmlns="http://www.w3.org/2000/svg" xmlns:ns1="http://ns.adobe.com/AdobeIllustrator/10.0/" ns1:knockout="Off" fill-rule="evenodd" clip-rule="evenodd" fill="none" stroke="#000000" stroke-width="0.504" stroke-miterlimit="2.4142" d="      M430.954,436.38c0.991,0.087,1.891-0.665,1.978-1.655c0.084-0.99-0.667-1.887-1.658-1.974s-1.885,0.665-1.974,1.654      C429.215,435.396,429.966,436.293,430.954,436.38L430.954,436.38z"/>
<path xmlns="http://www.w3.org/2000/svg" xmlns:ns1="http://ns.adobe.com/AdobeIllustrator/10.0/" ns1:knockout="Off" fill-rule="evenodd" clip-rule="evenodd" fill="none" stroke="#000000" stroke-width="0.504" stroke-miterlimit="2.4142" d="      M430.191,445.104c0.992,0.087,1.888-0.666,1.976-1.656c0.087-0.99-0.667-1.886-1.658-1.973      c-0.988-0.088-1.885,0.666-1.971,1.656C428.45,444.12,429.203,445.018,430.191,445.104L430.191,445.104z"/>
<path xmlns="http://www.w3.org/2000/svg" xmlns:ns1="http://ns.adobe.com/AdobeIllustrator/10.0/" ns1:knockout="Off" fill-rule="evenodd" clip-rule="evenodd" fill="none" stroke="#000000" stroke-width="0.504" stroke-miterlimit="2.4142" d="      M429.429,453.828c0.991,0.087,1.888-0.665,1.975-1.655s-0.664-1.887-1.655-1.974s-1.887,0.665-1.975,1.655      C427.689,452.845,428.44,453.74,429.429,453.828L429.429,453.828z"/>
<path xmlns="http://www.w3.org/2000/svg" xmlns:ns1="http://ns.adobe.com/AdobeIllustrator/10.0/" ns1:knockout="Off" fill-rule="evenodd" clip-rule="evenodd" fill="none" stroke="#000000" stroke-width="0.504" stroke-miterlimit="2.4142" d="      M428.665,462.552c0.992,0.087,1.888-0.665,1.976-1.655c0.087-0.99-0.667-1.886-1.658-1.974      c-0.991-0.085-1.885,0.665-1.972,1.654C426.924,461.57,427.674,462.465,428.665,462.552L428.665,462.552z"/>
<path xmlns="http://www.w3.org/2000/svg" xmlns:ns1="http://ns.adobe.com/AdobeIllustrator/10.0/" ns1:knockout="Off" fill-rule="evenodd" clip-rule="evenodd" fill="none" stroke="#000000" stroke-width="0.504" stroke-miterlimit="2.4142" d="      M427.903,471.275c0.99,0.087,1.889-0.666,1.974-1.656c0.087-0.99-0.667-1.886-1.658-1.973c-0.988-0.086-1.884,0.666-1.972,1.656      C426.16,470.292,426.914,471.189,427.903,471.275L427.903,471.275z"/>
<path xmlns="http://www.w3.org/2000/svg" xmlns:ns1="http://ns.adobe.com/AdobeIllustrator/10.0/" ns1:knockout="Off" fill-rule="evenodd" clip-rule="evenodd" fill="none" stroke="#000000" stroke-width="0.504" stroke-miterlimit="2.4142" d="      M427.139,480c0.991,0.087,1.888-0.665,1.975-1.655s-0.666-1.887-1.658-1.974c-0.988-0.088-1.887,0.665-1.971,1.655      C425.397,479.017,426.147,479.912,427.139,480L427.139,480z"/>
<path xmlns="http://www.w3.org/2000/svg" xmlns:ns1="http://ns.adobe.com/AdobeIllustrator/10.0/" ns1:knockout="Off" fill-rule="evenodd" clip-rule="evenodd" fill="none" stroke="#000000" stroke-width="0.504" stroke-miterlimit="2.4142" d="      M426.376,488.724c0.991,0.087,1.89-0.665,1.975-1.655c0.088-0.99-0.666-1.886-1.657-1.974c-0.988-0.085-1.884,0.665-1.972,1.657      C424.635,487.742,425.389,488.637,426.376,488.724L426.376,488.724z"/>
<path xmlns="http://www.w3.org/2000/svg" xmlns:ns1="http://ns.adobe.com/AdobeIllustrator/10.0/" ns1:knockout="Off" fill-rule="evenodd" clip-rule="evenodd" fill="none" stroke="#000000" stroke-width="0.504" stroke-miterlimit="2.4142" d="      M425.613,497.448c0.989,0.087,1.889-0.666,1.973-1.656c0.087-0.99-0.664-1.886-1.655-1.974      c-0.991-0.085-1.888,0.667-1.972,1.657C423.872,496.466,424.622,497.362,425.613,497.448L425.613,497.448z"/>
</g>
</switch>
</svg>