<?xml version="1.0" encoding="utf-8"?>
<!DOCTYPE svg PUBLIC "-//W3C//DTD SVG 1.1//EN" "http://www.w3.org/Graphics/SVG/1.1/DTD/svg11.dtd" [
	<!ENTITY ns_extend "http://ns.adobe.com/Extensibility/1.0/">
	<!ENTITY ns_ai "http://ns.adobe.com/AdobeIllustrator/10.0/">
	<!ENTITY ns_graphs "http://ns.adobe.com/Graphs/1.0/">
	<!ENTITY ns_vars "http://ns.adobe.com/Variables/1.0/">
	<!ENTITY ns_imrep "http://ns.adobe.com/ImageReplacement/1.0/">
	<!ENTITY ns_sfw "http://ns.adobe.com/SaveForWeb/1.0/">
	<!ENTITY ns_custom "http://ns.adobe.com/GenericCustomNamespace/1.0/">
	<!ENTITY ns_adobe_xpath "http://ns.adobe.com/XPath/1.0/">
]>
<svg version="1.1" id="Internal_Structure" xmlns:x="&ns_extend;" xmlns:i="&ns_ai;" xmlns:graph="&ns_graphs;"
	 xmlns="http://www.w3.org/2000/svg" xmlns:xlink="http://www.w3.org/1999/xlink" x="0px" y="0px" width="612px" height="792px"
	 viewBox="0 0 612 792" enable-background="new 0 0 612 792" xml:space="preserve">
<switch>
<g i:extraneous="self">
<path xmlns="http://www.w3.org/2000/svg" xmlns:ns1="http://ns.adobe.com/AdobeIllustrator/10.0/" ns1:knockout="Off" fill-rule="evenodd" clip-rule="evenodd" fill="none" stroke="#000000" stroke-width="0.504" stroke-miterlimit="2.4142" d="      M431.106,434.635c0.991,0.087,1.891-0.665,1.978-1.655c0.084-0.99-0.667-1.887-1.658-1.974s-1.885,0.665-1.974,1.654      C429.367,433.651,430.118,434.548,431.106,434.635L431.106,434.635z"/>
<path xmlns="http://www.w3.org/2000/svg" xmlns:ns1="http://ns.adobe.com/AdobeIllustrator/10.0/" ns1:knockout="Off" fill-rule="evenodd" clip-rule="evenodd" fill="none" stroke="#000000" stroke-width="0.504" stroke-miterlimit="2.4142" d="      M430.132,445.802c0.99,0.087,1.889-0.666,1.974-1.656c0.087-0.99-0.667-1.886-1.658-1.973c-0.988-0.086-1.884,0.666-1.972,1.656      C428.389,444.818,429.143,445.716,430.132,445.802L430.132,445.802z"/>
<path xmlns="http://www.w3.org/2000/svg" xmlns:ns1="http://ns.adobe.com/AdobeIllustrator/10.0/" ns1:knockout="Off" fill-rule="evenodd" clip-rule="evenodd" fill="none" stroke="#000000" stroke-width="0.504" stroke-miterlimit="2.4142" d="      M429.153,456.969c0.991,0.087,1.888-0.665,1.975-1.655s-0.666-1.887-1.658-1.974c-0.988-0.088-1.887,0.665-1.971,1.655      C427.412,455.985,428.162,456.881,429.153,456.969L429.153,456.969z"/>
<path xmlns="http://www.w3.org/2000/svg" xmlns:ns1="http://ns.adobe.com/AdobeIllustrator/10.0/" ns1:knockout="Off" fill-rule="evenodd" clip-rule="evenodd" fill="none" stroke="#000000" stroke-width="0.504" stroke-miterlimit="2.4142" d="      M428.177,468.135c0.991,0.087,1.89-0.665,1.975-1.655c0.088-0.99-0.666-1.886-1.657-1.974c-0.988-0.085-1.884,0.665-1.972,1.657      C426.436,467.153,427.189,468.048,428.177,468.135L428.177,468.135z"/>
<path xmlns="http://www.w3.org/2000/svg" xmlns:ns1="http://ns.adobe.com/AdobeIllustrator/10.0/" ns1:knockout="Off" fill-rule="evenodd" clip-rule="evenodd" fill="none" stroke="#000000" stroke-width="0.504" stroke-miterlimit="2.4142" d="      M427.199,479.302c0.992,0.087,1.889-0.666,1.976-1.656s-0.666-1.886-1.658-1.973c-0.991-0.088-1.887,0.666-1.972,1.656      C425.458,478.318,426.209,479.216,427.199,479.302L427.199,479.302z"/>
<path xmlns="http://www.w3.org/2000/svg" xmlns:ns1="http://ns.adobe.com/AdobeIllustrator/10.0/" ns1:knockout="Off" fill-rule="evenodd" clip-rule="evenodd" fill="none" stroke="#000000" stroke-width="0.504" stroke-miterlimit="2.4142" d="      M426.223,490.469c0.991,0.087,1.888-0.665,1.975-1.655c0.088-0.99-0.666-1.887-1.656-1.974      c-0.989-0.088-1.885,0.665-1.973,1.655S425.234,490.381,426.223,490.469L426.223,490.469z"/>
</g>
</switch>
</svg>