<?xml version="1.0" encoding="utf-8"?>
<!DOCTYPE svg PUBLIC "-//W3C//DTD SVG 1.1//EN" "http://www.w3.org/Graphics/SVG/1.1/DTD/svg11.dtd" [
	<!ENTITY ns_extend "http://ns.adobe.com/Extensibility/1.0/">
	<!ENTITY ns_ai "http://ns.adobe.com/AdobeIllustrator/10.0/">
	<!ENTITY ns_graphs "http://ns.adobe.com/Graphs/1.0/">
	<!ENTITY ns_vars "http://ns.adobe.com/Variables/1.0/">
	<!ENTITY ns_imrep "http://ns.adobe.com/ImageReplacement/1.0/">
	<!ENTITY ns_sfw "http://ns.adobe.com/SaveForWeb/1.0/">
	<!ENTITY ns_custom "http://ns.adobe.com/GenericCustomNamespace/1.0/">
	<!ENTITY ns_adobe_xpath "http://ns.adobe.com/XPath/1.0/">
]>
<svg version="1.1" id="Internal_Structure" xmlns:x="&ns_extend;" xmlns:i="&ns_ai;" xmlns:graph="&ns_graphs;"
	 xmlns="http://www.w3.org/2000/svg" xmlns:xlink="http://www.w3.org/1999/xlink" x="0px" y="0px" width="612px" height="792px"
	 viewBox="0 0 612 792" enable-background="new 0 0 612 792" xml:space="preserve">
<switch>
<g i:extraneous="self">
<path xmlns="http://www.w3.org/2000/svg" xmlns:ns1="http://ns.adobe.com/AdobeIllustrator/10.0/" ns1:knockout="Off" fill-rule="evenodd" clip-rule="evenodd" fill="none" stroke="#000000" stroke-width="0.504" stroke-miterlimit="2.4142" d="      M458.461,489.92c0.976,0.19,1.946-0.464,2.137-1.439c0.191-0.977-0.466-1.946-1.441-2.136c-0.975-0.19-1.945,0.464-2.136,1.44      C456.831,488.761,457.485,489.731,458.461,489.92L458.461,489.92z"/>
<path xmlns="http://www.w3.org/2000/svg" xmlns:ns1="http://ns.adobe.com/AdobeIllustrator/10.0/" ns1:knockout="Off" fill-rule="evenodd" clip-rule="evenodd" fill="none" stroke="#000000" stroke-width="0.504" stroke-miterlimit="2.4142" d="      M457.462,495.051c0.979,0.189,1.949-0.465,2.137-1.439c0.191-0.977-0.463-1.947-1.441-2.137      c-0.975-0.189-1.943,0.465-2.133,1.439C455.835,493.891,456.489,494.861,457.462,495.051L457.462,495.051z"/>
<path xmlns="http://www.w3.org/2000/svg" xmlns:ns1="http://ns.adobe.com/AdobeIllustrator/10.0/" ns1:knockout="Off" fill-rule="evenodd" clip-rule="evenodd" fill="none" stroke="#000000" stroke-width="0.504" stroke-miterlimit="2.4142" d="      M456.467,500.181c0.975,0.188,1.946-0.466,2.138-1.441c0.188-0.975-0.467-1.943-1.442-2.133      c-0.975-0.191-1.945,0.463-2.137,1.438C454.837,499.021,455.491,499.99,456.467,500.181L456.467,500.181z"/>
<path xmlns="http://www.w3.org/2000/svg" xmlns:ns1="http://ns.adobe.com/AdobeIllustrator/10.0/" ns1:knockout="Off" fill-rule="evenodd" clip-rule="evenodd" fill="none" stroke="#000000" stroke-width="0.504" stroke-miterlimit="2.4142" d="      M455.47,505.312c0.976,0.188,1.946-0.465,2.135-1.441c0.191-0.976-0.463-1.945-1.442-2.135c-0.975-0.19-1.942,0.464-2.133,1.44      C453.838,504.151,454.492,505.122,455.47,505.312L455.47,505.312z"/>
<path xmlns="http://www.w3.org/2000/svg" xmlns:ns1="http://ns.adobe.com/AdobeIllustrator/10.0/" ns1:knockout="Off" fill-rule="evenodd" clip-rule="evenodd" fill="none" stroke="#000000" stroke-width="0.504" stroke-miterlimit="2.4142" d="      M454.471,510.442c0.976,0.189,1.946-0.465,2.138-1.44c0.188-0.976-0.467-1.945-1.442-2.136c-0.975-0.189-1.945,0.464-2.134,1.44      C452.842,509.282,453.495,510.253,454.471,510.442L454.471,510.442z"/>
<path xmlns="http://www.w3.org/2000/svg" xmlns:ns1="http://ns.adobe.com/AdobeIllustrator/10.0/" ns1:knockout="Off" fill-rule="evenodd" clip-rule="evenodd" fill="none" stroke="#000000" stroke-width="0.504" stroke-miterlimit="2.4142" d="      M453.472,515.571c0.979,0.191,1.95-0.463,2.141-1.438c0.188-0.976-0.467-1.946-1.445-2.137c-0.975-0.188-1.941,0.465-2.133,1.44      C451.843,514.413,452.5,515.384,453.472,515.571L453.472,515.571z"/>
<path xmlns="http://www.w3.org/2000/svg" xmlns:ns1="http://ns.adobe.com/AdobeIllustrator/10.0/" ns1:knockout="Off" fill-rule="evenodd" clip-rule="evenodd" fill="none" stroke="#000000" stroke-width="0.504" stroke-miterlimit="2.4142" d="      M452.478,520.702c0.979,0.188,1.946-0.464,2.138-1.438c0.188-0.977-0.467-1.947-1.442-2.136      c-0.975-0.191-1.945,0.463-2.137,1.439C450.849,519.544,451.501,520.512,452.478,520.702L452.478,520.702z"/>
<path xmlns="http://www.w3.org/2000/svg" xmlns:ns1="http://ns.adobe.com/AdobeIllustrator/10.0/" ns1:knockout="Off" fill-rule="evenodd" clip-rule="evenodd" fill="none" stroke="#000000" stroke-width="0.504" stroke-miterlimit="2.4142" d="      M451.479,525.833c0.979,0.189,1.95-0.464,2.138-1.44c0.191-0.976-0.464-1.944-1.442-2.136c-0.975-0.189-1.945,0.465-2.133,1.44      C449.85,524.672,450.504,525.643,451.479,525.833L451.479,525.833z"/>
<path xmlns="http://www.w3.org/2000/svg" xmlns:ns1="http://ns.adobe.com/AdobeIllustrator/10.0/" ns1:knockout="Off" fill-rule="evenodd" clip-rule="evenodd" fill="none" stroke="#000000" stroke-width="0.504" stroke-miterlimit="2.4142" d="      M450.482,530.963c0.976,0.189,1.946-0.463,2.138-1.439c0.188-0.977-0.467-1.946-1.442-2.136      c-0.977-0.188-1.945,0.464-2.137,1.439C448.854,529.805,449.508,530.773,450.482,530.963L450.482,530.963z"/>
<path xmlns="http://www.w3.org/2000/svg" xmlns:ns1="http://ns.adobe.com/AdobeIllustrator/10.0/" ns1:knockout="Off" fill-rule="evenodd" clip-rule="evenodd" fill="none" stroke="#000000" stroke-width="0.504" stroke-miterlimit="2.4142" d="      M449.483,536.093c0.979,0.191,1.95-0.462,2.138-1.438c0.19-0.979-0.466-1.945-1.441-2.137c-0.976-0.189-1.945,0.465-2.134,1.441      C447.854,534.936,448.509,535.904,449.483,536.093L449.483,536.093z"/>
<path xmlns="http://www.w3.org/2000/svg" xmlns:ns1="http://ns.adobe.com/AdobeIllustrator/10.0/" ns1:knockout="Off" fill-rule="evenodd" clip-rule="evenodd" fill="none" stroke="#000000" stroke-width="0.504" stroke-miterlimit="2.4142" d="      M448.486,541.225c0.978,0.189,1.948-0.464,2.139-1.44c0.188-0.976-0.466-1.945-1.441-2.137      c-0.975-0.188-1.947,0.466-2.137,1.441C446.859,540.064,447.513,541.035,448.486,541.225L448.486,541.225z"/>
<path xmlns="http://www.w3.org/2000/svg" xmlns:ns1="http://ns.adobe.com/AdobeIllustrator/10.0/" ns1:knockout="Off" fill-rule="evenodd" clip-rule="evenodd" fill="none" stroke="#000000" stroke-width="0.504" stroke-miterlimit="2.4142" d="      M447.489,546.353c0.979,0.192,1.949-0.462,2.138-1.438c0.191-0.977-0.466-1.945-1.441-2.134      c-0.976-0.19-1.945,0.463-2.134,1.438C445.86,545.194,446.515,546.165,447.489,546.353L447.489,546.353z"/>
<path xmlns="http://www.w3.org/2000/svg" xmlns:ns1="http://ns.adobe.com/AdobeIllustrator/10.0/" ns1:knockout="Off" fill-rule="evenodd" clip-rule="evenodd" fill="none" stroke="#000000" stroke-width="0.504" stroke-miterlimit="2.4142" d="      M446.493,551.485c0.976,0.188,1.946-0.466,2.138-1.44c0.188-0.977-0.467-1.946-1.445-2.136c-0.972-0.19-1.942,0.464-2.134,1.439      C444.864,550.323,445.518,551.295,446.493,551.485L446.493,551.485z"/>
<path xmlns="http://www.w3.org/2000/svg" xmlns:ns1="http://ns.adobe.com/AdobeIllustrator/10.0/" ns1:knockout="Off" fill-rule="evenodd" clip-rule="evenodd" fill="none" stroke="#000000" stroke-width="0.504" stroke-miterlimit="2.4142" d="      M445.494,553.039c0.979-0.188,1.949,0.466,2.138,1.443c0.191,0.976-0.467,1.946-1.441,2.134      c-0.976,0.188-1.946-0.465-2.134-1.438C443.865,554.2,444.52,553.23,445.494,553.039L445.494,553.039z"/>
<path xmlns="http://www.w3.org/2000/svg" xmlns:ns1="http://ns.adobe.com/AdobeIllustrator/10.0/" ns1:knockout="Off" fill-rule="evenodd" clip-rule="evenodd" fill="none" stroke="#000000" stroke-width="0.504" stroke-miterlimit="2.4142" d="      M444.497,558.17c0.979-0.188,1.949,0.466,2.138,1.443c0.191,0.976-0.467,1.946-1.441,2.134      c-0.976,0.188-1.946-0.465-2.134-1.438C442.868,559.331,443.522,558.361,444.497,558.17L444.497,558.17z"/>
<path xmlns="http://www.w3.org/2000/svg" xmlns:ns1="http://ns.adobe.com/AdobeIllustrator/10.0/" ns1:knockout="Off" fill-rule="evenodd" clip-rule="evenodd" fill="none" stroke="#000000" stroke-width="0.504" stroke-miterlimit="2.4142" d="      M443.503,566.875c0.976,0.192,1.946-0.462,2.135-1.438c0.19-0.976-0.464-1.946-1.439-2.137      c-0.978-0.188-1.944,0.465-2.137,1.441C441.871,565.717,442.528,566.687,443.503,566.875L443.503,566.875z"/>
<path xmlns="http://www.w3.org/2000/svg" xmlns:ns1="http://ns.adobe.com/AdobeIllustrator/10.0/" ns1:knockout="Off" fill-rule="evenodd" clip-rule="evenodd" fill="none" stroke="#000000" stroke-width="0.504" stroke-miterlimit="2.4142" d="      M442.506,572.006c0.976,0.192,1.946-0.462,2.135-1.438c0.19-0.976-0.464-1.946-1.439-2.137      c-0.978-0.188-1.944,0.465-2.137,1.441C440.874,570.848,441.531,571.817,442.506,572.006L442.506,572.006z"/>
</g>
</switch>
</svg>