<?xml version="1.0" encoding="utf-8"?>
<!DOCTYPE svg PUBLIC "-//W3C//DTD SVG 1.1//EN" "http://www.w3.org/Graphics/SVG/1.1/DTD/svg11.dtd" [
	<!ENTITY ns_extend "http://ns.adobe.com/Extensibility/1.0/">
	<!ENTITY ns_ai "http://ns.adobe.com/AdobeIllustrator/10.0/">
	<!ENTITY ns_graphs "http://ns.adobe.com/Graphs/1.0/">
	<!ENTITY ns_vars "http://ns.adobe.com/Variables/1.0/">
	<!ENTITY ns_imrep "http://ns.adobe.com/ImageReplacement/1.0/">
	<!ENTITY ns_sfw "http://ns.adobe.com/SaveForWeb/1.0/">
	<!ENTITY ns_custom "http://ns.adobe.com/GenericCustomNamespace/1.0/">
	<!ENTITY ns_adobe_xpath "http://ns.adobe.com/XPath/1.0/">
]>
<svg version="1.1" id="Internal_Structure" xmlns:x="&ns_extend;" xmlns:i="&ns_ai;" xmlns:graph="&ns_graphs;"
	 xmlns="http://www.w3.org/2000/svg" xmlns:xlink="http://www.w3.org/1999/xlink" x="0px" y="0px" width="612px" height="792px"
	 viewBox="0 0 612 792" enable-background="new 0 0 612 792" xml:space="preserve">
<switch>
<g i:extraneous="self">
<path xmlns="http://www.w3.org/2000/svg" xmlns:ns1="http://ns.adobe.com/AdobeIllustrator/10.0/" ns1:knockout="Off" fill-rule="evenodd" clip-rule="evenodd" fill="none" stroke="#000000" stroke-width="0.504" stroke-miterlimit="2.4142" d="       M472.789,437.585c-0.995,0-1.824-0.829-1.824-1.821c0-0.995,0.829-1.821,1.824-1.821c0.992,0,1.821,0.826,1.821,1.821       C474.61,436.756,473.781,437.585,472.789,437.585L472.789,437.585z"/>
<path xmlns="http://www.w3.org/2000/svg" xmlns:ns1="http://ns.adobe.com/AdobeIllustrator/10.0/" ns1:knockout="Off" fill-rule="evenodd" clip-rule="evenodd" fill="none" stroke="#000000" stroke-width="0.504" stroke-miterlimit="2.4142" d="       M478.411,437.585c-0.996,0-1.822-0.829-1.822-1.821c0-0.995,0.826-1.821,1.822-1.821c0.992,0,1.82,0.826,1.82,1.821       C480.231,436.756,479.403,437.585,478.411,437.585L478.411,437.585z"/>
<path xmlns="http://www.w3.org/2000/svg" xmlns:ns1="http://ns.adobe.com/AdobeIllustrator/10.0/" ns1:knockout="Off" fill-rule="evenodd" clip-rule="evenodd" fill="none" stroke="#000000" stroke-width="0.504" stroke-miterlimit="2.4142" d="       M484.215,437.585c-0.996,0-1.825-0.829-1.825-1.821c0-0.995,0.829-1.821,1.825-1.821c0.992,0,1.82,0.826,1.82,1.821       C486.035,436.756,485.207,437.585,484.215,437.585L484.215,437.585z"/>
<path xmlns="http://www.w3.org/2000/svg" xmlns:ns1="http://ns.adobe.com/AdobeIllustrator/10.0/" ns1:knockout="Off" fill-rule="evenodd" clip-rule="evenodd" fill="none" stroke="#000000" stroke-width="0.504" stroke-miterlimit="2.4142" d="       M472.789,444.759c-0.995,0-1.824-0.828-1.824-1.821c0-0.994,0.829-1.823,1.824-1.823c0.992,0,1.821,0.829,1.821,1.823       C474.61,443.931,473.781,444.759,472.789,444.759L472.789,444.759z"/>
<path xmlns="http://www.w3.org/2000/svg" xmlns:ns1="http://ns.adobe.com/AdobeIllustrator/10.0/" ns1:knockout="Off" fill-rule="evenodd" clip-rule="evenodd" fill="none" stroke="#000000" stroke-width="0.504" stroke-miterlimit="2.4142" d="       M478.411,444.759c-0.996,0-1.822-0.828-1.822-1.821c0-0.994,0.826-1.823,1.822-1.823c0.992,0,1.82,0.829,1.82,1.823       C480.231,443.931,479.403,444.759,478.411,444.759L478.411,444.759z"/>
<path xmlns="http://www.w3.org/2000/svg" xmlns:ns1="http://ns.adobe.com/AdobeIllustrator/10.0/" ns1:knockout="Off" fill-rule="evenodd" clip-rule="evenodd" fill="none" stroke="#000000" stroke-width="0.504" stroke-miterlimit="2.4142" d="       M484.215,444.759c-0.996,0-1.825-0.828-1.825-1.821c0-0.994,0.829-1.823,1.825-1.823c0.992,0,1.82,0.829,1.82,1.823       C486.035,443.931,485.207,444.759,484.215,444.759L484.215,444.759z"/>
<path xmlns="http://www.w3.org/2000/svg" xmlns:ns1="http://ns.adobe.com/AdobeIllustrator/10.0/" ns1:knockout="Off" fill-rule="evenodd" clip-rule="evenodd" fill="none" stroke="#000000" stroke-width="0.504" stroke-miterlimit="2.4142" d="       M472.789,451.933c-0.995,0-1.824-0.827-1.824-1.821c0-0.993,0.829-1.822,1.824-1.822c0.992,0,1.821,0.829,1.821,1.822       C474.61,451.105,473.781,451.933,472.789,451.933L472.789,451.933z"/>
<path xmlns="http://www.w3.org/2000/svg" xmlns:ns1="http://ns.adobe.com/AdobeIllustrator/10.0/" ns1:knockout="Off" fill-rule="evenodd" clip-rule="evenodd" fill="none" stroke="#000000" stroke-width="0.504" stroke-miterlimit="2.4142" d="       M478.411,451.933c-0.996,0-1.822-0.827-1.822-1.821c0-0.993,0.826-1.822,1.822-1.822c0.992,0,1.82,0.829,1.82,1.822       C480.231,451.105,479.403,451.933,478.411,451.933L478.411,451.933z"/>
<path xmlns="http://www.w3.org/2000/svg" xmlns:ns1="http://ns.adobe.com/AdobeIllustrator/10.0/" ns1:knockout="Off" fill-rule="evenodd" clip-rule="evenodd" fill="none" stroke="#000000" stroke-width="0.504" stroke-miterlimit="2.4142" d="       M484.215,451.933c-0.996,0-1.825-0.827-1.825-1.821c0-0.993,0.829-1.822,1.825-1.822c0.992,0,1.82,0.829,1.82,1.822       C486.035,451.105,485.207,451.933,484.215,451.933L484.215,451.933z"/>
<path xmlns="http://www.w3.org/2000/svg" xmlns:ns1="http://ns.adobe.com/AdobeIllustrator/10.0/" ns1:knockout="Off" fill-rule="evenodd" clip-rule="evenodd" fill="none" stroke="#000000" stroke-width="0.504" stroke-miterlimit="2.4142" d="       M472.789,459.106c-0.995,0-1.824-0.828-1.824-1.821s0.829-1.821,1.824-1.821c0.992,0,1.821,0.828,1.821,1.821       S473.781,459.106,472.789,459.106L472.789,459.106z"/>
<path xmlns="http://www.w3.org/2000/svg" xmlns:ns1="http://ns.adobe.com/AdobeIllustrator/10.0/" ns1:knockout="Off" fill-rule="evenodd" clip-rule="evenodd" fill="none" stroke="#000000" stroke-width="0.504" stroke-miterlimit="2.4142" d="       M478.411,459.106c-0.996,0-1.822-0.828-1.822-1.821s0.826-1.821,1.822-1.821c0.992,0,1.82,0.828,1.82,1.821       S479.403,459.106,478.411,459.106L478.411,459.106z"/>
<path xmlns="http://www.w3.org/2000/svg" xmlns:ns1="http://ns.adobe.com/AdobeIllustrator/10.0/" ns1:knockout="Off" fill-rule="evenodd" clip-rule="evenodd" fill="none" stroke="#000000" stroke-width="0.504" stroke-miterlimit="2.4142" d="       M484.215,459.106c-0.996,0-1.825-0.828-1.825-1.821s0.829-1.821,1.825-1.821c0.992,0,1.82,0.828,1.82,1.821       S485.207,459.106,484.215,459.106L484.215,459.106z"/>
<path xmlns="http://www.w3.org/2000/svg" xmlns:ns1="http://ns.adobe.com/AdobeIllustrator/10.0/" ns1:knockout="Off" fill-rule="evenodd" clip-rule="evenodd" fill="none" stroke="#000000" stroke-width="0.504" stroke-miterlimit="2.4142" d="       M472.789,466.279c-0.995,0-1.824-0.827-1.824-1.821s0.829-1.821,1.824-1.821c0.992,0,1.821,0.827,1.821,1.821       S473.781,466.279,472.789,466.279L472.789,466.279z"/>
<path xmlns="http://www.w3.org/2000/svg" xmlns:ns1="http://ns.adobe.com/AdobeIllustrator/10.0/" ns1:knockout="Off" fill-rule="evenodd" clip-rule="evenodd" fill="none" stroke="#000000" stroke-width="0.504" stroke-miterlimit="2.4142" d="       M478.411,466.279c-0.996,0-1.822-0.827-1.822-1.821s0.826-1.821,1.822-1.821c0.992,0,1.82,0.827,1.82,1.821       S479.403,466.279,478.411,466.279L478.411,466.279z"/>
<path xmlns="http://www.w3.org/2000/svg" xmlns:ns1="http://ns.adobe.com/AdobeIllustrator/10.0/" ns1:knockout="Off" fill-rule="evenodd" clip-rule="evenodd" fill="none" stroke="#000000" stroke-width="0.504" stroke-miterlimit="2.4142" d="       M484.215,466.279c-0.996,0-1.825-0.827-1.825-1.821s0.829-1.821,1.825-1.821c0.992,0,1.82,0.827,1.82,1.821       S485.207,466.279,484.215,466.279L484.215,466.279z"/>
<path xmlns="http://www.w3.org/2000/svg" xmlns:ns1="http://ns.adobe.com/AdobeIllustrator/10.0/" ns1:knockout="Off" fill-rule="evenodd" clip-rule="evenodd" fill="none" stroke="#000000" stroke-width="0.504" stroke-miterlimit="2.4142" d="       M472.789,473.453c-0.995,0-1.824-0.827-1.824-1.822c0-0.993,0.829-1.82,1.824-1.82c0.992,0,1.821,0.827,1.821,1.82       C474.61,472.626,473.781,473.453,472.789,473.453L472.789,473.453z"/>
<path xmlns="http://www.w3.org/2000/svg" xmlns:ns1="http://ns.adobe.com/AdobeIllustrator/10.0/" ns1:knockout="Off" fill-rule="evenodd" clip-rule="evenodd" fill="none" stroke="#000000" stroke-width="0.504" stroke-miterlimit="2.4142" d="       M478.411,473.453c-0.996,0-1.822-0.827-1.822-1.822c0-0.993,0.826-1.82,1.822-1.82c0.992,0,1.82,0.827,1.82,1.82       C480.231,472.626,479.403,473.453,478.411,473.453L478.411,473.453z"/>
<path xmlns="http://www.w3.org/2000/svg" xmlns:ns1="http://ns.adobe.com/AdobeIllustrator/10.0/" ns1:knockout="Off" fill-rule="evenodd" clip-rule="evenodd" fill="none" stroke="#000000" stroke-width="0.504" stroke-miterlimit="2.4142" d="       M484.215,473.453c-0.996,0-1.825-0.827-1.825-1.822c0-0.993,0.829-1.82,1.825-1.82c0.992,0,1.82,0.827,1.82,1.82       C486.035,472.626,485.207,473.453,484.215,473.453L484.215,473.453z"/>
<path xmlns="http://www.w3.org/2000/svg" xmlns:ns1="http://ns.adobe.com/AdobeIllustrator/10.0/" ns1:knockout="Off" fill-rule="evenodd" clip-rule="evenodd" fill="none" stroke="#000000" stroke-width="0.504" stroke-miterlimit="2.4142" d="       M472.789,480.627c-0.995,0-1.824-0.827-1.824-1.821c0-0.993,0.829-1.821,1.824-1.821c0.992,0,1.821,0.828,1.821,1.821       C474.61,479.8,473.781,480.627,472.789,480.627L472.789,480.627z"/>
<path xmlns="http://www.w3.org/2000/svg" xmlns:ns1="http://ns.adobe.com/AdobeIllustrator/10.0/" ns1:knockout="Off" fill-rule="evenodd" clip-rule="evenodd" fill="none" stroke="#000000" stroke-width="0.504" stroke-miterlimit="2.4142" d="       M478.411,480.627c-0.996,0-1.822-0.827-1.822-1.821c0-0.993,0.826-1.821,1.822-1.821c0.992,0,1.82,0.828,1.82,1.821       C480.231,479.8,479.403,480.627,478.411,480.627L478.411,480.627z"/>
<path xmlns="http://www.w3.org/2000/svg" xmlns:ns1="http://ns.adobe.com/AdobeIllustrator/10.0/" ns1:knockout="Off" fill-rule="evenodd" clip-rule="evenodd" fill="none" stroke="#000000" stroke-width="0.504" stroke-miterlimit="2.4142" d="       M484.215,480.627c-0.996,0-1.825-0.827-1.825-1.821c0-0.993,0.829-1.821,1.825-1.821c0.992,0,1.82,0.828,1.82,1.821       C486.035,479.8,485.207,480.627,484.215,480.627L484.215,480.627z"/>
</g>
</switch>
</svg>