<?xml version="1.0" encoding="utf-8"?>
<!DOCTYPE svg PUBLIC "-//W3C//DTD SVG 1.1//EN" "http://www.w3.org/Graphics/SVG/1.1/DTD/svg11.dtd" [
	<!ENTITY ns_extend "http://ns.adobe.com/Extensibility/1.0/">
	<!ENTITY ns_ai "http://ns.adobe.com/AdobeIllustrator/10.0/">
	<!ENTITY ns_graphs "http://ns.adobe.com/Graphs/1.0/">
	<!ENTITY ns_vars "http://ns.adobe.com/Variables/1.0/">
	<!ENTITY ns_imrep "http://ns.adobe.com/ImageReplacement/1.0/">
	<!ENTITY ns_sfw "http://ns.adobe.com/SaveForWeb/1.0/">
	<!ENTITY ns_custom "http://ns.adobe.com/GenericCustomNamespace/1.0/">
	<!ENTITY ns_adobe_xpath "http://ns.adobe.com/XPath/1.0/">
]>
<svg version="1.1" id="Internal_Structure" xmlns:x="&ns_extend;" xmlns:i="&ns_ai;" xmlns:graph="&ns_graphs;"
	 xmlns="http://www.w3.org/2000/svg" xmlns:xlink="http://www.w3.org/1999/xlink" x="0px" y="0px" width="612px" height="792px"
	 viewBox="0 0 612 792" enable-background="new 0 0 612 792" xml:space="preserve">
<switch>
<g i:extraneous="self">
<path xmlns="http://www.w3.org/2000/svg" xmlns:ns1="http://ns.adobe.com/AdobeIllustrator/10.0/" ns1:knockout="Off" fill-rule="evenodd" clip-rule="evenodd" fill="none" stroke="#000000" stroke-width="0.504" stroke-miterlimit="2.4142" d="      M524.814,427.664c0.995,0,1.821-0.828,1.821-1.822c0-0.993-0.826-1.821-1.821-1.821s-1.821,0.828-1.821,1.821      C522.993,426.836,523.819,427.664,524.814,427.664L524.814,427.664z"/>
<path xmlns="http://www.w3.org/2000/svg" xmlns:ns1="http://ns.adobe.com/AdobeIllustrator/10.0/" ns1:knockout="Off" fill-rule="evenodd" clip-rule="evenodd" fill="none" stroke="#000000" stroke-width="0.504" stroke-miterlimit="2.4142" d="      M525.369,434.009c-0.995,0-1.821-0.828-1.821-1.822c0-0.993,0.826-1.821,1.821-1.821s1.821,0.828,1.821,1.821      C527.19,433.181,526.364,434.009,525.369,434.009L525.369,434.009z"/>
<path xmlns="http://www.w3.org/2000/svg" xmlns:ns1="http://ns.adobe.com/AdobeIllustrator/10.0/" ns1:knockout="Off" fill-rule="evenodd" clip-rule="evenodd" fill="none" stroke="#000000" stroke-width="0.504" stroke-miterlimit="2.4142" d="      M525.925,440.354c-0.995,0-1.821-0.828-1.821-1.822c0-0.993,0.826-1.821,1.821-1.821s1.821,0.828,1.821,1.821      C527.746,439.525,526.92,440.354,525.925,440.354L525.925,440.354z"/>
<path xmlns="http://www.w3.org/2000/svg" xmlns:ns1="http://ns.adobe.com/AdobeIllustrator/10.0/" ns1:knockout="Off" fill-rule="evenodd" clip-rule="evenodd" fill="none" stroke="#000000" stroke-width="0.504" stroke-miterlimit="2.4142" d="      M526.479,446.698c-0.995,0-1.821-0.828-1.821-1.822c0-0.993,0.826-1.821,1.821-1.821s1.821,0.828,1.821,1.821      C528.301,445.87,527.475,446.698,526.479,446.698L526.479,446.698z"/>
<path xmlns="http://www.w3.org/2000/svg" xmlns:ns1="http://ns.adobe.com/AdobeIllustrator/10.0/" ns1:knockout="Off" fill-rule="evenodd" clip-rule="evenodd" fill="none" stroke="#000000" stroke-width="0.504" stroke-miterlimit="2.4142" d="      M527.035,453.043c-0.995,0-1.821-0.828-1.821-1.822c0-0.993,0.826-1.821,1.821-1.821s1.821,0.828,1.821,1.821      C528.856,452.215,528.03,453.043,527.035,453.043L527.035,453.043z"/>
<path xmlns="http://www.w3.org/2000/svg" xmlns:ns1="http://ns.adobe.com/AdobeIllustrator/10.0/" ns1:knockout="Off" fill-rule="evenodd" clip-rule="evenodd" fill="none" stroke="#000000" stroke-width="0.504" stroke-miterlimit="2.4142" d="      M527.59,459.388c-0.995,0-1.821-0.828-1.821-1.822c0-0.993,0.826-1.821,1.821-1.821s1.821,0.828,1.821,1.821      C529.411,458.56,528.585,459.388,527.59,459.388L527.59,459.388z"/>
<path xmlns="http://www.w3.org/2000/svg" xmlns:ns1="http://ns.adobe.com/AdobeIllustrator/10.0/" ns1:knockout="Off" fill-rule="evenodd" clip-rule="evenodd" fill="none" stroke="#000000" stroke-width="0.504" stroke-miterlimit="2.4142" d="      M528.146,465.731c-0.995,0-1.821-0.828-1.821-1.822c0-0.993,0.826-1.821,1.821-1.821s1.821,0.828,1.821,1.821      C529.967,464.903,529.141,465.731,528.146,465.731L528.146,465.731z"/>
<path xmlns="http://www.w3.org/2000/svg" xmlns:ns1="http://ns.adobe.com/AdobeIllustrator/10.0/" ns1:knockout="Off" fill-rule="evenodd" clip-rule="evenodd" fill="none" stroke="#000000" stroke-width="0.504" stroke-miterlimit="2.4142" d="      M528.7,472.076c-0.995,0-1.821-0.828-1.821-1.822c0-0.993,0.826-1.821,1.821-1.821s1.821,0.828,1.821,1.821      C530.521,471.248,529.695,472.076,528.7,472.076L528.7,472.076z"/>
<path xmlns="http://www.w3.org/2000/svg" xmlns:ns1="http://ns.adobe.com/AdobeIllustrator/10.0/" ns1:knockout="Off" fill-rule="evenodd" clip-rule="evenodd" fill="none" stroke="#000000" stroke-width="0.504" stroke-miterlimit="2.4142" d="      M529.256,478.421c-0.995,0-1.821-0.828-1.821-1.822c0-0.993,0.826-1.821,1.821-1.821s1.821,0.828,1.821,1.821      C531.077,477.593,530.251,478.421,529.256,478.421L529.256,478.421z"/>
<path xmlns="http://www.w3.org/2000/svg" xmlns:ns1="http://ns.adobe.com/AdobeIllustrator/10.0/" ns1:knockout="Off" fill-rule="evenodd" clip-rule="evenodd" fill="none" stroke="#000000" stroke-width="0.504" stroke-miterlimit="2.4142" d="      M529.811,484.766c-0.995,0-1.821-0.828-1.821-1.822c0-0.993,0.826-1.821,1.821-1.821s1.821,0.828,1.821,1.821      C531.632,483.938,530.806,484.766,529.811,484.766L529.811,484.766z"/>
<path xmlns="http://www.w3.org/2000/svg" xmlns:ns1="http://ns.adobe.com/AdobeIllustrator/10.0/" ns1:knockout="Off" fill-rule="evenodd" clip-rule="evenodd" fill="none" stroke="#000000" stroke-width="0.504" stroke-miterlimit="2.4142" d="      M530.366,491.11c-0.995,0-1.821-0.828-1.821-1.822c0-0.993,0.826-1.821,1.821-1.821s1.821,0.828,1.821,1.821      C532.188,490.282,531.361,491.11,530.366,491.11L530.366,491.11z"/>
<path xmlns="http://www.w3.org/2000/svg" xmlns:ns1="http://ns.adobe.com/AdobeIllustrator/10.0/" ns1:knockout="Off" fill-rule="evenodd" clip-rule="evenodd" fill="none" stroke="#000000" stroke-width="0.504" stroke-miterlimit="2.4142" d="      M530.921,497.455c0.995,0,1.821-0.828,1.821-1.822c0-0.993-0.826-1.821-1.821-1.821s-1.821,0.828-1.821,1.821      C529.1,496.627,529.926,497.455,530.921,497.455L530.921,497.455z"/>
</g>
</switch>
</svg>