<?xml version="1.0" encoding="utf-8"?>
<!DOCTYPE svg PUBLIC "-//W3C//DTD SVG 1.1//EN" "http://www.w3.org/Graphics/SVG/1.1/DTD/svg11.dtd" [
	<!ENTITY ns_extend "http://ns.adobe.com/Extensibility/1.0/">
	<!ENTITY ns_ai "http://ns.adobe.com/AdobeIllustrator/10.0/">
	<!ENTITY ns_graphs "http://ns.adobe.com/Graphs/1.0/">
	<!ENTITY ns_vars "http://ns.adobe.com/Variables/1.0/">
	<!ENTITY ns_imrep "http://ns.adobe.com/ImageReplacement/1.0/">
	<!ENTITY ns_sfw "http://ns.adobe.com/SaveForWeb/1.0/">
	<!ENTITY ns_custom "http://ns.adobe.com/GenericCustomNamespace/1.0/">
	<!ENTITY ns_adobe_xpath "http://ns.adobe.com/XPath/1.0/">
]>
<svg version="1.1" id="Internal_Structure" xmlns:x="&ns_extend;" xmlns:i="&ns_ai;" xmlns:graph="&ns_graphs;"
	 xmlns="http://www.w3.org/2000/svg" xmlns:xlink="http://www.w3.org/1999/xlink" x="0px" y="0px" width="612px" height="792px"
	 viewBox="0 0 612 792" enable-background="new 0 0 612 792" xml:space="preserve">
<switch>
<g i:extraneous="self">
<path xmlns="http://www.w3.org/2000/svg" xmlns:ns1="http://ns.adobe.com/AdobeIllustrator/10.0/" ns1:knockout="Off" fill-rule="evenodd" clip-rule="evenodd" fill="none" stroke="#000000" stroke-width="0.504" stroke-miterlimit="2.4142" d="     M472.567,436.427c-0.995,0-1.822-0.827-1.822-1.82c0-0.994,0.827-1.822,1.822-1.822c0.994,0,1.821,0.828,1.821,1.822     C474.389,435.6,473.562,436.427,472.567,436.427L472.567,436.427z"/>
<path xmlns="http://www.w3.org/2000/svg" xmlns:ns1="http://ns.adobe.com/AdobeIllustrator/10.0/" ns1:knockout="Off" fill-rule="evenodd" clip-rule="evenodd" fill="none" stroke="#000000" stroke-width="0.504" stroke-miterlimit="2.4142" d="     M478.19,436.427c-0.995,0-1.823-0.827-1.823-1.82c0-0.994,0.828-1.822,1.823-1.822c0.993,0,1.82,0.828,1.82,1.822     C480.011,435.6,479.184,436.427,478.19,436.427L478.19,436.427z"/>
<path xmlns="http://www.w3.org/2000/svg" xmlns:ns1="http://ns.adobe.com/AdobeIllustrator/10.0/" ns1:knockout="Off" fill-rule="evenodd" clip-rule="evenodd" fill="none" stroke="#000000" stroke-width="0.504" stroke-miterlimit="2.4142" d="     M483.994,436.427c-0.995,0-1.824-0.827-1.824-1.82c0-0.994,0.829-1.822,1.824-1.822c0.992,0,1.819,0.828,1.819,1.822     C485.813,435.6,484.986,436.427,483.994,436.427L483.994,436.427z"/>
<path xmlns="http://www.w3.org/2000/svg" xmlns:ns1="http://ns.adobe.com/AdobeIllustrator/10.0/" ns1:knockout="Off" fill-rule="evenodd" clip-rule="evenodd" fill="none" stroke="#000000" stroke-width="0.504" stroke-miterlimit="2.4142" d="     M472.567,441.905c-0.995,0-1.822-0.827-1.822-1.821s0.827-1.821,1.822-1.821c0.994,0,1.821,0.827,1.821,1.821     S473.562,441.905,472.567,441.905L472.567,441.905z"/>
<path xmlns="http://www.w3.org/2000/svg" xmlns:ns1="http://ns.adobe.com/AdobeIllustrator/10.0/" ns1:knockout="Off" fill-rule="evenodd" clip-rule="evenodd" fill="none" stroke="#000000" stroke-width="0.504" stroke-miterlimit="2.4142" d="     M478.19,441.905c-0.995,0-1.823-0.827-1.823-1.821s0.828-1.821,1.823-1.821c0.993,0,1.82,0.827,1.82,1.821     S479.184,441.905,478.19,441.905L478.19,441.905z"/>
<path xmlns="http://www.w3.org/2000/svg" xmlns:ns1="http://ns.adobe.com/AdobeIllustrator/10.0/" ns1:knockout="Off" fill-rule="evenodd" clip-rule="evenodd" fill="none" stroke="#000000" stroke-width="0.504" stroke-miterlimit="2.4142" d="     M483.994,441.905c-0.995,0-1.824-0.827-1.824-1.821s0.829-1.821,1.824-1.821c0.992,0,1.819,0.827,1.819,1.821     S484.986,441.905,483.994,441.905L483.994,441.905z"/>
<path xmlns="http://www.w3.org/2000/svg" xmlns:ns1="http://ns.adobe.com/AdobeIllustrator/10.0/" ns1:knockout="Off" fill-rule="evenodd" clip-rule="evenodd" fill="none" stroke="#000000" stroke-width="0.504" stroke-miterlimit="2.4142" d="     M472.567,447.457c-0.995,0-1.822-0.828-1.822-1.821c0-0.994,0.827-1.821,1.822-1.821c0.994,0,1.821,0.827,1.821,1.821     C474.389,446.629,473.562,447.457,472.567,447.457L472.567,447.457z"/>
<path xmlns="http://www.w3.org/2000/svg" xmlns:ns1="http://ns.adobe.com/AdobeIllustrator/10.0/" ns1:knockout="Off" fill-rule="evenodd" clip-rule="evenodd" fill="none" stroke="#000000" stroke-width="0.504" stroke-miterlimit="2.4142" d="     M478.19,447.457c-0.995,0-1.823-0.828-1.823-1.821c0-0.994,0.828-1.821,1.823-1.821c0.993,0,1.82,0.827,1.82,1.821     C480.011,446.629,479.184,447.457,478.19,447.457L478.19,447.457z"/>
<path xmlns="http://www.w3.org/2000/svg" xmlns:ns1="http://ns.adobe.com/AdobeIllustrator/10.0/" ns1:knockout="Off" fill-rule="evenodd" clip-rule="evenodd" fill="none" stroke="#000000" stroke-width="0.504" stroke-miterlimit="2.4142" d="     M483.994,447.457c-0.995,0-1.824-0.828-1.824-1.821c0-0.994,0.829-1.821,1.824-1.821c0.992,0,1.819,0.827,1.819,1.821     C485.813,446.629,484.986,447.457,483.994,447.457L483.994,447.457z"/>
<path xmlns="http://www.w3.org/2000/svg" xmlns:ns1="http://ns.adobe.com/AdobeIllustrator/10.0/" ns1:knockout="Off" fill-rule="evenodd" clip-rule="evenodd" fill="none" stroke="#000000" stroke-width="0.504" stroke-miterlimit="2.4142" d="     M472.567,453.009c-0.995,0-1.822-0.827-1.822-1.821s0.827-1.822,1.822-1.822c0.994,0,1.821,0.828,1.821,1.822     S473.562,453.009,472.567,453.009L472.567,453.009z"/>
<path xmlns="http://www.w3.org/2000/svg" xmlns:ns1="http://ns.adobe.com/AdobeIllustrator/10.0/" ns1:knockout="Off" fill-rule="evenodd" clip-rule="evenodd" fill="none" stroke="#000000" stroke-width="0.504" stroke-miterlimit="2.4142" d="     M478.19,453.009c-0.995,0-1.823-0.827-1.823-1.821s0.828-1.822,1.823-1.822c0.993,0,1.82,0.828,1.82,1.822     S479.184,453.009,478.19,453.009L478.19,453.009z"/>
<path xmlns="http://www.w3.org/2000/svg" xmlns:ns1="http://ns.adobe.com/AdobeIllustrator/10.0/" ns1:knockout="Off" fill-rule="evenodd" clip-rule="evenodd" fill="none" stroke="#000000" stroke-width="0.504" stroke-miterlimit="2.4142" d="     M483.994,453.009c-0.995,0-1.824-0.827-1.824-1.821s0.829-1.822,1.824-1.822c0.992,0,1.819,0.828,1.819,1.822     S484.986,453.009,483.994,453.009L483.994,453.009z"/>
<path xmlns="http://www.w3.org/2000/svg" xmlns:ns1="http://ns.adobe.com/AdobeIllustrator/10.0/" ns1:knockout="Off" fill-rule="evenodd" clip-rule="evenodd" fill="none" stroke="#000000" stroke-width="0.504" stroke-miterlimit="2.4142" d="     M472.567,458.561c-0.995,0-1.822-0.827-1.822-1.821c0-0.993,0.827-1.821,1.822-1.821c0.994,0,1.821,0.828,1.821,1.821     C474.389,457.733,473.562,458.561,472.567,458.561L472.567,458.561z"/>
<path xmlns="http://www.w3.org/2000/svg" xmlns:ns1="http://ns.adobe.com/AdobeIllustrator/10.0/" ns1:knockout="Off" fill-rule="evenodd" clip-rule="evenodd" fill="none" stroke="#000000" stroke-width="0.504" stroke-miterlimit="2.4142" d="     M478.19,458.561c-0.995,0-1.823-0.827-1.823-1.821c0-0.993,0.828-1.821,1.823-1.821c0.993,0,1.82,0.828,1.82,1.821     C480.011,457.733,479.184,458.561,478.19,458.561L478.19,458.561z"/>
<path xmlns="http://www.w3.org/2000/svg" xmlns:ns1="http://ns.adobe.com/AdobeIllustrator/10.0/" ns1:knockout="Off" fill-rule="evenodd" clip-rule="evenodd" fill="none" stroke="#000000" stroke-width="0.504" stroke-miterlimit="2.4142" d="     M483.994,458.561c-0.995,0-1.824-0.827-1.824-1.821c0-0.993,0.829-1.821,1.824-1.821c0.992,0,1.819,0.828,1.819,1.821     C485.813,457.733,484.986,458.561,483.994,458.561L483.994,458.561z"/>
<path xmlns="http://www.w3.org/2000/svg" xmlns:ns1="http://ns.adobe.com/AdobeIllustrator/10.0/" ns1:knockout="Off" fill-rule="evenodd" clip-rule="evenodd" fill="none" stroke="#000000" stroke-width="0.504" stroke-miterlimit="2.4142" d="     M472.567,464.112c-0.995,0-1.822-0.828-1.822-1.821s0.827-1.821,1.822-1.821c0.994,0,1.821,0.828,1.821,1.821     S473.562,464.112,472.567,464.112L472.567,464.112z"/>
<path xmlns="http://www.w3.org/2000/svg" xmlns:ns1="http://ns.adobe.com/AdobeIllustrator/10.0/" ns1:knockout="Off" fill-rule="evenodd" clip-rule="evenodd" fill="none" stroke="#000000" stroke-width="0.504" stroke-miterlimit="2.4142" d="     M478.19,464.112c-0.995,0-1.823-0.828-1.823-1.821s0.828-1.821,1.823-1.821c0.993,0,1.82,0.828,1.82,1.821     S479.184,464.112,478.19,464.112L478.19,464.112z"/>
<path xmlns="http://www.w3.org/2000/svg" xmlns:ns1="http://ns.adobe.com/AdobeIllustrator/10.0/" ns1:knockout="Off" fill-rule="evenodd" clip-rule="evenodd" fill="none" stroke="#000000" stroke-width="0.504" stroke-miterlimit="2.4142" d="     M483.994,464.112c-0.995,0-1.824-0.828-1.824-1.821s0.829-1.821,1.824-1.821c0.992,0,1.819,0.828,1.819,1.821     S484.986,464.112,483.994,464.112L483.994,464.112z"/>
<path xmlns="http://www.w3.org/2000/svg" xmlns:ns1="http://ns.adobe.com/AdobeIllustrator/10.0/" ns1:knockout="Off" fill-rule="evenodd" clip-rule="evenodd" fill="none" stroke="#000000" stroke-width="0.504" stroke-miterlimit="2.4142" d="     M472.567,469.738c-0.995,0-1.822-0.827-1.822-1.821s0.827-1.821,1.822-1.821c0.994,0,1.821,0.827,1.821,1.821     S473.562,469.738,472.567,469.738L472.567,469.738z"/>
<path xmlns="http://www.w3.org/2000/svg" xmlns:ns1="http://ns.adobe.com/AdobeIllustrator/10.0/" ns1:knockout="Off" fill-rule="evenodd" clip-rule="evenodd" fill="none" stroke="#000000" stroke-width="0.504" stroke-miterlimit="2.4142" d="     M478.19,469.738c-0.995,0-1.823-0.827-1.823-1.821s0.828-1.821,1.823-1.821c0.993,0,1.82,0.827,1.82,1.821     S479.184,469.738,478.19,469.738L478.19,469.738z"/>
<path xmlns="http://www.w3.org/2000/svg" xmlns:ns1="http://ns.adobe.com/AdobeIllustrator/10.0/" ns1:knockout="Off" fill-rule="evenodd" clip-rule="evenodd" fill="none" stroke="#000000" stroke-width="0.504" stroke-miterlimit="2.4142" d="     M483.994,469.738c-0.995,0-1.824-0.827-1.824-1.821s0.829-1.821,1.824-1.821c0.992,0,1.819,0.827,1.819,1.821     S484.986,469.738,483.994,469.738L483.994,469.738z"/>
<path xmlns="http://www.w3.org/2000/svg" xmlns:ns1="http://ns.adobe.com/AdobeIllustrator/10.0/" ns1:knockout="Off" fill-rule="evenodd" clip-rule="evenodd" fill="none" stroke="#000000" stroke-width="0.504" stroke-miterlimit="2.4142" d="     M472.567,475.29c-0.995,0-1.822-0.827-1.822-1.821s0.827-1.821,1.822-1.821c0.994,0,1.821,0.827,1.821,1.821     S473.562,475.29,472.567,475.29L472.567,475.29z"/>
<path xmlns="http://www.w3.org/2000/svg" xmlns:ns1="http://ns.adobe.com/AdobeIllustrator/10.0/" ns1:knockout="Off" fill-rule="evenodd" clip-rule="evenodd" fill="none" stroke="#000000" stroke-width="0.504" stroke-miterlimit="2.4142" d="     M478.19,475.29c-0.995,0-1.823-0.827-1.823-1.821s0.828-1.821,1.823-1.821c0.993,0,1.82,0.827,1.82,1.821     S479.184,475.29,478.19,475.29L478.19,475.29z"/>
<path xmlns="http://www.w3.org/2000/svg" xmlns:ns1="http://ns.adobe.com/AdobeIllustrator/10.0/" ns1:knockout="Off" fill-rule="evenodd" clip-rule="evenodd" fill="none" stroke="#000000" stroke-width="0.504" stroke-miterlimit="2.4142" d="     M483.994,475.29c-0.995,0-1.824-0.827-1.824-1.821s0.829-1.821,1.824-1.821c0.992,0,1.819,0.827,1.819,1.821     S484.986,475.29,483.994,475.29L483.994,475.29z"/>
<path xmlns="http://www.w3.org/2000/svg" xmlns:ns1="http://ns.adobe.com/AdobeIllustrator/10.0/" ns1:knockout="Off" fill-rule="evenodd" clip-rule="evenodd" fill="none" stroke="#000000" stroke-width="0.504" stroke-miterlimit="2.4142" d="     M472.567,480.768c-0.995,0-1.822-0.827-1.822-1.821c0-0.993,0.827-1.821,1.822-1.821c0.994,0,1.821,0.828,1.821,1.821     C474.389,479.94,473.562,480.768,472.567,480.768L472.567,480.768z"/>
<path xmlns="http://www.w3.org/2000/svg" xmlns:ns1="http://ns.adobe.com/AdobeIllustrator/10.0/" ns1:knockout="Off" fill-rule="evenodd" clip-rule="evenodd" fill="none" stroke="#000000" stroke-width="0.504" stroke-miterlimit="2.4142" d="     M478.19,480.768c-0.995,0-1.823-0.827-1.823-1.821c0-0.993,0.828-1.821,1.823-1.821c0.993,0,1.82,0.828,1.82,1.821     C480.011,479.94,479.184,480.768,478.19,480.768L478.19,480.768z"/>
<path xmlns="http://www.w3.org/2000/svg" xmlns:ns1="http://ns.adobe.com/AdobeIllustrator/10.0/" ns1:knockout="Off" fill-rule="evenodd" clip-rule="evenodd" fill="none" stroke="#000000" stroke-width="0.504" stroke-miterlimit="2.4142" d="     M483.994,480.768c-0.995,0-1.824-0.827-1.824-1.821c0-0.993,0.829-1.821,1.824-1.821c0.992,0,1.819,0.828,1.819,1.821     C485.813,479.94,484.986,480.768,483.994,480.768L483.994,480.768z"/>
<path xmlns="http://www.w3.org/2000/svg" xmlns:ns1="http://ns.adobe.com/AdobeIllustrator/10.0/" ns1:knockout="Off" fill-rule="evenodd" clip-rule="evenodd" fill="none" stroke="#000000" stroke-width="0.504" stroke-miterlimit="2.4142" d="     M475.415,486.32c-0.995,0-1.823-0.828-1.823-1.822c0-0.993,0.828-1.82,1.823-1.82c0.993,0,1.82,0.827,1.82,1.82     C477.235,485.492,476.408,486.32,475.415,486.32L475.415,486.32z"/>
<path xmlns="http://www.w3.org/2000/svg" xmlns:ns1="http://ns.adobe.com/AdobeIllustrator/10.0/" ns1:knockout="Off" fill-rule="evenodd" clip-rule="evenodd" fill="none" stroke="#000000" stroke-width="0.504" stroke-miterlimit="2.4142" d="     M481.218,486.32c-0.995,0-1.823-0.828-1.823-1.822c0-0.993,0.828-1.82,1.823-1.82c0.993,0,1.82,0.827,1.82,1.82     C483.038,485.492,482.211,486.32,481.218,486.32L481.218,486.32z"/>
<path xmlns="http://www.w3.org/2000/svg" xmlns:ns1="http://ns.adobe.com/AdobeIllustrator/10.0/" ns1:knockout="Off" fill-rule="evenodd" clip-rule="evenodd" fill="none" stroke="#000000" stroke-width="0.504" stroke-miterlimit="2.4142" d="     M475.415,491.872c-0.995,0-1.823-0.828-1.823-1.821c0-0.994,0.828-1.822,1.823-1.822c0.993,0,1.82,0.828,1.82,1.822     C477.235,491.044,476.408,491.872,475.415,491.872L475.415,491.872z"/>
<path xmlns="http://www.w3.org/2000/svg" xmlns:ns1="http://ns.adobe.com/AdobeIllustrator/10.0/" ns1:knockout="Off" fill-rule="evenodd" clip-rule="evenodd" fill="none" stroke="#000000" stroke-width="0.504" stroke-miterlimit="2.4142" d="     M481.218,491.872c-0.995,0-1.823-0.828-1.823-1.821c0-0.994,0.828-1.822,1.823-1.822c0.993,0,1.82,0.828,1.82,1.822     C483.038,491.044,482.211,491.872,481.218,491.872L481.218,491.872z"/>
</g>
</switch>
</svg>