<?xml version="1.0" encoding="utf-8"?>
<!DOCTYPE svg PUBLIC "-//W3C//DTD SVG 1.1//EN" "http://www.w3.org/Graphics/SVG/1.1/DTD/svg11.dtd" [
	<!ENTITY ns_extend "http://ns.adobe.com/Extensibility/1.0/">
	<!ENTITY ns_ai "http://ns.adobe.com/AdobeIllustrator/10.0/">
	<!ENTITY ns_graphs "http://ns.adobe.com/Graphs/1.0/">
	<!ENTITY ns_vars "http://ns.adobe.com/Variables/1.0/">
	<!ENTITY ns_imrep "http://ns.adobe.com/ImageReplacement/1.0/">
	<!ENTITY ns_sfw "http://ns.adobe.com/SaveForWeb/1.0/">
	<!ENTITY ns_custom "http://ns.adobe.com/GenericCustomNamespace/1.0/">
	<!ENTITY ns_adobe_xpath "http://ns.adobe.com/XPath/1.0/">
]>
<svg version="1.1" id="Internal_Structure" xmlns:x="&ns_extend;" xmlns:i="&ns_ai;" xmlns:graph="&ns_graphs;"
	 xmlns="http://www.w3.org/2000/svg" xmlns:xlink="http://www.w3.org/1999/xlink" x="0px" y="0px" width="612px" height="792px"
	 viewBox="0 0 612 792" enable-background="new 0 0 612 792" xml:space="preserve">
<switch>
<g i:extraneous="self">
<path xmlns="http://www.w3.org/2000/svg" xmlns:ns1="http://ns.adobe.com/AdobeIllustrator/10.0/" ns1:knockout="Off" fill-rule="evenodd" clip-rule="evenodd" fill="none" stroke="#000000" stroke-width="0.504" stroke-miterlimit="2.4142" d="      M498.918,489.345c0.978-0.19,1.632-1.16,1.443-2.137c-0.189-0.974-1.162-1.63-2.137-1.439c-0.976,0.188-1.631,1.159-1.44,2.134      C496.974,488.879,497.944,489.533,498.918,489.345L498.918,489.345z"/>
<path xmlns="http://www.w3.org/2000/svg" xmlns:ns1="http://ns.adobe.com/AdobeIllustrator/10.0/" ns1:knockout="Off" fill-rule="evenodd" clip-rule="evenodd" fill="none" stroke="#000000" stroke-width="0.504" stroke-miterlimit="2.4142" d="      M495.729,494.105c0.976-0.19,1.631-1.16,1.44-2.135c-0.189-0.977-1.16-1.631-2.137-1.44c-0.975,0.189-1.628,1.158-1.439,2.135      C493.784,493.641,494.753,494.295,495.729,494.105L495.729,494.105z"/>
<path xmlns="http://www.w3.org/2000/svg" xmlns:ns1="http://ns.adobe.com/AdobeIllustrator/10.0/" ns1:knockout="Off" fill-rule="evenodd" clip-rule="evenodd" fill="none" stroke="#000000" stroke-width="0.504" stroke-miterlimit="2.4142" d="      M500.47,497.327c0.978-0.191,1.631-1.161,1.442-2.136c-0.188-0.977-1.16-1.63-2.138-1.439c-0.974,0.188-1.629,1.158-1.438,2.135      C498.525,496.862,499.496,497.516,500.47,497.327L500.47,497.327z"/>
<path xmlns="http://www.w3.org/2000/svg" xmlns:ns1="http://ns.adobe.com/AdobeIllustrator/10.0/" ns1:knockout="Off" fill-rule="evenodd" clip-rule="evenodd" fill="none" stroke="#000000" stroke-width="0.504" stroke-miterlimit="2.4142" d="      M497.28,502.088c0.977-0.188,1.632-1.158,1.441-2.135c-0.189-0.975-1.16-1.631-2.136-1.44c-0.976,0.189-1.629,1.159-1.439,2.136      C495.336,501.623,496.306,502.277,497.28,502.088L497.28,502.088z"/>
<path xmlns="http://www.w3.org/2000/svg" xmlns:ns1="http://ns.adobe.com/AdobeIllustrator/10.0/" ns1:knockout="Off" fill-rule="evenodd" clip-rule="evenodd" fill="none" stroke="#000000" stroke-width="0.504" stroke-miterlimit="2.4142" d="      M502.021,505.31c0.977-0.19,1.633-1.161,1.443-2.137c-0.19-0.976-1.161-1.63-2.138-1.44c-0.976,0.189-1.629,1.16-1.44,2.136      C500.076,504.844,501.047,505.498,502.021,505.31L502.021,505.31z"/>
<path xmlns="http://www.w3.org/2000/svg" xmlns:ns1="http://ns.adobe.com/AdobeIllustrator/10.0/" ns1:knockout="Off" fill-rule="evenodd" clip-rule="evenodd" fill="none" stroke="#000000" stroke-width="0.504" stroke-miterlimit="2.4142" d="      M498.832,510.07c0.977-0.189,1.631-1.16,1.441-2.135c-0.189-0.977-1.16-1.631-2.137-1.44c-0.976,0.189-1.63,1.159-1.439,2.136      C496.887,509.605,497.856,510.262,498.832,510.07L498.832,510.07z"/>
<path xmlns="http://www.w3.org/2000/svg" xmlns:ns1="http://ns.adobe.com/AdobeIllustrator/10.0/" ns1:knockout="Off" fill-rule="evenodd" clip-rule="evenodd" fill="none" stroke="#000000" stroke-width="0.504" stroke-miterlimit="2.4142" d="      M503.573,513.291c0.977-0.189,1.632-1.162,1.442-2.137s-1.161-1.629-2.138-1.439c-0.976,0.19-1.629,1.16-1.438,2.135      C501.629,512.825,502.598,513.479,503.573,513.291L503.573,513.291z"/>
<path xmlns="http://www.w3.org/2000/svg" xmlns:ns1="http://ns.adobe.com/AdobeIllustrator/10.0/" ns1:knockout="Off" fill-rule="evenodd" clip-rule="evenodd" fill="none" stroke="#000000" stroke-width="0.504" stroke-miterlimit="2.4142" d="      M500.384,518.053c0.976-0.191,1.632-1.161,1.442-2.137s-1.161-1.629-2.138-1.439c-0.976,0.189-1.629,1.158-1.439,2.135      C498.438,517.586,499.408,518.241,500.384,518.053L500.384,518.053z"/>
<path xmlns="http://www.w3.org/2000/svg" xmlns:ns1="http://ns.adobe.com/AdobeIllustrator/10.0/" ns1:knockout="Off" fill-rule="evenodd" clip-rule="evenodd" fill="none" stroke="#000000" stroke-width="0.504" stroke-miterlimit="2.4142" d="      M505.126,521.273c0.977-0.189,1.63-1.16,1.439-2.136c-0.188-0.976-1.158-1.63-2.136-1.439c-0.975,0.188-1.629,1.159-1.439,2.136      C503.18,520.809,504.15,521.463,505.126,521.273L505.126,521.273z"/>
<path xmlns="http://www.w3.org/2000/svg" xmlns:ns1="http://ns.adobe.com/AdobeIllustrator/10.0/" ns1:knockout="Off" fill-rule="evenodd" clip-rule="evenodd" fill="none" stroke="#000000" stroke-width="0.504" stroke-miterlimit="2.4142" d="      M501.936,526.035c0.976-0.19,1.631-1.16,1.442-2.137c-0.19-0.975-1.162-1.63-2.138-1.439c-0.976,0.189-1.63,1.16-1.439,2.135      C499.989,525.568,500.96,526.224,501.936,526.035L501.936,526.035z"/>
<path xmlns="http://www.w3.org/2000/svg" xmlns:ns1="http://ns.adobe.com/AdobeIllustrator/10.0/" ns1:knockout="Off" fill-rule="evenodd" clip-rule="evenodd" fill="none" stroke="#000000" stroke-width="0.504" stroke-miterlimit="2.4142" d="      M506.676,529.256c0.978-0.191,1.632-1.162,1.443-2.137c-0.189-0.977-1.16-1.631-2.138-1.439c-0.976,0.189-1.63,1.158-1.44,2.134      C504.731,528.789,505.702,529.443,506.676,529.256L506.676,529.256z"/>
<path xmlns="http://www.w3.org/2000/svg" xmlns:ns1="http://ns.adobe.com/AdobeIllustrator/10.0/" ns1:knockout="Off" fill-rule="evenodd" clip-rule="evenodd" fill="none" stroke="#000000" stroke-width="0.504" stroke-miterlimit="2.4142" d="      M503.487,534.018c0.976-0.189,1.631-1.16,1.441-2.136c-0.19-0.976-1.161-1.63-2.137-1.44s-1.629,1.159-1.439,2.137      C501.542,533.552,502.511,534.207,503.487,534.018L503.487,534.018z"/>
<path xmlns="http://www.w3.org/2000/svg" xmlns:ns1="http://ns.adobe.com/AdobeIllustrator/10.0/" ns1:knockout="Off" fill-rule="evenodd" clip-rule="evenodd" fill="none" stroke="#000000" stroke-width="0.504" stroke-miterlimit="2.4142" d="      M508.228,537.238c0.977-0.19,1.632-1.16,1.443-2.137c-0.191-0.977-1.162-1.629-2.139-1.439      c-0.974,0.189-1.629,1.158-1.438,2.135C506.283,536.771,507.254,537.427,508.228,537.238L508.228,537.238z"/>
<path xmlns="http://www.w3.org/2000/svg" xmlns:ns1="http://ns.adobe.com/AdobeIllustrator/10.0/" ns1:knockout="Off" fill-rule="evenodd" clip-rule="evenodd" fill="none" stroke="#000000" stroke-width="0.504" stroke-miterlimit="2.4142" d="      M505.038,541.999c0.977-0.188,1.631-1.161,1.441-2.136c-0.189-0.976-1.16-1.63-2.137-1.439      c-0.976,0.189-1.628,1.159-1.439,2.135C503.093,541.535,504.063,542.188,505.038,541.999L505.038,541.999z"/>
<path xmlns="http://www.w3.org/2000/svg" xmlns:ns1="http://ns.adobe.com/AdobeIllustrator/10.0/" ns1:knockout="Off" fill-rule="evenodd" clip-rule="evenodd" fill="none" stroke="#000000" stroke-width="0.504" stroke-miterlimit="2.4142" d="      M509.779,545.221c0.978-0.189,1.633-1.162,1.443-2.137c-0.19-0.977-1.163-1.629-2.139-1.44c-0.974,0.19-1.629,1.161-1.439,2.136      C507.836,544.754,508.805,545.41,509.779,545.221L509.779,545.221z"/>
<path xmlns="http://www.w3.org/2000/svg" xmlns:ns1="http://ns.adobe.com/AdobeIllustrator/10.0/" ns1:knockout="Off" fill-rule="evenodd" clip-rule="evenodd" fill="none" stroke="#000000" stroke-width="0.504" stroke-miterlimit="2.4142" d="      M506.589,549.981c0.978-0.188,1.633-1.16,1.443-2.138c-0.19-0.974-1.161-1.628-2.137-1.438      c-0.976,0.189-1.632,1.159-1.439,2.135C504.646,549.516,505.614,550.172,506.589,549.981L506.589,549.981z"/>
<path xmlns="http://www.w3.org/2000/svg" xmlns:ns1="http://ns.adobe.com/AdobeIllustrator/10.0/" ns1:knockout="Off" fill-rule="evenodd" clip-rule="evenodd" fill="none" stroke="#000000" stroke-width="0.504" stroke-miterlimit="2.4142" d="      M511.332,553.201c0.977-0.19,1.63-1.16,1.441-2.135c-0.189-0.977-1.16-1.631-2.137-1.441c-0.976,0.19-1.629,1.161-1.439,2.136      C509.386,552.736,510.356,553.391,511.332,553.201L511.332,553.201z"/>
<path xmlns="http://www.w3.org/2000/svg" xmlns:ns1="http://ns.adobe.com/AdobeIllustrator/10.0/" ns1:knockout="Off" fill-rule="evenodd" clip-rule="evenodd" fill="none" stroke="#000000" stroke-width="0.504" stroke-miterlimit="2.4142" d="      M508.142,557.963c0.976-0.189,1.631-1.16,1.441-2.136c-0.188-0.976-1.16-1.63-2.137-1.439c-0.976,0.188-1.629,1.159-1.439,2.134      C506.197,557.498,507.166,558.152,508.142,557.963L508.142,557.963z"/>
<path xmlns="http://www.w3.org/2000/svg" xmlns:ns1="http://ns.adobe.com/AdobeIllustrator/10.0/" ns1:knockout="Off" fill-rule="evenodd" clip-rule="evenodd" fill="none" stroke="#000000" stroke-width="0.504" stroke-miterlimit="2.4142" d="      M510.693,563.221c0.977-0.191,1.631-1.162,1.441-2.137s-1.159-1.631-2.137-1.441c-0.974,0.189-1.629,1.161-1.439,2.136      C508.749,562.754,509.718,563.408,510.693,563.221L510.693,563.221z"/>
<path xmlns="http://www.w3.org/2000/svg" xmlns:ns1="http://ns.adobe.com/AdobeIllustrator/10.0/" ns1:knockout="Off" fill-rule="evenodd" clip-rule="evenodd" fill="none" stroke="#000000" stroke-width="0.504" stroke-miterlimit="2.4142" d="      M511.883,568.699c0.976-0.191,1.632-1.16,1.442-2.137c-0.19-0.977-1.162-1.629-2.139-1.44c-0.974,0.19-1.629,1.159-1.438,2.136      C509.938,568.232,510.908,568.887,511.883,568.699L511.883,568.699z"/>
<path xmlns="http://www.w3.org/2000/svg" xmlns:ns1="http://ns.adobe.com/AdobeIllustrator/10.0/" ns1:knockout="Off" fill-rule="evenodd" clip-rule="evenodd" fill="none" stroke="#000000" stroke-width="0.504" stroke-miterlimit="2.4142" d="      M515.848,573.133c0.978-0.188,1.633-1.16,1.443-2.136s-1.162-1.63-2.139-1.44c-0.974,0.189-1.629,1.161-1.438,2.135      C513.904,572.668,514.874,573.324,515.848,573.133L515.848,573.133z"/>
</g>
</switch>
</svg>