<?xml version="1.0" encoding="utf-8"?>
<!DOCTYPE svg PUBLIC "-//W3C//DTD SVG 1.1//EN" "http://www.w3.org/Graphics/SVG/1.1/DTD/svg11.dtd" [
	<!ENTITY ns_extend "http://ns.adobe.com/Extensibility/1.0/">
	<!ENTITY ns_ai "http://ns.adobe.com/AdobeIllustrator/10.0/">
	<!ENTITY ns_graphs "http://ns.adobe.com/Graphs/1.0/">
	<!ENTITY ns_vars "http://ns.adobe.com/Variables/1.0/">
	<!ENTITY ns_imrep "http://ns.adobe.com/ImageReplacement/1.0/">
	<!ENTITY ns_sfw "http://ns.adobe.com/SaveForWeb/1.0/">
	<!ENTITY ns_custom "http://ns.adobe.com/GenericCustomNamespace/1.0/">
	<!ENTITY ns_adobe_xpath "http://ns.adobe.com/XPath/1.0/">
]>
<svg version="1.1" id="Internal_Structure" xmlns:x="&ns_extend;" xmlns:i="&ns_ai;" xmlns:graph="&ns_graphs;"
	 xmlns="http://www.w3.org/2000/svg" xmlns:xlink="http://www.w3.org/1999/xlink" x="0px" y="0px" width="612px" height="792px"
	 viewBox="0 0 612 792" enable-background="new 0 0 612 792" xml:space="preserve">
<switch>
<g i:extraneous="self">
<path xmlns="http://www.w3.org/2000/svg" xmlns:ns1="http://ns.adobe.com/AdobeIllustrator/10.0/" ns1:knockout="Off" fill-rule="evenodd" clip-rule="evenodd" fill="none" stroke="#000000" stroke-width="0.504" stroke-miterlimit="2.4142" d="      M525.585,434.635c-0.991,0.087-1.888-0.665-1.975-1.655c-0.088-0.99,0.666-1.887,1.658-1.974      c0.987-0.087,1.883,0.665,1.971,1.654C527.326,433.651,526.573,434.548,525.585,434.635L525.585,434.635z"/>
<path xmlns="http://www.w3.org/2000/svg" xmlns:ns1="http://ns.adobe.com/AdobeIllustrator/10.0/" ns1:knockout="Off" fill-rule="evenodd" clip-rule="evenodd" fill="none" stroke="#000000" stroke-width="0.504" stroke-miterlimit="2.4142" d="      M526.397,443.94c-0.989,0.087-1.889-0.666-1.973-1.656c-0.087-0.99,0.664-1.886,1.655-1.973      c0.991-0.088,1.887,0.666,1.974,1.656C528.139,442.957,527.388,443.854,526.397,443.94L526.397,443.94z"/>
<path xmlns="http://www.w3.org/2000/svg" xmlns:ns1="http://ns.adobe.com/AdobeIllustrator/10.0/" ns1:knockout="Off" fill-rule="evenodd" clip-rule="evenodd" fill="none" stroke="#000000" stroke-width="0.504" stroke-miterlimit="2.4142" d="      M527.213,453.246c-0.991,0.087-1.888-0.665-1.975-1.655c-0.088-0.99,0.666-1.887,1.658-1.974      c0.987-0.087,1.886,0.665,1.971,1.655C528.955,452.263,528.201,453.158,527.213,453.246L527.213,453.246z"/>
<path xmlns="http://www.w3.org/2000/svg" xmlns:ns1="http://ns.adobe.com/AdobeIllustrator/10.0/" ns1:knockout="Off" fill-rule="evenodd" clip-rule="evenodd" fill="none" stroke="#000000" stroke-width="0.504" stroke-miterlimit="2.4142" d="      M528.027,462.552c-0.992,0.087-1.891-0.665-1.976-1.655c-0.087-0.99,0.664-1.886,1.655-1.974      c0.991-0.085,1.888,0.665,1.975,1.654C529.769,461.57,529.016,462.465,528.027,462.552L528.027,462.552z"/>
<path xmlns="http://www.w3.org/2000/svg" xmlns:ns1="http://ns.adobe.com/AdobeIllustrator/10.0/" ns1:knockout="Off" fill-rule="evenodd" clip-rule="evenodd" fill="none" stroke="#000000" stroke-width="0.504" stroke-miterlimit="2.4142" d="      M528.841,471.857c-0.991,0.087-1.888-0.666-1.975-1.656s0.667-1.886,1.658-1.973c0.988-0.086,1.884,0.666,1.971,1.656      C530.583,470.874,529.832,471.771,528.841,471.857L528.841,471.857z"/>
<path xmlns="http://www.w3.org/2000/svg" xmlns:ns1="http://ns.adobe.com/AdobeIllustrator/10.0/" ns1:knockout="Off" fill-rule="evenodd" clip-rule="evenodd" fill="none" stroke="#000000" stroke-width="0.504" stroke-miterlimit="2.4142" d="      M529.655,481.163c-0.991,0.087-1.89-0.665-1.975-1.655c-0.088-0.99,0.666-1.887,1.655-1.974c0.99-0.088,1.887,0.665,1.974,1.655      S530.644,481.075,529.655,481.163L529.655,481.163z"/>
<path xmlns="http://www.w3.org/2000/svg" xmlns:ns1="http://ns.adobe.com/AdobeIllustrator/10.0/" ns1:knockout="Off" fill-rule="evenodd" clip-rule="evenodd" fill="none" stroke="#000000" stroke-width="0.504" stroke-miterlimit="2.4142" d="      M530.469,490.469c-0.991,0.087-1.888-0.665-1.976-1.655c-0.084-0.99,0.667-1.887,1.658-1.974      c0.991-0.088,1.887,0.665,1.974,1.655C532.21,489.485,531.46,490.381,530.469,490.469L530.469,490.469z"/>
</g>
</switch>
</svg>