<?xml version="1.0" encoding="utf-8"?>
<!DOCTYPE svg PUBLIC "-//W3C//DTD SVG 1.1//EN" "http://www.w3.org/Graphics/SVG/1.1/DTD/svg11.dtd" [
	<!ENTITY ns_extend "http://ns.adobe.com/Extensibility/1.0/">
	<!ENTITY ns_ai "http://ns.adobe.com/AdobeIllustrator/10.0/">
	<!ENTITY ns_graphs "http://ns.adobe.com/Graphs/1.0/">
	<!ENTITY ns_vars "http://ns.adobe.com/Variables/1.0/">
	<!ENTITY ns_imrep "http://ns.adobe.com/ImageReplacement/1.0/">
	<!ENTITY ns_sfw "http://ns.adobe.com/SaveForWeb/1.0/">
	<!ENTITY ns_custom "http://ns.adobe.com/GenericCustomNamespace/1.0/">
	<!ENTITY ns_adobe_xpath "http://ns.adobe.com/XPath/1.0/">
]>
<svg version="1.1" id="Internal_Structure" xmlns:x="&ns_extend;" xmlns:i="&ns_ai;" xmlns:graph="&ns_graphs;"
	 xmlns="http://www.w3.org/2000/svg" xmlns:xlink="http://www.w3.org/1999/xlink" x="0px" y="0px" width="612px" height="792px"
	 viewBox="0 0 612 792" enable-background="new 0 0 612 792" xml:space="preserve">
<switch>
<g i:extraneous="self">
<path xmlns="http://www.w3.org/2000/svg" xmlns:ns1="http://ns.adobe.com/AdobeIllustrator/10.0/" ns1:knockout="Off" fill-rule="evenodd" clip-rule="evenodd" fill="none" stroke="#000000" stroke-width="0.504" stroke-miterlimit="2.4142" d="      M458.46,489.92c0.976,0.19,1.946-0.464,2.138-1.439c0.19-0.977-0.467-1.946-1.442-2.136c-0.975-0.19-1.945,0.464-2.134,1.44      C456.831,488.761,457.485,489.731,458.46,489.92L458.46,489.92z"/>
<path xmlns="http://www.w3.org/2000/svg" xmlns:ns1="http://ns.adobe.com/AdobeIllustrator/10.0/" ns1:knockout="Off" fill-rule="evenodd" clip-rule="evenodd" fill="none" stroke="#000000" stroke-width="0.504" stroke-miterlimit="2.4142" d="      M457.318,495.784c0.979,0.188,1.95-0.466,2.14-1.44c0.189-0.976-0.465-1.946-1.443-2.136c-0.974-0.189-1.945,0.465-2.134,1.439      C455.692,494.624,456.347,495.595,457.318,495.784L457.318,495.784z"/>
<path xmlns="http://www.w3.org/2000/svg" xmlns:ns1="http://ns.adobe.com/AdobeIllustrator/10.0/" ns1:knockout="Off" fill-rule="evenodd" clip-rule="evenodd" fill="none" stroke="#000000" stroke-width="0.504" stroke-miterlimit="2.4142" d="      M456.181,501.646c0.976,0.188,1.946-0.466,2.138-1.441c0.188-0.975-0.467-1.943-1.442-2.133      c-0.975-0.191-1.945,0.463-2.137,1.438C454.552,500.486,455.206,501.456,456.181,501.646L456.181,501.646z"/>
<path xmlns="http://www.w3.org/2000/svg" xmlns:ns1="http://ns.adobe.com/AdobeIllustrator/10.0/" ns1:knockout="Off" fill-rule="evenodd" clip-rule="evenodd" fill="none" stroke="#000000" stroke-width="0.504" stroke-miterlimit="2.4142" d="      M455.042,507.51c0.977,0.188,1.947-0.465,2.135-1.441c0.191-0.976-0.463-1.945-1.441-2.135c-0.976-0.19-1.943,0.464-2.134,1.44      C453.41,506.35,454.064,507.32,455.042,507.51L455.042,507.51z"/>
<path xmlns="http://www.w3.org/2000/svg" xmlns:ns1="http://ns.adobe.com/AdobeIllustrator/10.0/" ns1:knockout="Off" fill-rule="evenodd" clip-rule="evenodd" fill="none" stroke="#000000" stroke-width="0.504" stroke-miterlimit="2.4142" d="      M453.901,513.374c0.976,0.189,1.946-0.465,2.138-1.44c0.188-0.976-0.467-1.945-1.442-2.136c-0.975-0.189-1.945,0.464-2.136,1.44      C452.272,512.214,452.926,513.185,453.901,513.374L453.901,513.374z"/>
<path xmlns="http://www.w3.org/2000/svg" xmlns:ns1="http://ns.adobe.com/AdobeIllustrator/10.0/" ns1:knockout="Off" fill-rule="evenodd" clip-rule="evenodd" fill="none" stroke="#000000" stroke-width="0.504" stroke-miterlimit="2.4142" d="      M452.76,519.235c0.979,0.191,1.95-0.463,2.139-1.438c0.19-0.976-0.467-1.946-1.442-2.137c-0.976-0.188-1.942,0.465-2.134,1.44      C451.131,518.077,451.788,519.048,452.76,519.235L452.76,519.235z"/>
<path xmlns="http://www.w3.org/2000/svg" xmlns:ns1="http://ns.adobe.com/AdobeIllustrator/10.0/" ns1:knockout="Off" fill-rule="evenodd" clip-rule="evenodd" fill="none" stroke="#000000" stroke-width="0.504" stroke-miterlimit="2.4142" d="      M451.622,525.101c0.979,0.188,1.946-0.464,2.138-1.438c0.188-0.977-0.467-1.947-1.442-2.136      c-0.975-0.191-1.945,0.463-2.137,1.439C449.993,523.942,450.647,524.91,451.622,525.101L451.622,525.101z"/>
<path xmlns="http://www.w3.org/2000/svg" xmlns:ns1="http://ns.adobe.com/AdobeIllustrator/10.0/" ns1:knockout="Off" fill-rule="evenodd" clip-rule="evenodd" fill="none" stroke="#000000" stroke-width="0.504" stroke-miterlimit="2.4142" d="      M450.48,530.963c0.979,0.189,1.95-0.464,2.138-1.44c0.191-0.976-0.466-1.944-1.441-2.136c-0.976-0.189-1.946,0.465-2.134,1.44      C448.852,529.802,449.506,530.772,450.48,530.963L450.48,530.963z"/>
<path xmlns="http://www.w3.org/2000/svg" xmlns:ns1="http://ns.adobe.com/AdobeIllustrator/10.0/" ns1:knockout="Off" fill-rule="evenodd" clip-rule="evenodd" fill="none" stroke="#000000" stroke-width="0.504" stroke-miterlimit="2.4142" d="      M449.343,536.825c0.976,0.189,1.946-0.463,2.138-1.439c0.188-0.977-0.467-1.946-1.442-2.136      c-0.975-0.188-1.944,0.464-2.137,1.439C447.714,535.667,448.368,536.636,449.343,536.825L449.343,536.825z"/>
<path xmlns="http://www.w3.org/2000/svg" xmlns:ns1="http://ns.adobe.com/AdobeIllustrator/10.0/" ns1:knockout="Off" fill-rule="evenodd" clip-rule="evenodd" fill="none" stroke="#000000" stroke-width="0.504" stroke-miterlimit="2.4142" d="      M448.201,542.689c0.979,0.191,1.95-0.463,2.138-1.438c0.188-0.979-0.464-1.946-1.441-2.137      c-0.975-0.189-1.945,0.465-2.134,1.441C446.572,541.531,447.227,542.501,448.201,542.689L448.201,542.689z"/>
<path xmlns="http://www.w3.org/2000/svg" xmlns:ns1="http://ns.adobe.com/AdobeIllustrator/10.0/" ns1:knockout="Off" fill-rule="evenodd" clip-rule="evenodd" fill="none" stroke="#000000" stroke-width="0.504" stroke-miterlimit="2.4142" d="      M447.063,548.554c0.978,0.189,1.946-0.464,2.135-1.44c0.19-0.976-0.463-1.945-1.441-2.137c-0.973-0.188-1.943,0.466-2.135,1.441      C445.435,547.394,446.086,548.364,447.063,548.554L447.063,548.554z"/>
<path xmlns="http://www.w3.org/2000/svg" xmlns:ns1="http://ns.adobe.com/AdobeIllustrator/10.0/" ns1:knockout="Off" fill-rule="evenodd" clip-rule="evenodd" fill="none" stroke="#000000" stroke-width="0.504" stroke-miterlimit="2.4142" d="      M445.923,554.414c0.976,0.192,1.946-0.462,2.137-1.438c0.191-0.977-0.466-1.945-1.441-2.134      c-0.975-0.19-1.945,0.463-2.134,1.438C444.293,553.256,444.947,554.227,445.923,554.414L445.923,554.414z"/>
<path xmlns="http://www.w3.org/2000/svg" xmlns:ns1="http://ns.adobe.com/AdobeIllustrator/10.0/" ns1:knockout="Off" fill-rule="evenodd" clip-rule="evenodd" fill="none" stroke="#000000" stroke-width="0.504" stroke-miterlimit="2.4142" d="      M444.784,560.28c0.976,0.188,1.946-0.466,2.138-1.44c0.188-0.977-0.466-1.946-1.445-2.136c-0.972-0.19-1.942,0.464-2.133,1.439      C443.155,559.118,443.807,560.09,444.784,560.28L444.784,560.28z"/>
<path xmlns="http://www.w3.org/2000/svg" xmlns:ns1="http://ns.adobe.com/AdobeIllustrator/10.0/" ns1:knockout="Off" fill-rule="evenodd" clip-rule="evenodd" fill="none" stroke="#000000" stroke-width="0.504" stroke-miterlimit="2.4142" d="      M443.644,566.146c0.976,0.188,1.946-0.466,2.138-1.443c0.19-0.976-0.467-1.946-1.442-2.134      c-0.975-0.188-1.945,0.465-2.134,1.438C442.014,564.984,442.668,565.954,443.644,566.146L443.644,566.146z"/>
<path xmlns="http://www.w3.org/2000/svg" xmlns:ns1="http://ns.adobe.com/AdobeIllustrator/10.0/" ns1:knockout="Off" fill-rule="evenodd" clip-rule="evenodd" fill="none" stroke="#000000" stroke-width="0.504" stroke-miterlimit="2.4142" d="      M442.505,572.006c0.976,0.192,1.946-0.462,2.135-1.438c0.191-0.976-0.463-1.946-1.441-2.137      c-0.976-0.188-1.942,0.465-2.134,1.441C440.875,570.848,441.53,571.817,442.505,572.006L442.505,572.006z"/>
</g>
</switch>
</svg>