<?xml version="1.0" encoding="utf-8"?>
<!DOCTYPE svg PUBLIC "-//W3C//DTD SVG 1.1//EN" "http://www.w3.org/Graphics/SVG/1.1/DTD/svg11.dtd" [
	<!ENTITY ns_extend "http://ns.adobe.com/Extensibility/1.0/">
	<!ENTITY ns_ai "http://ns.adobe.com/AdobeIllustrator/10.0/">
	<!ENTITY ns_graphs "http://ns.adobe.com/Graphs/1.0/">
	<!ENTITY ns_vars "http://ns.adobe.com/Variables/1.0/">
	<!ENTITY ns_imrep "http://ns.adobe.com/ImageReplacement/1.0/">
	<!ENTITY ns_sfw "http://ns.adobe.com/SaveForWeb/1.0/">
	<!ENTITY ns_custom "http://ns.adobe.com/GenericCustomNamespace/1.0/">
	<!ENTITY ns_adobe_xpath "http://ns.adobe.com/XPath/1.0/">
]>
<svg version="1.1" id="Internal_Structure" xmlns:x="&ns_extend;" xmlns:i="&ns_ai;" xmlns:graph="&ns_graphs;"
	 xmlns="http://www.w3.org/2000/svg" xmlns:xlink="http://www.w3.org/1999/xlink" x="0px" y="0px" width="612px" height="792px"
	 viewBox="0 0 612 792" enable-background="new 0 0 612 792" xml:space="preserve">
<switch>
<g i:extraneous="self">
<path xmlns="http://www.w3.org/2000/svg" xmlns:ns1="http://ns.adobe.com/AdobeIllustrator/10.0/" ns1:knockout="Off" fill-rule="evenodd" clip-rule="evenodd" fill="none" stroke="#000000" stroke-width="0.504" stroke-miterlimit="2.4142" d="      M431.88,424.021c0.995,0,1.821,0.828,1.821,1.822c0,0.993-0.826,1.821-1.821,1.821s-1.821-0.828-1.821-1.821      C430.059,424.85,430.885,424.021,431.88,424.021L431.88,424.021z"/>
<path xmlns="http://www.w3.org/2000/svg" xmlns:ns1="http://ns.adobe.com/AdobeIllustrator/10.0/" ns1:knockout="Off" fill-rule="evenodd" clip-rule="evenodd" fill="none" stroke="#000000" stroke-width="0.504" stroke-miterlimit="2.4142" d="      M431.325,430.366c-0.995,0-1.821,0.828-1.821,1.822c0,0.993,0.826,1.821,1.821,1.821s1.821-0.828,1.821-1.821      C433.146,431.194,432.32,430.366,431.325,430.366L431.325,430.366z"/>
<path xmlns="http://www.w3.org/2000/svg" xmlns:ns1="http://ns.adobe.com/AdobeIllustrator/10.0/" ns1:knockout="Off" fill-rule="evenodd" clip-rule="evenodd" fill="none" stroke="#000000" stroke-width="0.504" stroke-miterlimit="2.4142" d="      M430.77,436.711c-0.995,0-1.821,0.828-1.821,1.822c0,0.993,0.826,1.821,1.821,1.821s1.821-0.828,1.821-1.821      C432.591,437.539,431.765,436.711,430.77,436.711L430.77,436.711z"/>
<path xmlns="http://www.w3.org/2000/svg" xmlns:ns1="http://ns.adobe.com/AdobeIllustrator/10.0/" ns1:knockout="Off" fill-rule="evenodd" clip-rule="evenodd" fill="none" stroke="#000000" stroke-width="0.504" stroke-miterlimit="2.4142" d="      M430.215,443.056c-0.995,0-1.821,0.828-1.821,1.822c0,0.993,0.826,1.821,1.821,1.821s1.821-0.828,1.821-1.821      C432.036,443.884,431.21,443.056,430.215,443.056L430.215,443.056z"/>
<path xmlns="http://www.w3.org/2000/svg" xmlns:ns1="http://ns.adobe.com/AdobeIllustrator/10.0/" ns1:knockout="Off" fill-rule="evenodd" clip-rule="evenodd" fill="none" stroke="#000000" stroke-width="0.504" stroke-miterlimit="2.4142" d="      M429.659,449.4c-0.995,0-1.821,0.828-1.821,1.822c0,0.993,0.826,1.821,1.821,1.821s1.821-0.828,1.821-1.821      C431.48,450.229,430.654,449.4,429.659,449.4L429.659,449.4z"/>
<path xmlns="http://www.w3.org/2000/svg" xmlns:ns1="http://ns.adobe.com/AdobeIllustrator/10.0/" ns1:knockout="Off" fill-rule="evenodd" clip-rule="evenodd" fill="none" stroke="#000000" stroke-width="0.504" stroke-miterlimit="2.4142" d="      M429.104,455.745c-0.995,0-1.821,0.828-1.821,1.822c0,0.993,0.826,1.821,1.821,1.821s1.821-0.828,1.821-1.821      C430.926,456.573,430.1,455.745,429.104,455.745L429.104,455.745z"/>
<path xmlns="http://www.w3.org/2000/svg" xmlns:ns1="http://ns.adobe.com/AdobeIllustrator/10.0/" ns1:knockout="Off" fill-rule="evenodd" clip-rule="evenodd" fill="none" stroke="#000000" stroke-width="0.504" stroke-miterlimit="2.4142" d="      M428.549,462.089c-0.995,0-1.821,0.828-1.821,1.822c0,0.993,0.826,1.821,1.821,1.821s1.821-0.828,1.821-1.821      C430.37,462.917,429.544,462.089,428.549,462.089L428.549,462.089z"/>
<path xmlns="http://www.w3.org/2000/svg" xmlns:ns1="http://ns.adobe.com/AdobeIllustrator/10.0/" ns1:knockout="Off" fill-rule="evenodd" clip-rule="evenodd" fill="none" stroke="#000000" stroke-width="0.504" stroke-miterlimit="2.4142" d="      M427.994,468.434c-0.995,0-1.821,0.828-1.821,1.822c0,0.993,0.826,1.821,1.821,1.821s1.821-0.828,1.821-1.821      C429.815,469.262,428.989,468.434,427.994,468.434L427.994,468.434z"/>
<path xmlns="http://www.w3.org/2000/svg" xmlns:ns1="http://ns.adobe.com/AdobeIllustrator/10.0/" ns1:knockout="Off" fill-rule="evenodd" clip-rule="evenodd" fill="none" stroke="#000000" stroke-width="0.504" stroke-miterlimit="2.4142" d="      M427.438,474.778c-0.995,0-1.821,0.828-1.821,1.822c0,0.993,0.826,1.821,1.821,1.821s1.821-0.828,1.821-1.821      C429.26,475.606,428.434,474.778,427.438,474.778L427.438,474.778z"/>
<path xmlns="http://www.w3.org/2000/svg" xmlns:ns1="http://ns.adobe.com/AdobeIllustrator/10.0/" ns1:knockout="Off" fill-rule="evenodd" clip-rule="evenodd" fill="none" stroke="#000000" stroke-width="0.504" stroke-miterlimit="2.4142" d="      M426.884,481.123c-0.995,0-1.821,0.828-1.821,1.822c0,0.993,0.826,1.821,1.821,1.821s1.821-0.828,1.821-1.821      C428.705,481.951,427.879,481.123,426.884,481.123L426.884,481.123z"/>
<path xmlns="http://www.w3.org/2000/svg" xmlns:ns1="http://ns.adobe.com/AdobeIllustrator/10.0/" ns1:knockout="Off" fill-rule="evenodd" clip-rule="evenodd" fill="none" stroke="#000000" stroke-width="0.504" stroke-miterlimit="2.4142" d="      M426.328,487.468c-0.995,0-1.821,0.828-1.821,1.822c0,0.993,0.826,1.821,1.821,1.821s1.821-0.828,1.821-1.821      C428.149,488.296,427.323,487.468,426.328,487.468L426.328,487.468z"/>
<path xmlns="http://www.w3.org/2000/svg" xmlns:ns1="http://ns.adobe.com/AdobeIllustrator/10.0/" ns1:knockout="Off" fill-rule="evenodd" clip-rule="evenodd" fill="none" stroke="#000000" stroke-width="0.504" stroke-miterlimit="2.4142" d="      M425.773,493.813c0.995,0,1.821,0.828,1.821,1.822c0,0.993-0.826,1.821-1.821,1.821s-1.821-0.828-1.821-1.821      C423.952,494.641,424.778,493.813,425.773,493.813L425.773,493.813z"/>
</g>
</switch>
</svg>