<?xml version="1.0" encoding="utf-8"?>
<!DOCTYPE svg PUBLIC "-//W3C//DTD SVG 1.1//EN" "http://www.w3.org/Graphics/SVG/1.1/DTD/svg11.dtd" [
	<!ENTITY ns_extend "http://ns.adobe.com/Extensibility/1.0/">
	<!ENTITY ns_ai "http://ns.adobe.com/AdobeIllustrator/10.0/">
	<!ENTITY ns_graphs "http://ns.adobe.com/Graphs/1.0/">
	<!ENTITY ns_vars "http://ns.adobe.com/Variables/1.0/">
	<!ENTITY ns_imrep "http://ns.adobe.com/ImageReplacement/1.0/">
	<!ENTITY ns_sfw "http://ns.adobe.com/SaveForWeb/1.0/">
	<!ENTITY ns_custom "http://ns.adobe.com/GenericCustomNamespace/1.0/">
	<!ENTITY ns_adobe_xpath "http://ns.adobe.com/XPath/1.0/">
]>
<svg version="1.1" id="Internal_Structure" xmlns:x="&ns_extend;" xmlns:i="&ns_ai;" xmlns:graph="&ns_graphs;"
	 xmlns="http://www.w3.org/2000/svg" xmlns:xlink="http://www.w3.org/1999/xlink" x="0px" y="0px" width="612px" height="792px"
	 viewBox="0 0 612 792" enable-background="new 0 0 612 792" xml:space="preserve">
<switch>
<g i:extraneous="self">
<path xmlns="http://www.w3.org/2000/svg" xmlns:ns1="http://ns.adobe.com/AdobeIllustrator/10.0/" ns1:knockout="Off" fill-rule="evenodd" clip-rule="evenodd" fill="none" stroke="#000000" stroke-width="0.504" stroke-miterlimit="2.4142" d="      M524.814,427.664c0.995,0,1.821-0.828,1.821-1.822c0-0.993-0.826-1.821-1.821-1.821s-1.821,0.828-1.821,1.821      C522.993,426.836,523.819,427.664,524.814,427.664L524.814,427.664z"/>
<path xmlns="http://www.w3.org/2000/svg" xmlns:ns1="http://ns.adobe.com/AdobeIllustrator/10.0/" ns1:knockout="Off" fill-rule="evenodd" clip-rule="evenodd" fill="none" stroke="#000000" stroke-width="0.504" stroke-miterlimit="2.4142" d="      M525.323,433.48c-0.995,0-1.821-0.828-1.821-1.822s0.826-1.822,1.821-1.822s1.821,0.828,1.821,1.822      S526.318,433.48,525.323,433.48L525.323,433.48z"/>
<path xmlns="http://www.w3.org/2000/svg" xmlns:ns1="http://ns.adobe.com/AdobeIllustrator/10.0/" ns1:knockout="Off" fill-rule="evenodd" clip-rule="evenodd" fill="none" stroke="#000000" stroke-width="0.504" stroke-miterlimit="2.4142" d="      M525.832,439.296c-0.995,0-1.821-0.828-1.821-1.822c0-0.993,0.826-1.821,1.821-1.821s1.821,0.828,1.821,1.821      C527.653,438.468,526.827,439.296,525.832,439.296L525.832,439.296z"/>
<path xmlns="http://www.w3.org/2000/svg" xmlns:ns1="http://ns.adobe.com/AdobeIllustrator/10.0/" ns1:knockout="Off" fill-rule="evenodd" clip-rule="evenodd" fill="none" stroke="#000000" stroke-width="0.504" stroke-miterlimit="2.4142" d="      M526.341,445.111c-0.995,0-1.821-0.828-1.821-1.822c0-0.992,0.826-1.82,1.821-1.82s1.821,0.828,1.821,1.82      C528.162,444.283,527.336,445.111,526.341,445.111L526.341,445.111z"/>
<path xmlns="http://www.w3.org/2000/svg" xmlns:ns1="http://ns.adobe.com/AdobeIllustrator/10.0/" ns1:knockout="Off" fill-rule="evenodd" clip-rule="evenodd" fill="none" stroke="#000000" stroke-width="0.504" stroke-miterlimit="2.4142" d="      M526.85,450.928c-0.995,0-1.821-0.828-1.821-1.822c0-0.993,0.826-1.821,1.821-1.821s1.821,0.828,1.821,1.821      C528.671,450.1,527.845,450.928,526.85,450.928L526.85,450.928z"/>
<path xmlns="http://www.w3.org/2000/svg" xmlns:ns1="http://ns.adobe.com/AdobeIllustrator/10.0/" ns1:knockout="Off" fill-rule="evenodd" clip-rule="evenodd" fill="none" stroke="#000000" stroke-width="0.504" stroke-miterlimit="2.4142" d="      M527.358,456.744c-0.995,0-1.821-0.828-1.821-1.822s0.826-1.822,1.821-1.822s1.821,0.828,1.821,1.822      S528.354,456.744,527.358,456.744L527.358,456.744z"/>
<path xmlns="http://www.w3.org/2000/svg" xmlns:ns1="http://ns.adobe.com/AdobeIllustrator/10.0/" ns1:knockout="Off" fill-rule="evenodd" clip-rule="evenodd" fill="none" stroke="#000000" stroke-width="0.504" stroke-miterlimit="2.4142" d="      M527.867,462.56c-0.994,0-1.82-0.828-1.82-1.822c0-0.993,0.826-1.821,1.82-1.821c0.996,0,1.822,0.828,1.822,1.821      C529.689,461.731,528.863,462.56,527.867,462.56L527.867,462.56z"/>
<path xmlns="http://www.w3.org/2000/svg" xmlns:ns1="http://ns.adobe.com/AdobeIllustrator/10.0/" ns1:knockout="Off" fill-rule="evenodd" clip-rule="evenodd" fill="none" stroke="#000000" stroke-width="0.504" stroke-miterlimit="2.4142" d="      M528.377,468.375c-0.995,0-1.821-0.828-1.821-1.822c0-0.992,0.826-1.82,1.821-1.82s1.821,0.828,1.821,1.82      C530.198,467.547,529.372,468.375,528.377,468.375L528.377,468.375z"/>
<path xmlns="http://www.w3.org/2000/svg" xmlns:ns1="http://ns.adobe.com/AdobeIllustrator/10.0/" ns1:knockout="Off" fill-rule="evenodd" clip-rule="evenodd" fill="none" stroke="#000000" stroke-width="0.504" stroke-miterlimit="2.4142" d="      M528.886,474.191c-0.995,0-1.821-0.828-1.821-1.822c0-0.993,0.826-1.821,1.821-1.821s1.821,0.828,1.821,1.821      C530.707,473.363,529.881,474.191,528.886,474.191L528.886,474.191z"/>
<path xmlns="http://www.w3.org/2000/svg" xmlns:ns1="http://ns.adobe.com/AdobeIllustrator/10.0/" ns1:knockout="Off" fill-rule="evenodd" clip-rule="evenodd" fill="none" stroke="#000000" stroke-width="0.504" stroke-miterlimit="2.4142" d="      M529.395,480.008c-0.995,0-1.821-0.828-1.821-1.822s0.826-1.822,1.821-1.822s1.821,0.828,1.821,1.822      S530.39,480.008,529.395,480.008L529.395,480.008z"/>
<path xmlns="http://www.w3.org/2000/svg" xmlns:ns1="http://ns.adobe.com/AdobeIllustrator/10.0/" ns1:knockout="Off" fill-rule="evenodd" clip-rule="evenodd" fill="none" stroke="#000000" stroke-width="0.504" stroke-miterlimit="2.4142" d="      M529.903,485.823c-0.995,0-1.821-0.828-1.821-1.822c0-0.993,0.826-1.821,1.821-1.821s1.821,0.828,1.821,1.821      C531.725,484.995,530.898,485.823,529.903,485.823L529.903,485.823z"/>
<path xmlns="http://www.w3.org/2000/svg" xmlns:ns1="http://ns.adobe.com/AdobeIllustrator/10.0/" ns1:knockout="Off" fill-rule="evenodd" clip-rule="evenodd" fill="none" stroke="#000000" stroke-width="0.504" stroke-miterlimit="2.4142" d="      M530.921,491.639c0.995,0,1.821-0.828,1.821-1.822c0-0.992-0.826-1.82-1.821-1.82s-1.821,0.828-1.821,1.82      C529.1,490.811,529.926,491.639,530.921,491.639L530.921,491.639z"/>
<path xmlns="http://www.w3.org/2000/svg" xmlns:ns1="http://ns.adobe.com/AdobeIllustrator/10.0/" ns1:knockout="Off" fill-rule="evenodd" clip-rule="evenodd" fill="none" stroke="#000000" stroke-width="0.504" stroke-miterlimit="2.4142" d="      M530.412,497.455c0.995,0,1.821-0.828,1.821-1.822c0-0.993-0.826-1.821-1.821-1.821s-1.821,0.828-1.821,1.821      C528.591,496.627,529.417,497.455,530.412,497.455L530.412,497.455z"/>
</g>
</switch>
</svg>