<?xml version="1.0" encoding="utf-8"?>
<!DOCTYPE svg PUBLIC "-//W3C//DTD SVG 1.1//EN" "http://www.w3.org/Graphics/SVG/1.1/DTD/svg11.dtd" [
	<!ENTITY ns_extend "http://ns.adobe.com/Extensibility/1.0/">
	<!ENTITY ns_ai "http://ns.adobe.com/AdobeIllustrator/10.0/">
	<!ENTITY ns_graphs "http://ns.adobe.com/Graphs/1.0/">
	<!ENTITY ns_vars "http://ns.adobe.com/Variables/1.0/">
	<!ENTITY ns_imrep "http://ns.adobe.com/ImageReplacement/1.0/">
	<!ENTITY ns_sfw "http://ns.adobe.com/SaveForWeb/1.0/">
	<!ENTITY ns_custom "http://ns.adobe.com/GenericCustomNamespace/1.0/">
	<!ENTITY ns_adobe_xpath "http://ns.adobe.com/XPath/1.0/">
]>
<svg version="1.1" id="Internal_Structure" xmlns:x="&ns_extend;" xmlns:i="&ns_ai;" xmlns:graph="&ns_graphs;"
	 xmlns="http://www.w3.org/2000/svg" xmlns:xlink="http://www.w3.org/1999/xlink" x="0px" y="0px" width="612px" height="792px"
	 viewBox="0 0 612 792" enable-background="new 0 0 612 792" xml:space="preserve">
<switch>
<g i:extraneous="self">
<path xmlns="http://www.w3.org/2000/svg" xmlns:ns1="http://ns.adobe.com/AdobeIllustrator/10.0/" ns1:knockout="Off" fill-rule="evenodd" clip-rule="evenodd" fill="none" stroke="#000000" stroke-width="0.504" stroke-miterlimit="2.4142" d="      M497.06,489.92c-0.976,0.19-1.946-0.464-2.137-1.439c-0.191-0.977,0.466-1.946,1.441-2.136c0.975-0.19,1.945,0.464,2.136,1.44      C498.689,488.761,498.035,489.731,497.06,489.92L497.06,489.92z"/>
<path xmlns="http://www.w3.org/2000/svg" xmlns:ns1="http://ns.adobe.com/AdobeIllustrator/10.0/" ns1:knockout="Off" fill-rule="evenodd" clip-rule="evenodd" fill="none" stroke="#000000" stroke-width="0.504" stroke-miterlimit="2.4142" d="      M498.201,495.784c-0.979,0.188-1.949-0.466-2.138-1.44c-0.191-0.976,0.463-1.946,1.441-2.136      c0.976-0.189,1.943,0.465,2.134,1.439C499.827,494.624,499.173,495.595,498.201,495.784L498.201,495.784z"/>
<path xmlns="http://www.w3.org/2000/svg" xmlns:ns1="http://ns.adobe.com/AdobeIllustrator/10.0/" ns1:knockout="Off" fill-rule="evenodd" clip-rule="evenodd" fill="none" stroke="#000000" stroke-width="0.504" stroke-miterlimit="2.4142" d="      M499.339,501.646c-0.975,0.188-1.946-0.466-2.138-1.441c-0.188-0.975,0.467-1.943,1.442-2.133      c0.975-0.191,1.945,0.463,2.137,1.438C500.969,500.486,500.314,501.456,499.339,501.646L499.339,501.646z"/>
<path xmlns="http://www.w3.org/2000/svg" xmlns:ns1="http://ns.adobe.com/AdobeIllustrator/10.0/" ns1:knockout="Off" fill-rule="evenodd" clip-rule="evenodd" fill="none" stroke="#000000" stroke-width="0.504" stroke-miterlimit="2.4142" d="      M500.478,507.51c-0.976,0.188-1.946-0.465-2.135-1.441c-0.191-0.976,0.463-1.945,1.442-2.135c0.975-0.19,1.942,0.464,2.133,1.44      C502.109,506.35,501.455,507.32,500.478,507.51L500.478,507.51z"/>
<path xmlns="http://www.w3.org/2000/svg" xmlns:ns1="http://ns.adobe.com/AdobeIllustrator/10.0/" ns1:knockout="Off" fill-rule="evenodd" clip-rule="evenodd" fill="none" stroke="#000000" stroke-width="0.504" stroke-miterlimit="2.4142" d="      M501.618,513.374c-0.976,0.189-1.946-0.465-2.138-1.44c-0.188-0.976,0.467-1.945,1.442-2.136      c0.975-0.189,1.945,0.464,2.134,1.44C503.247,512.214,502.594,513.185,501.618,513.374L501.618,513.374z"/>
<path xmlns="http://www.w3.org/2000/svg" xmlns:ns1="http://ns.adobe.com/AdobeIllustrator/10.0/" ns1:knockout="Off" fill-rule="evenodd" clip-rule="evenodd" fill="none" stroke="#000000" stroke-width="0.504" stroke-miterlimit="2.4142" d="      M502.76,519.235c-0.979,0.191-1.95-0.463-2.141-1.438c-0.188-0.976,0.467-1.946,1.445-2.137c0.975-0.188,1.941,0.465,2.133,1.44      C504.389,518.077,503.731,519.048,502.76,519.235L502.76,519.235z"/>
<path xmlns="http://www.w3.org/2000/svg" xmlns:ns1="http://ns.adobe.com/AdobeIllustrator/10.0/" ns1:knockout="Off" fill-rule="evenodd" clip-rule="evenodd" fill="none" stroke="#000000" stroke-width="0.504" stroke-miterlimit="2.4142" d="      M503.897,525.101c-0.979,0.188-1.946-0.464-2.138-1.438c-0.188-0.977,0.467-1.947,1.442-2.136      c0.975-0.191,1.945,0.463,2.137,1.439C505.526,523.942,504.874,524.91,503.897,525.101L503.897,525.101z"/>
<path xmlns="http://www.w3.org/2000/svg" xmlns:ns1="http://ns.adobe.com/AdobeIllustrator/10.0/" ns1:knockout="Off" fill-rule="evenodd" clip-rule="evenodd" fill="none" stroke="#000000" stroke-width="0.504" stroke-miterlimit="2.4142" d="      M505.039,530.963c-0.979,0.189-1.95-0.464-2.138-1.44c-0.191-0.976,0.464-1.944,1.442-2.136c0.975-0.189,1.945,0.465,2.133,1.44      C506.668,529.802,506.014,530.772,505.039,530.963L505.039,530.963z"/>
<path xmlns="http://www.w3.org/2000/svg" xmlns:ns1="http://ns.adobe.com/AdobeIllustrator/10.0/" ns1:knockout="Off" fill-rule="evenodd" clip-rule="evenodd" fill="none" stroke="#000000" stroke-width="0.504" stroke-miterlimit="2.4142" d="      M506.177,536.825c-0.976,0.189-1.946-0.463-2.138-1.439c-0.188-0.977,0.467-1.946,1.442-2.136      c0.977-0.188,1.945,0.464,2.137,1.439C507.806,535.667,507.151,536.636,506.177,536.825L506.177,536.825z"/>
<path xmlns="http://www.w3.org/2000/svg" xmlns:ns1="http://ns.adobe.com/AdobeIllustrator/10.0/" ns1:knockout="Off" fill-rule="evenodd" clip-rule="evenodd" fill="none" stroke="#000000" stroke-width="0.504" stroke-miterlimit="2.4142" d="      M507.318,542.689c-0.979,0.191-1.95-0.463-2.138-1.438c-0.19-0.979,0.466-1.946,1.441-2.137      c0.976-0.189,1.945,0.465,2.134,1.441C508.947,541.531,508.293,542.501,507.318,542.689L507.318,542.689z"/>
<path xmlns="http://www.w3.org/2000/svg" xmlns:ns1="http://ns.adobe.com/AdobeIllustrator/10.0/" ns1:knockout="Off" fill-rule="evenodd" clip-rule="evenodd" fill="none" stroke="#000000" stroke-width="0.504" stroke-miterlimit="2.4142" d="      M508.458,548.554c-0.978,0.189-1.948-0.464-2.139-1.44c-0.188-0.976,0.466-1.945,1.441-2.137      c0.975-0.188,1.947,0.466,2.137,1.441C510.085,547.394,509.432,548.364,508.458,548.554L508.458,548.554z"/>
<path xmlns="http://www.w3.org/2000/svg" xmlns:ns1="http://ns.adobe.com/AdobeIllustrator/10.0/" ns1:knockout="Off" fill-rule="evenodd" clip-rule="evenodd" fill="none" stroke="#000000" stroke-width="0.504" stroke-miterlimit="2.4142" d="      M509.598,554.414c-0.979,0.192-1.949-0.462-2.138-1.438c-0.191-0.977,0.466-1.945,1.441-2.134      c0.976-0.19,1.945,0.463,2.134,1.438C511.227,553.256,510.572,554.227,509.598,554.414L509.598,554.414z"/>
<path xmlns="http://www.w3.org/2000/svg" xmlns:ns1="http://ns.adobe.com/AdobeIllustrator/10.0/" ns1:knockout="Off" fill-rule="evenodd" clip-rule="evenodd" fill="none" stroke="#000000" stroke-width="0.504" stroke-miterlimit="2.4142" d="      M510.735,560.28c-0.976,0.188-1.946-0.466-2.138-1.44c-0.188-0.977,0.467-1.946,1.445-2.136c0.972-0.19,1.942,0.464,2.134,1.439      C512.364,559.118,511.711,560.09,510.735,560.28L510.735,560.28z"/>
<path xmlns="http://www.w3.org/2000/svg" xmlns:ns1="http://ns.adobe.com/AdobeIllustrator/10.0/" ns1:knockout="Off" fill-rule="evenodd" clip-rule="evenodd" fill="none" stroke="#000000" stroke-width="0.504" stroke-miterlimit="2.4142" d="      M511.877,566.146c-0.979,0.188-1.949-0.466-2.138-1.443c-0.191-0.976,0.467-1.946,1.441-2.134      c0.976-0.188,1.946,0.465,2.134,1.438C513.506,564.984,512.852,565.954,511.877,566.146L511.877,566.146z"/>
<path xmlns="http://www.w3.org/2000/svg" xmlns:ns1="http://ns.adobe.com/AdobeIllustrator/10.0/" ns1:knockout="Off" fill-rule="evenodd" clip-rule="evenodd" fill="none" stroke="#000000" stroke-width="0.504" stroke-miterlimit="2.4142" d="      M513.015,572.006c-0.976,0.192-1.946-0.462-2.135-1.438c-0.19-0.976,0.464-1.946,1.439-2.137      c0.978-0.188,1.944,0.465,2.137,1.441C514.646,570.848,513.989,571.817,513.015,572.006L513.015,572.006z"/>
</g>
</switch>
</svg>