<?xml version="1.0" encoding="utf-8"?>
<!DOCTYPE svg PUBLIC "-//W3C//DTD SVG 1.1//EN" "http://www.w3.org/Graphics/SVG/1.1/DTD/svg11.dtd" [
	<!ENTITY ns_extend "http://ns.adobe.com/Extensibility/1.0/">
	<!ENTITY ns_ai "http://ns.adobe.com/AdobeIllustrator/10.0/">
	<!ENTITY ns_graphs "http://ns.adobe.com/Graphs/1.0/">
	<!ENTITY ns_vars "http://ns.adobe.com/Variables/1.0/">
	<!ENTITY ns_imrep "http://ns.adobe.com/ImageReplacement/1.0/">
	<!ENTITY ns_sfw "http://ns.adobe.com/SaveForWeb/1.0/">
	<!ENTITY ns_custom "http://ns.adobe.com/GenericCustomNamespace/1.0/">
	<!ENTITY ns_adobe_xpath "http://ns.adobe.com/XPath/1.0/">
]>
<svg version="1.1" id="Internal_Structure" xmlns:x="&ns_extend;" xmlns:i="&ns_ai;" xmlns:graph="&ns_graphs;"
	 xmlns="http://www.w3.org/2000/svg" xmlns:xlink="http://www.w3.org/1999/xlink" x="0px" y="0px" width="612px" height="792px"
	 viewBox="0 0 612 792" enable-background="new 0 0 612 792" xml:space="preserve">
<switch>
<g i:extraneous="self">
<path xmlns="http://www.w3.org/2000/svg" xmlns:ns1="http://ns.adobe.com/AdobeIllustrator/10.0/" ns1:knockout="Off" fill-rule="evenodd" clip-rule="evenodd" fill="none" stroke="#000000" stroke-width="0.504" stroke-miterlimit="2.4142" d="      M522.431,426.504c-0.991,0.087-1.889-0.666-1.976-1.656c-0.086-0.989,0.667-1.887,1.658-1.974      c0.988-0.085,1.886,0.667,1.972,1.656C524.172,425.52,523.42,426.417,522.431,426.504L522.431,426.504z"/>
<path xmlns="http://www.w3.org/2000/svg" xmlns:ns1="http://ns.adobe.com/AdobeIllustrator/10.0/" ns1:knockout="Off" fill-rule="evenodd" clip-rule="evenodd" fill="none" stroke="#000000" stroke-width="0.504" stroke-miterlimit="2.4142" d="      M527.103,430.236c-0.991,0.086-1.888-0.666-1.975-1.656c-0.087-0.989,0.666-1.886,1.657-1.974      c0.989-0.086,1.885,0.666,1.972,1.656S528.092,430.15,527.103,430.236L527.103,430.236z"/>
<path xmlns="http://www.w3.org/2000/svg" xmlns:ns1="http://ns.adobe.com/AdobeIllustrator/10.0/" ns1:knockout="Off" fill-rule="evenodd" clip-rule="evenodd" fill="none" stroke="#000000" stroke-width="0.504" stroke-miterlimit="2.4142" d="      M523.149,434.723c-0.991,0.087-1.889-0.665-1.976-1.655c-0.087-0.989,0.667-1.887,1.658-1.973      c0.989-0.087,1.886,0.666,1.972,1.654C524.89,433.74,524.139,434.636,523.149,434.723L523.149,434.723z"/>
<path xmlns="http://www.w3.org/2000/svg" xmlns:ns1="http://ns.adobe.com/AdobeIllustrator/10.0/" ns1:knockout="Off" fill-rule="evenodd" clip-rule="evenodd" fill="none" stroke="#000000" stroke-width="0.504" stroke-miterlimit="2.4142" d="      M527.821,438.456c-0.99,0.086-1.888-0.666-1.975-1.655c-0.086-0.991,0.667-1.888,1.657-1.974      c0.99-0.087,1.886,0.665,1.972,1.656C529.563,437.473,528.811,438.37,527.821,438.456L527.821,438.456z"/>
<path xmlns="http://www.w3.org/2000/svg" xmlns:ns1="http://ns.adobe.com/AdobeIllustrator/10.0/" ns1:knockout="Off" fill-rule="evenodd" clip-rule="evenodd" fill="none" stroke="#000000" stroke-width="0.504" stroke-miterlimit="2.4142" d="      M523.868,442.943c-0.99,0.086-1.888-0.666-1.975-1.655c-0.087-0.99,0.666-1.888,1.658-1.975      c0.989-0.086,1.886,0.667,1.972,1.657C525.609,441.96,524.858,442.857,523.868,442.943L523.868,442.943z"/>
<path xmlns="http://www.w3.org/2000/svg" xmlns:ns1="http://ns.adobe.com/AdobeIllustrator/10.0/" ns1:knockout="Off" fill-rule="evenodd" clip-rule="evenodd" fill="none" stroke="#000000" stroke-width="0.504" stroke-miterlimit="2.4142" d="      M528.541,446.676c-0.992,0.087-1.889-0.666-1.976-1.655c-0.087-0.99,0.667-1.887,1.657-1.974      c0.989-0.087,1.886,0.666,1.973,1.656C530.281,445.693,529.529,446.589,528.541,446.676L528.541,446.676z"/>
<path xmlns="http://www.w3.org/2000/svg" xmlns:ns1="http://ns.adobe.com/AdobeIllustrator/10.0/" ns1:knockout="Off" fill-rule="evenodd" clip-rule="evenodd" fill="none" stroke="#000000" stroke-width="0.504" stroke-miterlimit="2.4142" d="      M524.587,451.163c-0.99,0.086-1.888-0.665-1.974-1.655c-0.087-0.991,0.666-1.887,1.656-1.974      c0.99-0.086,1.886,0.665,1.972,1.656C526.329,450.18,525.576,451.077,524.587,451.163L524.587,451.163z"/>
<path xmlns="http://www.w3.org/2000/svg" xmlns:ns1="http://ns.adobe.com/AdobeIllustrator/10.0/" ns1:knockout="Off" fill-rule="evenodd" clip-rule="evenodd" fill="none" stroke="#000000" stroke-width="0.504" stroke-miterlimit="2.4142" d="      M529.26,454.896c-0.991,0.086-1.889-0.666-1.975-1.655c-0.087-0.991,0.667-1.887,1.657-1.974      c0.989-0.087,1.886,0.665,1.973,1.655S530.249,454.809,529.26,454.896L529.26,454.896z"/>
<path xmlns="http://www.w3.org/2000/svg" xmlns:ns1="http://ns.adobe.com/AdobeIllustrator/10.0/" ns1:knockout="Off" fill-rule="evenodd" clip-rule="evenodd" fill="none" stroke="#000000" stroke-width="0.504" stroke-miterlimit="2.4142" d="      M525.307,459.383c-0.991,0.087-1.888-0.666-1.975-1.655c-0.087-0.991,0.667-1.887,1.657-1.974      c0.989-0.087,1.885,0.667,1.972,1.655C527.048,458.399,526.296,459.296,525.307,459.383L525.307,459.383z"/>
<path xmlns="http://www.w3.org/2000/svg" xmlns:ns1="http://ns.adobe.com/AdobeIllustrator/10.0/" ns1:knockout="Off" fill-rule="evenodd" clip-rule="evenodd" fill="none" stroke="#000000" stroke-width="0.504" stroke-miterlimit="2.4142" d="      M529.979,463.115c-0.991,0.087-1.889-0.666-1.975-1.656c-0.087-0.989,0.666-1.886,1.657-1.974      c0.989-0.086,1.886,0.666,1.972,1.656C531.721,462.133,530.968,463.028,529.979,463.115L529.979,463.115z"/>
<path xmlns="http://www.w3.org/2000/svg" xmlns:ns1="http://ns.adobe.com/AdobeIllustrator/10.0/" ns1:knockout="Off" fill-rule="evenodd" clip-rule="evenodd" fill="none" stroke="#000000" stroke-width="0.504" stroke-miterlimit="2.4142" d="      M526.025,467.603c-0.99,0.087-1.888-0.667-1.975-1.656c-0.086-0.988,0.667-1.886,1.657-1.973s1.886,0.666,1.973,1.655      C527.768,466.619,527.016,467.516,526.025,467.603L526.025,467.603z"/>
<path xmlns="http://www.w3.org/2000/svg" xmlns:ns1="http://ns.adobe.com/AdobeIllustrator/10.0/" ns1:knockout="Off" fill-rule="evenodd" clip-rule="evenodd" fill="none" stroke="#000000" stroke-width="0.504" stroke-miterlimit="2.4142" d="      M530.698,471.335c-0.991,0.087-1.889-0.665-1.976-1.655s0.667-1.888,1.658-1.974c0.989-0.086,1.885,0.666,1.972,1.656      C532.438,470.352,531.688,471.248,530.698,471.335L530.698,471.335z"/>
<path xmlns="http://www.w3.org/2000/svg" xmlns:ns1="http://ns.adobe.com/AdobeIllustrator/10.0/" ns1:knockout="Off" fill-rule="evenodd" clip-rule="evenodd" fill="none" stroke="#000000" stroke-width="0.504" stroke-miterlimit="2.4142" d="      M526.745,475.822c-0.991,0.087-1.889-0.665-1.976-1.656c-0.086-0.989,0.666-1.887,1.658-1.974      c0.988-0.087,1.886,0.666,1.972,1.656C528.486,474.84,527.734,475.735,526.745,475.822L526.745,475.822z"/>
<path xmlns="http://www.w3.org/2000/svg" xmlns:ns1="http://ns.adobe.com/AdobeIllustrator/10.0/" ns1:knockout="Off" fill-rule="evenodd" clip-rule="evenodd" fill="none" stroke="#000000" stroke-width="0.504" stroke-miterlimit="2.4142" d="      M531.417,479.555c-0.99,0.087-1.888-0.666-1.975-1.655c-0.087-0.991,0.666-1.888,1.657-1.974      c0.99-0.087,1.886,0.665,1.973,1.656C533.158,478.571,532.407,479.468,531.417,479.555L531.417,479.555z"/>
<path xmlns="http://www.w3.org/2000/svg" xmlns:ns1="http://ns.adobe.com/AdobeIllustrator/10.0/" ns1:knockout="Off" fill-rule="evenodd" clip-rule="evenodd" fill="none" stroke="#000000" stroke-width="0.504" stroke-miterlimit="2.4142" d="      M529.834,487.531c-0.99,0.087-1.887-0.666-1.975-1.656c-0.086-0.99,0.666-1.887,1.658-1.974      c0.988-0.087,1.885,0.665,1.973,1.656C531.576,486.547,530.824,487.444,529.834,487.531L529.834,487.531z"/>
<path xmlns="http://www.w3.org/2000/svg" xmlns:ns1="http://ns.adobe.com/AdobeIllustrator/10.0/" ns1:knockout="Off" fill-rule="evenodd" clip-rule="evenodd" fill="none" stroke="#000000" stroke-width="0.504" stroke-miterlimit="2.4142" d="      M530.946,495.508c-0.991,0.087-1.889-0.666-1.975-1.655c-0.087-0.991,0.666-1.887,1.657-1.974      c0.989-0.088,1.886,0.665,1.973,1.655S531.937,495.421,530.946,495.508L530.946,495.508z"/>
</g>
</switch>
</svg>