<?xml version="1.0" encoding="utf-8"?>
<!DOCTYPE svg PUBLIC "-//W3C//DTD SVG 1.1//EN" "http://www.w3.org/Graphics/SVG/1.1/DTD/svg11.dtd" [
	<!ENTITY ns_extend "http://ns.adobe.com/Extensibility/1.0/">
	<!ENTITY ns_ai "http://ns.adobe.com/AdobeIllustrator/10.0/">
	<!ENTITY ns_graphs "http://ns.adobe.com/Graphs/1.0/">
	<!ENTITY ns_vars "http://ns.adobe.com/Variables/1.0/">
	<!ENTITY ns_imrep "http://ns.adobe.com/ImageReplacement/1.0/">
	<!ENTITY ns_sfw "http://ns.adobe.com/SaveForWeb/1.0/">
	<!ENTITY ns_custom "http://ns.adobe.com/GenericCustomNamespace/1.0/">
	<!ENTITY ns_adobe_xpath "http://ns.adobe.com/XPath/1.0/">
]>
<svg version="1.1" id="Internal_Structure" xmlns:x="&ns_extend;" xmlns:i="&ns_ai;" xmlns:graph="&ns_graphs;"
	 xmlns="http://www.w3.org/2000/svg" xmlns:xlink="http://www.w3.org/1999/xlink" x="0px" y="0px" width="612px" height="792px"
	 viewBox="0 0 612 792" enable-background="new 0 0 612 792" xml:space="preserve">
<switch>
<g i:extraneous="self">
<path xmlns="http://www.w3.org/2000/svg" xmlns:ns1="http://ns.adobe.com/AdobeIllustrator/10.0/" ns1:knockout="Off" fill-rule="evenodd" clip-rule="evenodd" fill="none" stroke="#000000" stroke-width="0.504" stroke-miterlimit="2.4142" d="      M456.691,489.345c-0.978-0.19-1.632-1.16-1.443-2.137c0.189-0.974,1.162-1.63,2.137-1.439c0.976,0.188,1.631,1.159,1.44,2.134      C458.636,488.879,457.665,489.533,456.691,489.345L456.691,489.345z"/>
<path xmlns="http://www.w3.org/2000/svg" xmlns:ns1="http://ns.adobe.com/AdobeIllustrator/10.0/" ns1:knockout="Off" fill-rule="evenodd" clip-rule="evenodd" fill="none" stroke="#000000" stroke-width="0.504" stroke-miterlimit="2.4142" d="      M459.88,494.105c-0.976-0.19-1.631-1.16-1.44-2.135c0.189-0.977,1.16-1.631,2.137-1.44c0.975,0.189,1.628,1.158,1.439,2.135      C461.825,493.641,460.856,494.295,459.88,494.105L459.88,494.105z"/>
<path xmlns="http://www.w3.org/2000/svg" xmlns:ns1="http://ns.adobe.com/AdobeIllustrator/10.0/" ns1:knockout="Off" fill-rule="evenodd" clip-rule="evenodd" fill="none" stroke="#000000" stroke-width="0.504" stroke-miterlimit="2.4142" d="      M454.918,498.467c-0.978-0.191-1.631-1.161-1.442-2.136c0.188-0.977,1.16-1.63,2.138-1.439c0.974,0.188,1.629,1.158,1.438,2.135      C456.862,498.002,455.892,498.655,454.918,498.467L454.918,498.467z"/>
<path xmlns="http://www.w3.org/2000/svg" xmlns:ns1="http://ns.adobe.com/AdobeIllustrator/10.0/" ns1:knockout="Off" fill-rule="evenodd" clip-rule="evenodd" fill="none" stroke="#000000" stroke-width="0.504" stroke-miterlimit="2.4142" d="      M458.108,503.228c-0.977-0.188-1.632-1.158-1.441-2.135c0.189-0.975,1.16-1.631,2.136-1.44c0.976,0.189,1.629,1.159,1.439,2.136      C460.053,502.763,459.083,503.417,458.108,503.228L458.108,503.228z"/>
<path xmlns="http://www.w3.org/2000/svg" xmlns:ns1="http://ns.adobe.com/AdobeIllustrator/10.0/" ns1:knockout="Off" fill-rule="evenodd" clip-rule="evenodd" fill="none" stroke="#000000" stroke-width="0.504" stroke-miterlimit="2.4142" d="      M453.145,507.59c-0.977-0.19-1.633-1.161-1.443-2.137c0.19-0.976,1.161-1.63,2.138-1.44c0.976,0.189,1.629,1.16,1.44,2.136      C455.09,507.124,454.119,507.778,453.145,507.59L453.145,507.59z"/>
<path xmlns="http://www.w3.org/2000/svg" xmlns:ns1="http://ns.adobe.com/AdobeIllustrator/10.0/" ns1:knockout="Off" fill-rule="evenodd" clip-rule="evenodd" fill="none" stroke="#000000" stroke-width="0.504" stroke-miterlimit="2.4142" d="      M456.334,512.351c-0.977-0.189-1.631-1.16-1.441-2.135c0.189-0.977,1.16-1.631,2.137-1.44c0.976,0.189,1.63,1.159,1.439,2.136      C458.279,511.886,457.31,512.542,456.334,512.351L456.334,512.351z"/>
<path xmlns="http://www.w3.org/2000/svg" xmlns:ns1="http://ns.adobe.com/AdobeIllustrator/10.0/" ns1:knockout="Off" fill-rule="evenodd" clip-rule="evenodd" fill="none" stroke="#000000" stroke-width="0.504" stroke-miterlimit="2.4142" d="      M451.371,516.712c-0.977-0.189-1.632-1.162-1.442-2.137s1.161-1.629,2.138-1.439c0.976,0.19,1.629,1.16,1.438,2.135      C453.315,516.246,452.347,516.9,451.371,516.712L451.371,516.712z"/>
<path xmlns="http://www.w3.org/2000/svg" xmlns:ns1="http://ns.adobe.com/AdobeIllustrator/10.0/" ns1:knockout="Off" fill-rule="evenodd" clip-rule="evenodd" fill="none" stroke="#000000" stroke-width="0.504" stroke-miterlimit="2.4142" d="      M454.562,521.474c-0.976-0.191-1.632-1.161-1.442-2.137s1.161-1.629,2.138-1.439c0.976,0.189,1.629,1.158,1.439,2.135      C456.507,521.007,455.537,521.662,454.562,521.474L454.562,521.474z"/>
<path xmlns="http://www.w3.org/2000/svg" xmlns:ns1="http://ns.adobe.com/AdobeIllustrator/10.0/" ns1:knockout="Off" fill-rule="evenodd" clip-rule="evenodd" fill="none" stroke="#000000" stroke-width="0.504" stroke-miterlimit="2.4142" d="      M449.596,525.834c-0.977-0.189-1.63-1.16-1.439-2.136c0.188-0.976,1.158-1.63,2.136-1.439c0.975,0.188,1.629,1.159,1.439,2.136      C451.542,525.369,450.571,526.023,449.596,525.834L449.596,525.834z"/>
<path xmlns="http://www.w3.org/2000/svg" xmlns:ns1="http://ns.adobe.com/AdobeIllustrator/10.0/" ns1:knockout="Off" fill-rule="evenodd" clip-rule="evenodd" fill="none" stroke="#000000" stroke-width="0.504" stroke-miterlimit="2.4142" d="      M452.788,530.596c-0.976-0.19-1.631-1.16-1.442-2.137c0.19-0.975,1.162-1.63,2.138-1.439c0.976,0.189,1.63,1.16,1.439,2.135      C454.734,530.129,453.764,530.784,452.788,530.596L452.788,530.596z"/>
<path xmlns="http://www.w3.org/2000/svg" xmlns:ns1="http://ns.adobe.com/AdobeIllustrator/10.0/" ns1:knockout="Off" fill-rule="evenodd" clip-rule="evenodd" fill="none" stroke="#000000" stroke-width="0.504" stroke-miterlimit="2.4142" d="      M447.825,534.957c-0.978-0.191-1.632-1.162-1.443-2.137c0.189-0.977,1.16-1.631,2.138-1.439c0.976,0.189,1.63,1.158,1.44,2.134      C449.77,534.49,448.799,535.145,447.825,534.957L447.825,534.957z"/>
<path xmlns="http://www.w3.org/2000/svg" xmlns:ns1="http://ns.adobe.com/AdobeIllustrator/10.0/" ns1:knockout="Off" fill-rule="evenodd" clip-rule="evenodd" fill="none" stroke="#000000" stroke-width="0.504" stroke-miterlimit="2.4142" d="      M451.015,539.718c-0.976-0.189-1.631-1.16-1.441-2.136c0.19-0.976,1.161-1.629,2.137-1.44c0.976,0.189,1.629,1.159,1.439,2.137      C452.96,539.252,451.991,539.907,451.015,539.718L451.015,539.718z"/>
<path xmlns="http://www.w3.org/2000/svg" xmlns:ns1="http://ns.adobe.com/AdobeIllustrator/10.0/" ns1:knockout="Off" fill-rule="evenodd" clip-rule="evenodd" fill="none" stroke="#000000" stroke-width="0.504" stroke-miterlimit="2.4142" d="      M446.053,544.079c-0.977-0.19-1.633-1.16-1.443-2.137c0.191-0.977,1.162-1.629,2.139-1.439c0.973,0.189,1.629,1.158,1.438,2.135      C447.996,543.612,447.025,544.268,446.053,544.079L446.053,544.079z"/>
<path xmlns="http://www.w3.org/2000/svg" xmlns:ns1="http://ns.adobe.com/AdobeIllustrator/10.0/" ns1:knockout="Off" fill-rule="evenodd" clip-rule="evenodd" fill="none" stroke="#000000" stroke-width="0.504" stroke-miterlimit="2.4142" d="      M449.241,548.841c-0.977-0.188-1.631-1.161-1.441-2.136c0.189-0.976,1.16-1.63,2.137-1.439c0.976,0.189,1.628,1.159,1.439,2.135      C451.187,548.377,450.217,549.03,449.241,548.841L449.241,548.841z"/>
<path xmlns="http://www.w3.org/2000/svg" xmlns:ns1="http://ns.adobe.com/AdobeIllustrator/10.0/" ns1:knockout="Off" fill-rule="evenodd" clip-rule="evenodd" fill="none" stroke="#000000" stroke-width="0.504" stroke-miterlimit="2.4142" d="      M444.277,553.201c-0.977-0.19-1.63-1.16-1.441-2.135c0.189-0.977,1.16-1.631,2.137-1.441c0.976,0.19,1.629,1.161,1.439,2.136      C446.224,552.736,445.253,553.391,444.277,553.201L444.277,553.201z"/>
<path xmlns="http://www.w3.org/2000/svg" xmlns:ns1="http://ns.adobe.com/AdobeIllustrator/10.0/" ns1:knockout="Off" fill="none" stroke="#000000" stroke-width="1.5" d="M456.97,556.515"/>
<path xmlns="http://www.w3.org/2000/svg" xmlns:ns1="http://ns.adobe.com/AdobeIllustrator/10.0/" ns1:knockout="Off" fill-rule="evenodd" clip-rule="evenodd" fill="none" stroke="#000000" stroke-width="0.504" stroke-miterlimit="2.4142" d="      M447.468,557.963c-0.976-0.189-1.631-1.16-1.441-2.136c0.188-0.976,1.16-1.63,2.137-1.439c0.976,0.188,1.629,1.159,1.439,2.134      C449.412,557.498,448.443,558.152,447.468,557.963L447.468,557.963z"/>
<path xmlns="http://www.w3.org/2000/svg" xmlns:ns1="http://ns.adobe.com/AdobeIllustrator/10.0/" ns1:knockout="Off" fill-rule="evenodd" clip-rule="evenodd" fill="none" stroke="#000000" stroke-width="0.504" stroke-miterlimit="2.4142" d="      M443.614,565.549c-0.976-0.191-1.632-1.16-1.442-2.137c0.19-0.977,1.162-1.629,2.139-1.44c0.974,0.19,1.629,1.159,1.438,2.136      C445.56,565.082,444.589,565.736,443.614,565.549L443.614,565.549z"/>
<path xmlns="http://www.w3.org/2000/svg" xmlns:ns1="http://ns.adobe.com/AdobeIllustrator/10.0/" ns1:knockout="Off" fill-rule="evenodd" clip-rule="evenodd" fill="none" stroke="#000000" stroke-width="0.504" stroke-miterlimit="2.4142" d="      M439.762,573.133c-0.978-0.188-1.633-1.16-1.443-2.136s1.162-1.63,2.139-1.44c0.974,0.189,1.629,1.161,1.438,2.135      C441.705,572.668,440.735,573.324,439.762,573.133L439.762,573.133z"/>
</g>
</switch>
</svg>