<?xml version="1.0" encoding="utf-8"?>
<!DOCTYPE svg PUBLIC "-//W3C//DTD SVG 1.1//EN" "http://www.w3.org/Graphics/SVG/1.1/DTD/svg11.dtd" [
	<!ENTITY ns_extend "http://ns.adobe.com/Extensibility/1.0/">
	<!ENTITY ns_ai "http://ns.adobe.com/AdobeIllustrator/10.0/">
	<!ENTITY ns_graphs "http://ns.adobe.com/Graphs/1.0/">
	<!ENTITY ns_vars "http://ns.adobe.com/Variables/1.0/">
	<!ENTITY ns_imrep "http://ns.adobe.com/ImageReplacement/1.0/">
	<!ENTITY ns_sfw "http://ns.adobe.com/SaveForWeb/1.0/">
	<!ENTITY ns_custom "http://ns.adobe.com/GenericCustomNamespace/1.0/">
	<!ENTITY ns_adobe_xpath "http://ns.adobe.com/XPath/1.0/">
]>
<svg version="1.1" id="Internal_Structure" xmlns:x="&ns_extend;" xmlns:i="&ns_ai;" xmlns:graph="&ns_graphs;"
	 xmlns="http://www.w3.org/2000/svg" xmlns:xlink="http://www.w3.org/1999/xlink" x="0px" y="0px" width="612px" height="792px"
	 viewBox="0 0 612 792" enable-background="new 0 0 612 792" xml:space="preserve">
<switch>
<g i:extraneous="self">
<path xmlns="http://www.w3.org/2000/svg" xmlns:ns1="http://ns.adobe.com/AdobeIllustrator/10.0/" ns1:knockout="Off" fill-rule="evenodd" clip-rule="evenodd" fill="none" stroke="#000000" stroke-width="0.504" stroke-miterlimit="2.4142" d="      M497.06,489.92c-0.976,0.19-1.946-0.464-2.137-1.439c-0.191-0.977,0.466-1.946,1.441-2.136c0.975-0.19,1.945,0.464,2.136,1.44      C498.689,488.761,498.035,489.731,497.06,489.92L497.06,489.92z"/>
<path xmlns="http://www.w3.org/2000/svg" xmlns:ns1="http://ns.adobe.com/AdobeIllustrator/10.0/" ns1:knockout="Off" fill-rule="evenodd" clip-rule="evenodd" fill="none" stroke="#000000" stroke-width="0.504" stroke-miterlimit="2.4142" d="      M498.835,499.041c-0.979,0.188-1.949-0.466-2.138-1.44c-0.191-0.976,0.463-1.946,1.441-2.136      c0.976-0.189,1.943,0.465,2.134,1.439C500.461,497.881,499.807,498.852,498.835,499.041L498.835,499.041z"/>
<path xmlns="http://www.w3.org/2000/svg" xmlns:ns1="http://ns.adobe.com/AdobeIllustrator/10.0/" ns1:knockout="Off" fill-rule="evenodd" clip-rule="evenodd" fill="none" stroke="#000000" stroke-width="0.504" stroke-miterlimit="2.4142" d="      M500.605,508.161c-0.975,0.188-1.946-0.466-2.138-1.441c-0.188-0.975,0.467-1.943,1.442-2.133      c0.975-0.191,1.945,0.463,2.137,1.438C502.235,507.001,501.581,507.971,500.605,508.161L500.605,508.161z"/>
<path xmlns="http://www.w3.org/2000/svg" xmlns:ns1="http://ns.adobe.com/AdobeIllustrator/10.0/" ns1:knockout="Off" fill-rule="evenodd" clip-rule="evenodd" fill="none" stroke="#000000" stroke-width="0.504" stroke-miterlimit="2.4142" d="      M502.377,517.283c-0.976,0.188-1.946-0.465-2.135-1.441c-0.191-0.976,0.463-1.945,1.442-2.135      c0.975-0.19,1.942,0.464,2.133,1.44C504.009,516.123,503.354,517.094,502.377,517.283L502.377,517.283z"/>
<path xmlns="http://www.w3.org/2000/svg" xmlns:ns1="http://ns.adobe.com/AdobeIllustrator/10.0/" ns1:knockout="Off" fill-rule="evenodd" clip-rule="evenodd" fill="none" stroke="#000000" stroke-width="0.504" stroke-miterlimit="2.4142" d="      M504.152,526.403c-0.976,0.189-1.946-0.465-2.138-1.44c-0.188-0.976,0.467-1.945,1.442-2.136      c0.975-0.189,1.945,0.464,2.134,1.44C505.781,525.243,505.128,526.214,504.152,526.403L504.152,526.403z"/>
<path xmlns="http://www.w3.org/2000/svg" xmlns:ns1="http://ns.adobe.com/AdobeIllustrator/10.0/" ns1:knockout="Off" fill-rule="evenodd" clip-rule="evenodd" fill="none" stroke="#000000" stroke-width="0.504" stroke-miterlimit="2.4142" d="      M505.927,535.523c-0.979,0.191-1.95-0.463-2.141-1.438c-0.188-0.976,0.467-1.946,1.445-2.137      c0.975-0.188,1.941,0.465,2.133,1.44C507.556,534.365,506.898,535.336,505.927,535.523L505.927,535.523z"/>
<path xmlns="http://www.w3.org/2000/svg" xmlns:ns1="http://ns.adobe.com/AdobeIllustrator/10.0/" ns1:knockout="Off" fill-rule="evenodd" clip-rule="evenodd" fill="none" stroke="#000000" stroke-width="0.504" stroke-miterlimit="2.4142" d="      M507.697,544.645c-0.979,0.188-1.946-0.464-2.138-1.438c-0.188-0.977,0.467-1.947,1.442-2.136      c0.975-0.191,1.945,0.463,2.137,1.439C509.326,543.486,508.674,544.454,507.697,544.645L507.697,544.645z"/>
<path xmlns="http://www.w3.org/2000/svg" xmlns:ns1="http://ns.adobe.com/AdobeIllustrator/10.0/" ns1:knockout="Off" fill-rule="evenodd" clip-rule="evenodd" fill="none" stroke="#000000" stroke-width="0.504" stroke-miterlimit="2.4142" d="      M509.472,553.766c-0.979,0.189-1.95-0.464-2.138-1.44c-0.191-0.976,0.464-1.944,1.442-2.136c0.975-0.189,1.945,0.465,2.133,1.44      C511.101,552.604,510.446,553.575,509.472,553.766L509.472,553.766z"/>
<path xmlns="http://www.w3.org/2000/svg" xmlns:ns1="http://ns.adobe.com/AdobeIllustrator/10.0/" ns1:knockout="Off" fill-rule="evenodd" clip-rule="evenodd" fill="none" stroke="#000000" stroke-width="0.504" stroke-miterlimit="2.4142" d="      M511.243,562.886c-0.976,0.189-1.946-0.463-2.138-1.439c-0.188-0.977,0.467-1.946,1.442-2.136      c0.977-0.188,1.945,0.464,2.137,1.439C512.872,561.728,512.218,562.696,511.243,562.886L511.243,562.886z"/>
<path xmlns="http://www.w3.org/2000/svg" xmlns:ns1="http://ns.adobe.com/AdobeIllustrator/10.0/" ns1:knockout="Off" fill-rule="evenodd" clip-rule="evenodd" fill="none" stroke="#000000" stroke-width="0.504" stroke-miterlimit="2.4142" d="      M513.015,572.006c-0.976,0.192-1.946-0.462-2.135-1.438c-0.19-0.976,0.464-1.946,1.439-2.137      c0.978-0.188,1.944,0.465,2.137,1.441C514.646,570.848,513.989,571.817,513.015,572.006L513.015,572.006z"/>
</g>
</switch>
</svg>