<?xml version="1.0" encoding="utf-8"?>
<!DOCTYPE svg PUBLIC "-//W3C//DTD SVG 1.1//EN" "http://www.w3.org/Graphics/SVG/1.1/DTD/svg11.dtd" [
	<!ENTITY ns_extend "http://ns.adobe.com/Extensibility/1.0/">
	<!ENTITY ns_ai "http://ns.adobe.com/AdobeIllustrator/10.0/">
	<!ENTITY ns_graphs "http://ns.adobe.com/Graphs/1.0/">
	<!ENTITY ns_vars "http://ns.adobe.com/Variables/1.0/">
	<!ENTITY ns_imrep "http://ns.adobe.com/ImageReplacement/1.0/">
	<!ENTITY ns_sfw "http://ns.adobe.com/SaveForWeb/1.0/">
	<!ENTITY ns_custom "http://ns.adobe.com/GenericCustomNamespace/1.0/">
	<!ENTITY ns_adobe_xpath "http://ns.adobe.com/XPath/1.0/">
]>
<svg version="1.1" id="Internal_Structure" xmlns:x="&ns_extend;" xmlns:i="&ns_ai;" xmlns:graph="&ns_graphs;"
	 xmlns="http://www.w3.org/2000/svg" xmlns:xlink="http://www.w3.org/1999/xlink" x="0px" y="0px" width="612px" height="792px"
	 viewBox="0 0 612 792" enable-background="new 0 0 612 792" xml:space="preserve">
<switch>
<g i:extraneous="self">
<path xmlns="http://www.w3.org/2000/svg" xmlns:ns1="http://ns.adobe.com/AdobeIllustrator/10.0/" ns1:knockout="Off" fill-rule="evenodd" clip-rule="evenodd" fill="none" stroke="#000000" stroke-width="0.504" stroke-miterlimit="2.4142" d="       M472.789,437.585c-0.995,0-1.824-0.829-1.824-1.821c0-0.995,0.829-1.821,1.824-1.821c0.992,0,1.821,0.826,1.821,1.821       C474.61,436.756,473.781,437.585,472.789,437.585L472.789,437.585z"/>
<path xmlns="http://www.w3.org/2000/svg" xmlns:ns1="http://ns.adobe.com/AdobeIllustrator/10.0/" ns1:knockout="Off" fill-rule="evenodd" clip-rule="evenodd" fill="none" stroke="#000000" stroke-width="0.504" stroke-miterlimit="2.4142" d="       M478.411,437.585c-0.996,0-1.822-0.829-1.822-1.821c0-0.995,0.826-1.821,1.822-1.821c0.992,0,1.82,0.826,1.82,1.821       C480.231,436.756,479.403,437.585,478.411,437.585L478.411,437.585z"/>
<path xmlns="http://www.w3.org/2000/svg" xmlns:ns1="http://ns.adobe.com/AdobeIllustrator/10.0/" ns1:knockout="Off" fill-rule="evenodd" clip-rule="evenodd" fill="none" stroke="#000000" stroke-width="0.504" stroke-miterlimit="2.4142" d="       M484.215,437.585c-0.996,0-1.825-0.829-1.825-1.821c0-0.995,0.829-1.821,1.825-1.821c0.992,0,1.82,0.826,1.82,1.821       C486.035,436.756,485.207,437.585,484.215,437.585L484.215,437.585z"/>
<path xmlns="http://www.w3.org/2000/svg" xmlns:ns1="http://ns.adobe.com/AdobeIllustrator/10.0/" ns1:knockout="Off" fill-rule="evenodd" clip-rule="evenodd" fill="none" stroke="#000000" stroke-width="0.504" stroke-miterlimit="2.4142" d="       M472.789,444.253c-0.995,0-1.824-0.828-1.824-1.821c0-0.994,0.829-1.823,1.824-1.823c0.992,0,1.821,0.829,1.821,1.823       C474.61,443.425,473.781,444.253,472.789,444.253L472.789,444.253z"/>
<path xmlns="http://www.w3.org/2000/svg" xmlns:ns1="http://ns.adobe.com/AdobeIllustrator/10.0/" ns1:knockout="Off" fill-rule="evenodd" clip-rule="evenodd" fill="none" stroke="#000000" stroke-width="0.504" stroke-miterlimit="2.4142" d="       M478.411,444.253c-0.996,0-1.822-0.828-1.822-1.821c0-0.994,0.826-1.823,1.822-1.823c0.992,0,1.82,0.829,1.82,1.823       C480.231,443.425,479.403,444.253,478.411,444.253L478.411,444.253z"/>
<path xmlns="http://www.w3.org/2000/svg" xmlns:ns1="http://ns.adobe.com/AdobeIllustrator/10.0/" ns1:knockout="Off" fill-rule="evenodd" clip-rule="evenodd" fill="none" stroke="#000000" stroke-width="0.504" stroke-miterlimit="2.4142" d="       M484.215,444.253c-0.996,0-1.825-0.828-1.825-1.821c0-0.994,0.829-1.823,1.825-1.823c0.992,0,1.82,0.829,1.82,1.823       C486.035,443.425,485.207,444.253,484.215,444.253L484.215,444.253z"/>
<path xmlns="http://www.w3.org/2000/svg" xmlns:ns1="http://ns.adobe.com/AdobeIllustrator/10.0/" ns1:knockout="Off" fill-rule="evenodd" clip-rule="evenodd" fill="none" stroke="#000000" stroke-width="0.504" stroke-miterlimit="2.4142" d="       M472.789,450.919c-0.995,0-1.824-0.827-1.824-1.821c0-0.993,0.829-1.822,1.824-1.822c0.992,0,1.821,0.829,1.821,1.822       C474.61,450.092,473.781,450.919,472.789,450.919L472.789,450.919z"/>
<path xmlns="http://www.w3.org/2000/svg" xmlns:ns1="http://ns.adobe.com/AdobeIllustrator/10.0/" ns1:knockout="Off" fill-rule="evenodd" clip-rule="evenodd" fill="none" stroke="#000000" stroke-width="0.504" stroke-miterlimit="2.4142" d="       M478.411,450.919c-0.996,0-1.822-0.827-1.822-1.821c0-0.993,0.826-1.822,1.822-1.822c0.992,0,1.82,0.829,1.82,1.822       C480.231,450.092,479.403,450.919,478.411,450.919L478.411,450.919z"/>
<path xmlns="http://www.w3.org/2000/svg" xmlns:ns1="http://ns.adobe.com/AdobeIllustrator/10.0/" ns1:knockout="Off" fill-rule="evenodd" clip-rule="evenodd" fill="none" stroke="#000000" stroke-width="0.504" stroke-miterlimit="2.4142" d="       M484.215,450.919c-0.996,0-1.825-0.827-1.825-1.821c0-0.993,0.829-1.822,1.825-1.822c0.992,0,1.82,0.829,1.82,1.822       C486.035,450.092,485.207,450.919,484.215,450.919L484.215,450.919z"/>
<path xmlns="http://www.w3.org/2000/svg" xmlns:ns1="http://ns.adobe.com/AdobeIllustrator/10.0/" ns1:knockout="Off" fill-rule="evenodd" clip-rule="evenodd" fill="none" stroke="#000000" stroke-width="0.504" stroke-miterlimit="2.4142" d="       M472.789,457.585c-0.995,0-1.824-0.828-1.824-1.821s0.829-1.821,1.824-1.821c0.992,0,1.821,0.828,1.821,1.821       S473.781,457.585,472.789,457.585L472.789,457.585z"/>
<path xmlns="http://www.w3.org/2000/svg" xmlns:ns1="http://ns.adobe.com/AdobeIllustrator/10.0/" ns1:knockout="Off" fill-rule="evenodd" clip-rule="evenodd" fill="none" stroke="#000000" stroke-width="0.504" stroke-miterlimit="2.4142" d="       M478.411,457.585c-0.996,0-1.822-0.828-1.822-1.821s0.826-1.821,1.822-1.821c0.992,0,1.82,0.828,1.82,1.821       S479.403,457.585,478.411,457.585L478.411,457.585z"/>
<path xmlns="http://www.w3.org/2000/svg" xmlns:ns1="http://ns.adobe.com/AdobeIllustrator/10.0/" ns1:knockout="Off" fill-rule="evenodd" clip-rule="evenodd" fill="none" stroke="#000000" stroke-width="0.504" stroke-miterlimit="2.4142" d="       M484.215,457.585c-0.996,0-1.825-0.828-1.825-1.821s0.829-1.821,1.825-1.821c0.992,0,1.82,0.828,1.82,1.821       S485.207,457.585,484.215,457.585L484.215,457.585z"/>
<path xmlns="http://www.w3.org/2000/svg" xmlns:ns1="http://ns.adobe.com/AdobeIllustrator/10.0/" ns1:knockout="Off" fill-rule="evenodd" clip-rule="evenodd" fill="none" stroke="#000000" stroke-width="0.504" stroke-miterlimit="2.4142" d="       M472.789,464.252c-0.995,0-1.824-0.828-1.824-1.822s0.829-1.82,1.824-1.82c0.992,0,1.821,0.826,1.821,1.82       S473.781,464.252,472.789,464.252L472.789,464.252z"/>
<path xmlns="http://www.w3.org/2000/svg" xmlns:ns1="http://ns.adobe.com/AdobeIllustrator/10.0/" ns1:knockout="Off" fill-rule="evenodd" clip-rule="evenodd" fill="none" stroke="#000000" stroke-width="0.504" stroke-miterlimit="2.4142" d="       M478.411,464.252c-0.996,0-1.822-0.828-1.822-1.822s0.826-1.82,1.822-1.82c0.992,0,1.82,0.826,1.82,1.82       S479.403,464.252,478.411,464.252L478.411,464.252z"/>
<path xmlns="http://www.w3.org/2000/svg" xmlns:ns1="http://ns.adobe.com/AdobeIllustrator/10.0/" ns1:knockout="Off" fill-rule="evenodd" clip-rule="evenodd" fill="none" stroke="#000000" stroke-width="0.504" stroke-miterlimit="2.4142" d="       M484.215,464.252c-0.996,0-1.825-0.828-1.825-1.822s0.829-1.82,1.825-1.82c0.992,0,1.82,0.826,1.82,1.82       S485.207,464.252,484.215,464.252L484.215,464.252z"/>
<path xmlns="http://www.w3.org/2000/svg" xmlns:ns1="http://ns.adobe.com/AdobeIllustrator/10.0/" ns1:knockout="Off" fill-rule="evenodd" clip-rule="evenodd" fill="none" stroke="#000000" stroke-width="0.504" stroke-miterlimit="2.4142" d="       M472.789,470.918c-0.995,0-1.824-0.827-1.824-1.822c0-0.993,0.829-1.82,1.824-1.82c0.992,0,1.821,0.827,1.821,1.82       C474.61,470.091,473.781,470.918,472.789,470.918L472.789,470.918z"/>
<path xmlns="http://www.w3.org/2000/svg" xmlns:ns1="http://ns.adobe.com/AdobeIllustrator/10.0/" ns1:knockout="Off" fill-rule="evenodd" clip-rule="evenodd" fill="none" stroke="#000000" stroke-width="0.504" stroke-miterlimit="2.4142" d="       M478.411,470.918c-0.996,0-1.822-0.827-1.822-1.822c0-0.993,0.826-1.82,1.822-1.82c0.992,0,1.82,0.827,1.82,1.82       C480.231,470.091,479.403,470.918,478.411,470.918L478.411,470.918z"/>
<path xmlns="http://www.w3.org/2000/svg" xmlns:ns1="http://ns.adobe.com/AdobeIllustrator/10.0/" ns1:knockout="Off" fill-rule="evenodd" clip-rule="evenodd" fill="none" stroke="#000000" stroke-width="0.504" stroke-miterlimit="2.4142" d="       M484.215,470.918c-0.996,0-1.825-0.827-1.825-1.822c0-0.993,0.829-1.82,1.825-1.82c0.992,0,1.82,0.827,1.82,1.82       C486.035,470.091,485.207,470.918,484.215,470.918L484.215,470.918z"/>
<path xmlns="http://www.w3.org/2000/svg" xmlns:ns1="http://ns.adobe.com/AdobeIllustrator/10.0/" ns1:knockout="Off" fill-rule="evenodd" clip-rule="evenodd" fill="none" stroke="#000000" stroke-width="0.504" stroke-miterlimit="2.4142" d="       M472.789,477.585c-0.995,0-1.824-0.827-1.824-1.821c0-0.993,0.829-1.821,1.824-1.821c0.992,0,1.821,0.828,1.821,1.821       C474.61,476.758,473.781,477.585,472.789,477.585L472.789,477.585z"/>
<path xmlns="http://www.w3.org/2000/svg" xmlns:ns1="http://ns.adobe.com/AdobeIllustrator/10.0/" ns1:knockout="Off" fill-rule="evenodd" clip-rule="evenodd" fill="none" stroke="#000000" stroke-width="0.504" stroke-miterlimit="2.4142" d="       M478.411,477.585c-0.996,0-1.822-0.827-1.822-1.821c0-0.993,0.826-1.821,1.822-1.821c0.992,0,1.82,0.828,1.82,1.821       C480.231,476.758,479.403,477.585,478.411,477.585L478.411,477.585z"/>
<path xmlns="http://www.w3.org/2000/svg" xmlns:ns1="http://ns.adobe.com/AdobeIllustrator/10.0/" ns1:knockout="Off" fill-rule="evenodd" clip-rule="evenodd" fill="none" stroke="#000000" stroke-width="0.504" stroke-miterlimit="2.4142" d="       M484.215,477.585c-0.996,0-1.825-0.827-1.825-1.821c0-0.993,0.829-1.821,1.825-1.821c0.992,0,1.82,0.828,1.82,1.821       C486.035,476.758,485.207,477.585,484.215,477.585L484.215,477.585z"/>
<path xmlns="http://www.w3.org/2000/svg" xmlns:ns1="http://ns.adobe.com/AdobeIllustrator/10.0/" ns1:knockout="Off" fill-rule="evenodd" clip-rule="evenodd" fill="none" stroke="#000000" stroke-width="0.504" stroke-miterlimit="2.4142" d="       M475.211,484.251c-0.995,0-1.824-0.827-1.824-1.821c0-0.993,0.829-1.821,1.824-1.821c0.992,0,1.821,0.828,1.821,1.821       C477.032,483.424,476.203,484.251,475.211,484.251L475.211,484.251z"/>
<path xmlns="http://www.w3.org/2000/svg" xmlns:ns1="http://ns.adobe.com/AdobeIllustrator/10.0/" ns1:knockout="Off" fill-rule="evenodd" clip-rule="evenodd" fill="none" stroke="#000000" stroke-width="0.504" stroke-miterlimit="2.4142" d="       M481.487,484.251c-0.996,0-1.825-0.827-1.825-1.821c0-0.993,0.829-1.821,1.825-1.821c0.992,0,1.82,0.828,1.82,1.821       C483.308,483.424,482.479,484.251,481.487,484.251L481.487,484.251z"/>
<path xmlns="http://www.w3.org/2000/svg" xmlns:ns1="http://ns.adobe.com/AdobeIllustrator/10.0/" ns1:knockout="Off" fill-rule="evenodd" clip-rule="evenodd" fill="none" stroke="#000000" stroke-width="0.504" stroke-miterlimit="2.4142" d="       M475.211,490.918c-0.995,0-1.824-0.827-1.824-1.821c0-0.993,0.829-1.821,1.824-1.821c0.992,0,1.821,0.828,1.821,1.821       C477.032,490.091,476.203,490.918,475.211,490.918L475.211,490.918z"/>
<path xmlns="http://www.w3.org/2000/svg" xmlns:ns1="http://ns.adobe.com/AdobeIllustrator/10.0/" ns1:knockout="Off" fill-rule="evenodd" clip-rule="evenodd" fill="none" stroke="#000000" stroke-width="0.504" stroke-miterlimit="2.4142" d="       M481.487,490.918c-0.996,0-1.825-0.827-1.825-1.821c0-0.993,0.829-1.821,1.825-1.821c0.992,0,1.82,0.828,1.82,1.821       C483.308,490.091,482.479,490.918,481.487,490.918L481.487,490.918z"/>
</g>
</switch>
</svg>