<?xml version="1.0" encoding="utf-8"?>
<!DOCTYPE svg PUBLIC "-//W3C//DTD SVG 1.1//EN" "http://www.w3.org/Graphics/SVG/1.1/DTD/svg11.dtd" [
	<!ENTITY ns_extend "http://ns.adobe.com/Extensibility/1.0/">
	<!ENTITY ns_ai "http://ns.adobe.com/AdobeIllustrator/10.0/">
	<!ENTITY ns_graphs "http://ns.adobe.com/Graphs/1.0/">
	<!ENTITY ns_vars "http://ns.adobe.com/Variables/1.0/">
	<!ENTITY ns_imrep "http://ns.adobe.com/ImageReplacement/1.0/">
	<!ENTITY ns_sfw "http://ns.adobe.com/SaveForWeb/1.0/">
	<!ENTITY ns_custom "http://ns.adobe.com/GenericCustomNamespace/1.0/">
	<!ENTITY ns_adobe_xpath "http://ns.adobe.com/XPath/1.0/">
]>
<svg version="1.1" id="Internal_Structure" xmlns:x="&ns_extend;" xmlns:i="&ns_ai;" xmlns:graph="&ns_graphs;"
	 xmlns="http://www.w3.org/2000/svg" xmlns:xlink="http://www.w3.org/1999/xlink" x="0px" y="0px" width="612px" height="792px"
	 viewBox="0 0 612 792" enable-background="new 0 0 612 792" xml:space="preserve">
<switch>
<g i:extraneous="self">
<path xmlns="http://www.w3.org/2000/svg" xmlns:ns1="http://ns.adobe.com/AdobeIllustrator/10.0/" ns1:knockout="Off" fill-rule="evenodd" clip-rule="evenodd" fill="none" stroke="#000000" stroke-width="0.504" stroke-miterlimit="2.4142" d="      M472.567,437.585c-0.995,0-1.824-0.829-1.824-1.821c0-0.995,0.829-1.821,1.824-1.821c0.992,0,1.821,0.826,1.821,1.821      C474.389,436.756,473.56,437.585,472.567,437.585L472.567,437.585z"/>
<path xmlns="http://www.w3.org/2000/svg" xmlns:ns1="http://ns.adobe.com/AdobeIllustrator/10.0/" ns1:knockout="Off" fill-rule="evenodd" clip-rule="evenodd" fill="none" stroke="#000000" stroke-width="0.504" stroke-miterlimit="2.4142" d="      M478.189,437.585c-0.996,0-1.822-0.829-1.822-1.821c0-0.995,0.826-1.821,1.822-1.821c0.992,0,1.82,0.826,1.82,1.821      C480.01,436.756,479.182,437.585,478.189,437.585L478.189,437.585z"/>
<path xmlns="http://www.w3.org/2000/svg" xmlns:ns1="http://ns.adobe.com/AdobeIllustrator/10.0/" ns1:knockout="Off" fill-rule="evenodd" clip-rule="evenodd" fill="none" stroke="#000000" stroke-width="0.504" stroke-miterlimit="2.4142" d="      M483.993,437.585c-0.996,0-1.825-0.829-1.825-1.821c0-0.995,0.829-1.821,1.825-1.821c0.992,0,1.82,0.826,1.82,1.821      C485.813,436.756,484.985,437.585,483.993,437.585L483.993,437.585z"/>
<path xmlns="http://www.w3.org/2000/svg" xmlns:ns1="http://ns.adobe.com/AdobeIllustrator/10.0/" ns1:knockout="Off" fill-rule="evenodd" clip-rule="evenodd" fill="none" stroke="#000000" stroke-width="0.504" stroke-miterlimit="2.4142" d="      M472.567,446.193c-0.995,0-1.824-0.826-1.824-1.82s0.829-1.822,1.824-1.822c0.992,0,1.821,0.828,1.821,1.822      S473.56,446.193,472.567,446.193L472.567,446.193z"/>
<path xmlns="http://www.w3.org/2000/svg" xmlns:ns1="http://ns.adobe.com/AdobeIllustrator/10.0/" ns1:knockout="Off" fill-rule="evenodd" clip-rule="evenodd" fill="none" stroke="#000000" stroke-width="0.504" stroke-miterlimit="2.4142" d="      M478.189,446.193c-0.996,0-1.822-0.826-1.822-1.82s0.826-1.822,1.822-1.822c0.992,0,1.82,0.828,1.82,1.822      S479.182,446.193,478.189,446.193L478.189,446.193z"/>
<path xmlns="http://www.w3.org/2000/svg" xmlns:ns1="http://ns.adobe.com/AdobeIllustrator/10.0/" ns1:knockout="Off" fill-rule="evenodd" clip-rule="evenodd" fill="none" stroke="#000000" stroke-width="0.504" stroke-miterlimit="2.4142" d="      M483.993,446.193c-0.996,0-1.825-0.826-1.825-1.82s0.829-1.822,1.825-1.822c0.992,0,1.82,0.828,1.82,1.822      S484.985,446.193,483.993,446.193L483.993,446.193z"/>
<path xmlns="http://www.w3.org/2000/svg" xmlns:ns1="http://ns.adobe.com/AdobeIllustrator/10.0/" ns1:knockout="Off" fill-rule="evenodd" clip-rule="evenodd" fill="none" stroke="#000000" stroke-width="0.504" stroke-miterlimit="2.4142" d="      M472.567,454.802c-0.995,0-1.824-0.828-1.824-1.821s0.829-1.821,1.824-1.821c0.992,0,1.821,0.828,1.821,1.821      S473.56,454.802,472.567,454.802L472.567,454.802z"/>
<path xmlns="http://www.w3.org/2000/svg" xmlns:ns1="http://ns.adobe.com/AdobeIllustrator/10.0/" ns1:knockout="Off" fill-rule="evenodd" clip-rule="evenodd" fill="none" stroke="#000000" stroke-width="0.504" stroke-miterlimit="2.4142" d="      M478.189,454.802c-0.996,0-1.822-0.828-1.822-1.821s0.826-1.821,1.822-1.821c0.992,0,1.82,0.828,1.82,1.821      S479.182,454.802,478.189,454.802L478.189,454.802z"/>
<path xmlns="http://www.w3.org/2000/svg" xmlns:ns1="http://ns.adobe.com/AdobeIllustrator/10.0/" ns1:knockout="Off" fill-rule="evenodd" clip-rule="evenodd" fill="none" stroke="#000000" stroke-width="0.504" stroke-miterlimit="2.4142" d="      M483.993,454.802c-0.996,0-1.825-0.828-1.825-1.821s0.829-1.821,1.825-1.821c0.992,0,1.82,0.828,1.82,1.821      S484.985,454.802,483.993,454.802L483.993,454.802z"/>
<path xmlns="http://www.w3.org/2000/svg" xmlns:ns1="http://ns.adobe.com/AdobeIllustrator/10.0/" ns1:knockout="Off" fill-rule="evenodd" clip-rule="evenodd" fill="none" stroke="#000000" stroke-width="0.504" stroke-miterlimit="2.4142" d="      M472.567,463.41c-0.995,0-1.824-0.827-1.824-1.821s0.829-1.821,1.824-1.821c0.992,0,1.821,0.827,1.821,1.821      S473.56,463.41,472.567,463.41L472.567,463.41z"/>
<path xmlns="http://www.w3.org/2000/svg" xmlns:ns1="http://ns.adobe.com/AdobeIllustrator/10.0/" ns1:knockout="Off" fill-rule="evenodd" clip-rule="evenodd" fill="none" stroke="#000000" stroke-width="0.504" stroke-miterlimit="2.4142" d="      M478.189,463.41c-0.996,0-1.822-0.827-1.822-1.821s0.826-1.821,1.822-1.821c0.992,0,1.82,0.827,1.82,1.821      S479.182,463.41,478.189,463.41L478.189,463.41z"/>
<path xmlns="http://www.w3.org/2000/svg" xmlns:ns1="http://ns.adobe.com/AdobeIllustrator/10.0/" ns1:knockout="Off" fill-rule="evenodd" clip-rule="evenodd" fill="none" stroke="#000000" stroke-width="0.504" stroke-miterlimit="2.4142" d="      M483.993,463.41c-0.996,0-1.825-0.827-1.825-1.821s0.829-1.821,1.825-1.821c0.992,0,1.82,0.827,1.82,1.821      S484.985,463.41,483.993,463.41L483.993,463.41z"/>
<path xmlns="http://www.w3.org/2000/svg" xmlns:ns1="http://ns.adobe.com/AdobeIllustrator/10.0/" ns1:knockout="Off" fill-rule="evenodd" clip-rule="evenodd" fill="none" stroke="#000000" stroke-width="0.504" stroke-miterlimit="2.4142" d="      M472.567,472.019c-0.995,0-1.824-0.827-1.824-1.822c0-0.993,0.829-1.82,1.824-1.82c0.992,0,1.821,0.827,1.821,1.82      C474.389,471.191,473.56,472.019,472.567,472.019L472.567,472.019z"/>
<path xmlns="http://www.w3.org/2000/svg" xmlns:ns1="http://ns.adobe.com/AdobeIllustrator/10.0/" ns1:knockout="Off" fill-rule="evenodd" clip-rule="evenodd" fill="none" stroke="#000000" stroke-width="0.504" stroke-miterlimit="2.4142" d="      M478.189,472.019c-0.996,0-1.822-0.827-1.822-1.822c0-0.993,0.826-1.82,1.822-1.82c0.992,0,1.82,0.827,1.82,1.82      C480.01,471.191,479.182,472.019,478.189,472.019L478.189,472.019z"/>
<path xmlns="http://www.w3.org/2000/svg" xmlns:ns1="http://ns.adobe.com/AdobeIllustrator/10.0/" ns1:knockout="Off" fill-rule="evenodd" clip-rule="evenodd" fill="none" stroke="#000000" stroke-width="0.504" stroke-miterlimit="2.4142" d="      M483.993,472.019c-0.996,0-1.825-0.827-1.825-1.822c0-0.993,0.829-1.82,1.825-1.82c0.992,0,1.82,0.827,1.82,1.82      C485.813,471.191,484.985,472.019,483.993,472.019L483.993,472.019z"/>
<path xmlns="http://www.w3.org/2000/svg" xmlns:ns1="http://ns.adobe.com/AdobeIllustrator/10.0/" ns1:knockout="Off" fill-rule="evenodd" clip-rule="evenodd" fill="none" stroke="#000000" stroke-width="0.504" stroke-miterlimit="2.4142" d="      M472.567,480.627c-0.995,0-1.824-0.827-1.824-1.821c0-0.993,0.829-1.821,1.824-1.821c0.992,0,1.821,0.828,1.821,1.821      C474.389,479.8,473.56,480.627,472.567,480.627L472.567,480.627z"/>
<path xmlns="http://www.w3.org/2000/svg" xmlns:ns1="http://ns.adobe.com/AdobeIllustrator/10.0/" ns1:knockout="Off" fill-rule="evenodd" clip-rule="evenodd" fill="none" stroke="#000000" stroke-width="0.504" stroke-miterlimit="2.4142" d="      M478.189,480.627c-0.996,0-1.822-0.827-1.822-1.821c0-0.993,0.826-1.821,1.822-1.821c0.992,0,1.82,0.828,1.82,1.821      C480.01,479.8,479.182,480.627,478.189,480.627L478.189,480.627z"/>
<path xmlns="http://www.w3.org/2000/svg" xmlns:ns1="http://ns.adobe.com/AdobeIllustrator/10.0/" ns1:knockout="Off" fill-rule="evenodd" clip-rule="evenodd" fill="none" stroke="#000000" stroke-width="0.504" stroke-miterlimit="2.4142" d="      M483.993,480.627c-0.996,0-1.825-0.827-1.825-1.821c0-0.993,0.829-1.821,1.825-1.821c0.992,0,1.82,0.828,1.82,1.821      C485.813,479.8,484.985,480.627,483.993,480.627L483.993,480.627z"/>
</g>
</switch>
</svg>