<?xml version="1.0" encoding="utf-8"?>
<!DOCTYPE svg PUBLIC "-//W3C//DTD SVG 1.1//EN" "http://www.w3.org/Graphics/SVG/1.1/DTD/svg11.dtd" [
	<!ENTITY ns_extend "http://ns.adobe.com/Extensibility/1.0/">
	<!ENTITY ns_ai "http://ns.adobe.com/AdobeIllustrator/10.0/">
	<!ENTITY ns_graphs "http://ns.adobe.com/Graphs/1.0/">
	<!ENTITY ns_vars "http://ns.adobe.com/Variables/1.0/">
	<!ENTITY ns_imrep "http://ns.adobe.com/ImageReplacement/1.0/">
	<!ENTITY ns_sfw "http://ns.adobe.com/SaveForWeb/1.0/">
	<!ENTITY ns_custom "http://ns.adobe.com/GenericCustomNamespace/1.0/">
	<!ENTITY ns_adobe_xpath "http://ns.adobe.com/XPath/1.0/">
]>
<svg version="1.1" id="Internal_Structure" xmlns:x="&ns_extend;" xmlns:i="&ns_ai;" xmlns:graph="&ns_graphs;"
	 xmlns="http://www.w3.org/2000/svg" xmlns:xlink="http://www.w3.org/1999/xlink" x="0px" y="0px" width="612px" height="792px"
	 viewBox="0 0 612 792" enable-background="new 0 0 612 792" xml:space="preserve">
<switch>
<g i:extraneous="self">
<path xmlns="http://www.w3.org/2000/svg" xmlns:ns1="http://ns.adobe.com/AdobeIllustrator/10.0/" ns1:knockout="Off" fill-rule="evenodd" clip-rule="evenodd" fill="none" stroke="#000000" stroke-width="0.504" stroke-miterlimit="2.4142" d="      M524.976,427.655c-0.994,0.088-1.891-0.664-1.976-1.655c-0.087-0.99,0.666-1.886,1.656-1.973      c0.991-0.088,1.887,0.665,1.974,1.655C526.715,426.673,525.964,427.568,524.976,427.655L524.976,427.655z"/>
<path xmlns="http://www.w3.org/2000/svg" xmlns:ns1="http://ns.adobe.com/AdobeIllustrator/10.0/" ns1:knockout="Off" fill-rule="evenodd" clip-rule="evenodd" fill="none" stroke="#000000" stroke-width="0.504" stroke-miterlimit="2.4142" d="      M525.848,437.626c-0.992,0.087-1.891-0.665-1.976-1.655c-0.087-0.99,0.664-1.886,1.655-1.974      c0.991-0.085,1.888,0.665,1.975,1.654C527.589,436.645,526.836,437.539,525.848,437.626L525.848,437.626z"/>
<path xmlns="http://www.w3.org/2000/svg" xmlns:ns1="http://ns.adobe.com/AdobeIllustrator/10.0/" ns1:knockout="Off" fill-rule="evenodd" clip-rule="evenodd" fill="none" stroke="#000000" stroke-width="0.504" stroke-miterlimit="2.4142" d="      M526.72,447.597c-0.991,0.087-1.888-0.666-1.975-1.656s0.667-1.886,1.658-1.973c0.988-0.086,1.884,0.666,1.971,1.656      C528.462,446.613,527.711,447.511,526.72,447.597L526.72,447.597z"/>
<path xmlns="http://www.w3.org/2000/svg" xmlns:ns1="http://ns.adobe.com/AdobeIllustrator/10.0/" ns1:knockout="Off" fill-rule="evenodd" clip-rule="evenodd" fill="none" stroke="#000000" stroke-width="0.504" stroke-miterlimit="2.4142" d="      M527.592,457.566c-0.991,0.087-1.89-0.665-1.975-1.655c-0.088-0.99,0.666-1.887,1.655-1.974c0.99-0.088,1.887,0.665,1.974,1.655      S528.58,457.479,527.592,457.566L527.592,457.566z"/>
<path xmlns="http://www.w3.org/2000/svg" xmlns:ns1="http://ns.adobe.com/AdobeIllustrator/10.0/" ns1:knockout="Off" fill-rule="evenodd" clip-rule="evenodd" fill="none" stroke="#000000" stroke-width="0.504" stroke-miterlimit="2.4142" d="      M528.465,467.537c-0.992,0.087-1.889-0.665-1.977-1.655c-0.086-0.99,0.668-1.886,1.658-1.974      c0.988-0.085,1.887,0.665,1.973,1.657C530.205,466.556,529.455,467.45,528.465,467.537L528.465,467.537z"/>
<path xmlns="http://www.w3.org/2000/svg" xmlns:ns1="http://ns.adobe.com/AdobeIllustrator/10.0/" ns1:knockout="Off" fill-rule="evenodd" clip-rule="evenodd" fill="none" stroke="#000000" stroke-width="0.504" stroke-miterlimit="2.4142" d="      M529.337,477.508c-0.992,0.087-1.889-0.666-1.976-1.656s0.666-1.886,1.658-1.973c0.988-0.088,1.884,0.666,1.971,1.656      C531.078,476.524,530.324,477.422,529.337,477.508L529.337,477.508z"/>
<path xmlns="http://www.w3.org/2000/svg" xmlns:ns1="http://ns.adobe.com/AdobeIllustrator/10.0/" ns1:knockout="Off" fill-rule="evenodd" clip-rule="evenodd" fill="none" stroke="#000000" stroke-width="0.504" stroke-miterlimit="2.4142" d="      M530.208,487.478c-0.991,0.087-1.888-0.665-1.976-1.655c-0.084-0.99,0.667-1.887,1.658-1.974      c0.991-0.088,1.887,0.665,1.974,1.655C531.949,486.494,531.199,487.39,530.208,487.478L530.208,487.478z"/>
<path xmlns="http://www.w3.org/2000/svg" xmlns:ns1="http://ns.adobe.com/AdobeIllustrator/10.0/" ns1:knockout="Off" fill-rule="evenodd" clip-rule="evenodd" fill="none" stroke="#000000" stroke-width="0.504" stroke-miterlimit="2.4142" d="      M531.081,497.448c-0.992,0.087-1.889-0.666-1.976-1.656s0.667-1.886,1.658-1.974c0.988-0.085,1.884,0.667,1.972,1.657      C532.822,496.466,532.068,497.362,531.081,497.448L531.081,497.448z"/>
</g>
</switch>
</svg>