<?xml version="1.0" encoding="utf-8"?>
<!DOCTYPE svg PUBLIC "-//W3C//DTD SVG 1.1//EN" "http://www.w3.org/Graphics/SVG/1.1/DTD/svg11.dtd" [
	<!ENTITY ns_extend "http://ns.adobe.com/Extensibility/1.0/">
	<!ENTITY ns_ai "http://ns.adobe.com/AdobeIllustrator/10.0/">
	<!ENTITY ns_graphs "http://ns.adobe.com/Graphs/1.0/">
	<!ENTITY ns_vars "http://ns.adobe.com/Variables/1.0/">
	<!ENTITY ns_imrep "http://ns.adobe.com/ImageReplacement/1.0/">
	<!ENTITY ns_sfw "http://ns.adobe.com/SaveForWeb/1.0/">
	<!ENTITY ns_custom "http://ns.adobe.com/GenericCustomNamespace/1.0/">
	<!ENTITY ns_adobe_xpath "http://ns.adobe.com/XPath/1.0/">
]>
<svg version="1.1" id="Internal_Structure" xmlns:x="&ns_extend;" xmlns:i="&ns_ai;" xmlns:graph="&ns_graphs;"
	 xmlns="http://www.w3.org/2000/svg" xmlns:xlink="http://www.w3.org/1999/xlink" x="0px" y="0px" width="612px" height="792px"
	 viewBox="0 0 612 792" enable-background="new 0 0 612 792" xml:space="preserve">
<switch>
<g i:extraneous="self">
<path xmlns="http://www.w3.org/2000/svg" xmlns:ns1="http://ns.adobe.com/AdobeIllustrator/10.0/" ns1:knockout="Off" fill-rule="evenodd" clip-rule="evenodd" fill="none" stroke="#000000" stroke-width="0.504" stroke-miterlimit="2.4142" d="      M431.88,427.664c-0.995,0-1.821-0.828-1.821-1.822c0-0.993,0.826-1.821,1.821-1.821s1.821,0.828,1.821,1.821      C433.701,426.836,432.875,427.664,431.88,427.664L431.88,427.664z"/>
<path xmlns="http://www.w3.org/2000/svg" xmlns:ns1="http://ns.adobe.com/AdobeIllustrator/10.0/" ns1:knockout="Off" fill-rule="evenodd" clip-rule="evenodd" fill="none" stroke="#000000" stroke-width="0.504" stroke-miterlimit="2.4142" d="      M431.371,433.48c0.995,0,1.821-0.828,1.821-1.822s-0.826-1.822-1.821-1.822s-1.821,0.828-1.821,1.822      S430.376,433.48,431.371,433.48L431.371,433.48z"/>
<path xmlns="http://www.w3.org/2000/svg" xmlns:ns1="http://ns.adobe.com/AdobeIllustrator/10.0/" ns1:knockout="Off" fill-rule="evenodd" clip-rule="evenodd" fill="none" stroke="#000000" stroke-width="0.504" stroke-miterlimit="2.4142" d="      M430.862,439.296c0.995,0,1.821-0.828,1.821-1.822c0-0.993-0.826-1.821-1.821-1.821s-1.821,0.828-1.821,1.821      C429.041,438.468,429.867,439.296,430.862,439.296L430.862,439.296z"/>
<path xmlns="http://www.w3.org/2000/svg" xmlns:ns1="http://ns.adobe.com/AdobeIllustrator/10.0/" ns1:knockout="Off" fill-rule="evenodd" clip-rule="evenodd" fill="none" stroke="#000000" stroke-width="0.504" stroke-miterlimit="2.4142" d="      M430.354,445.111c0.995,0,1.821-0.828,1.821-1.822c0-0.992-0.826-1.82-1.821-1.82s-1.821,0.828-1.821,1.82      C428.532,444.283,429.358,445.111,430.354,445.111L430.354,445.111z"/>
<path xmlns="http://www.w3.org/2000/svg" xmlns:ns1="http://ns.adobe.com/AdobeIllustrator/10.0/" ns1:knockout="Off" fill-rule="evenodd" clip-rule="evenodd" fill="none" stroke="#000000" stroke-width="0.504" stroke-miterlimit="2.4142" d="      M429.845,450.928c0.995,0,1.821-0.828,1.821-1.822c0-0.993-0.826-1.821-1.821-1.821s-1.821,0.828-1.821,1.821      C428.023,450.1,428.85,450.928,429.845,450.928L429.845,450.928z"/>
<path xmlns="http://www.w3.org/2000/svg" xmlns:ns1="http://ns.adobe.com/AdobeIllustrator/10.0/" ns1:knockout="Off" fill-rule="evenodd" clip-rule="evenodd" fill="none" stroke="#000000" stroke-width="0.504" stroke-miterlimit="2.4142" d="      M429.336,456.744c0.995,0,1.821-0.828,1.821-1.822s-0.826-1.822-1.821-1.822s-1.821,0.828-1.821,1.822      S428.341,456.744,429.336,456.744L429.336,456.744z"/>
<path xmlns="http://www.w3.org/2000/svg" xmlns:ns1="http://ns.adobe.com/AdobeIllustrator/10.0/" ns1:knockout="Off" fill-rule="evenodd" clip-rule="evenodd" fill="none" stroke="#000000" stroke-width="0.504" stroke-miterlimit="2.4142" d="      M428.827,462.56c0.994,0,1.82-0.828,1.82-1.822c0-0.993-0.826-1.821-1.82-1.821c-0.996,0-1.822,0.828-1.822,1.821      C427.005,461.731,427.831,462.56,428.827,462.56L428.827,462.56z"/>
<path xmlns="http://www.w3.org/2000/svg" xmlns:ns1="http://ns.adobe.com/AdobeIllustrator/10.0/" ns1:knockout="Off" fill-rule="evenodd" clip-rule="evenodd" fill="none" stroke="#000000" stroke-width="0.504" stroke-miterlimit="2.4142" d="      M428.317,468.375c0.995,0,1.821-0.828,1.821-1.822c0-0.992-0.826-1.82-1.821-1.82s-1.821,0.828-1.821,1.82      C426.496,467.547,427.322,468.375,428.317,468.375L428.317,468.375z"/>
<path xmlns="http://www.w3.org/2000/svg" xmlns:ns1="http://ns.adobe.com/AdobeIllustrator/10.0/" ns1:knockout="Off" fill-rule="evenodd" clip-rule="evenodd" fill="none" stroke="#000000" stroke-width="0.504" stroke-miterlimit="2.4142" d="      M427.809,474.191c0.995,0,1.821-0.828,1.821-1.822c0-0.993-0.826-1.821-1.821-1.821s-1.821,0.828-1.821,1.821      C425.987,473.363,426.813,474.191,427.809,474.191L427.809,474.191z"/>
<path xmlns="http://www.w3.org/2000/svg" xmlns:ns1="http://ns.adobe.com/AdobeIllustrator/10.0/" ns1:knockout="Off" fill-rule="evenodd" clip-rule="evenodd" fill="none" stroke="#000000" stroke-width="0.504" stroke-miterlimit="2.4142" d="      M427.3,480.008c0.995,0,1.821-0.828,1.821-1.822s-0.826-1.822-1.821-1.822s-1.821,0.828-1.821,1.822      S426.305,480.008,427.3,480.008L427.3,480.008z"/>
<path xmlns="http://www.w3.org/2000/svg" xmlns:ns1="http://ns.adobe.com/AdobeIllustrator/10.0/" ns1:knockout="Off" fill-rule="evenodd" clip-rule="evenodd" fill="none" stroke="#000000" stroke-width="0.504" stroke-miterlimit="2.4142" d="      M426.791,485.823c0.995,0,1.821-0.828,1.821-1.822c0-0.993-0.826-1.821-1.821-1.821s-1.821,0.828-1.821,1.821      C424.97,484.995,425.796,485.823,426.791,485.823L426.791,485.823z"/>
<path xmlns="http://www.w3.org/2000/svg" xmlns:ns1="http://ns.adobe.com/AdobeIllustrator/10.0/" ns1:knockout="Off" fill-rule="evenodd" clip-rule="evenodd" fill="none" stroke="#000000" stroke-width="0.504" stroke-miterlimit="2.4142" d="      M425.773,491.639c-0.995,0-1.821-0.828-1.821-1.822c0-0.992,0.826-1.82,1.821-1.82s1.821,0.828,1.821,1.82      C427.595,490.811,426.769,491.639,425.773,491.639L425.773,491.639z"/>
<path xmlns="http://www.w3.org/2000/svg" xmlns:ns1="http://ns.adobe.com/AdobeIllustrator/10.0/" ns1:knockout="Off" fill-rule="evenodd" clip-rule="evenodd" fill="none" stroke="#000000" stroke-width="0.504" stroke-miterlimit="2.4142" d="      M426.282,497.455c-0.995,0-1.821-0.828-1.821-1.822c0-0.993,0.826-1.821,1.821-1.821s1.821,0.828,1.821,1.821      C428.104,496.627,427.277,497.455,426.282,497.455L426.282,497.455z"/>
</g>
</switch>
</svg>