<?xml version="1.0" encoding="utf-8"?>
<!DOCTYPE svg PUBLIC "-//W3C//DTD SVG 1.1//EN" "http://www.w3.org/Graphics/SVG/1.1/DTD/svg11.dtd" [
	<!ENTITY ns_extend "http://ns.adobe.com/Extensibility/1.0/">
	<!ENTITY ns_ai "http://ns.adobe.com/AdobeIllustrator/10.0/">
	<!ENTITY ns_graphs "http://ns.adobe.com/Graphs/1.0/">
	<!ENTITY ns_vars "http://ns.adobe.com/Variables/1.0/">
	<!ENTITY ns_imrep "http://ns.adobe.com/ImageReplacement/1.0/">
	<!ENTITY ns_sfw "http://ns.adobe.com/SaveForWeb/1.0/">
	<!ENTITY ns_custom "http://ns.adobe.com/GenericCustomNamespace/1.0/">
	<!ENTITY ns_adobe_xpath "http://ns.adobe.com/XPath/1.0/">
]>
<svg version="1.1" id="Internal_Structure" xmlns:x="&ns_extend;" xmlns:i="&ns_ai;" xmlns:graph="&ns_graphs;"
	 xmlns="http://www.w3.org/2000/svg" xmlns:xlink="http://www.w3.org/1999/xlink" x="0px" y="0px" width="612px" height="792px"
	 viewBox="0 0 612 792" enable-background="new 0 0 612 792" xml:space="preserve">
<switch>
<g i:extraneous="self">
<path xmlns="http://www.w3.org/2000/svg" xmlns:ns1="http://ns.adobe.com/AdobeIllustrator/10.0/" ns1:knockout="Off" fill-rule="evenodd" clip-rule="evenodd" fill="none" stroke="#000000" stroke-width="0.504" stroke-miterlimit="2.4142" d="      M501.327,428.625c0.995,0,1.824-0.828,1.824-1.823c0-0.992-0.829-1.82-1.824-1.82c-0.992,0-1.82,0.828-1.82,1.82      C499.507,427.797,500.335,428.625,501.327,428.625L501.327,428.625z"/>
<path xmlns="http://www.w3.org/2000/svg" xmlns:ns1="http://ns.adobe.com/AdobeIllustrator/10.0/" ns1:knockout="Off" fill-rule="evenodd" clip-rule="evenodd" fill="none" stroke="#000000" stroke-width="0.504" stroke-miterlimit="2.4142" d="      M495.485,438.477c0.995,0,1.821-0.828,1.821-1.822c0-0.992-0.826-1.821-1.821-1.821c-0.992,0-1.821,0.829-1.821,1.821      C493.664,437.648,494.493,438.477,495.485,438.477L495.485,438.477z"/>
<path xmlns="http://www.w3.org/2000/svg" xmlns:ns1="http://ns.adobe.com/AdobeIllustrator/10.0/" ns1:knockout="Off" fill-rule="evenodd" clip-rule="evenodd" fill="none" stroke="#000000" stroke-width="0.504" stroke-miterlimit="2.4142" d="      M506.989,438.477c0.996,0,1.825-0.828,1.825-1.822c0-0.992-0.829-1.821-1.825-1.821c-0.992,0-1.82,0.829-1.82,1.821      C505.169,437.648,505.997,438.477,506.989,438.477L506.989,438.477z"/>
<path xmlns="http://www.w3.org/2000/svg" xmlns:ns1="http://ns.adobe.com/AdobeIllustrator/10.0/" ns1:knockout="Off" fill-rule="evenodd" clip-rule="evenodd" fill="none" stroke="#000000" stroke-width="0.504" stroke-miterlimit="2.4142" d="      M495.485,449.014c0.995,0,1.821-0.828,1.821-1.821s-0.826-1.821-1.821-1.821c-0.992,0-1.821,0.828-1.821,1.821      S494.493,449.014,495.485,449.014L495.485,449.014z"/>
<path xmlns="http://www.w3.org/2000/svg" xmlns:ns1="http://ns.adobe.com/AdobeIllustrator/10.0/" ns1:knockout="Off" fill-rule="evenodd" clip-rule="evenodd" fill="none" stroke="#000000" stroke-width="0.504" stroke-miterlimit="2.4142" d="     M493.905,459.552c0.993,0,1.821-0.827,1.821-1.821c0-0.993-0.828-1.821-1.821-1.821c-0.995,0-1.821,0.828-1.821,1.821     C492.084,458.725,492.91,459.552,493.905,459.552L493.905,459.552z"/>
<path xmlns="http://www.w3.org/2000/svg" xmlns:ns1="http://ns.adobe.com/AdobeIllustrator/10.0/" ns1:knockout="Off" fill-rule="evenodd" clip-rule="evenodd" fill="none" stroke="#000000" stroke-width="0.504" stroke-miterlimit="2.4142" d="     M491.997,470.089c0.992,0,1.821-0.828,1.821-1.822c0-0.993-0.829-1.819-1.821-1.819c-0.995,0-1.82,0.826-1.82,1.819     C490.177,469.261,491.002,470.089,491.997,470.089L491.997,470.089z"/>
<path xmlns="http://www.w3.org/2000/svg" xmlns:ns1="http://ns.adobe.com/AdobeIllustrator/10.0/" ns1:knockout="Off" fill-rule="evenodd" clip-rule="evenodd" fill="none" stroke="#000000" stroke-width="0.504" stroke-miterlimit="2.4142" d="     M500.614,480.627c0.996,0,1.824-0.828,1.824-1.822c0-0.993-0.828-1.821-1.824-1.821c-0.992,0-1.821,0.828-1.821,1.821     C498.793,479.799,499.622,480.627,500.614,480.627L500.614,480.627z"/>
</g>
</switch>
</svg>