<?xml version="1.0" encoding="utf-8"?>
<!DOCTYPE svg PUBLIC "-//W3C//DTD SVG 1.1//EN" "http://www.w3.org/Graphics/SVG/1.1/DTD/svg11.dtd" [
	<!ENTITY ns_extend "http://ns.adobe.com/Extensibility/1.0/">
	<!ENTITY ns_ai "http://ns.adobe.com/AdobeIllustrator/10.0/">
	<!ENTITY ns_graphs "http://ns.adobe.com/Graphs/1.0/">
	<!ENTITY ns_vars "http://ns.adobe.com/Variables/1.0/">
	<!ENTITY ns_imrep "http://ns.adobe.com/ImageReplacement/1.0/">
	<!ENTITY ns_sfw "http://ns.adobe.com/SaveForWeb/1.0/">
	<!ENTITY ns_custom "http://ns.adobe.com/GenericCustomNamespace/1.0/">
	<!ENTITY ns_adobe_xpath "http://ns.adobe.com/XPath/1.0/">
]>
<svg version="1.1" id="Internal_Structure" xmlns:x="&ns_extend;" xmlns:i="&ns_ai;" xmlns:graph="&ns_graphs;"
	 xmlns="http://www.w3.org/2000/svg" xmlns:xlink="http://www.w3.org/1999/xlink" x="0px" y="0px" width="612px" height="792px"
	 viewBox="0 0 612 792" enable-background="new 0 0 612 792" xml:space="preserve">
<switch>
<g i:extraneous="self">
<path xmlns="http://www.w3.org/2000/svg" xmlns:ns1="http://ns.adobe.com/AdobeIllustrator/10.0/" ns1:knockout="Off" fill-rule="evenodd" clip-rule="evenodd" fill="none" stroke="#000000" stroke-width="0.504" stroke-miterlimit="2.4142" d="      M456.691,489.345c-0.978-0.19-1.632-1.16-1.443-2.137c0.189-0.974,1.162-1.63,2.137-1.439c0.976,0.188,1.631,1.159,1.44,2.134      C458.636,488.879,457.665,489.533,456.691,489.345L456.691,489.345z"/>
<path xmlns="http://www.w3.org/2000/svg" xmlns:ns1="http://ns.adobe.com/AdobeIllustrator/10.0/" ns1:knockout="Off" fill-rule="evenodd" clip-rule="evenodd" fill="none" stroke="#000000" stroke-width="0.504" stroke-miterlimit="2.4142" d="      M459.88,494.105c-0.976-0.19-1.631-1.16-1.44-2.135c0.189-0.977,1.16-1.631,2.137-1.44c0.975,0.189,1.628,1.158,1.439,2.135      C461.825,493.641,460.856,494.295,459.88,494.105L459.88,494.105z"/>
<path xmlns="http://www.w3.org/2000/svg" xmlns:ns1="http://ns.adobe.com/AdobeIllustrator/10.0/" ns1:knockout="Off" fill-rule="evenodd" clip-rule="evenodd" fill="none" stroke="#000000" stroke-width="0.504" stroke-miterlimit="2.4142" d="      M455.14,497.327c-0.978-0.191-1.631-1.161-1.442-2.136c0.188-0.977,1.16-1.63,2.138-1.439c0.974,0.188,1.629,1.158,1.438,2.135      C457.084,496.862,456.113,497.516,455.14,497.327L455.14,497.327z"/>
<path xmlns="http://www.w3.org/2000/svg" xmlns:ns1="http://ns.adobe.com/AdobeIllustrator/10.0/" ns1:knockout="Off" fill-rule="evenodd" clip-rule="evenodd" fill="none" stroke="#000000" stroke-width="0.504" stroke-miterlimit="2.4142" d="      M458.329,502.088c-0.977-0.188-1.632-1.158-1.441-2.135c0.189-0.975,1.16-1.631,2.136-1.44c0.976,0.189,1.629,1.159,1.439,2.136      C460.273,501.623,459.304,502.277,458.329,502.088L458.329,502.088z"/>
<path xmlns="http://www.w3.org/2000/svg" xmlns:ns1="http://ns.adobe.com/AdobeIllustrator/10.0/" ns1:knockout="Off" fill-rule="evenodd" clip-rule="evenodd" fill="none" stroke="#000000" stroke-width="0.504" stroke-miterlimit="2.4142" d="      M453.588,505.31c-0.977-0.19-1.633-1.161-1.443-2.137c0.19-0.976,1.161-1.63,2.138-1.44c0.976,0.189,1.629,1.16,1.44,2.136      C455.533,504.844,454.563,505.498,453.588,505.31L453.588,505.31z"/>
<path xmlns="http://www.w3.org/2000/svg" xmlns:ns1="http://ns.adobe.com/AdobeIllustrator/10.0/" ns1:knockout="Off" fill-rule="evenodd" clip-rule="evenodd" fill="none" stroke="#000000" stroke-width="0.504" stroke-miterlimit="2.4142" d="      M456.777,510.07c-0.977-0.189-1.631-1.16-1.441-2.135c0.189-0.977,1.16-1.631,2.137-1.44c0.976,0.189,1.63,1.159,1.439,2.136      C458.723,509.605,457.753,510.262,456.777,510.07L456.777,510.07z"/>
<path xmlns="http://www.w3.org/2000/svg" xmlns:ns1="http://ns.adobe.com/AdobeIllustrator/10.0/" ns1:knockout="Off" fill-rule="evenodd" clip-rule="evenodd" fill="none" stroke="#000000" stroke-width="0.504" stroke-miterlimit="2.4142" d="      M452.036,513.291c-0.977-0.189-1.632-1.162-1.442-2.137s1.161-1.629,2.138-1.439c0.976,0.19,1.629,1.16,1.438,2.135      C453.98,512.825,453.012,513.479,452.036,513.291L452.036,513.291z"/>
<path xmlns="http://www.w3.org/2000/svg" xmlns:ns1="http://ns.adobe.com/AdobeIllustrator/10.0/" ns1:knockout="Off" fill-rule="evenodd" clip-rule="evenodd" fill="none" stroke="#000000" stroke-width="0.504" stroke-miterlimit="2.4142" d="      M455.226,518.053c-0.976-0.191-1.632-1.161-1.442-2.137s1.161-1.629,2.138-1.439c0.976,0.189,1.629,1.158,1.439,2.135      C457.171,517.586,456.201,518.241,455.226,518.053L455.226,518.053z"/>
<path xmlns="http://www.w3.org/2000/svg" xmlns:ns1="http://ns.adobe.com/AdobeIllustrator/10.0/" ns1:knockout="Off" fill-rule="evenodd" clip-rule="evenodd" fill="none" stroke="#000000" stroke-width="0.504" stroke-miterlimit="2.4142" d="      M450.483,521.273c-0.977-0.189-1.63-1.16-1.439-2.136c0.188-0.976,1.158-1.63,2.136-1.439c0.975,0.188,1.629,1.159,1.439,2.136      C452.43,520.809,451.459,521.463,450.483,521.273L450.483,521.273z"/>
<path xmlns="http://www.w3.org/2000/svg" xmlns:ns1="http://ns.adobe.com/AdobeIllustrator/10.0/" ns1:knockout="Off" fill-rule="evenodd" clip-rule="evenodd" fill="none" stroke="#000000" stroke-width="0.504" stroke-miterlimit="2.4142" d="      M453.674,526.035c-0.976-0.19-1.631-1.16-1.442-2.137c0.19-0.975,1.162-1.63,2.138-1.439c0.976,0.189,1.63,1.16,1.439,2.135      C455.62,525.568,454.649,526.224,453.674,526.035L453.674,526.035z"/>
<path xmlns="http://www.w3.org/2000/svg" xmlns:ns1="http://ns.adobe.com/AdobeIllustrator/10.0/" ns1:knockout="Off" fill-rule="evenodd" clip-rule="evenodd" fill="none" stroke="#000000" stroke-width="0.504" stroke-miterlimit="2.4142" d="      M448.934,529.256c-0.978-0.191-1.632-1.162-1.443-2.137c0.189-0.977,1.16-1.631,2.138-1.439c0.976,0.189,1.63,1.158,1.44,2.134      C450.878,528.789,449.907,529.443,448.934,529.256L448.934,529.256z"/>
<path xmlns="http://www.w3.org/2000/svg" xmlns:ns1="http://ns.adobe.com/AdobeIllustrator/10.0/" ns1:knockout="Off" fill-rule="evenodd" clip-rule="evenodd" fill="none" stroke="#000000" stroke-width="0.504" stroke-miterlimit="2.4142" d="      M452.122,534.018c-0.976-0.189-1.631-1.16-1.441-2.136c0.19-0.976,1.161-1.63,2.137-1.44s1.629,1.159,1.439,2.137      C454.067,533.552,453.099,534.207,452.122,534.018L452.122,534.018z"/>
<path xmlns="http://www.w3.org/2000/svg" xmlns:ns1="http://ns.adobe.com/AdobeIllustrator/10.0/" ns1:knockout="Off" fill-rule="evenodd" clip-rule="evenodd" fill="none" stroke="#000000" stroke-width="0.504" stroke-miterlimit="2.4142" d="      M447.382,537.238c-0.977-0.19-1.632-1.16-1.443-2.137c0.191-0.977,1.162-1.629,2.139-1.439c0.974,0.189,1.629,1.158,1.438,2.135      C449.326,536.771,448.355,537.427,447.382,537.238L447.382,537.238z"/>
<path xmlns="http://www.w3.org/2000/svg" xmlns:ns1="http://ns.adobe.com/AdobeIllustrator/10.0/" ns1:knockout="Off" fill-rule="evenodd" clip-rule="evenodd" fill="none" stroke="#000000" stroke-width="0.504" stroke-miterlimit="2.4142" d="      M450.571,541.999c-0.977-0.188-1.631-1.161-1.441-2.136c0.189-0.976,1.16-1.63,2.137-1.439c0.976,0.189,1.628,1.159,1.439,2.135      C452.517,541.535,451.547,542.188,450.571,541.999L450.571,541.999z"/>
<path xmlns="http://www.w3.org/2000/svg" xmlns:ns1="http://ns.adobe.com/AdobeIllustrator/10.0/" ns1:knockout="Off" fill-rule="evenodd" clip-rule="evenodd" fill="none" stroke="#000000" stroke-width="0.504" stroke-miterlimit="2.4142" d="      M445.83,545.221c-0.978-0.189-1.633-1.162-1.443-2.137c0.19-0.977,1.163-1.629,2.139-1.44c0.974,0.19,1.629,1.161,1.439,2.136      C447.773,544.754,446.805,545.41,445.83,545.221L445.83,545.221z"/>
<path xmlns="http://www.w3.org/2000/svg" xmlns:ns1="http://ns.adobe.com/AdobeIllustrator/10.0/" ns1:knockout="Off" fill-rule="evenodd" clip-rule="evenodd" fill="none" stroke="#000000" stroke-width="0.504" stroke-miterlimit="2.4142" d="      M449.021,549.981c-0.978-0.188-1.633-1.16-1.443-2.138c0.19-0.974,1.161-1.628,2.137-1.438c0.976,0.189,1.632,1.159,1.439,2.135      C450.964,549.516,449.995,550.172,449.021,549.981L449.021,549.981z"/>
<path xmlns="http://www.w3.org/2000/svg" xmlns:ns1="http://ns.adobe.com/AdobeIllustrator/10.0/" ns1:knockout="Off" fill-rule="evenodd" clip-rule="evenodd" fill="none" stroke="#000000" stroke-width="0.504" stroke-miterlimit="2.4142" d="      M444.277,553.201c-0.977-0.19-1.63-1.16-1.441-2.135c0.189-0.977,1.16-1.631,2.137-1.441c0.976,0.19,1.629,1.161,1.439,2.136      C446.224,552.736,445.253,553.391,444.277,553.201L444.277,553.201z"/>
<path xmlns="http://www.w3.org/2000/svg" xmlns:ns1="http://ns.adobe.com/AdobeIllustrator/10.0/" ns1:knockout="Off" fill="none" stroke="#000000" stroke-width="1.5" d="M456.97,556.515"/>
<path xmlns="http://www.w3.org/2000/svg" xmlns:ns1="http://ns.adobe.com/AdobeIllustrator/10.0/" ns1:knockout="Off" fill-rule="evenodd" clip-rule="evenodd" fill="none" stroke="#000000" stroke-width="0.504" stroke-miterlimit="2.4142" d="      M447.468,557.963c-0.976-0.189-1.631-1.16-1.441-2.136c0.188-0.976,1.16-1.63,2.137-1.439c0.976,0.188,1.629,1.159,1.439,2.134      C449.412,557.498,448.443,558.152,447.468,557.963L447.468,557.963z"/>
<path xmlns="http://www.w3.org/2000/svg" xmlns:ns1="http://ns.adobe.com/AdobeIllustrator/10.0/" ns1:knockout="Off" fill-rule="evenodd" clip-rule="evenodd" fill="none" stroke="#000000" stroke-width="0.504" stroke-miterlimit="2.4142" d="      M443.614,565.55c-0.977-0.191-1.631-1.162-1.441-2.137s1.159-1.631,2.137-1.441c0.974,0.189,1.629,1.161,1.439,2.136      C445.559,565.083,444.59,565.737,443.614,565.55L443.614,565.55z"/>
<path xmlns="http://www.w3.org/2000/svg" xmlns:ns1="http://ns.adobe.com/AdobeIllustrator/10.0/" ns1:knockout="Off" fill-rule="evenodd" clip-rule="evenodd" fill="none" stroke="#000000" stroke-width="0.504" stroke-miterlimit="2.4142" d="      M439.762,573.133c-0.978-0.188-1.633-1.16-1.443-2.136s1.162-1.63,2.139-1.44c0.974,0.189,1.629,1.161,1.438,2.135      C441.705,572.668,440.735,573.324,439.762,573.133L439.762,573.133z"/>
</g>
</switch>
</svg>