<?xml version="1.0" encoding="utf-8"?>
<!DOCTYPE svg PUBLIC "-//W3C//DTD SVG 1.1//EN" "http://www.w3.org/Graphics/SVG/1.1/DTD/svg11.dtd" [
	<!ENTITY ns_extend "http://ns.adobe.com/Extensibility/1.0/">
	<!ENTITY ns_ai "http://ns.adobe.com/AdobeIllustrator/10.0/">
	<!ENTITY ns_graphs "http://ns.adobe.com/Graphs/1.0/">
	<!ENTITY ns_vars "http://ns.adobe.com/Variables/1.0/">
	<!ENTITY ns_imrep "http://ns.adobe.com/ImageReplacement/1.0/">
	<!ENTITY ns_sfw "http://ns.adobe.com/SaveForWeb/1.0/">
	<!ENTITY ns_custom "http://ns.adobe.com/GenericCustomNamespace/1.0/">
	<!ENTITY ns_adobe_xpath "http://ns.adobe.com/XPath/1.0/">
]>
<svg version="1.1" id="Internal_Structure" xmlns:x="&ns_extend;" xmlns:i="&ns_ai;" xmlns:graph="&ns_graphs;"
	 xmlns="http://www.w3.org/2000/svg" xmlns:xlink="http://www.w3.org/1999/xlink" x="0px" y="0px" width="612px" height="792px"
	 viewBox="0 0 612 792" enable-background="new 0 0 612 792" xml:space="preserve">
<switch>
<g i:extraneous="self">
<path xmlns="http://www.w3.org/2000/svg" xmlns:ns1="http://ns.adobe.com/AdobeIllustrator/10.0/" ns1:knockout="Off" fill-rule="evenodd" clip-rule="evenodd" fill="none" stroke="#000000" stroke-width="0.504" stroke-miterlimit="2.4142" d="      M431.106,434.635c0.991,0.087,1.891-0.665,1.978-1.655c0.084-0.99-0.667-1.887-1.658-1.974s-1.885,0.665-1.974,1.654      C429.367,433.651,430.118,434.548,431.106,434.635L431.106,434.635z"/>
<path xmlns="http://www.w3.org/2000/svg" xmlns:ns1="http://ns.adobe.com/AdobeIllustrator/10.0/" ns1:knockout="Off" fill-rule="evenodd" clip-rule="evenodd" fill="none" stroke="#000000" stroke-width="0.504" stroke-miterlimit="2.4142" d="      M430.293,443.94c0.992,0.087,1.888-0.666,1.976-1.656c0.087-0.99-0.667-1.886-1.658-1.973c-0.988-0.088-1.885,0.666-1.971,1.656      C428.552,442.957,429.305,443.854,430.293,443.94L430.293,443.94z"/>
<path xmlns="http://www.w3.org/2000/svg" xmlns:ns1="http://ns.adobe.com/AdobeIllustrator/10.0/" ns1:knockout="Off" fill-rule="evenodd" clip-rule="evenodd" fill="none" stroke="#000000" stroke-width="0.504" stroke-miterlimit="2.4142" d="      M429.479,453.246c0.991,0.087,1.888-0.665,1.975-1.655s-0.664-1.887-1.655-1.974s-1.887,0.665-1.975,1.655      C427.74,452.263,428.491,453.158,429.479,453.246L429.479,453.246z"/>
<path xmlns="http://www.w3.org/2000/svg" xmlns:ns1="http://ns.adobe.com/AdobeIllustrator/10.0/" ns1:knockout="Off" fill-rule="evenodd" clip-rule="evenodd" fill="none" stroke="#000000" stroke-width="0.504" stroke-miterlimit="2.4142" d="      M428.665,462.552c0.992,0.087,1.888-0.665,1.976-1.655c0.087-0.99-0.667-1.886-1.658-1.974      c-0.991-0.085-1.885,0.665-1.972,1.654C426.924,461.57,427.674,462.465,428.665,462.552L428.665,462.552z"/>
<path xmlns="http://www.w3.org/2000/svg" xmlns:ns1="http://ns.adobe.com/AdobeIllustrator/10.0/" ns1:knockout="Off" fill-rule="evenodd" clip-rule="evenodd" fill="none" stroke="#000000" stroke-width="0.504" stroke-miterlimit="2.4142" d="      M427.853,471.857c0.99,0.087,1.889-0.666,1.974-1.656c0.087-0.99-0.667-1.886-1.658-1.973c-0.988-0.086-1.884,0.666-1.972,1.656      C426.109,470.874,426.863,471.771,427.853,471.857L427.853,471.857z"/>
<path xmlns="http://www.w3.org/2000/svg" xmlns:ns1="http://ns.adobe.com/AdobeIllustrator/10.0/" ns1:knockout="Off" fill-rule="evenodd" clip-rule="evenodd" fill="none" stroke="#000000" stroke-width="0.504" stroke-miterlimit="2.4142" d="      M427.037,481.163c0.991,0.087,1.888-0.665,1.975-1.655s-0.666-1.887-1.658-1.974c-0.988-0.088-1.887,0.665-1.971,1.655      C425.296,480.18,426.046,481.075,427.037,481.163L427.037,481.163z"/>
<path xmlns="http://www.w3.org/2000/svg" xmlns:ns1="http://ns.adobe.com/AdobeIllustrator/10.0/" ns1:knockout="Off" fill-rule="evenodd" clip-rule="evenodd" fill="none" stroke="#000000" stroke-width="0.504" stroke-miterlimit="2.4142" d="      M426.223,490.469c0.991,0.087,1.888-0.665,1.975-1.655c0.088-0.99-0.666-1.887-1.656-1.974      c-0.989-0.088-1.885,0.665-1.973,1.655S425.234,490.381,426.223,490.469L426.223,490.469z"/>
</g>
</switch>
</svg>