<?xml version="1.0" encoding="utf-8"?>
<!DOCTYPE svg PUBLIC "-//W3C//DTD SVG 1.1//EN" "http://www.w3.org/Graphics/SVG/1.1/DTD/svg11.dtd" [
	<!ENTITY ns_extend "http://ns.adobe.com/Extensibility/1.0/">
	<!ENTITY ns_ai "http://ns.adobe.com/AdobeIllustrator/10.0/">
	<!ENTITY ns_graphs "http://ns.adobe.com/Graphs/1.0/">
	<!ENTITY ns_vars "http://ns.adobe.com/Variables/1.0/">
	<!ENTITY ns_imrep "http://ns.adobe.com/ImageReplacement/1.0/">
	<!ENTITY ns_sfw "http://ns.adobe.com/SaveForWeb/1.0/">
	<!ENTITY ns_custom "http://ns.adobe.com/GenericCustomNamespace/1.0/">
	<!ENTITY ns_adobe_xpath "http://ns.adobe.com/XPath/1.0/">
]>
<svg version="1.1" id="Internal_Structure" xmlns:x="&ns_extend;" xmlns:i="&ns_ai;" xmlns:graph="&ns_graphs;"
	 xmlns="http://www.w3.org/2000/svg" xmlns:xlink="http://www.w3.org/1999/xlink" x="0px" y="0px" width="612px" height="792px"
	 viewBox="0 0 612 792" enable-background="new 0 0 612 792" xml:space="preserve">
<switch>
<g i:extraneous="self">
<path xmlns="http://www.w3.org/2000/svg" xmlns:ns1="http://ns.adobe.com/AdobeIllustrator/10.0/" ns1:knockout="Off" fill-rule="evenodd" clip-rule="evenodd" fill="none" stroke="#000000" stroke-width="0.504" stroke-miterlimit="2.4142" d="      M431.719,427.655c0.991,0.088,1.887-0.664,1.975-1.655c0.088-0.99-0.667-1.886-1.658-1.973      c-0.988-0.088-1.884,0.665-1.971,1.655C429.977,426.673,430.728,427.568,431.719,427.655L431.719,427.655z"/>
<path xmlns="http://www.w3.org/2000/svg" xmlns:ns1="http://ns.adobe.com/AdobeIllustrator/10.0/" ns1:knockout="Off" fill-rule="evenodd" clip-rule="evenodd" fill="none" stroke="#000000" stroke-width="0.504" stroke-miterlimit="2.4142" d="      M431.106,435.41c0.991,0.087,1.891-0.665,1.978-1.655c0.084-0.99-0.667-1.887-1.658-1.974s-1.885,0.665-1.974,1.654      C429.367,434.427,430.118,435.323,431.106,435.41L431.106,435.41z"/>
<path xmlns="http://www.w3.org/2000/svg" xmlns:ns1="http://ns.adobe.com/AdobeIllustrator/10.0/" ns1:knockout="Off" fill-rule="evenodd" clip-rule="evenodd" fill="none" stroke="#000000" stroke-width="0.504" stroke-miterlimit="2.4142" d="      M430.497,443.165c0.992,0.087,1.888-0.666,1.976-1.656c0.087-0.99-0.667-1.886-1.658-1.973      c-0.988-0.088-1.885,0.666-1.971,1.656C428.756,442.182,429.509,443.079,430.497,443.165L430.497,443.165z"/>
<path xmlns="http://www.w3.org/2000/svg" xmlns:ns1="http://ns.adobe.com/AdobeIllustrator/10.0/" ns1:knockout="Off" fill-rule="evenodd" clip-rule="evenodd" fill="none" stroke="#000000" stroke-width="0.504" stroke-miterlimit="2.4142" d="      M429.886,450.92c0.991,0.087,1.888-0.665,1.975-1.655s-0.664-1.887-1.655-1.974s-1.887,0.665-1.975,1.655      C428.146,449.937,428.897,450.832,429.886,450.92L429.886,450.92z"/>
<path xmlns="http://www.w3.org/2000/svg" xmlns:ns1="http://ns.adobe.com/AdobeIllustrator/10.0/" ns1:knockout="Off" fill-rule="evenodd" clip-rule="evenodd" fill="none" stroke="#000000" stroke-width="0.504" stroke-miterlimit="2.4142" d="      M429.276,458.675c0.992,0.087,1.888-0.665,1.976-1.655c0.087-0.99-0.667-1.886-1.658-1.974      c-0.991-0.085-1.885,0.665-1.972,1.654C427.535,457.693,428.285,458.588,429.276,458.675L429.276,458.675z"/>
<path xmlns="http://www.w3.org/2000/svg" xmlns:ns1="http://ns.adobe.com/AdobeIllustrator/10.0/" ns1:knockout="Off" fill-rule="evenodd" clip-rule="evenodd" fill="none" stroke="#000000" stroke-width="0.504" stroke-miterlimit="2.4142" d="      M428.666,466.429c0.99,0.087,1.889-0.666,1.974-1.656c0.087-0.99-0.667-1.886-1.658-1.973c-0.988-0.086-1.884,0.666-1.972,1.656      C426.923,465.445,427.677,466.343,428.666,466.429L428.666,466.429z"/>
<path xmlns="http://www.w3.org/2000/svg" xmlns:ns1="http://ns.adobe.com/AdobeIllustrator/10.0/" ns1:knockout="Off" fill-rule="evenodd" clip-rule="evenodd" fill="none" stroke="#000000" stroke-width="0.504" stroke-miterlimit="2.4142" d="      M427.443,474.184c0.991,0.087,1.89-0.665,1.975-1.655c0.088-0.99-0.666-1.886-1.657-1.974c-0.988-0.085-1.884,0.665-1.972,1.657      C425.702,473.202,426.456,474.097,427.443,474.184L427.443,474.184z"/>
<path xmlns="http://www.w3.org/2000/svg" xmlns:ns1="http://ns.adobe.com/AdobeIllustrator/10.0/" ns1:knockout="Off" fill-rule="evenodd" clip-rule="evenodd" fill="none" stroke="#000000" stroke-width="0.504" stroke-miterlimit="2.4142" d="      M426.834,481.938c0.992,0.087,1.889-0.666,1.976-1.656s-0.666-1.886-1.658-1.973c-0.991-0.088-1.887,0.666-1.972,1.656      C425.093,480.955,425.844,481.853,426.834,481.938L426.834,481.938z"/>
<path xmlns="http://www.w3.org/2000/svg" xmlns:ns1="http://ns.adobe.com/AdobeIllustrator/10.0/" ns1:knockout="Off" fill-rule="evenodd" clip-rule="evenodd" fill="none" stroke="#000000" stroke-width="0.504" stroke-miterlimit="2.4142" d="      M426.223,489.693c0.991,0.087,1.888-0.665,1.975-1.655c0.088-0.99-0.666-1.887-1.656-1.974      c-0.989-0.088-1.885,0.665-1.973,1.655S425.234,489.605,426.223,489.693L426.223,489.693z"/>
<path xmlns="http://www.w3.org/2000/svg" xmlns:ns1="http://ns.adobe.com/AdobeIllustrator/10.0/" ns1:knockout="Off" fill-rule="evenodd" clip-rule="evenodd" fill="none" stroke="#000000" stroke-width="0.504" stroke-miterlimit="2.4142" d="      M425.613,497.448c0.989,0.087,1.889-0.666,1.973-1.656c0.087-0.99-0.664-1.886-1.655-1.974      c-0.991-0.085-1.888,0.667-1.972,1.657C423.872,496.466,424.622,497.362,425.613,497.448L425.613,497.448z"/>
</g>
</switch>
</svg>