<?xml version="1.0" encoding="utf-8"?>
<!DOCTYPE svg PUBLIC "-//W3C//DTD SVG 1.1//EN" "http://www.w3.org/Graphics/SVG/1.1/DTD/svg11.dtd" [
	<!ENTITY ns_extend "http://ns.adobe.com/Extensibility/1.0/">
	<!ENTITY ns_ai "http://ns.adobe.com/AdobeIllustrator/10.0/">
	<!ENTITY ns_graphs "http://ns.adobe.com/Graphs/1.0/">
	<!ENTITY ns_vars "http://ns.adobe.com/Variables/1.0/">
	<!ENTITY ns_imrep "http://ns.adobe.com/ImageReplacement/1.0/">
	<!ENTITY ns_sfw "http://ns.adobe.com/SaveForWeb/1.0/">
	<!ENTITY ns_custom "http://ns.adobe.com/GenericCustomNamespace/1.0/">
	<!ENTITY ns_adobe_xpath "http://ns.adobe.com/XPath/1.0/">
]>
<svg version="1.1" id="Internal_Structure" xmlns:x="&ns_extend;" xmlns:i="&ns_ai;" xmlns:graph="&ns_graphs;"
	 xmlns="http://www.w3.org/2000/svg" xmlns:xlink="http://www.w3.org/1999/xlink" x="0px" y="0px" width="612px" height="792px"
	 viewBox="0 0 612 792" enable-background="new 0 0 612 792" xml:space="preserve">
<switch>
<g i:extraneous="self">
<path xmlns="http://www.w3.org/2000/svg" xmlns:ns1="http://ns.adobe.com/AdobeIllustrator/10.0/" ns1:knockout="Off" fill-rule="evenodd" clip-rule="evenodd" fill="none" stroke="#000000" stroke-width="0.504" stroke-miterlimit="2.4142" d="       M472.789,437.585c-0.994,0-1.824-0.829-1.824-1.821c0-0.995,0.83-1.821,1.824-1.821c0.992,0,1.822,0.826,1.822,1.821       C474.611,436.756,473.781,437.585,472.789,437.585L472.789,437.585z"/>
<path xmlns="http://www.w3.org/2000/svg" xmlns:ns1="http://ns.adobe.com/AdobeIllustrator/10.0/" ns1:knockout="Off" fill-rule="evenodd" clip-rule="evenodd" fill="none" stroke="#000000" stroke-width="0.504" stroke-miterlimit="2.4142" d="       M478.412,437.585c-0.996,0-1.822-0.829-1.822-1.821c0-0.995,0.826-1.821,1.822-1.821c0.992,0,1.82,0.826,1.82,1.821       C480.232,436.756,479.404,437.585,478.412,437.585L478.412,437.585z"/>
<path xmlns="http://www.w3.org/2000/svg" xmlns:ns1="http://ns.adobe.com/AdobeIllustrator/10.0/" ns1:knockout="Off" fill-rule="evenodd" clip-rule="evenodd" fill="none" stroke="#000000" stroke-width="0.504" stroke-miterlimit="2.4142" d="       M484.215,437.585c-0.996,0-1.824-0.829-1.824-1.821c0-0.995,0.828-1.821,1.824-1.821c0.992,0,1.82,0.826,1.82,1.821       C486.035,436.756,485.207,437.585,484.215,437.585L484.215,437.585z"/>
<path xmlns="http://www.w3.org/2000/svg" xmlns:ns1="http://ns.adobe.com/AdobeIllustrator/10.0/" ns1:knockout="Off" fill-rule="evenodd" clip-rule="evenodd" fill="none" stroke="#000000" stroke-width="0.504" stroke-miterlimit="2.4142" d="       M475.365,445.954c-0.996,0-1.824-0.827-1.824-1.821c0-0.993,0.828-1.821,1.824-1.821c0.992,0,1.82,0.828,1.82,1.821       C477.186,445.127,476.357,445.954,475.365,445.954L475.365,445.954z"/>
<path xmlns="http://www.w3.org/2000/svg" xmlns:ns1="http://ns.adobe.com/AdobeIllustrator/10.0/" ns1:knockout="Off" fill-rule="evenodd" clip-rule="evenodd" fill="none" stroke="#000000" stroke-width="0.504" stroke-miterlimit="2.4142" d="       M481.641,445.954c-0.996,0-1.824-0.827-1.824-1.821c0-0.993,0.828-1.821,1.824-1.821c0.992,0,1.82,0.828,1.82,1.821       C483.461,445.127,482.633,445.954,481.641,445.954L481.641,445.954z"/>
<path xmlns="http://www.w3.org/2000/svg" xmlns:ns1="http://ns.adobe.com/AdobeIllustrator/10.0/" ns1:knockout="Off" fill-rule="evenodd" clip-rule="evenodd" fill="none" stroke="#000000" stroke-width="0.504" stroke-miterlimit="2.4142" d="       M472.789,454.323c-0.994,0-1.824-0.828-1.824-1.821s0.83-1.821,1.824-1.821c0.992,0,1.822,0.828,1.822,1.821       S473.781,454.323,472.789,454.323L472.789,454.323z"/>
<path xmlns="http://www.w3.org/2000/svg" xmlns:ns1="http://ns.adobe.com/AdobeIllustrator/10.0/" ns1:knockout="Off" fill-rule="evenodd" clip-rule="evenodd" fill="none" stroke="#000000" stroke-width="0.504" stroke-miterlimit="2.4142" d="       M478.412,454.323c-0.996,0-1.822-0.828-1.822-1.821s0.826-1.821,1.822-1.821c0.992,0,1.82,0.828,1.82,1.821       S479.404,454.323,478.412,454.323L478.412,454.323z"/>
<path xmlns="http://www.w3.org/2000/svg" xmlns:ns1="http://ns.adobe.com/AdobeIllustrator/10.0/" ns1:knockout="Off" fill-rule="evenodd" clip-rule="evenodd" fill="none" stroke="#000000" stroke-width="0.504" stroke-miterlimit="2.4142" d="       M484.215,454.323c-0.996,0-1.824-0.828-1.824-1.821s0.828-1.821,1.824-1.821c0.992,0,1.82,0.828,1.82,1.821       S485.207,454.323,484.215,454.323L484.215,454.323z"/>
<path xmlns="http://www.w3.org/2000/svg" xmlns:ns1="http://ns.adobe.com/AdobeIllustrator/10.0/" ns1:knockout="Off" fill-rule="evenodd" clip-rule="evenodd" fill="none" stroke="#000000" stroke-width="0.504" stroke-miterlimit="2.4142" d="       M475.365,462.693c-0.996,0-1.824-0.828-1.824-1.822c0-0.992,0.828-1.82,1.824-1.82c0.992,0,1.82,0.828,1.82,1.82       C477.186,461.865,476.357,462.693,475.365,462.693L475.365,462.693z"/>
<path xmlns="http://www.w3.org/2000/svg" xmlns:ns1="http://ns.adobe.com/AdobeIllustrator/10.0/" ns1:knockout="Off" fill-rule="evenodd" clip-rule="evenodd" fill="none" stroke="#000000" stroke-width="0.504" stroke-miterlimit="2.4142" d="       M481.641,462.693c-0.996,0-1.824-0.828-1.824-1.822c0-0.992,0.828-1.82,1.824-1.82c0.992,0,1.82,0.828,1.82,1.82       C483.461,461.865,482.633,462.693,481.641,462.693L481.641,462.693z"/>
<path xmlns="http://www.w3.org/2000/svg" xmlns:ns1="http://ns.adobe.com/AdobeIllustrator/10.0/" ns1:knockout="Off" fill-rule="evenodd" clip-rule="evenodd" fill="none" stroke="#000000" stroke-width="0.504" stroke-miterlimit="2.4142" d="       M472.789,471.063c-0.994,0-1.824-0.827-1.824-1.822c0-0.993,0.83-1.82,1.824-1.82c0.992,0,1.822,0.827,1.822,1.82       C474.611,470.235,473.781,471.063,472.789,471.063L472.789,471.063z"/>
<path xmlns="http://www.w3.org/2000/svg" xmlns:ns1="http://ns.adobe.com/AdobeIllustrator/10.0/" ns1:knockout="Off" fill-rule="evenodd" clip-rule="evenodd" fill="none" stroke="#000000" stroke-width="0.504" stroke-miterlimit="2.4142" d="       M478.412,471.063c-0.996,0-1.822-0.827-1.822-1.822c0-0.993,0.826-1.82,1.822-1.82c0.992,0,1.82,0.827,1.82,1.82       C480.232,470.235,479.404,471.063,478.412,471.063L478.412,471.063z"/>
<path xmlns="http://www.w3.org/2000/svg" xmlns:ns1="http://ns.adobe.com/AdobeIllustrator/10.0/" ns1:knockout="Off" fill-rule="evenodd" clip-rule="evenodd" fill="none" stroke="#000000" stroke-width="0.504" stroke-miterlimit="2.4142" d="       M484.215,471.063c-0.996,0-1.824-0.827-1.824-1.822c0-0.993,0.828-1.82,1.824-1.82c0.992,0,1.82,0.827,1.82,1.82       C486.035,470.235,485.207,471.063,484.215,471.063L484.215,471.063z"/>
<path xmlns="http://www.w3.org/2000/svg" xmlns:ns1="http://ns.adobe.com/AdobeIllustrator/10.0/" ns1:knockout="Off" fill-rule="evenodd" clip-rule="evenodd" fill="none" stroke="#000000" stroke-width="0.504" stroke-miterlimit="2.4142" d="       M475.365,479.432c-0.996,0-1.824-0.827-1.824-1.821c0-0.993,0.828-1.821,1.824-1.821c0.992,0,1.82,0.828,1.82,1.821       C477.186,478.604,476.357,479.432,475.365,479.432L475.365,479.432z"/>
<path xmlns="http://www.w3.org/2000/svg" xmlns:ns1="http://ns.adobe.com/AdobeIllustrator/10.0/" ns1:knockout="Off" fill-rule="evenodd" clip-rule="evenodd" fill="none" stroke="#000000" stroke-width="0.504" stroke-miterlimit="2.4142" d="       M481.641,479.432c-0.996,0-1.824-0.827-1.824-1.821c0-0.993,0.828-1.821,1.824-1.821c0.992,0,1.82,0.828,1.82,1.821       C483.461,478.604,482.633,479.432,481.641,479.432L481.641,479.432z"/>
<path xmlns="http://www.w3.org/2000/svg" xmlns:ns1="http://ns.adobe.com/AdobeIllustrator/10.0/" ns1:knockout="Off" fill-rule="evenodd" clip-rule="evenodd" fill="none" stroke="#000000" stroke-width="0.504" stroke-miterlimit="2.4142" d="      M478.502,487.801c-0.996,0-1.822-0.828-1.822-1.821c0-0.994,0.826-1.821,1.822-1.821c0.992,0,1.82,0.827,1.82,1.821      C480.322,486.973,479.494,487.801,478.502,487.801L478.502,487.801z"/>
</g>
</switch>
</svg>