<?xml version="1.0" encoding="utf-8"?>
<!DOCTYPE svg PUBLIC "-//W3C//DTD SVG 1.1//EN" "http://www.w3.org/Graphics/SVG/1.1/DTD/svg11.dtd" [
	<!ENTITY ns_extend "http://ns.adobe.com/Extensibility/1.0/">
	<!ENTITY ns_ai "http://ns.adobe.com/AdobeIllustrator/10.0/">
	<!ENTITY ns_graphs "http://ns.adobe.com/Graphs/1.0/">
	<!ENTITY ns_vars "http://ns.adobe.com/Variables/1.0/">
	<!ENTITY ns_imrep "http://ns.adobe.com/ImageReplacement/1.0/">
	<!ENTITY ns_sfw "http://ns.adobe.com/SaveForWeb/1.0/">
	<!ENTITY ns_custom "http://ns.adobe.com/GenericCustomNamespace/1.0/">
	<!ENTITY ns_adobe_xpath "http://ns.adobe.com/XPath/1.0/">
]>
<svg version="1.1" id="Internal_Structure" xmlns:x="&ns_extend;" xmlns:i="&ns_ai;" xmlns:graph="&ns_graphs;"
	 xmlns="http://www.w3.org/2000/svg" xmlns:xlink="http://www.w3.org/1999/xlink" x="0px" y="0px" width="612px" height="792px"
	 viewBox="0 0 612 792" enable-background="new 0 0 612 792" xml:space="preserve">
<switch>
<g i:extraneous="self">
<path xmlns="http://www.w3.org/2000/svg" xmlns:ns1="http://ns.adobe.com/AdobeIllustrator/10.0/" ns1:knockout="Off" fill-rule="evenodd" clip-rule="evenodd" fill="none" stroke="#000000" stroke-width="0.504" stroke-miterlimit="2.4142" d="      M524.976,427.655c-0.994,0.088-1.891-0.664-1.976-1.655c-0.087-0.99,0.666-1.886,1.656-1.973      c0.991-0.088,1.887,0.665,1.974,1.655C526.715,426.673,525.964,427.568,524.976,427.655L524.976,427.655z"/>
<path xmlns="http://www.w3.org/2000/svg" xmlns:ns1="http://ns.adobe.com/AdobeIllustrator/10.0/" ns1:knockout="Off" fill-rule="evenodd" clip-rule="evenodd" fill="none" stroke="#000000" stroke-width="0.504" stroke-miterlimit="2.4142" d="      M526.196,441.614c-0.991,0.087-1.888-0.665-1.975-1.655c-0.088-0.99,0.666-1.887,1.658-1.974      c0.987-0.087,1.883,0.665,1.971,1.654C527.938,440.631,527.185,441.527,526.196,441.614L526.196,441.614z"/>
<path xmlns="http://www.w3.org/2000/svg" xmlns:ns1="http://ns.adobe.com/AdobeIllustrator/10.0/" ns1:knockout="Off" fill-rule="evenodd" clip-rule="evenodd" fill="none" stroke="#000000" stroke-width="0.504" stroke-miterlimit="2.4142" d="      M527.415,455.572c-0.989,0.087-1.889-0.666-1.973-1.656c-0.087-0.99,0.664-1.886,1.655-1.973      c0.991-0.088,1.887,0.666,1.974,1.656C529.156,454.589,528.405,455.486,527.415,455.572L527.415,455.572z"/>
<path xmlns="http://www.w3.org/2000/svg" xmlns:ns1="http://ns.adobe.com/AdobeIllustrator/10.0/" ns1:knockout="Off" fill-rule="evenodd" clip-rule="evenodd" fill="none" stroke="#000000" stroke-width="0.504" stroke-miterlimit="2.4142" d="      M528.639,469.531c-0.991,0.087-1.888-0.665-1.975-1.655c-0.088-0.99,0.666-1.887,1.658-1.974      c0.987-0.087,1.886,0.665,1.971,1.655C530.381,468.548,529.627,469.443,528.639,469.531L528.639,469.531z"/>
<path xmlns="http://www.w3.org/2000/svg" xmlns:ns1="http://ns.adobe.com/AdobeIllustrator/10.0/" ns1:knockout="Off" fill-rule="evenodd" clip-rule="evenodd" fill="none" stroke="#000000" stroke-width="0.504" stroke-miterlimit="2.4142" d="      M529.86,483.489c-0.992,0.087-1.891-0.665-1.976-1.655c-0.087-0.99,0.664-1.886,1.655-1.974      c0.991-0.085,1.888,0.665,1.975,1.654C531.602,482.508,530.849,483.402,529.86,483.489L529.86,483.489z"/>
<path xmlns="http://www.w3.org/2000/svg" xmlns:ns1="http://ns.adobe.com/AdobeIllustrator/10.0/" ns1:knockout="Off" fill-rule="evenodd" clip-rule="evenodd" fill="none" stroke="#000000" stroke-width="0.504" stroke-miterlimit="2.4142" d="      M531.081,497.448c-0.992,0.087-1.889-0.666-1.976-1.656s0.667-1.886,1.658-1.974c0.988-0.085,1.884,0.667,1.972,1.657      C532.822,496.466,532.068,497.362,531.081,497.448L531.081,497.448z"/>
</g>
</switch>
</svg>