<?xml version="1.0" encoding="utf-8"?>
<!DOCTYPE svg PUBLIC "-//W3C//DTD SVG 1.1//EN" "http://www.w3.org/Graphics/SVG/1.1/DTD/svg11.dtd" [
	<!ENTITY ns_extend "http://ns.adobe.com/Extensibility/1.0/">
	<!ENTITY ns_ai "http://ns.adobe.com/AdobeIllustrator/10.0/">
	<!ENTITY ns_graphs "http://ns.adobe.com/Graphs/1.0/">
	<!ENTITY ns_vars "http://ns.adobe.com/Variables/1.0/">
	<!ENTITY ns_imrep "http://ns.adobe.com/ImageReplacement/1.0/">
	<!ENTITY ns_sfw "http://ns.adobe.com/SaveForWeb/1.0/">
	<!ENTITY ns_custom "http://ns.adobe.com/GenericCustomNamespace/1.0/">
	<!ENTITY ns_adobe_xpath "http://ns.adobe.com/XPath/1.0/">
]>
<svg version="1.1" id="Internal_Structure" xmlns:x="&ns_extend;" xmlns:i="&ns_ai;" xmlns:graph="&ns_graphs;"
	 xmlns="http://www.w3.org/2000/svg" xmlns:xlink="http://www.w3.org/1999/xlink" x="0px" y="0px" width="612px" height="792px"
	 viewBox="0 0 612 792" enable-background="new 0 0 612 792" xml:space="preserve">
<switch>
<g i:extraneous="self">
<path xmlns="http://www.w3.org/2000/svg" xmlns:ns1="http://ns.adobe.com/AdobeIllustrator/10.0/" ns1:knockout="Off" fill-rule="evenodd" clip-rule="evenodd" fill="none" stroke="#000000" stroke-width="0.504" stroke-miterlimit="2.4142" d="      M497.06,489.92c-0.976,0.19-1.946-0.464-2.137-1.439c-0.191-0.977,0.466-1.946,1.441-2.136c0.975-0.19,1.945,0.464,2.136,1.44      C498.689,488.761,498.035,489.731,497.06,489.92L497.06,489.92z"/>
<path xmlns="http://www.w3.org/2000/svg" xmlns:ns1="http://ns.adobe.com/AdobeIllustrator/10.0/" ns1:knockout="Off" fill-rule="evenodd" clip-rule="evenodd" fill="none" stroke="#000000" stroke-width="0.504" stroke-miterlimit="2.4142" d="      M498.126,495.393c-0.979,0.189-1.949-0.465-2.138-1.439c-0.191-0.977,0.463-1.947,1.441-2.137      c0.976-0.189,1.943,0.465,2.134,1.439C499.752,494.232,499.098,495.203,498.126,495.393L498.126,495.393z"/>
<path xmlns="http://www.w3.org/2000/svg" xmlns:ns1="http://ns.adobe.com/AdobeIllustrator/10.0/" ns1:knockout="Off" fill-rule="evenodd" clip-rule="evenodd" fill="none" stroke="#000000" stroke-width="0.504" stroke-miterlimit="2.4142" d="      M499.187,500.865c-0.975,0.188-1.946-0.466-2.138-1.441c-0.188-0.975,0.467-1.943,1.442-2.133      c0.975-0.191,1.945,0.463,2.137,1.438C500.816,499.705,500.162,500.675,499.187,500.865L499.187,500.865z"/>
<path xmlns="http://www.w3.org/2000/svg" xmlns:ns1="http://ns.adobe.com/AdobeIllustrator/10.0/" ns1:knockout="Off" fill-rule="evenodd" clip-rule="evenodd" fill="none" stroke="#000000" stroke-width="0.504" stroke-miterlimit="2.4142" d="      M500.25,506.338c-0.976,0.188-1.946-0.465-2.135-1.441c-0.191-0.976,0.463-1.945,1.442-2.135c0.975-0.19,1.942,0.464,2.133,1.44      C501.882,505.178,501.228,506.148,500.25,506.338L500.25,506.338z"/>
<path xmlns="http://www.w3.org/2000/svg" xmlns:ns1="http://ns.adobe.com/AdobeIllustrator/10.0/" ns1:knockout="Off" fill-rule="evenodd" clip-rule="evenodd" fill="none" stroke="#000000" stroke-width="0.504" stroke-miterlimit="2.4142" d="      M501.315,511.811c-0.976,0.189-1.946-0.465-2.138-1.44c-0.188-0.976,0.467-1.945,1.442-2.136      c0.975-0.189,1.945,0.464,2.134,1.44C502.944,510.65,502.291,511.621,501.315,511.811L501.315,511.811z"/>
<path xmlns="http://www.w3.org/2000/svg" xmlns:ns1="http://ns.adobe.com/AdobeIllustrator/10.0/" ns1:knockout="Off" fill-rule="evenodd" clip-rule="evenodd" fill="none" stroke="#000000" stroke-width="0.504" stroke-miterlimit="2.4142" d="      M502.381,517.281c-0.979,0.191-1.95-0.463-2.141-1.438c-0.188-0.976,0.467-1.946,1.445-2.137      c0.975-0.188,1.941,0.465,2.133,1.44C504.01,516.123,503.353,517.094,502.381,517.281L502.381,517.281z"/>
<path xmlns="http://www.w3.org/2000/svg" xmlns:ns1="http://ns.adobe.com/AdobeIllustrator/10.0/" ns1:knockout="Off" fill-rule="evenodd" clip-rule="evenodd" fill="none" stroke="#000000" stroke-width="0.504" stroke-miterlimit="2.4142" d="      M503.442,522.755c-0.979,0.188-1.946-0.464-2.138-1.438c-0.188-0.977,0.467-1.947,1.442-2.136      c0.975-0.191,1.945,0.463,2.137,1.439C505.071,521.597,504.419,522.564,503.442,522.755L503.442,522.755z"/>
<path xmlns="http://www.w3.org/2000/svg" xmlns:ns1="http://ns.adobe.com/AdobeIllustrator/10.0/" ns1:knockout="Off" fill-rule="evenodd" clip-rule="evenodd" fill="none" stroke="#000000" stroke-width="0.504" stroke-miterlimit="2.4142" d="      M504.508,528.228c-0.979,0.189-1.95-0.464-2.138-1.44c-0.191-0.976,0.464-1.944,1.442-2.136c0.975-0.189,1.945,0.465,2.133,1.44      C506.137,527.066,505.482,528.037,504.508,528.228L504.508,528.228z"/>
<path xmlns="http://www.w3.org/2000/svg" xmlns:ns1="http://ns.adobe.com/AdobeIllustrator/10.0/" ns1:knockout="Off" fill-rule="evenodd" clip-rule="evenodd" fill="none" stroke="#000000" stroke-width="0.504" stroke-miterlimit="2.4142" d="      M505.569,533.699c-0.976,0.189-1.946-0.463-2.138-1.439c-0.188-0.977,0.467-1.946,1.442-2.136      c0.977-0.188,1.945,0.464,2.137,1.439C507.198,532.541,506.544,533.51,505.569,533.699L505.569,533.699z"/>
<path xmlns="http://www.w3.org/2000/svg" xmlns:ns1="http://ns.adobe.com/AdobeIllustrator/10.0/" ns1:knockout="Off" fill-rule="evenodd" clip-rule="evenodd" fill="none" stroke="#000000" stroke-width="0.504" stroke-miterlimit="2.4142" d="      M506.635,539.172c-0.979,0.191-1.95-0.463-2.138-1.438c-0.19-0.979,0.466-1.946,1.441-2.137      c0.976-0.189,1.945,0.465,2.134,1.441C508.264,538.014,507.609,538.983,506.635,539.172L506.635,539.172z"/>
<path xmlns="http://www.w3.org/2000/svg" xmlns:ns1="http://ns.adobe.com/AdobeIllustrator/10.0/" ns1:knockout="Off" fill-rule="evenodd" clip-rule="evenodd" fill="none" stroke="#000000" stroke-width="0.504" stroke-miterlimit="2.4142" d="      M507.699,544.646c-0.978,0.189-1.948-0.464-2.139-1.44c-0.188-0.976,0.466-1.945,1.441-2.137      c0.975-0.188,1.947,0.466,2.137,1.441C509.326,543.485,508.673,544.456,507.699,544.646L507.699,544.646z"/>
<path xmlns="http://www.w3.org/2000/svg" xmlns:ns1="http://ns.adobe.com/AdobeIllustrator/10.0/" ns1:knockout="Off" fill-rule="evenodd" clip-rule="evenodd" fill="none" stroke="#000000" stroke-width="0.504" stroke-miterlimit="2.4142" d="      M508.763,550.114c-0.979,0.192-1.949-0.462-2.138-1.438c-0.191-0.977,0.466-1.945,1.441-2.134      c0.976-0.19,1.945,0.463,2.134,1.438C510.392,548.956,509.737,549.927,508.763,550.114L508.763,550.114z"/>
<path xmlns="http://www.w3.org/2000/svg" xmlns:ns1="http://ns.adobe.com/AdobeIllustrator/10.0/" ns1:knockout="Off" fill-rule="evenodd" clip-rule="evenodd" fill="none" stroke="#000000" stroke-width="0.504" stroke-miterlimit="2.4142" d="      M509.824,555.59c-0.976,0.188-1.946-0.466-2.138-1.44c-0.188-0.977,0.467-1.946,1.445-2.136c0.972-0.19,1.942,0.464,2.134,1.439      C511.453,554.428,510.8,555.399,509.824,555.59L509.824,555.59z"/>
<path xmlns="http://www.w3.org/2000/svg" xmlns:ns1="http://ns.adobe.com/AdobeIllustrator/10.0/" ns1:knockout="Off" fill-rule="evenodd" clip-rule="evenodd" fill="none" stroke="#000000" stroke-width="0.504" stroke-miterlimit="2.4142" d="      M510.891,557.484c-0.979-0.188-1.949,0.466-2.138,1.443c-0.191,0.976,0.467,1.946,1.441,2.134      c0.976,0.188,1.946-0.465,2.134-1.438C512.52,558.646,511.865,557.676,510.891,557.484L510.891,557.484z"/>
<path xmlns="http://www.w3.org/2000/svg" xmlns:ns1="http://ns.adobe.com/AdobeIllustrator/10.0/" ns1:knockout="Off" fill-rule="evenodd" clip-rule="evenodd" fill="none" stroke="#000000" stroke-width="0.504" stroke-miterlimit="2.4142" d="      M511.954,562.957c-0.979-0.188-1.949,0.466-2.138,1.443c-0.191,0.976,0.467,1.946,1.441,2.134      c0.976,0.188,1.946-0.465,2.134-1.438C513.583,564.118,512.929,563.148,511.954,562.957L511.954,562.957z"/>
<path xmlns="http://www.w3.org/2000/svg" xmlns:ns1="http://ns.adobe.com/AdobeIllustrator/10.0/" ns1:knockout="Off" fill-rule="evenodd" clip-rule="evenodd" fill="none" stroke="#000000" stroke-width="0.504" stroke-miterlimit="2.4142" d="      M513.015,572.006c-0.976,0.192-1.946-0.462-2.135-1.438c-0.19-0.976,0.464-1.946,1.439-2.137      c0.978-0.188,1.944,0.465,2.137,1.441C514.646,570.848,513.989,571.817,513.015,572.006L513.015,572.006z"/>
</g>
</switch>
</svg>