<?xml version="1.0" encoding="utf-8"?>
<!DOCTYPE svg PUBLIC "-//W3C//DTD SVG 1.1//EN" "http://www.w3.org/Graphics/SVG/1.1/DTD/svg11.dtd" [
	<!ENTITY ns_extend "http://ns.adobe.com/Extensibility/1.0/">
	<!ENTITY ns_ai "http://ns.adobe.com/AdobeIllustrator/10.0/">
	<!ENTITY ns_graphs "http://ns.adobe.com/Graphs/1.0/">
	<!ENTITY ns_vars "http://ns.adobe.com/Variables/1.0/">
	<!ENTITY ns_imrep "http://ns.adobe.com/ImageReplacement/1.0/">
	<!ENTITY ns_sfw "http://ns.adobe.com/SaveForWeb/1.0/">
	<!ENTITY ns_custom "http://ns.adobe.com/GenericCustomNamespace/1.0/">
	<!ENTITY ns_adobe_xpath "http://ns.adobe.com/XPath/1.0/">
]>
<svg version="1.1" id="Internal_Structure" xmlns:x="&ns_extend;" xmlns:i="&ns_ai;" xmlns:graph="&ns_graphs;"
	 xmlns="http://www.w3.org/2000/svg" xmlns:xlink="http://www.w3.org/1999/xlink" x="0px" y="0px" width="612px" height="792px"
	 viewBox="0 0 612 792" enable-background="new 0 0 612 792" xml:space="preserve">
<switch>
<g i:extraneous="self">
<path xmlns="http://www.w3.org/2000/svg" xmlns:ns1="http://ns.adobe.com/AdobeIllustrator/10.0/" ns1:knockout="Off" fill-rule="evenodd" clip-rule="evenodd" fill="none" stroke="#000000" stroke-width="0.504" stroke-miterlimit="2.4142" d="      M433.866,426.504c0.99,0.087,1.888-0.666,1.975-1.656c0.086-0.989-0.667-1.887-1.657-1.974c-0.99-0.085-1.886,0.667-1.973,1.656      C432.125,425.52,432.877,426.417,433.866,426.504L433.866,426.504z"/>
<path xmlns="http://www.w3.org/2000/svg" xmlns:ns1="http://ns.adobe.com/AdobeIllustrator/10.0/" ns1:knockout="Off" fill-rule="evenodd" clip-rule="evenodd" fill="none" stroke="#000000" stroke-width="0.504" stroke-miterlimit="2.4142" d="      M429.193,430.236c0.991,0.086,1.889-0.666,1.976-1.656c0.086-0.989-0.666-1.886-1.658-1.974      c-0.989-0.086-1.885,0.666-1.973,1.656C427.452,429.253,428.204,430.15,429.193,430.236L429.193,430.236z"/>
<path xmlns="http://www.w3.org/2000/svg" xmlns:ns1="http://ns.adobe.com/AdobeIllustrator/10.0/" ns1:knockout="Off" fill-rule="evenodd" clip-rule="evenodd" fill="none" stroke="#000000" stroke-width="0.504" stroke-miterlimit="2.4142" d="      M433.026,436.093c0.991,0.087,1.889-0.665,1.975-1.655c0.087-0.989-0.666-1.887-1.656-1.973      c-0.989-0.087-1.886,0.666-1.973,1.654C431.285,435.11,432.037,436.006,433.026,436.093L433.026,436.093z"/>
<path xmlns="http://www.w3.org/2000/svg" xmlns:ns1="http://ns.adobe.com/AdobeIllustrator/10.0/" ns1:knockout="Off" fill-rule="evenodd" clip-rule="evenodd" fill="none" stroke="#000000" stroke-width="0.504" stroke-miterlimit="2.4142" d="      M428.54,440.024c0.991,0.086,1.89-0.666,1.976-1.655c0.086-0.991-0.667-1.888-1.658-1.974c-0.988-0.087-1.886,0.665-1.972,1.656      C426.799,439.041,427.551,439.938,428.54,440.024L428.54,440.024z"/>
<path xmlns="http://www.w3.org/2000/svg" xmlns:ns1="http://ns.adobe.com/AdobeIllustrator/10.0/" ns1:knockout="Off" fill-rule="evenodd" clip-rule="evenodd" fill="none" stroke="#000000" stroke-width="0.504" stroke-miterlimit="2.4142" d="      M432.188,445.684c0.99,0.086,1.888-0.666,1.975-1.655c0.086-0.99-0.666-1.888-1.657-1.975c-0.99-0.086-1.886,0.667-1.973,1.657      C430.446,444.7,431.199,445.598,432.188,445.684L432.188,445.684z"/>
<path xmlns="http://www.w3.org/2000/svg" xmlns:ns1="http://ns.adobe.com/AdobeIllustrator/10.0/" ns1:knockout="Off" fill-rule="evenodd" clip-rule="evenodd" fill="none" stroke="#000000" stroke-width="0.504" stroke-miterlimit="2.4142" d="      M427.888,449.813c0.99,0.086,1.888-0.666,1.975-1.656s-0.666-1.887-1.657-1.973c-0.989-0.088-1.886,0.666-1.973,1.656      C426.146,448.83,426.897,449.725,427.888,449.813L427.888,449.813z"/>
<path xmlns="http://www.w3.org/2000/svg" xmlns:ns1="http://ns.adobe.com/AdobeIllustrator/10.0/" ns1:knockout="Off" fill-rule="evenodd" clip-rule="evenodd" fill="none" stroke="#000000" stroke-width="0.504" stroke-miterlimit="2.4142" d="      M431.349,455.273c0.992,0.086,1.89-0.665,1.976-1.655c0.086-0.991-0.667-1.887-1.658-1.974      c-0.988-0.086-1.886,0.665-1.972,1.656C429.607,454.29,430.359,455.188,431.349,455.273L431.349,455.273z"/>
<path xmlns="http://www.w3.org/2000/svg" xmlns:ns1="http://ns.adobe.com/AdobeIllustrator/10.0/" ns1:knockout="Off" fill-rule="evenodd" clip-rule="evenodd" fill="none" stroke="#000000" stroke-width="0.504" stroke-miterlimit="2.4142" d="      M427.234,459.601c0.99,0.086,1.889-0.666,1.975-1.655c0.088-0.991-0.666-1.887-1.658-1.974      c-0.988-0.087-1.885,0.665-1.971,1.655C425.492,458.617,426.244,459.514,427.234,459.601L427.234,459.601z"/>
<path xmlns="http://www.w3.org/2000/svg" xmlns:ns1="http://ns.adobe.com/AdobeIllustrator/10.0/" ns1:knockout="Off" fill-rule="evenodd" clip-rule="evenodd" fill="none" stroke="#000000" stroke-width="0.504" stroke-miterlimit="2.4142" d="      M430.51,464.863c0.991,0.086,1.889-0.666,1.976-1.656c0.086-0.99-0.667-1.887-1.658-1.973c-0.989-0.088-1.886,0.666-1.973,1.654      C428.769,463.879,429.52,464.775,430.51,464.863L430.51,464.863z"/>
<path xmlns="http://www.w3.org/2000/svg" xmlns:ns1="http://ns.adobe.com/AdobeIllustrator/10.0/" ns1:knockout="Off" fill-rule="evenodd" clip-rule="evenodd" fill="none" stroke="#000000" stroke-width="0.504" stroke-miterlimit="2.4142" d="      M426.581,469.389c0.991,0.087,1.888-0.666,1.975-1.656c0.086-0.989-0.666-1.886-1.657-1.974      c-0.989-0.086-1.886,0.666-1.972,1.656C424.84,468.406,425.592,469.302,426.581,469.389L426.581,469.389z"/>
<path xmlns="http://www.w3.org/2000/svg" xmlns:ns1="http://ns.adobe.com/AdobeIllustrator/10.0/" ns1:knockout="Off" fill-rule="evenodd" clip-rule="evenodd" fill="none" stroke="#000000" stroke-width="0.504" stroke-miterlimit="2.4142" d="      M429.671,474.452c0.991,0.087,1.889-0.667,1.976-1.656c0.086-0.988-0.667-1.886-1.658-1.973      c-0.989-0.087-1.886,0.666-1.973,1.655C427.93,473.469,428.682,474.365,429.671,474.452L429.671,474.452z"/>
<path xmlns="http://www.w3.org/2000/svg" xmlns:ns1="http://ns.adobe.com/AdobeIllustrator/10.0/" ns1:knockout="Off" fill-rule="evenodd" clip-rule="evenodd" fill="none" stroke="#000000" stroke-width="0.504" stroke-miterlimit="2.4142" d="      M425.93,479.176c0.99,0.087,1.888-0.665,1.974-1.655c0.087-0.99-0.666-1.888-1.657-1.974c-0.988-0.086-1.885,0.666-1.972,1.656      C424.188,478.192,424.94,479.089,425.93,479.176L425.93,479.176z"/>
<path xmlns="http://www.w3.org/2000/svg" xmlns:ns1="http://ns.adobe.com/AdobeIllustrator/10.0/" ns1:knockout="Off" fill-rule="evenodd" clip-rule="evenodd" fill="none" stroke="#000000" stroke-width="0.504" stroke-miterlimit="2.4142" d="      M428.832,484.042c0.991,0.087,1.888-0.666,1.975-1.656s-0.667-1.886-1.657-1.972c-0.989-0.088-1.886,0.665-1.973,1.654      C427.091,483.059,427.843,483.956,428.832,484.042L428.832,484.042z"/>
<path xmlns="http://www.w3.org/2000/svg" xmlns:ns1="http://ns.adobe.com/AdobeIllustrator/10.0/" ns1:knockout="Off" fill-rule="evenodd" clip-rule="evenodd" fill="none" stroke="#000000" stroke-width="0.504" stroke-miterlimit="2.4142" d="      M425.275,488.965c0.991,0.087,1.888-0.666,1.975-1.656s-0.666-1.887-1.657-1.974c-0.989-0.087-1.886,0.665-1.972,1.656      C423.534,487.98,424.286,488.878,425.275,488.965L425.275,488.965z"/>
<path xmlns="http://www.w3.org/2000/svg" xmlns:ns1="http://ns.adobe.com/AdobeIllustrator/10.0/" ns1:knockout="Off" fill-rule="evenodd" clip-rule="evenodd" fill="none" stroke="#000000" stroke-width="0.504" stroke-miterlimit="2.4142" d="      M425.35,495.508c0.99,0.087,1.888-0.666,1.974-1.655c0.087-0.991-0.666-1.887-1.657-1.974c-0.988-0.088-1.885,0.665-1.972,1.655      C423.608,494.524,424.36,495.421,425.35,495.508L425.35,495.508z"/>
</g>
</switch>
</svg>