<?xml version="1.0" encoding="utf-8"?>
<!DOCTYPE svg PUBLIC "-//W3C//DTD SVG 1.1//EN" "http://www.w3.org/Graphics/SVG/1.1/DTD/svg11.dtd" [
	<!ENTITY ns_extend "http://ns.adobe.com/Extensibility/1.0/">
	<!ENTITY ns_ai "http://ns.adobe.com/AdobeIllustrator/10.0/">
	<!ENTITY ns_graphs "http://ns.adobe.com/Graphs/1.0/">
	<!ENTITY ns_vars "http://ns.adobe.com/Variables/1.0/">
	<!ENTITY ns_imrep "http://ns.adobe.com/ImageReplacement/1.0/">
	<!ENTITY ns_sfw "http://ns.adobe.com/SaveForWeb/1.0/">
	<!ENTITY ns_custom "http://ns.adobe.com/GenericCustomNamespace/1.0/">
	<!ENTITY ns_adobe_xpath "http://ns.adobe.com/XPath/1.0/">
]>
<svg version="1.1" id="Internal_Structure" xmlns:x="&ns_extend;" xmlns:i="&ns_ai;" xmlns:graph="&ns_graphs;"
	 xmlns="http://www.w3.org/2000/svg" xmlns:xlink="http://www.w3.org/1999/xlink" x="0px" y="0px" width="612px" height="792px"
	 viewBox="0 0 612 792" enable-background="new 0 0 612 792" xml:space="preserve">
<switch>
<g i:extraneous="self">
<path xmlns="http://www.w3.org/2000/svg" xmlns:ns1="http://ns.adobe.com/AdobeIllustrator/10.0/" ns1:knockout="Off" fill-rule="evenodd" clip-rule="evenodd" fill="none" stroke="#000000" stroke-width="0.504" stroke-miterlimit="2.4142" d="      M449.567,429.974c-0.995,0-1.824-0.828-1.824-1.823c0-0.992,0.829-1.82,1.824-1.82c0.992,0,1.818,0.828,1.818,1.82      C451.386,429.146,450.56,429.974,449.567,429.974L449.567,429.974z"/>
<path xmlns="http://www.w3.org/2000/svg" xmlns:ns1="http://ns.adobe.com/AdobeIllustrator/10.0/" ns1:knockout="Off" fill-rule="evenodd" clip-rule="evenodd" fill="none" stroke="#000000" stroke-width="0.504" stroke-miterlimit="2.4142" d="      M461.072,429.974c-0.996,0-1.824-0.828-1.824-1.823c0-0.992,0.828-1.82,1.824-1.82c0.992,0,1.821,0.828,1.821,1.82      C462.894,429.146,462.064,429.974,461.072,429.974L461.072,429.974z"/>
<path xmlns="http://www.w3.org/2000/svg" xmlns:ns1="http://ns.adobe.com/AdobeIllustrator/10.0/" ns1:knockout="Off" fill-rule="evenodd" clip-rule="evenodd" fill="none" stroke="#000000" stroke-width="0.504" stroke-miterlimit="2.4142" d="      M455.228,438.477c-0.993,0-1.821-0.828-1.821-1.822c0-0.992,0.828-1.821,1.821-1.821c0.995,0,1.82,0.829,1.82,1.821      C457.048,437.648,456.223,438.477,455.228,438.477L455.228,438.477z"/>
<path xmlns="http://www.w3.org/2000/svg" xmlns:ns1="http://ns.adobe.com/AdobeIllustrator/10.0/" ns1:knockout="Off" fill-rule="evenodd" clip-rule="evenodd" fill="none" stroke="#000000" stroke-width="0.504" stroke-miterlimit="2.4142" d="      M449.567,445.502c-0.995,0-1.824-0.828-1.824-1.821s0.829-1.821,1.824-1.821c0.992,0,1.818,0.828,1.818,1.821      S450.56,445.502,449.567,445.502L449.567,445.502z"/>
<path xmlns="http://www.w3.org/2000/svg" xmlns:ns1="http://ns.adobe.com/AdobeIllustrator/10.0/" ns1:knockout="Off" fill-rule="evenodd" clip-rule="evenodd" fill="none" stroke="#000000" stroke-width="0.504" stroke-miterlimit="2.4142" d="      M461.072,445.502c-0.996,0-1.824-0.828-1.824-1.821s0.828-1.821,1.824-1.821c0.992,0,1.821,0.828,1.821,1.821      S462.064,445.502,461.072,445.502L461.072,445.502z"/>
<path xmlns="http://www.w3.org/2000/svg" xmlns:ns1="http://ns.adobe.com/AdobeIllustrator/10.0/" ns1:knockout="Off" fill-rule="evenodd" clip-rule="evenodd" fill="none" stroke="#000000" stroke-width="0.504" stroke-miterlimit="2.4142" d="     M461.072,452.526c-0.996,0-1.824-0.828-1.824-1.821s0.828-1.821,1.824-1.821c0.992,0,1.821,0.828,1.821,1.821     S462.064,452.526,461.072,452.526L461.072,452.526z"/>
<path xmlns="http://www.w3.org/2000/svg" xmlns:ns1="http://ns.adobe.com/AdobeIllustrator/10.0/" ns1:knockout="Off" fill-rule="evenodd" clip-rule="evenodd" fill="none" stroke="#000000" stroke-width="0.504" stroke-miterlimit="2.4142" d="     M462.652,459.552c-0.993,0-1.821-0.827-1.821-1.821c0-0.993,0.828-1.821,1.821-1.821c0.995,0,1.82,0.828,1.82,1.821     C464.473,458.725,463.647,459.552,462.652,459.552L462.652,459.552z"/>
<path xmlns="http://www.w3.org/2000/svg" xmlns:ns1="http://ns.adobe.com/AdobeIllustrator/10.0/" ns1:knockout="Off" fill-rule="evenodd" clip-rule="evenodd" fill="none" stroke="#000000" stroke-width="0.504" stroke-miterlimit="2.4142" d="     M463.051,466.578c-0.996,0-1.824-0.828-1.824-1.822s0.828-1.822,1.824-1.822c0.992,0,1.818,0.828,1.818,1.822     S464.043,466.578,463.051,466.578L463.051,466.578z"/>
<path xmlns="http://www.w3.org/2000/svg" xmlns:ns1="http://ns.adobe.com/AdobeIllustrator/10.0/" ns1:knockout="Off" fill-rule="evenodd" clip-rule="evenodd" fill="none" stroke="#000000" stroke-width="0.504" stroke-miterlimit="2.4142" d="     M464.56,473.601c-0.992,0-1.82-0.828-1.82-1.822c0-0.993,0.828-1.819,1.82-1.819c0.995,0,1.821,0.826,1.821,1.819     C466.381,472.772,465.555,473.601,464.56,473.601L464.56,473.601z"/>
<path xmlns="http://www.w3.org/2000/svg" xmlns:ns1="http://ns.adobe.com/AdobeIllustrator/10.0/" ns1:knockout="Off" fill-rule="evenodd" clip-rule="evenodd" fill="none" stroke="#000000" stroke-width="0.504" stroke-miterlimit="2.4142" d="     M455.547,480.627c-0.995,0-1.824-0.827-1.824-1.821s0.829-1.821,1.824-1.821c0.992,0,1.82,0.827,1.82,1.821     S456.539,480.627,455.547,480.627L455.547,480.627z"/>
<path xmlns="http://www.w3.org/2000/svg" xmlns:ns1="http://ns.adobe.com/AdobeIllustrator/10.0/" ns1:knockout="Off" fill-rule="evenodd" clip-rule="evenodd" fill="none" stroke="#000000" stroke-width="0.504" stroke-miterlimit="2.4142" d="     M464.557,480.627c0.995,0,1.824-0.828,1.824-1.823c0-0.992-0.829-1.82-1.824-1.82c-0.992,0-1.82,0.828-1.82,1.82     C462.736,479.799,463.564,480.627,464.557,480.627L464.557,480.627z"/>
</g>
</switch>
</svg>