<?xml version="1.0" encoding="utf-8"?>
<!DOCTYPE svg PUBLIC "-//W3C//DTD SVG 1.1//EN" "http://www.w3.org/Graphics/SVG/1.1/DTD/svg11.dtd" [
	<!ENTITY ns_extend "http://ns.adobe.com/Extensibility/1.0/">
	<!ENTITY ns_ai "http://ns.adobe.com/AdobeIllustrator/10.0/">
	<!ENTITY ns_graphs "http://ns.adobe.com/Graphs/1.0/">
	<!ENTITY ns_vars "http://ns.adobe.com/Variables/1.0/">
	<!ENTITY ns_imrep "http://ns.adobe.com/ImageReplacement/1.0/">
	<!ENTITY ns_sfw "http://ns.adobe.com/SaveForWeb/1.0/">
	<!ENTITY ns_custom "http://ns.adobe.com/GenericCustomNamespace/1.0/">
	<!ENTITY ns_adobe_xpath "http://ns.adobe.com/XPath/1.0/">
]>
<svg version="1.1" id="Internal_Structure" xmlns:x="&ns_extend;" xmlns:i="&ns_ai;" xmlns:graph="&ns_graphs;"
	 xmlns="http://www.w3.org/2000/svg" xmlns:xlink="http://www.w3.org/1999/xlink" x="0px" y="0px" width="612px" height="792px"
	 viewBox="0 0 612 792" enable-background="new 0 0 612 792" xml:space="preserve">
<switch>
<g i:extraneous="self">
<path xmlns="http://www.w3.org/2000/svg" xmlns:ns1="http://ns.adobe.com/AdobeIllustrator/10.0/" ns1:knockout="Off" fill-rule="evenodd" clip-rule="evenodd" fill="none" stroke="#000000" stroke-width="0.504" stroke-miterlimit="2.4142" d="      M495.486,428.1c0.994,0,1.822-0.828,1.822-1.822c0-0.993-0.828-1.821-1.822-1.821c-0.993,0-1.821,0.828-1.821,1.821      C493.665,427.271,494.493,428.1,495.486,428.1L495.486,428.1z"/>
<path xmlns="http://www.w3.org/2000/svg" xmlns:ns1="http://ns.adobe.com/AdobeIllustrator/10.0/" ns1:knockout="Off" fill-rule="evenodd" clip-rule="evenodd" fill="none" stroke="#000000" stroke-width="0.504" stroke-miterlimit="2.4142" d="      M501.329,428.1c0.995,0,1.823-0.828,1.823-1.822c0-0.993-0.828-1.821-1.823-1.821c-0.993,0-1.82,0.828-1.82,1.821      C499.509,427.271,500.336,428.1,501.329,428.1L501.329,428.1z"/>
<path xmlns="http://www.w3.org/2000/svg" xmlns:ns1="http://ns.adobe.com/AdobeIllustrator/10.0/" ns1:knockout="Off" fill-rule="evenodd" clip-rule="evenodd" fill="none" stroke="#000000" stroke-width="0.504" stroke-miterlimit="2.4142" d="      M506.991,428.1c0.995,0,1.823-0.828,1.823-1.822c0-0.993-0.828-1.821-1.823-1.821c-0.993,0-1.82,0.828-1.82,1.821      C505.171,427.271,505.998,428.1,506.991,428.1L506.991,428.1z"/>
<path xmlns="http://www.w3.org/2000/svg" xmlns:ns1="http://ns.adobe.com/AdobeIllustrator/10.0/" ns1:knockout="Off" fill-rule="evenodd" clip-rule="evenodd" fill="none" stroke="#000000" stroke-width="0.504" stroke-miterlimit="2.4142" d="      M495.486,433.577c0.994,0,1.822-0.828,1.822-1.821s-0.828-1.821-1.822-1.821c-0.993,0-1.821,0.828-1.821,1.821      S494.493,433.577,495.486,433.577L495.486,433.577z"/>
<path xmlns="http://www.w3.org/2000/svg" xmlns:ns1="http://ns.adobe.com/AdobeIllustrator/10.0/" ns1:knockout="Off" fill-rule="evenodd" clip-rule="evenodd" fill="none" stroke="#000000" stroke-width="0.504" stroke-miterlimit="2.4142" d="      M501.329,433.577c0.995,0,1.823-0.828,1.823-1.821s-0.828-1.821-1.823-1.821c-0.993,0-1.82,0.828-1.82,1.821      S500.336,433.577,501.329,433.577L501.329,433.577z"/>
<path xmlns="http://www.w3.org/2000/svg" xmlns:ns1="http://ns.adobe.com/AdobeIllustrator/10.0/" ns1:knockout="Off" fill-rule="evenodd" clip-rule="evenodd" fill="none" stroke="#000000" stroke-width="0.504" stroke-miterlimit="2.4142" d="      M506.991,433.577c0.995,0,1.823-0.828,1.823-1.821s-0.828-1.821-1.823-1.821c-0.993,0-1.82,0.828-1.82,1.821      S505.998,433.577,506.991,433.577L506.991,433.577z"/>
<path xmlns="http://www.w3.org/2000/svg" xmlns:ns1="http://ns.adobe.com/AdobeIllustrator/10.0/" ns1:knockout="Off" fill-rule="evenodd" clip-rule="evenodd" fill="none" stroke="#000000" stroke-width="0.504" stroke-miterlimit="2.4142" d="      M495.486,439.13c0.994,0,1.822-0.828,1.822-1.822c0-0.993-0.828-1.821-1.822-1.821c-0.993,0-1.821,0.828-1.821,1.821      C493.665,438.302,494.493,439.13,495.486,439.13L495.486,439.13z"/>
<path xmlns="http://www.w3.org/2000/svg" xmlns:ns1="http://ns.adobe.com/AdobeIllustrator/10.0/" ns1:knockout="Off" fill-rule="evenodd" clip-rule="evenodd" fill="none" stroke="#000000" stroke-width="0.504" stroke-miterlimit="2.4142" d="      M501.329,439.13c0.995,0,1.823-0.828,1.823-1.822c0-0.993-0.828-1.821-1.823-1.821c-0.993,0-1.82,0.828-1.82,1.821      C499.509,438.302,500.336,439.13,501.329,439.13L501.329,439.13z"/>
<path xmlns="http://www.w3.org/2000/svg" xmlns:ns1="http://ns.adobe.com/AdobeIllustrator/10.0/" ns1:knockout="Off" fill-rule="evenodd" clip-rule="evenodd" fill="none" stroke="#000000" stroke-width="0.504" stroke-miterlimit="2.4142" d="      M506.991,439.13c0.995,0,1.823-0.828,1.823-1.822c0-0.993-0.828-1.821-1.823-1.821c-0.993,0-1.82,0.828-1.82,1.821      C505.171,438.302,505.998,439.13,506.991,439.13L506.991,439.13z"/>
<path xmlns="http://www.w3.org/2000/svg" xmlns:ns1="http://ns.adobe.com/AdobeIllustrator/10.0/" ns1:knockout="Off" fill-rule="evenodd" clip-rule="evenodd" fill="none" stroke="#000000" stroke-width="0.504" stroke-miterlimit="2.4142" d="      M495.486,444.682c0.994,0,1.822-0.829,1.822-1.822s-0.828-1.821-1.822-1.821c-0.993,0-1.821,0.828-1.821,1.821      S494.493,444.682,495.486,444.682L495.486,444.682z"/>
<path xmlns="http://www.w3.org/2000/svg" xmlns:ns1="http://ns.adobe.com/AdobeIllustrator/10.0/" ns1:knockout="Off" fill-rule="evenodd" clip-rule="evenodd" fill="none" stroke="#000000" stroke-width="0.504" stroke-miterlimit="2.4142" d="      M501.329,444.682c0.995,0,1.823-0.829,1.823-1.822s-0.828-1.821-1.823-1.821c-0.993,0-1.82,0.828-1.82,1.821      S500.336,444.682,501.329,444.682L501.329,444.682z"/>
<path xmlns="http://www.w3.org/2000/svg" xmlns:ns1="http://ns.adobe.com/AdobeIllustrator/10.0/" ns1:knockout="Off" fill-rule="evenodd" clip-rule="evenodd" fill="none" stroke="#000000" stroke-width="0.504" stroke-miterlimit="2.4142" d="      M506.991,444.682c0.995,0,1.823-0.829,1.823-1.822s-0.828-1.821-1.823-1.821c-0.993,0-1.82,0.828-1.82,1.821      S505.998,444.682,506.991,444.682L506.991,444.682z"/>
<path xmlns="http://www.w3.org/2000/svg" xmlns:ns1="http://ns.adobe.com/AdobeIllustrator/10.0/" ns1:knockout="Off" fill-rule="evenodd" clip-rule="evenodd" fill="none" stroke="#000000" stroke-width="0.504" stroke-miterlimit="2.4142" d="      M495.486,453.26c0.996,0,1.824-0.828,1.824-1.821s-0.828-1.821-1.824-1.821c-0.992,0-1.821,0.828-1.821,1.821      S494.494,453.26,495.486,453.26L495.486,453.26z"/>
<path xmlns="http://www.w3.org/2000/svg" xmlns:ns1="http://ns.adobe.com/AdobeIllustrator/10.0/" ns1:knockout="Off" fill-rule="evenodd" clip-rule="evenodd" fill="none" stroke="#000000" stroke-width="0.504" stroke-miterlimit="2.4142" d="      M493.906,462.334c0.993,0,1.821-0.827,1.821-1.821c0-0.993-0.828-1.821-1.821-1.821c-0.995,0-1.82,0.828-1.82,1.821      C492.086,461.507,492.911,462.334,493.906,462.334L493.906,462.334z"/>
<path xmlns="http://www.w3.org/2000/svg" xmlns:ns1="http://ns.adobe.com/AdobeIllustrator/10.0/" ns1:knockout="Off" fill-rule="evenodd" clip-rule="evenodd" fill="none" stroke="#000000" stroke-width="0.504" stroke-miterlimit="2.4142" d="      M491.999,471.407c0.992,0,1.82-0.828,1.82-1.822c0-0.993-0.828-1.819-1.82-1.819c-0.995,0-1.821,0.826-1.821,1.819      C490.178,470.579,491.004,471.407,491.999,471.407L491.999,471.407z"/>
<path xmlns="http://www.w3.org/2000/svg" xmlns:ns1="http://ns.adobe.com/AdobeIllustrator/10.0/" ns1:knockout="Off" fill-rule="evenodd" clip-rule="evenodd" fill="none" stroke="#000000" stroke-width="0.504" stroke-miterlimit="2.4142" d="      M495.17,480.481c0.995,0,1.824-0.827,1.824-1.821s-0.829-1.821-1.824-1.821c-0.992,0-1.821,0.827-1.821,1.821      S494.178,480.481,495.17,480.481L495.17,480.481z"/>
<path xmlns="http://www.w3.org/2000/svg" xmlns:ns1="http://ns.adobe.com/AdobeIllustrator/10.0/" ns1:knockout="Off" fill-rule="evenodd" clip-rule="evenodd" fill="none" stroke="#000000" stroke-width="0.504" stroke-miterlimit="2.4142" d="      M501.012,480.481c0.995,0,1.824-0.827,1.824-1.821s-0.829-1.821-1.824-1.821c-0.992,0-1.82,0.827-1.82,1.821      S500.02,480.481,501.012,480.481L501.012,480.481z"/>
</g>
</switch>
</svg>