<?xml version="1.0" encoding="utf-8"?>
<!DOCTYPE svg PUBLIC "-//W3C//DTD SVG 1.1//EN" "http://www.w3.org/Graphics/SVG/1.1/DTD/svg11.dtd" [
	<!ENTITY ns_extend "http://ns.adobe.com/Extensibility/1.0/">
	<!ENTITY ns_ai "http://ns.adobe.com/AdobeIllustrator/10.0/">
	<!ENTITY ns_graphs "http://ns.adobe.com/Graphs/1.0/">
	<!ENTITY ns_vars "http://ns.adobe.com/Variables/1.0/">
	<!ENTITY ns_imrep "http://ns.adobe.com/ImageReplacement/1.0/">
	<!ENTITY ns_sfw "http://ns.adobe.com/SaveForWeb/1.0/">
	<!ENTITY ns_custom "http://ns.adobe.com/GenericCustomNamespace/1.0/">
	<!ENTITY ns_adobe_xpath "http://ns.adobe.com/XPath/1.0/">
]>
<svg version="1.1" id="Internal_Structure" xmlns:x="&ns_extend;" xmlns:i="&ns_ai;" xmlns:graph="&ns_graphs;"
	 xmlns="http://www.w3.org/2000/svg" xmlns:xlink="http://www.w3.org/1999/xlink" x="0px" y="0px" width="612px" height="792px"
	 viewBox="0 0 612 792" enable-background="new 0 0 612 792" xml:space="preserve">
<switch>
<g i:extraneous="self">
<path xmlns="http://www.w3.org/2000/svg" xmlns:ns1="http://ns.adobe.com/AdobeIllustrator/10.0/" ns1:knockout="Off" fill-rule="evenodd" clip-rule="evenodd" fill="none" stroke="#000000" stroke-width="0.504" stroke-miterlimit="2.4142" d="      M474.492,438.477c-0.996,0-1.824-0.827-1.824-1.821c0-0.993,0.828-1.821,1.824-1.821c0.992,0,1.82,0.828,1.82,1.821      C476.313,437.649,475.484,438.477,474.492,438.477L474.492,438.477z"/>
<path xmlns="http://www.w3.org/2000/svg" xmlns:ns1="http://ns.adobe.com/AdobeIllustrator/10.0/" ns1:knockout="Off" fill-rule="evenodd" clip-rule="evenodd" fill="none" stroke="#000000" stroke-width="0.504" stroke-miterlimit="2.4142" d="      M482.01,438.477c-0.996,0-1.824-0.827-1.824-1.821c0-0.993,0.828-1.821,1.824-1.821c0.992,0,1.82,0.828,1.82,1.821      C483.83,437.649,483.002,438.477,482.01,438.477L482.01,438.477z"/>
<path xmlns="http://www.w3.org/2000/svg" xmlns:ns1="http://ns.adobe.com/AdobeIllustrator/10.0/" ns1:knockout="Off" fill-rule="evenodd" clip-rule="evenodd" fill="none" stroke="#000000" stroke-width="0.504" stroke-miterlimit="2.4142" d="      M474.492,459.552c-0.996,0-1.824-0.827-1.824-1.821c0-0.993,0.828-1.821,1.824-1.821c0.992,0,1.82,0.828,1.82,1.821      C476.313,458.725,475.484,459.552,474.492,459.552L474.492,459.552z"/>
<path xmlns="http://www.w3.org/2000/svg" xmlns:ns1="http://ns.adobe.com/AdobeIllustrator/10.0/" ns1:knockout="Off" fill-rule="evenodd" clip-rule="evenodd" fill="none" stroke="#000000" stroke-width="0.504" stroke-miterlimit="2.4142" d="      M482.01,459.552c-0.996,0-1.824-0.827-1.824-1.821c0-0.993,0.828-1.821,1.824-1.821c0.992,0,1.82,0.828,1.82,1.821      C483.83,458.725,483.002,459.552,482.01,459.552L482.01,459.552z"/>
<path xmlns="http://www.w3.org/2000/svg" xmlns:ns1="http://ns.adobe.com/AdobeIllustrator/10.0/" ns1:knockout="Off" fill-rule="evenodd" clip-rule="evenodd" fill="none" stroke="#000000" stroke-width="0.504" stroke-miterlimit="2.4142" d="      M474.492,480.627c-0.996,0-1.824-0.827-1.824-1.821c0-0.993,0.828-1.821,1.824-1.821c0.992,0,1.82,0.828,1.82,1.821      C476.313,479.8,475.484,480.627,474.492,480.627L474.492,480.627z"/>
<path xmlns="http://www.w3.org/2000/svg" xmlns:ns1="http://ns.adobe.com/AdobeIllustrator/10.0/" ns1:knockout="Off" fill-rule="evenodd" clip-rule="evenodd" fill="none" stroke="#000000" stroke-width="0.504" stroke-miterlimit="2.4142" d="      M482.01,480.627c-0.996,0-1.824-0.827-1.824-1.821c0-0.993,0.828-1.821,1.824-1.821c0.992,0,1.82,0.828,1.82,1.821      C483.83,479.8,483.002,480.627,482.01,480.627L482.01,480.627z"/>
</g>
</switch>
</svg>