<?xml version="1.0" encoding="utf-8"?>
<!DOCTYPE svg PUBLIC "-//W3C//DTD SVG 1.1//EN" "http://www.w3.org/Graphics/SVG/1.1/DTD/svg11.dtd" [
	<!ENTITY ns_extend "http://ns.adobe.com/Extensibility/1.0/">
	<!ENTITY ns_ai "http://ns.adobe.com/AdobeIllustrator/10.0/">
	<!ENTITY ns_graphs "http://ns.adobe.com/Graphs/1.0/">
	<!ENTITY ns_vars "http://ns.adobe.com/Variables/1.0/">
	<!ENTITY ns_imrep "http://ns.adobe.com/ImageReplacement/1.0/">
	<!ENTITY ns_sfw "http://ns.adobe.com/SaveForWeb/1.0/">
	<!ENTITY ns_custom "http://ns.adobe.com/GenericCustomNamespace/1.0/">
	<!ENTITY ns_adobe_xpath "http://ns.adobe.com/XPath/1.0/">
]>
<svg version="1.1" id="Internal_Structure" xmlns:x="&ns_extend;" xmlns:i="&ns_ai;" xmlns:graph="&ns_graphs;"
	 xmlns="http://www.w3.org/2000/svg" xmlns:xlink="http://www.w3.org/1999/xlink" x="0px" y="0px" width="612px" height="792px"
	 viewBox="0 0 612 792" enable-background="new 0 0 612 792" xml:space="preserve">
<switch>
<g i:extraneous="self">
<path xmlns="http://www.w3.org/2000/svg" xmlns:ns1="http://ns.adobe.com/AdobeIllustrator/10.0/" ns1:knockout="Off" fill-rule="evenodd" clip-rule="evenodd" fill="none" stroke="#000000" stroke-width="0.504" stroke-miterlimit="2.4142" d="       M472.789,437.673c-0.995,0-1.824-0.828-1.824-1.821c0-0.994,0.829-1.823,1.824-1.823c0.992,0,1.821,0.829,1.821,1.823       C474.61,436.845,473.781,437.673,472.789,437.673L472.789,437.673z"/>
<path xmlns="http://www.w3.org/2000/svg" xmlns:ns1="http://ns.adobe.com/AdobeIllustrator/10.0/" ns1:knockout="Off" fill-rule="evenodd" clip-rule="evenodd" fill="none" stroke="#000000" stroke-width="0.504" stroke-miterlimit="2.4142" d="       M478.411,437.673c-0.996,0-1.822-0.828-1.822-1.821c0-0.994,0.826-1.823,1.822-1.823c0.992,0,1.82,0.829,1.82,1.823       C480.231,436.845,479.403,437.673,478.411,437.673L478.411,437.673z"/>
<path xmlns="http://www.w3.org/2000/svg" xmlns:ns1="http://ns.adobe.com/AdobeIllustrator/10.0/" ns1:knockout="Off" fill-rule="evenodd" clip-rule="evenodd" fill="none" stroke="#000000" stroke-width="0.504" stroke-miterlimit="2.4142" d="       M484.215,437.673c-0.996,0-1.825-0.828-1.825-1.821c0-0.994,0.829-1.823,1.825-1.823c0.992,0,1.82,0.829,1.82,1.823       C486.035,436.845,485.207,437.673,484.215,437.673L484.215,437.673z"/>
<path xmlns="http://www.w3.org/2000/svg" xmlns:ns1="http://ns.adobe.com/AdobeIllustrator/10.0/" ns1:knockout="Off" fill-rule="evenodd" clip-rule="evenodd" fill="none" stroke="#000000" stroke-width="0.504" stroke-miterlimit="2.4142" d="       M475.364,444.936c-0.996,0-1.824-0.827-1.824-1.821c0-0.993,0.828-1.821,1.824-1.821c0.992,0,1.82,0.828,1.82,1.821       C477.185,444.108,476.356,444.936,475.364,444.936L475.364,444.936z"/>
<path xmlns="http://www.w3.org/2000/svg" xmlns:ns1="http://ns.adobe.com/AdobeIllustrator/10.0/" ns1:knockout="Off" fill-rule="evenodd" clip-rule="evenodd" fill="none" stroke="#000000" stroke-width="0.504" stroke-miterlimit="2.4142" d="       M481.64,444.936c-0.996,0-1.824-0.827-1.824-1.821c0-0.993,0.828-1.821,1.824-1.821c0.992,0,1.82,0.828,1.82,1.821       C483.46,444.108,482.632,444.936,481.64,444.936L481.64,444.936z"/>
<path xmlns="http://www.w3.org/2000/svg" xmlns:ns1="http://ns.adobe.com/AdobeIllustrator/10.0/" ns1:knockout="Off" fill-rule="evenodd" clip-rule="evenodd" fill="none" stroke="#000000" stroke-width="0.504" stroke-miterlimit="2.4142" d="       M472.789,452.201c-0.995,0-1.824-0.828-1.824-1.821c0-0.994,0.829-1.823,1.824-1.823c0.992,0,1.821,0.829,1.821,1.823       C474.61,451.373,473.781,452.201,472.789,452.201L472.789,452.201z"/>
<path xmlns="http://www.w3.org/2000/svg" xmlns:ns1="http://ns.adobe.com/AdobeIllustrator/10.0/" ns1:knockout="Off" fill-rule="evenodd" clip-rule="evenodd" fill="none" stroke="#000000" stroke-width="0.504" stroke-miterlimit="2.4142" d="       M478.411,452.201c-0.996,0-1.822-0.828-1.822-1.821c0-0.994,0.826-1.823,1.822-1.823c0.992,0,1.82,0.829,1.82,1.823       C480.231,451.373,479.403,452.201,478.411,452.201L478.411,452.201z"/>
<path xmlns="http://www.w3.org/2000/svg" xmlns:ns1="http://ns.adobe.com/AdobeIllustrator/10.0/" ns1:knockout="Off" fill-rule="evenodd" clip-rule="evenodd" fill="none" stroke="#000000" stroke-width="0.504" stroke-miterlimit="2.4142" d="       M484.215,452.201c-0.996,0-1.825-0.828-1.825-1.821c0-0.994,0.829-1.823,1.825-1.823c0.992,0,1.82,0.829,1.82,1.823       C486.035,451.373,485.207,452.201,484.215,452.201L484.215,452.201z"/>
<path xmlns="http://www.w3.org/2000/svg" xmlns:ns1="http://ns.adobe.com/AdobeIllustrator/10.0/" ns1:knockout="Off" fill-rule="evenodd" clip-rule="evenodd" fill="none" stroke="#000000" stroke-width="0.504" stroke-miterlimit="2.4142" d="       M475.364,459.464c-0.996,0-1.824-0.827-1.824-1.821c0-0.993,0.828-1.821,1.824-1.821c0.992,0,1.82,0.828,1.82,1.821       C477.185,458.637,476.356,459.464,475.364,459.464L475.364,459.464z"/>
<path xmlns="http://www.w3.org/2000/svg" xmlns:ns1="http://ns.adobe.com/AdobeIllustrator/10.0/" ns1:knockout="Off" fill-rule="evenodd" clip-rule="evenodd" fill="none" stroke="#000000" stroke-width="0.504" stroke-miterlimit="2.4142" d="       M481.64,459.464c-0.996,0-1.824-0.827-1.824-1.821c0-0.993,0.828-1.821,1.824-1.821c0.992,0,1.82,0.828,1.82,1.821       C483.46,458.637,482.632,459.464,481.64,459.464L481.64,459.464z"/>
<path xmlns="http://www.w3.org/2000/svg" xmlns:ns1="http://ns.adobe.com/AdobeIllustrator/10.0/" ns1:knockout="Off" fill-rule="evenodd" clip-rule="evenodd" fill="none" stroke="#000000" stroke-width="0.504" stroke-miterlimit="2.4142" d="       M472.789,466.729c-0.995,0-1.824-0.828-1.824-1.821s0.829-1.821,1.824-1.821c0.992,0,1.821,0.828,1.821,1.821       S473.781,466.729,472.789,466.729L472.789,466.729z"/>
<path xmlns="http://www.w3.org/2000/svg" xmlns:ns1="http://ns.adobe.com/AdobeIllustrator/10.0/" ns1:knockout="Off" fill-rule="evenodd" clip-rule="evenodd" fill="none" stroke="#000000" stroke-width="0.504" stroke-miterlimit="2.4142" d="       M478.411,466.729c-0.996,0-1.822-0.828-1.822-1.821s0.826-1.821,1.822-1.821c0.992,0,1.82,0.828,1.82,1.821       S479.403,466.729,478.411,466.729L478.411,466.729z"/>
<path xmlns="http://www.w3.org/2000/svg" xmlns:ns1="http://ns.adobe.com/AdobeIllustrator/10.0/" ns1:knockout="Off" fill-rule="evenodd" clip-rule="evenodd" fill="none" stroke="#000000" stroke-width="0.504" stroke-miterlimit="2.4142" d="       M484.215,466.729c-0.996,0-1.825-0.828-1.825-1.821s0.829-1.821,1.825-1.821c0.992,0,1.82,0.828,1.82,1.821       S485.207,466.729,484.215,466.729L484.215,466.729z"/>
<path xmlns="http://www.w3.org/2000/svg" xmlns:ns1="http://ns.adobe.com/AdobeIllustrator/10.0/" ns1:knockout="Off" fill-rule="evenodd" clip-rule="evenodd" fill="none" stroke="#000000" stroke-width="0.504" stroke-miterlimit="2.4142" d="       M475.364,473.992c-0.996,0-1.824-0.827-1.824-1.821c0-0.993,0.828-1.821,1.824-1.821c0.992,0,1.82,0.828,1.82,1.821       C477.185,473.165,476.356,473.992,475.364,473.992L475.364,473.992z"/>
<path xmlns="http://www.w3.org/2000/svg" xmlns:ns1="http://ns.adobe.com/AdobeIllustrator/10.0/" ns1:knockout="Off" fill-rule="evenodd" clip-rule="evenodd" fill="none" stroke="#000000" stroke-width="0.504" stroke-miterlimit="2.4142" d="       M481.64,473.992c-0.996,0-1.824-0.827-1.824-1.821c0-0.993,0.828-1.821,1.824-1.821c0.992,0,1.82,0.828,1.82,1.821       C483.46,473.165,482.632,473.992,481.64,473.992L481.64,473.992z"/>
<path xmlns="http://www.w3.org/2000/svg" xmlns:ns1="http://ns.adobe.com/AdobeIllustrator/10.0/" ns1:knockout="Off" fill-rule="evenodd" clip-rule="evenodd" fill="none" stroke="#000000" stroke-width="0.504" stroke-miterlimit="2.4142" d="       M472.789,481.257c-0.995,0-1.824-0.827-1.824-1.822c0-0.993,0.829-1.82,1.824-1.82c0.992,0,1.821,0.827,1.821,1.82       C474.61,480.43,473.781,481.257,472.789,481.257L472.789,481.257z"/>
<path xmlns="http://www.w3.org/2000/svg" xmlns:ns1="http://ns.adobe.com/AdobeIllustrator/10.0/" ns1:knockout="Off" fill-rule="evenodd" clip-rule="evenodd" fill="none" stroke="#000000" stroke-width="0.504" stroke-miterlimit="2.4142" d="       M478.411,481.257c-0.996,0-1.822-0.827-1.822-1.822c0-0.993,0.826-1.82,1.822-1.82c0.992,0,1.82,0.827,1.82,1.82       C480.231,480.43,479.403,481.257,478.411,481.257L478.411,481.257z"/>
<path xmlns="http://www.w3.org/2000/svg" xmlns:ns1="http://ns.adobe.com/AdobeIllustrator/10.0/" ns1:knockout="Off" fill-rule="evenodd" clip-rule="evenodd" fill="none" stroke="#000000" stroke-width="0.504" stroke-miterlimit="2.4142" d="       M484.215,481.257c-0.996,0-1.825-0.827-1.825-1.822c0-0.993,0.829-1.82,1.825-1.82c0.992,0,1.82,0.827,1.82,1.82       C486.035,480.43,485.207,481.257,484.215,481.257L484.215,481.257z"/>
<path xmlns="http://www.w3.org/2000/svg" xmlns:ns1="http://ns.adobe.com/AdobeIllustrator/10.0/" ns1:knockout="Off" fill-rule="evenodd" clip-rule="evenodd" fill="none" stroke="#000000" stroke-width="0.504" stroke-miterlimit="2.4142" d="       M475.364,488.521c-0.996,0-1.824-0.827-1.824-1.821c0-0.993,0.828-1.821,1.824-1.821c0.992,0,1.82,0.828,1.82,1.821       C477.185,487.693,476.356,488.521,475.364,488.521L475.364,488.521z"/>
<path xmlns="http://www.w3.org/2000/svg" xmlns:ns1="http://ns.adobe.com/AdobeIllustrator/10.0/" ns1:knockout="Off" fill-rule="evenodd" clip-rule="evenodd" fill="none" stroke="#000000" stroke-width="0.504" stroke-miterlimit="2.4142" d="       M481.64,488.521c-0.996,0-1.824-0.827-1.824-1.821c0-0.993,0.828-1.821,1.824-1.821c0.992,0,1.82,0.828,1.82,1.821       C483.46,487.693,482.632,488.521,481.64,488.521L481.64,488.521z"/>
</g>
</switch>
</svg>