<?xml version="1.0" encoding="utf-8"?>
<!DOCTYPE svg PUBLIC "-//W3C//DTD SVG 1.1//EN" "http://www.w3.org/Graphics/SVG/1.1/DTD/svg11.dtd" [
	<!ENTITY ns_extend "http://ns.adobe.com/Extensibility/1.0/">
	<!ENTITY ns_ai "http://ns.adobe.com/AdobeIllustrator/10.0/">
	<!ENTITY ns_graphs "http://ns.adobe.com/Graphs/1.0/">
	<!ENTITY ns_vars "http://ns.adobe.com/Variables/1.0/">
	<!ENTITY ns_imrep "http://ns.adobe.com/ImageReplacement/1.0/">
	<!ENTITY ns_sfw "http://ns.adobe.com/SaveForWeb/1.0/">
	<!ENTITY ns_custom "http://ns.adobe.com/GenericCustomNamespace/1.0/">
	<!ENTITY ns_adobe_xpath "http://ns.adobe.com/XPath/1.0/">
]>
<svg version="1.1" id="Internal_Structure" xmlns:x="&ns_extend;" xmlns:i="&ns_ai;" xmlns:graph="&ns_graphs;"
	 xmlns="http://www.w3.org/2000/svg" xmlns:xlink="http://www.w3.org/1999/xlink" x="0px" y="0px" width="612px" height="792px"
	 viewBox="0 0 612 792" enable-background="new 0 0 612 792" xml:space="preserve">
<switch>
<g i:extraneous="self">
<path xmlns="http://www.w3.org/2000/svg" xmlns:ns1="http://ns.adobe.com/AdobeIllustrator/10.0/" ns1:knockout="Off" fill-rule="evenodd" clip-rule="evenodd" fill="none" stroke="#000000" stroke-width="0.504" stroke-miterlimit="2.4142" d="      M472.788,436.427c-0.995,0-1.822-0.827-1.822-1.82c0-0.994,0.827-1.822,1.822-1.822c0.994,0,1.821,0.828,1.821,1.822      C474.609,435.6,473.782,436.427,472.788,436.427L472.788,436.427z"/>
<path xmlns="http://www.w3.org/2000/svg" xmlns:ns1="http://ns.adobe.com/AdobeIllustrator/10.0/" ns1:knockout="Off" fill-rule="evenodd" clip-rule="evenodd" fill="none" stroke="#000000" stroke-width="0.504" stroke-miterlimit="2.4142" d="      M478.411,436.427c-0.995,0-1.823-0.827-1.823-1.82c0-0.994,0.828-1.822,1.823-1.822c0.993,0,1.82,0.828,1.82,1.822      C480.231,435.6,479.404,436.427,478.411,436.427L478.411,436.427z"/>
<path xmlns="http://www.w3.org/2000/svg" xmlns:ns1="http://ns.adobe.com/AdobeIllustrator/10.0/" ns1:knockout="Off" fill-rule="evenodd" clip-rule="evenodd" fill="none" stroke="#000000" stroke-width="0.504" stroke-miterlimit="2.4142" d="      M484.215,436.427c-0.995,0-1.824-0.827-1.824-1.82c0-0.994,0.829-1.822,1.824-1.822c0.992,0,1.819,0.828,1.819,1.822      C486.034,435.6,485.207,436.427,484.215,436.427L484.215,436.427z"/>
<path xmlns="http://www.w3.org/2000/svg" xmlns:ns1="http://ns.adobe.com/AdobeIllustrator/10.0/" ns1:knockout="Off" fill-rule="evenodd" clip-rule="evenodd" fill="none" stroke="#000000" stroke-width="0.504" stroke-miterlimit="2.4142" d="      M472.788,442.761c-0.995,0-1.822-0.828-1.822-1.821c0-0.994,0.827-1.821,1.822-1.821c0.994,0,1.821,0.827,1.821,1.821      C474.609,441.933,473.782,442.761,472.788,442.761L472.788,442.761z"/>
<path xmlns="http://www.w3.org/2000/svg" xmlns:ns1="http://ns.adobe.com/AdobeIllustrator/10.0/" ns1:knockout="Off" fill-rule="evenodd" clip-rule="evenodd" fill="none" stroke="#000000" stroke-width="0.504" stroke-miterlimit="2.4142" d="      M478.411,442.761c-0.995,0-1.823-0.828-1.823-1.821c0-0.994,0.828-1.821,1.823-1.821c0.993,0,1.82,0.827,1.82,1.821      C480.231,441.933,479.404,442.761,478.411,442.761L478.411,442.761z"/>
<path xmlns="http://www.w3.org/2000/svg" xmlns:ns1="http://ns.adobe.com/AdobeIllustrator/10.0/" ns1:knockout="Off" fill-rule="evenodd" clip-rule="evenodd" fill="none" stroke="#000000" stroke-width="0.504" stroke-miterlimit="2.4142" d="      M484.215,442.761c-0.995,0-1.824-0.828-1.824-1.821c0-0.994,0.829-1.821,1.824-1.821c0.992,0,1.819,0.827,1.819,1.821      C486.034,441.933,485.207,442.761,484.215,442.761L484.215,442.761z"/>
<path xmlns="http://www.w3.org/2000/svg" xmlns:ns1="http://ns.adobe.com/AdobeIllustrator/10.0/" ns1:knockout="Off" fill-rule="evenodd" clip-rule="evenodd" fill="none" stroke="#000000" stroke-width="0.504" stroke-miterlimit="2.4142" d="      M472.788,449.096c-0.995,0-1.822-0.827-1.822-1.821s0.827-1.822,1.822-1.822c0.994,0,1.821,0.828,1.821,1.822      S473.782,449.096,472.788,449.096L472.788,449.096z"/>
<path xmlns="http://www.w3.org/2000/svg" xmlns:ns1="http://ns.adobe.com/AdobeIllustrator/10.0/" ns1:knockout="Off" fill-rule="evenodd" clip-rule="evenodd" fill="none" stroke="#000000" stroke-width="0.504" stroke-miterlimit="2.4142" d="      M478.411,449.096c-0.995,0-1.823-0.827-1.823-1.821s0.828-1.822,1.823-1.822c0.993,0,1.82,0.828,1.82,1.822      S479.404,449.096,478.411,449.096L478.411,449.096z"/>
<path xmlns="http://www.w3.org/2000/svg" xmlns:ns1="http://ns.adobe.com/AdobeIllustrator/10.0/" ns1:knockout="Off" fill-rule="evenodd" clip-rule="evenodd" fill="none" stroke="#000000" stroke-width="0.504" stroke-miterlimit="2.4142" d="      M484.215,449.096c-0.995,0-1.824-0.827-1.824-1.821s0.829-1.822,1.824-1.822c0.992,0,1.819,0.828,1.819,1.822      S485.207,449.096,484.215,449.096L484.215,449.096z"/>
<path xmlns="http://www.w3.org/2000/svg" xmlns:ns1="http://ns.adobe.com/AdobeIllustrator/10.0/" ns1:knockout="Off" fill-rule="evenodd" clip-rule="evenodd" fill="none" stroke="#000000" stroke-width="0.504" stroke-miterlimit="2.4142" d="      M472.788,455.43c-0.995,0-1.822-0.827-1.822-1.821c0-0.993,0.827-1.821,1.822-1.821c0.994,0,1.821,0.828,1.821,1.821      C474.609,454.603,473.782,455.43,472.788,455.43L472.788,455.43z"/>
<path xmlns="http://www.w3.org/2000/svg" xmlns:ns1="http://ns.adobe.com/AdobeIllustrator/10.0/" ns1:knockout="Off" fill-rule="evenodd" clip-rule="evenodd" fill="none" stroke="#000000" stroke-width="0.504" stroke-miterlimit="2.4142" d="      M478.411,455.43c-0.995,0-1.823-0.827-1.823-1.821c0-0.993,0.828-1.821,1.823-1.821c0.993,0,1.82,0.828,1.82,1.821      C480.231,454.603,479.404,455.43,478.411,455.43L478.411,455.43z"/>
<path xmlns="http://www.w3.org/2000/svg" xmlns:ns1="http://ns.adobe.com/AdobeIllustrator/10.0/" ns1:knockout="Off" fill-rule="evenodd" clip-rule="evenodd" fill="none" stroke="#000000" stroke-width="0.504" stroke-miterlimit="2.4142" d="      M484.215,455.43c-0.995,0-1.824-0.827-1.824-1.821c0-0.993,0.829-1.821,1.824-1.821c0.992,0,1.819,0.828,1.819,1.821      C486.034,454.603,485.207,455.43,484.215,455.43L484.215,455.43z"/>
<path xmlns="http://www.w3.org/2000/svg" xmlns:ns1="http://ns.adobe.com/AdobeIllustrator/10.0/" ns1:knockout="Off" fill-rule="evenodd" clip-rule="evenodd" fill="none" stroke="#000000" stroke-width="0.504" stroke-miterlimit="2.4142" d="      M472.788,461.765c-0.995,0-1.822-0.828-1.822-1.821s0.827-1.821,1.822-1.821c0.994,0,1.821,0.828,1.821,1.821      S473.782,461.765,472.788,461.765L472.788,461.765z"/>
<path xmlns="http://www.w3.org/2000/svg" xmlns:ns1="http://ns.adobe.com/AdobeIllustrator/10.0/" ns1:knockout="Off" fill-rule="evenodd" clip-rule="evenodd" fill="none" stroke="#000000" stroke-width="0.504" stroke-miterlimit="2.4142" d="      M478.411,461.765c-0.995,0-1.823-0.828-1.823-1.821s0.828-1.821,1.823-1.821c0.993,0,1.82,0.828,1.82,1.821      S479.404,461.765,478.411,461.765L478.411,461.765z"/>
<path xmlns="http://www.w3.org/2000/svg" xmlns:ns1="http://ns.adobe.com/AdobeIllustrator/10.0/" ns1:knockout="Off" fill-rule="evenodd" clip-rule="evenodd" fill="none" stroke="#000000" stroke-width="0.504" stroke-miterlimit="2.4142" d="      M484.215,461.765c-0.995,0-1.824-0.828-1.824-1.821s0.829-1.821,1.824-1.821c0.992,0,1.819,0.828,1.819,1.821      S485.207,461.765,484.215,461.765L484.215,461.765z"/>
<path xmlns="http://www.w3.org/2000/svg" xmlns:ns1="http://ns.adobe.com/AdobeIllustrator/10.0/" ns1:knockout="Off" fill-rule="evenodd" clip-rule="evenodd" fill="none" stroke="#000000" stroke-width="0.504" stroke-miterlimit="2.4142" d="      M472.788,468.099c-0.995,0-1.822-0.827-1.822-1.821s0.827-1.821,1.822-1.821c0.994,0,1.821,0.827,1.821,1.821      S473.782,468.099,472.788,468.099L472.788,468.099z"/>
<path xmlns="http://www.w3.org/2000/svg" xmlns:ns1="http://ns.adobe.com/AdobeIllustrator/10.0/" ns1:knockout="Off" fill-rule="evenodd" clip-rule="evenodd" fill="none" stroke="#000000" stroke-width="0.504" stroke-miterlimit="2.4142" d="      M478.411,468.099c-0.995,0-1.823-0.827-1.823-1.821s0.828-1.821,1.823-1.821c0.993,0,1.82,0.827,1.82,1.821      S479.404,468.099,478.411,468.099L478.411,468.099z"/>
<path xmlns="http://www.w3.org/2000/svg" xmlns:ns1="http://ns.adobe.com/AdobeIllustrator/10.0/" ns1:knockout="Off" fill-rule="evenodd" clip-rule="evenodd" fill="none" stroke="#000000" stroke-width="0.504" stroke-miterlimit="2.4142" d="      M484.215,468.099c-0.995,0-1.824-0.827-1.824-1.821s0.829-1.821,1.824-1.821c0.992,0,1.819,0.827,1.819,1.821      S485.207,468.099,484.215,468.099L484.215,468.099z"/>
<path xmlns="http://www.w3.org/2000/svg" xmlns:ns1="http://ns.adobe.com/AdobeIllustrator/10.0/" ns1:knockout="Off" fill-rule="evenodd" clip-rule="evenodd" fill="none" stroke="#000000" stroke-width="0.504" stroke-miterlimit="2.4142" d="      M472.788,474.434c-0.995,0-1.822-0.827-1.822-1.821s0.827-1.821,1.822-1.821c0.994,0,1.821,0.827,1.821,1.821      S473.782,474.434,472.788,474.434L472.788,474.434z"/>
<path xmlns="http://www.w3.org/2000/svg" xmlns:ns1="http://ns.adobe.com/AdobeIllustrator/10.0/" ns1:knockout="Off" fill-rule="evenodd" clip-rule="evenodd" fill="none" stroke="#000000" stroke-width="0.504" stroke-miterlimit="2.4142" d="      M478.411,474.434c-0.995,0-1.823-0.827-1.823-1.821s0.828-1.821,1.823-1.821c0.993,0,1.82,0.827,1.82,1.821      S479.404,474.434,478.411,474.434L478.411,474.434z"/>
<path xmlns="http://www.w3.org/2000/svg" xmlns:ns1="http://ns.adobe.com/AdobeIllustrator/10.0/" ns1:knockout="Off" fill-rule="evenodd" clip-rule="evenodd" fill="none" stroke="#000000" stroke-width="0.504" stroke-miterlimit="2.4142" d="      M484.215,474.434c-0.995,0-1.824-0.827-1.824-1.821s0.829-1.821,1.824-1.821c0.992,0,1.819,0.827,1.819,1.821      S485.207,474.434,484.215,474.434L484.215,474.434z"/>
<path xmlns="http://www.w3.org/2000/svg" xmlns:ns1="http://ns.adobe.com/AdobeIllustrator/10.0/" ns1:knockout="Off" fill-rule="evenodd" clip-rule="evenodd" fill="none" stroke="#000000" stroke-width="0.504" stroke-miterlimit="2.4142" d="      M472.788,480.768c-0.995,0-1.822-0.827-1.822-1.821c0-0.993,0.827-1.821,1.822-1.821c0.994,0,1.821,0.828,1.821,1.821      C474.609,479.94,473.782,480.768,472.788,480.768L472.788,480.768z"/>
<path xmlns="http://www.w3.org/2000/svg" xmlns:ns1="http://ns.adobe.com/AdobeIllustrator/10.0/" ns1:knockout="Off" fill-rule="evenodd" clip-rule="evenodd" fill="none" stroke="#000000" stroke-width="0.504" stroke-miterlimit="2.4142" d="      M478.411,480.768c-0.995,0-1.823-0.827-1.823-1.821c0-0.993,0.828-1.821,1.823-1.821c0.993,0,1.82,0.828,1.82,1.821      C480.231,479.94,479.404,480.768,478.411,480.768L478.411,480.768z"/>
<path xmlns="http://www.w3.org/2000/svg" xmlns:ns1="http://ns.adobe.com/AdobeIllustrator/10.0/" ns1:knockout="Off" fill-rule="evenodd" clip-rule="evenodd" fill="none" stroke="#000000" stroke-width="0.504" stroke-miterlimit="2.4142" d="      M484.215,480.768c-0.995,0-1.824-0.827-1.824-1.821c0-0.993,0.829-1.821,1.824-1.821c0.992,0,1.819,0.828,1.819,1.821      C486.034,479.94,485.207,480.768,484.215,480.768L484.215,480.768z"/>
<path xmlns="http://www.w3.org/2000/svg" xmlns:ns1="http://ns.adobe.com/AdobeIllustrator/10.0/" ns1:knockout="Off" fill-rule="evenodd" clip-rule="evenodd" fill="none" stroke="#000000" stroke-width="0.504" stroke-miterlimit="2.4142" d="      M475.818,486.856c-0.995,0-1.823-0.828-1.823-1.821c0-0.994,0.828-1.822,1.823-1.822c0.993,0,1.82,0.828,1.82,1.822      C477.639,486.028,476.812,486.856,475.818,486.856L475.818,486.856z"/>
<path xmlns="http://www.w3.org/2000/svg" xmlns:ns1="http://ns.adobe.com/AdobeIllustrator/10.0/" ns1:knockout="Off" fill-rule="evenodd" clip-rule="evenodd" fill="none" stroke="#000000" stroke-width="0.504" stroke-miterlimit="2.4142" d="      M480.879,486.856c-0.995,0-1.823-0.828-1.823-1.821c0-0.994,0.828-1.822,1.823-1.822c0.993,0,1.82,0.828,1.82,1.822      C482.699,486.028,481.872,486.856,480.879,486.856L480.879,486.856z"/>
<path xmlns="http://www.w3.org/2000/svg" xmlns:ns1="http://ns.adobe.com/AdobeIllustrator/10.0/" ns1:knockout="Off" fill-rule="evenodd" clip-rule="evenodd" fill="none" stroke="#000000" stroke-width="0.504" stroke-miterlimit="2.4142" d="      M478.411,492.944c-0.995,0-1.823-0.828-1.823-1.821c0-0.994,0.828-1.822,1.823-1.822c0.993,0,1.82,0.828,1.82,1.822      C480.231,492.116,479.404,492.944,478.411,492.944L478.411,492.944z"/>
</g>
</switch>
</svg>