<?xml version="1.0" encoding="utf-8"?>
<!DOCTYPE svg PUBLIC "-//W3C//DTD SVG 1.1//EN" "http://www.w3.org/Graphics/SVG/1.1/DTD/svg11.dtd" [
	<!ENTITY ns_extend "http://ns.adobe.com/Extensibility/1.0/">
	<!ENTITY ns_ai "http://ns.adobe.com/AdobeIllustrator/10.0/">
	<!ENTITY ns_graphs "http://ns.adobe.com/Graphs/1.0/">
	<!ENTITY ns_vars "http://ns.adobe.com/Variables/1.0/">
	<!ENTITY ns_imrep "http://ns.adobe.com/ImageReplacement/1.0/">
	<!ENTITY ns_sfw "http://ns.adobe.com/SaveForWeb/1.0/">
	<!ENTITY ns_custom "http://ns.adobe.com/GenericCustomNamespace/1.0/">
	<!ENTITY ns_adobe_xpath "http://ns.adobe.com/XPath/1.0/">
]>
<svg version="1.1" id="Internal_Structure" xmlns:x="&ns_extend;" xmlns:i="&ns_ai;" xmlns:graph="&ns_graphs;"
	 xmlns="http://www.w3.org/2000/svg" xmlns:xlink="http://www.w3.org/1999/xlink" x="0px" y="0px" width="612px" height="792px"
	 viewBox="0 0 612 792" enable-background="new 0 0 612 792" xml:space="preserve">
<switch>
<g i:extraneous="self">
<path xmlns="http://www.w3.org/2000/svg" xmlns:ns1="http://ns.adobe.com/AdobeIllustrator/10.0/" ns1:knockout="Off" fill-rule="evenodd" clip-rule="evenodd" fill="none" stroke="#000000" stroke-width="0.504" stroke-miterlimit="2.4142" d="     M495.485,428.625c0.995,0,1.821-0.828,1.821-1.823c0-0.992-0.826-1.82-1.821-1.82c-0.992,0-1.821,0.828-1.821,1.82     C493.664,427.797,494.493,428.625,495.485,428.625L495.485,428.625z"/>
<path xmlns="http://www.w3.org/2000/svg" xmlns:ns1="http://ns.adobe.com/AdobeIllustrator/10.0/" ns1:knockout="Off" fill-rule="evenodd" clip-rule="evenodd" fill="none" stroke="#000000" stroke-width="0.504" stroke-miterlimit="2.4142" d="     M501.236,428.625c0.995,0,1.824-0.828,1.824-1.823c0-0.992-0.829-1.82-1.824-1.82c-0.992,0-1.82,0.828-1.82,1.82     C499.416,427.797,500.244,428.625,501.236,428.625L501.236,428.625z"/>
<path xmlns="http://www.w3.org/2000/svg" xmlns:ns1="http://ns.adobe.com/AdobeIllustrator/10.0/" ns1:knockout="Off" fill-rule="evenodd" clip-rule="evenodd" fill="none" stroke="#000000" stroke-width="0.504" stroke-miterlimit="2.4142" d="     M506.989,428.625c0.996,0,1.825-0.828,1.825-1.823c0-0.992-0.829-1.82-1.825-1.82c-0.992,0-1.82,0.828-1.82,1.82     C505.169,427.797,505.997,428.625,506.989,428.625L506.989,428.625z"/>
<path xmlns="http://www.w3.org/2000/svg" xmlns:ns1="http://ns.adobe.com/AdobeIllustrator/10.0/" ns1:knockout="Off" fill-rule="evenodd" clip-rule="evenodd" fill="none" stroke="#000000" stroke-width="0.504" stroke-miterlimit="2.4142" d="     M498.362,436.916c0.995,0,1.821-0.828,1.821-1.822c0-0.992-0.826-1.821-1.821-1.821c-0.992,0-1.821,0.829-1.821,1.821     C496.541,436.088,497.37,436.916,498.362,436.916L498.362,436.916z"/>
<path xmlns="http://www.w3.org/2000/svg" xmlns:ns1="http://ns.adobe.com/AdobeIllustrator/10.0/" ns1:knockout="Off" fill-rule="evenodd" clip-rule="evenodd" fill="none" stroke="#000000" stroke-width="0.504" stroke-miterlimit="2.4142" d="     M504.112,436.916c0.996,0,1.825-0.828,1.825-1.822c0-0.992-0.829-1.821-1.825-1.821c-0.992,0-1.82,0.829-1.82,1.821     C502.292,436.088,503.12,436.916,504.112,436.916L504.112,436.916z"/>
<path xmlns="http://www.w3.org/2000/svg" xmlns:ns1="http://ns.adobe.com/AdobeIllustrator/10.0/" ns1:knockout="Off" fill-rule="evenodd" clip-rule="evenodd" fill="none" stroke="#000000" stroke-width="0.504" stroke-miterlimit="2.4142" d="      M495.485,445.206c0.995,0,1.821-0.828,1.821-1.821s-0.826-1.821-1.821-1.821c-0.992,0-1.821,0.828-1.821,1.821      S494.493,445.206,495.485,445.206L495.485,445.206z"/>
<path xmlns="http://www.w3.org/2000/svg" xmlns:ns1="http://ns.adobe.com/AdobeIllustrator/10.0/" ns1:knockout="Off" fill-rule="evenodd" clip-rule="evenodd" fill="none" stroke="#000000" stroke-width="0.504" stroke-miterlimit="2.4142" d="      M501.327,445.206c0.995,0,1.824-0.828,1.824-1.821s-0.829-1.821-1.824-1.821c-0.992,0-1.82,0.828-1.82,1.821      S500.335,445.206,501.327,445.206L501.327,445.206z"/>
<path xmlns="http://www.w3.org/2000/svg" xmlns:ns1="http://ns.adobe.com/AdobeIllustrator/10.0/" ns1:knockout="Off" fill-rule="evenodd" clip-rule="evenodd" fill="none" stroke="#000000" stroke-width="0.504" stroke-miterlimit="2.4142" d="      M506.989,445.206c0.996,0,1.825-0.828,1.825-1.821s-0.829-1.821-1.825-1.821c-0.992,0-1.82,0.828-1.82,1.821      S505.997,445.206,506.989,445.206L506.989,445.206z"/>
<path xmlns="http://www.w3.org/2000/svg" xmlns:ns1="http://ns.adobe.com/AdobeIllustrator/10.0/" ns1:knockout="Off" fill-rule="evenodd" clip-rule="evenodd" fill="none" stroke="#000000" stroke-width="0.504" stroke-miterlimit="2.4142" d="     M495.485,455.987c0.995,0,1.821-0.828,1.821-1.821s-0.826-1.821-1.821-1.821c-0.992,0-1.821,0.828-1.821,1.821     S494.493,455.987,495.485,455.987L495.485,455.987z"/>
<path xmlns="http://www.w3.org/2000/svg" xmlns:ns1="http://ns.adobe.com/AdobeIllustrator/10.0/" ns1:knockout="Off" fill-rule="evenodd" clip-rule="evenodd" fill="none" stroke="#000000" stroke-width="0.504" stroke-miterlimit="2.4142" d="     M493.905,461.068c0.993,0,1.821-0.827,1.821-1.821c0-0.993-0.828-1.821-1.821-1.821c-0.995,0-1.821,0.828-1.821,1.821     C492.084,460.241,492.91,461.068,493.905,461.068L493.905,461.068z"/>
<path xmlns="http://www.w3.org/2000/svg" xmlns:ns1="http://ns.adobe.com/AdobeIllustrator/10.0/" ns1:knockout="Off" fill-rule="evenodd" clip-rule="evenodd" fill="none" stroke="#000000" stroke-width="0.504" stroke-miterlimit="2.4142" d="     M493.507,466.298c0.995,0,1.824-0.827,1.824-1.821c0-0.995-0.829-1.822-1.824-1.822c-0.993,0-1.821,0.827-1.821,1.822     C491.686,465.471,492.514,466.298,493.507,466.298L493.507,466.298z"/>
<path xmlns="http://www.w3.org/2000/svg" xmlns:ns1="http://ns.adobe.com/AdobeIllustrator/10.0/" ns1:knockout="Off" fill-rule="evenodd" clip-rule="evenodd" fill="none" stroke="#000000" stroke-width="0.504" stroke-miterlimit="2.4142" d="     M491.997,475.326c0.992,0,1.821-0.828,1.821-1.822c0-0.993-0.829-1.819-1.821-1.819c-0.995,0-1.82,0.826-1.82,1.819     C490.177,474.498,491.002,475.326,491.997,475.326L491.997,475.326z"/>
<path xmlns="http://www.w3.org/2000/svg" xmlns:ns1="http://ns.adobe.com/AdobeIllustrator/10.0/" ns1:knockout="Off" fill-rule="evenodd" clip-rule="evenodd" fill="none" stroke="#000000" stroke-width="0.504" stroke-miterlimit="2.4142" d="     M494.772,480.408c0.995,0,1.821-0.828,1.821-1.822c0-0.993-0.826-1.821-1.821-1.821s-1.821,0.828-1.821,1.821     C492.951,479.58,493.777,480.408,494.772,480.408L494.772,480.408z"/>
<path xmlns="http://www.w3.org/2000/svg" xmlns:ns1="http://ns.adobe.com/AdobeIllustrator/10.0/" ns1:knockout="Off" fill-rule="evenodd" clip-rule="evenodd" fill="none" stroke="#000000" stroke-width="0.504" stroke-miterlimit="2.4142" d="     M500.614,480.408c0.996,0,1.824-0.828,1.824-1.822c0-0.993-0.828-1.821-1.824-1.821c-0.992,0-1.821,0.828-1.821,1.821     C498.793,479.58,499.622,480.408,500.614,480.408L500.614,480.408z"/>
</g>
</switch>
</svg>