<?xml version="1.0" encoding="utf-8"?>
<!DOCTYPE svg PUBLIC "-//W3C//DTD SVG 1.1//EN" "http://www.w3.org/Graphics/SVG/1.1/DTD/svg11.dtd" [
	<!ENTITY ns_extend "http://ns.adobe.com/Extensibility/1.0/">
	<!ENTITY ns_ai "http://ns.adobe.com/AdobeIllustrator/10.0/">
	<!ENTITY ns_graphs "http://ns.adobe.com/Graphs/1.0/">
	<!ENTITY ns_vars "http://ns.adobe.com/Variables/1.0/">
	<!ENTITY ns_imrep "http://ns.adobe.com/ImageReplacement/1.0/">
	<!ENTITY ns_sfw "http://ns.adobe.com/SaveForWeb/1.0/">
	<!ENTITY ns_custom "http://ns.adobe.com/GenericCustomNamespace/1.0/">
	<!ENTITY ns_adobe_xpath "http://ns.adobe.com/XPath/1.0/">
]>
<svg version="1.1" id="Internal_Structure" xmlns:x="&ns_extend;" xmlns:i="&ns_ai;" xmlns:graph="&ns_graphs;"
	 xmlns="http://www.w3.org/2000/svg" xmlns:xlink="http://www.w3.org/1999/xlink" x="0px" y="0px" width="612px" height="792px"
	 viewBox="0 0 612 792" enable-background="new 0 0 612 792" xml:space="preserve">
<switch>
<g i:extraneous="self">
<path xmlns="http://www.w3.org/2000/svg" xmlns:ns1="http://ns.adobe.com/AdobeIllustrator/10.0/" ns1:knockout="Off" fill-rule="evenodd" clip-rule="evenodd" fill="none" stroke="#000000" stroke-width="0.504" stroke-miterlimit="2.4142" d="      M449.567,428.1c-0.995,0-1.823-0.828-1.823-1.822c0-0.993,0.828-1.821,1.823-1.821c0.993,0,1.82,0.828,1.82,1.821      C451.388,427.271,450.561,428.1,449.567,428.1L449.567,428.1z"/>
<path xmlns="http://www.w3.org/2000/svg" xmlns:ns1="http://ns.adobe.com/AdobeIllustrator/10.0/" ns1:knockout="Off" fill-rule="evenodd" clip-rule="evenodd" fill="none" stroke="#000000" stroke-width="0.504" stroke-miterlimit="2.4142" d="      M455.229,428.1c-0.995,0-1.823-0.828-1.823-1.822c0-0.993,0.828-1.821,1.823-1.821c0.993,0,1.82,0.828,1.82,1.821      C457.05,427.271,456.223,428.1,455.229,428.1L455.229,428.1z"/>
<path xmlns="http://www.w3.org/2000/svg" xmlns:ns1="http://ns.adobe.com/AdobeIllustrator/10.0/" ns1:knockout="Off" fill-rule="evenodd" clip-rule="evenodd" fill="none" stroke="#000000" stroke-width="0.504" stroke-miterlimit="2.4142" d="      M461.072,428.1c-0.994,0-1.822-0.828-1.822-1.822c0-0.993,0.828-1.821,1.822-1.821c0.993,0,1.821,0.828,1.821,1.821      C462.894,427.271,462.065,428.1,461.072,428.1L461.072,428.1z"/>
<path xmlns="http://www.w3.org/2000/svg" xmlns:ns1="http://ns.adobe.com/AdobeIllustrator/10.0/" ns1:knockout="Off" fill-rule="evenodd" clip-rule="evenodd" fill="none" stroke="#000000" stroke-width="0.504" stroke-miterlimit="2.4142" d="      M449.567,433.577c-0.995,0-1.823-0.828-1.823-1.821s0.828-1.821,1.823-1.821c0.993,0,1.82,0.828,1.82,1.821      S450.561,433.577,449.567,433.577L449.567,433.577z"/>
<path xmlns="http://www.w3.org/2000/svg" xmlns:ns1="http://ns.adobe.com/AdobeIllustrator/10.0/" ns1:knockout="Off" fill-rule="evenodd" clip-rule="evenodd" fill="none" stroke="#000000" stroke-width="0.504" stroke-miterlimit="2.4142" d="      M455.229,433.577c-0.995,0-1.823-0.828-1.823-1.821s0.828-1.821,1.823-1.821c0.993,0,1.82,0.828,1.82,1.821      S456.223,433.577,455.229,433.577L455.229,433.577z"/>
<path xmlns="http://www.w3.org/2000/svg" xmlns:ns1="http://ns.adobe.com/AdobeIllustrator/10.0/" ns1:knockout="Off" fill-rule="evenodd" clip-rule="evenodd" fill="none" stroke="#000000" stroke-width="0.504" stroke-miterlimit="2.4142" d="      M461.072,433.577c-0.994,0-1.822-0.828-1.822-1.821s0.828-1.821,1.822-1.821c0.993,0,1.821,0.828,1.821,1.821      S462.065,433.577,461.072,433.577L461.072,433.577z"/>
<path xmlns="http://www.w3.org/2000/svg" xmlns:ns1="http://ns.adobe.com/AdobeIllustrator/10.0/" ns1:knockout="Off" fill-rule="evenodd" clip-rule="evenodd" fill="none" stroke="#000000" stroke-width="0.504" stroke-miterlimit="2.4142" d="      M449.567,439.13c-0.995,0-1.823-0.828-1.823-1.822c0-0.993,0.828-1.821,1.823-1.821c0.993,0,1.82,0.828,1.82,1.821      C451.388,438.302,450.561,439.13,449.567,439.13L449.567,439.13z"/>
<path xmlns="http://www.w3.org/2000/svg" xmlns:ns1="http://ns.adobe.com/AdobeIllustrator/10.0/" ns1:knockout="Off" fill-rule="evenodd" clip-rule="evenodd" fill="none" stroke="#000000" stroke-width="0.504" stroke-miterlimit="2.4142" d="      M455.229,439.13c-0.995,0-1.823-0.828-1.823-1.822c0-0.993,0.828-1.821,1.823-1.821c0.993,0,1.82,0.828,1.82,1.821      C457.05,438.302,456.223,439.13,455.229,439.13L455.229,439.13z"/>
<path xmlns="http://www.w3.org/2000/svg" xmlns:ns1="http://ns.adobe.com/AdobeIllustrator/10.0/" ns1:knockout="Off" fill-rule="evenodd" clip-rule="evenodd" fill="none" stroke="#000000" stroke-width="0.504" stroke-miterlimit="2.4142" d="      M461.072,439.13c-0.994,0-1.822-0.828-1.822-1.822c0-0.993,0.828-1.821,1.822-1.821c0.993,0,1.821,0.828,1.821,1.821      C462.894,438.302,462.065,439.13,461.072,439.13L461.072,439.13z"/>
<path xmlns="http://www.w3.org/2000/svg" xmlns:ns1="http://ns.adobe.com/AdobeIllustrator/10.0/" ns1:knockout="Off" fill-rule="evenodd" clip-rule="evenodd" fill="none" stroke="#000000" stroke-width="0.504" stroke-miterlimit="2.4142" d="      M449.567,444.682c-0.995,0-1.823-0.829-1.823-1.822s0.828-1.821,1.823-1.821c0.993,0,1.82,0.828,1.82,1.821      S450.561,444.682,449.567,444.682L449.567,444.682z"/>
<path xmlns="http://www.w3.org/2000/svg" xmlns:ns1="http://ns.adobe.com/AdobeIllustrator/10.0/" ns1:knockout="Off" fill-rule="evenodd" clip-rule="evenodd" fill="none" stroke="#000000" stroke-width="0.504" stroke-miterlimit="2.4142" d="      M455.229,444.682c-0.995,0-1.823-0.829-1.823-1.822s0.828-1.821,1.823-1.821c0.993,0,1.82,0.828,1.82,1.821      S456.223,444.682,455.229,444.682L455.229,444.682z"/>
<path xmlns="http://www.w3.org/2000/svg" xmlns:ns1="http://ns.adobe.com/AdobeIllustrator/10.0/" ns1:knockout="Off" fill-rule="evenodd" clip-rule="evenodd" fill="none" stroke="#000000" stroke-width="0.504" stroke-miterlimit="2.4142" d="      M461.072,444.682c-0.994,0-1.822-0.829-1.822-1.822s0.828-1.821,1.822-1.821c0.993,0,1.821,0.828,1.821,1.821      S462.065,444.682,461.072,444.682L461.072,444.682z"/>
<path xmlns="http://www.w3.org/2000/svg" xmlns:ns1="http://ns.adobe.com/AdobeIllustrator/10.0/" ns1:knockout="Off" fill-rule="evenodd" clip-rule="evenodd" fill="none" stroke="#000000" stroke-width="0.504" stroke-miterlimit="2.4142" d="      M461.072,453.26c-0.996,0-1.824-0.828-1.824-1.821s0.828-1.821,1.824-1.821c0.992,0,1.821,0.828,1.821,1.821      S462.064,453.26,461.072,453.26L461.072,453.26z"/>
<path xmlns="http://www.w3.org/2000/svg" xmlns:ns1="http://ns.adobe.com/AdobeIllustrator/10.0/" ns1:knockout="Off" fill-rule="evenodd" clip-rule="evenodd" fill="none" stroke="#000000" stroke-width="0.504" stroke-miterlimit="2.4142" d="      M462.652,462.334c-0.993,0-1.821-0.827-1.821-1.821c0-0.993,0.828-1.821,1.821-1.821c0.995,0,1.82,0.828,1.82,1.821      C464.473,461.507,463.647,462.334,462.652,462.334L462.652,462.334z"/>
<path xmlns="http://www.w3.org/2000/svg" xmlns:ns1="http://ns.adobe.com/AdobeIllustrator/10.0/" ns1:knockout="Off" fill-rule="evenodd" clip-rule="evenodd" fill="none" stroke="#000000" stroke-width="0.504" stroke-miterlimit="2.4142" d="      M464.56,471.407c-0.992,0-1.82-0.828-1.82-1.822c0-0.993,0.828-1.819,1.82-1.819c0.995,0,1.821,0.826,1.821,1.819      C466.381,470.579,465.555,471.407,464.56,471.407L464.56,471.407z"/>
<path xmlns="http://www.w3.org/2000/svg" xmlns:ns1="http://ns.adobe.com/AdobeIllustrator/10.0/" ns1:knockout="Off" fill-rule="evenodd" clip-rule="evenodd" fill="none" stroke="#000000" stroke-width="0.504" stroke-miterlimit="2.4142" d="      M455.547,480.481c-0.995,0-1.824-0.827-1.824-1.821s0.829-1.821,1.824-1.821c0.992,0,1.82,0.827,1.82,1.821      S456.539,480.481,455.547,480.481L455.547,480.481z"/>
<path xmlns="http://www.w3.org/2000/svg" xmlns:ns1="http://ns.adobe.com/AdobeIllustrator/10.0/" ns1:knockout="Off" fill-rule="evenodd" clip-rule="evenodd" fill="none" stroke="#000000" stroke-width="0.504" stroke-miterlimit="2.4142" d="      M461.389,480.481c-0.995,0-1.824-0.827-1.824-1.821s0.829-1.821,1.824-1.821c0.992,0,1.821,0.827,1.821,1.821      S462.381,480.481,461.389,480.481L461.389,480.481z"/>
</g>
</switch>
</svg>