<?xml version="1.0" encoding="utf-8"?>
<!DOCTYPE svg PUBLIC "-//W3C//DTD SVG 1.1//EN" "http://www.w3.org/Graphics/SVG/1.1/DTD/svg11.dtd" [
	<!ENTITY ns_extend "http://ns.adobe.com/Extensibility/1.0/">
	<!ENTITY ns_ai "http://ns.adobe.com/AdobeIllustrator/10.0/">
	<!ENTITY ns_graphs "http://ns.adobe.com/Graphs/1.0/">
	<!ENTITY ns_vars "http://ns.adobe.com/Variables/1.0/">
	<!ENTITY ns_imrep "http://ns.adobe.com/ImageReplacement/1.0/">
	<!ENTITY ns_sfw "http://ns.adobe.com/SaveForWeb/1.0/">
	<!ENTITY ns_custom "http://ns.adobe.com/GenericCustomNamespace/1.0/">
	<!ENTITY ns_adobe_xpath "http://ns.adobe.com/XPath/1.0/">
]>
<svg version="1.1" id="Internal_Structure" xmlns:x="&ns_extend;" xmlns:i="&ns_ai;" xmlns:graph="&ns_graphs;"
	 xmlns="http://www.w3.org/2000/svg" xmlns:xlink="http://www.w3.org/1999/xlink" x="0px" y="0px" width="612px" height="792px"
	 viewBox="0 0 612 792" enable-background="new 0 0 612 792" xml:space="preserve">
<switch>
<g i:extraneous="self">
<path xmlns="http://www.w3.org/2000/svg" xmlns:ns1="http://ns.adobe.com/AdobeIllustrator/10.0/" ns1:knockout="Off" fill-rule="evenodd" clip-rule="evenodd" fill="none" stroke="#000000" stroke-width="0.504" stroke-miterlimit="2.4142" d="      M449.567,428.625c-0.995,0-1.824-0.828-1.824-1.823c0-0.992,0.829-1.82,1.824-1.82c0.992,0,1.818,0.828,1.818,1.82      C451.386,427.797,450.56,428.625,449.567,428.625L449.567,428.625z"/>
<path xmlns="http://www.w3.org/2000/svg" xmlns:ns1="http://ns.adobe.com/AdobeIllustrator/10.0/" ns1:knockout="Off" fill-rule="evenodd" clip-rule="evenodd" fill="none" stroke="#000000" stroke-width="0.504" stroke-miterlimit="2.4142" d="      M455.228,428.625c-0.993,0-1.821-0.828-1.821-1.823c0-0.992,0.828-1.82,1.821-1.82c0.995,0,1.82,0.828,1.82,1.82      C457.048,427.797,456.223,428.625,455.228,428.625L455.228,428.625z"/>
<path xmlns="http://www.w3.org/2000/svg" xmlns:ns1="http://ns.adobe.com/AdobeIllustrator/10.0/" ns1:knockout="Off" fill-rule="evenodd" clip-rule="evenodd" fill="none" stroke="#000000" stroke-width="0.504" stroke-miterlimit="2.4142" d="      M461.072,428.625c-0.996,0-1.824-0.828-1.824-1.823c0-0.992,0.828-1.82,1.824-1.82c0.992,0,1.821,0.828,1.821,1.82      C462.894,427.797,462.064,428.625,461.072,428.625L461.072,428.625z"/>
<path xmlns="http://www.w3.org/2000/svg" xmlns:ns1="http://ns.adobe.com/AdobeIllustrator/10.0/" ns1:knockout="Off" fill-rule="evenodd" clip-rule="evenodd" fill="none" stroke="#000000" stroke-width="0.504" stroke-miterlimit="2.4142" d="      M449.567,436.916c-0.995,0-1.824-0.828-1.824-1.822c0-0.992,0.829-1.821,1.824-1.821c0.992,0,1.818,0.829,1.818,1.821      C451.386,436.088,450.56,436.916,449.567,436.916L449.567,436.916z"/>
<path xmlns="http://www.w3.org/2000/svg" xmlns:ns1="http://ns.adobe.com/AdobeIllustrator/10.0/" ns1:knockout="Off" fill-rule="evenodd" clip-rule="evenodd" fill="none" stroke="#000000" stroke-width="0.504" stroke-miterlimit="2.4142" d="      M455.228,436.916c-0.993,0-1.821-0.828-1.821-1.822c0-0.992,0.828-1.821,1.821-1.821c0.995,0,1.82,0.829,1.82,1.821      C457.048,436.088,456.223,436.916,455.228,436.916L455.228,436.916z"/>
<path xmlns="http://www.w3.org/2000/svg" xmlns:ns1="http://ns.adobe.com/AdobeIllustrator/10.0/" ns1:knockout="Off" fill-rule="evenodd" clip-rule="evenodd" fill="none" stroke="#000000" stroke-width="0.504" stroke-miterlimit="2.4142" d="      M461.072,436.916c-0.996,0-1.824-0.828-1.824-1.822c0-0.992,0.828-1.821,1.824-1.821c0.992,0,1.821,0.829,1.821,1.821      C462.894,436.088,462.064,436.916,461.072,436.916L461.072,436.916z"/>
<path xmlns="http://www.w3.org/2000/svg" xmlns:ns1="http://ns.adobe.com/AdobeIllustrator/10.0/" ns1:knockout="Off" fill-rule="evenodd" clip-rule="evenodd" fill="none" stroke="#000000" stroke-width="0.504" stroke-miterlimit="2.4142" d="      M449.567,445.206c-0.995,0-1.824-0.828-1.824-1.821s0.829-1.821,1.824-1.821c0.992,0,1.818,0.828,1.818,1.821      S450.56,445.206,449.567,445.206L449.567,445.206z"/>
<path xmlns="http://www.w3.org/2000/svg" xmlns:ns1="http://ns.adobe.com/AdobeIllustrator/10.0/" ns1:knockout="Off" fill-rule="evenodd" clip-rule="evenodd" fill="none" stroke="#000000" stroke-width="0.504" stroke-miterlimit="2.4142" d="      M455.228,445.206c-0.993,0-1.821-0.828-1.821-1.821s0.828-1.821,1.821-1.821c0.995,0,1.82,0.828,1.82,1.821      S456.223,445.206,455.228,445.206L455.228,445.206z"/>
<path xmlns="http://www.w3.org/2000/svg" xmlns:ns1="http://ns.adobe.com/AdobeIllustrator/10.0/" ns1:knockout="Off" fill-rule="evenodd" clip-rule="evenodd" fill="none" stroke="#000000" stroke-width="0.504" stroke-miterlimit="2.4142" d="      M461.072,445.206c-0.996,0-1.824-0.828-1.824-1.821s0.828-1.821,1.824-1.821c0.992,0,1.821,0.828,1.821,1.821      S462.064,445.206,461.072,445.206L461.072,445.206z"/>
<path xmlns="http://www.w3.org/2000/svg" xmlns:ns1="http://ns.adobe.com/AdobeIllustrator/10.0/" ns1:knockout="Off" fill-rule="evenodd" clip-rule="evenodd" fill="none" stroke="#000000" stroke-width="0.504" stroke-miterlimit="2.4142" d="     M461.072,453.26c-0.996,0-1.824-0.828-1.824-1.821s0.828-1.821,1.824-1.821c0.992,0,1.821,0.828,1.821,1.821     S462.064,453.26,461.072,453.26L461.072,453.26z"/>
<path xmlns="http://www.w3.org/2000/svg" xmlns:ns1="http://ns.adobe.com/AdobeIllustrator/10.0/" ns1:knockout="Off" fill-rule="evenodd" clip-rule="evenodd" fill="none" stroke="#000000" stroke-width="0.504" stroke-miterlimit="2.4142" d="     M461.072,458.776c-0.996,0-1.824-0.828-1.824-1.821s0.828-1.821,1.824-1.821c0.992,0,1.821,0.828,1.821,1.821     S462.064,458.776,461.072,458.776L461.072,458.776z"/>
<path xmlns="http://www.w3.org/2000/svg" xmlns:ns1="http://ns.adobe.com/AdobeIllustrator/10.0/" ns1:knockout="Off" fill-rule="evenodd" clip-rule="evenodd" fill="none" stroke="#000000" stroke-width="0.504" stroke-miterlimit="2.4142" d="     M462.652,464.293c-0.993,0-1.821-0.827-1.821-1.821c0-0.993,0.828-1.821,1.821-1.821c0.995,0,1.82,0.828,1.82,1.821     C464.473,463.466,463.647,464.293,462.652,464.293L462.652,464.293z"/>
<path xmlns="http://www.w3.org/2000/svg" xmlns:ns1="http://ns.adobe.com/AdobeIllustrator/10.0/" ns1:knockout="Off" fill-rule="evenodd" clip-rule="evenodd" fill="none" stroke="#000000" stroke-width="0.504" stroke-miterlimit="2.4142" d="     M463.051,469.811c-0.996,0-1.824-0.827-1.824-1.821c0-0.995,0.828-1.822,1.824-1.822c0.992,0,1.818,0.827,1.818,1.822     C464.869,468.983,464.043,469.811,463.051,469.811L463.051,469.811z"/>
<path xmlns="http://www.w3.org/2000/svg" xmlns:ns1="http://ns.adobe.com/AdobeIllustrator/10.0/" ns1:knockout="Off" fill-rule="evenodd" clip-rule="evenodd" fill="none" stroke="#000000" stroke-width="0.504" stroke-miterlimit="2.4142" d="     M464.56,475.326c-0.992,0-1.82-0.828-1.82-1.822c0-0.993,0.828-1.819,1.82-1.819c0.995,0,1.821,0.826,1.821,1.819     C466.381,474.498,465.555,475.326,464.56,475.326L464.56,475.326z"/>
<path xmlns="http://www.w3.org/2000/svg" xmlns:ns1="http://ns.adobe.com/AdobeIllustrator/10.0/" ns1:knockout="Off" fill-rule="evenodd" clip-rule="evenodd" fill="none" stroke="#000000" stroke-width="0.504" stroke-miterlimit="2.4142" d="     M455.547,480.481c-0.995,0-1.824-0.827-1.824-1.821s0.829-1.821,1.824-1.821c0.992,0,1.82,0.827,1.82,1.821     S456.539,480.481,455.547,480.481L455.547,480.481z"/>
<path xmlns="http://www.w3.org/2000/svg" xmlns:ns1="http://ns.adobe.com/AdobeIllustrator/10.0/" ns1:knockout="Off" fill-rule="evenodd" clip-rule="evenodd" fill="none" stroke="#000000" stroke-width="0.504" stroke-miterlimit="2.4142" d="     M461.389,480.481c-0.995,0-1.824-0.827-1.824-1.821s0.829-1.821,1.824-1.821c0.992,0,1.821,0.827,1.821,1.821     S462.381,480.481,461.389,480.481L461.389,480.481z"/>
</g>
</switch>
</svg>