<?xml version="1.0" encoding="utf-8"?>
<!DOCTYPE svg PUBLIC "-//W3C//DTD SVG 1.1//EN" "http://www.w3.org/Graphics/SVG/1.1/DTD/svg11.dtd" [
	<!ENTITY ns_extend "http://ns.adobe.com/Extensibility/1.0/">
	<!ENTITY ns_ai "http://ns.adobe.com/AdobeIllustrator/10.0/">
	<!ENTITY ns_graphs "http://ns.adobe.com/Graphs/1.0/">
	<!ENTITY ns_vars "http://ns.adobe.com/Variables/1.0/">
	<!ENTITY ns_imrep "http://ns.adobe.com/ImageReplacement/1.0/">
	<!ENTITY ns_sfw "http://ns.adobe.com/SaveForWeb/1.0/">
	<!ENTITY ns_custom "http://ns.adobe.com/GenericCustomNamespace/1.0/">
	<!ENTITY ns_adobe_xpath "http://ns.adobe.com/XPath/1.0/">
]>
<svg version="1.1" id="Internal_Structure" xmlns:x="&ns_extend;" xmlns:i="&ns_ai;" xmlns:graph="&ns_graphs;"
	 xmlns="http://www.w3.org/2000/svg" xmlns:xlink="http://www.w3.org/1999/xlink" x="0px" y="0px" width="612px" height="792px"
	 viewBox="0 0 612 792" enable-background="new 0 0 612 792" xml:space="preserve">
<switch>
<g i:extraneous="self">
<path xmlns="http://www.w3.org/2000/svg" xmlns:ns1="http://ns.adobe.com/AdobeIllustrator/10.0/" ns1:knockout="Off" fill-rule="evenodd" clip-rule="evenodd" fill="none" stroke="#000000" stroke-width="0.504" stroke-miterlimit="2.4142" d="      M458.46,489.92c0.976,0.19,1.946-0.464,2.138-1.439c0.19-0.977-0.467-1.946-1.442-2.136c-0.975-0.19-1.945,0.464-2.134,1.44      C456.831,488.761,457.485,489.731,458.46,489.92L458.46,489.92z"/>
<path xmlns="http://www.w3.org/2000/svg" xmlns:ns1="http://ns.adobe.com/AdobeIllustrator/10.0/" ns1:knockout="Off" fill-rule="evenodd" clip-rule="evenodd" fill="none" stroke="#000000" stroke-width="0.504" stroke-miterlimit="2.4142" d="      M457.395,495.393c0.979,0.189,1.95-0.465,2.14-1.439c0.189-0.977-0.465-1.947-1.443-2.137c-0.974-0.189-1.945,0.465-2.134,1.439      C455.769,494.232,456.423,495.203,457.395,495.393L457.395,495.393z"/>
<path xmlns="http://www.w3.org/2000/svg" xmlns:ns1="http://ns.adobe.com/AdobeIllustrator/10.0/" ns1:knockout="Off" fill-rule="evenodd" clip-rule="evenodd" fill="none" stroke="#000000" stroke-width="0.504" stroke-miterlimit="2.4142" d="      M456.334,500.865c0.976,0.188,1.946-0.466,2.138-1.441c0.188-0.975-0.467-1.943-1.442-2.133      c-0.975-0.191-1.945,0.463-2.137,1.438C454.705,499.705,455.359,500.675,456.334,500.865L456.334,500.865z"/>
<path xmlns="http://www.w3.org/2000/svg" xmlns:ns1="http://ns.adobe.com/AdobeIllustrator/10.0/" ns1:knockout="Off" fill-rule="evenodd" clip-rule="evenodd" fill="none" stroke="#000000" stroke-width="0.504" stroke-miterlimit="2.4142" d="      M455.271,506.338c0.977,0.188,1.947-0.465,2.135-1.441c0.191-0.976-0.463-1.945-1.441-2.135c-0.976-0.19-1.943,0.464-2.134,1.44      C453.639,505.178,454.293,506.148,455.271,506.338L455.271,506.338z"/>
<path xmlns="http://www.w3.org/2000/svg" xmlns:ns1="http://ns.adobe.com/AdobeIllustrator/10.0/" ns1:knockout="Off" fill-rule="evenodd" clip-rule="evenodd" fill="none" stroke="#000000" stroke-width="0.504" stroke-miterlimit="2.4142" d="      M454.206,511.811c0.976,0.189,1.946-0.465,2.138-1.44c0.188-0.976-0.467-1.945-1.442-2.136c-0.975-0.189-1.945,0.464-2.136,1.44      C452.577,510.65,453.23,511.621,454.206,511.811L454.206,511.811z"/>
<path xmlns="http://www.w3.org/2000/svg" xmlns:ns1="http://ns.adobe.com/AdobeIllustrator/10.0/" ns1:knockout="Off" fill-rule="evenodd" clip-rule="evenodd" fill="none" stroke="#000000" stroke-width="0.504" stroke-miterlimit="2.4142" d="      M453.14,517.281c0.979,0.191,1.95-0.463,2.139-1.438c0.19-0.976-0.467-1.946-1.442-2.137c-0.976-0.188-1.942,0.465-2.134,1.44      C451.511,516.123,452.168,517.094,453.14,517.281L453.14,517.281z"/>
<path xmlns="http://www.w3.org/2000/svg" xmlns:ns1="http://ns.adobe.com/AdobeIllustrator/10.0/" ns1:knockout="Off" fill-rule="evenodd" clip-rule="evenodd" fill="none" stroke="#000000" stroke-width="0.504" stroke-miterlimit="2.4142" d="      M452.078,522.755c0.979,0.188,1.946-0.464,2.138-1.438c0.188-0.977-0.467-1.947-1.442-2.136      c-0.975-0.191-1.945,0.463-2.137,1.439C450.449,521.597,451.104,522.564,452.078,522.755L452.078,522.755z"/>
<path xmlns="http://www.w3.org/2000/svg" xmlns:ns1="http://ns.adobe.com/AdobeIllustrator/10.0/" ns1:knockout="Off" fill-rule="evenodd" clip-rule="evenodd" fill="none" stroke="#000000" stroke-width="0.504" stroke-miterlimit="2.4142" d="      M451.013,528.228c0.979,0.189,1.95-0.464,2.138-1.44c0.191-0.976-0.466-1.944-1.441-2.136c-0.976-0.189-1.946,0.465-2.134,1.44      C449.384,527.066,450.038,528.037,451.013,528.228L451.013,528.228z"/>
<path xmlns="http://www.w3.org/2000/svg" xmlns:ns1="http://ns.adobe.com/AdobeIllustrator/10.0/" ns1:knockout="Off" fill-rule="evenodd" clip-rule="evenodd" fill="none" stroke="#000000" stroke-width="0.504" stroke-miterlimit="2.4142" d="      M449.951,533.699c0.976,0.189,1.946-0.463,2.138-1.439c0.188-0.977-0.467-1.946-1.442-2.136      c-0.975-0.188-1.944,0.464-2.137,1.439C448.322,532.541,448.977,533.51,449.951,533.699L449.951,533.699z"/>
<path xmlns="http://www.w3.org/2000/svg" xmlns:ns1="http://ns.adobe.com/AdobeIllustrator/10.0/" ns1:knockout="Off" fill-rule="evenodd" clip-rule="evenodd" fill="none" stroke="#000000" stroke-width="0.504" stroke-miterlimit="2.4142" d="      M448.886,539.172c0.979,0.191,1.95-0.463,2.138-1.438c0.188-0.979-0.464-1.946-1.441-2.137      c-0.975-0.189-1.945,0.465-2.134,1.441C447.257,538.014,447.911,538.983,448.886,539.172L448.886,539.172z"/>
<path xmlns="http://www.w3.org/2000/svg" xmlns:ns1="http://ns.adobe.com/AdobeIllustrator/10.0/" ns1:knockout="Off" fill-rule="evenodd" clip-rule="evenodd" fill="none" stroke="#000000" stroke-width="0.504" stroke-miterlimit="2.4142" d="      M447.824,544.646c0.978,0.189,1.946-0.464,2.135-1.44c0.19-0.976-0.463-1.945-1.441-2.137c-0.973-0.188-1.943,0.466-2.135,1.441      C446.195,543.485,446.847,544.456,447.824,544.646L447.824,544.646z"/>
<path xmlns="http://www.w3.org/2000/svg" xmlns:ns1="http://ns.adobe.com/AdobeIllustrator/10.0/" ns1:knockout="Off" fill-rule="evenodd" clip-rule="evenodd" fill="none" stroke="#000000" stroke-width="0.504" stroke-miterlimit="2.4142" d="      M446.759,550.114c0.976,0.192,1.946-0.462,2.137-1.438c0.191-0.977-0.466-1.945-1.441-2.134      c-0.975-0.19-1.945,0.463-2.134,1.438C445.129,548.956,445.783,549.927,446.759,550.114L446.759,550.114z"/>
<path xmlns="http://www.w3.org/2000/svg" xmlns:ns1="http://ns.adobe.com/AdobeIllustrator/10.0/" ns1:knockout="Off" fill-rule="evenodd" clip-rule="evenodd" fill="none" stroke="#000000" stroke-width="0.504" stroke-miterlimit="2.4142" d="      M445.695,555.59c0.976,0.188,1.946-0.466,2.138-1.44c0.188-0.977-0.466-1.946-1.445-2.136c-0.972-0.19-1.942,0.464-2.133,1.439      C444.066,554.428,444.718,555.399,445.695,555.59L445.695,555.59z"/>
<path xmlns="http://www.w3.org/2000/svg" xmlns:ns1="http://ns.adobe.com/AdobeIllustrator/10.0/" ns1:knockout="Off" fill-rule="evenodd" clip-rule="evenodd" fill="none" stroke="#000000" stroke-width="0.504" stroke-miterlimit="2.4142" d="      M444.631,561.063c0.976,0.188,1.946-0.466,2.138-1.443c0.19-0.976-0.467-1.946-1.442-2.134      c-0.975-0.188-1.945,0.465-2.134,1.438C443.001,559.901,443.655,560.871,444.631,561.063L444.631,561.063z"/>
<path xmlns="http://www.w3.org/2000/svg" xmlns:ns1="http://ns.adobe.com/AdobeIllustrator/10.0/" ns1:knockout="Off" fill-rule="evenodd" clip-rule="evenodd" fill="none" stroke="#000000" stroke-width="0.504" stroke-miterlimit="2.4142" d="      M443.566,566.535c0.976,0.188,1.946-0.466,2.138-1.443c0.19-0.976-0.467-1.946-1.442-2.134      c-0.975-0.188-1.945,0.465-2.134,1.438C441.937,565.374,442.591,566.344,443.566,566.535L443.566,566.535z"/>
<path xmlns="http://www.w3.org/2000/svg" xmlns:ns1="http://ns.adobe.com/AdobeIllustrator/10.0/" ns1:knockout="Off" fill-rule="evenodd" clip-rule="evenodd" fill="none" stroke="#000000" stroke-width="0.504" stroke-miterlimit="2.4142" d="      M442.505,572.006c0.976,0.192,1.946-0.462,2.135-1.438c0.191-0.976-0.463-1.946-1.441-2.137      c-0.976-0.188-1.942,0.465-2.134,1.441C440.875,570.848,441.53,571.817,442.505,572.006L442.505,572.006z"/>
</g>
</switch>
</svg>