<?xml version="1.0" encoding="utf-8"?>
<!DOCTYPE svg PUBLIC "-//W3C//DTD SVG 1.1//EN" "http://www.w3.org/Graphics/SVG/1.1/DTD/svg11.dtd" [
	<!ENTITY ns_extend "http://ns.adobe.com/Extensibility/1.0/">
	<!ENTITY ns_ai "http://ns.adobe.com/AdobeIllustrator/10.0/">
	<!ENTITY ns_graphs "http://ns.adobe.com/Graphs/1.0/">
	<!ENTITY ns_vars "http://ns.adobe.com/Variables/1.0/">
	<!ENTITY ns_imrep "http://ns.adobe.com/ImageReplacement/1.0/">
	<!ENTITY ns_sfw "http://ns.adobe.com/SaveForWeb/1.0/">
	<!ENTITY ns_custom "http://ns.adobe.com/GenericCustomNamespace/1.0/">
	<!ENTITY ns_adobe_xpath "http://ns.adobe.com/XPath/1.0/">
]>
<svg version="1.1" id="Internal_Structure" xmlns:x="&ns_extend;" xmlns:i="&ns_ai;" xmlns:graph="&ns_graphs;"
	 xmlns="http://www.w3.org/2000/svg" xmlns:xlink="http://www.w3.org/1999/xlink" x="0px" y="0px" width="612px" height="792px"
	 viewBox="0 0 612 792" enable-background="new 0 0 612 792" xml:space="preserve">
<switch>
<g i:extraneous="self">
<path xmlns="http://www.w3.org/2000/svg" xmlns:ns1="http://ns.adobe.com/AdobeIllustrator/10.0/" ns1:knockout="Off" fill-rule="evenodd" clip-rule="evenodd" fill="none" stroke="#000000" stroke-width="0.504" stroke-miterlimit="2.4142" d="      M524.813,426.33c0.994,0,1.822-0.828,1.822-1.82c0-0.994-0.828-1.822-1.822-1.822c-0.993,0-1.82,0.828-1.82,1.822      C522.993,425.502,523.82,426.33,524.813,426.33L524.813,426.33z"/>
<path xmlns="http://www.w3.org/2000/svg" xmlns:ns1="http://ns.adobe.com/AdobeIllustrator/10.0/" ns1:knockout="Off" fill-rule="evenodd" clip-rule="evenodd" fill="none" stroke="#000000" stroke-width="0.504" stroke-miterlimit="2.4142" d="      M525.297,431.39c0.994,0,1.822-0.828,1.822-1.82c0-0.994-0.828-1.822-1.822-1.822c-0.993,0-1.82,0.828-1.82,1.822      C523.477,430.562,524.304,431.39,525.297,431.39L525.297,431.39z"/>
<path xmlns="http://www.w3.org/2000/svg" xmlns:ns1="http://ns.adobe.com/AdobeIllustrator/10.0/" ns1:knockout="Off" fill-rule="evenodd" clip-rule="evenodd" fill="none" stroke="#000000" stroke-width="0.504" stroke-miterlimit="2.4142" d="      M525.779,437.015c0.994,0,1.822-0.828,1.822-1.82c0-0.994-0.828-1.822-1.822-1.822c-0.993,0-1.82,0.828-1.82,1.822      C523.959,436.187,524.786,437.015,525.779,437.015L525.779,437.015z"/>
<path xmlns="http://www.w3.org/2000/svg" xmlns:ns1="http://ns.adobe.com/AdobeIllustrator/10.0/" ns1:knockout="Off" fill-rule="evenodd" clip-rule="evenodd" fill="none" stroke="#000000" stroke-width="0.504" stroke-miterlimit="2.4142" d="      M526.263,442.356c0.994,0,1.822-0.828,1.822-1.82c0-0.994-0.828-1.822-1.822-1.822c-0.993,0-1.82,0.828-1.82,1.822      C524.442,441.528,525.27,442.356,526.263,442.356L526.263,442.356z"/>
<path xmlns="http://www.w3.org/2000/svg" xmlns:ns1="http://ns.adobe.com/AdobeIllustrator/10.0/" ns1:knockout="Off" fill-rule="evenodd" clip-rule="evenodd" fill="none" stroke="#000000" stroke-width="0.504" stroke-miterlimit="2.4142" d="      M526.745,447.699c0.994,0,1.822-0.828,1.822-1.82c0-0.994-0.828-1.822-1.822-1.822c-0.993,0-1.82,0.828-1.82,1.822      C524.925,446.871,525.752,447.699,526.745,447.699L526.745,447.699z"/>
<path xmlns="http://www.w3.org/2000/svg" xmlns:ns1="http://ns.adobe.com/AdobeIllustrator/10.0/" ns1:knockout="Off" fill-rule="evenodd" clip-rule="evenodd" fill="none" stroke="#000000" stroke-width="0.504" stroke-miterlimit="2.4142" d="      M527.229,453.041c0.994,0,1.822-0.828,1.822-1.82c0-0.994-0.828-1.822-1.822-1.822c-0.993,0-1.82,0.828-1.82,1.822      C525.408,452.213,526.235,453.041,527.229,453.041L527.229,453.041z"/>
<path xmlns="http://www.w3.org/2000/svg" xmlns:ns1="http://ns.adobe.com/AdobeIllustrator/10.0/" ns1:knockout="Off" fill-rule="evenodd" clip-rule="evenodd" fill="none" stroke="#000000" stroke-width="0.504" stroke-miterlimit="2.4142" d="      M527.711,458.384c0.994,0,1.822-0.828,1.822-1.82c0-0.994-0.828-1.822-1.822-1.822c-0.993,0-1.82,0.828-1.82,1.822      C525.891,457.556,526.718,458.384,527.711,458.384L527.711,458.384z"/>
<path xmlns="http://www.w3.org/2000/svg" xmlns:ns1="http://ns.adobe.com/AdobeIllustrator/10.0/" ns1:knockout="Off" fill-rule="evenodd" clip-rule="evenodd" fill="none" stroke="#000000" stroke-width="0.504" stroke-miterlimit="2.4142" d="      M528.194,463.726c0.994,0,1.822-0.828,1.822-1.82c0-0.994-0.828-1.822-1.822-1.822c-0.993,0-1.82,0.828-1.82,1.822      C526.374,462.897,527.201,463.726,528.194,463.726L528.194,463.726z"/>
<path xmlns="http://www.w3.org/2000/svg" xmlns:ns1="http://ns.adobe.com/AdobeIllustrator/10.0/" ns1:knockout="Off" fill-rule="evenodd" clip-rule="evenodd" fill="none" stroke="#000000" stroke-width="0.504" stroke-miterlimit="2.4142" d="      M528.677,469.068c0.994,0,1.822-0.828,1.822-1.82c0-0.994-0.828-1.822-1.822-1.822c-0.993,0-1.82,0.828-1.82,1.822      C526.856,468.24,527.684,469.068,528.677,469.068L528.677,469.068z"/>
<path xmlns="http://www.w3.org/2000/svg" xmlns:ns1="http://ns.adobe.com/AdobeIllustrator/10.0/" ns1:knockout="Off" fill-rule="evenodd" clip-rule="evenodd" fill="none" stroke="#000000" stroke-width="0.504" stroke-miterlimit="2.4142" d="      M529.16,474.41c0.994,0,1.822-0.828,1.822-1.82c0-0.994-0.828-1.822-1.822-1.822c-0.993,0-1.82,0.828-1.82,1.822      C527.34,473.582,528.167,474.41,529.16,474.41L529.16,474.41z"/>
<path xmlns="http://www.w3.org/2000/svg" xmlns:ns1="http://ns.adobe.com/AdobeIllustrator/10.0/" ns1:knockout="Off" fill-rule="evenodd" clip-rule="evenodd" fill="none" stroke="#000000" stroke-width="0.504" stroke-miterlimit="2.4142" d="      M529.643,479.753c0.994,0,1.822-0.828,1.822-1.82c0-0.994-0.828-1.822-1.822-1.822c-0.993,0-1.82,0.828-1.82,1.822      C527.822,478.925,528.649,479.753,529.643,479.753L529.643,479.753z"/>
<path xmlns="http://www.w3.org/2000/svg" xmlns:ns1="http://ns.adobe.com/AdobeIllustrator/10.0/" ns1:knockout="Off" fill-rule="evenodd" clip-rule="evenodd" fill="none" stroke="#000000" stroke-width="0.504" stroke-miterlimit="2.4142" d="      M530.126,485.095c0.994,0,1.822-0.828,1.822-1.82c0-0.994-0.828-1.822-1.822-1.822c-0.993,0-1.82,0.828-1.82,1.822      C528.306,484.267,529.133,485.095,530.126,485.095L530.126,485.095z"/>
<path xmlns="http://www.w3.org/2000/svg" xmlns:ns1="http://ns.adobe.com/AdobeIllustrator/10.0/" ns1:knockout="Off" fill-rule="evenodd" clip-rule="evenodd" fill="none" stroke="#000000" stroke-width="0.504" stroke-miterlimit="2.4142" d="      M530.608,490.438c0.994,0,1.822-0.828,1.822-1.82c0-0.994-0.828-1.822-1.822-1.822c-0.993,0-1.82,0.828-1.82,1.822      C528.788,489.609,529.615,490.438,530.608,490.438L530.608,490.438z"/>
<path xmlns="http://www.w3.org/2000/svg" xmlns:ns1="http://ns.adobe.com/AdobeIllustrator/10.0/" ns1:knockout="Off" fill-rule="evenodd" clip-rule="evenodd" fill="none" stroke="#000000" stroke-width="0.504" stroke-miterlimit="2.4142" d="      M531.092,495.779c0.994,0,1.822-0.828,1.822-1.82c0-0.994-0.828-1.822-1.822-1.822c-0.993,0-1.82,0.828-1.82,1.822      C529.271,494.951,530.099,495.779,531.092,495.779L531.092,495.779z"/>
</g>
</switch>
</svg>