<?xml version="1.0" encoding="utf-8"?>
<!DOCTYPE svg PUBLIC "-//W3C//DTD SVG 1.1//EN" "http://www.w3.org/Graphics/SVG/1.1/DTD/svg11.dtd" [
	<!ENTITY ns_extend "http://ns.adobe.com/Extensibility/1.0/">
	<!ENTITY ns_ai "http://ns.adobe.com/AdobeIllustrator/10.0/">
	<!ENTITY ns_graphs "http://ns.adobe.com/Graphs/1.0/">
	<!ENTITY ns_vars "http://ns.adobe.com/Variables/1.0/">
	<!ENTITY ns_imrep "http://ns.adobe.com/ImageReplacement/1.0/">
	<!ENTITY ns_sfw "http://ns.adobe.com/SaveForWeb/1.0/">
	<!ENTITY ns_custom "http://ns.adobe.com/GenericCustomNamespace/1.0/">
	<!ENTITY ns_adobe_xpath "http://ns.adobe.com/XPath/1.0/">
]>
<svg version="1.1" id="Internal_Structure" xmlns:x="&ns_extend;" xmlns:i="&ns_ai;" xmlns:graph="&ns_graphs;"
	 xmlns="http://www.w3.org/2000/svg" xmlns:xlink="http://www.w3.org/1999/xlink" x="0px" y="0px" width="612px" height="792px"
	 viewBox="0 0 612 792" enable-background="new 0 0 612 792" xml:space="preserve">
<switch>
<g i:extraneous="self">
<path xmlns="http://www.w3.org/2000/svg" xmlns:ns1="http://ns.adobe.com/AdobeIllustrator/10.0/" ns1:knockout="Off" fill-rule="evenodd" clip-rule="evenodd" fill="none" stroke="#000000" stroke-width="0.504" stroke-miterlimit="2.4142" d="      M497.06,489.92c-0.976,0.19-1.946-0.464-2.137-1.439c-0.191-0.977,0.466-1.946,1.441-2.136c0.975-0.19,1.945,0.464,2.136,1.44      C498.689,488.761,498.035,489.731,497.06,489.92L497.06,489.92z"/>
<path xmlns="http://www.w3.org/2000/svg" xmlns:ns1="http://ns.adobe.com/AdobeIllustrator/10.0/" ns1:knockout="Off" fill-rule="evenodd" clip-rule="evenodd" fill="none" stroke="#000000" stroke-width="0.504" stroke-miterlimit="2.4142" d="      M498.657,498.129c-0.979,0.188-1.949-0.466-2.138-1.44c-0.191-0.976,0.463-1.946,1.441-2.136      c0.976-0.189,1.943,0.465,2.134,1.439C500.283,496.969,499.629,497.939,498.657,498.129L498.657,498.129z"/>
<path xmlns="http://www.w3.org/2000/svg" xmlns:ns1="http://ns.adobe.com/AdobeIllustrator/10.0/" ns1:knockout="Off" fill-rule="evenodd" clip-rule="evenodd" fill="none" stroke="#000000" stroke-width="0.504" stroke-miterlimit="2.4142" d="      M500.251,506.337c-0.975,0.188-1.946-0.466-2.138-1.441c-0.188-0.975,0.467-1.943,1.442-2.133      c0.975-0.191,1.945,0.463,2.137,1.438C501.881,505.177,501.227,506.146,500.251,506.337L500.251,506.337z"/>
<path xmlns="http://www.w3.org/2000/svg" xmlns:ns1="http://ns.adobe.com/AdobeIllustrator/10.0/" ns1:knockout="Off" fill-rule="evenodd" clip-rule="evenodd" fill="none" stroke="#000000" stroke-width="0.504" stroke-miterlimit="2.4142" d="      M501.846,514.547c-0.976,0.188-1.946-0.465-2.135-1.441c-0.191-0.976,0.463-1.945,1.442-2.135      c0.975-0.19,1.942,0.464,2.133,1.44C503.478,513.387,502.823,514.357,501.846,514.547L501.846,514.547z"/>
<path xmlns="http://www.w3.org/2000/svg" xmlns:ns1="http://ns.adobe.com/AdobeIllustrator/10.0/" ns1:knockout="Off" fill-rule="evenodd" clip-rule="evenodd" fill="none" stroke="#000000" stroke-width="0.504" stroke-miterlimit="2.4142" d="      M503.443,522.755c-0.976,0.189-1.946-0.465-2.138-1.44c-0.188-0.976,0.467-1.945,1.442-2.136      c0.975-0.189,1.945,0.464,2.134,1.44C505.072,521.595,504.419,522.565,503.443,522.755L503.443,522.755z"/>
<path xmlns="http://www.w3.org/2000/svg" xmlns:ns1="http://ns.adobe.com/AdobeIllustrator/10.0/" ns1:knockout="Off" fill-rule="evenodd" clip-rule="evenodd" fill="none" stroke="#000000" stroke-width="0.504" stroke-miterlimit="2.4142" d="      M505.041,530.963c-0.979,0.191-1.95-0.463-2.141-1.438c-0.188-0.976,0.467-1.946,1.445-2.137      c0.975-0.188,1.941,0.465,2.133,1.44C506.67,529.805,506.013,530.775,505.041,530.963L505.041,530.963z"/>
<path xmlns="http://www.w3.org/2000/svg" xmlns:ns1="http://ns.adobe.com/AdobeIllustrator/10.0/" ns1:knockout="Off" fill-rule="evenodd" clip-rule="evenodd" fill="none" stroke="#000000" stroke-width="0.504" stroke-miterlimit="2.4142" d="      M506.634,539.172c-0.979,0.188-1.946-0.464-2.138-1.438c-0.188-0.977,0.467-1.947,1.442-2.136      c0.975-0.191,1.945,0.463,2.137,1.439C508.263,538.014,507.61,538.981,506.634,539.172L506.634,539.172z"/>
<path xmlns="http://www.w3.org/2000/svg" xmlns:ns1="http://ns.adobe.com/AdobeIllustrator/10.0/" ns1:knockout="Off" fill-rule="evenodd" clip-rule="evenodd" fill="none" stroke="#000000" stroke-width="0.504" stroke-miterlimit="2.4142" d="      M508.231,547.381c-0.979,0.189-1.95-0.464-2.138-1.44c-0.191-0.976,0.464-1.944,1.442-2.136c0.975-0.189,1.945,0.465,2.133,1.44      C509.86,546.22,509.206,547.19,508.231,547.381L508.231,547.381z"/>
<path xmlns="http://www.w3.org/2000/svg" xmlns:ns1="http://ns.adobe.com/AdobeIllustrator/10.0/" ns1:knockout="Off" fill-rule="evenodd" clip-rule="evenodd" fill="none" stroke="#000000" stroke-width="0.504" stroke-miterlimit="2.4142" d="      M509.824,555.589c-0.976,0.189-1.946-0.463-2.138-1.439c-0.188-0.977,0.467-1.946,1.442-2.136      c0.977-0.188,1.945,0.464,2.137,1.439C511.453,554.431,510.799,555.399,509.824,555.589L509.824,555.589z"/>
<path xmlns="http://www.w3.org/2000/svg" xmlns:ns1="http://ns.adobe.com/AdobeIllustrator/10.0/" ns1:knockout="Off" fill-rule="evenodd" clip-rule="evenodd" fill="none" stroke="#000000" stroke-width="0.504" stroke-miterlimit="2.4142" d="      M511.422,563.798c-0.979,0.191-1.95-0.463-2.138-1.438c-0.19-0.979,0.466-1.946,1.441-2.137      c0.976-0.189,1.945,0.465,2.134,1.441C513.051,562.64,512.396,563.609,511.422,563.798L511.422,563.798z"/>
<path xmlns="http://www.w3.org/2000/svg" xmlns:ns1="http://ns.adobe.com/AdobeIllustrator/10.0/" ns1:knockout="Off" fill-rule="evenodd" clip-rule="evenodd" fill="none" stroke="#000000" stroke-width="0.504" stroke-miterlimit="2.4142" d="      M513.015,572.006c-0.976,0.192-1.946-0.462-2.135-1.438c-0.19-0.976,0.464-1.946,1.439-2.137      c0.978-0.188,1.944,0.465,2.137,1.441C514.646,570.848,513.989,571.817,513.015,572.006L513.015,572.006z"/>
</g>
</switch>
</svg>