<?xml version="1.0" encoding="utf-8"?>
<!DOCTYPE svg PUBLIC "-//W3C//DTD SVG 1.1//EN" "http://www.w3.org/Graphics/SVG/1.1/DTD/svg11.dtd" [
	<!ENTITY ns_extend "http://ns.adobe.com/Extensibility/1.0/">
	<!ENTITY ns_ai "http://ns.adobe.com/AdobeIllustrator/10.0/">
	<!ENTITY ns_graphs "http://ns.adobe.com/Graphs/1.0/">
	<!ENTITY ns_vars "http://ns.adobe.com/Variables/1.0/">
	<!ENTITY ns_imrep "http://ns.adobe.com/ImageReplacement/1.0/">
	<!ENTITY ns_sfw "http://ns.adobe.com/SaveForWeb/1.0/">
	<!ENTITY ns_custom "http://ns.adobe.com/GenericCustomNamespace/1.0/">
	<!ENTITY ns_adobe_xpath "http://ns.adobe.com/XPath/1.0/">
]>
<svg version="1.1" id="Internal_Structure" xmlns:x="&ns_extend;" xmlns:i="&ns_ai;" xmlns:graph="&ns_graphs;"
	 xmlns="http://www.w3.org/2000/svg" xmlns:xlink="http://www.w3.org/1999/xlink" x="0px" y="0px" width="612px" height="792px"
	 viewBox="0 0 612 792" enable-background="new 0 0 612 792" xml:space="preserve">
<switch>
<g i:extraneous="self">
<path xmlns="http://www.w3.org/2000/svg" xmlns:ns1="http://ns.adobe.com/AdobeIllustrator/10.0/" ns1:knockout="Off" fill-rule="evenodd" clip-rule="evenodd" fill="none" stroke="#000000" stroke-width="0.504" stroke-miterlimit="2.4142" d="      M498.918,489.345c0.978-0.19,1.632-1.16,1.443-2.137c-0.189-0.974-1.162-1.63-2.137-1.439c-0.976,0.188-1.631,1.159-1.44,2.134      C496.974,488.879,497.944,489.533,498.918,489.345L498.918,489.345z"/>
<path xmlns="http://www.w3.org/2000/svg" xmlns:ns1="http://ns.adobe.com/AdobeIllustrator/10.0/" ns1:knockout="Off" fill-rule="evenodd" clip-rule="evenodd" fill="none" stroke="#000000" stroke-width="0.504" stroke-miterlimit="2.4142" d="      M495.729,494.105c0.976-0.19,1.631-1.16,1.44-2.135c-0.189-0.977-1.16-1.631-2.137-1.44c-0.975,0.189-1.628,1.158-1.439,2.135      C493.784,493.641,494.753,494.295,495.729,494.105L495.729,494.105z"/>
<path xmlns="http://www.w3.org/2000/svg" xmlns:ns1="http://ns.adobe.com/AdobeIllustrator/10.0/" ns1:knockout="Off" fill-rule="evenodd" clip-rule="evenodd" fill="none" stroke="#000000" stroke-width="0.504" stroke-miterlimit="2.4142" d="      M500.691,498.467c0.978-0.191,1.631-1.161,1.442-2.136c-0.188-0.977-1.16-1.63-2.138-1.439      c-0.974,0.188-1.629,1.158-1.438,2.135C498.747,498.002,499.718,498.655,500.691,498.467L500.691,498.467z"/>
<path xmlns="http://www.w3.org/2000/svg" xmlns:ns1="http://ns.adobe.com/AdobeIllustrator/10.0/" ns1:knockout="Off" fill-rule="evenodd" clip-rule="evenodd" fill="none" stroke="#000000" stroke-width="0.504" stroke-miterlimit="2.4142" d="      M497.538,503.418c0.977-0.188,1.632-1.158,1.441-2.135c-0.189-0.975-1.16-1.631-2.136-1.44      c-0.976,0.189-1.629,1.159-1.439,2.136C495.594,502.953,496.563,503.607,497.538,503.418L497.538,503.418z"/>
<path xmlns="http://www.w3.org/2000/svg" xmlns:ns1="http://ns.adobe.com/AdobeIllustrator/10.0/" ns1:knockout="Off" fill-rule="evenodd" clip-rule="evenodd" fill="none" stroke="#000000" stroke-width="0.504" stroke-miterlimit="2.4142" d="      M502.465,507.59c0.977-0.19,1.633-1.161,1.443-2.137c-0.19-0.976-1.161-1.63-2.138-1.44c-0.976,0.189-1.629,1.16-1.44,2.136      C500.52,507.124,501.49,507.778,502.465,507.59L502.465,507.59z"/>
<path xmlns="http://www.w3.org/2000/svg" xmlns:ns1="http://ns.adobe.com/AdobeIllustrator/10.0/" ns1:knockout="Off" fill-rule="evenodd" clip-rule="evenodd" fill="none" stroke="#000000" stroke-width="0.504" stroke-miterlimit="2.4142" d="      M499.35,512.73c0.977-0.189,1.631-1.16,1.441-2.135c-0.189-0.977-1.16-1.631-2.137-1.44c-0.976,0.189-1.63,1.159-1.439,2.136      C497.404,512.266,498.374,512.922,499.35,512.73L499.35,512.73z"/>
<path xmlns="http://www.w3.org/2000/svg" xmlns:ns1="http://ns.adobe.com/AdobeIllustrator/10.0/" ns1:knockout="Off" fill-rule="evenodd" clip-rule="evenodd" fill="none" stroke="#000000" stroke-width="0.504" stroke-miterlimit="2.4142" d="      M504.238,516.712c0.977-0.189,1.632-1.162,1.442-2.137s-1.161-1.629-2.138-1.439c-0.976,0.19-1.629,1.16-1.438,2.135      C502.294,516.246,503.263,516.9,504.238,516.712L504.238,516.712z"/>
<path xmlns="http://www.w3.org/2000/svg" xmlns:ns1="http://ns.adobe.com/AdobeIllustrator/10.0/" ns1:knockout="Off" fill-rule="evenodd" clip-rule="evenodd" fill="none" stroke="#000000" stroke-width="0.504" stroke-miterlimit="2.4142" d="      M501.159,522.044c0.976-0.191,1.632-1.161,1.442-2.137s-1.161-1.629-2.138-1.439c-0.976,0.189-1.629,1.158-1.439,2.135      C499.214,521.577,500.184,522.232,501.159,522.044L501.159,522.044z"/>
<path xmlns="http://www.w3.org/2000/svg" xmlns:ns1="http://ns.adobe.com/AdobeIllustrator/10.0/" ns1:knockout="Off" fill-rule="evenodd" clip-rule="evenodd" fill="none" stroke="#000000" stroke-width="0.504" stroke-miterlimit="2.4142" d="      M506.014,525.834c0.977-0.189,1.63-1.16,1.439-2.136c-0.188-0.976-1.158-1.63-2.136-1.439c-0.975,0.188-1.629,1.159-1.439,2.136      C504.067,525.369,505.038,526.023,506.014,525.834L506.014,525.834z"/>
<path xmlns="http://www.w3.org/2000/svg" xmlns:ns1="http://ns.adobe.com/AdobeIllustrator/10.0/" ns1:knockout="Off" fill-rule="evenodd" clip-rule="evenodd" fill="none" stroke="#000000" stroke-width="0.504" stroke-miterlimit="2.4142" d="      M502.97,531.356c0.976-0.19,1.631-1.16,1.442-2.137c-0.19-0.975-1.162-1.63-2.138-1.439c-0.976,0.189-1.63,1.16-1.439,2.135      C501.023,530.89,501.994,531.545,502.97,531.356L502.97,531.356z"/>
<path xmlns="http://www.w3.org/2000/svg" xmlns:ns1="http://ns.adobe.com/AdobeIllustrator/10.0/" ns1:knockout="Off" fill-rule="evenodd" clip-rule="evenodd" fill="none" stroke="#000000" stroke-width="0.504" stroke-miterlimit="2.4142" d="      M507.784,534.957c0.978-0.191,1.632-1.162,1.443-2.137c-0.189-0.977-1.16-1.631-2.138-1.439c-0.976,0.189-1.63,1.158-1.44,2.134      C505.84,534.49,506.811,535.145,507.784,534.957L507.784,534.957z"/>
<path xmlns="http://www.w3.org/2000/svg" xmlns:ns1="http://ns.adobe.com/AdobeIllustrator/10.0/" ns1:knockout="Off" fill-rule="evenodd" clip-rule="evenodd" fill="none" stroke="#000000" stroke-width="0.504" stroke-miterlimit="2.4142" d="      M504.78,540.669c0.976-0.189,1.631-1.16,1.441-2.136c-0.19-0.976-1.161-1.63-2.137-1.44s-1.629,1.159-1.439,2.137      C502.835,540.203,503.804,540.858,504.78,540.669L504.78,540.669z"/>
<path xmlns="http://www.w3.org/2000/svg" xmlns:ns1="http://ns.adobe.com/AdobeIllustrator/10.0/" ns1:knockout="Off" fill-rule="evenodd" clip-rule="evenodd" fill="none" stroke="#000000" stroke-width="0.504" stroke-miterlimit="2.4142" d="      M509.558,544.079c0.977-0.19,1.632-1.16,1.443-2.137c-0.191-0.977-1.162-1.629-2.139-1.439      c-0.974,0.189-1.629,1.158-1.438,2.135C507.613,543.612,508.584,544.268,509.558,544.079L509.558,544.079z"/>
<path xmlns="http://www.w3.org/2000/svg" xmlns:ns1="http://ns.adobe.com/AdobeIllustrator/10.0/" ns1:knockout="Off" fill-rule="evenodd" clip-rule="evenodd" fill="none" stroke="#000000" stroke-width="0.504" stroke-miterlimit="2.4142" d="      M506.589,549.981c0.978-0.188,1.633-1.16,1.443-2.138c-0.19-0.974-1.161-1.628-2.137-1.438      c-0.976,0.189-1.632,1.159-1.439,2.135C504.646,549.516,505.614,550.172,506.589,549.981L506.589,549.981z"/>
<path xmlns="http://www.w3.org/2000/svg" xmlns:ns1="http://ns.adobe.com/AdobeIllustrator/10.0/" ns1:knockout="Off" fill-rule="evenodd" clip-rule="evenodd" fill="none" stroke="#000000" stroke-width="0.504" stroke-miterlimit="2.4142" d="      M511.332,553.201c0.977-0.19,1.63-1.16,1.441-2.135c-0.189-0.977-1.16-1.631-2.137-1.441c-0.976,0.19-1.629,1.161-1.439,2.136      C509.386,552.736,510.356,553.391,511.332,553.201L511.332,553.201z"/>
<path xmlns="http://www.w3.org/2000/svg" xmlns:ns1="http://ns.adobe.com/AdobeIllustrator/10.0/" ns1:knockout="Off" fill-rule="evenodd" clip-rule="evenodd" fill="none" stroke="#000000" stroke-width="0.504" stroke-miterlimit="2.4142" d="      M508.142,557.963c0.976-0.189,1.631-1.16,1.441-2.136c-0.188-0.976-1.16-1.63-2.137-1.439c-0.976,0.188-1.629,1.159-1.439,2.134      C506.197,557.498,507.166,558.152,508.142,557.963L508.142,557.963z"/>
<path xmlns="http://www.w3.org/2000/svg" xmlns:ns1="http://ns.adobe.com/AdobeIllustrator/10.0/" ns1:knockout="Off" fill-rule="evenodd" clip-rule="evenodd" fill="none" stroke="#000000" stroke-width="0.504" stroke-miterlimit="2.4142" d="      M510.693,563.221c0.977-0.191,1.631-1.162,1.441-2.137s-1.159-1.631-2.137-1.441c-0.974,0.189-1.629,1.161-1.439,2.136      C508.749,562.754,509.718,563.408,510.693,563.221L510.693,563.221z"/>
<path xmlns="http://www.w3.org/2000/svg" xmlns:ns1="http://ns.adobe.com/AdobeIllustrator/10.0/" ns1:knockout="Off" fill-rule="evenodd" clip-rule="evenodd" fill="none" stroke="#000000" stroke-width="0.504" stroke-miterlimit="2.4142" d="      M511.883,568.699c0.976-0.191,1.632-1.16,1.442-2.137c-0.19-0.977-1.162-1.629-2.139-1.44c-0.974,0.19-1.629,1.159-1.438,2.136      C509.938,568.232,510.908,568.887,511.883,568.699L511.883,568.699z"/>
<path xmlns="http://www.w3.org/2000/svg" xmlns:ns1="http://ns.adobe.com/AdobeIllustrator/10.0/" ns1:knockout="Off" fill-rule="evenodd" clip-rule="evenodd" fill="none" stroke="#000000" stroke-width="0.504" stroke-miterlimit="2.4142" d="      M515.848,573.133c0.978-0.188,1.633-1.16,1.443-2.136s-1.162-1.63-2.139-1.44c-0.974,0.189-1.629,1.161-1.438,2.135      C513.904,572.668,514.874,573.324,515.848,573.133L515.848,573.133z"/>
</g>
</switch>
</svg>