<?xml version="1.0" encoding="utf-8"?>
<!DOCTYPE svg PUBLIC "-//W3C//DTD SVG 1.1//EN" "http://www.w3.org/Graphics/SVG/1.1/DTD/svg11.dtd" [
	<!ENTITY ns_extend "http://ns.adobe.com/Extensibility/1.0/">
	<!ENTITY ns_ai "http://ns.adobe.com/AdobeIllustrator/10.0/">
	<!ENTITY ns_graphs "http://ns.adobe.com/Graphs/1.0/">
	<!ENTITY ns_vars "http://ns.adobe.com/Variables/1.0/">
	<!ENTITY ns_imrep "http://ns.adobe.com/ImageReplacement/1.0/">
	<!ENTITY ns_sfw "http://ns.adobe.com/SaveForWeb/1.0/">
	<!ENTITY ns_custom "http://ns.adobe.com/GenericCustomNamespace/1.0/">
	<!ENTITY ns_adobe_xpath "http://ns.adobe.com/XPath/1.0/">
]>
<svg version="1.1" id="Internal_Structure" xmlns:x="&ns_extend;" xmlns:i="&ns_ai;" xmlns:graph="&ns_graphs;"
	 xmlns="http://www.w3.org/2000/svg" xmlns:xlink="http://www.w3.org/1999/xlink" x="0px" y="0px" width="612px" height="792px"
	 viewBox="0 0 612 792" enable-background="new 0 0 612 792" xml:space="preserve">
<switch>
<g i:extraneous="self">
<path xmlns="http://www.w3.org/2000/svg" xmlns:ns1="http://ns.adobe.com/AdobeIllustrator/10.0/" ns1:knockout="Off" fill-rule="evenodd" clip-rule="evenodd" fill="none" stroke="#000000" stroke-width="0.504" stroke-miterlimit="2.4142" d="      M458.46,489.92c0.976,0.19,1.946-0.464,2.138-1.439c0.19-0.977-0.467-1.946-1.442-2.136c-0.975-0.19-1.945,0.464-2.134,1.44      C456.831,488.761,457.485,489.731,458.46,489.92L458.46,489.92z"/>
<path xmlns="http://www.w3.org/2000/svg" xmlns:ns1="http://ns.adobe.com/AdobeIllustrator/10.0/" ns1:knockout="Off" fill-rule="evenodd" clip-rule="evenodd" fill="none" stroke="#000000" stroke-width="0.504" stroke-miterlimit="2.4142" d="      M457.129,496.761c0.979,0.188,1.95-0.466,2.14-1.44c0.189-0.976-0.465-1.946-1.443-2.136c-0.974-0.189-1.945,0.465-2.134,1.439      C455.503,495.601,456.157,496.571,457.129,496.761L457.129,496.761z"/>
<path xmlns="http://www.w3.org/2000/svg" xmlns:ns1="http://ns.adobe.com/AdobeIllustrator/10.0/" ns1:knockout="Off" fill-rule="evenodd" clip-rule="evenodd" fill="none" stroke="#000000" stroke-width="0.504" stroke-miterlimit="2.4142" d="      M455.802,503.602c0.976,0.189,1.946-0.465,2.138-1.44c0.188-0.976-0.467-1.945-1.442-2.136c-0.975-0.189-1.945,0.464-2.136,1.44      C454.173,502.441,454.826,503.412,455.802,503.602L455.802,503.602z"/>
<path xmlns="http://www.w3.org/2000/svg" xmlns:ns1="http://ns.adobe.com/AdobeIllustrator/10.0/" ns1:knockout="Off" fill-rule="evenodd" clip-rule="evenodd" fill="none" stroke="#000000" stroke-width="0.504" stroke-miterlimit="2.4142" d="      M454.47,510.441c0.979,0.191,1.95-0.463,2.139-1.438c0.19-0.976-0.467-1.946-1.442-2.137c-0.976-0.188-1.942,0.465-2.134,1.44      C452.841,509.283,453.498,510.254,454.47,510.441L454.47,510.441z"/>
<path xmlns="http://www.w3.org/2000/svg" xmlns:ns1="http://ns.adobe.com/AdobeIllustrator/10.0/" ns1:knockout="Off" fill-rule="evenodd" clip-rule="evenodd" fill="none" stroke="#000000" stroke-width="0.504" stroke-miterlimit="2.4142" d="      M453.143,517.282c0.979,0.188,1.946-0.464,2.138-1.438c0.188-0.977-0.467-1.947-1.442-2.136      c-0.975-0.191-1.945,0.463-2.137,1.439C451.514,516.124,452.168,517.092,453.143,517.282L453.143,517.282z"/>
<path xmlns="http://www.w3.org/2000/svg" xmlns:ns1="http://ns.adobe.com/AdobeIllustrator/10.0/" ns1:knockout="Off" fill-rule="evenodd" clip-rule="evenodd" fill="none" stroke="#000000" stroke-width="0.504" stroke-miterlimit="2.4142" d="      M451.811,524.123c0.979,0.189,1.95-0.464,2.138-1.44c0.191-0.976-0.466-1.944-1.441-2.136c-0.976-0.189-1.946,0.465-2.134,1.44      C450.182,522.962,450.836,523.933,451.811,524.123L451.811,524.123z"/>
<path xmlns="http://www.w3.org/2000/svg" xmlns:ns1="http://ns.adobe.com/AdobeIllustrator/10.0/" ns1:knockout="Off" fill-rule="evenodd" clip-rule="evenodd" fill="none" stroke="#000000" stroke-width="0.504" stroke-miterlimit="2.4142" d="      M450.482,530.963c0.976,0.189,1.946-0.463,2.138-1.439c0.188-0.977-0.467-1.946-1.442-2.136      c-0.975-0.188-1.944,0.464-2.137,1.439C448.854,529.805,449.508,530.773,450.482,530.963L450.482,530.963z"/>
<path xmlns="http://www.w3.org/2000/svg" xmlns:ns1="http://ns.adobe.com/AdobeIllustrator/10.0/" ns1:knockout="Off" fill-rule="evenodd" clip-rule="evenodd" fill="none" stroke="#000000" stroke-width="0.504" stroke-miterlimit="2.4142" d="      M449.151,537.804c0.979,0.191,1.95-0.463,2.138-1.438c0.188-0.979-0.464-1.946-1.441-2.137      c-0.975-0.189-1.945,0.465-2.134,1.441C447.522,536.646,448.177,537.615,449.151,537.804L449.151,537.804z"/>
<path xmlns="http://www.w3.org/2000/svg" xmlns:ns1="http://ns.adobe.com/AdobeIllustrator/10.0/" ns1:knockout="Off" fill-rule="evenodd" clip-rule="evenodd" fill="none" stroke="#000000" stroke-width="0.504" stroke-miterlimit="2.4142" d="      M447.824,544.646c0.978,0.189,1.946-0.464,2.135-1.44c0.19-0.976-0.463-1.945-1.441-2.137c-0.973-0.188-1.943,0.466-2.135,1.441      C446.195,543.485,446.847,544.456,447.824,544.646L447.824,544.646z"/>
<path xmlns="http://www.w3.org/2000/svg" xmlns:ns1="http://ns.adobe.com/AdobeIllustrator/10.0/" ns1:knockout="Off" fill-rule="evenodd" clip-rule="evenodd" fill="none" stroke="#000000" stroke-width="0.504" stroke-miterlimit="2.4142" d="      M446.492,551.482c0.976,0.192,1.946-0.462,2.137-1.438c0.191-0.977-0.466-1.945-1.441-2.134      c-0.975-0.19-1.945,0.463-2.134,1.438C444.862,550.324,445.517,551.295,446.492,551.482L446.492,551.482z"/>
<path xmlns="http://www.w3.org/2000/svg" xmlns:ns1="http://ns.adobe.com/AdobeIllustrator/10.0/" ns1:knockout="Off" fill-rule="evenodd" clip-rule="evenodd" fill="none" stroke="#000000" stroke-width="0.504" stroke-miterlimit="2.4142" d="      M445.163,558.326c0.976,0.188,1.946-0.466,2.138-1.44c0.188-0.977-0.466-1.946-1.445-2.136c-0.972-0.19-1.942,0.464-2.133,1.439      C443.534,557.164,444.186,558.136,445.163,558.326L445.163,558.326z"/>
<path xmlns="http://www.w3.org/2000/svg" xmlns:ns1="http://ns.adobe.com/AdobeIllustrator/10.0/" ns1:knockout="Off" fill-rule="evenodd" clip-rule="evenodd" fill="none" stroke="#000000" stroke-width="0.504" stroke-miterlimit="2.4142" d="      M443.833,565.167c0.976,0.188,1.946-0.466,2.138-1.443c0.19-0.976-0.467-1.946-1.442-2.134      c-0.975-0.188-1.945,0.465-2.134,1.438C442.203,564.006,442.857,564.976,443.833,565.167L443.833,565.167z"/>
<path xmlns="http://www.w3.org/2000/svg" xmlns:ns1="http://ns.adobe.com/AdobeIllustrator/10.0/" ns1:knockout="Off" fill-rule="evenodd" clip-rule="evenodd" fill="none" stroke="#000000" stroke-width="0.504" stroke-miterlimit="2.4142" d="      M442.505,572.006c0.976,0.192,1.946-0.462,2.135-1.438c0.191-0.976-0.463-1.946-1.441-2.137      c-0.976-0.188-1.942,0.465-2.134,1.441C440.875,570.848,441.53,571.817,442.505,572.006L442.505,572.006z"/>
</g>
</switch>
</svg>