<?xml version="1.0" encoding="utf-8"?>
<!DOCTYPE svg PUBLIC "-//W3C//DTD SVG 1.1//EN" "http://www.w3.org/Graphics/SVG/1.1/DTD/svg11.dtd" [
	<!ENTITY ns_extend "http://ns.adobe.com/Extensibility/1.0/">
	<!ENTITY ns_ai "http://ns.adobe.com/AdobeIllustrator/10.0/">
	<!ENTITY ns_graphs "http://ns.adobe.com/Graphs/1.0/">
	<!ENTITY ns_vars "http://ns.adobe.com/Variables/1.0/">
	<!ENTITY ns_imrep "http://ns.adobe.com/ImageReplacement/1.0/">
	<!ENTITY ns_sfw "http://ns.adobe.com/SaveForWeb/1.0/">
	<!ENTITY ns_custom "http://ns.adobe.com/GenericCustomNamespace/1.0/">
	<!ENTITY ns_adobe_xpath "http://ns.adobe.com/XPath/1.0/">
]>
<svg version="1.1" id="Internal_Structure" xmlns:x="&ns_extend;" xmlns:i="&ns_ai;" xmlns:graph="&ns_graphs;"
	 xmlns="http://www.w3.org/2000/svg" xmlns:xlink="http://www.w3.org/1999/xlink" x="0px" y="0px" width="612px" height="792px"
	 viewBox="0 0 612 792" enable-background="new 0 0 612 792" xml:space="preserve">
<switch>
<g i:extraneous="self">
<path xmlns="http://www.w3.org/2000/svg" xmlns:ns1="http://ns.adobe.com/AdobeIllustrator/10.0/" ns1:knockout="Off" fill-rule="evenodd" clip-rule="evenodd" fill="none" stroke="#000000" stroke-width="0.504" stroke-miterlimit="2.4142" d="      M431.881,426.33c-0.994,0-1.822-0.828-1.822-1.82c0-0.994,0.828-1.822,1.822-1.822c0.993,0,1.82,0.828,1.82,1.822      C433.701,425.502,432.874,426.33,431.881,426.33L431.881,426.33z"/>
<path xmlns="http://www.w3.org/2000/svg" xmlns:ns1="http://ns.adobe.com/AdobeIllustrator/10.0/" ns1:knockout="Off" fill-rule="evenodd" clip-rule="evenodd" fill="none" stroke="#000000" stroke-width="0.504" stroke-miterlimit="2.4142" d="      M431.397,431.39c-0.994,0-1.822-0.828-1.822-1.82c0-0.994,0.828-1.822,1.822-1.822c0.993,0,1.82,0.828,1.82,1.822      C433.218,430.562,432.391,431.39,431.397,431.39L431.397,431.39z"/>
<path xmlns="http://www.w3.org/2000/svg" xmlns:ns1="http://ns.adobe.com/AdobeIllustrator/10.0/" ns1:knockout="Off" fill-rule="evenodd" clip-rule="evenodd" fill="none" stroke="#000000" stroke-width="0.504" stroke-miterlimit="2.4142" d="      M430.915,437.015c-0.994,0-1.822-0.828-1.822-1.82c0-0.994,0.828-1.822,1.822-1.822c0.993,0,1.82,0.828,1.82,1.822      C432.735,436.187,431.908,437.015,430.915,437.015L430.915,437.015z"/>
<path xmlns="http://www.w3.org/2000/svg" xmlns:ns1="http://ns.adobe.com/AdobeIllustrator/10.0/" ns1:knockout="Off" fill-rule="evenodd" clip-rule="evenodd" fill="none" stroke="#000000" stroke-width="0.504" stroke-miterlimit="2.4142" d="      M430.432,442.356c-0.994,0-1.822-0.828-1.822-1.82c0-0.994,0.828-1.822,1.822-1.822c0.993,0,1.82,0.828,1.82,1.822      C432.252,441.528,431.425,442.356,430.432,442.356L430.432,442.356z"/>
<path xmlns="http://www.w3.org/2000/svg" xmlns:ns1="http://ns.adobe.com/AdobeIllustrator/10.0/" ns1:knockout="Off" fill-rule="evenodd" clip-rule="evenodd" fill="none" stroke="#000000" stroke-width="0.504" stroke-miterlimit="2.4142" d="      M429.949,447.699c-0.994,0-1.822-0.828-1.822-1.82c0-0.994,0.828-1.822,1.822-1.822c0.993,0,1.82,0.828,1.82,1.822      C431.77,446.871,430.942,447.699,429.949,447.699L429.949,447.699z"/>
<path xmlns="http://www.w3.org/2000/svg" xmlns:ns1="http://ns.adobe.com/AdobeIllustrator/10.0/" ns1:knockout="Off" fill-rule="evenodd" clip-rule="evenodd" fill="none" stroke="#000000" stroke-width="0.504" stroke-miterlimit="2.4142" d="      M429.466,453.041c-0.994,0-1.822-0.828-1.822-1.82c0-0.994,0.828-1.822,1.822-1.822c0.993,0,1.82,0.828,1.82,1.822      C431.286,452.213,430.459,453.041,429.466,453.041L429.466,453.041z"/>
<path xmlns="http://www.w3.org/2000/svg" xmlns:ns1="http://ns.adobe.com/AdobeIllustrator/10.0/" ns1:knockout="Off" fill-rule="evenodd" clip-rule="evenodd" fill="none" stroke="#000000" stroke-width="0.504" stroke-miterlimit="2.4142" d="      M428.983,458.384c-0.994,0-1.822-0.828-1.822-1.82c0-0.994,0.828-1.822,1.822-1.822c0.993,0,1.82,0.828,1.82,1.822      C430.804,457.556,429.977,458.384,428.983,458.384L428.983,458.384z"/>
<path xmlns="http://www.w3.org/2000/svg" xmlns:ns1="http://ns.adobe.com/AdobeIllustrator/10.0/" ns1:knockout="Off" fill-rule="evenodd" clip-rule="evenodd" fill="none" stroke="#000000" stroke-width="0.504" stroke-miterlimit="2.4142" d="      M428.5,463.726c-0.994,0-1.822-0.828-1.822-1.82c0-0.994,0.828-1.822,1.822-1.822c0.993,0,1.82,0.828,1.82,1.822      C430.32,462.897,429.493,463.726,428.5,463.726L428.5,463.726z"/>
<path xmlns="http://www.w3.org/2000/svg" xmlns:ns1="http://ns.adobe.com/AdobeIllustrator/10.0/" ns1:knockout="Off" fill-rule="evenodd" clip-rule="evenodd" fill="none" stroke="#000000" stroke-width="0.504" stroke-miterlimit="2.4142" d="      M428.018,469.068c-0.994,0-1.822-0.828-1.822-1.82c0-0.994,0.828-1.822,1.822-1.822c0.993,0,1.82,0.828,1.82,1.822      C429.838,468.24,429.011,469.068,428.018,469.068L428.018,469.068z"/>
<path xmlns="http://www.w3.org/2000/svg" xmlns:ns1="http://ns.adobe.com/AdobeIllustrator/10.0/" ns1:knockout="Off" fill-rule="evenodd" clip-rule="evenodd" fill="none" stroke="#000000" stroke-width="0.504" stroke-miterlimit="2.4142" d="      M427.534,474.41c-0.994,0-1.822-0.828-1.822-1.82c0-0.994,0.828-1.822,1.822-1.822c0.993,0,1.82,0.828,1.82,1.822      C429.354,473.582,428.527,474.41,427.534,474.41L427.534,474.41z"/>
<path xmlns="http://www.w3.org/2000/svg" xmlns:ns1="http://ns.adobe.com/AdobeIllustrator/10.0/" ns1:knockout="Off" fill-rule="evenodd" clip-rule="evenodd" fill="none" stroke="#000000" stroke-width="0.504" stroke-miterlimit="2.4142" d="      M427.052,479.753c-0.994,0-1.822-0.828-1.822-1.82c0-0.994,0.828-1.822,1.822-1.822c0.993,0,1.82,0.828,1.82,1.822      C428.872,478.925,428.045,479.753,427.052,479.753L427.052,479.753z"/>
<path xmlns="http://www.w3.org/2000/svg" xmlns:ns1="http://ns.adobe.com/AdobeIllustrator/10.0/" ns1:knockout="Off" fill-rule="evenodd" clip-rule="evenodd" fill="none" stroke="#000000" stroke-width="0.504" stroke-miterlimit="2.4142" d="      M426.568,485.095c-0.994,0-1.822-0.828-1.822-1.82c0-0.994,0.828-1.822,1.822-1.822c0.993,0,1.82,0.828,1.82,1.822      C428.389,484.267,427.562,485.095,426.568,485.095L426.568,485.095z"/>
<path xmlns="http://www.w3.org/2000/svg" xmlns:ns1="http://ns.adobe.com/AdobeIllustrator/10.0/" ns1:knockout="Off" fill-rule="evenodd" clip-rule="evenodd" fill="none" stroke="#000000" stroke-width="0.504" stroke-miterlimit="2.4142" d="      M426.086,490.438c-0.994,0-1.822-0.828-1.822-1.82c0-0.994,0.828-1.822,1.822-1.822c0.993,0,1.82,0.828,1.82,1.822      C427.906,489.609,427.079,490.438,426.086,490.438L426.086,490.438z"/>
<path xmlns="http://www.w3.org/2000/svg" xmlns:ns1="http://ns.adobe.com/AdobeIllustrator/10.0/" ns1:knockout="Off" fill-rule="evenodd" clip-rule="evenodd" fill="none" stroke="#000000" stroke-width="0.504" stroke-miterlimit="2.4142" d="      M425.603,495.779c-0.994,0-1.822-0.828-1.822-1.82c0-0.994,0.828-1.822,1.822-1.822c0.993,0,1.82,0.828,1.82,1.822      C427.423,494.951,426.596,495.779,425.603,495.779L425.603,495.779z"/>
</g>
</switch>
</svg>