<?xml version="1.0" encoding="utf-8"?>
<!DOCTYPE svg PUBLIC "-//W3C//DTD SVG 1.1//EN" "http://www.w3.org/Graphics/SVG/1.1/DTD/svg11.dtd" [
	<!ENTITY ns_extend "http://ns.adobe.com/Extensibility/1.0/">
	<!ENTITY ns_ai "http://ns.adobe.com/AdobeIllustrator/10.0/">
	<!ENTITY ns_graphs "http://ns.adobe.com/Graphs/1.0/">
	<!ENTITY ns_vars "http://ns.adobe.com/Variables/1.0/">
	<!ENTITY ns_imrep "http://ns.adobe.com/ImageReplacement/1.0/">
	<!ENTITY ns_sfw "http://ns.adobe.com/SaveForWeb/1.0/">
	<!ENTITY ns_custom "http://ns.adobe.com/GenericCustomNamespace/1.0/">
	<!ENTITY ns_adobe_xpath "http://ns.adobe.com/XPath/1.0/">
]>
<svg version="1.1" id="Internal_Structure" xmlns:x="&ns_extend;" xmlns:i="&ns_ai;" xmlns:graph="&ns_graphs;"
	 xmlns="http://www.w3.org/2000/svg" xmlns:xlink="http://www.w3.org/1999/xlink" x="0px" y="0px" width="612px" height="792px"
	 viewBox="0 0 612 792" enable-background="new 0 0 612 792" xml:space="preserve">
<switch>
<g i:extraneous="self">
<path xmlns="http://www.w3.org/2000/svg" xmlns:ns1="http://ns.adobe.com/AdobeIllustrator/10.0/" ns1:knockout="Off" fill-rule="evenodd" clip-rule="evenodd" fill="none" stroke="#000000" stroke-width="0.504" stroke-miterlimit="2.4142" d="      M497.06,489.92c-0.976,0.19-1.946-0.464-2.137-1.439c-0.191-0.977,0.466-1.946,1.441-2.136c0.975-0.19,1.945,0.464,2.136,1.44      C498.689,488.761,498.035,489.731,497.06,489.92L497.06,489.92z"/>
<path xmlns="http://www.w3.org/2000/svg" xmlns:ns1="http://ns.adobe.com/AdobeIllustrator/10.0/" ns1:knockout="Off" fill-rule="evenodd" clip-rule="evenodd" fill="none" stroke="#000000" stroke-width="0.504" stroke-miterlimit="2.4142" d="      M499.341,501.647c-0.979,0.188-1.949-0.466-2.138-1.44c-0.191-0.976,0.463-1.946,1.441-2.136      c0.976-0.189,1.943,0.465,2.134,1.439C500.967,500.487,500.313,501.458,499.341,501.647L499.341,501.647z"/>
<path xmlns="http://www.w3.org/2000/svg" xmlns:ns1="http://ns.adobe.com/AdobeIllustrator/10.0/" ns1:knockout="Off" fill-rule="evenodd" clip-rule="evenodd" fill="none" stroke="#000000" stroke-width="0.504" stroke-miterlimit="2.4142" d="      M501.618,513.373c-0.975,0.188-1.946-0.466-2.138-1.441c-0.188-0.975,0.467-1.943,1.442-2.133      c0.975-0.191,1.945,0.463,2.137,1.438C503.248,512.213,502.594,513.183,501.618,513.373L501.618,513.373z"/>
<path xmlns="http://www.w3.org/2000/svg" xmlns:ns1="http://ns.adobe.com/AdobeIllustrator/10.0/" ns1:knockout="Off" fill-rule="evenodd" clip-rule="evenodd" fill="none" stroke="#000000" stroke-width="0.504" stroke-miterlimit="2.4142" d="      M503.897,525.101c-0.976,0.188-1.946-0.465-2.135-1.441c-0.191-0.976,0.463-1.945,1.442-2.135      c0.975-0.19,1.942,0.464,2.133,1.44C505.529,523.94,504.875,524.911,503.897,525.101L503.897,525.101z"/>
<path xmlns="http://www.w3.org/2000/svg" xmlns:ns1="http://ns.adobe.com/AdobeIllustrator/10.0/" ns1:knockout="Off" fill-rule="evenodd" clip-rule="evenodd" fill="none" stroke="#000000" stroke-width="0.504" stroke-miterlimit="2.4142" d="      M506.179,536.827c-0.976,0.189-1.946-0.465-2.138-1.44c-0.188-0.976,0.467-1.945,1.442-2.136      c0.975-0.189,1.945,0.464,2.134,1.44C507.808,535.667,507.154,536.638,506.179,536.827L506.179,536.827z"/>
<path xmlns="http://www.w3.org/2000/svg" xmlns:ns1="http://ns.adobe.com/AdobeIllustrator/10.0/" ns1:knockout="Off" fill-rule="evenodd" clip-rule="evenodd" fill="none" stroke="#000000" stroke-width="0.504" stroke-miterlimit="2.4142" d="      M508.46,548.553c-0.979,0.191-1.95-0.463-2.141-1.438c-0.188-0.976,0.467-1.946,1.445-2.137c0.975-0.188,1.941,0.465,2.133,1.44      C510.089,547.395,509.432,548.365,508.46,548.553L508.46,548.553z"/>
<path xmlns="http://www.w3.org/2000/svg" xmlns:ns1="http://ns.adobe.com/AdobeIllustrator/10.0/" ns1:knockout="Off" fill-rule="evenodd" clip-rule="evenodd" fill="none" stroke="#000000" stroke-width="0.504" stroke-miterlimit="2.4142" d="      M510.736,560.279c-0.979,0.188-1.946-0.464-2.138-1.438c-0.188-0.977,0.467-1.947,1.442-2.136      c0.975-0.191,1.945,0.463,2.137,1.439C512.365,559.121,511.713,560.089,510.736,560.279L510.736,560.279z"/>
<path xmlns="http://www.w3.org/2000/svg" xmlns:ns1="http://ns.adobe.com/AdobeIllustrator/10.0/" ns1:knockout="Off" fill-rule="evenodd" clip-rule="evenodd" fill="none" stroke="#000000" stroke-width="0.504" stroke-miterlimit="2.4142" d="      M513.015,572.006c-0.976,0.192-1.946-0.462-2.135-1.438c-0.19-0.976,0.464-1.946,1.439-2.137      c0.978-0.188,1.944,0.465,2.137,1.441C514.646,570.848,513.989,571.817,513.015,572.006L513.015,572.006z"/>
</g>
</switch>
</svg>