<?xml version="1.0" encoding="utf-8"?>
<!DOCTYPE svg PUBLIC "-//W3C//DTD SVG 1.1//EN" "http://www.w3.org/Graphics/SVG/1.1/DTD/svg11.dtd" [
	<!ENTITY ns_extend "http://ns.adobe.com/Extensibility/1.0/">
	<!ENTITY ns_ai "http://ns.adobe.com/AdobeIllustrator/10.0/">
	<!ENTITY ns_graphs "http://ns.adobe.com/Graphs/1.0/">
	<!ENTITY ns_vars "http://ns.adobe.com/Variables/1.0/">
	<!ENTITY ns_imrep "http://ns.adobe.com/ImageReplacement/1.0/">
	<!ENTITY ns_sfw "http://ns.adobe.com/SaveForWeb/1.0/">
	<!ENTITY ns_custom "http://ns.adobe.com/GenericCustomNamespace/1.0/">
	<!ENTITY ns_adobe_xpath "http://ns.adobe.com/XPath/1.0/">
]>
<svg version="1.1" id="Internal_Structure" xmlns:x="&ns_extend;" xmlns:i="&ns_ai;" xmlns:graph="&ns_graphs;"
	 xmlns="http://www.w3.org/2000/svg" xmlns:xlink="http://www.w3.org/1999/xlink" x="0px" y="0px" width="612px" height="792px"
	 viewBox="0 0 612 792" enable-background="new 0 0 612 792" xml:space="preserve">
<switch>
<g i:extraneous="self">
<path xmlns="http://www.w3.org/2000/svg" xmlns:ns1="http://ns.adobe.com/AdobeIllustrator/10.0/" ns1:knockout="Off" fill-rule="evenodd" clip-rule="evenodd" fill="none" stroke="#000000" stroke-width="0.504" stroke-miterlimit="2.4142" d="      M472.788,436.427c-0.995,0-1.822-0.827-1.822-1.82c0-0.994,0.827-1.822,1.822-1.822c0.994,0,1.821,0.828,1.821,1.822      C474.609,435.6,473.782,436.427,472.788,436.427L472.788,436.427z"/>
<path xmlns="http://www.w3.org/2000/svg" xmlns:ns1="http://ns.adobe.com/AdobeIllustrator/10.0/" ns1:knockout="Off" fill-rule="evenodd" clip-rule="evenodd" fill="none" stroke="#000000" stroke-width="0.504" stroke-miterlimit="2.4142" d="      M478.411,436.427c-0.995,0-1.823-0.827-1.823-1.82c0-0.994,0.828-1.822,1.823-1.822c0.993,0,1.82,0.828,1.82,1.822      C480.231,435.6,479.404,436.427,478.411,436.427L478.411,436.427z"/>
<path xmlns="http://www.w3.org/2000/svg" xmlns:ns1="http://ns.adobe.com/AdobeIllustrator/10.0/" ns1:knockout="Off" fill-rule="evenodd" clip-rule="evenodd" fill="none" stroke="#000000" stroke-width="0.504" stroke-miterlimit="2.4142" d="      M484.215,436.427c-0.995,0-1.824-0.827-1.824-1.82c0-0.994,0.829-1.822,1.824-1.822c0.992,0,1.819,0.828,1.819,1.822      C486.034,435.6,485.207,436.427,484.215,436.427L484.215,436.427z"/>
<path xmlns="http://www.w3.org/2000/svg" xmlns:ns1="http://ns.adobe.com/AdobeIllustrator/10.0/" ns1:knockout="Off" fill-rule="evenodd" clip-rule="evenodd" fill="none" stroke="#000000" stroke-width="0.504" stroke-miterlimit="2.4142" d="      M472.788,441.905c-0.995,0-1.822-0.827-1.822-1.821s0.827-1.821,1.822-1.821c0.994,0,1.821,0.827,1.821,1.821      S473.782,441.905,472.788,441.905L472.788,441.905z"/>
<path xmlns="http://www.w3.org/2000/svg" xmlns:ns1="http://ns.adobe.com/AdobeIllustrator/10.0/" ns1:knockout="Off" fill-rule="evenodd" clip-rule="evenodd" fill="none" stroke="#000000" stroke-width="0.504" stroke-miterlimit="2.4142" d="      M478.411,441.905c-0.995,0-1.823-0.827-1.823-1.821s0.828-1.821,1.823-1.821c0.993,0,1.82,0.827,1.82,1.821      S479.404,441.905,478.411,441.905L478.411,441.905z"/>
<path xmlns="http://www.w3.org/2000/svg" xmlns:ns1="http://ns.adobe.com/AdobeIllustrator/10.0/" ns1:knockout="Off" fill-rule="evenodd" clip-rule="evenodd" fill="none" stroke="#000000" stroke-width="0.504" stroke-miterlimit="2.4142" d="      M484.215,441.905c-0.995,0-1.824-0.827-1.824-1.821s0.829-1.821,1.824-1.821c0.992,0,1.819,0.827,1.819,1.821      S485.207,441.905,484.215,441.905L484.215,441.905z"/>
<path xmlns="http://www.w3.org/2000/svg" xmlns:ns1="http://ns.adobe.com/AdobeIllustrator/10.0/" ns1:knockout="Off" fill-rule="evenodd" clip-rule="evenodd" fill="none" stroke="#000000" stroke-width="0.504" stroke-miterlimit="2.4142" d="      M472.788,447.457c-0.995,0-1.822-0.828-1.822-1.821c0-0.994,0.827-1.821,1.822-1.821c0.994,0,1.821,0.827,1.821,1.821      C474.609,446.629,473.782,447.457,472.788,447.457L472.788,447.457z"/>
<path xmlns="http://www.w3.org/2000/svg" xmlns:ns1="http://ns.adobe.com/AdobeIllustrator/10.0/" ns1:knockout="Off" fill-rule="evenodd" clip-rule="evenodd" fill="none" stroke="#000000" stroke-width="0.504" stroke-miterlimit="2.4142" d="      M478.411,447.457c-0.995,0-1.823-0.828-1.823-1.821c0-0.994,0.828-1.821,1.823-1.821c0.993,0,1.82,0.827,1.82,1.821      C480.231,446.629,479.404,447.457,478.411,447.457L478.411,447.457z"/>
<path xmlns="http://www.w3.org/2000/svg" xmlns:ns1="http://ns.adobe.com/AdobeIllustrator/10.0/" ns1:knockout="Off" fill-rule="evenodd" clip-rule="evenodd" fill="none" stroke="#000000" stroke-width="0.504" stroke-miterlimit="2.4142" d="      M484.215,447.457c-0.995,0-1.824-0.828-1.824-1.821c0-0.994,0.829-1.821,1.824-1.821c0.992,0,1.819,0.827,1.819,1.821      C486.034,446.629,485.207,447.457,484.215,447.457L484.215,447.457z"/>
<path xmlns="http://www.w3.org/2000/svg" xmlns:ns1="http://ns.adobe.com/AdobeIllustrator/10.0/" ns1:knockout="Off" fill-rule="evenodd" clip-rule="evenodd" fill="none" stroke="#000000" stroke-width="0.504" stroke-miterlimit="2.4142" d="      M472.788,453.009c-0.995,0-1.822-0.827-1.822-1.821s0.827-1.822,1.822-1.822c0.994,0,1.821,0.828,1.821,1.822      S473.782,453.009,472.788,453.009L472.788,453.009z"/>
<path xmlns="http://www.w3.org/2000/svg" xmlns:ns1="http://ns.adobe.com/AdobeIllustrator/10.0/" ns1:knockout="Off" fill-rule="evenodd" clip-rule="evenodd" fill="none" stroke="#000000" stroke-width="0.504" stroke-miterlimit="2.4142" d="      M478.411,453.009c-0.995,0-1.823-0.827-1.823-1.821s0.828-1.822,1.823-1.822c0.993,0,1.82,0.828,1.82,1.822      S479.404,453.009,478.411,453.009L478.411,453.009z"/>
<path xmlns="http://www.w3.org/2000/svg" xmlns:ns1="http://ns.adobe.com/AdobeIllustrator/10.0/" ns1:knockout="Off" fill-rule="evenodd" clip-rule="evenodd" fill="none" stroke="#000000" stroke-width="0.504" stroke-miterlimit="2.4142" d="      M484.215,453.009c-0.995,0-1.824-0.827-1.824-1.821s0.829-1.822,1.824-1.822c0.992,0,1.819,0.828,1.819,1.822      S485.207,453.009,484.215,453.009L484.215,453.009z"/>
<path xmlns="http://www.w3.org/2000/svg" xmlns:ns1="http://ns.adobe.com/AdobeIllustrator/10.0/" ns1:knockout="Off" fill-rule="evenodd" clip-rule="evenodd" fill="none" stroke="#000000" stroke-width="0.504" stroke-miterlimit="2.4142" d="      M472.788,458.561c-0.995,0-1.822-0.827-1.822-1.821c0-0.993,0.827-1.821,1.822-1.821c0.994,0,1.821,0.828,1.821,1.821      C474.609,457.733,473.782,458.561,472.788,458.561L472.788,458.561z"/>
<path xmlns="http://www.w3.org/2000/svg" xmlns:ns1="http://ns.adobe.com/AdobeIllustrator/10.0/" ns1:knockout="Off" fill-rule="evenodd" clip-rule="evenodd" fill="none" stroke="#000000" stroke-width="0.504" stroke-miterlimit="2.4142" d="      M478.411,458.561c-0.995,0-1.823-0.827-1.823-1.821c0-0.993,0.828-1.821,1.823-1.821c0.993,0,1.82,0.828,1.82,1.821      C480.231,457.733,479.404,458.561,478.411,458.561L478.411,458.561z"/>
<path xmlns="http://www.w3.org/2000/svg" xmlns:ns1="http://ns.adobe.com/AdobeIllustrator/10.0/" ns1:knockout="Off" fill-rule="evenodd" clip-rule="evenodd" fill="none" stroke="#000000" stroke-width="0.504" stroke-miterlimit="2.4142" d="      M484.215,458.561c-0.995,0-1.824-0.827-1.824-1.821c0-0.993,0.829-1.821,1.824-1.821c0.992,0,1.819,0.828,1.819,1.821      C486.034,457.733,485.207,458.561,484.215,458.561L484.215,458.561z"/>
<path xmlns="http://www.w3.org/2000/svg" xmlns:ns1="http://ns.adobe.com/AdobeIllustrator/10.0/" ns1:knockout="Off" fill-rule="evenodd" clip-rule="evenodd" fill="none" stroke="#000000" stroke-width="0.504" stroke-miterlimit="2.4142" d="      M472.788,464.112c-0.995,0-1.822-0.828-1.822-1.821s0.827-1.821,1.822-1.821c0.994,0,1.821,0.828,1.821,1.821      S473.782,464.112,472.788,464.112L472.788,464.112z"/>
<path xmlns="http://www.w3.org/2000/svg" xmlns:ns1="http://ns.adobe.com/AdobeIllustrator/10.0/" ns1:knockout="Off" fill-rule="evenodd" clip-rule="evenodd" fill="none" stroke="#000000" stroke-width="0.504" stroke-miterlimit="2.4142" d="      M478.411,464.112c-0.995,0-1.823-0.828-1.823-1.821s0.828-1.821,1.823-1.821c0.993,0,1.82,0.828,1.82,1.821      S479.404,464.112,478.411,464.112L478.411,464.112z"/>
<path xmlns="http://www.w3.org/2000/svg" xmlns:ns1="http://ns.adobe.com/AdobeIllustrator/10.0/" ns1:knockout="Off" fill-rule="evenodd" clip-rule="evenodd" fill="none" stroke="#000000" stroke-width="0.504" stroke-miterlimit="2.4142" d="      M484.215,464.112c-0.995,0-1.824-0.828-1.824-1.821s0.829-1.821,1.824-1.821c0.992,0,1.819,0.828,1.819,1.821      S485.207,464.112,484.215,464.112L484.215,464.112z"/>
<path xmlns="http://www.w3.org/2000/svg" xmlns:ns1="http://ns.adobe.com/AdobeIllustrator/10.0/" ns1:knockout="Off" fill-rule="evenodd" clip-rule="evenodd" fill="none" stroke="#000000" stroke-width="0.504" stroke-miterlimit="2.4142" d="      M472.788,469.738c-0.995,0-1.822-0.827-1.822-1.821s0.827-1.821,1.822-1.821c0.994,0,1.821,0.827,1.821,1.821      S473.782,469.738,472.788,469.738L472.788,469.738z"/>
<path xmlns="http://www.w3.org/2000/svg" xmlns:ns1="http://ns.adobe.com/AdobeIllustrator/10.0/" ns1:knockout="Off" fill-rule="evenodd" clip-rule="evenodd" fill="none" stroke="#000000" stroke-width="0.504" stroke-miterlimit="2.4142" d="      M478.411,469.738c-0.995,0-1.823-0.827-1.823-1.821s0.828-1.821,1.823-1.821c0.993,0,1.82,0.827,1.82,1.821      S479.404,469.738,478.411,469.738L478.411,469.738z"/>
<path xmlns="http://www.w3.org/2000/svg" xmlns:ns1="http://ns.adobe.com/AdobeIllustrator/10.0/" ns1:knockout="Off" fill-rule="evenodd" clip-rule="evenodd" fill="none" stroke="#000000" stroke-width="0.504" stroke-miterlimit="2.4142" d="      M484.215,469.738c-0.995,0-1.824-0.827-1.824-1.821s0.829-1.821,1.824-1.821c0.992,0,1.819,0.827,1.819,1.821      S485.207,469.738,484.215,469.738L484.215,469.738z"/>
<path xmlns="http://www.w3.org/2000/svg" xmlns:ns1="http://ns.adobe.com/AdobeIllustrator/10.0/" ns1:knockout="Off" fill-rule="evenodd" clip-rule="evenodd" fill="none" stroke="#000000" stroke-width="0.504" stroke-miterlimit="2.4142" d="      M472.788,475.29c-0.995,0-1.822-0.827-1.822-1.821s0.827-1.821,1.822-1.821c0.994,0,1.821,0.827,1.821,1.821      S473.782,475.29,472.788,475.29L472.788,475.29z"/>
<path xmlns="http://www.w3.org/2000/svg" xmlns:ns1="http://ns.adobe.com/AdobeIllustrator/10.0/" ns1:knockout="Off" fill-rule="evenodd" clip-rule="evenodd" fill="none" stroke="#000000" stroke-width="0.504" stroke-miterlimit="2.4142" d="      M478.411,475.29c-0.995,0-1.823-0.827-1.823-1.821s0.828-1.821,1.823-1.821c0.993,0,1.82,0.827,1.82,1.821      S479.404,475.29,478.411,475.29L478.411,475.29z"/>
<path xmlns="http://www.w3.org/2000/svg" xmlns:ns1="http://ns.adobe.com/AdobeIllustrator/10.0/" ns1:knockout="Off" fill-rule="evenodd" clip-rule="evenodd" fill="none" stroke="#000000" stroke-width="0.504" stroke-miterlimit="2.4142" d="      M484.215,475.29c-0.995,0-1.824-0.827-1.824-1.821s0.829-1.821,1.824-1.821c0.992,0,1.819,0.827,1.819,1.821      S485.207,475.29,484.215,475.29L484.215,475.29z"/>
<path xmlns="http://www.w3.org/2000/svg" xmlns:ns1="http://ns.adobe.com/AdobeIllustrator/10.0/" ns1:knockout="Off" fill-rule="evenodd" clip-rule="evenodd" fill="none" stroke="#000000" stroke-width="0.504" stroke-miterlimit="2.4142" d="      M472.788,480.768c-0.995,0-1.822-0.827-1.822-1.821c0-0.993,0.827-1.821,1.822-1.821c0.994,0,1.821,0.828,1.821,1.821      C474.609,479.94,473.782,480.768,472.788,480.768L472.788,480.768z"/>
<path xmlns="http://www.w3.org/2000/svg" xmlns:ns1="http://ns.adobe.com/AdobeIllustrator/10.0/" ns1:knockout="Off" fill-rule="evenodd" clip-rule="evenodd" fill="none" stroke="#000000" stroke-width="0.504" stroke-miterlimit="2.4142" d="      M478.411,480.768c-0.995,0-1.823-0.827-1.823-1.821c0-0.993,0.828-1.821,1.823-1.821c0.993,0,1.82,0.828,1.82,1.821      C480.231,479.94,479.404,480.768,478.411,480.768L478.411,480.768z"/>
<path xmlns="http://www.w3.org/2000/svg" xmlns:ns1="http://ns.adobe.com/AdobeIllustrator/10.0/" ns1:knockout="Off" fill-rule="evenodd" clip-rule="evenodd" fill="none" stroke="#000000" stroke-width="0.504" stroke-miterlimit="2.4142" d="      M484.215,480.768c-0.995,0-1.824-0.827-1.824-1.821c0-0.993,0.829-1.821,1.824-1.821c0.992,0,1.819,0.828,1.819,1.821      C486.034,479.94,485.207,480.768,484.215,480.768L484.215,480.768z"/>
<path xmlns="http://www.w3.org/2000/svg" xmlns:ns1="http://ns.adobe.com/AdobeIllustrator/10.0/" ns1:knockout="Off" fill-rule="evenodd" clip-rule="evenodd" fill="none" stroke="#000000" stroke-width="0.504" stroke-miterlimit="2.4142" d="      M475.636,486.32c-0.995,0-1.823-0.828-1.823-1.822c0-0.993,0.828-1.82,1.823-1.82c0.993,0,1.82,0.827,1.82,1.82      C477.456,485.492,476.629,486.32,475.636,486.32L475.636,486.32z"/>
<path xmlns="http://www.w3.org/2000/svg" xmlns:ns1="http://ns.adobe.com/AdobeIllustrator/10.0/" ns1:knockout="Off" fill-rule="evenodd" clip-rule="evenodd" fill="none" stroke="#000000" stroke-width="0.504" stroke-miterlimit="2.4142" d="      M481.438,486.32c-0.995,0-1.823-0.828-1.823-1.822c0-0.993,0.828-1.82,1.823-1.82c0.993,0,1.82,0.827,1.82,1.82      C483.259,485.492,482.432,486.32,481.438,486.32L481.438,486.32z"/>
<path xmlns="http://www.w3.org/2000/svg" xmlns:ns1="http://ns.adobe.com/AdobeIllustrator/10.0/" ns1:knockout="Off" fill-rule="evenodd" clip-rule="evenodd" fill="none" stroke="#000000" stroke-width="0.504" stroke-miterlimit="2.4142" d="      M478.537,491.872c-0.995,0-1.823-0.828-1.823-1.821c0-0.994,0.828-1.822,1.823-1.822c0.993,0,1.82,0.828,1.82,1.822      C480.357,491.044,479.53,491.872,478.537,491.872L478.537,491.872z"/>
</g>
</switch>
</svg>