<?xml version="1.0" encoding="utf-8"?>
<!DOCTYPE svg PUBLIC "-//W3C//DTD SVG 1.1//EN" "http://www.w3.org/Graphics/SVG/1.1/DTD/svg11.dtd" [
	<!ENTITY ns_extend "http://ns.adobe.com/Extensibility/1.0/">
	<!ENTITY ns_ai "http://ns.adobe.com/AdobeIllustrator/10.0/">
	<!ENTITY ns_graphs "http://ns.adobe.com/Graphs/1.0/">
	<!ENTITY ns_vars "http://ns.adobe.com/Variables/1.0/">
	<!ENTITY ns_imrep "http://ns.adobe.com/ImageReplacement/1.0/">
	<!ENTITY ns_sfw "http://ns.adobe.com/SaveForWeb/1.0/">
	<!ENTITY ns_custom "http://ns.adobe.com/GenericCustomNamespace/1.0/">
	<!ENTITY ns_adobe_xpath "http://ns.adobe.com/XPath/1.0/">
]>
<svg version="1.1" id="Internal_Structure" xmlns:x="&ns_extend;" xmlns:i="&ns_ai;" xmlns:graph="&ns_graphs;"
	 xmlns="http://www.w3.org/2000/svg" xmlns:xlink="http://www.w3.org/1999/xlink" x="0px" y="0px" width="612px" height="792px"
	 viewBox="0 0 612 792" enable-background="new 0 0 612 792" xml:space="preserve">
<switch>
<g i:extraneous="self">
<path xmlns="http://www.w3.org/2000/svg" xmlns:ns1="http://ns.adobe.com/AdobeIllustrator/10.0/" ns1:knockout="Off" fill-rule="evenodd" clip-rule="evenodd" fill="none" stroke="#000000" stroke-width="0.504" stroke-miterlimit="2.4142" d="      M524.976,427.655c-0.994,0.088-1.891-0.664-1.976-1.655c-0.087-0.99,0.666-1.886,1.656-1.973      c0.991-0.088,1.887,0.665,1.974,1.655C526.715,426.673,525.964,427.568,524.976,427.655L524.976,427.655z"/>
<path xmlns="http://www.w3.org/2000/svg" xmlns:ns1="http://ns.adobe.com/AdobeIllustrator/10.0/" ns1:knockout="Off" fill-rule="evenodd" clip-rule="evenodd" fill="none" stroke="#000000" stroke-width="0.504" stroke-miterlimit="2.4142" d="      M525.738,436.38c-0.991,0.087-1.888-0.665-1.975-1.655c-0.088-0.99,0.666-1.887,1.658-1.974      c0.987-0.087,1.886,0.665,1.971,1.655C527.48,435.396,526.727,436.292,525.738,436.38L525.738,436.38z"/>
<path xmlns="http://www.w3.org/2000/svg" xmlns:ns1="http://ns.adobe.com/AdobeIllustrator/10.0/" ns1:knockout="Off" fill-rule="evenodd" clip-rule="evenodd" fill="none" stroke="#000000" stroke-width="0.504" stroke-miterlimit="2.4142" d="      M526.502,445.104c-0.992,0.087-1.891-0.665-1.976-1.655c-0.087-0.99,0.664-1.886,1.655-1.974      c0.991-0.085,1.888,0.665,1.975,1.654C528.243,444.122,527.49,445.017,526.502,445.104L526.502,445.104z"/>
<path xmlns="http://www.w3.org/2000/svg" xmlns:ns1="http://ns.adobe.com/AdobeIllustrator/10.0/" ns1:knockout="Off" fill-rule="evenodd" clip-rule="evenodd" fill="none" stroke="#000000" stroke-width="0.504" stroke-miterlimit="2.4142" d="      M527.265,453.828c-0.991,0.087-1.888-0.666-1.975-1.656s0.667-1.886,1.658-1.973c0.988-0.086,1.884,0.666,1.971,1.656      C529.007,452.845,528.256,453.742,527.265,453.828L527.265,453.828z"/>
<path xmlns="http://www.w3.org/2000/svg" xmlns:ns1="http://ns.adobe.com/AdobeIllustrator/10.0/" ns1:knockout="Off" fill-rule="evenodd" clip-rule="evenodd" fill="none" stroke="#000000" stroke-width="0.504" stroke-miterlimit="2.4142" d="      M528.027,462.552c-0.991,0.087-1.89-0.665-1.975-1.655c-0.088-0.99,0.666-1.887,1.655-1.974c0.99-0.088,1.887,0.665,1.974,1.655      S529.016,462.464,528.027,462.552L528.027,462.552z"/>
<path xmlns="http://www.w3.org/2000/svg" xmlns:ns1="http://ns.adobe.com/AdobeIllustrator/10.0/" ns1:knockout="Off" fill-rule="evenodd" clip-rule="evenodd" fill="none" stroke="#000000" stroke-width="0.504" stroke-miterlimit="2.4142" d="      M528.792,471.275c-0.993,0.087-1.889-0.665-1.977-1.655c-0.087-0.99,0.667-1.886,1.658-1.974      c0.988-0.085,1.887,0.665,1.972,1.657C530.532,470.294,529.781,471.188,528.792,471.275L528.792,471.275z"/>
<path xmlns="http://www.w3.org/2000/svg" xmlns:ns1="http://ns.adobe.com/AdobeIllustrator/10.0/" ns1:knockout="Off" fill-rule="evenodd" clip-rule="evenodd" fill="none" stroke="#000000" stroke-width="0.504" stroke-miterlimit="2.4142" d="      M529.555,480c-0.992,0.087-1.889-0.666-1.976-1.656s0.666-1.886,1.658-1.973c0.988-0.088,1.884,0.666,1.971,1.656      C531.296,479.017,530.542,479.914,529.555,480L529.555,480z"/>
<path xmlns="http://www.w3.org/2000/svg" xmlns:ns1="http://ns.adobe.com/AdobeIllustrator/10.0/" ns1:knockout="Off" fill-rule="evenodd" clip-rule="evenodd" fill="none" stroke="#000000" stroke-width="0.504" stroke-miterlimit="2.4142" d="      M530.316,488.724c-0.99,0.087-1.887-0.665-1.975-1.655c-0.084-0.99,0.666-1.887,1.658-1.974c0.99-0.088,1.887,0.665,1.973,1.655      S531.309,488.636,530.316,488.724L530.316,488.724z"/>
<path xmlns="http://www.w3.org/2000/svg" xmlns:ns1="http://ns.adobe.com/AdobeIllustrator/10.0/" ns1:knockout="Off" fill-rule="evenodd" clip-rule="evenodd" fill="none" stroke="#000000" stroke-width="0.504" stroke-miterlimit="2.4142" d="      M531.081,497.448c-0.992,0.087-1.889-0.666-1.976-1.656s0.667-1.886,1.658-1.974c0.988-0.085,1.884,0.667,1.972,1.657      C532.822,496.466,532.068,497.362,531.081,497.448L531.081,497.448z"/>
</g>
</switch>
</svg>