<?xml version="1.0" encoding="utf-8"?>
<!DOCTYPE svg PUBLIC "-//W3C//DTD SVG 1.1//EN" "http://www.w3.org/Graphics/SVG/1.1/DTD/svg11.dtd" [
	<!ENTITY ns_extend "http://ns.adobe.com/Extensibility/1.0/">
	<!ENTITY ns_ai "http://ns.adobe.com/AdobeIllustrator/10.0/">
	<!ENTITY ns_graphs "http://ns.adobe.com/Graphs/1.0/">
	<!ENTITY ns_vars "http://ns.adobe.com/Variables/1.0/">
	<!ENTITY ns_imrep "http://ns.adobe.com/ImageReplacement/1.0/">
	<!ENTITY ns_sfw "http://ns.adobe.com/SaveForWeb/1.0/">
	<!ENTITY ns_custom "http://ns.adobe.com/GenericCustomNamespace/1.0/">
	<!ENTITY ns_adobe_xpath "http://ns.adobe.com/XPath/1.0/">
]>
<svg version="1.1" id="Internal_Structure" xmlns:x="&ns_extend;" xmlns:i="&ns_ai;" xmlns:graph="&ns_graphs;"
	 xmlns="http://www.w3.org/2000/svg" xmlns:xlink="http://www.w3.org/1999/xlink" x="0px" y="0px" width="612px" height="792px"
	 viewBox="0 0 612 792" enable-background="new 0 0 612 792" xml:space="preserve">
<switch>
<g i:extraneous="self">
<path xmlns="http://www.w3.org/2000/svg" xmlns:ns1="http://ns.adobe.com/AdobeIllustrator/10.0/" ns1:knockout="Off" fill-rule="evenodd" clip-rule="evenodd" fill="none" stroke="#000000" stroke-width="0.504" stroke-miterlimit="2.4142" d="      M431.719,427.655c0.991,0.088,1.887-0.664,1.975-1.655c0.088-0.99-0.667-1.886-1.658-1.973      c-0.988-0.088-1.884,0.665-1.971,1.655C429.977,426.673,430.728,427.568,431.719,427.655L431.719,427.655z"/>
<path xmlns="http://www.w3.org/2000/svg" xmlns:ns1="http://ns.adobe.com/AdobeIllustrator/10.0/" ns1:knockout="Off" fill-rule="evenodd" clip-rule="evenodd" fill="none" stroke="#000000" stroke-width="0.504" stroke-miterlimit="2.4142" d="      M430.846,437.626c0.992,0.087,1.888-0.665,1.976-1.655c0.087-0.99-0.667-1.886-1.658-1.974      c-0.991-0.085-1.885,0.665-1.972,1.654C429.104,436.645,429.854,437.539,430.846,437.626L430.846,437.626z"/>
<path xmlns="http://www.w3.org/2000/svg" xmlns:ns1="http://ns.adobe.com/AdobeIllustrator/10.0/" ns1:knockout="Off" fill-rule="evenodd" clip-rule="evenodd" fill="none" stroke="#000000" stroke-width="0.504" stroke-miterlimit="2.4142" d="      M429.976,447.597c0.99,0.087,1.889-0.666,1.974-1.656c0.087-0.99-0.667-1.886-1.658-1.973c-0.988-0.086-1.884,0.666-1.972,1.656      C428.232,446.613,428.986,447.511,429.976,447.597L429.976,447.597z"/>
<path xmlns="http://www.w3.org/2000/svg" xmlns:ns1="http://ns.adobe.com/AdobeIllustrator/10.0/" ns1:knockout="Off" fill-rule="evenodd" clip-rule="evenodd" fill="none" stroke="#000000" stroke-width="0.504" stroke-miterlimit="2.4142" d="      M429.102,457.566c0.991,0.087,1.888-0.665,1.975-1.655s-0.666-1.887-1.658-1.974c-0.988-0.088-1.887,0.665-1.971,1.655      C427.36,456.583,428.11,457.479,429.102,457.566L429.102,457.566z"/>
<path xmlns="http://www.w3.org/2000/svg" xmlns:ns1="http://ns.adobe.com/AdobeIllustrator/10.0/" ns1:knockout="Off" fill-rule="evenodd" clip-rule="evenodd" fill="none" stroke="#000000" stroke-width="0.504" stroke-miterlimit="2.4142" d="      M428.229,467.537c0.991,0.087,1.89-0.665,1.975-1.655c0.088-0.99-0.666-1.886-1.657-1.974c-0.988-0.085-1.884,0.665-1.972,1.657      C426.488,466.556,427.242,467.45,428.229,467.537L428.229,467.537z"/>
<path xmlns="http://www.w3.org/2000/svg" xmlns:ns1="http://ns.adobe.com/AdobeIllustrator/10.0/" ns1:knockout="Off" fill-rule="evenodd" clip-rule="evenodd" fill="none" stroke="#000000" stroke-width="0.504" stroke-miterlimit="2.4142" d="      M427.356,477.508c0.992,0.087,1.889-0.666,1.976-1.656s-0.666-1.886-1.658-1.973c-0.991-0.088-1.887,0.666-1.972,1.656      C425.615,476.524,426.366,477.422,427.356,477.508L427.356,477.508z"/>
<path xmlns="http://www.w3.org/2000/svg" xmlns:ns1="http://ns.adobe.com/AdobeIllustrator/10.0/" ns1:knockout="Off" fill-rule="evenodd" clip-rule="evenodd" fill="none" stroke="#000000" stroke-width="0.504" stroke-miterlimit="2.4142" d="      M426.484,487.478c0.991,0.087,1.888-0.665,1.975-1.655c0.088-0.99-0.666-1.887-1.656-1.974      c-0.989-0.088-1.885,0.665-1.973,1.655S425.496,487.39,426.484,487.478L426.484,487.478z"/>
<path xmlns="http://www.w3.org/2000/svg" xmlns:ns1="http://ns.adobe.com/AdobeIllustrator/10.0/" ns1:knockout="Off" fill-rule="evenodd" clip-rule="evenodd" fill="none" stroke="#000000" stroke-width="0.504" stroke-miterlimit="2.4142" d="      M425.613,497.448c0.989,0.087,1.889-0.666,1.973-1.656c0.087-0.99-0.664-1.886-1.655-1.974      c-0.991-0.085-1.888,0.667-1.972,1.657C423.872,496.466,424.622,497.362,425.613,497.448L425.613,497.448z"/>
</g>
</switch>
</svg>