<?xml version="1.0" encoding="utf-8"?>
<!DOCTYPE svg PUBLIC "-//W3C//DTD SVG 1.1//EN" "http://www.w3.org/Graphics/SVG/1.1/DTD/svg11.dtd" [
	<!ENTITY ns_extend "http://ns.adobe.com/Extensibility/1.0/">
	<!ENTITY ns_ai "http://ns.adobe.com/AdobeIllustrator/10.0/">
	<!ENTITY ns_graphs "http://ns.adobe.com/Graphs/1.0/">
	<!ENTITY ns_vars "http://ns.adobe.com/Variables/1.0/">
	<!ENTITY ns_imrep "http://ns.adobe.com/ImageReplacement/1.0/">
	<!ENTITY ns_sfw "http://ns.adobe.com/SaveForWeb/1.0/">
	<!ENTITY ns_custom "http://ns.adobe.com/GenericCustomNamespace/1.0/">
	<!ENTITY ns_adobe_xpath "http://ns.adobe.com/XPath/1.0/">
]>
<svg version="1.1" id="Internal_Structure" xmlns:x="&ns_extend;" xmlns:i="&ns_ai;" xmlns:graph="&ns_graphs;"
	 xmlns="http://www.w3.org/2000/svg" xmlns:xlink="http://www.w3.org/1999/xlink" x="0px" y="0px" width="612px" height="792px"
	 viewBox="0 0 612 792" enable-background="new 0 0 612 792" xml:space="preserve">
<switch>
<g i:extraneous="self">
<path xmlns="http://www.w3.org/2000/svg" xmlns:ns1="http://ns.adobe.com/AdobeIllustrator/10.0/" ns1:knockout="Off" fill-rule="evenodd" clip-rule="evenodd" fill="none" stroke="#000000" stroke-width="0.504" stroke-miterlimit="2.4142" d="      M458.46,489.92c0.976,0.19,1.946-0.464,2.138-1.439c0.19-0.977-0.467-1.946-1.442-2.136c-0.975-0.19-1.945,0.464-2.134,1.44      C456.831,488.761,457.485,489.731,458.46,489.92L458.46,489.92z"/>
<path xmlns="http://www.w3.org/2000/svg" xmlns:ns1="http://ns.adobe.com/AdobeIllustrator/10.0/" ns1:knockout="Off" fill-rule="evenodd" clip-rule="evenodd" fill="none" stroke="#000000" stroke-width="0.504" stroke-miterlimit="2.4142" d="      M456.686,499.041c0.979,0.188,1.95-0.466,2.14-1.44c0.189-0.976-0.465-1.946-1.443-2.136c-0.974-0.189-1.945,0.465-2.134,1.439      C455.06,497.881,455.714,498.852,456.686,499.041L456.686,499.041z"/>
<path xmlns="http://www.w3.org/2000/svg" xmlns:ns1="http://ns.adobe.com/AdobeIllustrator/10.0/" ns1:knockout="Off" fill-rule="evenodd" clip-rule="evenodd" fill="none" stroke="#000000" stroke-width="0.504" stroke-miterlimit="2.4142" d="      M454.915,508.161c0.976,0.188,1.946-0.466,2.138-1.441c0.188-0.975-0.467-1.943-1.442-2.133      c-0.975-0.191-1.945,0.463-2.137,1.438C453.286,507.001,453.94,507.971,454.915,508.161L454.915,508.161z"/>
<path xmlns="http://www.w3.org/2000/svg" xmlns:ns1="http://ns.adobe.com/AdobeIllustrator/10.0/" ns1:knockout="Off" fill-rule="evenodd" clip-rule="evenodd" fill="none" stroke="#000000" stroke-width="0.504" stroke-miterlimit="2.4142" d="      M453.144,517.283c0.977,0.188,1.947-0.465,2.135-1.441c0.191-0.976-0.463-1.945-1.441-2.135c-0.976-0.19-1.943,0.464-2.134,1.44      C451.512,516.123,452.166,517.094,453.144,517.283L453.144,517.283z"/>
<path xmlns="http://www.w3.org/2000/svg" xmlns:ns1="http://ns.adobe.com/AdobeIllustrator/10.0/" ns1:knockout="Off" fill-rule="evenodd" clip-rule="evenodd" fill="none" stroke="#000000" stroke-width="0.504" stroke-miterlimit="2.4142" d="      M451.369,526.403c0.976,0.189,1.946-0.465,2.138-1.44c0.188-0.976-0.467-1.945-1.442-2.136c-0.975-0.189-1.945,0.464-2.136,1.44      C449.74,525.243,450.394,526.214,451.369,526.403L451.369,526.403z"/>
<path xmlns="http://www.w3.org/2000/svg" xmlns:ns1="http://ns.adobe.com/AdobeIllustrator/10.0/" ns1:knockout="Off" fill-rule="evenodd" clip-rule="evenodd" fill="none" stroke="#000000" stroke-width="0.504" stroke-miterlimit="2.4142" d="      M449.594,535.523c0.979,0.191,1.95-0.463,2.139-1.438c0.19-0.976-0.467-1.946-1.442-2.137c-0.976-0.188-1.942,0.465-2.134,1.44      C447.965,534.365,448.622,535.336,449.594,535.523L449.594,535.523z"/>
<path xmlns="http://www.w3.org/2000/svg" xmlns:ns1="http://ns.adobe.com/AdobeIllustrator/10.0/" ns1:knockout="Off" fill-rule="evenodd" clip-rule="evenodd" fill="none" stroke="#000000" stroke-width="0.504" stroke-miterlimit="2.4142" d="      M447.823,544.645c0.979,0.188,1.946-0.464,2.138-1.438c0.188-0.977-0.467-1.947-1.442-2.136      c-0.975-0.191-1.945,0.463-2.137,1.439C446.194,543.486,446.849,544.454,447.823,544.645L447.823,544.645z"/>
<path xmlns="http://www.w3.org/2000/svg" xmlns:ns1="http://ns.adobe.com/AdobeIllustrator/10.0/" ns1:knockout="Off" fill-rule="evenodd" clip-rule="evenodd" fill="none" stroke="#000000" stroke-width="0.504" stroke-miterlimit="2.4142" d="      M446.048,553.766c0.979,0.189,1.95-0.464,2.138-1.44c0.191-0.976-0.466-1.944-1.441-2.136c-0.976-0.189-1.946,0.465-2.134,1.44      C444.419,552.604,445.073,553.575,446.048,553.766L446.048,553.766z"/>
<path xmlns="http://www.w3.org/2000/svg" xmlns:ns1="http://ns.adobe.com/AdobeIllustrator/10.0/" ns1:knockout="Off" fill-rule="evenodd" clip-rule="evenodd" fill="none" stroke="#000000" stroke-width="0.504" stroke-miterlimit="2.4142" d="      M444.277,562.886c0.976,0.189,1.946-0.463,2.138-1.439c0.188-0.977-0.467-1.946-1.442-2.136      c-0.975-0.188-1.944,0.464-2.137,1.439C442.648,561.728,443.303,562.696,444.277,562.886L444.277,562.886z"/>
<path xmlns="http://www.w3.org/2000/svg" xmlns:ns1="http://ns.adobe.com/AdobeIllustrator/10.0/" ns1:knockout="Off" fill-rule="evenodd" clip-rule="evenodd" fill="none" stroke="#000000" stroke-width="0.504" stroke-miterlimit="2.4142" d="      M442.505,572.006c0.976,0.192,1.946-0.462,2.135-1.438c0.191-0.976-0.463-1.946-1.441-2.137      c-0.976-0.188-1.942,0.465-2.134,1.441C440.875,570.848,441.53,571.817,442.505,572.006L442.505,572.006z"/>
</g>
</switch>
</svg>