<?xml version="1.0" encoding="utf-8"?>
<!DOCTYPE svg PUBLIC "-//W3C//DTD SVG 1.1//EN" "http://www.w3.org/Graphics/SVG/1.1/DTD/svg11.dtd" [
	<!ENTITY ns_extend "http://ns.adobe.com/Extensibility/1.0/">
	<!ENTITY ns_ai "http://ns.adobe.com/AdobeIllustrator/10.0/">
	<!ENTITY ns_graphs "http://ns.adobe.com/Graphs/1.0/">
	<!ENTITY ns_vars "http://ns.adobe.com/Variables/1.0/">
	<!ENTITY ns_imrep "http://ns.adobe.com/ImageReplacement/1.0/">
	<!ENTITY ns_sfw "http://ns.adobe.com/SaveForWeb/1.0/">
	<!ENTITY ns_custom "http://ns.adobe.com/GenericCustomNamespace/1.0/">
	<!ENTITY ns_adobe_xpath "http://ns.adobe.com/XPath/1.0/">
]>
<svg version="1.1" id="Internal_Structure" xmlns:x="&ns_extend;" xmlns:i="&ns_ai;" xmlns:graph="&ns_graphs;"
	 xmlns="http://www.w3.org/2000/svg" xmlns:xlink="http://www.w3.org/1999/xlink" x="0px" y="0px" width="612px" height="792px"
	 viewBox="0 0 612 792" enable-background="new 0 0 612 792" xml:space="preserve">
<switch>
<g i:extraneous="self">
<path xmlns="http://www.w3.org/2000/svg" xmlns:ns1="http://ns.adobe.com/AdobeIllustrator/10.0/" ns1:knockout="Off" fill-rule="evenodd" clip-rule="evenodd" fill="none" stroke="#000000" stroke-width="0.504" stroke-miterlimit="2.4142" d="      M473.793,438.477c-0.995,0-1.824-0.827-1.824-1.821c0-0.993,0.829-1.821,1.824-1.821c0.992,0,1.821,0.828,1.821,1.821      C475.614,437.649,474.785,438.477,473.793,438.477L473.793,438.477z"/>
<path xmlns="http://www.w3.org/2000/svg" xmlns:ns1="http://ns.adobe.com/AdobeIllustrator/10.0/" ns1:knockout="Off" fill-rule="evenodd" clip-rule="evenodd" fill="none" stroke="#000000" stroke-width="0.504" stroke-miterlimit="2.4142" d="      M482.905,438.477c-0.996,0-1.825-0.827-1.825-1.821c0-0.993,0.829-1.821,1.825-1.821c0.992,0,1.82,0.828,1.82,1.821      C484.726,437.649,483.897,438.477,482.905,438.477L482.905,438.477z"/>
<path xmlns="http://www.w3.org/2000/svg" xmlns:ns1="http://ns.adobe.com/AdobeIllustrator/10.0/" ns1:knockout="Off" fill-rule="evenodd" clip-rule="evenodd" fill="none" stroke="#000000" stroke-width="0.504" stroke-miterlimit="2.4142" d="      M473.793,452.526c-0.995,0-1.824-0.827-1.824-1.821c0-0.993,0.829-1.821,1.824-1.821c0.992,0,1.821,0.828,1.821,1.821      C475.614,451.699,474.785,452.526,473.793,452.526L473.793,452.526z"/>
<path xmlns="http://www.w3.org/2000/svg" xmlns:ns1="http://ns.adobe.com/AdobeIllustrator/10.0/" ns1:knockout="Off" fill-rule="evenodd" clip-rule="evenodd" fill="none" stroke="#000000" stroke-width="0.504" stroke-miterlimit="2.4142" d="      M482.905,452.526c-0.996,0-1.825-0.827-1.825-1.821c0-0.993,0.829-1.821,1.825-1.821c0.992,0,1.82,0.828,1.82,1.821      C484.726,451.699,483.897,452.526,482.905,452.526L482.905,452.526z"/>
<path xmlns="http://www.w3.org/2000/svg" xmlns:ns1="http://ns.adobe.com/AdobeIllustrator/10.0/" ns1:knockout="Off" fill-rule="evenodd" clip-rule="evenodd" fill="none" stroke="#000000" stroke-width="0.504" stroke-miterlimit="2.4142" d="      M473.793,466.577c-0.995,0-1.824-0.827-1.824-1.821c0-0.993,0.829-1.821,1.824-1.821c0.992,0,1.821,0.828,1.821,1.821      C475.614,465.75,474.785,466.577,473.793,466.577L473.793,466.577z"/>
<path xmlns="http://www.w3.org/2000/svg" xmlns:ns1="http://ns.adobe.com/AdobeIllustrator/10.0/" ns1:knockout="Off" fill-rule="evenodd" clip-rule="evenodd" fill="none" stroke="#000000" stroke-width="0.504" stroke-miterlimit="2.4142" d="      M482.905,466.577c-0.996,0-1.825-0.827-1.825-1.821c0-0.993,0.829-1.821,1.825-1.821c0.992,0,1.82,0.828,1.82,1.821      C484.726,465.75,483.897,466.577,482.905,466.577L482.905,466.577z"/>
<path xmlns="http://www.w3.org/2000/svg" xmlns:ns1="http://ns.adobe.com/AdobeIllustrator/10.0/" ns1:knockout="Off" fill-rule="evenodd" clip-rule="evenodd" fill="none" stroke="#000000" stroke-width="0.504" stroke-miterlimit="2.4142" d="      M473.793,480.627c-0.995,0-1.824-0.827-1.824-1.821c0-0.993,0.829-1.821,1.824-1.821c0.992,0,1.821,0.828,1.821,1.821      C475.614,479.8,474.785,480.627,473.793,480.627L473.793,480.627z"/>
<path xmlns="http://www.w3.org/2000/svg" xmlns:ns1="http://ns.adobe.com/AdobeIllustrator/10.0/" ns1:knockout="Off" fill-rule="evenodd" clip-rule="evenodd" fill="none" stroke="#000000" stroke-width="0.504" stroke-miterlimit="2.4142" d="      M482.905,480.627c-0.996,0-1.825-0.827-1.825-1.821c0-0.993,0.829-1.821,1.825-1.821c0.992,0,1.82,0.828,1.82,1.821      C484.726,479.8,483.897,480.627,482.905,480.627L482.905,480.627z"/>
</g>
</switch>
</svg>