<?xml version="1.0" encoding="utf-8"?>
<!DOCTYPE svg PUBLIC "-//W3C//DTD SVG 1.1//EN" "http://www.w3.org/Graphics/SVG/1.1/DTD/svg11.dtd" [
	<!ENTITY ns_extend "http://ns.adobe.com/Extensibility/1.0/">
	<!ENTITY ns_ai "http://ns.adobe.com/AdobeIllustrator/10.0/">
	<!ENTITY ns_graphs "http://ns.adobe.com/Graphs/1.0/">
	<!ENTITY ns_vars "http://ns.adobe.com/Variables/1.0/">
	<!ENTITY ns_imrep "http://ns.adobe.com/ImageReplacement/1.0/">
	<!ENTITY ns_sfw "http://ns.adobe.com/SaveForWeb/1.0/">
	<!ENTITY ns_custom "http://ns.adobe.com/GenericCustomNamespace/1.0/">
	<!ENTITY ns_adobe_xpath "http://ns.adobe.com/XPath/1.0/">
]>
<svg version="1.1" id="Internal_Structure" xmlns:x="&ns_extend;" xmlns:i="&ns_ai;" xmlns:graph="&ns_graphs;"
	 xmlns="http://www.w3.org/2000/svg" xmlns:xlink="http://www.w3.org/1999/xlink" x="0px" y="0px" width="612px" height="792px"
	 viewBox="0 0 612 792" enable-background="new 0 0 612 792" xml:space="preserve">
<switch>
<g i:extraneous="self">
<path xmlns="http://www.w3.org/2000/svg" xmlns:ns1="http://ns.adobe.com/AdobeIllustrator/10.0/" ns1:knockout="Off" fill-rule="evenodd" clip-rule="evenodd" fill="none" stroke="#000000" stroke-width="0.504" stroke-miterlimit="2.4142" d="      M433.866,426.504c0.99,0.087,1.888-0.666,1.975-1.656c0.086-0.989-0.667-1.887-1.657-1.974c-0.99-0.085-1.886,0.667-1.973,1.656      C432.125,425.52,432.877,426.417,433.866,426.504L433.866,426.504z"/>
<path xmlns="http://www.w3.org/2000/svg" xmlns:ns1="http://ns.adobe.com/AdobeIllustrator/10.0/" ns1:knockout="Off" fill-rule="evenodd" clip-rule="evenodd" fill="none" stroke="#000000" stroke-width="0.504" stroke-miterlimit="2.4142" d="      M429.193,430.236c0.991,0.086,1.889-0.666,1.976-1.656c0.086-0.989-0.666-1.886-1.658-1.974      c-0.989-0.086-1.885,0.666-1.973,1.656C427.452,429.253,428.204,430.15,429.193,430.236L429.193,430.236z"/>
<path xmlns="http://www.w3.org/2000/svg" xmlns:ns1="http://ns.adobe.com/AdobeIllustrator/10.0/" ns1:knockout="Off" fill-rule="evenodd" clip-rule="evenodd" fill="none" stroke="#000000" stroke-width="0.504" stroke-miterlimit="2.4142" d="      M433.146,434.723c0.991,0.087,1.889-0.665,1.975-1.655c0.087-0.989-0.666-1.887-1.656-1.973      c-0.989-0.087-1.886,0.666-1.973,1.654C431.405,433.74,432.157,434.636,433.146,434.723L433.146,434.723z"/>
<path xmlns="http://www.w3.org/2000/svg" xmlns:ns1="http://ns.adobe.com/AdobeIllustrator/10.0/" ns1:knockout="Off" fill-rule="evenodd" clip-rule="evenodd" fill="none" stroke="#000000" stroke-width="0.504" stroke-miterlimit="2.4142" d="      M428.474,438.456c0.991,0.086,1.89-0.666,1.976-1.655c0.086-0.991-0.667-1.888-1.658-1.974      c-0.988-0.087-1.886,0.665-1.972,1.656C426.732,437.473,427.484,438.37,428.474,438.456L428.474,438.456z"/>
<path xmlns="http://www.w3.org/2000/svg" xmlns:ns1="http://ns.adobe.com/AdobeIllustrator/10.0/" ns1:knockout="Off" fill-rule="evenodd" clip-rule="evenodd" fill="none" stroke="#000000" stroke-width="0.504" stroke-miterlimit="2.4142" d="      M432.428,442.943c0.99,0.086,1.888-0.666,1.975-1.655c0.086-0.99-0.666-1.888-1.657-1.975c-0.99-0.086-1.886,0.667-1.973,1.657      C430.686,441.96,431.438,442.857,432.428,442.943L432.428,442.943z"/>
<path xmlns="http://www.w3.org/2000/svg" xmlns:ns1="http://ns.adobe.com/AdobeIllustrator/10.0/" ns1:knockout="Off" fill-rule="evenodd" clip-rule="evenodd" fill="none" stroke="#000000" stroke-width="0.504" stroke-miterlimit="2.4142" d="      M427.756,446.676c0.99,0.087,1.888-0.666,1.975-1.655c0.087-0.99-0.666-1.887-1.657-1.974c-0.989-0.087-1.886,0.666-1.973,1.656      C426.015,445.693,426.766,446.589,427.756,446.676L427.756,446.676z"/>
<path xmlns="http://www.w3.org/2000/svg" xmlns:ns1="http://ns.adobe.com/AdobeIllustrator/10.0/" ns1:knockout="Off" fill-rule="evenodd" clip-rule="evenodd" fill="none" stroke="#000000" stroke-width="0.504" stroke-miterlimit="2.4142" d="      M431.708,451.163c0.992,0.086,1.89-0.665,1.976-1.655c0.086-0.991-0.667-1.887-1.658-1.974      c-0.988-0.086-1.886,0.665-1.972,1.656C429.967,450.18,430.719,451.077,431.708,451.163L431.708,451.163z"/>
<path xmlns="http://www.w3.org/2000/svg" xmlns:ns1="http://ns.adobe.com/AdobeIllustrator/10.0/" ns1:knockout="Off" fill-rule="evenodd" clip-rule="evenodd" fill="none" stroke="#000000" stroke-width="0.504" stroke-miterlimit="2.4142" d="      M427.036,454.896c0.99,0.086,1.888-0.666,1.975-1.655c0.087-0.991-0.666-1.887-1.658-1.974      c-0.989-0.087-1.885,0.665-1.972,1.655S426.046,454.809,427.036,454.896L427.036,454.896z"/>
<path xmlns="http://www.w3.org/2000/svg" xmlns:ns1="http://ns.adobe.com/AdobeIllustrator/10.0/" ns1:knockout="Off" fill-rule="evenodd" clip-rule="evenodd" fill="none" stroke="#000000" stroke-width="0.504" stroke-miterlimit="2.4142" d="      M430.989,459.383c0.991,0.087,1.889-0.666,1.976-1.655c0.086-0.991-0.667-1.887-1.658-1.974      c-0.989-0.087-1.886,0.667-1.973,1.655C429.248,458.399,429.999,459.296,430.989,459.383L430.989,459.383z"/>
<path xmlns="http://www.w3.org/2000/svg" xmlns:ns1="http://ns.adobe.com/AdobeIllustrator/10.0/" ns1:knockout="Off" fill-rule="evenodd" clip-rule="evenodd" fill="none" stroke="#000000" stroke-width="0.504" stroke-miterlimit="2.4142" d="      M426.317,463.115c0.991,0.087,1.888-0.666,1.975-1.656c0.086-0.989-0.666-1.886-1.657-1.974      c-0.989-0.086-1.886,0.666-1.972,1.656C424.576,462.133,425.328,463.028,426.317,463.115L426.317,463.115z"/>
<path xmlns="http://www.w3.org/2000/svg" xmlns:ns1="http://ns.adobe.com/AdobeIllustrator/10.0/" ns1:knockout="Off" fill-rule="evenodd" clip-rule="evenodd" fill="none" stroke="#000000" stroke-width="0.504" stroke-miterlimit="2.4142" d="      M430.27,467.603c0.991,0.087,1.889-0.667,1.976-1.656c0.086-0.988-0.667-1.886-1.658-1.973      c-0.989-0.087-1.886,0.666-1.973,1.655C428.528,466.619,429.28,467.516,430.27,467.603L430.27,467.603z"/>
<path xmlns="http://www.w3.org/2000/svg" xmlns:ns1="http://ns.adobe.com/AdobeIllustrator/10.0/" ns1:knockout="Off" fill-rule="evenodd" clip-rule="evenodd" fill="none" stroke="#000000" stroke-width="0.504" stroke-miterlimit="2.4142" d="      M425.599,471.335c0.99,0.087,1.888-0.665,1.974-1.655c0.087-0.99-0.666-1.888-1.657-1.974c-0.988-0.086-1.885,0.666-1.972,1.656      C423.857,470.352,424.609,471.248,425.599,471.335L425.599,471.335z"/>
<path xmlns="http://www.w3.org/2000/svg" xmlns:ns1="http://ns.adobe.com/AdobeIllustrator/10.0/" ns1:knockout="Off" fill-rule="evenodd" clip-rule="evenodd" fill="none" stroke="#000000" stroke-width="0.504" stroke-miterlimit="2.4142" d="      M429.552,475.822c0.99,0.087,1.888-0.665,1.974-1.656c0.087-0.989-0.666-1.887-1.656-1.974s-1.886,0.666-1.973,1.656      C427.81,474.84,428.562,475.735,429.552,475.822L429.552,475.822z"/>
<path xmlns="http://www.w3.org/2000/svg" xmlns:ns1="http://ns.adobe.com/AdobeIllustrator/10.0/" ns1:knockout="Off" fill-rule="evenodd" clip-rule="evenodd" fill="none" stroke="#000000" stroke-width="0.504" stroke-miterlimit="2.4142" d="      M424.879,479.555c0.991,0.087,1.888-0.666,1.975-1.655c0.087-0.991-0.666-1.888-1.657-1.974      c-0.99-0.087-1.886,0.665-1.972,1.656C423.137,478.571,423.89,479.468,424.879,479.555L424.879,479.555z"/>
<path xmlns="http://www.w3.org/2000/svg" xmlns:ns1="http://ns.adobe.com/AdobeIllustrator/10.0/" ns1:knockout="Off" fill-rule="evenodd" clip-rule="evenodd" fill="none" stroke="#000000" stroke-width="0.504" stroke-miterlimit="2.4142" d="      M427.468,487.531c0.991,0.087,1.888-0.666,1.975-1.656s-0.667-1.886-1.657-1.972c-0.989-0.088-1.886,0.665-1.973,1.654      C425.727,486.548,426.479,487.445,427.468,487.531L427.468,487.531z"/>
<path xmlns="http://www.w3.org/2000/svg" xmlns:ns1="http://ns.adobe.com/AdobeIllustrator/10.0/" ns1:knockout="Off" fill-rule="evenodd" clip-rule="evenodd" fill="none" stroke="#000000" stroke-width="0.504" stroke-miterlimit="2.4142" d="      M426.856,495.508c0.99,0.087,1.888-0.666,1.974-1.655c0.087-0.991-0.666-1.887-1.657-1.974      c-0.988-0.088-1.885,0.665-1.972,1.655C425.115,494.524,425.867,495.421,426.856,495.508L426.856,495.508z"/>
</g>
</switch>
</svg>