<?xml version="1.0" encoding="utf-8"?>
<!DOCTYPE svg PUBLIC "-//W3C//DTD SVG 1.1//EN" "http://www.w3.org/Graphics/SVG/1.1/DTD/svg11.dtd" [
	<!ENTITY ns_extend "http://ns.adobe.com/Extensibility/1.0/">
	<!ENTITY ns_ai "http://ns.adobe.com/AdobeIllustrator/10.0/">
	<!ENTITY ns_graphs "http://ns.adobe.com/Graphs/1.0/">
	<!ENTITY ns_vars "http://ns.adobe.com/Variables/1.0/">
	<!ENTITY ns_imrep "http://ns.adobe.com/ImageReplacement/1.0/">
	<!ENTITY ns_sfw "http://ns.adobe.com/SaveForWeb/1.0/">
	<!ENTITY ns_custom "http://ns.adobe.com/GenericCustomNamespace/1.0/">
	<!ENTITY ns_adobe_xpath "http://ns.adobe.com/XPath/1.0/">
]>
<svg version="1.1" id="Internal_Structure" xmlns:x="&ns_extend;" xmlns:i="&ns_ai;" xmlns:graph="&ns_graphs;"
	 xmlns="http://www.w3.org/2000/svg" xmlns:xlink="http://www.w3.org/1999/xlink" x="0px" y="0px" width="612px" height="792px"
	 viewBox="0 0 612 792" enable-background="new 0 0 612 792" xml:space="preserve">
<switch>
<g i:extraneous="self">
<path xmlns="http://www.w3.org/2000/svg" xmlns:ns1="http://ns.adobe.com/AdobeIllustrator/10.0/" ns1:knockout="Off" fill-rule="evenodd" clip-rule="evenodd" fill="none" stroke="#000000" stroke-width="0.504" stroke-miterlimit="2.4142" d="      M458.46,489.92c0.976,0.19,1.946-0.464,2.138-1.439c0.19-0.977-0.467-1.946-1.442-2.136c-0.975-0.19-1.945,0.464-2.134,1.44      C456.831,488.761,457.485,489.731,458.46,489.92L458.46,489.92z"/>
<path xmlns="http://www.w3.org/2000/svg" xmlns:ns1="http://ns.adobe.com/AdobeIllustrator/10.0/" ns1:knockout="Off" fill-rule="evenodd" clip-rule="evenodd" fill="none" stroke="#000000" stroke-width="0.504" stroke-miterlimit="2.4142" d="      M455.799,503.602c0.979,0.188,1.95-0.466,2.14-1.44c0.189-0.976-0.465-1.946-1.443-2.136c-0.974-0.189-1.945,0.465-2.134,1.439      C454.173,502.441,454.827,503.412,455.799,503.602L455.799,503.602z"/>
<path xmlns="http://www.w3.org/2000/svg" xmlns:ns1="http://ns.adobe.com/AdobeIllustrator/10.0/" ns1:knockout="Off" fill-rule="evenodd" clip-rule="evenodd" fill="none" stroke="#000000" stroke-width="0.504" stroke-miterlimit="2.4142" d="      M453.143,517.282c0.976,0.188,1.946-0.466,2.138-1.441c0.188-0.975-0.467-1.943-1.442-2.133      c-0.975-0.191-1.945,0.463-2.137,1.438C451.514,516.122,452.168,517.092,453.143,517.282L453.143,517.282z"/>
<path xmlns="http://www.w3.org/2000/svg" xmlns:ns1="http://ns.adobe.com/AdobeIllustrator/10.0/" ns1:knockout="Off" fill-rule="evenodd" clip-rule="evenodd" fill="none" stroke="#000000" stroke-width="0.504" stroke-miterlimit="2.4142" d="      M450.483,530.964c0.977,0.188,1.947-0.465,2.135-1.441c0.191-0.976-0.463-1.945-1.441-2.135c-0.976-0.19-1.943,0.464-2.134,1.44      C448.852,529.804,449.506,530.774,450.483,530.964L450.483,530.964z"/>
<path xmlns="http://www.w3.org/2000/svg" xmlns:ns1="http://ns.adobe.com/AdobeIllustrator/10.0/" ns1:knockout="Off" fill-rule="evenodd" clip-rule="evenodd" fill="none" stroke="#000000" stroke-width="0.504" stroke-miterlimit="2.4142" d="      M447.822,544.645c0.977,0.189,1.947-0.465,2.139-1.44c0.188-0.976-0.467-1.945-1.443-2.136c-0.975-0.189-1.945,0.464-2.135,1.44      C446.193,543.484,446.848,544.455,447.822,544.645L447.822,544.645z"/>
<path xmlns="http://www.w3.org/2000/svg" xmlns:ns1="http://ns.adobe.com/AdobeIllustrator/10.0/" ns1:knockout="Off" fill-rule="evenodd" clip-rule="evenodd" fill="none" stroke="#000000" stroke-width="0.504" stroke-miterlimit="2.4142" d="      M445.161,558.325c0.979,0.191,1.95-0.463,2.139-1.438c0.19-0.976-0.467-1.946-1.442-2.137c-0.976-0.188-1.942,0.465-2.134,1.44      C443.532,557.167,444.189,558.138,445.161,558.325L445.161,558.325z"/>
<path xmlns="http://www.w3.org/2000/svg" xmlns:ns1="http://ns.adobe.com/AdobeIllustrator/10.0/" ns1:knockout="Off" fill-rule="evenodd" clip-rule="evenodd" fill="none" stroke="#000000" stroke-width="0.504" stroke-miterlimit="2.4142" d="      M442.505,572.006c0.976,0.192,1.946-0.462,2.135-1.438c0.191-0.976-0.463-1.946-1.441-2.137      c-0.976-0.188-1.942,0.465-2.134,1.441C440.875,570.848,441.53,571.817,442.505,572.006L442.505,572.006z"/>
</g>
</switch>
</svg>