<?xml version="1.0" encoding="UTF-8" standalone="no"?>
<!-- Generator: Adobe Illustrator 15.1.0, SVG Export Plug-In . SVG Version: 6.00 Build 0)  -->

<svg
   xmlns:dc="http://purl.org/dc/elements/1.1/"
   xmlns:cc="http://creativecommons.org/ns#"
   xmlns:rdf="http://www.w3.org/1999/02/22-rdf-syntax-ns#"
   xmlns:svg="http://www.w3.org/2000/svg"
   xmlns="http://www.w3.org/2000/svg"
   xmlns:sodipodi="http://sodipodi.sourceforge.net/DTD/sodipodi-0.dtd"
   xmlns:inkscape="http://www.inkscape.org/namespaces/inkscape"
   version="1.0"
   id="Layer_1"
   x="0px"
   y="0px"
   width="612px"
   height="792px"
   viewBox="0 0 612 792"
   enable-background="new 0 0 612 792"
   xml:space="preserve"
   inkscape:version="0.48.4 r9939"
   sodipodi:docname="Squad1_1_12.svg"><metadata
   id="metadata3726"><rdf:RDF><cc:Work
       rdf:about=""><dc:format>image/svg+xml</dc:format><dc:type
         rdf:resource="http://purl.org/dc/dcmitype/StillImage" /></cc:Work></rdf:RDF></metadata><defs
   id="defs3724" /><sodipodi:namedview
   pagecolor="#ffffff"
   bordercolor="#666666"
   borderopacity="1"
   objecttolerance="10"
   gridtolerance="10"
   guidetolerance="10"
   inkscape:pageopacity="0"
   inkscape:pageshadow="2"
   inkscape:window-width="640"
   inkscape:window-height="480"
   id="namedview3722"
   showgrid="false"
   inkscape:zoom="1.6856283"
   inkscape:cx="306"
   inkscape:cy="648.88741"
   inkscape:window-x="0"
   inkscape:window-y="0"
   inkscape:window-maximized="0"
   inkscape:current-layer="Layer_1" />



<path
   fill="none"
   stroke="#000000"
   stroke-width="0.5057"
   d="M265.196,100.393c0,1.445-1.172,2.619-2.62,2.619  c-1.447,0-2.618-1.173-2.618-2.619c0-1.446,1.171-2.618,2.618-2.618C264.023,97.775,265.196,98.947,265.196,100.393"
   id="path3632" />



<path
   fill="none"
   stroke="#000000"
   stroke-width="0.5057"
   d="M272.196,100.393c0,1.445-1.172,2.619-2.62,2.619  c-1.447,0-2.618-1.173-2.618-2.619c0-1.446,1.171-2.618,2.618-2.618C271.023,97.775,272.196,98.947,272.196,100.393"
   id="path3640" />



<path
   fill="none"
   stroke="#000000"
   stroke-width="0.5057"
   d="M279.196,100.393c0,1.445-1.172,2.619-2.62,2.619  c-1.447,0-2.618-1.173-2.618-2.619c0-1.446,1.171-2.618,2.618-2.618C278.023,97.775,279.196,98.947,279.196,100.393"
   id="path3648" />



<path
   fill="none"
   stroke="#000000"
   stroke-width="0.5057"
   d="M286.196,100.393c0,1.445-1.172,2.619-2.62,2.619  c-1.447,0-2.618-1.173-2.618-2.619c0-1.446,1.171-2.618,2.618-2.618C285.023,97.775,286.196,98.947,286.196,100.393"
   id="path3656" />



<path
   fill="none"
   stroke="#000000"
   stroke-width="0.5057"
   d="M293.196,100.393c0,1.445-1.172,2.619-2.62,2.619  c-1.447,0-2.618-1.173-2.618-2.619c0-1.446,1.171-2.618,2.618-2.618C292.023,97.775,293.196,98.947,293.196,100.393"
   id="path3664" />



<path
   fill="none"
   stroke="#000000"
   stroke-width="0.5057"
   d="M300.196,100.393c0,1.445-1.172,2.619-2.62,2.619  c-1.447,0-2.618-1.173-2.618-2.619c0-1.446,1.171-2.618,2.618-2.618C299.023,97.775,300.196,98.947,300.196,100.393"
   id="path3672" />



<path
   fill="none"
   stroke="#000000"
   stroke-width="0.5057"
   d="M307.195,100.393c0,1.445-1.172,2.619-2.619,2.619  c-1.447,0-2.618-1.173-2.618-2.619c0-1.446,1.171-2.618,2.618-2.618C306.023,97.775,307.195,98.947,307.195,100.393"
   id="path3680" />



<path
   fill="none"
   stroke="#000000"
   stroke-width="0.5057"
   d="M314.195,100.393c0,1.445-1.172,2.619-2.619,2.619  s-2.618-1.173-2.618-2.619c0-1.446,1.171-2.618,2.618-2.618S314.195,98.947,314.195,100.393"
   id="path3688" />



<path
   fill="none"
   stroke="#000000"
   stroke-width="0.5057"
   d="M321.195,100.393c0,1.445-1.172,2.619-2.619,2.619  s-2.618-1.173-2.618-2.619c0-1.446,1.171-2.618,2.618-2.618S321.195,98.947,321.195,100.393"
   id="path3696" />



<path
   fill="none"
   stroke="#000000"
   stroke-width="0.5057"
   d="M328.195,100.393c0,1.445-1.172,2.619-2.619,2.619  s-2.618-1.173-2.618-2.619c0-1.446,1.171-2.618,2.618-2.618S328.195,98.947,328.195,100.393"
   id="path3704" />



<path
   fill="none"
   stroke="#000000"
   stroke-width="0.5057"
   d="M335.195,100.393c0,1.445-1.172,2.619-2.619,2.619  s-2.618-1.173-2.618-2.619c0-1.446,1.171-2.618,2.618-2.618S335.195,98.947,335.195,100.393"
   id="path3712" />



<path
   fill="none"
   stroke="#000000"
   stroke-width="0.5057"
   d="M342.195,100.393c0,1.445-1.172,2.619-2.619,2.619  s-2.618-1.173-2.618-2.619c0-1.446,1.171-2.618,2.618-2.618S342.195,98.947,342.195,100.393"
   id="path3720" />
</svg>