<?xml version="1.0" encoding="UTF-8" standalone="no"?>
<!-- Generator: Adobe Illustrator 15.1.0, SVG Export Plug-In . SVG Version: 6.00 Build 0)  -->

<svg
   xmlns:dc="http://purl.org/dc/elements/1.1/"
   xmlns:cc="http://creativecommons.org/ns#"
   xmlns:rdf="http://www.w3.org/1999/02/22-rdf-syntax-ns#"
   xmlns:svg="http://www.w3.org/2000/svg"
   xmlns="http://www.w3.org/2000/svg"
   xmlns:sodipodi="http://sodipodi.sourceforge.net/DTD/sodipodi-0.dtd"
   xmlns:inkscape="http://www.inkscape.org/namespaces/inkscape"
   version="1.0"
   id="Layer_1"
   x="0px"
   y="0px"
   width="612px"
   height="792px"
   viewBox="0 0 612 792"
   enable-background="new 0 0 612 792"
   xml:space="preserve"
   inkscape:version="0.48.4 r9939"
   sodipodi:docname="Squad2_1_18.svg"><metadata
   id="metadata6813"><rdf:RDF><cc:Work
       rdf:about=""><dc:format>image/svg+xml</dc:format><dc:type
         rdf:resource="http://purl.org/dc/dcmitype/StillImage" /></cc:Work></rdf:RDF></metadata><defs
   id="defs6811" /><sodipodi:namedview
   pagecolor="#ffffff"
   bordercolor="#666666"
   borderopacity="1"
   objecttolerance="10"
   gridtolerance="10"
   guidetolerance="10"
   inkscape:pageopacity="0"
   inkscape:pageshadow="2"
   inkscape:window-width="640"
   inkscape:window-height="480"
   id="namedview6809"
   showgrid="false"
   inkscape:zoom="0.84281414"
   inkscape:cx="306"
   inkscape:cy="443.46005"
   inkscape:window-x="0"
   inkscape:window-y="0"
   inkscape:window-maximized="0"
   inkscape:current-layer="Layer_1" />



<path
   fill="none"
   stroke="#000000"
   stroke-width="0.5057"
   d="M265.196,235.428c0,1.444-1.172,2.618-2.62,2.618  c-1.447,0-2.618-1.174-2.618-2.618c0-1.448,1.171-2.619,2.618-2.619C264.023,232.809,265.196,233.98,265.196,235.428"
   id="path6671" />



<path
   fill="none"
   stroke="#000000"
   stroke-width="0.5057"
   d="M272.196,235.428c0,1.444-1.172,2.618-2.62,2.618  c-1.447,0-2.618-1.174-2.618-2.618c0-1.448,1.171-2.619,2.618-2.619C271.023,232.809,272.196,233.98,272.196,235.428"
   id="path6679" />



<path
   fill="none"
   stroke="#000000"
   stroke-width="0.5057"
   d="M279.196,235.428c0,1.444-1.172,2.618-2.62,2.618  c-1.447,0-2.618-1.174-2.618-2.618c0-1.448,1.171-2.619,2.618-2.619C278.023,232.809,279.196,233.98,279.196,235.428"
   id="path6687" />



<path
   fill="none"
   stroke="#000000"
   stroke-width="0.5057"
   d="M286.196,235.428c0,1.444-1.172,2.618-2.62,2.618  c-1.447,0-2.618-1.174-2.618-2.618c0-1.448,1.171-2.619,2.618-2.619C285.023,232.809,286.196,233.98,286.196,235.428"
   id="path6695" />



<path
   fill="none"
   stroke="#000000"
   stroke-width="0.5057"
   d="M293.196,235.428c0,1.444-1.172,2.618-2.62,2.618  c-1.447,0-2.618-1.174-2.618-2.618c0-1.448,1.171-2.619,2.618-2.619C292.023,232.809,293.196,233.98,293.196,235.428"
   id="path6703" />



<path
   fill="none"
   stroke="#000000"
   stroke-width="0.5057"
   d="M300.196,235.428c0,1.444-1.172,2.618-2.62,2.618  c-1.447,0-2.618-1.174-2.618-2.618c0-1.448,1.171-2.619,2.618-2.619C299.023,232.809,300.196,233.98,300.196,235.428"
   id="path6711" />



<path
   fill="none"
   stroke="#000000"
   stroke-width="0.5057"
   d="M307.195,235.428c0,1.444-1.172,2.618-2.619,2.618  c-1.447,0-2.618-1.174-2.618-2.618c0-1.448,1.171-2.619,2.618-2.619C306.023,232.809,307.195,233.98,307.195,235.428"
   id="path6719" />



<path
   fill="none"
   stroke="#000000"
   stroke-width="0.5057"
   d="M314.195,235.428c0,1.444-1.172,2.618-2.619,2.618  s-2.618-1.174-2.618-2.618c0-1.448,1.171-2.619,2.618-2.619S314.195,233.98,314.195,235.428"
   id="path6727" />



<path
   fill="none"
   stroke="#000000"
   stroke-width="0.5057"
   d="M321.195,235.428c0,1.444-1.172,2.618-2.619,2.618  s-2.618-1.174-2.618-2.618c0-1.448,1.171-2.619,2.618-2.619S321.195,233.98,321.195,235.428"
   id="path6735" />



<path
   fill="none"
   stroke="#000000"
   stroke-width="0.5057"
   d="M328.195,235.428c0,1.444-1.172,2.618-2.619,2.618  s-2.618-1.174-2.618-2.618c0-1.448,1.171-2.619,2.618-2.619S328.195,233.98,328.195,235.428"
   id="path6743" />



<path
   fill="none"
   stroke="#000000"
   stroke-width="0.5057"
   d="M335.195,235.428c0,1.444-1.172,2.618-2.619,2.618  s-2.618-1.174-2.618-2.618c0-1.448,1.171-2.619,2.618-2.619S335.195,233.98,335.195,235.428"
   id="path6751" />



<path
   fill="none"
   stroke="#000000"
   stroke-width="0.5057"
   d="M342.195,235.428c0,1.444-1.172,2.618-2.619,2.618  s-2.618-1.174-2.618-2.618c0-1.448,1.171-2.619,2.618-2.619S342.195,233.98,342.195,235.428"
   id="path6759" />



<path
   fill="none"
   stroke="#000000"
   stroke-width="0.5057"
   d="M349.195,235.428c0,1.444-1.172,2.618-2.619,2.618  s-2.618-1.174-2.618-2.618c0-1.448,1.171-2.619,2.618-2.619S349.195,233.98,349.195,235.428"
   id="path6767" />



<path
   fill="none"
   stroke="#000000"
   stroke-width="0.5057"
   d="M356.195,235.428c0,1.444-1.172,2.618-2.619,2.618  s-2.618-1.174-2.618-2.618c0-1.448,1.171-2.619,2.618-2.619S356.195,233.98,356.195,235.428"
   id="path6775" />



<path
   fill="none"
   stroke="#000000"
   stroke-width="0.5057"
   d="M363.195,235.428c0,1.444-1.172,2.618-2.619,2.618  s-2.618-1.174-2.618-2.618c0-1.448,1.171-2.619,2.618-2.619S363.195,233.98,363.195,235.428"
   id="path6783" />



<path
   fill="none"
   stroke="#000000"
   stroke-width="0.5057"
   d="M370.195,235.428c0,1.444-1.172,2.618-2.619,2.618  s-2.618-1.174-2.618-2.618c0-1.448,1.171-2.619,2.618-2.619S370.195,233.98,370.195,235.428"
   id="path6791" />



<path
   fill="none"
   stroke="#000000"
   stroke-width="0.5057"
   d="M377.195,235.428c0,1.444-1.172,2.618-2.619,2.618  s-2.618-1.174-2.618-2.618c0-1.448,1.171-2.619,2.618-2.619S377.195,233.98,377.195,235.428"
   id="path6799" />



<path
   fill="none"
   stroke="#000000"
   stroke-width="0.5057"
   d="M384.195,235.428c0,1.444-1.172,2.618-2.619,2.618  s-2.618-1.174-2.618-2.618c0-1.448,1.171-2.619,2.618-2.619S384.195,233.98,384.195,235.428"
   id="path6807" />
</svg>