<?xml version="1.0" encoding="utf-8"?>
<!-- Generator: Adobe Illustrator 15.1.0, SVG Export Plug-In . SVG Version: 6.00 Build 0)  -->
<!DOCTYPE svg PUBLIC "-//W3C//DTD SVG 1.0//EN" "http://www.w3.org/TR/2001/REC-SVG-20010904/DTD/svg10.dtd">
<svg version="1.0" id="Layer_1" xmlns="http://www.w3.org/2000/svg" xmlns:xlink="http://www.w3.org/1999/xlink" x="0px" y="0px"
	 width="612px" height="792px" viewBox="0 0 612 792" enable-background="new 0 0 612 792" xml:space="preserve">
<path fill="none" stroke="#000000" stroke-width="0.5057" d="M265.196,290.047c0,1.446-1.172,2.619-2.62,2.619
	c-1.447,0-2.618-1.172-2.618-2.619s1.171-2.619,2.618-2.619C264.023,287.428,265.196,288.601,265.196,290.047"/>
<path fill="none" stroke="#000000" stroke-width="0.5057" d="M265.196,271.841c0,1.446-1.172,2.62-2.62,2.62
	c-1.447,0-2.618-1.173-2.618-2.62c0-1.446,1.171-2.619,2.618-2.619C264.023,269.222,265.196,270.395,265.196,271.841"/>
<path fill="none" stroke="#000000" stroke-width="0.5057" d="M265.196,253.634c0,1.445-1.172,2.619-2.62,2.619
	c-1.447,0-2.618-1.173-2.618-2.619c0-1.447,1.171-2.62,2.618-2.62C264.023,251.014,265.196,252.187,265.196,253.634"/>
<path fill="none" stroke="#000000" stroke-width="0.5057" d="M265.196,235.428c0,1.444-1.172,2.618-2.62,2.618
	c-1.447,0-2.618-1.174-2.618-2.618c0-1.448,1.171-2.619,2.618-2.619C264.023,232.809,265.196,233.98,265.196,235.428"/>
<path fill="none" stroke="#000000" stroke-width="0.5057" d="M272.196,290.047c0,1.446-1.172,2.619-2.62,2.619
	c-1.447,0-2.618-1.172-2.618-2.619s1.171-2.619,2.618-2.619C271.023,287.428,272.196,288.601,272.196,290.047"/>
<path fill="none" stroke="#000000" stroke-width="0.5057" d="M272.196,271.841c0,1.446-1.172,2.62-2.62,2.62
	c-1.447,0-2.618-1.173-2.618-2.62c0-1.446,1.171-2.619,2.618-2.619C271.023,269.222,272.196,270.395,272.196,271.841"/>
<path fill="none" stroke="#000000" stroke-width="0.5057" d="M272.196,253.634c0,1.445-1.172,2.619-2.62,2.619
	c-1.447,0-2.618-1.173-2.618-2.619c0-1.447,1.171-2.62,2.618-2.62C271.023,251.014,272.196,252.187,272.196,253.634"/>
<path fill="none" stroke="#000000" stroke-width="0.5057" d="M272.196,235.428c0,1.444-1.172,2.618-2.62,2.618
	c-1.447,0-2.618-1.174-2.618-2.618c0-1.448,1.171-2.619,2.618-2.619C271.023,232.809,272.196,233.98,272.196,235.428"/>
<path fill="none" stroke="#000000" stroke-width="0.5057" d="M279.196,290.047c0,1.446-1.172,2.619-2.62,2.619
	c-1.447,0-2.618-1.172-2.618-2.619s1.171-2.619,2.618-2.619C278.023,287.428,279.196,288.601,279.196,290.047"/>
<path fill="none" stroke="#000000" stroke-width="0.5057" d="M279.196,271.841c0,1.446-1.172,2.62-2.62,2.62
	c-1.447,0-2.618-1.173-2.618-2.62c0-1.446,1.171-2.619,2.618-2.619C278.023,269.222,279.196,270.395,279.196,271.841"/>
<path fill="none" stroke="#000000" stroke-width="0.5057" d="M279.196,253.634c0,1.445-1.172,2.619-2.62,2.619
	c-1.447,0-2.618-1.173-2.618-2.619c0-1.447,1.171-2.62,2.618-2.62C278.023,251.014,279.196,252.187,279.196,253.634"/>
<path fill="none" stroke="#000000" stroke-width="0.5057" d="M279.196,235.428c0,1.444-1.172,2.618-2.62,2.618
	c-1.447,0-2.618-1.174-2.618-2.618c0-1.448,1.171-2.619,2.618-2.619C278.023,232.809,279.196,233.98,279.196,235.428"/>
</svg>
