<?xml version="1.0" encoding="UTF-8" standalone="no"?>
<!-- Generator: Adobe Illustrator 15.1.0, SVG Export Plug-In . SVG Version: 6.00 Build 0)  -->

<svg
   xmlns:dc="http://purl.org/dc/elements/1.1/"
   xmlns:cc="http://creativecommons.org/ns#"
   xmlns:rdf="http://www.w3.org/1999/02/22-rdf-syntax-ns#"
   xmlns:svg="http://www.w3.org/2000/svg"
   xmlns="http://www.w3.org/2000/svg"
   xmlns:sodipodi="http://sodipodi.sourceforge.net/DTD/sodipodi-0.dtd"
   xmlns:inkscape="http://www.inkscape.org/namespaces/inkscape"
   version="1.0"
   id="Layer_1"
   x="0px"
   y="0px"
   width="612px"
   height="792px"
   viewBox="0 0 612 792"
   enable-background="new 0 0 612 792"
   xml:space="preserve"
   inkscape:version="0.48.2 r9819"
   sodipodi:docname="Squad3_5.svg"><metadata
   id="metadata9903"><rdf:RDF><cc:Work
       rdf:about=""><dc:format>image/svg+xml</dc:format><dc:type
         rdf:resource="http://purl.org/dc/dcmitype/StillImage" /></cc:Work></rdf:RDF></metadata><defs
   id="defs9901" /><sodipodi:namedview
   pagecolor="#ffffff"
   bordercolor="#666666"
   borderopacity="1"
   objecttolerance="10"
   gridtolerance="10"
   guidetolerance="10"
   inkscape:pageopacity="0"
   inkscape:pageshadow="2"
   inkscape:window-width="1618"
   inkscape:window-height="1028"
   id="namedview9899"
   showgrid="false"
   inkscape:zoom="1.6856283"
   inkscape:cx="97.096847"
   inkscape:cy="285.01946"
   inkscape:window-x="-8"
   inkscape:window-y="-8"
   inkscape:window-maximized="1"
   inkscape:current-layer="Layer_1" />
<polyline
   fill="#C6C8CA"
   points="391.341,488.407 232.43,488.407 226.698,479.806 35.767,479.806 30.034,471.204 30.034,361.437   35.767,352.835 224.419,352.835 230.153,361.437 389.906,361.437 397.073,370.037 397.073,479.806 "
   id="polyline9477" />
<line
   fill="#C6C8CA"
   x1="397.073"
   y1="479.806"
   x2="391.341"
   y2="488.407"
   id="line9479" />
<polyline
   fill="#FFFFFF"
   points="392.772,475.505 387.04,484.106 228.131,484.106 222.397,475.505 31.468,475.505 25.733,466.902   25.733,357.136 31.468,348.533 220.12,348.533 225.852,357.136 385.606,357.136 392.772,365.736 392.772,475.505 "
   id="polyline9481" />
<polygon
   fill="none"
   stroke="#000000"
   stroke-width="2.0228"
   stroke-linecap="round"
   stroke-miterlimit="10"
   points="  392.772,475.507 387.039,484.107 228.13,484.107 222.397,475.507 31.468,475.507 25.733,466.904 25.733,357.138 31.468,348.537   220.12,348.537 225.852,357.138 385.606,357.138 392.772,365.739 "
   id="polygon9483" />
<polyline
   points="218.699,367.17 32.614,367.17 27.167,358.997 32.601,350.826 218.686,350.826 224.132,358.997 218.699,367.17 "
   id="polyline9485" />
<polygon
   fill="none"
   stroke="#FFFFFF"
   stroke-width="1.0114"
   stroke-linejoin="round"
   points="218.698,367.171 32.614,367.171   27.168,358.999 32.601,350.829 218.686,350.829 224.132,358.999 "
   id="polygon9487" />
<polyline
   points="36.642,373.167 36.642,377.644 35.621,377.644 35.621,373.167 34.067,373.167 34.067,372.251 38.25,372.251   38.25,373.167 36.642,373.167 "
   id="polyline9489" />
<path
   d="M41.844,373.867l-0.99,4.015c-0.138,0.569-0.312,0.95-0.519,1.147c-0.205,0.196-0.536,0.295-0.992,0.295  c-0.103,0-0.209-0.004-0.319-0.016v-0.668c0.079,0.004,0.144,0.008,0.197,0.008c0.383,0,0.627-0.334,0.73-1.004H39.49l-1.234-3.777  h0.97l0.473,1.6l0.236,0.802c0.012,0.052,0.049,0.186,0.11,0.403l0.114,0.399h0.02l0.083-0.399c0.042-0.206,0.069-0.34,0.083-0.403  l0.185-0.802l0.363-1.6H41.844"
   id="path9491" />
<path
   d="M44.032,374.535c-0.343,0-0.568,0.077-0.674,0.233c-0.104,0.154-0.158,0.484-0.158,0.988c0,0.49,0.055,0.814,0.169,0.976  c0.112,0.16,0.343,0.241,0.69,0.241c0.351,0,0.579-0.075,0.686-0.229c0.104-0.152,0.158-0.48,0.158-0.983c0-0.516-0.054-0.85-0.16-1  C44.637,374.61,44.401,374.535,44.032,374.535 M42.254,373.867h0.918l-0.035,0.561l0.02,0.004c0.217-0.407,0.623-0.612,1.218-0.612  c0.548,0,0.927,0.136,1.134,0.409c0.205,0.272,0.309,0.769,0.309,1.491c0,0.753-0.102,1.269-0.307,1.549  c-0.205,0.279-0.584,0.419-1.14,0.419c-0.591,0-0.978-0.198-1.159-0.592h-0.016v2.169h-0.942V373.867"
   id="path9493" />
<path
   d="M49.011,375.365l-0.004-0.151c0-0.3-0.051-0.494-0.156-0.584c-0.103-0.089-0.329-0.134-0.676-0.134  c-0.335,0-0.554,0.053-0.657,0.162c-0.1,0.107-0.152,0.344-0.152,0.708H49.011 M49.002,376.435h0.907v0.146  c0,0.737-0.552,1.106-1.656,1.106c-0.75,0-1.239-0.126-1.471-0.383c-0.23-0.254-0.347-0.796-0.347-1.624  c0-0.734,0.12-1.229,0.363-1.481c0.24-0.253,0.713-0.379,1.416-0.379c0.672,0,1.124,0.123,1.352,0.37  c0.229,0.245,0.343,0.729,0.343,1.452v0.277h-2.551c-0.004,0.083-0.008,0.138-0.008,0.166c0,0.371,0.057,0.619,0.171,0.743  c0.114,0.122,0.341,0.186,0.684,0.186c0.332,0,0.546-0.036,0.646-0.109C48.951,376.832,49.002,376.676,49.002,376.435"
   id="path9495" />
<path
   d="M51.523,373.867v0.972h-0.903v-0.972H51.523 M51.523,376.672v0.972h-0.903v-0.972H51.523"
   id="path9497" />




<path
   d="M36.728,386.606h2.369l0.016,1.071c0,0.778-0.146,1.282-0.44,1.507c-0.292,0.225-0.946,0.338-1.961,0.338  c-0.931,0-1.546-0.15-1.849-0.451c-0.302-0.3-0.454-0.913-0.454-1.837c0-1.18,0.059-1.924,0.181-2.237  c0.15-0.379,0.377-0.634,0.683-0.766c0.304-0.13,0.822-0.198,1.553-0.198c0.956,0,1.573,0.101,1.853,0.306  c0.278,0.204,0.418,0.656,0.418,1.357h-1.033c-0.018-0.352-0.095-0.571-0.231-0.658c-0.134-0.085-0.475-0.129-1.019-0.129  c-0.591,0-0.966,0.073-1.125,0.222c-0.158,0.146-0.239,0.494-0.239,1.039l-0.004,0.541l0.008,0.692c0,0.533,0.079,0.875,0.237,1.021  c0.158,0.146,0.522,0.22,1.096,0.22c0.556,0,0.911-0.062,1.063-0.186c0.15-0.123,0.227-0.415,0.227-0.878l0.004-0.221h-1.352  V386.606"
   id="path9507" />
<path
   d="M43.146,385.698v3.777h-0.903l0.051-0.648l-0.016-0.004c-0.176,0.462-0.58,0.695-1.215,0.695  c-0.854,0-1.281-0.427-1.281-1.284v-2.537h0.903v2.319c0,0.32,0.043,0.531,0.134,0.634c0.088,0.101,0.274,0.152,0.556,0.152  c0.578,0,0.868-0.348,0.868-1.043v-2.063H43.146"
   id="path9509" />
<path
   d="M44.063,385.698h0.895l-0.036,0.636l0.02,0.004c0.175-0.455,0.57-0.684,1.183-0.684c0.891,0,1.336,0.415,1.336,1.249v2.572  h-0.903v-2.418l-0.02-0.265c-0.041-0.28-0.262-0.422-0.662-0.422c-0.607,0-0.911,0.288-0.911,0.865v2.24h-0.903V385.698"
   id="path9511" />
<path
   d="M48.342,385.698h0.895l-0.036,0.636l0.02,0.004c0.175-0.455,0.57-0.684,1.183-0.684c0.891,0,1.336,0.415,1.336,1.249v2.572  h-0.903v-2.418l-0.02-0.265c-0.041-0.28-0.262-0.422-0.662-0.422c-0.607,0-0.911,0.288-0.911,0.865v2.24h-0.903V385.698"
   id="path9513" />
<path
   d="M55.059,387.195l-0.004-0.15c0-0.3-0.051-0.494-0.156-0.585c-0.103-0.089-0.329-0.134-0.676-0.134  c-0.335,0-0.554,0.053-0.657,0.162c-0.1,0.107-0.152,0.344-0.152,0.708H55.059 M55.051,388.266h0.907v0.146  c0,0.737-0.552,1.106-1.656,1.106c-0.749,0-1.238-0.126-1.471-0.383c-0.23-0.255-0.347-0.796-0.347-1.624  c0-0.735,0.12-1.229,0.362-1.481c0.241-0.253,0.714-0.379,1.416-0.379c0.672,0,1.124,0.122,1.352,0.37  c0.229,0.245,0.343,0.729,0.343,1.452v0.276h-2.551c-0.004,0.083-0.008,0.139-0.008,0.167c0,0.371,0.057,0.618,0.171,0.743  c0.114,0.123,0.341,0.186,0.684,0.186c0.332,0,0.546-0.036,0.646-0.109C55,388.663,55.051,388.507,55.051,388.266"
   id="path9515" />
<path
   d="M56.731,385.698h0.903l-0.055,0.529l0.02,0.004c0.215-0.395,0.554-0.592,1.018-0.592c0.662,0,0.994,0.419,0.994,1.256v0.265  h-0.852c0.01-0.103,0.016-0.17,0.016-0.201c0-0.403-0.155-0.605-0.469-0.605c-0.445,0-0.67,0.298-0.67,0.897v2.225h-0.903V385.698"
   id="path9517" />
<path
   d="M63.21,385.698l-0.989,4.014c-0.138,0.569-0.312,0.95-0.519,1.148c-0.205,0.196-0.536,0.294-0.992,0.294  c-0.103,0-0.209-0.004-0.32-0.016v-0.667c0.08,0.004,0.145,0.008,0.197,0.008c0.383,0,0.627-0.333,0.729-1.003h-0.461l-1.234-3.777  h0.97l0.473,1.6l0.236,0.802c0.012,0.051,0.049,0.186,0.11,0.403l0.114,0.399h0.02l0.083-0.399c0.042-0.206,0.069-0.34,0.083-0.403  l0.185-0.802l0.363-1.6H63.21"
   id="path9519" />
<path
   d="M69.661,385.654h-0.998c-0.004-0.049-0.008-0.087-0.008-0.111c-0.024-0.302-0.091-0.492-0.201-0.571  c-0.11-0.077-0.371-0.117-0.781-0.117c-0.483,0-0.798,0.043-0.948,0.135c-0.147,0.089-0.223,0.276-0.223,0.565  c0,0.34,0.059,0.543,0.181,0.612c0.12,0.067,0.521,0.121,1.199,0.158c0.801,0.043,1.319,0.158,1.555,0.344  c0.235,0.184,0.353,0.567,0.353,1.149c0,0.715-0.138,1.18-0.414,1.389c-0.275,0.21-0.883,0.314-1.825,0.314  c-0.846,0-1.408-0.103-1.686-0.308c-0.276-0.206-0.417-0.621-0.417-1.249l-0.003-0.198h0.994l0.003,0.115  c0,0.375,0.065,0.606,0.197,0.691c0.13,0.083,0.489,0.126,1.077,0.126c0.458,0,0.749-0.047,0.875-0.146  c0.126-0.097,0.189-0.322,0.189-0.675c0-0.261-0.047-0.433-0.144-0.52c-0.095-0.085-0.302-0.136-0.621-0.156l-0.564-0.036  c-0.852-0.049-1.396-0.168-1.632-0.355c-0.236-0.186-0.355-0.589-0.355-1.205c0-0.628,0.142-1.049,0.428-1.259  c0.284-0.209,0.854-0.314,1.709-0.314c0.808,0,1.354,0.095,1.636,0.289c0.28,0.191,0.422,0.567,0.422,1.126V385.654"
   id="path9521" />
<polyline
   points="71.379,384.082 71.379,387.167 71.612,387.167 72.628,385.698 73.677,385.698 72.365,387.476 73.945,389.475   72.826,389.475 71.6,387.8 71.379,387.8 71.379,389.475 70.476,389.475 70.476,384.082 71.379,384.082 "
   id="polyline9523" />
<path
   d="M75.254,385.698v3.777h-0.903v-3.777H75.254 M75.254,384.082v0.755h-0.903v-0.755H75.254"
   id="path9525" />
<rect
   x="76.145"
   y="384.082"
   width="0.903"
   height="5.394"
   id="rect9527" />
<rect
   x="77.937"
   y="384.082"
   width="0.903"
   height="5.394"
   id="rect9529" />
<path
   d="M80.593,385.698v0.972H79.69v-0.972H80.593 M80.593,388.503v0.972H79.69v-0.972H80.593"
   id="path9531" />
<line
   fill="none"
   stroke="#000000"
   stroke-width="1.0114"
   stroke-miterlimit="10"
   x1="83.226"
   y1="390.907"
   x2="101.86"
   y2="390.907"
   id="line9533" />
<path
   d="M145.847,387.683l-0.93-2.81l-0.915,2.81H145.847 M146.084,388.437h-2.323l-0.335,1.035h-1.08l1.79-5.394h1.534l1.817,5.394  h-1.06L146.084,388.437"
   id="path9535" />
<path
   d="M147.927,385.695h0.895l-0.036,0.636l0.02,0.004c0.175-0.455,0.569-0.684,1.183-0.684c0.891,0,1.336,0.415,1.336,1.249  v2.572h-0.903v-2.418l-0.02-0.265c-0.042-0.28-0.262-0.422-0.663-0.422c-0.607,0-0.911,0.288-0.911,0.865v2.24h-0.903V385.695"
   id="path9537" />
<path
   d="M154.64,385.695v0.688h-1.451v1.896c0,0.35,0.132,0.525,0.398,0.525c0.292,0,0.438-0.211,0.438-0.636v-0.15h0.769v0.19  c0,0.174-0.003,0.322-0.016,0.446c-0.049,0.577-0.477,0.865-1.285,0.865c-0.805,0-1.207-0.37-1.207-1.11v-2.027h-0.489v-0.688h0.489  v-0.846h0.903v0.846H154.64"
   id="path9539" />
<path
   d="M156.194,385.695v3.777h-0.903v-3.777H156.194 M156.194,384.079v0.755h-0.903v-0.755H156.194"
   id="path9541" />
<rect
   x="156.639"
   y="386.956"
   width="1.802"
   height="0.861"
   id="rect9543" />
<path
   d="M159.808,384.079v0.944c0,0.626-0.271,0.94-0.813,0.94c-0.028,0-0.083-0.002-0.166-0.008v-0.422  c0.288,0,0.434-0.121,0.434-0.364l-0.004-0.119h-0.355v-0.972H159.808"
   id="path9545" />
<path
   d="M167.014,384.079v5.394h-1.021v-2.939c0-0.233,0.006-0.5,0.02-0.798l0.02-0.403l0.02-0.399h-0.031l-0.123,0.375  l-0.118,0.375c-0.11,0.336-0.195,0.585-0.256,0.747l-1.183,3.042h-0.931l-1.195-3.019c-0.065-0.166-0.152-0.415-0.26-0.747  l-0.123-0.375l-0.123-0.372h-0.031l0.02,0.391l0.02,0.396c0.016,0.304,0.024,0.566,0.024,0.786v2.939h-1.021v-5.394h1.664  l0.962,2.498c0.065,0.173,0.152,0.422,0.26,0.747l0.118,0.375l0.123,0.371h0.035l0.114-0.371l0.119-0.372  c0.096-0.312,0.181-0.561,0.252-0.743l0.946-2.505H167.014"
   id="path9547" />
<path
   d="M170.366,387.192l-0.004-0.15c0-0.3-0.051-0.494-0.156-0.585c-0.103-0.088-0.329-0.134-0.676-0.134  c-0.335,0-0.554,0.053-0.657,0.162c-0.101,0.106-0.152,0.344-0.152,0.707H170.366 M170.357,388.263h0.907v0.146  c0,0.737-0.552,1.106-1.656,1.106c-0.75,0-1.238-0.126-1.471-0.383c-0.23-0.255-0.347-0.796-0.347-1.624  c0-0.735,0.12-1.229,0.363-1.481c0.241-0.253,0.714-0.379,1.416-0.379c0.672,0,1.124,0.122,1.353,0.37  c0.229,0.245,0.343,0.729,0.343,1.452v0.276h-2.551c-0.004,0.083-0.008,0.139-0.008,0.167c0,0.371,0.057,0.618,0.171,0.743  c0.114,0.123,0.341,0.186,0.684,0.186c0.332,0,0.546-0.036,0.646-0.108C170.306,388.66,170.357,388.504,170.357,388.263"
   id="path9549" />
<path
   d="M174.416,388.03h0.899v0.13l-0.055,0.573c-0.11,0.521-0.648,0.782-1.617,0.782c-0.709,0-1.181-0.128-1.415-0.385  c-0.233-0.257-0.351-0.772-0.351-1.551c0-0.759,0.116-1.269,0.351-1.533c0.232-0.263,0.688-0.395,1.364-0.395  c0.651,0,1.092,0.095,1.325,0.287c0.23,0.189,0.347,0.553,0.347,1.088h-0.895c0-0.438-0.252-0.66-0.761-0.66  c-0.358,0-0.585,0.069-0.678,0.209c-0.09,0.138-0.138,0.481-0.138,1.027c0,0.525,0.049,0.857,0.152,0.993  c0.101,0.135,0.349,0.204,0.743,0.204c0.31,0,0.509-0.045,0.597-0.14C174.37,388.567,174.416,388.358,174.416,388.03"
   id="path9551" />
<path
   d="M176.882,384.079v2.241l0.02,0.004c0.167-0.447,0.554-0.672,1.159-0.672c0.879,0,1.321,0.417,1.321,1.252v2.568h-0.903  v-2.442c0-0.442-0.225-0.664-0.674-0.664c-0.615,0-0.923,0.32-0.923,0.96v2.146h-0.903v-5.394H176.882"
   id="path9553" />
<path
   d="M186.308,385.651h-0.998c-0.004-0.049-0.008-0.087-0.008-0.111c-0.023-0.302-0.091-0.492-0.201-0.571  c-0.11-0.077-0.371-0.117-0.781-0.117c-0.483,0-0.799,0.043-0.949,0.135c-0.147,0.089-0.223,0.276-0.223,0.565  c0,0.34,0.06,0.543,0.182,0.612c0.12,0.067,0.521,0.121,1.198,0.158c0.801,0.043,1.319,0.158,1.556,0.344  c0.234,0.184,0.353,0.567,0.353,1.149c0,0.715-0.138,1.18-0.414,1.389s-0.883,0.314-1.826,0.314c-0.846,0-1.407-0.103-1.686-0.308  c-0.276-0.206-0.416-0.621-0.416-1.249l-0.004-0.198h0.994l0.004,0.115c0,0.375,0.065,0.606,0.197,0.691  c0.13,0.083,0.489,0.126,1.076,0.126c0.458,0,0.75-0.047,0.875-0.146c0.126-0.097,0.189-0.322,0.189-0.675  c0-0.261-0.047-0.433-0.144-0.52c-0.095-0.085-0.302-0.136-0.621-0.156l-0.564-0.036c-0.852-0.049-1.396-0.167-1.632-0.355  c-0.237-0.186-0.355-0.588-0.355-1.205c0-0.628,0.143-1.049,0.428-1.258c0.284-0.209,0.854-0.314,1.709-0.314  c0.809,0,1.354,0.094,1.636,0.288c0.28,0.191,0.422,0.567,0.422,1.126V385.651"
   id="path9555" />
<polyline
   points="188.025,384.079 188.025,387.165 188.258,387.165 189.275,385.695 190.324,385.695 189.011,387.473   190.592,389.472 189.472,389.472 188.246,387.797 188.025,387.797 188.025,389.472 187.123,389.472 187.123,384.079   188.025,384.079 "
   id="polyline9557" />
<path
   d="M191.902,385.695v3.777h-0.903v-3.777H191.902 M191.902,384.079v0.755h-0.903v-0.755H191.902"
   id="path9559" />
<rect
   x="192.792"
   y="384.079"
   width="0.902"
   height="5.394"
   id="rect9561" />
<rect
   x="194.584"
   y="384.079"
   width="0.903"
   height="5.394"
   id="rect9563" />
<path
   d="M197.24,385.695v0.972h-0.903v-0.972H197.24 M197.24,388.5v0.972h-0.903V388.5H197.24"
   id="path9565" />
<line
   fill="none"
   stroke="#000000"
   stroke-width="1.0114"
   stroke-miterlimit="10"
   x1="198.805"
   y1="390.907"
   x2="217.439"
   y2="390.907"
   id="line9567" />



<path
   d="M36.611,398.435h2.37l0.016,1.071c0,0.778-0.146,1.282-0.439,1.507c-0.292,0.226-0.946,0.338-1.961,0.338  c-0.931,0-1.546-0.149-1.849-0.45c-0.302-0.3-0.454-0.913-0.454-1.837c0-1.18,0.059-1.925,0.181-2.237  c0.15-0.379,0.376-0.634,0.682-0.766c0.304-0.131,0.822-0.198,1.554-0.198c0.956,0,1.573,0.101,1.853,0.306  c0.278,0.203,0.418,0.656,0.418,1.357h-1.033c-0.018-0.353-0.094-0.571-0.23-0.658c-0.134-0.085-0.475-0.129-1.019-0.129  c-0.591,0-0.966,0.074-1.126,0.222c-0.158,0.146-0.238,0.494-0.238,1.039l-0.004,0.541l0.008,0.692c0,0.533,0.079,0.875,0.236,1.021  c0.158,0.146,0.522,0.22,1.096,0.22c0.556,0,0.911-0.062,1.063-0.186c0.149-0.123,0.227-0.415,0.227-0.877l0.004-0.222h-1.353  V398.435"
   id="path9575" />
<path
   d="M39.706,397.526h0.903l-0.055,0.529l0.02,0.004c0.215-0.395,0.554-0.593,1.018-0.593c0.662,0,0.994,0.419,0.994,1.257v0.265  h-0.852c0.01-0.103,0.016-0.17,0.016-0.201c0-0.403-0.155-0.605-0.469-0.605c-0.446,0-0.67,0.299-0.67,0.897v2.225h-0.903V397.526"
   id="path9577" />
<path
   d="M44.73,398.198c-0.375,0-0.615,0.067-0.718,0.203c-0.102,0.135-0.153,0.452-0.153,0.95c0,0.569,0.047,0.925,0.146,1.066  c0.097,0.143,0.339,0.214,0.729,0.214c0.375,0,0.613-0.075,0.712-0.226s0.148-0.51,0.148-1.082c0-0.482-0.051-0.79-0.154-0.925  C45.337,398.266,45.101,398.198,44.73,398.198 M44.738,397.482c0.728,0,1.204,0.117,1.431,0.35c0.225,0.233,0.339,0.726,0.339,1.477  c0,0.837-0.11,1.387-0.331,1.647s-0.686,0.391-1.396,0.391c-0.769,0-1.268-0.12-1.496-0.363c-0.227-0.241-0.341-0.774-0.341-1.601  c0-0.792,0.111-1.308,0.335-1.545C43.502,397.601,43.989,397.482,44.738,397.482"
   id="path9579" />
<path
   d="M50.604,397.526v3.777h-0.903l0.051-0.648l-0.016-0.004c-0.175,0.462-0.58,0.695-1.214,0.695  c-0.854,0-1.281-0.427-1.281-1.284v-2.536h0.903v2.319c0,0.319,0.043,0.531,0.134,0.634c0.089,0.101,0.274,0.152,0.556,0.152  c0.578,0,0.868-0.348,0.868-1.043v-2.063H50.604"
   id="path9581" />
<path
   d="M51.521,397.526h0.895l-0.036,0.636l0.02,0.004c0.175-0.454,0.569-0.684,1.183-0.684c0.891,0,1.336,0.415,1.336,1.249v2.572  h-0.903v-2.418l-0.02-0.266c-0.042-0.28-0.262-0.422-0.663-0.422c-0.607,0-0.911,0.288-0.911,0.865v2.24h-0.903V397.526"
   id="path9583" />
<path
   d="M57.385,398.198c-0.335,0-0.554,0.07-0.655,0.215c-0.098,0.143-0.15,0.452-0.15,0.927c0,0.547,0.05,0.9,0.15,1.059  c0.099,0.158,0.323,0.237,0.671,0.237c0.362,0,0.593-0.077,0.696-0.233c0.101-0.153,0.151-0.514,0.151-1.074  c0-0.463-0.055-0.767-0.167-0.913C57.971,398.271,57.738,398.198,57.385,398.198 M59.156,395.91v5.394h-0.879l0.032-0.608  l-0.016-0.005c-0.175,0.439-0.56,0.66-1.151,0.66c-0.595,0-0.991-0.136-1.185-0.409c-0.193-0.272-0.29-0.825-0.29-1.661  c0-0.674,0.103-1.142,0.312-1.404c0.207-0.261,0.576-0.394,1.108-0.394c0.615,0,0.998,0.193,1.151,0.585l0.016-0.004v-2.153H59.156"
   id="path9585" />
<path
   d="M68.379,395.91v5.394h-1.021v-2.94c0-0.232,0.005-0.499,0.02-0.798l0.02-0.402l0.02-0.399h-0.032l-0.123,0.375l-0.118,0.375  c-0.11,0.337-0.195,0.586-0.256,0.747l-1.183,3.043h-0.931l-1.195-3.019c-0.065-0.166-0.151-0.415-0.26-0.747l-0.123-0.375  l-0.122-0.372h-0.032l0.02,0.392l0.02,0.396c0.015,0.304,0.023,0.566,0.023,0.785v2.94h-1.021v-5.394h1.664l0.962,2.497  c0.065,0.174,0.152,0.423,0.26,0.747l0.118,0.375l0.123,0.371h0.035l0.114-0.371l0.119-0.371c0.097-0.313,0.182-0.562,0.252-0.743  l0.946-2.505H68.379"
   id="path9587" />
<path
   d="M70.343,398.7h1.163c0.461,0,0.755-0.054,0.881-0.161c0.124-0.106,0.188-0.357,0.188-0.756c0-0.455-0.051-0.737-0.156-0.848  c-0.103-0.109-0.373-0.164-0.811-0.164h-1.265V398.7 M69.321,401.304v-5.394h2.437c0.728,0,1.218,0.126,1.473,0.381  c0.252,0.253,0.38,0.745,0.38,1.473c0,0.721-0.12,1.201-0.362,1.438c-0.241,0.237-0.729,0.355-1.467,0.355l-0.237,0.005h-1.202  v1.742H69.321"
   id="path9589" />
<path
   d="M75.099,397.526v0.972h-0.903v-0.972H75.099 M75.099,400.331v0.973h-0.903v-0.973H75.099"
   id="path9591" />
<path
   d="M40.787,464.739v5.394h-1.021v-2.939c0-0.233,0.006-0.5,0.02-0.799l0.02-0.402l0.02-0.399h-0.031l-0.123,0.376l-0.118,0.375  c-0.11,0.336-0.195,0.585-0.256,0.747l-1.183,3.042h-0.931l-1.195-3.019c-0.065-0.166-0.152-0.415-0.26-0.747l-0.123-0.375  l-0.123-0.371h-0.031l0.02,0.391l0.02,0.396c0.016,0.304,0.024,0.566,0.024,0.786v2.939h-1.021v-5.394h1.664l0.962,2.497  c0.065,0.174,0.151,0.423,0.26,0.747l0.118,0.376l0.123,0.371h0.035l0.114-0.371l0.119-0.372c0.096-0.313,0.181-0.562,0.252-0.743  l0.946-2.505H40.787"
   id="path9593" />
<path
   d="M44.139,467.854l-0.004-0.15c0-0.301-0.051-0.494-0.156-0.585c-0.103-0.089-0.329-0.134-0.676-0.134  c-0.335,0-0.554,0.053-0.657,0.161c-0.101,0.107-0.152,0.344-0.152,0.708H44.139 M44.13,468.924h0.907v0.146  c0,0.737-0.553,1.106-1.656,1.106c-0.75,0-1.238-0.126-1.471-0.383c-0.23-0.255-0.347-0.796-0.347-1.624  c0-0.734,0.12-1.229,0.363-1.481c0.241-0.253,0.714-0.379,1.416-0.379c0.672,0,1.124,0.122,1.353,0.369  c0.229,0.245,0.343,0.729,0.343,1.452v0.276h-2.551c-0.004,0.083-0.008,0.139-0.008,0.166c0,0.371,0.057,0.618,0.171,0.743  c0.114,0.122,0.341,0.186,0.684,0.186c0.331,0,0.546-0.036,0.646-0.109C44.079,469.32,44.13,469.165,44.13,468.924"
   id="path9595" />
<path
   d="M48.188,468.69h0.899v0.131l-0.055,0.572c-0.11,0.522-0.648,0.782-1.617,0.782c-0.709,0-1.181-0.128-1.415-0.385  c-0.233-0.257-0.351-0.772-0.351-1.551c0-0.759,0.116-1.269,0.351-1.533c0.232-0.263,0.688-0.396,1.364-0.396  c0.651,0,1.092,0.096,1.325,0.287c0.23,0.189,0.347,0.553,0.347,1.089h-0.895c0-0.439-0.252-0.66-0.761-0.66  c-0.358,0-0.585,0.069-0.678,0.209c-0.09,0.139-0.138,0.482-0.138,1.027c0,0.525,0.049,0.857,0.152,0.994  c0.101,0.134,0.349,0.203,0.743,0.203c0.31,0,0.509-0.045,0.597-0.141C48.143,469.229,48.188,469.019,48.188,468.69"
   id="path9597" />
<path
   d="M50.655,464.739v2.24l0.02,0.005c0.167-0.447,0.554-0.673,1.159-0.673c0.879,0,1.321,0.417,1.321,1.253v2.568h-0.903v-2.441  c0-0.443-0.225-0.664-0.674-0.664c-0.615,0-0.923,0.32-0.923,0.96v2.146h-0.903v-5.394H50.655"
   id="path9599" />
<path
   d="M55.582,468.441c-0.509,0-0.765,0.176-0.765,0.529c0,0.245,0.051,0.405,0.158,0.482c0.104,0.075,0.325,0.115,0.662,0.115  c0.548,0,0.824-0.187,0.824-0.558C56.461,468.632,56.169,468.441,55.582,468.441 M54.979,467.45h-0.922  c0-0.453,0.104-0.755,0.315-0.909c0.209-0.152,0.627-0.229,1.25-0.229c0.678,0,1.136,0.094,1.376,0.281  c0.238,0.186,0.358,0.543,0.358,1.07v2.47h-0.903l0.043-0.518l-0.024-0.004c-0.173,0.375-0.574,0.564-1.202,0.564  c-0.911,0-1.369-0.387-1.369-1.165c0-0.784,0.465-1.178,1.4-1.178c0.623,0,1.001,0.143,1.136,0.431h0.016v-0.612  c0-0.294-0.051-0.49-0.154-0.587c-0.103-0.095-0.312-0.145-0.631-0.145C55.209,466.92,54.979,467.097,54.979,467.45"
   id="path9601" />
<path
   d="M58.255,466.355h0.895l-0.036,0.636l0.02,0.005c0.175-0.455,0.57-0.685,1.183-0.685c0.891,0,1.336,0.415,1.336,1.249v2.572  h-0.903v-2.418l-0.02-0.265c-0.042-0.28-0.262-0.423-0.663-0.423c-0.606,0-0.911,0.288-0.911,0.865v2.24h-0.902V466.355"
   id="path9603" />
<path
   d="M63.438,466.355v3.777h-0.903v-3.777H63.438 M63.438,464.739v0.755h-0.903v-0.755H63.438"
   id="path9605" />
<polyline
   points="64.205,466.355 67.143,466.355 67.143,467.134 65.124,469.445 67.143,469.445 67.143,470.133 64.047,470.133   64.047,469.339 66.046,467.043 64.205,467.043 64.205,466.355 "
   id="polyline9607" />
<path
   d="M70.188,467.854l-0.004-0.15c0-0.301-0.051-0.494-0.156-0.585c-0.103-0.089-0.329-0.134-0.676-0.134  c-0.335,0-0.554,0.053-0.657,0.161c-0.101,0.107-0.152,0.344-0.152,0.708H70.188 M70.18,468.924h0.907v0.146  c0,0.737-0.552,1.106-1.656,1.106c-0.75,0-1.238-0.126-1.471-0.383c-0.23-0.255-0.347-0.796-0.347-1.624  c0-0.734,0.12-1.229,0.363-1.481c0.241-0.253,0.714-0.379,1.416-0.379c0.672,0,1.124,0.122,1.353,0.369  c0.229,0.245,0.343,0.729,0.343,1.452v0.276h-2.551c-0.004,0.083-0.008,0.139-0.008,0.166c0,0.371,0.057,0.618,0.171,0.743  c0.114,0.122,0.341,0.186,0.684,0.186c0.332,0,0.546-0.036,0.646-0.109C70.129,469.32,70.18,469.165,70.18,468.924"
   id="path9609" />
<path
   d="M73.422,467.027c-0.335,0-0.554,0.071-0.655,0.215c-0.099,0.143-0.15,0.452-0.15,0.927c0,0.548,0.049,0.9,0.15,1.06  c0.099,0.157,0.323,0.236,0.67,0.236c0.363,0,0.593-0.077,0.696-0.232c0.101-0.154,0.152-0.514,0.152-1.075  c0-0.463-0.055-0.767-0.167-0.913C74.008,467.101,73.775,467.027,73.422,467.027 M75.192,464.739v5.394h-0.879l0.032-0.608  l-0.016-0.004c-0.176,0.438-0.56,0.66-1.152,0.66c-0.595,0-0.991-0.137-1.185-0.409c-0.193-0.272-0.29-0.826-0.29-1.662  c0-0.673,0.103-1.142,0.312-1.404c0.207-0.261,0.576-0.394,1.107-0.394c0.615,0,0.998,0.194,1.152,0.585l0.016-0.004v-2.153H75.192"
   id="path9611" />
<path
   d="M76.94,466.355v0.972h-0.903v-0.972H76.94 M76.94,469.161v0.972h-0.903v-0.972H76.94"
   id="path9613" />
<path
   fill="none"
   stroke="#000000"
   stroke-width="1.0114"
   stroke-miterlimit="10"
   d="M90.247,470.564  c0,1.141-0.923,2.063-2.062,2.063h-5.713c-1.138,0-2.062-0.923-2.062-2.063v-5.584c0-1.14,0.924-2.063,2.062-2.063h5.713  c1.139,0,2.062,0.924,2.062,2.063V470.564z"
   id="path9615" />
<polyline
   points="153.367,464.737 153.367,469.215 155.891,469.215 155.891,470.131 152.346,470.131 152.346,464.737   153.367,464.737 "
   id="polyline9617" />
<path
   d="M158.817,467.852l-0.004-0.15c0-0.3-0.051-0.494-0.156-0.585c-0.103-0.089-0.329-0.134-0.676-0.134  c-0.335,0-0.554,0.053-0.657,0.162c-0.1,0.106-0.151,0.344-0.151,0.707H158.817 M158.809,468.922h0.907v0.146  c0,0.737-0.552,1.106-1.656,1.106c-0.75,0-1.238-0.127-1.471-0.384c-0.231-0.255-0.347-0.796-0.347-1.624  c0-0.734,0.12-1.229,0.363-1.481c0.241-0.253,0.714-0.379,1.416-0.379c0.672,0,1.124,0.122,1.353,0.369  c0.229,0.245,0.343,0.729,0.343,1.452v0.276h-2.551c-0.004,0.083-0.008,0.139-0.008,0.166c0,0.371,0.057,0.618,0.172,0.743  c0.114,0.122,0.341,0.186,0.684,0.186c0.332,0,0.546-0.036,0.647-0.108C158.758,469.319,158.809,469.163,158.809,468.922"
   id="path9619" />
<path
   d="M162.059,467.025c-0.347,0-0.57,0.069-0.668,0.212c-0.099,0.14-0.148,0.46-0.148,0.962c0,0.531,0.049,0.871,0.148,1.02  c0.098,0.146,0.325,0.221,0.68,0.221c0.355,0,0.584-0.075,0.69-0.227c0.105-0.15,0.158-0.486,0.158-1.006  c0-0.498-0.051-0.818-0.158-0.965C162.656,467.099,162.422,467.025,162.059,467.025 M163.837,466.354v3.849  c0,0.616-0.124,1.039-0.373,1.269s-0.706,0.344-1.374,0.344c-0.646,0-1.078-0.087-1.297-0.261c-0.217-0.174-0.327-0.518-0.327-1.031  h0.875c0,0.245,0.045,0.4,0.138,0.472c0.091,0.069,0.296,0.105,0.615,0.105c0.56,0,0.84-0.231,0.84-0.696v-0.849l-0.02-0.004  c-0.16,0.402-0.529,0.604-1.104,0.604c-0.57,0-0.96-0.139-1.169-0.415c-0.209-0.277-0.313-0.793-0.313-1.549  c0-0.712,0.104-1.201,0.313-1.474c0.209-0.271,0.587-0.407,1.138-0.407c0.599,0,0.992,0.222,1.179,0.668h0.02l-0.043-0.625H163.837"
   id="path9621" />
<path
   d="M165.585,466.354v0.973h-0.903v-0.973H165.585 M165.585,469.159v0.972h-0.903v-0.972H165.585"
   id="path9623" />
<path
   fill="none"
   stroke="#000000"
   stroke-width="1.0114"
   stroke-miterlimit="10"
   d="M179.107,470.564  c0,1.141-0.923,2.063-2.062,2.063h-5.714c-1.139,0-2.063-0.923-2.063-2.063v-5.584c0-1.14,0.924-2.063,2.063-2.063h5.714  c1.139,0,2.062,0.924,2.062,2.063V470.564z"
   id="path9625" />
<path
   d="M194.068,468.342l-0.931-2.81l-0.915,2.81H194.068 M194.305,469.096h-2.322l-0.335,1.035h-1.081l1.79-5.394h1.534  l1.817,5.394h-1.061L194.305,469.096"
   id="path9627" />
<path
   d="M197.197,467.527h1.163c0.461,0,0.755-0.054,0.881-0.16c0.124-0.106,0.188-0.357,0.188-0.757  c0-0.454-0.051-0.736-0.156-0.848c-0.103-0.108-0.373-0.164-0.811-0.164h-1.265V467.527 M196.176,470.131v-5.394h2.437  c0.728,0,1.218,0.127,1.473,0.382c0.252,0.253,0.38,0.745,0.38,1.472c0,0.721-0.12,1.201-0.362,1.438  c-0.241,0.237-0.729,0.355-1.467,0.355l-0.237,0.004h-1.202v1.742H196.176"
   id="path9629" />
<path
   d="M201.954,466.354v0.973h-0.903v-0.973H201.954 M201.954,469.159v0.972h-0.903v-0.972H201.954"
   id="path9631" />
<path
   fill="#FFFFFF"
   d="M216.181,470.563c0,1.14-0.924,2.063-2.063,2.063h-5.713c-1.139,0-2.063-0.923-2.063-2.063v-5.585  c0-1.14,0.924-2.063,2.063-2.063h5.713c1.139,0,2.063,0.923,2.063,2.063V470.563"
   id="path9633" />
<path
   fill="none"
   stroke="#000000"
   stroke-width="1.0114"
   stroke-miterlimit="10"
   d="M216.182,470.564  c0,1.141-0.924,2.063-2.063,2.063h-5.714c-1.138,0-2.063-0.923-2.063-2.063v-5.584c0-1.14,0.925-2.063,2.063-2.063h5.714  c1.139,0,2.063,0.924,2.063,2.063V470.564z"
   id="path9635" />
<path
   d="M104.408,466.311h-0.998c-0.004-0.05-0.008-0.087-0.008-0.111c-0.023-0.302-0.091-0.491-0.201-0.57  c-0.11-0.077-0.371-0.117-0.781-0.117c-0.483,0-0.799,0.044-0.948,0.135c-0.148,0.089-0.223,0.276-0.223,0.565  c0,0.34,0.059,0.543,0.181,0.612c0.12,0.067,0.521,0.12,1.199,0.158c0.8,0.043,1.319,0.157,1.555,0.344  c0.235,0.184,0.353,0.566,0.353,1.149c0,0.715-0.138,1.18-0.414,1.389c-0.276,0.21-0.883,0.314-1.825,0.314  c-0.846,0-1.408-0.103-1.686-0.309c-0.276-0.205-0.416-0.62-0.416-1.248l-0.004-0.198h0.994l0.004,0.115  c0,0.375,0.065,0.606,0.197,0.691c0.13,0.083,0.489,0.126,1.077,0.126c0.457,0,0.749-0.047,0.875-0.146  c0.126-0.097,0.189-0.321,0.189-0.675c0-0.261-0.047-0.433-0.144-0.52c-0.094-0.086-0.302-0.137-0.621-0.156l-0.564-0.036  c-0.852-0.049-1.396-0.167-1.632-0.355c-0.237-0.186-0.355-0.588-0.355-1.205c0-0.628,0.142-1.049,0.428-1.258  c0.284-0.21,0.854-0.314,1.709-0.314c0.808,0,1.354,0.095,1.636,0.288c0.28,0.191,0.422,0.567,0.422,1.126V466.311"
   id="path9637" />
<path
   d="M110.503,466.354l-0.844,3.777h-1.333l-0.378-1.69c-0.065-0.293-0.114-0.514-0.146-0.668l-0.067-0.332l-0.067-0.332h-0.028  l-0.067,0.332l-0.067,0.336c-0.027,0.146-0.075,0.367-0.142,0.664l-0.378,1.69h-1.353l-0.84-3.777h0.911l0.363,1.751  c0.043,0.217,0.088,0.452,0.134,0.703l0.063,0.352l0.067,0.352h0.016l0.079-0.352l0.075-0.352c0.04-0.176,0.092-0.409,0.162-0.699  l0.41-1.755h1.151l0.41,1.755c0.075,0.327,0.13,0.561,0.162,0.699l0.075,0.352l0.075,0.352h0.02l0.067-0.352l0.063-0.352  c0.043-0.241,0.091-0.477,0.138-0.703l0.367-1.751H110.503"
   id="path9639" />
<path
   d="M112.498,468.44c-0.509,0-0.765,0.176-0.765,0.529c0,0.245,0.051,0.404,0.158,0.481c0.104,0.075,0.325,0.115,0.663,0.115  c0.548,0,0.824-0.186,0.824-0.558C113.377,468.63,113.086,468.44,112.498,468.44 M111.895,467.448h-0.922  c0-0.452,0.104-0.755,0.315-0.909c0.209-0.151,0.627-0.229,1.25-0.229c0.678,0,1.136,0.093,1.376,0.28  c0.238,0.186,0.358,0.544,0.358,1.07v2.47h-0.903l0.043-0.518l-0.024-0.004c-0.173,0.376-0.574,0.565-1.202,0.565  c-0.911,0-1.368-0.388-1.368-1.166c0-0.784,0.465-1.177,1.399-1.177c0.623,0,1.001,0.142,1.136,0.431h0.016v-0.613  c0-0.294-0.051-0.489-0.154-0.586c-0.103-0.095-0.311-0.145-0.631-0.145C112.126,466.919,111.895,467.095,111.895,467.448"
   id="path9641" />
<path
   d="M115.195,466.354h0.903l-0.055,0.529l0.02,0.004c0.215-0.395,0.554-0.592,1.018-0.592c0.662,0,0.994,0.419,0.994,1.256  v0.265h-0.852c0.01-0.103,0.016-0.17,0.016-0.201c0-0.403-0.155-0.604-0.469-0.604c-0.445,0-0.67,0.299-0.67,0.897v2.224h-0.903  V466.354"
   id="path9643" />
<path
   d="M118.572,466.354h0.903l-0.024,0.581l0.02,0.004c0.183-0.419,0.567-0.628,1.151-0.628c0.68,0,1.059,0.233,1.136,0.699h0.016  c0.176-0.466,0.564-0.699,1.163-0.699c0.872,0,1.309,0.438,1.309,1.319v2.501h-0.903v-2.304c0-0.533-0.219-0.802-0.658-0.802  c-0.548,0-0.824,0.299-0.824,0.897v2.208h-0.903v-2.339c0-0.313-0.042-0.52-0.125-0.618c-0.083-0.099-0.258-0.148-0.526-0.148  c-0.554,0-0.832,0.305-0.832,0.917v2.188h-0.903V466.354"
   id="path9645" />
<path
   d="M126.032,466.354v0.973h-0.903v-0.973H126.032 M126.032,469.159v0.972h-0.903v-0.972H126.032"
   id="path9647" />
<path
   fill="none"
   stroke="#000000"
   stroke-width="1.0114"
   stroke-miterlimit="10"
   d="M138.972,470.564  c0,1.141-0.924,2.063-2.063,2.063h-5.713c-1.139,0-2.063-0.923-2.063-2.063v-5.584c0-1.14,0.925-2.063,2.063-2.063h5.713  c1.139,0,2.063,0.924,2.063,2.063V470.564z"
   id="path9649" />






<path
   fill="#FFFFFF"
   d="M48.054,355.429h2.511c0.878,0,1.275,0.071,1.275,1.034c0,0.963-0.222,1.266-1.224,1.266h-2.562V355.429   M51.047,363.039c1.878,0,2.686-0.524,2.686-2.542c0-1.159-0.237-2-1.476-2.145v-0.051c1.095-0.267,1.287-0.966,1.287-2.003  c0-1.997-0.89-2.362-2.655-2.362h-4.537v9.104H51.047 M48.054,359.057h2.732c1.026,0,1.242,0.293,1.242,1.292  c0,1.123-0.497,1.197-1.538,1.197h-2.437V359.057"
   id="path9663" />
<path
   fill="#FFFFFF"
   d="M60.208,360.005h-3.152l1.559-4.732h0.023L60.208,360.005 M60.598,361.333l0.598,1.707h1.777l-3.093-9.104  h-2.582l-3.031,9.104h1.815l0.571-1.707H60.598"
   id="path9665" />
<polyline
   fill="#FFFFFF"
   points="66.457,355.429 69.121,355.429 69.121,353.936 62.089,353.936 62.089,355.429 64.753,355.429   64.753,363.039 66.457,363.039 66.457,355.429 "
   id="polyline9667" />
<polyline
   fill="#FFFFFF"
   points="73.567,355.429 76.232,355.429 76.232,353.936 69.2,353.936 69.2,355.429 71.864,355.429   71.864,363.039 73.567,363.039 73.567,355.429 "
   id="polyline9669" />
<polyline
   fill="#FFFFFF"
   points="78.785,353.936 77.082,353.936 77.082,363.039 83.026,363.039 83.026,361.546 78.785,361.546   78.785,353.936 "
   id="polyline9671" />
<polyline
   fill="#FFFFFF"
   points="85.629,355.429 90.112,355.429 90.112,353.936 83.925,353.936 83.925,363.039 90.147,363.039   90.147,361.546 85.629,361.546 85.629,359.057 89.881,359.057 89.881,357.539 85.629,357.539 85.629,355.429 "
   id="polyline9673" />
<path
   fill="#FFFFFF"
   d="M100.871,360.005h-3.152l1.559-4.732h0.023L100.871,360.005 M101.261,361.333l0.598,1.707h1.777  l-3.093-9.104h-2.582l-3.031,9.104h1.816l0.571-1.707H101.261"
   id="path9675" />
<path
   fill="#FFFFFF"
   d="M105.979,358.487v-3.058h2.351c1.209,0,1.434,0.228,1.434,1.494c0,1.313-0.296,1.564-1.508,1.564H105.979   M108.625,360.005c0.828,0,1.139,0.54,1.139,1.315v1.719h1.703v-1.716c0-1.298-0.307-1.973-1.567-2.083v-0.051  c1.567-0.23,1.567-1.214,1.567-2.542c0-2.086-0.728-2.712-2.626-2.712h-4.566v9.104h1.704v-3.034H108.625"
   id="path9677" />
<polyline
   fill="#FFFFFF"
   points="121.916,355.367 121.916,363.039 123.619,363.039 123.619,353.936 120.789,353.936   118.338,360.698 118.291,360.698 115.789,353.936 113.021,353.936 113.021,363.039 114.724,363.039 114.724,355.406 117.53,363.039   119.109,363.039 121.916,355.367 "
   id="polyline9679" />
<path
   fill="#FFFFFF"
   d="M128.779,355.429c1.514,0,2.117,0.119,2.117,1.784v2.385c0,1.71-0.541,1.923-2.117,1.923  c-1.704,0-2.046-0.166-2.046-1.923v-2.385C126.732,355.809,126.913,355.429,128.779,355.429 M128.779,353.936  c-2.815,0-3.75,0.489-3.75,3.278v2.385c0,2.96,1.006,3.44,3.75,3.44c2.711,0,3.821-0.554,3.821-3.44v-2.385  C132.6,354.33,131.357,353.936,128.779,353.936"
   id="path9681" />
<path
   fill="#FFFFFF"
   d="M135.582,358.487v-3.058h2.352c1.209,0,1.434,0.228,1.434,1.494c0,1.313-0.296,1.564-1.509,1.564H135.582   M138.229,360.005c0.828,0,1.139,0.54,1.139,1.315v1.719h1.703v-1.716c0-1.298-0.308-1.973-1.567-2.083v-0.051  c1.567-0.23,1.567-1.214,1.567-2.542c0-2.086-0.728-2.712-2.626-2.712h-4.566v9.104h1.703v-3.034H138.229"
   id="path9683" />
<path
   fill="#FFFFFF"
   d="M144.518,356.591h-1.514v1.663h1.514V356.591 M144.518,361.377h-1.514v1.662h1.514V361.377"
   id="path9685" />
<path
   fill="#FFFFFF"
   d="M150.774,359.996v0.421c0,2.623,1.801,2.623,3.818,2.623c2.348,0,3.563-0.225,3.563-2.851  c0-2.296-0.772-2.441-3.596-2.584c-1.842-0.094-2.082-0.127-2.082-1.093c0-0.975,0.29-1.144,2.094-1.144  c1.275,0,1.692,0.036,1.692,1.022v0.29h1.703v-0.299c0-2.445-1.467-2.445-3.395-2.445c-2.215,0-3.797,0-3.797,2.575  c0,2.439,1.559,2.365,3.546,2.486c1.413,0.071,2.132-0.098,2.132,1.191c0,1.046-0.228,1.333-1.881,1.333  c-1.638,0-2.094-0.071-2.094-1.105v-0.421H150.774"
   id="path9687" />
<path
   fill="#FFFFFF"
   d="M163.51,358.748l-0.751,1.002l2.345,1.404c-0.509,0.368-1.212,0.368-1.902,0.368  c-1.86,0-2.383-0.095-2.383-1.923v-2.385c0-1.677,0.751-1.784,2.383-1.784c1.786,0,2.349,0.178,2.349,1.784v1.559  c0,0.424,0,0.839,0,1.262L163.51,358.748 M167.969,361.7l-0.881-0.566c0.166-0.486,0.166-1.384,0.166-1.535v-2.385  c0-3.171-1.792-3.278-4.052-3.278c-2.741,0-4.086,0.477-4.086,3.278v2.385c0,2.984,1.162,3.44,4.096,3.44  c1.088,0,2.428,0,3.286-0.877l0.769,0.604L167.969,361.7"
   id="path9689" />
<path
   fill="#FFFFFF"
   d="M174.45,353.936v6.389c0,0.969-0.447,1.197-2.094,1.197c-1.724,0-2.07-0.275-2.07-1.197v-6.389h-1.703v6.419  c0,2.528,1.638,2.685,3.773,2.685c2.209,0,3.797-0.171,3.797-2.714v-6.389H174.45"
   id="path9691" />
<path
   fill="#FFFFFF"
   d="M182.9,360.005h-3.152l1.559-4.732h0.024L182.9,360.005 M183.29,361.333l0.598,1.707h1.777l-3.093-9.104  h-2.583l-3.031,9.104h1.815l0.571-1.707H183.29"
   id="path9693" />
<path
   fill="#FFFFFF"
   d="M188.007,361.546v-6.117h2.665c1.366,0,1.878,0.376,1.878,1.894v2.148c0,1.02-0.373,2.075-1.579,2.075  H188.007 M186.304,363.039h4.667c2.75,0,3.282-1.674,3.282-3.568v-2.148c0-2.478-1.067-3.388-3.581-3.388h-4.368V363.039"
   id="path9695" />
<path
   fill="#FFFFFF"
   d="M199.701,359.916c0,2.99,1.183,3.123,3.537,3.123c2.342,0,3.655-0.195,3.655-2.708  c0-1.146-0.337-1.837-1.63-1.92v-0.047c1.233-0.119,1.44-1.022,1.44-2.08c0-2.347-1.798-2.347-3.466-2.347  c-2.413,0-3.348,0.371-3.348,2.949h1.703c0-1.363,0.189-1.517,1.645-1.517c1.375,0,1.763,0.071,1.763,0.916  c0,1.058-0.154,1.446-1.035,1.446h-1.281v1.328h1.281c0.99,0,1.224,0.355,1.224,1.274c0,1.191-0.506,1.191-1.952,1.191  c-1.55,0-1.833-0.024-1.833-1.606H199.701"
   id="path9697" />
<polyline
   points="40.115,411.786 40.095,411.786 38.898,407.311 37.718,407.311 36.497,411.786 36.467,411.786 35.357,407.311   34.334,407.311 35.72,412.621 37.186,412.621 38.289,408.571 38.316,408.571 39.383,412.621 40.862,412.621 42.298,407.311   41.267,407.311 40.115,411.786 "
   id="polyline9699" />
<path
   d="M43.218,410.408c0-0.696,0.05-0.869,0.819-0.869c0.728,0,0.84,0.061,0.84,0.869H43.218 M44.877,411.442  c0,0.515-0.346,0.515-0.84,0.515c-0.799,0-0.819-0.24-0.819-0.995h2.544c0-1.649-0.204-2.103-1.725-2.103  c-1.494,0-1.704,0.594-1.704,1.95c0,1.378,0.289,1.812,1.704,1.812c1.056,0,1.725-0.056,1.725-1.179H44.877"
   id="path9701" />
<path
   d="M48.913,412.621h0.885v-2.33c0-1.246-0.503-1.432-1.708-1.432c-0.844,0-1.611,0-1.611,1.102h0.885  c0-0.458,0.323-0.493,0.726-0.493c0.771,0,0.823,0.202,0.823,0.776v0.516h-0.029c-0.22-0.462-0.683-0.462-1.153-0.462  c-0.904,0-1.362,0.247-1.362,1.136c0,1.01,0.536,1.188,1.362,1.188c0.447,0,1.002,0,1.182-0.548V412.621 M48.061,410.962  c0.456,0,0.852,0,0.852,0.472c0,0.486-0.36,0.523-0.852,0.523c-0.597,0-0.807-0.045-0.807-0.523  C47.253,410.962,47.592,410.962,48.061,410.962"
   id="path9703" />
<path
   d="M51.533,408.859h-0.885v5.421h0.885v-2.185h0.035c0.188,0.442,0.655,0.525,1.101,0.525c1.262,0,1.409-0.691,1.409-1.765  c0-1.129,0-1.997-1.409-1.997c-0.512,0-0.915,0.112-1.136,0.597V408.859 M52.411,411.957c-0.759,0-0.878-0.314-0.878-1.101  c0-0.877,0-1.317,0.878-1.317c0.781,0,0.781,0.484,0.781,1.317C53.192,411.783,53.018,411.957,52.411,411.957"
   id="path9705" />
<path
   d="M56.472,409.539c0.767,0,0.83,0.225,0.83,1.221c0,0.979-0.063,1.197-0.83,1.197c-0.768,0-0.83-0.218-0.83-1.197  C55.642,409.764,55.704,409.539,56.472,409.539 M56.472,408.859c-1.521,0-1.715,0.458-1.715,1.894c0,1.415,0.194,1.868,1.715,1.868  s1.714-0.453,1.714-1.868C58.186,409.317,57.993,408.859,56.472,408.859"
   id="path9707" />
<path
   d="M58.988,408.859v3.762h0.885v-2.048c0-0.666,0.104-1.034,0.868-1.034c0.563,0,0.681,0.185,0.681,0.723v2.359h0.885v-2.451  c0-0.905-0.294-1.311-1.26-1.311c-0.513,0-0.951,0.056-1.146,0.597h-0.027v-0.597H58.988"
   id="path9709" />
<path
   d="M66.319,409.898c0-1.039-0.868-1.039-1.565-1.039c-0.911,0-1.642,0-1.642,1.025c0,0.914,0.24,1.091,1.565,1.111  c0.847,0.014,0.868,0.171,0.868,0.484c0,0.477-0.295,0.477-0.802,0.477c-0.625,0-0.747-0.061-0.747-0.579h-0.885  c0,1.243,0.658,1.243,1.638,1.243c0.913,0,1.68-0.102,1.68-1.141c0-1.162-0.769-1.098-1.603-1.14  c-0.738-0.034-0.831-0.048-0.831-0.402c0-0.471,0.311-0.471,0.762-0.471c0.453,0,0.676,0,0.676,0.431H66.319"
   id="path9711" />
<path
   d="M74.14,412.621l0.482-0.674l-0.759-0.659c0.107-0.302,0.107-0.646,0.107-0.97v-0.351h-0.885v0.695l-1.668-1.418  c-0.232-0.185-0.323-0.31-0.323-0.61c0-0.489,0.266-0.489,0.764-0.489c0.756,0,0.785,0.101,0.785,0.783h0.885  c0-1.385-0.31-1.618-1.67-1.618c-1.068,0-1.648,0.166-1.648,1.317c0,0.449,0.084,0.613,0.413,0.906  c-0.838,0.068-0.966,0.64-0.966,1.403c0,1.561,0.8,1.684,2.123,1.684c0.712,0,1.443,0,1.773-0.626L74.14,412.621 M72.889,411.427  c-0.235,0.31-0.584,0.31-1.099,0.31c-0.899,0-1.248,0-1.248-0.799c0-0.591,0-0.861,0.586-0.952L72.889,411.427"
   id="path9713" />
<polyline
   points="78.673,408.182 81.293,408.182 81.293,407.311 77.678,407.311 77.678,412.621 81.314,412.621 81.314,411.75   78.673,411.75 78.673,410.298 81.158,410.298 81.158,409.413 78.673,409.413 78.673,408.182 "
   id="polyline9715" />
<path
   d="M85.378,408.859h-0.885v0.597c-0.221-0.484-0.624-0.597-1.135-0.597c-1.409,0-1.409,0.868-1.409,1.997  c0,1.073,0.147,1.765,1.409,1.765c0.446,0,0.913-0.083,1.101-0.525h0.034v2.185h0.885V408.859 M83.615,409.539  c0.759,0,0.878,0.314,0.878,1.102c0,0.876,0,1.316-0.878,1.316c-0.781,0-0.781-0.483-0.781-1.316  C82.834,409.714,83.009,409.539,83.615,409.539"
   id="path9717" />
<path
   d="M89.604,412.621v-3.762H88.72v2.157c0,0.648-0.223,0.94-0.918,0.94c-0.581,0-0.631-0.205-0.631-0.739v-2.358h-0.885v2.691  c0,0.814,0.498,1.07,1.243,1.07c0.517,0,0.983-0.117,1.191-0.599v0.599H89.604"
   id="path9719" />
<path
   d="M91.369,407.311h-0.885v0.758h0.885V407.311 M91.369,408.859h-0.885v3.762h0.885V408.859"
   id="path9721" />
<path
   d="M93.04,408.859h-0.885v5.421h0.885v-2.185h0.035c0.188,0.442,0.655,0.525,1.101,0.525c1.262,0,1.409-0.691,1.409-1.765  c0-1.129,0-1.997-1.409-1.997c-0.512,0-0.914,0.112-1.136,0.597V408.859 M93.918,411.957c-0.759,0-0.878-0.314-0.878-1.101  c0-0.877,0-1.317,0.878-1.317c0.781,0,0.781,0.484,0.781,1.317C94.699,411.783,94.524,411.957,93.918,411.957"
   id="path9723" />
<rect
   x="96.596"
   y="411.651"
   width="0.885"
   height="0.97"
   id="rect9725" />
<path
   d="M125.199,411.75v-3.568h1.557c0.799,0,1.098,0.22,1.098,1.105v1.253c0,0.595-0.218,1.21-0.923,1.21H125.199   M124.203,412.621h2.728c1.607,0,1.918-0.977,1.918-2.081v-1.253c0-1.445-0.624-1.977-2.093-1.977h-2.553V412.621"
   id="path9727" />
<path
   d="M129.542,408.859v3.762h0.885v-2.097c0-0.658,0.15-0.985,0.913-0.985c0.517,0,0.636,0.185,0.636,0.651v2.431h0.885v-2.097  c0-0.658,0.138-0.985,0.847-0.985c0.48,0,0.591,0.185,0.591,0.651v2.431h0.885v-2.516c0-0.912-0.309-1.246-1.246-1.246  c-0.487,0-0.987,0.143-1.154,0.657h-0.028c-0.099-0.538-0.631-0.657-1.094-0.657c-0.494,0-1.025,0.105-1.234,0.574v-0.574H129.542"
   id="path9729" />
<path
   d="M138.517,412.767c0,0.683-0.154,0.851-0.871,0.851c-0.491,0-0.678-0.083-0.678-0.631h-0.885  c-0.057,1.136,0.636,1.294,1.563,1.294c1.338,0,1.756-0.328,1.756-1.708v-3.713h-0.885v0.597c-0.22-0.484-0.619-0.597-1.127-0.597  c-1.417,0-1.417,0.868-1.417,1.997c0,1.073,0.148,1.765,1.417,1.765c0.438,0,0.9-0.083,1.127-0.56V412.767 M137.646,409.539  c0.753,0,0.871,0.316,0.871,1.102c0,0.876,0,1.316-0.878,1.316c-0.781,0-0.781-0.483-0.781-1.316  C136.857,409.714,137.033,409.539,137.646,409.539"
   id="path9731" />
<polyline
   points="156.729,408.146 156.729,412.621 157.725,412.621 157.725,407.311 156.07,407.311 154.638,411.256 154.61,411.256   153.148,407.311 151.53,407.311 151.53,412.621 152.525,412.621 152.525,408.168 154.166,412.621 155.089,412.621 156.729,408.146   "
   id="polyline9733" />
<path
   d="M159.544,407.311h-0.885v0.758h0.885V407.311 M159.544,408.859h-0.885v3.762h0.885V408.859"
   id="path9735" />
<path
   d="M160.33,408.859v3.762h0.885v-2.048c0-0.666,0.104-1.034,0.868-1.034c0.563,0,0.681,0.185,0.681,0.723v2.359h0.885v-2.451  c0-0.905-0.294-1.311-1.26-1.311c-0.514,0-0.951,0.056-1.146,0.597h-0.028v-0.597H160.33"
   id="path9737" />
<path
   d="M169.021,410.846v0.246c0,1.529,1.053,1.529,2.231,1.529c1.372,0,2.083-0.131,2.083-1.663c0-1.34-0.451-1.424-2.102-1.507  c-1.077-0.056-1.217-0.074-1.217-0.639c0-0.568,0.169-0.667,1.224-0.667c0.745,0,0.989,0.021,0.989,0.597v0.169h0.996v-0.174  c0-1.427-0.857-1.427-1.984-1.427c-1.294,0-2.219,0-2.219,1.502c0,1.423,0.911,1.38,2.072,1.451  c0.826,0.041,1.246-0.058,1.246,0.694c0,0.61-0.133,0.778-1.099,0.778c-0.958,0-1.224-0.042-1.224-0.645v-0.246H169.021"
   id="path9739" />
<path
   d="M174.892,407.311h-0.885v5.311h0.885v-2.048c0-0.666,0.104-1.034,0.868-1.034c0.563,0,0.681,0.185,0.681,0.723v2.359h0.885  v-2.451c0-0.905-0.294-1.311-1.26-1.311c-0.513,0-0.951,0.058-1.146,0.602h-0.027V407.311"
   id="path9741" />
<path
   d="M177.774,409.523h0.467v1.938c0,0.936,0.301,1.16,1.29,1.16c0.97,0,1.255-0.339,1.255-1.461h-0.774  c0,0.395,0.055,0.797-0.48,0.797c-0.404,0-0.404-0.157-0.404-0.503v-1.931h1.471v-0.664h-1.471v-0.858h-0.885v0.858h-0.467V409.523"
   id="path9743" />
<polyline
   points="189.967,408.146 189.967,412.621 190.962,412.621 190.962,407.311 189.308,407.311 187.875,411.256   187.848,411.256 186.386,407.311 184.768,407.311 184.768,412.621 185.763,412.621 185.763,408.168 187.403,412.621   188.327,412.621 189.967,408.146 "
   id="polyline9745" />
<path
   d="M192.671,410.408c0-0.696,0.05-0.869,0.819-0.869c0.728,0,0.84,0.061,0.84,0.869H192.671 M194.331,411.442  c0,0.515-0.346,0.515-0.84,0.515c-0.799,0-0.819-0.24-0.819-0.995h2.544c0-1.649-0.204-2.103-1.725-2.103  c-1.494,0-1.705,0.594-1.705,1.95c0,1.378,0.289,1.812,1.705,1.812c1.056,0,1.725-0.056,1.725-1.179H194.331"
   id="path9747" />
<path
   d="M198.366,412.621h0.885v-5.311h-0.885v2.087h-0.021c-0.19-0.453-0.662-0.538-1.111-0.538c-1.265,0-1.412,0.697-1.412,1.781  c0,1.128,0,1.98,1.412,1.98c0.512,0,0.911-0.109,1.132-0.582V412.621 M197.495,409.539c0.766,0,0.871,0.314,0.871,1.102  c0,0.876,0,1.316-0.871,1.316c-0.789,0-0.789-0.483-0.789-1.316C196.706,409.714,196.882,409.539,197.495,409.539"
   id="path9749" />
<polyline
   points="204.425,407.311 203.429,407.311 203.429,412.621 206.903,412.621 206.903,411.75 204.425,411.75 204.425,407.311   "
   id="polyline9751" />
<path
   d="M207.429,408.859v3.762h0.885v-2.048c0-0.666,0.104-1.034,0.868-1.034c0.563,0,0.681,0.185,0.681,0.723v2.359h0.885v-2.451  c0-0.905-0.294-1.311-1.26-1.311c-0.514,0-0.951,0.056-1.146,0.597h-0.028v-0.597H207.429"
   id="path9753" />
<path
   d="M214.096,412.767c0,0.683-0.154,0.851-0.871,0.851c-0.491,0-0.677-0.083-0.677-0.631h-0.885  c-0.057,1.136,0.636,1.294,1.563,1.294c1.338,0,1.756-0.328,1.756-1.708v-3.713h-0.885v0.597c-0.219-0.484-0.619-0.597-1.127-0.597  c-1.417,0-1.417,0.868-1.417,1.997c0,1.073,0.148,1.765,1.417,1.765c0.439,0,0.9-0.083,1.127-0.56V412.767 M213.225,409.539  c0.754,0,0.871,0.316,0.871,1.102c0,0.876,0,1.316-0.878,1.316c-0.781,0-0.781-0.483-0.781-1.316  C212.437,409.714,212.613,409.539,213.225,409.539"
   id="path9755" />
<path
   d="M175.462,415.808"
   id="path9757" />
<path
   d="M234.713,390.397h-3.937c0-0.965,0.421-0.764,1.914-1.157c1.543-0.412,2.023-0.717,2.023-2.324  c0-2.035-1.162-2.276-2.877-2.276c-1.857,0-2.877,0.376-2.877,2.345v0.353h1.817v-0.353c0-0.767,0.142-0.833,1.06-0.833  c0.807,0,1.06,0.085,1.06,0.793c0,0.735-0.087,0.717-1.344,1.003c-2.229,0.508-2.593,0.785-2.593,2.449v1.512h5.754V390.397"
   id="path9759" />
<path
   d="M231.381,407.053h0.476c1.095,0,1.19,0.178,1.19,0.658c0,0.819-0.333,0.856-1.19,0.856c-0.665,0-1.081-0.037-1.081-0.828  v-0.234h-1.817v0.384c0,2.049,1.325,2.193,2.986,2.193c1.673,0,2.92-0.27,2.92-2.135c0-0.818-0.274-1.477-1.211-1.515v-0.075  c0.847-0.113,1.06-0.807,1.06-1.602c0-1.847-1.519-1.943-2.769-1.943c-1.878,0-2.986,0.173-2.986,2.229v0.248h1.817v-0.144  c0-0.821,0.345-0.821,1.081-0.821c1.008,0,1.039,0.198,1.039,0.782c0,0.488-0.078,0.583-1.039,0.583h-0.476V407.053"
   id="path9761" />
<path
   d="M232.441,425.531h-2.279l2.21-3.051h0.068V425.531 M234.258,420.987h-2.834l-2.783,3.849v2.059h3.8v1.362h1.817v-1.362h0.62  v-1.363h-0.62V420.987"
   id="path9763" />
<path
   d="M228.935,444.308c0.05,1.763,0.984,2.122,2.787,2.122c2.134,0,2.991-0.348,2.991-2.601c0-1.696-0.514-2.396-2.281-2.396  c-0.953,0-1.154,0.021-1.656,0.556v-1.422h3.65v-1.405h-5.316v4.117h1.666c0.099-0.331,0.288-0.331,0.946-0.331  c1.152,0,1.173,0.193,1.173,1.076c0,0.893-0.277,0.893-1.173,0.893c-0.575,0-0.946-0.046-0.946-0.608H228.935"
   id="path9765" />
<polyline
   points="233.804,366.398 231.507,366.398 228.862,368.59 229.955,369.83 231.835,368.114 231.835,373.668 233.804,373.668   233.804,366.398 "
   id="polyline9767" />
<path
   fill="#C6C8CA"
   d="M257.376,443.286c0,1.446-1.172,2.618-2.617,2.618c-1.447,0-2.618-1.172-2.618-2.618  c0-1.447,1.171-2.62,2.618-2.62C256.204,440.666,257.376,441.839,257.376,443.286"
   id="path9769" />
<path
   fill="none"
   stroke="#000000"
   stroke-width="1.0114"
   d="M257.376,443.288c0,1.444-1.172,2.617-2.617,2.617  c-1.447,0-2.618-1.173-2.618-2.617c0-1.447,1.171-2.62,2.618-2.62C256.204,440.668,257.376,441.841,257.376,443.288"
   id="path9771" />
<polygon
   fill="none"
   stroke="#000000"
   stroke-width="1.0114"
   points="386.496,447.43 384.603,449.448 252.839,449.448   251.021,451.468 229.32,451.468 227.275,449.448 227.275,436.661 229.621,434.641 251.021,434.641 252.839,436.661 384.628,436.661   386.496,438.68 "
   id="polygon9773" />
<path
   fill="#C6C8CA"
   d="M257.376,425.08c0,1.445-1.172,2.617-2.617,2.617c-1.447,0-2.618-1.172-2.618-2.617  c0-1.447,1.171-2.62,2.618-2.62C256.204,422.46,257.376,423.633,257.376,425.08"
   id="path9775" />
<path
   fill="none"
   stroke="#000000"
   stroke-width="1.0114"
   d="M257.376,425.082c0,1.444-1.172,2.617-2.617,2.617  c-1.447,0-2.618-1.173-2.618-2.617c0-1.448,1.171-2.62,2.618-2.62C256.204,422.462,257.376,423.634,257.376,425.082"
   id="path9777" />
<polygon
   fill="none"
   stroke="#000000"
   stroke-width="1.0114"
   points="386.496,429.225 384.603,431.241 252.839,431.241   251.021,433.262 229.32,433.262 227.275,431.241 227.275,418.455 229.621,416.435 251.021,416.435 252.839,418.455 384.628,418.455   386.496,420.474 "
   id="polygon9779" />
<path
   fill="#C6C8CA"
   d="M257.376,406.873c0,1.445-1.172,2.617-2.617,2.617c-1.447,0-2.618-1.172-2.618-2.617  c0-1.448,1.171-2.619,2.618-2.619C256.204,404.254,257.376,405.425,257.376,406.873"
   id="path9781" />
<path
   fill="none"
   stroke="#000000"
   stroke-width="1.0114"
   d="M257.376,406.875c0,1.446-1.172,2.617-2.617,2.617  c-1.447,0-2.618-1.171-2.618-2.617c0-1.447,1.171-2.62,2.618-2.62C256.204,404.255,257.376,405.428,257.376,406.875"
   id="path9783" />
<polygon
   fill="none"
   stroke="#000000"
   stroke-width="1.0114"
   points="386.496,411.017 384.603,413.034 252.839,413.034   251.021,415.054 229.32,415.054 227.275,413.034 227.275,400.247 229.621,398.228 251.021,398.228 252.839,400.247 384.628,400.247   386.496,402.266 "
   id="polygon9785" />
<path
   fill="#C6C8CA"
   d="M257.376,388.666c0,1.445-1.172,2.619-2.617,2.619c-1.447,0-2.618-1.174-2.618-2.619  c0-1.446,1.171-2.618,2.618-2.618C256.204,386.047,257.376,387.22,257.376,388.666"
   id="path9787" />
<path
   fill="none"
   stroke="#000000"
   stroke-width="1.0114"
   d="M257.376,388.667c0,1.446-1.172,2.619-2.617,2.619  c-1.447,0-2.618-1.173-2.618-2.619c0-1.446,1.171-2.619,2.618-2.619C256.204,386.049,257.376,387.221,257.376,388.667"
   id="path9789" />
<polygon
   fill="none"
   stroke="#000000"
   stroke-width="1.0114"
   points="386.496,392.81 384.603,394.828 252.839,394.828   251.021,396.849 229.32,396.849 227.275,394.828 227.275,382.041 229.621,380.021 251.021,380.021 252.839,382.041 384.628,382.041   386.496,384.059 "
   id="polygon9791" />
<path
   fill="#C6C8CA"
   d="M257.376,370.458c0,1.446-1.172,2.62-2.617,2.62c-1.447,0-2.618-1.174-2.618-2.62s1.171-2.618,2.618-2.618  C256.204,367.84,257.376,369.012,257.376,370.458"
   id="path9793" />
<path
   fill="none"
   stroke="#000000"
   stroke-width="1.0114"
   d="M257.376,370.46c0,1.446-1.172,2.618-2.617,2.618  c-1.447,0-2.618-1.172-2.618-2.618c0-1.446,1.171-2.619,2.618-2.619C256.204,367.841,257.376,369.014,257.376,370.46"
   id="path9795" />
<polygon
   fill="none"
   stroke="#000000"
   stroke-width="1.0114"
   points="386.496,374.603 384.603,376.621 252.839,376.621   251.021,378.641 229.32,378.641 227.275,376.621 227.275,363.833 229.621,361.813 251.021,361.813 252.839,363.833 384.628,363.833   386.496,365.853 "
   id="polygon9797" />





</svg>