<?xml version="1.0" encoding="utf-8"?>
<!-- Generator: Adobe Illustrator 15.1.0, SVG Export Plug-In . SVG Version: 6.00 Build 0)  -->
<!DOCTYPE svg PUBLIC "-//W3C//DTD SVG 1.0//EN" "http://www.w3.org/TR/2001/REC-SVG-20010904/DTD/svg10.dtd">
<svg version="1.0" id="Layer_1" xmlns="http://www.w3.org/2000/svg" xmlns:xlink="http://www.w3.org/1999/xlink" x="0px" y="0px"
	 width="612px" height="792px" viewBox="0 0 612 792" enable-background="new 0 0 612 792" xml:space="preserve">
<path fill="none" stroke="#000000" stroke-width="0.5057" d="M265.196,731.563c0,1.445-1.172,2.617-2.62,2.617
	c-1.447,0-2.618-1.172-2.618-2.617c0-1.447,1.171-2.62,2.618-2.62C264.023,728.942,265.196,730.115,265.196,731.563"/>
<path fill="none" stroke="#000000" stroke-width="0.5057" d="M265.196,713.355c0,1.446-1.172,2.618-2.62,2.618
	c-1.447,0-2.618-1.172-2.618-2.618c0-1.447,1.171-2.619,2.618-2.619C264.023,710.736,265.196,711.908,265.196,713.355"/>
<path fill="none" stroke="#000000" stroke-width="0.5057" d="M265.196,695.149c0,1.446-1.172,2.618-2.62,2.618
	c-1.447,0-2.618-1.172-2.618-2.618c0-1.447,1.171-2.619,2.618-2.619C264.023,692.53,265.196,693.702,265.196,695.149"/>
<path fill="none" stroke="#000000" stroke-width="0.5057" d="M265.196,676.942c0,1.445-1.172,2.617-2.62,2.617
	c-1.447,0-2.618-1.172-2.618-2.617c0-1.447,1.171-2.62,2.618-2.62C264.023,674.322,265.196,675.495,265.196,676.942"/>
<path fill="none" stroke="#000000" stroke-width="0.5057" d="M265.196,658.735c0,1.446-1.172,2.617-2.62,2.617
	c-1.447,0-2.618-1.171-2.618-2.617c0-1.447,1.171-2.62,2.618-2.62C264.023,656.115,265.196,657.288,265.196,658.735"/>
<path fill="none" stroke="#000000" stroke-width="0.5057" d="M265.196,640.527c0,1.446-1.172,2.619-2.62,2.619
	c-1.447,0-2.618-1.173-2.618-2.619c0-1.447,1.171-2.619,2.618-2.619C264.023,637.908,265.196,639.08,265.196,640.527"/>
<path fill="none" stroke="#000000" stroke-width="0.5057" d="M272.196,731.563c0,1.445-1.172,2.617-2.62,2.617
	c-1.447,0-2.618-1.172-2.618-2.617c0-1.447,1.171-2.62,2.618-2.62C271.023,728.942,272.196,730.115,272.196,731.563"/>
<path fill="none" stroke="#000000" stroke-width="0.5057" d="M272.196,713.355c0,1.446-1.172,2.618-2.62,2.618
	c-1.447,0-2.618-1.172-2.618-2.618c0-1.447,1.171-2.619,2.618-2.619C271.023,710.736,272.196,711.908,272.196,713.355"/>
<path fill="none" stroke="#000000" stroke-width="0.5057" d="M272.196,695.149c0,1.446-1.172,2.618-2.62,2.618
	c-1.447,0-2.618-1.172-2.618-2.618c0-1.447,1.171-2.619,2.618-2.619C271.023,692.53,272.196,693.702,272.196,695.149"/>
<path fill="none" stroke="#000000" stroke-width="0.5057" d="M272.196,676.942c0,1.445-1.172,2.617-2.62,2.617
	c-1.447,0-2.618-1.172-2.618-2.617c0-1.447,1.171-2.62,2.618-2.62C271.023,674.322,272.196,675.495,272.196,676.942"/>
<path fill="none" stroke="#000000" stroke-width="0.5057" d="M272.196,658.735c0,1.446-1.172,2.617-2.62,2.617
	c-1.447,0-2.618-1.171-2.618-2.617c0-1.447,1.171-2.62,2.618-2.62C271.023,656.115,272.196,657.288,272.196,658.735"/>
<path fill="none" stroke="#000000" stroke-width="0.5057" d="M272.196,640.527c0,1.446-1.172,2.619-2.62,2.619
	c-1.447,0-2.618-1.173-2.618-2.619c0-1.447,1.171-2.619,2.618-2.619C271.023,637.908,272.196,639.08,272.196,640.527"/>
<path fill="none" stroke="#000000" stroke-width="0.5057" d="M279.196,731.563c0,1.445-1.172,2.617-2.62,2.617
	c-1.447,0-2.618-1.172-2.618-2.617c0-1.447,1.171-2.62,2.618-2.62C278.023,728.942,279.196,730.115,279.196,731.563"/>
<path fill="none" stroke="#000000" stroke-width="0.5057" d="M279.196,713.355c0,1.446-1.172,2.618-2.62,2.618
	c-1.447,0-2.618-1.172-2.618-2.618c0-1.447,1.171-2.619,2.618-2.619C278.023,710.736,279.196,711.908,279.196,713.355"/>
<path fill="none" stroke="#000000" stroke-width="0.5057" d="M279.196,695.149c0,1.446-1.172,2.618-2.62,2.618
	c-1.447,0-2.618-1.172-2.618-2.618c0-1.447,1.171-2.619,2.618-2.619C278.023,692.53,279.196,693.702,279.196,695.149"/>
<path fill="none" stroke="#000000" stroke-width="0.5057" d="M279.196,676.942c0,1.445-1.172,2.617-2.62,2.617
	c-1.447,0-2.618-1.172-2.618-2.617c0-1.447,1.171-2.62,2.618-2.62C278.023,674.322,279.196,675.495,279.196,676.942"/>
<path fill="none" stroke="#000000" stroke-width="0.5057" d="M279.196,658.735c0,1.446-1.172,2.617-2.62,2.617
	c-1.447,0-2.618-1.171-2.618-2.617c0-1.447,1.171-2.62,2.618-2.62C278.023,656.115,279.196,657.288,279.196,658.735"/>
<path fill="none" stroke="#000000" stroke-width="0.5057" d="M279.196,640.527c0,1.446-1.172,2.619-2.62,2.619
	c-1.447,0-2.618-1.173-2.618-2.619c0-1.447,1.171-2.619,2.618-2.619C278.023,637.908,279.196,639.08,279.196,640.527"/>
<path fill="none" stroke="#000000" stroke-width="0.5057" d="M286.196,731.563c0,1.445-1.172,2.617-2.62,2.617
	c-1.447,0-2.618-1.172-2.618-2.617c0-1.447,1.171-2.62,2.618-2.62C285.023,728.942,286.196,730.115,286.196,731.563"/>
<path fill="none" stroke="#000000" stroke-width="0.5057" d="M286.196,713.355c0,1.446-1.172,2.618-2.62,2.618
	c-1.447,0-2.618-1.172-2.618-2.618c0-1.447,1.171-2.619,2.618-2.619C285.023,710.736,286.196,711.908,286.196,713.355"/>
<path fill="none" stroke="#000000" stroke-width="0.5057" d="M286.196,695.149c0,1.446-1.172,2.618-2.62,2.618
	c-1.447,0-2.618-1.172-2.618-2.618c0-1.447,1.171-2.619,2.618-2.619C285.023,692.53,286.196,693.702,286.196,695.149"/>
<path fill="none" stroke="#000000" stroke-width="0.5057" d="M286.196,676.942c0,1.445-1.172,2.617-2.62,2.617
	c-1.447,0-2.618-1.172-2.618-2.617c0-1.447,1.171-2.62,2.618-2.62C285.023,674.322,286.196,675.495,286.196,676.942"/>
<path fill="none" stroke="#000000" stroke-width="0.5057" d="M286.196,658.735c0,1.446-1.172,2.617-2.62,2.617
	c-1.447,0-2.618-1.171-2.618-2.617c0-1.447,1.171-2.62,2.618-2.62C285.023,656.115,286.196,657.288,286.196,658.735"/>
<path fill="none" stroke="#000000" stroke-width="0.5057" d="M286.196,640.527c0,1.446-1.172,2.619-2.62,2.619
	c-1.447,0-2.618-1.173-2.618-2.619c0-1.447,1.171-2.619,2.618-2.619C285.023,637.908,286.196,639.08,286.196,640.527"/>
<path fill="none" stroke="#000000" stroke-width="0.5057" d="M293.196,731.563c0,1.445-1.172,2.617-2.62,2.617
	c-1.447,0-2.618-1.172-2.618-2.617c0-1.447,1.171-2.62,2.618-2.62C292.023,728.942,293.196,730.115,293.196,731.563"/>
<path fill="none" stroke="#000000" stroke-width="0.5057" d="M293.196,713.355c0,1.446-1.172,2.618-2.62,2.618
	c-1.447,0-2.618-1.172-2.618-2.618c0-1.447,1.171-2.619,2.618-2.619C292.023,710.736,293.196,711.908,293.196,713.355"/>
<path fill="none" stroke="#000000" stroke-width="0.5057" d="M293.196,695.149c0,1.446-1.172,2.618-2.62,2.618
	c-1.447,0-2.618-1.172-2.618-2.618c0-1.447,1.171-2.619,2.618-2.619C292.023,692.53,293.196,693.702,293.196,695.149"/>
<path fill="none" stroke="#000000" stroke-width="0.5057" d="M293.196,676.942c0,1.445-1.172,2.617-2.62,2.617
	c-1.447,0-2.618-1.172-2.618-2.617c0-1.447,1.171-2.62,2.618-2.62C292.023,674.322,293.196,675.495,293.196,676.942"/>
<path fill="none" stroke="#000000" stroke-width="0.5057" d="M293.196,658.735c0,1.446-1.172,2.617-2.62,2.617
	c-1.447,0-2.618-1.171-2.618-2.617c0-1.447,1.171-2.62,2.618-2.62C292.023,656.115,293.196,657.288,293.196,658.735"/>
<path fill="none" stroke="#000000" stroke-width="0.5057" d="M293.196,640.527c0,1.446-1.172,2.619-2.62,2.619
	c-1.447,0-2.618-1.173-2.618-2.619c0-1.447,1.171-2.619,2.618-2.619C292.023,637.908,293.196,639.08,293.196,640.527"/>
<path fill="none" stroke="#000000" stroke-width="0.5057" d="M300.196,731.563c0,1.445-1.172,2.617-2.62,2.617
	c-1.447,0-2.618-1.172-2.618-2.617c0-1.447,1.171-2.62,2.618-2.62C299.023,728.942,300.196,730.115,300.196,731.563"/>
<path fill="none" stroke="#000000" stroke-width="0.5057" d="M300.196,713.355c0,1.446-1.172,2.618-2.62,2.618
	c-1.447,0-2.618-1.172-2.618-2.618c0-1.447,1.171-2.619,2.618-2.619C299.023,710.736,300.196,711.908,300.196,713.355"/>
<path fill="none" stroke="#000000" stroke-width="0.5057" d="M300.196,695.149c0,1.446-1.172,2.618-2.62,2.618
	c-1.447,0-2.618-1.172-2.618-2.618c0-1.447,1.171-2.619,2.618-2.619C299.023,692.53,300.196,693.702,300.196,695.149"/>
<path fill="none" stroke="#000000" stroke-width="0.5057" d="M300.196,676.942c0,1.445-1.172,2.617-2.62,2.617
	c-1.447,0-2.618-1.172-2.618-2.617c0-1.447,1.171-2.62,2.618-2.62C299.023,674.322,300.196,675.495,300.196,676.942"/>
<path fill="none" stroke="#000000" stroke-width="0.5057" d="M300.196,658.735c0,1.446-1.172,2.617-2.62,2.617
	c-1.447,0-2.618-1.171-2.618-2.617c0-1.447,1.171-2.62,2.618-2.62C299.023,656.115,300.196,657.288,300.196,658.735"/>
<path fill="none" stroke="#000000" stroke-width="0.5057" d="M300.196,640.527c0,1.446-1.172,2.619-2.62,2.619
	c-1.447,0-2.618-1.173-2.618-2.619c0-1.447,1.171-2.619,2.618-2.619C299.023,637.908,300.196,639.08,300.196,640.527"/>
<path fill="none" stroke="#000000" stroke-width="0.5057" d="M307.195,731.563c0,1.445-1.172,2.617-2.619,2.617
	c-1.447,0-2.618-1.172-2.618-2.617c0-1.447,1.171-2.62,2.618-2.62C306.023,728.942,307.195,730.115,307.195,731.563"/>
<path fill="none" stroke="#000000" stroke-width="0.5057" d="M307.195,713.355c0,1.446-1.172,2.618-2.619,2.618
	c-1.447,0-2.618-1.172-2.618-2.618c0-1.447,1.171-2.619,2.618-2.619C306.023,710.736,307.195,711.908,307.195,713.355"/>
<path fill="none" stroke="#000000" stroke-width="0.5057" d="M307.195,695.149c0,1.446-1.172,2.618-2.619,2.618
	c-1.447,0-2.618-1.172-2.618-2.618c0-1.447,1.171-2.619,2.618-2.619C306.023,692.53,307.195,693.702,307.195,695.149"/>
<path fill="none" stroke="#000000" stroke-width="0.5057" d="M307.195,676.942c0,1.445-1.172,2.617-2.619,2.617
	c-1.447,0-2.618-1.172-2.618-2.617c0-1.447,1.171-2.62,2.618-2.62C306.023,674.322,307.195,675.495,307.195,676.942"/>
<path fill="none" stroke="#000000" stroke-width="0.5057" d="M307.195,658.735c0,1.446-1.172,2.617-2.619,2.617
	c-1.447,0-2.618-1.171-2.618-2.617c0-1.447,1.171-2.62,2.618-2.62C306.023,656.115,307.195,657.288,307.195,658.735"/>
<path fill="none" stroke="#000000" stroke-width="0.5057" d="M307.195,640.527c0,1.446-1.172,2.619-2.619,2.619
	c-1.447,0-2.618-1.173-2.618-2.619c0-1.447,1.171-2.619,2.618-2.619C306.023,637.908,307.195,639.08,307.195,640.527"/>
<path fill="none" stroke="#000000" stroke-width="0.5057" d="M314.195,731.563c0,1.445-1.172,2.617-2.619,2.617
	s-2.618-1.172-2.618-2.617c0-1.447,1.171-2.62,2.618-2.62S314.195,730.115,314.195,731.563"/>
<path fill="none" stroke="#000000" stroke-width="0.5057" d="M314.195,713.355c0,1.446-1.172,2.618-2.619,2.618
	s-2.618-1.172-2.618-2.618c0-1.447,1.171-2.619,2.618-2.619S314.195,711.908,314.195,713.355"/>
<path fill="none" stroke="#000000" stroke-width="0.5057" d="M314.195,695.149c0,1.446-1.172,2.618-2.619,2.618
	s-2.618-1.172-2.618-2.618c0-1.447,1.171-2.619,2.618-2.619S314.195,693.702,314.195,695.149"/>
<path fill="none" stroke="#000000" stroke-width="0.5057" d="M314.195,676.942c0,1.445-1.172,2.617-2.619,2.617
	s-2.618-1.172-2.618-2.617c0-1.447,1.171-2.62,2.618-2.62S314.195,675.495,314.195,676.942"/>
<path fill="none" stroke="#000000" stroke-width="0.5057" d="M314.195,658.735c0,1.446-1.172,2.617-2.619,2.617
	s-2.618-1.171-2.618-2.617c0-1.447,1.171-2.62,2.618-2.62S314.195,657.288,314.195,658.735"/>
<path fill="none" stroke="#000000" stroke-width="0.5057" d="M314.195,640.527c0,1.446-1.172,2.619-2.619,2.619
	s-2.618-1.173-2.618-2.619c0-1.447,1.171-2.619,2.618-2.619S314.195,639.08,314.195,640.527"/>
<path fill="none" stroke="#000000" stroke-width="0.5057" d="M321.195,731.563c0,1.445-1.172,2.617-2.619,2.617
	s-2.618-1.172-2.618-2.617c0-1.447,1.171-2.62,2.618-2.62S321.195,730.115,321.195,731.563"/>
<path fill="none" stroke="#000000" stroke-width="0.5057" d="M321.195,713.355c0,1.446-1.172,2.618-2.619,2.618
	s-2.618-1.172-2.618-2.618c0-1.447,1.171-2.619,2.618-2.619S321.195,711.908,321.195,713.355"/>
<path fill="none" stroke="#000000" stroke-width="0.5057" d="M321.195,695.149c0,1.446-1.172,2.618-2.619,2.618
	s-2.618-1.172-2.618-2.618c0-1.447,1.171-2.619,2.618-2.619S321.195,693.702,321.195,695.149"/>
<path fill="none" stroke="#000000" stroke-width="0.5057" d="M321.195,676.942c0,1.445-1.172,2.617-2.619,2.617
	s-2.618-1.172-2.618-2.617c0-1.447,1.171-2.62,2.618-2.62S321.195,675.495,321.195,676.942"/>
<path fill="none" stroke="#000000" stroke-width="0.5057" d="M321.195,658.735c0,1.446-1.172,2.617-2.619,2.617
	s-2.618-1.171-2.618-2.617c0-1.447,1.171-2.62,2.618-2.62S321.195,657.288,321.195,658.735"/>
<path fill="none" stroke="#000000" stroke-width="0.5057" d="M321.195,640.527c0,1.446-1.172,2.619-2.619,2.619
	s-2.618-1.173-2.618-2.619c0-1.447,1.171-2.619,2.618-2.619S321.195,639.08,321.195,640.527"/>
<path fill="none" stroke="#000000" stroke-width="0.5057" d="M328.195,731.563c0,1.445-1.172,2.617-2.619,2.617
	s-2.618-1.172-2.618-2.617c0-1.447,1.171-2.62,2.618-2.62S328.195,730.115,328.195,731.563"/>
<path fill="none" stroke="#000000" stroke-width="0.5057" d="M328.195,713.355c0,1.446-1.172,2.618-2.619,2.618
	s-2.618-1.172-2.618-2.618c0-1.447,1.171-2.619,2.618-2.619S328.195,711.908,328.195,713.355"/>
<path fill="none" stroke="#000000" stroke-width="0.5057" d="M328.195,695.149c0,1.446-1.172,2.618-2.619,2.618
	s-2.618-1.172-2.618-2.618c0-1.447,1.171-2.619,2.618-2.619S328.195,693.702,328.195,695.149"/>
<path fill="none" stroke="#000000" stroke-width="0.5057" d="M328.195,676.942c0,1.445-1.172,2.617-2.619,2.617
	s-2.618-1.172-2.618-2.617c0-1.447,1.171-2.62,2.618-2.62S328.195,675.495,328.195,676.942"/>
<path fill="none" stroke="#000000" stroke-width="0.5057" d="M328.195,658.735c0,1.446-1.172,2.617-2.619,2.617
	s-2.618-1.171-2.618-2.617c0-1.447,1.171-2.62,2.618-2.62S328.195,657.288,328.195,658.735"/>
<path fill="none" stroke="#000000" stroke-width="0.5057" d="M328.195,640.527c0,1.446-1.172,2.619-2.619,2.619
	s-2.618-1.173-2.618-2.619c0-1.447,1.171-2.619,2.618-2.619S328.195,639.08,328.195,640.527"/>
<path fill="none" stroke="#000000" stroke-width="0.5057" d="M335.195,731.563c0,1.445-1.172,2.617-2.619,2.617
	s-2.618-1.172-2.618-2.617c0-1.447,1.171-2.62,2.618-2.62S335.195,730.115,335.195,731.563"/>
<path fill="none" stroke="#000000" stroke-width="0.5057" d="M335.195,713.355c0,1.446-1.172,2.618-2.619,2.618
	s-2.618-1.172-2.618-2.618c0-1.447,1.171-2.619,2.618-2.619S335.195,711.908,335.195,713.355"/>
<path fill="none" stroke="#000000" stroke-width="0.5057" d="M335.195,695.149c0,1.446-1.172,2.618-2.619,2.618
	s-2.618-1.172-2.618-2.618c0-1.447,1.171-2.619,2.618-2.619S335.195,693.702,335.195,695.149"/>
<path fill="none" stroke="#000000" stroke-width="0.5057" d="M335.195,676.942c0,1.445-1.172,2.617-2.619,2.617
	s-2.618-1.172-2.618-2.617c0-1.447,1.171-2.62,2.618-2.62S335.195,675.495,335.195,676.942"/>
<path fill="none" stroke="#000000" stroke-width="0.5057" d="M335.195,658.735c0,1.446-1.172,2.617-2.619,2.617
	s-2.618-1.171-2.618-2.617c0-1.447,1.171-2.62,2.618-2.62S335.195,657.288,335.195,658.735"/>
<path fill="none" stroke="#000000" stroke-width="0.5057" d="M335.195,640.527c0,1.446-1.172,2.619-2.619,2.619
	s-2.618-1.173-2.618-2.619c0-1.447,1.171-2.619,2.618-2.619S335.195,639.08,335.195,640.527"/>
<path fill="none" stroke="#000000" stroke-width="0.5057" d="M342.195,731.563c0,1.445-1.172,2.617-2.619,2.617
	s-2.618-1.172-2.618-2.617c0-1.447,1.171-2.62,2.618-2.62S342.195,730.115,342.195,731.563"/>
<path fill="none" stroke="#000000" stroke-width="0.5057" d="M342.195,713.355c0,1.446-1.172,2.618-2.619,2.618
	s-2.618-1.172-2.618-2.618c0-1.447,1.171-2.619,2.618-2.619S342.195,711.908,342.195,713.355"/>
<path fill="none" stroke="#000000" stroke-width="0.5057" d="M342.195,695.149c0,1.446-1.172,2.618-2.619,2.618
	s-2.618-1.172-2.618-2.618c0-1.447,1.171-2.619,2.618-2.619S342.195,693.702,342.195,695.149"/>
<path fill="none" stroke="#000000" stroke-width="0.5057" d="M342.195,676.942c0,1.445-1.172,2.617-2.619,2.617
	s-2.618-1.172-2.618-2.617c0-1.447,1.171-2.62,2.618-2.62S342.195,675.495,342.195,676.942"/>
<path fill="none" stroke="#000000" stroke-width="0.5057" d="M342.195,658.735c0,1.446-1.172,2.617-2.619,2.617
	s-2.618-1.171-2.618-2.617c0-1.447,1.171-2.62,2.618-2.62S342.195,657.288,342.195,658.735"/>
<path fill="none" stroke="#000000" stroke-width="0.5057" d="M342.195,640.527c0,1.446-1.172,2.619-2.619,2.619
	s-2.618-1.173-2.618-2.619c0-1.447,1.171-2.619,2.618-2.619S342.195,639.08,342.195,640.527"/>
<path fill="none" stroke="#000000" stroke-width="0.5057" d="M349.195,731.563c0,1.445-1.172,2.617-2.619,2.617
	s-2.618-1.172-2.618-2.617c0-1.447,1.171-2.62,2.618-2.62S349.195,730.115,349.195,731.563"/>
<path fill="none" stroke="#000000" stroke-width="0.5057" d="M349.195,713.355c0,1.446-1.172,2.618-2.619,2.618
	s-2.618-1.172-2.618-2.618c0-1.447,1.171-2.619,2.618-2.619S349.195,711.908,349.195,713.355"/>
<path fill="none" stroke="#000000" stroke-width="0.5057" d="M349.195,695.149c0,1.446-1.172,2.618-2.619,2.618
	s-2.618-1.172-2.618-2.618c0-1.447,1.171-2.619,2.618-2.619S349.195,693.702,349.195,695.149"/>
<path fill="none" stroke="#000000" stroke-width="0.5057" d="M349.195,676.942c0,1.445-1.172,2.617-2.619,2.617
	s-2.618-1.172-2.618-2.617c0-1.447,1.171-2.62,2.618-2.62S349.195,675.495,349.195,676.942"/>
<path fill="none" stroke="#000000" stroke-width="0.5057" d="M349.195,658.735c0,1.446-1.172,2.617-2.619,2.617
	s-2.618-1.171-2.618-2.617c0-1.447,1.171-2.62,2.618-2.62S349.195,657.288,349.195,658.735"/>
<path fill="none" stroke="#000000" stroke-width="0.5057" d="M349.195,640.527c0,1.446-1.172,2.619-2.619,2.619
	s-2.618-1.173-2.618-2.619c0-1.447,1.171-2.619,2.618-2.619S349.195,639.08,349.195,640.527"/>
<path fill="none" stroke="#000000" stroke-width="0.5057" d="M356.195,731.563c0,1.445-1.172,2.617-2.619,2.617
	s-2.618-1.172-2.618-2.617c0-1.447,1.171-2.62,2.618-2.62S356.195,730.115,356.195,731.563"/>
<path fill="none" stroke="#000000" stroke-width="0.5057" d="M356.195,713.355c0,1.446-1.172,2.618-2.619,2.618
	s-2.618-1.172-2.618-2.618c0-1.447,1.171-2.619,2.618-2.619S356.195,711.908,356.195,713.355"/>
<path fill="none" stroke="#000000" stroke-width="0.5057" d="M356.195,695.149c0,1.446-1.172,2.618-2.619,2.618
	s-2.618-1.172-2.618-2.618c0-1.447,1.171-2.619,2.618-2.619S356.195,693.702,356.195,695.149"/>
<path fill="none" stroke="#000000" stroke-width="0.5057" d="M356.195,676.942c0,1.445-1.172,2.617-2.619,2.617
	s-2.618-1.172-2.618-2.617c0-1.447,1.171-2.62,2.618-2.62S356.195,675.495,356.195,676.942"/>
<path fill="none" stroke="#000000" stroke-width="0.5057" d="M356.195,658.735c0,1.446-1.172,2.617-2.619,2.617
	s-2.618-1.171-2.618-2.617c0-1.447,1.171-2.62,2.618-2.62S356.195,657.288,356.195,658.735"/>
<path fill="none" stroke="#000000" stroke-width="0.5057" d="M356.195,640.527c0,1.446-1.172,2.619-2.619,2.619
	s-2.618-1.173-2.618-2.619c0-1.447,1.171-2.619,2.618-2.619S356.195,639.08,356.195,640.527"/>
</svg>
