<?xml version="1.0" encoding="utf-8"?>
<!-- Generator: Adobe Illustrator 15.1.0, SVG Export Plug-In . SVG Version: 6.00 Build 0)  -->
<!DOCTYPE svg PUBLIC "-//W3C//DTD SVG 1.0//EN" "http://www.w3.org/TR/2001/REC-SVG-20010904/DTD/svg10.dtd">
<svg version="1.0" id="Layer_1" xmlns="http://www.w3.org/2000/svg" xmlns:xlink="http://www.w3.org/1999/xlink" x="0px" y="0px"
	 width="612px" height="792px" viewBox="0 0 612 792" enable-background="new 0 0 612 792" xml:space="preserve">
<path fill="none" stroke="#000000" stroke-width="0.5057" d="M265.196,173.221c0,1.445-1.172,2.619-2.62,2.619
	c-1.447,0-2.618-1.174-2.618-2.619c0-1.447,1.171-2.62,2.618-2.62C264.023,170.602,265.196,171.774,265.196,173.221"/>
<path fill="none" stroke="#000000" stroke-width="0.5057" d="M265.196,155.014c0,1.445-1.172,2.618-2.62,2.618
	c-1.447,0-2.618-1.173-2.618-2.618c0-1.448,1.171-2.62,2.618-2.62C264.023,152.394,265.196,153.566,265.196,155.014"/>
<path fill="none" stroke="#000000" stroke-width="0.5057" d="M265.196,136.807c0,1.445-1.172,2.619-2.62,2.619
	c-1.447,0-2.618-1.174-2.618-2.619c0-1.446,1.171-2.619,2.618-2.619C264.023,134.189,265.196,135.361,265.196,136.807"/>
<path fill="none" stroke="#000000" stroke-width="0.5057" d="M265.196,118.599c0,1.446-1.172,2.62-2.62,2.62
	c-1.447,0-2.618-1.174-2.618-2.62c0-1.446,1.171-2.619,2.618-2.619C264.023,115.981,265.196,117.154,265.196,118.599"/>
<path fill="none" stroke="#000000" stroke-width="0.5057" d="M265.196,100.393c0,1.445-1.172,2.619-2.62,2.619
	c-1.447,0-2.618-1.173-2.618-2.619c0-1.446,1.171-2.618,2.618-2.618C264.023,97.775,265.196,98.947,265.196,100.393"/>
</svg>
