<?xml version="1.0" encoding="utf-8"?>
<!-- Generator: Adobe Illustrator 15.1.0, SVG Export Plug-In . SVG Version: 6.00 Build 0)  -->
<!DOCTYPE svg PUBLIC "-//W3C//DTD SVG 1.0//EN" "http://www.w3.org/TR/2001/REC-SVG-20010904/DTD/svg10.dtd">
<svg version="1.0" id="Layer_1" xmlns="http://www.w3.org/2000/svg" xmlns:xlink="http://www.w3.org/1999/xlink" x="0px" y="0px"
	 width="612px" height="792px" viewBox="0 0 612 792" enable-background="new 0 0 612 792" xml:space="preserve">
<path fill="none" stroke="#000000" stroke-width="0.5057" d="M265.196,695.149c0,1.446-1.172,2.618-2.62,2.618
	c-1.447,0-2.618-1.172-2.618-2.618c0-1.447,1.171-2.619,2.618-2.619S265.196,693.701,265.196,695.149"/>
<path fill="none" stroke="#000000" stroke-width="0.5057" d="M265.196,676.942c0,1.445-1.172,2.617-2.62,2.617
	c-1.447,0-2.618-1.172-2.618-2.617c0-1.447,1.171-2.62,2.618-2.62S265.196,675.494,265.196,676.942"/>
<path fill="none" stroke="#000000" stroke-width="0.5057" d="M265.196,658.735c0,1.446-1.172,2.617-2.62,2.617
	c-1.447,0-2.618-1.171-2.618-2.617c0-1.447,1.171-2.62,2.618-2.62S265.196,657.287,265.196,658.735"/>
<path fill="none" stroke="#000000" stroke-width="0.5057" d="M265.196,640.527c0,1.446-1.172,2.619-2.62,2.619
	c-1.447,0-2.618-1.173-2.618-2.619c0-1.447,1.171-2.619,2.618-2.619S265.196,639.079,265.196,640.527"/>
<path fill="none" stroke="#000000" stroke-width="0.5057" d="M272.196,695.149c0,1.446-1.172,2.618-2.62,2.618
	c-1.447,0-2.618-1.172-2.618-2.618c0-1.447,1.171-2.619,2.618-2.619S272.196,693.701,272.196,695.149"/>
<path fill="none" stroke="#000000" stroke-width="0.5057" d="M272.196,676.942c0,1.445-1.172,2.617-2.62,2.617
	c-1.447,0-2.618-1.172-2.618-2.617c0-1.447,1.171-2.62,2.618-2.62S272.196,675.494,272.196,676.942"/>
<path fill="none" stroke="#000000" stroke-width="0.5057" d="M272.196,658.735c0,1.446-1.172,2.617-2.62,2.617
	c-1.447,0-2.618-1.171-2.618-2.617c0-1.447,1.171-2.62,2.618-2.62S272.196,657.287,272.196,658.735"/>
<path fill="none" stroke="#000000" stroke-width="0.5057" d="M272.196,640.527c0,1.446-1.172,2.619-2.62,2.619
	c-1.447,0-2.618-1.173-2.618-2.619c0-1.447,1.171-2.619,2.618-2.619S272.196,639.079,272.196,640.527"/>
<path fill="none" stroke="#000000" stroke-width="0.5057" d="M279.196,695.149c0,1.446-1.172,2.618-2.62,2.618
	c-1.447,0-2.618-1.172-2.618-2.618c0-1.447,1.171-2.619,2.618-2.619S279.196,693.701,279.196,695.149"/>
<path fill="none" stroke="#000000" stroke-width="0.5057" d="M279.196,676.942c0,1.445-1.172,2.617-2.62,2.617
	c-1.447,0-2.618-1.172-2.618-2.617c0-1.447,1.171-2.62,2.618-2.62S279.196,675.494,279.196,676.942"/>
<path fill="none" stroke="#000000" stroke-width="0.5057" d="M279.196,658.735c0,1.446-1.172,2.617-2.62,2.617
	c-1.447,0-2.618-1.171-2.618-2.617c0-1.447,1.171-2.62,2.618-2.62S279.196,657.287,279.196,658.735"/>
<path fill="none" stroke="#000000" stroke-width="0.5057" d="M279.196,640.527c0,1.446-1.172,2.619-2.62,2.619
	c-1.447,0-2.618-1.173-2.618-2.619c0-1.447,1.171-2.619,2.618-2.619S279.196,639.079,279.196,640.527"/>
<path fill="none" stroke="#000000" stroke-width="0.5057" d="M286.196,695.149c0,1.446-1.172,2.618-2.62,2.618
	c-1.447,0-2.618-1.172-2.618-2.618c0-1.447,1.171-2.619,2.618-2.619S286.196,693.701,286.196,695.149"/>
<path fill="none" stroke="#000000" stroke-width="0.5057" d="M286.196,676.942c0,1.445-1.172,2.617-2.62,2.617
	c-1.447,0-2.618-1.172-2.618-2.617c0-1.447,1.171-2.62,2.618-2.62S286.196,675.494,286.196,676.942"/>
<path fill="none" stroke="#000000" stroke-width="0.5057" d="M286.196,658.735c0,1.446-1.172,2.617-2.62,2.617
	c-1.447,0-2.618-1.171-2.618-2.617c0-1.447,1.171-2.62,2.618-2.62S286.196,657.287,286.196,658.735"/>
<path fill="none" stroke="#000000" stroke-width="0.5057" d="M286.196,640.527c0,1.446-1.172,2.619-2.62,2.619
	c-1.447,0-2.618-1.173-2.618-2.619c0-1.447,1.171-2.619,2.618-2.619S286.196,639.079,286.196,640.527"/>
<path fill="none" stroke="#000000" stroke-width="0.5057" d="M293.196,695.149c0,1.446-1.172,2.618-2.62,2.618
	c-1.447,0-2.618-1.172-2.618-2.618c0-1.447,1.171-2.619,2.618-2.619S293.196,693.701,293.196,695.149"/>
<path fill="none" stroke="#000000" stroke-width="0.5057" d="M293.196,676.942c0,1.445-1.172,2.617-2.62,2.617
	c-1.447,0-2.618-1.172-2.618-2.617c0-1.447,1.171-2.62,2.618-2.62S293.196,675.494,293.196,676.942"/>
<path fill="none" stroke="#000000" stroke-width="0.5057" d="M293.196,658.735c0,1.446-1.172,2.617-2.62,2.617
	c-1.447,0-2.618-1.171-2.618-2.617c0-1.447,1.171-2.62,2.618-2.62S293.196,657.287,293.196,658.735"/>
<path fill="none" stroke="#000000" stroke-width="0.5057" d="M293.196,640.527c0,1.446-1.172,2.619-2.62,2.619
	c-1.447,0-2.618-1.173-2.618-2.619c0-1.447,1.171-2.619,2.618-2.619S293.196,639.079,293.196,640.527"/>
<path fill="none" stroke="#000000" stroke-width="0.5057" d="M300.196,695.149c0,1.446-1.172,2.618-2.62,2.618
	c-1.447,0-2.618-1.172-2.618-2.618c0-1.447,1.171-2.619,2.618-2.619S300.196,693.701,300.196,695.149"/>
<path fill="none" stroke="#000000" stroke-width="0.5057" d="M300.196,676.942c0,1.445-1.172,2.617-2.62,2.617
	c-1.447,0-2.618-1.172-2.618-2.617c0-1.447,1.171-2.62,2.618-2.62S300.196,675.494,300.196,676.942"/>
<path fill="none" stroke="#000000" stroke-width="0.5057" d="M300.196,658.735c0,1.446-1.172,2.617-2.62,2.617
	c-1.447,0-2.618-1.171-2.618-2.617c0-1.447,1.171-2.62,2.618-2.62S300.196,657.287,300.196,658.735"/>
<path fill="none" stroke="#000000" stroke-width="0.5057" d="M300.196,640.527c0,1.446-1.172,2.619-2.62,2.619
	c-1.447,0-2.618-1.173-2.618-2.619c0-1.447,1.171-2.619,2.618-2.619S300.196,639.079,300.196,640.527"/>
<path fill="none" stroke="#000000" stroke-width="0.5057" d="M307.195,695.149c0,1.446-1.172,2.618-2.619,2.618
	c-1.446,0-2.617-1.172-2.617-2.618c0-1.447,1.171-2.619,2.617-2.619C306.023,692.53,307.195,693.701,307.195,695.149"/>
<path fill="none" stroke="#000000" stroke-width="0.5057" d="M307.195,676.942c0,1.445-1.172,2.617-2.619,2.617
	c-1.446,0-2.617-1.172-2.617-2.617c0-1.447,1.171-2.62,2.617-2.62C306.023,674.322,307.195,675.494,307.195,676.942"/>
<path fill="none" stroke="#000000" stroke-width="0.5057" d="M307.195,658.735c0,1.446-1.172,2.617-2.619,2.617
	c-1.446,0-2.617-1.171-2.617-2.617c0-1.447,1.171-2.62,2.617-2.62C306.023,656.115,307.195,657.287,307.195,658.735"/>
<path fill="none" stroke="#000000" stroke-width="0.5057" d="M307.195,640.527c0,1.446-1.172,2.619-2.619,2.619
	c-1.446,0-2.617-1.173-2.617-2.619c0-1.447,1.171-2.619,2.617-2.619C306.023,637.907,307.195,639.079,307.195,640.527"/>
<path fill="none" stroke="#000000" stroke-width="0.5057" d="M314.195,695.149c0,1.446-1.172,2.618-2.619,2.618
	c-1.446,0-2.617-1.172-2.617-2.618c0-1.447,1.171-2.619,2.617-2.619C313.023,692.53,314.195,693.701,314.195,695.149"/>
<path fill="none" stroke="#000000" stroke-width="0.5057" d="M314.195,676.942c0,1.445-1.172,2.617-2.619,2.617
	c-1.446,0-2.617-1.172-2.617-2.617c0-1.447,1.171-2.62,2.617-2.62C313.023,674.322,314.195,675.494,314.195,676.942"/>
<path fill="none" stroke="#000000" stroke-width="0.5057" d="M314.195,658.735c0,1.446-1.172,2.617-2.619,2.617
	c-1.446,0-2.617-1.171-2.617-2.617c0-1.447,1.171-2.62,2.617-2.62C313.023,656.115,314.195,657.287,314.195,658.735"/>
<path fill="none" stroke="#000000" stroke-width="0.5057" d="M314.195,640.527c0,1.446-1.172,2.619-2.619,2.619
	c-1.446,0-2.617-1.173-2.617-2.619c0-1.447,1.171-2.619,2.617-2.619C313.023,637.907,314.195,639.079,314.195,640.527"/>
<path fill="none" stroke="#000000" stroke-width="0.5057" d="M321.195,695.149c0,1.446-1.172,2.618-2.619,2.618
	c-1.446,0-2.617-1.172-2.617-2.618c0-1.447,1.171-2.619,2.617-2.619C320.023,692.53,321.195,693.701,321.195,695.149"/>
<path fill="none" stroke="#000000" stroke-width="0.5057" d="M321.195,676.942c0,1.445-1.172,2.617-2.619,2.617
	c-1.446,0-2.617-1.172-2.617-2.617c0-1.447,1.171-2.62,2.617-2.62C320.023,674.322,321.195,675.494,321.195,676.942"/>
<path fill="none" stroke="#000000" stroke-width="0.5057" d="M321.195,658.735c0,1.446-1.172,2.617-2.619,2.617
	c-1.446,0-2.617-1.171-2.617-2.617c0-1.447,1.171-2.62,2.617-2.62C320.023,656.115,321.195,657.287,321.195,658.735"/>
<path fill="none" stroke="#000000" stroke-width="0.5057" d="M321.195,640.527c0,1.446-1.172,2.619-2.619,2.619
	c-1.446,0-2.617-1.173-2.617-2.619c0-1.447,1.171-2.619,2.617-2.619C320.023,637.907,321.195,639.079,321.195,640.527"/>
<path fill="none" stroke="#000000" stroke-width="0.5057" d="M328.195,695.149c0,1.446-1.172,2.618-2.619,2.618
	c-1.446,0-2.617-1.172-2.617-2.618c0-1.447,1.171-2.619,2.617-2.619C327.023,692.53,328.195,693.701,328.195,695.149"/>
<path fill="none" stroke="#000000" stroke-width="0.5057" d="M328.195,676.942c0,1.445-1.172,2.617-2.619,2.617
	c-1.446,0-2.617-1.172-2.617-2.617c0-1.447,1.171-2.62,2.617-2.62C327.023,674.322,328.195,675.494,328.195,676.942"/>
<path fill="none" stroke="#000000" stroke-width="0.5057" d="M328.195,658.735c0,1.446-1.172,2.617-2.619,2.617
	c-1.446,0-2.617-1.171-2.617-2.617c0-1.447,1.171-2.62,2.617-2.62C327.023,656.115,328.195,657.287,328.195,658.735"/>
<path fill="none" stroke="#000000" stroke-width="0.5057" d="M328.195,640.527c0,1.446-1.172,2.619-2.619,2.619
	c-1.446,0-2.617-1.173-2.617-2.619c0-1.447,1.171-2.619,2.617-2.619C327.023,637.907,328.195,639.079,328.195,640.527"/>
<path fill="none" stroke="#000000" stroke-width="0.5057" d="M335.195,695.149c0,1.446-1.172,2.618-2.619,2.618
	c-1.446,0-2.617-1.172-2.617-2.618c0-1.447,1.171-2.619,2.617-2.619C334.023,692.53,335.195,693.701,335.195,695.149"/>
<path fill="none" stroke="#000000" stroke-width="0.5057" d="M335.195,676.942c0,1.445-1.172,2.617-2.619,2.617
	c-1.446,0-2.617-1.172-2.617-2.617c0-1.447,1.171-2.62,2.617-2.62C334.023,674.322,335.195,675.494,335.195,676.942"/>
<path fill="none" stroke="#000000" stroke-width="0.5057" d="M335.195,658.735c0,1.446-1.172,2.617-2.619,2.617
	c-1.446,0-2.617-1.171-2.617-2.617c0-1.447,1.171-2.62,2.617-2.62C334.023,656.115,335.195,657.287,335.195,658.735"/>
<path fill="none" stroke="#000000" stroke-width="0.5057" d="M335.195,640.527c0,1.446-1.172,2.619-2.619,2.619
	c-1.446,0-2.617-1.173-2.617-2.619c0-1.447,1.171-2.619,2.617-2.619C334.023,637.907,335.195,639.079,335.195,640.527"/>
<path fill="none" stroke="#000000" stroke-width="0.5057" d="M342.195,695.149c0,1.446-1.172,2.618-2.619,2.618
	c-1.446,0-2.617-1.172-2.617-2.618c0-1.447,1.171-2.619,2.617-2.619C341.023,692.53,342.195,693.701,342.195,695.149"/>
<path fill="none" stroke="#000000" stroke-width="0.5057" d="M342.195,676.942c0,1.445-1.172,2.617-2.619,2.617
	c-1.446,0-2.617-1.172-2.617-2.617c0-1.447,1.171-2.62,2.617-2.62C341.023,674.322,342.195,675.494,342.195,676.942"/>
<path fill="none" stroke="#000000" stroke-width="0.5057" d="M342.195,658.735c0,1.446-1.172,2.617-2.619,2.617
	c-1.446,0-2.617-1.171-2.617-2.617c0-1.447,1.171-2.62,2.617-2.62C341.023,656.115,342.195,657.287,342.195,658.735"/>
<path fill="none" stroke="#000000" stroke-width="0.5057" d="M342.195,640.527c0,1.446-1.172,2.619-2.619,2.619
	c-1.446,0-2.617-1.173-2.617-2.619c0-1.447,1.171-2.619,2.617-2.619C341.023,637.907,342.195,639.079,342.195,640.527"/>
</svg>
