<?xml version="1.0" encoding="UTF-8" standalone="no"?>
<!-- Generator: Adobe Illustrator 15.1.0, SVG Export Plug-In . SVG Version: 6.00 Build 0)  -->

<svg
   xmlns:dc="http://purl.org/dc/elements/1.1/"
   xmlns:cc="http://creativecommons.org/ns#"
   xmlns:rdf="http://www.w3.org/1999/02/22-rdf-syntax-ns#"
   xmlns:svg="http://www.w3.org/2000/svg"
   xmlns="http://www.w3.org/2000/svg"
   xmlns:sodipodi="http://sodipodi.sourceforge.net/DTD/sodipodi-0.dtd"
   xmlns:inkscape="http://www.inkscape.org/namespaces/inkscape"
   version="1.0"
   id="Layer_1"
   x="0px"
   y="0px"
   width="612px"
   height="792px"
   viewBox="0 0 612 792"
   enable-background="new 0 0 612 792"
   xml:space="preserve"
   inkscape:version="0.48.2 r9819"
   sodipodi:docname="Squad4_4.svg"><metadata
   id="metadata11963"><rdf:RDF><cc:Work
       rdf:about=""><dc:format>image/svg+xml</dc:format><dc:type
         rdf:resource="http://purl.org/dc/dcmitype/StillImage" /></cc:Work></rdf:RDF></metadata><defs
   id="defs11961" /><sodipodi:namedview
   pagecolor="#ffffff"
   bordercolor="#666666"
   borderopacity="1"
   objecttolerance="10"
   gridtolerance="10"
   guidetolerance="10"
   inkscape:pageopacity="0"
   inkscape:pageshadow="2"
   inkscape:window-width="1618"
   inkscape:window-height="1028"
   id="namedview11959"
   showgrid="false"
   inkscape:zoom="2.3838384"
   inkscape:cx="305.14395"
   inkscape:cy="266.00381"
   inkscape:window-x="-8"
   inkscape:window-y="-8"
   inkscape:window-maximized="1"
   inkscape:current-layer="Layer_1" />
<polyline
   fill="#C6C8CA"
   points="397.073,614.839 391.341,623.442 232.43,623.442 226.698,614.839 35.767,614.839 30.034,606.237   30.034,496.472 35.767,487.868 224.419,487.868 230.153,496.472 389.906,496.472 397.073,505.071 397.073,614.839 "
   id="polyline11569" />
<polyline
   fill="#FFFFFF"
   points="392.772,610.538 387.04,619.14 228.131,619.14 222.397,610.538 31.468,610.538 25.733,601.937   25.733,492.169 31.468,483.567 220.12,483.567 225.852,492.169 385.606,492.169 392.772,500.771 392.772,610.538 "
   id="polyline11571" />
<polygon
   fill="none"
   stroke="#000000"
   stroke-width="2.0228"
   stroke-linecap="round"
   stroke-miterlimit="10"
   points="  392.772,610.539 387.039,619.141 228.13,619.141 222.397,610.539 31.468,610.539 25.733,601.938 25.733,492.171 31.468,483.568   220.12,483.568 225.852,492.171 385.606,492.171 392.772,500.771 "
   id="polygon11573" />
<polyline
   points="218.699,502.203 32.614,502.203 27.167,494.033 32.601,485.86 218.686,485.86 224.132,494.033 218.699,502.203 "
   id="polyline11575" />
<polygon
   fill="none"
   stroke="#FFFFFF"
   stroke-width="1.0114"
   stroke-linejoin="round"
   points="218.698,502.205 32.614,502.205   27.168,494.033 32.601,485.861 218.686,485.861 224.132,494.033 "
   id="polygon11577" />
<polyline
   points="36.642,508.201 36.642,512.678 35.621,512.678 35.621,508.201 34.067,508.201 34.067,507.285 38.25,507.285   38.25,508.201 36.642,508.201 "
   id="polyline11579" />
<path
   d="M41.844,508.9l-0.99,4.015c-0.138,0.569-0.312,0.95-0.519,1.147c-0.205,0.196-0.536,0.295-0.992,0.295  c-0.103,0-0.209-0.004-0.319-0.016v-0.668c0.079,0.004,0.144,0.008,0.197,0.008c0.383,0,0.627-0.334,0.73-1.004H39.49l-1.234-3.777  h0.97l0.473,1.601l0.236,0.802c0.012,0.052,0.049,0.186,0.11,0.403l0.114,0.399h0.02l0.083-0.399  c0.042-0.205,0.069-0.34,0.083-0.403l0.185-0.802l0.363-1.601H41.844"
   id="path11581" />
<path
   d="M44.032,509.568c-0.343,0-0.568,0.077-0.674,0.233c-0.104,0.154-0.158,0.483-0.158,0.987c0,0.49,0.055,0.814,0.169,0.977  c0.112,0.16,0.343,0.241,0.69,0.241c0.351,0,0.579-0.075,0.686-0.229c0.104-0.152,0.158-0.48,0.158-0.983c0-0.517-0.054-0.85-0.16-1  S44.401,509.568,44.032,509.568 M42.254,508.9h0.918l-0.035,0.562l0.02,0.004c0.217-0.407,0.623-0.612,1.218-0.612  c0.548,0,0.927,0.136,1.134,0.409c0.205,0.272,0.309,0.769,0.309,1.491c0,0.753-0.102,1.269-0.307,1.549  c-0.205,0.278-0.584,0.419-1.14,0.419c-0.591,0-0.978-0.198-1.159-0.593h-0.016v2.169h-0.942V508.9"
   id="path11583" />
<path
   d="M49.011,510.398l-0.004-0.15c0-0.3-0.051-0.494-0.156-0.585c-0.103-0.089-0.329-0.134-0.676-0.134  c-0.335,0-0.554,0.053-0.657,0.162c-0.1,0.106-0.152,0.344-0.152,0.707H49.011 M49.002,511.469h0.907v0.146  c0,0.737-0.552,1.106-1.656,1.106c-0.75,0-1.239-0.127-1.471-0.384c-0.23-0.254-0.347-0.796-0.347-1.624  c0-0.734,0.12-1.229,0.363-1.481c0.24-0.253,0.713-0.379,1.416-0.379c0.672,0,1.124,0.122,1.352,0.369  c0.229,0.245,0.343,0.729,0.343,1.452v0.276h-2.551c-0.004,0.083-0.008,0.139-0.008,0.166c0,0.371,0.057,0.619,0.171,0.743  c0.114,0.122,0.341,0.186,0.684,0.186c0.332,0,0.546-0.036,0.646-0.108C48.951,511.866,49.002,511.71,49.002,511.469"
   id="path11585" />
<path
   d="M51.523,508.9v0.973h-0.903V508.9H51.523 M51.523,511.706v0.972h-0.903v-0.972H51.523"
   id="path11587" />




<path
   d="M36.728,521.641h2.369l0.016,1.07c0,0.778-0.146,1.282-0.44,1.508c-0.292,0.225-0.946,0.338-1.961,0.338  c-0.931,0-1.546-0.15-1.849-0.451c-0.302-0.3-0.454-0.912-0.454-1.837c0-1.18,0.059-1.924,0.181-2.236  c0.15-0.38,0.377-0.634,0.683-0.767c0.304-0.13,0.822-0.197,1.553-0.197c0.956,0,1.573,0.101,1.853,0.306  c0.278,0.204,0.418,0.656,0.418,1.357h-1.033c-0.018-0.352-0.095-0.57-0.231-0.657c-0.134-0.085-0.475-0.129-1.019-0.129  c-0.591,0-0.966,0.073-1.125,0.222c-0.158,0.146-0.239,0.493-0.239,1.039l-0.004,0.541l0.008,0.691c0,0.533,0.079,0.875,0.237,1.021  s0.522,0.22,1.096,0.22c0.556,0,0.911-0.062,1.063-0.186c0.15-0.123,0.227-0.416,0.227-0.878l0.004-0.221h-1.352V521.641"
   id="path11597" />
<path
   d="M43.146,520.731v3.777h-0.903l0.051-0.647l-0.016-0.004c-0.176,0.462-0.58,0.695-1.215,0.695  c-0.854,0-1.281-0.427-1.281-1.284v-2.537h0.903v2.319c0,0.32,0.043,0.531,0.134,0.635c0.088,0.101,0.274,0.151,0.556,0.151  c0.578,0,0.868-0.348,0.868-1.043v-2.063H43.146"
   id="path11599" />
<path
   d="M44.063,520.731h0.895l-0.036,0.636l0.02,0.005c0.175-0.455,0.57-0.684,1.183-0.684c0.891,0,1.336,0.415,1.336,1.248v2.572  h-0.903v-2.418l-0.02-0.265c-0.041-0.28-0.262-0.423-0.662-0.423c-0.607,0-0.911,0.288-0.911,0.865v2.24h-0.903V520.731"
   id="path11601" />
<path
   d="M48.342,520.731h0.895l-0.036,0.636l0.02,0.005c0.175-0.455,0.57-0.684,1.183-0.684c0.891,0,1.336,0.415,1.336,1.248v2.572  h-0.903v-2.418l-0.02-0.265c-0.041-0.28-0.262-0.423-0.662-0.423c-0.607,0-0.911,0.288-0.911,0.865v2.24h-0.903V520.731"
   id="path11603" />
<path
   d="M55.059,522.229l-0.004-0.15c0-0.3-0.051-0.494-0.156-0.585c-0.103-0.089-0.329-0.134-0.676-0.134  c-0.335,0-0.554,0.053-0.657,0.161c-0.1,0.107-0.152,0.345-0.152,0.708H55.059 M55.051,523.3h0.907v0.146  c0,0.736-0.552,1.106-1.656,1.106c-0.749,0-1.238-0.127-1.471-0.384c-0.23-0.255-0.347-0.796-0.347-1.624  c0-0.734,0.12-1.229,0.362-1.481c0.241-0.253,0.714-0.379,1.416-0.379c0.672,0,1.124,0.122,1.352,0.369  c0.229,0.245,0.343,0.729,0.343,1.452v0.276h-2.551c-0.004,0.083-0.008,0.139-0.008,0.166c0,0.371,0.057,0.618,0.171,0.743  c0.114,0.122,0.341,0.186,0.684,0.186c0.332,0,0.546-0.036,0.646-0.109C55,523.697,55.051,523.541,55.051,523.3"
   id="path11605" />
<path
   d="M56.731,520.731h0.903l-0.055,0.529l0.02,0.004c0.215-0.395,0.554-0.592,1.018-0.592c0.662,0,0.994,0.419,0.994,1.256v0.265  h-0.852c0.01-0.103,0.016-0.17,0.016-0.201c0-0.403-0.155-0.604-0.469-0.604c-0.445,0-0.67,0.298-0.67,0.896v2.225h-0.903V520.731"
   id="path11607" />
<path
   d="M63.21,520.731l-0.989,4.015c-0.138,0.569-0.312,0.95-0.519,1.147c-0.205,0.196-0.536,0.295-0.992,0.295  c-0.103,0-0.209-0.004-0.32-0.017v-0.667c0.08,0.004,0.145,0.008,0.197,0.008c0.383,0,0.627-0.334,0.729-1.004h-0.461l-1.234-3.777  h0.97l0.473,1.601l0.236,0.802c0.012,0.052,0.049,0.186,0.11,0.403l0.114,0.398h0.02l0.083-0.398  c0.042-0.206,0.069-0.34,0.083-0.403l0.185-0.802l0.363-1.601H63.21"
   id="path11609" />
<path
   d="M69.661,520.688h-0.998c-0.004-0.05-0.008-0.087-0.008-0.111c-0.024-0.302-0.091-0.491-0.201-0.57  c-0.11-0.077-0.371-0.117-0.781-0.117c-0.483,0-0.798,0.044-0.948,0.135c-0.147,0.089-0.223,0.276-0.223,0.565  c0,0.34,0.059,0.543,0.181,0.612c0.12,0.066,0.521,0.12,1.199,0.158c0.801,0.043,1.319,0.157,1.555,0.343  c0.235,0.185,0.353,0.567,0.353,1.15c0,0.715-0.138,1.18-0.414,1.389c-0.275,0.21-0.883,0.314-1.825,0.314  c-0.846,0-1.408-0.104-1.686-0.309c-0.276-0.205-0.417-0.62-0.417-1.248l-0.003-0.198h0.994l0.003,0.115  c0,0.375,0.065,0.606,0.197,0.691c0.13,0.083,0.489,0.126,1.077,0.126c0.458,0,0.749-0.047,0.875-0.146  c0.126-0.097,0.189-0.321,0.189-0.675c0-0.261-0.047-0.434-0.144-0.521c-0.095-0.085-0.302-0.136-0.621-0.155l-0.564-0.036  c-0.852-0.049-1.396-0.168-1.632-0.355c-0.236-0.186-0.355-0.589-0.355-1.205c0-0.628,0.142-1.049,0.428-1.259  c0.284-0.209,0.854-0.313,1.709-0.313c0.808,0,1.354,0.095,1.636,0.288c0.28,0.191,0.422,0.567,0.422,1.126V520.688"
   id="path11611" />
<polyline
   points="71.379,519.115 71.379,522.201 71.612,522.201 72.628,520.731 73.677,520.731 72.365,522.51 73.945,524.509   72.826,524.509 71.6,522.834 71.379,522.834 71.379,524.509 70.476,524.509 70.476,519.115 71.379,519.115 "
   id="polyline11613" />
<path
   d="M75.254,520.731v3.777h-0.903v-3.777H75.254 M75.254,519.115v0.755h-0.903v-0.755H75.254"
   id="path11615" />
<rect
   x="76.145"
   y="519.115"
   width="0.903"
   height="5.394"
   id="rect11617" />
<rect
   x="77.937"
   y="519.115"
   width="0.903"
   height="5.394"
   id="rect11619" />
<path
   d="M80.593,520.731v0.972H79.69v-0.972H80.593 M80.593,523.537v0.972H79.69v-0.972H80.593"
   id="path11621" />
<line
   fill="none"
   stroke="#000000"
   stroke-width="1.0114"
   stroke-miterlimit="10"
   x1="83.226"
   y1="525.941"
   x2="101.86"
   y2="525.941"
   id="line11623" />
<path
   d="M145.847,522.718l-0.93-2.81l-0.915,2.81H145.847 M146.084,523.472h-2.323l-0.335,1.035h-1.08l1.79-5.394h1.534l1.817,5.394  h-1.06L146.084,523.472"
   id="path11625" />
<path
   d="M147.927,520.729h0.895l-0.036,0.637l0.02,0.004c0.175-0.455,0.569-0.684,1.183-0.684c0.891,0,1.336,0.415,1.336,1.249  v2.571h-0.903v-2.418l-0.02-0.265c-0.042-0.28-0.262-0.423-0.663-0.423c-0.607,0-0.911,0.288-0.911,0.865v2.24h-0.903V520.729"
   id="path11627" />
<path
   d="M154.64,520.729v0.688h-1.451v1.896c0,0.35,0.132,0.525,0.398,0.525c0.292,0,0.438-0.211,0.438-0.636v-0.15h0.769v0.19  c0,0.174-0.003,0.321-0.016,0.446c-0.049,0.577-0.477,0.865-1.285,0.865c-0.805,0-1.207-0.37-1.207-1.11v-2.027h-0.489v-0.688h0.489  v-0.845h0.903v0.845H154.64"
   id="path11629" />
<path
   d="M156.194,520.729v3.777h-0.903v-3.777H156.194 M156.194,519.113v0.755h-0.903v-0.755H156.194"
   id="path11631" />
<rect
   x="156.639"
   y="521.99"
   width="1.802"
   height="0.861"
   id="rect11633" />
<path
   d="M159.808,519.113v0.945c0,0.626-0.271,0.939-0.813,0.939c-0.028,0-0.083-0.002-0.166-0.008v-0.422  c0.288,0,0.434-0.121,0.434-0.364l-0.004-0.118h-0.355v-0.973H159.808"
   id="path11635" />
<path
   d="M167.014,519.113v5.394h-1.021v-2.939c0-0.233,0.006-0.5,0.02-0.798l0.02-0.403l0.02-0.398h-0.031l-0.123,0.375  l-0.118,0.375c-0.11,0.336-0.195,0.585-0.256,0.747l-1.183,3.042h-0.931l-1.195-3.019c-0.065-0.166-0.152-0.414-0.26-0.746  l-0.123-0.376l-0.123-0.371h-0.031l0.02,0.392l0.02,0.395c0.016,0.304,0.024,0.566,0.024,0.786v2.939h-1.021v-5.394h1.664  l0.962,2.498c0.065,0.173,0.152,0.422,0.26,0.746l0.118,0.376l0.123,0.371h0.035l0.114-0.371l0.119-0.372  c0.096-0.312,0.181-0.561,0.252-0.742l0.946-2.506H167.014"
   id="path11637" />
<path
   d="M170.366,522.228l-0.004-0.15c0-0.3-0.051-0.494-0.156-0.585c-0.103-0.089-0.329-0.134-0.676-0.134  c-0.335,0-0.554,0.053-0.657,0.162c-0.101,0.106-0.152,0.344-0.152,0.707H170.366 M170.357,523.298h0.907v0.146  c0,0.737-0.552,1.106-1.656,1.106c-0.75,0-1.238-0.127-1.471-0.384c-0.23-0.255-0.347-0.796-0.347-1.624  c0-0.734,0.12-1.229,0.363-1.481c0.241-0.253,0.714-0.379,1.416-0.379c0.672,0,1.124,0.122,1.353,0.369  c0.229,0.245,0.343,0.729,0.343,1.452v0.276h-2.551c-0.004,0.083-0.008,0.139-0.008,0.166c0,0.371,0.057,0.618,0.171,0.743  c0.114,0.122,0.341,0.186,0.684,0.186c0.332,0,0.546-0.036,0.646-0.108C170.306,523.695,170.357,523.539,170.357,523.298"
   id="path11639" />
<path
   d="M174.416,523.064h0.899v0.131l-0.055,0.573c-0.11,0.521-0.648,0.782-1.617,0.782c-0.709,0-1.181-0.129-1.415-0.386  c-0.233-0.257-0.351-0.772-0.351-1.551c0-0.759,0.116-1.269,0.351-1.533c0.232-0.263,0.688-0.395,1.364-0.395  c0.651,0,1.092,0.095,1.325,0.286c0.23,0.189,0.347,0.554,0.347,1.089h-0.895c0-0.438-0.252-0.66-0.761-0.66  c-0.358,0-0.585,0.069-0.678,0.21c-0.09,0.138-0.138,0.481-0.138,1.027c0,0.525,0.049,0.857,0.152,0.993  c0.101,0.135,0.349,0.203,0.743,0.203c0.31,0,0.509-0.045,0.597-0.14C174.37,523.603,174.416,523.393,174.416,523.064"
   id="path11641" />
<path
   d="M176.882,519.113v2.241l0.02,0.004c0.167-0.447,0.554-0.672,1.159-0.672c0.879,0,1.321,0.417,1.321,1.252v2.568h-0.903  v-2.441c0-0.442-0.225-0.664-0.674-0.664c-0.615,0-0.923,0.32-0.923,0.96v2.146h-0.903v-5.394H176.882"
   id="path11643" />
<path
   d="M186.308,520.687h-0.998c-0.004-0.05-0.008-0.087-0.008-0.111c-0.023-0.302-0.091-0.491-0.201-0.57  c-0.11-0.077-0.371-0.117-0.781-0.117c-0.483,0-0.799,0.044-0.949,0.135c-0.147,0.089-0.223,0.276-0.223,0.565  c0,0.34,0.06,0.543,0.182,0.612c0.12,0.067,0.521,0.12,1.198,0.158c0.801,0.043,1.319,0.157,1.556,0.344  c0.234,0.184,0.353,0.566,0.353,1.149c0,0.715-0.138,1.18-0.414,1.389c-0.276,0.21-0.883,0.314-1.826,0.314  c-0.846,0-1.407-0.103-1.686-0.309c-0.276-0.205-0.416-0.62-0.416-1.248l-0.004-0.198h0.994l0.004,0.115  c0,0.375,0.065,0.606,0.197,0.691c0.13,0.083,0.489,0.126,1.076,0.126c0.458,0,0.75-0.047,0.875-0.146  c0.126-0.097,0.189-0.321,0.189-0.675c0-0.261-0.047-0.433-0.144-0.52c-0.095-0.085-0.302-0.137-0.621-0.156l-0.564-0.036  c-0.852-0.049-1.396-0.167-1.632-0.355c-0.237-0.186-0.355-0.588-0.355-1.205c0-0.628,0.143-1.049,0.428-1.258  c0.284-0.21,0.854-0.314,1.709-0.314c0.809,0,1.354,0.095,1.636,0.288c0.28,0.191,0.422,0.567,0.422,1.126V520.687"
   id="path11645" />
<polyline
   points="188.025,519.113 188.025,522.199 188.258,522.199 189.275,520.729 190.324,520.729 189.011,522.508   190.592,524.507 189.472,524.507 188.246,522.832 188.025,522.832 188.025,524.507 187.123,524.507 187.123,519.113   188.025,519.113 "
   id="polyline11647" />
<path
   d="M191.902,520.729v3.777h-0.903v-3.777H191.902 M191.902,519.113v0.755h-0.903v-0.755H191.902"
   id="path11649" />
<rect
   x="192.792"
   y="519.113"
   width="0.902"
   height="5.394"
   id="rect11651" />
<rect
   x="194.584"
   y="519.113"
   width="0.903"
   height="5.394"
   id="rect11653" />
<path
   d="M197.24,520.729v0.973h-0.903v-0.973H197.24 M197.24,523.535v0.972h-0.903v-0.972H197.24"
   id="path11655" />
<line
   fill="none"
   stroke="#000000"
   stroke-width="1.0114"
   stroke-miterlimit="10"
   x1="198.805"
   y1="525.941"
   x2="217.439"
   y2="525.941"
   id="line11657" />



<path
   d="M36.611,533.468h2.37l0.016,1.071c0,0.778-0.146,1.282-0.439,1.507c-0.292,0.226-0.946,0.338-1.961,0.338  c-0.931,0-1.546-0.15-1.849-0.45c-0.302-0.301-0.454-0.913-0.454-1.837c0-1.18,0.059-1.925,0.181-2.237  c0.15-0.379,0.376-0.634,0.682-0.766c0.304-0.131,0.822-0.198,1.554-0.198c0.956,0,1.573,0.101,1.853,0.307  c0.278,0.203,0.418,0.655,0.418,1.357h-1.033c-0.018-0.353-0.094-0.571-0.23-0.658c-0.134-0.085-0.475-0.129-1.019-0.129  c-0.591,0-0.966,0.073-1.126,0.222c-0.158,0.146-0.238,0.494-0.238,1.039l-0.004,0.541l0.008,0.691c0,0.534,0.079,0.876,0.236,1.021  c0.158,0.146,0.522,0.22,1.096,0.22c0.556,0,0.911-0.062,1.063-0.186c0.149-0.123,0.227-0.415,0.227-0.878l0.004-0.221h-1.353  V533.468"
   id="path11665" />
<path
   d="M39.706,532.56h0.903l-0.055,0.529l0.02,0.004c0.215-0.396,0.554-0.593,1.018-0.593c0.662,0,0.994,0.419,0.994,1.256v0.266  h-0.852c0.01-0.104,0.016-0.17,0.016-0.202c0-0.403-0.155-0.604-0.469-0.604c-0.446,0-0.67,0.299-0.67,0.897v2.225h-0.903V532.56"
   id="path11667" />
<path
   d="M44.73,533.23c-0.375,0-0.615,0.067-0.718,0.204c-0.102,0.134-0.153,0.452-0.153,0.95c0,0.568,0.047,0.925,0.146,1.066  c0.097,0.143,0.339,0.214,0.729,0.214c0.375,0,0.613-0.075,0.712-0.226s0.148-0.51,0.148-1.083c0-0.481-0.051-0.79-0.154-0.924  C45.337,533.298,45.101,533.23,44.73,533.23 M44.738,532.516c0.728,0,1.204,0.116,1.431,0.35c0.225,0.233,0.339,0.726,0.339,1.477  c0,0.837-0.11,1.387-0.331,1.647s-0.686,0.391-1.396,0.391c-0.769,0-1.268-0.12-1.496-0.363c-0.227-0.241-0.341-0.774-0.341-1.601  c0-0.792,0.111-1.308,0.335-1.545C43.502,532.634,43.989,532.516,44.738,532.516"
   id="path11669" />
<path
   d="M50.604,532.56v3.777h-0.903l0.051-0.648l-0.016-0.004c-0.175,0.462-0.58,0.695-1.214,0.695  c-0.854,0-1.281-0.427-1.281-1.284v-2.536h0.903v2.318c0,0.32,0.043,0.532,0.134,0.635c0.089,0.101,0.274,0.152,0.556,0.152  c0.578,0,0.868-0.348,0.868-1.043v-2.063H50.604"
   id="path11671" />
<path
   d="M51.521,532.56h0.895l-0.036,0.636l0.02,0.004c0.175-0.454,0.569-0.684,1.183-0.684c0.891,0,1.336,0.415,1.336,1.249v2.572  h-0.903v-2.419l-0.02-0.265c-0.042-0.28-0.262-0.423-0.663-0.423c-0.607,0-0.911,0.289-0.911,0.866v2.24h-0.903V532.56"
   id="path11673" />
<path
   d="M57.385,533.23c-0.335,0-0.554,0.071-0.655,0.216c-0.098,0.143-0.15,0.452-0.15,0.927c0,0.547,0.05,0.9,0.15,1.059  c0.099,0.158,0.323,0.237,0.671,0.237c0.362,0,0.593-0.077,0.696-0.233c0.101-0.154,0.151-0.514,0.151-1.074  c0-0.463-0.055-0.767-0.167-0.913C57.971,533.304,57.738,533.23,57.385,533.23 M59.156,530.943v5.394h-0.879l0.032-0.608  l-0.016-0.005c-0.175,0.439-0.56,0.66-1.151,0.66c-0.595,0-0.991-0.136-1.185-0.409c-0.193-0.272-0.29-0.825-0.29-1.661  c0-0.674,0.103-1.142,0.312-1.404c0.207-0.261,0.576-0.394,1.108-0.394c0.615,0,0.998,0.193,1.151,0.585l0.016-0.004v-2.153H59.156"
   id="path11675" />
<path
   d="M68.379,530.943v5.394h-1.021v-2.94c0-0.232,0.005-0.499,0.02-0.798l0.02-0.403l0.02-0.398h-0.032l-0.123,0.375  l-0.118,0.375c-0.11,0.336-0.195,0.585-0.256,0.747l-1.183,3.043h-0.931l-1.195-3.02c-0.065-0.165-0.151-0.414-0.26-0.746  l-0.123-0.376l-0.122-0.371h-0.032l0.02,0.392l0.02,0.395c0.015,0.305,0.023,0.567,0.023,0.786v2.94h-1.021v-5.394h1.664  l0.962,2.497c0.065,0.174,0.152,0.423,0.26,0.747l0.118,0.375l0.123,0.371h0.035l0.114-0.371l0.119-0.372  c0.097-0.312,0.182-0.561,0.252-0.742l0.946-2.505H68.379"
   id="path11677" />
<path
   d="M70.343,533.732h1.163c0.461,0,0.755-0.053,0.881-0.16c0.124-0.106,0.188-0.357,0.188-0.757  c0-0.454-0.051-0.736-0.156-0.847c-0.103-0.109-0.373-0.164-0.811-0.164h-1.265V533.732 M69.321,536.337v-5.394h2.437  c0.728,0,1.218,0.126,1.473,0.381c0.252,0.253,0.38,0.745,0.38,1.472c0,0.722-0.12,1.201-0.362,1.438  c-0.241,0.237-0.729,0.355-1.467,0.355l-0.237,0.004h-1.202v1.743H69.321"
   id="path11679" />
<path
   d="M75.099,532.56v0.972h-0.903v-0.972H75.099 M75.099,535.364v0.973h-0.903v-0.973H75.099"
   id="path11681" />
<path
   d="M40.787,599.773v5.394h-1.021v-2.939c0-0.233,0.006-0.5,0.02-0.798l0.02-0.403l0.02-0.398h-0.031l-0.123,0.375l-0.118,0.375  c-0.11,0.336-0.195,0.585-0.256,0.747l-1.183,3.042h-0.931l-1.195-3.019c-0.065-0.166-0.152-0.414-0.26-0.746l-0.123-0.376  l-0.123-0.371h-0.031l0.02,0.392l0.02,0.395c0.016,0.304,0.024,0.566,0.024,0.786v2.939h-1.021v-5.394h1.664l0.962,2.498  c0.065,0.173,0.151,0.423,0.26,0.746l0.118,0.376l0.123,0.371h0.035l0.114-0.371l0.119-0.372c0.096-0.312,0.181-0.561,0.252-0.742  l0.946-2.506H40.787"
   id="path11683" />
<path
   d="M44.139,602.888l-0.004-0.15c0-0.3-0.051-0.494-0.156-0.585c-0.103-0.089-0.329-0.134-0.676-0.134  c-0.335,0-0.554,0.053-0.657,0.162c-0.101,0.106-0.152,0.344-0.152,0.707H44.139 M44.13,603.958h0.907v0.146  c0,0.737-0.553,1.106-1.656,1.106c-0.75,0-1.238-0.127-1.471-0.384c-0.23-0.255-0.347-0.796-0.347-1.624  c0-0.734,0.12-1.229,0.363-1.481c0.241-0.253,0.714-0.379,1.416-0.379c0.672,0,1.124,0.122,1.353,0.369  c0.229,0.245,0.343,0.729,0.343,1.452v0.276h-2.551c-0.004,0.083-0.008,0.139-0.008,0.166c0,0.371,0.057,0.618,0.171,0.743  c0.114,0.122,0.341,0.186,0.684,0.186c0.331,0,0.546-0.036,0.646-0.108C44.079,604.355,44.13,604.199,44.13,603.958"
   id="path11685" />
<path
   d="M48.188,603.725h0.899v0.131l-0.055,0.573c-0.11,0.521-0.648,0.782-1.617,0.782c-0.709,0-1.181-0.129-1.415-0.386  c-0.233-0.257-0.351-0.772-0.351-1.551c0-0.759,0.116-1.268,0.351-1.533c0.232-0.263,0.688-0.395,1.364-0.395  c0.651,0,1.092,0.095,1.325,0.286c0.23,0.189,0.347,0.554,0.347,1.089h-0.895c0-0.438-0.252-0.66-0.761-0.66  c-0.358,0-0.585,0.069-0.678,0.21c-0.09,0.138-0.138,0.481-0.138,1.027c0,0.525,0.049,0.857,0.152,0.993  c0.101,0.135,0.349,0.203,0.743,0.203c0.31,0,0.509-0.045,0.597-0.14C48.143,604.263,48.188,604.053,48.188,603.725"
   id="path11687" />
<path
   d="M50.655,599.773v2.241l0.02,0.004c0.167-0.447,0.554-0.672,1.159-0.672c0.879,0,1.321,0.417,1.321,1.252v2.568h-0.903  v-2.441c0-0.442-0.225-0.664-0.674-0.664c-0.615,0-0.923,0.32-0.923,0.96v2.146h-0.903v-5.394H50.655"
   id="path11689" />
<path
   d="M55.582,603.477c-0.509,0-0.765,0.176-0.765,0.529c0,0.245,0.051,0.404,0.158,0.481c0.104,0.075,0.325,0.115,0.662,0.115  c0.548,0,0.824-0.186,0.824-0.558C56.461,603.666,56.169,603.477,55.582,603.477 M54.979,602.484h-0.922  c0-0.452,0.104-0.755,0.315-0.909c0.209-0.151,0.627-0.229,1.25-0.229c0.678,0,1.136,0.093,1.376,0.28  c0.238,0.186,0.358,0.543,0.358,1.07v2.47h-0.903l0.043-0.518l-0.024-0.004c-0.173,0.376-0.574,0.565-1.202,0.565  c-0.911,0-1.369-0.388-1.369-1.166c0-0.784,0.465-1.177,1.4-1.177c0.623,0,1.001,0.142,1.136,0.431h0.016v-0.613  c0-0.294-0.051-0.489-0.154-0.586c-0.103-0.095-0.312-0.145-0.631-0.145C55.209,601.955,54.979,602.131,54.979,602.484"
   id="path11691" />
<path
   d="M58.255,601.39h0.895l-0.036,0.637l0.02,0.004c0.175-0.455,0.57-0.684,1.183-0.684c0.891,0,1.336,0.415,1.336,1.249v2.571  h-0.903v-2.418l-0.02-0.265c-0.042-0.28-0.262-0.423-0.663-0.423c-0.606,0-0.911,0.288-0.911,0.865v2.24h-0.902V601.39"
   id="path11693" />
<path
   d="M63.438,601.39v3.777h-0.903v-3.777H63.438 M63.438,599.773v0.755h-0.903v-0.755H63.438"
   id="path11695" />
<polyline
   points="64.205,601.39 67.143,601.39 67.143,602.169 65.124,604.479 67.143,604.479 67.143,605.167 64.047,605.167   64.047,604.373 66.046,602.077 64.205,602.077 64.205,601.39 "
   id="polyline11697" />
<path
   d="M70.188,602.888l-0.004-0.15c0-0.3-0.051-0.494-0.156-0.585c-0.103-0.089-0.329-0.134-0.676-0.134  c-0.335,0-0.554,0.053-0.657,0.162c-0.101,0.106-0.152,0.344-0.152,0.707H70.188 M70.18,603.958h0.907v0.146  c0,0.737-0.552,1.106-1.656,1.106c-0.75,0-1.238-0.127-1.471-0.384c-0.23-0.255-0.347-0.796-0.347-1.624  c0-0.734,0.12-1.229,0.363-1.481c0.241-0.253,0.714-0.379,1.416-0.379c0.672,0,1.124,0.122,1.353,0.369  c0.229,0.245,0.343,0.729,0.343,1.452v0.276h-2.551c-0.004,0.083-0.008,0.139-0.008,0.166c0,0.371,0.057,0.618,0.171,0.743  c0.114,0.122,0.341,0.186,0.684,0.186c0.332,0,0.546-0.036,0.646-0.108C70.129,604.355,70.18,604.199,70.18,603.958"
   id="path11699" />
<path
   d="M73.422,602.062c-0.335,0-0.554,0.071-0.655,0.216c-0.099,0.142-0.15,0.452-0.15,0.926c0,0.548,0.049,0.901,0.15,1.06  c0.099,0.158,0.323,0.236,0.67,0.236c0.363,0,0.593-0.076,0.696-0.232c0.101-0.154,0.152-0.514,0.152-1.075  c0-0.462-0.055-0.767-0.167-0.912C74.008,602.135,73.775,602.062,73.422,602.062 M75.192,599.773v5.394h-0.879l0.032-0.608  l-0.016-0.004c-0.176,0.438-0.56,0.66-1.152,0.66c-0.595,0-0.991-0.137-1.185-0.409c-0.193-0.272-0.29-0.825-0.29-1.661  c0-0.674,0.103-1.142,0.312-1.405c0.207-0.261,0.576-0.393,1.107-0.393c0.615,0,0.998,0.193,1.152,0.585l0.016-0.004v-2.154H75.192"
   id="path11701" />
<path
   d="M76.94,601.39v0.973h-0.903v-0.973H76.94 M76.94,604.195v0.972h-0.903v-0.972H76.94"
   id="path11703" />
<path
   fill="none"
   stroke="#000000"
   stroke-width="1.0114"
   stroke-miterlimit="10"
   d="M90.247,605.599  c0,1.14-0.923,2.063-2.062,2.063h-5.713c-1.138,0-2.062-0.923-2.062-2.063v-5.584c0-1.141,0.924-2.063,2.062-2.063h5.713  c1.139,0,2.062,0.923,2.062,2.063V605.599z"
   id="path11705" />
<polyline
   points="153.367,599.772 153.367,604.249 155.891,604.249 155.891,605.166 152.346,605.166 152.346,599.772   153.367,599.772 "
   id="polyline11707" />
<path
   d="M158.817,602.887l-0.004-0.15c0-0.301-0.051-0.494-0.156-0.585c-0.103-0.089-0.329-0.134-0.676-0.134  c-0.335,0-0.554,0.053-0.657,0.161c-0.1,0.107-0.151,0.344-0.151,0.708H158.817 M158.809,603.957h0.907v0.146  c0,0.736-0.552,1.105-1.656,1.105c-0.75,0-1.238-0.126-1.471-0.383c-0.231-0.255-0.347-0.796-0.347-1.624  c0-0.734,0.12-1.229,0.363-1.481c0.241-0.253,0.714-0.379,1.416-0.379c0.672,0,1.124,0.122,1.353,0.369  c0.229,0.245,0.343,0.729,0.343,1.452v0.276h-2.551c-0.004,0.083-0.008,0.139-0.008,0.166c0,0.371,0.057,0.618,0.172,0.743  c0.114,0.122,0.341,0.186,0.684,0.186c0.332,0,0.546-0.036,0.647-0.109C158.758,604.354,158.809,604.198,158.809,603.957"
   id="path11709" />
<path
   d="M162.059,602.061c-0.347,0-0.57,0.069-0.668,0.211c-0.099,0.141-0.148,0.461-0.148,0.962c0,0.532,0.049,0.872,0.148,1.02  c0.098,0.146,0.325,0.222,0.68,0.222c0.355,0,0.584-0.075,0.69-0.228c0.105-0.149,0.158-0.485,0.158-1.005  c0-0.498-0.051-0.818-0.158-0.965C162.656,602.134,162.422,602.061,162.059,602.061 M163.837,601.389v3.849  c0,0.616-0.124,1.039-0.373,1.268c-0.249,0.229-0.706,0.345-1.374,0.345c-0.646,0-1.078-0.087-1.297-0.261  c-0.217-0.174-0.327-0.519-0.327-1.031h0.875c0,0.244,0.045,0.4,0.138,0.472c0.091,0.069,0.296,0.104,0.615,0.104  c0.56,0,0.84-0.23,0.84-0.695v-0.85l-0.02-0.004c-0.16,0.403-0.529,0.604-1.104,0.604c-0.57,0-0.96-0.138-1.169-0.415  c-0.209-0.276-0.313-0.792-0.313-1.548c0-0.712,0.104-1.202,0.313-1.475c0.209-0.271,0.587-0.407,1.138-0.407  c0.599,0,0.992,0.222,1.179,0.668h0.02l-0.043-0.624H163.837"
   id="path11711" />
<path
   d="M165.585,601.389v0.972h-0.903v-0.972H165.585 M165.585,604.194v0.972h-0.903v-0.972H165.585"
   id="path11713" />
<path
   fill="none"
   stroke="#000000"
   stroke-width="1.0114"
   stroke-miterlimit="10"
   d="M179.107,605.599  c0,1.14-0.923,2.063-2.062,2.063h-5.714c-1.139,0-2.063-0.923-2.063-2.063v-5.584c0-1.141,0.924-2.063,2.063-2.063h5.714  c1.139,0,2.062,0.923,2.062,2.063V605.599z"
   id="path11715" />
<path
   d="M194.068,603.376l-0.931-2.809l-0.915,2.809H194.068 M194.305,604.131h-2.322l-0.335,1.035h-1.081l1.79-5.394h1.534  l1.817,5.394h-1.061L194.305,604.131"
   id="path11717" />
<path
   d="M197.197,602.563h1.163c0.461,0,0.755-0.054,0.881-0.16c0.124-0.106,0.188-0.357,0.188-0.757  c0-0.454-0.051-0.737-0.156-0.848c-0.103-0.108-0.373-0.164-0.811-0.164h-1.265V602.563 M196.176,605.166v-5.394h2.437  c0.728,0,1.218,0.127,1.473,0.382c0.252,0.253,0.38,0.744,0.38,1.472c0,0.721-0.12,1.201-0.362,1.438  c-0.241,0.236-0.729,0.355-1.467,0.355l-0.237,0.004h-1.202v1.742H196.176"
   id="path11719" />
<path
   d="M201.954,601.389v0.972h-0.903v-0.972H201.954 M201.954,604.194v0.972h-0.903v-0.972H201.954"
   id="path11721" />
<path
   fill="#FFFFFF"
   d="M216.181,605.598c0,1.141-0.924,2.063-2.063,2.063h-5.713c-1.139,0-2.063-0.923-2.063-2.063v-5.584  c0-1.141,0.924-2.063,2.063-2.063h5.713c1.139,0,2.063,0.923,2.063,2.063V605.598"
   id="path11723" />
<path
   fill="none"
   stroke="#000000"
   stroke-width="1.0114"
   stroke-miterlimit="10"
   d="M216.182,605.599  c0,1.14-0.924,2.063-2.063,2.063h-5.714c-1.138,0-2.063-0.923-2.063-2.063v-5.584c0-1.141,0.925-2.063,2.063-2.063h5.714  c1.139,0,2.063,0.923,2.063,2.063V605.599z"
   id="path11725" />
<path
   d="M104.408,601.345h-0.998c-0.004-0.049-0.008-0.086-0.008-0.11c-0.023-0.302-0.091-0.492-0.201-0.57  c-0.11-0.077-0.371-0.117-0.781-0.117c-0.483,0-0.799,0.044-0.948,0.135c-0.148,0.089-0.223,0.276-0.223,0.564  c0,0.34,0.059,0.544,0.181,0.613c0.12,0.066,0.521,0.12,1.199,0.158c0.8,0.043,1.319,0.157,1.555,0.343  c0.235,0.184,0.353,0.567,0.353,1.15c0,0.715-0.138,1.18-0.414,1.389s-0.883,0.314-1.825,0.314c-0.846,0-1.408-0.104-1.686-0.309  c-0.276-0.205-0.416-0.62-0.416-1.249l-0.004-0.197h0.994l0.004,0.115c0,0.375,0.065,0.606,0.197,0.691  c0.13,0.083,0.489,0.126,1.077,0.126c0.457,0,0.749-0.048,0.875-0.146c0.126-0.097,0.189-0.321,0.189-0.676  c0-0.261-0.047-0.433-0.144-0.52c-0.094-0.085-0.302-0.136-0.621-0.156l-0.564-0.035c-0.852-0.049-1.396-0.168-1.632-0.355  c-0.237-0.186-0.355-0.589-0.355-1.205c0-0.628,0.142-1.049,0.428-1.259c0.284-0.209,0.854-0.313,1.709-0.313  c0.808,0,1.354,0.095,1.636,0.288c0.28,0.191,0.422,0.567,0.422,1.126V601.345"
   id="path11727" />
<path
   d="M110.503,601.389l-0.844,3.777h-1.333l-0.378-1.691c-0.065-0.292-0.114-0.514-0.146-0.668l-0.067-0.331l-0.067-0.332h-0.028  l-0.067,0.332l-0.067,0.336c-0.027,0.146-0.075,0.367-0.142,0.663l-0.378,1.691h-1.353l-0.84-3.777h0.911l0.363,1.751  c0.043,0.217,0.088,0.452,0.134,0.703l0.063,0.352l0.067,0.352h0.016l0.079-0.352l0.075-0.352c0.04-0.176,0.092-0.409,0.162-0.699  l0.41-1.755h1.151l0.41,1.755c0.075,0.327,0.13,0.561,0.162,0.699l0.075,0.352l0.075,0.352h0.02l0.067-0.352l0.063-0.352  c0.043-0.241,0.091-0.477,0.138-0.703l0.367-1.751H110.503"
   id="path11729" />
<path
   d="M112.498,603.475c-0.509,0-0.765,0.176-0.765,0.53c0,0.244,0.051,0.404,0.158,0.481c0.104,0.075,0.325,0.115,0.663,0.115  c0.548,0,0.824-0.187,0.824-0.558C113.377,603.665,113.086,603.475,112.498,603.475 M111.895,602.483h-0.922  c0-0.452,0.104-0.755,0.315-0.909c0.209-0.152,0.627-0.229,1.25-0.229c0.678,0,1.136,0.094,1.376,0.281  c0.238,0.186,0.358,0.543,0.358,1.07v2.47h-0.903l0.043-0.518l-0.024-0.004c-0.173,0.376-0.574,0.564-1.202,0.564  c-0.911,0-1.368-0.387-1.368-1.165c0-0.784,0.465-1.178,1.399-1.178c0.623,0,1.001,0.143,1.136,0.431h0.016v-0.612  c0-0.294-0.051-0.49-0.154-0.587c-0.103-0.095-0.311-0.144-0.631-0.144C112.126,601.954,111.895,602.13,111.895,602.483"
   id="path11731" />
<path
   d="M115.195,601.389h0.903l-0.055,0.529l0.02,0.004c0.215-0.395,0.554-0.592,1.018-0.592c0.662,0,0.994,0.418,0.994,1.256  v0.265h-0.852c0.01-0.103,0.016-0.17,0.016-0.201c0-0.403-0.155-0.604-0.469-0.604c-0.445,0-0.67,0.298-0.67,0.896v2.225h-0.903  V601.389"
   id="path11733" />
<path
   d="M118.572,601.389h0.903l-0.024,0.581l0.02,0.004c0.183-0.419,0.567-0.629,1.151-0.629c0.68,0,1.059,0.233,1.136,0.7h0.016  c0.176-0.467,0.564-0.7,1.163-0.7c0.872,0,1.309,0.439,1.309,1.32v2.501h-0.903v-2.304c0-0.533-0.219-0.802-0.658-0.802  c-0.548,0-0.824,0.298-0.824,0.897v2.208h-0.903v-2.339c0-0.313-0.042-0.52-0.125-0.618c-0.083-0.1-0.258-0.148-0.526-0.148  c-0.554,0-0.832,0.305-0.832,0.917v2.188h-0.903V601.389"
   id="path11735" />
<path
   d="M126.032,601.389v0.972h-0.903v-0.972H126.032 M126.032,604.194v0.972h-0.903v-0.972H126.032"
   id="path11737" />
<path
   fill="none"
   stroke="#000000"
   stroke-width="1.0114"
   stroke-miterlimit="10"
   d="M138.972,605.599  c0,1.14-0.924,2.063-2.063,2.063h-5.713c-1.139,0-2.063-0.923-2.063-2.063v-5.584c0-1.141,0.925-2.063,2.063-2.063h5.713  c1.139,0,2.063,0.923,2.063,2.063V605.599z"
   id="path11739" />






<path
   fill="#FFFFFF"
   d="M48.054,490.548h2.511c0.878,0,1.275,0.071,1.275,1.034c0,0.964-0.222,1.266-1.224,1.266h-2.562V490.548   M51.047,498.158c1.878,0,2.686-0.524,2.686-2.543c0-1.158-0.237-2-1.476-2.145v-0.051c1.095-0.267,1.287-0.966,1.287-2.004  c0-1.997-0.89-2.361-2.655-2.361h-4.537v9.104H51.047 M48.054,494.176h2.732c1.026,0,1.242,0.293,1.242,1.292  c0,1.123-0.497,1.197-1.538,1.197h-2.437V494.176"
   id="path11753" />
<path
   fill="#FFFFFF"
   d="M60.208,495.124h-3.152l1.559-4.732h0.023L60.208,495.124 M60.598,496.451l0.598,1.707h1.777l-3.093-9.104  h-2.582l-3.031,9.104h1.815l0.571-1.707H60.598"
   id="path11755" />
<polyline
   fill="#FFFFFF"
   points="66.457,490.548 69.121,490.548 69.121,489.055 62.089,489.055 62.089,490.548 64.753,490.548   64.753,498.158 66.457,498.158 66.457,490.548 "
   id="polyline11757" />
<polyline
   fill="#FFFFFF"
   points="73.567,490.548 76.232,490.548 76.232,489.055 69.2,489.055 69.2,490.548 71.864,490.548   71.864,498.158 73.567,498.158 73.567,490.548 "
   id="polyline11759" />
<polyline
   fill="#FFFFFF"
   points="78.785,489.055 77.082,489.055 77.082,498.158 83.026,498.158 83.026,496.665 78.785,496.665   78.785,489.055 "
   id="polyline11761" />
<polyline
   fill="#FFFFFF"
   points="85.629,490.548 90.112,490.548 90.112,489.055 83.925,489.055 83.925,498.158 90.147,498.158   90.147,496.665 85.629,496.665 85.629,494.176 89.881,494.176 89.881,492.658 85.629,492.658 85.629,490.548 "
   id="polyline11763" />
<path
   fill="#FFFFFF"
   d="M100.871,495.124h-3.152l1.559-4.732h0.023L100.871,495.124 M101.261,496.451l0.598,1.707h1.777  l-3.093-9.104h-2.582l-3.031,9.104h1.816l0.571-1.707H101.261"
   id="path11765" />
<path
   fill="#FFFFFF"
   d="M105.979,493.606v-3.059h2.351c1.209,0,1.434,0.229,1.434,1.494c0,1.313-0.296,1.564-1.508,1.564H105.979   M108.625,495.124c0.828,0,1.139,0.539,1.139,1.315v1.719h1.703v-1.716c0-1.298-0.307-1.974-1.567-2.083v-0.051  c1.567-0.23,1.567-1.215,1.567-2.542c0-2.087-0.728-2.712-2.626-2.712h-4.566v9.104h1.704v-3.034H108.625"
   id="path11767" />
<polyline
   fill="#FFFFFF"
   points="121.916,490.486 121.916,498.158 123.619,498.158 123.619,489.055 120.789,489.055   118.338,495.817 118.291,495.817 115.789,489.055 113.021,489.055 113.021,498.158 114.724,498.158 114.724,490.524 117.53,498.158   119.109,498.158 121.916,490.486 "
   id="polyline11769" />
<path
   fill="#FFFFFF"
   d="M128.779,490.548c1.514,0,2.117,0.119,2.117,1.784v2.386c0,1.71-0.541,1.923-2.117,1.923  c-1.704,0-2.046-0.166-2.046-1.923v-2.386C126.732,490.928,126.913,490.548,128.779,490.548 M128.779,489.055  c-2.815,0-3.75,0.489-3.75,3.277v2.386c0,2.96,1.006,3.44,3.75,3.44c2.711,0,3.821-0.555,3.821-3.44v-2.386  C132.6,489.449,131.357,489.055,128.779,489.055"
   id="path11771" />
<path
   fill="#FFFFFF"
   d="M135.582,493.606v-3.059h2.352c1.209,0,1.434,0.229,1.434,1.494c0,1.313-0.296,1.564-1.509,1.564H135.582   M138.229,495.124c0.828,0,1.139,0.539,1.139,1.315v1.719h1.703v-1.716c0-1.298-0.308-1.974-1.567-2.083v-0.051  c1.567-0.23,1.567-1.215,1.567-2.542c0-2.087-0.728-2.712-2.626-2.712h-4.566v9.104h1.703v-3.034H138.229"
   id="path11773" />
<path
   fill="#FFFFFF"
   d="M144.518,491.71h-1.514v1.662h1.514V491.71 M144.518,496.496h-1.514v1.662h1.514V496.496"
   id="path11775" />
<path
   fill="#FFFFFF"
   d="M150.774,495.114v0.422c0,2.622,1.801,2.622,3.818,2.622c2.348,0,3.563-0.226,3.563-2.851  c0-2.297-0.772-2.441-3.596-2.585c-1.842-0.094-2.082-0.127-2.082-1.093c0-0.975,0.29-1.144,2.094-1.144  c1.275,0,1.692,0.035,1.692,1.022v0.29h1.703v-0.3c0-2.444-1.467-2.444-3.395-2.444c-2.215,0-3.797,0-3.797,2.575  c0,2.438,1.559,2.365,3.546,2.486c1.413,0.071,2.132-0.098,2.132,1.191c0,1.046-0.228,1.333-1.881,1.333  c-1.638,0-2.094-0.071-2.094-1.104v-0.422H150.774"
   id="path11777" />
<path
   fill="#FFFFFF"
   d="M163.51,493.867l-0.751,1.002l2.345,1.404c-0.509,0.367-1.212,0.367-1.902,0.367  c-1.86,0-2.383-0.095-2.383-1.923v-2.386c0-1.677,0.751-1.784,2.383-1.784c1.786,0,2.349,0.178,2.349,1.784v1.559  c0,0.424,0,0.839,0,1.263L163.51,493.867 M167.969,496.818l-0.881-0.565c0.166-0.486,0.166-1.384,0.166-1.535v-2.386  c0-3.171-1.792-3.277-4.052-3.277c-2.741,0-4.086,0.477-4.086,3.277v2.386c0,2.983,1.162,3.44,4.096,3.44  c1.088,0,2.428,0,3.286-0.877l0.769,0.604L167.969,496.818"
   id="path11779" />
<path
   fill="#FFFFFF"
   d="M174.45,489.055v6.389c0,0.97-0.447,1.197-2.094,1.197c-1.724,0-2.07-0.275-2.07-1.197v-6.389h-1.703v6.419  c0,2.527,1.638,2.685,3.773,2.685c2.209,0,3.797-0.172,3.797-2.715v-6.389H174.45"
   id="path11781" />
<path
   fill="#FFFFFF"
   d="M182.9,495.124h-3.152l1.559-4.732h0.024L182.9,495.124 M183.29,496.451l0.598,1.707h1.777l-3.093-9.104  h-2.583l-3.031,9.104h1.815l0.571-1.707H183.29"
   id="path11783" />
<path
   fill="#FFFFFF"
   d="M188.007,496.665v-6.117h2.665c1.366,0,1.878,0.377,1.878,1.895v2.147c0,1.02-0.373,2.075-1.579,2.075  H188.007 M186.304,498.158h4.667c2.75,0,3.282-1.674,3.282-3.568v-2.147c0-2.478-1.067-3.388-3.581-3.388h-4.368V498.158"
   id="path11785" />
<path
   fill="#FFFFFF"
   d="M204.243,494.934h-3.561l3.513-4.616h0.047V494.934 M205.947,489.055h-2.624l-4.022,5.292v1.915h4.942v1.896  h1.704v-1.896h1.064v-1.328h-1.064V489.055"
   id="path11787" />
<polyline
   points="40.115,546.821 40.095,546.821 38.898,542.346 37.718,542.346 36.497,546.821 36.467,546.821 35.357,542.346   34.334,542.346 35.72,547.656 37.186,547.656 38.289,543.605 38.316,543.605 39.383,547.656 40.862,547.656 42.298,542.346   41.267,542.346 40.115,546.821 "
   id="polyline11789" />
<path
   d="M43.218,545.443c0-0.696,0.05-0.869,0.819-0.869c0.728,0,0.84,0.061,0.84,0.869H43.218 M44.877,546.477  c0,0.516-0.346,0.516-0.84,0.516c-0.799,0-0.819-0.24-0.819-0.995h2.544c0-1.649-0.204-2.103-1.725-2.103  c-1.494,0-1.704,0.593-1.704,1.95c0,1.377,0.289,1.812,1.704,1.812c1.056,0,1.725-0.056,1.725-1.18H44.877"
   id="path11791" />
<path
   d="M48.913,547.656h0.885v-2.33c0-1.246-0.503-1.432-1.708-1.432c-0.844,0-1.611,0-1.611,1.102h0.885  c0-0.458,0.323-0.493,0.726-0.493c0.771,0,0.823,0.202,0.823,0.776v0.516h-0.029c-0.22-0.462-0.683-0.462-1.153-0.462  c-0.904,0-1.362,0.247-1.362,1.136c0,1.009,0.536,1.188,1.362,1.188c0.447,0,1.002,0,1.182-0.548V547.656 M48.061,545.997  c0.456,0,0.852,0,0.852,0.472c0,0.485-0.36,0.523-0.852,0.523c-0.597,0-0.807-0.045-0.807-0.523  C47.253,545.997,47.592,545.997,48.061,545.997"
   id="path11793" />
<path
   d="M51.533,543.895h-0.885v5.421h0.885v-2.185h0.035c0.188,0.442,0.655,0.525,1.101,0.525c1.262,0,1.409-0.691,1.409-1.765  c0-1.129,0-1.997-1.409-1.997c-0.512,0-0.915,0.112-1.136,0.597V543.895 M52.411,546.992c-0.759,0-0.878-0.314-0.878-1.101  c0-0.877,0-1.317,0.878-1.317c0.781,0,0.781,0.483,0.781,1.317C53.192,546.817,53.018,546.992,52.411,546.992"
   id="path11795" />
<path
   d="M56.472,544.574c0.767,0,0.83,0.225,0.83,1.221c0,0.979-0.063,1.197-0.83,1.197c-0.768,0-0.83-0.218-0.83-1.197  C55.642,544.799,55.704,544.574,56.472,544.574 M56.472,543.895c-1.521,0-1.715,0.458-1.715,1.893c0,1.416,0.194,1.869,1.715,1.869  s1.714-0.453,1.714-1.869C58.186,544.353,57.993,543.895,56.472,543.895"
   id="path11797" />
<path
   d="M58.988,543.895v3.762h0.885v-2.049c0-0.665,0.104-1.033,0.868-1.033c0.563,0,0.681,0.185,0.681,0.723v2.359h0.885v-2.451  c0-0.906-0.294-1.311-1.26-1.311c-0.513,0-0.951,0.056-1.146,0.597h-0.027v-0.597H58.988"
   id="path11799" />
<path
   d="M66.319,544.934c0-1.039-0.868-1.039-1.565-1.039c-0.911,0-1.642,0-1.642,1.025c0,0.914,0.24,1.091,1.565,1.111  c0.847,0.014,0.868,0.171,0.868,0.484c0,0.477-0.295,0.477-0.802,0.477c-0.625,0-0.747-0.061-0.747-0.579h-0.885  c0,1.243,0.658,1.243,1.638,1.243c0.913,0,1.68-0.103,1.68-1.141c0-1.162-0.769-1.099-1.603-1.14  c-0.738-0.034-0.831-0.049-0.831-0.402c0-0.471,0.311-0.471,0.762-0.471c0.453,0,0.676,0,0.676,0.431H66.319"
   id="path11801" />
<path
   d="M74.14,547.656l0.482-0.675l-0.759-0.658c0.107-0.303,0.107-0.646,0.107-0.97v-0.351h-0.885v0.694l-1.668-1.417  c-0.232-0.186-0.323-0.31-0.323-0.61c0-0.489,0.266-0.489,0.764-0.489c0.756,0,0.785,0.101,0.785,0.783h0.885  c0-1.385-0.31-1.618-1.67-1.618c-1.068,0-1.648,0.166-1.648,1.317c0,0.449,0.084,0.613,0.413,0.906  c-0.838,0.068-0.966,0.639-0.966,1.403c0,1.561,0.8,1.684,2.123,1.684c0.712,0,1.443,0,1.773-0.626L74.14,547.656 M72.889,546.462  c-0.235,0.31-0.584,0.31-1.099,0.31c-0.899,0-1.248,0-1.248-0.799c0-0.592,0-0.861,0.586-0.953L72.889,546.462"
   id="path11803" />
<polyline
   points="78.673,543.217 81.293,543.217 81.293,542.346 77.678,542.346 77.678,547.656 81.314,547.656 81.314,546.785   78.673,546.785 78.673,545.333 81.158,545.333 81.158,544.448 78.673,544.448 78.673,543.217 "
   id="polyline11805" />
<path
   d="M85.378,543.895h-0.885v0.597c-0.221-0.484-0.624-0.597-1.135-0.597c-1.409,0-1.409,0.868-1.409,1.997  c0,1.073,0.147,1.765,1.409,1.765c0.446,0,0.913-0.083,1.101-0.525h0.034v2.185h0.885V543.895 M83.615,544.574  c0.759,0,0.878,0.314,0.878,1.101c0,0.877,0,1.317-0.878,1.317c-0.781,0-0.781-0.484-0.781-1.317  C82.834,544.748,83.009,544.574,83.615,544.574"
   id="path11807" />
<path
   d="M89.604,547.656v-3.762H88.72v2.157c0,0.648-0.223,0.94-0.918,0.94c-0.581,0-0.631-0.206-0.631-0.739v-2.358h-0.885v2.691  c0,0.814,0.498,1.07,1.243,1.07c0.517,0,0.983-0.118,1.191-0.599v0.599H89.604"
   id="path11809" />
<path
   d="M91.369,542.346h-0.885v0.758h0.885V542.346 M91.369,543.895h-0.885v3.762h0.885V543.895"
   id="path11811" />
<path
   d="M93.04,543.895h-0.885v5.421h0.885v-2.185h0.035c0.188,0.442,0.655,0.525,1.101,0.525c1.262,0,1.409-0.691,1.409-1.765  c0-1.129,0-1.997-1.409-1.997c-0.512,0-0.914,0.112-1.136,0.597V543.895 M93.918,546.992c-0.759,0-0.878-0.314-0.878-1.101  c0-0.877,0-1.317,0.878-1.317c0.781,0,0.781,0.483,0.781,1.317C94.699,546.817,94.524,546.992,93.918,546.992"
   id="path11813" />
<rect
   x="96.596"
   y="546.687"
   width="0.885"
   height="0.97"
   id="rect11815" />
<path
   d="M125.199,546.785v-3.568h1.557c0.799,0,1.098,0.22,1.098,1.104v1.254c0,0.595-0.218,1.21-0.923,1.21H125.199   M124.203,547.656h2.728c1.607,0,1.918-0.977,1.918-2.081v-1.254c0-1.444-0.624-1.976-2.093-1.976h-2.553V547.656"
   id="path11817" />
<path
   d="M129.542,543.895v3.762h0.885v-2.097c0-0.659,0.15-0.985,0.913-0.985c0.517,0,0.636,0.185,0.636,0.651v2.431h0.885v-2.097  c0-0.659,0.138-0.985,0.847-0.985c0.48,0,0.591,0.185,0.591,0.651v2.431h0.885v-2.516c0-0.912-0.309-1.246-1.246-1.246  c-0.487,0-0.987,0.142-1.154,0.657h-0.028c-0.099-0.538-0.631-0.657-1.094-0.657c-0.494,0-1.025,0.105-1.234,0.574v-0.574H129.542"
   id="path11819" />
<path
   d="M138.517,547.802c0,0.683-0.154,0.85-0.871,0.85c-0.491,0-0.678-0.083-0.678-0.631h-0.885  c-0.057,1.136,0.636,1.295,1.563,1.295c1.338,0,1.756-0.328,1.756-1.708v-3.713h-0.885v0.597c-0.22-0.484-0.619-0.597-1.127-0.597  c-1.417,0-1.417,0.868-1.417,1.997c0,1.073,0.148,1.765,1.417,1.765c0.438,0,0.9-0.083,1.127-0.561V547.802 M137.646,544.574  c0.753,0,0.871,0.316,0.871,1.101c0,0.877,0,1.317-0.878,1.317c-0.781,0-0.781-0.484-0.781-1.317  C136.857,544.748,137.033,544.574,137.646,544.574"
   id="path11821" />
<polyline
   points="156.729,543.181 156.729,547.656 157.725,547.656 157.725,542.346 156.07,542.346 154.638,546.291 154.61,546.291   153.148,542.346 151.53,542.346 151.53,547.656 152.525,547.656 152.525,543.203 154.166,547.656 155.089,547.656 156.729,543.181   "
   id="polyline11823" />
<path
   d="M159.544,542.346h-0.885v0.758h0.885V542.346 M159.544,543.895h-0.885v3.762h0.885V543.895"
   id="path11825" />
<path
   d="M160.33,543.895v3.762h0.885v-2.049c0-0.665,0.104-1.033,0.868-1.033c0.563,0,0.681,0.185,0.681,0.723v2.359h0.885v-2.451  c0-0.906-0.294-1.311-1.26-1.311c-0.514,0-0.951,0.056-1.146,0.597h-0.028v-0.597H160.33"
   id="path11827" />
<path
   d="M169.021,545.881v0.245c0,1.53,1.053,1.53,2.231,1.53c1.372,0,2.083-0.132,2.083-1.663c0-1.34-0.451-1.424-2.102-1.508  c-1.077-0.055-1.217-0.074-1.217-0.638c0-0.568,0.169-0.667,1.224-0.667c0.745,0,0.989,0.021,0.989,0.597v0.169h0.996v-0.175  c0-1.426-0.857-1.426-1.984-1.426c-1.294,0-2.219,0-2.219,1.502c0,1.423,0.911,1.38,2.072,1.45c0.826,0.042,1.246-0.057,1.246,0.695  c0,0.61-0.133,0.778-1.099,0.778c-0.958,0-1.224-0.042-1.224-0.646v-0.245H169.021"
   id="path11829" />
<path
   d="M174.892,542.346h-0.885v5.311h0.885v-2.049c0-0.665,0.104-1.033,0.868-1.033c0.563,0,0.681,0.185,0.681,0.723v2.359h0.885  v-2.451c0-0.906-0.294-1.311-1.26-1.311c-0.513,0-0.951,0.057-1.146,0.602h-0.027V542.346"
   id="path11831" />
<path
   d="M177.774,544.559h0.467v1.938c0,0.936,0.301,1.16,1.29,1.16c0.97,0,1.255-0.339,1.255-1.461h-0.774  c0,0.395,0.055,0.797-0.48,0.797c-0.404,0-0.404-0.157-0.404-0.503v-1.931h1.471v-0.664h-1.471v-0.859h-0.885v0.859h-0.467V544.559"
   id="path11833" />
<polyline
   points="189.967,543.181 189.967,547.656 190.962,547.656 190.962,542.346 189.308,542.346 187.875,546.291   187.848,546.291 186.386,542.346 184.768,542.346 184.768,547.656 185.763,547.656 185.763,543.203 187.403,547.656   188.327,547.656 189.967,543.181 "
   id="polyline11835" />
<path
   d="M192.671,545.443c0-0.696,0.05-0.869,0.819-0.869c0.728,0,0.84,0.061,0.84,0.869H192.671 M194.331,546.477  c0,0.516-0.346,0.516-0.84,0.516c-0.799,0-0.819-0.24-0.819-0.995h2.544c0-1.649-0.204-2.103-1.725-2.103  c-1.494,0-1.705,0.593-1.705,1.95c0,1.377,0.289,1.812,1.705,1.812c1.056,0,1.725-0.056,1.725-1.18H194.331"
   id="path11837" />
<path
   d="M198.366,547.656h0.885v-5.311h-0.885v2.087h-0.021c-0.19-0.453-0.662-0.538-1.111-0.538c-1.265,0-1.412,0.697-1.412,1.78  c0,1.129,0,1.981,1.412,1.981c0.512,0,0.911-0.109,1.132-0.583V547.656 M197.495,544.574c0.766,0,0.871,0.314,0.871,1.101  c0,0.877,0,1.317-0.871,1.317c-0.789,0-0.789-0.484-0.789-1.317C196.706,544.748,196.882,544.574,197.495,544.574"
   id="path11839" />
<polyline
   points="204.425,542.346 203.429,542.346 203.429,547.656 206.903,547.656 206.903,546.785 204.425,546.785   204.425,542.346 "
   id="polyline11841" />
<path
   d="M207.429,543.895v3.762h0.885v-2.049c0-0.665,0.104-1.033,0.868-1.033c0.563,0,0.681,0.185,0.681,0.723v2.359h0.885v-2.451  c0-0.906-0.294-1.311-1.26-1.311c-0.514,0-0.951,0.056-1.146,0.597h-0.028v-0.597H207.429"
   id="path11843" />
<path
   d="M214.096,547.802c0,0.683-0.154,0.85-0.871,0.85c-0.491,0-0.677-0.083-0.677-0.631h-0.885  c-0.057,1.136,0.636,1.295,1.563,1.295c1.338,0,1.756-0.328,1.756-1.708v-3.713h-0.885v0.597c-0.219-0.484-0.619-0.597-1.127-0.597  c-1.417,0-1.417,0.868-1.417,1.997c0,1.073,0.148,1.765,1.417,1.765c0.439,0,0.9-0.083,1.127-0.561V547.802 M213.225,544.574  c0.754,0,0.871,0.316,0.871,1.101c0,0.877,0,1.317-0.878,1.317c-0.781,0-0.781-0.484-0.781-1.317  C212.437,544.748,212.613,544.574,213.225,544.574"
   id="path11845" />
<path
   d="M234.713,525.433h-3.937c0-0.965,0.421-0.764,1.914-1.157c1.543-0.411,2.023-0.717,2.023-2.323  c0-2.035-1.162-2.276-2.877-2.276c-1.857,0-2.877,0.376-2.877,2.345v0.353h1.817v-0.353c0-0.767,0.142-0.833,1.06-0.833  c0.807,0,1.06,0.086,1.06,0.793c0,0.736-0.087,0.717-1.344,1.004c-2.229,0.508-2.593,0.785-2.593,2.448v1.513h5.754V525.433"
   id="path11847" />
<path
   d="M231.381,542.09h0.476c1.095,0,1.19,0.178,1.19,0.658c0,0.818-0.333,0.856-1.19,0.856c-0.665,0-1.081-0.038-1.081-0.828  v-0.234h-1.817v0.384c0,2.049,1.325,2.193,2.986,2.193c1.673,0,2.92-0.27,2.92-2.135c0-0.818-0.274-1.477-1.211-1.515v-0.075  c0.847-0.113,1.06-0.807,1.06-1.603c0-1.846-1.519-1.942-2.769-1.942c-1.878,0-2.986,0.173-2.986,2.229v0.249h1.817v-0.145  c0-0.82,0.345-0.82,1.081-0.82c1.008,0,1.039,0.198,1.039,0.782c0,0.488-0.078,0.583-1.039,0.583h-0.476V542.09"
   id="path11849" />
<path
   d="M232.441,560.567h-2.279l2.21-3.051h0.068V560.567 M234.258,556.023h-2.834l-2.783,3.848v2.059h3.8v1.363h1.817v-1.363h0.62  v-1.362h-0.62V556.023"
   id="path11851" />
<polyline
   points="233.804,501.436 231.507,501.436 228.862,503.627 229.955,504.867 231.835,503.151 231.835,508.705   233.804,508.705 233.804,501.436 "
   id="polyline11853" />
<path
   fill="#C6C8CA"
   d="M257.376,560.114c0,1.445-1.172,2.617-2.617,2.617c-1.447,0-2.618-1.172-2.618-2.617  c0-1.447,1.171-2.619,2.618-2.619C256.204,557.495,257.376,558.667,257.376,560.114"
   id="path11855" />
<path
   fill="none"
   stroke="#000000"
   stroke-width="1.0114"
   d="M257.376,560.116c0,1.445-1.172,2.617-2.617,2.617  c-1.447,0-2.618-1.172-2.618-2.617c0-1.448,1.171-2.62,2.618-2.62C256.204,557.496,257.376,558.668,257.376,560.116"
   id="path11857" />
<polyline
   points="386.496,564.256 386.864,564.603 384.819,566.78 253.064,566.78 251.247,568.8 229.111,568.8 226.769,566.485   226.769,553.255 229.434,550.961 251.247,550.961 253.064,552.98 384.848,552.98 387.001,555.308 387.001,564.456 386.864,564.603   386.496,564.256 385.989,564.256 385.989,555.704 384.405,553.992 252.613,553.992 250.795,551.973 229.809,551.973 227.78,553.719   227.78,566.063 229.526,567.788 250.795,567.788 252.613,565.769 384.383,565.769 386.128,563.91 386.496,564.256 385.989,564.256   386.496,564.256 "
   id="polyline11859" />
<path
   fill="#C6C8CA"
   d="M257.376,541.907c0,1.445-1.172,2.618-2.617,2.618c-1.447,0-2.618-1.173-2.618-2.618  c0-1.447,1.171-2.62,2.618-2.62C256.204,539.287,257.376,540.46,257.376,541.907"
   id="path11861" />
<path
   fill="none"
   stroke="#000000"
   stroke-width="1.0114"
   d="M257.376,541.908c0,1.445-1.172,2.618-2.617,2.618  c-1.447,0-2.618-1.173-2.618-2.618c0-1.448,1.171-2.619,2.618-2.619C256.204,539.289,257.376,540.46,257.376,541.908"
   id="path11863" />
<polyline
   points="386.496,546.049 386.864,546.395 384.819,548.573 253.064,548.573 251.247,550.593 229.111,550.593   226.769,548.279 226.769,535.049 229.434,532.755 251.247,532.755 253.064,534.774 384.848,534.774 387.001,537.101 387.001,546.25   386.864,546.395 386.496,546.049 385.989,546.049 385.989,537.497 384.405,535.785 252.613,535.785 250.795,533.766 229.81,533.766   227.78,535.512 227.78,547.855 229.526,549.581 250.795,549.581 252.613,547.562 384.383,547.562 386.128,545.703 386.496,546.049   385.989,546.049 386.496,546.049 "
   id="polyline11865" />
<path
   fill="#C6C8CA"
   d="M257.376,523.7c0,1.446-1.172,2.617-2.617,2.617c-1.447,0-2.618-1.171-2.618-2.617  c0-1.447,1.171-2.619,2.618-2.619C256.204,521.081,257.376,522.253,257.376,523.7"
   id="path11867" />
<path
   fill="none"
   stroke="#000000"
   stroke-width="1.0114"
   d="M257.376,523.702c0,1.444-1.172,2.617-2.617,2.617  c-1.447,0-2.618-1.173-2.618-2.617c0-1.447,1.171-2.62,2.618-2.62C256.204,521.082,257.376,522.255,257.376,523.702"
   id="path11869" />
<polyline
   points="386.496,527.843 386.864,528.188 384.819,530.366 253.064,530.366 251.247,532.386 229.111,532.386   226.769,530.071 226.769,516.841 229.434,514.547 251.247,514.547 253.064,516.567 384.848,516.567 387.001,518.894   387.001,528.042 386.864,528.188 386.496,527.843 385.989,527.843 385.989,519.29 384.405,517.578 252.613,517.578 250.795,515.559   229.809,515.559 227.78,517.305 227.78,529.648 229.526,531.374 250.795,531.374 252.613,529.354 384.383,529.354 386.128,527.496   386.496,527.843 385.989,527.843 386.496,527.843 "
   id="polyline11871" />
<path
   fill="#C6C8CA"
   d="M257.376,505.494c0,1.444-1.172,2.617-2.617,2.617c-1.447,0-2.618-1.173-2.618-2.617  c0-1.448,1.171-2.621,2.618-2.621C256.204,502.873,257.376,504.046,257.376,505.494"
   id="path11873" />
<path
   fill="none"
   stroke="#000000"
   stroke-width="1.0114"
   d="M257.376,505.495c0,1.445-1.172,2.618-2.617,2.618  c-1.447,0-2.618-1.173-2.618-2.618c0-1.447,1.171-2.619,2.618-2.619C256.204,502.876,257.376,504.048,257.376,505.495"
   id="path11875" />
<polyline
   points="386.496,509.635 386.864,509.98 384.819,512.159 253.064,512.159 251.247,514.179 229.111,514.179   226.769,511.865 226.769,498.635 229.434,496.341 251.247,496.341 253.064,498.36 384.848,498.36 387.001,500.687 387.001,509.836   386.864,509.98 386.496,509.635 385.989,509.635 385.989,501.083 384.405,499.372 252.613,499.372 250.795,497.352 229.81,497.352   227.78,499.098 227.78,511.442 229.526,513.168 250.795,513.168 252.613,511.147 384.383,511.147 386.128,509.29 386.496,509.635   385.989,509.635 386.496,509.635 "
   id="polyline11877" />




</svg>