<?xml version="1.0" encoding="UTF-8" standalone="no"?>
<!-- Generator: Adobe Illustrator 15.1.0, SVG Export Plug-In . SVG Version: 6.00 Build 0)  -->

<svg
   xmlns:dc="http://purl.org/dc/elements/1.1/"
   xmlns:cc="http://creativecommons.org/ns#"
   xmlns:rdf="http://www.w3.org/1999/02/22-rdf-syntax-ns#"
   xmlns:svg="http://www.w3.org/2000/svg"
   xmlns="http://www.w3.org/2000/svg"
   xmlns:sodipodi="http://sodipodi.sourceforge.net/DTD/sodipodi-0.dtd"
   xmlns:inkscape="http://www.inkscape.org/namespaces/inkscape"
   version="1.0"
   id="Layer_1"
   x="0px"
   y="0px"
   width="612px"
   height="792px"
   viewBox="0 0 612 792"
   enable-background="new 0 0 612 792"
   xml:space="preserve"
   inkscape:version="0.48.2 r9819"
   sodipodi:docname="Squad2_6.svg"><metadata
   id="metadata8203"><rdf:RDF><cc:Work
       rdf:about=""><dc:format>image/svg+xml</dc:format><dc:type
         rdf:resource="http://purl.org/dc/dcmitype/StillImage" /></cc:Work></rdf:RDF></metadata><defs
   id="defs8201" /><sodipodi:namedview
   pagecolor="#ffffff"
   bordercolor="#666666"
   borderopacity="1"
   objecttolerance="10"
   gridtolerance="10"
   guidetolerance="10"
   inkscape:pageopacity="0"
   inkscape:pageshadow="2"
   inkscape:window-width="1618"
   inkscape:window-height="1028"
   id="namedview8199"
   showgrid="false"
   inkscape:zoom="2.3838384"
   inkscape:cx="320.01695"
   inkscape:cy="518.62876"
   inkscape:window-x="-8"
   inkscape:window-y="-8"
   inkscape:window-maximized="1"
   inkscape:current-layer="Layer_1" />
<polyline
   fill="#C6C8CA"
   points="397.073,344.77 391.341,353.371 232.43,353.371 226.698,344.77 35.767,344.77 30.034,336.168   30.034,226.4 35.767,217.799 224.419,217.799 230.153,226.4 389.906,226.4 397.073,235.003 397.073,344.77 "
   id="polyline7753" />
<polyline
   fill="#FFFFFF"
   points="392.772,340.469 387.04,349.072 228.131,349.072 222.397,340.469 31.468,340.469 25.733,331.867   25.733,222.101 31.468,213.498 220.12,213.498 225.852,222.101 385.606,222.101 392.772,230.702 392.772,340.469 "
   id="polyline7755" />
<polygon
   fill="none"
   stroke="#000000"
   stroke-width="2.0228"
   stroke-linecap="round"
   stroke-miterlimit="10"
   points="  392.772,340.471 387.039,349.073 228.13,349.073 222.397,340.471 31.468,340.471 25.733,331.87 25.733,222.103 31.468,213.501   220.12,213.501 225.852,222.103 385.606,222.103 392.772,230.704 "
   id="polygon7757" />
<polyline
   points="218.699,232.135 32.614,232.135 27.167,223.963 32.601,215.792 218.686,215.792 224.132,223.963 218.699,232.135   "
   id="polyline7759" />
<polygon
   fill="none"
   stroke="#FFFFFF"
   stroke-width="1.0114"
   stroke-linejoin="round"
   points="218.698,232.138 32.614,232.138   27.168,223.965 32.601,215.794 218.686,215.794 224.132,223.965 "
   id="polygon7761" />
<polyline
   points="36.642,238.132 36.642,242.609 35.621,242.609 35.621,238.132 34.067,238.132 34.067,237.216 38.25,237.216   38.25,238.132 36.642,238.132 "
   id="polyline7763" />
<path
   d="M41.844,238.832l-0.99,4.014c-0.138,0.569-0.312,0.95-0.519,1.148c-0.205,0.195-0.536,0.294-0.992,0.294  c-0.103,0-0.209-0.004-0.319-0.016v-0.667c0.079,0.004,0.144,0.008,0.197,0.008c0.383,0,0.627-0.333,0.73-1.003H39.49l-1.234-3.777  h0.97l0.473,1.6l0.236,0.802c0.012,0.051,0.049,0.186,0.11,0.403l0.114,0.399h0.02l0.083-0.399c0.042-0.206,0.069-0.34,0.083-0.403  l0.185-0.802l0.363-1.6H41.844"
   id="path7765" />
<path
   d="M44.032,239.5c-0.343,0-0.568,0.077-0.674,0.233c-0.104,0.154-0.158,0.484-0.158,0.988c0,0.49,0.055,0.814,0.169,0.976  c0.112,0.16,0.343,0.241,0.69,0.241c0.351,0,0.579-0.075,0.686-0.229c0.104-0.152,0.158-0.48,0.158-0.984c0-0.516-0.054-0.85-0.16-1  C44.637,239.575,44.401,239.5,44.032,239.5 M42.254,238.832h0.918l-0.035,0.561l0.02,0.004c0.217-0.407,0.623-0.612,1.218-0.612  c0.548,0,0.927,0.136,1.134,0.409c0.205,0.272,0.309,0.769,0.309,1.492c0,0.753-0.102,1.268-0.307,1.549  c-0.205,0.279-0.584,0.418-1.14,0.418c-0.591,0-0.978-0.197-1.159-0.592h-0.016v2.169h-0.942V238.832"
   id="path7767" />
<path
   d="M49.011,240.33l-0.004-0.15c0-0.3-0.051-0.494-0.156-0.585c-0.103-0.089-0.329-0.134-0.676-0.134  c-0.335,0-0.554,0.053-0.657,0.162c-0.1,0.107-0.152,0.344-0.152,0.708H49.011 M49.002,241.4h0.907v0.146  c0,0.737-0.552,1.106-1.656,1.106c-0.75,0-1.239-0.126-1.471-0.383c-0.23-0.255-0.347-0.796-0.347-1.624  c0-0.735,0.12-1.229,0.363-1.481c0.24-0.253,0.713-0.379,1.416-0.379c0.672,0,1.124,0.122,1.352,0.37  c0.229,0.245,0.343,0.729,0.343,1.452v0.276h-2.551c-0.004,0.083-0.008,0.139-0.008,0.167c0,0.371,0.057,0.618,0.171,0.743  c0.114,0.123,0.341,0.186,0.684,0.186c0.332,0,0.546-0.036,0.646-0.109C48.951,241.797,49.002,241.641,49.002,241.4"
   id="path7769" />
<path
   d="M51.523,238.832v0.972h-0.903v-0.972H51.523 M51.523,241.637v0.972h-0.903v-0.972H51.523"
   id="path7771" />




<path
   d="M36.728,251.572h2.369l0.016,1.07c0,0.778-0.146,1.282-0.44,1.507c-0.292,0.226-0.946,0.338-1.961,0.338  c-0.931,0-1.546-0.15-1.849-0.45c-0.302-0.3-0.454-0.913-0.454-1.837c0-1.18,0.059-1.924,0.181-2.236  c0.15-0.379,0.377-0.634,0.683-0.767c0.304-0.13,0.822-0.197,1.553-0.197c0.956,0,1.573,0.101,1.853,0.306  c0.278,0.204,0.418,0.656,0.418,1.357h-1.033c-0.018-0.352-0.095-0.571-0.231-0.658c-0.134-0.085-0.475-0.128-1.019-0.128  c-0.591,0-0.966,0.073-1.125,0.222c-0.158,0.146-0.239,0.494-0.239,1.039l-0.004,0.542l0.008,0.691c0,0.534,0.079,0.875,0.237,1.021  s0.522,0.219,1.096,0.219c0.556,0,0.911-0.062,1.063-0.186c0.15-0.123,0.227-0.415,0.227-0.877l0.004-0.221h-1.352V251.572"
   id="path7781" />
<path
   d="M43.146,250.663v3.777h-0.903l0.051-0.648l-0.016-0.004c-0.176,0.462-0.58,0.695-1.215,0.695  c-0.854,0-1.281-0.426-1.281-1.284v-2.537h0.903v2.319c0,0.32,0.043,0.532,0.134,0.634c0.088,0.101,0.274,0.152,0.556,0.152  c0.578,0,0.868-0.348,0.868-1.043v-2.063H43.146"
   id="path7783" />
<path
   d="M44.063,250.663h0.895l-0.036,0.636l0.02,0.004c0.175-0.455,0.57-0.684,1.183-0.684c0.891,0,1.336,0.415,1.336,1.249v2.572  h-0.903v-2.418l-0.02-0.265c-0.041-0.281-0.262-0.423-0.662-0.423c-0.607,0-0.911,0.288-0.911,0.865v2.24h-0.903V250.663"
   id="path7785" />
<path
   d="M48.342,250.663h0.895l-0.036,0.636l0.02,0.004c0.175-0.455,0.57-0.684,1.183-0.684c0.891,0,1.336,0.415,1.336,1.249v2.572  h-0.903v-2.418l-0.02-0.265c-0.041-0.281-0.262-0.423-0.662-0.423c-0.607,0-0.911,0.288-0.911,0.865v2.24h-0.903V250.663"
   id="path7787" />
<path
   d="M55.059,252.161l-0.004-0.151c0-0.3-0.051-0.494-0.156-0.584c-0.103-0.089-0.329-0.134-0.676-0.134  c-0.335,0-0.554,0.053-0.657,0.162c-0.1,0.107-0.152,0.344-0.152,0.708H55.059 M55.051,253.231h0.907v0.146  c0,0.737-0.552,1.106-1.656,1.106c-0.749,0-1.238-0.126-1.471-0.383c-0.23-0.254-0.347-0.796-0.347-1.624  c0-0.734,0.12-1.229,0.362-1.481c0.241-0.253,0.714-0.379,1.416-0.379c0.672,0,1.124,0.123,1.352,0.37  c0.229,0.245,0.343,0.729,0.343,1.452v0.277h-2.551c-0.004,0.083-0.008,0.138-0.008,0.166c0,0.371,0.057,0.618,0.171,0.743  c0.114,0.122,0.341,0.186,0.684,0.186c0.332,0,0.546-0.036,0.646-0.109C55,253.628,55.051,253.472,55.051,253.231"
   id="path7789" />
<path
   d="M56.731,250.663h0.903l-0.055,0.53l0.02,0.003c0.215-0.395,0.554-0.592,1.018-0.592c0.662,0,0.994,0.419,0.994,1.256v0.265  h-0.852c0.01-0.103,0.016-0.17,0.016-0.201c0-0.403-0.155-0.604-0.469-0.604c-0.445,0-0.67,0.298-0.67,0.897v2.224h-0.903V250.663"
   id="path7791" />
<path
   d="M63.21,250.663l-0.989,4.015c-0.138,0.569-0.312,0.95-0.519,1.147c-0.205,0.196-0.536,0.295-0.992,0.295  c-0.103,0-0.209-0.004-0.32-0.016v-0.668c0.08,0.004,0.145,0.008,0.197,0.008c0.383,0,0.627-0.334,0.729-1.004h-0.461l-1.234-3.777  h0.97l0.473,1.6l0.236,0.802c0.012,0.052,0.049,0.186,0.11,0.403l0.114,0.399h0.02l0.083-0.399c0.042-0.206,0.069-0.34,0.083-0.403  l0.185-0.802l0.363-1.6H63.21"
   id="path7793" />
<path
   d="M69.661,250.62h-0.998c-0.004-0.049-0.008-0.086-0.008-0.111c-0.024-0.302-0.091-0.492-0.201-0.571  c-0.11-0.077-0.371-0.117-0.781-0.117c-0.483,0-0.798,0.044-0.948,0.135c-0.147,0.089-0.223,0.276-0.223,0.565  c0,0.34,0.059,0.543,0.181,0.613c0.12,0.067,0.521,0.12,1.199,0.158c0.801,0.043,1.319,0.158,1.555,0.344  c0.235,0.184,0.353,0.567,0.353,1.149c0,0.715-0.138,1.18-0.414,1.389c-0.275,0.209-0.883,0.314-1.825,0.314  c-0.846,0-1.408-0.103-1.686-0.308c-0.276-0.206-0.417-0.621-0.417-1.249l-0.003-0.198h0.994l0.003,0.115  c0,0.375,0.065,0.606,0.197,0.691c0.13,0.083,0.489,0.126,1.077,0.126c0.458,0,0.749-0.047,0.875-0.146  c0.126-0.097,0.189-0.321,0.189-0.675c0-0.261-0.047-0.433-0.144-0.52c-0.095-0.085-0.302-0.136-0.621-0.156l-0.564-0.036  c-0.852-0.049-1.396-0.167-1.632-0.355c-0.236-0.186-0.355-0.588-0.355-1.205c0-0.628,0.142-1.049,0.428-1.258  c0.284-0.209,0.854-0.314,1.709-0.314c0.808,0,1.354,0.095,1.636,0.288c0.28,0.192,0.422,0.567,0.422,1.126V250.62"
   id="path7795" />
<polyline
   points="71.379,249.047 71.379,252.133 71.612,252.133 72.628,250.663 73.677,250.663 72.365,252.441 73.945,254.44   72.826,254.44 71.6,252.765 71.379,252.765 71.379,254.44 70.476,254.44 70.476,249.047 71.379,249.047 "
   id="polyline7797" />
<path
   d="M75.254,250.663v3.777h-0.903v-3.777H75.254 M75.254,249.047v0.755h-0.903v-0.755H75.254"
   id="path7799" />
<rect
   x="76.145"
   y="249.047"
   width="0.903"
   height="5.394"
   id="rect7801" />
<rect
   x="77.937"
   y="249.047"
   width="0.903"
   height="5.394"
   id="rect7803" />
<path
   d="M80.593,250.663v0.972H79.69v-0.972H80.593 M80.593,253.469v0.972H79.69v-0.972H80.593"
   id="path7805" />
<line
   fill="none"
   stroke="#000000"
   stroke-width="1.0114"
   stroke-miterlimit="10"
   x1="83.226"
   y1="255.875"
   x2="101.86"
   y2="255.875"
   id="line7807" />
<path
   d="M145.847,252.647l-0.93-2.81l-0.915,2.81H145.847 M146.084,253.402h-2.323l-0.335,1.036h-1.08l1.79-5.394h1.534l1.817,5.394  h-1.06L146.084,253.402"
   id="path7809" />
<path
   d="M147.927,250.66h0.895l-0.036,0.636l0.02,0.004c0.175-0.454,0.569-0.684,1.183-0.684c0.891,0,1.336,0.415,1.336,1.249v2.572  h-0.903v-2.418l-0.02-0.265c-0.042-0.281-0.262-0.423-0.663-0.423c-0.607,0-0.911,0.289-0.911,0.866v2.24h-0.903V250.66"
   id="path7811" />
<path
   d="M154.64,250.66v0.688h-1.451v1.896c0,0.35,0.132,0.525,0.398,0.525c0.292,0,0.438-0.211,0.438-0.636v-0.15h0.769v0.189  c0,0.174-0.003,0.322-0.016,0.447c-0.049,0.577-0.477,0.865-1.285,0.865c-0.805,0-1.207-0.37-1.207-1.111v-2.026h-0.489v-0.688  h0.489v-0.846h0.903v0.846H154.64"
   id="path7813" />
<path
   d="M156.194,250.66v3.777h-0.903v-3.777H156.194 M156.194,249.044v0.755h-0.903v-0.755H156.194"
   id="path7815" />
<rect
   x="156.639"
   y="251.92"
   width="1.802"
   height="0.861"
   id="rect7817" />
<path
   d="M159.808,249.044v0.944c0,0.626-0.271,0.94-0.813,0.94c-0.028,0-0.083-0.002-0.166-0.008v-0.423  c0.288,0,0.434-0.121,0.434-0.363l-0.004-0.119h-0.355v-0.972H159.808"
   id="path7819" />
<path
   d="M167.014,249.044v5.394h-1.021v-2.94c0-0.233,0.006-0.5,0.02-0.798l0.02-0.403l0.02-0.399h-0.031l-0.123,0.375l-0.118,0.375  c-0.11,0.336-0.195,0.585-0.256,0.747l-1.183,3.042h-0.931l-1.195-3.019c-0.065-0.166-0.152-0.415-0.26-0.747l-0.123-0.375  l-0.123-0.372h-0.031l0.02,0.392l0.02,0.395c0.016,0.304,0.024,0.567,0.024,0.786v2.94h-1.021v-5.394h1.664l0.962,2.497  c0.065,0.174,0.152,0.423,0.26,0.747l0.118,0.375l0.123,0.371h0.035l0.114-0.371l0.119-0.372c0.096-0.312,0.181-0.561,0.252-0.743  l0.946-2.505H167.014"
   id="path7821" />
<path
   d="M170.366,252.158l-0.004-0.15c0-0.3-0.051-0.494-0.156-0.585c-0.103-0.089-0.329-0.134-0.676-0.134  c-0.335,0-0.554,0.053-0.657,0.162c-0.101,0.107-0.152,0.344-0.152,0.708H170.366 M170.357,253.228h0.907v0.146  c0,0.737-0.552,1.106-1.656,1.106c-0.75,0-1.238-0.126-1.471-0.383c-0.23-0.255-0.347-0.796-0.347-1.624  c0-0.735,0.12-1.229,0.363-1.482c0.241-0.253,0.714-0.379,1.416-0.379c0.672,0,1.124,0.123,1.353,0.37  c0.229,0.245,0.343,0.729,0.343,1.452v0.277h-2.551c-0.004,0.083-0.008,0.138-0.008,0.167c0,0.371,0.057,0.618,0.171,0.743  c0.114,0.122,0.341,0.186,0.684,0.186c0.332,0,0.546-0.036,0.646-0.109C170.306,253.625,170.357,253.469,170.357,253.228"
   id="path7823" />
<path
   d="M174.416,252.995h0.899v0.13l-0.055,0.573c-0.11,0.522-0.648,0.782-1.617,0.782c-0.709,0-1.181-0.128-1.415-0.385  c-0.233-0.257-0.351-0.772-0.351-1.551c0-0.758,0.116-1.268,0.351-1.533c0.232-0.263,0.688-0.396,1.364-0.396  c0.651,0,1.092,0.095,1.325,0.287c0.23,0.19,0.347,0.553,0.347,1.089h-0.895c0-0.439-0.252-0.66-0.761-0.66  c-0.358,0-0.585,0.069-0.678,0.209c-0.09,0.138-0.138,0.482-0.138,1.027c0,0.525,0.049,0.857,0.152,0.994  c0.101,0.134,0.349,0.204,0.743,0.204c0.31,0,0.509-0.045,0.597-0.141C174.37,253.533,174.416,253.323,174.416,252.995"
   id="path7825" />
<path
   d="M176.882,249.044v2.24l0.02,0.004c0.167-0.446,0.554-0.672,1.159-0.672c0.879,0,1.321,0.417,1.321,1.253v2.568h-0.903  v-2.442c0-0.443-0.225-0.664-0.674-0.664c-0.615,0-0.923,0.32-0.923,0.96v2.146h-0.903v-5.394H176.882"
   id="path7827" />
<path
   d="M186.308,250.616h-0.998c-0.004-0.049-0.008-0.086-0.008-0.11c-0.023-0.302-0.091-0.492-0.201-0.571  c-0.11-0.077-0.371-0.116-0.781-0.116c-0.483,0-0.799,0.043-0.949,0.135c-0.147,0.088-0.223,0.276-0.223,0.564  c0,0.34,0.06,0.543,0.182,0.613c0.12,0.067,0.521,0.121,1.198,0.158c0.801,0.043,1.319,0.158,1.556,0.344  c0.234,0.184,0.353,0.567,0.353,1.15c0,0.715-0.138,1.18-0.414,1.389c-0.276,0.209-0.883,0.314-1.826,0.314  c-0.846,0-1.407-0.103-1.686-0.309c-0.276-0.205-0.416-0.62-0.416-1.249l-0.004-0.197h0.994l0.004,0.115  c0,0.375,0.065,0.606,0.197,0.691c0.13,0.083,0.489,0.127,1.076,0.127c0.458,0,0.75-0.048,0.875-0.146  c0.126-0.097,0.189-0.322,0.189-0.676c0-0.261-0.047-0.433-0.144-0.52c-0.095-0.085-0.302-0.136-0.621-0.156l-0.564-0.035  c-0.852-0.049-1.396-0.168-1.632-0.355c-0.237-0.186-0.355-0.589-0.355-1.205c0-0.628,0.143-1.049,0.428-1.259  c0.284-0.209,0.854-0.314,1.709-0.314c0.809,0,1.354,0.095,1.636,0.289c0.28,0.191,0.422,0.567,0.422,1.126V250.616"
   id="path7829" />
<polyline
   points="188.025,249.044 188.025,252.13 188.258,252.13 189.275,250.66 190.324,250.66 189.011,252.438 190.592,254.438   189.472,254.438 188.246,252.762 188.025,252.762 188.025,254.438 187.123,254.438 187.123,249.044 188.025,249.044 "
   id="polyline7831" />
<path
   d="M191.902,250.66v3.777h-0.903v-3.777H191.902 M191.902,249.044v0.755h-0.903v-0.755H191.902"
   id="path7833" />
<rect
   x="192.792"
   y="249.044"
   width="0.902"
   height="5.394"
   id="rect7835" />
<rect
   x="194.584"
   y="249.044"
   width="0.903"
   height="5.394"
   id="rect7837" />
<path
   d="M197.24,250.66v0.972h-0.903v-0.972H197.24 M197.24,253.465v0.972h-0.903v-0.972H197.24"
   id="path7839" />
<line
   fill="none"
   stroke="#000000"
   stroke-width="1.0114"
   stroke-miterlimit="10"
   x1="198.805"
   y1="255.875"
   x2="217.439"
   y2="255.875"
   id="line7841" />



<path
   d="M36.611,263.399h2.37l0.016,1.071c0,0.778-0.146,1.282-0.439,1.507c-0.292,0.226-0.946,0.338-1.961,0.338  c-0.931,0-1.546-0.15-1.849-0.45c-0.302-0.3-0.454-0.913-0.454-1.837c0-1.18,0.059-1.924,0.181-2.237  c0.15-0.379,0.376-0.634,0.682-0.766c0.304-0.13,0.822-0.197,1.554-0.197c0.956,0,1.573,0.1,1.853,0.306  c0.278,0.204,0.418,0.656,0.418,1.357h-1.033c-0.018-0.352-0.094-0.571-0.23-0.658c-0.134-0.085-0.475-0.129-1.019-0.129  c-0.591,0-0.966,0.074-1.126,0.222c-0.158,0.146-0.238,0.494-0.238,1.039l-0.004,0.541l0.008,0.692c0,0.534,0.079,0.875,0.236,1.021  c0.158,0.146,0.522,0.22,1.096,0.22c0.556,0,0.911-0.062,1.063-0.186c0.149-0.123,0.227-0.415,0.227-0.877l0.004-0.221h-1.353  V263.399"
   id="path7849" />
<path
   d="M39.706,262.491h0.903l-0.055,0.529l0.02,0.004c0.215-0.395,0.554-0.592,1.018-0.592c0.662,0,0.994,0.419,0.994,1.256v0.265  h-0.852c0.01-0.103,0.016-0.17,0.016-0.201c0-0.403-0.155-0.605-0.469-0.605c-0.446,0-0.67,0.299-0.67,0.897v2.224h-0.903V262.491"
   id="path7851" />
<path
   d="M44.73,263.163c-0.375,0-0.615,0.067-0.718,0.204c-0.102,0.134-0.153,0.452-0.153,0.95c0,0.569,0.047,0.924,0.146,1.066  c0.097,0.143,0.339,0.213,0.729,0.213c0.375,0,0.613-0.075,0.712-0.225s0.148-0.51,0.148-1.083c0-0.482-0.051-0.79-0.154-0.925  C45.337,263.23,45.101,263.163,44.73,263.163 M44.738,262.447c0.728,0,1.204,0.117,1.431,0.35c0.225,0.233,0.339,0.725,0.339,1.476  c0,0.837-0.11,1.387-0.331,1.647s-0.686,0.391-1.396,0.391c-0.769,0-1.268-0.121-1.496-0.364c-0.227-0.241-0.341-0.774-0.341-1.6  c0-0.792,0.111-1.308,0.335-1.545C43.502,262.565,43.989,262.447,44.738,262.447"
   id="path7853" />
<path
   d="M50.604,262.491v3.777h-0.903l0.051-0.648l-0.016-0.004c-0.175,0.462-0.58,0.695-1.214,0.695  c-0.854,0-1.281-0.427-1.281-1.284v-2.537h0.903v2.319c0,0.32,0.043,0.532,0.134,0.634c0.089,0.101,0.274,0.152,0.556,0.152  c0.578,0,0.868-0.348,0.868-1.043v-2.063H50.604"
   id="path7855" />
<path
   d="M51.521,262.491h0.895l-0.036,0.636l0.02,0.004c0.175-0.455,0.569-0.684,1.183-0.684c0.891,0,1.336,0.415,1.336,1.249v2.572  h-0.903v-2.418l-0.02-0.265c-0.042-0.28-0.262-0.422-0.663-0.422c-0.607,0-0.911,0.288-0.911,0.865v2.24h-0.903V262.491"
   id="path7857" />
<path
   d="M57.385,263.163c-0.335,0-0.554,0.071-0.655,0.215c-0.098,0.142-0.15,0.452-0.15,0.926c0,0.547,0.05,0.901,0.15,1.059  c0.099,0.158,0.323,0.237,0.671,0.237c0.362,0,0.593-0.077,0.696-0.233c0.101-0.154,0.151-0.514,0.151-1.075  c0-0.462-0.055-0.767-0.167-0.913C57.971,263.235,57.738,263.163,57.385,263.163 M59.156,260.875v5.394h-0.879l0.032-0.608  l-0.016-0.004c-0.175,0.439-0.56,0.66-1.151,0.66c-0.595,0-0.991-0.136-1.185-0.409c-0.193-0.272-0.29-0.825-0.29-1.661  c0-0.674,0.103-1.142,0.312-1.405c0.207-0.261,0.576-0.393,1.108-0.393c0.615,0,0.998,0.194,1.151,0.585l0.016-0.004v-2.154H59.156"
   id="path7859" />
<path
   d="M68.379,260.875v5.394h-1.021v-2.939c0-0.233,0.005-0.5,0.02-0.798l0.02-0.403l0.02-0.399h-0.032l-0.123,0.375l-0.118,0.375  c-0.11,0.336-0.195,0.585-0.256,0.747l-1.183,3.042h-0.931l-1.195-3.019c-0.065-0.166-0.151-0.415-0.26-0.747l-0.123-0.375  l-0.122-0.372h-0.032l0.02,0.391l0.02,0.396c0.015,0.304,0.023,0.566,0.023,0.786v2.939h-1.021v-5.394h1.664l0.962,2.498  c0.065,0.173,0.152,0.422,0.26,0.747l0.118,0.375l0.123,0.371h0.035l0.114-0.371l0.119-0.372c0.097-0.312,0.182-0.561,0.252-0.743  l0.946-2.505H68.379"
   id="path7861" />
<path
   d="M70.343,263.665h1.163c0.461,0,0.755-0.054,0.881-0.161c0.124-0.106,0.188-0.357,0.188-0.756  c0-0.455-0.051-0.737-0.156-0.848c-0.103-0.109-0.373-0.164-0.811-0.164h-1.265V263.665 M69.321,266.268v-5.394h2.437  c0.728,0,1.218,0.126,1.473,0.381c0.252,0.253,0.38,0.745,0.38,1.472c0,0.721-0.12,1.201-0.362,1.438  c-0.241,0.237-0.729,0.355-1.467,0.355l-0.237,0.004h-1.202v1.742H69.321"
   id="path7863" />
<path
   d="M75.099,262.491v0.972h-0.903v-0.972H75.099 M75.099,265.296v0.972h-0.903v-0.972H75.099"
   id="path7865" />
<path
   d="M40.787,329.704v5.394h-1.021v-2.939c0-0.233,0.006-0.5,0.02-0.798l0.02-0.403l0.02-0.399h-0.031l-0.123,0.375l-0.118,0.375  c-0.11,0.336-0.195,0.585-0.256,0.747l-1.183,3.042h-0.931l-1.195-3.019c-0.065-0.166-0.152-0.415-0.26-0.747l-0.123-0.375  l-0.123-0.372h-0.031l0.02,0.392l0.02,0.395c0.016,0.304,0.024,0.567,0.024,0.786v2.939h-1.021v-5.394h1.664l0.962,2.498  c0.065,0.174,0.151,0.423,0.26,0.747l0.118,0.375l0.123,0.371h0.035l0.114-0.371l0.119-0.372c0.096-0.312,0.181-0.561,0.252-0.743  l0.946-2.505H40.787"
   id="path7867" />
<path
   d="M44.139,332.818l-0.004-0.151c0-0.3-0.051-0.494-0.156-0.584c-0.103-0.089-0.329-0.134-0.676-0.134  c-0.335,0-0.554,0.053-0.657,0.162c-0.101,0.107-0.152,0.344-0.152,0.708H44.139 M44.13,333.889h0.907v0.146  c0,0.737-0.553,1.106-1.656,1.106c-0.75,0-1.238-0.126-1.471-0.383c-0.23-0.254-0.347-0.796-0.347-1.624  c0-0.734,0.12-1.229,0.363-1.481c0.241-0.253,0.714-0.379,1.416-0.379c0.672,0,1.124,0.123,1.353,0.37  c0.229,0.245,0.343,0.729,0.343,1.452v0.277h-2.551c-0.004,0.083-0.008,0.138-0.008,0.166c0,0.371,0.057,0.619,0.171,0.743  c0.114,0.122,0.341,0.186,0.684,0.186c0.331,0,0.546-0.036,0.646-0.109C44.079,334.286,44.13,334.129,44.13,333.889"
   id="path7869" />
<path
   d="M48.188,333.655h0.899v0.131l-0.055,0.573c-0.11,0.522-0.648,0.782-1.617,0.782c-0.709,0-1.181-0.128-1.415-0.385  c-0.233-0.257-0.351-0.772-0.351-1.551c0-0.759,0.116-1.268,0.351-1.533c0.232-0.263,0.688-0.395,1.364-0.395  c0.651,0,1.092,0.095,1.325,0.287c0.23,0.19,0.347,0.553,0.347,1.089h-0.895c0-0.439-0.252-0.66-0.761-0.66  c-0.358,0-0.585,0.069-0.678,0.209c-0.09,0.138-0.138,0.482-0.138,1.027c0,0.525,0.049,0.857,0.152,0.994  c0.101,0.134,0.349,0.204,0.743,0.204c0.31,0,0.509-0.046,0.597-0.141C48.143,334.193,48.188,333.983,48.188,333.655"
   id="path7871" />
<path
   d="M50.655,329.704v2.241l0.02,0.004c0.167-0.446,0.554-0.672,1.159-0.672c0.879,0,1.321,0.417,1.321,1.253v2.568h-0.903  v-2.441c0-0.443-0.225-0.664-0.674-0.664c-0.615,0-0.923,0.32-0.923,0.96v2.146h-0.903v-5.394H50.655"
   id="path7873" />
<path
   d="M55.582,333.407c-0.509,0-0.765,0.176-0.765,0.529c0,0.245,0.051,0.405,0.158,0.482c0.104,0.076,0.325,0.115,0.662,0.115  c0.548,0,0.824-0.186,0.824-0.558C56.461,333.596,56.169,333.407,55.582,333.407 M54.979,332.415h-0.922  c0-0.453,0.104-0.755,0.315-0.909c0.209-0.152,0.627-0.229,1.25-0.229c0.678,0,1.136,0.093,1.376,0.281  c0.238,0.186,0.358,0.543,0.358,1.07v2.47h-0.903l0.043-0.518l-0.024-0.004c-0.173,0.375-0.574,0.565-1.202,0.565  c-0.911,0-1.369-0.387-1.369-1.166c0-0.784,0.465-1.177,1.4-1.177c0.623,0,1.001,0.142,1.136,0.431h0.016v-0.612  c0-0.294-0.051-0.49-0.154-0.587c-0.103-0.095-0.312-0.145-0.631-0.145C55.209,331.885,54.979,332.062,54.979,332.415"
   id="path7875" />
<path
   d="M58.255,331.32h0.895l-0.036,0.636l0.02,0.004c0.175-0.455,0.57-0.684,1.183-0.684c0.891,0,1.336,0.415,1.336,1.249v2.572  h-0.903v-2.418l-0.02-0.265c-0.042-0.281-0.262-0.423-0.663-0.423c-0.606,0-0.911,0.288-0.911,0.865v2.24h-0.902V331.32"
   id="path7877" />
<path
   d="M63.438,331.32v3.777h-0.903v-3.777H63.438 M63.438,329.704v0.755h-0.903v-0.755H63.438"
   id="path7879" />
<polyline
   points="64.205,331.32 67.143,331.32 67.143,332.099 65.124,334.41 67.143,334.41 67.143,335.098 64.047,335.098   64.047,334.304 66.046,332.008 64.205,332.008 64.205,331.32 "
   id="polyline7881" />
<path
   d="M70.188,332.818l-0.004-0.151c0-0.3-0.051-0.494-0.156-0.584c-0.103-0.089-0.329-0.134-0.676-0.134  c-0.335,0-0.554,0.053-0.657,0.162c-0.101,0.107-0.152,0.344-0.152,0.708H70.188 M70.18,333.889h0.907v0.146  c0,0.737-0.552,1.106-1.656,1.106c-0.75,0-1.238-0.126-1.471-0.383c-0.23-0.254-0.347-0.796-0.347-1.624  c0-0.734,0.12-1.229,0.363-1.481c0.241-0.253,0.714-0.379,1.416-0.379c0.672,0,1.124,0.123,1.353,0.37  c0.229,0.245,0.343,0.729,0.343,1.452v0.277h-2.551c-0.004,0.083-0.008,0.138-0.008,0.166c0,0.371,0.057,0.619,0.171,0.743  c0.114,0.122,0.341,0.186,0.684,0.186c0.332,0,0.546-0.036,0.646-0.109C70.129,334.286,70.18,334.129,70.18,333.889"
   id="path7883" />
<path
   d="M73.422,331.992c-0.335,0-0.554,0.071-0.655,0.215c-0.099,0.142-0.15,0.452-0.15,0.926c0,0.548,0.049,0.901,0.15,1.06  c0.099,0.158,0.323,0.236,0.67,0.236c0.363,0,0.593-0.077,0.696-0.233c0.101-0.154,0.152-0.514,0.152-1.075  c0-0.462-0.055-0.767-0.167-0.913C74.008,332.065,73.775,331.992,73.422,331.992 M75.192,329.704v5.394h-0.879l0.032-0.608  l-0.016-0.004c-0.176,0.438-0.56,0.66-1.152,0.66c-0.595,0-0.991-0.136-1.185-0.409c-0.193-0.272-0.29-0.826-0.29-1.662  c0-0.673,0.103-1.142,0.312-1.405c0.207-0.261,0.576-0.393,1.107-0.393c0.615,0,0.998,0.194,1.152,0.585l0.016-0.004v-2.154H75.192"
   id="path7885" />
<path
   d="M76.94,331.32v0.972h-0.903v-0.972H76.94 M76.94,334.126v0.972h-0.903v-0.972H76.94"
   id="path7887" />
<path
   fill="none"
   stroke="#000000"
   stroke-width="1.0114"
   stroke-miterlimit="10"
   d="M90.247,335.53c0,1.14-0.923,2.063-2.062,2.063  h-5.713c-1.138,0-2.062-0.923-2.062-2.063v-5.584c0-1.14,0.924-2.063,2.062-2.063h5.713c1.139,0,2.062,0.923,2.062,2.063V335.53z"
   id="path7889" />
<polyline
   points="153.367,329.705 153.367,334.182 155.891,334.182 155.891,335.098 152.346,335.098 152.346,329.705   153.367,329.705 "
   id="polyline7891" />
<path
   d="M158.817,332.818l-0.004-0.15c0-0.3-0.051-0.494-0.156-0.584c-0.103-0.089-0.329-0.134-0.676-0.134  c-0.335,0-0.554,0.053-0.657,0.162c-0.1,0.106-0.151,0.344-0.151,0.707H158.817 M158.809,333.889h0.907v0.146  c0,0.737-0.552,1.106-1.656,1.106c-0.75,0-1.238-0.126-1.471-0.383c-0.231-0.255-0.347-0.796-0.347-1.624  c0-0.734,0.12-1.229,0.363-1.481c0.241-0.253,0.714-0.379,1.416-0.379c0.672,0,1.124,0.123,1.353,0.37  c0.229,0.245,0.343,0.729,0.343,1.452v0.277h-2.551c-0.004,0.083-0.008,0.138-0.008,0.166c0,0.371,0.057,0.618,0.172,0.743  c0.114,0.123,0.341,0.186,0.684,0.186c0.332,0,0.546-0.036,0.647-0.108C158.758,334.286,158.809,334.13,158.809,333.889"
   id="path7893" />
<path
   d="M162.059,331.993c-0.347,0-0.57,0.069-0.668,0.211c-0.099,0.14-0.148,0.46-0.148,0.962c0,0.532,0.049,0.871,0.148,1.02  c0.098,0.146,0.325,0.221,0.68,0.221c0.355,0,0.584-0.075,0.69-0.227c0.105-0.15,0.158-0.486,0.158-1.006  c0-0.498-0.051-0.818-0.158-0.964C162.656,332.065,162.422,331.993,162.059,331.993 M163.837,331.321v3.849  c0,0.616-0.124,1.039-0.373,1.268c-0.249,0.229-0.706,0.344-1.374,0.344c-0.646,0-1.078-0.087-1.297-0.261  c-0.217-0.174-0.327-0.518-0.327-1.031h0.875c0,0.245,0.045,0.401,0.138,0.472c0.091,0.069,0.296,0.105,0.615,0.105  c0.56,0,0.84-0.231,0.84-0.696v-0.849l-0.02-0.004c-0.16,0.403-0.529,0.604-1.104,0.604c-0.57,0-0.96-0.138-1.169-0.415  s-0.313-0.792-0.313-1.549c0-0.711,0.104-1.201,0.313-1.474c0.209-0.271,0.587-0.407,1.138-0.407c0.599,0,0.992,0.222,1.179,0.668  h0.02l-0.043-0.625H163.837"
   id="path7895" />
<path
   d="M165.585,331.321v0.972h-0.903v-0.972H165.585 M165.585,334.126v0.972h-0.903v-0.972H165.585"
   id="path7897" />
<path
   fill="none"
   stroke="#000000"
   stroke-width="1.0114"
   stroke-miterlimit="10"
   d="M179.107,335.53  c0,1.14-0.923,2.063-2.062,2.063h-5.714c-1.139,0-2.063-0.923-2.063-2.063v-5.584c0-1.14,0.924-2.063,2.063-2.063h5.714  c1.139,0,2.062,0.923,2.062,2.063V335.53z"
   id="path7899" />
<path
   d="M194.068,333.309l-0.931-2.81l-0.915,2.81H194.068 M194.305,334.063h-2.322l-0.335,1.035h-1.081l1.79-5.394h1.534  l1.817,5.394h-1.061L194.305,334.063"
   id="path7901" />
<path
   d="M197.197,332.495h1.163c0.461,0,0.755-0.054,0.881-0.16c0.124-0.107,0.188-0.358,0.188-0.757  c0-0.454-0.051-0.737-0.156-0.848c-0.103-0.108-0.373-0.164-0.811-0.164h-1.265V332.495 M196.176,335.098v-5.394h2.437  c0.728,0,1.218,0.126,1.473,0.382c0.252,0.252,0.38,0.745,0.38,1.472c0,0.721-0.12,1.201-0.362,1.438  c-0.241,0.237-0.729,0.355-1.467,0.355l-0.237,0.004h-1.202v1.742H196.176"
   id="path7903" />
<path
   d="M201.954,331.321v0.972h-0.903v-0.972H201.954 M201.954,334.126v0.972h-0.903v-0.972H201.954"
   id="path7905" />
<path
   fill="#FFFFFF"
   d="M216.181,335.528c0,1.139-0.924,2.063-2.063,2.063h-5.713c-1.139,0-2.063-0.924-2.063-2.063v-5.583  c0-1.14,0.924-2.064,2.063-2.064h5.713c1.139,0,2.063,0.924,2.063,2.064V335.528"
   id="path7907" />
<path
   fill="none"
   stroke="#000000"
   stroke-width="1.0114"
   stroke-miterlimit="10"
   d="M216.182,335.53  c0,1.14-0.924,2.063-2.063,2.063h-5.714c-1.138,0-2.063-0.923-2.063-2.063v-5.584c0-1.14,0.925-2.063,2.063-2.063h5.714  c1.139,0,2.063,0.923,2.063,2.063V335.53z"
   id="path7909" />
<path
   d="M104.408,331.277h-0.998c-0.004-0.049-0.008-0.087-0.008-0.111c-0.023-0.302-0.091-0.492-0.201-0.571  c-0.11-0.077-0.371-0.117-0.781-0.117c-0.483,0-0.799,0.044-0.948,0.135c-0.148,0.089-0.223,0.276-0.223,0.565  c0,0.34,0.059,0.543,0.181,0.612c0.12,0.067,0.521,0.121,1.199,0.158c0.8,0.043,1.319,0.158,1.555,0.344  c0.235,0.184,0.353,0.567,0.353,1.149c0,0.715-0.138,1.18-0.414,1.389s-0.883,0.314-1.825,0.314c-0.846,0-1.408-0.103-1.686-0.308  c-0.276-0.206-0.416-0.621-0.416-1.249l-0.004-0.198h0.994l0.004,0.115c0,0.375,0.065,0.606,0.197,0.691  c0.13,0.083,0.489,0.126,1.077,0.126c0.457,0,0.749-0.047,0.875-0.146c0.126-0.097,0.189-0.322,0.189-0.675  c0-0.261-0.047-0.433-0.144-0.52c-0.094-0.085-0.302-0.136-0.621-0.156l-0.564-0.036c-0.852-0.049-1.396-0.167-1.632-0.355  c-0.237-0.186-0.355-0.588-0.355-1.205c0-0.628,0.142-1.049,0.428-1.258c0.284-0.209,0.854-0.314,1.709-0.314  c0.808,0,1.354,0.094,1.636,0.288c0.28,0.191,0.422,0.567,0.422,1.126V331.277"
   id="path7911" />
<path
   d="M110.503,331.321l-0.844,3.777h-1.333l-0.378-1.691c-0.065-0.292-0.114-0.514-0.146-0.668l-0.067-0.332l-0.067-0.332h-0.028  l-0.067,0.332l-0.067,0.336c-0.027,0.146-0.075,0.368-0.142,0.664l-0.378,1.691h-1.353l-0.84-3.777h0.911l0.363,1.75  c0.043,0.217,0.088,0.453,0.134,0.704l0.063,0.351l0.067,0.352h0.016l0.079-0.352l0.075-0.351c0.04-0.176,0.092-0.409,0.162-0.7  l0.41-1.754h1.151l0.41,1.754c0.075,0.328,0.13,0.561,0.162,0.7l0.075,0.351l0.075,0.352h0.02l0.067-0.352l0.063-0.351  c0.043-0.241,0.091-0.477,0.138-0.704l0.367-1.75H110.503"
   id="path7913" />
<path
   d="M112.498,333.407c-0.509,0-0.765,0.176-0.765,0.529c0,0.245,0.051,0.405,0.158,0.482c0.104,0.075,0.325,0.115,0.663,0.115  c0.548,0,0.824-0.186,0.824-0.557C113.377,333.597,113.086,333.407,112.498,333.407 M111.895,332.415h-0.922  c0-0.452,0.104-0.754,0.315-0.909c0.209-0.152,0.627-0.229,1.25-0.229c0.678,0,1.136,0.093,1.376,0.281  c0.238,0.186,0.358,0.543,0.358,1.07v2.47h-0.903l0.043-0.518l-0.024-0.004c-0.173,0.375-0.574,0.565-1.202,0.565  c-0.911,0-1.368-0.387-1.368-1.166c0-0.784,0.465-1.177,1.399-1.177c0.623,0,1.001,0.142,1.136,0.431h0.016v-0.613  c0-0.294-0.051-0.49-0.154-0.586c-0.103-0.095-0.311-0.145-0.631-0.145C112.126,331.886,111.895,332.062,111.895,332.415"
   id="path7915" />
<path
   d="M115.195,331.321h0.903l-0.055,0.53l0.02,0.003c0.215-0.395,0.554-0.592,1.018-0.592c0.662,0,0.994,0.419,0.994,1.256v0.265  h-0.852c0.01-0.103,0.016-0.17,0.016-0.201c0-0.403-0.155-0.605-0.469-0.605c-0.445,0-0.67,0.299-0.67,0.897v2.224h-0.903V331.321"
   id="path7917" />
<path
   d="M118.572,331.321h0.903l-0.024,0.581l0.02,0.004c0.183-0.419,0.567-0.628,1.151-0.628c0.68,0,1.059,0.233,1.136,0.699h0.016  c0.176-0.466,0.564-0.699,1.163-0.699c0.872,0,1.309,0.438,1.309,1.32v2.501h-0.903v-2.304c0-0.533-0.219-0.802-0.658-0.802  c-0.548,0-0.824,0.298-0.824,0.897v2.208h-0.903v-2.339c0-0.313-0.042-0.52-0.125-0.619c-0.083-0.099-0.258-0.148-0.526-0.148  c-0.554,0-0.832,0.304-0.832,0.917v2.189h-0.903V331.321"
   id="path7919" />
<path
   d="M126.032,331.321v0.972h-0.903v-0.972H126.032 M126.032,334.126v0.972h-0.903v-0.972H126.032"
   id="path7921" />
<path
   fill="none"
   stroke="#000000"
   stroke-width="1.0114"
   stroke-miterlimit="10"
   d="M138.972,335.53  c0,1.14-0.924,2.063-2.063,2.063h-5.713c-1.139,0-2.063-0.923-2.063-2.063v-5.584c0-1.14,0.925-2.063,2.063-2.063h5.713  c1.139,0,2.063,0.923,2.063,2.063V335.53z"
   id="path7923" />






<path
   fill="#FFFFFF"
   d="M48.054,220.31h2.511c0.878,0,1.275,0.071,1.275,1.034c0,0.963-0.222,1.266-1.224,1.266h-2.562V220.31   M51.047,227.919c1.878,0,2.686-0.524,2.686-2.543c0-1.158-0.237-2-1.476-2.145v-0.051c1.095-0.267,1.287-0.966,1.287-2.003  c0-1.997-0.89-2.362-2.655-2.362h-4.537v9.104H51.047 M48.054,223.937h2.732c1.026,0,1.242,0.293,1.242,1.292  c0,1.123-0.497,1.197-1.538,1.197h-2.437V223.937"
   id="path7937" />
<path
   fill="#FFFFFF"
   d="M60.208,224.885h-3.152l1.559-4.732h0.023L60.208,224.885 M60.598,226.212l0.598,1.707h1.777l-3.093-9.104  h-2.582l-3.031,9.104h1.815l0.571-1.707H60.598"
   id="path7939" />
<polyline
   fill="#FFFFFF"
   points="66.457,220.31 69.121,220.31 69.121,218.816 62.089,218.816 62.089,220.31 64.753,220.31   64.753,227.919 66.457,227.919 66.457,220.31 "
   id="polyline7941" />
<polyline
   fill="#FFFFFF"
   points="73.567,220.31 76.232,220.31 76.232,218.816 69.2,218.816 69.2,220.31 71.864,220.31   71.864,227.919 73.567,227.919 73.567,220.31 "
   id="polyline7943" />
<polyline
   fill="#FFFFFF"
   points="78.785,218.816 77.082,218.816 77.082,227.919 83.026,227.919 83.026,226.426 78.785,226.426   78.785,218.816 "
   id="polyline7945" />
<polyline
   fill="#FFFFFF"
   points="85.629,220.31 90.112,220.31 90.112,218.816 83.925,218.816 83.925,227.919 90.147,227.919   90.147,226.426 85.629,226.426 85.629,223.937 89.881,223.937 89.881,222.419 85.629,222.419 85.629,220.31 "
   id="polyline7947" />
<path
   fill="#FFFFFF"
   d="M100.871,224.885h-3.152l1.559-4.732h0.023L100.871,224.885 M101.261,226.212l0.598,1.707h1.777  l-3.093-9.104h-2.582l-3.031,9.104h1.816l0.571-1.707H101.261"
   id="path7949" />
<path
   fill="#FFFFFF"
   d="M105.979,223.368v-3.058h2.351c1.209,0,1.434,0.228,1.434,1.493c0,1.313-0.296,1.565-1.508,1.565H105.979   M108.625,224.885c0.828,0,1.139,0.54,1.139,1.316v1.719h1.703v-1.716c0-1.297-0.307-1.973-1.567-2.083v-0.051  c1.567-0.231,1.567-1.215,1.567-2.542c0-2.086-0.728-2.711-2.626-2.711h-4.566v9.104h1.704v-3.035H108.625"
   id="path7951" />
<polyline
   fill="#FFFFFF"
   points="121.916,220.247 121.916,227.919 123.619,227.919 123.619,218.816 120.789,218.816   118.338,225.579 118.291,225.579 115.789,218.816 113.021,218.816 113.021,227.919 114.724,227.919 114.724,220.286 117.53,227.919   119.109,227.919 121.916,220.247 "
   id="polyline7953" />
<path
   fill="#FFFFFF"
   d="M128.779,220.31c1.514,0,2.117,0.118,2.117,1.784v2.385c0,1.709-0.541,1.923-2.117,1.923  c-1.704,0-2.046-0.166-2.046-1.923v-2.385C126.732,220.688,126.913,220.31,128.779,220.31 M128.779,218.816  c-2.815,0-3.75,0.489-3.75,3.278v2.385c0,2.96,1.006,3.44,3.75,3.44c2.711,0,3.821-0.554,3.821-3.44v-2.385  C132.6,219.21,131.357,218.816,128.779,218.816"
   id="path7955" />
<path
   fill="#FFFFFF"
   d="M135.582,223.368v-3.058h2.352c1.209,0,1.434,0.228,1.434,1.493c0,1.313-0.296,1.565-1.509,1.565H135.582   M138.229,224.885c0.828,0,1.139,0.54,1.139,1.316v1.719h1.703v-1.716c0-1.297-0.308-1.973-1.567-2.083v-0.051  c1.567-0.231,1.567-1.215,1.567-2.542c0-2.086-0.728-2.711-2.626-2.711h-4.566v9.104h1.703v-3.035H138.229"
   id="path7957" />
<path
   fill="#FFFFFF"
   d="M144.518,221.471h-1.514v1.662h1.514V221.471 M144.518,226.257h-1.514v1.663h1.514V226.257"
   id="path7959" />
<path
   fill="#FFFFFF"
   d="M150.774,224.876v0.421c0,2.623,1.801,2.623,3.818,2.623c2.348,0,3.563-0.226,3.563-2.851  c0-2.297-0.772-2.442-3.596-2.584c-1.842-0.095-2.082-0.127-2.082-1.094c0-0.975,0.29-1.144,2.094-1.144  c1.275,0,1.692,0.036,1.692,1.022v0.29h1.703v-0.299c0-2.445-1.467-2.445-3.395-2.445c-2.215,0-3.797,0-3.797,2.575  c0,2.439,1.559,2.365,3.546,2.487c1.413,0.071,2.132-0.098,2.132,1.191c0,1.046-0.228,1.333-1.881,1.333  c-1.638,0-2.094-0.071-2.094-1.105v-0.421H150.774"
   id="path7961" />
<path
   fill="#FFFFFF"
   d="M163.51,223.628l-0.751,1.002l2.345,1.404c-0.509,0.367-1.212,0.367-1.902,0.367  c-1.86,0-2.383-0.095-2.383-1.923v-2.385c0-1.678,0.751-1.784,2.383-1.784c1.786,0,2.349,0.178,2.349,1.784v1.558  c0,0.424,0,0.839,0,1.262L163.51,223.628 M167.969,226.58l-0.881-0.566c0.166-0.486,0.166-1.383,0.166-1.535v-2.385  c0-3.171-1.792-3.278-4.052-3.278c-2.741,0-4.086,0.477-4.086,3.278v2.385c0,2.984,1.162,3.44,4.096,3.44  c1.088,0,2.428,0,3.286-0.877l0.769,0.604L167.969,226.58"
   id="path7963" />
<path
   fill="#FFFFFF"
   d="M174.45,218.816v6.389c0,0.969-0.447,1.197-2.094,1.197c-1.724,0-2.07-0.275-2.07-1.197v-6.389h-1.703v6.419  c0,2.527,1.638,2.685,3.773,2.685c2.209,0,3.797-0.172,3.797-2.714v-6.389H174.45"
   id="path7965" />
<path
   fill="#FFFFFF"
   d="M182.9,224.885h-3.152l1.559-4.732h0.024L182.9,224.885 M183.29,226.212l0.598,1.707h1.777l-3.093-9.104  h-2.583l-3.031,9.104h1.815l0.571-1.707H183.29"
   id="path7967" />
<path
   fill="#FFFFFF"
   d="M188.007,226.426v-6.116h2.665c1.366,0,1.878,0.376,1.878,1.894v2.148c0,1.019-0.373,2.074-1.579,2.074  H188.007 M186.304,227.919h4.667c2.75,0,3.282-1.674,3.282-3.568v-2.148c0-2.478-1.067-3.387-3.581-3.387h-4.368V227.919"
   id="path7969" />
<path
   fill="#FFFFFF"
   d="M206.514,226.488h-5.11v-0.299c0-1.348,0.5-1.301,2.12-1.553c2.227-0.374,2.99-0.661,2.99-3.043  c0-2.379-1.183-2.776-3.321-2.776c-3.3,0-3.493,1.082-3.493,3.283h1.704c0-1.852,0.278-1.852,1.789-1.852  c1.233,0,1.618,0.166,1.618,1.345c0,1.636-0.417,1.467-2.191,1.793c-2.002,0.326-2.919,0.492-2.919,2.803v1.731h6.813V226.488"
   id="path7971" />
<polyline
   points="40.115,276.753 40.095,276.753 38.898,272.278 37.718,272.278 36.497,276.753 36.467,276.753 35.357,272.278   34.334,272.278 35.72,277.588 37.186,277.588 38.289,273.538 38.316,273.538 39.383,277.588 40.862,277.588 42.298,272.278   41.267,272.278 40.115,276.753 "
   id="polyline7973" />
<path
   d="M43.218,275.375c0-0.697,0.05-0.87,0.819-0.87c0.728,0,0.84,0.061,0.84,0.87H43.218 M44.877,276.409  c0,0.515-0.346,0.515-0.84,0.515c-0.799,0-0.819-0.24-0.819-0.996h2.544c0-1.649-0.204-2.102-1.725-2.102  c-1.494,0-1.704,0.593-1.704,1.95c0,1.377,0.289,1.812,1.704,1.812c1.056,0,1.725-0.055,1.725-1.179H44.877"
   id="path7975" />
<path
   d="M48.913,277.588h0.885v-2.331c0-1.246-0.503-1.431-1.708-1.431c-0.844,0-1.611,0-1.611,1.101h0.885  c0-0.458,0.323-0.493,0.726-0.493c0.771,0,0.823,0.202,0.823,0.776v0.515h-0.029c-0.22-0.461-0.683-0.461-1.153-0.461  c-0.904,0-1.362,0.247-1.362,1.135c0,1.01,0.536,1.188,1.362,1.188c0.447,0,1.002,0,1.182-0.548V277.588 M48.061,275.929  c0.456,0,0.852,0,0.852,0.472c0,0.486-0.36,0.524-0.852,0.524c-0.597,0-0.807-0.045-0.807-0.524  C47.253,275.929,47.592,275.929,48.061,275.929"
   id="path7977" />
<path
   d="M51.533,273.827h-0.885v5.421h0.885v-2.185h0.035c0.188,0.443,0.655,0.526,1.101,0.526c1.262,0,1.409-0.691,1.409-1.765  c0-1.128,0-1.997-1.409-1.997c-0.512,0-0.915,0.112-1.136,0.596V273.827 M52.411,276.924c-0.759,0-0.878-0.314-0.878-1.101  c0-0.876,0-1.317,0.878-1.317c0.781,0,0.781,0.484,0.781,1.317C53.192,276.75,53.018,276.924,52.411,276.924"
   id="path7979" />
<path
   d="M56.472,274.506c0.767,0,0.83,0.225,0.83,1.221c0,0.98-0.063,1.198-0.83,1.198c-0.768,0-0.83-0.218-0.83-1.198  C55.642,274.731,55.704,274.506,56.472,274.506 M56.472,273.827c-1.521,0-1.715,0.458-1.715,1.893c0,1.416,0.194,1.869,1.715,1.869  s1.714-0.453,1.714-1.869C58.186,274.285,57.993,273.827,56.472,273.827"
   id="path7981" />
<path
   d="M58.988,273.827v3.762h0.885v-2.048c0-0.666,0.104-1.034,0.868-1.034c0.563,0,0.681,0.185,0.681,0.723v2.36h0.885v-2.451  c0-0.906-0.294-1.311-1.26-1.311c-0.513,0-0.951,0.055-1.146,0.596h-0.027v-0.596H58.988"
   id="path7983" />
<path
   d="M66.319,274.866c0-1.039-0.868-1.039-1.565-1.039c-0.911,0-1.642,0-1.642,1.025c0,0.915,0.24,1.091,1.565,1.112  c0.847,0.014,0.868,0.171,0.868,0.484c0,0.477-0.295,0.477-0.802,0.477c-0.625,0-0.747-0.061-0.747-0.579h-0.885  c0,1.243,0.658,1.243,1.638,1.243c0.913,0,1.68-0.102,1.68-1.141c0-1.162-0.769-1.098-1.603-1.139  c-0.738-0.035-0.831-0.048-0.831-0.403c0-0.47,0.311-0.47,0.762-0.47c0.453,0,0.676,0,0.676,0.431H66.319"
   id="path7985" />
<path
   d="M74.14,277.588l0.482-0.674l-0.759-0.659c0.107-0.302,0.107-0.646,0.107-0.97v-0.351h-0.885v0.695l-1.668-1.417  c-0.232-0.185-0.323-0.31-0.323-0.61c0-0.489,0.266-0.489,0.764-0.489c0.756,0,0.785,0.1,0.785,0.783h0.885  c0-1.385-0.31-1.618-1.67-1.618c-1.068,0-1.648,0.166-1.648,1.317c0,0.45,0.084,0.614,0.413,0.906  c-0.838,0.069-0.966,0.64-0.966,1.403c0,1.561,0.8,1.684,2.123,1.684c0.712,0,1.443,0,1.773-0.626L74.14,277.588 M72.889,276.394  c-0.235,0.31-0.584,0.31-1.099,0.31c-0.899,0-1.248,0-1.248-0.799c0-0.591,0-0.86,0.586-0.952L72.889,276.394"
   id="path7987" />
<polyline
   points="78.673,273.149 81.293,273.149 81.293,272.278 77.678,272.278 77.678,277.588 81.314,277.588 81.314,276.717   78.673,276.717 78.673,275.265 81.158,275.265 81.158,274.38 78.673,274.38 78.673,273.149 "
   id="polyline7989" />
<path
   d="M85.378,273.827h-0.885v0.596c-0.221-0.484-0.624-0.596-1.135-0.596c-1.409,0-1.409,0.868-1.409,1.997  c0,1.074,0.147,1.765,1.409,1.765c0.446,0,0.913-0.083,1.101-0.526h0.034v2.185h0.885V273.827 M83.615,274.506  c0.759,0,0.878,0.315,0.878,1.102c0,0.876,0,1.317-0.878,1.317c-0.781,0-0.781-0.484-0.781-1.317  C82.834,274.681,83.009,274.506,83.615,274.506"
   id="path7991" />
<path
   d="M89.604,277.588v-3.762H88.72v2.157c0,0.648-0.223,0.94-0.918,0.94c-0.581,0-0.631-0.206-0.631-0.74v-2.358h-0.885v2.691  c0,0.814,0.498,1.07,1.243,1.07c0.517,0,0.983-0.118,1.191-0.598v0.598H89.604"
   id="path7993" />
<path
   d="M91.369,272.278h-0.885v0.757h0.885V272.278 M91.369,273.827h-0.885v3.762h0.885V273.827"
   id="path7995" />
<path
   d="M93.04,273.827h-0.885v5.421h0.885v-2.185h0.035c0.188,0.443,0.655,0.526,1.101,0.526c1.262,0,1.409-0.691,1.409-1.765  c0-1.128,0-1.997-1.409-1.997c-0.512,0-0.914,0.112-1.136,0.596V273.827 M93.918,276.924c-0.759,0-0.878-0.314-0.878-1.101  c0-0.876,0-1.317,0.878-1.317c0.781,0,0.781,0.484,0.781,1.317C94.699,276.75,94.524,276.924,93.918,276.924"
   id="path7997" />
<rect
   x="96.596"
   y="276.619"
   width="0.885"
   height="0.97"
   id="rect7999" />
<path
   d="M125.199,276.717v-3.567h1.557c0.799,0,1.098,0.219,1.098,1.104v1.253c0,0.595-0.218,1.21-0.923,1.21H125.199   M124.203,277.588h2.728c1.607,0,1.918-0.977,1.918-2.082v-1.253c0-1.445-0.624-1.976-2.093-1.976h-2.553V277.588"
   id="path8001" />
<path
   d="M129.542,273.827v3.762h0.885v-2.097c0-0.659,0.15-0.986,0.913-0.986c0.517,0,0.636,0.185,0.636,0.652v2.431h0.885v-2.097  c0-0.659,0.138-0.986,0.847-0.986c0.48,0,0.591,0.185,0.591,0.652v2.431h0.885v-2.515c0-0.913-0.309-1.247-1.246-1.247  c-0.487,0-0.987,0.142-1.154,0.657h-0.028c-0.099-0.538-0.631-0.657-1.094-0.657c-0.494,0-1.025,0.105-1.234,0.574v-0.574H129.542"
   id="path8003" />
<path
   d="M138.517,277.733c0,0.683-0.154,0.851-0.871,0.851c-0.491,0-0.678-0.083-0.678-0.631h-0.885  c-0.057,1.136,0.636,1.294,1.563,1.294c1.338,0,1.756-0.329,1.756-1.708v-3.713h-0.885v0.596c-0.22-0.484-0.619-0.596-1.127-0.596  c-1.417,0-1.417,0.868-1.417,1.997c0,1.074,0.148,1.765,1.417,1.765c0.438,0,0.9-0.083,1.127-0.56V277.733 M137.646,274.506  c0.753,0,0.871,0.316,0.871,1.102c0,0.876,0,1.317-0.878,1.317c-0.781,0-0.781-0.484-0.781-1.317  C136.857,274.681,137.033,274.506,137.646,274.506"
   id="path8005" />
<polyline
   points="156.729,273.113 156.729,277.588 157.725,277.588 157.725,272.278 156.07,272.278 154.638,276.223 154.61,276.223   153.148,272.278 151.53,272.278 151.53,277.588 152.525,277.588 152.525,273.135 154.166,277.588 155.089,277.588 156.729,273.113   "
   id="polyline8007" />
<path
   d="M159.544,272.278h-0.885v0.757h0.885V272.278 M159.544,273.827h-0.885v3.762h0.885V273.827"
   id="path8009" />
<path
   d="M160.33,273.827v3.762h0.885v-2.048c0-0.666,0.104-1.034,0.868-1.034c0.563,0,0.681,0.185,0.681,0.723v2.36h0.885v-2.451  c0-0.906-0.294-1.311-1.26-1.311c-0.514,0-0.951,0.055-1.146,0.596h-0.028v-0.596H160.33"
   id="path8011" />
<path
   d="M169.021,275.813v0.246c0,1.53,1.053,1.53,2.231,1.53c1.372,0,2.083-0.131,2.083-1.663c0-1.339-0.451-1.424-2.102-1.507  c-1.077-0.055-1.217-0.074-1.217-0.638c0-0.569,0.169-0.667,1.224-0.667c0.745,0,0.989,0.021,0.989,0.596v0.169h0.996v-0.174  c0-1.426-0.857-1.426-1.984-1.426c-1.294,0-2.219,0-2.219,1.502c0,1.422,0.911,1.379,2.072,1.45  c0.826,0.042,1.246-0.057,1.246,0.695c0,0.61-0.133,0.778-1.099,0.778c-0.958,0-1.224-0.042-1.224-0.645v-0.246H169.021"
   id="path8013" />
<path
   d="M174.892,272.278h-0.885v5.311h0.885v-2.048c0-0.666,0.104-1.034,0.868-1.034c0.563,0,0.681,0.185,0.681,0.723v2.36h0.885  v-2.451c0-0.906-0.294-1.311-1.26-1.311c-0.513,0-0.951,0.057-1.146,0.602h-0.027V272.278"
   id="path8015" />
<path
   d="M177.774,274.491h0.467v1.938c0,0.936,0.301,1.16,1.29,1.16c0.97,0,1.255-0.339,1.255-1.461h-0.774  c0,0.395,0.055,0.797-0.48,0.797c-0.404,0-0.404-0.157-0.404-0.503v-1.931h1.471v-0.664h-1.471v-0.859h-0.885v0.859h-0.467V274.491"
   id="path8017" />
<polyline
   points="189.967,273.113 189.967,277.588 190.962,277.588 190.962,272.278 189.308,272.278 187.875,276.223   187.848,276.223 186.386,272.278 184.768,272.278 184.768,277.588 185.763,277.588 185.763,273.135 187.403,277.588   188.327,277.588 189.967,273.113 "
   id="polyline8019" />
<path
   d="M192.671,275.375c0-0.697,0.05-0.87,0.819-0.87c0.728,0,0.84,0.061,0.84,0.87H192.671 M194.331,276.409  c0,0.515-0.346,0.515-0.84,0.515c-0.799,0-0.819-0.24-0.819-0.996h2.544c0-1.649-0.204-2.102-1.725-2.102  c-1.494,0-1.705,0.593-1.705,1.95c0,1.377,0.289,1.812,1.705,1.812c1.056,0,1.725-0.055,1.725-1.179H194.331"
   id="path8021" />
<path
   d="M198.366,277.588h0.885v-5.311h-0.885v2.086h-0.021c-0.19-0.453-0.662-0.538-1.111-0.538c-1.265,0-1.412,0.697-1.412,1.781  c0,1.129,0,1.981,1.412,1.981c0.512,0,0.911-0.109,1.132-0.583V277.588 M197.495,274.506c0.766,0,0.871,0.315,0.871,1.102  c0,0.876,0,1.317-0.871,1.317c-0.789,0-0.789-0.484-0.789-1.317C196.706,274.681,196.882,274.506,197.495,274.506"
   id="path8023" />
<polyline
   points="204.425,272.278 203.429,272.278 203.429,277.588 206.903,277.588 206.903,276.717 204.425,276.717   204.425,272.278 "
   id="polyline8025" />
<path
   d="M207.429,273.827v3.762h0.885v-2.048c0-0.666,0.104-1.034,0.868-1.034c0.563,0,0.681,0.185,0.681,0.723v2.36h0.885v-2.451  c0-0.906-0.294-1.311-1.26-1.311c-0.514,0-0.951,0.055-1.146,0.596h-0.028v-0.596H207.429"
   id="path8027" />
<path
   d="M214.096,277.733c0,0.683-0.154,0.851-0.871,0.851c-0.491,0-0.677-0.083-0.677-0.631h-0.885  c-0.057,1.136,0.636,1.294,1.563,1.294c1.338,0,1.756-0.329,1.756-1.708v-3.713h-0.885v0.596c-0.219-0.484-0.619-0.596-1.127-0.596  c-1.417,0-1.417,0.868-1.417,1.997c0,1.074,0.148,1.765,1.417,1.765c0.439,0,0.9-0.083,1.127-0.56V277.733 M213.225,274.506  c0.754,0,0.871,0.316,0.871,1.102c0,0.876,0,1.317-0.878,1.317c-0.781,0-0.781-0.484-0.781-1.317  C212.437,274.681,212.613,274.506,213.225,274.506"
   id="path8029" />
<path
   d="M234.713,255.36h-3.937c0-0.965,0.421-0.764,1.914-1.157c1.543-0.412,2.023-0.717,2.023-2.324  c0-2.035-1.162-2.276-2.877-2.276c-1.857,0-2.877,0.376-2.877,2.345v0.352h1.817v-0.352c0-0.767,0.142-0.833,1.06-0.833  c0.807,0,1.06,0.085,1.06,0.792c0,0.736-0.087,0.717-1.344,1.003c-2.229,0.509-2.593,0.785-2.593,2.449v1.512h5.754V255.36"
   id="path8031" />
<path
   d="M231.381,272.017h0.476c1.095,0,1.19,0.178,1.19,0.658c0,0.819-0.333,0.857-1.19,0.857c-0.665,0-1.081-0.038-1.081-0.828  v-0.234h-1.817v0.383c0,2.049,1.325,2.194,2.986,2.194c1.673,0,2.92-0.27,2.92-2.135c0-0.819-0.274-1.477-1.211-1.515v-0.075  c0.847-0.114,1.06-0.807,1.06-1.602c0-1.846-1.519-1.943-2.769-1.943c-1.878,0-2.986,0.172-2.986,2.229v0.249h1.817v-0.144  c0-0.821,0.345-0.821,1.081-0.821c1.008,0,1.039,0.199,1.039,0.783c0,0.488-0.078,0.583-1.039,0.583h-0.476V272.017"
   id="path8033" />
<path
   d="M232.441,290.494h-2.279l2.21-3.05h0.068V290.494 M234.258,285.951h-2.834l-2.783,3.848v2.059h3.8v1.363h1.817v-1.363h0.62  v-1.363h-0.62V285.951"
   id="path8035" />
<path
   d="M228.935,309.271c0.05,1.763,0.984,2.123,2.787,2.123c2.134,0,2.991-0.348,2.991-2.601c0-1.697-0.514-2.397-2.281-2.397  c-0.953,0-1.154,0.021-1.656,0.556v-1.422h3.65v-1.406h-5.316v4.118h1.666c0.099-0.331,0.288-0.331,0.946-0.331  c1.152,0,1.173,0.194,1.173,1.077c0,0.892-0.277,0.892-1.173,0.892c-0.575,0-0.946-0.045-0.946-0.608H228.935"
   id="path8037" />
<path
   d="M234.713,324.556v-0.303c0-1.945-1.313-1.954-2.78-1.954c-2.096,0-2.974,0.374-2.974,2.596v1.815  c0,2.388,0.599,2.858,2.974,2.858c1.853,0,2.78-0.352,2.78-2.338c0-1.86-0.888-2.052-2.584-2.052c-0.636,0-1.079,0-1.334,0.755  h-0.019V324.8c0-0.951,0.265-0.989,1.157-0.989c0.686,0,0.963,0.038,0.963,0.745H234.713 M231.708,326.69  c0.864,0,1.188,0,1.188,0.568c0,0.75-0.137,0.795-1.188,0.795c-0.816,0-0.932-0.128-0.932-0.76  C230.776,326.754,230.989,326.69,231.708,326.69"
   id="path8039" />
<polyline
   points="233.804,231.363 231.507,231.363 228.862,233.554 229.955,234.794 231.835,233.078 231.835,238.632   233.804,238.632 233.804,231.363 "
   id="polyline8041" />
<path
   fill="#C6C8CA"
   d="M257.376,326.459c0,1.445-1.172,2.618-2.617,2.618c-1.447,0-2.618-1.173-2.618-2.618  c0-1.447,1.171-2.62,2.618-2.62C256.204,323.839,257.376,325.012,257.376,326.459"
   id="path8043" />
<path
   fill="none"
   stroke="#000000"
   stroke-width="1.0114"
   d="M257.376,326.461c0,1.445-1.172,2.619-2.617,2.619  c-1.447,0-2.618-1.174-2.618-2.619c0-1.446,1.171-2.619,2.618-2.619C256.204,323.842,257.376,325.015,257.376,326.461"
   id="path8045" />
<polyline
   points="386.496,330.601 386.864,330.947 384.819,333.126 253.064,333.126 251.247,335.145 229.111,335.145   226.769,332.831 226.769,319.6 229.434,317.305 251.247,317.305 253.064,319.326 384.848,319.326 387.001,321.651 387.001,330.8   386.864,330.947 386.496,330.601 385.989,330.601 385.989,322.049 384.405,320.337 252.613,320.337 250.795,318.317   229.809,318.317 227.78,320.063 227.78,332.408 229.526,334.133 250.795,334.133 252.613,332.114 384.382,332.114 386.126,330.254   386.496,330.601 385.989,330.601 386.496,330.601 "
   id="polyline8047" />
<path
   fill="#C6C8CA"
   d="M257.376,308.251c0,1.446-1.172,2.62-2.617,2.62c-1.447,0-2.618-1.173-2.618-2.62  c0-1.446,1.171-2.618,2.618-2.618C256.204,305.633,257.376,306.805,257.376,308.251"
   id="path8049" />
<path
   fill="none"
   stroke="#000000"
   stroke-width="1.0114"
   d="M257.376,308.253c0,1.446-1.172,2.619-2.617,2.619  c-1.447,0-2.618-1.173-2.618-2.619c0-1.446,1.171-2.619,2.618-2.619C256.204,305.635,257.376,306.807,257.376,308.253"
   id="path8051" />
<polyline
   points="386.496,312.394 386.864,312.739 384.819,314.918 253.064,314.918 251.247,316.938 229.111,316.938   226.769,314.625 226.769,301.393 229.434,299.099 251.247,299.099 253.064,301.118 384.848,301.118 387.001,303.445   387.001,312.594 386.864,312.739 386.496,312.394 385.989,312.394 385.989,303.841 384.405,302.13 252.613,302.13 250.795,300.11   229.809,300.11 227.78,301.857 227.78,314.201 229.526,315.926 250.795,315.926 252.613,313.907 384.382,313.907 386.126,312.048   386.496,312.394 385.989,312.394 386.496,312.394 "
   id="polyline8053" />
<path
   fill="#C6C8CA"
   d="M257.376,290.045c0,1.445-1.172,2.618-2.617,2.618c-1.447,0-2.618-1.173-2.618-2.618  c0-1.446,1.171-2.619,2.618-2.619C256.204,287.426,257.376,288.599,257.376,290.045"
   id="path8055" />
<path
   fill="none"
   stroke="#000000"
   stroke-width="1.0114"
   d="M257.376,290.047c0,1.446-1.172,2.619-2.617,2.619  c-1.447,0-2.618-1.172-2.618-2.619s1.171-2.619,2.618-2.619C256.204,287.428,257.376,288.601,257.376,290.047"
   id="path8057" />
<polyline
   points="386.496,294.187 386.864,294.533 384.819,296.712 253.064,296.712 251.247,298.73 229.111,298.73 226.769,296.418   226.769,283.186 229.434,280.893 251.247,280.893 253.064,282.912 384.848,282.912 387.001,285.239 387.001,294.388   386.864,294.533 386.496,294.187 385.989,294.187 385.989,285.635 384.405,283.924 252.613,283.924 250.795,281.904   229.809,281.904 227.78,283.649 227.78,295.995 229.526,297.719 250.795,297.719 252.613,295.7 384.382,295.7 386.126,293.842   386.496,294.187 385.989,294.187 386.496,294.187 "
   id="polyline8059" />
<path
   fill="#C6C8CA"
   d="M257.376,271.838c0,1.445-1.172,2.619-2.617,2.619c-1.447,0-2.618-1.174-2.618-2.619  c0-1.447,1.171-2.62,2.618-2.62C256.204,269.219,257.376,270.391,257.376,271.838"
   id="path8061" />
<path
   fill="none"
   stroke="#000000"
   stroke-width="1.0114"
   d="M257.376,271.84c0,1.446-1.172,2.62-2.617,2.62  c-1.447,0-2.618-1.173-2.618-2.62c0-1.446,1.171-2.619,2.618-2.619C256.204,269.222,257.376,270.395,257.376,271.84"
   id="path8063" />
<polyline
   points="386.496,275.979 386.864,276.326 384.819,278.504 253.064,278.504 251.247,280.524 229.111,280.524   226.769,278.21 226.769,264.979 229.434,262.685 251.247,262.685 253.064,264.705 384.848,264.705 387.001,267.031 387.001,276.18   386.864,276.326 386.496,275.979 385.989,275.979 385.989,267.428 384.405,265.716 252.613,265.716 250.795,263.696   229.809,263.696 227.78,265.442 227.78,277.788 229.526,279.512 250.795,279.512 252.613,277.493 384.382,277.493 386.126,275.634   386.496,275.979 385.989,275.979 386.496,275.979 "
   id="polyline8065" />
<path
   fill="#C6C8CA"
   d="M257.376,253.631c0,1.446-1.172,2.618-2.617,2.618c-1.447,0-2.618-1.172-2.618-2.618  c0-1.446,1.171-2.619,2.618-2.619C256.204,251.012,257.376,252.185,257.376,253.631"
   id="path8067" />
<path
   fill="none"
   stroke="#000000"
   stroke-width="1.0114"
   d="M257.376,253.634c0,1.445-1.172,2.619-2.617,2.619  c-1.447,0-2.618-1.173-2.618-2.619c0-1.447,1.171-2.62,2.618-2.62C256.204,251.014,257.376,252.187,257.376,253.634"
   id="path8069" />
<polyline
   points="386.496,257.773 386.864,258.119 384.819,260.298 253.064,260.298 251.247,262.316 229.111,262.316   226.769,260.004 226.769,246.773 229.434,244.479 251.247,244.479 253.064,246.498 384.848,246.498 387.001,248.825   387.001,257.974 386.864,258.119 386.496,257.773 385.989,257.773 385.989,249.221 384.407,247.51 252.613,247.51 250.795,245.49   229.809,245.49 227.78,247.236 227.78,259.581 229.526,261.305 250.795,261.305 252.613,259.287 384.383,259.287 386.126,257.428   386.496,257.773 385.989,257.773 386.496,257.773 "
   id="polyline8071" />
<path
   fill="#C6C8CA"
   d="M257.376,235.424c0,1.445-1.172,2.619-2.617,2.619c-1.447,0-2.618-1.174-2.618-2.619  c0-1.447,1.171-2.62,2.618-2.62C256.204,232.805,257.376,233.977,257.376,235.424"
   id="path8073" />
<path
   fill="none"
   stroke="#000000"
   stroke-width="1.0114"
   d="M257.376,235.428c0,1.444-1.172,2.618-2.617,2.618  c-1.447,0-2.618-1.174-2.618-2.618c0-1.448,1.171-2.619,2.618-2.619C256.204,232.809,257.376,233.98,257.376,235.428"
   id="path8075" />
<polyline
   points="386.496,239.565 386.864,239.913 384.819,242.09 253.064,242.09 251.247,244.11 229.111,244.11 226.769,241.796   226.769,228.565 229.434,226.271 251.247,226.271 253.064,228.292 384.848,228.292 387.001,230.617 387.001,239.766   386.864,239.913 386.496,239.565 385.989,239.565 385.989,231.015 384.407,229.302 252.613,229.302 250.795,227.282   229.809,227.282 227.78,229.03 227.78,241.374 229.526,243.099 250.795,243.099 252.613,241.079 384.383,241.079 386.126,239.22   386.496,239.565 385.989,239.565 386.496,239.565 "
   id="polyline8077" />






</svg>