<?xml version="1.0" encoding="UTF-8" standalone="no"?>
<!-- Generator: Adobe Illustrator 15.1.0, SVG Export Plug-In . SVG Version: 6.00 Build 0)  -->

<svg
   xmlns:dc="http://purl.org/dc/elements/1.1/"
   xmlns:cc="http://creativecommons.org/ns#"
   xmlns:rdf="http://www.w3.org/1999/02/22-rdf-syntax-ns#"
   xmlns:svg="http://www.w3.org/2000/svg"
   xmlns="http://www.w3.org/2000/svg"
   xmlns:sodipodi="http://sodipodi.sourceforge.net/DTD/sodipodi-0.dtd"
   xmlns:inkscape="http://www.inkscape.org/namespaces/inkscape"
   version="1.0"
   id="Layer_1"
   x="0px"
   y="0px"
   width="612px"
   height="792px"
   viewBox="0 0 612 792"
   enable-background="new 0 0 612 792"
   xml:space="preserve"
   inkscape:version="0.48.4 r9939"
   sodipodi:docname="Squad2_1_5.svg"><metadata
   id="metadata3607"><rdf:RDF><cc:Work
       rdf:about=""><dc:format>image/svg+xml</dc:format><dc:type
         rdf:resource="http://purl.org/dc/dcmitype/StillImage" /></cc:Work></rdf:RDF></metadata><defs
   id="defs3605" /><sodipodi:namedview
   pagecolor="#ffffff"
   bordercolor="#666666"
   borderopacity="1"
   objecttolerance="10"
   gridtolerance="10"
   guidetolerance="10"
   inkscape:pageopacity="0"
   inkscape:pageshadow="2"
   inkscape:window-width="640"
   inkscape:window-height="480"
   id="namedview3603"
   showgrid="false"
   inkscape:zoom="1.1919192"
   inkscape:cx="306"
   inkscape:cy="496.67797"
   inkscape:window-x="0"
   inkscape:window-y="0"
   inkscape:window-maximized="0"
   inkscape:current-layer="Layer_1" />



<path
   fill="none"
   stroke="#000000"
   stroke-width="0.5057"
   d="M265.196,235.428c0,1.444-1.172,2.618-2.62,2.618  c-1.447,0-2.618-1.174-2.618-2.618c0-1.448,1.171-2.619,2.618-2.619C264.023,232.809,265.196,233.98,265.196,235.428"
   id="path3569" />



<path
   fill="none"
   stroke="#000000"
   stroke-width="0.5057"
   d="M272.196,235.428c0,1.444-1.172,2.618-2.62,2.618  c-1.447,0-2.618-1.174-2.618-2.618c0-1.448,1.171-2.619,2.618-2.619C271.023,232.809,272.196,233.98,272.196,235.428"
   id="path3577" />



<path
   fill="none"
   stroke="#000000"
   stroke-width="0.5057"
   d="M279.196,235.428c0,1.444-1.172,2.618-2.62,2.618  c-1.447,0-2.618-1.174-2.618-2.618c0-1.448,1.171-2.619,2.618-2.619C278.023,232.809,279.196,233.98,279.196,235.428"
   id="path3585" />



<path
   fill="none"
   stroke="#000000"
   stroke-width="0.5057"
   d="M286.196,235.428c0,1.444-1.172,2.618-2.62,2.618  c-1.447,0-2.618-1.174-2.618-2.618c0-1.448,1.171-2.619,2.618-2.619C285.023,232.809,286.196,233.98,286.196,235.428"
   id="path3593" />



<path
   fill="none"
   stroke="#000000"
   stroke-width="0.5057"
   d="M293.196,235.428c0,1.444-1.172,2.618-2.62,2.618  c-1.447,0-2.618-1.174-2.618-2.618c0-1.448,1.171-2.619,2.618-2.619C292.023,232.809,293.196,233.98,293.196,235.428"
   id="path3601" />
</svg>