<?xml version="1.0" encoding="UTF-8" standalone="no"?>
<!-- Generator: Adobe Illustrator 15.1.0, SVG Export Plug-In . SVG Version: 6.00 Build 0)  -->

<svg
   xmlns:dc="http://purl.org/dc/elements/1.1/"
   xmlns:cc="http://creativecommons.org/ns#"
   xmlns:rdf="http://www.w3.org/1999/02/22-rdf-syntax-ns#"
   xmlns:svg="http://www.w3.org/2000/svg"
   xmlns="http://www.w3.org/2000/svg"
   xmlns:sodipodi="http://sodipodi.sourceforge.net/DTD/sodipodi-0.dtd"
   xmlns:inkscape="http://www.inkscape.org/namespaces/inkscape"
   version="1.0"
   id="Layer_1"
   x="0px"
   y="0px"
   width="612px"
   height="792px"
   viewBox="0 0 612 792"
   enable-background="new 0 0 612 792"
   xml:space="preserve"
   inkscape:version="0.48.4 r9939"
   sodipodi:docname="Squad3_1_18.svg"><metadata
   id="metadata4902"><rdf:RDF><cc:Work
       rdf:about=""><dc:format>image/svg+xml</dc:format><dc:type
         rdf:resource="http://purl.org/dc/dcmitype/StillImage" /></cc:Work></rdf:RDF></metadata><defs
   id="defs4900" /><sodipodi:namedview
   pagecolor="#ffffff"
   bordercolor="#666666"
   borderopacity="1"
   objecttolerance="10"
   gridtolerance="10"
   guidetolerance="10"
   inkscape:pageopacity="0"
   inkscape:pageshadow="2"
   inkscape:window-width="640"
   inkscape:window-height="480"
   id="namedview4898"
   showgrid="false"
   inkscape:zoom="1.1919192"
   inkscape:cx="306"
   inkscape:cy="396"
   inkscape:window-x="0"
   inkscape:window-y="0"
   inkscape:window-maximized="0"
   inkscape:current-layer="Layer_1" />



<path
   fill="none"
   stroke="#000000"
   stroke-width="0.5057"
   d="M265.196,370.46c0,1.446-1.172,2.618-2.62,2.618  c-1.447,0-2.618-1.172-2.618-2.618c0-1.446,1.171-2.619,2.618-2.619C264.023,367.842,265.196,369.014,265.196,370.46"
   id="path4760" />



<path
   fill="none"
   stroke="#000000"
   stroke-width="0.5057"
   d="M272.196,370.46c0,1.446-1.172,2.618-2.62,2.618  c-1.447,0-2.618-1.172-2.618-2.618c0-1.446,1.171-2.619,2.618-2.619C271.023,367.842,272.196,369.014,272.196,370.46"
   id="path4768" />



<path
   fill="none"
   stroke="#000000"
   stroke-width="0.5057"
   d="M279.196,370.46c0,1.446-1.172,2.618-2.62,2.618  c-1.447,0-2.618-1.172-2.618-2.618c0-1.446,1.171-2.619,2.618-2.619C278.023,367.842,279.196,369.014,279.196,370.46"
   id="path4776" />



<path
   fill="none"
   stroke="#000000"
   stroke-width="0.5057"
   d="M286.196,370.46c0,1.446-1.172,2.618-2.62,2.618  c-1.447,0-2.618-1.172-2.618-2.618c0-1.446,1.171-2.619,2.618-2.619C285.023,367.842,286.196,369.014,286.196,370.46"
   id="path4784" />



<path
   fill="none"
   stroke="#000000"
   stroke-width="0.5057"
   d="M293.196,370.46c0,1.446-1.172,2.618-2.62,2.618  c-1.447,0-2.618-1.172-2.618-2.618c0-1.446,1.171-2.619,2.618-2.619C292.023,367.842,293.196,369.014,293.196,370.46"
   id="path4792" />



<path
   fill="none"
   stroke="#000000"
   stroke-width="0.5057"
   d="M300.196,370.46c0,1.446-1.172,2.618-2.62,2.618  c-1.447,0-2.618-1.172-2.618-2.618c0-1.446,1.171-2.619,2.618-2.619C299.023,367.842,300.196,369.014,300.196,370.46"
   id="path4800" />



<path
   fill="none"
   stroke="#000000"
   stroke-width="0.5057"
   d="M307.195,370.46c0,1.446-1.172,2.618-2.619,2.618  c-1.447,0-2.618-1.172-2.618-2.618c0-1.446,1.171-2.619,2.618-2.619C306.023,367.842,307.195,369.014,307.195,370.46"
   id="path4808" />



<path
   fill="none"
   stroke="#000000"
   stroke-width="0.5057"
   d="M314.195,370.46c0,1.446-1.172,2.618-2.619,2.618  s-2.618-1.172-2.618-2.618c0-1.446,1.171-2.619,2.618-2.619S314.195,369.014,314.195,370.46"
   id="path4816" />



<path
   fill="none"
   stroke="#000000"
   stroke-width="0.5057"
   d="M321.195,370.46c0,1.446-1.172,2.618-2.619,2.618  s-2.618-1.172-2.618-2.618c0-1.446,1.171-2.619,2.618-2.619S321.195,369.014,321.195,370.46"
   id="path4824" />



<path
   fill="none"
   stroke="#000000"
   stroke-width="0.5057"
   d="M328.195,370.46c0,1.446-1.172,2.618-2.619,2.618  s-2.618-1.172-2.618-2.618c0-1.446,1.171-2.619,2.618-2.619S328.195,369.014,328.195,370.46"
   id="path4832" />



<path
   fill="none"
   stroke="#000000"
   stroke-width="0.5057"
   d="M335.195,370.46c0,1.446-1.172,2.618-2.619,2.618  s-2.618-1.172-2.618-2.618c0-1.446,1.171-2.619,2.618-2.619S335.195,369.014,335.195,370.46"
   id="path4840" />



<path
   fill="none"
   stroke="#000000"
   stroke-width="0.5057"
   d="M342.195,370.46c0,1.446-1.172,2.618-2.619,2.618  s-2.618-1.172-2.618-2.618c0-1.446,1.171-2.619,2.618-2.619S342.195,369.014,342.195,370.46"
   id="path4848" />



<path
   fill="none"
   stroke="#000000"
   stroke-width="0.5057"
   d="M349.195,370.46c0,1.446-1.172,2.618-2.619,2.618  s-2.618-1.172-2.618-2.618c0-1.446,1.171-2.619,2.618-2.619S349.195,369.014,349.195,370.46"
   id="path4856" />



<path
   fill="none"
   stroke="#000000"
   stroke-width="0.5057"
   d="M356.195,370.46c0,1.446-1.172,2.618-2.619,2.618  s-2.618-1.172-2.618-2.618c0-1.446,1.171-2.619,2.618-2.619S356.195,369.014,356.195,370.46"
   id="path4864" />



<path
   fill="none"
   stroke="#000000"
   stroke-width="0.5057"
   d="M363.195,370.46c0,1.446-1.172,2.618-2.619,2.618  s-2.618-1.172-2.618-2.618c0-1.446,1.171-2.619,2.618-2.619S363.195,369.014,363.195,370.46"
   id="path4872" />



<path
   fill="none"
   stroke="#000000"
   stroke-width="0.5057"
   d="M370.195,370.46c0,1.446-1.172,2.618-2.619,2.618  s-2.618-1.172-2.618-2.618c0-1.446,1.171-2.619,2.618-2.619S370.195,369.014,370.195,370.46"
   id="path4880" />



<path
   fill="none"
   stroke="#000000"
   stroke-width="0.5057"
   d="M377.195,370.46c0,1.446-1.172,2.618-2.619,2.618  s-2.618-1.172-2.618-2.618c0-1.446,1.171-2.619,2.618-2.619S377.195,369.014,377.195,370.46"
   id="path4888" />



<path
   fill="none"
   stroke="#000000"
   stroke-width="0.5057"
   d="M384.195,370.46c0,1.446-1.172,2.618-2.619,2.618  s-2.618-1.172-2.618-2.618c0-1.446,1.171-2.619,2.618-2.619S384.195,369.014,384.195,370.46"
   id="path4896" />
</svg>