<?xml version="1.0" encoding="UTF-8" standalone="no"?>
<!-- Generator: Adobe Illustrator 15.1.0, SVG Export Plug-In . SVG Version: 6.00 Build 0)  -->

<svg
   xmlns:dc="http://purl.org/dc/elements/1.1/"
   xmlns:cc="http://creativecommons.org/ns#"
   xmlns:rdf="http://www.w3.org/1999/02/22-rdf-syntax-ns#"
   xmlns:svg="http://www.w3.org/2000/svg"
   xmlns="http://www.w3.org/2000/svg"
   xmlns:sodipodi="http://sodipodi.sourceforge.net/DTD/sodipodi-0.dtd"
   xmlns:inkscape="http://www.inkscape.org/namespaces/inkscape"
   version="1.0"
   id="Layer_1"
   x="0px"
   y="0px"
   width="612px"
   height="792px"
   viewBox="0 0 612 792"
   enable-background="new 0 0 612 792"
   xml:space="preserve"
   inkscape:version="0.48.4 r9939"
   sodipodi:docname="Squad5_1_16.svg"><metadata
   id="metadata4260"><rdf:RDF><cc:Work
       rdf:about=""><dc:format>image/svg+xml</dc:format><dc:type
         rdf:resource="http://purl.org/dc/dcmitype/StillImage" /></cc:Work></rdf:RDF></metadata><defs
   id="defs4258" /><sodipodi:namedview
   pagecolor="#ffffff"
   bordercolor="#666666"
   borderopacity="1"
   objecttolerance="10"
   gridtolerance="10"
   guidetolerance="10"
   inkscape:pageopacity="0"
   inkscape:pageshadow="2"
   inkscape:window-width="640"
   inkscape:window-height="480"
   id="namedview4256"
   showgrid="false"
   inkscape:zoom="1.6856283"
   inkscape:cx="306"
   inkscape:cy="88.208232"
   inkscape:window-x="0"
   inkscape:window-y="0"
   inkscape:window-maximized="0"
   inkscape:current-layer="Layer_1" />



<path
   fill="none"
   stroke="#000000"
   stroke-width="0.5057"
   d="M265.196,640.527c0,1.446-1.172,2.619-2.62,2.619  c-1.447,0-2.618-1.173-2.618-2.619c0-1.447,1.171-2.619,2.618-2.619S265.196,639.079,265.196,640.527"
   id="path4134" />



<path
   fill="none"
   stroke="#000000"
   stroke-width="0.5057"
   d="M272.196,640.527c0,1.446-1.172,2.619-2.62,2.619  c-1.447,0-2.618-1.173-2.618-2.619c0-1.447,1.171-2.619,2.618-2.619S272.196,639.079,272.196,640.527"
   id="path4142" />



<path
   fill="none"
   stroke="#000000"
   stroke-width="0.5057"
   d="M279.196,640.527c0,1.446-1.172,2.619-2.62,2.619  c-1.447,0-2.618-1.173-2.618-2.619c0-1.447,1.171-2.619,2.618-2.619S279.196,639.079,279.196,640.527"
   id="path4150" />



<path
   fill="none"
   stroke="#000000"
   stroke-width="0.5057"
   d="M286.196,640.527c0,1.446-1.172,2.619-2.62,2.619  c-1.447,0-2.618-1.173-2.618-2.619c0-1.447,1.171-2.619,2.618-2.619S286.196,639.079,286.196,640.527"
   id="path4158" />



<path
   fill="none"
   stroke="#000000"
   stroke-width="0.5057"
   d="M293.196,640.527c0,1.446-1.172,2.619-2.62,2.619  c-1.447,0-2.618-1.173-2.618-2.619c0-1.447,1.171-2.619,2.618-2.619S293.196,639.079,293.196,640.527"
   id="path4166" />



<path
   fill="none"
   stroke="#000000"
   stroke-width="0.5057"
   d="M300.196,640.527c0,1.446-1.172,2.619-2.62,2.619  c-1.447,0-2.618-1.173-2.618-2.619c0-1.447,1.171-2.619,2.618-2.619S300.196,639.079,300.196,640.527"
   id="path4174" />



<path
   fill="none"
   stroke="#000000"
   stroke-width="0.5057"
   d="M307.195,640.527c0,1.446-1.172,2.619-2.619,2.619  c-1.446,0-2.617-1.173-2.617-2.619c0-1.447,1.171-2.619,2.617-2.619C306.023,637.907,307.195,639.079,307.195,640.527"
   id="path4182" />



<path
   fill="none"
   stroke="#000000"
   stroke-width="0.5057"
   d="M314.195,640.527c0,1.446-1.172,2.619-2.619,2.619  c-1.446,0-2.617-1.173-2.617-2.619c0-1.447,1.171-2.619,2.617-2.619C313.023,637.907,314.195,639.079,314.195,640.527"
   id="path4190" />



<path
   fill="none"
   stroke="#000000"
   stroke-width="0.5057"
   d="M321.195,640.527c0,1.446-1.172,2.619-2.619,2.619  c-1.446,0-2.617-1.173-2.617-2.619c0-1.447,1.171-2.619,2.617-2.619C320.023,637.907,321.195,639.079,321.195,640.527"
   id="path4198" />



<path
   fill="none"
   stroke="#000000"
   stroke-width="0.5057"
   d="M328.195,640.527c0,1.446-1.172,2.619-2.619,2.619  c-1.446,0-2.617-1.173-2.617-2.619c0-1.447,1.171-2.619,2.617-2.619C327.023,637.907,328.195,639.079,328.195,640.527"
   id="path4206" />



<path
   fill="none"
   stroke="#000000"
   stroke-width="0.5057"
   d="M335.195,640.527c0,1.446-1.172,2.619-2.619,2.619  c-1.446,0-2.617-1.173-2.617-2.619c0-1.447,1.171-2.619,2.617-2.619C334.023,637.907,335.195,639.079,335.195,640.527"
   id="path4214" />



<path
   fill="none"
   stroke="#000000"
   stroke-width="0.5057"
   d="M342.195,640.527c0,1.446-1.172,2.619-2.619,2.619  c-1.446,0-2.617-1.173-2.617-2.619c0-1.447,1.171-2.619,2.617-2.619C341.023,637.907,342.195,639.079,342.195,640.527"
   id="path4222" />



<path
   fill="none"
   stroke="#000000"
   stroke-width="0.5057"
   d="M349.195,640.527c0,1.446-1.172,2.619-2.619,2.619  c-1.446,0-2.617-1.173-2.617-2.619c0-1.447,1.171-2.619,2.617-2.619C348.023,637.907,349.195,639.079,349.195,640.527"
   id="path4230" />



<path
   fill="none"
   stroke="#000000"
   stroke-width="0.5057"
   d="M356.195,640.527c0,1.446-1.172,2.619-2.619,2.619  c-1.446,0-2.617-1.173-2.617-2.619c0-1.447,1.171-2.619,2.617-2.619C355.023,637.907,356.195,639.079,356.195,640.527"
   id="path4238" />



<path
   fill="none"
   stroke="#000000"
   stroke-width="0.5057"
   d="M363.195,640.527c0,1.446-1.172,2.619-2.619,2.619  c-1.446,0-2.617-1.173-2.617-2.619c0-1.447,1.171-2.619,2.617-2.619C362.023,637.907,363.195,639.079,363.195,640.527"
   id="path4246" />



<path
   fill="none"
   stroke="#000000"
   stroke-width="0.5057"
   d="M370.195,640.527c0,1.446-1.172,2.619-2.619,2.619  c-1.446,0-2.617-1.173-2.617-2.619c0-1.447,1.171-2.619,2.617-2.619C369.023,637.907,370.195,639.079,370.195,640.527"
   id="path4254" />
</svg>