<?xml version="1.0" encoding="utf-8"?>
<!-- Generator: Adobe Illustrator 15.1.0, SVG Export Plug-In . SVG Version: 6.00 Build 0)  -->
<!DOCTYPE svg PUBLIC "-//W3C//DTD SVG 1.0//EN" "http://www.w3.org/TR/2001/REC-SVG-20010904/DTD/svg10.dtd">
<svg version="1.0" id="Layer_1" xmlns="http://www.w3.org/2000/svg" xmlns:xlink="http://www.w3.org/1999/xlink" x="0px" y="0px"
	 width="612px" height="792px" viewBox="0 0 612 792" enable-background="new 0 0 612 792" xml:space="preserve">
<path fill="none" stroke="#000000" stroke-width="0.5057" d="M265.196,443.288c0,1.444-1.172,2.617-2.62,2.617
	c-1.447,0-2.618-1.173-2.618-2.617c0-1.447,1.171-2.62,2.618-2.62C264.023,440.668,265.196,441.841,265.196,443.288"/>
<path fill="none" stroke="#000000" stroke-width="0.5057" d="M265.196,425.082c0,1.444-1.172,2.617-2.62,2.617
	c-1.447,0-2.618-1.173-2.618-2.617c0-1.448,1.171-2.62,2.618-2.62C264.023,422.462,265.196,423.634,265.196,425.082"/>
<path fill="none" stroke="#000000" stroke-width="0.5057" d="M265.196,406.875c0,1.446-1.172,2.617-2.62,2.617
	c-1.447,0-2.618-1.171-2.618-2.617c0-1.447,1.171-2.62,2.618-2.62C264.023,404.255,265.196,405.428,265.196,406.875"/>
<path fill="none" stroke="#000000" stroke-width="0.5057" d="M265.196,388.668c0,1.446-1.172,2.619-2.62,2.619
	c-1.447,0-2.618-1.173-2.618-2.619c0-1.446,1.171-2.619,2.618-2.619C264.023,386.049,265.196,387.221,265.196,388.668"/>
<path fill="none" stroke="#000000" stroke-width="0.5057" d="M265.196,370.46c0,1.446-1.172,2.618-2.62,2.618
	c-1.447,0-2.618-1.172-2.618-2.618c0-1.446,1.171-2.619,2.618-2.619C264.023,367.842,265.196,369.014,265.196,370.46"/>
<path fill="none" stroke="#000000" stroke-width="0.5057" d="M272.196,443.288c0,1.444-1.172,2.617-2.62,2.617
	c-1.447,0-2.618-1.173-2.618-2.617c0-1.447,1.171-2.62,2.618-2.62C271.023,440.668,272.196,441.841,272.196,443.288"/>
<path fill="none" stroke="#000000" stroke-width="0.5057" d="M272.196,425.082c0,1.444-1.172,2.617-2.62,2.617
	c-1.447,0-2.618-1.173-2.618-2.617c0-1.448,1.171-2.62,2.618-2.62C271.023,422.462,272.196,423.634,272.196,425.082"/>
<path fill="none" stroke="#000000" stroke-width="0.5057" d="M272.196,406.875c0,1.446-1.172,2.617-2.62,2.617
	c-1.447,0-2.618-1.171-2.618-2.617c0-1.447,1.171-2.62,2.618-2.62C271.023,404.255,272.196,405.428,272.196,406.875"/>
<path fill="none" stroke="#000000" stroke-width="0.5057" d="M272.196,388.668c0,1.446-1.172,2.619-2.62,2.619
	c-1.447,0-2.618-1.173-2.618-2.619c0-1.446,1.171-2.619,2.618-2.619C271.023,386.049,272.196,387.221,272.196,388.668"/>
<path fill="none" stroke="#000000" stroke-width="0.5057" d="M272.196,370.46c0,1.446-1.172,2.618-2.62,2.618
	c-1.447,0-2.618-1.172-2.618-2.618c0-1.446,1.171-2.619,2.618-2.619C271.023,367.842,272.196,369.014,272.196,370.46"/>
</svg>
