<?xml version="1.0" encoding="UTF-8" standalone="no"?>
<!-- Generator: Adobe Illustrator 15.1.0, SVG Export Plug-In . SVG Version: 6.00 Build 0)  -->

<svg
   xmlns:dc="http://purl.org/dc/elements/1.1/"
   xmlns:cc="http://creativecommons.org/ns#"
   xmlns:rdf="http://www.w3.org/1999/02/22-rdf-syntax-ns#"
   xmlns:svg="http://www.w3.org/2000/svg"
   xmlns="http://www.w3.org/2000/svg"
   xmlns:sodipodi="http://sodipodi.sourceforge.net/DTD/sodipodi-0.dtd"
   xmlns:inkscape="http://www.inkscape.org/namespaces/inkscape"
   version="1.0"
   id="Layer_1"
   x="0px"
   y="0px"
   width="612px"
   height="792px"
   viewBox="0 0 612 792"
   enable-background="new 0 0 612 792"
   xml:space="preserve"
   inkscape:version="0.48.2 r9819"
   sodipodi:docname="Squad1_4.svg"><metadata
   id="metadata3785"><rdf:RDF><cc:Work
       rdf:about=""><dc:format>image/svg+xml</dc:format><dc:type
         rdf:resource="http://purl.org/dc/dcmitype/StillImage" /></cc:Work></rdf:RDF></metadata><defs
   id="defs3783" /><sodipodi:namedview
   pagecolor="#ffffff"
   bordercolor="#666666"
   borderopacity="1"
   objecttolerance="10"
   gridtolerance="10"
   guidetolerance="10"
   inkscape:pageopacity="0"
   inkscape:pageshadow="2"
   inkscape:window-width="1618"
   inkscape:window-height="1028"
   id="namedview3781"
   showgrid="false"
   inkscape:zoom="2.9962757"
   inkscape:cx="187.2003"
   inkscape:cy="646.46527"
   inkscape:window-x="-8"
   inkscape:window-y="-8"
   inkscape:window-maximized="1"
   inkscape:current-layer="Layer_1" />
<line
   fill="#C6C8CA"
   x1="397.073"
   y1="99.968"
   x2="397.073"
   y2="209.736"
   id="line3387" />
<polyline
   fill="#C6C8CA"
   points="397.073,209.736 391.341,218.337 232.43,218.337 226.698,209.736 35.767,209.736 30.034,201.134   30.034,91.367 35.767,82.765 224.419,82.765 230.153,91.367 389.906,91.367 397.073,99.968 "
   id="polyline3389" />
<polyline
   fill="#FFFFFF"
   points="392.772,205.435 387.04,214.037 228.131,214.037 222.397,205.435 31.468,205.435 25.733,196.833   25.733,87.066 31.468,78.464 220.12,78.464 225.852,87.066 385.606,87.066 392.772,95.667 392.772,205.435 "
   id="polyline3391" />
<polygon
   fill="none"
   stroke="#000000"
   stroke-width="2.0228"
   stroke-linecap="round"
   stroke-miterlimit="10"
   points="  392.772,205.438 387.039,214.04 228.13,214.04 222.397,205.438 31.468,205.438 25.733,196.836 25.733,87.069 31.468,78.468   220.12,78.468 225.852,87.069 385.606,87.069 392.772,95.672 "
   id="polygon3393" />
<polyline
   points="218.699,97.102 32.614,97.102 27.167,88.928 32.601,80.758 218.686,80.758 224.132,88.928 218.699,97.102 "
   id="polyline3395" />
<polygon
   fill="none"
   stroke="#FFFFFF"
   stroke-width="1.0114"
   stroke-linejoin="round"
   points="218.698,97.104 32.614,97.104   27.168,88.932 32.601,80.761 218.686,80.761 224.132,88.932 "
   id="polygon3397" />
<polyline
   points="36.642,103.099 36.642,107.575 35.621,107.575 35.621,103.099 34.067,103.099 34.067,102.182 38.25,102.182   38.25,103.099 36.642,103.099 "
   id="polyline3399" />
<path
   d="M41.844,103.798l-0.99,4.015c-0.138,0.569-0.312,0.95-0.519,1.147c-0.205,0.196-0.536,0.295-0.992,0.295  c-0.103,0-0.209-0.004-0.319-0.016v-0.668c0.079,0.004,0.144,0.008,0.197,0.008c0.383,0,0.627-0.334,0.73-1.004H39.49l-1.234-3.777  h0.97l0.473,1.6l0.236,0.802c0.012,0.052,0.049,0.186,0.11,0.403l0.114,0.399h0.02l0.083-0.399c0.042-0.206,0.069-0.34,0.083-0.403  l0.185-0.802l0.363-1.6H41.844"
   id="path3401" />
<path
   d="M44.032,104.466c-0.343,0-0.568,0.077-0.674,0.233c-0.104,0.154-0.158,0.484-0.158,0.988c0,0.49,0.055,0.814,0.169,0.976  c0.112,0.16,0.343,0.241,0.69,0.241c0.351,0,0.579-0.075,0.686-0.229c0.104-0.152,0.158-0.48,0.158-0.983c0-0.516-0.054-0.85-0.16-1  C44.637,104.541,44.401,104.466,44.032,104.466 M42.254,103.798h0.918l-0.035,0.561l0.02,0.004c0.217-0.407,0.623-0.612,1.218-0.612  c0.548,0,0.927,0.136,1.134,0.409c0.205,0.272,0.309,0.769,0.309,1.491c0,0.753-0.102,1.269-0.307,1.549  c-0.205,0.279-0.584,0.419-1.14,0.419c-0.591,0-0.978-0.198-1.159-0.592h-0.016v2.169h-0.942V103.798"
   id="path3403" />
<path
   d="M49.011,105.296l-0.004-0.151c0-0.3-0.051-0.494-0.156-0.584c-0.103-0.089-0.329-0.134-0.676-0.134  c-0.335,0-0.554,0.053-0.657,0.162c-0.1,0.107-0.152,0.344-0.152,0.708H49.011 M49.002,106.366h0.907v0.146  c0,0.737-0.552,1.106-1.656,1.106c-0.75,0-1.239-0.126-1.471-0.383c-0.23-0.254-0.347-0.796-0.347-1.624  c0-0.734,0.12-1.229,0.363-1.481c0.24-0.253,0.713-0.379,1.416-0.379c0.672,0,1.124,0.123,1.352,0.37  c0.229,0.245,0.343,0.729,0.343,1.452v0.277h-2.551c-0.004,0.083-0.008,0.138-0.008,0.166c0,0.371,0.057,0.618,0.171,0.743  c0.114,0.122,0.341,0.186,0.684,0.186c0.332,0,0.546-0.036,0.646-0.109C48.951,106.763,49.002,106.607,49.002,106.366"
   id="path3405" />
<path
   d="M51.523,103.798v0.972h-0.903v-0.972H51.523 M51.523,106.604v0.972h-0.903v-0.972H51.523"
   id="path3407" />




<path
   d="M36.728,116.537h2.369l0.016,1.071c0,0.778-0.146,1.282-0.44,1.507c-0.292,0.225-0.946,0.338-1.961,0.338  c-0.931,0-1.546-0.15-1.849-0.451c-0.302-0.3-0.454-0.913-0.454-1.837c0-1.18,0.059-1.924,0.181-2.237  c0.15-0.379,0.377-0.634,0.683-0.766c0.304-0.13,0.822-0.198,1.553-0.198c0.956,0,1.573,0.101,1.853,0.306  c0.278,0.204,0.418,0.656,0.418,1.357h-1.033c-0.018-0.352-0.095-0.571-0.231-0.658c-0.134-0.085-0.475-0.129-1.019-0.129  c-0.591,0-0.966,0.073-1.125,0.222c-0.158,0.146-0.239,0.494-0.239,1.039l-0.004,0.541l0.008,0.692c0,0.533,0.079,0.875,0.237,1.021  c0.158,0.146,0.522,0.22,1.096,0.22c0.556,0,0.911-0.062,1.063-0.186c0.15-0.123,0.227-0.415,0.227-0.877l0.004-0.221h-1.352  V116.537"
   id="path3417" />
<path
   d="M43.146,115.628v3.777h-0.903l0.051-0.648l-0.016-0.004c-0.176,0.462-0.58,0.695-1.215,0.695  c-0.854,0-1.281-0.427-1.281-1.284v-2.537h0.903v2.319c0,0.32,0.043,0.532,0.134,0.635c0.088,0.101,0.274,0.152,0.556,0.152  c0.578,0,0.868-0.348,0.868-1.043v-2.063H43.146"
   id="path3419" />
<path
   d="M44.063,115.628h0.895l-0.036,0.636l0.02,0.004c0.175-0.455,0.57-0.684,1.183-0.684c0.891,0,1.336,0.415,1.336,1.249v2.572  h-0.903v-2.418l-0.02-0.265c-0.041-0.28-0.262-0.423-0.662-0.423c-0.607,0-0.911,0.289-0.911,0.866v2.24h-0.903V115.628"
   id="path3421" />
<path
   d="M48.342,115.628h0.895l-0.036,0.636l0.02,0.004c0.175-0.455,0.57-0.684,1.183-0.684c0.891,0,1.336,0.415,1.336,1.249v2.572  h-0.903v-2.418l-0.02-0.265c-0.041-0.28-0.262-0.423-0.662-0.423c-0.607,0-0.911,0.289-0.911,0.866v2.24h-0.903V115.628"
   id="path3423" />
<path
   d="M55.059,117.126l-0.004-0.15c0-0.3-0.051-0.494-0.156-0.585c-0.103-0.089-0.329-0.134-0.676-0.134  c-0.335,0-0.554,0.053-0.657,0.162c-0.1,0.107-0.152,0.344-0.152,0.708H55.059 M55.051,118.197h0.907v0.146  c0,0.737-0.552,1.106-1.656,1.106c-0.749,0-1.238-0.127-1.471-0.383c-0.23-0.255-0.347-0.796-0.347-1.624  c0-0.735,0.12-1.229,0.362-1.481c0.241-0.253,0.714-0.379,1.416-0.379c0.672,0,1.124,0.122,1.352,0.369  c0.229,0.245,0.343,0.729,0.343,1.452v0.276h-2.551c-0.004,0.083-0.008,0.139-0.008,0.167c0,0.371,0.057,0.618,0.171,0.743  c0.114,0.123,0.341,0.186,0.684,0.186c0.332,0,0.546-0.036,0.646-0.109C55,118.594,55.051,118.438,55.051,118.197"
   id="path3425" />
<path
   d="M56.731,115.628h0.903l-0.055,0.529l0.02,0.004c0.215-0.395,0.554-0.592,1.018-0.592c0.662,0,0.994,0.419,0.994,1.256v0.265  h-0.852c0.01-0.103,0.016-0.17,0.016-0.202c0-0.403-0.155-0.604-0.469-0.604c-0.445,0-0.67,0.298-0.67,0.897v2.225h-0.903V115.628"
   id="path3427" />
<path
   d="M63.21,115.628l-0.989,4.014c-0.138,0.569-0.312,0.95-0.519,1.148c-0.205,0.196-0.536,0.294-0.992,0.294  c-0.103,0-0.209-0.004-0.32-0.016v-0.667c0.08,0.004,0.145,0.008,0.197,0.008c0.383,0,0.627-0.334,0.729-1.003h-0.461l-1.234-3.777  h0.97l0.473,1.6l0.236,0.802c0.012,0.051,0.049,0.186,0.11,0.403l0.114,0.399h0.02l0.083-0.399c0.042-0.206,0.069-0.34,0.083-0.403  l0.185-0.802l0.363-1.6H63.21"
   id="path3429" />
<path
   d="M69.661,115.585h-0.998c-0.004-0.05-0.008-0.087-0.008-0.111c-0.024-0.302-0.091-0.492-0.201-0.571  c-0.11-0.077-0.371-0.117-0.781-0.117c-0.483,0-0.798,0.043-0.948,0.135c-0.147,0.089-0.223,0.276-0.223,0.565  c0,0.339,0.059,0.543,0.181,0.612c0.12,0.067,0.521,0.121,1.199,0.158c0.801,0.043,1.319,0.158,1.555,0.344  c0.235,0.184,0.353,0.567,0.353,1.149c0,0.715-0.138,1.18-0.414,1.389c-0.275,0.21-0.883,0.314-1.825,0.314  c-0.846,0-1.408-0.103-1.686-0.308c-0.276-0.206-0.417-0.621-0.417-1.249l-0.003-0.198h0.994l0.003,0.115  c0,0.375,0.065,0.606,0.197,0.691c0.13,0.083,0.489,0.126,1.077,0.126c0.458,0,0.749-0.047,0.875-0.146  c0.126-0.097,0.189-0.322,0.189-0.675c0-0.261-0.047-0.433-0.144-0.52c-0.095-0.085-0.302-0.136-0.621-0.156l-0.564-0.036  c-0.852-0.049-1.396-0.168-1.632-0.355c-0.236-0.186-0.355-0.589-0.355-1.205c0-0.628,0.142-1.049,0.428-1.259  c0.284-0.209,0.854-0.314,1.709-0.314c0.808,0,1.354,0.095,1.636,0.289c0.28,0.191,0.422,0.567,0.422,1.126V115.585"
   id="path3431" />
<polyline
   points="71.379,114.012 71.379,117.098 71.612,117.098 72.628,115.628 73.677,115.628 72.365,117.406 73.945,119.406   72.826,119.406 71.6,117.73 71.379,117.73 71.379,119.406 70.476,119.406 70.476,114.012 71.379,114.012 "
   id="polyline3433" />
<path
   d="M75.254,115.628v3.777h-0.903v-3.777H75.254 M75.254,114.012v0.755h-0.903v-0.755H75.254"
   id="path3435" />
<rect
   x="76.145"
   y="114.012"
   width="0.903"
   height="5.394"
   id="rect3437" />
<rect
   x="77.937"
   y="114.012"
   width="0.903"
   height="5.394"
   id="rect3439" />
<path
   d="M80.593,115.628v0.972H79.69v-0.972H80.593 M80.593,118.434v0.972H79.69v-0.972H80.593"
   id="path3441" />
<line
   fill="none"
   stroke="#000000"
   stroke-width="1.0114"
   stroke-miterlimit="10"
   x1="83.226"
   y1="120.84"
   x2="101.86"
   y2="120.84"
   id="line3443" />
<path
   d="M145.847,117.614l-0.93-2.81l-0.915,2.81H145.847 M146.084,118.368h-2.323l-0.335,1.035h-1.08l1.79-5.394h1.534l1.817,5.394  h-1.06L146.084,118.368"
   id="path3445" />
<path
   d="M147.927,115.626h0.895l-0.036,0.636l0.02,0.004c0.175-0.455,0.569-0.684,1.183-0.684c0.891,0,1.336,0.415,1.336,1.249  v2.572h-0.903v-2.418l-0.02-0.265c-0.042-0.28-0.262-0.422-0.663-0.422c-0.607,0-0.911,0.288-0.911,0.865v2.24h-0.903V115.626"
   id="path3447" />
<path
   d="M154.64,115.626v0.688h-1.451v1.896c0,0.35,0.132,0.525,0.398,0.525c0.292,0,0.438-0.211,0.438-0.636v-0.15h0.769v0.19  c0,0.174-0.003,0.322-0.016,0.446c-0.049,0.577-0.477,0.865-1.285,0.865c-0.805,0-1.207-0.37-1.207-1.11v-2.027h-0.489v-0.688h0.489  v-0.846h0.903v0.846H154.64"
   id="path3449" />
<path
   d="M156.194,115.626v3.777h-0.903v-3.777H156.194 M156.194,114.01v0.755h-0.903v-0.755H156.194"
   id="path3451" />
<rect
   x="156.639"
   y="116.887"
   width="1.802"
   height="0.861"
   id="rect3453" />
<path
   d="M159.808,114.01v0.944c0,0.626-0.271,0.94-0.813,0.94c-0.028,0-0.083-0.002-0.166-0.008v-0.422  c0.288,0,0.434-0.121,0.434-0.364l-0.004-0.119h-0.355v-0.972H159.808"
   id="path3455" />
<path
   d="M167.014,114.01v5.394h-1.021v-2.939c0-0.233,0.006-0.5,0.02-0.798l0.02-0.403l0.02-0.399h-0.031l-0.123,0.375l-0.118,0.375  c-0.11,0.336-0.195,0.585-0.256,0.747l-1.183,3.042h-0.931l-1.195-3.019c-0.065-0.166-0.152-0.415-0.26-0.747l-0.123-0.375  l-0.123-0.372h-0.031l0.02,0.391l0.02,0.396c0.016,0.304,0.024,0.566,0.024,0.786v2.939h-1.021v-5.394h1.664l0.962,2.498  c0.065,0.173,0.152,0.422,0.26,0.747l0.118,0.375l0.123,0.371h0.035l0.114-0.371l0.119-0.372c0.096-0.312,0.181-0.561,0.252-0.743  l0.946-2.505H167.014"
   id="path3457" />
<path
   d="M170.366,117.124l-0.004-0.15c0-0.3-0.051-0.494-0.156-0.584c-0.103-0.089-0.329-0.134-0.676-0.134  c-0.335,0-0.554,0.053-0.657,0.162c-0.101,0.107-0.152,0.344-0.152,0.708H170.366 M170.357,118.194h0.907v0.146  c0,0.737-0.552,1.106-1.656,1.106c-0.75,0-1.238-0.126-1.471-0.383c-0.23-0.255-0.347-0.796-0.347-1.624  c0-0.734,0.12-1.229,0.363-1.481c0.241-0.253,0.714-0.379,1.416-0.379c0.672,0,1.124,0.123,1.353,0.37  c0.229,0.245,0.343,0.729,0.343,1.452v0.277h-2.551c-0.004,0.083-0.008,0.138-0.008,0.166c0,0.371,0.057,0.618,0.171,0.743  c0.114,0.123,0.341,0.186,0.684,0.186c0.332,0,0.546-0.036,0.646-0.108C170.306,118.591,170.357,118.435,170.357,118.194"
   id="path3459" />
<path
   d="M174.416,117.961h0.899v0.131l-0.055,0.572c-0.11,0.522-0.648,0.783-1.617,0.783c-0.709,0-1.181-0.128-1.415-0.385  c-0.233-0.257-0.351-0.772-0.351-1.551c0-0.759,0.116-1.269,0.351-1.533c0.232-0.263,0.688-0.395,1.364-0.395  c0.651,0,1.092,0.095,1.325,0.287c0.23,0.189,0.347,0.553,0.347,1.088h-0.895c0-0.438-0.252-0.66-0.761-0.66  c-0.358,0-0.585,0.069-0.678,0.209c-0.09,0.138-0.138,0.482-0.138,1.027c0,0.525,0.049,0.857,0.152,0.994  c0.101,0.134,0.349,0.203,0.743,0.203c0.31,0,0.509-0.045,0.597-0.14C174.37,118.499,174.416,118.289,174.416,117.961"
   id="path3461" />
<path
   d="M176.882,114.01v2.241l0.02,0.004c0.167-0.447,0.554-0.672,1.159-0.672c0.879,0,1.321,0.417,1.321,1.252v2.568h-0.903  v-2.442c0-0.442-0.225-0.664-0.674-0.664c-0.615,0-0.923,0.32-0.923,0.96v2.146h-0.903v-5.394H176.882"
   id="path3463" />
<path
   d="M186.308,115.583h-0.998c-0.004-0.049-0.008-0.087-0.008-0.111c-0.023-0.302-0.091-0.492-0.201-0.571  c-0.11-0.077-0.371-0.117-0.781-0.117c-0.483,0-0.799,0.044-0.949,0.135c-0.147,0.089-0.223,0.276-0.223,0.565  c0,0.34,0.06,0.543,0.182,0.612c0.12,0.067,0.521,0.121,1.198,0.158c0.801,0.043,1.319,0.158,1.556,0.344  c0.234,0.184,0.353,0.567,0.353,1.149c0,0.715-0.138,1.18-0.414,1.389s-0.883,0.314-1.826,0.314c-0.846,0-1.407-0.103-1.686-0.308  c-0.276-0.206-0.416-0.621-0.416-1.249l-0.004-0.198h0.994l0.004,0.115c0,0.375,0.065,0.606,0.197,0.691  c0.13,0.083,0.489,0.126,1.076,0.126c0.458,0,0.75-0.047,0.875-0.146c0.126-0.097,0.189-0.322,0.189-0.675  c0-0.261-0.047-0.433-0.144-0.52c-0.095-0.085-0.302-0.136-0.621-0.156l-0.564-0.036c-0.852-0.049-1.396-0.168-1.632-0.355  c-0.237-0.186-0.355-0.588-0.355-1.205c0-0.628,0.143-1.049,0.428-1.259c0.284-0.209,0.854-0.313,1.709-0.313  c0.809,0,1.354,0.094,1.636,0.288c0.28,0.191,0.422,0.567,0.422,1.126V115.583"
   id="path3465" />
<polyline
   points="188.025,114.01 188.025,117.096 188.258,117.096 189.275,115.626 190.324,115.626 189.011,117.404   190.592,119.403 189.472,119.403 188.246,117.728 188.025,117.728 188.025,119.403 187.123,119.403 187.123,114.01 188.025,114.01   "
   id="polyline3467" />
<path
   d="M191.902,115.626v3.777h-0.903v-3.777H191.902 M191.902,114.01v0.755h-0.903v-0.755H191.902"
   id="path3469" />
<rect
   x="192.792"
   y="114.01"
   width="0.902"
   height="5.394"
   id="rect3471" />
<rect
   x="194.584"
   y="114.01"
   width="0.903"
   height="5.394"
   id="rect3473" />
<path
   d="M197.24,115.626v0.972h-0.903v-0.972H197.24 M197.24,118.431v0.972h-0.903v-0.972H197.24"
   id="path3475" />
<line
   fill="none"
   stroke="#000000"
   stroke-width="1.0114"
   stroke-miterlimit="10"
   x1="198.805"
   y1="120.84"
   x2="217.439"
   y2="120.84"
   id="line3477" />



<path
   d="M36.611,128.365h2.37l0.016,1.071c0,0.778-0.146,1.282-0.439,1.507c-0.292,0.225-0.946,0.338-1.961,0.338  c-0.931,0-1.546-0.15-1.849-0.451c-0.302-0.3-0.454-0.913-0.454-1.837c0-1.18,0.059-1.924,0.181-2.237  c0.15-0.379,0.376-0.634,0.682-0.766c0.304-0.131,0.822-0.198,1.554-0.198c0.956,0,1.573,0.101,1.853,0.306  c0.278,0.204,0.418,0.656,0.418,1.357h-1.033c-0.018-0.352-0.094-0.571-0.23-0.658c-0.134-0.085-0.475-0.129-1.019-0.129  c-0.591,0-0.966,0.073-1.126,0.222c-0.158,0.146-0.238,0.494-0.238,1.039l-0.004,0.541l0.008,0.692c0,0.533,0.079,0.875,0.236,1.021  c0.158,0.146,0.522,0.219,1.096,0.219c0.556,0,0.911-0.061,1.063-0.186c0.149-0.123,0.227-0.415,0.227-0.877l0.004-0.221h-1.353  V128.365"
   id="path3485" />
<path
   d="M39.706,127.456h0.903l-0.055,0.529l0.02,0.004c0.215-0.395,0.554-0.592,1.018-0.592c0.662,0,0.994,0.418,0.994,1.256v0.265  h-0.852c0.01-0.103,0.016-0.17,0.016-0.202c0-0.403-0.155-0.604-0.469-0.604c-0.446,0-0.67,0.298-0.67,0.897v2.225h-0.903V127.456"
   id="path3487" />
<path
   d="M44.73,128.127c-0.375,0-0.615,0.067-0.718,0.204c-0.102,0.134-0.153,0.453-0.153,0.95c0,0.569,0.047,0.925,0.146,1.067  c0.097,0.142,0.339,0.213,0.729,0.213c0.375,0,0.613-0.075,0.712-0.226c0.099-0.15,0.148-0.509,0.148-1.083  c0-0.481-0.051-0.79-0.154-0.924C45.337,128.195,45.101,128.127,44.73,128.127 M44.738,127.412c0.728,0,1.204,0.117,1.431,0.35  c0.225,0.233,0.339,0.725,0.339,1.476c0,0.837-0.11,1.387-0.331,1.647s-0.686,0.391-1.396,0.391c-0.769,0-1.268-0.12-1.496-0.363  c-0.227-0.241-0.341-0.774-0.341-1.6c0-0.792,0.111-1.308,0.335-1.545C43.502,127.531,43.989,127.412,44.738,127.412"
   id="path3489" />
<path
   d="M50.604,127.456v3.777h-0.903l0.051-0.648l-0.016-0.003c-0.175,0.462-0.58,0.695-1.214,0.695  c-0.854,0-1.281-0.426-1.281-1.284v-2.537h0.903v2.319c0,0.32,0.043,0.532,0.134,0.635c0.089,0.101,0.274,0.152,0.556,0.152  c0.578,0,0.868-0.348,0.868-1.043v-2.063H50.604"
   id="path3491" />
<path
   d="M51.521,127.456h0.895l-0.036,0.636l0.02,0.004c0.175-0.455,0.569-0.684,1.183-0.684c0.891,0,1.336,0.415,1.336,1.249v2.572  h-0.903v-2.418l-0.02-0.265c-0.042-0.28-0.262-0.423-0.663-0.423c-0.607,0-0.911,0.289-0.911,0.866v2.24h-0.903V127.456"
   id="path3493" />
<path
   d="M57.385,128.127c-0.335,0-0.554,0.071-0.655,0.215c-0.098,0.143-0.15,0.453-0.15,0.927c0,0.547,0.05,0.901,0.15,1.059  c0.099,0.158,0.323,0.237,0.671,0.237c0.362,0,0.593-0.077,0.696-0.233c0.101-0.154,0.151-0.514,0.151-1.075  c0-0.462-0.055-0.767-0.167-0.913C57.971,128.201,57.738,128.127,57.385,128.127 M59.156,125.84v5.394h-0.879l0.032-0.608  l-0.016-0.004c-0.175,0.439-0.56,0.66-1.151,0.66c-0.595,0-0.991-0.136-1.185-0.409c-0.193-0.272-0.29-0.826-0.29-1.662  c0-0.673,0.103-1.142,0.312-1.404c0.207-0.261,0.576-0.394,1.108-0.394c0.615,0,0.998,0.194,1.151,0.585l0.016-0.004v-2.153H59.156"
   id="path3495" />
<path
   d="M68.379,125.84v5.394h-1.021v-2.94c0-0.233,0.005-0.5,0.02-0.798l0.02-0.403l0.02-0.399h-0.032l-0.123,0.375l-0.118,0.375  c-0.11,0.336-0.195,0.585-0.256,0.747l-1.183,3.042h-0.931l-1.195-3.019c-0.065-0.166-0.151-0.415-0.26-0.747l-0.123-0.375  l-0.122-0.371h-0.032l0.02,0.391l0.02,0.395c0.015,0.304,0.023,0.567,0.023,0.786v2.94h-1.021v-5.394h1.664l0.962,2.497  c0.065,0.174,0.152,0.423,0.26,0.747l0.118,0.375l0.123,0.371h0.035l0.114-0.371l0.119-0.372c0.097-0.312,0.182-0.561,0.252-0.743  l0.946-2.505H68.379"
   id="path3497" />
<path
   d="M70.343,128.629h1.163c0.461,0,0.755-0.053,0.881-0.16c0.124-0.106,0.188-0.357,0.188-0.757  c0-0.454-0.051-0.737-0.156-0.847c-0.103-0.109-0.373-0.164-0.811-0.164h-1.265V128.629 M69.321,131.233v-5.394h2.437  c0.728,0,1.218,0.126,1.473,0.381c0.252,0.253,0.38,0.745,0.38,1.472c0,0.721-0.12,1.201-0.362,1.438  c-0.241,0.237-0.729,0.355-1.467,0.355l-0.237,0.004h-1.202v1.743H69.321"
   id="path3499" />
<path
   d="M75.099,127.456v0.972h-0.903v-0.972H75.099 M75.099,130.261v0.972h-0.903v-0.972H75.099"
   id="path3501" />
<path
   d="M40.787,194.67v5.394h-1.021v-2.939c0-0.233,0.006-0.5,0.02-0.798l0.02-0.403l0.02-0.399h-0.031l-0.123,0.375l-0.118,0.375  c-0.11,0.336-0.195,0.585-0.256,0.747l-1.183,3.042h-0.931l-1.195-3.019c-0.065-0.166-0.152-0.415-0.26-0.747l-0.123-0.375  l-0.123-0.372h-0.031l0.02,0.391l0.02,0.396c0.016,0.304,0.024,0.566,0.024,0.786v2.939h-1.021v-5.394h1.664l0.962,2.498  c0.065,0.173,0.151,0.422,0.26,0.747l0.118,0.375l0.123,0.371h0.035l0.114-0.371l0.119-0.372c0.096-0.312,0.181-0.561,0.252-0.743  l0.946-2.505H40.787"
   id="path3503" />
<path
   d="M44.139,197.784l-0.004-0.15c0-0.3-0.051-0.494-0.156-0.585c-0.103-0.088-0.329-0.134-0.676-0.134  c-0.335,0-0.554,0.053-0.657,0.162c-0.101,0.106-0.152,0.344-0.152,0.707H44.139 M44.13,198.855h0.907v0.146  c0,0.737-0.553,1.106-1.656,1.106c-0.75,0-1.238-0.126-1.471-0.383c-0.23-0.255-0.347-0.796-0.347-1.624  c0-0.735,0.12-1.229,0.363-1.481c0.241-0.253,0.714-0.379,1.416-0.379c0.672,0,1.124,0.122,1.353,0.37  c0.229,0.245,0.343,0.729,0.343,1.452v0.276h-2.551c-0.004,0.083-0.008,0.139-0.008,0.167c0,0.371,0.057,0.618,0.171,0.743  c0.114,0.123,0.341,0.186,0.684,0.186c0.331,0,0.546-0.036,0.646-0.108C44.079,199.252,44.13,199.096,44.13,198.855"
   id="path3505" />
<path
   d="M48.188,198.622h0.899v0.13l-0.055,0.573c-0.11,0.521-0.648,0.782-1.617,0.782c-0.709,0-1.181-0.128-1.415-0.385  c-0.233-0.257-0.351-0.772-0.351-1.551c0-0.759,0.116-1.269,0.351-1.533c0.232-0.263,0.688-0.395,1.364-0.395  c0.651,0,1.092,0.095,1.325,0.287c0.23,0.189,0.347,0.553,0.347,1.088h-0.895c0-0.438-0.252-0.66-0.761-0.66  c-0.358,0-0.585,0.069-0.678,0.209c-0.09,0.138-0.138,0.481-0.138,1.027c0,0.525,0.049,0.857,0.152,0.993  c0.101,0.135,0.349,0.204,0.743,0.204c0.31,0,0.509-0.045,0.597-0.14C48.143,199.159,48.188,198.95,48.188,198.622"
   id="path3507" />
<path
   d="M50.655,194.67v2.241l0.02,0.004c0.167-0.447,0.554-0.672,1.159-0.672c0.879,0,1.321,0.417,1.321,1.252v2.568h-0.903v-2.442  c0-0.442-0.225-0.664-0.674-0.664c-0.615,0-0.923,0.32-0.923,0.96v2.146h-0.903v-5.394H50.655"
   id="path3509" />
<path
   d="M55.582,198.373c-0.509,0-0.765,0.176-0.765,0.529c0,0.245,0.051,0.405,0.158,0.482c0.104,0.075,0.325,0.115,0.662,0.115  c0.548,0,0.824-0.186,0.824-0.557C56.461,198.563,56.169,198.373,55.582,198.373 M54.979,197.381h-0.922  c0-0.452,0.104-0.754,0.315-0.909c0.209-0.152,0.627-0.229,1.25-0.229c0.678,0,1.136,0.093,1.376,0.281  c0.238,0.186,0.358,0.543,0.358,1.07v2.47h-0.903l0.043-0.518l-0.024-0.004c-0.173,0.375-0.574,0.565-1.202,0.565  c-0.911,0-1.369-0.387-1.369-1.166c0-0.784,0.465-1.177,1.4-1.177c0.623,0,1.001,0.142,1.136,0.431h0.016v-0.613  c0-0.294-0.051-0.49-0.154-0.586c-0.103-0.095-0.312-0.145-0.631-0.145C55.209,196.852,54.979,197.027,54.979,197.381"
   id="path3511" />
<path
   d="M58.255,196.287h0.895l-0.036,0.636l0.02,0.004c0.175-0.455,0.57-0.684,1.183-0.684c0.891,0,1.336,0.415,1.336,1.249v2.572  h-0.903v-2.418l-0.02-0.265c-0.042-0.28-0.262-0.422-0.663-0.422c-0.606,0-0.911,0.288-0.911,0.865v2.24h-0.902V196.287"
   id="path3513" />
<path
   d="M63.438,196.287v3.777h-0.903v-3.777H63.438 M63.438,194.67v0.755h-0.903v-0.755H63.438"
   id="path3515" />
<polyline
   points="64.205,196.287 67.143,196.287 67.143,197.065 65.124,199.376 67.143,199.376 67.143,200.064 64.047,200.064   64.047,199.27 66.046,196.974 64.205,196.974 64.205,196.287 "
   id="polyline3517" />
<path
   d="M70.188,197.784l-0.004-0.15c0-0.3-0.051-0.494-0.156-0.585c-0.103-0.088-0.329-0.134-0.676-0.134  c-0.335,0-0.554,0.053-0.657,0.162c-0.101,0.106-0.152,0.344-0.152,0.707H70.188 M70.18,198.855h0.907v0.146  c0,0.737-0.552,1.106-1.656,1.106c-0.75,0-1.238-0.126-1.471-0.383c-0.23-0.255-0.347-0.796-0.347-1.624  c0-0.735,0.12-1.229,0.363-1.481c0.241-0.253,0.714-0.379,1.416-0.379c0.672,0,1.124,0.122,1.353,0.37  c0.229,0.245,0.343,0.729,0.343,1.452v0.276h-2.551c-0.004,0.083-0.008,0.139-0.008,0.167c0,0.371,0.057,0.618,0.171,0.743  c0.114,0.123,0.341,0.186,0.684,0.186c0.332,0,0.546-0.036,0.646-0.108C70.129,199.252,70.18,199.096,70.18,198.855"
   id="path3519" />
<path
   d="M73.422,196.958c-0.335,0-0.554,0.071-0.655,0.215c-0.099,0.142-0.15,0.452-0.15,0.926c0,0.547,0.049,0.901,0.15,1.059  c0.099,0.158,0.323,0.237,0.67,0.237c0.363,0,0.593-0.077,0.696-0.233c0.101-0.154,0.152-0.514,0.152-1.075  c0-0.462-0.055-0.767-0.167-0.913C74.008,197.031,73.775,196.958,73.422,196.958 M75.192,194.67v5.394h-0.879l0.032-0.608  l-0.016-0.004c-0.176,0.439-0.56,0.66-1.152,0.66c-0.595,0-0.991-0.136-1.185-0.409c-0.193-0.272-0.29-0.825-0.29-1.661  c0-0.674,0.103-1.142,0.312-1.405c0.207-0.261,0.576-0.393,1.107-0.393c0.615,0,0.998,0.194,1.152,0.585l0.016-0.004v-2.154H75.192"
   id="path3521" />
<path
   d="M76.94,196.287v0.972h-0.903v-0.972H76.94 M76.94,199.092v0.972h-0.903v-0.972H76.94"
   id="path3523" />
<path
   fill="none"
   stroke="#000000"
   stroke-width="1.0114"
   stroke-miterlimit="10"
   d="M90.247,200.498  c0,1.139-0.923,2.062-2.062,2.062h-5.713c-1.138,0-2.062-0.923-2.062-2.062v-5.584c0-1.14,0.924-2.064,2.062-2.064h5.713  c1.139,0,2.062,0.924,2.062,2.064V200.498z"
   id="path3525" />
<polyline
   points="153.367,194.67 153.367,199.146 155.891,199.146 155.891,200.063 152.346,200.063 152.346,194.67 153.367,194.67   "
   id="polyline3527" />
<path
   d="M158.817,197.784l-0.004-0.15c0-0.3-0.051-0.494-0.156-0.585c-0.103-0.089-0.329-0.134-0.676-0.134  c-0.335,0-0.554,0.053-0.657,0.162c-0.1,0.107-0.151,0.344-0.151,0.708H158.817 M158.809,198.854h0.907V199  c0,0.737-0.552,1.106-1.656,1.106c-0.75,0-1.238-0.126-1.471-0.383c-0.231-0.255-0.347-0.796-0.347-1.624  c0-0.735,0.12-1.229,0.363-1.482c0.241-0.253,0.714-0.379,1.416-0.379c0.672,0,1.124,0.123,1.353,0.37  c0.229,0.245,0.343,0.729,0.343,1.452v0.277h-2.551c-0.004,0.083-0.008,0.138-0.008,0.167c0,0.371,0.057,0.618,0.172,0.743  c0.114,0.122,0.341,0.186,0.684,0.186c0.332,0,0.546-0.036,0.647-0.109C158.758,199.251,158.809,199.095,158.809,198.854"
   id="path3529" />
<path
   d="M162.059,196.958c-0.347,0-0.57,0.069-0.668,0.211c-0.099,0.141-0.148,0.46-0.148,0.962c0,0.532,0.049,0.872,0.148,1.02  c0.098,0.146,0.325,0.222,0.68,0.222c0.355,0,0.584-0.075,0.69-0.228c0.105-0.15,0.158-0.486,0.158-1.006  c0-0.497-0.051-0.817-0.158-0.964C162.656,197.031,162.422,196.958,162.059,196.958 M163.837,196.286v3.848  c0,0.617-0.124,1.039-0.373,1.268c-0.249,0.229-0.706,0.344-1.374,0.344c-0.646,0-1.078-0.087-1.297-0.261  c-0.217-0.174-0.327-0.518-0.327-1.031h0.875c0,0.245,0.045,0.401,0.138,0.472c0.091,0.069,0.296,0.105,0.615,0.105  c0.56,0,0.84-0.231,0.84-0.695v-0.85l-0.02-0.004c-0.16,0.403-0.529,0.604-1.104,0.604c-0.57,0-0.96-0.138-1.169-0.415  c-0.209-0.276-0.313-0.792-0.313-1.548c0-0.711,0.104-1.202,0.313-1.474c0.209-0.271,0.587-0.407,1.138-0.407  c0.599,0,0.992,0.222,1.179,0.668h0.02l-0.043-0.624H163.837"
   id="path3531" />
<path
   d="M165.585,196.286v0.972h-0.903v-0.972H165.585 M165.585,199.091v0.972h-0.903v-0.972H165.585"
   id="path3533" />
<path
   fill="none"
   stroke="#000000"
   stroke-width="1.0114"
   stroke-miterlimit="10"
   d="M179.107,200.498  c0,1.139-0.923,2.062-2.062,2.062h-5.714c-1.139,0-2.063-0.923-2.063-2.062v-5.584c0-1.14,0.924-2.064,2.063-2.064h5.714  c1.139,0,2.062,0.924,2.062,2.064V200.498z"
   id="path3535" />
<path
   d="M194.068,198.273l-0.931-2.81l-0.915,2.81H194.068 M194.305,199.028h-2.322l-0.335,1.036h-1.081l1.79-5.394h1.534  l1.817,5.394h-1.061L194.305,199.028"
   id="path3537" />
<path
   d="M197.197,197.459h1.163c0.461,0,0.755-0.053,0.881-0.16c0.124-0.106,0.188-0.357,0.188-0.757  c0-0.454-0.051-0.737-0.156-0.847c-0.103-0.109-0.373-0.164-0.811-0.164h-1.265V197.459 M196.176,200.063v-5.394h2.437  c0.728,0,1.218,0.126,1.473,0.381c0.252,0.253,0.38,0.745,0.38,1.472c0,0.721-0.12,1.201-0.362,1.438  c-0.241,0.237-0.729,0.355-1.467,0.355l-0.237,0.004h-1.202v1.743H196.176"
   id="path3539" />
<path
   d="M201.954,196.286v0.972h-0.903v-0.972H201.954 M201.954,199.091v0.972h-0.903v-0.972H201.954"
   id="path3541" />
<path
   fill="#FFFFFF"
   d="M216.181,200.495c0,1.139-0.924,2.062-2.063,2.062h-5.713c-1.139,0-2.063-0.923-2.063-2.062v-5.584  c0-1.14,0.924-2.064,2.063-2.064h5.713c1.139,0,2.063,0.924,2.063,2.064V200.495"
   id="path3543" />
<path
   fill="none"
   stroke="#000000"
   stroke-width="1.0114"
   stroke-miterlimit="10"
   d="M216.182,200.498  c0,1.139-0.924,2.062-2.063,2.062h-5.714c-1.138,0-2.063-0.923-2.063-2.062v-5.584c0-1.14,0.925-2.064,2.063-2.064h5.714  c1.139,0,2.063,0.924,2.063,2.064V200.498z"
   id="path3545" />
<path
   d="M104.408,196.242h-0.998c-0.004-0.049-0.008-0.086-0.008-0.11c-0.023-0.302-0.091-0.492-0.201-0.571  c-0.11-0.077-0.371-0.116-0.781-0.116c-0.483,0-0.799,0.043-0.948,0.135c-0.148,0.088-0.223,0.276-0.223,0.564  c0,0.34,0.059,0.543,0.181,0.613c0.12,0.067,0.521,0.121,1.199,0.158c0.8,0.043,1.319,0.158,1.555,0.344  c0.235,0.184,0.353,0.567,0.353,1.15c0,0.715-0.138,1.18-0.414,1.389c-0.276,0.209-0.883,0.314-1.825,0.314  c-0.846,0-1.408-0.103-1.686-0.309c-0.276-0.205-0.416-0.62-0.416-1.249l-0.004-0.197h0.994l0.004,0.115  c0,0.375,0.065,0.606,0.197,0.691c0.13,0.083,0.489,0.127,1.077,0.127c0.457,0,0.749-0.048,0.875-0.146  c0.126-0.097,0.189-0.322,0.189-0.676c0-0.261-0.047-0.433-0.144-0.52c-0.094-0.085-0.302-0.136-0.621-0.156l-0.564-0.035  c-0.852-0.049-1.396-0.168-1.632-0.355c-0.237-0.186-0.355-0.589-0.355-1.205c0-0.628,0.142-1.049,0.428-1.259  c0.284-0.209,0.854-0.314,1.709-0.314c0.808,0,1.354,0.095,1.636,0.289c0.28,0.191,0.422,0.567,0.422,1.126V196.242"
   id="path3547" />
<path
   d="M110.503,196.286l-0.844,3.777h-1.333l-0.378-1.691c-0.065-0.292-0.114-0.514-0.146-0.668l-0.067-0.332l-0.067-0.331h-0.028  l-0.067,0.331l-0.067,0.336c-0.027,0.146-0.075,0.368-0.142,0.664l-0.378,1.691h-1.353l-0.84-3.777h0.911l0.363,1.75  c0.043,0.217,0.088,0.452,0.134,0.703l0.063,0.352l0.067,0.352h0.016l0.079-0.352l0.075-0.352c0.04-0.176,0.092-0.409,0.162-0.7  l0.41-1.754h1.151l0.41,1.754c0.075,0.328,0.13,0.562,0.162,0.7l0.075,0.352l0.075,0.352h0.02l0.067-0.352l0.063-0.352  c0.043-0.241,0.091-0.476,0.138-0.703l0.367-1.75H110.503"
   id="path3549" />
<path
   d="M112.498,198.372c-0.509,0-0.765,0.176-0.765,0.529c0,0.245,0.051,0.405,0.158,0.482c0.104,0.075,0.325,0.115,0.663,0.115  c0.548,0,0.824-0.186,0.824-0.558C113.377,198.562,113.086,198.372,112.498,198.372 M111.895,197.38h-0.922  c0-0.453,0.104-0.754,0.315-0.909c0.209-0.152,0.627-0.229,1.25-0.229c0.678,0,1.136,0.093,1.376,0.281  c0.238,0.186,0.358,0.543,0.358,1.071v2.47h-0.903l0.043-0.518l-0.024-0.004c-0.173,0.375-0.574,0.565-1.202,0.565  c-0.911,0-1.368-0.387-1.368-1.166c0-0.784,0.465-1.177,1.399-1.177c0.623,0,1.001,0.142,1.136,0.431h0.016v-0.612  c0-0.294-0.051-0.49-0.154-0.587c-0.103-0.095-0.311-0.145-0.631-0.145C112.126,196.851,111.895,197.027,111.895,197.38"
   id="path3551" />
<path
   d="M115.195,196.286h0.903l-0.055,0.529l0.02,0.004c0.215-0.395,0.554-0.593,1.018-0.593c0.662,0,0.994,0.419,0.994,1.256  v0.265h-0.852c0.01-0.103,0.016-0.17,0.016-0.202c0-0.403-0.155-0.604-0.469-0.604c-0.445,0-0.67,0.298-0.67,0.897v2.225h-0.903  V196.286"
   id="path3553" />
<path
   d="M118.572,196.286h0.903l-0.024,0.581l0.02,0.004c0.183-0.418,0.567-0.628,1.151-0.628c0.68,0,1.059,0.233,1.136,0.7h0.016  c0.176-0.466,0.564-0.7,1.163-0.7c0.872,0,1.309,0.439,1.309,1.32v2.501h-0.903v-2.304c0-0.533-0.219-0.802-0.658-0.802  c-0.548,0-0.824,0.298-0.824,0.897v2.209h-0.903v-2.339c0-0.312-0.042-0.52-0.125-0.618c-0.083-0.099-0.258-0.148-0.526-0.148  c-0.554,0-0.832,0.305-0.832,0.917v2.189h-0.903V196.286"
   id="path3555" />
<path
   d="M126.032,196.286v0.972h-0.903v-0.972H126.032 M126.032,199.091v0.972h-0.903v-0.972H126.032"
   id="path3557" />
<path
   fill="none"
   stroke="#000000"
   stroke-width="1.0114"
   stroke-miterlimit="10"
   d="M138.972,200.498  c0,1.139-0.924,2.062-2.063,2.062h-5.713c-1.139,0-2.063-0.923-2.063-2.062v-5.584c0-1.14,0.925-2.064,2.063-2.064h5.713  c1.139,0,2.063,0.924,2.063,2.064V200.498z"
   id="path3559" />






<path
   fill="#FFFFFF"
   d="M48.054,85.19h2.511c0.878,0,1.275,0.071,1.275,1.034c0,0.963-0.222,1.266-1.224,1.266h-2.562V85.19   M51.047,92.8c1.878,0,2.686-0.524,2.686-2.543c0-1.158-0.237-2-1.476-2.145v-0.051c1.095-0.266,1.287-0.966,1.287-2.003  c0-1.997-0.89-2.362-2.655-2.362h-4.537V92.8H51.047 M48.054,88.817h2.732c1.026,0,1.242,0.293,1.242,1.292  c0,1.124-0.497,1.197-1.538,1.197h-2.437V88.817"
   id="path3573" />
<path
   fill="#FFFFFF"
   d="M60.208,89.766h-3.152l1.559-4.732h0.023L60.208,89.766 M60.598,91.093l0.598,1.707h1.777l-3.093-9.104  h-2.582L54.267,92.8h1.815l0.571-1.707H60.598"
   id="path3575" />
<polyline
   fill="#FFFFFF"
   points="66.457,85.19 69.121,85.19 69.121,83.697 62.089,83.697 62.089,85.19 64.753,85.19 64.753,92.8   66.457,92.8 66.457,85.19 "
   id="polyline3577" />
<polyline
   fill="#FFFFFF"
   points="73.567,85.19 76.232,85.19 76.232,83.697 69.2,83.697 69.2,85.19 71.864,85.19 71.864,92.8   73.567,92.8 73.567,85.19 "
   id="polyline3579" />
<polyline
   fill="#FFFFFF"
   points="78.785,83.697 77.082,83.697 77.082,92.8 83.026,92.8 83.026,91.307 78.785,91.307 78.785,83.697   "
   id="polyline3581" />
<polyline
   fill="#FFFFFF"
   points="85.629,85.19 90.112,85.19 90.112,83.697 83.925,83.697 83.925,92.8 90.147,92.8 90.147,91.307   85.629,91.307 85.629,88.817 89.881,88.817 89.881,87.3 85.629,87.3 85.629,85.19 "
   id="polyline3583" />
<path
   fill="#FFFFFF"
   d="M100.871,89.766h-3.152l1.559-4.732h0.023L100.871,89.766 M101.261,91.093l0.598,1.707h1.777l-3.093-9.104  h-2.582L94.93,92.8h1.816l0.571-1.707H101.261"
   id="path3585" />
<path
   fill="#FFFFFF"
   d="M105.979,88.249V85.19h2.351c1.209,0,1.434,0.228,1.434,1.494c0,1.313-0.296,1.564-1.508,1.564H105.979   M108.625,89.766c0.828,0,1.139,0.54,1.139,1.316V92.8h1.703v-1.716c0-1.298-0.307-1.974-1.567-2.083v-0.051  c1.567-0.231,1.567-1.215,1.567-2.542c0-2.086-0.728-2.711-2.626-2.711h-4.566V92.8h1.704v-3.035H108.625"
   id="path3587" />
<polyline
   fill="#FFFFFF"
   points="121.916,85.128 121.916,92.8 123.619,92.8 123.619,83.697 120.789,83.697 118.338,90.459   118.291,90.459 115.789,83.697 113.021,83.697 113.021,92.8 114.724,92.8 114.724,85.167 117.53,92.8 119.109,92.8 121.916,85.128   "
   id="polyline3589" />
<path
   fill="#FFFFFF"
   d="M128.779,85.19c1.514,0,2.117,0.119,2.117,1.784v2.385c0,1.71-0.541,1.923-2.117,1.923  c-1.704,0-2.046-0.166-2.046-1.923v-2.385C126.732,85.57,126.913,85.19,128.779,85.19 M128.779,83.697  c-2.815,0-3.75,0.489-3.75,3.278v2.385c0,2.96,1.006,3.44,3.75,3.44c2.711,0,3.821-0.554,3.821-3.44v-2.385  C132.6,84.091,131.357,83.697,128.779,83.697"
   id="path3591" />
<path
   fill="#FFFFFF"
   d="M135.582,88.249V85.19h2.352c1.209,0,1.434,0.228,1.434,1.494c0,1.313-0.296,1.564-1.509,1.564H135.582   M138.229,89.766c0.828,0,1.139,0.54,1.139,1.316V92.8h1.703v-1.716c0-1.298-0.308-1.974-1.567-2.083v-0.051  c1.567-0.231,1.567-1.215,1.567-2.542c0-2.086-0.728-2.711-2.626-2.711h-4.566V92.8h1.703v-3.035H138.229"
   id="path3593" />
<path
   fill="#FFFFFF"
   d="M144.518,86.352h-1.514v1.662h1.514V86.352 M144.518,91.138h-1.514V92.8h1.514V91.138"
   id="path3595" />
<path
   fill="#FFFFFF"
   d="M150.774,89.757v0.421c0,2.623,1.801,2.623,3.818,2.623c2.348,0,3.563-0.225,3.563-2.851  c0-2.296-0.772-2.442-3.596-2.584c-1.842-0.094-2.082-0.127-2.082-1.093c0-0.975,0.29-1.144,2.094-1.144  c1.275,0,1.692,0.036,1.692,1.022v0.29h1.703v-0.299c0-2.445-1.467-2.445-3.395-2.445c-2.215,0-3.797,0-3.797,2.575  c0,2.439,1.559,2.365,3.546,2.486c1.413,0.071,2.132-0.098,2.132,1.191c0,1.046-0.228,1.333-1.881,1.333  c-1.638,0-2.094-0.071-2.094-1.105v-0.421H150.774"
   id="path3597" />
<path
   fill="#FFFFFF"
   d="M163.51,88.509l-0.751,1.002l2.345,1.404c-0.509,0.368-1.212,0.368-1.902,0.368  c-1.86,0-2.383-0.095-2.383-1.923v-2.385c0-1.678,0.751-1.784,2.383-1.784c1.786,0,2.349,0.178,2.349,1.784v1.559  c0,0.424,0,0.839,0,1.262L163.51,88.509 M167.969,91.461l-0.881-0.566c0.166-0.486,0.166-1.383,0.166-1.535v-2.385  c0-3.171-1.792-3.278-4.052-3.278c-2.741,0-4.086,0.477-4.086,3.278v2.385c0,2.984,1.162,3.44,4.096,3.44  c1.088,0,2.428,0,3.286-0.877l0.769,0.604L167.969,91.461"
   id="path3599" />
<path
   fill="#FFFFFF"
   d="M174.45,83.697v6.389c0,0.969-0.447,1.197-2.094,1.197c-1.724,0-2.07-0.275-2.07-1.197v-6.389h-1.703v6.419  c0,2.528,1.638,2.685,3.773,2.685c2.209,0,3.797-0.171,3.797-2.714v-6.389H174.45"
   id="path3601" />
<path
   fill="#FFFFFF"
   d="M182.9,89.766h-3.152l1.559-4.732h0.024L182.9,89.766 M183.29,91.093l0.598,1.707h1.777l-3.093-9.104h-2.583  l-3.031,9.104h1.815l0.571-1.707H183.29"
   id="path3603" />
<path
   fill="#FFFFFF"
   d="M188.007,91.307V85.19h2.665c1.366,0,1.878,0.376,1.878,1.894v2.148c0,1.02-0.373,2.074-1.579,2.074H188.007   M186.304,92.8h4.667c2.75,0,3.282-1.674,3.282-3.568v-2.148c0-2.477-1.067-3.387-3.581-3.387h-4.368V92.8"
   id="path3605" />
<polyline
   fill="#FFFFFF"
   points="205,83.697 202.847,83.697 199.94,86.44 200.934,87.522 203.297,85.155 203.297,92.8 205,92.8   205,83.697 "
   id="polyline3607" />
<path
   d="M259.6,204.104"
   id="path3609" />
<polyline
   points="40.115,141.718 40.095,141.718 38.898,137.243 37.718,137.243 36.497,141.718 36.467,141.718 35.357,137.243   34.334,137.243 35.72,142.553 37.186,142.553 38.289,138.503 38.316,138.503 39.383,142.553 40.862,142.553 42.298,137.243   41.267,137.243 40.115,141.718 "
   id="polyline3611" />
<path
   d="M43.218,140.341c0-0.697,0.05-0.87,0.819-0.87c0.728,0,0.84,0.061,0.84,0.87H43.218 M44.877,141.374  c0,0.516-0.346,0.516-0.84,0.516c-0.799,0-0.819-0.241-0.819-0.996h2.544c0-1.649-0.204-2.102-1.725-2.102  c-1.494,0-1.704,0.593-1.704,1.95c0,1.377,0.289,1.812,1.704,1.812c1.056,0,1.725-0.055,1.725-1.179H44.877"
   id="path3613" />
<path
   d="M48.913,142.553h0.885v-2.33c0-1.247-0.503-1.431-1.708-1.431c-0.844,0-1.611,0-1.611,1.101h0.885  c0-0.458,0.323-0.492,0.726-0.492c0.771,0,0.823,0.202,0.823,0.776v0.515h-0.029c-0.22-0.461-0.683-0.461-1.153-0.461  c-0.904,0-1.362,0.247-1.362,1.136c0,1.009,0.536,1.188,1.362,1.188c0.447,0,1.002,0,1.182-0.548V142.553 M48.061,140.894  c0.456,0,0.852,0,0.852,0.472c0,0.486-0.36,0.524-0.852,0.524c-0.597,0-0.807-0.045-0.807-0.524  C47.253,140.894,47.592,140.894,48.061,140.894"
   id="path3615" />
<path
   d="M51.533,138.792h-0.885v5.421h0.885v-2.185h0.035c0.188,0.442,0.655,0.525,1.101,0.525c1.262,0,1.409-0.691,1.409-1.765  c0-1.129,0-1.997-1.409-1.997c-0.512,0-0.915,0.112-1.136,0.596V138.792 M52.411,141.89c-0.759,0-0.878-0.315-0.878-1.101  c0-0.876,0-1.317,0.878-1.317c0.781,0,0.781,0.484,0.781,1.317C53.192,141.715,53.018,141.89,52.411,141.89"
   id="path3617" />
<path
   d="M56.472,139.471c0.767,0,0.83,0.225,0.83,1.22c0,0.98-0.063,1.198-0.83,1.198c-0.768,0-0.83-0.218-0.83-1.198  C55.642,139.696,55.704,139.471,56.472,139.471 M56.472,138.792c-1.521,0-1.715,0.458-1.715,1.893c0,1.416,0.194,1.869,1.715,1.869  s1.714-0.453,1.714-1.869C58.186,139.25,57.993,138.792,56.472,138.792"
   id="path3619" />
<path
   d="M58.988,138.792v3.761h0.885v-2.048c0-0.666,0.104-1.034,0.868-1.034c0.563,0,0.681,0.185,0.681,0.723v2.359h0.885v-2.451  c0-0.906-0.294-1.31-1.26-1.31c-0.513,0-0.951,0.055-1.146,0.596h-0.027v-0.596H58.988"
   id="path3621" />
<path
   d="M66.319,139.831c0-1.039-0.868-1.039-1.565-1.039c-0.911,0-1.642,0-1.642,1.025c0,0.915,0.24,1.091,1.565,1.111  c0.847,0.014,0.868,0.171,0.868,0.484c0,0.478-0.295,0.478-0.802,0.478c-0.625,0-0.747-0.061-0.747-0.58h-0.885  c0,1.243,0.658,1.243,1.638,1.243c0.913,0,1.68-0.102,1.68-1.141c0-1.162-0.769-1.098-1.603-1.139  c-0.738-0.035-0.831-0.048-0.831-0.402c0-0.47,0.311-0.47,0.762-0.47c0.453,0,0.676,0,0.676,0.43H66.319"
   id="path3623" />
<path
   d="M74.14,142.553l0.482-0.674l-0.759-0.659c0.107-0.302,0.107-0.646,0.107-0.97V139.9h-0.885v0.695l-1.668-1.417  c-0.232-0.185-0.323-0.31-0.323-0.61c0-0.489,0.266-0.489,0.764-0.489c0.756,0,0.785,0.1,0.785,0.783h0.885  c0-1.384-0.31-1.618-1.67-1.618c-1.068,0-1.648,0.166-1.648,1.317c0,0.45,0.084,0.614,0.413,0.906  c-0.838,0.069-0.966,0.64-0.966,1.403c0,1.562,0.8,1.684,2.123,1.684c0.712,0,1.443,0,1.773-0.626L74.14,142.553 M72.889,141.358  c-0.235,0.31-0.584,0.31-1.099,0.31c-0.899,0-1.248,0-1.248-0.799c0-0.591,0-0.86,0.586-0.952L72.889,141.358"
   id="path3625" />
<polyline
   points="78.673,138.114 81.293,138.114 81.293,137.243 77.678,137.243 77.678,142.553 81.314,142.553 81.314,141.682   78.673,141.682 78.673,140.23 81.158,140.23 81.158,139.345 78.673,139.345 78.673,138.114 "
   id="polyline3627" />
<path
   d="M85.378,138.792h-0.885v0.596c-0.221-0.484-0.624-0.596-1.135-0.596c-1.409,0-1.409,0.868-1.409,1.997  c0,1.073,0.147,1.765,1.409,1.765c0.446,0,0.913-0.083,1.101-0.525h0.034v2.185h0.885V138.792 M83.615,139.471  c0.759,0,0.878,0.314,0.878,1.101c0,0.876,0,1.317-0.878,1.317c-0.781,0-0.781-0.484-0.781-1.317  C82.834,139.646,83.009,139.471,83.615,139.471"
   id="path3629" />
<path
   d="M89.604,142.553v-3.761H88.72v2.157c0,0.648-0.223,0.94-0.918,0.94c-0.581,0-0.631-0.206-0.631-0.74v-2.357h-0.885v2.691  c0,0.814,0.498,1.07,1.243,1.07c0.517,0,0.983-0.118,1.191-0.598v0.598H89.604"
   id="path3631" />
<path
   d="M91.369,137.243h-0.885V138h0.885V137.243 M91.369,138.792h-0.885v3.761h0.885V138.792"
   id="path3633" />
<path
   d="M93.04,138.792h-0.885v5.421h0.885v-2.185h0.035c0.188,0.442,0.655,0.525,1.101,0.525c1.262,0,1.409-0.691,1.409-1.765  c0-1.129,0-1.997-1.409-1.997c-0.512,0-0.914,0.112-1.136,0.596V138.792 M93.918,141.89c-0.759,0-0.878-0.315-0.878-1.101  c0-0.876,0-1.317,0.878-1.317c0.781,0,0.781,0.484,0.781,1.317C94.699,141.715,94.524,141.89,93.918,141.89"
   id="path3635" />
<rect
   x="96.596"
   y="141.583"
   width="0.885"
   height="0.97"
   id="rect3637" />
<path
   d="M125.199,141.682v-3.568h1.557c0.799,0,1.098,0.219,1.098,1.104v1.253c0,0.594-0.218,1.21-0.923,1.21H125.199   M124.203,142.553h2.728c1.607,0,1.918-0.977,1.918-2.081v-1.253c0-1.445-0.624-1.976-2.093-1.976h-2.553V142.553"
   id="path3639" />
<path
   d="M129.542,138.792v3.761h0.885v-2.097c0-0.659,0.15-0.985,0.913-0.985c0.517,0,0.636,0.185,0.636,0.651v2.431h0.885v-2.097  c0-0.659,0.138-0.985,0.847-0.985c0.48,0,0.591,0.185,0.591,0.651v2.431h0.885v-2.515c0-0.913-0.309-1.246-1.246-1.246  c-0.487,0-0.987,0.142-1.154,0.657h-0.028c-0.099-0.538-0.631-0.657-1.094-0.657c-0.494,0-1.025,0.105-1.234,0.574v-0.574H129.542"
   id="path3641" />
<path
   d="M138.517,142.698c0,0.683-0.154,0.851-0.871,0.851c-0.491,0-0.678-0.083-0.678-0.631h-0.885  c-0.057,1.136,0.636,1.295,1.563,1.295c1.338,0,1.756-0.329,1.756-1.708v-3.713h-0.885v0.596c-0.22-0.484-0.619-0.596-1.127-0.596  c-1.417,0-1.417,0.868-1.417,1.997c0,1.073,0.148,1.765,1.417,1.765c0.438,0,0.9-0.083,1.127-0.56V142.698 M137.646,139.471  c0.753,0,0.871,0.316,0.871,1.101c0,0.876,0,1.317-0.878,1.317c-0.781,0-0.781-0.484-0.781-1.317  C136.857,139.646,137.033,139.471,137.646,139.471"
   id="path3643" />
<polyline
   points="156.729,138.078 156.729,142.553 157.725,142.553 157.725,137.243 156.07,137.243 154.638,141.188 154.61,141.188   153.148,137.243 151.53,137.243 151.53,142.553 152.525,142.553 152.525,138.1 154.166,142.553 155.089,142.553 156.729,138.078 "
   id="polyline3645" />
<path
   d="M159.544,137.243h-0.885V138h0.885V137.243 M159.544,138.792h-0.885v3.761h0.885V138.792"
   id="path3647" />
<path
   d="M160.33,138.792v3.761h0.885v-2.048c0-0.666,0.104-1.034,0.868-1.034c0.563,0,0.681,0.185,0.681,0.723v2.359h0.885v-2.451  c0-0.906-0.294-1.31-1.26-1.31c-0.514,0-0.951,0.055-1.146,0.596h-0.028v-0.596H160.33"
   id="path3649" />
<path
   d="M169.021,140.778v0.246c0,1.53,1.053,1.53,2.231,1.53c1.372,0,2.083-0.131,2.083-1.663c0-1.34-0.451-1.425-2.102-1.508  c-1.077-0.055-1.217-0.074-1.217-0.638c0-0.569,0.169-0.667,1.224-0.667c0.745,0,0.989,0.021,0.989,0.596v0.169h0.996v-0.174  c0-1.426-0.857-1.426-1.984-1.426c-1.294,0-2.219,0-2.219,1.502c0,1.423,0.911,1.379,2.072,1.45  c0.826,0.042,1.246-0.057,1.246,0.695c0,0.61-0.133,0.777-1.099,0.777c-0.958,0-1.224-0.041-1.224-0.645v-0.246H169.021"
   id="path3651" />
<path
   d="M174.892,137.243h-0.885v5.311h0.885v-2.048c0-0.666,0.104-1.034,0.868-1.034c0.563,0,0.681,0.185,0.681,0.723v2.359h0.885  v-2.451c0-0.906-0.294-1.31-1.26-1.31c-0.513,0-0.951,0.057-1.146,0.602h-0.027V137.243"
   id="path3653" />
<path
   d="M177.774,139.456h0.467v1.938c0,0.936,0.301,1.16,1.29,1.16c0.97,0,1.255-0.339,1.255-1.46h-0.774  c0,0.394,0.055,0.797-0.48,0.797c-0.404,0-0.404-0.158-0.404-0.503v-1.931h1.471v-0.664h-1.471v-0.859h-0.885v0.859h-0.467V139.456"
   id="path3655" />
<polyline
   points="189.967,138.078 189.967,142.553 190.962,142.553 190.962,137.243 189.308,137.243 187.875,141.188   187.848,141.188 186.386,137.243 184.768,137.243 184.768,142.553 185.763,142.553 185.763,138.1 187.403,142.553 188.327,142.553   189.967,138.078 "
   id="polyline3657" />
<path
   d="M192.671,140.341c0-0.697,0.05-0.87,0.819-0.87c0.728,0,0.84,0.061,0.84,0.87H192.671 M194.331,141.374  c0,0.516-0.346,0.516-0.84,0.516c-0.799,0-0.819-0.241-0.819-0.996h2.544c0-1.649-0.204-2.102-1.725-2.102  c-1.494,0-1.705,0.593-1.705,1.95c0,1.377,0.289,1.812,1.705,1.812c1.056,0,1.725-0.055,1.725-1.179H194.331"
   id="path3659" />
<path
   d="M198.366,142.553h0.885v-5.311h-0.885v2.087h-0.021c-0.19-0.453-0.662-0.538-1.111-0.538c-1.265,0-1.412,0.696-1.412,1.78  c0,1.129,0,1.981,1.412,1.981c0.512,0,0.911-0.109,1.132-0.583V142.553 M197.495,139.471c0.766,0,0.871,0.314,0.871,1.101  c0,0.876,0,1.317-0.871,1.317c-0.789,0-0.789-0.484-0.789-1.317C196.706,139.646,196.882,139.471,197.495,139.471"
   id="path3661" />
<polyline
   points="204.425,137.243 203.429,137.243 203.429,142.553 206.903,142.553 206.903,141.682 204.425,141.682   204.425,137.243 "
   id="polyline3663" />
<path
   d="M207.429,138.792v3.761h0.885v-2.048c0-0.666,0.104-1.034,0.868-1.034c0.563,0,0.681,0.185,0.681,0.723v2.359h0.885v-2.451  c0-0.906-0.294-1.31-1.26-1.31c-0.514,0-0.951,0.055-1.146,0.596h-0.028v-0.596H207.429"
   id="path3665" />
<path
   d="M214.096,142.698c0,0.683-0.154,0.851-0.871,0.851c-0.491,0-0.677-0.083-0.677-0.631h-0.885  c-0.057,1.136,0.636,1.295,1.563,1.295c1.338,0,1.756-0.329,1.756-1.708v-3.713h-0.885v0.596c-0.219-0.484-0.619-0.596-1.127-0.596  c-1.417,0-1.417,0.868-1.417,1.997c0,1.073,0.148,1.765,1.417,1.765c0.439,0,0.9-0.083,1.127-0.56V142.698 M213.225,139.471  c0.754,0,0.871,0.316,0.871,1.101c0,0.876,0,1.317-0.878,1.317c-0.781,0-0.781-0.484-0.781-1.317  C212.437,139.646,212.613,139.471,213.225,139.471"
   id="path3667" />
<path
   d="M234.713,120.324h-3.937c0-0.966,0.421-0.764,1.914-1.157c1.543-0.412,2.023-0.717,2.023-2.324  c0-2.035-1.162-2.276-2.877-2.276c-1.857,0-2.877,0.376-2.877,2.345v0.353h1.817v-0.353c0-0.767,0.142-0.833,1.06-0.833  c0.807,0,1.06,0.085,1.06,0.793c0,0.735-0.087,0.717-1.344,1.003c-2.229,0.509-2.593,0.786-2.593,2.449v1.512h5.754V120.324"
   id="path3669" />
<path
   d="M231.381,136.98h0.476c1.095,0,1.19,0.177,1.19,0.657c0,0.819-0.333,0.857-1.19,0.857c-0.665,0-1.081-0.038-1.081-0.828  v-0.234h-1.817v0.383c0,2.05,1.325,2.194,2.986,2.194c1.673,0,2.92-0.27,2.92-2.135c0-0.818-0.274-1.477-1.211-1.514v-0.076  c0.847-0.113,1.06-0.807,1.06-1.602c0-1.846-1.519-1.943-2.769-1.943c-1.878,0-2.986,0.173-2.986,2.229v0.249h1.817v-0.144  c0-0.821,0.345-0.821,1.081-0.821c1.008,0,1.039,0.199,1.039,0.783c0,0.487-0.078,0.582-1.039,0.582h-0.476V136.98"
   id="path3671" />
<path
   d="M232.441,155.458h-2.279l2.21-3.05h0.068V155.458 M234.258,150.915h-2.834l-2.783,3.848v2.059h3.8v1.363h1.817v-1.363h0.62  v-1.363h-0.62V150.915"
   id="path3673" />
<polyline
   points="233.804,96.326 231.507,96.326 228.862,98.517 229.955,99.757 231.835,98.042 231.835,103.595 233.804,103.595   233.804,96.326 "
   id="polyline3675" />
<path
   fill="#C6C8CA"
   d="M257.376,155.01c0,1.446-1.172,2.62-2.617,2.62c-1.447,0-2.618-1.174-2.618-2.62  c0-1.446,1.171-2.618,2.618-2.618C256.204,152.392,257.376,153.564,257.376,155.01"
   id="path3677" />
<path
   fill="none"
   stroke="#000000"
   stroke-width="1.0114"
   d="M257.376,155.014c0,1.445-1.172,2.618-2.617,2.618  c-1.447,0-2.618-1.173-2.618-2.618c0-1.448,1.171-2.62,2.618-2.62C256.204,152.394,257.376,153.566,257.376,155.014"
   id="path3679" />
<polygon
   fill="none"
   stroke="#000000"
   stroke-width="1.0114"
   points="386.496,159.155 384.603,161.175 252.839,161.175   251.021,163.193 229.32,163.193 227.275,161.175 227.275,148.387 229.621,146.366 251.021,146.366 252.839,148.387 384.628,148.387   386.496,150.405 "
   id="polygon3681" />
<path
   fill="#C6C8CA"
   d="M257.376,136.804c0,1.445-1.172,2.618-2.617,2.618c-1.447,0-2.618-1.173-2.618-2.618  c0-1.447,1.171-2.62,2.618-2.62C256.204,134.184,257.376,135.356,257.376,136.804"
   id="path3683" />
<path
   fill="none"
   stroke="#000000"
   stroke-width="1.0114"
   d="M257.376,136.807c0,1.445-1.172,2.619-2.617,2.619  c-1.447,0-2.618-1.174-2.618-2.619c0-1.446,1.171-2.619,2.618-2.619C256.204,134.188,257.376,135.361,257.376,136.807"
   id="path3685" />
<polygon
   fill="none"
   stroke="#000000"
   stroke-width="1.0114"
   points="386.496,140.95 384.603,142.968 252.839,142.968   251.021,144.987 229.32,144.987 227.275,142.968 227.275,130.18 229.621,128.16 251.021,128.16 252.839,130.18 384.628,130.18   386.496,132.199 "
   id="polygon3687" />
<path
   fill="#C6C8CA"
   d="M257.376,118.596c0,1.446-1.172,2.62-2.617,2.62c-1.447,0-2.618-1.174-2.618-2.62  c0-1.446,1.171-2.619,2.618-2.619C256.204,115.978,257.376,117.15,257.376,118.596"
   id="path3689" />
<path
   fill="none"
   stroke="#000000"
   stroke-width="1.0114"
   d="M257.376,118.599c0,1.446-1.172,2.62-2.617,2.62  c-1.447,0-2.618-1.174-2.618-2.62c0-1.446,1.171-2.619,2.618-2.619C256.204,115.98,257.376,117.153,257.376,118.599"
   id="path3691" />
<polygon
   fill="none"
   stroke="#000000"
   stroke-width="1.0114"
   points="386.496,122.742 384.603,124.761 252.839,124.761   251.021,126.779 229.32,126.779 227.275,124.761 227.275,111.973 229.621,109.953 251.021,109.953 252.839,111.973 384.628,111.973   386.496,113.991 "
   id="polygon3693" />
<path
   fill="#C6C8CA"
   d="M257.376,100.39c0,1.445-1.172,2.618-2.617,2.618c-1.447,0-2.618-1.173-2.618-2.618  c0-1.446,1.171-2.619,2.618-2.619C256.204,97.771,257.376,98.943,257.376,100.39"
   id="path3695" />
<path
   fill="none"
   stroke="#000000"
   stroke-width="1.0114"
   d="M257.376,100.393c0,1.445-1.172,2.619-2.617,2.619  c-1.447,0-2.618-1.173-2.618-2.619c0-1.446,1.171-2.618,2.618-2.618C256.204,97.774,257.376,98.947,257.376,100.393"
   id="path3697" />
<polygon
   fill="none"
   stroke="#000000"
   stroke-width="1.0114"
   points="386.496,104.536 384.603,106.554 252.839,106.554   251.021,108.574 229.32,108.574 227.275,106.554 227.275,93.766 229.621,91.746 251.021,91.746 252.839,93.766 384.628,93.766   386.496,95.785 "
   id="polygon3699" />




</svg>