<?xml version="1.0" encoding="utf-8"?>
<!-- Generator: Adobe Illustrator 15.1.0, SVG Export Plug-In . SVG Version: 6.00 Build 0)  -->
<!DOCTYPE svg PUBLIC "-//W3C//DTD SVG 1.0//EN" "http://www.w3.org/TR/2001/REC-SVG-20010904/DTD/svg10.dtd">
<svg version="1.0" id="Layer_1" xmlns="http://www.w3.org/2000/svg" xmlns:xlink="http://www.w3.org/1999/xlink" x="0px" y="0px"
	 width="612px" height="792px" viewBox="0 0 612 792" enable-background="new 0 0 612 792" xml:space="preserve">
<path fill="none" stroke="#000000" stroke-width="0.5057" d="M265.196,560.116c0,1.445-1.172,2.617-2.62,2.617
	c-1.447,0-2.618-1.172-2.618-2.617c0-1.448,1.171-2.62,2.618-2.62C264.023,557.496,265.196,558.668,265.196,560.116"/>
<path fill="none" stroke="#000000" stroke-width="0.5057" d="M265.196,541.908c0,1.445-1.172,2.618-2.62,2.618
	c-1.447,0-2.618-1.173-2.618-2.618c0-1.448,1.171-2.619,2.618-2.619C264.023,539.289,265.196,540.46,265.196,541.908"/>
<path fill="none" stroke="#000000" stroke-width="0.5057" d="M265.196,523.702c0,1.444-1.172,2.617-2.62,2.617
	c-1.447,0-2.618-1.173-2.618-2.617c0-1.447,1.171-2.62,2.618-2.62C264.023,521.082,265.196,522.255,265.196,523.702"/>
<path fill="none" stroke="#000000" stroke-width="0.5057" d="M265.196,505.495c0,1.445-1.172,2.618-2.62,2.618
	c-1.447,0-2.618-1.173-2.618-2.618c0-1.447,1.171-2.619,2.618-2.619C264.023,502.876,265.196,504.048,265.196,505.495"/>
<path fill="none" stroke="#000000" stroke-width="0.5057" d="M272.196,560.116c0,1.445-1.172,2.617-2.62,2.617
	c-1.447,0-2.618-1.172-2.618-2.617c0-1.448,1.171-2.62,2.618-2.62C271.023,557.496,272.196,558.668,272.196,560.116"/>
<path fill="none" stroke="#000000" stroke-width="0.5057" d="M272.196,541.908c0,1.445-1.172,2.618-2.62,2.618
	c-1.447,0-2.618-1.173-2.618-2.618c0-1.448,1.171-2.619,2.618-2.619C271.023,539.289,272.196,540.46,272.196,541.908"/>
<path fill="none" stroke="#000000" stroke-width="0.5057" d="M272.196,523.702c0,1.444-1.172,2.617-2.62,2.617
	c-1.447,0-2.618-1.173-2.618-2.617c0-1.447,1.171-2.62,2.618-2.62C271.023,521.082,272.196,522.255,272.196,523.702"/>
<path fill="none" stroke="#000000" stroke-width="0.5057" d="M272.196,505.495c0,1.445-1.172,2.618-2.62,2.618
	c-1.447,0-2.618-1.173-2.618-2.618c0-1.447,1.171-2.619,2.618-2.619C271.023,502.876,272.196,504.048,272.196,505.495"/>
<path fill="none" stroke="#000000" stroke-width="0.5057" d="M279.196,560.116c0,1.445-1.172,2.617-2.62,2.617
	c-1.447,0-2.618-1.172-2.618-2.617c0-1.448,1.171-2.62,2.618-2.62C278.023,557.496,279.196,558.668,279.196,560.116"/>
<path fill="none" stroke="#000000" stroke-width="0.5057" d="M279.196,541.908c0,1.445-1.172,2.618-2.62,2.618
	c-1.447,0-2.618-1.173-2.618-2.618c0-1.448,1.171-2.619,2.618-2.619C278.023,539.289,279.196,540.46,279.196,541.908"/>
<path fill="none" stroke="#000000" stroke-width="0.5057" d="M279.196,523.702c0,1.444-1.172,2.617-2.62,2.617
	c-1.447,0-2.618-1.173-2.618-2.617c0-1.447,1.171-2.62,2.618-2.62C278.023,521.082,279.196,522.255,279.196,523.702"/>
<path fill="none" stroke="#000000" stroke-width="0.5057" d="M279.196,505.495c0,1.445-1.172,2.618-2.62,2.618
	c-1.447,0-2.618-1.173-2.618-2.618c0-1.447,1.171-2.619,2.618-2.619C278.023,502.876,279.196,504.048,279.196,505.495"/>
</svg>
