<?xml version="1.0" encoding="utf-8"?>
<!-- Generator: Adobe Illustrator 15.1.0, SVG Export Plug-In . SVG Version: 6.00 Build 0)  -->
<!DOCTYPE svg PUBLIC "-//W3C//DTD SVG 1.0//EN" "http://www.w3.org/TR/2001/REC-SVG-20010904/DTD/svg10.dtd">
<svg version="1.0" id="Layer_1" xmlns="http://www.w3.org/2000/svg" xmlns:xlink="http://www.w3.org/1999/xlink" x="0px" y="0px"
	 width="612px" height="792px" viewBox="0 0 612 792" enable-background="new 0 0 612 792" xml:space="preserve">
<path fill="none" stroke="#000000" stroke-width="0.5057" d="M265.196,713.355c0,1.446-1.172,2.618-2.62,2.618
	c-1.447,0-2.618-1.172-2.618-2.618c0-1.447,1.171-2.619,2.618-2.619S265.196,711.906,265.196,713.355"/>
<path fill="none" stroke="#000000" stroke-width="0.5057" d="M265.196,695.149c0,1.446-1.172,2.618-2.62,2.618
	c-1.447,0-2.618-1.172-2.618-2.618c0-1.447,1.171-2.619,2.618-2.619S265.196,693.7,265.196,695.149"/>
<path fill="none" stroke="#000000" stroke-width="0.5057" d="M265.196,676.942c0,1.445-1.172,2.617-2.62,2.617
	c-1.447,0-2.618-1.172-2.618-2.617c0-1.447,1.171-2.62,2.618-2.62S265.196,675.493,265.196,676.942"/>
<path fill="none" stroke="#000000" stroke-width="0.5057" d="M265.196,658.735c0,1.446-1.172,2.617-2.62,2.617
	c-1.447,0-2.618-1.171-2.618-2.617c0-1.447,1.171-2.62,2.618-2.62S265.196,657.286,265.196,658.735"/>
<path fill="none" stroke="#000000" stroke-width="0.5057" d="M265.196,640.527c0,1.446-1.172,2.619-2.62,2.619
	c-1.447,0-2.618-1.173-2.618-2.619c0-1.447,1.171-2.619,2.618-2.619S265.196,639.078,265.196,640.527"/>
<path fill="none" stroke="#000000" stroke-width="0.5057" d="M272.196,713.355c0,1.446-1.172,2.618-2.62,2.618
	c-1.447,0-2.618-1.172-2.618-2.618c0-1.447,1.171-2.619,2.618-2.619S272.196,711.906,272.196,713.355"/>
<path fill="none" stroke="#000000" stroke-width="0.5057" d="M272.196,695.149c0,1.446-1.172,2.618-2.62,2.618
	c-1.447,0-2.618-1.172-2.618-2.618c0-1.447,1.171-2.619,2.618-2.619S272.196,693.7,272.196,695.149"/>
<path fill="none" stroke="#000000" stroke-width="0.5057" d="M272.196,676.942c0,1.445-1.172,2.617-2.62,2.617
	c-1.447,0-2.618-1.172-2.618-2.617c0-1.447,1.171-2.62,2.618-2.62S272.196,675.493,272.196,676.942"/>
<path fill="none" stroke="#000000" stroke-width="0.5057" d="M272.196,658.735c0,1.446-1.172,2.617-2.62,2.617
	c-1.447,0-2.618-1.171-2.618-2.617c0-1.447,1.171-2.62,2.618-2.62S272.196,657.286,272.196,658.735"/>
<path fill="none" stroke="#000000" stroke-width="0.5057" d="M272.196,640.527c0,1.446-1.172,2.619-2.62,2.619
	c-1.447,0-2.618-1.173-2.618-2.619c0-1.447,1.171-2.619,2.618-2.619S272.196,639.078,272.196,640.527"/>
<path fill="none" stroke="#000000" stroke-width="0.5057" d="M279.196,713.355c0,1.446-1.172,2.618-2.62,2.618
	c-1.447,0-2.618-1.172-2.618-2.618c0-1.447,1.171-2.619,2.618-2.619S279.196,711.906,279.196,713.355"/>
<path fill="none" stroke="#000000" stroke-width="0.5057" d="M279.196,695.149c0,1.446-1.172,2.618-2.62,2.618
	c-1.447,0-2.618-1.172-2.618-2.618c0-1.447,1.171-2.619,2.618-2.619S279.196,693.7,279.196,695.149"/>
<path fill="none" stroke="#000000" stroke-width="0.5057" d="M279.196,676.942c0,1.445-1.172,2.617-2.62,2.617
	c-1.447,0-2.618-1.172-2.618-2.617c0-1.447,1.171-2.62,2.618-2.62S279.196,675.493,279.196,676.942"/>
<path fill="none" stroke="#000000" stroke-width="0.5057" d="M279.196,658.735c0,1.446-1.172,2.617-2.62,2.617
	c-1.447,0-2.618-1.171-2.618-2.617c0-1.447,1.171-2.62,2.618-2.62S279.196,657.286,279.196,658.735"/>
<path fill="none" stroke="#000000" stroke-width="0.5057" d="M279.196,640.527c0,1.446-1.172,2.619-2.62,2.619
	c-1.447,0-2.618-1.173-2.618-2.619c0-1.447,1.171-2.619,2.618-2.619S279.196,639.078,279.196,640.527"/>
<path fill="none" stroke="#000000" stroke-width="0.5057" d="M286.196,713.355c0,1.446-1.172,2.618-2.62,2.618
	c-1.447,0-2.618-1.172-2.618-2.618c0-1.447,1.171-2.619,2.618-2.619S286.196,711.906,286.196,713.355"/>
<path fill="none" stroke="#000000" stroke-width="0.5057" d="M286.196,695.149c0,1.446-1.172,2.618-2.62,2.618
	c-1.447,0-2.618-1.172-2.618-2.618c0-1.447,1.171-2.619,2.618-2.619S286.196,693.7,286.196,695.149"/>
<path fill="none" stroke="#000000" stroke-width="0.5057" d="M286.196,676.942c0,1.445-1.172,2.617-2.62,2.617
	c-1.447,0-2.618-1.172-2.618-2.617c0-1.447,1.171-2.62,2.618-2.62S286.196,675.493,286.196,676.942"/>
<path fill="none" stroke="#000000" stroke-width="0.5057" d="M286.196,658.735c0,1.446-1.172,2.617-2.62,2.617
	c-1.447,0-2.618-1.171-2.618-2.617c0-1.447,1.171-2.62,2.618-2.62S286.196,657.286,286.196,658.735"/>
<path fill="none" stroke="#000000" stroke-width="0.5057" d="M286.196,640.527c0,1.446-1.172,2.619-2.62,2.619
	c-1.447,0-2.618-1.173-2.618-2.619c0-1.447,1.171-2.619,2.618-2.619S286.196,639.078,286.196,640.527"/>
<path fill="none" stroke="#000000" stroke-width="0.5057" d="M293.196,713.355c0,1.446-1.172,2.618-2.62,2.618
	c-1.447,0-2.618-1.172-2.618-2.618c0-1.447,1.171-2.619,2.618-2.619S293.196,711.906,293.196,713.355"/>
<path fill="none" stroke="#000000" stroke-width="0.5057" d="M293.196,695.149c0,1.446-1.172,2.618-2.62,2.618
	c-1.447,0-2.618-1.172-2.618-2.618c0-1.447,1.171-2.619,2.618-2.619S293.196,693.7,293.196,695.149"/>
<path fill="none" stroke="#000000" stroke-width="0.5057" d="M293.196,676.942c0,1.445-1.172,2.617-2.62,2.617
	c-1.447,0-2.618-1.172-2.618-2.617c0-1.447,1.171-2.62,2.618-2.62S293.196,675.493,293.196,676.942"/>
<path fill="none" stroke="#000000" stroke-width="0.5057" d="M293.196,658.735c0,1.446-1.172,2.617-2.62,2.617
	c-1.447,0-2.618-1.171-2.618-2.617c0-1.447,1.171-2.62,2.618-2.62S293.196,657.286,293.196,658.735"/>
<path fill="none" stroke="#000000" stroke-width="0.5057" d="M293.196,640.527c0,1.446-1.172,2.619-2.62,2.619
	c-1.447,0-2.618-1.173-2.618-2.619c0-1.447,1.171-2.619,2.618-2.619S293.196,639.078,293.196,640.527"/>
<path fill="none" stroke="#000000" stroke-width="0.5057" d="M300.196,713.355c0,1.446-1.172,2.618-2.62,2.618
	c-1.447,0-2.618-1.172-2.618-2.618c0-1.447,1.171-2.619,2.618-2.619S300.196,711.906,300.196,713.355"/>
<path fill="none" stroke="#000000" stroke-width="0.5057" d="M300.196,695.149c0,1.446-1.172,2.618-2.62,2.618
	c-1.447,0-2.618-1.172-2.618-2.618c0-1.447,1.171-2.619,2.618-2.619S300.196,693.7,300.196,695.149"/>
<path fill="none" stroke="#000000" stroke-width="0.5057" d="M300.196,676.942c0,1.445-1.172,2.617-2.62,2.617
	c-1.447,0-2.618-1.172-2.618-2.617c0-1.447,1.171-2.62,2.618-2.62S300.196,675.493,300.196,676.942"/>
<path fill="none" stroke="#000000" stroke-width="0.5057" d="M300.196,658.735c0,1.446-1.172,2.617-2.62,2.617
	c-1.447,0-2.618-1.171-2.618-2.617c0-1.447,1.171-2.62,2.618-2.62S300.196,657.286,300.196,658.735"/>
<path fill="none" stroke="#000000" stroke-width="0.5057" d="M300.196,640.527c0,1.446-1.172,2.619-2.62,2.619
	c-1.447,0-2.618-1.173-2.618-2.619c0-1.447,1.171-2.619,2.618-2.619S300.196,639.078,300.196,640.527"/>
<path fill="none" stroke="#000000" stroke-width="0.5057" d="M307.195,713.355c0,1.446-1.172,2.618-2.619,2.618
	c-1.445,0-2.616-1.172-2.616-2.618c0-1.447,1.171-2.619,2.616-2.619C306.023,710.736,307.195,711.906,307.195,713.355"/>
<path fill="none" stroke="#000000" stroke-width="0.5057" d="M307.195,695.149c0,1.446-1.172,2.618-2.619,2.618
	c-1.445,0-2.616-1.172-2.616-2.618c0-1.447,1.171-2.619,2.616-2.619C306.023,692.53,307.195,693.7,307.195,695.149"/>
<path fill="none" stroke="#000000" stroke-width="0.5057" d="M307.195,676.942c0,1.445-1.172,2.617-2.619,2.617
	c-1.445,0-2.616-1.172-2.616-2.617c0-1.447,1.171-2.62,2.616-2.62C306.023,674.322,307.195,675.493,307.195,676.942"/>
<path fill="none" stroke="#000000" stroke-width="0.5057" d="M307.195,658.735c0,1.446-1.172,2.617-2.619,2.617
	c-1.445,0-2.616-1.171-2.616-2.617c0-1.447,1.171-2.62,2.616-2.62C306.023,656.115,307.195,657.286,307.195,658.735"/>
<path fill="none" stroke="#000000" stroke-width="0.5057" d="M307.195,640.527c0,1.446-1.172,2.619-2.619,2.619
	c-1.445,0-2.616-1.173-2.616-2.619c0-1.447,1.171-2.619,2.616-2.619C306.023,637.906,307.195,639.078,307.195,640.527"/>
<path fill="none" stroke="#000000" stroke-width="0.5057" d="M314.195,713.355c0,1.446-1.172,2.618-2.619,2.618
	c-1.445,0-2.616-1.172-2.616-2.618c0-1.447,1.171-2.619,2.616-2.619C313.023,710.736,314.195,711.906,314.195,713.355"/>
<path fill="none" stroke="#000000" stroke-width="0.5057" d="M314.195,695.149c0,1.446-1.172,2.618-2.619,2.618
	c-1.445,0-2.616-1.172-2.616-2.618c0-1.447,1.171-2.619,2.616-2.619C313.023,692.53,314.195,693.7,314.195,695.149"/>
<path fill="none" stroke="#000000" stroke-width="0.5057" d="M314.195,676.942c0,1.445-1.172,2.617-2.619,2.617
	c-1.445,0-2.616-1.172-2.616-2.617c0-1.447,1.171-2.62,2.616-2.62C313.023,674.322,314.195,675.493,314.195,676.942"/>
<path fill="none" stroke="#000000" stroke-width="0.5057" d="M314.195,658.735c0,1.446-1.172,2.617-2.619,2.617
	c-1.445,0-2.616-1.171-2.616-2.617c0-1.447,1.171-2.62,2.616-2.62C313.023,656.115,314.195,657.286,314.195,658.735"/>
<path fill="none" stroke="#000000" stroke-width="0.5057" d="M314.195,640.527c0,1.446-1.172,2.619-2.619,2.619
	c-1.445,0-2.616-1.173-2.616-2.619c0-1.447,1.171-2.619,2.616-2.619C313.023,637.906,314.195,639.078,314.195,640.527"/>
<path fill="none" stroke="#000000" stroke-width="0.5057" d="M321.195,713.355c0,1.446-1.172,2.618-2.619,2.618
	c-1.445,0-2.616-1.172-2.616-2.618c0-1.447,1.171-2.619,2.616-2.619C320.023,710.736,321.195,711.906,321.195,713.355"/>
<path fill="none" stroke="#000000" stroke-width="0.5057" d="M321.195,695.149c0,1.446-1.172,2.618-2.619,2.618
	c-1.445,0-2.616-1.172-2.616-2.618c0-1.447,1.171-2.619,2.616-2.619C320.023,692.53,321.195,693.7,321.195,695.149"/>
<path fill="none" stroke="#000000" stroke-width="0.5057" d="M321.195,676.942c0,1.445-1.172,2.617-2.619,2.617
	c-1.445,0-2.616-1.172-2.616-2.617c0-1.447,1.171-2.62,2.616-2.62C320.023,674.322,321.195,675.493,321.195,676.942"/>
<path fill="none" stroke="#000000" stroke-width="0.5057" d="M321.195,658.735c0,1.446-1.172,2.617-2.619,2.617
	c-1.445,0-2.616-1.171-2.616-2.617c0-1.447,1.171-2.62,2.616-2.62C320.023,656.115,321.195,657.286,321.195,658.735"/>
<path fill="none" stroke="#000000" stroke-width="0.5057" d="M321.195,640.527c0,1.446-1.172,2.619-2.619,2.619
	c-1.445,0-2.616-1.173-2.616-2.619c0-1.447,1.171-2.619,2.616-2.619C320.023,637.906,321.195,639.078,321.195,640.527"/>
<path fill="none" stroke="#000000" stroke-width="0.5057" d="M328.195,713.355c0,1.446-1.172,2.618-2.619,2.618
	c-1.445,0-2.616-1.172-2.616-2.618c0-1.447,1.171-2.619,2.616-2.619C327.023,710.736,328.195,711.906,328.195,713.355"/>
<path fill="none" stroke="#000000" stroke-width="0.5057" d="M328.195,695.149c0,1.446-1.172,2.618-2.619,2.618
	c-1.445,0-2.616-1.172-2.616-2.618c0-1.447,1.171-2.619,2.616-2.619C327.023,692.53,328.195,693.7,328.195,695.149"/>
<path fill="none" stroke="#000000" stroke-width="0.5057" d="M328.195,676.942c0,1.445-1.172,2.617-2.619,2.617
	c-1.445,0-2.616-1.172-2.616-2.617c0-1.447,1.171-2.62,2.616-2.62C327.023,674.322,328.195,675.493,328.195,676.942"/>
<path fill="none" stroke="#000000" stroke-width="0.5057" d="M328.195,658.735c0,1.446-1.172,2.617-2.619,2.617
	c-1.445,0-2.616-1.171-2.616-2.617c0-1.447,1.171-2.62,2.616-2.62C327.023,656.115,328.195,657.286,328.195,658.735"/>
<path fill="none" stroke="#000000" stroke-width="0.5057" d="M328.195,640.527c0,1.446-1.172,2.619-2.619,2.619
	c-1.445,0-2.616-1.173-2.616-2.619c0-1.447,1.171-2.619,2.616-2.619C327.023,637.906,328.195,639.078,328.195,640.527"/>
<path fill="none" stroke="#000000" stroke-width="0.5057" d="M335.195,713.355c0,1.446-1.172,2.618-2.619,2.618
	c-1.445,0-2.616-1.172-2.616-2.618c0-1.447,1.171-2.619,2.616-2.619C334.023,710.736,335.195,711.906,335.195,713.355"/>
<path fill="none" stroke="#000000" stroke-width="0.5057" d="M335.195,695.149c0,1.446-1.172,2.618-2.619,2.618
	c-1.445,0-2.616-1.172-2.616-2.618c0-1.447,1.171-2.619,2.616-2.619C334.023,692.53,335.195,693.7,335.195,695.149"/>
<path fill="none" stroke="#000000" stroke-width="0.5057" d="M335.195,676.942c0,1.445-1.172,2.617-2.619,2.617
	c-1.445,0-2.616-1.172-2.616-2.617c0-1.447,1.171-2.62,2.616-2.62C334.023,674.322,335.195,675.493,335.195,676.942"/>
<path fill="none" stroke="#000000" stroke-width="0.5057" d="M335.195,658.735c0,1.446-1.172,2.617-2.619,2.617
	c-1.445,0-2.616-1.171-2.616-2.617c0-1.447,1.171-2.62,2.616-2.62C334.023,656.115,335.195,657.286,335.195,658.735"/>
<path fill="none" stroke="#000000" stroke-width="0.5057" d="M335.195,640.527c0,1.446-1.172,2.619-2.619,2.619
	c-1.445,0-2.616-1.173-2.616-2.619c0-1.447,1.171-2.619,2.616-2.619C334.023,637.906,335.195,639.078,335.195,640.527"/>
<path fill="none" stroke="#000000" stroke-width="0.5057" d="M342.195,713.355c0,1.446-1.172,2.618-2.619,2.618
	c-1.445,0-2.616-1.172-2.616-2.618c0-1.447,1.171-2.619,2.616-2.619C341.023,710.736,342.195,711.906,342.195,713.355"/>
<path fill="none" stroke="#000000" stroke-width="0.5057" d="M342.195,695.149c0,1.446-1.172,2.618-2.619,2.618
	c-1.445,0-2.616-1.172-2.616-2.618c0-1.447,1.171-2.619,2.616-2.619C341.023,692.53,342.195,693.7,342.195,695.149"/>
<path fill="none" stroke="#000000" stroke-width="0.5057" d="M342.195,676.942c0,1.445-1.172,2.617-2.619,2.617
	c-1.445,0-2.616-1.172-2.616-2.617c0-1.447,1.171-2.62,2.616-2.62C341.023,674.322,342.195,675.493,342.195,676.942"/>
<path fill="none" stroke="#000000" stroke-width="0.5057" d="M342.195,658.735c0,1.446-1.172,2.617-2.619,2.617
	c-1.445,0-2.616-1.171-2.616-2.617c0-1.447,1.171-2.62,2.616-2.62C341.023,656.115,342.195,657.286,342.195,658.735"/>
<path fill="none" stroke="#000000" stroke-width="0.5057" d="M342.195,640.527c0,1.446-1.172,2.619-2.619,2.619
	c-1.445,0-2.616-1.173-2.616-2.619c0-1.447,1.171-2.619,2.616-2.619C341.023,637.906,342.195,639.078,342.195,640.527"/>
<path fill="none" stroke="#000000" stroke-width="0.5057" d="M349.195,713.355c0,1.446-1.172,2.618-2.619,2.618
	c-1.445,0-2.616-1.172-2.616-2.618c0-1.447,1.171-2.619,2.616-2.619C348.023,710.736,349.195,711.906,349.195,713.355"/>
<path fill="none" stroke="#000000" stroke-width="0.5057" d="M349.195,695.149c0,1.446-1.172,2.618-2.619,2.618
	c-1.445,0-2.616-1.172-2.616-2.618c0-1.447,1.171-2.619,2.616-2.619C348.023,692.53,349.195,693.7,349.195,695.149"/>
<path fill="none" stroke="#000000" stroke-width="0.5057" d="M349.195,676.942c0,1.445-1.172,2.617-2.619,2.617
	c-1.445,0-2.616-1.172-2.616-2.617c0-1.447,1.171-2.62,2.616-2.62C348.023,674.322,349.195,675.493,349.195,676.942"/>
<path fill="none" stroke="#000000" stroke-width="0.5057" d="M349.195,658.735c0,1.446-1.172,2.617-2.619,2.617
	c-1.445,0-2.616-1.171-2.616-2.617c0-1.447,1.171-2.62,2.616-2.62C348.023,656.115,349.195,657.286,349.195,658.735"/>
<path fill="none" stroke="#000000" stroke-width="0.5057" d="M349.195,640.527c0,1.446-1.172,2.619-2.619,2.619
	c-1.445,0-2.616-1.173-2.616-2.619c0-1.447,1.171-2.619,2.616-2.619C348.023,637.906,349.195,639.078,349.195,640.527"/>
<path fill="none" stroke="#000000" stroke-width="0.5057" d="M356.195,713.355c0,1.446-1.172,2.618-2.619,2.618
	c-1.445,0-2.616-1.172-2.616-2.618c0-1.447,1.171-2.619,2.616-2.619C355.023,710.736,356.195,711.906,356.195,713.355"/>
<path fill="none" stroke="#000000" stroke-width="0.5057" d="M356.195,695.149c0,1.446-1.172,2.618-2.619,2.618
	c-1.445,0-2.616-1.172-2.616-2.618c0-1.447,1.171-2.619,2.616-2.619C355.023,692.53,356.195,693.7,356.195,695.149"/>
<path fill="none" stroke="#000000" stroke-width="0.5057" d="M356.195,676.942c0,1.445-1.172,2.617-2.619,2.617
	c-1.445,0-2.616-1.172-2.616-2.617c0-1.447,1.171-2.62,2.616-2.62C355.023,674.322,356.195,675.493,356.195,676.942"/>
<path fill="none" stroke="#000000" stroke-width="0.5057" d="M356.195,658.735c0,1.446-1.172,2.617-2.619,2.617
	c-1.445,0-2.616-1.171-2.616-2.617c0-1.447,1.171-2.62,2.616-2.62C355.023,656.115,356.195,657.286,356.195,658.735"/>
<path fill="none" stroke="#000000" stroke-width="0.5057" d="M356.195,640.527c0,1.446-1.172,2.619-2.619,2.619
	c-1.445,0-2.616-1.173-2.616-2.619c0-1.447,1.171-2.619,2.616-2.619C355.023,637.906,356.195,639.078,356.195,640.527"/>
<path fill="none" stroke="#000000" stroke-width="0.5057" d="M363.195,713.355c0,1.446-1.172,2.618-2.619,2.618
	c-1.445,0-2.616-1.172-2.616-2.618c0-1.447,1.171-2.619,2.616-2.619C362.023,710.736,363.195,711.906,363.195,713.355"/>
<path fill="none" stroke="#000000" stroke-width="0.5057" d="M363.195,695.149c0,1.446-1.172,2.618-2.619,2.618
	c-1.445,0-2.616-1.172-2.616-2.618c0-1.447,1.171-2.619,2.616-2.619C362.023,692.53,363.195,693.7,363.195,695.149"/>
<path fill="none" stroke="#000000" stroke-width="0.5057" d="M363.195,676.942c0,1.445-1.172,2.617-2.619,2.617
	c-1.445,0-2.616-1.172-2.616-2.617c0-1.447,1.171-2.62,2.616-2.62C362.023,674.322,363.195,675.493,363.195,676.942"/>
<path fill="none" stroke="#000000" stroke-width="0.5057" d="M363.195,658.735c0,1.446-1.172,2.617-2.619,2.617
	c-1.445,0-2.616-1.171-2.616-2.617c0-1.447,1.171-2.62,2.616-2.62C362.023,656.115,363.195,657.286,363.195,658.735"/>
<path fill="none" stroke="#000000" stroke-width="0.5057" d="M363.195,640.527c0,1.446-1.172,2.619-2.619,2.619
	c-1.445,0-2.616-1.173-2.616-2.619c0-1.447,1.171-2.619,2.616-2.619C362.023,637.906,363.195,639.078,363.195,640.527"/>
<path fill="none" stroke="#000000" stroke-width="0.5057" d="M370.195,713.355c0,1.446-1.172,2.618-2.619,2.618
	c-1.445,0-2.616-1.172-2.616-2.618c0-1.447,1.171-2.619,2.616-2.619C369.023,710.736,370.195,711.906,370.195,713.355"/>
<path fill="none" stroke="#000000" stroke-width="0.5057" d="M370.195,695.149c0,1.446-1.172,2.618-2.619,2.618
	c-1.445,0-2.616-1.172-2.616-2.618c0-1.447,1.171-2.619,2.616-2.619C369.023,692.53,370.195,693.7,370.195,695.149"/>
<path fill="none" stroke="#000000" stroke-width="0.5057" d="M370.195,676.942c0,1.445-1.172,2.617-2.619,2.617
	c-1.445,0-2.616-1.172-2.616-2.617c0-1.447,1.171-2.62,2.616-2.62C369.023,674.322,370.195,675.493,370.195,676.942"/>
<path fill="none" stroke="#000000" stroke-width="0.5057" d="M370.195,658.735c0,1.446-1.172,2.617-2.619,2.617
	c-1.445,0-2.616-1.171-2.616-2.617c0-1.447,1.171-2.62,2.616-2.62C369.023,656.115,370.195,657.286,370.195,658.735"/>
<path fill="none" stroke="#000000" stroke-width="0.5057" d="M370.195,640.527c0,1.446-1.172,2.619-2.619,2.619
	c-1.445,0-2.616-1.173-2.616-2.619c0-1.447,1.171-2.619,2.616-2.619C369.023,637.906,370.195,639.078,370.195,640.527"/>
<path fill="none" stroke="#000000" stroke-width="0.5057" d="M377.195,713.355c0,1.446-1.172,2.618-2.619,2.618
	c-1.445,0-2.616-1.172-2.616-2.618c0-1.447,1.171-2.619,2.616-2.619C376.023,710.736,377.195,711.906,377.195,713.355"/>
<path fill="none" stroke="#000000" stroke-width="0.5057" d="M377.195,695.149c0,1.446-1.172,2.618-2.619,2.618
	c-1.445,0-2.616-1.172-2.616-2.618c0-1.447,1.171-2.619,2.616-2.619C376.023,692.53,377.195,693.7,377.195,695.149"/>
<path fill="none" stroke="#000000" stroke-width="0.5057" d="M377.195,676.942c0,1.445-1.172,2.617-2.619,2.617
	c-1.445,0-2.616-1.172-2.616-2.617c0-1.447,1.171-2.62,2.616-2.62C376.023,674.322,377.195,675.493,377.195,676.942"/>
<path fill="none" stroke="#000000" stroke-width="0.5057" d="M377.195,658.735c0,1.446-1.172,2.617-2.619,2.617
	c-1.445,0-2.616-1.171-2.616-2.617c0-1.447,1.171-2.62,2.616-2.62C376.023,656.115,377.195,657.286,377.195,658.735"/>
<path fill="none" stroke="#000000" stroke-width="0.5057" d="M377.195,640.527c0,1.446-1.172,2.619-2.619,2.619
	c-1.445,0-2.616-1.173-2.616-2.619c0-1.447,1.171-2.619,2.616-2.619C376.023,637.906,377.195,639.078,377.195,640.527"/>
<path fill="none" stroke="#000000" stroke-width="0.5057" d="M378.96,713.355"/>
<path fill="none" stroke="#000000" stroke-width="0.5057" d="M378.96,695.149"/>
<path fill="none" stroke="#000000" stroke-width="0.5057" d="M378.96,676.942"/>
<path fill="none" stroke="#000000" stroke-width="0.5057" d="M378.96,658.735"/>
</svg>
