<?xml version="1.0" encoding="UTF-8" standalone="no"?>
<!-- Generator: Adobe Illustrator 15.1.0, SVG Export Plug-In . SVG Version: 6.00 Build 0)  -->

<svg
   xmlns:dc="http://purl.org/dc/elements/1.1/"
   xmlns:cc="http://creativecommons.org/ns#"
   xmlns:rdf="http://www.w3.org/1999/02/22-rdf-syntax-ns#"
   xmlns:svg="http://www.w3.org/2000/svg"
   xmlns="http://www.w3.org/2000/svg"
   xmlns:sodipodi="http://sodipodi.sourceforge.net/DTD/sodipodi-0.dtd"
   xmlns:inkscape="http://www.inkscape.org/namespaces/inkscape"
   version="1.0"
   id="Layer_1"
   x="0px"
   y="0px"
   width="612px"
   height="792px"
   viewBox="0 0 612 792"
   enable-background="new 0 0 612 792"
   xml:space="preserve"
   inkscape:version="0.48.2 r9819"
   sodipodi:docname="Squad5_4.svg"><metadata
   id="metadata5470"><rdf:RDF><cc:Work
       rdf:about=""><dc:format>image/svg+xml</dc:format><dc:type
         rdf:resource="http://purl.org/dc/dcmitype/StillImage" /></cc:Work></rdf:RDF></metadata><defs
   id="defs5468" /><sodipodi:namedview
   pagecolor="#ffffff"
   bordercolor="#666666"
   borderopacity="1"
   objecttolerance="10"
   gridtolerance="10"
   guidetolerance="10"
   inkscape:pageopacity="0"
   inkscape:pageshadow="2"
   inkscape:window-width="1618"
   inkscape:window-height="1028"
   id="namedview5466"
   showgrid="false"
   inkscape:zoom="1.6856283"
   inkscape:cx="192.68677"
   inkscape:cy="179.84597"
   inkscape:window-x="-8"
   inkscape:window-y="-8"
   inkscape:window-maximized="1"
   inkscape:current-layer="Layer_1" />
<polyline
   fill="#C6C8CA"
   points="397.073,749.874 391.341,758.476 232.43,758.476 226.698,749.874 35.767,749.874 30.034,741.272   30.034,631.505 35.767,622.903 224.419,622.903 230.153,631.505 389.906,631.505 397.073,640.106 397.073,749.874 "
   id="polyline5070" />
<polyline
   fill="#FFFFFF"
   points="392.772,745.573 387.04,754.175 228.131,754.175 222.397,745.573 31.468,745.573 25.733,736.972   25.733,627.204 31.468,618.603 220.12,618.603 225.852,627.204 385.606,627.204 392.772,635.805 392.772,745.573 "
   id="polyline5072" />
<polygon
   fill="none"
   stroke="#000000"
   stroke-width="2.0228"
   stroke-linecap="round"
   stroke-miterlimit="10"
   points="  392.772,745.573 387.039,754.176 228.13,754.176 222.397,745.573 31.468,745.573 25.733,736.972 25.733,627.204 31.468,618.604   220.12,618.604 225.852,627.204 385.606,627.204 392.772,635.806 "
   id="polygon5074" />
<polyline
   points="218.699,637.238 32.614,637.238 27.167,629.066 32.601,620.895 218.686,620.895 224.132,629.066 218.699,637.238   "
   id="polyline5076" />
<polygon
   fill="none"
   stroke="#FFFFFF"
   stroke-width="1.0114"
   stroke-linejoin="round"
   points="218.698,637.239 32.614,637.239   27.168,629.067 32.601,620.896 218.686,620.896 224.132,629.067 "
   id="polygon5078" />
<polyline
   points="36.642,643.236 36.642,647.713 35.621,647.713 35.621,643.236 34.067,643.236 34.067,642.319 38.25,642.319   38.25,643.236 36.642,643.236 "
   id="polyline5080" />
<path
   d="M41.844,643.936l-0.99,4.015c-0.138,0.569-0.312,0.95-0.519,1.147c-0.205,0.196-0.536,0.295-0.992,0.295  c-0.103,0-0.209-0.004-0.319-0.017v-0.667c0.079,0.004,0.144,0.008,0.197,0.008c0.383,0,0.627-0.334,0.73-1.004H39.49l-1.234-3.777  h0.97l0.473,1.601l0.236,0.802c0.012,0.052,0.049,0.186,0.11,0.403l0.114,0.398h0.02l0.083-0.398  c0.042-0.206,0.069-0.34,0.083-0.403l0.185-0.802l0.363-1.601H41.844"
   id="path5082" />
<path
   d="M44.032,644.604c-0.343,0-0.568,0.077-0.674,0.233c-0.104,0.153-0.158,0.483-0.158,0.987c0,0.49,0.055,0.814,0.169,0.976  c0.112,0.161,0.343,0.241,0.69,0.241c0.351,0,0.579-0.074,0.686-0.229c0.104-0.152,0.158-0.48,0.158-0.984  c0-0.516-0.054-0.85-0.16-0.999C44.637,644.679,44.401,644.604,44.032,644.604 M42.254,643.936h0.918l-0.035,0.562l0.02,0.004  c0.217-0.407,0.623-0.612,1.218-0.612c0.548,0,0.927,0.136,1.134,0.409c0.205,0.272,0.309,0.768,0.309,1.491  c0,0.753-0.102,1.269-0.307,1.549c-0.205,0.278-0.584,0.419-1.14,0.419c-0.591,0-0.978-0.198-1.159-0.593h-0.016v2.169h-0.942  V643.936"
   id="path5084" />
<path
   d="M49.011,645.434l-0.004-0.15c0-0.3-0.051-0.494-0.156-0.585c-0.103-0.089-0.329-0.134-0.676-0.134  c-0.335,0-0.554,0.053-0.657,0.161c-0.1,0.107-0.152,0.345-0.152,0.708H49.011 M49.002,646.504h0.907v0.146  c0,0.736-0.552,1.106-1.656,1.106c-0.75,0-1.239-0.127-1.471-0.384c-0.23-0.255-0.347-0.796-0.347-1.624  c0-0.734,0.12-1.229,0.363-1.481c0.24-0.253,0.713-0.379,1.416-0.379c0.672,0,1.124,0.122,1.352,0.369  c0.229,0.245,0.343,0.729,0.343,1.452v0.276h-2.551c-0.004,0.083-0.008,0.139-0.008,0.166c0,0.371,0.057,0.618,0.171,0.743  c0.114,0.122,0.341,0.186,0.684,0.186c0.332,0,0.546-0.036,0.646-0.109C48.951,646.901,49.002,646.745,49.002,646.504"
   id="path5086" />
<path
   d="M51.523,643.936v0.973h-0.903v-0.973H51.523 M51.523,646.741v0.972h-0.903v-0.972H51.523"
   id="path5088" />




<path
   d="M36.728,656.676h2.369l0.016,1.07c0,0.778-0.146,1.282-0.44,1.507c-0.292,0.226-0.946,0.338-1.961,0.338  c-0.931,0-1.546-0.149-1.849-0.45c-0.302-0.3-0.454-0.913-0.454-1.837c0-1.18,0.059-1.925,0.181-2.236  c0.15-0.38,0.377-0.635,0.683-0.767c0.304-0.131,0.822-0.197,1.553-0.197c0.956,0,1.573,0.101,1.853,0.306  c0.278,0.204,0.418,0.656,0.418,1.357h-1.033c-0.018-0.352-0.095-0.571-0.231-0.658c-0.134-0.085-0.475-0.128-1.019-0.128  c-0.591,0-0.966,0.073-1.125,0.222c-0.158,0.146-0.239,0.493-0.239,1.038l-0.004,0.542l0.008,0.691c0,0.533,0.079,0.875,0.237,1.021  c0.158,0.146,0.522,0.219,1.096,0.219c0.556,0,0.911-0.062,1.063-0.186c0.15-0.122,0.227-0.415,0.227-0.877l0.004-0.222h-1.352  V656.676"
   id="path5098" />
<path
   d="M43.146,655.767v3.777h-0.903l0.051-0.648l-0.016-0.004c-0.176,0.463-0.58,0.695-1.215,0.695  c-0.854,0-1.281-0.426-1.281-1.284v-2.536h0.903v2.319c0,0.32,0.043,0.531,0.134,0.634c0.088,0.102,0.274,0.152,0.556,0.152  c0.578,0,0.868-0.348,0.868-1.043v-2.063H43.146"
   id="path5100" />
<path
   d="M44.063,655.767h0.895l-0.036,0.636l0.02,0.004c0.175-0.454,0.57-0.684,1.183-0.684c0.891,0,1.336,0.415,1.336,1.249v2.572  h-0.903v-2.418l-0.02-0.265c-0.041-0.281-0.262-0.423-0.662-0.423c-0.607,0-0.911,0.288-0.911,0.865v2.24h-0.903V655.767"
   id="path5102" />
<path
   d="M48.342,655.767h0.895l-0.036,0.636l0.02,0.004c0.175-0.454,0.57-0.684,1.183-0.684c0.891,0,1.336,0.415,1.336,1.249v2.572  h-0.903v-2.418l-0.02-0.265c-0.041-0.281-0.262-0.423-0.662-0.423c-0.607,0-0.911,0.288-0.911,0.865v2.24h-0.903V655.767"
   id="path5104" />
<path
   d="M55.059,657.265l-0.004-0.151c0-0.3-0.051-0.493-0.156-0.584c-0.103-0.089-0.329-0.135-0.676-0.135  c-0.335,0-0.554,0.054-0.657,0.162c-0.1,0.107-0.152,0.344-0.152,0.708H55.059 M55.051,658.335h0.907v0.146  c0,0.737-0.552,1.106-1.656,1.106c-0.749,0-1.238-0.126-1.471-0.383c-0.23-0.255-0.347-0.796-0.347-1.624  c0-0.734,0.12-1.229,0.362-1.481c0.241-0.253,0.714-0.38,1.416-0.38c0.672,0,1.124,0.123,1.352,0.37  c0.229,0.245,0.343,0.729,0.343,1.451v0.277h-2.551c-0.004,0.083-0.008,0.138-0.008,0.166c0,0.371,0.057,0.618,0.171,0.743  c0.114,0.122,0.341,0.186,0.684,0.186c0.332,0,0.546-0.036,0.646-0.109C55,658.731,55.051,658.575,55.051,658.335"
   id="path5106" />
<path
   d="M56.731,655.767h0.903l-0.055,0.529l0.02,0.004c0.215-0.395,0.554-0.593,1.018-0.593c0.662,0,0.994,0.419,0.994,1.257v0.265  h-0.852c0.01-0.103,0.016-0.17,0.016-0.201c0-0.403-0.155-0.604-0.469-0.604c-0.445,0-0.67,0.298-0.67,0.896v2.225h-0.903V655.767"
   id="path5108" />
<path
   d="M63.21,655.767l-0.989,4.015c-0.138,0.568-0.312,0.95-0.519,1.147c-0.205,0.195-0.536,0.295-0.992,0.295  c-0.103,0-0.209-0.005-0.32-0.017v-0.668c0.08,0.004,0.145,0.009,0.197,0.009c0.383,0,0.627-0.334,0.729-1.004h-0.461l-1.234-3.777  h0.97l0.473,1.6l0.236,0.803c0.012,0.052,0.049,0.186,0.11,0.403l0.114,0.398h0.02l0.083-0.398c0.042-0.206,0.069-0.34,0.083-0.403  l0.185-0.803l0.363-1.6H63.21"
   id="path5110" />
<path
   d="M69.661,655.723h-0.998c-0.004-0.049-0.008-0.086-0.008-0.11c-0.024-0.302-0.091-0.492-0.201-0.571  c-0.11-0.077-0.371-0.116-0.781-0.116c-0.483,0-0.798,0.044-0.948,0.135c-0.147,0.089-0.223,0.276-0.223,0.564  c0,0.34,0.059,0.544,0.181,0.613c0.12,0.066,0.521,0.12,1.199,0.157c0.801,0.044,1.319,0.158,1.555,0.344  c0.235,0.184,0.353,0.567,0.353,1.149c0,0.716-0.138,1.18-0.414,1.39c-0.275,0.209-0.883,0.313-1.825,0.313  c-0.846,0-1.408-0.103-1.686-0.308c-0.276-0.206-0.417-0.621-0.417-1.249l-0.003-0.197h0.994l0.003,0.115  c0,0.375,0.065,0.605,0.197,0.69c0.13,0.084,0.489,0.127,1.077,0.127c0.458,0,0.749-0.048,0.875-0.146  c0.126-0.097,0.189-0.321,0.189-0.676c0-0.261-0.047-0.433-0.144-0.52c-0.095-0.085-0.302-0.136-0.621-0.156l-0.564-0.035  c-0.852-0.049-1.396-0.168-1.632-0.355c-0.236-0.186-0.355-0.589-0.355-1.205c0-0.628,0.142-1.049,0.428-1.259  c0.284-0.209,0.854-0.313,1.709-0.313c0.808,0,1.354,0.095,1.636,0.288c0.28,0.191,0.422,0.567,0.422,1.126V655.723"
   id="path5112" />
<polyline
   points="71.379,654.15 71.379,657.236 71.612,657.236 72.628,655.767 73.677,655.767 72.365,657.545 73.945,659.544   72.826,659.544 71.6,657.868 71.379,657.868 71.379,659.544 70.476,659.544 70.476,654.15 71.379,654.15 "
   id="polyline5114" />
<path
   d="M75.254,655.767v3.777h-0.903v-3.777H75.254 M75.254,654.15v0.755h-0.903v-0.755H75.254"
   id="path5116" />
<rect
   x="76.145"
   y="654.15"
   width="0.903"
   height="5.394"
   id="rect5118" />
<rect
   x="77.937"
   y="654.15"
   width="0.903"
   height="5.394"
   id="rect5120" />
<path
   d="M80.593,655.767v0.972H79.69v-0.972H80.593 M80.593,658.572v0.972H79.69v-0.972H80.593"
   id="path5122" />
<line
   fill="none"
   stroke="#000000"
   stroke-width="1.0114"
   stroke-miterlimit="10"
   x1="83.226"
   y1="660.975"
   x2="101.86"
   y2="660.975"
   id="line5124" />
<path
   d="M145.847,657.751l-0.93-2.809l-0.915,2.809H145.847 M146.084,658.506h-2.323l-0.335,1.035h-1.08l1.79-5.394h1.534  l1.817,5.394h-1.06L146.084,658.506"
   id="path5126" />
<path
   d="M147.927,655.764h0.895l-0.036,0.636l0.02,0.005c0.175-0.455,0.569-0.685,1.183-0.685c0.891,0,1.336,0.415,1.336,1.249  v2.572h-0.903v-2.418l-0.02-0.265c-0.042-0.28-0.262-0.423-0.663-0.423c-0.607,0-0.911,0.288-0.911,0.865v2.24h-0.903V655.764"
   id="path5128" />
<path
   d="M154.64,655.764v0.688h-1.451v1.896c0,0.35,0.132,0.525,0.398,0.525c0.292,0,0.438-0.211,0.438-0.636v-0.15h0.769v0.189  c0,0.174-0.003,0.322-0.016,0.447c-0.049,0.576-0.477,0.865-1.285,0.865c-0.805,0-1.207-0.37-1.207-1.11v-2.027h-0.489v-0.688h0.489  v-0.846h0.903v0.846H154.64"
   id="path5130" />
<path
   d="M156.194,655.764v3.777h-0.903v-3.777H156.194 M156.194,654.147v0.755h-0.903v-0.755H156.194"
   id="path5132" />
<rect
   x="156.639"
   y="657.024"
   width="1.802"
   height="0.861"
   id="rect5134" />
<path
   d="M159.808,654.147v0.944c0,0.626-0.271,0.94-0.813,0.94c-0.028,0-0.083-0.002-0.166-0.008v-0.423  c0.288,0,0.434-0.12,0.434-0.363l-0.004-0.119h-0.355v-0.972H159.808"
   id="path5136" />
<path
   d="M167.014,654.147v5.394h-1.021v-2.939c0-0.233,0.006-0.5,0.02-0.798l0.02-0.403l0.02-0.399h-0.031l-0.123,0.376  l-0.118,0.375c-0.11,0.336-0.195,0.585-0.256,0.747l-1.183,3.042h-0.931l-1.195-3.019c-0.065-0.166-0.152-0.415-0.26-0.747  l-0.123-0.375l-0.123-0.371h-0.031l0.02,0.391l0.02,0.396c0.016,0.304,0.024,0.566,0.024,0.786v2.939h-1.021v-5.394h1.664  l0.962,2.497c0.065,0.174,0.152,0.423,0.26,0.747l0.118,0.376l0.123,0.371h0.035l0.114-0.371l0.119-0.372  c0.096-0.313,0.181-0.562,0.252-0.743l0.946-2.505H167.014"
   id="path5138" />
<path
   d="M170.366,657.262l-0.004-0.15c0-0.301-0.051-0.494-0.156-0.585c-0.103-0.089-0.329-0.134-0.676-0.134  c-0.335,0-0.554,0.053-0.657,0.161c-0.101,0.107-0.152,0.344-0.152,0.708H170.366 M170.357,658.332h0.907v0.146  c0,0.736-0.552,1.105-1.656,1.105c-0.75,0-1.238-0.126-1.471-0.383c-0.23-0.255-0.347-0.796-0.347-1.624  c0-0.734,0.12-1.229,0.363-1.481c0.241-0.253,0.714-0.379,1.416-0.379c0.672,0,1.124,0.122,1.353,0.369  c0.229,0.245,0.343,0.729,0.343,1.452v0.276h-2.551c-0.004,0.083-0.008,0.139-0.008,0.166c0,0.371,0.057,0.618,0.171,0.743  c0.114,0.122,0.341,0.186,0.684,0.186c0.332,0,0.546-0.036,0.646-0.109C170.306,658.729,170.357,658.573,170.357,658.332"
   id="path5140" />
<path
   d="M174.416,658.099h0.899v0.131l-0.055,0.572c-0.11,0.522-0.648,0.782-1.617,0.782c-0.709,0-1.181-0.128-1.415-0.385  c-0.233-0.257-0.351-0.772-0.351-1.551c0-0.759,0.116-1.269,0.351-1.533c0.232-0.263,0.688-0.396,1.364-0.396  c0.651,0,1.092,0.096,1.325,0.287c0.23,0.189,0.347,0.553,0.347,1.089h-0.895c0-0.439-0.252-0.66-0.761-0.66  c-0.358,0-0.585,0.069-0.678,0.209c-0.09,0.139-0.138,0.482-0.138,1.027c0,0.525,0.049,0.857,0.152,0.994  c0.101,0.134,0.349,0.203,0.743,0.203c0.31,0,0.509-0.045,0.597-0.14C174.37,658.637,174.416,658.427,174.416,658.099"
   id="path5142" />
<path
   d="M176.882,654.147v2.24l0.02,0.005c0.167-0.447,0.554-0.673,1.159-0.673c0.879,0,1.321,0.417,1.321,1.253v2.568h-0.903V657.1  c0-0.443-0.225-0.664-0.674-0.664c-0.615,0-0.923,0.32-0.923,0.96v2.146h-0.903v-5.394H176.882"
   id="path5144" />
<path
   d="M186.308,655.72h-0.998c-0.004-0.049-0.008-0.086-0.008-0.11c-0.023-0.302-0.091-0.492-0.201-0.57  c-0.11-0.077-0.371-0.117-0.781-0.117c-0.483,0-0.799,0.044-0.949,0.135c-0.147,0.089-0.223,0.276-0.223,0.564  c0,0.34,0.06,0.544,0.182,0.613c0.12,0.066,0.521,0.12,1.198,0.158c0.801,0.043,1.319,0.157,1.556,0.343  c0.234,0.184,0.353,0.567,0.353,1.15c0,0.715-0.138,1.18-0.414,1.389s-0.883,0.314-1.826,0.314c-0.846,0-1.407-0.104-1.686-0.309  c-0.276-0.205-0.416-0.62-0.416-1.249l-0.004-0.197h0.994l0.004,0.115c0,0.375,0.065,0.605,0.197,0.691  c0.13,0.083,0.489,0.126,1.076,0.126c0.458,0,0.75-0.048,0.875-0.146c0.126-0.097,0.189-0.321,0.189-0.676  c0-0.261-0.047-0.433-0.144-0.52c-0.095-0.085-0.302-0.136-0.621-0.156l-0.564-0.035c-0.852-0.049-1.396-0.168-1.632-0.355  c-0.237-0.186-0.355-0.589-0.355-1.205c0-0.628,0.143-1.049,0.428-1.259c0.284-0.209,0.854-0.313,1.709-0.313  c0.809,0,1.354,0.095,1.636,0.288c0.28,0.191,0.422,0.567,0.422,1.126V655.72"
   id="path5146" />
<polyline
   points="188.025,654.147 188.025,657.233 188.258,657.233 189.275,655.764 190.324,655.764 189.011,657.542   190.592,659.541 189.472,659.541 188.246,657.866 188.025,657.866 188.025,659.541 187.123,659.541 187.123,654.147   188.025,654.147 "
   id="polyline5148" />
<path
   d="M191.902,655.764v3.777h-0.903v-3.777H191.902 M191.902,654.147v0.755h-0.903v-0.755H191.902"
   id="path5150" />
<rect
   x="192.792"
   y="654.147"
   width="0.902"
   height="5.394"
   id="rect5152" />
<rect
   x="194.584"
   y="654.147"
   width="0.903"
   height="5.394"
   id="rect5154" />
<path
   d="M197.24,655.764v0.972h-0.903v-0.972H197.24 M197.24,658.569v0.972h-0.903v-0.972H197.24"
   id="path5156" />
<line
   fill="none"
   stroke="#000000"
   stroke-width="1.0114"
   stroke-miterlimit="10"
   x1="198.805"
   y1="660.975"
   x2="217.439"
   y2="660.975"
   id="line5158" />



<path
   d="M36.611,668.503h2.37l0.016,1.07c0,0.778-0.146,1.282-0.439,1.508c-0.292,0.226-0.946,0.338-1.961,0.338  c-0.931,0-1.546-0.15-1.849-0.45c-0.302-0.301-0.454-0.913-0.454-1.838c0-1.18,0.059-1.924,0.181-2.236  c0.15-0.379,0.376-0.634,0.682-0.766c0.304-0.131,0.822-0.198,1.554-0.198c0.956,0,1.573,0.101,1.853,0.307  c0.278,0.203,0.418,0.655,0.418,1.356h-1.033c-0.018-0.352-0.094-0.57-0.23-0.657c-0.134-0.085-0.475-0.129-1.019-0.129  c-0.591,0-0.966,0.073-1.126,0.222c-0.158,0.146-0.238,0.494-0.238,1.039l-0.004,0.541l0.008,0.691c0,0.534,0.079,0.876,0.236,1.021  c0.158,0.146,0.522,0.22,1.096,0.22c0.556,0,0.911-0.062,1.063-0.186c0.149-0.123,0.227-0.415,0.227-0.878l0.004-0.221h-1.353  V668.503"
   id="path5166" />
<path
   d="M39.706,667.594h0.903l-0.055,0.53l0.02,0.003c0.215-0.395,0.554-0.592,1.018-0.592c0.662,0,0.994,0.419,0.994,1.256v0.265  h-0.852c0.01-0.103,0.016-0.17,0.016-0.201c0-0.403-0.155-0.604-0.469-0.604c-0.446,0-0.67,0.299-0.67,0.897v2.224h-0.903V667.594"
   id="path5168" />
<path
   d="M44.73,668.266c-0.375,0-0.615,0.067-0.718,0.204c-0.102,0.134-0.153,0.452-0.153,0.95c0,0.568,0.047,0.924,0.146,1.066  c0.097,0.143,0.339,0.214,0.729,0.214c0.375,0,0.613-0.075,0.712-0.226s0.148-0.51,0.148-1.083c0-0.481-0.051-0.79-0.154-0.925  C45.337,668.333,45.101,668.266,44.73,668.266 M44.738,667.551c0.728,0,1.204,0.116,1.431,0.35c0.225,0.233,0.339,0.726,0.339,1.476  c0,0.838-0.11,1.387-0.331,1.647s-0.686,0.392-1.396,0.392c-0.769,0-1.268-0.121-1.496-0.364c-0.227-0.24-0.341-0.774-0.341-1.6  c0-0.792,0.111-1.308,0.335-1.545C43.502,667.669,43.989,667.551,44.738,667.551"
   id="path5170" />
<path
   d="M50.604,667.594v3.777h-0.903l0.051-0.647l-0.016-0.004c-0.175,0.462-0.58,0.695-1.214,0.695  c-0.854,0-1.281-0.427-1.281-1.284v-2.537h0.903v2.319c0,0.32,0.043,0.532,0.134,0.635c0.089,0.101,0.274,0.152,0.556,0.152  c0.578,0,0.868-0.349,0.868-1.044v-2.063H50.604"
   id="path5172" />
<path
   d="M51.521,667.594h0.895l-0.036,0.637l0.02,0.004c0.175-0.455,0.569-0.684,1.183-0.684c0.891,0,1.336,0.415,1.336,1.249v2.571  h-0.903v-2.418l-0.02-0.265c-0.042-0.28-0.262-0.423-0.663-0.423c-0.607,0-0.911,0.288-0.911,0.865v2.24h-0.903V667.594"
   id="path5174" />
<path
   d="M57.385,668.266c-0.335,0-0.554,0.071-0.655,0.216c-0.098,0.142-0.15,0.452-0.15,0.926c0,0.548,0.05,0.901,0.15,1.06  c0.099,0.158,0.323,0.236,0.671,0.236c0.362,0,0.593-0.076,0.696-0.232c0.101-0.154,0.151-0.514,0.151-1.075  c0-0.462-0.055-0.767-0.167-0.912C57.971,668.339,57.738,668.266,57.385,668.266 M59.156,665.978v5.394h-0.879l0.032-0.608  l-0.016-0.004c-0.175,0.438-0.56,0.66-1.151,0.66c-0.595,0-0.991-0.137-1.185-0.409s-0.29-0.825-0.29-1.661  c0-0.674,0.103-1.142,0.312-1.405c0.207-0.261,0.576-0.393,1.108-0.393c0.615,0,0.998,0.193,1.151,0.585l0.016-0.004v-2.154H59.156"
   id="path5176" />
<path
   d="M68.379,665.978v5.394h-1.021v-2.939c0-0.233,0.005-0.5,0.02-0.798l0.02-0.403l0.02-0.398h-0.032l-0.123,0.375l-0.118,0.375  c-0.11,0.336-0.195,0.585-0.256,0.747l-1.183,3.042h-0.931l-1.195-3.019c-0.065-0.166-0.151-0.414-0.26-0.746l-0.123-0.376  l-0.122-0.371h-0.032l0.02,0.392l0.02,0.395c0.015,0.305,0.023,0.567,0.023,0.786v2.939h-1.021v-5.394h1.664l0.962,2.498  c0.065,0.174,0.152,0.423,0.26,0.746l0.118,0.376l0.123,0.371h0.035l0.114-0.371l0.119-0.372c0.097-0.312,0.182-0.561,0.252-0.742  l0.946-2.506H68.379"
   id="path5178" />
<path
   d="M70.343,668.768h1.163c0.461,0,0.755-0.053,0.881-0.16c0.124-0.106,0.188-0.357,0.188-0.757  c0-0.454-0.051-0.736-0.156-0.848c-0.103-0.108-0.373-0.164-0.811-0.164h-1.265V668.768 M69.321,671.371v-5.394h2.437  c0.728,0,1.218,0.127,1.473,0.382c0.252,0.253,0.38,0.745,0.38,1.472c0,0.721-0.12,1.201-0.362,1.438  c-0.241,0.237-0.729,0.355-1.467,0.355l-0.237,0.004h-1.202v1.742H69.321"
   id="path5180" />
<path
   d="M75.099,667.594v0.973h-0.903v-0.973H75.099 M75.099,670.399v0.972h-0.903v-0.972H75.099"
   id="path5182" />
<path
   d="M40.787,734.809v5.394h-1.021v-2.939c0-0.233,0.006-0.5,0.02-0.798l0.02-0.403l0.02-0.399h-0.031l-0.123,0.376l-0.118,0.375  c-0.11,0.336-0.195,0.585-0.256,0.747l-1.183,3.042h-0.931l-1.195-3.019c-0.065-0.166-0.152-0.415-0.26-0.747l-0.123-0.375  l-0.123-0.371h-0.031l0.02,0.391l0.02,0.396c0.016,0.304,0.024,0.566,0.024,0.786v2.939h-1.021v-5.394h1.664l0.962,2.498  c0.065,0.173,0.151,0.422,0.26,0.746l0.118,0.376l0.123,0.371h0.035l0.114-0.371l0.119-0.372c0.096-0.313,0.181-0.562,0.252-0.743  l0.946-2.505H40.787"
   id="path5184" />
<path
   d="M44.139,737.923l-0.004-0.15c0-0.301-0.051-0.494-0.156-0.585c-0.103-0.089-0.329-0.134-0.676-0.134  c-0.335,0-0.554,0.053-0.657,0.161c-0.101,0.107-0.152,0.344-0.152,0.708H44.139 M44.13,738.993h0.907v0.146  c0,0.736-0.553,1.105-1.656,1.105c-0.75,0-1.238-0.126-1.471-0.383c-0.23-0.255-0.347-0.796-0.347-1.624  c0-0.734,0.12-1.229,0.363-1.481c0.241-0.253,0.714-0.379,1.416-0.379c0.672,0,1.124,0.122,1.353,0.369  c0.229,0.245,0.343,0.729,0.343,1.452v0.276h-2.551c-0.004,0.083-0.008,0.139-0.008,0.166c0,0.371,0.057,0.618,0.171,0.743  c0.114,0.122,0.341,0.186,0.684,0.186c0.331,0,0.546-0.036,0.646-0.109C44.079,739.391,44.13,739.234,44.13,738.993"
   id="path5186" />
<path
   d="M48.188,738.76h0.899v0.131l-0.055,0.572c-0.11,0.522-0.648,0.782-1.617,0.782c-0.709,0-1.181-0.128-1.415-0.385  c-0.233-0.257-0.351-0.772-0.351-1.551c0-0.759,0.116-1.269,0.351-1.533c0.232-0.263,0.688-0.396,1.364-0.396  c0.651,0,1.092,0.096,1.325,0.287c0.23,0.189,0.347,0.553,0.347,1.089h-0.895c0-0.438-0.252-0.66-0.761-0.66  c-0.358,0-0.585,0.069-0.678,0.21c-0.09,0.138-0.138,0.481-0.138,1.026c0,0.525,0.049,0.857,0.152,0.994  c0.101,0.134,0.349,0.203,0.743,0.203c0.31,0,0.509-0.045,0.597-0.14C48.143,739.298,48.188,739.088,48.188,738.76"
   id="path5188" />
<path
   d="M50.655,734.809v2.24l0.02,0.005c0.167-0.447,0.554-0.673,1.159-0.673c0.879,0,1.321,0.417,1.321,1.253v2.568h-0.903v-2.441  c0-0.442-0.225-0.664-0.674-0.664c-0.615,0-0.923,0.32-0.923,0.96v2.146h-0.903v-5.394H50.655"
   id="path5190" />
<path
   d="M55.582,738.511c-0.509,0-0.765,0.176-0.765,0.53c0,0.244,0.051,0.404,0.158,0.481c0.104,0.075,0.325,0.115,0.662,0.115  c0.548,0,0.824-0.187,0.824-0.558C56.461,738.701,56.169,738.511,55.582,738.511 M54.979,737.52h-0.922  c0-0.452,0.104-0.755,0.315-0.909c0.209-0.152,0.627-0.229,1.25-0.229c0.678,0,1.136,0.094,1.376,0.281  c0.238,0.186,0.358,0.543,0.358,1.07v2.47h-0.903l0.043-0.518l-0.024-0.004c-0.173,0.376-0.574,0.564-1.202,0.564  c-0.911,0-1.369-0.387-1.369-1.165c0-0.784,0.465-1.178,1.4-1.178c0.623,0,1.001,0.143,1.136,0.431h0.016v-0.612  c0-0.294-0.051-0.49-0.154-0.587c-0.103-0.095-0.312-0.144-0.631-0.144C55.209,736.99,54.979,737.166,54.979,737.52"
   id="path5192" />
<path
   d="M58.255,736.425h0.895l-0.036,0.636l0.02,0.005c0.175-0.455,0.57-0.685,1.183-0.685c0.891,0,1.336,0.415,1.336,1.249v2.572  h-0.903v-2.418l-0.02-0.265c-0.042-0.28-0.262-0.423-0.663-0.423c-0.606,0-0.911,0.288-0.911,0.865v2.24h-0.902V736.425"
   id="path5194" />
<path
   d="M63.438,736.425v3.777h-0.903v-3.777H63.438 M63.438,734.809v0.755h-0.903v-0.755H63.438"
   id="path5196" />
<polyline
   points="64.205,736.425 67.143,736.425 67.143,737.203 65.124,739.515 67.143,739.515 67.143,740.202 64.047,740.202   64.047,739.408 66.046,737.112 64.205,737.112 64.205,736.425 "
   id="polyline5198" />
<path
   d="M70.188,737.923l-0.004-0.15c0-0.301-0.051-0.494-0.156-0.585c-0.103-0.089-0.329-0.134-0.676-0.134  c-0.335,0-0.554,0.053-0.657,0.161c-0.101,0.107-0.152,0.344-0.152,0.708H70.188 M70.18,738.993h0.907v0.146  c0,0.736-0.552,1.105-1.656,1.105c-0.75,0-1.238-0.126-1.471-0.383c-0.23-0.255-0.347-0.796-0.347-1.624  c0-0.734,0.12-1.229,0.363-1.481c0.241-0.253,0.714-0.379,1.416-0.379c0.672,0,1.124,0.122,1.353,0.369  c0.229,0.245,0.343,0.729,0.343,1.452v0.276h-2.551c-0.004,0.083-0.008,0.139-0.008,0.166c0,0.371,0.057,0.618,0.171,0.743  c0.114,0.122,0.341,0.186,0.684,0.186c0.332,0,0.546-0.036,0.646-0.109C70.129,739.391,70.18,739.234,70.18,738.993"
   id="path5200" />
<path
   d="M73.422,737.097c-0.335,0-0.554,0.071-0.655,0.215c-0.099,0.143-0.15,0.453-0.15,0.927c0,0.548,0.049,0.901,0.15,1.06  c0.099,0.158,0.323,0.236,0.67,0.236c0.363,0,0.593-0.077,0.696-0.232c0.101-0.154,0.152-0.514,0.152-1.075  c0-0.462-0.055-0.767-0.167-0.913C74.008,737.17,73.775,737.097,73.422,737.097 M75.192,734.809v5.394h-0.879l0.032-0.608  l-0.016-0.004c-0.176,0.438-0.56,0.66-1.152,0.66c-0.595,0-0.991-0.137-1.185-0.409c-0.193-0.272-0.29-0.826-0.29-1.661  c0-0.674,0.103-1.143,0.312-1.405c0.207-0.261,0.576-0.394,1.107-0.394c0.615,0,0.998,0.194,1.152,0.586l0.016-0.005v-2.153H75.192"
   id="path5202" />
<path
   d="M76.94,736.425v0.972h-0.903v-0.972H76.94 M76.94,739.23v0.972h-0.903v-0.972H76.94"
   id="path5204" />
<path
   fill="none"
   stroke="#000000"
   stroke-width="1.0114"
   stroke-miterlimit="10"
   d="M90.247,740.633  c0,1.141-0.923,2.063-2.062,2.063h-5.713c-1.138,0-2.062-0.922-2.062-2.063v-5.584c0-1.141,0.924-2.063,2.062-2.063h5.713  c1.139,0,2.062,0.923,2.062,2.063V740.633z"
   id="path5206" />
<polyline
   points="153.367,734.808 153.367,739.284 155.891,739.284 155.891,740.201 152.346,740.201 152.346,734.808   153.367,734.808 "
   id="polyline5208" />
<path
   d="M158.817,737.921l-0.004-0.15c0-0.3-0.051-0.493-0.156-0.585c-0.103-0.089-0.329-0.134-0.676-0.134  c-0.335,0-0.554,0.054-0.657,0.162c-0.1,0.106-0.151,0.344-0.151,0.707H158.817 M158.809,738.992h0.907v0.146  c0,0.737-0.552,1.106-1.656,1.106c-0.75,0-1.238-0.126-1.471-0.383c-0.231-0.255-0.347-0.797-0.347-1.624  c0-0.735,0.12-1.229,0.363-1.481c0.241-0.253,0.714-0.38,1.416-0.38c0.672,0,1.124,0.122,1.353,0.37  c0.229,0.244,0.343,0.729,0.343,1.451v0.276h-2.551c-0.004,0.084-0.008,0.139-0.008,0.167c0,0.371,0.057,0.618,0.172,0.742  c0.114,0.123,0.341,0.186,0.684,0.186c0.332,0,0.546-0.035,0.647-0.108C158.758,739.389,158.809,739.232,158.809,738.992"
   id="path5210" />
<path
   d="M162.059,737.096c-0.347,0-0.57,0.068-0.668,0.211c-0.099,0.141-0.148,0.46-0.148,0.962c0,0.531,0.049,0.871,0.148,1.02  c0.098,0.146,0.325,0.222,0.68,0.222c0.355,0,0.584-0.075,0.69-0.228c0.105-0.15,0.158-0.486,0.158-1.006  c0-0.497-0.051-0.817-0.158-0.964C162.656,737.168,162.422,737.096,162.059,737.096 M163.837,736.424v3.848  c0,0.617-0.124,1.039-0.373,1.269s-0.706,0.344-1.374,0.344c-0.646,0-1.078-0.087-1.297-0.261c-0.217-0.174-0.327-0.518-0.327-1.031  h0.875c0,0.245,0.045,0.401,0.138,0.473c0.091,0.068,0.296,0.104,0.615,0.104c0.56,0,0.84-0.231,0.84-0.695v-0.85l-0.02-0.004  c-0.16,0.402-0.529,0.604-1.104,0.604c-0.57,0-0.96-0.139-1.169-0.415s-0.313-0.792-0.313-1.549c0-0.711,0.104-1.201,0.313-1.474  c0.209-0.271,0.587-0.407,1.138-0.407c0.599,0,0.992,0.222,1.179,0.668h0.02l-0.043-0.624H163.837"
   id="path5212" />
<path
   d="M165.585,736.424v0.972h-0.903v-0.972H165.585 M165.585,739.229v0.973h-0.903v-0.973H165.585"
   id="path5214" />
<path
   fill="none"
   stroke="#000000"
   stroke-width="1.0114"
   stroke-miterlimit="10"
   d="M179.107,740.633  c0,1.141-0.923,2.063-2.062,2.063h-5.714c-1.139,0-2.063-0.922-2.063-2.063v-5.584c0-1.141,0.924-2.063,2.063-2.063h5.714  c1.139,0,2.062,0.923,2.062,2.063V740.633z"
   id="path5216" />
<path
   d="M194.068,738.411l-0.931-2.81l-0.915,2.81H194.068 M194.305,739.166h-2.322l-0.335,1.035h-1.081l1.79-5.394h1.534  l1.817,5.394h-1.061L194.305,739.166"
   id="path5218" />
<path
   d="M197.197,737.598h1.163c0.461,0,0.755-0.054,0.881-0.161c0.124-0.106,0.188-0.357,0.188-0.756  c0-0.455-0.051-0.737-0.156-0.848c-0.103-0.109-0.373-0.164-0.811-0.164h-1.265V737.598 M196.176,740.201v-5.394h2.437  c0.728,0,1.218,0.126,1.473,0.381c0.252,0.253,0.38,0.745,0.38,1.472c0,0.722-0.12,1.201-0.362,1.438  c-0.241,0.237-0.729,0.355-1.467,0.355l-0.237,0.005h-1.202v1.742H196.176"
   id="path5220" />
<path
   d="M201.954,736.424v0.972h-0.903v-0.972H201.954 M201.954,739.229v0.973h-0.903v-0.973H201.954"
   id="path5222" />
<path
   fill="#FFFFFF"
   d="M216.181,740.633c0,1.14-0.924,2.062-2.063,2.062h-5.713c-1.139,0-2.063-0.922-2.063-2.062v-5.585  c0-1.14,0.924-2.064,2.063-2.064h5.713c1.139,0,2.063,0.925,2.063,2.064V740.633"
   id="path5224" />
<path
   fill="none"
   stroke="#000000"
   stroke-width="1.0114"
   stroke-miterlimit="10"
   d="M216.182,740.633  c0,1.141-0.924,2.063-2.063,2.063h-5.714c-1.138,0-2.063-0.922-2.063-2.063v-5.584c0-1.141,0.925-2.063,2.063-2.063h5.714  c1.139,0,2.063,0.923,2.063,2.063V740.633z"
   id="path5226" />
<path
   d="M104.408,736.38h-0.998c-0.004-0.049-0.008-0.087-0.008-0.11c-0.023-0.303-0.091-0.492-0.201-0.571  c-0.11-0.077-0.371-0.116-0.781-0.116c-0.483,0-0.799,0.043-0.948,0.135c-0.148,0.089-0.223,0.276-0.223,0.564  c0,0.34,0.059,0.543,0.181,0.612c0.12,0.067,0.521,0.121,1.199,0.158c0.8,0.044,1.319,0.158,1.555,0.344  c0.235,0.184,0.353,0.567,0.353,1.149c0,0.716-0.138,1.18-0.414,1.389c-0.276,0.21-0.883,0.314-1.825,0.314  c-0.846,0-1.408-0.103-1.686-0.308c-0.276-0.206-0.416-0.621-0.416-1.249l-0.004-0.197h0.994l0.004,0.114  c0,0.375,0.065,0.606,0.197,0.691c0.13,0.083,0.489,0.127,1.077,0.127c0.457,0,0.749-0.048,0.875-0.146  c0.126-0.097,0.189-0.322,0.189-0.676c0-0.261-0.047-0.433-0.144-0.52c-0.094-0.085-0.302-0.137-0.621-0.156l-0.564-0.035  c-0.852-0.05-1.396-0.168-1.632-0.355c-0.237-0.187-0.355-0.589-0.355-1.205c0-0.629,0.142-1.049,0.428-1.259  c0.284-0.209,0.854-0.314,1.709-0.314c0.808,0,1.354,0.095,1.636,0.289c0.28,0.191,0.422,0.566,0.422,1.126V736.38"
   id="path5228" />
<path
   d="M110.503,736.424l-0.844,3.777h-1.333l-0.378-1.691c-0.065-0.292-0.114-0.514-0.146-0.668l-0.067-0.332l-0.067-0.331h-0.028  l-0.067,0.331l-0.067,0.336c-0.027,0.146-0.075,0.368-0.142,0.664l-0.378,1.691h-1.353l-0.84-3.777h0.911l0.363,1.75  c0.043,0.218,0.088,0.452,0.134,0.703l0.063,0.352l0.067,0.353h0.016l0.079-0.353l0.075-0.352c0.04-0.176,0.092-0.408,0.162-0.699  l0.41-1.754h1.151l0.41,1.754c0.075,0.328,0.13,0.562,0.162,0.699l0.075,0.352l0.075,0.353h0.02l0.067-0.353l0.063-0.352  c0.043-0.241,0.091-0.476,0.138-0.703l0.367-1.75H110.503"
   id="path5230" />
<path
   d="M112.498,738.51c-0.509,0-0.765,0.176-0.765,0.529c0,0.245,0.051,0.405,0.158,0.482c0.104,0.075,0.325,0.114,0.663,0.114  c0.548,0,0.824-0.186,0.824-0.557C113.377,738.699,113.086,738.51,112.498,738.51 M111.895,737.518h-0.922  c0-0.452,0.104-0.754,0.315-0.908c0.209-0.152,0.627-0.229,1.25-0.229c0.678,0,1.136,0.093,1.376,0.28  c0.238,0.186,0.358,0.544,0.358,1.071v2.47h-0.903l0.043-0.519l-0.024-0.003c-0.173,0.375-0.574,0.564-1.202,0.564  c-0.911,0-1.368-0.387-1.368-1.165c0-0.784,0.465-1.178,1.399-1.178c0.623,0,1.001,0.143,1.136,0.431h0.016v-0.612  c0-0.295-0.051-0.49-0.154-0.587c-0.103-0.095-0.311-0.145-0.631-0.145C112.126,736.988,111.895,737.164,111.895,737.518"
   id="path5232" />
<path
   d="M115.195,736.424h0.903l-0.055,0.529l0.02,0.004c0.215-0.396,0.554-0.593,1.018-0.593c0.662,0,0.994,0.419,0.994,1.256  v0.266h-0.852c0.01-0.103,0.016-0.17,0.016-0.201c0-0.403-0.155-0.605-0.469-0.605c-0.445,0-0.67,0.299-0.67,0.897v2.225h-0.903  V736.424"
   id="path5234" />
<path
   d="M118.572,736.424h0.903l-0.024,0.58l0.02,0.004c0.183-0.418,0.567-0.628,1.151-0.628c0.68,0,1.059,0.233,1.136,0.699h0.016  c0.176-0.466,0.564-0.699,1.163-0.699c0.872,0,1.309,0.438,1.309,1.32v2.501h-0.903v-2.304c0-0.533-0.219-0.802-0.658-0.802  c-0.548,0-0.824,0.298-0.824,0.896v2.209h-0.903v-2.34c0-0.312-0.042-0.52-0.125-0.618c-0.083-0.099-0.258-0.147-0.526-0.147  c-0.554,0-0.832,0.304-0.832,0.916v2.189h-0.903V736.424"
   id="path5236" />
<path
   d="M126.032,736.424v0.972h-0.903v-0.972H126.032 M126.032,739.229v0.973h-0.903v-0.973H126.032"
   id="path5238" />
<path
   fill="none"
   stroke="#000000"
   stroke-width="1.0114"
   stroke-miterlimit="10"
   d="M138.972,740.633  c0,1.141-0.924,2.063-2.063,2.063h-5.713c-1.139,0-2.063-0.922-2.063-2.063v-5.584c0-1.141,0.925-2.063,2.063-2.063h5.713  c1.139,0,2.063,0.923,2.063,2.063V740.633z"
   id="path5240" />






<path
   fill="#FFFFFF"
   d="M48.054,625.668h2.511c0.878,0,1.275,0.071,1.275,1.034c0,0.964-0.222,1.266-1.224,1.266h-2.562V625.668   M51.047,633.278c1.878,0,2.686-0.524,2.686-2.543c0-1.158-0.237-2-1.476-2.146v-0.051c1.095-0.266,1.287-0.965,1.287-2.003  c0-1.997-0.89-2.361-2.655-2.361h-4.537v9.104H51.047 M48.054,629.295h2.732c1.026,0,1.242,0.294,1.242,1.292  c0,1.124-0.497,1.197-1.538,1.197h-2.437V629.295"
   id="path5254" />
<path
   fill="#FFFFFF"
   d="M60.208,630.243h-3.152l1.559-4.731h0.023L60.208,630.243 M60.598,631.571l0.598,1.707h1.777l-3.093-9.104  h-2.582l-3.031,9.104h1.815l0.571-1.707H60.598"
   id="path5256" />
<polyline
   fill="#FFFFFF"
   points="66.457,625.668 69.121,625.668 69.121,624.175 62.089,624.175 62.089,625.668 64.753,625.668   64.753,633.278 66.457,633.278 66.457,625.668 "
   id="polyline5258" />
<polyline
   fill="#FFFFFF"
   points="73.567,625.668 76.232,625.668 76.232,624.175 69.2,624.175 69.2,625.668 71.864,625.668   71.864,633.278 73.567,633.278 73.567,625.668 "
   id="polyline5260" />
<polyline
   fill="#FFFFFF"
   points="78.785,624.175 77.082,624.175 77.082,633.278 83.026,633.278 83.026,631.784 78.785,631.784   78.785,624.175 "
   id="polyline5262" />
<polyline
   fill="#FFFFFF"
   points="85.629,625.668 90.112,625.668 90.112,624.175 83.925,624.175 83.925,633.278 90.147,633.278   90.147,631.784 85.629,631.784 85.629,629.295 89.881,629.295 89.881,627.778 85.629,627.778 85.629,625.668 "
   id="polyline5264" />
<path
   fill="#FFFFFF"
   d="M100.871,630.243h-3.152l1.559-4.731h0.023L100.871,630.243 M101.261,631.571l0.598,1.707h1.777  l-3.093-9.104h-2.582l-3.031,9.104h1.816l0.571-1.707H101.261"
   id="path5266" />
<path
   fill="#FFFFFF"
   d="M105.979,628.727v-3.059h2.351c1.209,0,1.434,0.229,1.434,1.494c0,1.313-0.296,1.564-1.508,1.564H105.979   M108.625,630.243c0.828,0,1.139,0.54,1.139,1.316v1.719h1.703v-1.716c0-1.298-0.307-1.974-1.567-2.083v-0.051  c1.567-0.231,1.567-1.215,1.567-2.542c0-2.087-0.728-2.712-2.626-2.712h-4.566v9.104h1.704v-3.035H108.625"
   id="path5268" />
<polyline
   fill="#FFFFFF"
   points="121.916,625.606 121.916,633.278 123.619,633.278 123.619,624.175 120.789,624.175   118.338,630.938 118.291,630.938 115.789,624.175 113.021,624.175 113.021,633.278 114.724,633.278 114.724,625.645 117.53,633.278   119.109,633.278 121.916,625.606 "
   id="polyline5270" />
<path
   fill="#FFFFFF"
   d="M128.779,625.668c1.514,0,2.117,0.119,2.117,1.784v2.386c0,1.71-0.541,1.923-2.117,1.923  c-1.704,0-2.046-0.166-2.046-1.923v-2.386C126.732,626.048,126.913,625.668,128.779,625.668 M128.779,624.175  c-2.815,0-3.75,0.488-3.75,3.277v2.386c0,2.96,1.006,3.44,3.75,3.44c2.711,0,3.821-0.555,3.821-3.44v-2.386  C132.6,624.568,131.357,624.175,128.779,624.175"
   id="path5272" />
<path
   fill="#FFFFFF"
   d="M135.582,628.727v-3.059h2.352c1.209,0,1.434,0.229,1.434,1.494c0,1.313-0.296,1.564-1.509,1.564H135.582   M138.229,630.243c0.828,0,1.139,0.54,1.139,1.316v1.719h1.703v-1.716c0-1.298-0.308-1.974-1.567-2.083v-0.051  c1.567-0.231,1.567-1.215,1.567-2.542c0-2.087-0.728-2.712-2.626-2.712h-4.566v9.104h1.703v-3.035H138.229"
   id="path5274" />
<path
   fill="#FFFFFF"
   d="M144.518,626.83h-1.514v1.662h1.514V626.83 M144.518,631.616h-1.514v1.662h1.514V631.616"
   id="path5276" />
<path
   fill="#FFFFFF"
   d="M150.774,630.234v0.421c0,2.623,1.801,2.623,3.818,2.623c2.348,0,3.563-0.226,3.563-2.851  c0-2.297-0.772-2.442-3.596-2.585c-1.842-0.094-2.082-0.127-2.082-1.093c0-0.976,0.29-1.144,2.094-1.144  c1.275,0,1.692,0.035,1.692,1.021v0.291h1.703v-0.3c0-2.444-1.467-2.444-3.395-2.444c-2.215,0-3.797,0-3.797,2.575  c0,2.438,1.559,2.364,3.546,2.486c1.413,0.071,2.132-0.098,2.132,1.191c0,1.046-0.228,1.333-1.881,1.333  c-1.638,0-2.094-0.071-2.094-1.105v-0.421H150.774"
   id="path5278" />
<path
   fill="#FFFFFF"
   d="M163.51,628.987l-0.751,1.002l2.345,1.404c-0.509,0.367-1.212,0.367-1.902,0.367  c-1.86,0-2.383-0.095-2.383-1.923v-2.386c0-1.678,0.751-1.784,2.383-1.784c1.786,0,2.349,0.178,2.349,1.784v1.559  c0,0.424,0,0.839,0,1.263L163.51,628.987 M167.969,631.938l-0.881-0.566c0.166-0.485,0.166-1.383,0.166-1.534v-2.386  c0-3.171-1.792-3.277-4.052-3.277c-2.741,0-4.086,0.477-4.086,3.277v2.386c0,2.983,1.162,3.44,4.096,3.44  c1.088,0,2.428,0,3.286-0.877l0.769,0.604L167.969,631.938"
   id="path5280" />
<path
   fill="#FFFFFF"
   d="M174.45,624.175v6.389c0,0.97-0.447,1.197-2.094,1.197c-1.724,0-2.07-0.275-2.07-1.197v-6.389h-1.703v6.419  c0,2.527,1.638,2.685,3.773,2.685c2.209,0,3.797-0.172,3.797-2.715v-6.389H174.45"
   id="path5282" />
<path
   fill="#FFFFFF"
   d="M182.9,630.243h-3.152l1.559-4.731h0.024L182.9,630.243 M183.29,631.571l0.598,1.707h1.777l-3.093-9.104  h-2.583l-3.031,9.104h1.815l0.571-1.707H183.29"
   id="path5284" />
<path
   fill="#FFFFFF"
   d="M188.007,631.784v-6.116h2.665c1.366,0,1.878,0.377,1.878,1.894v2.148c0,1.02-0.373,2.074-1.579,2.074  H188.007 M186.304,633.278h4.667c2.75,0,3.282-1.675,3.282-3.568v-2.148c0-2.477-1.067-3.387-3.581-3.387h-4.368V633.278"
   id="path5286" />
<path
   fill="#FFFFFF"
   d="M201.404,625.496h4.947v-1.321h-6.461v4.931h1.514c0.151-0.568,0.822-0.568,1.73-0.568  c1.618,0,1.866,0.181,1.866,1.629c0,1.45-0.249,1.595-1.878,1.595c-1.132,0-1.718,0-1.718-1.161h-1.704  c0,2.353,1.015,2.679,3.283,2.679c2.771,0,3.72-0.358,3.72-3.147c0-2.249-0.636-3.111-3.061-3.111c-0.733,0-1.804,0-2.215,0.759  h-0.023V625.496"
   id="path5288" />
<polyline
   points="40.115,681.856 40.095,681.856 38.898,677.381 37.718,677.381 36.497,681.856 36.467,681.856 35.357,677.381   34.334,677.381 35.72,682.691 37.186,682.691 38.289,678.641 38.316,678.641 39.383,682.691 40.862,682.691 42.298,677.381   41.267,677.381 40.115,681.856 "
   id="polyline5290" />
<path
   d="M43.218,680.479c0-0.697,0.05-0.87,0.819-0.87c0.728,0,0.84,0.061,0.84,0.87H43.218 M44.877,681.512  c0,0.516-0.346,0.516-0.84,0.516c-0.799,0-0.819-0.24-0.819-0.996h2.544c0-1.648-0.204-2.102-1.725-2.102  c-1.494,0-1.704,0.593-1.704,1.95c0,1.377,0.289,1.812,1.704,1.812c1.056,0,1.725-0.056,1.725-1.18H44.877"
   id="path5292" />
<path
   d="M48.913,682.691h0.885v-2.33c0-1.247-0.503-1.432-1.708-1.432c-0.844,0-1.611,0-1.611,1.101h0.885  c0-0.458,0.323-0.492,0.726-0.492c0.771,0,0.823,0.202,0.823,0.776v0.515h-0.029c-0.22-0.461-0.683-0.461-1.153-0.461  c-0.904,0-1.362,0.247-1.362,1.136c0,1.009,0.536,1.188,1.362,1.188c0.447,0,1.002,0,1.182-0.548V682.691 M48.061,681.031  c0.456,0,0.852,0,0.852,0.473c0,0.485-0.36,0.523-0.852,0.523c-0.597,0-0.807-0.045-0.807-0.523  C47.253,681.031,47.592,681.031,48.061,681.031"
   id="path5294" />
<path
   d="M51.533,678.93h-0.885v5.421h0.885v-2.185h0.035c0.188,0.442,0.655,0.525,1.101,0.525c1.262,0,1.409-0.691,1.409-1.766  c0-1.128,0-1.996-1.409-1.996c-0.512,0-0.915,0.112-1.136,0.596V678.93 M52.411,682.027c-0.759,0-0.878-0.314-0.878-1.102  c0-0.876,0-1.317,0.878-1.317c0.781,0,0.781,0.484,0.781,1.317C53.192,681.853,53.018,682.027,52.411,682.027"
   id="path5296" />
<path
   d="M56.472,679.608c0.767,0,0.83,0.226,0.83,1.221c0,0.98-0.063,1.198-0.83,1.198c-0.768,0-0.83-0.218-0.83-1.198  C55.642,679.834,55.704,679.608,56.472,679.608 M56.472,678.93c-1.521,0-1.715,0.458-1.715,1.893c0,1.416,0.194,1.869,1.715,1.869  s1.714-0.453,1.714-1.869C58.186,679.388,57.993,678.93,56.472,678.93"
   id="path5298" />
<path
   d="M58.988,678.93v3.762h0.885v-2.049c0-0.666,0.104-1.034,0.868-1.034c0.563,0,0.681,0.186,0.681,0.724v2.359h0.885v-2.451  c0-0.906-0.294-1.311-1.26-1.311c-0.513,0-0.951,0.056-1.146,0.596h-0.027v-0.596H58.988"
   id="path5300" />
<path
   d="M66.319,679.969c0-1.039-0.868-1.039-1.565-1.039c-0.911,0-1.642,0-1.642,1.024c0,0.915,0.24,1.091,1.565,1.112  c0.847,0.014,0.868,0.171,0.868,0.483c0,0.478-0.295,0.478-0.802,0.478c-0.625,0-0.747-0.061-0.747-0.579h-0.885  c0,1.243,0.658,1.243,1.638,1.243c0.913,0,1.68-0.103,1.68-1.142c0-1.161-0.769-1.098-1.603-1.139  c-0.738-0.035-0.831-0.049-0.831-0.403c0-0.47,0.311-0.47,0.762-0.47c0.453,0,0.676,0,0.676,0.431H66.319"
   id="path5302" />
<path
   d="M74.14,682.691l0.482-0.675l-0.759-0.658c0.107-0.303,0.107-0.646,0.107-0.97v-0.352h-0.885v0.695l-1.668-1.417  c-0.232-0.186-0.323-0.31-0.323-0.61c0-0.489,0.266-0.489,0.764-0.489c0.756,0,0.785,0.1,0.785,0.783h0.885  c0-1.385-0.31-1.618-1.67-1.618c-1.068,0-1.648,0.166-1.648,1.317c0,0.449,0.084,0.613,0.413,0.905  c-0.838,0.069-0.966,0.64-0.966,1.403c0,1.562,0.8,1.685,2.123,1.685c0.712,0,1.443,0,1.773-0.626L74.14,682.691 M72.889,681.496  c-0.235,0.31-0.584,0.31-1.099,0.31c-0.899,0-1.248,0-1.248-0.799c0-0.591,0-0.86,0.586-0.952L72.889,681.496"
   id="path5304" />
<polyline
   points="78.673,678.252 81.293,678.252 81.293,677.381 77.678,677.381 77.678,682.691 81.314,682.691 81.314,681.819   78.673,681.819 78.673,680.368 81.158,680.368 81.158,679.482 78.673,679.482 78.673,678.252 "
   id="polyline5306" />
<path
   d="M85.378,678.93h-0.885v0.596c-0.221-0.483-0.624-0.596-1.135-0.596c-1.409,0-1.409,0.868-1.409,1.996  c0,1.074,0.147,1.766,1.409,1.766c0.446,0,0.913-0.083,1.101-0.525h0.034v2.185h0.885V678.93 M83.615,679.608  c0.759,0,0.878,0.315,0.878,1.102c0,0.876,0,1.317-0.878,1.317c-0.781,0-0.781-0.484-0.781-1.317  C82.834,679.783,83.009,679.608,83.615,679.608"
   id="path5308" />
<path
   d="M89.604,682.691v-3.762H88.72v2.157c0,0.648-0.223,0.94-0.918,0.94c-0.581,0-0.631-0.206-0.631-0.74v-2.357h-0.885v2.691  c0,0.814,0.498,1.07,1.243,1.07c0.517,0,0.983-0.118,1.191-0.599v0.599H89.604"
   id="path5310" />
<path
   d="M91.369,677.381h-0.885v0.757h0.885V677.381 M91.369,678.93h-0.885v3.762h0.885V678.93"
   id="path5312" />
<path
   d="M93.04,678.93h-0.885v5.421h0.885v-2.185h0.035c0.188,0.442,0.655,0.525,1.101,0.525c1.262,0,1.409-0.691,1.409-1.766  c0-1.128,0-1.996-1.409-1.996c-0.512,0-0.914,0.112-1.136,0.596V678.93 M93.918,682.027c-0.759,0-0.878-0.314-0.878-1.102  c0-0.876,0-1.317,0.878-1.317c0.781,0,0.781,0.484,0.781,1.317C94.699,681.853,94.524,682.027,93.918,682.027"
   id="path5314" />
<rect
   x="96.596"
   y="681.722"
   width="0.885"
   height="0.97"
   id="rect5316" />
<path
   d="M125.199,681.819v-3.567h1.557c0.799,0,1.098,0.22,1.098,1.104v1.253c0,0.595-0.218,1.21-0.923,1.21H125.199   M124.203,682.691h2.728c1.607,0,1.918-0.977,1.918-2.082v-1.253c0-1.445-0.624-1.976-2.093-1.976h-2.553V682.691"
   id="path5318" />
<path
   d="M129.542,678.93v3.762h0.885v-2.097c0-0.659,0.15-0.986,0.913-0.986c0.517,0,0.636,0.186,0.636,0.652v2.431h0.885v-2.097  c0-0.659,0.138-0.986,0.847-0.986c0.48,0,0.591,0.186,0.591,0.652v2.431h0.885v-2.516c0-0.913-0.309-1.246-1.246-1.246  c-0.487,0-0.987,0.142-1.154,0.657h-0.028c-0.099-0.538-0.631-0.657-1.094-0.657c-0.494,0-1.025,0.105-1.234,0.574v-0.574H129.542"
   id="path5320" />
<path
   d="M138.517,682.836c0,0.684-0.154,0.851-0.871,0.851c-0.491,0-0.678-0.083-0.678-0.631h-0.885  c-0.057,1.136,0.636,1.295,1.563,1.295c1.338,0,1.756-0.329,1.756-1.708v-3.713h-0.885v0.596c-0.22-0.483-0.619-0.596-1.127-0.596  c-1.417,0-1.417,0.868-1.417,1.996c0,1.074,0.148,1.766,1.417,1.766c0.438,0,0.9-0.083,1.127-0.561V682.836 M137.646,679.608  c0.753,0,0.871,0.316,0.871,1.102c0,0.876,0,1.317-0.878,1.317c-0.781,0-0.781-0.484-0.781-1.317  C136.857,679.783,137.033,679.608,137.646,679.608"
   id="path5322" />
<polyline
   points="156.729,678.216 156.729,682.691 157.725,682.691 157.725,677.381 156.07,677.381 154.638,681.325 154.61,681.325   153.148,677.381 151.53,677.381 151.53,682.691 152.525,682.691 152.525,678.238 154.166,682.691 155.089,682.691 156.729,678.216   "
   id="polyline5324" />
<path
   d="M159.544,677.381h-0.885v0.757h0.885V677.381 M159.544,678.93h-0.885v3.762h0.885V678.93"
   id="path5326" />
<path
   d="M160.33,678.93v3.762h0.885v-2.049c0-0.666,0.104-1.034,0.868-1.034c0.563,0,0.681,0.186,0.681,0.724v2.359h0.885v-2.451  c0-0.906-0.294-1.311-1.26-1.311c-0.514,0-0.951,0.056-1.146,0.596h-0.028v-0.596H160.33"
   id="path5328" />
<path
   d="M169.021,680.916v0.245c0,1.53,1.053,1.53,2.231,1.53c1.372,0,2.083-0.132,2.083-1.663c0-1.34-0.451-1.425-2.102-1.508  c-1.077-0.055-1.217-0.074-1.217-0.638c0-0.568,0.169-0.667,1.224-0.667c0.745,0,0.989,0.021,0.989,0.596v0.17h0.996v-0.175  c0-1.426-0.857-1.426-1.984-1.426c-1.294,0-2.219,0-2.219,1.502c0,1.423,0.911,1.38,2.072,1.45c0.826,0.042,1.246-0.057,1.246,0.695  c0,0.61-0.133,0.777-1.099,0.777c-0.958,0-1.224-0.041-1.224-0.645v-0.245H169.021"
   id="path5330" />
<path
   d="M174.892,677.381h-0.885v5.311h0.885v-2.049c0-0.666,0.104-1.034,0.868-1.034c0.563,0,0.681,0.186,0.681,0.724v2.359h0.885  v-2.451c0-0.906-0.294-1.311-1.26-1.311c-0.513,0-0.951,0.057-1.146,0.602h-0.027V677.381"
   id="path5332" />
<path
   d="M177.774,679.594h0.467v1.938c0,0.936,0.301,1.16,1.29,1.16c0.97,0,1.255-0.339,1.255-1.461h-0.774  c0,0.395,0.055,0.797-0.48,0.797c-0.404,0-0.404-0.157-0.404-0.503v-1.931h1.471v-0.664h-1.471v-0.859h-0.885v0.859h-0.467V679.594"
   id="path5334" />
<polyline
   points="189.967,678.216 189.967,682.691 190.962,682.691 190.962,677.381 189.308,677.381 187.875,681.325   187.848,681.325 186.386,677.381 184.768,677.381 184.768,682.691 185.763,682.691 185.763,678.238 187.403,682.691   188.327,682.691 189.967,678.216 "
   id="polyline5336" />
<path
   d="M192.671,680.479c0-0.697,0.05-0.87,0.819-0.87c0.728,0,0.84,0.061,0.84,0.87H192.671 M194.331,681.512  c0,0.516-0.346,0.516-0.84,0.516c-0.799,0-0.819-0.24-0.819-0.996h2.544c0-1.648-0.204-2.102-1.725-2.102  c-1.494,0-1.705,0.593-1.705,1.95c0,1.377,0.289,1.812,1.705,1.812c1.056,0,1.725-0.056,1.725-1.18H194.331"
   id="path5338" />
<path
   d="M198.366,682.691h0.885v-5.311h-0.885v2.086h-0.021c-0.19-0.452-0.662-0.537-1.111-0.537c-1.265,0-1.412,0.696-1.412,1.78  c0,1.129,0,1.981,1.412,1.981c0.512,0,0.911-0.109,1.132-0.583V682.691 M197.495,679.608c0.766,0,0.871,0.315,0.871,1.102  c0,0.876,0,1.317-0.871,1.317c-0.789,0-0.789-0.484-0.789-1.317C196.706,679.783,196.882,679.608,197.495,679.608"
   id="path5340" />
<polyline
   points="204.425,677.381 203.429,677.381 203.429,682.691 206.903,682.691 206.903,681.819 204.425,681.819   204.425,677.381 "
   id="polyline5342" />
<path
   d="M207.429,678.93v3.762h0.885v-2.049c0-0.666,0.104-1.034,0.868-1.034c0.563,0,0.681,0.186,0.681,0.724v2.359h0.885v-2.451  c0-0.906-0.294-1.311-1.26-1.311c-0.514,0-0.951,0.056-1.146,0.596h-0.028v-0.596H207.429"
   id="path5344" />
<path
   d="M214.096,682.836c0,0.684-0.154,0.851-0.871,0.851c-0.491,0-0.677-0.083-0.677-0.631h-0.885  c-0.057,1.136,0.636,1.295,1.563,1.295c1.338,0,1.756-0.329,1.756-1.708v-3.713h-0.885v0.596c-0.219-0.483-0.619-0.596-1.127-0.596  c-1.417,0-1.417,0.868-1.417,1.996c0,1.074,0.148,1.766,1.417,1.766c0.439,0,0.9-0.083,1.127-0.561V682.836 M213.225,679.608  c0.754,0,0.871,0.316,0.871,1.102c0,0.876,0,1.317-0.878,1.317c-0.781,0-0.781-0.484-0.781-1.317  C212.437,679.783,212.613,679.608,213.225,679.608"
   id="path5346" />
<path
   d="M70.188,685.877"
   id="path5348" />
<path
   d="M70.166,686.407"
   id="path5350" />
<path
   d="M35.333,703.4 M37.594,708.18"
   id="path5352" />
<path
   d="M234.713,660.469h-3.937c0-0.966,0.421-0.764,1.914-1.157c1.543-0.411,2.023-0.717,2.023-2.323  c0-2.035-1.162-2.276-2.877-2.276c-1.857,0-2.877,0.376-2.877,2.345v0.353h1.817v-0.353c0-0.767,0.142-0.833,1.06-0.833  c0.807,0,1.06,0.085,1.06,0.793c0,0.735-0.087,0.717-1.344,1.003c-2.229,0.509-2.593,0.786-2.593,2.449v1.513h5.754V660.469"
   id="path5354" />
<path
   d="M231.381,677.126h0.476c1.095,0,1.19,0.178,1.19,0.658c0,0.818-0.333,0.856-1.19,0.856c-0.665,0-1.081-0.038-1.081-0.828  v-0.234h-1.817v0.383c0,2.05,1.325,2.194,2.986,2.194c1.673,0,2.92-0.27,2.92-2.135c0-0.818-0.274-1.477-1.211-1.515v-0.075  c0.847-0.113,1.06-0.808,1.06-1.603c0-1.846-1.519-1.942-2.769-1.942c-1.878,0-2.986,0.173-2.986,2.229v0.249h1.817v-0.145  c0-0.821,0.345-0.821,1.081-0.821c1.008,0,1.039,0.199,1.039,0.783c0,0.487-0.078,0.582-1.039,0.582h-0.476V677.126"
   id="path5356" />
<path
   d="M232.441,695.604h-2.279l2.21-3.05h0.068V695.604 M234.258,691.061h-2.834l-2.783,3.848v2.059h3.8v1.363h1.817v-1.363h0.62  v-1.363h-0.62V691.061"
   id="path5358" />
<polyline
   points="233.804,636.472 231.507,636.472 228.862,638.662 229.955,639.903 231.835,638.188 231.835,643.741   233.804,643.741 233.804,636.472 "
   id="polyline5360" />
<path
   fill="#C6C8CA"
   d="M257.376,695.149c0,1.444-1.172,2.617-2.617,2.617c-1.447,0-2.618-1.173-2.618-2.617  c0-1.448,1.171-2.621,2.618-2.621C256.204,692.528,257.376,693.701,257.376,695.149"
   id="path5362" />
<path
   fill="none"
   stroke="#000000"
   stroke-width="1.0114"
   d="M257.376,695.149c0,1.446-1.172,2.618-2.617,2.618  c-1.447,0-2.618-1.172-2.618-2.618c0-1.447,1.171-2.619,2.618-2.619C256.204,692.53,257.376,693.702,257.376,695.149"
   id="path5364" />
<polygon
   fill="none"
   stroke="#000000"
   stroke-width="1.0114"
   points="386.496,699.291 384.603,701.309 252.839,701.309   251.021,703.329 229.32,703.329 227.275,701.309 227.275,688.521 229.621,686.502 251.021,686.502 252.839,688.521 384.628,688.521   386.496,690.54 "
   id="polygon5366" />
<path
   fill="#C6C8CA"
   d="M257.376,676.941c0,1.446-1.172,2.618-2.617,2.618c-1.447,0-2.618-1.172-2.618-2.618  c0-1.447,1.171-2.619,2.618-2.619C256.204,674.322,257.376,675.494,257.376,676.941"
   id="path5368" />
<path
   fill="none"
   stroke="#000000"
   stroke-width="1.0114"
   d="M257.376,676.942c0,1.445-1.172,2.617-2.617,2.617  c-1.447,0-2.618-1.172-2.618-2.617c0-1.447,1.171-2.62,2.618-2.62C256.204,674.322,257.376,675.495,257.376,676.942"
   id="path5370" />
<polygon
   fill="none"
   stroke="#000000"
   stroke-width="1.0114"
   points="386.496,681.084 384.603,683.103 252.839,683.103   251.021,685.122 229.32,685.122 227.275,683.103 227.275,670.315 229.621,668.295 251.021,668.295 252.839,670.315 384.628,670.315   386.496,672.334 "
   id="polygon5372" />
<path
   fill="#C6C8CA"
   d="M257.376,658.735c0,1.444-1.172,2.617-2.617,2.617c-1.447,0-2.618-1.173-2.618-2.617  c0-1.447,1.171-2.62,2.618-2.62C256.204,656.115,257.376,657.288,257.376,658.735"
   id="path5374" />
<path
   fill="none"
   stroke="#000000"
   stroke-width="1.0114"
   d="M257.376,658.735c0,1.446-1.172,2.617-2.617,2.617  c-1.447,0-2.618-1.171-2.618-2.617c0-1.447,1.171-2.62,2.618-2.62C256.204,656.115,257.376,657.288,257.376,658.735"
   id="path5376" />
<polygon
   fill="none"
   stroke="#000000"
   stroke-width="1.0114"
   points="386.496,662.877 384.603,664.895 252.839,664.895   251.021,666.915 229.32,666.915 227.275,664.895 227.275,652.107 229.621,650.088 251.021,650.088 252.839,652.107 384.628,652.107   386.496,654.127 "
   id="polygon5378" />
<path
   fill="#C6C8CA"
   d="M257.376,640.527c0,1.446-1.172,2.619-2.617,2.619c-1.447,0-2.618-1.173-2.618-2.619  c0-1.447,1.171-2.619,2.618-2.619C256.204,637.908,257.376,639.08,257.376,640.527"
   id="path5380" />
<path
   fill="none"
   stroke="#000000"
   stroke-width="1.0114"
   d="M257.376,640.527c0,1.446-1.172,2.619-2.617,2.619  c-1.447,0-2.618-1.173-2.618-2.619c0-1.447,1.171-2.619,2.618-2.619C256.204,637.908,257.376,639.08,257.376,640.527"
   id="path5382" />
<polygon
   fill="none"
   stroke="#000000"
   stroke-width="1.0114"
   points="386.496,644.671 384.603,646.689 252.839,646.689   251.021,648.709 229.32,648.709 227.275,646.689 227.275,633.901 229.621,631.881 251.021,631.881 252.839,633.901 384.628,633.901   386.496,635.921 "
   id="polygon5384" />




</svg>